<svg xmlns="http://www.w3.org/2000/svg" xmlns:xlink="http://www.w3.org/1999/xlink" width="280" zoomAndPan="magnify" viewBox="0 0 210 79.499998" height="106" preserveAspectRatio="xMidYMid meet" version="1.0"><defs><g/><clipPath id="10a3d63fac"><path d="M 0.65625 2.753906 L 209.03125 2.753906 L 209.03125 74.585938 L 0.65625 74.585938 Z M 0.65625 2.753906 " clip-rule="nonzero"/></clipPath><clipPath id="b06bee40ab"><path d="M 209.03125 52.292969 L 209.03125 25.042969 C 196.765625 25.042969 186.742188 15.125 186.742188 2.753906 L 22.941406 2.753906 C 22.941406 15.019531 13.023438 25.042969 0.652344 25.042969 L 0.652344 52.292969 C 12.917969 52.292969 22.941406 62.214844 22.941406 74.585938 L 186.742188 74.585938 C 186.742188 62.320312 196.660156 52.292969 209.03125 52.292969 Z M 209.03125 52.292969 " clip-rule="nonzero"/></clipPath><clipPath id="3049080c27"><path d="M 142.480469 25.78125 L 155 25.78125 L 155 47 L 142.480469 47 Z M 142.480469 25.78125 " clip-rule="nonzero"/></clipPath><clipPath id="420ed28c73"><path d="M 177 27 L 192.414062 27 L 192.414062 49 L 177 49 Z M 177 27 " clip-rule="nonzero"/></clipPath></defs><g clip-path="url(#10a3d63fac)"><g clip-path="url(#b06bee40ab)"><path fill="#cf4545" d="M 209.03125 2.753906 L 209.03125 74.585938 L 0.554688 74.585938 L 0.554688 2.753906 Z M 209.03125 2.753906 " fill-opacity="1" fill-rule="nonzero"/></g></g><path fill="#ffcf7e" d="M 167.441406 56.980469 C 166.164062 56.980469 164.515625 56.273438 163.75 55.769531 C 162.824219 55.160156 158.167969 51.660156 154.296875 48.417969 C 153.648438 47.875 152.691406 46.875 151.765625 45.90625 C 151.074219 45.1875 150.453125 44.527344 150.128906 44.253906 C 149.691406 43.886719 149.636719 43.226562 150.007812 42.789062 C 150.375 42.347656 151.03125 42.292969 151.472656 42.667969 C 151.824219 42.964844 152.515625 43.679688 153.265625 44.464844 C 154.117188 45.351562 155.078125 46.355469 155.632812 46.820312 C 159.585938 50.132812 164.164062 53.546875 164.894531 54.027344 C 165.503906 54.433594 166.75 54.898438 167.441406 54.898438 C 168.414062 54.898438 168.503906 54.652344 168.542969 54.546875 C 168.664062 54.21875 168.933594 53.972656 169.273438 53.890625 C 169.609375 53.808594 169.96875 53.898438 170.226562 54.132812 C 170.640625 54.511719 171.101562 54.4375 171.417969 54.316406 C 172.078125 54.0625 172.582031 53.40625 172.644531 52.722656 C 172.683594 52.328125 172.941406 51.988281 173.3125 51.847656 C 173.679688 51.710938 174.101562 51.789062 174.390625 52.0625 C 174.652344 52.300781 175.34375 52.359375 176.011719 52.023438 C 176.273438 51.894531 176.878906 51.515625 176.808594 50.851562 C 176.765625 50.449219 176.960938 50.054688 177.308594 49.847656 C 177.65625 49.640625 178.09375 49.65625 178.433594 49.886719 C 178.738281 50.101562 179.300781 49.988281 179.714844 49.632812 C 179.992188 49.394531 180.40625 48.871094 180.023438 48.070312 C 179.242188 46.449219 175.777344 43.644531 172.71875 41.171875 C 171.027344 39.804688 169.421875 38.507812 168.230469 37.390625 C 167.929688 37.511719 167.699219 37.613281 167.503906 37.703125 C 166.964844 37.945312 166.605469 38.09375 165.941406 38.195312 C 164.339844 40.320312 162.191406 41.066406 159.832031 40.289062 C 158.894531 39.980469 158.261719 39.3125 158.046875 38.414062 C 157.546875 36.304688 159.480469 33.425781 160.902344 32.003906 C 164.640625 28.261719 167.257812 26.859375 172.027344 28.992188 C 176.121094 30.824219 180.222656 32.257812 180.261719 32.269531 C 180.804688 32.460938 181.089844 33.054688 180.902344 33.597656 C 180.714844 34.136719 180.125 34.425781 179.578125 34.238281 C 179.535156 34.222656 175.351562 32.757812 171.175781 30.890625 C 167.492188 29.246094 165.75 30.09375 162.371094 33.476562 C 160.949219 34.894531 159.855469 37.019531 160.074219 37.933594 C 160.105469 38.066406 160.164062 38.207031 160.488281 38.316406 C 161.503906 38.65625 163.027344 38.84375 164.496094 36.644531 C 164.667969 36.386719 164.949219 36.21875 165.257812 36.1875 C 165.957031 36.117188 166.132812 36.039062 166.652344 35.808594 C 166.996094 35.65625 167.425781 35.460938 168.128906 35.207031 C 168.503906 35.070312 168.929688 35.160156 169.214844 35.449219 C 170.355469 36.585938 172.136719 38.03125 174.027344 39.558594 C 177.414062 42.296875 180.917969 45.132812 181.898438 47.171875 C 182.585938 48.605469 182.257812 50.195312 181.066406 51.214844 C 180.359375 51.820312 179.507812 52.113281 178.679688 52.070312 C 178.378906 52.824219 177.777344 53.464844 176.941406 53.886719 C 176.089844 54.3125 175.152344 54.4375 174.332031 54.261719 C 173.890625 55.15625 173.113281 55.894531 172.167969 56.261719 C 171.367188 56.574219 170.535156 56.570312 169.800781 56.285156 C 169.253906 56.746094 168.46875 56.980469 167.441406 56.980469 Z M 167.441406 56.980469 " fill-opacity="1" fill-rule="nonzero"/><path fill="#ffcf7e" d="M 163.28125 32.019531 L 153.921875 32.019531 C 153.347656 32.019531 152.882812 31.554688 152.882812 30.980469 C 152.882812 30.40625 153.347656 29.941406 153.921875 29.941406 L 163.28125 29.941406 C 163.855469 29.941406 164.320312 30.40625 164.320312 30.980469 C 164.320312 31.554688 163.855469 32.019531 163.28125 32.019531 Z M 163.28125 32.019531 " fill-opacity="1" fill-rule="nonzero"/><path fill="#ffcf7e" d="M 181.042969 48.621094 C 180.707031 48.621094 180.378906 48.460938 180.175781 48.164062 C 179.855469 47.6875 179.984375 47.039062 180.460938 46.71875 L 183.5 44.675781 C 183.976562 44.351562 184.621094 44.484375 184.945312 44.960938 C 185.265625 45.4375 185.136719 46.082031 184.660156 46.402344 L 181.621094 48.445312 C 181.441406 48.566406 181.238281 48.621094 181.042969 48.621094 Z M 181.042969 48.621094 " fill-opacity="1" fill-rule="nonzero"/><path fill="#ffcf7e" d="M 177.839844 51.78125 C 177.617188 51.78125 177.386719 51.707031 177.199219 51.558594 C 176.101562 50.691406 171.386719 45.777344 170.851562 45.21875 C 170.457031 44.804688 170.46875 44.148438 170.882812 43.75 C 171.296875 43.351562 171.957031 43.363281 172.355469 43.78125 C 174.414062 45.925781 177.742188 49.335938 178.488281 49.921875 C 178.941406 50.277344 179.015625 50.933594 178.660156 51.382812 C 178.453125 51.644531 178.148438 51.78125 177.839844 51.78125 Z M 177.839844 51.78125 " fill-opacity="1" fill-rule="nonzero"/><path fill="#ffcf7e" d="M 173.679688 53.859375 C 173.453125 53.859375 173.222656 53.785156 173.03125 53.632812 C 171.488281 52.398438 167.753906 48.363281 167.714844 48.324219 C 167.328125 47.902344 167.355469 47.242188 167.777344 46.855469 C 168.203125 46.46875 168.859375 46.492188 169.25 46.917969 C 169.957031 47.6875 173.085938 51.011719 174.332031 52.007812 C 174.78125 52.367188 174.851562 53.023438 174.496094 53.472656 C 174.289062 53.726562 173.984375 53.859375 173.679688 53.859375 Z M 173.679688 53.859375 " fill-opacity="1" fill-rule="nonzero"/><path fill="#ffcf7e" d="M 169.523438 55.941406 C 169.285156 55.941406 169.046875 55.859375 168.851562 55.695312 C 167.320312 54.402344 164.414062 51.324219 163.5625 50.410156 C 163.171875 49.988281 163.191406 49.332031 163.613281 48.9375 C 164.03125 48.546875 164.691406 48.570312 165.082031 48.988281 C 165.675781 49.625 168.710938 52.851562 170.195312 54.101562 C 170.632812 54.472656 170.6875 55.128906 170.320312 55.570312 C 170.113281 55.8125 169.816406 55.941406 169.523438 55.941406 Z M 169.523438 55.941406 " fill-opacity="1" fill-rule="nonzero"/><g clip-path="url(#3049080c27)"><path fill="#ffcf7e" d="M 149.761719 46.582031 L 143.523438 46.582031 C 142.949219 46.582031 142.484375 46.113281 142.484375 45.539062 L 142.484375 26.820312 C 142.484375 26.535156 142.601562 26.261719 142.808594 26.066406 C 143.019531 25.867188 143.289062 25.769531 143.585938 25.785156 C 145.726562 25.910156 152.855469 26.457031 154.636719 28.148438 C 154.867188 28.363281 154.984375 28.675781 154.957031 28.992188 C 154.484375 34.398438 150.902344 45.398438 150.75 45.863281 C 150.613281 46.292969 150.210938 46.582031 149.761719 46.582031 Z M 144.5625 44.5 L 149.003906 44.5 C 149.777344 42.058594 152.269531 33.964844 152.824219 29.410156 C 151.511719 28.773438 147.90625 28.199219 144.5625 27.9375 Z M 144.5625 44.5 " fill-opacity="1" fill-rule="nonzero"/></g><g clip-path="url(#420ed28c73)"><path fill="#ffcf7e" d="M 191.359375 48.660156 L 185.121094 48.660156 C 184.652344 48.660156 184.242188 48.347656 184.117188 47.898438 C 183.34375 45.09375 179.320312 33.601562 178.035156 31.53125 C 177.878906 31.277344 177.835938 30.972656 177.921875 30.6875 C 178.003906 30.402344 178.207031 30.167969 178.476562 30.039062 C 178.664062 29.953125 183.195312 27.863281 191.359375 27.863281 C 191.933594 27.863281 192.402344 28.324219 192.402344 28.902344 L 192.402344 47.621094 C 192.402344 48.195312 191.933594 48.660156 191.359375 48.660156 Z M 185.898438 46.582031 L 190.320312 46.582031 L 190.320312 29.953125 C 185.371094 30.070312 181.964844 30.996094 180.375 31.535156 C 182 34.996094 184.914062 43.371094 185.898438 46.582031 Z M 185.898438 46.582031 " fill-opacity="1" fill-rule="nonzero"/></g><g fill="#ffcf7e" fill-opacity="1"><g transform="translate(59.057079, 31.496855)"><g><path d="M 4.84375 -12.4375 L 5.5 -12.4375 C 5.976562 -12.4375 6.21875 -12.695312 6.21875 -13.21875 L 6.21875 -17.359375 L 10.125 -17.359375 L 10.125 -12.5 C 10.125 -10.46875 9.253906 -9.453125 7.515625 -9.453125 L 4.84375 -9.453125 L 4.84375 -5.328125 C 4.84375 -4.796875 5.0625 -4.53125 5.5 -4.53125 L 10.84375 -4.53125 C 11.28125 -4.53125 11.5 -4.796875 11.5 -5.328125 L 11.5 -17.359375 L 15.609375 -17.359375 L 15.609375 -3.9375 C 15.609375 -2.75 15.296875 -1.800781 14.671875 -1.09375 C 14.023438 -0.363281 13.113281 0 11.9375 0 L 4.40625 0 C 1.96875 0 0.75 -1.3125 0.75 -3.9375 L 0.75 -17.359375 L 4.84375 -17.359375 Z M 4.84375 -12.4375 "/></g></g></g><g fill="#ffcf7e" fill-opacity="1"><g transform="translate(75.408798, 31.496855)"><g><path d="M 7.21875 -16.359375 C 7.21875 -15.523438 6.851562 -14.71875 6.125 -13.9375 C 5.53125 -13.289062 4.851562 -12.796875 4.09375 -12.453125 L 4.09375 -19.90625 L 7.21875 -19.90625 Z M 3.390625 -16.359375 C 3.390625 -14.816406 2.359375 -13.515625 0.296875 -12.453125 L 0.296875 -19.90625 L 3.390625 -19.90625 Z M 3.390625 -16.359375 "/></g></g></g><g fill="#ffcf7e" fill-opacity="1"><g transform="translate(82.91739, 31.496855)"><g><path d="M 4.984375 0 L 0.75 0 L 0.75 -17.359375 L 4.984375 -17.359375 Z M 4.984375 0 "/></g></g></g><g fill="#ffcf7e" fill-opacity="1"><g transform="translate(88.651491, 31.496855)"><g><path d="M 11.09375 -3.375 C 11.09375 -1.125 10.003906 0 7.828125 0 L 0.78125 0 L 0.78125 -4.53125 L 6.03125 -4.53125 C 6.601562 -4.53125 6.890625 -4.875 6.890625 -5.5625 L 6.890625 -12.109375 C 6.890625 -12.585938 6.671875 -12.828125 6.234375 -12.828125 L 5.640625 -12.828125 C 5.242188 -12.828125 5.046875 -12.578125 5.046875 -12.078125 L 5.046875 -9.53125 L 0.75 -9.53125 L 0.75 -14.28125 C 0.75 -16.332031 1.734375 -17.359375 3.703125 -17.359375 L 8.046875 -17.359375 C 8.960938 -17.359375 9.703125 -17.078125 10.265625 -16.515625 C 10.816406 -15.929688 11.09375 -15.1875 11.09375 -14.28125 Z M 11.09375 -3.375 "/></g></g></g><g fill="#ffcf7e" fill-opacity="1"><g transform="translate(23.983977, 62.477362)"><g><path d="M 11.125 0 L 6.8125 0 L 6.8125 -12.109375 C 6.8125 -12.585938 6.566406 -12.828125 6.078125 -12.828125 L 0.75 -12.828125 L 0.75 -17.359375 L 8.0625 -17.359375 C 8.96875 -17.359375 9.707031 -17.070312 10.28125 -16.5 C 10.84375 -15.925781 11.125 -15.1875 11.125 -14.28125 Z M 4.984375 0 L 0.765625 0 L 0.765625 -10.765625 L 4.984375 -10.765625 Z M 4.984375 0 "/></g></g></g><g fill="#ffcf7e" fill-opacity="1"><g transform="translate(35.862805, 62.477362)"><g><path d="M 10.375 -6.28125 C 10.375 -2.09375 8.367188 0 4.359375 0 L 2.515625 0 L 2.515625 -4.53125 L 3.75 -4.53125 C 4.695312 -4.53125 5.34375 -4.832031 5.6875 -5.4375 C 5.9375 -5.863281 6.0625 -6.613281 6.0625 -7.6875 L 6.0625 -12.109375 C 6.0625 -12.585938 5.816406 -12.828125 5.328125 -12.828125 L 0.75 -12.828125 L 0.75 -19.515625 L 5 -19.515625 L 5 -17.359375 L 8.203125 -17.359375 C 9.648438 -17.359375 10.375 -16.660156 10.375 -15.265625 Z M 10.375 -6.28125 "/></g></g></g><g fill="#ffcf7e" fill-opacity="1"><g transform="translate(46.979041, 62.477362)"><g><path d="M 0.828125 0 L 0.828125 -4.53125 L 5.796875 -4.546875 L 3.015625 -10.140625 C 1.390625 -13.453125 0.460938 -15.859375 0.234375 -17.359375 L 4.734375 -17.359375 C 5.328125 -14.929688 6.164062 -12.785156 7.25 -10.921875 C 7.414062 -11.023438 7.515625 -11.226562 7.546875 -11.53125 C 7.578125 -11.707031 7.59375 -11.925781 7.59375 -12.1875 L 7.59375 -17.359375 L 11.859375 -17.359375 L 11.859375 -11.484375 C 11.859375 -10.585938 11.59375 -9.738281 11.0625 -8.9375 C 10.53125 -8.144531 9.867188 -7.535156 9.078125 -7.109375 C 10.921875 -3.429688 11.847656 -1.0625 11.859375 0 Z M 0.828125 0 "/></g></g></g><g fill="#ffcf7e" fill-opacity="1"><g transform="translate(59.591129, 62.477362)"><g><path d="M 11.125 0 L 6.8125 0 L 6.8125 -12.109375 C 6.8125 -12.585938 6.566406 -12.828125 6.078125 -12.828125 L 0.75 -12.828125 L 0.75 -17.359375 L 8.0625 -17.359375 C 8.96875 -17.359375 9.707031 -17.070312 10.28125 -16.5 C 10.84375 -15.925781 11.125 -15.1875 11.125 -14.28125 Z M 4.984375 0 L 0.765625 0 L 0.765625 -10.765625 L 4.984375 -10.765625 Z M 4.984375 0 "/></g></g></g><g fill="#ffcf7e" fill-opacity="1"><g transform="translate(71.469956, 62.477362)"><g><path d="M 4.984375 0 L 0.75 0 L 0.75 -17.359375 L 4.984375 -17.359375 Z M 4.984375 0 "/></g></g></g><g fill="#ffcf7e" fill-opacity="1"><g transform="translate(77.204057, 62.477362)"><g/></g></g><g fill="#ffcf7e" fill-opacity="1"><g transform="translate(83.847401, 62.477362)"><g><path d="M 10.8125 -14.28125 C 10.8125 -13.132812 10.566406 -12.148438 10.078125 -11.328125 C 9.710938 -10.710938 8.992188 -9.898438 7.921875 -8.890625 L 4.953125 -6.09375 L 4.953125 2.46875 L 0.75 2.46875 L 0.75 -17.359375 L 4.96875 -17.359375 L 4.96875 -11.390625 L 5.671875 -12.0625 C 6.285156 -12.65625 6.59375 -13.484375 6.59375 -14.546875 L 6.59375 -17.359375 L 10.8125 -17.359375 Z M 10.8125 -14.28125 "/></g></g></g><g fill="#ffcf7e" fill-opacity="1"><g transform="translate(95.256941, 62.477362)"><g><path d="M 4.984375 0 L 0.75 0 L 0.75 -17.359375 L 4.984375 -17.359375 Z M 4.984375 0 "/></g></g></g><g fill="#ffcf7e" fill-opacity="1"><g transform="translate(100.991042, 62.477362)"><g><path d="M 10.375 -6.28125 C 10.375 -2.09375 8.367188 0 4.359375 0 L 2.515625 0 L 2.515625 -4.53125 L 3.75 -4.53125 C 4.695312 -4.53125 5.34375 -4.832031 5.6875 -5.4375 C 5.9375 -5.863281 6.0625 -6.613281 6.0625 -7.6875 L 6.0625 -12.109375 C 6.0625 -12.585938 5.816406 -12.828125 5.328125 -12.828125 L 0.75 -12.828125 L 0.75 -19.515625 L 5 -19.515625 L 5 -17.359375 L 8.203125 -17.359375 C 9.648438 -17.359375 10.375 -16.660156 10.375 -15.265625 Z M 10.375 -6.28125 "/></g></g></g><g fill="#ffcf7e" fill-opacity="1"><g transform="translate(112.107278, 62.477362)"><g><path d="M 4.921875 -9.65625 L 0.71875 -9.65625 L 0.71875 -17.359375 L 4.921875 -17.359375 Z M 4.921875 -9.65625 "/></g></g></g><g fill="#ffcf7e" fill-opacity="1"><g transform="translate(117.782718, 62.477362)"><g><path d="M 11.328125 0 L 7.0625 0 L 7.0625 -12.015625 C 7.0625 -12.554688 6.8125 -12.828125 6.3125 -12.828125 L 5.8125 -12.828125 C 5.3125 -12.828125 5.0625 -12.554688 5.0625 -12.015625 L 5.0625 0 L 0.75 0 L 0.75 -14.328125 C 0.75 -15.410156 0.929688 -16.164062 1.296875 -16.59375 C 1.703125 -17.101562 2.429688 -17.359375 3.484375 -17.359375 L 8.390625 -17.359375 C 10.347656 -17.359375 11.328125 -16.347656 11.328125 -14.328125 Z M 11.328125 0 "/></g></g></g><g fill="#ffcf7e" fill-opacity="1"><g transform="translate(129.852193, 62.477362)"><g><path d="M 4.984375 0 L 0.75 0 L 0.75 -17.359375 L 4.984375 -17.359375 Z M 4.984375 0 "/></g></g></g></svg>