<svg xmlns="http://www.w3.org/2000/svg" xmlns:xlink="http://www.w3.org/1999/xlink" width="284" zoomAndPan="magnify" viewBox="0 0 212.87999 80.249996" height="107" preserveAspectRatio="xMidYMid meet" version="1.0"><defs><g/><clipPath id="92dc3a687b"><path d="M 0.925781 3.5 L 211.746094 3.5 L 211.746094 76.175781 L 0.925781 76.175781 Z M 0.925781 3.5 " clip-rule="nonzero"/></clipPath><clipPath id="befffa5f51"><path d="M 211.746094 53.621094 L 211.746094 26.050781 C 199.335938 26.050781 189.195312 16.015625 189.195312 3.5 L 23.46875 3.5 C 23.46875 15.910156 13.433594 26.050781 0.917969 26.050781 L 0.917969 53.621094 C 13.328125 53.621094 23.46875 63.65625 23.46875 76.175781 L 189.195312 76.175781 C 189.195312 63.765625 199.230469 53.621094 211.746094 53.621094 Z M 211.746094 53.621094 " clip-rule="nonzero"/></clipPath><clipPath id="a76e57a0d9"><path d="M 142 17.070312 L 185 17.070312 L 185 57.9375 L 142 57.9375 Z M 142 17.070312 " clip-rule="nonzero"/></clipPath></defs><g clip-path="url(#92dc3a687b)"><g clip-path="url(#befffa5f51)"><path fill="#cf4545" d="M 211.746094 3.5 L 211.746094 76.175781 L 0.820312 76.175781 L 0.820312 3.5 Z M 211.746094 3.5 " fill-opacity="1" fill-rule="nonzero"/></g></g><g clip-path="url(#a76e57a0d9)"><path fill="#ffcf7e" d="M 181.96875 38.285156 L 180.253906 38.285156 L 180.253906 55.867188 C 180.238281 56.105469 180.179688 56.332031 180.074219 56.550781 C 179.96875 56.765625 179.828125 56.953125 179.648438 57.113281 C 179.46875 57.273438 179.269531 57.390625 179.042969 57.472656 C 178.816406 57.550781 178.582031 57.585938 178.34375 57.574219 L 168.214844 57.574219 L 168.214844 45.585938 C 168.214844 45.421875 168.183594 45.261719 168.121094 45.105469 C 168.058594 44.953125 167.964844 44.820312 167.847656 44.699219 C 167.730469 44.582031 167.597656 44.492188 167.441406 44.429688 C 167.289062 44.367188 167.128906 44.335938 166.964844 44.332031 L 159.617188 44.332031 C 159.449219 44.332031 159.289062 44.367188 159.136719 44.429688 C 158.984375 44.492188 158.847656 44.582031 158.730469 44.699219 C 158.613281 44.816406 158.523438 44.953125 158.457031 45.105469 C 158.394531 45.261719 158.363281 45.421875 158.363281 45.585938 L 158.363281 57.574219 L 148.234375 57.574219 C 147.996094 57.585938 147.765625 57.550781 147.539062 57.472656 C 147.3125 57.394531 147.109375 57.273438 146.933594 57.113281 C 146.753906 56.957031 146.613281 56.769531 146.507812 56.554688 C 146.40625 56.339844 146.347656 56.109375 146.332031 55.871094 L 146.332031 38.285156 L 144.609375 38.285156 C 142.703125 38.285156 141.667969 36.488281 142.917969 35.335938 L 161.761719 17.914062 C 162 17.714844 162.265625 17.5625 162.558594 17.453125 C 162.847656 17.347656 163.152344 17.292969 163.460938 17.292969 C 163.773438 17.296875 164.074219 17.347656 164.367188 17.457031 C 164.660156 17.566406 164.925781 17.71875 165.160156 17.921875 C 171.328125 23.730469 177.5 29.535156 183.675781 35.34375 C 184.902344 36.507812 183.871094 38.285156 181.96875 38.285156 Z M 181.96875 38.285156 " fill-opacity="1" fill-rule="nonzero"/></g><g fill="#ffcf7e" fill-opacity="1"><g transform="translate(43.399632, 31.866792)"><g><path d="M 4.984375 -9.78125 L 0.734375 -9.78125 L 0.734375 -17.5625 L 4.984375 -17.5625 Z M 4.984375 -9.78125 "/></g></g></g><g fill="#ffcf7e" fill-opacity="1"><g transform="translate(49.141732, 31.866792)"><g><path d="M 6.59375 -12.984375 L 6.53125 -12.984375 C 5.84375 -12.984375 5.5 -12.492188 5.5 -11.515625 L 5.5 0 L 1.25 0 L 1.25 -10.65625 C 1.25 -11.925781 1.65625 -12.703125 2.46875 -12.984375 L 0.609375 -12.984375 L 0.609375 -17.5625 L 6.59375 -17.5625 Z M 6.59375 -12.984375 "/></g></g></g><g fill="#ffcf7e" fill-opacity="1"><g transform="translate(56.337903, 31.866792)"><g><path d="M 4.984375 -9.78125 L 0.734375 -9.78125 L 0.734375 -17.5625 L 4.984375 -17.5625 Z M 4.984375 -9.78125 "/></g></g></g><g fill="#ffcf7e" fill-opacity="1"><g transform="translate(62.080003, 31.866792)"><g><path d="M 11.234375 -3.40625 C 11.234375 -1.132812 10.128906 0 7.921875 0 L 0.78125 0 L 0.78125 -4.578125 L 6.09375 -4.578125 C 6.675781 -4.578125 6.96875 -4.925781 6.96875 -5.625 L 6.96875 -12.25 C 6.96875 -12.738281 6.75 -12.984375 6.3125 -12.984375 L 5.71875 -12.984375 C 5.3125 -12.984375 5.109375 -12.734375 5.109375 -12.234375 L 5.109375 -9.640625 L 0.75 -9.640625 L 0.75 -14.453125 C 0.75 -16.523438 1.75 -17.5625 3.75 -17.5625 L 8.140625 -17.5625 C 9.078125 -17.5625 9.828125 -17.273438 10.390625 -16.703125 C 10.953125 -16.117188 11.234375 -15.367188 11.234375 -14.453125 Z M 11.234375 -3.40625 "/></g></g></g><g fill="#ffcf7e" fill-opacity="1"><g transform="translate(74.083513, 31.866792)"><g/></g></g><g fill="#ffcf7e" fill-opacity="1"><g transform="translate(80.804885, 31.866792)"><g><path d="M 5.046875 2.515625 L 0.75 2.515625 L 0.75 -17.5625 L 5.046875 -17.5625 Z M 5.046875 2.515625 "/></g></g></g><g fill="#ffcf7e" fill-opacity="1"><g transform="translate(86.606335, 31.866792)"><g><path d="M 5.046875 0 L 0.75 0 L 0.75 -17.5625 L 5.046875 -17.5625 Z M 5.046875 0 "/></g></g></g><g fill="#ffcf7e" fill-opacity="1"><g transform="translate(92.407784, 31.866792)"><g><path d="M 10.421875 0 L 6.125 0 L 5.359375 -4.875 C 5.046875 -4.875 4.851562 -4.65625 4.78125 -4.21875 L 3.984375 0 L 0.140625 0 L 1.171875 -5.078125 C 1.628906 -7.367188 2.691406 -8.515625 4.359375 -8.515625 L 5.078125 -8.515625 L 5.078125 -12.25 C 5.078125 -12.738281 4.800781 -12.984375 4.25 -12.984375 L 1.1875 -12.984375 L 1.1875 -17.5625 L 6.140625 -17.5625 C 8.304688 -17.5625 9.390625 -16.425781 9.390625 -14.15625 L 9.390625 -8.25 C 9.390625 -7.625 9.40625 -7.050781 9.4375 -6.53125 C 9.476562 -6.007812 9.53125 -5.53125 9.59375 -5.09375 Z M 10.421875 0 "/></g></g></g><g fill="#ffcf7e" fill-opacity="1"><g transform="translate(103.135273, 31.866792)"><g><path d="M 4.984375 -9.78125 L 0.734375 -9.78125 L 0.734375 -17.5625 L 4.984375 -17.5625 Z M 4.984375 -9.78125 "/></g></g></g><g fill="#ffcf7e" fill-opacity="1"><g transform="translate(108.877372, 31.866792)"><g><path d="M 12.421875 -3.15625 C 12.421875 -1.050781 11.46875 0 9.5625 0 L 6.53125 0 L 6.53125 -4.59375 L 7.4375 -4.59375 C 7.882812 -4.59375 8.109375 -4.863281 8.109375 -5.40625 L 8.109375 -12.09375 C 8.109375 -12.625 7.972656 -12.890625 7.703125 -12.890625 C 7.429688 -12.890625 7.25 -12.585938 7.15625 -11.984375 L 5 0 L 0.75 0 L 2.5625 -9.8125 L 1.71875 -9.8125 C 1.0625 -9.8125 0.734375 -10.132812 0.734375 -10.78125 L 0.734375 -17.5625 L 5.03125 -17.5625 L 5.03125 -11.359375 L 5.890625 -14.765625 C 6.367188 -16.628906 7.394531 -17.5625 8.96875 -17.5625 L 9.1875 -17.5625 C 11.34375 -17.5625 12.421875 -16.25 12.421875 -13.625 Z M 12.421875 -3.15625 "/></g></g></g><g fill="#ffcf7e" fill-opacity="1"><g transform="translate(35.32979, 63.211174)"><g><path d="M 4.984375 -9.78125 L 0.734375 -9.78125 L 0.734375 -17.5625 L 4.984375 -17.5625 Z M 4.984375 -9.78125 "/></g></g></g><g fill="#ffcf7e" fill-opacity="1"><g transform="translate(41.071889, 63.211174)"><g><path d="M 4.890625 -12.578125 L 5.5625 -12.578125 C 6.050781 -12.578125 6.296875 -12.84375 6.296875 -13.375 L 6.296875 -17.5625 L 10.25 -17.5625 L 10.25 -12.640625 C 10.25 -10.597656 9.363281 -9.578125 7.59375 -9.578125 L 4.890625 -9.578125 L 4.890625 -5.390625 C 4.890625 -4.847656 5.113281 -4.578125 5.5625 -4.578125 L 10.984375 -4.578125 C 11.421875 -4.578125 11.640625 -4.847656 11.640625 -5.390625 L 11.640625 -17.5625 L 15.78125 -17.5625 L 15.78125 -3.984375 C 15.78125 -2.785156 15.472656 -1.828125 14.859375 -1.109375 C 14.203125 -0.367188 13.273438 0 12.078125 0 L 4.46875 0 C 1.988281 0 0.75 -1.328125 0.75 -3.984375 L 0.75 -17.5625 L 4.890625 -17.5625 Z M 4.890625 -12.578125 "/></g></g></g><g fill="#ffcf7e" fill-opacity="1"><g transform="translate(57.615664, 63.211174)"><g><path d="M 4.984375 -9.78125 L 0.734375 -9.78125 L 0.734375 -17.5625 L 4.984375 -17.5625 Z M 4.984375 -9.78125 "/></g></g></g><g fill="#ffcf7e" fill-opacity="1"><g transform="translate(63.357764, 63.211174)"><g><path d="M 7.953125 0 C 7.828125 -0.6875 7.546875 -1.597656 7.109375 -2.734375 C 6.679688 -3.867188 6.097656 -5.238281 5.359375 -6.84375 C 5.273438 -6.75 5.210938 -6.675781 5.171875 -6.625 C 5.140625 -6.582031 5.117188 -6.554688 5.109375 -6.546875 C 5.097656 -6.503906 5.085938 -6.414062 5.078125 -6.28125 C 5.078125 -6.144531 5.078125 -5.960938 5.078125 -5.734375 L 5.078125 0 L 0.78125 0 L 0.78125 -5.25 C 0.78125 -8.03125 1.640625 -9.832031 3.359375 -10.65625 C 1.710938 -13.875 0.796875 -16.175781 0.609375 -17.5625 L 5.078125 -17.5625 C 5.296875 -16.570312 5.617188 -15.53125 6.046875 -14.4375 C 6.472656 -13.34375 7.015625 -12.175781 7.671875 -10.9375 C 7.921875 -11.113281 8.046875 -11.476562 8.046875 -12.03125 L 8.046875 -17.5625 L 12.375 -17.5625 L 12.375 -11.625 C 12.375 -10.726562 12.101562 -9.859375 11.5625 -9.015625 C 11.019531 -8.191406 10.347656 -7.5625 9.546875 -7.125 C 11.390625 -3.445312 12.332031 -1.070312 12.375 0 Z M 7.953125 0 "/></g></g></g><g fill="#ffcf7e" fill-opacity="1"><g transform="translate(76.340547, 63.211174)"><g/></g></g><g fill="#ffcf7e" fill-opacity="1"><g transform="translate(83.061919, 63.211174)"><g><path d="M 5.046875 2.515625 L 0.75 2.515625 L 0.75 -17.5625 L 5.046875 -17.5625 Z M 5.046875 2.515625 "/></g></g></g><g fill="#ffcf7e" fill-opacity="1"><g transform="translate(88.863368, 63.211174)"><g><path d="M 5.046875 0 L 0.75 0 L 0.75 -17.5625 L 5.046875 -17.5625 Z M 5.046875 0 "/></g></g></g><g fill="#ffcf7e" fill-opacity="1"><g transform="translate(94.664818, 63.211174)"><g><path d="M 10.421875 0 L 6.125 0 L 5.359375 -4.875 C 5.046875 -4.875 4.851562 -4.65625 4.78125 -4.21875 L 3.984375 0 L 0.140625 0 L 1.171875 -5.078125 C 1.628906 -7.367188 2.691406 -8.515625 4.359375 -8.515625 L 5.078125 -8.515625 L 5.078125 -12.25 C 5.078125 -12.738281 4.800781 -12.984375 4.25 -12.984375 L 1.1875 -12.984375 L 1.1875 -17.5625 L 6.140625 -17.5625 C 8.304688 -17.5625 9.390625 -16.425781 9.390625 -14.15625 L 9.390625 -8.25 C 9.390625 -7.625 9.40625 -7.050781 9.4375 -6.53125 C 9.476562 -6.007812 9.53125 -5.53125 9.59375 -5.09375 Z M 10.421875 0 "/></g></g></g><g fill="#ffcf7e" fill-opacity="1"><g transform="translate(105.392306, 63.211174)"><g><path d="M 4.984375 -9.78125 L 0.734375 -9.78125 L 0.734375 -17.5625 L 4.984375 -17.5625 Z M 4.984375 -9.78125 "/></g></g></g><g fill="#ffcf7e" fill-opacity="1"><g transform="translate(111.134406, 63.211174)"><g><path d="M 12.421875 -3.15625 C 12.421875 -1.050781 11.46875 0 9.5625 0 L 6.53125 0 L 6.53125 -4.59375 L 7.4375 -4.59375 C 7.882812 -4.59375 8.109375 -4.863281 8.109375 -5.40625 L 8.109375 -12.09375 C 8.109375 -12.625 7.972656 -12.890625 7.703125 -12.890625 C 7.429688 -12.890625 7.25 -12.585938 7.15625 -11.984375 L 5 0 L 0.75 0 L 2.5625 -9.8125 L 1.71875 -9.8125 C 1.0625 -9.8125 0.734375 -10.132812 0.734375 -10.78125 L 0.734375 -17.5625 L 5.03125 -17.5625 L 5.03125 -11.359375 L 5.890625 -14.765625 C 6.367188 -16.628906 7.394531 -17.5625 8.96875 -17.5625 L 9.1875 -17.5625 C 11.34375 -17.5625 12.421875 -16.25 12.421875 -13.625 Z M 12.421875 -3.15625 "/></g></g></g><g fill="#ffcf7e" fill-opacity="1"><g transform="translate(124.310076, 63.211174)"><g><path d="M 5.046875 0 L 0.75 0 L 0.75 -17.5625 L 5.046875 -17.5625 Z M 5.046875 0 "/></g></g></g></svg>