<svg xmlns="http://www.w3.org/2000/svg" xmlns:xlink="http://www.w3.org/1999/xlink" width="290" zoomAndPan="magnify" viewBox="0 0 217.5 73.499998" height="98" preserveAspectRatio="xMidYMid meet" version="1.0"><defs><g/><clipPath id="398150822c"><path d="M 4.519531 0 L 215.980469 0 L 215.980469 72.855469 L 4.519531 72.855469 Z M 4.519531 0 " clip-rule="nonzero"/></clipPath><clipPath id="7a6df7d7f6"><path d="M 215.980469 50.246094 L 215.980469 22.609375 C 203.539062 22.609375 193.371094 12.546875 193.371094 0 L 27.230469 0 C 27.230469 12.4375 17.167969 22.609375 4.621094 22.609375 L 4.621094 50.246094 C 17.0625 50.246094 27.230469 60.308594 27.230469 72.855469 L 193.371094 72.855469 C 193.371094 60.417969 203.433594 50.246094 215.980469 50.246094 Z M 215.980469 50.246094 " clip-rule="nonzero"/></clipPath><clipPath id="b92ccd972a"><path d="M 175 13.25 L 187 13.25 L 187 22 L 175 22 Z M 175 13.25 " clip-rule="nonzero"/></clipPath><clipPath id="88da18681b"><path d="M 136 13.25 L 177 13.25 L 177 57 L 136 57 Z M 136 13.25 " clip-rule="nonzero"/></clipPath><clipPath id="026a7280bb"><path d="M 178 23 L 190.472656 23 L 190.472656 29 L 178 29 Z M 178 23 " clip-rule="nonzero"/></clipPath><clipPath id="c87d184856"><path d="M 178 32 L 190.472656 32 L 190.472656 38 L 178 38 Z M 178 32 " clip-rule="nonzero"/></clipPath></defs><g clip-path="url(#398150822c)"><g clip-path="url(#7a6df7d7f6)"><path fill="#cf4545" d="M 215.980469 0 L 215.980469 72.855469 L 4.519531 72.855469 L 4.519531 0 Z M 215.980469 0 " fill-opacity="1" fill-rule="nonzero"/></g></g><g clip-path="url(#b92ccd972a)"><path fill="#ffcf7e" d="M 177.632812 21.664062 C 176.492188 21.773438 175.457031 20.753906 176.058594 19.605469 C 176.363281 19.023438 177.128906 18.675781 177.648438 18.316406 L 183.234375 14.535156 C 183.824219 14.136719 184.433594 13.597656 185.109375 13.371094 C 186.164062 13.25 187.199219 14.324219 186.710938 15.371094 C 186.386719 16.070312 185.429688 16.492188 184.820312 16.902344 L 179.589844 20.464844 C 178.976562 20.890625 178.34375 21.425781 177.632812 21.664062 Z M 177.632812 21.664062 " fill-opacity="1" fill-rule="nonzero"/></g><g clip-path="url(#88da18681b)"><path fill="#ffcf7e" d="M 145.324219 44.390625 C 143.425781 44.710938 141.210938 45.960938 139.34375 44.984375 C 137.203125 43.859375 135.367188 38.039062 136.523438 35.890625 C 137.300781 34.453125 138.5625 34.191406 139.984375 33.667969 C 148.542969 30.523438 158.847656 22.554688 164.476562 15.472656 C 164.828125 15.03125 165.265625 14.164062 165.832031 13.996094 C 166.960938 13.964844 167.066406 15.53125 167.320312 16.351562 C 167.710938 17.617188 168.101562 18.886719 168.515625 20.148438 L 175.597656 41.890625 C 175.820312 42.585938 176.617188 43.851562 175.644531 44.265625 C 174.949219 44.121094 174.292969 43.734375 173.628906 43.488281 C 167.800781 41.34375 159.21875 41.539062 153.214844 42.414062 C 153.695312 43.582031 154.265625 44.734375 154.800781 45.878906 L 157.445312 51.558594 C 157.710938 52.136719 158.570312 53.765625 158.621094 54.265625 C 158.800781 56.0625 154.835938 56.890625 153.328125 56.988281 C 150.90625 57.003906 150.589844 55.019531 149.585938 53.03125 L 146.777344 47.375 C 146.296875 46.382812 145.851562 45.355469 145.324219 44.390625 Z M 145.324219 44.390625 " fill-opacity="1" fill-rule="nonzero"/></g><g clip-path="url(#026a7280bb)"><path fill="#ffcf7e" d="M 180.023438 28.339844 C 178.839844 28.355469 178.0625 27.03125 178.855469 26.046875 C 179.34375 25.441406 180.34375 25.402344 181.046875 25.273438 L 183.417969 24.828125 C 185.1875 24.484375 187.085938 23.992188 188.863281 23.769531 C 190.007812 23.652344 190.710938 25.183594 190.011719 26.054688 C 189.539062 26.648438 188.515625 26.710938 187.828125 26.851562 L 182.148438 27.964844 C 181.445312 28.101562 180.734375 28.269531 180.023438 28.339844 Z M 180.023438 28.339844 " fill-opacity="1" fill-rule="nonzero"/></g><g clip-path="url(#c87d184856)"><path fill="#ffcf7e" d="M 188.960938 37.382812 C 188.105469 37.421875 187.253906 37.179688 186.421875 37.019531 L 183.097656 36.386719 C 182.367188 36.246094 180.089844 35.894531 179.507812 35.628906 C 178.246094 35.050781 178.578125 33.347656 179.859375 32.945312 C 180.828125 32.835938 182.195312 33.308594 183.167969 33.484375 L 186.765625 34.148438 C 187.605469 34.308594 188.683594 34.375 189.4375 34.808594 C 190.582031 35.464844 190.148438 37.105469 188.960938 37.382812 Z M 188.960938 37.382812 " fill-opacity="1" fill-rule="nonzero"/></g><g fill="#ffcf7e" fill-opacity="1"><g transform="translate(47.824176, 42.759581)"><g><path d="M 11.296875 0 L 6.921875 0 L 6.921875 -12.28125 C 6.921875 -12.769531 6.671875 -13.015625 6.171875 -13.015625 L 0.765625 -13.015625 L 0.765625 -17.609375 L 8.1875 -17.609375 C 9.09375 -17.609375 9.835938 -17.316406 10.421875 -16.734375 C 11.003906 -16.160156 11.296875 -15.410156 11.296875 -14.484375 Z M 5.0625 0 L 0.78125 0 L 0.78125 -10.921875 L 5.0625 -10.921875 Z M 5.0625 0 "/></g></g></g><g fill="#ffcf7e" fill-opacity="1"><g transform="translate(59.872881, 42.759581)"><g><path d="M 11.65625 -4.640625 C 11.65625 -1.546875 10.390625 0 7.859375 0 L 0.46875 0 L 0.46875 -4.59375 L 1.5 -4.59375 L 1.5 -17.609375 L 5.796875 -17.609375 L 5.796875 -4.59375 L 6.671875 -4.59375 C 7.160156 -4.59375 7.40625 -4.9375 7.40625 -5.625 L 7.40625 -17.609375 L 11.65625 -17.609375 Z M 11.65625 -4.640625 "/></g></g></g><g fill="#ffcf7e" fill-opacity="1"><g transform="translate(72.293459, 42.759581)"><g><path d="M 9.4375 0 L 5.078125 0 L 5.078125 -12.28125 C 5.078125 -12.769531 4.820312 -13.015625 4.3125 -13.015625 L 0.46875 -13.015625 L 0.46875 -17.609375 L 6.328125 -17.609375 C 7.234375 -17.609375 7.976562 -17.316406 8.5625 -16.734375 C 9.144531 -16.160156 9.4375 -15.410156 9.4375 -14.484375 Z M 9.4375 0 "/></g></g></g><g fill="#ffcf7e" fill-opacity="1"><g transform="translate(82.482796, 42.759581)"><g><path d="M 12.1875 0 L 7.890625 0 L 7.890625 -12.1875 C 7.890625 -12.738281 7.632812 -13.015625 7.125 -13.015625 L 6.546875 -13.015625 C 6.023438 -13.015625 5.765625 -12.738281 5.765625 -12.1875 L 5.765625 -2.109375 C 5.765625 -0.703125 5.175781 0 4 0 L 0.296875 0 L 0.296875 -4.59375 L 1.046875 -4.59375 C 1.285156 -4.59375 1.40625 -4.703125 1.40625 -4.921875 L 1.40625 -14.234375 C 1.40625 -15.429688 1.640625 -16.296875 2.109375 -16.828125 C 2.578125 -17.347656 3.398438 -17.609375 4.578125 -17.609375 L 9.21875 -17.609375 C 11.195312 -17.609375 12.1875 -16.484375 12.1875 -14.234375 Z M 12.1875 0 "/></g></g></g><g fill="#ffcf7e" fill-opacity="1"><g transform="translate(95.438873, 42.759581)"><g><path d="M 11.296875 0 L 6.921875 0 L 6.921875 -12.28125 C 6.921875 -12.769531 6.671875 -13.015625 6.171875 -13.015625 L 0.765625 -13.015625 L 0.765625 -17.609375 L 8.1875 -17.609375 C 9.09375 -17.609375 9.835938 -17.316406 10.421875 -16.734375 C 11.003906 -16.160156 11.296875 -15.410156 11.296875 -14.484375 Z M 5.0625 0 L 0.78125 0 L 0.78125 -10.921875 L 5.0625 -10.921875 Z M 5.0625 0 "/></g></g></g></svg>