<svg xmlns="http://www.w3.org/2000/svg" xmlns:xlink="http://www.w3.org/1999/xlink" width="284" zoomAndPan="magnify" viewBox="0 0 212.87999 80.249996" height="107" preserveAspectRatio="xMidYMid meet" version="1.0"><defs><g/><clipPath id="82927da15a"><path d="M 0.925781 2.074219 L 211.746094 2.074219 L 211.746094 74.75 L 0.925781 74.75 Z M 0.925781 2.074219 " clip-rule="nonzero"/></clipPath><clipPath id="66c9d0fc8b"><path d="M 211.746094 52.199219 L 211.746094 24.628906 C 199.335938 24.628906 189.195312 14.59375 189.195312 2.074219 L 23.46875 2.074219 C 23.46875 14.484375 13.433594 24.628906 0.917969 24.628906 L 0.917969 52.199219 C 13.328125 52.199219 23.46875 62.234375 23.46875 74.75 L 189.195312 74.75 C 189.195312 62.339844 199.230469 52.199219 211.746094 52.199219 Z M 211.746094 52.199219 " clip-rule="nonzero"/></clipPath><clipPath id="98f9815333"><path d="M 130.949219 14.839844 L 171 14.839844 L 171 52 L 130.949219 52 Z M 130.949219 14.839844 " clip-rule="nonzero"/></clipPath><clipPath id="dc7056ea91"><path d="M 146 22 L 180.730469 22 L 180.730469 58.683594 L 146 58.683594 Z M 146 22 " clip-rule="nonzero"/></clipPath></defs><g clip-path="url(#82927da15a)"><g clip-path="url(#66c9d0fc8b)"><path fill="#cf4545" d="M 211.746094 2.074219 L 211.746094 74.75 L 0.820312 74.75 L 0.820312 2.074219 Z M 211.746094 2.074219 " fill-opacity="1" fill-rule="nonzero"/></g></g><g clip-path="url(#98f9815333)"><path fill="#ffcf7e" d="M 170.074219 27.757812 C 170.074219 20.640625 164.289062 14.851562 157.179688 14.851562 L 143.84375 14.851562 C 136.730469 14.851562 130.949219 20.640625 130.949219 27.757812 L 130.949219 31.28125 C 130.949219 36.832031 134.476562 41.746094 139.726562 43.507812 L 140.242188 43.683594 L 139.96875 44.152344 C 139.269531 45.363281 138.316406 47.261719 137.0625 49.960938 C 136.910156 50.28125 136.976562 50.671875 137.230469 50.921875 C 137.480469 51.171875 137.875 51.242188 138.191406 51.097656 L 153.296875 44.1875 L 157.179688 44.1875 C 164.289062 44.1875 170.074219 38.398438 170.074219 31.28125 Z M 168.363281 31.28125 C 168.363281 37.453125 163.347656 42.476562 157.179688 42.476562 L 153.113281 42.476562 C 152.988281 42.476562 152.867188 42.503906 152.757812 42.554688 L 139.613281 48.566406 L 140.183594 47.433594 C 140.703125 46.402344 141.644531 44.582031 142.09375 43.992188 L 142.144531 43.925781 L 142.21875 43.882812 C 142.441406 43.746094 142.589844 43.519531 142.621094 43.257812 C 142.679688 42.804688 142.375 42.386719 141.921875 42.308594 C 136.554688 41.367188 132.660156 36.730469 132.660156 31.28125 L 132.660156 27.757812 C 132.660156 21.582031 137.675781 16.558594 143.84375 16.558594 L 157.179688 16.558594 C 163.347656 16.558594 168.363281 21.582031 168.363281 27.757812 Z M 168.363281 31.28125 " fill-opacity="1" fill-rule="nonzero"/></g><path fill="#ffcf7e" d="M 140.433594 27.386719 C 139.09375 27.386719 138 28.476562 138 29.816406 C 138 31.15625 139.09375 32.246094 140.433594 32.246094 C 141.773438 32.246094 142.863281 31.15625 142.863281 29.816406 C 142.863281 28.476562 141.773438 27.386719 140.433594 27.386719 Z M 140.433594 27.386719 " fill-opacity="1" fill-rule="nonzero"/><path fill="#ffcf7e" d="M 160.589844 27.386719 C 159.25 27.386719 158.160156 28.476562 158.160156 29.816406 C 158.160156 31.15625 159.25 32.246094 160.589844 32.246094 C 161.929688 32.246094 163.019531 31.15625 163.019531 29.816406 C 163.019531 28.476562 161.929688 27.386719 160.589844 27.386719 Z M 160.589844 27.386719 " fill-opacity="1" fill-rule="nonzero"/><path fill="#ffcf7e" d="M 150.511719 27.386719 C 149.171875 27.386719 148.082031 28.476562 148.082031 29.816406 C 148.082031 31.15625 149.171875 32.246094 150.511719 32.246094 C 151.851562 32.246094 152.941406 31.15625 152.941406 29.816406 C 152.941406 28.476562 151.851562 27.386719 150.511719 27.386719 Z M 150.511719 27.386719 " fill-opacity="1" fill-rule="nonzero"/><g clip-path="url(#dc7056ea91)"><path fill="#ffcf7e" d="M 148.277344 48.015625 L 146.515625 48.820312 C 148.761719 50.722656 151.660156 51.878906 154.824219 51.878906 L 158.707031 51.878906 L 173.816406 58.789062 C 174.128906 58.933594 174.527344 58.863281 174.777344 58.613281 C 175.027344 58.359375 175.09375 57.972656 174.945312 57.648438 C 173.6875 54.953125 172.738281 53.054688 172.035156 51.84375 L 171.765625 51.371094 L 172.28125 51.199219 C 177.53125 49.4375 181.058594 44.523438 181.058594 38.972656 L 181.058594 35.445312 C 181.058594 29.15625 176.535156 23.917969 170.574219 22.78125 C 170.804688 23.398438 170.988281 24.03125 171.132812 24.679688 C 171.132812 24.679688 171.136719 24.683594 171.140625 24.683594 C 171.136719 24.683594 171.132812 24.679688 171.128906 24.679688 C 171.347656 25.671875 171.46875 26.699219 171.46875 27.757812 L 171.46875 31.28125 C 171.46875 39.167969 165.0625 45.582031 157.183594 45.582031 L 153.601562 45.582031 M 169.382812 50.949219 L 169.382812 50.949219 " fill-opacity="1" fill-rule="nonzero"/></g><g fill="#ffcf7e" fill-opacity="1"><g transform="translate(41.053453, 31.866792)"><g><path d="M 11.265625 0 L 6.90625 0 L 6.90625 -12.25 C 6.90625 -12.738281 6.65625 -12.984375 6.15625 -12.984375 L 0.75 -12.984375 L 0.75 -17.5625 L 8.15625 -17.5625 C 9.070312 -17.5625 9.820312 -17.269531 10.40625 -16.6875 C 10.976562 -16.113281 11.265625 -15.367188 11.265625 -14.453125 Z M 5.046875 0 L 0.765625 0 L 0.765625 -10.890625 L 5.046875 -10.890625 Z M 5.046875 0 "/></g></g></g><g fill="#ffcf7e" fill-opacity="1"><g transform="translate(53.0718, 31.866792)"><g><path d="M 9.40625 0 L 5.0625 0 L 5.0625 -12.25 C 5.0625 -12.738281 4.804688 -12.984375 4.296875 -12.984375 L 0.453125 -12.984375 L 0.453125 -17.5625 L 6.3125 -17.5625 C 7.21875 -17.5625 7.960938 -17.269531 8.546875 -16.6875 C 9.117188 -16.113281 9.40625 -15.367188 9.40625 -14.453125 Z M 9.40625 0 "/></g></g></g><g fill="#ffcf7e" fill-opacity="1"><g transform="translate(63.235465, 31.866792)"><g><path d="M 10.78125 0 L 0.75 0 L 0.75 -4.578125 L 4.09375 -4.578125 C 5.070312 -4.578125 5.5625 -5.160156 5.5625 -6.328125 L 5.5625 -11.59375 C 5.5625 -12.101562 5.472656 -12.460938 5.296875 -12.671875 C 5.117188 -12.878906 4.78125 -12.984375 4.28125 -12.984375 L 0.75 -12.984375 L 0.75 -17.5625 L 6.53125 -17.5625 C 8.789062 -17.5625 9.921875 -16.222656 9.921875 -13.546875 L 9.921875 -7.53125 C 9.921875 -5.976562 9.34375 -4.992188 8.1875 -4.578125 L 10.78125 -4.578125 Z M 10.78125 0 "/></g></g></g><g fill="#ffcf7e" fill-opacity="1"><g transform="translate(74.630639, 31.866792)"><g><path d="M 11.96875 -5.265625 C 11.96875 -3.546875 11.484375 -2.171875 10.515625 -1.140625 C 9.515625 -0.0859375 8.164062 0.4375 6.46875 0.4375 C 4.71875 0.4375 3.328125 -0.0703125 2.296875 -1.09375 C 1.265625 -2.125 0.75 -3.515625 0.75 -5.265625 L 0.75 -14.765625 C 0.75 -15.265625 0.796875 -15.691406 0.890625 -16.046875 C 0.992188 -16.410156 1.15625 -16.703125 1.375 -16.921875 C 1.59375 -17.148438 1.878906 -17.3125 2.234375 -17.40625 C 2.585938 -17.507812 3.015625 -17.5625 3.515625 -17.5625 L 9.1875 -17.5625 C 11.039062 -17.5625 11.96875 -16.628906 11.96875 -14.765625 Z M 7.640625 -12.625 C 7.640625 -12.863281 7.539062 -12.984375 7.34375 -12.984375 L 5.359375 -12.984375 C 5.160156 -12.984375 5.0625 -12.863281 5.0625 -12.625 L 5.0625 -5.75 C 5.0625 -4.664062 5.507812 -4.125 6.40625 -4.125 C 7.226562 -4.125 7.640625 -4.664062 7.640625 -5.75 Z M 7.640625 -12.625 "/></g></g></g><g fill="#ffcf7e" fill-opacity="1"><g transform="translate(87.361186, 31.866792)"><g><path d="M 11.265625 0 L 6.90625 0 L 6.90625 -12.25 C 6.90625 -12.738281 6.65625 -12.984375 6.15625 -12.984375 L 0.75 -12.984375 L 0.75 -17.5625 L 8.15625 -17.5625 C 9.070312 -17.5625 9.820312 -17.269531 10.40625 -16.6875 C 10.976562 -16.113281 11.265625 -15.367188 11.265625 -14.453125 Z M 5.046875 0 L 0.765625 0 L 0.765625 -10.890625 L 5.046875 -10.890625 Z M 5.046875 0 "/></g></g></g><g fill="#ffcf7e" fill-opacity="1"><g transform="translate(41.687909, 63.211174)"><g><path d="M 11.265625 0 L 6.90625 0 L 6.90625 -12.25 C 6.90625 -12.738281 6.65625 -12.984375 6.15625 -12.984375 L 0.75 -12.984375 L 0.75 -17.5625 L 8.15625 -17.5625 C 9.070312 -17.5625 9.820312 -17.269531 10.40625 -16.6875 C 10.976562 -16.113281 11.265625 -15.367188 11.265625 -14.453125 Z M 5.046875 0 L 0.765625 0 L 0.765625 -10.890625 L 5.046875 -10.890625 Z M 5.046875 0 "/></g></g></g><g fill="#ffcf7e" fill-opacity="1"><g transform="translate(53.706257, 63.211174)"><g><path d="M 4.984375 -9.78125 L 0.734375 -9.78125 L 0.734375 -17.5625 L 4.984375 -17.5625 Z M 4.984375 -9.78125 "/></g></g></g><g fill="#ffcf7e" fill-opacity="1"><g transform="translate(59.448357, 63.211174)"><g><path d="M 11.453125 0 L 7.15625 0 L 7.15625 -12.15625 C 7.15625 -12.707031 6.898438 -12.984375 6.390625 -12.984375 L 5.875 -12.984375 C 5.375 -12.984375 5.125 -12.707031 5.125 -12.15625 L 5.125 0 L 0.75 0 L 0.75 -14.5 C 0.75 -15.59375 0.9375 -16.359375 1.3125 -16.796875 C 1.71875 -17.304688 2.457031 -17.5625 3.53125 -17.5625 L 8.484375 -17.5625 C 10.460938 -17.5625 11.453125 -16.539062 11.453125 -14.5 Z M 11.453125 0 "/></g></g></g><g fill="#ffcf7e" fill-opacity="1"><g transform="translate(71.659591, 63.211174)"><g><path d="M 8.515625 -2.765625 C 8.515625 -0.921875 7.644531 0 5.90625 0 L 0.609375 0 L 0.609375 -4.578125 L 3.65625 -4.578125 C 4.007812 -4.578125 4.1875 -4.796875 4.1875 -5.234375 L 4.1875 -12.25 C 4.1875 -12.738281 3.96875 -12.984375 3.53125 -12.984375 L 1.875 -12.984375 L 1.875 -17.5625 L 5.828125 -17.5625 C 7.617188 -17.5625 8.515625 -16.640625 8.515625 -14.796875 Z M 8.515625 -2.765625 "/></g></g></g><g fill="#ffcf7e" fill-opacity="1"><g transform="translate(80.933008, 63.211174)"><g><path d="M 11.265625 0 L 6.90625 0 L 6.90625 -12.25 C 6.90625 -12.738281 6.65625 -12.984375 6.15625 -12.984375 L 0.75 -12.984375 L 0.75 -17.5625 L 8.15625 -17.5625 C 9.070312 -17.5625 9.820312 -17.269531 10.40625 -16.6875 C 10.976562 -16.113281 11.265625 -15.367188 11.265625 -14.453125 Z M 5.046875 0 L 0.765625 0 L 0.765625 -10.890625 L 5.046875 -10.890625 Z M 5.046875 0 "/></g></g></g><g fill="#ffcf7e" fill-opacity="1"><g transform="translate(92.951356, 63.211174)"><g><path d="M 5.046875 0 L 0.75 0 L 0.75 -17.5625 L 5.046875 -17.5625 Z M 5.046875 0 "/></g></g></g></svg>