<svg xmlns="http://www.w3.org/2000/svg" xmlns:xlink="http://www.w3.org/1999/xlink" width="285" zoomAndPan="magnify" viewBox="0 0 213.75 73.499998" height="98" preserveAspectRatio="xMidYMid meet" version="1.0"><defs><g/><clipPath id="5a1e20b0c3"><path d="M 0.863281 0 L 212.320312 0 L 212.320312 72.855469 L 0.863281 72.855469 Z M 0.863281 0 " clip-rule="nonzero"/></clipPath><clipPath id="0e38819bf3"><path d="M 212.320312 50.246094 L 212.320312 22.609375 C 199.882812 22.609375 189.710938 12.546875 189.710938 0 L 23.570312 0 C 23.570312 12.4375 13.507812 22.609375 0.960938 22.609375 L 0.960938 50.246094 C 13.402344 50.246094 23.570312 60.308594 23.570312 72.855469 L 189.710938 72.855469 C 189.710938 60.417969 199.773438 50.246094 212.320312 50.246094 Z M 212.320312 50.246094 " clip-rule="nonzero"/></clipPath><clipPath id="05e0f37748"><path d="M 154 34 L 177 34 L 177 55.761719 L 154 55.761719 Z M 154 34 " clip-rule="nonzero"/></clipPath><clipPath id="87c9021d5f"><path d="M 145.074219 17.027344 L 166 17.027344 L 166 35 L 145.074219 35 Z M 145.074219 17.027344 " clip-rule="nonzero"/></clipPath><clipPath id="defd31fde2"><path d="M 165 17.027344 L 186.042969 17.027344 L 186.042969 35 L 165 35 Z M 165 17.027344 " clip-rule="nonzero"/></clipPath></defs><g clip-path="url(#5a1e20b0c3)"><g clip-path="url(#0e38819bf3)"><path fill="#cf4545" d="M 212.320312 0 L 212.320312 72.855469 L 0.863281 72.855469 L 0.863281 0 Z M 212.320312 0 " fill-opacity="1" fill-rule="nonzero"/></g></g><g clip-path="url(#05e0f37748)"><path fill="#ffcf7e" d="M 154.738281 52.097656 C 157.898438 54.078125 161.621094 55.238281 165.621094 55.238281 C 169.625 55.238281 173.347656 54.078125 176.503906 52.101562 L 165.621094 34.691406 Z M 154.738281 52.097656 " fill-opacity="1" fill-rule="nonzero"/></g><g clip-path="url(#87c9021d5f)"><path fill="#ffcf7e" d="M 145.074219 34.691406 L 165.621094 34.691406 L 154.742188 17.28125 C 148.941406 20.914062 145.074219 27.34375 145.074219 34.691406 Z M 145.074219 34.691406 " fill-opacity="1" fill-rule="nonzero"/></g><g clip-path="url(#defd31fde2)"><path fill="#ffcf7e" d="M 186.171875 34.691406 L 165.625 34.691406 L 176.503906 17.28125 C 182.304688 20.914062 186.171875 27.34375 186.171875 34.691406 Z M 186.171875 34.691406 " fill-opacity="1" fill-rule="nonzero"/></g><g fill="#ffcf7e" fill-opacity="1"><g transform="translate(30.840177, 44.148747)"><g><path d="M 12 -5.28125 C 12 -3.550781 11.515625 -2.171875 10.546875 -1.140625 C 9.546875 -0.078125 8.191406 0.453125 6.484375 0.453125 C 4.734375 0.453125 3.34375 -0.0625 2.3125 -1.09375 C 1.28125 -2.125 0.765625 -3.519531 0.765625 -5.28125 L 0.765625 -14.796875 C 0.765625 -15.304688 0.8125 -15.738281 0.90625 -16.09375 C 1.007812 -16.457031 1.164062 -16.75 1.375 -16.96875 C 1.59375 -17.1875 1.878906 -17.347656 2.234375 -17.453125 C 2.585938 -17.554688 3.019531 -17.609375 3.53125 -17.609375 L 9.203125 -17.609375 C 11.066406 -17.609375 12 -16.671875 12 -14.796875 Z M 7.65625 -12.65625 C 7.65625 -12.894531 7.554688 -13.015625 7.359375 -13.015625 L 5.375 -13.015625 C 5.175781 -13.015625 5.078125 -12.894531 5.078125 -12.65625 L 5.078125 -5.75 C 5.078125 -4.675781 5.523438 -4.140625 6.421875 -4.140625 C 7.242188 -4.140625 7.65625 -4.675781 7.65625 -5.75 Z M 7.65625 -12.65625 "/></g></g></g><g fill="#ffcf7e" fill-opacity="1"><g transform="translate(43.602879, 44.148747)"><g><path d="M 7.3125 -16.609375 C 7.3125 -15.753906 6.945312 -14.929688 6.21875 -14.140625 C 5.613281 -13.484375 4.925781 -12.976562 4.15625 -12.625 L 4.15625 -20.1875 L 7.3125 -20.1875 Z M 3.4375 -16.609375 C 3.4375 -15.035156 2.390625 -13.707031 0.296875 -12.625 L 0.296875 -20.1875 L 3.4375 -20.1875 Z M 3.4375 -16.609375 "/></g></g></g><g fill="#ffcf7e" fill-opacity="1"><g transform="translate(51.218851, 44.148747)"><g><path d="M 12.453125 -3.171875 C 12.453125 -1.054688 11.492188 0 9.578125 0 L 6.546875 0 L 6.546875 -4.609375 L 7.453125 -4.609375 C 7.898438 -4.609375 8.125 -4.878906 8.125 -5.421875 L 8.125 -12.125 C 8.125 -12.65625 7.988281 -12.921875 7.71875 -12.921875 C 7.445312 -12.921875 7.265625 -12.617188 7.171875 -12.015625 L 5.015625 0 L 0.765625 0 L 2.578125 -9.828125 L 1.71875 -9.828125 C 1.0625 -9.828125 0.734375 -10.15625 0.734375 -10.8125 L 0.734375 -17.609375 L 5.046875 -17.609375 L 5.046875 -11.390625 L 5.90625 -14.796875 C 6.382812 -16.671875 7.410156 -17.609375 8.984375 -17.609375 L 9.203125 -17.609375 C 11.367188 -17.609375 12.453125 -16.289062 12.453125 -13.65625 Z M 12.453125 -3.171875 "/></g></g></g><g fill="#ffcf7e" fill-opacity="1"><g transform="translate(64.427802, 44.148747)"><g><path d="M 5.0625 0 L 0.765625 0 L 0.765625 -17.609375 L 5.0625 -17.609375 Z M 5.0625 0 "/></g></g></g><g fill="#ffcf7e" fill-opacity="1"><g transform="translate(70.243905, 44.148747)"><g><path d="M 11.484375 0 L 7.171875 0 L 7.171875 -12.1875 C 7.171875 -12.738281 6.914062 -13.015625 6.40625 -13.015625 L 5.890625 -13.015625 C 5.378906 -13.015625 5.125 -12.738281 5.125 -12.1875 L 5.125 0 L 0.765625 0 L 0.765625 -14.53125 C 0.765625 -15.632812 0.945312 -16.40625 1.3125 -16.84375 C 1.726562 -17.351562 2.472656 -17.609375 3.546875 -17.609375 L 8.515625 -17.609375 C 10.492188 -17.609375 11.484375 -16.582031 11.484375 -14.53125 Z M 11.484375 0 "/></g></g></g></svg>