<svg xmlns="http://www.w3.org/2000/svg" xmlns:xlink="http://www.w3.org/1999/xlink" width="1435" zoomAndPan="magnify" viewBox="0 0 1076.25 86.249997" height="115" preserveAspectRatio="xMidYMid meet" version="1.0"><defs><g/></defs><g fill="#ffcf7e" fill-opacity="1"><g transform="translate(18.474182, 30.286633)"><g><path d="M 4.609375 0 L 0.6875 0 L 0.6875 -16.046875 L 4.609375 -16.046875 Z M 4.609375 0 "/></g></g></g><g fill="#ffcf7e" fill-opacity="1"><g transform="translate(23.773067, 30.286633)"><g><path d="M 7.265625 0 C 7.148438 -0.632812 6.894531 -1.46875 6.5 -2.5 C 6.101562 -3.53125 5.566406 -4.78125 4.890625 -6.25 C 4.816406 -6.164062 4.757812 -6.097656 4.71875 -6.046875 C 4.6875 -6.003906 4.664062 -5.976562 4.65625 -5.96875 C 4.644531 -5.9375 4.640625 -5.859375 4.640625 -5.734375 C 4.640625 -5.617188 4.640625 -5.453125 4.640625 -5.234375 L 4.640625 0 L 0.71875 0 L 0.71875 -4.796875 C 0.71875 -7.335938 1.5 -8.984375 3.0625 -9.734375 C 1.5625 -12.671875 0.726562 -14.773438 0.5625 -16.046875 L 4.640625 -16.046875 C 4.835938 -15.140625 5.128906 -14.1875 5.515625 -13.1875 C 5.910156 -12.1875 6.40625 -11.117188 7 -9.984375 C 7.226562 -10.148438 7.34375 -10.484375 7.34375 -10.984375 L 7.34375 -16.046875 L 11.296875 -16.046875 L 11.296875 -10.609375 C 11.296875 -9.796875 11.050781 -9.003906 10.5625 -8.234375 C 10.0625 -7.472656 9.445312 -6.894531 8.71875 -6.5 C 10.40625 -3.144531 11.265625 -0.976562 11.296875 0 Z M 7.265625 0 "/></g></g></g><g fill="#ffcf7e" fill-opacity="1"><g transform="translate(35.63118, 30.286633)"><g/></g></g><g fill="#ffcf7e" fill-opacity="1"><g transform="translate(41.770297, 30.286633)"><g><path d="M 10.28125 0 L 6.296875 0 L 6.296875 -11.1875 C 6.296875 -11.632812 6.070312 -11.859375 5.625 -11.859375 L 0.6875 -11.859375 L 0.6875 -16.046875 L 7.453125 -16.046875 C 8.285156 -16.046875 8.96875 -15.78125 9.5 -15.25 C 10.019531 -14.71875 10.28125 -14.035156 10.28125 -13.203125 Z M 4.609375 0 L 0.703125 0 L 0.703125 -9.953125 L 4.609375 -9.953125 Z M 4.609375 0 "/></g></g></g><g fill="#ffcf7e" fill-opacity="1"><g transform="translate(52.747516, 30.286633)"><g><path d="M 9.578125 -5.796875 C 9.578125 -1.929688 7.726562 0 4.03125 0 L 2.328125 0 L 2.328125 -4.1875 L 3.46875 -4.1875 C 4.34375 -4.1875 4.9375 -4.46875 5.25 -5.03125 C 5.476562 -5.425781 5.59375 -6.113281 5.59375 -7.09375 L 5.59375 -11.1875 C 5.59375 -11.632812 5.367188 -11.859375 4.921875 -11.859375 L 0.6875 -11.859375 L 0.6875 -18.03125 L 4.625 -18.03125 L 4.625 -16.046875 L 7.578125 -16.046875 C 8.910156 -16.046875 9.578125 -15.398438 9.578125 -14.109375 Z M 9.578125 -5.796875 "/></g></g></g><g fill="#ffcf7e" fill-opacity="1"><g transform="translate(63.020024, 30.286633)"><g><path d="M 4.609375 0 L 0.6875 0 L 0.6875 -16.046875 L 4.609375 -16.046875 Z M 4.609375 0 "/></g></g></g><g fill="#ffcf7e" fill-opacity="1"><g transform="translate(68.31891, 30.286633)"><g><path d="M 9.1875 -3.953125 C 9.1875 -1.316406 7.941406 0 5.453125 0 L 0.6875 0 L 0.6875 -4.1875 L 4.015625 -4.1875 C 4.835938 -4.1875 5.25 -4.570312 5.25 -5.34375 L 5.25 -10.703125 C 5.25 -11.472656 4.835938 -11.859375 4.015625 -11.859375 L 0.6875 -11.859375 L 0.6875 -16.046875 L 5.453125 -16.046875 C 7.941406 -16.046875 9.1875 -14.726562 9.1875 -12.09375 Z M 9.1875 -3.953125 "/></g></g></g><g fill="#ffcf7e" fill-opacity="1"><g transform="translate(78.198412, 30.286633)"><g/></g></g><g fill="#ffcf7e" fill-opacity="1"><g transform="translate(84.337529, 30.286633)"><g><path d="M 10.28125 0 L 6.296875 0 L 6.296875 -11.1875 C 6.296875 -11.632812 6.070312 -11.859375 5.625 -11.859375 L 0.6875 -11.859375 L 0.6875 -16.046875 L 7.453125 -16.046875 C 8.285156 -16.046875 8.96875 -15.78125 9.5 -15.25 C 10.019531 -14.71875 10.28125 -14.035156 10.28125 -13.203125 Z M 4.609375 0 L 0.703125 0 L 0.703125 -9.953125 L 4.609375 -9.953125 Z M 4.609375 0 "/></g></g></g><g fill="#ffcf7e" fill-opacity="1"><g transform="translate(95.314748, 30.286633)"><g><path d="M 7.78125 -2.515625 C 7.78125 -0.835938 6.984375 0 5.390625 0 L 0.5625 0 L 0.5625 -4.1875 L 3.328125 -4.1875 C 3.660156 -4.1875 3.828125 -4.382812 3.828125 -4.78125 L 3.828125 -11.1875 C 3.828125 -11.632812 3.625 -11.859375 3.21875 -11.859375 L 1.703125 -11.859375 L 1.703125 -16.046875 L 5.328125 -16.046875 C 6.960938 -16.046875 7.78125 -15.203125 7.78125 -13.515625 Z M 7.78125 -2.515625 "/></g></g></g><g fill="#ffcf7e" fill-opacity="1"><g transform="translate(103.78483, 30.286633)"><g><path d="M 4.546875 -8.921875 L 0.65625 -8.921875 L 0.65625 -16.046875 L 4.546875 -16.046875 Z M 4.546875 -8.921875 "/></g></g></g><g fill="#ffcf7e" fill-opacity="1"><g transform="translate(109.029507, 30.286633)"><g><path d="M 9.15625 -11.859375 C 8.269531 -11.859375 7.828125 -11.425781 7.828125 -10.5625 L 7.828125 0 L 3.84375 0 L 3.84375 -9.4375 C 3.84375 -10.675781 4.367188 -11.484375 5.421875 -11.859375 L 0.421875 -11.859375 L 0.421875 -16.046875 L 9.15625 -16.046875 Z M 9.15625 -11.859375 "/></g></g></g><g fill="#ffcf7e" fill-opacity="1"><g transform="translate(118.881906, 30.286633)"><g><path d="M 11.34375 -2.890625 C 11.34375 -0.960938 10.46875 0 8.71875 0 L 5.96875 0 L 5.96875 -4.203125 L 6.78125 -4.203125 C 7.1875 -4.203125 7.390625 -4.445312 7.390625 -4.9375 L 7.390625 -11.046875 C 7.390625 -11.535156 7.269531 -11.78125 7.03125 -11.78125 C 6.789062 -11.78125 6.625 -11.503906 6.53125 -10.953125 L 4.5625 0 L 0.6875 0 L 2.34375 -8.953125 L 1.578125 -8.953125 C 0.960938 -8.953125 0.65625 -9.25 0.65625 -9.84375 L 0.65625 -16.046875 L 4.59375 -16.046875 L 4.59375 -10.375 L 5.375 -13.484375 C 5.8125 -15.191406 6.75 -16.046875 8.1875 -16.046875 L 8.390625 -16.046875 C 10.359375 -16.046875 11.34375 -14.84375 11.34375 -12.4375 Z M 11.34375 -2.890625 "/></g></g></g><g fill="#ffcf7e" fill-opacity="1"><g transform="translate(130.91619, 30.286633)"><g><path d="M 9.84375 0 L 0.6875 0 L 0.6875 -4.1875 L 3.734375 -4.1875 C 4.628906 -4.1875 5.078125 -4.710938 5.078125 -5.765625 L 5.078125 -10.578125 C 5.078125 -11.046875 4.992188 -11.375 4.828125 -11.5625 C 4.671875 -11.757812 4.363281 -11.859375 3.90625 -11.859375 L 0.6875 -11.859375 L 0.6875 -16.046875 L 5.96875 -16.046875 C 8.03125 -16.046875 9.0625 -14.820312 9.0625 -12.375 L 9.0625 -6.890625 C 9.0625 -5.460938 8.535156 -4.5625 7.484375 -4.1875 L 9.84375 -4.1875 Z M 9.84375 0 "/></g></g></g><g fill="#ffcf7e" fill-opacity="1"><g transform="translate(141.32422, 30.286633)"><g/></g></g><g fill="#ffcf7e" fill-opacity="1"><g transform="translate(147.463337, 30.286633)"><g><path d="M 6.015625 -11.859375 L 5.96875 -11.859375 C 5.34375 -11.859375 5.03125 -11.410156 5.03125 -10.515625 L 5.03125 0 L 1.140625 0 L 1.140625 -9.734375 C 1.140625 -10.898438 1.507812 -11.609375 2.25 -11.859375 L 0.5625 -11.859375 L 0.5625 -16.046875 L 6.015625 -16.046875 Z M 6.015625 -11.859375 "/></g></g></g><g fill="#ffcf7e" fill-opacity="1"><g transform="translate(154.036122, 30.286633)"><g><path d="M 4.546875 -8.921875 L 0.65625 -8.921875 L 0.65625 -16.046875 L 4.546875 -16.046875 Z M 4.546875 -8.921875 "/></g></g></g><g fill="#ffcf7e" fill-opacity="1"><g transform="translate(159.280799, 30.286633)"><g><path d="M 8.59375 0 L 4.625 0 L 4.625 -11.1875 C 4.625 -11.632812 4.390625 -11.859375 3.921875 -11.859375 L 0.421875 -11.859375 L 0.421875 -16.046875 L 5.765625 -16.046875 C 6.585938 -16.046875 7.269531 -15.78125 7.8125 -15.25 C 8.332031 -14.71875 8.59375 -14.035156 8.59375 -13.203125 Z M 8.59375 0 "/></g></g></g><g fill="#ffcf7e" fill-opacity="1"><g transform="translate(168.564008, 30.286633)"><g><path d="M 9.1875 -3.953125 C 9.1875 -1.316406 7.941406 0 5.453125 0 L 0.6875 0 L 0.6875 -4.1875 L 4.015625 -4.1875 C 4.835938 -4.1875 5.25 -4.570312 5.25 -5.34375 L 5.25 -10.703125 C 5.25 -11.472656 4.835938 -11.859375 4.015625 -11.859375 L 0.6875 -11.859375 L 0.6875 -16.046875 L 5.453125 -16.046875 C 7.941406 -16.046875 9.1875 -14.726562 9.1875 -12.09375 Z M 9.1875 -3.953125 "/></g></g></g><g fill="#ffcf7e" fill-opacity="1"><g transform="translate(178.443511, 30.286633)"><g><path d="M 10.28125 0 L 6.296875 0 L 6.296875 -11.1875 C 6.296875 -11.632812 6.070312 -11.859375 5.625 -11.859375 L 0.6875 -11.859375 L 0.6875 -16.046875 L 7.453125 -16.046875 C 8.285156 -16.046875 8.96875 -15.78125 9.5 -15.25 C 10.019531 -14.71875 10.28125 -14.035156 10.28125 -13.203125 Z M 4.609375 0 L 0.703125 0 L 0.703125 -9.953125 L 4.609375 -9.953125 Z M 4.609375 0 "/></g></g></g><g fill="#ffcf7e" fill-opacity="1"><g transform="translate(189.42073, 30.286633)"><g><path d="M 9.578125 -5.796875 C 9.578125 -1.929688 7.726562 0 4.03125 0 L 2.328125 0 L 2.328125 -4.1875 L 3.46875 -4.1875 C 4.34375 -4.1875 4.9375 -4.46875 5.25 -5.03125 C 5.476562 -5.425781 5.59375 -6.113281 5.59375 -7.09375 L 5.59375 -11.1875 C 5.59375 -11.632812 5.367188 -11.859375 4.921875 -11.859375 L 0.6875 -11.859375 L 0.6875 -18.03125 L 4.625 -18.03125 L 4.625 -16.046875 L 7.578125 -16.046875 C 8.910156 -16.046875 9.578125 -15.398438 9.578125 -14.109375 Z M 9.578125 -5.796875 "/></g></g></g><g fill="#ffcf7e" fill-opacity="1"><g transform="translate(199.693238, 30.286633)"><g/></g></g><g fill="#ffcf7e" fill-opacity="1"><g transform="translate(205.832355, 30.286633)"><g><path d="M 7.265625 0 C 7.148438 -0.632812 6.894531 -1.46875 6.5 -2.5 C 6.101562 -3.53125 5.566406 -4.78125 4.890625 -6.25 C 4.816406 -6.164062 4.757812 -6.097656 4.71875 -6.046875 C 4.6875 -6.003906 4.664062 -5.976562 4.65625 -5.96875 C 4.644531 -5.9375 4.640625 -5.859375 4.640625 -5.734375 C 4.640625 -5.617188 4.640625 -5.453125 4.640625 -5.234375 L 4.640625 0 L 0.71875 0 L 0.71875 -4.796875 C 0.71875 -7.335938 1.5 -8.984375 3.0625 -9.734375 C 1.5625 -12.671875 0.726562 -14.773438 0.5625 -16.046875 L 4.640625 -16.046875 C 4.835938 -15.140625 5.128906 -14.1875 5.515625 -13.1875 C 5.910156 -12.1875 6.40625 -11.117188 7 -9.984375 C 7.226562 -10.148438 7.34375 -10.484375 7.34375 -10.984375 L 7.34375 -16.046875 L 11.296875 -16.046875 L 11.296875 -10.609375 C 11.296875 -9.796875 11.050781 -9.003906 10.5625 -8.234375 C 10.0625 -7.472656 9.445312 -6.894531 8.71875 -6.5 C 10.40625 -3.144531 11.265625 -0.976562 11.296875 0 Z M 7.265625 0 "/></g></g></g><g fill="#ffcf7e" fill-opacity="1"><g transform="translate(217.690468, 30.286633)"><g><path d="M 4.609375 0 L 0.6875 0 L 0.6875 -16.046875 L 4.609375 -16.046875 Z M 4.609375 0 "/></g></g></g><g fill="#ffcf7e" fill-opacity="1"><g transform="translate(222.989353, 30.286633)"><g><path d="M 10.28125 0 L 6.296875 0 L 6.296875 -11.1875 C 6.296875 -11.632812 6.070312 -11.859375 5.625 -11.859375 L 0.6875 -11.859375 L 0.6875 -16.046875 L 7.453125 -16.046875 C 8.285156 -16.046875 8.96875 -15.78125 9.5 -15.25 C 10.019531 -14.71875 10.28125 -14.035156 10.28125 -13.203125 Z M 4.609375 0 L 0.703125 0 L 0.703125 -9.953125 L 4.609375 -9.953125 Z M 4.609375 0 "/></g></g></g><g fill="#ffcf7e" fill-opacity="1"><g transform="translate(233.966561, 30.286633)"><g/></g></g><g fill="#ffcf7e" fill-opacity="1"><g transform="translate(240.105666, 30.286633)"><g><path d="M 4.546875 -8.921875 L 0.65625 -8.921875 L 0.65625 -16.046875 L 4.546875 -16.046875 Z M 4.546875 -8.921875 "/></g></g></g><g fill="#ffcf7e" fill-opacity="1"><g transform="translate(245.350343, 30.286633)"><g><path d="M 7.265625 0 C 7.148438 -0.632812 6.894531 -1.46875 6.5 -2.5 C 6.101562 -3.53125 5.566406 -4.78125 4.890625 -6.25 C 4.816406 -6.164062 4.757812 -6.097656 4.71875 -6.046875 C 4.6875 -6.003906 4.664062 -5.976562 4.65625 -5.96875 C 4.644531 -5.9375 4.640625 -5.859375 4.640625 -5.734375 C 4.640625 -5.617188 4.640625 -5.453125 4.640625 -5.234375 L 4.640625 0 L 0.71875 0 L 0.71875 -4.796875 C 0.71875 -7.335938 1.5 -8.984375 3.0625 -9.734375 C 1.5625 -12.671875 0.726562 -14.773438 0.5625 -16.046875 L 4.640625 -16.046875 C 4.835938 -15.140625 5.128906 -14.1875 5.515625 -13.1875 C 5.910156 -12.1875 6.40625 -11.117188 7 -9.984375 C 7.226562 -10.148438 7.34375 -10.484375 7.34375 -10.984375 L 7.34375 -16.046875 L 11.296875 -16.046875 L 11.296875 -10.609375 C 11.296875 -9.796875 11.050781 -9.003906 10.5625 -8.234375 C 10.0625 -7.472656 9.445312 -6.894531 8.71875 -6.5 C 10.40625 -3.144531 11.265625 -0.976562 11.296875 0 Z M 7.265625 0 "/></g></g></g><g fill="#ffcf7e" fill-opacity="1"><g transform="translate(257.208456, 30.286633)"><g><path d="M 4.46875 -11.484375 L 5.078125 -11.484375 C 5.523438 -11.484375 5.75 -11.722656 5.75 -12.203125 L 5.75 -16.046875 L 9.359375 -16.046875 L 9.359375 -11.546875 C 9.359375 -9.671875 8.550781 -8.734375 6.9375 -8.734375 L 4.46875 -8.734375 L 4.46875 -4.921875 C 4.46875 -4.429688 4.671875 -4.1875 5.078125 -4.1875 L 10.03125 -4.1875 C 10.425781 -4.1875 10.625 -4.429688 10.625 -4.921875 L 10.625 -16.046875 L 14.421875 -16.046875 L 14.421875 -3.640625 C 14.421875 -2.535156 14.132812 -1.660156 13.5625 -1.015625 C 12.96875 -0.335938 12.125 0 11.03125 0 L 4.078125 0 C 1.816406 0 0.6875 -1.210938 0.6875 -3.640625 L 0.6875 -16.046875 L 4.46875 -16.046875 Z M 4.46875 -11.484375 "/></g></g></g><g fill="#ffcf7e" fill-opacity="1"><g transform="translate(272.319078, 30.286633)"><g><path d="M 8.59375 0 L 4.625 0 L 4.625 -11.1875 C 4.625 -11.632812 4.390625 -11.859375 3.921875 -11.859375 L 0.421875 -11.859375 L 0.421875 -16.046875 L 5.765625 -16.046875 C 6.585938 -16.046875 7.269531 -15.78125 7.8125 -15.25 C 8.332031 -14.71875 8.59375 -14.035156 8.59375 -13.203125 Z M 8.59375 0 "/></g></g></g><g fill="#ffcf7e" fill-opacity="1"><g transform="translate(281.602276, 30.286633)"><g/></g></g><g fill="#ffcf7e" fill-opacity="1"><g transform="translate(287.741381, 30.286633)"><g><path d="M 4.21875 0 C 4.21875 0.976562 3.960938 1.800781 3.453125 2.46875 C 2.898438 3.207031 2.144531 3.578125 1.1875 3.578125 L 1.1875 1.328125 C 1.707031 1.328125 1.96875 0.882812 1.96875 0 L 0.5625 0 L 0.5625 -4.046875 L 4.21875 -4.046875 Z M 4.21875 0 "/></g></g></g><g fill="#ffcf7e" fill-opacity="1"><g transform="translate(292.45752, 30.286633)"><g><path d="M 4.546875 -8.921875 L 0.65625 -8.921875 L 0.65625 -16.046875 L 4.546875 -16.046875 Z M 4.546875 -8.921875 "/></g></g></g><g fill="#ffcf7e" fill-opacity="1"><g transform="translate(297.702197, 30.286633)"><g><path d="M 10.453125 0 L 6.53125 0 L 6.53125 -11.09375 C 6.53125 -11.601562 6.300781 -11.859375 5.84375 -11.859375 L 5.359375 -11.859375 C 4.898438 -11.859375 4.671875 -11.601562 4.671875 -11.09375 L 4.671875 0 L 0.6875 0 L 0.6875 -13.234375 C 0.6875 -14.242188 0.851562 -14.945312 1.1875 -15.34375 C 1.570312 -15.8125 2.25 -16.046875 3.21875 -16.046875 L 7.75 -16.046875 C 9.550781 -16.046875 10.453125 -15.109375 10.453125 -13.234375 Z M 10.453125 0 "/></g></g></g><g fill="#ffcf7e" fill-opacity="1"><g transform="translate(308.855599, 30.286633)"><g><path d="M 8.59375 0 L 4.625 0 L 4.625 -11.1875 C 4.625 -11.632812 4.390625 -11.859375 3.921875 -11.859375 L 0.421875 -11.859375 L 0.421875 -16.046875 L 5.765625 -16.046875 C 6.585938 -16.046875 7.269531 -15.78125 7.8125 -15.25 C 8.332031 -14.71875 8.59375 -14.035156 8.59375 -13.203125 Z M 8.59375 0 "/></g></g></g><g fill="#ffcf7e" fill-opacity="1"><g transform="translate(318.138797, 30.286633)"><g><path d="M 6.015625 -11.859375 L 5.96875 -11.859375 C 5.34375 -11.859375 5.03125 -11.410156 5.03125 -10.515625 L 5.03125 0 L 1.140625 0 L 1.140625 -9.734375 C 1.140625 -10.898438 1.507812 -11.609375 2.25 -11.859375 L 0.5625 -11.859375 L 0.5625 -16.046875 L 6.015625 -16.046875 Z M 6.015625 -11.859375 "/></g></g></g><g fill="#ffcf7e" fill-opacity="1"><g transform="translate(324.711571, 30.286633)"><g><path d="M 7.265625 0 C 7.148438 -0.632812 6.894531 -1.46875 6.5 -2.5 C 6.101562 -3.53125 5.566406 -4.78125 4.890625 -6.25 C 4.816406 -6.164062 4.757812 -6.097656 4.71875 -6.046875 C 4.6875 -6.003906 4.664062 -5.976562 4.65625 -5.96875 C 4.644531 -5.9375 4.640625 -5.859375 4.640625 -5.734375 C 4.640625 -5.617188 4.640625 -5.453125 4.640625 -5.234375 L 4.640625 0 L 0.71875 0 L 0.71875 -4.796875 C 0.71875 -7.335938 1.5 -8.984375 3.0625 -9.734375 C 1.5625 -12.671875 0.726562 -14.773438 0.5625 -16.046875 L 4.640625 -16.046875 C 4.835938 -15.140625 5.128906 -14.1875 5.515625 -13.1875 C 5.910156 -12.1875 6.40625 -11.117188 7 -9.984375 C 7.226562 -10.148438 7.34375 -10.484375 7.34375 -10.984375 L 7.34375 -16.046875 L 11.296875 -16.046875 L 11.296875 -10.609375 C 11.296875 -9.796875 11.050781 -9.003906 10.5625 -8.234375 C 10.0625 -7.472656 9.445312 -6.894531 8.71875 -6.5 C 10.40625 -3.144531 11.265625 -0.976562 11.296875 0 Z M 7.265625 0 "/></g></g></g><g fill="#ffcf7e" fill-opacity="1"><g transform="translate(336.569683, 30.286633)"><g/></g></g><g fill="#ffcf7e" fill-opacity="1"><g transform="translate(342.708789, 30.286633)"><g><path d="M 10.734375 0 L 0.6875 0 L 0.6875 -13.234375 C 0.6875 -14.242188 0.851562 -14.945312 1.1875 -15.34375 C 1.570312 -15.8125 2.25 -16.046875 3.21875 -16.046875 L 8.015625 -16.046875 C 9.828125 -16.046875 10.734375 -15.109375 10.734375 -13.234375 Z M 6.8125 -11.09375 C 6.8125 -11.601562 6.582031 -11.859375 6.125 -11.859375 L 5.359375 -11.859375 C 4.898438 -11.859375 4.671875 -11.601562 4.671875 -11.09375 L 4.671875 -4.1875 L 6.8125 -4.1875 Z M 6.8125 -11.09375 "/></g></g></g><g fill="#ffcf7e" fill-opacity="1"><g transform="translate(354.133233, 30.286633)"><g><path d="M 4.609375 0 L 0.6875 0 L 0.6875 -16.046875 L 4.609375 -16.046875 Z M 4.609375 0 "/></g></g></g><g fill="#ffcf7e" fill-opacity="1"><g transform="translate(359.432119, 30.286633)"><g><path d="M 8.59375 0 L 4.625 0 L 4.625 -11.1875 C 4.625 -11.632812 4.390625 -11.859375 3.921875 -11.859375 L 0.421875 -11.859375 L 0.421875 -16.046875 L 5.765625 -16.046875 C 6.585938 -16.046875 7.269531 -15.78125 7.8125 -15.25 C 8.332031 -14.71875 8.59375 -14.035156 8.59375 -13.203125 Z M 8.59375 0 "/></g></g></g><g fill="#ffcf7e" fill-opacity="1"><g transform="translate(368.715339, 30.286633)"><g><path d="M 4.546875 -8.921875 L 0.65625 -8.921875 L 0.65625 -16.046875 L 4.546875 -16.046875 Z M 4.546875 -8.921875 "/></g></g></g><g fill="#ffcf7e" fill-opacity="1"><g transform="translate(373.960016, 30.286633)"><g><path d="M 10.453125 0 L 6.53125 0 L 6.53125 -11.09375 C 6.53125 -11.601562 6.300781 -11.859375 5.84375 -11.859375 L 5.359375 -11.859375 C 4.898438 -11.859375 4.671875 -11.601562 4.671875 -11.09375 L 4.671875 0 L 0.6875 0 L 0.6875 -13.234375 C 0.6875 -14.242188 0.851562 -14.945312 1.1875 -15.34375 C 1.570312 -15.8125 2.25 -16.046875 3.21875 -16.046875 L 7.75 -16.046875 C 9.550781 -16.046875 10.453125 -15.109375 10.453125 -13.234375 Z M 10.453125 0 "/></g></g></g><g fill="#ffcf7e" fill-opacity="1"><g transform="translate(385.113419, 30.286633)"><g/></g></g><g fill="#ffcf7e" fill-opacity="1"><g transform="translate(391.252547, 30.286633)"><g><path d="M 10.625 -4.234375 C 10.625 -1.410156 9.46875 0 7.15625 0 L 0.421875 0 L 0.421875 -4.1875 L 1.375 -4.1875 L 1.375 -16.046875 L 5.28125 -16.046875 L 5.28125 -4.1875 L 6.078125 -4.1875 C 6.523438 -4.1875 6.75 -4.5 6.75 -5.125 L 6.75 -16.046875 L 10.625 -16.046875 Z M 10.625 -4.234375 "/></g></g></g><g fill="#ffcf7e" fill-opacity="1"><g transform="translate(402.568575, 30.286633)"><g><path d="M 4.609375 0 L 0.6875 0 L 0.6875 -16.046875 L 4.609375 -16.046875 Z M 4.609375 0 "/></g></g></g><g fill="#ffcf7e" fill-opacity="1"><g transform="translate(407.867483, 30.286633)"><g><path d="M 8.59375 0 L 4.625 0 L 4.625 -11.1875 C 4.625 -11.632812 4.390625 -11.859375 3.921875 -11.859375 L 0.421875 -11.859375 L 0.421875 -16.046875 L 5.765625 -16.046875 C 6.585938 -16.046875 7.269531 -15.78125 7.8125 -15.25 C 8.332031 -14.71875 8.59375 -14.035156 8.59375 -13.203125 Z M 8.59375 0 "/></g></g></g><g fill="#ffcf7e" fill-opacity="1"><g transform="translate(417.150681, 30.286633)"><g><path d="M 4.546875 -8.921875 L 0.65625 -8.921875 L 0.65625 -16.046875 L 4.546875 -16.046875 Z M 4.546875 -8.921875 "/></g></g></g><g fill="#ffcf7e" fill-opacity="1"><g transform="translate(422.395357, 30.286633)"><g><path d="M 7.265625 0 C 7.148438 -0.632812 6.894531 -1.46875 6.5 -2.5 C 6.101562 -3.53125 5.566406 -4.78125 4.890625 -6.25 C 4.816406 -6.164062 4.757812 -6.097656 4.71875 -6.046875 C 4.6875 -6.003906 4.664062 -5.976562 4.65625 -5.96875 C 4.644531 -5.9375 4.640625 -5.859375 4.640625 -5.734375 C 4.640625 -5.617188 4.640625 -5.453125 4.640625 -5.234375 L 4.640625 0 L 0.71875 0 L 0.71875 -4.796875 C 0.71875 -7.335938 1.5 -8.984375 3.0625 -9.734375 C 1.5625 -12.671875 0.726562 -14.773438 0.5625 -16.046875 L 4.640625 -16.046875 C 4.835938 -15.140625 5.128906 -14.1875 5.515625 -13.1875 C 5.910156 -12.1875 6.40625 -11.117188 7 -9.984375 C 7.226562 -10.148438 7.34375 -10.484375 7.34375 -10.984375 L 7.34375 -16.046875 L 11.296875 -16.046875 L 11.296875 -10.609375 C 11.296875 -9.796875 11.050781 -9.003906 10.5625 -8.234375 C 10.0625 -7.472656 9.445312 -6.894531 8.71875 -6.5 C 10.40625 -3.144531 11.265625 -0.976562 11.296875 0 Z M 7.265625 0 "/></g></g></g><g fill="#ffcf7e" fill-opacity="1"><g transform="translate(434.25347, 30.286633)"><g/></g></g><g fill="#ffcf7e" fill-opacity="1"><g transform="translate(440.392576, 30.286633)"><g><path d="M 4.46875 -11.484375 L 5.078125 -11.484375 C 5.523438 -11.484375 5.75 -11.722656 5.75 -12.203125 L 5.75 -16.046875 L 9.359375 -16.046875 L 9.359375 -11.546875 C 9.359375 -9.671875 8.550781 -8.734375 6.9375 -8.734375 L 4.46875 -8.734375 L 4.46875 -4.921875 C 4.46875 -4.429688 4.671875 -4.1875 5.078125 -4.1875 L 10.03125 -4.1875 C 10.425781 -4.1875 10.625 -4.429688 10.625 -4.921875 L 10.625 -16.046875 L 14.421875 -16.046875 L 14.421875 -3.640625 C 14.421875 -2.535156 14.132812 -1.660156 13.5625 -1.015625 C 12.96875 -0.335938 12.125 0 11.03125 0 L 4.078125 0 C 1.816406 0 0.6875 -1.210938 0.6875 -3.640625 L 0.6875 -16.046875 L 4.46875 -16.046875 Z M 4.46875 -11.484375 "/></g></g></g><g fill="#ffcf7e" fill-opacity="1"><g transform="translate(455.503198, 30.286633)"><g><path d="M 10.453125 0 L 6.53125 0 L 6.53125 -11.09375 C 6.53125 -11.601562 6.300781 -11.859375 5.84375 -11.859375 L 5.359375 -11.859375 C 4.898438 -11.859375 4.671875 -11.601562 4.671875 -11.09375 L 4.671875 0 L 0.6875 0 L 0.6875 -13.234375 C 0.6875 -14.242188 0.851562 -14.945312 1.1875 -15.34375 C 1.570312 -15.8125 2.25 -16.046875 3.21875 -16.046875 L 7.75 -16.046875 C 9.550781 -16.046875 10.453125 -15.109375 10.453125 -13.234375 Z M 10.453125 0 "/></g></g></g><g fill="#ffcf7e" fill-opacity="1"><g transform="translate(466.656622, 30.286633)"><g><path d="M 8.59375 0 L 4.625 0 L 4.625 -11.1875 C 4.625 -11.632812 4.390625 -11.859375 3.921875 -11.859375 L 0.421875 -11.859375 L 0.421875 -16.046875 L 5.765625 -16.046875 C 6.585938 -16.046875 7.269531 -15.78125 7.8125 -15.25 C 8.332031 -14.71875 8.59375 -14.035156 8.59375 -13.203125 Z M 8.59375 0 "/></g></g></g><g fill="#ffcf7e" fill-opacity="1"><g transform="translate(475.93982, 30.286633)"><g><path d="M 11.09375 0 L 7.1875 0 L 7.1875 -11.09375 C 7.1875 -11.601562 6.953125 -11.859375 6.484375 -11.859375 L 5.96875 -11.859375 C 5.488281 -11.859375 5.25 -11.601562 5.25 -11.09375 L 5.25 -1.921875 C 5.25 -0.640625 4.710938 0 3.640625 0 L 0.265625 0 L 0.265625 -4.1875 L 0.953125 -4.1875 C 1.171875 -4.1875 1.28125 -4.285156 1.28125 -4.484375 L 1.28125 -12.96875 C 1.28125 -14.0625 1.492188 -14.847656 1.921875 -15.328125 C 2.347656 -15.804688 3.097656 -16.046875 4.171875 -16.046875 L 8.40625 -16.046875 C 10.195312 -16.046875 11.09375 -15.019531 11.09375 -12.96875 Z M 11.09375 0 "/></g></g></g><g fill="#ffcf7e" fill-opacity="1"><g transform="translate(487.743702, 30.286633)"><g><path d="M 11.34375 -2.890625 C 11.34375 -0.960938 10.46875 0 8.71875 0 L 5.96875 0 L 5.96875 -4.203125 L 6.78125 -4.203125 C 7.1875 -4.203125 7.390625 -4.445312 7.390625 -4.9375 L 7.390625 -11.046875 C 7.390625 -11.535156 7.269531 -11.78125 7.03125 -11.78125 C 6.789062 -11.78125 6.625 -11.503906 6.53125 -10.953125 L 4.5625 0 L 0.6875 0 L 2.34375 -8.953125 L 1.578125 -8.953125 C 0.960938 -8.953125 0.65625 -9.25 0.65625 -9.84375 L 0.65625 -16.046875 L 4.59375 -16.046875 L 4.59375 -10.375 L 5.375 -13.484375 C 5.8125 -15.191406 6.75 -16.046875 8.1875 -16.046875 L 8.390625 -16.046875 C 10.359375 -16.046875 11.34375 -14.84375 11.34375 -12.4375 Z M 11.34375 -2.890625 "/></g></g></g><g fill="#ffcf7e" fill-opacity="1"><g transform="translate(499.777986, 30.286633)"><g/></g></g><g fill="#ffcf7e" fill-opacity="1"><g transform="translate(505.917092, 30.286633)"><g><path d="M 4.546875 -8.921875 L 0.65625 -8.921875 L 0.65625 -16.046875 L 4.546875 -16.046875 Z M 4.546875 -8.921875 "/></g></g></g><g fill="#ffcf7e" fill-opacity="1"><g transform="translate(511.161769, 30.286633)"><g><path d="M 9.1875 -3.953125 C 9.1875 -1.316406 7.941406 0 5.453125 0 L 0.6875 0 L 0.6875 -4.1875 L 4.015625 -4.1875 C 4.835938 -4.1875 5.25 -4.570312 5.25 -5.34375 L 5.25 -10.703125 C 5.25 -11.472656 4.835938 -11.859375 4.015625 -11.859375 L 0.6875 -11.859375 L 0.6875 -16.046875 L 5.453125 -16.046875 C 7.941406 -16.046875 9.1875 -14.726562 9.1875 -12.09375 Z M 9.1875 -3.953125 "/></g></g></g><g fill="#ffcf7e" fill-opacity="1"><g transform="translate(521.041283, 30.286633)"><g/></g></g><g fill="#ffcf7e" fill-opacity="1"><g transform="translate(527.180388, 30.286633)"><g><path d="M 4.609375 0 L 0.6875 0 L 0.6875 -16.046875 L 4.609375 -16.046875 Z M 4.609375 0 "/></g></g></g><g fill="#ffcf7e" fill-opacity="1"><g transform="translate(532.479296, 30.286633)"><g><path d="M 7.265625 0 C 7.148438 -0.632812 6.894531 -1.46875 6.5 -2.5 C 6.101562 -3.53125 5.566406 -4.78125 4.890625 -6.25 C 4.816406 -6.164062 4.757812 -6.097656 4.71875 -6.046875 C 4.6875 -6.003906 4.664062 -5.976562 4.65625 -5.96875 C 4.644531 -5.9375 4.640625 -5.859375 4.640625 -5.734375 C 4.640625 -5.617188 4.640625 -5.453125 4.640625 -5.234375 L 4.640625 0 L 0.71875 0 L 0.71875 -4.796875 C 0.71875 -7.335938 1.5 -8.984375 3.0625 -9.734375 C 1.5625 -12.671875 0.726562 -14.773438 0.5625 -16.046875 L 4.640625 -16.046875 C 4.835938 -15.140625 5.128906 -14.1875 5.515625 -13.1875 C 5.910156 -12.1875 6.40625 -11.117188 7 -9.984375 C 7.226562 -10.148438 7.34375 -10.484375 7.34375 -10.984375 L 7.34375 -16.046875 L 11.296875 -16.046875 L 11.296875 -10.609375 C 11.296875 -9.796875 11.050781 -9.003906 10.5625 -8.234375 C 10.0625 -7.472656 9.445312 -6.894531 8.71875 -6.5 C 10.40625 -3.144531 11.265625 -0.976562 11.296875 0 Z M 7.265625 0 "/></g></g></g><g fill="#ffcf7e" fill-opacity="1"><g transform="translate(544.337409, 30.286633)"><g/></g></g><g fill="#ffcf7e" fill-opacity="1"><g transform="translate(550.476515, 30.286633)"><g><path d="M 4.546875 -8.921875 L 0.65625 -8.921875 L 0.65625 -16.046875 L 4.546875 -16.046875 Z M 4.546875 -8.921875 "/></g></g></g><g fill="#ffcf7e" fill-opacity="1"><g transform="translate(555.721192, 30.286633)"><g><path d="M 10.453125 0 L 6.53125 0 L 6.53125 -11.09375 C 6.53125 -11.601562 6.300781 -11.859375 5.84375 -11.859375 L 5.359375 -11.859375 C 4.898438 -11.859375 4.671875 -11.601562 4.671875 -11.09375 L 4.671875 0 L 0.6875 0 L 0.6875 -13.234375 C 0.6875 -14.242188 0.851562 -14.945312 1.1875 -15.34375 C 1.570312 -15.8125 2.25 -16.046875 3.21875 -16.046875 L 7.75 -16.046875 C 9.550781 -16.046875 10.453125 -15.109375 10.453125 -13.234375 Z M 10.453125 0 "/></g></g></g><g fill="#ffcf7e" fill-opacity="1"><g transform="translate(566.874571, 30.286633)"><g><path d="M 8.59375 0 L 4.625 0 L 4.625 -11.1875 C 4.625 -11.632812 4.390625 -11.859375 3.921875 -11.859375 L 0.421875 -11.859375 L 0.421875 -16.046875 L 5.765625 -16.046875 C 6.585938 -16.046875 7.269531 -15.78125 7.8125 -15.25 C 8.332031 -14.71875 8.59375 -14.035156 8.59375 -13.203125 Z M 8.59375 0 "/></g></g></g><g fill="#ffcf7e" fill-opacity="1"><g transform="translate(576.157769, 30.286633)"><g><path d="M 6.015625 -11.859375 L 5.96875 -11.859375 C 5.34375 -11.859375 5.03125 -11.410156 5.03125 -10.515625 L 5.03125 0 L 1.140625 0 L 1.140625 -9.734375 C 1.140625 -10.898438 1.507812 -11.609375 2.25 -11.859375 L 0.5625 -11.859375 L 0.5625 -16.046875 L 6.015625 -16.046875 Z M 6.015625 -11.859375 "/></g></g></g><g fill="#ffcf7e" fill-opacity="1"><g transform="translate(582.730543, 30.286633)"><g><path d="M 7.265625 0 C 7.148438 -0.632812 6.894531 -1.46875 6.5 -2.5 C 6.101562 -3.53125 5.566406 -4.78125 4.890625 -6.25 C 4.816406 -6.164062 4.757812 -6.097656 4.71875 -6.046875 C 4.6875 -6.003906 4.664062 -5.976562 4.65625 -5.96875 C 4.644531 -5.9375 4.640625 -5.859375 4.640625 -5.734375 C 4.640625 -5.617188 4.640625 -5.453125 4.640625 -5.234375 L 4.640625 0 L 0.71875 0 L 0.71875 -4.796875 C 0.71875 -7.335938 1.5 -8.984375 3.0625 -9.734375 C 1.5625 -12.671875 0.726562 -14.773438 0.5625 -16.046875 L 4.640625 -16.046875 C 4.835938 -15.140625 5.128906 -14.1875 5.515625 -13.1875 C 5.910156 -12.1875 6.40625 -11.117188 7 -9.984375 C 7.226562 -10.148438 7.34375 -10.484375 7.34375 -10.984375 L 7.34375 -16.046875 L 11.296875 -16.046875 L 11.296875 -10.609375 C 11.296875 -9.796875 11.050781 -9.003906 10.5625 -8.234375 C 10.0625 -7.472656 9.445312 -6.894531 8.71875 -6.5 C 10.40625 -3.144531 11.265625 -0.976562 11.296875 0 Z M 7.265625 0 "/></g></g></g><g fill="#ffcf7e" fill-opacity="1"><g transform="translate(594.588655, 30.286633)"><g/></g></g><g fill="#ffcf7e" fill-opacity="1"><g transform="translate(600.727761, 30.286633)"><g><path d="M 10.734375 0 L 0.6875 0 L 0.6875 -13.234375 C 0.6875 -14.242188 0.851562 -14.945312 1.1875 -15.34375 C 1.570312 -15.8125 2.25 -16.046875 3.21875 -16.046875 L 8.015625 -16.046875 C 9.828125 -16.046875 10.734375 -15.109375 10.734375 -13.234375 Z M 6.8125 -11.09375 C 6.8125 -11.601562 6.582031 -11.859375 6.125 -11.859375 L 5.359375 -11.859375 C 4.898438 -11.859375 4.671875 -11.601562 4.671875 -11.09375 L 4.671875 -4.1875 L 6.8125 -4.1875 Z M 6.8125 -11.09375 "/></g></g></g><g fill="#ffcf7e" fill-opacity="1"><g transform="translate(612.152205, 30.286633)"><g><path d="M 4.609375 0 L 0.6875 0 L 0.6875 -16.046875 L 4.609375 -16.046875 Z M 4.609375 0 "/></g></g></g><g fill="#ffcf7e" fill-opacity="1"><g transform="translate(617.451068, 30.286633)"><g><path d="M 8.59375 0 L 4.625 0 L 4.625 -11.1875 C 4.625 -11.632812 4.390625 -11.859375 3.921875 -11.859375 L 0.421875 -11.859375 L 0.421875 -16.046875 L 5.765625 -16.046875 C 6.585938 -16.046875 7.269531 -15.78125 7.8125 -15.25 C 8.332031 -14.71875 8.59375 -14.035156 8.59375 -13.203125 Z M 8.59375 0 "/></g></g></g><g fill="#ffcf7e" fill-opacity="1"><g transform="translate(626.734266, 30.286633)"><g><path d="M 4.546875 -8.921875 L 0.65625 -8.921875 L 0.65625 -16.046875 L 4.546875 -16.046875 Z M 4.546875 -8.921875 "/></g></g></g><g fill="#ffcf7e" fill-opacity="1"><g transform="translate(631.978943, 30.286633)"><g><path d="M 10.453125 0 L 6.53125 0 L 6.53125 -11.09375 C 6.53125 -11.601562 6.300781 -11.859375 5.84375 -11.859375 L 5.359375 -11.859375 C 4.898438 -11.859375 4.671875 -11.601562 4.671875 -11.09375 L 4.671875 0 L 0.6875 0 L 0.6875 -13.234375 C 0.6875 -14.242188 0.851562 -14.945312 1.1875 -15.34375 C 1.570312 -15.8125 2.25 -16.046875 3.21875 -16.046875 L 7.75 -16.046875 C 9.550781 -16.046875 10.453125 -15.109375 10.453125 -13.234375 Z M 10.453125 0 "/></g></g></g><g fill="#ffcf7e" fill-opacity="1"><g transform="translate(643.132323, 30.286633)"><g/></g></g><g fill="#ffcf7e" fill-opacity="1"><g transform="translate(649.271428, 30.286633)"><g><path d="M 10.625 -4.234375 C 10.625 -1.410156 9.46875 0 7.15625 0 L 0.421875 0 L 0.421875 -4.1875 L 1.375 -4.1875 L 1.375 -16.046875 L 5.28125 -16.046875 L 5.28125 -4.1875 L 6.078125 -4.1875 C 6.523438 -4.1875 6.75 -4.5 6.75 -5.125 L 6.75 -16.046875 L 10.625 -16.046875 Z M 10.625 -4.234375 "/></g></g></g><g fill="#ffcf7e" fill-opacity="1"><g transform="translate(660.587456, 30.286633)"><g><path d="M 4.609375 0 L 0.6875 0 L 0.6875 -16.046875 L 4.609375 -16.046875 Z M 4.609375 0 "/></g></g></g><g fill="#ffcf7e" fill-opacity="1"><g transform="translate(665.886364, 30.286633)"><g><path d="M 8.59375 0 L 4.625 0 L 4.625 -11.1875 C 4.625 -11.632812 4.390625 -11.859375 3.921875 -11.859375 L 0.421875 -11.859375 L 0.421875 -16.046875 L 5.765625 -16.046875 C 6.585938 -16.046875 7.269531 -15.78125 7.8125 -15.25 C 8.332031 -14.71875 8.59375 -14.035156 8.59375 -13.203125 Z M 8.59375 0 "/></g></g></g><g fill="#ffcf7e" fill-opacity="1"><g transform="translate(675.169562, 30.286633)"><g><path d="M 4.546875 -8.921875 L 0.65625 -8.921875 L 0.65625 -16.046875 L 4.546875 -16.046875 Z M 4.546875 -8.921875 "/></g></g></g><g fill="#ffcf7e" fill-opacity="1"><g transform="translate(680.414239, 30.286633)"><g><path d="M 7.265625 0 C 7.148438 -0.632812 6.894531 -1.46875 6.5 -2.5 C 6.101562 -3.53125 5.566406 -4.78125 4.890625 -6.25 C 4.816406 -6.164062 4.757812 -6.097656 4.71875 -6.046875 C 4.6875 -6.003906 4.664062 -5.976562 4.65625 -5.96875 C 4.644531 -5.9375 4.640625 -5.859375 4.640625 -5.734375 C 4.640625 -5.617188 4.640625 -5.453125 4.640625 -5.234375 L 4.640625 0 L 0.71875 0 L 0.71875 -4.796875 C 0.71875 -7.335938 1.5 -8.984375 3.0625 -9.734375 C 1.5625 -12.671875 0.726562 -14.773438 0.5625 -16.046875 L 4.640625 -16.046875 C 4.835938 -15.140625 5.128906 -14.1875 5.515625 -13.1875 C 5.910156 -12.1875 6.40625 -11.117188 7 -9.984375 C 7.226562 -10.148438 7.34375 -10.484375 7.34375 -10.984375 L 7.34375 -16.046875 L 11.296875 -16.046875 L 11.296875 -10.609375 C 11.296875 -9.796875 11.050781 -9.003906 10.5625 -8.234375 C 10.0625 -7.472656 9.445312 -6.894531 8.71875 -6.5 C 10.40625 -3.144531 11.265625 -0.976562 11.296875 0 Z M 7.265625 0 "/></g></g></g><g fill="#ffcf7e" fill-opacity="1"><g transform="translate(692.272351, 30.286633)"><g/></g></g><g fill="#ffcf7e" fill-opacity="1"><g transform="translate(698.411457, 30.286633)"><g><path d="M 4.46875 -11.484375 L 5.078125 -11.484375 C 5.523438 -11.484375 5.75 -11.722656 5.75 -12.203125 L 5.75 -16.046875 L 9.359375 -16.046875 L 9.359375 -11.546875 C 9.359375 -9.671875 8.550781 -8.734375 6.9375 -8.734375 L 4.46875 -8.734375 L 4.46875 -4.921875 C 4.46875 -4.429688 4.671875 -4.1875 5.078125 -4.1875 L 10.03125 -4.1875 C 10.425781 -4.1875 10.625 -4.429688 10.625 -4.921875 L 10.625 -16.046875 L 14.421875 -16.046875 L 14.421875 -3.640625 C 14.421875 -2.535156 14.132812 -1.660156 13.5625 -1.015625 C 12.96875 -0.335938 12.125 0 11.03125 0 L 4.078125 0 C 1.816406 0 0.6875 -1.210938 0.6875 -3.640625 L 0.6875 -16.046875 L 4.46875 -16.046875 Z M 4.46875 -11.484375 "/></g></g></g><g fill="#ffcf7e" fill-opacity="1"><g transform="translate(713.522079, 30.286633)"><g><path d="M 10.453125 0 L 6.53125 0 L 6.53125 -11.09375 C 6.53125 -11.601562 6.300781 -11.859375 5.84375 -11.859375 L 5.359375 -11.859375 C 4.898438 -11.859375 4.671875 -11.601562 4.671875 -11.09375 L 4.671875 0 L 0.6875 0 L 0.6875 -13.234375 C 0.6875 -14.242188 0.851562 -14.945312 1.1875 -15.34375 C 1.570312 -15.8125 2.25 -16.046875 3.21875 -16.046875 L 7.75 -16.046875 C 9.550781 -16.046875 10.453125 -15.109375 10.453125 -13.234375 Z M 10.453125 0 "/></g></g></g><g fill="#ffcf7e" fill-opacity="1"><g transform="translate(724.675504, 30.286633)"><g><path d="M 8.59375 0 L 4.625 0 L 4.625 -11.1875 C 4.625 -11.632812 4.390625 -11.859375 3.921875 -11.859375 L 0.421875 -11.859375 L 0.421875 -16.046875 L 5.765625 -16.046875 C 6.585938 -16.046875 7.269531 -15.78125 7.8125 -15.25 C 8.332031 -14.71875 8.59375 -14.035156 8.59375 -13.203125 Z M 8.59375 0 "/></g></g></g><g fill="#ffcf7e" fill-opacity="1"><g transform="translate(733.958702, 30.286633)"><g><path d="M 11.09375 0 L 7.1875 0 L 7.1875 -11.09375 C 7.1875 -11.601562 6.953125 -11.859375 6.484375 -11.859375 L 5.96875 -11.859375 C 5.488281 -11.859375 5.25 -11.601562 5.25 -11.09375 L 5.25 -1.921875 C 5.25 -0.640625 4.710938 0 3.640625 0 L 0.265625 0 L 0.265625 -4.1875 L 0.953125 -4.1875 C 1.171875 -4.1875 1.28125 -4.285156 1.28125 -4.484375 L 1.28125 -12.96875 C 1.28125 -14.0625 1.492188 -14.847656 1.921875 -15.328125 C 2.347656 -15.804688 3.097656 -16.046875 4.171875 -16.046875 L 8.40625 -16.046875 C 10.195312 -16.046875 11.09375 -15.019531 11.09375 -12.96875 Z M 11.09375 0 "/></g></g></g><g fill="#ffcf7e" fill-opacity="1"><g transform="translate(745.762583, 30.286633)"><g><path d="M 4.546875 -8.921875 L 0.65625 -8.921875 L 0.65625 -16.046875 L 4.546875 -16.046875 Z M 4.546875 -8.921875 "/></g></g></g><g fill="#ffcf7e" fill-opacity="1"><g transform="translate(751.00726, 30.286633)"><g><path d="M 4.46875 -11.484375 L 5.078125 -11.484375 C 5.523438 -11.484375 5.75 -11.722656 5.75 -12.203125 L 5.75 -16.046875 L 9.359375 -16.046875 L 9.359375 -11.546875 C 9.359375 -9.671875 8.550781 -8.734375 6.9375 -8.734375 L 4.46875 -8.734375 L 4.46875 -4.921875 C 4.46875 -4.429688 4.671875 -4.1875 5.078125 -4.1875 L 10.03125 -4.1875 C 10.425781 -4.1875 10.625 -4.429688 10.625 -4.921875 L 10.625 -16.046875 L 14.421875 -16.046875 L 14.421875 -3.640625 C 14.421875 -2.535156 14.132812 -1.660156 13.5625 -1.015625 C 12.96875 -0.335938 12.125 0 11.03125 0 L 4.078125 0 C 1.816406 0 0.6875 -1.210938 0.6875 -3.640625 L 0.6875 -16.046875 L 4.46875 -16.046875 Z M 4.46875 -11.484375 "/></g></g></g><g fill="#ffcf7e" fill-opacity="1"><g transform="translate(766.117882, 30.286633)"><g/></g></g><g fill="#ffcf7e" fill-opacity="1"><g transform="translate(772.256988, 30.286633)"><g><path d="M 10.28125 0 L 6.296875 0 L 6.296875 -11.1875 C 6.296875 -11.632812 6.070312 -11.859375 5.625 -11.859375 L 0.6875 -11.859375 L 0.6875 -16.046875 L 7.453125 -16.046875 C 8.285156 -16.046875 8.96875 -15.78125 9.5 -15.25 C 10.019531 -14.71875 10.28125 -14.035156 10.28125 -13.203125 Z M 4.609375 0 L 0.703125 0 L 0.703125 -9.953125 L 4.609375 -9.953125 Z M 4.609375 0 "/></g></g></g><g fill="#ffcf7e" fill-opacity="1"><g transform="translate(783.234195, 30.286633)"><g><path d="M 10.28125 0 L 6.296875 0 L 6.296875 -11.1875 C 6.296875 -11.632812 6.070312 -11.859375 5.625 -11.859375 L 0.6875 -11.859375 L 0.6875 -16.046875 L 7.453125 -16.046875 C 8.285156 -16.046875 8.96875 -15.78125 9.5 -15.25 C 10.019531 -14.71875 10.28125 -14.035156 10.28125 -13.203125 Z M 4.609375 0 L 0.703125 0 L 0.703125 -9.953125 L 4.609375 -9.953125 Z M 4.609375 0 "/></g></g></g><g fill="#ffcf7e" fill-opacity="1"><g transform="translate(794.211403, 30.286633)"><g><path d="M 4.609375 0 L 0.6875 0 L 0.6875 -16.046875 L 4.609375 -16.046875 Z M 4.609375 0 "/></g></g></g><g fill="#ffcf7e" fill-opacity="1"><g transform="translate(799.510265, 30.286633)"><g><path d="M 9.84375 0 L 0.6875 0 L 0.6875 -4.1875 L 3.734375 -4.1875 C 4.628906 -4.1875 5.078125 -4.710938 5.078125 -5.765625 L 5.078125 -10.578125 C 5.078125 -11.046875 4.992188 -11.375 4.828125 -11.5625 C 4.671875 -11.757812 4.363281 -11.859375 3.90625 -11.859375 L 0.6875 -11.859375 L 0.6875 -16.046875 L 5.96875 -16.046875 C 8.03125 -16.046875 9.0625 -14.820312 9.0625 -12.375 L 9.0625 -6.890625 C 9.0625 -5.460938 8.535156 -4.5625 7.484375 -4.1875 L 9.84375 -4.1875 Z M 9.84375 0 "/></g></g></g><g fill="#ffcf7e" fill-opacity="1"><g transform="translate(809.918295, 30.286633)"><g><path d="M 9.515625 0 L 5.59375 0 L 4.890625 -4.4375 C 4.609375 -4.4375 4.429688 -4.238281 4.359375 -3.84375 L 3.625 0 L 0.140625 0 L 1.078125 -4.640625 C 1.484375 -6.734375 2.453125 -7.78125 3.984375 -7.78125 L 4.640625 -7.78125 L 4.640625 -11.1875 C 4.640625 -11.632812 4.382812 -11.859375 3.875 -11.859375 L 1.078125 -11.859375 L 1.078125 -16.046875 L 5.609375 -16.046875 C 7.585938 -16.046875 8.578125 -15.003906 8.578125 -12.921875 L 8.578125 -7.53125 C 8.578125 -6.96875 8.59375 -6.445312 8.625 -5.96875 C 8.65625 -5.488281 8.703125 -5.046875 8.765625 -4.640625 Z M 9.515625 0 "/></g></g></g><g fill="#ffcf7e" fill-opacity="1"><g transform="translate(819.716485, 30.286633)"><g/></g></g><g fill="#ffcf7e" fill-opacity="1"><g transform="translate(825.855636, 30.286633)"><g><path d="M 11.09375 0 L 7.1875 0 L 7.1875 -11.09375 C 7.1875 -11.601562 6.953125 -11.859375 6.484375 -11.859375 L 5.96875 -11.859375 C 5.488281 -11.859375 5.25 -11.601562 5.25 -11.09375 L 5.25 -1.921875 C 5.25 -0.640625 4.710938 0 3.640625 0 L 0.265625 0 L 0.265625 -4.1875 L 0.953125 -4.1875 C 1.171875 -4.1875 1.28125 -4.285156 1.28125 -4.484375 L 1.28125 -12.96875 C 1.28125 -14.0625 1.492188 -14.847656 1.921875 -15.328125 C 2.347656 -15.804688 3.097656 -16.046875 4.171875 -16.046875 L 8.40625 -16.046875 C 10.195312 -16.046875 11.09375 -15.019531 11.09375 -12.96875 Z M 11.09375 0 "/></g></g></g><g fill="#ffcf7e" fill-opacity="1"><g transform="translate(837.659518, 30.286633)"><g><path d="M 4.609375 0 L 0.6875 0 L 0.6875 -16.046875 L 4.609375 -16.046875 Z M 4.609375 0 "/></g></g></g><g fill="#ffcf7e" fill-opacity="1"><g transform="translate(842.95838, 30.286633)"><g><path d="M 8.59375 0 L 4.625 0 L 4.625 -11.1875 C 4.625 -11.632812 4.390625 -11.859375 3.921875 -11.859375 L 0.421875 -11.859375 L 0.421875 -16.046875 L 5.765625 -16.046875 C 6.585938 -16.046875 7.269531 -15.78125 7.8125 -15.25 C 8.332031 -14.71875 8.59375 -14.035156 8.59375 -13.203125 Z M 8.59375 0 "/></g></g></g><g fill="#ffcf7e" fill-opacity="1"><g transform="translate(852.241578, 30.286633)"><g><path d="M 4.546875 -8.921875 L 0.65625 -8.921875 L 0.65625 -16.046875 L 4.546875 -16.046875 Z M 4.546875 -8.921875 "/></g></g></g><g fill="#ffcf7e" fill-opacity="1"><g transform="translate(857.486255, 30.286633)"><g><path d="M 9.84375 0 L 0.6875 0 L 0.6875 -4.1875 L 3.734375 -4.1875 C 4.628906 -4.1875 5.078125 -4.710938 5.078125 -5.765625 L 5.078125 -10.578125 C 5.078125 -11.046875 4.992188 -11.375 4.828125 -11.5625 C 4.671875 -11.757812 4.363281 -11.859375 3.90625 -11.859375 L 0.6875 -11.859375 L 0.6875 -16.046875 L 5.96875 -16.046875 C 8.03125 -16.046875 9.0625 -14.820312 9.0625 -12.375 L 9.0625 -6.890625 C 9.0625 -5.460938 8.535156 -4.5625 7.484375 -4.1875 L 9.84375 -4.1875 Z M 9.84375 0 "/></g></g></g><g fill="#ffcf7e" fill-opacity="1"><g transform="translate(867.894285, 30.286633)"><g><path d="M 10.9375 -4.8125 C 10.9375 -3.238281 10.492188 -1.984375 9.609375 -1.046875 C 8.691406 -0.078125 7.457031 0.40625 5.90625 0.40625 C 4.3125 0.40625 3.039062 -0.0625 2.09375 -1 C 1.15625 -1.9375 0.6875 -3.207031 0.6875 -4.8125 L 0.6875 -13.484375 C 0.6875 -13.941406 0.734375 -14.332031 0.828125 -14.65625 C 0.921875 -14.988281 1.066406 -15.253906 1.265625 -15.453125 C 1.460938 -15.660156 1.71875 -15.8125 2.03125 -15.90625 C 2.351562 -16 2.75 -16.046875 3.21875 -16.046875 L 8.390625 -16.046875 C 10.085938 -16.046875 10.9375 -15.191406 10.9375 -13.484375 Z M 6.984375 -11.53125 C 6.984375 -11.75 6.890625 -11.859375 6.703125 -11.859375 L 4.890625 -11.859375 C 4.710938 -11.859375 4.625 -11.75 4.625 -11.53125 L 4.625 -5.25 C 4.625 -4.257812 5.035156 -3.765625 5.859375 -3.765625 C 6.609375 -3.765625 6.984375 -4.257812 6.984375 -5.25 Z M 6.984375 -11.53125 "/></g></g></g><g fill="#ffcf7e" fill-opacity="1"><g transform="translate(879.521994, 30.286633)"><g/></g></g><g fill="#ffcf7e" fill-opacity="1"><g transform="translate(885.661146, 30.286633)"><g><path d="M 11.09375 0 L 7.1875 0 L 7.1875 -11.09375 C 7.1875 -11.601562 6.953125 -11.859375 6.484375 -11.859375 L 5.96875 -11.859375 C 5.488281 -11.859375 5.25 -11.601562 5.25 -11.09375 L 5.25 -1.921875 C 5.25 -0.640625 4.710938 0 3.640625 0 L 0.265625 0 L 0.265625 -4.1875 L 0.953125 -4.1875 C 1.171875 -4.1875 1.28125 -4.285156 1.28125 -4.484375 L 1.28125 -12.96875 C 1.28125 -14.0625 1.492188 -14.847656 1.921875 -15.328125 C 2.347656 -15.804688 3.097656 -16.046875 4.171875 -16.046875 L 8.40625 -16.046875 C 10.195312 -16.046875 11.09375 -15.019531 11.09375 -12.96875 Z M 11.09375 0 "/></g></g></g><g fill="#ffcf7e" fill-opacity="1"><g transform="translate(897.465027, 30.286633)"><g><path d="M 11.34375 -2.890625 C 11.34375 -0.960938 10.46875 0 8.71875 0 L 5.96875 0 L 5.96875 -4.203125 L 6.78125 -4.203125 C 7.1875 -4.203125 7.390625 -4.445312 7.390625 -4.9375 L 7.390625 -11.046875 C 7.390625 -11.535156 7.269531 -11.78125 7.03125 -11.78125 C 6.789062 -11.78125 6.625 -11.503906 6.53125 -10.953125 L 4.5625 0 L 0.6875 0 L 2.34375 -8.953125 L 1.578125 -8.953125 C 0.960938 -8.953125 0.65625 -9.25 0.65625 -9.84375 L 0.65625 -16.046875 L 4.59375 -16.046875 L 4.59375 -10.375 L 5.375 -13.484375 C 5.8125 -15.191406 6.75 -16.046875 8.1875 -16.046875 L 8.390625 -16.046875 C 10.359375 -16.046875 11.34375 -14.84375 11.34375 -12.4375 Z M 11.34375 -2.890625 "/></g></g></g><g fill="#ffcf7e" fill-opacity="1"><g transform="translate(909.499266, 30.286633)"><g><path d="M 4.546875 -8.921875 L 0.65625 -8.921875 L 0.65625 -16.046875 L 4.546875 -16.046875 Z M 4.546875 -8.921875 "/></g></g></g><g fill="#ffcf7e" fill-opacity="1"><g transform="translate(914.743943, 30.286633)"><g><path d="M 4.546875 -8.921875 L 0.65625 -8.921875 L 0.65625 -16.046875 L 4.546875 -16.046875 Z M 4.546875 -8.921875 "/></g></g></g><g fill="#ffcf7e" fill-opacity="1"><g transform="translate(919.98862, 30.286633)"><g><path d="M 10.390625 -4.953125 C 10.390625 -3.316406 10.125 -2.113281 9.59375 -1.34375 C 8.945312 -0.414062 7.84375 0.046875 6.28125 0.046875 C 6 0.046875 5.703125 0.03125 5.390625 0 L 5.390625 -4.1875 C 6.078125 -4.1875 6.421875 -4.691406 6.421875 -5.703125 L 6.421875 -11.1875 C 6.421875 -11.632812 6.191406 -11.859375 5.734375 -11.859375 L 0.6875 -11.859375 L 0.6875 -16.046875 L 8.390625 -16.046875 C 9.722656 -16.046875 10.390625 -15.398438 10.390625 -14.109375 Z M 4.640625 2.3125 L 0.71875 2.3125 L 0.71875 -10.09375 L 4.640625 -10.09375 Z M 4.640625 2.3125 "/></g></g></g><g fill="#ffcf7e" fill-opacity="1"><g transform="translate(931.087813, 30.286633)"><g/></g></g><g fill="#ffcf7e" fill-opacity="1"><g transform="translate(937.226965, 30.286633)"><g><path d="M 4.546875 -8.921875 L 0.65625 -8.921875 L 0.65625 -16.046875 L 4.546875 -16.046875 Z M 4.546875 -8.921875 "/></g></g></g><g fill="#ffcf7e" fill-opacity="1"><g transform="translate(942.471641, 30.286633)"><g><path d="M 9.1875 -3.953125 C 9.1875 -1.316406 7.941406 0 5.453125 0 L 0.6875 0 L 0.6875 -4.1875 L 4.015625 -4.1875 C 4.835938 -4.1875 5.25 -4.570312 5.25 -5.34375 L 5.25 -10.703125 C 5.25 -11.472656 4.835938 -11.859375 4.015625 -11.859375 L 0.6875 -11.859375 L 0.6875 -16.046875 L 5.453125 -16.046875 C 7.941406 -16.046875 9.1875 -14.726562 9.1875 -12.09375 Z M 9.1875 -3.953125 "/></g></g></g><g fill="#ffcf7e" fill-opacity="1"><g transform="translate(952.351155, 30.286633)"><g/></g></g><g fill="#ffcf7e" fill-opacity="1"><g transform="translate(958.490307, 30.286633)"><g><path d="M 8.59375 0 L 4.625 0 L 4.625 -11.1875 C 4.625 -11.632812 4.390625 -11.859375 3.921875 -11.859375 L 0.421875 -11.859375 L 0.421875 -16.046875 L 5.765625 -16.046875 C 6.585938 -16.046875 7.269531 -15.78125 7.8125 -15.25 C 8.332031 -14.71875 8.59375 -14.035156 8.59375 -13.203125 Z M 8.59375 0 "/></g></g></g><g fill="#ffcf7e" fill-opacity="1"><g transform="translate(967.773505, 30.286633)"><g><path d="M 4.46875 -11.484375 L 5.078125 -11.484375 C 5.523438 -11.484375 5.75 -11.722656 5.75 -12.203125 L 5.75 -16.046875 L 9.359375 -16.046875 L 9.359375 -11.546875 C 9.359375 -9.671875 8.550781 -8.734375 6.9375 -8.734375 L 4.46875 -8.734375 L 4.46875 -4.921875 C 4.46875 -4.429688 4.671875 -4.1875 5.078125 -4.1875 L 10.03125 -4.1875 C 10.425781 -4.1875 10.625 -4.429688 10.625 -4.921875 L 10.625 -16.046875 L 14.421875 -16.046875 L 14.421875 -3.640625 C 14.421875 -2.535156 14.132812 -1.660156 13.5625 -1.015625 C 12.96875 -0.335938 12.125 0 11.03125 0 L 4.078125 0 C 1.816406 0 0.6875 -1.210938 0.6875 -3.640625 L 0.6875 -16.046875 L 4.46875 -16.046875 Z M 4.46875 -11.484375 "/></g></g></g><g fill="#ffcf7e" fill-opacity="1"><g transform="translate(982.884081, 30.286633)"><g><path d="M 10.28125 0 L 6.296875 0 L 6.296875 -11.1875 C 6.296875 -11.632812 6.070312 -11.859375 5.625 -11.859375 L 0.6875 -11.859375 L 0.6875 -16.046875 L 7.453125 -16.046875 C 8.285156 -16.046875 8.96875 -15.78125 9.5 -15.25 C 10.019531 -14.71875 10.28125 -14.035156 10.28125 -13.203125 Z M 4.609375 0 L 0.703125 0 L 0.703125 -9.953125 L 4.609375 -9.953125 Z M 4.609375 0 "/></g></g></g><g fill="#ffcf7e" fill-opacity="1"><g transform="translate(993.861289, 30.286633)"><g/></g></g><g fill="#ffcf7e" fill-opacity="1"><g transform="translate(1000.00044, 30.286633)"><g><path d="M 10.625 -4.234375 C 10.625 -1.410156 9.46875 0 7.15625 0 L 0.421875 0 L 0.421875 -4.1875 L 1.375 -4.1875 L 1.375 -16.046875 L 5.28125 -16.046875 L 5.28125 -4.1875 L 6.078125 -4.1875 C 6.523438 -4.1875 6.75 -4.5 6.75 -5.125 L 6.75 -16.046875 L 10.625 -16.046875 Z M 10.625 -4.234375 "/></g></g></g><g fill="#ffcf7e" fill-opacity="1"><g transform="translate(1011.316467, 30.286633)"><g><path d="M 7.78125 -2.515625 C 7.78125 -0.835938 6.984375 0 5.390625 0 L 0.5625 0 L 0.5625 -4.1875 L 3.328125 -4.1875 C 3.660156 -4.1875 3.828125 -4.382812 3.828125 -4.78125 L 3.828125 -11.1875 C 3.828125 -11.632812 3.625 -11.859375 3.21875 -11.859375 L 1.703125 -11.859375 L 1.703125 -16.046875 L 5.328125 -16.046875 C 6.960938 -16.046875 7.78125 -15.203125 7.78125 -13.515625 Z M 7.78125 -2.515625 "/></g></g></g><g fill="#ffcf7e" fill-opacity="1"><g transform="translate(1019.786515, 30.286633)"><g><path d="M 9.1875 -3.953125 C 9.1875 -1.316406 7.941406 0 5.453125 0 L 0.6875 0 L 0.6875 -4.1875 L 4.015625 -4.1875 C 4.835938 -4.1875 5.25 -4.570312 5.25 -5.34375 L 5.25 -10.703125 C 5.25 -11.472656 4.835938 -11.859375 4.015625 -11.859375 L 0.6875 -11.859375 L 0.6875 -16.046875 L 5.453125 -16.046875 C 7.941406 -16.046875 9.1875 -14.726562 9.1875 -12.09375 Z M 9.1875 -3.953125 "/></g></g></g><g fill="#ffcf7e" fill-opacity="1"><g transform="translate(1029.666029, 30.286633)"><g><path d="M 4.609375 0 L 0.6875 0 L 0.6875 -16.046875 L 4.609375 -16.046875 Z M 4.609375 0 "/></g></g></g><g fill="#ffcf7e" fill-opacity="1"><g transform="translate(1034.964892, 30.286633)"><g><path d="M 4.46875 -11.484375 L 5.078125 -11.484375 C 5.523438 -11.484375 5.75 -11.722656 5.75 -12.203125 L 5.75 -16.046875 L 9.359375 -16.046875 L 9.359375 -11.546875 C 9.359375 -9.671875 8.550781 -8.734375 6.9375 -8.734375 L 4.46875 -8.734375 L 4.46875 -4.921875 C 4.46875 -4.429688 4.671875 -4.1875 5.078125 -4.1875 L 10.03125 -4.1875 C 10.425781 -4.1875 10.625 -4.429688 10.625 -4.921875 L 10.625 -16.046875 L 14.421875 -16.046875 L 14.421875 -3.640625 C 14.421875 -2.535156 14.132812 -1.660156 13.5625 -1.015625 C 12.96875 -0.335938 12.125 0 11.03125 0 L 4.078125 0 C 1.816406 0 0.6875 -1.210938 0.6875 -3.640625 L 0.6875 -16.046875 L 4.46875 -16.046875 Z M 4.46875 -11.484375 "/></g></g></g><g fill="#ffcf7e" fill-opacity="1"><g transform="translate(1050.075559, 30.286633)"><g><path d="M 0.265625 -14.765625 C 0.265625 -15.546875 0.601562 -16.296875 1.28125 -17.015625 C 1.820312 -17.609375 2.445312 -18.066406 3.15625 -18.390625 L 3.15625 -11.5 L 0.265625 -11.5 Z M 3.8125 -14.765625 C 3.8125 -16.191406 4.765625 -17.398438 6.671875 -18.390625 L 6.671875 -11.5 L 3.8125 -11.5 Z M 3.8125 -14.765625 "/></g></g></g><g fill="#ffcf7e" fill-opacity="1"><g transform="translate(392.983183, 68.950424)"><g><path d="M 6.671875 -15.125 C 6.671875 -14.34375 6.332031 -13.59375 5.65625 -12.875 C 5.113281 -12.28125 4.488281 -11.820312 3.78125 -11.5 L 3.78125 -18.390625 L 6.671875 -18.390625 Z M 3.125 -15.125 C 3.125 -13.695312 2.171875 -12.488281 0.265625 -11.5 L 0.265625 -18.390625 L 3.125 -18.390625 Z M 3.125 -15.125 "/></g></g></g><g fill="#ffcf7e" fill-opacity="1"><g transform="translate(399.92187, 68.950424)"><g><path d="M 4.546875 -8.921875 L 0.65625 -8.921875 L 0.65625 -16.046875 L 4.546875 -16.046875 Z M 4.546875 -8.921875 "/></g></g></g><g fill="#ffcf7e" fill-opacity="1"><g transform="translate(405.166547, 68.950424)"><g><path d="M 10.453125 0 L 6.53125 0 L 6.53125 -11.09375 C 6.53125 -11.601562 6.300781 -11.859375 5.84375 -11.859375 L 5.359375 -11.859375 C 4.898438 -11.859375 4.671875 -11.601562 4.671875 -11.09375 L 4.671875 0 L 0.6875 0 L 0.6875 -13.234375 C 0.6875 -14.242188 0.851562 -14.945312 1.1875 -15.34375 C 1.570312 -15.8125 2.25 -16.046875 3.21875 -16.046875 L 7.75 -16.046875 C 9.550781 -16.046875 10.453125 -15.109375 10.453125 -13.234375 Z M 10.453125 0 "/></g></g></g><g fill="#ffcf7e" fill-opacity="1"><g transform="translate(416.319949, 68.950424)"><g><path d="M 8.59375 0 L 4.625 0 L 4.625 -11.1875 C 4.625 -11.632812 4.390625 -11.859375 3.921875 -11.859375 L 0.421875 -11.859375 L 0.421875 -16.046875 L 5.765625 -16.046875 C 6.585938 -16.046875 7.269531 -15.78125 7.8125 -15.25 C 8.332031 -14.71875 8.59375 -14.035156 8.59375 -13.203125 Z M 8.59375 0 "/></g></g></g><g fill="#ffcf7e" fill-opacity="1"><g transform="translate(425.603158, 68.950424)"><g><path d="M 6.015625 -11.859375 L 5.96875 -11.859375 C 5.34375 -11.859375 5.03125 -11.410156 5.03125 -10.515625 L 5.03125 0 L 1.140625 0 L 1.140625 -9.734375 C 1.140625 -10.898438 1.507812 -11.609375 2.25 -11.859375 L 0.5625 -11.859375 L 0.5625 -16.046875 L 6.015625 -16.046875 Z M 6.015625 -11.859375 "/></g></g></g><g fill="#ffcf7e" fill-opacity="1"><g transform="translate(432.175943, 68.950424)"><g><path d="M 7.265625 0 C 7.148438 -0.632812 6.894531 -1.46875 6.5 -2.5 C 6.101562 -3.53125 5.566406 -4.78125 4.890625 -6.25 C 4.816406 -6.164062 4.757812 -6.097656 4.71875 -6.046875 C 4.6875 -6.003906 4.664062 -5.976562 4.65625 -5.96875 C 4.644531 -5.9375 4.640625 -5.859375 4.640625 -5.734375 C 4.640625 -5.617188 4.640625 -5.453125 4.640625 -5.234375 L 4.640625 0 L 0.71875 0 L 0.71875 -4.796875 C 0.71875 -7.335938 1.5 -8.984375 3.0625 -9.734375 C 1.5625 -12.671875 0.726562 -14.773438 0.5625 -16.046875 L 4.640625 -16.046875 C 4.835938 -15.140625 5.128906 -14.1875 5.515625 -13.1875 C 5.910156 -12.1875 6.40625 -11.117188 7 -9.984375 C 7.226562 -10.148438 7.34375 -10.484375 7.34375 -10.984375 L 7.34375 -16.046875 L 11.296875 -16.046875 L 11.296875 -10.609375 C 11.296875 -9.796875 11.050781 -9.003906 10.5625 -8.234375 C 10.0625 -7.472656 9.445312 -6.894531 8.71875 -6.5 C 10.40625 -3.144531 11.265625 -0.976562 11.296875 0 Z M 7.265625 0 "/></g></g></g><g fill="#ffcf7e" fill-opacity="1"><g transform="translate(444.034056, 68.950424)"><g/></g></g><g fill="#ffcf7e" fill-opacity="1"><g transform="translate(450.173173, 68.950424)"><g><path d="M 10.734375 0 L 0.6875 0 L 0.6875 -13.234375 C 0.6875 -14.242188 0.851562 -14.945312 1.1875 -15.34375 C 1.570312 -15.8125 2.25 -16.046875 3.21875 -16.046875 L 8.015625 -16.046875 C 9.828125 -16.046875 10.734375 -15.109375 10.734375 -13.234375 Z M 6.8125 -11.09375 C 6.8125 -11.601562 6.582031 -11.859375 6.125 -11.859375 L 5.359375 -11.859375 C 4.898438 -11.859375 4.671875 -11.601562 4.671875 -11.09375 L 4.671875 -4.1875 L 6.8125 -4.1875 Z M 6.8125 -11.09375 "/></g></g></g><g fill="#ffcf7e" fill-opacity="1"><g transform="translate(461.597618, 68.950424)"><g><path d="M 4.609375 0 L 0.6875 0 L 0.6875 -16.046875 L 4.609375 -16.046875 Z M 4.609375 0 "/></g></g></g><g fill="#ffcf7e" fill-opacity="1"><g transform="translate(466.896503, 68.950424)"><g><path d="M 8.59375 0 L 4.625 0 L 4.625 -11.1875 C 4.625 -11.632812 4.390625 -11.859375 3.921875 -11.859375 L 0.421875 -11.859375 L 0.421875 -16.046875 L 5.765625 -16.046875 C 6.585938 -16.046875 7.269531 -15.78125 7.8125 -15.25 C 8.332031 -14.71875 8.59375 -14.035156 8.59375 -13.203125 Z M 8.59375 0 "/></g></g></g><g fill="#ffcf7e" fill-opacity="1"><g transform="translate(476.179712, 68.950424)"><g><path d="M 4.546875 -8.921875 L 0.65625 -8.921875 L 0.65625 -16.046875 L 4.546875 -16.046875 Z M 4.546875 -8.921875 "/></g></g></g><g fill="#ffcf7e" fill-opacity="1"><g transform="translate(481.424389, 68.950424)"><g><path d="M 10.453125 0 L 6.53125 0 L 6.53125 -11.09375 C 6.53125 -11.601562 6.300781 -11.859375 5.84375 -11.859375 L 5.359375 -11.859375 C 4.898438 -11.859375 4.671875 -11.601562 4.671875 -11.09375 L 4.671875 0 L 0.6875 0 L 0.6875 -13.234375 C 0.6875 -14.242188 0.851562 -14.945312 1.1875 -15.34375 C 1.570312 -15.8125 2.25 -16.046875 3.21875 -16.046875 L 7.75 -16.046875 C 9.550781 -16.046875 10.453125 -15.109375 10.453125 -13.234375 Z M 10.453125 0 "/></g></g></g><g fill="#ffcf7e" fill-opacity="1"><g transform="translate(492.577791, 68.950424)"><g/></g></g><g fill="#ffcf7e" fill-opacity="1"><g transform="translate(498.716908, 68.950424)"><g><path d="M 6.671875 -15.125 C 6.671875 -14.34375 6.332031 -13.59375 5.65625 -12.875 C 5.113281 -12.28125 4.488281 -11.820312 3.78125 -11.5 L 3.78125 -18.390625 L 6.671875 -18.390625 Z M 3.125 -15.125 C 3.125 -13.695312 2.171875 -12.488281 0.265625 -11.5 L 0.265625 -18.390625 L 3.125 -18.390625 Z M 3.125 -15.125 "/></g></g></g><g fill="#ffcf7e" fill-opacity="1"><g transform="translate(505.655595, 68.950424)"><g><path d="M 10.625 -4.234375 C 10.625 -1.410156 9.46875 0 7.15625 0 L 0.421875 0 L 0.421875 -4.1875 L 1.375 -4.1875 L 1.375 -16.046875 L 5.28125 -16.046875 L 5.28125 -4.1875 L 6.078125 -4.1875 C 6.523438 -4.1875 6.75 -4.5 6.75 -5.125 L 6.75 -16.046875 L 10.625 -16.046875 Z M 10.625 -4.234375 "/></g></g></g><g fill="#ffcf7e" fill-opacity="1"><g transform="translate(516.971623, 68.950424)"><g><path d="M 4.609375 0 L 0.6875 0 L 0.6875 -16.046875 L 4.609375 -16.046875 Z M 4.609375 0 "/></g></g></g><g fill="#ffcf7e" fill-opacity="1"><g transform="translate(522.270508, 68.950424)"><g><path d="M 8.59375 0 L 4.625 0 L 4.625 -11.1875 C 4.625 -11.632812 4.390625 -11.859375 3.921875 -11.859375 L 0.421875 -11.859375 L 0.421875 -16.046875 L 5.765625 -16.046875 C 6.585938 -16.046875 7.269531 -15.78125 7.8125 -15.25 C 8.332031 -14.71875 8.59375 -14.035156 8.59375 -13.203125 Z M 8.59375 0 "/></g></g></g><g fill="#ffcf7e" fill-opacity="1"><g transform="translate(531.553717, 68.950424)"><g><path d="M 4.546875 -8.921875 L 0.65625 -8.921875 L 0.65625 -16.046875 L 4.546875 -16.046875 Z M 4.546875 -8.921875 "/></g></g></g><g fill="#ffcf7e" fill-opacity="1"><g transform="translate(536.798394, 68.950424)"><g><path d="M 7.265625 0 C 7.148438 -0.632812 6.894531 -1.46875 6.5 -2.5 C 6.101562 -3.53125 5.566406 -4.78125 4.890625 -6.25 C 4.816406 -6.164062 4.757812 -6.097656 4.71875 -6.046875 C 4.6875 -6.003906 4.664062 -5.976562 4.65625 -5.96875 C 4.644531 -5.9375 4.640625 -5.859375 4.640625 -5.734375 C 4.640625 -5.617188 4.640625 -5.453125 4.640625 -5.234375 L 4.640625 0 L 0.71875 0 L 0.71875 -4.796875 C 0.71875 -7.335938 1.5 -8.984375 3.0625 -9.734375 C 1.5625 -12.671875 0.726562 -14.773438 0.5625 -16.046875 L 4.640625 -16.046875 C 4.835938 -15.140625 5.128906 -14.1875 5.515625 -13.1875 C 5.910156 -12.1875 6.40625 -11.117188 7 -9.984375 C 7.226562 -10.148438 7.34375 -10.484375 7.34375 -10.984375 L 7.34375 -16.046875 L 11.296875 -16.046875 L 11.296875 -10.609375 C 11.296875 -9.796875 11.050781 -9.003906 10.5625 -8.234375 C 10.0625 -7.472656 9.445312 -6.894531 8.71875 -6.5 C 10.40625 -3.144531 11.265625 -0.976562 11.296875 0 Z M 7.265625 0 "/></g></g></g><g fill="#ffcf7e" fill-opacity="1"><g transform="translate(548.656507, 68.950424)"><g/></g></g><g fill="#ffcf7e" fill-opacity="1"><g transform="translate(554.795624, 68.950424)"><g><path d="M 9.578125 -5.796875 C 9.578125 -1.929688 7.726562 0 4.03125 0 L 2.328125 0 L 2.328125 -4.1875 L 3.46875 -4.1875 C 4.34375 -4.1875 4.9375 -4.46875 5.25 -5.03125 C 5.476562 -5.425781 5.59375 -6.113281 5.59375 -7.09375 L 5.59375 -11.1875 C 5.59375 -11.632812 5.367188 -11.859375 4.921875 -11.859375 L 0.6875 -11.859375 L 0.6875 -18.03125 L 4.625 -18.03125 L 4.625 -16.046875 L 7.578125 -16.046875 C 8.910156 -16.046875 9.578125 -15.398438 9.578125 -14.109375 Z M 9.578125 -5.796875 "/></g></g></g><g fill="#ffcf7e" fill-opacity="1"><g transform="translate(565.068132, 68.950424)"><g><path d="M 10.625 -4.234375 C 10.625 -1.410156 9.46875 0 7.15625 0 L 0.421875 0 L 0.421875 -4.1875 L 1.375 -4.1875 L 1.375 -16.046875 L 5.28125 -16.046875 L 5.28125 -4.1875 L 6.078125 -4.1875 C 6.523438 -4.1875 6.75 -4.5 6.75 -5.125 L 6.75 -16.046875 L 10.625 -16.046875 Z M 10.625 -4.234375 "/></g></g></g><g fill="#ffcf7e" fill-opacity="1"><g transform="translate(576.38416, 68.950424)"><g/></g></g><g fill="#ffcf7e" fill-opacity="1"><g transform="translate(582.523277, 68.950424)"><g><path d="M 10.734375 0 L 0.6875 0 L 0.6875 -13.234375 C 0.6875 -14.242188 0.851562 -14.945312 1.1875 -15.34375 C 1.570312 -15.8125 2.25 -16.046875 3.21875 -16.046875 L 8.015625 -16.046875 C 9.828125 -16.046875 10.734375 -15.109375 10.734375 -13.234375 Z M 6.8125 -11.09375 C 6.8125 -11.601562 6.582031 -11.859375 6.125 -11.859375 L 5.359375 -11.859375 C 4.898438 -11.859375 4.671875 -11.601562 4.671875 -11.09375 L 4.671875 -4.1875 L 6.8125 -4.1875 Z M 6.8125 -11.09375 "/></g></g></g><g fill="#ffcf7e" fill-opacity="1"><g transform="translate(593.947733, 68.950424)"><g><path d="M 4.546875 -8.921875 L 0.65625 -8.921875 L 0.65625 -16.046875 L 4.546875 -16.046875 Z M 4.546875 -8.921875 "/></g></g></g><g fill="#ffcf7e" fill-opacity="1"><g transform="translate(599.19241, 68.950424)"><g><path d="M 4.609375 0 L 0.6875 0 L 0.6875 -16.046875 L 4.609375 -16.046875 Z M 4.609375 0 "/></g></g></g><g fill="#ffcf7e" fill-opacity="1"><g transform="translate(604.491295, 68.950424)"><g><path d="M 10.9375 -4.8125 C 10.9375 -3.238281 10.492188 -1.984375 9.609375 -1.046875 C 8.691406 -0.078125 7.457031 0.40625 5.90625 0.40625 C 4.3125 0.40625 3.039062 -0.0625 2.09375 -1 C 1.15625 -1.9375 0.6875 -3.207031 0.6875 -4.8125 L 0.6875 -13.484375 C 0.6875 -13.941406 0.734375 -14.332031 0.828125 -14.65625 C 0.921875 -14.988281 1.066406 -15.253906 1.265625 -15.453125 C 1.460938 -15.660156 1.71875 -15.8125 2.03125 -15.90625 C 2.351562 -16 2.75 -16.046875 3.21875 -16.046875 L 8.390625 -16.046875 C 10.085938 -16.046875 10.9375 -15.191406 10.9375 -13.484375 Z M 6.984375 -11.53125 C 6.984375 -11.75 6.890625 -11.859375 6.703125 -11.859375 L 4.890625 -11.859375 C 4.710938 -11.859375 4.625 -11.75 4.625 -11.53125 L 4.625 -5.25 C 4.625 -4.257812 5.035156 -3.765625 5.859375 -3.765625 C 6.609375 -3.765625 6.984375 -4.257812 6.984375 -5.25 Z M 6.984375 -11.53125 "/></g></g></g><g fill="#ffcf7e" fill-opacity="1"><g transform="translate(616.119027, 68.950424)"><g><path d="M 11.34375 -2.890625 C 11.34375 -0.960938 10.46875 0 8.71875 0 L 5.96875 0 L 5.96875 -4.203125 L 6.78125 -4.203125 C 7.1875 -4.203125 7.390625 -4.445312 7.390625 -4.9375 L 7.390625 -11.046875 C 7.390625 -11.535156 7.269531 -11.78125 7.03125 -11.78125 C 6.789062 -11.78125 6.625 -11.503906 6.53125 -10.953125 L 4.5625 0 L 0.6875 0 L 2.34375 -8.953125 L 1.578125 -8.953125 C 0.960938 -8.953125 0.65625 -9.25 0.65625 -9.84375 L 0.65625 -16.046875 L 4.59375 -16.046875 L 4.59375 -10.375 L 5.375 -13.484375 C 5.8125 -15.191406 6.75 -16.046875 8.1875 -16.046875 L 8.390625 -16.046875 C 10.359375 -16.046875 11.34375 -14.84375 11.34375 -12.4375 Z M 11.34375 -2.890625 "/></g></g></g><g fill="#ffcf7e" fill-opacity="1"><g transform="translate(628.153312, 68.950424)"><g/></g></g><g fill="#ffcf7e" fill-opacity="1"><g transform="translate(634.292418, 68.950424)"><g><path d="M 10.453125 0 L 6.53125 0 L 6.53125 -11.09375 C 6.53125 -11.601562 6.300781 -11.859375 5.84375 -11.859375 L 5.359375 -11.859375 C 4.898438 -11.859375 4.671875 -11.601562 4.671875 -11.09375 L 4.671875 0 L 0.6875 0 L 0.6875 -13.234375 C 0.6875 -14.242188 0.851562 -14.945312 1.1875 -15.34375 C 1.570312 -15.8125 2.25 -16.046875 3.21875 -16.046875 L 7.75 -16.046875 C 9.550781 -16.046875 10.453125 -15.109375 10.453125 -13.234375 Z M 10.453125 0 "/></g></g></g><g fill="#ffcf7e" fill-opacity="1"><g transform="translate(645.44582, 68.950424)"><g><path d="M 10.84375 -3.09375 C 10.84375 -1.03125 9.992188 0 8.296875 0 L 3.234375 0 C 2.378906 0 1.726562 -0.3125 1.28125 -0.9375 C 0.882812 -1.5 0.6875 -2.21875 0.6875 -3.09375 L 0.6875 -16.046875 L 4.59375 -16.046875 L 4.59375 -10.984375 L 5.359375 -13.71875 C 5.796875 -15.269531 6.585938 -16.046875 7.734375 -16.046875 L 8.53125 -16.046875 C 10.070312 -16.046875 10.84375 -15.207031 10.84375 -13.53125 Z M 6.953125 -11.484375 C 6.953125 -11.660156 6.914062 -11.75 6.84375 -11.75 C 6.789062 -11.75 6.742188 -11.675781 6.703125 -11.53125 L 6.140625 -9.40625 L 4.59375 -9.40625 L 4.59375 -4.921875 C 4.59375 -4.429688 4.789062 -4.1875 5.1875 -4.1875 L 6.34375 -4.1875 C 6.75 -4.1875 6.953125 -4.429688 6.953125 -4.921875 Z M 6.953125 -11.484375 "/></g></g></g><g fill="#ffcf7e" fill-opacity="1"><g transform="translate(656.978681, 68.950424)"><g><path d="M 4.46875 -11.484375 L 5.078125 -11.484375 C 5.523438 -11.484375 5.75 -11.722656 5.75 -12.203125 L 5.75 -16.046875 L 9.359375 -16.046875 L 9.359375 -11.546875 C 9.359375 -9.671875 8.550781 -8.734375 6.9375 -8.734375 L 4.46875 -8.734375 L 4.46875 -4.921875 C 4.46875 -4.429688 4.671875 -4.1875 5.078125 -4.1875 L 10.03125 -4.1875 C 10.425781 -4.1875 10.625 -4.429688 10.625 -4.921875 L 10.625 -16.046875 L 14.421875 -16.046875 L 14.421875 -3.640625 C 14.421875 -2.535156 14.132812 -1.660156 13.5625 -1.015625 C 12.96875 -0.335938 12.125 0 11.03125 0 L 4.078125 0 C 1.816406 0 0.6875 -1.210938 0.6875 -3.640625 L 0.6875 -16.046875 L 4.46875 -16.046875 Z M 4.46875 -11.484375 "/></g></g></g><g fill="#ffcf7e" fill-opacity="1"><g transform="translate(672.089303, 68.950424)"><g><path d="M 9.84375 0 L 0.6875 0 L 0.6875 -4.1875 L 3.734375 -4.1875 C 4.628906 -4.1875 5.078125 -4.710938 5.078125 -5.765625 L 5.078125 -10.578125 C 5.078125 -11.046875 4.992188 -11.375 4.828125 -11.5625 C 4.671875 -11.757812 4.363281 -11.859375 3.90625 -11.859375 L 0.6875 -11.859375 L 0.6875 -16.046875 L 5.96875 -16.046875 C 8.03125 -16.046875 9.0625 -14.820312 9.0625 -12.375 L 9.0625 -6.890625 C 9.0625 -5.460938 8.535156 -4.5625 7.484375 -4.1875 L 9.84375 -4.1875 Z M 9.84375 0 "/></g></g></g><g fill="#ffcf7e" fill-opacity="1"><g transform="translate(206.585226, 74.353443)"><g><path d="M 7.71875 0 L 4.71875 0 L 4.71875 -8.390625 C 4.71875 -8.722656 4.550781 -8.890625 4.21875 -8.890625 L 0.515625 -8.890625 L 0.515625 -12.03125 L 5.59375 -12.03125 C 6.21875 -12.03125 6.726562 -11.832031 7.125 -11.4375 C 7.519531 -11.039062 7.71875 -10.523438 7.71875 -9.890625 Z M 3.453125 0 L 0.53125 0 L 0.53125 -7.453125 L 3.453125 -7.453125 Z M 3.453125 0 "/></g></g><g transform="translate(214.819289, 74.353443)"><g><path d="M 6.4375 0 L 3.46875 0 L 3.46875 -8.390625 C 3.46875 -8.722656 3.296875 -8.890625 2.953125 -8.890625 L 0.3125 -8.890625 L 0.3125 -12.03125 L 4.3125 -12.03125 C 4.9375 -12.03125 5.453125 -11.832031 5.859375 -11.4375 C 6.242188 -11.039062 6.4375 -10.523438 6.4375 -9.890625 Z M 6.4375 0 "/></g></g><g transform="translate(221.782663, 74.353443)"><g><path d="M 8.125 -2.3125 C 8.125 -0.769531 7.488281 0 6.21875 0 L 2.421875 0 C 1.785156 0 1.300781 -0.234375 0.96875 -0.703125 C 0.664062 -1.117188 0.515625 -1.65625 0.515625 -2.3125 L 0.515625 -12.03125 L 3.4375 -12.03125 L 3.4375 -8.234375 L 4.03125 -10.296875 C 4.351562 -11.453125 4.941406 -12.03125 5.796875 -12.03125 L 6.40625 -12.03125 C 7.550781 -12.03125 8.125 -11.40625 8.125 -10.15625 Z M 5.21875 -8.625 C 5.21875 -8.75 5.1875 -8.8125 5.125 -8.8125 C 5.09375 -8.8125 5.0625 -8.753906 5.03125 -8.640625 L 4.609375 -7.046875 L 3.4375 -7.046875 L 3.4375 -3.6875 C 3.4375 -3.320312 3.585938 -3.140625 3.890625 -3.140625 L 4.75 -3.140625 C 5.0625 -3.140625 5.21875 -3.320312 5.21875 -3.6875 Z M 5.21875 -8.625 "/></g></g><g transform="translate(230.433512, 74.353443)"><g><path d="M 3.359375 -8.625 L 3.8125 -8.625 C 4.144531 -8.625 4.3125 -8.800781 4.3125 -9.15625 L 4.3125 -12.03125 L 7.015625 -12.03125 L 7.015625 -8.65625 C 7.015625 -7.257812 6.410156 -6.5625 5.203125 -6.5625 L 3.359375 -6.5625 L 3.359375 -3.6875 C 3.359375 -3.320312 3.507812 -3.140625 3.8125 -3.140625 L 7.515625 -3.140625 C 7.816406 -3.140625 7.96875 -3.320312 7.96875 -3.6875 L 7.96875 -12.03125 L 10.8125 -12.03125 L 10.8125 -2.734375 C 10.8125 -1.910156 10.597656 -1.253906 10.171875 -0.765625 C 9.722656 -0.253906 9.085938 0 8.265625 0 L 3.0625 0 C 1.363281 0 0.515625 -0.910156 0.515625 -2.734375 L 0.515625 -12.03125 L 3.359375 -12.03125 Z M 3.359375 -8.625 "/></g></g><g transform="translate(241.768055, 74.353443)"><g><path d="M 8.5 -2.171875 C 8.5 -0.722656 7.847656 0 6.546875 0 L 4.46875 0 L 4.46875 -3.15625 L 5.09375 -3.15625 C 5.394531 -3.15625 5.546875 -3.335938 5.546875 -3.703125 L 5.546875 -8.28125 C 5.546875 -8.644531 5.457031 -8.828125 5.28125 -8.828125 C 5.09375 -8.828125 4.960938 -8.625 4.890625 -8.21875 L 3.421875 0 L 0.515625 0 L 1.765625 -6.71875 L 1.171875 -6.71875 C 0.722656 -6.71875 0.5 -6.941406 0.5 -7.390625 L 0.5 -12.03125 L 3.4375 -12.03125 L 3.4375 -7.78125 L 4.03125 -10.109375 C 4.351562 -11.390625 5.054688 -12.03125 6.140625 -12.03125 L 6.296875 -12.03125 C 7.765625 -12.03125 8.5 -11.128906 8.5 -9.328125 Z M 8.5 -2.171875 "/></g></g><g transform="translate(250.795028, 74.353443)"><g><path d="M 7.71875 0 L 4.71875 0 L 4.71875 -8.390625 C 4.71875 -8.722656 4.550781 -8.890625 4.21875 -8.890625 L 0.515625 -8.890625 L 0.515625 -12.03125 L 5.59375 -12.03125 C 6.21875 -12.03125 6.726562 -11.832031 7.125 -11.4375 C 7.519531 -11.039062 7.71875 -10.523438 7.71875 -9.890625 Z M 3.453125 0 L 0.53125 0 L 0.53125 -7.453125 L 3.453125 -7.453125 Z M 3.453125 0 "/></g></g><g transform="translate(259.029091, 74.353443)"><g/></g><g transform="translate(263.634067, 74.353443)"><g><path d="M 8.328125 0 L 5.390625 0 L 5.390625 -8.328125 C 5.390625 -8.703125 5.21875 -8.890625 4.875 -8.890625 L 4.46875 -8.890625 C 4.113281 -8.890625 3.9375 -8.703125 3.9375 -8.328125 L 3.9375 -1.4375 C 3.9375 -0.476562 3.535156 0 2.734375 0 L 0.203125 0 L 0.203125 -3.140625 L 0.71875 -3.140625 C 0.882812 -3.140625 0.96875 -3.210938 0.96875 -3.359375 L 0.96875 -9.71875 C 0.96875 -10.539062 1.125 -11.132812 1.4375 -11.5 C 1.757812 -11.851562 2.320312 -12.03125 3.125 -12.03125 L 6.296875 -12.03125 C 7.648438 -12.03125 8.328125 -11.257812 8.328125 -9.71875 Z M 8.328125 0 "/></g></g><g transform="translate(272.488226, 74.353443)"><g><path d="M 6.875 -8.890625 C 6.207031 -8.890625 5.875 -8.566406 5.875 -7.921875 L 5.875 0 L 2.890625 0 L 2.890625 -7.078125 C 2.890625 -8.003906 3.28125 -8.609375 4.0625 -8.890625 L 0.3125 -8.890625 L 0.3125 -12.03125 L 6.875 -12.03125 Z M 6.875 -8.890625 "/></g></g><g transform="translate(279.878552, 74.353443)"><g><path d="M 3.453125 0 L 0.515625 0 L 0.515625 -12.03125 L 3.453125 -12.03125 Z M 3.453125 0 "/></g></g><g transform="translate(283.853266, 74.353443)"><g><path d="M 7.796875 -3.71875 C 7.796875 -2.488281 7.59375 -1.582031 7.1875 -1 C 6.707031 -0.3125 5.878906 0.03125 4.703125 0.03125 C 4.492188 0.03125 4.273438 0.0195312 4.046875 0 L 4.046875 -3.140625 C 4.554688 -3.140625 4.8125 -3.519531 4.8125 -4.28125 L 4.8125 -8.390625 C 4.8125 -8.722656 4.640625 -8.890625 4.296875 -8.890625 L 0.515625 -8.890625 L 0.515625 -12.03125 L 6.296875 -12.03125 C 7.296875 -12.03125 7.796875 -11.546875 7.796875 -10.578125 Z M 3.46875 1.734375 L 0.53125 1.734375 L 0.53125 -7.578125 L 3.46875 -7.578125 Z M 3.46875 1.734375 "/></g></g><g transform="translate(292.178818, 74.353443)"><g><path d="M 7.6875 -2.34375 C 7.6875 -0.78125 6.929688 0 5.421875 0 L 0.53125 0 L 0.53125 -3.140625 L 4.171875 -3.140625 C 4.578125 -3.140625 4.78125 -3.375 4.78125 -3.84375 L 4.78125 -8.390625 C 4.78125 -8.722656 4.625 -8.890625 4.3125 -8.890625 L 3.90625 -8.890625 C 3.632812 -8.890625 3.5 -8.71875 3.5 -8.375 L 3.5 -6.609375 L 0.515625 -6.609375 L 0.515625 -9.890625 C 0.515625 -11.316406 1.203125 -12.03125 2.578125 -12.03125 L 5.578125 -12.03125 C 6.210938 -12.03125 6.722656 -11.832031 7.109375 -11.4375 C 7.492188 -11.039062 7.6875 -10.523438 7.6875 -9.890625 Z M 7.6875 -2.34375 "/></g></g><g transform="translate(300.402716, 74.353443)"><g><path d="M 7.1875 -4.34375 C 7.1875 -1.445312 5.796875 0 3.015625 0 L 1.75 0 L 1.75 -3.140625 L 2.609375 -3.140625 C 3.265625 -3.140625 3.707031 -3.347656 3.9375 -3.765625 C 4.113281 -4.066406 4.203125 -4.585938 4.203125 -5.328125 L 4.203125 -8.390625 C 4.203125 -8.722656 4.03125 -8.890625 3.6875 -8.890625 L 0.515625 -8.890625 L 0.515625 -13.53125 L 3.46875 -13.53125 L 3.46875 -12.03125 L 5.6875 -12.03125 C 6.6875 -12.03125 7.1875 -11.546875 7.1875 -10.578125 Z M 7.1875 -4.34375 "/></g></g><g transform="translate(308.108172, 74.353443)"><g/></g><g transform="translate(312.713148, 74.353443)"><g><path d="M 7.390625 0 L 0.515625 0 L 0.515625 -3.140625 L 2.8125 -3.140625 C 3.476562 -3.140625 3.8125 -3.535156 3.8125 -4.328125 L 3.8125 -7.9375 C 3.8125 -8.289062 3.75 -8.535156 3.625 -8.671875 C 3.5 -8.816406 3.265625 -8.890625 2.921875 -8.890625 L 0.515625 -8.890625 L 0.515625 -12.03125 L 4.46875 -12.03125 C 6.019531 -12.03125 6.796875 -11.113281 6.796875 -9.28125 L 6.796875 -5.15625 C 6.796875 -4.09375 6.398438 -3.421875 5.609375 -3.140625 L 7.390625 -3.140625 Z M 7.390625 0 "/></g></g></g><g fill="#ffcf7e" fill-opacity="1"><g transform="translate(320.52026, 74.353443)"><g><path d="M 7.515625 -2.3125 C 7.515625 -0.769531 6.8125 0 5.40625 0 L 1.03125 0 L 1.03125 -3.140625 L 4.578125 -3.140625 L 4.578125 -4.5625 L 2.71875 -4.5625 C 1.320312 -4.5625 0.625 -5.332031 0.625 -6.875 L 0.625 -9.71875 C 0.625 -11.257812 1.398438 -12.03125 2.953125 -12.03125 L 5.1875 -12.03125 C 5.882812 -12.03125 6.445312 -11.820312 6.875 -11.40625 C 7.300781 -10.976562 7.515625 -10.414062 7.515625 -9.71875 Z M 4.578125 -7.28125 L 4.578125 -8.875 L 3.5625 -8.875 L 3.5625 -7.28125 Z M 4.578125 -7.28125 "/></g></g><g transform="translate(328.642502, 74.353443)"><g><path d="M 7.59375 -2.3125 C 7.59375 -1.570312 7.382812 -1 6.96875 -0.59375 C 6.5625 -0.195312 5.992188 0 5.265625 0 L 2.875 0 C 2.238281 0 1.691406 -0.226562 1.234375 -0.6875 C 0.765625 -1.144531 0.53125 -1.6875 0.53125 -2.3125 L 0.53125 -9.71875 C 0.53125 -10.457031 0.734375 -11.023438 1.140625 -11.421875 C 1.554688 -11.828125 2.132812 -12.03125 2.875 -12.03125 L 5.265625 -12.03125 C 5.992188 -12.03125 6.5625 -11.828125 6.96875 -11.421875 C 7.382812 -11.015625 7.59375 -10.445312 7.59375 -9.71875 Z M 4.640625 -3.140625 L 4.640625 -8.875 L 3.46875 -8.875 L 3.46875 -3.140625 Z M 4.640625 -3.140625 "/></g></g></g><g fill="#ffcf7e" fill-opacity="1"><g transform="translate(336.773461, 74.353443)"><g/></g><g transform="translate(341.378437, 74.353443)"><g><path d="M 7.6875 1.703125 L 4.75 1.703125 L 4.75 -8.390625 C 4.75 -8.722656 4.585938 -8.890625 4.265625 -8.890625 L 3.90625 -8.890625 C 3.632812 -8.890625 3.5 -8.71875 3.5 -8.375 L 3.5 -6.609375 L 0.515625 -6.609375 L 0.515625 -9.890625 C 0.515625 -11.316406 1.269531 -12.03125 2.78125 -12.03125 L 5.359375 -12.03125 C 6.003906 -12.03125 6.546875 -11.835938 6.984375 -11.453125 C 7.453125 -11.046875 7.6875 -10.523438 7.6875 -9.890625 Z M 7.6875 1.703125 "/></g></g><g transform="translate(349.582004, 74.353443)"><g><path d="M 3.421875 -6.703125 L 0.5 -6.703125 L 0.5 -12.03125 L 3.421875 -12.03125 Z M 3.421875 -6.703125 "/></g></g><g transform="translate(353.516056, 74.353443)"><g><path d="M 7.96875 -3.171875 C 7.96875 -1.054688 7.097656 0 5.359375 0 L 0.3125 0 L 0.3125 -3.140625 L 1.03125 -3.140625 L 1.03125 -12.03125 L 3.96875 -12.03125 L 3.96875 -3.140625 L 4.546875 -3.140625 C 4.890625 -3.140625 5.0625 -3.375 5.0625 -3.84375 L 5.0625 -12.03125 L 7.96875 -12.03125 Z M 7.96875 -3.171875 "/></g></g><g transform="translate(362.004257, 74.353443)"><g><path d="M 8.203125 -3.609375 C 8.203125 -2.429688 7.867188 -1.488281 7.203125 -0.78125 C 6.515625 -0.0507812 5.59375 0.3125 4.4375 0.3125 C 3.226562 0.3125 2.273438 -0.0390625 1.578125 -0.75 C 0.867188 -1.457031 0.515625 -2.410156 0.515625 -3.609375 L 0.515625 -10.109375 C 0.515625 -10.453125 0.546875 -10.742188 0.609375 -10.984375 C 0.679688 -11.234375 0.789062 -11.429688 0.9375 -11.578125 C 1.09375 -11.734375 1.289062 -11.847656 1.53125 -11.921875 C 1.769531 -11.992188 2.0625 -12.03125 2.40625 -12.03125 L 6.296875 -12.03125 C 7.566406 -12.03125 8.203125 -11.390625 8.203125 -10.109375 Z M 5.234375 -8.640625 C 5.234375 -8.804688 5.164062 -8.890625 5.03125 -8.890625 L 3.671875 -8.890625 C 3.535156 -8.890625 3.46875 -8.804688 3.46875 -8.640625 L 3.46875 -3.9375 C 3.46875 -3.195312 3.773438 -2.828125 4.390625 -2.828125 C 4.953125 -2.828125 5.234375 -3.195312 5.234375 -3.9375 Z M 5.234375 -8.640625 "/></g></g></g></svg>