<svg xmlns="http://www.w3.org/2000/svg" xmlns:xlink="http://www.w3.org/1999/xlink" width="949" zoomAndPan="magnify" viewBox="0 0 711.75 144.749998" height="193" preserveAspectRatio="xMidYMid meet" version="1.0"><defs><g/><clipPath id="6858e1c4c3"><path d="M 651 34 L 705 34 L 705 90 L 651 90 Z M 651 34 " clip-rule="nonzero"/></clipPath><clipPath id="df0f746ae7"><path d="M 657.261719 25.152344 L 710.660156 42.519531 L 694.21875 93.070312 L 640.820312 75.703125 Z M 657.261719 25.152344 " clip-rule="nonzero"/></clipPath><clipPath id="64d0ef3ac8"><path d="M 657.261719 25.152344 L 710.660156 42.519531 L 694.21875 93.070312 L 640.820312 75.703125 Z M 657.261719 25.152344 " clip-rule="nonzero"/></clipPath><clipPath id="bb338c102d"><path d="M 650 33 L 705 33 L 705 90 L 650 90 Z M 650 33 " clip-rule="nonzero"/></clipPath><clipPath id="dcf2a4eb74"><path d="M 657.261719 25.152344 L 710.660156 42.519531 L 694.21875 93.070312 L 640.820312 75.703125 Z M 657.261719 25.152344 " clip-rule="nonzero"/></clipPath><clipPath id="5ca87ecaec"><path d="M 657.261719 25.152344 L 710.660156 42.519531 L 694.21875 93.070312 L 640.820312 75.703125 Z M 657.261719 25.152344 " clip-rule="nonzero"/></clipPath><clipPath id="42b13f064f"><path d="M 42 35 L 112 35 L 112 105 L 42 105 Z M 42 35 " clip-rule="nonzero"/></clipPath><clipPath id="92babd0adc"><path d="M 31.867188 45.816406 L 101.472656 25.085938 L 122.199219 94.691406 L 52.59375 115.417969 Z M 31.867188 45.816406 " clip-rule="nonzero"/></clipPath><clipPath id="3734de882f"><path d="M 31.867188 45.816406 L 101.472656 25.085938 L 122.199219 94.691406 L 52.59375 115.417969 Z M 31.867188 45.816406 " clip-rule="nonzero"/></clipPath><clipPath id="4aa7ea6087"><path d="M 5 71 L 29 71 L 29 95 L 5 95 Z M 5 71 " clip-rule="nonzero"/></clipPath><clipPath id="af3dea89c0"><path d="M 0.488281 77.707031 L 20.234375 65.507812 L 32.042969 84.613281 L 12.296875 96.816406 Z M 0.488281 77.707031 " clip-rule="nonzero"/></clipPath><clipPath id="6445c71f83"><path d="M 0.488281 77.707031 L 20.234375 65.507812 L 32.042969 84.613281 L 12.296875 96.816406 Z M 0.488281 77.707031 " clip-rule="nonzero"/></clipPath><clipPath id="98d202e102"><path d="M 4 71 L 29 71 L 29 95 L 4 95 Z M 4 71 " clip-rule="nonzero"/></clipPath><clipPath id="d4b5e811ac"><path d="M 0.488281 77.707031 L 20.234375 65.507812 L 32.042969 84.613281 L 12.296875 96.816406 Z M 0.488281 77.707031 " clip-rule="nonzero"/></clipPath><clipPath id="0267a724f0"><path d="M 0.488281 77.707031 L 20.234375 65.507812 L 32.042969 84.613281 L 12.296875 96.816406 Z M 0.488281 77.707031 " clip-rule="nonzero"/></clipPath></defs><g fill="#f8f6e9" fill-opacity="0.4"><g transform="translate(124.695172, 99.51717)"><g><path d="M 18.015625 -22.46875 C 18.015625 -21.300781 17.539062 -20.71875 16.59375 -20.71875 L 7.984375 -20.71875 C 6.953125 -20.71875 6.4375 -21.300781 6.4375 -22.46875 L 6.4375 -33.625 C 6.4375 -34.226562 6.132812 -34.53125 5.53125 -34.53125 L 4.84375 -34.53125 C 3.925781 -34.53125 3.425781 -35.113281 3.34375 -36.28125 L 2.4375 -50.140625 L 2.4375 -50.3125 C 2.4375 -51.488281 3 -52.078125 4.125 -52.078125 L 16.25 -52.078125 C 17.425781 -52.078125 18.015625 -51.429688 18.015625 -50.140625 Z M 18.015625 -22.46875 "/></g></g></g><g fill="#f8f6e9" fill-opacity="0.4"><g transform="translate(145.455268, 99.51717)"><g><path d="M 36.203125 -1.421875 C 36.203125 -0.472656 35.785156 0 34.953125 0 L 26.421875 0 C 25.472656 0 24.957031 -0.613281 24.875 -1.84375 L 22.640625 -33.71875 C 22.585938 -34.195312 22.273438 -34.4375 21.703125 -34.4375 L 16.859375 -34.4375 C 16.429688 -34.4375 16.203125 -34.164062 16.171875 -33.625 L 13.8125 -1.84375 C 13.726562 -0.613281 13.171875 0 12.140625 0 L 3.859375 0 C 2.910156 0 2.4375 -0.570312 2.4375 -1.71875 L 2.4375 -1.84375 L 5.53125 -50.140625 C 5.613281 -51.429688 6.226562 -52.078125 7.375 -52.078125 L 31.609375 -52.078125 C 32.753906 -52.078125 33.367188 -51.429688 33.453125 -50.140625 L 36.203125 -1.84375 Z M 36.203125 -1.421875 "/></g></g></g><g fill="#f8f6e9" fill-opacity="0.4"><g transform="translate(184.144536, 99.51717)"><g><path d="M 28.828125 -1.765625 C 28.828125 -0.585938 28.351562 0 27.40625 0 L 18.78125 0 C 17.664062 0 17.109375 -0.585938 17.109375 -1.765625 L 17.109375 -33.625 C 17.109375 -34.226562 16.796875 -34.53125 16.171875 -34.53125 L 4.375 -34.53125 C 3.175781 -34.53125 2.5625 -35.085938 2.53125 -36.203125 L 1.671875 -50.140625 L 1.671875 -50.265625 C 1.671875 -51.472656 2.226562 -52.078125 3.34375 -52.078125 L 27.0625 -52.078125 C 28.238281 -52.078125 28.828125 -51.429688 28.828125 -50.140625 Z M 28.828125 -1.765625 "/></g></g></g><g fill="#f8f6e9" fill-opacity="0.4"><g transform="translate(216.485677, 99.51717)"><g><path d="M 23.125 -50.140625 L 22.296875 -36.203125 C 22.242188 -35.085938 21.6875 -34.53125 20.625 -34.53125 L 18.1875 -34.53125 L 18.1875 -1.765625 C 18.1875 -0.585938 17.742188 0 16.859375 0 L 8.15625 0 C 7.125 0 6.609375 -0.613281 6.609375 -1.84375 L 6.609375 -34.53125 L 4.203125 -34.53125 C 3.054688 -34.53125 2.46875 -35.085938 2.4375 -36.203125 L 1.671875 -50.140625 L 1.671875 -50.265625 C 1.671875 -51.472656 2.203125 -52.078125 3.265625 -52.078125 L 21.453125 -52.078125 C 22.566406 -52.078125 23.125 -51.503906 23.125 -50.359375 Z M 23.125 -50.140625 "/></g></g></g><g fill="#f8f6e9" fill-opacity="0.4"><g transform="translate(241.277691, 99.51717)"><g><path d="M 36.59375 -50.953125 C 36.59375 -50.722656 36.578125 -50.550781 36.546875 -50.4375 L 30.578125 -15.828125 L 36.28125 -1.328125 C 36.34375 -1.160156 36.375 -1.019531 36.375 -0.90625 C 36.375 -0.300781 35.929688 0 35.046875 0 L 23.03125 0 C 22.207031 0 21.625 -0.414062 21.28125 -1.25 L 15.1875 -16.515625 L 13.078125 -1.5 C 12.941406 -0.5 12.382812 0 11.40625 0 L 2.53125 0 C 1.757812 0 1.375 -0.359375 1.375 -1.078125 C 1.375 -1.210938 1.390625 -1.328125 1.421875 -1.421875 L 7.203125 -36.03125 L 1.765625 -50.609375 C 1.648438 -50.867188 1.59375 -51.113281 1.59375 -51.34375 C 1.59375 -51.832031 1.847656 -52.078125 2.359375 -52.078125 L 14.40625 -52.078125 C 15.175781 -52.078125 15.734375 -51.617188 16.078125 -50.703125 L 22.046875 -35.390625 L 24.578125 -50.703125 C 24.722656 -51.617188 25.222656 -52.078125 26.078125 -52.078125 L 35.46875 -52.078125 C 36.21875 -52.078125 36.59375 -51.703125 36.59375 -50.953125 Z M 36.59375 -50.953125 "/></g></g></g><g fill="#f8f6e9" fill-opacity="0.4"><g transform="translate(279.323574, 99.51717)"><g/></g></g><g fill="#f8f6e9" fill-opacity="0.4"><g transform="translate(298.754, 99.51717)"><g><path d="M 37.78125 -1.671875 C 37.78125 -0.554688 37.222656 0 36.109375 0 L 4.125 0 C 3 0 2.4375 -0.570312 2.4375 -1.71875 L 2.4375 -1.84375 L 5.453125 -50.140625 C 5.535156 -51.429688 6.148438 -52.078125 7.296875 -52.078125 L 33.03125 -52.078125 C 34.175781 -52.078125 34.789062 -51.429688 34.875 -50.140625 L 37.78125 -1.84375 Z M 25.390625 -18.359375 L 24.15625 -33.921875 C 24.09375 -34.265625 23.921875 -34.4375 23.640625 -34.4375 L 16.515625 -34.4375 C 16.085938 -34.4375 15.859375 -34.265625 15.828125 -33.921875 L 14.921875 -18.359375 L 14.921875 -18.3125 C 14.921875 -17.820312 15.191406 -17.578125 15.734375 -17.578125 L 24.578125 -17.578125 C 25.117188 -17.578125 25.390625 -17.796875 25.390625 -18.234375 Z M 25.390625 -18.359375 "/></g></g></g><g fill="#f8f6e9" fill-opacity="0.4"><g transform="translate(338.98742, 99.51717)"><g><path d="M 17.203125 -1.765625 C 17.203125 -0.585938 16.769531 0 15.90625 0 L 7.203125 0 C 6.148438 0 5.625 -0.585938 5.625 -1.765625 L 5.625 -33.71875 C 5.625 -34.257812 5.421875 -34.53125 5.015625 -34.53125 L 4.546875 -34.53125 C 3.828125 -34.53125 3.425781 -35.113281 3.34375 -36.28125 L 2.4375 -50.140625 L 2.4375 -50.265625 C 2.4375 -51.472656 3 -52.078125 4.125 -52.078125 L 15.4375 -52.078125 C 16.613281 -52.078125 17.203125 -51.429688 17.203125 -50.140625 Z M 17.203125 -1.765625 "/></g></g></g><g fill="#f8f6e9" fill-opacity="0.4"><g transform="translate(358.975434, 99.51717)"><g><path d="M 28.828125 -1.765625 C 28.828125 -0.585938 28.351562 0 27.40625 0 L 18.78125 0 C 17.664062 0 17.109375 -0.585938 17.109375 -1.765625 L 17.109375 -33.625 C 17.109375 -34.226562 16.796875 -34.53125 16.171875 -34.53125 L 4.375 -34.53125 C 3.175781 -34.53125 2.5625 -35.085938 2.53125 -36.203125 L 1.671875 -50.140625 L 1.671875 -50.265625 C 1.671875 -51.472656 2.226562 -52.078125 3.34375 -52.078125 L 27.0625 -52.078125 C 28.238281 -52.078125 28.828125 -51.429688 28.828125 -50.140625 Z M 28.828125 -1.765625 "/></g></g></g><g fill="#f8f6e9" fill-opacity="0.4"><g transform="translate(391.316563, 99.51717)"><g><path d="M 18.015625 -22.46875 C 18.015625 -21.300781 17.539062 -20.71875 16.59375 -20.71875 L 7.984375 -20.71875 C 6.953125 -20.71875 6.4375 -21.300781 6.4375 -22.46875 L 6.4375 -33.625 C 6.4375 -34.226562 6.132812 -34.53125 5.53125 -34.53125 L 4.84375 -34.53125 C 3.925781 -34.53125 3.425781 -35.113281 3.34375 -36.28125 L 2.4375 -50.140625 L 2.4375 -50.3125 C 2.4375 -51.488281 3 -52.078125 4.125 -52.078125 L 16.25 -52.078125 C 17.425781 -52.078125 18.015625 -51.429688 18.015625 -50.140625 Z M 18.015625 -22.46875 "/></g></g></g><g fill="#f8f6e9" fill-opacity="0.4"><g transform="translate(412.076659, 99.51717)"><g><path d="M 36.203125 -1.421875 C 36.203125 -0.472656 35.785156 0 34.953125 0 L 26.421875 0 C 25.472656 0 24.957031 -0.613281 24.875 -1.84375 L 22.640625 -33.71875 C 22.585938 -34.195312 22.273438 -34.4375 21.703125 -34.4375 L 16.859375 -34.4375 C 16.429688 -34.4375 16.203125 -34.164062 16.171875 -33.625 L 13.8125 -1.84375 C 13.726562 -0.613281 13.171875 0 12.140625 0 L 3.859375 0 C 2.910156 0 2.4375 -0.570312 2.4375 -1.71875 L 2.4375 -1.84375 L 5.53125 -50.140625 C 5.613281 -51.429688 6.226562 -52.078125 7.375 -52.078125 L 31.609375 -52.078125 C 32.753906 -52.078125 33.367188 -51.429688 33.453125 -50.140625 L 36.203125 -1.84375 Z M 36.203125 -1.421875 "/></g></g></g><g fill="#f8f6e9" fill-opacity="0.4"><g transform="translate(450.765917, 99.51717)"><g/></g></g><g fill="#f8f6e9" fill-opacity="0.4"><g transform="translate(470.196331, 99.51717)"><g><path d="M 34.78125 -50.140625 L 31.875 -1.84375 C 31.78125 -0.613281 31.164062 0 30.03125 0 L 3.6875 0 C 2.632812 0 2.109375 -0.570312 2.109375 -1.71875 L 2.109375 -1.84375 L 3.265625 -15.828125 C 3.347656 -16.992188 3.988281 -17.578125 5.1875 -17.578125 L 7.03125 -17.578125 L 4.203125 -50.140625 L 4.203125 -50.40625 C 4.203125 -51.457031 4.734375 -51.984375 5.796875 -51.984375 L 13.890625 -51.984375 C 15.066406 -51.984375 15.710938 -51.367188 15.828125 -50.140625 L 18.609375 -17.5 L 20.28125 -17.5 C 20.882812 -17.5 21.21875 -17.867188 21.28125 -18.609375 L 23.375 -50.140625 C 23.457031 -51.367188 24.070312 -51.984375 25.21875 -51.984375 L 33.109375 -51.984375 C 34.222656 -51.984375 34.78125 -51.441406 34.78125 -50.359375 Z M 34.78125 -50.140625 "/></g></g></g><g fill="#f8f6e9" fill-opacity="0.4"><g transform="translate(507.470133, 99.51717)"><g><path d="M 17.203125 -1.765625 C 17.203125 -0.585938 16.769531 0 15.90625 0 L 7.203125 0 C 6.148438 0 5.625 -0.585938 5.625 -1.765625 L 5.625 -33.71875 C 5.625 -34.257812 5.421875 -34.53125 5.015625 -34.53125 L 4.546875 -34.53125 C 3.828125 -34.53125 3.425781 -35.113281 3.34375 -36.28125 L 2.4375 -50.140625 L 2.4375 -50.265625 C 2.4375 -51.472656 3 -52.078125 4.125 -52.078125 L 15.4375 -52.078125 C 16.613281 -52.078125 17.203125 -51.429688 17.203125 -50.140625 Z M 17.203125 -1.765625 "/></g></g></g><g fill="#f8f6e9" fill-opacity="0.4"><g transform="translate(527.458147, 99.51717)"><g><path d="M 28.828125 -1.765625 C 28.828125 -0.585938 28.351562 0 27.40625 0 L 18.78125 0 C 17.664062 0 17.109375 -0.585938 17.109375 -1.765625 L 17.109375 -33.625 C 17.109375 -34.226562 16.796875 -34.53125 16.171875 -34.53125 L 4.375 -34.53125 C 3.175781 -34.53125 2.5625 -35.085938 2.53125 -36.203125 L 1.671875 -50.140625 L 1.671875 -50.265625 C 1.671875 -51.472656 2.226562 -52.078125 3.34375 -52.078125 L 27.0625 -52.078125 C 28.238281 -52.078125 28.828125 -51.429688 28.828125 -50.140625 Z M 28.828125 -1.765625 "/></g></g></g><g fill="#f8f6e9" fill-opacity="0.4"><g transform="translate(559.799276, 99.51717)"><g><path d="M 18.015625 -22.46875 C 18.015625 -21.300781 17.539062 -20.71875 16.59375 -20.71875 L 7.984375 -20.71875 C 6.953125 -20.71875 6.4375 -21.300781 6.4375 -22.46875 L 6.4375 -33.625 C 6.4375 -34.226562 6.132812 -34.53125 5.53125 -34.53125 L 4.84375 -34.53125 C 3.925781 -34.53125 3.425781 -35.113281 3.34375 -36.28125 L 2.4375 -50.140625 L 2.4375 -50.3125 C 2.4375 -51.488281 3 -52.078125 4.125 -52.078125 L 16.25 -52.078125 C 17.425781 -52.078125 18.015625 -51.429688 18.015625 -50.140625 Z M 18.015625 -22.46875 "/></g></g></g><g fill="#f8f6e9" fill-opacity="0.4"><g transform="translate(580.559395, 99.51717)"><g><path d="M 36.59375 -50.953125 C 36.59375 -50.722656 36.578125 -50.550781 36.546875 -50.4375 L 30.578125 -15.828125 L 36.28125 -1.328125 C 36.34375 -1.160156 36.375 -1.019531 36.375 -0.90625 C 36.375 -0.300781 35.929688 0 35.046875 0 L 23.03125 0 C 22.207031 0 21.625 -0.414062 21.28125 -1.25 L 15.1875 -16.515625 L 13.078125 -1.5 C 12.941406 -0.5 12.382812 0 11.40625 0 L 2.53125 0 C 1.757812 0 1.375 -0.359375 1.375 -1.078125 C 1.375 -1.210938 1.390625 -1.328125 1.421875 -1.421875 L 7.203125 -36.03125 L 1.765625 -50.609375 C 1.648438 -50.867188 1.59375 -51.113281 1.59375 -51.34375 C 1.59375 -51.832031 1.847656 -52.078125 2.359375 -52.078125 L 14.40625 -52.078125 C 15.175781 -52.078125 15.734375 -51.617188 16.078125 -50.703125 L 22.046875 -35.390625 L 24.578125 -50.703125 C 24.722656 -51.617188 25.222656 -52.078125 26.078125 -52.078125 L 35.46875 -52.078125 C 36.21875 -52.078125 36.59375 -51.703125 36.59375 -50.953125 Z M 36.59375 -50.953125 "/></g></g></g><g fill="#f8f6e9" fill-opacity="1"><g transform="translate(120.812805, 95.6348)"><g><path d="M 18.015625 -22.46875 C 18.015625 -21.300781 17.539062 -20.71875 16.59375 -20.71875 L 7.984375 -20.71875 C 6.953125 -20.71875 6.4375 -21.300781 6.4375 -22.46875 L 6.4375 -33.625 C 6.4375 -34.226562 6.132812 -34.53125 5.53125 -34.53125 L 4.84375 -34.53125 C 3.925781 -34.53125 3.425781 -35.113281 3.34375 -36.28125 L 2.4375 -50.140625 L 2.4375 -50.3125 C 2.4375 -51.488281 3 -52.078125 4.125 -52.078125 L 16.25 -52.078125 C 17.425781 -52.078125 18.015625 -51.429688 18.015625 -50.140625 Z M 18.015625 -22.46875 "/></g></g></g><g fill="#f8f6e9" fill-opacity="1"><g transform="translate(141.5729, 95.6348)"><g><path d="M 36.203125 -1.421875 C 36.203125 -0.472656 35.785156 0 34.953125 0 L 26.421875 0 C 25.472656 0 24.957031 -0.613281 24.875 -1.84375 L 22.640625 -33.71875 C 22.585938 -34.195312 22.273438 -34.4375 21.703125 -34.4375 L 16.859375 -34.4375 C 16.429688 -34.4375 16.203125 -34.164062 16.171875 -33.625 L 13.8125 -1.84375 C 13.726562 -0.613281 13.171875 0 12.140625 0 L 3.859375 0 C 2.910156 0 2.4375 -0.570312 2.4375 -1.71875 L 2.4375 -1.84375 L 5.53125 -50.140625 C 5.613281 -51.429688 6.226562 -52.078125 7.375 -52.078125 L 31.609375 -52.078125 C 32.753906 -52.078125 33.367188 -51.429688 33.453125 -50.140625 L 36.203125 -1.84375 Z M 36.203125 -1.421875 "/></g></g></g><g fill="#f8f6e9" fill-opacity="1"><g transform="translate(180.262169, 95.6348)"><g><path d="M 28.828125 -1.765625 C 28.828125 -0.585938 28.351562 0 27.40625 0 L 18.78125 0 C 17.664062 0 17.109375 -0.585938 17.109375 -1.765625 L 17.109375 -33.625 C 17.109375 -34.226562 16.796875 -34.53125 16.171875 -34.53125 L 4.375 -34.53125 C 3.175781 -34.53125 2.5625 -35.085938 2.53125 -36.203125 L 1.671875 -50.140625 L 1.671875 -50.265625 C 1.671875 -51.472656 2.226562 -52.078125 3.34375 -52.078125 L 27.0625 -52.078125 C 28.238281 -52.078125 28.828125 -51.429688 28.828125 -50.140625 Z M 28.828125 -1.765625 "/></g></g></g><g fill="#f8f6e9" fill-opacity="1"><g transform="translate(212.603309, 95.6348)"><g><path d="M 23.125 -50.140625 L 22.296875 -36.203125 C 22.242188 -35.085938 21.6875 -34.53125 20.625 -34.53125 L 18.1875 -34.53125 L 18.1875 -1.765625 C 18.1875 -0.585938 17.742188 0 16.859375 0 L 8.15625 0 C 7.125 0 6.609375 -0.613281 6.609375 -1.84375 L 6.609375 -34.53125 L 4.203125 -34.53125 C 3.054688 -34.53125 2.46875 -35.085938 2.4375 -36.203125 L 1.671875 -50.140625 L 1.671875 -50.265625 C 1.671875 -51.472656 2.203125 -52.078125 3.265625 -52.078125 L 21.453125 -52.078125 C 22.566406 -52.078125 23.125 -51.503906 23.125 -50.359375 Z M 23.125 -50.140625 "/></g></g></g><g fill="#f8f6e9" fill-opacity="1"><g transform="translate(237.395324, 95.6348)"><g><path d="M 36.59375 -50.953125 C 36.59375 -50.722656 36.578125 -50.550781 36.546875 -50.4375 L 30.578125 -15.828125 L 36.28125 -1.328125 C 36.34375 -1.160156 36.375 -1.019531 36.375 -0.90625 C 36.375 -0.300781 35.929688 0 35.046875 0 L 23.03125 0 C 22.207031 0 21.625 -0.414062 21.28125 -1.25 L 15.1875 -16.515625 L 13.078125 -1.5 C 12.941406 -0.5 12.382812 0 11.40625 0 L 2.53125 0 C 1.757812 0 1.375 -0.359375 1.375 -1.078125 C 1.375 -1.210938 1.390625 -1.328125 1.421875 -1.421875 L 7.203125 -36.03125 L 1.765625 -50.609375 C 1.648438 -50.867188 1.59375 -51.113281 1.59375 -51.34375 C 1.59375 -51.832031 1.847656 -52.078125 2.359375 -52.078125 L 14.40625 -52.078125 C 15.175781 -52.078125 15.734375 -51.617188 16.078125 -50.703125 L 22.046875 -35.390625 L 24.578125 -50.703125 C 24.722656 -51.617188 25.222656 -52.078125 26.078125 -52.078125 L 35.46875 -52.078125 C 36.21875 -52.078125 36.59375 -51.703125 36.59375 -50.953125 Z M 36.59375 -50.953125 "/></g></g></g><g fill="#f8f6e9" fill-opacity="1"><g transform="translate(275.441207, 95.6348)"><g/></g></g><g fill="#f8f6e9" fill-opacity="1"><g transform="translate(294.871633, 95.6348)"><g><path d="M 37.78125 -1.671875 C 37.78125 -0.554688 37.222656 0 36.109375 0 L 4.125 0 C 3 0 2.4375 -0.570312 2.4375 -1.71875 L 2.4375 -1.84375 L 5.453125 -50.140625 C 5.535156 -51.429688 6.148438 -52.078125 7.296875 -52.078125 L 33.03125 -52.078125 C 34.175781 -52.078125 34.789062 -51.429688 34.875 -50.140625 L 37.78125 -1.84375 Z M 25.390625 -18.359375 L 24.15625 -33.921875 C 24.09375 -34.265625 23.921875 -34.4375 23.640625 -34.4375 L 16.515625 -34.4375 C 16.085938 -34.4375 15.859375 -34.265625 15.828125 -33.921875 L 14.921875 -18.359375 L 14.921875 -18.3125 C 14.921875 -17.820312 15.191406 -17.578125 15.734375 -17.578125 L 24.578125 -17.578125 C 25.117188 -17.578125 25.390625 -17.796875 25.390625 -18.234375 Z M 25.390625 -18.359375 "/></g></g></g><g fill="#f8f6e9" fill-opacity="1"><g transform="translate(335.105053, 95.6348)"><g><path d="M 17.203125 -1.765625 C 17.203125 -0.585938 16.769531 0 15.90625 0 L 7.203125 0 C 6.148438 0 5.625 -0.585938 5.625 -1.765625 L 5.625 -33.71875 C 5.625 -34.257812 5.421875 -34.53125 5.015625 -34.53125 L 4.546875 -34.53125 C 3.828125 -34.53125 3.425781 -35.113281 3.34375 -36.28125 L 2.4375 -50.140625 L 2.4375 -50.265625 C 2.4375 -51.472656 3 -52.078125 4.125 -52.078125 L 15.4375 -52.078125 C 16.613281 -52.078125 17.203125 -51.429688 17.203125 -50.140625 Z M 17.203125 -1.765625 "/></g></g></g><g fill="#f8f6e9" fill-opacity="1"><g transform="translate(355.093067, 95.6348)"><g><path d="M 28.828125 -1.765625 C 28.828125 -0.585938 28.351562 0 27.40625 0 L 18.78125 0 C 17.664062 0 17.109375 -0.585938 17.109375 -1.765625 L 17.109375 -33.625 C 17.109375 -34.226562 16.796875 -34.53125 16.171875 -34.53125 L 4.375 -34.53125 C 3.175781 -34.53125 2.5625 -35.085938 2.53125 -36.203125 L 1.671875 -50.140625 L 1.671875 -50.265625 C 1.671875 -51.472656 2.226562 -52.078125 3.34375 -52.078125 L 27.0625 -52.078125 C 28.238281 -52.078125 28.828125 -51.429688 28.828125 -50.140625 Z M 28.828125 -1.765625 "/></g></g></g><g fill="#f8f6e9" fill-opacity="1"><g transform="translate(387.434196, 95.6348)"><g><path d="M 18.015625 -22.46875 C 18.015625 -21.300781 17.539062 -20.71875 16.59375 -20.71875 L 7.984375 -20.71875 C 6.953125 -20.71875 6.4375 -21.300781 6.4375 -22.46875 L 6.4375 -33.625 C 6.4375 -34.226562 6.132812 -34.53125 5.53125 -34.53125 L 4.84375 -34.53125 C 3.925781 -34.53125 3.425781 -35.113281 3.34375 -36.28125 L 2.4375 -50.140625 L 2.4375 -50.3125 C 2.4375 -51.488281 3 -52.078125 4.125 -52.078125 L 16.25 -52.078125 C 17.425781 -52.078125 18.015625 -51.429688 18.015625 -50.140625 Z M 18.015625 -22.46875 "/></g></g></g><g fill="#f8f6e9" fill-opacity="1"><g transform="translate(408.194292, 95.6348)"><g><path d="M 36.203125 -1.421875 C 36.203125 -0.472656 35.785156 0 34.953125 0 L 26.421875 0 C 25.472656 0 24.957031 -0.613281 24.875 -1.84375 L 22.640625 -33.71875 C 22.585938 -34.195312 22.273438 -34.4375 21.703125 -34.4375 L 16.859375 -34.4375 C 16.429688 -34.4375 16.203125 -34.164062 16.171875 -33.625 L 13.8125 -1.84375 C 13.726562 -0.613281 13.171875 0 12.140625 0 L 3.859375 0 C 2.910156 0 2.4375 -0.570312 2.4375 -1.71875 L 2.4375 -1.84375 L 5.53125 -50.140625 C 5.613281 -51.429688 6.226562 -52.078125 7.375 -52.078125 L 31.609375 -52.078125 C 32.753906 -52.078125 33.367188 -51.429688 33.453125 -50.140625 L 36.203125 -1.84375 Z M 36.203125 -1.421875 "/></g></g></g><g fill="#f8f6e9" fill-opacity="1"><g transform="translate(446.883549, 95.6348)"><g/></g></g><g fill="#f8f6e9" fill-opacity="1"><g transform="translate(466.313963, 95.6348)"><g><path d="M 34.78125 -50.140625 L 31.875 -1.84375 C 31.78125 -0.613281 31.164062 0 30.03125 0 L 3.6875 0 C 2.632812 0 2.109375 -0.570312 2.109375 -1.71875 L 2.109375 -1.84375 L 3.265625 -15.828125 C 3.347656 -16.992188 3.988281 -17.578125 5.1875 -17.578125 L 7.03125 -17.578125 L 4.203125 -50.140625 L 4.203125 -50.40625 C 4.203125 -51.457031 4.734375 -51.984375 5.796875 -51.984375 L 13.890625 -51.984375 C 15.066406 -51.984375 15.710938 -51.367188 15.828125 -50.140625 L 18.609375 -17.5 L 20.28125 -17.5 C 20.882812 -17.5 21.21875 -17.867188 21.28125 -18.609375 L 23.375 -50.140625 C 23.457031 -51.367188 24.070312 -51.984375 25.21875 -51.984375 L 33.109375 -51.984375 C 34.222656 -51.984375 34.78125 -51.441406 34.78125 -50.359375 Z M 34.78125 -50.140625 "/></g></g></g><g fill="#f8f6e9" fill-opacity="1"><g transform="translate(503.587766, 95.6348)"><g><path d="M 17.203125 -1.765625 C 17.203125 -0.585938 16.769531 0 15.90625 0 L 7.203125 0 C 6.148438 0 5.625 -0.585938 5.625 -1.765625 L 5.625 -33.71875 C 5.625 -34.257812 5.421875 -34.53125 5.015625 -34.53125 L 4.546875 -34.53125 C 3.828125 -34.53125 3.425781 -35.113281 3.34375 -36.28125 L 2.4375 -50.140625 L 2.4375 -50.265625 C 2.4375 -51.472656 3 -52.078125 4.125 -52.078125 L 15.4375 -52.078125 C 16.613281 -52.078125 17.203125 -51.429688 17.203125 -50.140625 Z M 17.203125 -1.765625 "/></g></g></g><g fill="#f8f6e9" fill-opacity="1"><g transform="translate(523.57578, 95.6348)"><g><path d="M 28.828125 -1.765625 C 28.828125 -0.585938 28.351562 0 27.40625 0 L 18.78125 0 C 17.664062 0 17.109375 -0.585938 17.109375 -1.765625 L 17.109375 -33.625 C 17.109375 -34.226562 16.796875 -34.53125 16.171875 -34.53125 L 4.375 -34.53125 C 3.175781 -34.53125 2.5625 -35.085938 2.53125 -36.203125 L 1.671875 -50.140625 L 1.671875 -50.265625 C 1.671875 -51.472656 2.226562 -52.078125 3.34375 -52.078125 L 27.0625 -52.078125 C 28.238281 -52.078125 28.828125 -51.429688 28.828125 -50.140625 Z M 28.828125 -1.765625 "/></g></g></g><g fill="#f8f6e9" fill-opacity="1"><g transform="translate(555.916909, 95.6348)"><g><path d="M 18.015625 -22.46875 C 18.015625 -21.300781 17.539062 -20.71875 16.59375 -20.71875 L 7.984375 -20.71875 C 6.953125 -20.71875 6.4375 -21.300781 6.4375 -22.46875 L 6.4375 -33.625 C 6.4375 -34.226562 6.132812 -34.53125 5.53125 -34.53125 L 4.84375 -34.53125 C 3.925781 -34.53125 3.425781 -35.113281 3.34375 -36.28125 L 2.4375 -50.140625 L 2.4375 -50.3125 C 2.4375 -51.488281 3 -52.078125 4.125 -52.078125 L 16.25 -52.078125 C 17.425781 -52.078125 18.015625 -51.429688 18.015625 -50.140625 Z M 18.015625 -22.46875 "/></g></g></g><g fill="#f8f6e9" fill-opacity="1"><g transform="translate(576.677027, 95.6348)"><g><path d="M 36.59375 -50.953125 C 36.59375 -50.722656 36.578125 -50.550781 36.546875 -50.4375 L 30.578125 -15.828125 L 36.28125 -1.328125 C 36.34375 -1.160156 36.375 -1.019531 36.375 -0.90625 C 36.375 -0.300781 35.929688 0 35.046875 0 L 23.03125 0 C 22.207031 0 21.625 -0.414062 21.28125 -1.25 L 15.1875 -16.515625 L 13.078125 -1.5 C 12.941406 -0.5 12.382812 0 11.40625 0 L 2.53125 0 C 1.757812 0 1.375 -0.359375 1.375 -1.078125 C 1.375 -1.210938 1.390625 -1.328125 1.421875 -1.421875 L 7.203125 -36.03125 L 1.765625 -50.609375 C 1.648438 -50.867188 1.59375 -51.113281 1.59375 -51.34375 C 1.59375 -51.832031 1.847656 -52.078125 2.359375 -52.078125 L 14.40625 -52.078125 C 15.175781 -52.078125 15.734375 -51.617188 16.078125 -50.703125 L 22.046875 -35.390625 L 24.578125 -50.703125 C 24.722656 -51.617188 25.222656 -52.078125 26.078125 -52.078125 L 35.46875 -52.078125 C 36.21875 -52.078125 36.59375 -51.703125 36.59375 -50.953125 Z M 36.59375 -50.953125 "/></g></g></g><g clip-path="url(#6858e1c4c3)"><g clip-path="url(#df0f746ae7)"><g clip-path="url(#64d0ef3ac8)"><path fill="#f8f6e9" d="M 683.882812 34.003906 L 686.675781 53.292969 L 704.152344 61.925781 L 686.664062 70.554688 L 683.867188 89.84375 L 670.261719 75.882812 L 651.039062 79.167969 L 660.113281 61.917969 L 651.058594 44.65625 L 670.269531 47.957031 Z M 683.882812 34.003906 " fill-opacity="1" fill-rule="nonzero"/></g></g></g><g clip-path="url(#bb338c102d)"><g clip-path="url(#dcf2a4eb74)"><g clip-path="url(#5ca87ecaec)"><path fill="#f8f6e9" d="M 683.808594 33.804688 L 686.613281 53.097656 L 704.085938 61.730469 L 686.601562 70.355469 L 683.792969 89.644531 L 670.1875 75.683594 L 650.972656 78.96875 L 660.046875 61.722656 L 650.984375 44.457031 L 670.191406 47.757812 Z M 683.808594 33.804688 " fill-opacity="1" fill-rule="nonzero"/><path fill="#f8f6e9" d="M 683.808594 33.804688 L 686.613281 53.097656 L 704.085938 61.730469 L 686.601562 70.355469 L 683.792969 89.644531 L 670.1875 75.683594 L 650.972656 78.96875 L 660.046875 61.722656 L 650.984375 44.457031 L 670.191406 47.757812 Z M 683.808594 33.804688 " fill-opacity="1" fill-rule="nonzero"/><path fill="#f8f6e9" d="M 683.808594 33.804688 L 686.613281 53.097656 L 704.085938 61.730469 L 686.601562 70.355469 L 683.792969 89.644531 L 670.1875 75.683594 L 650.972656 78.96875 L 660.046875 61.722656 L 650.984375 44.457031 L 670.191406 47.757812 Z M 683.808594 33.804688 " fill-opacity="1" fill-rule="nonzero"/></g></g></g><g clip-path="url(#42b13f064f)"><g clip-path="url(#92babd0adc)"><g clip-path="url(#3734de882f)"><path fill="#f8f6e9" d="M 72.941406 53.796875 C 73.335938 54.734375 73.804688 55.632812 74.351562 56.492188 C 74.898438 57.351562 75.515625 58.15625 76.199219 58.910156 C 76.882812 59.664062 77.625 60.355469 78.425781 60.984375 C 79.226562 61.613281 80.074219 62.167969 80.96875 62.652344 C 81.863281 63.136719 82.792969 63.542969 83.757812 63.871094 C 84.722656 64.195312 85.707031 64.441406 86.710938 64.597656 C 87.71875 64.757812 88.730469 64.832031 89.746094 64.820312 C 90.765625 64.808594 91.773438 64.710938 92.777344 64.53125 C 97.621094 63.644531 103.773438 62.175781 111.59375 59.847656 C 103.777344 62.175781 97.816406 64.3125 93.28125 66.222656 C 92.339844 66.617188 91.441406 67.085938 90.585938 67.632812 C 89.726562 68.179688 88.917969 68.796875 88.164062 69.480469 C 87.410156 70.164062 86.71875 70.90625 86.09375 71.707031 C 85.464844 72.507812 84.90625 73.355469 84.421875 74.25 C 83.9375 75.148438 83.535156 76.078125 83.207031 77.039062 C 82.878906 78.003906 82.636719 78.988281 82.476562 79.996094 C 82.316406 81 82.242188 82.011719 82.253906 83.027344 C 82.265625 84.046875 82.363281 85.054688 82.546875 86.058594 C 83.429688 90.902344 84.902344 97.058594 87.230469 104.875 C 84.902344 97.058594 82.765625 91.101562 80.855469 86.5625 C 80.460938 85.625 79.988281 84.726562 79.441406 83.867188 C 78.894531 83.007812 78.277344 82.203125 77.59375 81.449219 C 76.910156 80.695312 76.167969 80.003906 75.367188 79.375 C 74.566406 78.746094 73.71875 78.191406 72.824219 77.707031 C 71.929688 77.222656 71 76.816406 70.035156 76.488281 C 69.070312 76.164062 68.085938 75.917969 67.082031 75.757812 C 66.074219 75.601562 65.066406 75.527344 64.046875 75.539062 C 63.027344 75.550781 62.019531 75.648438 61.019531 75.828125 C 56.171875 76.710938 50.019531 78.183594 42.199219 80.511719 C 50.019531 78.183594 55.976562 76.046875 60.515625 74.136719 C 61.453125 73.742188 62.351562 73.269531 63.207031 72.722656 C 64.066406 72.175781 64.875 71.5625 65.628906 70.878906 C 66.382812 70.195312 67.074219 69.453125 67.699219 68.652344 C 68.328125 67.851562 68.886719 67.003906 69.371094 66.105469 C 69.855469 65.210938 70.261719 64.28125 70.585938 63.316406 C 70.914062 62.355469 71.15625 61.371094 71.316406 60.363281 C 71.476562 59.359375 71.550781 58.347656 71.539062 57.328125 C 71.527344 56.3125 71.429688 55.300781 71.246094 54.300781 C 70.363281 49.457031 68.890625 43.300781 66.5625 35.480469 C 68.890625 43.300781 71.027344 49.257812 72.941406 53.796875 Z M 72.941406 53.796875 " fill-opacity="1" fill-rule="nonzero"/></g></g></g><g clip-path="url(#4aa7ea6087)"><g clip-path="url(#af3dea89c0)"><g clip-path="url(#6445c71f83)"><path fill="#f8f6e9" d="M 10.429688 71.65625 L 17.28125 75.945312 L 24.695312 72.730469 L 22.738281 80.574219 L 28.09375 86.632812 L 20.027344 87.195312 L 15.914062 94.15625 L 12.890625 86.664062 L 5 84.902344 L 11.191406 79.707031 Z M 10.429688 71.65625 " fill-opacity="1" fill-rule="nonzero"/></g></g></g><g clip-path="url(#98d202e102)"><g clip-path="url(#d4b5e811ac)"><g clip-path="url(#0267a724f0)"><path fill="#f8f6e9" d="M 10.34375 71.628906 L 17.199219 75.914062 L 24.617188 72.695312 L 22.660156 80.542969 L 28.011719 86.601562 L 19.945312 87.164062 L 15.835938 94.125 L 12.808594 86.628906 L 4.914062 84.871094 L 11.109375 79.675781 Z M 10.34375 71.628906 " fill-opacity="1" fill-rule="nonzero"/><path fill="#f8f6e9" d="M 10.34375 71.628906 L 17.199219 75.914062 L 24.617188 72.695312 L 22.660156 80.542969 L 28.011719 86.601562 L 19.945312 87.164062 L 15.835938 94.125 L 12.808594 86.628906 L 4.914062 84.871094 L 11.109375 79.675781 Z M 10.34375 71.628906 " fill-opacity="1" fill-rule="nonzero"/><path fill="#f8f6e9" d="M 10.34375 71.628906 L 17.199219 75.914062 L 24.617188 72.695312 L 22.660156 80.542969 L 28.011719 86.601562 L 19.945312 87.164062 L 15.835938 94.125 L 12.808594 86.628906 L 4.914062 84.871094 L 11.109375 79.675781 Z M 10.34375 71.628906 " fill-opacity="1" fill-rule="nonzero"/></g></g></g></svg>