<svg xmlns="http://www.w3.org/2000/svg" xmlns:xlink="http://www.w3.org/1999/xlink" width="1031" zoomAndPan="magnify" viewBox="0 0 773.25 329.249999" height="439" preserveAspectRatio="xMidYMid meet" version="1.0"><defs><g/><clipPath id="8f8938e85f"><path d="M 552.421875 12.769531 L 763 12.769531 L 763 148.5 L 552.421875 148.5 Z M 552.421875 12.769531 " clip-rule="nonzero"/></clipPath><clipPath id="5e13494794"><path d="M 552.421875 12.769531 L 762.691406 12.769531 L 762.691406 148.210938 L 552.421875 148.210938 Z M 552.421875 12.769531 " clip-rule="nonzero"/></clipPath><clipPath id="1399b82718"><path d="M 552.421875 176.1875 L 763 176.1875 L 763 311.914062 L 552.421875 311.914062 Z M 552.421875 176.1875 " clip-rule="nonzero"/></clipPath><clipPath id="f533b66f33"><path d="M 552.421875 176.1875 L 762.691406 176.1875 L 762.691406 311.628906 L 552.421875 311.628906 Z M 552.421875 176.1875 " clip-rule="nonzero"/></clipPath><clipPath id="d26a0ca149"><path d="M 279.457031 12.769531 L 490 12.769531 L 490 148.5 L 279.457031 148.5 Z M 279.457031 12.769531 " clip-rule="nonzero"/></clipPath><clipPath id="ba5b6697fa"><path d="M 279.460938 12.769531 L 489.730469 12.769531 L 489.730469 148.210938 L 279.460938 148.210938 Z M 279.460938 12.769531 " clip-rule="nonzero"/></clipPath><clipPath id="da48ead63f"><path d="M 279.457031 176.1875 L 490 176.1875 L 490 311.914062 L 279.457031 311.914062 Z M 279.457031 176.1875 " clip-rule="nonzero"/></clipPath><clipPath id="76092b2170"><path d="M 279.460938 176.1875 L 489.730469 176.1875 L 489.730469 311.628906 L 279.460938 311.628906 Z M 279.460938 176.1875 " clip-rule="nonzero"/></clipPath><clipPath id="d4ae45041a"><path d="M 6.496094 12.769531 L 217 12.769531 L 217 148.5 L 6.496094 148.5 Z M 6.496094 12.769531 " clip-rule="nonzero"/></clipPath><clipPath id="c5e184da96"><path d="M 6.496094 12.769531 L 216.765625 12.769531 L 216.765625 148.210938 L 6.496094 148.210938 Z M 6.496094 12.769531 " clip-rule="nonzero"/></clipPath><clipPath id="ec6d3d5201"><path d="M 6.496094 176.1875 L 217 176.1875 L 217 311.914062 L 6.496094 311.914062 Z M 6.496094 176.1875 " clip-rule="nonzero"/></clipPath><clipPath id="8ea0a66c69"><path d="M 6.496094 176.1875 L 216.765625 176.1875 L 216.765625 311.628906 L 6.496094 311.628906 Z M 6.496094 176.1875 " clip-rule="nonzero"/></clipPath></defs><g clip-path="url(#8f8938e85f)"><path fill="#ffcf7e" d="M 552.421875 12.769531 L 762.90625 12.769531 L 762.90625 148.5 L 552.421875 148.5 Z M 552.421875 12.769531 " fill-opacity="1" fill-rule="nonzero"/></g><g clip-path="url(#5e13494794)"><path stroke-linecap="butt" transform="matrix(0.748295, 0, 0, 0.748295, 552.422873, 12.770914)" fill="none" stroke-linejoin="miter" d="M -0.00133303 -0.00184734 L 281.435183 -0.00184734 L 281.435183 181.37392 L -0.00133303 181.37392 Z M -0.00133303 -0.00184734 " stroke="#cf4545" stroke-width="20" stroke-opacity="1" stroke-miterlimit="4"/></g><g clip-path="url(#1399b82718)"><path fill="#ffcf7e" d="M 552.421875 176.1875 L 762.90625 176.1875 L 762.90625 311.914062 L 552.421875 311.914062 Z M 552.421875 176.1875 " fill-opacity="1" fill-rule="nonzero"/></g><g clip-path="url(#f533b66f33)"><path stroke-linecap="butt" transform="matrix(0.748295, 0, 0, 0.748295, 552.422873, 176.186825)" fill="none" stroke-linejoin="miter" d="M -0.00133303 0.000901908 L 281.435183 0.000901908 L 281.435183 181.37667 L -0.00133303 181.37667 Z M -0.00133303 0.000901908 " stroke="#cf4545" stroke-width="20" stroke-opacity="1" stroke-miterlimit="4"/></g><g clip-path="url(#d26a0ca149)"><path fill="#ffcf7e" d="M 279.457031 12.769531 L 489.945312 12.769531 L 489.945312 148.5 L 279.457031 148.5 Z M 279.457031 12.769531 " fill-opacity="1" fill-rule="nonzero"/></g><g clip-path="url(#ba5b6697fa)"><path stroke-linecap="butt" transform="matrix(0.748295, 0, 0, 0.748295, 279.459257, 12.770914)" fill="none" stroke-linejoin="miter" d="M 0.0022453 -0.00184734 L 281.433542 -0.00184734 L 281.433542 181.37392 L 0.0022453 181.37392 Z M 0.0022453 -0.00184734 " stroke="#cf4545" stroke-width="20" stroke-opacity="1" stroke-miterlimit="4"/></g><g clip-path="url(#da48ead63f)"><path fill="#ffcf7e" d="M 279.457031 176.1875 L 489.945312 176.1875 L 489.945312 311.914062 L 279.457031 311.914062 Z M 279.457031 176.1875 " fill-opacity="1" fill-rule="nonzero"/></g><g clip-path="url(#76092b2170)"><path stroke-linecap="butt" transform="matrix(0.748295, 0, 0, 0.748295, 279.459257, 176.186825)" fill="none" stroke-linejoin="miter" d="M 0.0022453 0.000901908 L 281.433542 0.000901908 L 281.433542 181.37667 L 0.0022453 181.37667 Z M 0.0022453 0.000901908 " stroke="#cf4545" stroke-width="20" stroke-opacity="1" stroke-miterlimit="4"/></g><g clip-path="url(#d4ae45041a)"><path fill="#ffcf7e" d="M 6.496094 12.769531 L 216.980469 12.769531 L 216.980469 148.5 L 6.496094 148.5 Z M 6.496094 12.769531 " fill-opacity="1" fill-rule="nonzero"/></g><g clip-path="url(#c5e184da96)"><path stroke-linecap="butt" transform="matrix(0.748295, 0, 0, 0.748295, 6.495591, 12.770914)" fill="none" stroke-linejoin="miter" d="M 0.000672245 -0.00184734 L 281.437189 -0.00184734 L 281.437189 181.37392 L 0.000672245 181.37392 Z M 0.000672245 -0.00184734 " stroke="#cf4545" stroke-width="20" stroke-opacity="1" stroke-miterlimit="4"/></g><g clip-path="url(#ec6d3d5201)"><path fill="#ffcf7e" d="M 6.496094 176.1875 L 216.980469 176.1875 L 216.980469 311.914062 L 6.496094 311.914062 Z M 6.496094 176.1875 " fill-opacity="1" fill-rule="nonzero"/></g><g clip-path="url(#8ea0a66c69)"><path stroke-linecap="butt" transform="matrix(0.748295, 0, 0, 0.748295, 6.495591, 176.186825)" fill="none" stroke-linejoin="miter" d="M 0.000672245 0.000901908 L 281.437189 0.000901908 L 281.437189 181.37667 L 0.000672245 181.37667 Z M 0.000672245 0.000901908 " stroke="#cf4545" stroke-width="20" stroke-opacity="1" stroke-miterlimit="4"/></g><g fill="#cf4545" fill-opacity="1"><g transform="translate(609.408662, 68.444091)"><g><path d="M 24.453125 -9.734375 C 24.453125 -3.242188 21.789062 0 16.46875 0 L 0.96875 0 L 0.96875 -9.640625 L 3.15625 -9.640625 L 3.15625 -36.921875 L 12.15625 -36.921875 L 12.15625 -9.640625 L 13.96875 -9.640625 C 15.007812 -9.640625 15.53125 -10.351562 15.53125 -11.78125 L 15.53125 -36.921875 L 24.453125 -36.921875 Z M 24.453125 -9.734375 "/></g></g></g><g fill="#cf4545" fill-opacity="1"><g transform="translate(635.441524, 68.444091)"><g><path d="M 10.609375 0 L 1.59375 0 L 1.59375 -36.921875 L 10.609375 -36.921875 Z M 10.609375 0 "/></g></g></g><g fill="#cf4545" fill-opacity="1"><g transform="translate(647.631765, 68.444091)"><g><path d="M 19.765625 0 L 10.640625 0 L 10.640625 -25.75 C 10.640625 -26.769531 10.109375 -27.28125 9.046875 -27.28125 L 0.96875 -27.28125 L 0.96875 -36.921875 L 13.25 -36.921875 C 15.164062 -36.921875 16.734375 -36.304688 17.953125 -35.078125 C 19.160156 -33.867188 19.765625 -32.300781 19.765625 -30.375 Z M 19.765625 0 "/></g></g></g><g fill="#cf4545" fill-opacity="1"><g transform="translate(668.988065, 68.444091)"><g><path d="M 10.484375 -20.546875 L 1.53125 -20.546875 L 1.53125 -36.921875 L 10.484375 -36.921875 Z M 10.484375 -20.546875 "/></g></g></g><g fill="#cf4545" fill-opacity="1"><g transform="translate(681.053598, 68.444091)"><g><path d="M 16.71875 0 C 16.445312 -1.457031 15.859375 -3.375 14.953125 -5.75 C 14.046875 -8.132812 12.8125 -11.007812 11.25 -14.375 C 11.082031 -14.1875 10.957031 -14.039062 10.875 -13.9375 C 10.789062 -13.832031 10.738281 -13.769531 10.71875 -13.75 C 10.695312 -13.664062 10.679688 -13.484375 10.671875 -13.203125 C 10.660156 -12.921875 10.65625 -12.53125 10.65625 -12.03125 L 10.65625 0 L 1.65625 0 L 1.65625 -11.03125 C 1.65625 -16.875 3.453125 -20.660156 7.046875 -22.390625 C 3.597656 -29.160156 1.675781 -34.003906 1.28125 -36.921875 L 10.65625 -36.921875 C 11.113281 -34.835938 11.796875 -32.640625 12.703125 -30.328125 C 13.609375 -28.023438 14.75 -25.578125 16.125 -22.984375 C 16.644531 -23.359375 16.90625 -24.125 16.90625 -25.28125 L 16.90625 -36.921875 L 26 -36.921875 L 26 -24.421875 C 26 -22.546875 25.429688 -20.722656 24.296875 -18.953125 C 23.148438 -17.210938 21.734375 -15.882812 20.046875 -14.96875 C 23.929688 -7.238281 25.914062 -2.25 26 0 Z M 16.71875 0 "/></g></g></g><g fill="#cf4545" fill-opacity="1"><g transform="translate(604.743508, 135.042383)"><g><path d="M 25.15625 -11.0625 C 25.15625 -7.445312 24.140625 -4.5625 22.109375 -2.40625 C 20.003906 -0.175781 17.164062 0.9375 13.59375 0.9375 C 9.914062 0.9375 6.992188 -0.144531 4.828125 -2.3125 C 2.671875 -4.46875 1.59375 -7.382812 1.59375 -11.0625 L 1.59375 -31.03125 C 1.59375 -32.082031 1.695312 -32.984375 1.90625 -33.734375 C 2.113281 -34.484375 2.441406 -35.09375 2.890625 -35.5625 C 3.347656 -36.03125 3.945312 -36.375 4.6875 -36.59375 C 5.425781 -36.8125 6.328125 -36.921875 7.390625 -36.921875 L 19.296875 -36.921875 C 23.203125 -36.921875 25.15625 -34.957031 25.15625 -31.03125 Z M 16.0625 -26.53125 C 16.0625 -27.03125 15.851562 -27.28125 15.4375 -27.28125 L 11.25 -27.28125 C 10.84375 -27.28125 10.640625 -27.03125 10.640625 -26.53125 L 10.640625 -12.0625 C 10.640625 -9.800781 11.582031 -8.671875 13.46875 -8.671875 C 15.195312 -8.671875 16.0625 -9.800781 16.0625 -12.0625 Z M 16.0625 -26.53125 "/></g></g></g><g fill="#cf4545" fill-opacity="1"><g transform="translate(631.493436, 135.042383)"><g><path d="M 15.34375 -34.796875 C 15.34375 -33.003906 14.570312 -31.28125 13.03125 -29.625 C 11.757812 -28.25 10.316406 -27.195312 8.703125 -26.46875 L 8.703125 -42.3125 L 15.34375 -42.3125 Z M 7.203125 -34.796875 C 7.203125 -31.515625 5.007812 -28.738281 0.625 -26.46875 L 0.625 -42.3125 L 7.203125 -42.3125 Z M 7.203125 -34.796875 "/></g></g></g><g fill="#cf4545" fill-opacity="1"><g transform="translate(647.456098, 135.042383)"><g><path d="M 26.09375 -6.640625 C 26.09375 -2.210938 24.085938 0 20.078125 0 L 13.71875 0 L 13.71875 -9.671875 L 15.625 -9.671875 C 16.5625 -9.671875 17.03125 -10.226562 17.03125 -11.34375 L 17.03125 -25.40625 C 17.03125 -26.53125 16.75 -27.09375 16.1875 -27.09375 C 15.625 -27.09375 15.238281 -26.457031 15.03125 -25.1875 L 10.515625 0 L 1.59375 0 L 5.390625 -20.609375 L 3.609375 -20.609375 C 2.222656 -20.609375 1.53125 -21.296875 1.53125 -22.671875 L 1.53125 -36.921875 L 10.578125 -36.921875 L 10.578125 -23.890625 L 12.375 -31.03125 C 13.375 -34.957031 15.523438 -36.921875 18.828125 -36.921875 L 19.296875 -36.921875 C 23.828125 -36.921875 26.09375 -34.15625 26.09375 -28.625 Z M 26.09375 -6.640625 "/></g></g></g><g fill="#cf4545" fill-opacity="1"><g transform="translate(675.141338, 135.042383)"><g><path d="M 10.609375 0 L 1.59375 0 L 1.59375 -36.921875 L 10.609375 -36.921875 Z M 10.609375 0 "/></g></g></g><g fill="#cf4545" fill-opacity="1"><g transform="translate(687.33158, 135.042383)"><g><path d="M 24.078125 0 L 15.03125 0 L 15.03125 -25.53125 C 15.03125 -26.695312 14.5 -27.28125 13.4375 -27.28125 L 12.34375 -27.28125 C 11.28125 -27.28125 10.75 -26.695312 10.75 -25.53125 L 10.75 0 L 1.59375 0 L 1.59375 -30.46875 C 1.59375 -32.769531 1.976562 -34.378906 2.75 -35.296875 C 3.613281 -36.378906 5.171875 -36.921875 7.421875 -36.921875 L 17.828125 -36.921875 C 21.992188 -36.921875 24.078125 -34.769531 24.078125 -30.46875 Z M 24.078125 0 "/></g></g></g><g fill="#cf4545" fill-opacity="1"><g transform="translate(608.251143, 228.337097)"><g><path d="M 24.453125 -9.734375 C 24.453125 -3.242188 21.789062 0 16.46875 0 L 0.96875 0 L 0.96875 -9.640625 L 3.15625 -9.640625 L 3.15625 -36.921875 L 12.15625 -36.921875 L 12.15625 -9.640625 L 13.96875 -9.640625 C 15.007812 -9.640625 15.53125 -10.351562 15.53125 -11.78125 L 15.53125 -36.921875 L 24.453125 -36.921875 Z M 24.453125 -9.734375 "/></g></g></g><g fill="#cf4545" fill-opacity="1"><g transform="translate(634.284004, 228.337097)"><g><path d="M 10.609375 0 L 1.59375 0 L 1.59375 -36.921875 L 10.609375 -36.921875 Z M 10.609375 0 "/></g></g></g><g fill="#cf4545" fill-opacity="1"><g transform="translate(646.474246, 228.337097)"><g><path d="M 19.765625 0 L 10.640625 0 L 10.640625 -25.75 C 10.640625 -26.769531 10.109375 -27.28125 9.046875 -27.28125 L 0.96875 -27.28125 L 0.96875 -36.921875 L 13.25 -36.921875 C 15.164062 -36.921875 16.734375 -36.304688 17.953125 -35.078125 C 19.160156 -33.867188 19.765625 -32.300781 19.765625 -30.375 Z M 19.765625 0 "/></g></g></g><g fill="#cf4545" fill-opacity="1"><g transform="translate(667.830546, 228.337097)"><g><path d="M 10.484375 -20.546875 L 1.53125 -20.546875 L 1.53125 -36.921875 L 10.484375 -36.921875 Z M 10.484375 -20.546875 "/></g></g></g><g fill="#cf4545" fill-opacity="1"><g transform="translate(679.896079, 228.337097)"><g><path d="M 16.71875 0 C 16.445312 -1.457031 15.859375 -3.375 14.953125 -5.75 C 14.046875 -8.132812 12.8125 -11.007812 11.25 -14.375 C 11.082031 -14.1875 10.957031 -14.039062 10.875 -13.9375 C 10.789062 -13.832031 10.738281 -13.769531 10.71875 -13.75 C 10.695312 -13.664062 10.679688 -13.484375 10.671875 -13.203125 C 10.660156 -12.921875 10.65625 -12.53125 10.65625 -12.03125 L 10.65625 0 L 1.65625 0 L 1.65625 -11.03125 C 1.65625 -16.875 3.453125 -20.660156 7.046875 -22.390625 C 3.597656 -29.160156 1.675781 -34.003906 1.28125 -36.921875 L 10.65625 -36.921875 C 11.113281 -34.835938 11.796875 -32.640625 12.703125 -30.328125 C 13.609375 -28.023438 14.75 -25.578125 16.125 -22.984375 C 16.644531 -23.359375 16.90625 -24.125 16.90625 -25.28125 L 16.90625 -36.921875 L 26 -36.921875 L 26 -24.421875 C 26 -22.546875 25.429688 -20.722656 24.296875 -18.953125 C 23.148438 -17.210938 21.734375 -15.882812 20.046875 -14.96875 C 23.929688 -7.238281 25.914062 -2.25 26 0 Z M 16.71875 0 "/></g></g></g><g fill="#cf4545" fill-opacity="1"><g transform="translate(611.279401, 294.935389)"><g><path d="M 24.453125 -9.734375 C 24.453125 -3.242188 21.789062 0 16.46875 0 L 0.96875 0 L 0.96875 -9.640625 L 3.15625 -9.640625 L 3.15625 -36.921875 L 12.15625 -36.921875 L 12.15625 -9.640625 L 13.96875 -9.640625 C 15.007812 -9.640625 15.53125 -10.351562 15.53125 -11.78125 L 15.53125 -36.921875 L 24.453125 -36.921875 Z M 24.453125 -9.734375 "/></g></g></g><g fill="#cf4545" fill-opacity="1"><g transform="translate(637.312262, 294.935389)"><g><path d="M 15.34375 -34.796875 C 15.34375 -33.003906 14.570312 -31.28125 13.03125 -29.625 C 11.757812 -28.25 10.316406 -27.195312 8.703125 -26.46875 L 8.703125 -42.3125 L 15.34375 -42.3125 Z M 7.203125 -34.796875 C 7.203125 -31.515625 5.007812 -28.738281 0.625 -26.46875 L 0.625 -42.3125 L 7.203125 -42.3125 Z M 7.203125 -34.796875 "/></g></g></g><g fill="#cf4545" fill-opacity="1"><g transform="translate(653.274924, 294.935389)"><g><path d="M 24.078125 0 L 15.03125 0 L 15.03125 -25.53125 C 15.03125 -26.695312 14.5 -27.28125 13.4375 -27.28125 L 12.34375 -27.28125 C 11.28125 -27.28125 10.75 -26.695312 10.75 -25.53125 L 10.75 0 L 1.59375 0 L 1.59375 -30.46875 C 1.59375 -32.769531 1.976562 -34.378906 2.75 -35.296875 C 3.613281 -36.378906 5.171875 -36.921875 7.421875 -36.921875 L 17.828125 -36.921875 C 21.992188 -36.921875 24.078125 -34.769531 24.078125 -30.46875 Z M 24.078125 0 "/></g></g></g><g fill="#cf4545" fill-opacity="1"><g transform="translate(678.93366, 294.935389)"><g><path d="M 23.609375 -7.171875 C 23.609375 -2.390625 21.289062 0 16.65625 0 L 1.65625 0 L 1.65625 -9.640625 L 12.8125 -9.640625 C 14.039062 -9.640625 14.65625 -10.363281 14.65625 -11.8125 L 14.65625 -25.75 C 14.65625 -26.769531 14.1875 -27.28125 13.25 -27.28125 L 12 -27.28125 C 11.144531 -27.28125 10.71875 -26.75 10.71875 -25.6875 L 10.71875 -20.265625 L 1.59375 -20.265625 L 1.59375 -30.375 C 1.59375 -34.738281 3.691406 -36.921875 7.890625 -36.921875 L 17.125 -36.921875 C 19.070312 -36.921875 20.640625 -36.316406 21.828125 -35.109375 C 23.015625 -33.878906 23.609375 -32.300781 23.609375 -30.375 Z M 23.609375 -7.171875 "/></g></g></g><g fill="#cf4545" fill-opacity="1"><g transform="translate(303.473256, 68.662675)"><g><path d="M 17.75 0 L 10.875 0 L 10.875 -19.3125 C 10.875 -20.082031 10.484375 -20.46875 9.703125 -20.46875 L 1.1875 -20.46875 L 1.1875 -27.6875 L 12.859375 -27.6875 C 14.296875 -27.6875 15.472656 -27.226562 16.390625 -26.3125 C 17.296875 -25.40625 17.75 -24.226562 17.75 -22.78125 Z M 7.953125 0 L 1.21875 0 L 1.21875 -17.15625 L 7.953125 -17.15625 Z M 7.953125 0 "/></g></g><g transform="translate(322.414484, 68.662675)"><g><path d="M 13.421875 -4.34375 C 13.421875 -1.445312 12.050781 0 9.3125 0 L 0.953125 0 L 0.953125 -7.21875 L 5.75 -7.21875 C 6.3125 -7.21875 6.59375 -7.5625 6.59375 -8.25 L 6.59375 -19.3125 C 6.59375 -20.082031 6.25 -20.46875 5.5625 -20.46875 L 2.953125 -20.46875 L 2.953125 -27.6875 L 9.1875 -27.6875 C 12.007812 -27.6875 13.421875 -26.226562 13.421875 -23.3125 Z M 13.421875 -4.34375 "/></g></g><g transform="translate(337.029629, 68.662675)"><g><path d="M 7.859375 -15.40625 L 1.140625 -15.40625 L 1.140625 -27.6875 L 7.859375 -27.6875 Z M 7.859375 -15.40625 "/></g></g><g transform="translate(346.079326, 68.662675)"><g><path d="M 14.828125 0 L 7.96875 0 L 7.96875 -19.3125 C 7.96875 -20.082031 7.570312 -20.46875 6.78125 -20.46875 L 0.71875 -20.46875 L 0.71875 -27.6875 L 9.9375 -27.6875 C 11.375 -27.6875 12.550781 -27.226562 13.46875 -26.3125 C 14.375 -25.40625 14.828125 -24.226562 14.828125 -22.78125 Z M 14.828125 0 "/></g></g><g transform="translate(362.097525, 68.662675)"><g><path d="M 17.9375 -8.5625 C 17.9375 -5.738281 17.476562 -3.65625 16.5625 -2.3125 C 15.4375 -0.726562 13.523438 0.0625 10.828125 0.0625 C 10.347656 0.0625 9.84375 0.0390625 9.3125 0 L 9.3125 -7.21875 C 10.488281 -7.21875 11.078125 -8.09375 11.078125 -9.84375 L 11.078125 -19.3125 C 11.078125 -20.082031 10.679688 -20.46875 9.890625 -20.46875 L 1.1875 -20.46875 L 1.1875 -27.6875 L 14.46875 -27.6875 C 16.78125 -27.6875 17.9375 -26.570312 17.9375 -24.34375 Z M 8 4 L 1.234375 4 L 1.234375 -17.421875 L 8 -17.421875 Z M 8 4 "/></g></g><g transform="translate(381.249211, 68.662675)"><g/></g><g transform="translate(391.842268, 68.662675)"><g><path d="M 18.328125 -7.296875 C 18.328125 -2.429688 16.332031 0 12.34375 0 L 0.71875 0 L 0.71875 -7.21875 L 2.359375 -7.21875 L 2.359375 -27.6875 L 9.125 -27.6875 L 9.125 -7.21875 L 10.46875 -7.21875 C 11.25 -7.21875 11.640625 -7.757812 11.640625 -8.84375 L 11.640625 -27.6875 L 18.328125 -27.6875 Z M 18.328125 -7.296875 "/></g></g><g transform="translate(411.368102, 68.662675)"><g><path d="M 7.953125 0 L 1.1875 0 L 1.1875 -27.6875 L 7.953125 -27.6875 Z M 7.953125 0 "/></g></g><g transform="translate(420.511336, 68.662675)"><g><path d="M 14.828125 0 L 7.96875 0 L 7.96875 -19.3125 C 7.96875 -20.082031 7.570312 -20.46875 6.78125 -20.46875 L 0.71875 -20.46875 L 0.71875 -27.6875 L 9.9375 -27.6875 C 11.375 -27.6875 12.550781 -27.226562 13.46875 -26.3125 C 14.375 -25.40625 14.828125 -24.226562 14.828125 -22.78125 Z M 14.828125 0 "/></g></g><g transform="translate(436.529535, 68.662675)"><g><path d="M 7.859375 -15.40625 L 1.140625 -15.40625 L 1.140625 -27.6875 L 7.859375 -27.6875 Z M 7.859375 -15.40625 "/></g></g><g transform="translate(445.579233, 68.662675)"><g><path d="M 12.53125 0 C 12.332031 -1.09375 11.894531 -2.53125 11.21875 -4.3125 C 10.539062 -6.09375 9.613281 -8.25 8.4375 -10.78125 C 8.3125 -10.632812 8.21875 -10.519531 8.15625 -10.4375 C 8.09375 -10.363281 8.054688 -10.320312 8.046875 -10.3125 C 8.023438 -10.25 8.007812 -10.113281 8 -9.90625 C 8 -9.695312 8 -9.40625 8 -9.03125 L 8 0 L 1.234375 0 L 1.234375 -8.28125 C 1.234375 -12.65625 2.582031 -15.492188 5.28125 -16.796875 C 2.695312 -21.867188 1.253906 -25.5 0.953125 -27.6875 L 8 -27.6875 C 8.34375 -26.125 8.851562 -24.476562 9.53125 -22.75 C 10.207031 -21.019531 11.0625 -19.179688 12.09375 -17.234375 C 12.476562 -17.515625 12.671875 -18.09375 12.671875 -18.96875 L 12.671875 -27.6875 L 19.5 -27.6875 L 19.5 -18.3125 C 19.5 -16.90625 19.070312 -15.539062 18.21875 -14.21875 C 17.363281 -12.90625 16.300781 -11.90625 15.03125 -11.21875 C 17.945312 -5.425781 19.4375 -1.6875 19.5 0 Z M 12.53125 0 "/></g></g></g><g fill="#cf4545" fill-opacity="1"><g transform="translate(332.738622, 118.798468)"><g><path d="M 7.859375 -15.40625 L 1.140625 -15.40625 L 1.140625 -27.6875 L 7.859375 -27.6875 Z M 7.859375 -15.40625 "/></g></g><g transform="translate(341.78832, 118.798468)"><g><path d="M 16.421875 0 L 9.65625 0 L 8.4375 -7.671875 C 7.957031 -7.671875 7.65625 -7.328125 7.53125 -6.640625 L 6.265625 0 L 0.234375 0 L 1.84375 -8 C 2.5625 -11.613281 4.238281 -13.421875 6.875 -13.421875 L 8 -13.421875 L 8 -19.3125 C 8 -20.082031 7.5625 -20.46875 6.6875 -20.46875 L 1.875 -20.46875 L 1.875 -27.6875 L 9.6875 -27.6875 C 13.09375 -27.6875 14.796875 -25.894531 14.796875 -22.3125 L 14.796875 -13 C 14.796875 -12.019531 14.820312 -11.113281 14.875 -10.28125 C 14.9375 -9.457031 15.019531 -8.703125 15.125 -8.015625 Z M 16.421875 0 "/></g></g><g transform="translate(358.695119, 118.798468)"><g><path d="M 7.953125 0 L 1.1875 0 L 1.1875 -27.6875 L 7.953125 -27.6875 Z M 7.953125 0 "/></g></g><g transform="translate(367.838354, 118.798468)"><g><path d="M 16.53125 -10.015625 C 16.53125 -3.335938 13.332031 0 6.9375 0 L 4.015625 0 L 4.015625 -7.21875 L 5.984375 -7.21875 C 7.492188 -7.21875 8.523438 -7.703125 9.078125 -8.671875 C 9.460938 -9.359375 9.65625 -10.550781 9.65625 -12.25 L 9.65625 -19.3125 C 9.65625 -20.082031 9.265625 -20.46875 8.484375 -20.46875 L 1.1875 -20.46875 L 1.1875 -31.125 L 7.96875 -31.125 L 7.96875 -27.6875 L 13.078125 -27.6875 C 15.378906 -27.6875 16.53125 -26.570312 16.53125 -24.34375 Z M 16.53125 -10.015625 "/></g></g><g transform="translate(385.563602, 118.798468)"><g><path d="M 7.953125 0 L 1.1875 0 L 1.1875 -27.6875 L 7.953125 -27.6875 Z M 7.953125 0 "/></g></g><g transform="translate(394.706837, 118.798468)"><g><path d="M 7.859375 -15.40625 L 1.140625 -15.40625 L 1.140625 -27.6875 L 7.859375 -27.6875 Z M 7.859375 -15.40625 "/></g></g><g transform="translate(403.756534, 118.798468)"><g><path d="M 15.8125 -20.46875 C 14.28125 -20.46875 13.515625 -19.71875 13.515625 -18.21875 L 13.515625 0 L 6.640625 0 L 6.640625 -16.296875 C 6.640625 -18.429688 7.546875 -19.820312 9.359375 -20.46875 L 0.71875 -20.46875 L 0.71875 -27.6875 L 15.8125 -27.6875 Z M 15.8125 -20.46875 "/></g></g><g transform="translate(420.756871, 118.798468)"><g><path d="M 14.828125 0 L 7.96875 0 L 7.96875 -19.3125 C 7.96875 -20.082031 7.570312 -20.46875 6.78125 -20.46875 L 0.71875 -20.46875 L 0.71875 -27.6875 L 9.9375 -27.6875 C 11.375 -27.6875 12.550781 -27.226562 13.46875 -26.3125 C 14.375 -25.40625 14.828125 -24.226562 14.828125 -22.78125 Z M 14.828125 0 "/></g></g></g><g fill="#cf4545" fill-opacity="1"><g transform="translate(321.993568, 261.636243)"><g><path d="M 10.484375 -20.546875 L 1.53125 -20.546875 L 1.53125 -36.921875 L 10.484375 -36.921875 Z M 10.484375 -20.546875 "/></g></g></g><g fill="#cf4545" fill-opacity="1"><g transform="translate(334.059101, 261.636243)"><g><path d="M 26.09375 -6.640625 C 26.09375 -2.210938 24.085938 0 20.078125 0 L 13.71875 0 L 13.71875 -9.671875 L 15.625 -9.671875 C 16.5625 -9.671875 17.03125 -10.226562 17.03125 -11.34375 L 17.03125 -25.40625 C 17.03125 -26.53125 16.75 -27.09375 16.1875 -27.09375 C 15.625 -27.09375 15.238281 -26.457031 15.03125 -25.1875 L 10.515625 0 L 1.59375 0 L 5.390625 -20.609375 L 3.609375 -20.609375 C 2.222656 -20.609375 1.53125 -21.296875 1.53125 -22.671875 L 1.53125 -36.921875 L 10.578125 -36.921875 L 10.578125 -23.890625 L 12.375 -31.03125 C 13.375 -34.957031 15.523438 -36.921875 18.828125 -36.921875 L 19.296875 -36.921875 C 23.828125 -36.921875 26.09375 -34.15625 26.09375 -28.625 Z M 26.09375 -6.640625 "/></g></g></g><g fill="#cf4545" fill-opacity="1"><g transform="translate(361.744342, 261.636243)"><g><path d="M 16.71875 0 C 16.445312 -1.457031 15.859375 -3.375 14.953125 -5.75 C 14.046875 -8.132812 12.8125 -11.007812 11.25 -14.375 C 11.082031 -14.1875 10.957031 -14.039062 10.875 -13.9375 C 10.789062 -13.832031 10.738281 -13.769531 10.71875 -13.75 C 10.695312 -13.664062 10.679688 -13.484375 10.671875 -13.203125 C 10.660156 -12.921875 10.65625 -12.53125 10.65625 -12.03125 L 10.65625 0 L 1.65625 0 L 1.65625 -11.03125 C 1.65625 -16.875 3.453125 -20.660156 7.046875 -22.390625 C 3.597656 -29.160156 1.675781 -34.003906 1.28125 -36.921875 L 10.65625 -36.921875 C 11.113281 -34.835938 11.796875 -32.640625 12.703125 -30.328125 C 13.609375 -28.023438 14.75 -25.578125 16.125 -22.984375 C 16.644531 -23.359375 16.90625 -24.125 16.90625 -25.28125 L 16.90625 -36.921875 L 26 -36.921875 L 26 -24.421875 C 26 -22.546875 25.429688 -20.722656 24.296875 -18.953125 C 23.148438 -17.210938 21.734375 -15.882812 20.046875 -14.96875 C 23.929688 -7.238281 25.914062 -2.25 26 0 Z M 16.71875 0 "/></g></g></g><g fill="#cf4545" fill-opacity="1"><g transform="translate(389.024286, 261.636243)"><g><path d="M 17.890625 -5.796875 C 17.890625 -1.929688 16.0625 0 12.40625 0 L 1.28125 0 L 1.28125 -9.640625 L 7.671875 -9.640625 C 8.421875 -9.640625 8.796875 -10.09375 8.796875 -11 L 8.796875 -25.75 C 8.796875 -26.769531 8.335938 -27.28125 7.421875 -27.28125 L 3.921875 -27.28125 L 3.921875 -36.921875 L 12.25 -36.921875 C 16.007812 -36.921875 17.890625 -34.976562 17.890625 -31.09375 Z M 17.890625 -5.796875 "/></g></g></g><g fill="#cf4545" fill-opacity="1"><g transform="translate(408.509963, 261.636243)"><g><path d="M 10.609375 0 L 1.59375 0 L 1.59375 -36.921875 L 10.609375 -36.921875 Z M 10.609375 0 "/></g></g></g><g fill="#cf4545" fill-opacity="1"><g transform="translate(420.700204, 261.636243)"><g><path d="M 1.78125 0 L 1.78125 -9.640625 L 12.3125 -9.671875 L 6.421875 -21.578125 C 2.953125 -28.597656 0.976562 -33.710938 0.5 -36.921875 L 10.078125 -36.921875 C 11.335938 -31.765625 13.113281 -27.203125 15.40625 -23.234375 C 15.757812 -23.460938 15.976562 -23.890625 16.0625 -24.515625 C 16.125 -24.898438 16.15625 -25.363281 16.15625 -25.90625 L 16.15625 -36.921875 L 25.21875 -36.921875 L 25.21875 -24.421875 C 25.21875 -22.523438 24.648438 -20.710938 23.515625 -18.984375 C 22.390625 -17.304688 20.984375 -16.019531 19.296875 -15.125 C 23.222656 -7.3125 25.195312 -2.269531 25.21875 0 Z M 1.78125 0 "/></g></g></g><g fill="#cf4545" fill-opacity="1"><g transform="translate(61.435276, 101.743238)"><g><path d="M 23.671875 0 L 14.5 0 L 14.5 -25.75 C 14.5 -26.769531 13.976562 -27.28125 12.9375 -27.28125 L 1.59375 -27.28125 L 1.59375 -36.921875 L 17.15625 -36.921875 C 19.0625 -36.921875 20.628906 -36.304688 21.859375 -35.078125 C 23.066406 -33.867188 23.671875 -32.300781 23.671875 -30.375 Z M 10.609375 0 L 1.625 0 L 1.625 -22.890625 L 10.609375 -22.890625 Z M 10.609375 0 "/></g></g></g><g fill="#cf4545" fill-opacity="1"><g transform="translate(86.688705, 101.743238)"><g><path d="M 23.609375 -7.171875 C 23.609375 -2.390625 21.289062 0 16.65625 0 L 1.65625 0 L 1.65625 -9.640625 L 12.8125 -9.640625 C 14.039062 -9.640625 14.65625 -10.363281 14.65625 -11.8125 L 14.65625 -25.75 C 14.65625 -26.769531 14.1875 -27.28125 13.25 -27.28125 L 12 -27.28125 C 11.144531 -27.28125 10.71875 -26.75 10.71875 -25.6875 L 10.71875 -20.265625 L 1.59375 -20.265625 L 1.59375 -30.375 C 1.59375 -34.738281 3.691406 -36.921875 7.890625 -36.921875 L 17.125 -36.921875 C 19.070312 -36.921875 20.640625 -36.316406 21.828125 -35.109375 C 23.015625 -33.878906 23.609375 -32.300781 23.609375 -30.375 Z M 23.609375 -7.171875 "/></g></g></g><g fill="#cf4545" fill-opacity="1"><g transform="translate(111.910963, 101.743238)"><g><path d="M 21.890625 0 L 12.875 0 L 11.25 -10.234375 C 10.613281 -10.234375 10.210938 -9.773438 10.046875 -8.859375 L 8.359375 0 L 0.3125 0 L 2.46875 -10.65625 C 3.414062 -15.476562 5.648438 -17.890625 9.171875 -17.890625 L 10.65625 -17.890625 L 10.65625 -25.75 C 10.65625 -26.769531 10.078125 -27.28125 8.921875 -27.28125 L 2.5 -27.28125 L 2.5 -36.921875 L 12.90625 -36.921875 C 17.457031 -36.921875 19.734375 -34.53125 19.734375 -29.75 L 19.734375 -17.34375 C 19.734375 -16.03125 19.769531 -14.820312 19.84375 -13.71875 C 19.914062 -12.613281 20.023438 -11.601562 20.171875 -10.6875 Z M 21.890625 0 "/></g></g></g><g fill="#cf4545" fill-opacity="1"><g transform="translate(134.451993, 101.743238)"><g><path d="M 26.09375 -6.640625 C 26.09375 -2.210938 24.085938 0 20.078125 0 L 13.71875 0 L 13.71875 -9.671875 L 15.625 -9.671875 C 16.5625 -9.671875 17.03125 -10.226562 17.03125 -11.34375 L 17.03125 -25.40625 C 17.03125 -26.53125 16.75 -27.09375 16.1875 -27.09375 C 15.625 -27.09375 15.238281 -26.457031 15.03125 -25.1875 L 10.515625 0 L 1.59375 0 L 5.390625 -20.609375 L 3.609375 -20.609375 C 2.222656 -20.609375 1.53125 -21.296875 1.53125 -22.671875 L 1.53125 -36.921875 L 10.578125 -36.921875 L 10.578125 -23.890625 L 12.375 -31.03125 C 13.375 -34.957031 15.523438 -36.921875 18.828125 -36.921875 L 19.296875 -36.921875 C 23.828125 -36.921875 26.09375 -34.15625 26.09375 -28.625 Z M 26.09375 -6.640625 "/></g></g></g><g fill="#cf4545" fill-opacity="1"><g transform="translate(57.437566, 228.337097)"><g><path d="M 25.53125 0 L 16.53125 0 L 16.53125 -25.53125 C 16.53125 -26.695312 16 -27.28125 14.9375 -27.28125 L 13.71875 -27.28125 C 12.632812 -27.28125 12.09375 -26.695312 12.09375 -25.53125 L 12.09375 -4.421875 C 12.09375 -1.472656 10.859375 0 8.390625 0 L 0.625 0 L 0.625 -9.640625 L 2.1875 -9.640625 C 2.707031 -9.640625 2.96875 -9.867188 2.96875 -10.328125 L 2.96875 -29.84375 C 2.96875 -32.351562 3.453125 -34.160156 4.421875 -35.265625 C 5.398438 -36.367188 7.128906 -36.921875 9.609375 -36.921875 L 19.328125 -36.921875 C 23.460938 -36.921875 25.53125 -34.5625 25.53125 -29.84375 Z M 25.53125 0 "/></g></g></g><g fill="#cf4545" fill-opacity="1"><g transform="translate(84.592802, 228.337097)"><g><path d="M 21.078125 -27.28125 C 19.035156 -27.28125 18.015625 -26.285156 18.015625 -24.296875 L 18.015625 0 L 8.859375 0 L 8.859375 -21.734375 C 8.859375 -24.578125 10.0625 -26.425781 12.46875 -27.28125 L 0.96875 -27.28125 L 0.96875 -36.921875 L 21.078125 -36.921875 Z M 21.078125 -27.28125 "/></g></g></g><g fill="#cf4545" fill-opacity="1"><g transform="translate(107.258539, 228.337097)"><g><path d="M 10.484375 -20.546875 L 1.53125 -20.546875 L 1.53125 -36.921875 L 10.484375 -36.921875 Z M 10.484375 -20.546875 "/></g></g></g><g fill="#cf4545" fill-opacity="1"><g transform="translate(119.324072, 228.337097)"><g><path d="M 24.453125 -9.734375 C 24.453125 -3.242188 21.789062 0 16.46875 0 L 0.96875 0 L 0.96875 -9.640625 L 3.15625 -9.640625 L 3.15625 -36.921875 L 12.15625 -36.921875 L 12.15625 -9.640625 L 13.96875 -9.640625 C 15.007812 -9.640625 15.53125 -10.351562 15.53125 -11.78125 L 15.53125 -36.921875 L 24.453125 -36.921875 Z M 24.453125 -9.734375 "/></g></g></g><g fill="#cf4545" fill-opacity="1"><g transform="translate(145.356934, 228.337097)"><g><path d="M 19.765625 0 L 10.640625 0 L 10.640625 -25.75 C 10.640625 -26.769531 10.109375 -27.28125 9.046875 -27.28125 L 0.96875 -27.28125 L 0.96875 -36.921875 L 13.25 -36.921875 C 15.164062 -36.921875 16.734375 -36.304688 17.953125 -35.078125 C 19.160156 -33.867188 19.765625 -32.300781 19.765625 -30.375 Z M 19.765625 0 "/></g></g></g><g fill="#cf4545" fill-opacity="1"><g transform="translate(60.641205, 294.935389)"><g><path d="M 23.671875 0 L 14.5 0 L 14.5 -25.75 C 14.5 -26.769531 13.976562 -27.28125 12.9375 -27.28125 L 1.59375 -27.28125 L 1.59375 -36.921875 L 17.15625 -36.921875 C 19.0625 -36.921875 20.628906 -36.304688 21.859375 -35.078125 C 23.066406 -33.867188 23.671875 -32.300781 23.671875 -30.375 Z M 10.609375 0 L 1.625 0 L 1.625 -22.890625 L 10.609375 -22.890625 Z M 10.609375 0 "/></g></g></g><g fill="#cf4545" fill-opacity="1"><g transform="translate(85.894634, 294.935389)"><g><path d="M 26.09375 -6.640625 C 26.09375 -2.210938 24.085938 0 20.078125 0 L 13.71875 0 L 13.71875 -9.671875 L 15.625 -9.671875 C 16.5625 -9.671875 17.03125 -10.226562 17.03125 -11.34375 L 17.03125 -25.40625 C 17.03125 -26.53125 16.75 -27.09375 16.1875 -27.09375 C 15.625 -27.09375 15.238281 -26.457031 15.03125 -25.1875 L 10.515625 0 L 1.59375 0 L 5.390625 -20.609375 L 3.609375 -20.609375 C 2.222656 -20.609375 1.53125 -21.296875 1.53125 -22.671875 L 1.53125 -36.921875 L 10.578125 -36.921875 L 10.578125 -23.890625 L 12.375 -31.03125 C 13.375 -34.957031 15.523438 -36.921875 18.828125 -36.921875 L 19.296875 -36.921875 C 23.828125 -36.921875 26.09375 -34.15625 26.09375 -28.625 Z M 26.09375 -6.640625 "/></g></g></g><g fill="#cf4545" fill-opacity="1"><g transform="translate(113.579875, 294.935389)"><g><path d="M 21.078125 -27.28125 C 19.035156 -27.28125 18.015625 -26.285156 18.015625 -24.296875 L 18.015625 0 L 8.859375 0 L 8.859375 -21.734375 C 8.859375 -24.578125 10.0625 -26.425781 12.46875 -27.28125 L 0.96875 -27.28125 L 0.96875 -36.921875 L 21.078125 -36.921875 Z M 21.078125 -27.28125 "/></g></g></g><g fill="#cf4545" fill-opacity="1"><g transform="translate(136.245613, 294.935389)"><g><path d="M 16.71875 0 C 16.445312 -1.457031 15.859375 -3.375 14.953125 -5.75 C 14.046875 -8.132812 12.8125 -11.007812 11.25 -14.375 C 11.082031 -14.1875 10.957031 -14.039062 10.875 -13.9375 C 10.789062 -13.832031 10.738281 -13.769531 10.71875 -13.75 C 10.695312 -13.664062 10.679688 -13.484375 10.671875 -13.203125 C 10.660156 -12.921875 10.65625 -12.53125 10.65625 -12.03125 L 10.65625 0 L 1.65625 0 L 1.65625 -11.03125 C 1.65625 -16.875 3.453125 -20.660156 7.046875 -22.390625 C 3.597656 -29.160156 1.675781 -34.003906 1.28125 -36.921875 L 10.65625 -36.921875 C 11.113281 -34.835938 11.796875 -32.640625 12.703125 -30.328125 C 13.609375 -28.023438 14.75 -25.578125 16.125 -22.984375 C 16.644531 -23.359375 16.90625 -24.125 16.90625 -25.28125 L 16.90625 -36.921875 L 26 -36.921875 L 26 -24.421875 C 26 -22.546875 25.429688 -20.722656 24.296875 -18.953125 C 23.148438 -17.210938 21.734375 -15.882812 20.046875 -14.96875 C 23.929688 -7.238281 25.914062 -2.25 26 0 Z M 16.71875 0 "/></g></g></g></svg>