<svg xmlns="http://www.w3.org/2000/svg" xmlns:xlink="http://www.w3.org/1999/xlink" width="325" zoomAndPan="magnify" viewBox="0 0 243.75 148.499996" height="198" preserveAspectRatio="xMidYMid meet" version="1.0"><defs><g/><clipPath id="ffe228a683"><path d="M 0.285156 0 L 243.214844 0 L 243.214844 107 L 0.285156 107 Z M 0.285156 0 " clip-rule="nonzero"/></clipPath></defs><g clip-path="url(#ffe228a683)"><path stroke-linecap="butt" transform="matrix(0.747483, 0, 0, 0.747483, 12.244145, 5.979873)" fill="none" stroke-linejoin="miter" d="M 27.616105 62.282718 C 27.616105 73.429499 22.280492 79.000277 11.604039 79.000277 L 6.717851 79.000277 L 6.717851 66.928517 L 9.999697 66.928517 C 12.523792 66.928517 14.243104 66.123733 15.157631 64.508939 C 15.805639 63.364473 16.134869 61.368191 16.134869 58.530543 L 16.134869 46.735754 C 16.134869 45.460642 15.481635 44.81786 14.180393 44.81786 L 1.993664 44.81786 L 1.993664 27.008094 L 13.318125 27.008094 L 13.318125 32.751326 L 21.836293 32.751326 C 25.687759 32.751326 27.616105 34.611736 27.616105 38.337781 Z M 42.891324 79.000277 L 31.603444 79.000277 L 31.603444 32.751326 L 42.891324 32.751326 Z M 72.302521 79.000277 L 61.014642 79.000277 L 58.981778 66.186443 C 58.176994 66.186443 57.670085 66.761289 57.46105 67.905754 L 55.349798 79.000277 L 45.274321 79.000277 L 47.97087 65.642953 C 49.167594 59.596621 51.96866 56.576068 56.368843 56.576068 L 58.239705 56.576068 L 58.239705 46.735754 C 58.239705 45.460642 57.513309 44.81786 56.055291 44.81786 L 48.007451 44.81786 L 48.007451 32.751326 L 61.056449 32.751326 C 66.757873 32.751326 69.611198 35.745749 69.611198 41.734597 L 69.611198 57.28156 C 69.611198 58.922484 69.653005 60.43276 69.747071 61.81239 C 69.835911 63.19202 69.971783 64.45668 70.154689 65.601146 Z M 97.888382 79.000277 L 86.443726 79.000277 L 86.443726 46.735754 C 86.443726 45.460642 85.78004 44.81786 84.452669 44.81786 L 74.335385 44.81786 L 74.335385 32.751326 L 89.725572 32.751326 C 92.124247 32.751326 94.089174 33.519529 95.62558 35.055934 C 97.135856 36.566211 97.888382 38.531138 97.888382 40.950716 Z M 131.877441 79.000277 L 120.584336 79.000277 L 120.584336 47.0075 C 120.584336 45.549482 119.92065 44.81786 118.593279 44.81786 L 117.072551 44.81786 C 115.713825 44.81786 115.039688 45.549482 115.039688 47.0075 L 115.039688 73.455629 C 115.039688 77.150319 113.487604 79.000277 110.388663 79.000277 L 100.663319 79.000277 L 100.663319 66.928517 L 102.617794 66.928517 C 103.265802 66.928517 103.595032 66.641094 103.595032 66.071474 L 103.595032 41.619627 C 103.595032 38.468428 104.206459 36.2004 105.429312 34.82077 C 106.652166 33.441141 108.815676 32.751326 111.914617 32.751326 L 124.101346 32.751326 C 129.28541 32.751326 131.877441 35.703942 131.877441 41.619627 Z M 183.592653 79.000277 L 172.304773 79.000277 L 172.304773 47.0075 C 172.304773 45.549482 171.641088 44.81786 170.313716 44.81786 L 168.787762 44.81786 C 167.434262 44.81786 166.760125 45.549482 166.760125 47.0075 L 166.760125 73.455629 C 166.760125 77.150319 165.208041 79.000277 162.1091 79.000277 L 152.383756 79.000277 L 152.383756 66.928517 L 154.338231 66.928517 C 154.986239 66.928517 155.310243 66.641094 155.310243 66.071474 L 155.310243 41.619627 C 155.310243 38.468428 155.926896 36.2004 157.14975 34.82077 C 158.372603 33.441141 160.536113 32.751326 163.635054 32.751326 L 175.821784 32.751326 C 181.000621 32.751326 183.592653 35.703942 183.592653 41.619627 Z M 213.24424 62.282718 C 213.24424 73.429499 207.903401 79.000277 197.226948 79.000277 L 192.345985 79.000277 L 192.345985 66.928517 L 195.622606 66.928517 C 198.151927 66.928517 199.871238 66.123733 200.78054 64.508939 C 201.433773 63.364473 201.757777 61.368191 201.757777 58.530543 L 201.757777 46.735754 C 201.757777 45.460642 201.104544 44.81786 199.803302 44.81786 L 187.616573 44.81786 L 187.616573 27.008094 L 198.946259 27.008094 L 198.946259 32.751326 L 207.459202 32.751326 C 211.315894 32.751326 213.24424 34.611736 213.24424 38.337781 Z M 236.170132 79.000277 C 235.835677 77.176448 235.098829 74.772548 233.964815 71.793802 C 232.830801 68.80983 231.28917 65.209205 229.334694 60.991928 C 229.125659 61.227092 228.968883 61.409998 228.869592 61.540645 C 228.765074 61.671291 228.697138 61.749679 228.671009 61.775809 C 228.644879 61.8751 228.623976 62.105039 228.613524 62.455172 C 228.597847 62.810531 228.592621 63.296537 228.592621 63.923641 L 228.592621 79.000277 L 217.304741 79.000277 L 217.304741 65.172624 C 217.304741 57.856406 219.557091 53.116542 224.061791 50.953032 C 219.739997 42.460993 217.33087 36.393757 216.834413 32.751326 L 228.592621 32.751326 C 229.167466 35.353809 230.019283 38.102617 231.153297 40.992523 C 232.287311 43.882429 233.708748 46.955241 235.428059 50.210958 C 236.081293 49.74063 236.405297 48.77907 236.405297 47.321052 L 236.405297 32.751326 L 247.813371 32.751326 L 247.813371 48.413259 C 247.813371 50.759674 247.097427 53.038154 245.665539 55.248697 C 244.23365 57.438336 242.46208 59.105389 240.350829 60.249855 C 245.22134 69.938618 247.708854 76.188759 247.813371 79.000277 Z M 262.304709 45.873486 L 264.060602 45.873486 C 265.34094 45.873486 265.978496 45.183671 265.978496 43.804041 L 265.978496 32.751326 L 276.404107 32.751326 L 276.404107 45.71671 C 276.404107 51.109808 274.073369 53.806357 269.411893 53.806357 L 262.304709 53.806357 L 262.304709 64.822491 C 262.304709 66.22825 262.890007 66.928517 264.060602 66.928517 L 278.322001 66.928517 C 279.466467 66.928517 280.041313 66.22825 280.041313 64.822491 L 280.041313 32.751326 L 290.979059 32.751326 L 290.979059 68.491052 C 290.979059 71.668381 290.158597 74.197702 288.517674 76.068564 C 286.798363 78.023039 284.363107 79.000277 281.211908 79.000277 L 261.170695 79.000277 C 254.659261 79.000277 251.40877 75.498944 251.40877 68.491052 L 251.40877 32.751326 L 262.304709 32.751326 Z M 262.304709 45.873486 " stroke="#303144" stroke-width="9.800013" stroke-opacity="1" stroke-miterlimit="4"/></g><g fill="#ffcf7e" fill-opacity="1"><g transform="translate(12.244145, 65.031043)"><g><path d="M 20.640625 -12.5 C 20.640625 -4.164062 16.648438 0 8.671875 0 L 5.015625 0 L 5.015625 -9.015625 L 7.46875 -9.015625 C 9.363281 -9.015625 10.648438 -9.617188 11.328125 -10.828125 C 11.816406 -11.679688 12.0625 -13.171875 12.0625 -15.296875 L 12.0625 -24.125 C 12.0625 -25.070312 11.570312 -25.546875 10.59375 -25.546875 L 1.484375 -25.546875 L 1.484375 -38.859375 L 9.953125 -38.859375 L 9.953125 -34.5625 L 16.328125 -34.5625 C 19.203125 -34.5625 20.640625 -33.171875 20.640625 -30.390625 Z M 20.640625 -12.5 "/></g></g><g transform="translate(34.376654, 65.031043)"><g><path d="M 9.921875 0 L 1.484375 0 L 1.484375 -34.5625 L 9.921875 -34.5625 Z M 9.921875 0 "/></g></g><g transform="translate(45.793292, 65.031043)"><g><path d="M 20.5 0 L 12.0625 0 L 10.546875 -9.578125 C 9.941406 -9.578125 9.5625 -9.148438 9.40625 -8.296875 L 7.828125 0 L 0.296875 0 L 2.3125 -9.984375 C 3.207031 -14.503906 5.296875 -16.765625 8.578125 -16.765625 L 9.984375 -16.765625 L 9.984375 -24.125 C 9.984375 -25.070312 9.4375 -25.546875 8.34375 -25.546875 L 2.328125 -25.546875 L 2.328125 -34.5625 L 12.09375 -34.5625 C 16.351562 -34.5625 18.484375 -32.328125 18.484375 -27.859375 L 18.484375 -16.234375 C 18.484375 -15.003906 18.515625 -13.875 18.578125 -12.84375 C 18.648438 -11.8125 18.753906 -10.867188 18.890625 -10.015625 Z M 20.5 0 "/></g></g><g transform="translate(66.903851, 65.031043)"><g><path d="M 18.515625 0 L 9.953125 0 L 9.953125 -24.125 C 9.953125 -25.070312 9.457031 -25.546875 8.46875 -25.546875 L 0.90625 -25.546875 L 0.90625 -34.5625 L 12.40625 -34.5625 C 14.195312 -34.5625 15.664062 -33.988281 16.8125 -32.84375 C 17.945312 -31.71875 18.515625 -30.25 18.515625 -28.4375 Z M 18.515625 0 "/></g></g><g transform="translate(86.904866, 65.031043)"><g><path d="M 23.90625 0 L 15.46875 0 L 15.46875 -23.90625 C 15.46875 -25 14.972656 -25.546875 13.984375 -25.546875 L 12.84375 -25.546875 C 11.832031 -25.546875 11.328125 -25 11.328125 -23.90625 L 11.328125 -4.140625 C 11.328125 -1.378906 10.171875 0 7.859375 0 L 0.578125 0 L 0.578125 -9.015625 L 2.046875 -9.015625 C 2.535156 -9.015625 2.78125 -9.234375 2.78125 -9.671875 L 2.78125 -27.9375 C 2.78125 -30.289062 3.234375 -31.984375 4.140625 -33.015625 C 5.054688 -34.046875 6.675781 -34.5625 9 -34.5625 L 18.109375 -34.5625 C 21.972656 -34.5625 23.90625 -32.351562 23.90625 -27.9375 Z M 23.90625 0 "/></g></g><g transform="translate(112.336813, 65.031043)"><g/></g><g transform="translate(125.563762, 65.031043)"><g><path d="M 23.90625 0 L 15.46875 0 L 15.46875 -23.90625 C 15.46875 -25 14.972656 -25.546875 13.984375 -25.546875 L 12.84375 -25.546875 C 11.832031 -25.546875 11.328125 -25 11.328125 -23.90625 L 11.328125 -4.140625 C 11.328125 -1.378906 10.171875 0 7.859375 0 L 0.578125 0 L 0.578125 -9.015625 L 2.046875 -9.015625 C 2.535156 -9.015625 2.78125 -9.234375 2.78125 -9.671875 L 2.78125 -27.9375 C 2.78125 -30.289062 3.234375 -31.984375 4.140625 -33.015625 C 5.054688 -34.046875 6.675781 -34.5625 9 -34.5625 L 18.109375 -34.5625 C 21.972656 -34.5625 23.90625 -32.351562 23.90625 -27.9375 Z M 23.90625 0 "/></g></g><g transform="translate(150.995709, 65.031043)"><g><path d="M 20.640625 -12.5 C 20.640625 -4.164062 16.648438 0 8.671875 0 L 5.015625 0 L 5.015625 -9.015625 L 7.46875 -9.015625 C 9.363281 -9.015625 10.648438 -9.617188 11.328125 -10.828125 C 11.816406 -11.679688 12.0625 -13.171875 12.0625 -15.296875 L 12.0625 -24.125 C 12.0625 -25.070312 11.570312 -25.546875 10.59375 -25.546875 L 1.484375 -25.546875 L 1.484375 -38.859375 L 9.953125 -38.859375 L 9.953125 -34.5625 L 16.328125 -34.5625 C 19.203125 -34.5625 20.640625 -33.171875 20.640625 -30.390625 Z M 20.640625 -12.5 "/></g></g><g transform="translate(173.128218, 65.031043)"><g><path d="M 15.65625 0 C 15.394531 -1.363281 14.84375 -3.160156 14 -5.390625 C 13.15625 -7.617188 12.003906 -10.304688 10.546875 -13.453125 C 10.390625 -13.285156 10.269531 -13.148438 10.1875 -13.046875 C 10.113281 -12.953125 10.066406 -12.894531 10.046875 -12.875 C 10.023438 -12.800781 10.007812 -12.628906 10 -12.359375 C 9.988281 -12.097656 9.984375 -11.734375 9.984375 -11.265625 L 9.984375 0 L 1.546875 0 L 1.546875 -10.34375 C 1.546875 -15.8125 3.226562 -19.351562 6.59375 -20.96875 C 3.363281 -27.3125 1.566406 -31.84375 1.203125 -34.5625 L 9.984375 -34.5625 C 10.410156 -32.625 11.046875 -30.570312 11.890625 -28.40625 C 12.742188 -26.25 13.8125 -23.953125 15.09375 -21.515625 C 15.582031 -21.867188 15.828125 -22.585938 15.828125 -23.671875 L 15.828125 -34.5625 L 24.34375 -34.5625 L 24.34375 -22.859375 C 24.34375 -21.109375 23.8125 -19.40625 22.75 -17.75 C 21.675781 -16.113281 20.351562 -14.867188 18.78125 -14.015625 C 22.414062 -6.773438 24.269531 -2.101562 24.34375 0 Z M 15.65625 0 "/></g></g><g transform="translate(198.676959, 65.031043)"><g><path d="M 9.640625 -24.765625 L 10.953125 -24.765625 C 11.898438 -24.765625 12.375 -25.28125 12.375 -26.3125 L 12.375 -34.5625 L 20.171875 -34.5625 L 20.171875 -24.875 C 20.171875 -20.84375 18.429688 -18.828125 14.953125 -18.828125 L 9.640625 -18.828125 L 9.640625 -10.59375 C 9.640625 -9.539062 10.078125 -9.015625 10.953125 -9.015625 L 21.609375 -9.015625 C 22.460938 -9.015625 22.890625 -9.539062 22.890625 -10.59375 L 22.890625 -34.5625 L 31.0625 -34.5625 L 31.0625 -7.859375 C 31.0625 -5.484375 30.453125 -3.59375 29.234375 -2.1875 C 27.941406 -0.726562 26.117188 0 23.765625 0 L 8.78125 0 C 3.914062 0 1.484375 -2.617188 1.484375 -7.859375 L 1.484375 -34.5625 L 9.640625 -34.5625 Z M 9.640625 -24.765625 "/></g></g></g><g fill="#242536" fill-opacity="1"><g transform="translate(30.500308, 102.287757)"><g><path d="M 9.25 0 L 0.59375 0 L 0.59375 -11.40625 C 0.59375 -12.269531 0.738281 -12.875 1.03125 -13.21875 C 1.351562 -13.625 1.9375 -13.828125 2.78125 -13.828125 L 6.921875 -13.828125 C 8.472656 -13.828125 9.25 -13.019531 9.25 -11.40625 Z M 5.875 -9.5625 C 5.875 -10 5.675781 -10.21875 5.28125 -10.21875 L 4.625 -10.21875 C 4.226562 -10.21875 4.03125 -10 4.03125 -9.5625 L 4.03125 -3.609375 L 5.875 -3.609375 Z M 5.875 -9.5625 "/></g></g><g transform="translate(40.346063, 102.287757)"><g><path d="M 3.921875 -7.703125 L 0.578125 -7.703125 L 0.578125 -13.828125 L 3.921875 -13.828125 Z M 3.921875 -7.703125 "/></g></g><g transform="translate(44.866, 102.287757)"><g><path d="M 9.15625 -3.640625 C 9.15625 -1.210938 8.160156 0 6.171875 0 L 0.359375 0 L 0.359375 -3.609375 L 1.1875 -3.609375 L 1.1875 -13.828125 L 4.5625 -13.828125 L 4.5625 -3.609375 L 5.234375 -3.609375 C 5.617188 -3.609375 5.8125 -3.878906 5.8125 -4.421875 L 5.8125 -13.828125 L 9.15625 -13.828125 Z M 9.15625 -3.640625 "/></g></g><g transform="translate(54.618319, 102.287757)"><g><path d="M 3.96875 0 L 0.59375 0 L 0.59375 -13.828125 L 3.96875 -13.828125 Z M 3.96875 0 "/></g></g><g transform="translate(59.184974, 102.287757)"><g><path d="M 8.484375 0 L 0.59375 0 L 0.59375 -3.609375 L 3.21875 -3.609375 C 3.988281 -3.609375 4.375 -4.0625 4.375 -4.96875 L 4.375 -9.125 C 4.375 -9.53125 4.300781 -9.8125 4.15625 -9.96875 C 4.019531 -10.132812 3.753906 -10.21875 3.359375 -10.21875 L 0.59375 -10.21875 L 0.59375 -13.828125 L 5.140625 -13.828125 C 6.921875 -13.828125 7.8125 -12.773438 7.8125 -10.671875 L 7.8125 -5.9375 C 7.8125 -4.707031 7.359375 -3.929688 6.453125 -3.609375 L 8.484375 -3.609375 Z M 8.484375 0 "/></g></g><g transform="translate(68.154772, 102.287757)"><g><path d="M 3.921875 -7.703125 L 0.578125 -7.703125 L 0.578125 -13.828125 L 3.921875 -13.828125 Z M 3.921875 -7.703125 "/></g></g><g transform="translate(72.67471, 102.287757)"><g><path d="M 7.40625 0 L 3.984375 0 L 3.984375 -9.640625 C 3.984375 -10.023438 3.785156 -10.21875 3.390625 -10.21875 L 0.359375 -10.21875 L 0.359375 -13.828125 L 4.96875 -13.828125 C 5.675781 -13.828125 6.265625 -13.597656 6.734375 -13.140625 C 7.179688 -12.691406 7.40625 -12.101562 7.40625 -11.375 Z M 7.40625 0 "/></g></g><g transform="translate(80.675115, 102.287757)"><g><path d="M 8.859375 0 L 5.4375 0 L 5.4375 -9.640625 C 5.4375 -10.023438 5.238281 -10.21875 4.84375 -10.21875 L 0.59375 -10.21875 L 0.59375 -13.828125 L 6.421875 -13.828125 C 7.140625 -13.828125 7.726562 -13.597656 8.1875 -13.140625 C 8.632812 -12.691406 8.859375 -12.101562 8.859375 -11.375 Z M 3.96875 0 L 0.609375 0 L 0.609375 -8.578125 L 3.96875 -8.578125 Z M 3.96875 0 "/></g></g><g transform="translate(90.135449, 102.287757)"><g><path d="M 9.78125 -2.484375 C 9.78125 -0.828125 9.023438 0 7.515625 0 L 5.140625 0 L 5.140625 -3.625 L 5.859375 -3.625 C 6.203125 -3.625 6.375 -3.832031 6.375 -4.25 L 6.375 -9.515625 C 6.375 -9.941406 6.269531 -10.15625 6.0625 -10.15625 C 5.851562 -10.15625 5.707031 -9.914062 5.625 -9.4375 L 3.9375 0 L 0.59375 0 L 2.015625 -7.71875 L 1.359375 -7.71875 C 0.835938 -7.71875 0.578125 -7.972656 0.578125 -8.484375 L 0.578125 -13.828125 L 3.953125 -13.828125 L 3.953125 -8.953125 L 4.640625 -11.625 C 5.015625 -13.09375 5.820312 -13.828125 7.0625 -13.828125 L 7.234375 -13.828125 C 8.929688 -13.828125 9.78125 -12.789062 9.78125 -10.71875 Z M 9.78125 -2.484375 "/></g></g><g transform="translate(100.506778, 102.287757)"><g/></g><g transform="translate(105.797558, 102.287757)"><g><path d="M 7.890625 -10.21875 C 7.128906 -10.21875 6.75 -9.84375 6.75 -9.09375 L 6.75 0 L 3.3125 0 L 3.3125 -8.140625 C 3.3125 -9.203125 3.765625 -9.894531 4.671875 -10.21875 L 0.359375 -10.21875 L 0.359375 -13.828125 L 7.890625 -13.828125 Z M 7.890625 -10.21875 "/></g></g><g transform="translate(114.288499, 102.287757)"><g><path d="M 9.015625 0 L 5.625 0 L 5.625 -9.5625 C 5.625 -10 5.425781 -10.21875 5.03125 -10.21875 L 4.625 -10.21875 C 4.226562 -10.21875 4.03125 -10 4.03125 -9.5625 L 4.03125 0 L 0.59375 0 L 0.59375 -11.40625 C 0.59375 -12.269531 0.738281 -12.875 1.03125 -13.21875 C 1.351562 -13.625 1.9375 -13.828125 2.78125 -13.828125 L 6.6875 -13.828125 C 8.238281 -13.828125 9.015625 -13.019531 9.015625 -11.40625 Z M 9.015625 0 "/></g></g><g transform="translate(123.900666, 102.287757)"><g><path d="M 6.265625 0 C 6.160156 -0.539062 5.9375 -1.257812 5.59375 -2.15625 C 5.257812 -3.050781 4.800781 -4.128906 4.21875 -5.390625 C 4.15625 -5.316406 4.109375 -5.257812 4.078125 -5.21875 C 4.046875 -5.175781 4.023438 -5.15625 4.015625 -5.15625 C 4.003906 -5.125 4 -5.050781 4 -4.9375 C 4 -4.832031 4 -4.691406 4 -4.515625 L 4 0 L 0.625 0 L 0.625 -4.140625 C 0.625 -6.328125 1.296875 -7.742188 2.640625 -8.390625 C 1.347656 -10.921875 0.628906 -12.734375 0.484375 -13.828125 L 4 -13.828125 C 4.164062 -13.046875 4.414062 -12.222656 4.75 -11.359375 C 5.09375 -10.492188 5.519531 -9.578125 6.03125 -8.609375 C 6.226562 -8.742188 6.328125 -9.03125 6.328125 -9.46875 L 6.328125 -13.828125 L 9.734375 -13.828125 L 9.734375 -9.140625 C 9.734375 -8.441406 9.519531 -7.765625 9.09375 -7.109375 C 8.664062 -6.453125 8.140625 -5.953125 7.515625 -5.609375 C 8.960938 -2.710938 9.703125 -0.84375 9.734375 0 Z M 6.265625 0 "/></g></g><g transform="translate(134.120162, 102.287757)"><g/></g><g transform="translate(139.410941, 102.287757)"><g><path d="M 8.265625 -5 C 8.265625 -1.664062 6.664062 0 3.46875 0 L 2.015625 0 L 2.015625 -3.609375 L 2.984375 -3.609375 C 3.742188 -3.609375 4.257812 -3.847656 4.53125 -4.328125 C 4.726562 -4.671875 4.828125 -5.269531 4.828125 -6.125 L 4.828125 -9.640625 C 4.828125 -10.023438 4.628906 -10.21875 4.234375 -10.21875 L 0.59375 -10.21875 L 0.59375 -15.546875 L 3.984375 -15.546875 L 3.984375 -13.828125 L 6.53125 -13.828125 C 7.6875 -13.828125 8.265625 -13.269531 8.265625 -12.15625 Z M 8.265625 -5 "/></g></g><g transform="translate(148.263945, 102.287757)"><g><path d="M 7.921875 -3.40625 C 7.921875 -1.132812 6.847656 0 4.703125 0 L 0.59375 0 L 0.59375 -3.609375 L 3.453125 -3.609375 C 4.160156 -3.609375 4.515625 -3.941406 4.515625 -4.609375 L 4.515625 -9.234375 C 4.515625 -9.890625 4.160156 -10.21875 3.453125 -10.21875 L 0.59375 -10.21875 L 0.59375 -13.828125 L 4.703125 -13.828125 C 6.847656 -13.828125 7.921875 -12.691406 7.921875 -10.421875 Z M 7.921875 -3.40625 "/></g></g><g transform="translate(156.778246, 102.287757)"><g/></g><g transform="translate(162.069025, 102.287757)"><g><path d="M 9.5625 0 L 6.1875 0 L 6.1875 -9.5625 C 6.1875 -10 5.988281 -10.21875 5.59375 -10.21875 L 5.140625 -10.21875 C 4.734375 -10.21875 4.53125 -10 4.53125 -9.5625 L 4.53125 -1.65625 C 4.53125 -0.550781 4.066406 0 3.140625 0 L 0.234375 0 L 0.234375 -3.609375 L 0.8125 -3.609375 C 1.007812 -3.609375 1.109375 -3.691406 1.109375 -3.859375 L 1.109375 -11.171875 C 1.109375 -12.117188 1.289062 -12.796875 1.65625 -13.203125 C 2.019531 -13.617188 2.664062 -13.828125 3.59375 -13.828125 L 7.234375 -13.828125 C 8.785156 -13.828125 9.5625 -12.941406 9.5625 -11.171875 Z M 9.5625 0 "/></g></g><g transform="translate(172.241804, 102.287757)"><g><path d="M 6.265625 0 C 6.160156 -0.539062 5.9375 -1.257812 5.59375 -2.15625 C 5.257812 -3.050781 4.800781 -4.128906 4.21875 -5.390625 C 4.15625 -5.316406 4.109375 -5.257812 4.078125 -5.21875 C 4.046875 -5.175781 4.023438 -5.15625 4.015625 -5.15625 C 4.003906 -5.125 4 -5.050781 4 -4.9375 C 4 -4.832031 4 -4.691406 4 -4.515625 L 4 0 L 0.625 0 L 0.625 -4.140625 C 0.625 -6.328125 1.296875 -7.742188 2.640625 -8.390625 C 1.347656 -10.921875 0.628906 -12.734375 0.484375 -13.828125 L 4 -13.828125 C 4.164062 -13.046875 4.414062 -12.222656 4.75 -11.359375 C 5.09375 -10.492188 5.519531 -9.578125 6.03125 -8.609375 C 6.226562 -8.742188 6.328125 -9.03125 6.328125 -9.46875 L 6.328125 -13.828125 L 9.734375 -13.828125 L 9.734375 -9.140625 C 9.734375 -8.441406 9.519531 -7.765625 9.09375 -7.109375 C 8.664062 -6.453125 8.140625 -5.953125 7.515625 -5.609375 C 8.960938 -2.710938 9.703125 -0.84375 9.734375 0 Z M 6.265625 0 "/></g></g><g transform="translate(182.4613, 102.287757)"><g/></g><g transform="translate(187.75208, 102.287757)"><g><path d="M 3.96875 0 L 0.59375 0 L 0.59375 -13.828125 L 3.96875 -13.828125 Z M 3.96875 0 "/></g></g><g transform="translate(192.318735, 102.287757)"><g><path d="M 7.40625 0 L 3.984375 0 L 3.984375 -9.640625 C 3.984375 -10.023438 3.785156 -10.21875 3.390625 -10.21875 L 0.359375 -10.21875 L 0.359375 -13.828125 L 4.96875 -13.828125 C 5.675781 -13.828125 6.265625 -13.597656 6.734375 -13.140625 C 7.179688 -12.691406 7.40625 -12.101562 7.40625 -11.375 Z M 7.40625 0 "/></g></g><g transform="translate(200.31914, 102.287757)"><g><path d="M 7.40625 0 L 3.984375 0 L 3.984375 -9.640625 C 3.984375 -10.023438 3.785156 -10.21875 3.390625 -10.21875 L 0.359375 -10.21875 L 0.359375 -13.828125 L 4.96875 -13.828125 C 5.675781 -13.828125 6.265625 -13.597656 6.734375 -13.140625 C 7.179688 -12.691406 7.40625 -12.101562 7.40625 -11.375 Z M 7.40625 0 "/></g></g><g transform="translate(208.319546, 102.287757)"><g><path d="M 8.203125 0 L 4.828125 0 L 4.21875 -3.828125 C 3.976562 -3.828125 3.828125 -3.65625 3.765625 -3.3125 L 3.125 0 L 0.109375 0 L 0.921875 -4 C 1.273438 -5.800781 2.113281 -6.703125 3.4375 -6.703125 L 4 -6.703125 L 4 -9.640625 C 4 -10.023438 3.78125 -10.21875 3.34375 -10.21875 L 0.9375 -10.21875 L 0.9375 -13.828125 L 4.828125 -13.828125 C 6.535156 -13.828125 7.390625 -12.929688 7.390625 -11.140625 L 7.390625 -6.5 C 7.390625 -6.007812 7.398438 -5.554688 7.421875 -5.140625 C 7.453125 -4.722656 7.5 -4.34375 7.5625 -4 Z M 8.203125 0 "/></g></g></g><g fill="#242536" fill-opacity="1"><g transform="translate(52.305793, 135.177016)"><g><path d="M 7.40625 1.96875 L 3.984375 1.96875 L 3.984375 -9.640625 C 3.984375 -10.023438 3.785156 -10.21875 3.390625 -10.21875 L 0.359375 -10.21875 L 0.359375 -13.828125 L 4.96875 -13.828125 C 5.675781 -13.828125 6.265625 -13.597656 6.734375 -13.140625 C 7.179688 -12.691406 7.40625 -12.101562 7.40625 -11.375 Z M 7.40625 1.96875 "/></g></g><g transform="translate(60.306199, 135.177016)"><g><path d="M 3.921875 -7.703125 L 0.578125 -7.703125 L 0.578125 -13.828125 L 3.921875 -13.828125 Z M 3.921875 -7.703125 "/></g></g><g transform="translate(64.826137, 135.177016)"><g><path d="M 3.921875 -7.703125 L 0.578125 -7.703125 L 0.578125 -13.828125 L 3.921875 -13.828125 Z M 3.921875 -7.703125 "/></g></g><g transform="translate(69.346074, 135.177016)"><g><path d="M 3.859375 -9.90625 L 4.375 -9.90625 C 4.757812 -9.90625 4.953125 -10.113281 4.953125 -10.53125 L 4.953125 -13.828125 L 8.078125 -13.828125 L 8.078125 -9.953125 C 8.078125 -8.335938 7.378906 -7.53125 5.984375 -7.53125 L 3.859375 -7.53125 L 3.859375 -4.234375 C 3.859375 -3.816406 4.03125 -3.609375 4.375 -3.609375 L 8.640625 -3.609375 C 8.984375 -3.609375 9.15625 -3.816406 9.15625 -4.234375 L 9.15625 -13.828125 L 12.421875 -13.828125 L 12.421875 -3.140625 C 12.421875 -2.191406 12.175781 -1.4375 11.6875 -0.875 C 11.175781 -0.289062 10.453125 0 9.515625 0 L 3.515625 0 C 1.566406 0 0.59375 -1.046875 0.59375 -3.140625 L 0.59375 -13.828125 L 3.859375 -13.828125 Z M 3.859375 -9.90625 "/></g></g><g transform="translate(82.368632, 135.177016)"><g/></g><g transform="translate(87.659411, 135.177016)"><g><path d="M 6.265625 0 C 6.160156 -0.539062 5.9375 -1.257812 5.59375 -2.15625 C 5.257812 -3.050781 4.800781 -4.128906 4.21875 -5.390625 C 4.15625 -5.316406 4.109375 -5.257812 4.078125 -5.21875 C 4.046875 -5.175781 4.023438 -5.15625 4.015625 -5.15625 C 4.003906 -5.125 4 -5.050781 4 -4.9375 C 4 -4.832031 4 -4.691406 4 -4.515625 L 4 0 L 0.625 0 L 0.625 -4.140625 C 0.625 -6.328125 1.296875 -7.742188 2.640625 -8.390625 C 1.347656 -10.921875 0.628906 -12.734375 0.484375 -13.828125 L 4 -13.828125 C 4.164062 -13.046875 4.414062 -12.222656 4.75 -11.359375 C 5.09375 -10.492188 5.519531 -9.578125 6.03125 -8.609375 C 6.226562 -8.742188 6.328125 -9.03125 6.328125 -9.46875 L 6.328125 -13.828125 L 9.734375 -13.828125 L 9.734375 -9.140625 C 9.734375 -8.441406 9.519531 -7.765625 9.09375 -7.109375 C 8.664062 -6.453125 8.140625 -5.953125 7.515625 -5.609375 C 8.960938 -2.710938 9.703125 -0.84375 9.734375 0 Z M 6.265625 0 "/></g></g><g transform="translate(97.878908, 135.177016)"><g><path d="M 3.96875 0 L 0.59375 0 L 0.59375 -13.828125 L 3.96875 -13.828125 Z M 3.96875 0 "/></g></g><g transform="translate(102.445563, 135.177016)"><g><path d="M 8.859375 0 L 5.4375 0 L 5.4375 -9.640625 C 5.4375 -10.023438 5.238281 -10.21875 4.84375 -10.21875 L 0.59375 -10.21875 L 0.59375 -13.828125 L 6.421875 -13.828125 C 7.140625 -13.828125 7.726562 -13.597656 8.1875 -13.140625 C 8.632812 -12.691406 8.859375 -12.101562 8.859375 -11.375 Z M 3.96875 0 L 0.609375 0 L 0.609375 -8.578125 L 3.96875 -8.578125 Z M 3.96875 0 "/></g></g><g transform="translate(111.905897, 135.177016)"><g/></g><g transform="translate(117.196676, 135.177016)"><g><path d="M 3.96875 0 L 0.59375 0 L 0.59375 -13.828125 L 3.96875 -13.828125 Z M 3.96875 0 "/></g></g><g transform="translate(121.763331, 135.177016)"><g><path d="M 3.921875 -7.703125 L 0.578125 -7.703125 L 0.578125 -13.828125 L 3.921875 -13.828125 Z M 3.921875 -7.703125 "/></g></g><g transform="translate(126.283268, 135.177016)"><g><path d="M 8.265625 -5 C 8.265625 -1.664062 6.664062 0 3.46875 0 L 2.015625 0 L 2.015625 -3.609375 L 2.984375 -3.609375 C 3.742188 -3.609375 4.257812 -3.847656 4.53125 -4.328125 C 4.726562 -4.671875 4.828125 -5.269531 4.828125 -6.125 L 4.828125 -9.640625 C 4.828125 -10.023438 4.628906 -10.21875 4.234375 -10.21875 L 0.59375 -10.21875 L 0.59375 -15.546875 L 3.984375 -15.546875 L 3.984375 -13.828125 L 6.53125 -13.828125 C 7.6875 -13.828125 8.265625 -13.269531 8.265625 -12.15625 Z M 8.265625 -5 "/></g></g><g transform="translate(135.136272, 135.177016)"><g><path d="M 6.265625 0 C 6.160156 -0.539062 5.9375 -1.257812 5.59375 -2.15625 C 5.257812 -3.050781 4.800781 -4.128906 4.21875 -5.390625 C 4.15625 -5.316406 4.109375 -5.257812 4.078125 -5.21875 C 4.046875 -5.175781 4.023438 -5.15625 4.015625 -5.15625 C 4.003906 -5.125 4 -5.050781 4 -4.9375 C 4 -4.832031 4 -4.691406 4 -4.515625 L 4 0 L 0.625 0 L 0.625 -4.140625 C 0.625 -6.328125 1.296875 -7.742188 2.640625 -8.390625 C 1.347656 -10.921875 0.628906 -12.734375 0.484375 -13.828125 L 4 -13.828125 C 4.164062 -13.046875 4.414062 -12.222656 4.75 -11.359375 C 5.09375 -10.492188 5.519531 -9.578125 6.03125 -8.609375 C 6.226562 -8.742188 6.328125 -9.03125 6.328125 -9.46875 L 6.328125 -13.828125 L 9.734375 -13.828125 L 9.734375 -9.140625 C 9.734375 -8.441406 9.519531 -7.765625 9.09375 -7.109375 C 8.664062 -6.453125 8.140625 -5.953125 7.515625 -5.609375 C 8.960938 -2.710938 9.703125 -0.84375 9.734375 0 Z M 6.265625 0 "/></g></g><g transform="translate(145.355768, 135.177016)"><g><path d="M 3.859375 -9.90625 L 4.375 -9.90625 C 4.757812 -9.90625 4.953125 -10.113281 4.953125 -10.53125 L 4.953125 -13.828125 L 8.078125 -13.828125 L 8.078125 -9.953125 C 8.078125 -8.335938 7.378906 -7.53125 5.984375 -7.53125 L 3.859375 -7.53125 L 3.859375 -4.234375 C 3.859375 -3.816406 4.03125 -3.609375 4.375 -3.609375 L 8.640625 -3.609375 C 8.984375 -3.609375 9.15625 -3.816406 9.15625 -4.234375 L 9.15625 -13.828125 L 12.421875 -13.828125 L 12.421875 -3.140625 C 12.421875 -2.191406 12.175781 -1.4375 11.6875 -0.875 C 11.175781 -0.289062 10.453125 0 9.515625 0 L 3.515625 0 C 1.566406 0 0.59375 -1.046875 0.59375 -3.140625 L 0.59375 -13.828125 L 3.859375 -13.828125 Z M 3.859375 -9.90625 "/></g></g><g transform="translate(158.378327, 135.177016)"><g/></g><g transform="translate(163.669106, 135.177016)"><g><path d="M 8.828125 1.96875 L 5.46875 1.96875 L 5.46875 -9.640625 C 5.46875 -10.023438 5.273438 -10.21875 4.890625 -10.21875 L 4.5 -10.21875 C 4.175781 -10.21875 4.015625 -10.019531 4.015625 -9.625 L 4.015625 -7.59375 L 0.59375 -7.59375 L 0.59375 -11.375 C 0.59375 -13.007812 1.460938 -13.828125 3.203125 -13.828125 L 6.171875 -13.828125 C 6.898438 -13.828125 7.519531 -13.601562 8.03125 -13.15625 C 8.5625 -12.695312 8.828125 -12.101562 8.828125 -11.375 Z M 8.828125 1.96875 "/></g></g><g transform="translate(173.094402, 135.177016)"><g><path d="M 3.96875 0 L 0.59375 0 L 0.59375 -13.828125 L 3.96875 -13.828125 Z M 3.96875 0 "/></g></g><g transform="translate(177.661057, 135.177016)"><g><path d="M 8.203125 0 L 4.828125 0 L 4.21875 -3.828125 C 3.976562 -3.828125 3.828125 -3.65625 3.765625 -3.3125 L 3.125 0 L 0.109375 0 L 0.921875 -4 C 1.273438 -5.800781 2.113281 -6.703125 3.4375 -6.703125 L 4 -6.703125 L 4 -9.640625 C 4 -10.023438 3.78125 -10.21875 3.34375 -10.21875 L 0.9375 -10.21875 L 0.9375 -13.828125 L 4.828125 -13.828125 C 6.535156 -13.828125 7.390625 -12.929688 7.390625 -11.140625 L 7.390625 -6.5 C 7.390625 -6.007812 7.398438 -5.554688 7.421875 -5.140625 C 7.453125 -4.722656 7.5 -4.34375 7.5625 -4 Z M 8.203125 0 "/></g></g><g transform="translate(186.10528, 135.177016)"><g><path d="M 8.265625 -5 C 8.265625 -1.664062 6.664062 0 3.46875 0 L 2.015625 0 L 2.015625 -3.609375 L 2.984375 -3.609375 C 3.742188 -3.609375 4.257812 -3.847656 4.53125 -4.328125 C 4.726562 -4.671875 4.828125 -5.269531 4.828125 -6.125 L 4.828125 -9.640625 C 4.828125 -10.023438 4.628906 -10.21875 4.234375 -10.21875 L 0.59375 -10.21875 L 0.59375 -15.546875 L 3.984375 -15.546875 L 3.984375 -13.828125 L 6.53125 -13.828125 C 7.6875 -13.828125 8.265625 -13.269531 8.265625 -12.15625 Z M 8.265625 -5 "/></g></g></g></svg>