<svg xmlns="http://www.w3.org/2000/svg" xmlns:xlink="http://www.w3.org/1999/xlink" width="999" zoomAndPan="magnify" viewBox="0 0 749.25 374.999991" height="500" preserveAspectRatio="xMidYMid meet" version="1.0"><defs><g/><clipPath id="5bfc05ff4d"><path d="M 534 1 L 569 1 L 569 374.8125 L 534 374.8125 Z M 534 1 " clip-rule="nonzero"/></clipPath></defs><g fill="#242536" fill-opacity="1"><g transform="translate(612.812299, 284.641886)"><g><path d="M 19.796875 5.25 L 10.640625 5.25 L 10.640625 -25.78125 C 10.640625 -26.800781 10.109375 -27.3125 9.046875 -27.3125 L 0.96875 -27.3125 L 0.96875 -36.96875 L 13.265625 -36.96875 C 15.179688 -36.96875 16.753906 -36.351562 17.984375 -35.125 C 19.191406 -33.914062 19.796875 -32.34375 19.796875 -30.40625 Z M 19.796875 5.25 "/></g></g></g><g fill="#242536" fill-opacity="1"><g transform="translate(634.195842, 284.641886)"><g><path d="M 10.484375 -20.578125 L 1.53125 -20.578125 L 1.53125 -36.96875 L 10.484375 -36.96875 Z M 10.484375 -20.578125 "/></g></g></g><g fill="#242536" fill-opacity="1"><g transform="translate(646.276766, 284.641886)"><g><path d="M 16.734375 0 C 16.460938 -1.457031 15.875 -3.375 14.96875 -5.75 C 14.0625 -8.132812 12.828125 -11.015625 11.265625 -14.390625 C 11.097656 -14.203125 10.972656 -14.054688 10.890625 -13.953125 C 10.804688 -13.847656 10.753906 -13.785156 10.734375 -13.765625 C 10.710938 -13.679688 10.695312 -13.5 10.6875 -13.21875 C 10.675781 -12.9375 10.671875 -12.546875 10.671875 -12.046875 L 10.671875 0 L 1.65625 0 L 1.65625 -11.046875 C 1.65625 -16.898438 3.457031 -20.691406 7.0625 -22.421875 C 3.601562 -29.203125 1.675781 -34.050781 1.28125 -36.96875 L 10.671875 -36.96875 C 11.128906 -34.882812 11.8125 -32.6875 12.71875 -30.375 C 13.625 -28.0625 14.765625 -25.609375 16.140625 -23.015625 C 16.660156 -23.390625 16.921875 -24.15625 16.921875 -25.3125 L 16.921875 -36.96875 L 26.03125 -36.96875 L 26.03125 -24.4375 C 26.03125 -22.570312 25.457031 -20.753906 24.3125 -18.984375 C 23.175781 -17.234375 21.765625 -15.898438 20.078125 -14.984375 C 23.960938 -7.242188 25.945312 -2.25 26.03125 0 Z M 16.734375 0 "/></g></g></g><g fill="#242536" fill-opacity="1"><g transform="translate(570.526504, 340.835634)"><g><path d="M 26.3125 -31.09375 C 26.3125 -28.757812 25.5625 -26.582031 24.0625 -24.5625 L 21.453125 -21.015625 C 19.347656 -18.160156 18.296875 -15.898438 18.296875 -14.234375 L 18.296875 -12.328125 L 9.765625 -12.328125 L 9.765625 -17.109375 C 9.765625 -19.335938 11.148438 -22.1875 13.921875 -25.65625 L 16.328125 -28.6875 C 16.890625 -29.394531 17.171875 -30.0625 17.171875 -30.6875 C 17.171875 -31.539062 16.742188 -31.96875 15.890625 -31.96875 C 15.140625 -31.96875 14.441406 -31.582031 13.796875 -30.8125 L 11.546875 -28.25 L 4.65625 -34.15625 L 7.875 -37.84375 C 10.175781 -40.476562 12.890625 -41.796875 16.015625 -41.796875 C 18.367188 -41.796875 20.554688 -40.914062 22.578125 -39.15625 C 25.066406 -36.96875 26.3125 -34.28125 26.3125 -31.09375 Z M 18.296875 0 L 9.765625 0 L 9.765625 -9.140625 L 18.296875 -9.140625 Z M 18.296875 0 "/></g></g></g><g fill="#242536" fill-opacity="1"><g transform="translate(599.526956, 340.835634)"><g><path d="M 22.078125 -13.359375 C 22.078125 -4.453125 17.804688 0 9.265625 0 L 5.375 0 L 5.375 -9.640625 L 8 -9.640625 C 10.007812 -9.640625 11.378906 -10.285156 12.109375 -11.578125 C 12.628906 -12.492188 12.890625 -14.085938 12.890625 -16.359375 L 12.890625 -25.78125 C 12.890625 -26.800781 12.367188 -27.3125 11.328125 -27.3125 L 1.59375 -27.3125 L 1.59375 -41.546875 L 10.640625 -41.546875 L 10.640625 -36.96875 L 17.453125 -36.96875 C 20.535156 -36.96875 22.078125 -35.476562 22.078125 -32.5 Z M 22.078125 -13.359375 "/></g></g></g><g fill="#242536" fill-opacity="1"><g transform="translate(623.189324, 340.835634)"><g><path d="M 10.484375 -20.578125 L 1.53125 -20.578125 L 1.53125 -36.96875 L 10.484375 -36.96875 Z M 10.484375 -20.578125 "/></g></g></g><g fill="#242536" fill-opacity="1"><g transform="translate(635.270248, 340.835634)"><g><path d="M 24.09375 0 L 15.046875 0 L 15.046875 -25.5625 C 15.046875 -26.726562 14.515625 -27.3125 13.453125 -27.3125 L 12.359375 -27.3125 C 11.296875 -27.3125 10.765625 -26.726562 10.765625 -25.5625 L 10.765625 0 L 1.59375 0 L 1.59375 -30.5 C 1.59375 -32.8125 1.976562 -34.425781 2.75 -35.34375 C 3.625 -36.425781 5.1875 -36.96875 7.4375 -36.96875 L 17.859375 -36.96875 C 22.015625 -36.96875 24.09375 -34.8125 24.09375 -30.5 Z M 24.09375 0 "/></g></g></g><g fill="#242536" fill-opacity="1"><g transform="translate(660.961715, 340.835634)"><g><path d="M 25.5625 0 L 16.546875 0 L 16.546875 -25.5625 C 16.546875 -26.726562 16.015625 -27.3125 14.953125 -27.3125 L 13.734375 -27.3125 C 12.648438 -27.3125 12.109375 -26.726562 12.109375 -25.5625 L 12.109375 -4.4375 C 12.109375 -1.476562 10.867188 0 8.390625 0 L 0.625 0 L 0.625 -9.640625 L 2.1875 -9.640625 C 2.707031 -9.640625 2.96875 -9.867188 2.96875 -10.328125 L 2.96875 -29.875 C 2.96875 -32.394531 3.457031 -34.207031 4.4375 -35.3125 C 5.414062 -36.414062 7.140625 -36.96875 9.609375 -36.96875 L 19.359375 -36.96875 C 23.492188 -36.96875 25.5625 -34.601562 25.5625 -29.875 Z M 25.5625 0 "/></g></g></g><g fill="#242536" fill-opacity="1"><g transform="translate(688.151591, 340.835634)"><g><path d="M 26.125 -6.65625 C 26.125 -2.21875 24.117188 0 20.109375 0 L 13.734375 0 L 13.734375 -9.671875 L 15.640625 -9.671875 C 16.578125 -9.671875 17.046875 -10.234375 17.046875 -11.359375 L 17.046875 -25.4375 C 17.046875 -26.5625 16.765625 -27.125 16.203125 -27.125 C 15.640625 -27.125 15.253906 -26.488281 15.046875 -25.21875 L 10.515625 0 L 1.59375 0 L 5.40625 -20.640625 L 3.625 -20.640625 C 2.226562 -20.640625 1.53125 -21.328125 1.53125 -22.703125 L 1.53125 -36.96875 L 10.578125 -36.96875 L 10.578125 -23.921875 L 12.390625 -31.0625 C 13.390625 -35 15.546875 -36.96875 18.859375 -36.96875 L 19.328125 -36.96875 C 23.859375 -36.96875 26.125 -34.195312 26.125 -28.65625 Z M 26.125 -6.65625 "/></g></g></g><path stroke-linecap="butt" transform="matrix(0.749248, 0.00156924, -0.00156924, 0.749248, 0.00627694, 229.592369)" fill="none" stroke-linejoin="miter" d="M 0.00102189 1.998634 L 954.916421 2.000643 " stroke="#cf4545" stroke-width="4" stroke-opacity="1" stroke-miterlimit="4"/><path stroke-linecap="butt" transform="matrix(0.749248, 0.00156924, -0.00156924, 0.749248, 0.413656, 119.371084)" fill="none" stroke-linejoin="miter" d="M -0.000477348 2.002021 L 954.920124 1.998805 " stroke="#cf4545" stroke-width="4" stroke-opacity="1" stroke-miterlimit="4"/><g clip-path="url(#5bfc05ff4d)"><path stroke-linecap="butt" transform="matrix(0.000671451, -0.74925, 0.74925, 0.000671451, 550.167803, 363.594892)" fill="none" stroke-linejoin="miter" d="M -0.0018956 2.002226 L 460.229364 2.001654 " stroke="#cf4545" stroke-width="4" stroke-opacity="1" stroke-miterlimit="4"/></g><g fill="#242536" fill-opacity="1"><g transform="translate(616.435881, 86.054416)"><g><path d="M 10.609375 5.3125 L 1.59375 5.3125 L 1.59375 -36.96875 L 10.609375 -36.96875 Z M 10.609375 5.3125 "/></g></g></g><g fill="#242536" fill-opacity="1"><g transform="translate(628.641673, 86.054416)"><g><path d="M 26.125 -6.65625 C 26.125 -2.21875 24.117188 0 20.109375 0 L 13.734375 0 L 13.734375 -9.671875 L 15.640625 -9.671875 C 16.578125 -9.671875 17.046875 -10.234375 17.046875 -11.359375 L 17.046875 -25.4375 C 17.046875 -26.5625 16.765625 -27.125 16.203125 -27.125 C 15.640625 -27.125 15.253906 -26.488281 15.046875 -25.21875 L 10.515625 0 L 1.59375 0 L 5.40625 -20.640625 L 3.625 -20.640625 C 2.226562 -20.640625 1.53125 -21.328125 1.53125 -22.703125 L 1.53125 -36.96875 L 10.578125 -36.96875 L 10.578125 -23.921875 L 12.390625 -31.0625 C 13.390625 -35 15.546875 -36.96875 18.859375 -36.96875 L 19.328125 -36.96875 C 23.859375 -36.96875 26.125 -34.195312 26.125 -28.65625 Z M 26.125 -6.65625 "/></g></g></g><g fill="#242536" fill-opacity="1"><g transform="translate(656.36223, 86.054416)"><g><path d="M 13.859375 -27.3125 L 13.734375 -27.3125 C 12.296875 -27.3125 11.578125 -26.28125 11.578125 -24.21875 L 11.578125 0 L 2.625 0 L 2.625 -22.421875 C 2.625 -25.097656 3.476562 -26.726562 5.1875 -27.3125 L 1.28125 -27.3125 L 1.28125 -36.96875 L 13.859375 -36.96875 Z M 13.859375 -27.3125 "/></g></g></g><g fill="#242536" fill-opacity="1"><g transform="translate(598.055179, 193.892744)"><g><path d="M 24.71875 0 L 1.59375 0 L 1.59375 -30.5 C 1.59375 -32.8125 1.976562 -34.425781 2.75 -35.34375 C 3.625 -36.425781 5.1875 -36.96875 7.4375 -36.96875 L 18.484375 -36.96875 C 22.640625 -36.96875 24.71875 -34.8125 24.71875 -30.5 Z M 15.703125 -25.5625 C 15.703125 -26.726562 15.171875 -27.3125 14.109375 -27.3125 L 12.359375 -27.3125 C 11.296875 -27.3125 10.765625 -26.726562 10.765625 -25.5625 L 10.765625 -9.640625 L 15.703125 -9.640625 Z M 15.703125 -25.5625 "/></g></g></g><g fill="#242536" fill-opacity="1"><g transform="translate(624.370984, 193.892744)"><g><path d="M 10.609375 0 L 1.59375 0 L 1.59375 -36.96875 L 10.609375 -36.96875 Z M 10.609375 0 "/></g></g></g><g fill="#242536" fill-opacity="1"><g transform="translate(636.576775, 193.892744)"><g><path d="M 23.953125 -11.421875 C 23.953125 -7.660156 23.335938 -4.882812 22.109375 -3.09375 C 20.609375 -0.96875 18.054688 0.09375 14.453125 0.09375 C 13.804688 0.09375 13.128906 0.0625 12.421875 0 L 12.421875 -9.640625 C 14.003906 -9.640625 14.796875 -10.804688 14.796875 -13.140625 L 14.796875 -25.78125 C 14.796875 -26.800781 14.265625 -27.3125 13.203125 -27.3125 L 1.59375 -27.3125 L 1.59375 -36.96875 L 19.328125 -36.96875 C 22.410156 -36.96875 23.953125 -35.476562 23.953125 -32.5 Z M 10.671875 5.34375 L 1.65625 5.34375 L 1.65625 -23.265625 L 10.671875 -23.265625 Z M 10.671875 5.34375 "/></g></g></g><g fill="#242536" fill-opacity="1"><g transform="translate(662.143376, 193.892744)"><g><path d="M 26.125 -6.65625 C 26.125 -2.21875 24.117188 0 20.109375 0 L 13.734375 0 L 13.734375 -9.671875 L 15.640625 -9.671875 C 16.578125 -9.671875 17.046875 -10.234375 17.046875 -11.359375 L 17.046875 -25.4375 C 17.046875 -26.5625 16.765625 -27.125 16.203125 -27.125 C 15.640625 -27.125 15.253906 -26.488281 15.046875 -25.21875 L 10.515625 0 L 1.59375 0 L 5.40625 -20.640625 L 3.625 -20.640625 C 2.226562 -20.640625 1.53125 -21.328125 1.53125 -22.703125 L 1.53125 -36.96875 L 10.578125 -36.96875 L 10.578125 -23.921875 L 12.390625 -31.0625 C 13.390625 -35 15.546875 -36.96875 18.859375 -36.96875 L 19.328125 -36.96875 C 23.859375 -36.96875 26.125 -34.195312 26.125 -28.65625 Z M 26.125 -6.65625 "/></g></g></g><g fill="#242536" fill-opacity="1"><g transform="translate(199.679435, 51.436193)"><g><path d="M 19.171875 0 L 12.40625 0 L 12.40625 -19.171875 C 12.40625 -20.046875 12.007812 -20.484375 11.21875 -20.484375 L 10.296875 -20.484375 C 9.484375 -20.484375 9.078125 -20.046875 9.078125 -19.171875 L 9.078125 -3.328125 C 9.078125 -1.109375 8.148438 0 6.296875 0 L 0.46875 0 L 0.46875 -7.234375 L 1.640625 -7.234375 C 2.023438 -7.234375 2.21875 -7.40625 2.21875 -7.75 L 2.21875 -22.40625 C 2.21875 -24.289062 2.585938 -25.648438 3.328125 -26.484375 C 4.054688 -27.304688 5.351562 -27.71875 7.21875 -27.71875 L 14.515625 -27.71875 C 17.617188 -27.71875 19.171875 -25.945312 19.171875 -22.40625 Z M 19.171875 0 "/></g></g><g transform="translate(220.073082, 51.436193)"><g><path d="M 7.96875 0 L 1.1875 0 L 1.1875 -27.71875 L 7.96875 -27.71875 Z M 7.96875 0 "/></g></g><g transform="translate(229.227981, 51.436193)"><g><path d="M 18.359375 -7.3125 C 18.359375 -2.4375 16.359375 0 12.359375 0 L 0.71875 0 L 0.71875 -7.234375 L 2.359375 -7.234375 L 2.359375 -27.71875 L 9.125 -27.71875 L 9.125 -7.234375 L 10.484375 -7.234375 C 11.265625 -7.234375 11.65625 -7.769531 11.65625 -8.84375 L 11.65625 -27.71875 L 18.359375 -27.71875 Z M 18.359375 -7.3125 "/></g></g><g transform="translate(248.778722, 51.436193)"><g><path d="M 7.734375 -19.859375 L 8.78125 -19.859375 C 9.539062 -19.859375 9.921875 -20.269531 9.921875 -21.09375 L 9.921875 -27.71875 L 16.171875 -27.71875 L 16.171875 -19.953125 C 16.171875 -16.722656 14.773438 -15.109375 11.984375 -15.109375 L 7.734375 -15.109375 L 7.734375 -8.5 C 7.734375 -7.65625 8.082031 -7.234375 8.78125 -7.234375 L 17.328125 -7.234375 C 18.015625 -7.234375 18.359375 -7.65625 18.359375 -8.5 L 18.359375 -27.71875 L 24.90625 -27.71875 L 24.90625 -6.296875 C 24.90625 -4.390625 24.414062 -2.875 23.4375 -1.75 C 22.40625 -0.582031 20.945312 0 19.0625 0 L 7.046875 0 C 3.140625 0 1.1875 -2.097656 1.1875 -6.296875 L 1.1875 -27.71875 L 7.734375 -27.71875 Z M 7.734375 -19.859375 "/></g></g><g transform="translate(274.8854, 51.436193)"><g/></g></g><g fill="#242536" fill-opacity="1"><g transform="translate(285.49197, 51.436193)"><g><path d="M 18.9375 -5.265625 L 17.5625 -5.265625 L 17.5625 0 L 10.796875 0 L 10.796875 -5.265625 L -0.234375 -5.265625 L 5.03125 -27.71875 L 12.078125 -27.71875 L 8.59375 -12.53125 L 10.796875 -12.53125 L 10.796875 -17.296875 L 17.5625 -17.296875 L 17.5625 -12.53125 L 18.9375 -12.53125 Z M 18.9375 -5.265625 "/></g></g><g transform="translate(304.199805, 51.436193)"><g><path d="M 17.5625 -5.3125 C 17.5625 -1.769531 15.78125 0 12.21875 0 L 6.53125 0 C 4.96875 0 3.6875 -0.5 2.6875 -1.5 C 1.6875 -2.5 1.1875 -3.769531 1.1875 -5.3125 L 1.1875 -10.25 C 1.1875 -12.3125 2.164062 -13.6875 4.125 -14.375 C 3.1875 -14.457031 2.453125 -14.878906 1.921875 -15.640625 C 1.429688 -16.359375 1.1875 -17.203125 1.1875 -18.171875 L 1.1875 -22.390625 C 1.1875 -23.847656 1.695312 -25.101562 2.71875 -26.15625 C 3.71875 -27.195312 4.96875 -27.71875 6.46875 -27.71875 L 12.21875 -27.71875 C 15.78125 -27.71875 17.5625 -25.941406 17.5625 -22.390625 L 17.5625 -18.359375 C 17.5625 -17.421875 17.25 -16.585938 16.625 -15.859375 C 15.988281 -15.117188 15.222656 -14.625 14.328125 -14.375 C 16.484375 -13.875 17.5625 -12.484375 17.5625 -10.203125 Z M 10.796875 -17.25 L 10.796875 -20.46875 L 7.96875 -20.46875 L 7.96875 -17.25 Z M 10.796875 -7.234375 L 10.796875 -11.515625 L 7.96875 -11.515625 L 7.96875 -7.234375 Z M 10.796875 -7.234375 "/></g></g></g><g fill="#242536" fill-opacity="1"><g transform="translate(322.907641, 51.436193)"><g/></g><g transform="translate(333.514211, 51.436193)"><g><path d="M 12.90625 -9.921875 L 1.421875 -9.921875 L 1.421875 -17.15625 L 12.90625 -17.15625 Z M 12.90625 -9.921875 "/></g></g><g transform="translate(347.843617, 51.436193)"><g/></g><g transform="translate(358.450187, 51.436193)"><g><path d="M 7.875 -15.4375 L 1.140625 -15.4375 L 1.140625 -27.71875 L 7.875 -27.71875 Z M 7.875 -15.4375 "/></g></g><g transform="translate(367.511428, 51.436193)"><g><path d="M 19.171875 0 L 12.40625 0 L 12.40625 -19.171875 C 12.40625 -20.046875 12.007812 -20.484375 11.21875 -20.484375 L 10.296875 -20.484375 C 9.484375 -20.484375 9.078125 -20.046875 9.078125 -19.171875 L 9.078125 -3.328125 C 9.078125 -1.109375 8.148438 0 6.296875 0 L 0.46875 0 L 0.46875 -7.234375 L 1.640625 -7.234375 C 2.023438 -7.234375 2.21875 -7.40625 2.21875 -7.75 L 2.21875 -22.40625 C 2.21875 -24.289062 2.585938 -25.648438 3.328125 -26.484375 C 4.054688 -27.304688 5.351562 -27.71875 7.21875 -27.71875 L 14.515625 -27.71875 C 17.617188 -27.71875 19.171875 -25.945312 19.171875 -22.40625 Z M 19.171875 0 "/></g></g><g transform="translate(387.905076, 51.436193)"><g><path d="M 15.828125 -20.484375 C 14.296875 -20.484375 13.53125 -19.734375 13.53125 -18.234375 L 13.53125 0 L 6.65625 0 L 6.65625 -16.3125 C 6.65625 -18.457031 7.554688 -19.847656 9.359375 -20.484375 L 0.71875 -20.484375 L 0.71875 -27.71875 L 15.828125 -27.71875 Z M 15.828125 -20.484375 "/></g></g><g transform="translate(404.927099, 51.436193)"><g><path d="M 17.015625 0 L 1.1875 0 L 1.1875 -7.234375 L 6.46875 -7.234375 C 8.007812 -7.234375 8.78125 -8.144531 8.78125 -9.96875 L 8.78125 -18.28125 C 8.78125 -19.09375 8.640625 -19.660156 8.359375 -19.984375 C 8.078125 -20.316406 7.539062 -20.484375 6.75 -20.484375 L 1.1875 -20.484375 L 1.1875 -27.71875 L 10.296875 -27.71875 C 13.878906 -27.71875 15.671875 -25.601562 15.671875 -21.375 L 15.671875 -11.890625 C 15.671875 -9.441406 14.753906 -7.890625 12.921875 -7.234375 L 17.015625 -7.234375 Z M 17.015625 0 "/></g></g><g transform="translate(422.909098, 51.436193)"><g><path d="M 7.96875 0 L 1.1875 0 L 1.1875 -27.71875 L 7.96875 -27.71875 Z M 7.96875 0 "/></g></g><g transform="translate(432.063996, 51.436193)"><g><path d="M 18.359375 -7.3125 C 18.359375 -2.4375 16.359375 0 12.359375 0 L 0.71875 0 L 0.71875 -7.234375 L 2.359375 -7.234375 L 2.359375 -27.71875 L 9.125 -27.71875 L 9.125 -7.234375 L 10.484375 -7.234375 C 11.265625 -7.234375 11.65625 -7.769531 11.65625 -8.84375 L 11.65625 -27.71875 L 18.359375 -27.71875 Z M 18.359375 -7.3125 "/></g></g><g transform="translate(451.614737, 51.436193)"><g/></g><g transform="translate(462.221307, 51.436193)"><g><path d="M 17.015625 0 L 1.1875 0 L 1.1875 -7.234375 L 6.46875 -7.234375 C 8.007812 -7.234375 8.78125 -8.144531 8.78125 -9.96875 L 8.78125 -18.28125 C 8.78125 -19.09375 8.640625 -19.660156 8.359375 -19.984375 C 8.078125 -20.316406 7.539062 -20.484375 6.75 -20.484375 L 1.1875 -20.484375 L 1.1875 -27.71875 L 10.296875 -27.71875 C 13.878906 -27.71875 15.671875 -25.601562 15.671875 -21.375 L 15.671875 -11.890625 C 15.671875 -9.441406 14.753906 -7.890625 12.921875 -7.234375 L 17.015625 -7.234375 Z M 17.015625 0 "/></g></g><g transform="translate(480.203306, 51.436193)"><g><path d="M 1.328125 0 L 1.328125 -7.234375 L 9.25 -7.265625 L 4.828125 -16.203125 C 2.210938 -21.472656 0.726562 -25.3125 0.375 -27.71875 L 7.5625 -27.71875 C 8.507812 -23.851562 9.84375 -20.425781 11.5625 -17.4375 C 11.832031 -17.613281 12 -17.9375 12.0625 -18.40625 C 12.101562 -18.695312 12.125 -19.046875 12.125 -19.453125 L 12.125 -27.71875 L 18.9375 -27.71875 L 18.9375 -18.328125 C 18.9375 -16.910156 18.507812 -15.554688 17.65625 -14.265625 C 16.8125 -12.992188 15.757812 -12.023438 14.5 -11.359375 C 17.445312 -5.484375 18.925781 -1.695312 18.9375 0 Z M 1.328125 0 "/></g></g><g transform="translate(500.3394, 51.436193)"><g><path d="M 19.59375 -4.984375 C 19.59375 -1.660156 18.085938 0 15.078125 0 L 10.296875 0 L 10.296875 -7.265625 L 11.734375 -7.265625 C 12.429688 -7.265625 12.78125 -7.679688 12.78125 -8.515625 L 12.78125 -19.078125 C 12.78125 -19.921875 12.570312 -20.34375 12.15625 -20.34375 C 11.726562 -20.34375 11.4375 -19.867188 11.28125 -18.921875 L 7.890625 0 L 1.1875 0 L 4.046875 -15.484375 L 2.71875 -15.484375 C 1.664062 -15.484375 1.140625 -15.992188 1.140625 -17.015625 L 1.140625 -27.71875 L 7.9375 -27.71875 L 7.9375 -17.9375 L 9.296875 -23.296875 C 10.046875 -26.242188 11.660156 -27.71875 14.140625 -27.71875 L 14.5 -27.71875 C 17.894531 -27.71875 19.59375 -25.644531 19.59375 -21.5 Z M 19.59375 -4.984375 "/></g></g></g><g fill="#242536" fill-opacity="1"><g transform="translate(348.405568, 189.397244)"><g><path d="M 18.359375 -7.3125 C 18.359375 -2.4375 16.359375 0 12.359375 0 L 0.71875 0 L 0.71875 -7.234375 L 2.359375 -7.234375 L 2.359375 -27.71875 L 9.125 -27.71875 L 9.125 -7.234375 L 10.484375 -7.234375 C 11.265625 -7.234375 11.65625 -7.769531 11.65625 -8.84375 L 11.65625 -27.71875 L 18.359375 -27.71875 Z M 18.359375 -7.3125 "/></g></g><g transform="translate(367.956309, 189.397244)"><g><path d="M 7.96875 0 L 1.1875 0 L 1.1875 -27.71875 L 7.96875 -27.71875 Z M 7.96875 0 "/></g></g><g transform="translate(377.111207, 189.397244)"><g><path d="M 14.84375 0 L 7.984375 0 L 7.984375 -19.34375 C 7.984375 -20.101562 7.585938 -20.484375 6.796875 -20.484375 L 0.71875 -20.484375 L 0.71875 -27.71875 L 9.953125 -27.71875 C 11.390625 -27.71875 12.566406 -27.257812 13.484375 -26.34375 C 14.390625 -25.4375 14.84375 -24.257812 14.84375 -22.8125 Z M 14.84375 0 "/></g></g><g transform="translate(393.14984, 189.397244)"><g><path d="M 7.875 -15.4375 L 1.140625 -15.4375 L 1.140625 -27.71875 L 7.875 -27.71875 Z M 7.875 -15.4375 "/></g></g><g transform="translate(402.211081, 189.397244)"><g><path d="M 12.546875 0 C 12.347656 -1.09375 11.90625 -2.53125 11.21875 -4.3125 C 10.539062 -6.101562 9.617188 -8.265625 8.453125 -10.796875 C 8.328125 -10.648438 8.234375 -10.535156 8.171875 -10.453125 C 8.109375 -10.378906 8.066406 -10.335938 8.046875 -10.328125 C 8.035156 -10.265625 8.023438 -10.125 8.015625 -9.90625 C 8.003906 -9.695312 8 -9.40625 8 -9.03125 L 8 0 L 1.234375 0 L 1.234375 -8.28125 C 1.234375 -12.675781 2.585938 -15.519531 5.296875 -16.8125 C 2.703125 -21.894531 1.253906 -25.53125 0.953125 -27.71875 L 8 -27.71875 C 8.34375 -26.15625 8.851562 -24.507812 9.53125 -22.78125 C 10.21875 -21.050781 11.078125 -19.207031 12.109375 -17.25 C 12.492188 -17.53125 12.6875 -18.109375 12.6875 -18.984375 L 12.6875 -27.71875 L 19.53125 -27.71875 L 19.53125 -18.328125 C 19.53125 -16.921875 19.097656 -15.554688 18.234375 -14.234375 C 17.378906 -12.921875 16.320312 -11.921875 15.0625 -11.234375 C 17.976562 -5.429688 19.46875 -1.6875 19.53125 0 Z M 12.546875 0 "/></g></g><g transform="translate(422.698385, 189.397244)"><g><path d="M 17.765625 0 L 10.890625 0 L 10.890625 -19.34375 C 10.890625 -20.101562 10.5 -20.484375 9.71875 -20.484375 L 1.1875 -20.484375 L 1.1875 -27.71875 L 12.875 -27.71875 C 14.3125 -27.71875 15.488281 -27.257812 16.40625 -26.34375 C 17.3125 -25.4375 17.765625 -24.257812 17.765625 -22.8125 Z M 7.96875 0 L 1.21875 0 L 1.21875 -17.1875 L 7.96875 -17.1875 Z M 7.96875 0 "/></g></g><g transform="translate(441.663775, 189.397244)"><g/></g><g transform="translate(452.270345, 189.397244)"><g><path d="M 18.546875 0 L 1.1875 0 L 1.1875 -22.875 C 1.1875 -24.601562 1.476562 -25.8125 2.0625 -26.5 C 2.71875 -27.3125 3.890625 -27.71875 5.578125 -27.71875 L 13.859375 -27.71875 C 16.984375 -27.71875 18.546875 -26.101562 18.546875 -22.875 Z M 11.78125 -19.171875 C 11.78125 -20.046875 11.378906 -20.484375 10.578125 -20.484375 L 9.265625 -20.484375 C 8.472656 -20.484375 8.078125 -20.046875 8.078125 -19.171875 L 8.078125 -7.234375 L 11.78125 -7.234375 Z M 11.78125 -19.171875 "/></g></g><g transform="translate(472.008398, 189.397244)"><g><path d="M 7.96875 0 L 1.1875 0 L 1.1875 -27.71875 L 7.96875 -27.71875 Z M 7.96875 0 "/></g></g><g transform="translate(481.163296, 189.397244)"><g><path d="M 17.953125 -8.5625 C 17.953125 -5.738281 17.492188 -3.65625 16.578125 -2.3125 C 15.453125 -0.726562 13.539062 0.0625 10.84375 0.0625 C 10.351562 0.0625 9.84375 0.0390625 9.3125 0 L 9.3125 -7.234375 C 10.5 -7.234375 11.09375 -8.109375 11.09375 -9.859375 L 11.09375 -19.34375 C 11.09375 -20.101562 10.695312 -20.484375 9.90625 -20.484375 L 1.1875 -20.484375 L 1.1875 -27.71875 L 14.5 -27.71875 C 16.800781 -27.71875 17.953125 -26.601562 17.953125 -24.375 Z M 8 4 L 1.234375 4 L 1.234375 -17.4375 L 8 -17.4375 Z M 8 4 "/></g></g><g transform="translate(500.339413, 189.397244)"><g><path d="M 19.59375 -4.984375 C 19.59375 -1.660156 18.085938 0 15.078125 0 L 10.296875 0 L 10.296875 -7.265625 L 11.734375 -7.265625 C 12.429688 -7.265625 12.78125 -7.679688 12.78125 -8.515625 L 12.78125 -19.078125 C 12.78125 -19.921875 12.570312 -20.34375 12.15625 -20.34375 C 11.726562 -20.34375 11.4375 -19.867188 11.28125 -18.921875 L 7.890625 0 L 1.1875 0 L 4.046875 -15.484375 L 2.71875 -15.484375 C 1.664062 -15.484375 1.140625 -15.992188 1.140625 -17.015625 L 1.140625 -27.71875 L 7.9375 -27.71875 L 7.9375 -17.9375 L 9.296875 -23.296875 C 10.046875 -26.242188 11.660156 -27.71875 14.140625 -27.71875 L 14.5 -27.71875 C 17.894531 -27.71875 19.59375 -25.644531 19.59375 -21.5 Z M 19.59375 -4.984375 "/></g></g></g><g fill="#242536" fill-opacity="1"><g transform="translate(242.500183, 308.71312)"><g><path d="M 7.875 -15.4375 L 1.140625 -15.4375 L 1.140625 -27.71875 L 7.875 -27.71875 Z M 7.875 -15.4375 "/></g></g><g transform="translate(251.561424, 308.71312)"><g><path d="M 13.4375 -4.359375 C 13.4375 -1.453125 12.0625 0 9.3125 0 L 0.953125 0 L 0.953125 -7.234375 L 5.765625 -7.234375 C 6.328125 -7.234375 6.609375 -7.578125 6.609375 -8.265625 L 6.609375 -19.34375 C 6.609375 -20.101562 6.265625 -20.484375 5.578125 -20.484375 L 2.953125 -20.484375 L 2.953125 -27.71875 L 9.203125 -27.71875 C 12.023438 -27.71875 13.4375 -26.257812 13.4375 -23.34375 Z M 13.4375 -4.359375 "/></g></g><g transform="translate(266.195213, 308.71312)"><g><path d="M 7.875 -15.4375 L 1.140625 -15.4375 L 1.140625 -27.71875 L 7.875 -27.71875 Z M 7.875 -15.4375 "/></g></g><g transform="translate(275.256454, 308.71312)"><g><path d="M 15.828125 -20.484375 C 14.296875 -20.484375 13.53125 -19.734375 13.53125 -18.234375 L 13.53125 0 L 6.65625 0 L 6.65625 -16.3125 C 6.65625 -18.457031 7.554688 -19.847656 9.359375 -20.484375 L 0.71875 -20.484375 L 0.71875 -27.71875 L 15.828125 -27.71875 Z M 15.828125 -20.484375 "/></g></g><g transform="translate(292.278477, 308.71312)"><g><path d="M 19.59375 -4.984375 C 19.59375 -1.660156 18.085938 0 15.078125 0 L 10.296875 0 L 10.296875 -7.265625 L 11.734375 -7.265625 C 12.429688 -7.265625 12.78125 -7.679688 12.78125 -8.515625 L 12.78125 -19.078125 C 12.78125 -19.921875 12.570312 -20.34375 12.15625 -20.34375 C 11.726562 -20.34375 11.4375 -19.867188 11.28125 -18.921875 L 7.890625 0 L 1.1875 0 L 4.046875 -15.484375 L 2.71875 -15.484375 C 1.664062 -15.484375 1.140625 -15.992188 1.140625 -17.015625 L 1.140625 -27.71875 L 7.9375 -27.71875 L 7.9375 -17.9375 L 9.296875 -23.296875 C 10.046875 -26.242188 11.660156 -27.71875 14.140625 -27.71875 L 14.5 -27.71875 C 17.894531 -27.71875 19.59375 -25.644531 19.59375 -21.5 Z M 19.59375 -4.984375 "/></g></g><g transform="translate(313.070164, 308.71312)"><g/></g><g transform="translate(323.676734, 308.71312)"><g><path d="M 16.4375 0 L 9.671875 0 L 8.453125 -7.6875 C 7.972656 -7.6875 7.671875 -7.34375 7.546875 -6.65625 L 6.28125 0 L 0.234375 0 L 1.84375 -8 C 2.5625 -11.625 4.242188 -13.4375 6.890625 -13.4375 L 8 -13.4375 L 8 -19.34375 C 8 -20.101562 7.566406 -20.484375 6.703125 -20.484375 L 1.875 -20.484375 L 1.875 -27.71875 L 9.6875 -27.71875 C 13.113281 -27.71875 14.828125 -25.925781 14.828125 -22.34375 L 14.828125 -13.015625 C 14.828125 -12.035156 14.851562 -11.128906 14.90625 -10.296875 C 14.957031 -9.472656 15.039062 -8.71875 15.15625 -8.03125 Z M 16.4375 0 "/></g></g><g transform="translate(340.6051, 308.71312)"><g><path d="M 14.84375 0 L 7.984375 0 L 7.984375 -19.34375 C 7.984375 -20.101562 7.585938 -20.484375 6.796875 -20.484375 L 0.71875 -20.484375 L 0.71875 -27.71875 L 9.953125 -27.71875 C 11.390625 -27.71875 12.566406 -27.257812 13.484375 -26.34375 C 14.390625 -25.4375 14.84375 -24.257812 14.84375 -22.8125 Z M 14.84375 0 "/></g></g><g transform="translate(356.643732, 308.71312)"><g><path d="M 15.828125 -20.484375 C 14.296875 -20.484375 13.53125 -19.734375 13.53125 -18.234375 L 13.53125 0 L 6.65625 0 L 6.65625 -16.3125 C 6.65625 -18.457031 7.554688 -19.847656 9.359375 -20.484375 L 0.71875 -20.484375 L 0.71875 -27.71875 L 15.828125 -27.71875 Z M 15.828125 -20.484375 "/></g></g><g transform="translate(373.665755, 308.71312)"><g/></g><g transform="translate(384.272325, 308.71312)"><g><path d="M 16.546875 -10.015625 C 16.546875 -3.335938 13.347656 0 6.953125 0 L 4.03125 0 L 4.03125 -7.234375 L 6 -7.234375 C 7.507812 -7.234375 8.535156 -7.71875 9.078125 -8.6875 C 9.472656 -9.375 9.671875 -10.566406 9.671875 -12.265625 L 9.671875 -19.34375 C 9.671875 -20.101562 9.28125 -20.484375 8.5 -20.484375 L 1.1875 -20.484375 L 1.1875 -31.171875 L 7.984375 -31.171875 L 7.984375 -27.71875 L 13.09375 -27.71875 C 15.394531 -27.71875 16.546875 -26.601562 16.546875 -24.375 Z M 16.546875 -10.015625 "/></g></g><g transform="translate(402.020184, 308.71312)"><g><path d="M 7.734375 -19.859375 L 8.78125 -19.859375 C 9.539062 -19.859375 9.921875 -20.269531 9.921875 -21.09375 L 9.921875 -27.71875 L 16.171875 -27.71875 L 16.171875 -19.953125 C 16.171875 -16.722656 14.773438 -15.109375 11.984375 -15.109375 L 7.734375 -15.109375 L 7.734375 -8.5 C 7.734375 -7.65625 8.082031 -7.234375 8.78125 -7.234375 L 17.328125 -7.234375 C 18.015625 -7.234375 18.359375 -7.65625 18.359375 -8.5 L 18.359375 -27.71875 L 24.90625 -27.71875 L 24.90625 -6.296875 C 24.90625 -4.390625 24.414062 -2.875 23.4375 -1.75 C 22.40625 -0.582031 20.945312 0 19.0625 0 L 7.046875 0 C 3.140625 0 1.1875 -2.097656 1.1875 -6.296875 L 1.1875 -27.71875 L 7.734375 -27.71875 Z M 7.734375 -19.859375 "/></g></g><g transform="translate(428.126862, 308.71312)"><g/></g><g transform="translate(438.733432, 308.71312)"><g><path d="M 17.765625 0 L 10.890625 0 L 10.890625 -19.34375 C 10.890625 -20.101562 10.5 -20.484375 9.71875 -20.484375 L 1.1875 -20.484375 L 1.1875 -27.71875 L 12.875 -27.71875 C 14.3125 -27.71875 15.488281 -27.257812 16.40625 -26.34375 C 17.3125 -25.4375 17.765625 -24.257812 17.765625 -22.8125 Z M 7.96875 0 L 1.21875 0 L 1.21875 -17.1875 L 7.96875 -17.1875 Z M 7.96875 0 "/></g></g><g transform="translate(457.698822, 308.71312)"><g><path d="M 10.390625 -20.484375 L 10.296875 -20.484375 C 9.222656 -20.484375 8.6875 -19.710938 8.6875 -18.171875 L 8.6875 0 L 1.96875 0 L 1.96875 -16.8125 C 1.96875 -18.820312 2.609375 -20.046875 3.890625 -20.484375 L 0.953125 -20.484375 L 0.953125 -27.71875 L 10.390625 -27.71875 Z M 10.390625 -20.484375 "/></g></g><g transform="translate(469.054642, 308.71312)"><g><path d="M 14.84375 0 L 7.984375 0 L 7.984375 -19.34375 C 7.984375 -20.101562 7.585938 -20.484375 6.796875 -20.484375 L 0.71875 -20.484375 L 0.71875 -27.71875 L 9.953125 -27.71875 C 11.390625 -27.71875 12.566406 -27.257812 13.484375 -26.34375 C 14.390625 -25.4375 14.84375 -24.257812 14.84375 -22.8125 Z M 14.84375 0 "/></g></g><g transform="translate(485.093275, 308.71312)"><g><path d="M 15.875 -6.84375 C 15.875 -2.28125 13.726562 0 9.4375 0 L 1.1875 0 L 1.1875 -7.234375 L 6.9375 -7.234375 C 8.351562 -7.234375 9.0625 -7.894531 9.0625 -9.21875 L 9.0625 -18.5 C 9.0625 -19.820312 8.351562 -20.484375 6.9375 -20.484375 L 1.1875 -20.484375 L 1.1875 -27.71875 L 9.4375 -27.71875 C 13.726562 -27.71875 15.875 -25.441406 15.875 -20.890625 Z M 15.875 -6.84375 "/></g></g><g transform="translate(502.162125, 308.71312)"><g><path d="M 17.765625 0 L 10.890625 0 L 10.890625 -19.34375 C 10.890625 -20.101562 10.5 -20.484375 9.71875 -20.484375 L 1.1875 -20.484375 L 1.1875 -27.71875 L 12.875 -27.71875 C 14.3125 -27.71875 15.488281 -27.257812 16.40625 -26.34375 C 17.3125 -25.4375 17.765625 -24.257812 17.765625 -22.8125 Z M 7.96875 0 L 1.21875 0 L 1.21875 -17.1875 L 7.96875 -17.1875 Z M 7.96875 0 "/></g></g></g><g fill="#242536" fill-opacity="1"><g transform="translate(69.38018, 104.733688)"><g><path d="M 17.765625 0 L 10.890625 0 L 10.890625 -19.34375 C 10.890625 -20.101562 10.5 -20.484375 9.71875 -20.484375 L 1.1875 -20.484375 L 1.1875 -27.71875 L 12.875 -27.71875 C 14.3125 -27.71875 15.488281 -27.257812 16.40625 -26.34375 C 17.3125 -25.4375 17.765625 -24.257812 17.765625 -22.8125 Z M 7.96875 0 L 1.21875 0 L 1.21875 -17.1875 L 7.96875 -17.1875 Z M 7.96875 0 "/></g></g><g transform="translate(88.34557, 104.733688)"><g><path d="M 10.390625 -20.484375 L 10.296875 -20.484375 C 9.222656 -20.484375 8.6875 -19.710938 8.6875 -18.171875 L 8.6875 0 L 1.96875 0 L 1.96875 -16.8125 C 1.96875 -18.820312 2.609375 -20.046875 3.890625 -20.484375 L 0.953125 -20.484375 L 0.953125 -27.71875 L 10.390625 -27.71875 Z M 10.390625 -20.484375 "/></g></g><g transform="translate(99.70139, 104.733688)"><g><path d="M 14.84375 0 L 7.984375 0 L 7.984375 -19.34375 C 7.984375 -20.101562 7.585938 -20.484375 6.796875 -20.484375 L 0.71875 -20.484375 L 0.71875 -27.71875 L 9.953125 -27.71875 C 11.390625 -27.71875 12.566406 -27.257812 13.484375 -26.34375 C 14.390625 -25.4375 14.84375 -24.257812 14.84375 -22.8125 Z M 14.84375 0 "/></g></g><g transform="translate(115.740022, 104.733688)"><g><path d="M 15.875 -6.84375 C 15.875 -2.28125 13.726562 0 9.4375 0 L 1.1875 0 L 1.1875 -7.234375 L 6.9375 -7.234375 C 8.351562 -7.234375 9.0625 -7.894531 9.0625 -9.21875 L 9.0625 -18.5 C 9.0625 -19.820312 8.351562 -20.484375 6.9375 -20.484375 L 1.1875 -20.484375 L 1.1875 -27.71875 L 9.4375 -27.71875 C 13.726562 -27.71875 15.875 -25.441406 15.875 -20.890625 Z M 15.875 -6.84375 "/></g></g><g transform="translate(132.808873, 104.733688)"><g><path d="M 17.765625 0 L 10.890625 0 L 10.890625 -19.34375 C 10.890625 -20.101562 10.5 -20.484375 9.71875 -20.484375 L 1.1875 -20.484375 L 1.1875 -27.71875 L 12.875 -27.71875 C 14.3125 -27.71875 15.488281 -27.257812 16.40625 -26.34375 C 17.3125 -25.4375 17.765625 -24.257812 17.765625 -22.8125 Z M 7.96875 0 L 1.21875 0 L 1.21875 -17.1875 L 7.96875 -17.1875 Z M 7.96875 0 "/></g></g><g transform="translate(151.774263, 104.733688)"><g><path d="M 17.765625 0 L 10.890625 0 L 10.890625 -19.34375 C 10.890625 -20.101562 10.5 -20.484375 9.71875 -20.484375 L 1.1875 -20.484375 L 1.1875 -27.71875 L 12.875 -27.71875 C 14.3125 -27.71875 15.488281 -27.257812 16.40625 -26.34375 C 17.3125 -25.4375 17.765625 -24.257812 17.765625 -22.8125 Z M 7.96875 0 L 1.21875 0 L 1.21875 -17.1875 L 7.96875 -17.1875 Z M 7.96875 0 "/></g></g><g transform="translate(170.739653, 104.733688)"><g/></g><g transform="translate(181.346223, 104.733688)"><g><path d="M 18.359375 -7.3125 C 18.359375 -2.4375 16.359375 0 12.359375 0 L 0.71875 0 L 0.71875 -7.234375 L 2.359375 -7.234375 L 2.359375 -27.71875 L 9.125 -27.71875 L 9.125 -7.234375 L 10.484375 -7.234375 C 11.265625 -7.234375 11.65625 -7.769531 11.65625 -8.84375 L 11.65625 -27.71875 L 18.359375 -27.71875 Z M 18.359375 -7.3125 "/></g></g><g transform="translate(200.896964, 104.733688)"><g><path d="M 16.4375 0 L 9.671875 0 L 8.453125 -7.6875 C 7.972656 -7.6875 7.671875 -7.34375 7.546875 -6.65625 L 6.28125 0 L 0.234375 0 L 1.84375 -8 C 2.5625 -11.625 4.242188 -13.4375 6.890625 -13.4375 L 8 -13.4375 L 8 -19.34375 C 8 -20.101562 7.566406 -20.484375 6.703125 -20.484375 L 1.875 -20.484375 L 1.875 -27.71875 L 9.6875 -27.71875 C 13.113281 -27.71875 14.828125 -25.925781 14.828125 -22.34375 L 14.828125 -13.015625 C 14.828125 -12.035156 14.851562 -11.128906 14.90625 -10.296875 C 14.957031 -9.472656 15.039062 -8.71875 15.15625 -8.03125 Z M 16.4375 0 "/></g></g><g transform="translate(217.82533, 104.733688)"><g><path d="M 14.84375 0 L 7.984375 0 L 7.984375 -19.34375 C 7.984375 -20.101562 7.585938 -20.484375 6.796875 -20.484375 L 0.71875 -20.484375 L 0.71875 -27.71875 L 9.953125 -27.71875 C 11.390625 -27.71875 12.566406 -27.257812 13.484375 -26.34375 C 14.390625 -25.4375 14.84375 -24.257812 14.84375 -22.8125 Z M 14.84375 0 "/></g></g><g transform="translate(233.863962, 104.733688)"><g><path d="M 19.59375 -4.984375 C 19.59375 -1.660156 18.085938 0 15.078125 0 L 10.296875 0 L 10.296875 -7.265625 L 11.734375 -7.265625 C 12.429688 -7.265625 12.78125 -7.679688 12.78125 -8.515625 L 12.78125 -19.078125 C 12.78125 -19.921875 12.570312 -20.34375 12.15625 -20.34375 C 11.726562 -20.34375 11.4375 -19.867188 11.28125 -18.921875 L 7.890625 0 L 1.1875 0 L 4.046875 -15.484375 L 2.71875 -15.484375 C 1.664062 -15.484375 1.140625 -15.992188 1.140625 -17.015625 L 1.140625 -27.71875 L 7.9375 -27.71875 L 7.9375 -17.9375 L 9.296875 -23.296875 C 10.046875 -26.242188 11.660156 -27.71875 14.140625 -27.71875 L 14.5 -27.71875 C 17.894531 -27.71875 19.59375 -25.644531 19.59375 -21.5 Z M 19.59375 -4.984375 "/></g></g><g transform="translate(254.655649, 104.733688)"><g/></g><g transform="translate(265.262219, 104.733688)"><g><path d="M 16.546875 -10.015625 C 16.546875 -3.335938 13.347656 0 6.953125 0 L 4.03125 0 L 4.03125 -7.234375 L 6 -7.234375 C 7.507812 -7.234375 8.535156 -7.71875 9.078125 -8.6875 C 9.472656 -9.375 9.671875 -10.566406 9.671875 -12.265625 L 9.671875 -19.34375 C 9.671875 -20.101562 9.28125 -20.484375 8.5 -20.484375 L 1.1875 -20.484375 L 1.1875 -31.171875 L 7.984375 -31.171875 L 7.984375 -27.71875 L 13.09375 -27.71875 C 15.394531 -27.71875 16.546875 -26.601562 16.546875 -24.375 Z M 16.546875 -10.015625 "/></g></g><g transform="translate(283.010078, 104.733688)"><g><path d="M 18.078125 0 L 11.28125 0 L 11.28125 -19.171875 C 11.28125 -20.046875 10.882812 -20.484375 10.09375 -20.484375 L 9.265625 -20.484375 C 8.472656 -20.484375 8.078125 -20.046875 8.078125 -19.171875 L 8.078125 0 L 1.1875 0 L 1.1875 -22.875 C 1.1875 -24.601562 1.476562 -25.8125 2.0625 -26.5 C 2.71875 -27.3125 3.890625 -27.71875 5.578125 -27.71875 L 13.390625 -27.71875 C 16.515625 -27.71875 18.078125 -26.101562 18.078125 -22.875 Z M 18.078125 0 "/></g></g><g transform="translate(302.279851, 104.733688)"><g><path d="M 17.765625 0 L 10.890625 0 L 10.890625 -19.34375 C 10.890625 -20.101562 10.5 -20.484375 9.71875 -20.484375 L 1.1875 -20.484375 L 1.1875 -27.71875 L 12.875 -27.71875 C 14.3125 -27.71875 15.488281 -27.257812 16.40625 -26.34375 C 17.3125 -25.4375 17.765625 -24.257812 17.765625 -22.8125 Z M 7.96875 0 L 1.21875 0 L 1.21875 -17.1875 L 7.96875 -17.1875 Z M 7.96875 0 "/></g></g><g transform="translate(321.24524, 104.733688)"><g/></g><g transform="translate(331.85181, 104.733688)"><g><path d="M 12.90625 -9.921875 L 1.421875 -9.921875 L 1.421875 -17.15625 L 12.90625 -17.15625 Z M 12.90625 -9.921875 "/></g></g><g transform="translate(346.181216, 104.733688)"><g/></g><g transform="translate(356.787786, 104.733688)"><g><path d="M 7.875 -15.4375 L 1.140625 -15.4375 L 1.140625 -27.71875 L 7.875 -27.71875 Z M 7.875 -15.4375 "/></g></g><g transform="translate(365.849028, 104.733688)"><g><path d="M 18.734375 -5.34375 C 18.734375 -1.78125 17.265625 0 14.328125 0 L 5.59375 0 C 4.113281 0 2.988281 -0.535156 2.21875 -1.609375 C 1.53125 -2.578125 1.1875 -3.820312 1.1875 -5.34375 L 1.1875 -27.71875 L 7.9375 -27.71875 L 7.9375 -18.984375 L 9.265625 -23.71875 C 10.015625 -26.382812 11.382812 -27.71875 13.375 -27.71875 L 14.75 -27.71875 C 17.40625 -27.71875 18.734375 -26.273438 18.734375 -23.390625 Z M 12.015625 -19.859375 C 12.015625 -20.148438 11.953125 -20.296875 11.828125 -20.296875 C 11.734375 -20.296875 11.65625 -20.171875 11.59375 -19.921875 L 10.609375 -16.25 L 7.9375 -16.25 L 7.9375 -8.5 C 7.9375 -7.65625 8.28125 -7.234375 8.96875 -7.234375 L 10.953125 -7.234375 C 11.660156 -7.234375 12.015625 -7.65625 12.015625 -8.5 Z M 12.015625 -19.859375 "/></g></g><g transform="translate(385.774394, 104.733688)"><g><path d="M 17.71875 -5.390625 C 17.71875 -1.796875 15.976562 0 12.5 0 L 1.234375 0 L 1.234375 -7.234375 L 9.625 -7.234375 C 10.539062 -7.234375 11 -7.78125 11 -8.875 L 11 -19.34375 C 11 -20.101562 10.648438 -20.484375 9.953125 -20.484375 L 9.015625 -20.484375 C 8.367188 -20.484375 8.046875 -20.085938 8.046875 -19.296875 L 8.046875 -15.21875 L 1.1875 -15.21875 L 1.1875 -22.8125 C 1.1875 -26.082031 2.765625 -27.71875 5.921875 -27.71875 L 12.859375 -27.71875 C 14.328125 -27.71875 15.503906 -27.265625 16.390625 -26.359375 C 17.273438 -25.441406 17.71875 -24.257812 17.71875 -22.8125 Z M 17.71875 -5.390625 "/></g></g><g transform="translate(404.71637, 104.733688)"><g><path d="M 7.734375 -19.859375 L 8.78125 -19.859375 C 9.539062 -19.859375 9.921875 -20.269531 9.921875 -21.09375 L 9.921875 -27.71875 L 16.171875 -27.71875 L 16.171875 -19.953125 C 16.171875 -16.722656 14.773438 -15.109375 11.984375 -15.109375 L 7.734375 -15.109375 L 7.734375 -8.5 C 7.734375 -7.65625 8.082031 -7.234375 8.78125 -7.234375 L 17.328125 -7.234375 C 18.015625 -7.234375 18.359375 -7.65625 18.359375 -8.5 L 18.359375 -27.71875 L 24.90625 -27.71875 L 24.90625 -6.296875 C 24.90625 -4.390625 24.414062 -2.875 23.4375 -1.75 C 22.40625 -0.582031 20.945312 0 19.0625 0 L 7.046875 0 C 3.140625 0 1.1875 -2.097656 1.1875 -6.296875 L 1.1875 -27.71875 L 7.734375 -27.71875 Z M 7.734375 -19.859375 "/></g></g><g transform="translate(430.823048, 104.733688)"><g><path d="M 19.59375 -4.984375 C 19.59375 -1.660156 18.085938 0 15.078125 0 L 10.296875 0 L 10.296875 -7.265625 L 11.734375 -7.265625 C 12.429688 -7.265625 12.78125 -7.679688 12.78125 -8.515625 L 12.78125 -19.078125 C 12.78125 -19.921875 12.570312 -20.34375 12.15625 -20.34375 C 11.726562 -20.34375 11.4375 -19.867188 11.28125 -18.921875 L 7.890625 0 L 1.1875 0 L 4.046875 -15.484375 L 2.71875 -15.484375 C 1.664062 -15.484375 1.140625 -15.992188 1.140625 -17.015625 L 1.140625 -27.71875 L 7.9375 -27.71875 L 7.9375 -17.9375 L 9.296875 -23.296875 C 10.046875 -26.242188 11.660156 -27.71875 14.140625 -27.71875 L 14.5 -27.71875 C 17.894531 -27.71875 19.59375 -25.644531 19.59375 -21.5 Z M 19.59375 -4.984375 "/></g></g><g transform="translate(451.614735, 104.733688)"><g/></g><g transform="translate(462.221305, 104.733688)"><g><path d="M 17.015625 0 L 1.1875 0 L 1.1875 -7.234375 L 6.46875 -7.234375 C 8.007812 -7.234375 8.78125 -8.144531 8.78125 -9.96875 L 8.78125 -18.28125 C 8.78125 -19.09375 8.640625 -19.660156 8.359375 -19.984375 C 8.078125 -20.316406 7.539062 -20.484375 6.75 -20.484375 L 1.1875 -20.484375 L 1.1875 -27.71875 L 10.296875 -27.71875 C 13.878906 -27.71875 15.671875 -25.601562 15.671875 -21.375 L 15.671875 -11.890625 C 15.671875 -9.441406 14.753906 -7.890625 12.921875 -7.234375 L 17.015625 -7.234375 Z M 17.015625 0 "/></g></g><g transform="translate(480.203304, 104.733688)"><g><path d="M 1.328125 0 L 1.328125 -7.234375 L 9.25 -7.265625 L 4.828125 -16.203125 C 2.210938 -21.472656 0.726562 -25.3125 0.375 -27.71875 L 7.5625 -27.71875 C 8.507812 -23.851562 9.84375 -20.425781 11.5625 -17.4375 C 11.832031 -17.613281 12 -17.9375 12.0625 -18.40625 C 12.101562 -18.695312 12.125 -19.046875 12.125 -19.453125 L 12.125 -27.71875 L 18.9375 -27.71875 L 18.9375 -18.328125 C 18.9375 -16.910156 18.507812 -15.554688 17.65625 -14.265625 C 16.8125 -12.992188 15.757812 -12.023438 14.5 -11.359375 C 17.445312 -5.484375 18.925781 -1.695312 18.9375 0 Z M 1.328125 0 "/></g></g><g transform="translate(500.339397, 104.733688)"><g><path d="M 19.59375 -4.984375 C 19.59375 -1.660156 18.085938 0 15.078125 0 L 10.296875 0 L 10.296875 -7.265625 L 11.734375 -7.265625 C 12.429688 -7.265625 12.78125 -7.679688 12.78125 -8.515625 L 12.78125 -19.078125 C 12.78125 -19.921875 12.570312 -20.34375 12.15625 -20.34375 C 11.726562 -20.34375 11.4375 -19.867188 11.28125 -18.921875 L 7.890625 0 L 1.1875 0 L 4.046875 -15.484375 L 2.71875 -15.484375 C 1.664062 -15.484375 1.140625 -15.992188 1.140625 -17.015625 L 1.140625 -27.71875 L 7.9375 -27.71875 L 7.9375 -17.9375 L 9.296875 -23.296875 C 10.046875 -26.242188 11.660156 -27.71875 14.140625 -27.71875 L 14.5 -27.71875 C 17.894531 -27.71875 19.59375 -25.644531 19.59375 -21.5 Z M 19.59375 -4.984375 "/></g></g></g></svg>