<svg xmlns="http://www.w3.org/2000/svg" xmlns:xlink="http://www.w3.org/1999/xlink" width="196" zoomAndPan="magnify" viewBox="0 0 147 201.75" height="269" preserveAspectRatio="xMidYMid meet" version="1.0"><defs><clipPath id="3c489c833b"><path d="M 0.0898438 23.714844 L 138.929688 23.714844 L 138.929688 201.5 L 0.0898438 201.5 Z M 0.0898438 23.714844 " clip-rule="nonzero"/></clipPath><clipPath id="85d8d3c0a4"><path d="M 138.929688 23.714844 L 138.929688 176.4375 L 69.507812 201.425781 L 0.0898438 176.4375 L 0.0898438 23.714844 Z M 138.929688 23.714844 " clip-rule="nonzero"/></clipPath><clipPath id="2c208897ed"><path d="M 0.09375 23.714844 L 138.667969 23.714844 L 138.667969 201.246094 L 0.09375 201.246094 Z M 0.09375 23.714844 " clip-rule="nonzero"/></clipPath><clipPath id="861705975a"><path d="M 138.925781 23.714844 L 138.925781 176.429688 L 69.507812 201.421875 L 0.09375 176.429688 L 0.09375 23.714844 Z M 138.925781 23.714844 " clip-rule="nonzero"/></clipPath><clipPath id="6152b9aecc"><path d="M 7.582031 12.167969 L 146.417969 12.167969 L 146.417969 190 L 7.582031 190 Z M 7.582031 12.167969 " clip-rule="nonzero"/></clipPath><clipPath id="ab57485ff9"><path d="M 146.417969 12.167969 L 146.417969 164.890625 L 77 189.878906 L 7.582031 164.890625 L 7.582031 12.167969 Z M 146.417969 12.167969 " clip-rule="nonzero"/></clipPath><clipPath id="112c393b2d"><path d="M 7.582031 12.167969 L 146.160156 12.167969 L 146.160156 189.699219 L 7.582031 189.699219 Z M 7.582031 12.167969 " clip-rule="nonzero"/></clipPath><clipPath id="378777c313"><path d="M 146.414062 12.167969 L 146.414062 164.882812 L 77 189.875 L 7.582031 164.882812 L 7.582031 12.167969 Z M 146.414062 12.167969 " clip-rule="nonzero"/></clipPath><clipPath id="45b9f311e8"><path d="M 57.03125 0 L 96.96875 0 L 96.96875 39.9375 L 57.03125 39.9375 Z M 57.03125 0 " clip-rule="nonzero"/></clipPath><clipPath id="1199fb0a21"><path d="M 77 0 C 65.972656 0 57.03125 8.941406 57.03125 19.96875 C 57.03125 30.996094 65.972656 39.9375 77 39.9375 C 88.027344 39.9375 96.96875 30.996094 96.96875 19.96875 C 96.96875 8.941406 88.027344 0 77 0 Z M 77 0 " clip-rule="nonzero"/></clipPath><clipPath id="0746d719de"><path d="M 57.03125 0 L 96.730469 0 L 96.730469 39.699219 L 57.03125 39.699219 Z M 57.03125 0 " clip-rule="nonzero"/></clipPath><clipPath id="a2c8d97886"><path d="M 77 0 C 65.972656 0 57.03125 8.941406 57.03125 19.96875 C 57.03125 30.996094 65.972656 39.933594 77 39.933594 C 88.027344 39.933594 96.964844 30.996094 96.964844 19.96875 C 96.964844 8.941406 88.027344 0 77 0 Z M 77 0 " clip-rule="nonzero"/></clipPath><clipPath id="b5ac48675c"><path d="M 6 43 L 146.90625 43 L 146.90625 47 L 6 47 Z M 6 43 " clip-rule="nonzero"/></clipPath></defs><g clip-path="url(#3c489c833b)"><g clip-path="url(#85d8d3c0a4)"><path fill="#242536" d="M 0.0898438 23.714844 L 138.929688 23.714844 L 138.929688 201.601562 L 0.0898438 201.601562 Z M 0.0898438 23.714844 " fill-opacity="1" fill-rule="nonzero"/></g></g><g clip-path="url(#2c208897ed)"><g clip-path="url(#861705975a)"><path stroke-linecap="butt" transform="matrix(0.749072, 0, 0, 0.749072, 0.0926111, 23.714623)" fill="none" stroke-linejoin="miter" d="M 185.34027 0.000294592 L 185.34027 203.872398 L 92.668288 237.236606 L 0.00152045 203.872398 L 0.00152045 0.000294592 Z M 185.34027 0.000294592 " stroke="#242536" stroke-width="16" stroke-opacity="1" stroke-miterlimit="4"/></g></g><g clip-path="url(#6152b9aecc)"><g clip-path="url(#ab57485ff9)"><path fill="#f8f6e9" d="M 7.582031 12.167969 L 146.417969 12.167969 L 146.417969 190.054688 L 7.582031 190.054688 Z M 7.582031 12.167969 " fill-opacity="1" fill-rule="nonzero"/></g></g><g clip-path="url(#112c393b2d)"><g clip-path="url(#378777c313)"><path stroke-linecap="butt" transform="matrix(0.749072, 0, 0, 0.749072, 7.583328, 12.168195)" fill="none" stroke-linejoin="miter" d="M 185.337018 -0.000302006 L 185.337018 203.871802 L 92.670251 237.23601 L -0.0017318 203.871802 L -0.0017318 -0.000302006 Z M 185.337018 -0.000302006 " stroke="#242536" stroke-width="16" stroke-opacity="1" stroke-miterlimit="4"/></g></g><g clip-path="url(#45b9f311e8)"><g clip-path="url(#1199fb0a21)"><path fill="#242536" d="M 57.03125 0 L 96.96875 0 L 96.96875 39.9375 L 57.03125 39.9375 Z M 57.03125 0 " fill-opacity="1" fill-rule="nonzero"/></g></g><g clip-path="url(#0746d719de)"><g clip-path="url(#a2c8d97886)"><path stroke-linecap="butt" transform="matrix(0.749072, 0, 0, 0.749072, 57.03115, 0.00000998762)" fill="none" stroke-linejoin="miter" d="M 26.658127 -0.0000133333 C 11.936782 -0.0000133333 0.000133658 11.936635 0.000133658 26.65798 C 0.000133658 41.379325 11.936782 53.310759 26.658127 53.310759 C 41.379472 53.310759 53.310906 41.379325 53.310906 26.65798 C 53.310906 11.936635 41.379472 -0.0000133333 26.658127 -0.0000133333 Z M 26.658127 -0.0000133333 " stroke="#f5a099" stroke-width="20" stroke-opacity="1" stroke-miterlimit="4"/></g></g><g clip-path="url(#b5ac48675c)"><path stroke-linecap="butt" transform="matrix(0.749072, 0, 0, 0.749072, 7.581683, 43.944893)" fill="none" stroke-linejoin="miter" d="M 0.000465319 1.502419 L 185.344442 1.502419 " stroke="#242536" stroke-width="3" stroke-opacity="1" stroke-miterlimit="4"/></g><path fill="#f5a099" d="M 66.226562 76.066406 L 66.226562 65.023438 C 66.226562 61.707031 62.359375 60.050781 60.148438 62.257812 L 22.046875 96.5 C 18.730469 99.257812 18.730469 104.78125 22.046875 107.542969 L 60.148438 142.886719 C 62.359375 145.097656 66.226562 143.4375 66.226562 140.125 L 66.226562 125.769531 C 66.226562 121.496094 69.738281 118.035156 74.007812 118.035156 C 104.347656 118.046875 119.796875 126.324219 128.628906 134.605469 C 131.390625 136.8125 135.253906 134.050781 134.148438 130.738281 C 122 100.917969 97.148438 86.007812 73.957031 83.796875 C 69.539062 83.796875 66.226562 80.484375 66.226562 76.066406 " fill-opacity="1" fill-rule="nonzero"/></svg>