<svg width="768" height="152" xmlns="http://www.w3.org/2000/svg" xmlns:xlink="http://www.w3.org/1999/xlink" xml:space="preserve" overflow="hidden"><defs><clipPath id="clip0"><rect x="106" y="257" width="768" height="152"/></clipPath><clipPath id="clip1"><path d="M1.06154 313.442 384.575 302.352 388.869 451.033 5.35591 462.12Z"/></clipPath><clipPath id="clip2"><path d="M384.575 302.352 1.06154 313.442 5.35591 462.12 388.869 451.033Z"/></clipPath><clipPath id="clip3"><path d="M1.06154 313.442 384.575 302.352 388.869 451.033 5.35591 462.12Z"/></clipPath><clipPath id="clip4"><path d="M384.575 302.352 1.06154 313.442 5.35591 462.12 388.869 451.033Z"/></clipPath><clipPath id="clip5"><path d="M1.06154 313.442 384.575 302.352 388.869 451.033 5.35591 462.12Z"/></clipPath><clipPath id="clip6"><path d="M384.575 302.352 1.06154 313.442 5.35591 462.12 388.869 451.033Z"/></clipPath><clipPath id="clip7"><path d="M1.06154 313.442 384.575 302.352 388.869 451.033 5.35591 462.12Z"/></clipPath><clipPath id="clip8"><path d="M384.575 302.352 1.06154 313.442 5.35591 462.12 388.869 451.033Z"/></clipPath></defs><g clip-path="url(#clip0)" transform="translate(-106 -257)"><g><path d="M316.087 153.905 296.848 153.905 296.848 134.666 316.087 134.666Z" fill="#F8F6E9" transform="matrix(1 0 0 1.00049 0.3872 257)"/></g><g><path d="M258.375 134.666 239.136 134.666 239.136 115.427 258.375 115.427Z" fill="#F8F6E9" transform="matrix(1 0 0 1.00049 0.3872 257)"/></g><g><path d="M239.136 153.905 219.897 153.905 219.897 134.666 239.136 134.666Z" fill="#F8F6E9" transform="matrix(1 0 0 1.00049 0.3872 257)"/></g><g><path d="M181.423 134.666 162.185 134.666 162.185 115.427 181.423 115.427Z" fill="#F8F6E9" transform="matrix(1 0 0 1.00049 0.3872 257)"/></g><g><path d="M162.191 153.905 142.952 153.905 142.952 134.666 162.191 134.666Z" fill="#F8F6E9" transform="matrix(1 0 0 1.00049 0.3872 257)"/></g><g><path d="M296.848 134.666 277.61 134.666 277.61 115.427 296.848 115.427Z" fill="#F8F6E9" transform="matrix(1 0 0 1.00049 0.3872 257)"/></g><g><path d="M277.616 153.905 258.375 153.905 258.375 134.666 277.616 134.666Z" fill="#F8F6E9" transform="matrix(1 0 0 1.00049 0.3872 257)"/></g><g><path d="M219.903 134.666 200.664 134.666 200.664 115.427 219.903 115.427Z" fill="#F8F6E9" transform="matrix(1 0 0 1.00049 0.3872 257)"/></g><g><path d="M200.664 153.905 181.423 153.905 181.423 134.666 200.664 134.666Z" fill="#F8F6E9" transform="matrix(1 0 0 1.00049 0.3872 257)"/></g><g><path d="M142.952 134.666 123.711 134.666 123.711 115.427 142.952 115.427Z" fill="#F8F6E9" transform="matrix(1 0 0 1.00049 0.3872 257)"/></g><g><path d="M508.873 153.905 489.633 153.905 489.633 134.666 508.873 134.666Z" fill="#F8F6E9" transform="matrix(1 0 0 1.00049 0.3872 257)"/></g><g><path d="M451.161 134.666 431.92 134.666 431.92 115.427 451.161 115.427Z" fill="#F8F6E9" transform="matrix(1 0 0 1.00049 0.3872 257)"/></g><g><path d="M431.92 153.905 412.681 153.905 412.681 134.666 431.92 134.666Z" fill="#F8F6E9" transform="matrix(1 0 0 1.00049 0.3872 257)"/></g><g><path d="M374.21 134.666 354.969 134.666 354.969 115.427 374.21 115.427Z" fill="#F8F6E9" transform="matrix(1 0 0 1.00049 0.3872 257)"/></g><g><path d="M354.975 153.905 335.736 153.905 335.736 134.666 354.975 134.666Z" fill="#F8F6E9" transform="matrix(1 0 0 1.00049 0.3872 257)"/></g><g><path d="M489.633 134.666 470.394 134.666 470.394 115.427 489.633 115.427Z" fill="#F8F6E9" transform="matrix(1 0 0 1.00049 0.3872 257)"/></g><g><path d="M470.4 153.905 451.161 153.905 451.161 134.666 470.4 134.666Z" fill="#F8F6E9" transform="matrix(1 0 0 1.00049 0.3872 257)"/></g><g><path d="M412.687 134.666 393.448 134.666 393.448 115.427 412.687 115.427Z" fill="#F8F6E9" transform="matrix(1 0 0 1.00049 0.3872 257)"/></g><g><path d="M393.448 153.905 374.21 153.905 374.21 134.666 393.448 134.666Z" fill="#F8F6E9" transform="matrix(1 0 0 1.00049 0.3872 257)"/></g><g><path d="M335.736 134.666 316.497 134.666 316.497 115.427 335.736 115.427Z" fill="#F8F6E9" transform="matrix(1 0 0 1.00049 0.3872 257)"/></g><g><path d="M701.27 153.905 682.031 153.905 682.031 134.666 701.27 134.666Z" fill="#F8F6E9" transform="matrix(1 0 0 1.00049 0.3872 257)"/></g><g><path d="M643.557 134.666 624.319 134.666 624.319 115.427 643.557 115.427Z" fill="#F8F6E9" transform="matrix(1 0 0 1.00049 0.3872 257)"/></g><g><path d="M624.319 153.905 605.08 153.905 605.08 134.666 624.319 134.666Z" fill="#F8F6E9" transform="matrix(1 0 0 1.00049 0.3872 257)"/></g><g><path d="M566.606 134.666 547.367 134.666 547.367 115.427 566.606 115.427Z" fill="#F8F6E9" transform="matrix(1 0 0 1.00049 0.3872 257)"/></g><g><path d="M547.373 153.905 528.132 153.905 528.132 134.666 547.373 134.666Z" fill="#F8F6E9" transform="matrix(1 0 0 1.00049 0.3872 257)"/></g><g><path d="M682.031 134.666 662.792 134.666 662.792 115.427 682.031 115.427Z" fill="#F8F6E9" transform="matrix(1 0 0 1.00049 0.3872 257)"/></g><g><path d="M662.796 153.905 643.557 153.905 643.557 134.666 662.796 134.666Z" fill="#F8F6E9" transform="matrix(1 0 0 1.00049 0.3872 257)"/></g><g><path d="M605.084 134.666 585.845 134.666 585.845 115.427 605.084 115.427Z" fill="#F8F6E9" transform="matrix(1 0 0 1.00049 0.3872 257)"/></g><g><path d="M585.845 153.905 566.606 153.905 566.606 134.666 585.845 134.666Z" fill="#F8F6E9" transform="matrix(1 0 0 1.00049 0.3872 257)"/></g><g><path d="M528.132 134.666 508.894 134.666 508.894 115.427 528.132 115.427Z" fill="#F8F6E9" transform="matrix(1 0 0 1.00049 0.3872 257)"/></g><g><path d="M835.956 134.666 816.715 134.666 816.715 115.427 835.956 115.427Z" fill="#F8F6E9" transform="matrix(1 0 0 1.00049 0.3872 257)"/></g><g><path d="M816.715 153.905 797.476 153.905 797.476 134.666 816.715 134.666Z" fill="#F8F6E9" transform="matrix(1 0 0 1.00049 0.3872 257)"/></g><g><path d="M759.005 134.666 739.764 134.666 739.764 115.427 759.005 115.427Z" fill="#F8F6E9" transform="matrix(1 0 0 1.00049 0.3872 257)"/></g><g><path d="M739.77 153.905 720.531 153.905 720.531 134.666 739.77 134.666Z" fill="#F8F6E9" transform="matrix(1 0 0 1.00049 0.3872 257)"/></g><g><path d="M874.428 134.666 855.189 134.666 855.189 115.427 874.428 115.427Z" fill="#F8F6E9" transform="matrix(1 0 0 1.00049 0.3872 257)"/></g><g><path d="M855.195 153.905 835.956 153.905 835.956 134.666 855.195 134.666Z" fill="#F8F6E9" transform="matrix(1 0 0 1.00049 0.3872 257)"/></g><g><path d="M797.482 134.666 778.243 134.666 778.243 115.427 797.482 115.427Z" fill="#F8F6E9" transform="matrix(1 0 0 1.00049 0.3872 257)"/></g><g><path d="M778.243 153.905 759.005 153.905 759.005 134.666 778.243 134.666Z" fill="#F8F6E9" transform="matrix(1 0 0 1.00049 0.3872 257)"/></g><g><path d="M720.531 134.666 701.292 134.666 701.292 115.427 720.531 115.427Z" fill="#F8F6E9" transform="matrix(1 0 0 1.00049 0.3872 257)"/></g><g><path d="M759.786 96.1983 778.076 96.1983 778.076 115.417 759.786 115.417Z" fill="#F8F6E9" transform="matrix(1 0 0 1.00049 0.3872 257)"/></g><g><path d="M797.656 96.1983 815.946 96.1983 815.946 115.417 797.656 115.417Z" fill="#F8F6E9" transform="matrix(1 0 0 1.00049 0.3872 257)"/></g><g><path d="M835.526 96.1983 853.816 96.1983 853.816 115.417 835.526 115.417Z" fill="#F8F6E9" transform="matrix(1 0 0 1.00049 0.3872 257)"/></g><g><path d="M816.079 76.9594 834.367 76.9594 834.367 96.1781 816.079 96.1781Z" fill="#F8F6E9" transform="matrix(1 0 0 1.00049 0.3872 257)"/></g><g><path d="M778.076 76.9594 796.366 76.9594 796.366 96.1781 778.076 96.1781Z" fill="#F8F6E9" transform="matrix(1 0 0 1.00049 0.3872 257)"/></g><g><path d="M853.816 76.9594 872.106 76.9594 872.106 96.1781 853.816 96.1781Z" fill="#F8F6E9" transform="matrix(1 0 0 1.00049 0.3872 257)"/></g><g><path d="M797.789 57.7186 816.079 57.7186 816.079 76.9372 797.789 76.9372Z" fill="#F8F6E9" transform="matrix(1 0 0 1.00049 0.3872 257)"/></g><g><path d="M834.369 57.7186 852.657 57.7186 852.657 76.9372 834.369 76.9372Z" fill="#F8F6E9" transform="matrix(1 0 0 1.00049 0.3872 257)"/></g><g><path d="M816.079 38.4797 834.367 38.4797 834.367 57.6984 816.079 57.6984Z" fill="#F8F6E9" transform="matrix(1 0 0 1.00049 0.3872 257)"/></g><g><path d="M852.657 38.4797 870.947 38.4797 870.947 57.6984 852.657 57.6984Z" fill="#F8F6E9" transform="matrix(1 0 0 1.00049 0.3872 257)"/></g><g><path d="M835.526 19.2388 853.816 19.2388 853.816 38.4575 835.526 38.4575Z" fill="#F8F6E9" transform="matrix(1 0 0 1.00049 0.3872 257)"/></g><g><path d="M853.816 0 872.106 0 872.106 19.2187 853.816 19.2187Z" fill="#F8F6E9" transform="matrix(1 0 0 1.00049 0.3872 257)"/></g><g><g clip-path="url(#clip1)"><g clip-path="url(#clip2)"><path d="M282.633 196.808 316.523 195.829C316.523 195.829 316.576 195.827 316.606 195.827L355.328 193.107C355.637 193.083 355.924 193 356.184 192.849L386.317 191.977C386.961 191.958 387.551 191.637 387.922 191.112 388.294 190.585 388.389 189.915 388.189 189.307 375.084 149.719 354.743 118.306 329.368 98.4595 306.537 80.6117 280.422 72.3077 253.848 74.4478 247.519 74.9566 239.675 77.1088 231.365 79.3882 212.423 84.5891 190.961 90.4765 174.256 82.0755 150.004 69.8768 116.8 53.1678 63.7916 78.189 42.0917 88.4353 25.0252 112.94 14.4498 149.059 6.51524 176.136 4.93842 200.543 4.92227 200.785 4.88593 201.355 5.09186 201.91 5.4896 202.324 5.88936 202.736 6.44054 202.956 7.00989 202.94L43.5352 201.884C43.8663 202.047 44.2459 202.12 44.6255 202.088L48.7301 201.732 50.6925 201.676C50.957 201.67 51.2134 201.609 51.4375 201.51L83.1032 198.845 125.691 196.628C126.334 196.594 126.915 196.259 127.27 195.726 127.628 195.193 127.706 194.525 127.492 193.917 125.15 187.359 120.353 168.807 126.269 161.821 128.482 159.202 132.051 158.381 137.186 159.293 146.739 160.995 152.372 164.401 157.811 167.7 167.432 173.533 176.519 179.045 203.818 173.178L205.288 172.863C225.49 168.526 241.452 165.102 253.677 167.387 266.259 169.744 274.581 178.403 280.652 195.469 280.949 196.295 281.746 196.84 282.625 196.816ZM316.368 191.771 283.983 192.705C269.875 154.837 245.13 160.153 204.444 168.886L202.976 169.2C177.25 174.726 169.221 169.859 159.923 164.222 154.43 160.894 148.205 157.125 137.904 155.292 131.314 154.119 126.358 155.437 123.176 159.205 116.081 167.603 120.757 185.918 122.841 192.718L82.8346 194.805 50.4664 197.529C50.2766 197.543 50.103 197.585 49.9314 197.644L48.5605 197.682C48.5221 197.684 48.4837 197.684 48.4474 197.686L45.2493 197.961C44.9869 197.848 44.6982 197.795 44.3953 197.803L9.15607 198.821C10.4664 184.345 19.7719 103.467 65.5259 81.8615 116.741 57.6883 147.622 73.2283 172.435 85.7076 190.533 94.8092 213.769 88.4313 232.441 83.3051 240.563 81.0781 248.225 78.9683 254.177 78.4938 297.561 75.003 354.066 102.021 383.467 187.997L354.969 188.821C354.597 188.831 354.244 188.94 353.947 189.13L316.36 191.771Z" fill="#FFCF7E" transform="matrix(1 0 0 1.00049 0.3872 257)"/></g></g></g><g><g clip-path="url(#clip3)"><g clip-path="url(#clip4)"><path d="M6.95134 200.917C6.95134 200.917 12.9093 104.452 64.6618 80.0283 116.422 55.6047 148.201 71.2477 173.345 83.8906 198.488 96.5435 234.086 78.0658 254.012 76.4668 303.234 72.5056 358.314 105.514 386.259 189.956L352.043 190.943C352.043 190.943 307.773 111.819 256.061 117.981 204.349 124.153 198.304 122.411 159.093 104.587 119.885 86.7636 47.6923 98.9299 50.634 199.655Z" fill="#FFCF7E" transform="matrix(1 0 0 1.00049 0.3872 257)"/></g></g></g><g><g clip-path="url(#clip5)"><g clip-path="url(#clip6)"><path d="M355.179 191.08C355.179 191.08 326.261 146.499 301.318 130.309 276.378 114.129 267.355 114.601 248.052 116.507 228.748 118.415 197.466 122.253 172.584 109.495 147.694 96.7373 127.918 89.8728 99.2934 97.3329 70.6683 104.793 44.0642 129.733 44.4458 200.061L82.9316 196.826C82.9316 196.826 76.5415 138.344 109.396 129.261 142.241 120.188 165.356 156.265 209.259 147.721 253.164 139.174 276.6 130.008 316.457 193.806Z" fill="#303144" transform="matrix(1 0 0 1.00049 0.3872 257)"/></g></g></g><g><g clip-path="url(#clip7)"><g clip-path="url(#clip8)"><path d="M316.457 193.806C316.457 193.806 291.357 149.653 268.09 142.602 242.015 134.7 226.729 145.57 200.24 148.776 177.581 151.516 153.119 136.267 134.644 129.267 111.868 120.648 78.3545 125.013 82.9316 196.826L125.578 194.601C125.578 194.601 110.491 152.477 137.537 157.289 164.577 162.102 161.498 180.178 203.39 171.189 245.288 162.203 268.98 156.628 282.558 194.787L316.449 193.806Z" fill="#FFCF7E" transform="matrix(1 0 0 1.00049 0.3872 257)"/></g></g></g></g></svg>