<?xml version="1.0" encoding="UTF-8"?>
<svg id="Layer_1" data-name="Layer 1" xmlns="http://www.w3.org/2000/svg" version="1.1" xmlns:xlink="http://www.w3.org/1999/xlink" viewBox="0 0 2028.5 211.7">
  <defs>
    <style>
      .cls-1 {
        clip-path: url(#clippath-45);
      }

      .cls-2 {
        clip-path: url(#clippath-20);
      }

      .cls-3 {
        clip-path: url(#clippath-11);
      }

      .cls-4 {
        clip-path: url(#clippath-16);
      }

      .cls-5 {
        clip-path: url(#clippath-33);
      }

      .cls-6 {
        clip-path: url(#clippath-47);
      }

      .cls-7 {
        clip-path: url(#clippath-41);
      }

      .cls-8 {
        clip-path: url(#clippath-32);
      }

      .cls-9 {
        clip-path: url(#clippath-2);
      }

      .cls-10 {
        clip-path: url(#clippath-13);
      }

      .cls-11 {
        clip-path: url(#clippath-37);
      }

      .cls-12 {
        clip-path: url(#clippath-46);
      }

      .cls-13 {
        clip-path: url(#clippath-25);
      }

      .cls-14 {
        clip-path: url(#clippath-15);
      }

      .cls-15 {
        clip-path: url(#clippath-6);
      }

      .cls-16 {
        clip-path: url(#clippath-40);
      }

      .cls-17 {
        clip-path: url(#clippath-26);
      }

      .cls-18 {
        fill: #f8f6e9;
      }

      .cls-18, .cls-19, .cls-20, .cls-21 {
        stroke-width: 0px;
      }

      .cls-19 {
        fill: none;
      }

      .cls-22 {
        clip-path: url(#clippath-7);
      }

      .cls-23 {
        clip-path: url(#clippath-21);
      }

      .cls-24 {
        clip-path: url(#clippath-34);
      }

      .cls-25 {
        clip-path: url(#clippath-1);
      }

      .cls-26 {
        clip-path: url(#clippath-4);
      }

      .cls-27 {
        clip-path: url(#clippath-38);
      }

      .cls-28 {
        clip-path: url(#clippath-36);
      }

      .cls-29 {
        clip-path: url(#clippath-27);
      }

      .cls-30 {
        clip-path: url(#clippath-44);
      }

      .cls-31 {
        clip-path: url(#clippath-12);
      }

      .cls-32 {
        clip-path: url(#clippath-24);
      }

      .cls-33 {
        clip-path: url(#clippath-30);
      }

      .cls-34 {
        clip-path: url(#clippath-22);
      }

      .cls-35 {
        clip-path: url(#clippath-9);
      }

      .cls-36 {
        clip-path: url(#clippath-52);
      }

      .cls-37 {
        clip-path: url(#clippath);
      }

      .cls-38 {
        clip-path: url(#clippath-50);
      }

      .cls-20 {
        fill: #ffcf7e;
      }

      .cls-39 {
        clip-path: url(#clippath-48);
      }

      .cls-40 {
        clip-path: url(#clippath-39);
      }

      .cls-41 {
        clip-path: url(#clippath-19);
      }

      .cls-42 {
        clip-path: url(#clippath-31);
      }

      .cls-43 {
        clip-path: url(#clippath-3);
      }

      .cls-21 {
        fill: #303144;
      }

      .cls-44 {
        clip-path: url(#clippath-43);
      }

      .cls-45 {
        clip-path: url(#clippath-8);
      }

      .cls-46 {
        clip-path: url(#clippath-29);
      }

      .cls-47 {
        clip-path: url(#clippath-18);
      }

      .cls-48 {
        clip-path: url(#clippath-14);
      }

      .cls-49 {
        clip-path: url(#clippath-17);
      }

      .cls-50 {
        clip-path: url(#clippath-5);
      }

      .cls-51 {
        clip-path: url(#clippath-42);
      }

      .cls-52 {
        clip-path: url(#clippath-10);
      }

      .cls-53 {
        clip-path: url(#clippath-23);
      }

      .cls-54 {
        clip-path: url(#clippath-49);
      }

      .cls-55 {
        clip-path: url(#clippath-51);
      }

      .cls-56 {
        clip-path: url(#clippath-28);
      }

      .cls-57 {
        clip-path: url(#clippath-35);
      }
    </style>
    <clipPath id="clippath">
      <rect class="cls-19" x="536.8" y="157.3" width="50.8" height="51"/>
    </clipPath>
    <clipPath id="clippath-1">
      <rect class="cls-19" x="388.8" y="109.4" width="50.7" height="49.3"/>
    </clipPath>
    <clipPath id="clippath-2">
      <rect class="cls-19" x="338.1" y="157.3" width="52" height="51"/>
    </clipPath>
    <clipPath id="clippath-3">
      <rect class="cls-19" x="190.1" y="109.4" width="50.7" height="49.3"/>
    </clipPath>
    <clipPath id="clippath-4">
      <rect class="cls-19" x="139.4" y="157.3" width="52" height="51"/>
    </clipPath>
    <clipPath id="clippath-5">
      <rect class="cls-19" x="487.4" y="109.4" width="50.7" height="49.3"/>
    </clipPath>
    <clipPath id="clippath-6">
      <rect class="cls-19" x="438.1" y="157.3" width="50.7" height="51"/>
    </clipPath>
    <clipPath id="clippath-7">
      <rect class="cls-19" x="288.8" y="109.4" width="50.7" height="49.3"/>
    </clipPath>
    <clipPath id="clippath-8">
      <rect class="cls-19" x="239.4" y="157.3" width="50.7" height="51"/>
    </clipPath>
    <clipPath id="clippath-9">
      <rect class="cls-19" x="90.9" y="109.4" width="49.8" height="49.3"/>
    </clipPath>
    <clipPath id="clippath-10">
      <rect class="cls-19" x="1034.1" y="157.3" width="51" height="51"/>
    </clipPath>
    <clipPath id="clippath-11">
      <rect class="cls-19" x="886.1" y="109.4" width="50.7" height="49.3"/>
    </clipPath>
    <clipPath id="clippath-12">
      <rect class="cls-19" x="836.8" y="157.3" width="50.7" height="51"/>
    </clipPath>
    <clipPath id="clippath-13">
      <rect class="cls-19" x="687.4" y="109.4" width="50.7" height="49.3"/>
    </clipPath>
    <clipPath id="clippath-14">
      <rect class="cls-19" x="638.1" y="157.3" width="50.7" height="51"/>
    </clipPath>
    <clipPath id="clippath-15">
      <rect class="cls-19" x="984.8" y="109.4" width="50.7" height="49.3"/>
    </clipPath>
    <clipPath id="clippath-16">
      <rect class="cls-19" x="935.4" y="157.3" width="50.7" height="51"/>
    </clipPath>
    <clipPath id="clippath-17">
      <rect class="cls-19" x="786.1" y="109.4" width="52" height="49.3"/>
    </clipPath>
    <clipPath id="clippath-18">
      <rect class="cls-19" x="736.8" y="157.3" width="50.7" height="51"/>
    </clipPath>
    <clipPath id="clippath-19">
      <rect class="cls-19" x="588.5" y="109.4" width="51" height="49.3"/>
    </clipPath>
    <clipPath id="clippath-20">
      <rect class="cls-19" x="1531.4" y="157.3" width="50.2" height="51"/>
    </clipPath>
    <clipPath id="clippath-21">
      <rect class="cls-19" x="1382.1" y="109.4" width="50.7" height="49.3"/>
    </clipPath>
    <clipPath id="clippath-22">
      <rect class="cls-19" x="1332.8" y="157.3" width="50.7" height="51"/>
    </clipPath>
    <clipPath id="clippath-23">
      <rect class="cls-19" x="1183.4" y="109.4" width="50.7" height="49.3"/>
    </clipPath>
    <clipPath id="clippath-24">
      <rect class="cls-19" x="1134.1" y="157.3" width="50.7" height="51"/>
    </clipPath>
    <clipPath id="clippath-25">
      <rect class="cls-19" x="1482.1" y="109.4" width="50.7" height="49.3"/>
    </clipPath>
    <clipPath id="clippath-26">
      <rect class="cls-19" x="1431.4" y="157.3" width="52" height="51"/>
    </clipPath>
    <clipPath id="clippath-27">
      <rect class="cls-19" x="1283.4" y="109.4" width="50.7" height="49.3"/>
    </clipPath>
    <clipPath id="clippath-28">
      <rect class="cls-19" x="1232.8" y="157.3" width="52" height="51"/>
    </clipPath>
    <clipPath id="clippath-29">
      <rect class="cls-19" x="1085" y="109.4" width="50.4" height="49.3"/>
    </clipPath>
    <clipPath id="clippath-30">
      <rect class="cls-19" x="1879.4" y="109.4" width="50.7" height="49.3"/>
    </clipPath>
    <clipPath id="clippath-31">
      <rect class="cls-19" x="1828.8" y="157.3" width="52" height="51"/>
    </clipPath>
    <clipPath id="clippath-32">
      <rect class="cls-19" x="1680.8" y="109.4" width="50.7" height="49.3"/>
    </clipPath>
    <clipPath id="clippath-33">
      <rect class="cls-19" x="1630.1" y="157.3" width="52" height="51"/>
    </clipPath>
    <clipPath id="clippath-34">
      <rect class="cls-19" x="1978.1" y="109.4" width="50.7" height="49.3"/>
    </clipPath>
    <clipPath id="clippath-35">
      <rect class="cls-19" x="1928.8" y="157.3" width="50.7" height="51"/>
    </clipPath>
    <clipPath id="clippath-36">
      <rect class="cls-19" x="1779.4" y="109.4" width="50.7" height="49.3"/>
    </clipPath>
    <clipPath id="clippath-37">
      <rect class="cls-19" x="1730.1" y="157.3" width="50.7" height="51"/>
    </clipPath>
    <clipPath id="clippath-38">
      <rect class="cls-19" x="1581.6" y="109.4" width="49.9" height="49.3"/>
    </clipPath>
    <clipPath id="clippath-39">
      <rect class="cls-19" x="1928.1" y="59.4" width="47.2" height="49.7"/>
    </clipPath>
    <clipPath id="clippath-40">
      <rect class="cls-19" x="1975.3" y="9.7" width="47.2" height="49.7"/>
    </clipPath>
    <clipPath id="clippath-41">
      <rect class="cls-19" x="-475.2" y="-5.3" width="990.7" height="357.3"/>
    </clipPath>
    <clipPath id="clippath-42">
      <rect class="cls-19" x="-480.8" y="-41.8" width="990.2" height="383.7" transform="translate(-4.3 .5) rotate(-1.7)"/>
    </clipPath>
    <clipPath id="clippath-43">
      <rect class="cls-19" x="-480.8" y="-41.8" width="990.2" height="383.7" transform="translate(-4.3 .5) rotate(-1.7)"/>
    </clipPath>
    <clipPath id="clippath-44">
      <rect class="cls-19" x="-471.2" width="981.3" height="346.7"/>
    </clipPath>
    <clipPath id="clippath-45">
      <rect class="cls-19" x="-480.8" y="-41.8" width="990.2" height="383.7" transform="translate(-4.3 .5) rotate(-1.7)"/>
    </clipPath>
    <clipPath id="clippath-46">
      <rect class="cls-19" x="-480.8" y="-41.8" width="990.2" height="383.7" transform="translate(-4.3 .5) rotate(-1.7)"/>
    </clipPath>
    <clipPath id="clippath-47">
      <rect class="cls-19" x="-373.9" y="69.3" width="804" height="274.7"/>
    </clipPath>
    <clipPath id="clippath-48">
      <rect class="cls-19" x="-480.8" y="-41.8" width="990.2" height="383.7" transform="translate(-4.3 .5) rotate(-1.7)"/>
    </clipPath>
    <clipPath id="clippath-49">
      <rect class="cls-19" x="-480.8" y="-41.8" width="990.2" height="383.7" transform="translate(-4.3 .5) rotate(-1.7)"/>
    </clipPath>
    <clipPath id="clippath-50">
      <rect class="cls-19" x="-275.2" y="152" width="605.3" height="184"/>
    </clipPath>
    <clipPath id="clippath-51">
      <rect class="cls-19" x="-480.8" y="-41.8" width="990.2" height="383.7" transform="translate(-4.3 .5) rotate(-1.7)"/>
    </clipPath>
    <clipPath id="clippath-52">
      <rect class="cls-19" x="-480.8" y="-41.8" width="990.2" height="383.7" transform="translate(-4.3 .5) rotate(-1.7)"/>
    </clipPath>
  </defs>
  <g class="cls-37">
    <path class="cls-18" d="M587.5,208.3h-49.7v-49.7h49.7v49.7Z"/>
  </g>
  <g class="cls-25">
    <path class="cls-18" d="M438.6,158.7h-49.7v-49.7h49.7v49.7Z"/>
  </g>
  <g class="cls-9">
    <path class="cls-18" d="M388.9,208.3h-49.7v-49.7h49.7v49.7Z"/>
  </g>
  <g class="cls-43">
    <path class="cls-18" d="M240,158.7h-49.7v-49.7h49.7v49.7Z"/>
  </g>
  <g class="cls-26">
    <path class="cls-18" d="M190.3,208.3h-49.7v-49.7h49.7v49.7Z"/>
  </g>
  <g class="cls-50">
    <path class="cls-18" d="M537.9,158.7h-49.7v-49.7h49.7v49.7Z"/>
  </g>
  <g class="cls-15">
    <path class="cls-18" d="M488.2,208.3h-49.7v-49.7h49.7v49.7Z"/>
  </g>
  <g class="cls-22">
    <path class="cls-18" d="M339.3,158.7h-49.7v-49.7h49.7v49.7Z"/>
  </g>
  <g class="cls-45">
    <path class="cls-18" d="M289.6,208.3h-49.7v-49.7h49.7v49.7Z"/>
  </g>
  <g class="cls-35">
    <path class="cls-18" d="M140.7,158.7h-49.7v-49.7h49.7v49.7Z"/>
  </g>
  <g class="cls-52">
    <path class="cls-18" d="M1085.1,208.3h-49.7v-49.7h49.7v49.7Z"/>
  </g>
  <g class="cls-3">
    <path class="cls-18" d="M936.1,158.7h-49.7v-49.7h49.7v49.7Z"/>
  </g>
  <g class="cls-31">
    <path class="cls-18" d="M886.5,208.3h-49.7v-49.7h49.7v49.7Z"/>
  </g>
  <g class="cls-10">
    <path class="cls-18" d="M737.5,158.7h-49.7v-49.7h49.7v49.7Z"/>
  </g>
  <g class="cls-48">
    <path class="cls-18" d="M687.9,208.3h-49.7v-49.7h49.7v49.7Z"/>
  </g>
  <g class="cls-14">
    <path class="cls-18" d="M1035.4,158.7h-49.7v-49.7h49.7v49.7Z"/>
  </g>
  <g class="cls-4">
    <path class="cls-18" d="M985.8,208.3h-49.7v-49.7h49.7v49.7Z"/>
  </g>
  <g class="cls-49">
    <path class="cls-18" d="M836.8,158.7h-49.7v-49.7h49.7v49.7Z"/>
  </g>
  <g class="cls-47">
    <path class="cls-18" d="M787.2,208.3h-49.7v-49.7h49.7v49.7Z"/>
  </g>
  <g class="cls-41">
    <path class="cls-18" d="M638.2,158.7h-49.7v-49.7h49.7v49.7Z"/>
  </g>
  <g class="cls-2">
    <path class="cls-18" d="M1581.6,208.3h-49.7v-49.7h49.7v49.7Z"/>
  </g>
  <g class="cls-23">
    <path class="cls-18" d="M1432.7,158.7h-49.7v-49.7h49.7v49.7Z"/>
  </g>
  <g class="cls-34">
    <path class="cls-18" d="M1383,208.3h-49.7v-49.7h49.7v49.7Z"/>
  </g>
  <g class="cls-53">
    <path class="cls-18" d="M1234.1,158.7h-49.7v-49.7h49.7v49.7Z"/>
  </g>
  <g class="cls-32">
    <path class="cls-18" d="M1184.4,208.3h-49.7v-49.7h49.7v49.7Z"/>
  </g>
  <g class="cls-13">
    <path class="cls-18" d="M1532,158.7h-49.7v-49.7h49.7v49.7Z"/>
  </g>
  <g class="cls-17">
    <path class="cls-18" d="M1482.3,208.3h-49.7v-49.7h49.7v49.7Z"/>
  </g>
  <g class="cls-29">
    <path class="cls-18" d="M1333.4,158.7h-49.7v-49.7h49.7v49.7Z"/>
  </g>
  <g class="cls-56">
    <path class="cls-18" d="M1283.7,208.3h-49.7v-49.7h49.7v49.7Z"/>
  </g>
  <g class="cls-46">
    <path class="cls-18" d="M1134.8,158.7h-49.7v-49.7h49.7v49.7Z"/>
  </g>
  <g class="cls-33">
    <path class="cls-18" d="M1929.2,158.7h-49.7v-49.7h49.7v49.7Z"/>
  </g>
  <g class="cls-42">
    <path class="cls-18" d="M1879.6,208.3h-49.7v-49.7h49.7v49.7Z"/>
  </g>
  <g class="cls-8">
    <path class="cls-18" d="M1730.6,158.7h-49.7v-49.7h49.7v49.7Z"/>
  </g>
  <g class="cls-5">
    <path class="cls-18" d="M1681,208.3h-49.7v-49.7h49.7v49.7Z"/>
  </g>
  <g class="cls-24">
    <path class="cls-18" d="M2028.5,158.7h-49.7v-49.7h49.7v49.7Z"/>
  </g>
  <g class="cls-57">
    <path class="cls-18" d="M1978.9,208.3h-49.7v-49.7h49.7v49.7Z"/>
  </g>
  <g class="cls-28">
    <path class="cls-18" d="M1829.9,158.7h-49.7v-49.7h49.7v49.7Z"/>
  </g>
  <g class="cls-11">
    <path class="cls-18" d="M1780.3,208.3h-49.7v-49.7h49.7v49.7Z"/>
  </g>
  <g class="cls-27">
    <path class="cls-18" d="M1631.3,158.7h-49.7v-49.7h49.7v49.7Z"/>
  </g>
  <g class="cls-40">
    <path class="cls-18" d="M1928.1,59.4h47.2v49.6h-47.2v-49.6Z"/>
  </g>
  <g class="cls-16">
    <path class="cls-18" d="M1975.3,9.7h47.2v49.6h-47.2V9.7Z"/>
  </g>
  <g class="cls-7">
    <g class="cls-51">
      <g class="cls-44">
        <path class="cls-20" d="M241.5,334.9l87.5-2.5s.1,0,.2,0l99.9-7c.8,0,1.5-.3,2.2-.7l77.8-2.2c1.7,0,3.2-.9,4.1-2.2,1-1.4,1.2-3.1.7-4.7-33.8-102.2-86.3-183.2-151.8-234.5-58.9-46.1-126.3-67.5-194.9-62-16.3,1.3-36.6,6.9-58,12.8-48.9,13.4-104.3,28.6-147.4,6.9C-100.7,7.3-186.4-35.8-323.2,28.8c-56,26.4-100,89.7-127.3,182.9-20.5,69.9-24.5,132.9-24.6,133.5,0,1.5.4,2.9,1.5,4,1,1.1,2.5,1.6,3.9,1.6l94.3-2.7c.9.4,1.8.6,2.8.5l10.6-.9h5.1c.7-.2,1.3-.3,1.9-.6l81.7-6.9,109.9-5.7c1.7,0,3.2-1,4.1-2.3.9-1.4,1.1-3.1.6-4.7-6-16.9-18.4-64.8-3.2-82.8,5.7-6.8,14.9-8.9,28.2-6.5,24.7,4.4,39.2,13.2,53.2,21.7,24.8,15,48.3,29.3,118.7,14.1l3.8-.8c52.1-11.2,93.3-20,124.9-14.1,32.5,6.1,54,28.4,69.6,72.5.8,2.1,2.8,3.5,5.1,3.5h0ZM328.6,321.9l-83.6,2.4c-36.4-97.7-100.3-84-205.3-61.5l-3.8.8c-66.4,14.3-87.1,1.7-111.1-12.8-14.2-8.6-30.2-18.3-56.8-23-17-3-29.8.4-38,10.1-18.3,21.7-6.2,68.9-.9,86.5l-103.3,5.4-83.5,7c-.5,0-.9.1-1.4.3h-3.5c0,.1-.2.1-.3.1l-8.3.7c-.7-.3-1.4-.4-2.2-.4l-90.9,2.6c3.4-37.4,27.4-246.1,145.5-301.9C-186.6-24.1-106.9,16-42.9,48.2c46.7,23.5,106.7,7,154.9-6.2,21-5.8,40.7-11.2,56.1-12.4,112-9,257.8,60.7,333.7,282.6l-73.6,2.1c-1,0-1.9.3-2.6.8l-97,6.8h0Z"/>
      </g>
    </g>
  </g>
  <g class="cls-30">
    <g class="cls-1">
      <g class="cls-12">
        <path class="cls-20" d="M-469.9,345.5s15.4-249,148.9-312C-187.4-29.5-105.4,10.9-40.5,43.5,24.4,76.2,116.3,28.5,167.7,24.4c127-10.2,269.2,75,341.3,292.9l-88.3,2.6s-114.3-204.2-247.7-188.3c-133.5,15.9-149.1,11.4-250.3-34.6s-287.5-14.6-279.9,245.4l-112.7,3.3Z"/>
      </g>
    </g>
  </g>
  <g class="cls-6">
    <g class="cls-39">
      <g class="cls-54">
        <path class="cls-21" d="M428.8,320.2s-74.6-115.1-139-156.8c-64.4-41.8-87.7-40.5-137.5-35.6s-130.6,14.8-194.8-18.1c-64.2-32.9-115.3-50.6-189.2-31.4-73.9,19.3-142.5,83.6-141.6,265.1l99.3-8.3s-16.5-150.9,68.3-174.4c84.8-23.4,144.4,69.7,257.7,47.6,113.3-22.1,173.8-45.7,276.7,118.9l99.9-7Z"/>
      </g>
    </g>
  </g>
  <g class="cls-38">
    <g class="cls-55">
      <g class="cls-36">
        <path class="cls-20" d="M328.8,327.2s-64.8-114-124.8-132.2c-67.3-20.4-106.7,7.7-175.1,15.9-58.5,7.1-121.6-32.3-169.3-50.3-58.8-22.2-145.3-11-133.5,174.4l110.1-5.7s-38.9-108.7,30.9-96.3c69.8,12.4,61.8,59.1,170,35.9,108.1-23.2,169.3-37.6,204.3,60.9l87.5-2.5h0Z"/>
      </g>
    </g>
  </g>
</svg>