<svg xmlns="http://www.w3.org/2000/svg" xmlns:xlink="http://www.w3.org/1999/xlink" width="2984" zoomAndPan="magnify" viewBox="0 0 2238 74.999997" height="100" preserveAspectRatio="xMidYMid meet" version="1.0"><defs><clipPath id="f6f040ec9e"><path d="M 335 37 L 372.703125 37 L 372.703125 74.535156 L 335 74.535156 Z M 335 37 " clip-rule="nonzero"/></clipPath><clipPath id="645b5167cb"><path d="M 223 0.285156 L 261 0.285156 L 261 38 L 223 38 Z M 223 0.285156 " clip-rule="nonzero"/></clipPath><clipPath id="e75f060446"><path d="M 186 37 L 224 37 L 224 74.535156 L 186 74.535156 Z M 186 37 " clip-rule="nonzero"/></clipPath><clipPath id="328da74d19"><path d="M 74 0.285156 L 112 0.285156 L 112 38 L 74 38 Z M 74 0.285156 " clip-rule="nonzero"/></clipPath><clipPath id="9607124362"><path d="M 37 37 L 75 37 L 75 74.535156 L 37 74.535156 Z M 37 37 " clip-rule="nonzero"/></clipPath><clipPath id="5531b76111"><path d="M 298 0.285156 L 336 0.285156 L 336 38 L 298 38 Z M 298 0.285156 " clip-rule="nonzero"/></clipPath><clipPath id="7a427713e2"><path d="M 260 37 L 299 37 L 299 74.535156 L 260 74.535156 Z M 260 37 " clip-rule="nonzero"/></clipPath><clipPath id="2d6d6a3f04"><path d="M 149 0.285156 L 187 0.285156 L 187 38 L 149 38 Z M 149 0.285156 " clip-rule="nonzero"/></clipPath><clipPath id="bb87740d04"><path d="M 111 37 L 150 37 L 150 74.535156 L 111 74.535156 Z M 111 37 " clip-rule="nonzero"/></clipPath><clipPath id="0517d009c9"><path d="M 0 0.285156 L 38 0.285156 L 38 38 L 0 38 Z M 0 0.285156 " clip-rule="nonzero"/></clipPath><clipPath id="1e55142d6b"><path d="M 708 37 L 746.164062 37 L 746.164062 74.535156 L 708 74.535156 Z M 708 37 " clip-rule="nonzero"/></clipPath><clipPath id="ab3f4f7760"><path d="M 597 0.285156 L 635 0.285156 L 635 38 L 597 38 Z M 597 0.285156 " clip-rule="nonzero"/></clipPath><clipPath id="e8be56fead"><path d="M 559 37 L 598 37 L 598 74.535156 L 559 74.535156 Z M 559 37 " clip-rule="nonzero"/></clipPath><clipPath id="6fb8f8d727"><path d="M 448 0.285156 L 486 0.285156 L 486 38 L 448 38 Z M 448 0.285156 " clip-rule="nonzero"/></clipPath><clipPath id="41e0804956"><path d="M 410 37 L 449 37 L 449 74.535156 L 410 74.535156 Z M 410 37 " clip-rule="nonzero"/></clipPath><clipPath id="4acb84b545"><path d="M 671 0.285156 L 709 0.285156 L 709 38 L 671 38 Z M 671 0.285156 " clip-rule="nonzero"/></clipPath><clipPath id="c1df3d1e10"><path d="M 634 37 L 672 37 L 672 74.535156 L 634 74.535156 Z M 634 37 " clip-rule="nonzero"/></clipPath><clipPath id="1d95134c60"><path d="M 522 0.285156 L 560 0.285156 L 560 38 L 522 38 Z M 522 0.285156 " clip-rule="nonzero"/></clipPath><clipPath id="52efcea0c7"><path d="M 485 37 L 523 37 L 523 74.535156 L 485 74.535156 Z M 485 37 " clip-rule="nonzero"/></clipPath><clipPath id="dde8c5e3d4"><path d="M 373.414062 0.285156 L 411 0.285156 L 411 38 L 373.414062 38 Z M 373.414062 0.285156 " clip-rule="nonzero"/></clipPath><clipPath id="53d79d621c"><path d="M 1081 37 L 1118.878906 37 L 1118.878906 74.535156 L 1081 74.535156 Z M 1081 37 " clip-rule="nonzero"/></clipPath><clipPath id="dcfbe01499"><path d="M 969 0.285156 L 1008 0.285156 L 1008 38 L 969 38 Z M 969 0.285156 " clip-rule="nonzero"/></clipPath><clipPath id="67cc79c188"><path d="M 932 37 L 970 37 L 970 74.535156 L 932 74.535156 Z M 932 37 " clip-rule="nonzero"/></clipPath><clipPath id="bc01c90c38"><path d="M 820 0.285156 L 859 0.285156 L 859 38 L 820 38 Z M 820 0.285156 " clip-rule="nonzero"/></clipPath><clipPath id="985525f7d8"><path d="M 783 37 L 821 37 L 821 74.535156 L 783 74.535156 Z M 783 37 " clip-rule="nonzero"/></clipPath><clipPath id="d3db0b6768"><path d="M 1044 0.285156 L 1082 0.285156 L 1082 38 L 1044 38 Z M 1044 0.285156 " clip-rule="nonzero"/></clipPath><clipPath id="a7b48a068f"><path d="M 1007 37 L 1045 37 L 1045 74.535156 L 1007 74.535156 Z M 1007 37 " clip-rule="nonzero"/></clipPath><clipPath id="50e58100fd"><path d="M 895 0.285156 L 933 0.285156 L 933 38 L 895 38 Z M 895 0.285156 " clip-rule="nonzero"/></clipPath><clipPath id="f085646d46"><path d="M 858 37 L 896 37 L 896 74.535156 L 858 74.535156 Z M 858 37 " clip-rule="nonzero"/></clipPath><clipPath id="018eea5232"><path d="M 746.128906 0.285156 L 784 0.285156 L 784 38 L 746.128906 38 Z M 746.128906 0.285156 " clip-rule="nonzero"/></clipPath><clipPath id="ac6cdba8b7"><path d="M 1454 37 L 1491.589844 37 L 1491.589844 74.535156 L 1454 74.535156 Z M 1454 37 " clip-rule="nonzero"/></clipPath><clipPath id="36cc2c0efe"><path d="M 1342 0.285156 L 1380 0.285156 L 1380 38 L 1342 38 Z M 1342 0.285156 " clip-rule="nonzero"/></clipPath><clipPath id="74d5a3aed5"><path d="M 1305 37 L 1343 37 L 1343 74.535156 L 1305 74.535156 Z M 1305 37 " clip-rule="nonzero"/></clipPath><clipPath id="848779180f"><path d="M 1193 0.285156 L 1231 0.285156 L 1231 38 L 1193 38 Z M 1193 0.285156 " clip-rule="nonzero"/></clipPath><clipPath id="e5502f2a75"><path d="M 1156 37 L 1194 37 L 1194 74.535156 L 1156 74.535156 Z M 1156 37 " clip-rule="nonzero"/></clipPath><clipPath id="d7518bcd8f"><path d="M 1417 0.285156 L 1455 0.285156 L 1455 38 L 1417 38 Z M 1417 0.285156 " clip-rule="nonzero"/></clipPath><clipPath id="1b34c7f0c6"><path d="M 1379 37 L 1418 37 L 1418 74.535156 L 1379 74.535156 Z M 1379 37 " clip-rule="nonzero"/></clipPath><clipPath id="0afed60718"><path d="M 1267 0.285156 L 1306 0.285156 L 1306 38 L 1267 38 Z M 1267 0.285156 " clip-rule="nonzero"/></clipPath><clipPath id="783424140e"><path d="M 1230 37 L 1268 37 L 1268 74.535156 L 1230 74.535156 Z M 1230 37 " clip-rule="nonzero"/></clipPath><clipPath id="d84d4e51f9"><path d="M 1118.839844 0.285156 L 1157 0.285156 L 1157 38 L 1118.839844 38 Z M 1118.839844 0.285156 " clip-rule="nonzero"/></clipPath><clipPath id="38642052cd"><path d="M 1827 37 L 1865.054688 37 L 1865.054688 74.535156 L 1827 74.535156 Z M 1827 37 " clip-rule="nonzero"/></clipPath><clipPath id="f5e455f946"><path d="M 1715 0.285156 L 1754 0.285156 L 1754 38 L 1715 38 Z M 1715 0.285156 " clip-rule="nonzero"/></clipPath><clipPath id="cd3ae7db24"><path d="M 1678 37 L 1716 37 L 1716 74.535156 L 1678 74.535156 Z M 1678 37 " clip-rule="nonzero"/></clipPath><clipPath id="15964b1b1f"><path d="M 1566 0.285156 L 1605 0.285156 L 1605 38 L 1566 38 Z M 1566 0.285156 " clip-rule="nonzero"/></clipPath><clipPath id="c1a08163f0"><path d="M 1529 37 L 1567 37 L 1567 74.535156 L 1529 74.535156 Z M 1529 37 " clip-rule="nonzero"/></clipPath><clipPath id="cbf84cd7c9"><path d="M 1790 0.285156 L 1828 0.285156 L 1828 38 L 1790 38 Z M 1790 0.285156 " clip-rule="nonzero"/></clipPath><clipPath id="d581949920"><path d="M 1753 37 L 1791 37 L 1791 74.535156 L 1753 74.535156 Z M 1753 37 " clip-rule="nonzero"/></clipPath><clipPath id="70826a76e2"><path d="M 1641 0.285156 L 1679 0.285156 L 1679 38 L 1641 38 Z M 1641 0.285156 " clip-rule="nonzero"/></clipPath><clipPath id="9bb821e7d3"><path d="M 1604 37 L 1642 37 L 1642 74.535156 L 1604 74.535156 Z M 1604 37 " clip-rule="nonzero"/></clipPath><clipPath id="b9fc20c99e"><path d="M 1492.304688 0.285156 L 1530 0.285156 L 1530 38 L 1492.304688 38 Z M 1492.304688 0.285156 " clip-rule="nonzero"/></clipPath><clipPath id="6e6915c178"><path d="M 2200 37 L 2237.765625 37 L 2237.765625 74.535156 L 2200 74.535156 Z M 2200 37 " clip-rule="nonzero"/></clipPath><clipPath id="32fdc8e2fd"><path d="M 2088 0.285156 L 2126 0.285156 L 2126 38 L 2088 38 Z M 2088 0.285156 " clip-rule="nonzero"/></clipPath><clipPath id="c425bf2737"><path d="M 2051 37 L 2089 37 L 2089 74.535156 L 2051 74.535156 Z M 2051 37 " clip-rule="nonzero"/></clipPath><clipPath id="0f0bab989b"><path d="M 1939 0.285156 L 1977 0.285156 L 1977 38 L 1939 38 Z M 1939 0.285156 " clip-rule="nonzero"/></clipPath><clipPath id="f0e5d7e73e"><path d="M 1902 37 L 1940 37 L 1940 74.535156 L 1902 74.535156 Z M 1902 37 " clip-rule="nonzero"/></clipPath><clipPath id="25cc118c70"><path d="M 2163 0.285156 L 2201 0.285156 L 2201 38 L 2163 38 Z M 2163 0.285156 " clip-rule="nonzero"/></clipPath><clipPath id="ff1edded0f"><path d="M 2125 37 L 2164 37 L 2164 74.535156 L 2125 74.535156 Z M 2125 37 " clip-rule="nonzero"/></clipPath><clipPath id="545232a3e4"><path d="M 2014 0.285156 L 2052 0.285156 L 2052 38 L 2014 38 Z M 2014 0.285156 " clip-rule="nonzero"/></clipPath><clipPath id="59a6542869"><path d="M 1976 37 L 2015 37 L 2015 74.535156 L 1976 74.535156 Z M 1976 37 " clip-rule="nonzero"/></clipPath><clipPath id="940c122f68"><path d="M 1865.015625 0.285156 L 1903 0.285156 L 1903 38 L 1865.015625 38 Z M 1865.015625 0.285156 " clip-rule="nonzero"/></clipPath></defs><g clip-path="url(#f6f040ec9e)"><path fill="#f8f6e9" d="M 372.703125 74.515625 L 335.433594 74.515625 L 335.433594 37.246094 L 372.703125 37.246094 Z M 372.703125 74.515625 " fill-opacity="1" fill-rule="nonzero"/></g><g clip-path="url(#645b5167cb)"><path fill="#f8f6e9" d="M 260.902344 37.246094 L 223.632812 37.246094 L 223.632812 -0.0234375 L 260.902344 -0.0234375 Z M 260.902344 37.246094 " fill-opacity="1" fill-rule="nonzero"/></g><g clip-path="url(#e75f060446)"><path fill="#f8f6e9" d="M 223.632812 74.515625 L 186.363281 74.515625 L 186.363281 37.246094 L 223.632812 37.246094 Z M 223.632812 74.515625 " fill-opacity="1" fill-rule="nonzero"/></g><g clip-path="url(#328da74d19)"><path fill="#f8f6e9" d="M 111.832031 37.246094 L 74.5625 37.246094 L 74.5625 -0.0234375 L 111.832031 -0.0234375 Z M 111.832031 37.246094 " fill-opacity="1" fill-rule="nonzero"/></g><g clip-path="url(#9607124362)"><path fill="#f8f6e9" d="M 74.574219 74.515625 L 37.300781 74.515625 L 37.300781 37.246094 L 74.574219 37.246094 Z M 74.574219 74.515625 " fill-opacity="1" fill-rule="nonzero"/></g><g clip-path="url(#5531b76111)"><path fill="#f8f6e9" d="M 335.433594 37.246094 L 298.164062 37.246094 L 298.164062 -0.0234375 L 335.433594 -0.0234375 Z M 335.433594 37.246094 " fill-opacity="1" fill-rule="nonzero"/></g><g clip-path="url(#7a427713e2)"><path fill="#f8f6e9" d="M 298.171875 74.515625 L 260.902344 74.515625 L 260.902344 37.246094 L 298.171875 37.246094 Z M 298.171875 74.515625 " fill-opacity="1" fill-rule="nonzero"/></g><g clip-path="url(#2d6d6a3f04)"><path fill="#f8f6e9" d="M 186.375 37.246094 L 149.101562 37.246094 L 149.101562 -0.0234375 L 186.375 -0.0234375 Z M 186.375 37.246094 " fill-opacity="1" fill-rule="nonzero"/></g><g clip-path="url(#bb87740d04)"><path fill="#f8f6e9" d="M 149.101562 74.515625 L 111.832031 74.515625 L 111.832031 37.246094 L 149.101562 37.246094 Z M 149.101562 74.515625 " fill-opacity="1" fill-rule="nonzero"/></g><g clip-path="url(#0517d009c9)"><path fill="#f8f6e9" d="M 37.300781 37.246094 L 0.03125 37.246094 L 0.03125 -0.0234375 L 37.300781 -0.0234375 Z M 37.300781 37.246094 " fill-opacity="1" fill-rule="nonzero"/></g><g clip-path="url(#1e55142d6b)"><path fill="#f8f6e9" d="M 746.164062 74.515625 L 708.894531 74.515625 L 708.894531 37.246094 L 746.164062 37.246094 Z M 746.164062 74.515625 " fill-opacity="1" fill-rule="nonzero"/></g><g clip-path="url(#ab3f4f7760)"><path fill="#f8f6e9" d="M 634.367188 37.246094 L 597.09375 37.246094 L 597.09375 -0.0234375 L 634.367188 -0.0234375 Z M 634.367188 37.246094 " fill-opacity="1" fill-rule="nonzero"/></g><g clip-path="url(#e8be56fead)"><path fill="#f8f6e9" d="M 597.09375 74.515625 L 559.824219 74.515625 L 559.824219 37.246094 L 597.09375 37.246094 Z M 597.09375 74.515625 " fill-opacity="1" fill-rule="nonzero"/></g><g clip-path="url(#6fb8f8d727)"><path fill="#f8f6e9" d="M 485.292969 37.246094 L 448.023438 37.246094 L 448.023438 -0.0234375 L 485.292969 -0.0234375 Z M 485.292969 37.246094 " fill-opacity="1" fill-rule="nonzero"/></g><g clip-path="url(#41e0804956)"><path fill="#f8f6e9" d="M 448.035156 74.515625 L 410.765625 74.515625 L 410.765625 37.246094 L 448.035156 37.246094 Z M 448.035156 74.515625 " fill-opacity="1" fill-rule="nonzero"/></g><g clip-path="url(#4acb84b545)"><path fill="#f8f6e9" d="M 708.894531 37.246094 L 671.625 37.246094 L 671.625 -0.0234375 L 708.894531 -0.0234375 Z M 708.894531 37.246094 " fill-opacity="1" fill-rule="nonzero"/></g><g clip-path="url(#c1df3d1e10)"><path fill="#f8f6e9" d="M 671.636719 74.515625 L 634.367188 74.515625 L 634.367188 37.246094 L 671.636719 37.246094 Z M 671.636719 74.515625 " fill-opacity="1" fill-rule="nonzero"/></g><g clip-path="url(#1d95134c60)"><path fill="#f8f6e9" d="M 559.835938 37.246094 L 522.566406 37.246094 L 522.566406 -0.0234375 L 559.835938 -0.0234375 Z M 559.835938 37.246094 " fill-opacity="1" fill-rule="nonzero"/></g><g clip-path="url(#52efcea0c7)"><path fill="#f8f6e9" d="M 522.566406 74.515625 L 485.292969 74.515625 L 485.292969 37.246094 L 522.566406 37.246094 Z M 522.566406 74.515625 " fill-opacity="1" fill-rule="nonzero"/></g><g clip-path="url(#dde8c5e3d4)"><path fill="#f8f6e9" d="M 410.765625 37.246094 L 373.496094 37.246094 L 373.496094 -0.0234375 L 410.765625 -0.0234375 Z M 410.765625 37.246094 " fill-opacity="1" fill-rule="nonzero"/></g><g clip-path="url(#53d79d621c)"><path fill="#f8f6e9" d="M 1118.878906 74.515625 L 1081.609375 74.515625 L 1081.609375 37.246094 L 1118.878906 37.246094 Z M 1118.878906 74.515625 " fill-opacity="1" fill-rule="nonzero"/></g><g clip-path="url(#dcfbe01499)"><path fill="#f8f6e9" d="M 1007.078125 37.246094 L 969.808594 37.246094 L 969.808594 -0.0234375 L 1007.078125 -0.0234375 Z M 1007.078125 37.246094 " fill-opacity="1" fill-rule="nonzero"/></g><g clip-path="url(#67cc79c188)"><path fill="#f8f6e9" d="M 969.808594 74.515625 L 932.539062 74.515625 L 932.539062 37.246094 L 969.808594 37.246094 Z M 969.808594 74.515625 " fill-opacity="1" fill-rule="nonzero"/></g><g clip-path="url(#bc01c90c38)"><path fill="#f8f6e9" d="M 858.007812 37.246094 L 820.738281 37.246094 L 820.738281 -0.0234375 L 858.007812 -0.0234375 Z M 858.007812 37.246094 " fill-opacity="1" fill-rule="nonzero"/></g><g clip-path="url(#985525f7d8)"><path fill="#f8f6e9" d="M 820.746094 74.515625 L 783.476562 74.515625 L 783.476562 37.246094 L 820.746094 37.246094 Z M 820.746094 74.515625 " fill-opacity="1" fill-rule="nonzero"/></g><g clip-path="url(#d3db0b6768)"><path fill="#f8f6e9" d="M 1081.609375 37.246094 L 1044.335938 37.246094 L 1044.335938 -0.0234375 L 1081.609375 -0.0234375 Z M 1081.609375 37.246094 " fill-opacity="1" fill-rule="nonzero"/></g><g clip-path="url(#a7b48a068f)"><path fill="#f8f6e9" d="M 1044.347656 74.515625 L 1007.078125 74.515625 L 1007.078125 37.246094 L 1044.347656 37.246094 Z M 1044.347656 74.515625 " fill-opacity="1" fill-rule="nonzero"/></g><g clip-path="url(#50e58100fd)"><path fill="#f8f6e9" d="M 932.546875 37.246094 L 895.277344 37.246094 L 895.277344 -0.0234375 L 932.546875 -0.0234375 Z M 932.546875 37.246094 " fill-opacity="1" fill-rule="nonzero"/></g><g clip-path="url(#f085646d46)"><path fill="#f8f6e9" d="M 895.277344 74.515625 L 858.007812 74.515625 L 858.007812 37.246094 L 895.277344 37.246094 Z M 895.277344 74.515625 " fill-opacity="1" fill-rule="nonzero"/></g><g clip-path="url(#018eea5232)"><path fill="#f8f6e9" d="M 783.476562 37.246094 L 746.207031 37.246094 L 746.207031 -0.0234375 L 783.476562 -0.0234375 Z M 783.476562 37.246094 " fill-opacity="1" fill-rule="nonzero"/></g><g clip-path="url(#ac6cdba8b7)"><path fill="#f8f6e9" d="M 1491.589844 74.515625 L 1454.320312 74.515625 L 1454.320312 37.246094 L 1491.589844 37.246094 Z M 1491.589844 74.515625 " fill-opacity="1" fill-rule="nonzero"/></g><g clip-path="url(#36cc2c0efe)"><path fill="#f8f6e9" d="M 1379.789062 37.246094 L 1342.519531 37.246094 L 1342.519531 -0.0234375 L 1379.789062 -0.0234375 Z M 1379.789062 37.246094 " fill-opacity="1" fill-rule="nonzero"/></g><g clip-path="url(#74d5a3aed5)"><path fill="#f8f6e9" d="M 1342.519531 74.515625 L 1305.25 74.515625 L 1305.25 37.246094 L 1342.519531 37.246094 Z M 1342.519531 74.515625 " fill-opacity="1" fill-rule="nonzero"/></g><g clip-path="url(#848779180f)"><path fill="#f8f6e9" d="M 1230.71875 37.246094 L 1193.449219 37.246094 L 1193.449219 -0.0234375 L 1230.71875 -0.0234375 Z M 1230.71875 37.246094 " fill-opacity="1" fill-rule="nonzero"/></g><g clip-path="url(#e5502f2a75)"><path fill="#f8f6e9" d="M 1193.460938 74.515625 L 1156.191406 74.515625 L 1156.191406 37.246094 L 1193.460938 37.246094 Z M 1193.460938 74.515625 " fill-opacity="1" fill-rule="nonzero"/></g><g clip-path="url(#d7518bcd8f)"><path fill="#f8f6e9" d="M 1454.320312 37.246094 L 1417.050781 37.246094 L 1417.050781 -0.0234375 L 1454.320312 -0.0234375 Z M 1454.320312 37.246094 " fill-opacity="1" fill-rule="nonzero"/></g><g clip-path="url(#1b34c7f0c6)"><path fill="#f8f6e9" d="M 1417.0625 74.515625 L 1379.789062 74.515625 L 1379.789062 37.246094 L 1417.0625 37.246094 Z M 1417.0625 74.515625 " fill-opacity="1" fill-rule="nonzero"/></g><g clip-path="url(#0afed60718)"><path fill="#f8f6e9" d="M 1305.261719 37.246094 L 1267.988281 37.246094 L 1267.988281 -0.0234375 L 1305.261719 -0.0234375 Z M 1305.261719 37.246094 " fill-opacity="1" fill-rule="nonzero"/></g><g clip-path="url(#783424140e)"><path fill="#f8f6e9" d="M 1267.988281 74.515625 L 1230.71875 74.515625 L 1230.71875 37.246094 L 1267.988281 37.246094 Z M 1267.988281 74.515625 " fill-opacity="1" fill-rule="nonzero"/></g><g clip-path="url(#d84d4e51f9)"><path fill="#f8f6e9" d="M 1156.191406 37.246094 L 1118.917969 37.246094 L 1118.917969 -0.0234375 L 1156.191406 -0.0234375 Z M 1156.191406 37.246094 " fill-opacity="1" fill-rule="nonzero"/></g><g clip-path="url(#38642052cd)"><path fill="#f8f6e9" d="M 1865.054688 74.515625 L 1827.78125 74.515625 L 1827.78125 37.246094 L 1865.054688 37.246094 Z M 1865.054688 74.515625 " fill-opacity="1" fill-rule="nonzero"/></g><g clip-path="url(#f5e455f946)"><path fill="#f8f6e9" d="M 1753.253906 37.246094 L 1715.980469 37.246094 L 1715.980469 -0.0234375 L 1753.253906 -0.0234375 Z M 1753.253906 37.246094 " fill-opacity="1" fill-rule="nonzero"/></g><g clip-path="url(#cd3ae7db24)"><path fill="#f8f6e9" d="M 1715.980469 74.515625 L 1678.710938 74.515625 L 1678.710938 37.246094 L 1715.980469 37.246094 Z M 1715.980469 74.515625 " fill-opacity="1" fill-rule="nonzero"/></g><g clip-path="url(#15964b1b1f)"><path fill="#f8f6e9" d="M 1604.183594 37.246094 L 1566.910156 37.246094 L 1566.910156 -0.0234375 L 1604.183594 -0.0234375 Z M 1604.183594 37.246094 " fill-opacity="1" fill-rule="nonzero"/></g><g clip-path="url(#c1a08163f0)"><path fill="#f8f6e9" d="M 1566.921875 74.515625 L 1529.652344 74.515625 L 1529.652344 37.246094 L 1566.921875 37.246094 Z M 1566.921875 74.515625 " fill-opacity="1" fill-rule="nonzero"/></g><g clip-path="url(#cbf84cd7c9)"><path fill="#f8f6e9" d="M 1827.78125 37.246094 L 1790.511719 37.246094 L 1790.511719 -0.0234375 L 1827.78125 -0.0234375 Z M 1827.78125 37.246094 " fill-opacity="1" fill-rule="nonzero"/></g><g clip-path="url(#d581949920)"><path fill="#f8f6e9" d="M 1790.523438 74.515625 L 1753.253906 74.515625 L 1753.253906 37.246094 L 1790.523438 37.246094 Z M 1790.523438 74.515625 " fill-opacity="1" fill-rule="nonzero"/></g><g clip-path="url(#70826a76e2)"><path fill="#f8f6e9" d="M 1678.722656 37.246094 L 1641.453125 37.246094 L 1641.453125 -0.0234375 L 1678.722656 -0.0234375 Z M 1678.722656 37.246094 " fill-opacity="1" fill-rule="nonzero"/></g><g clip-path="url(#9bb821e7d3)"><path fill="#f8f6e9" d="M 1641.453125 74.515625 L 1604.183594 74.515625 L 1604.183594 37.246094 L 1641.453125 37.246094 Z M 1641.453125 74.515625 " fill-opacity="1" fill-rule="nonzero"/></g><g clip-path="url(#b9fc20c99e)"><path fill="#f8f6e9" d="M 1529.652344 37.246094 L 1492.382812 37.246094 L 1492.382812 -0.0234375 L 1529.652344 -0.0234375 Z M 1529.652344 37.246094 " fill-opacity="1" fill-rule="nonzero"/></g><g clip-path="url(#6e6915c178)"><path fill="#f8f6e9" d="M 2237.765625 74.515625 L 2200.496094 74.515625 L 2200.496094 37.246094 L 2237.765625 37.246094 Z M 2237.765625 74.515625 " fill-opacity="1" fill-rule="nonzero"/></g><g clip-path="url(#32fdc8e2fd)"><path fill="#f8f6e9" d="M 2125.964844 37.246094 L 2088.695312 37.246094 L 2088.695312 -0.0234375 L 2125.964844 -0.0234375 Z M 2125.964844 37.246094 " fill-opacity="1" fill-rule="nonzero"/></g><g clip-path="url(#c425bf2737)"><path fill="#f8f6e9" d="M 2088.695312 74.515625 L 2051.425781 74.515625 L 2051.425781 37.246094 L 2088.695312 37.246094 Z M 2088.695312 74.515625 " fill-opacity="1" fill-rule="nonzero"/></g><g clip-path="url(#0f0bab989b)"><path fill="#f8f6e9" d="M 1976.894531 37.246094 L 1939.625 37.246094 L 1939.625 -0.0234375 L 1976.894531 -0.0234375 Z M 1976.894531 37.246094 " fill-opacity="1" fill-rule="nonzero"/></g><g clip-path="url(#f0e5d7e73e)"><path fill="#f8f6e9" d="M 1939.632812 74.515625 L 1902.363281 74.515625 L 1902.363281 37.246094 L 1939.632812 37.246094 Z M 1939.632812 74.515625 " fill-opacity="1" fill-rule="nonzero"/></g><g clip-path="url(#25cc118c70)"><path fill="#f8f6e9" d="M 2200.496094 37.246094 L 2163.226562 37.246094 L 2163.226562 -0.0234375 L 2200.496094 -0.0234375 Z M 2200.496094 37.246094 " fill-opacity="1" fill-rule="nonzero"/></g><g clip-path="url(#ff1edded0f)"><path fill="#f8f6e9" d="M 2163.234375 74.515625 L 2125.964844 74.515625 L 2125.964844 37.246094 L 2163.234375 37.246094 Z M 2163.234375 74.515625 " fill-opacity="1" fill-rule="nonzero"/></g><g clip-path="url(#545232a3e4)"><path fill="#f8f6e9" d="M 2051.433594 37.246094 L 2014.164062 37.246094 L 2014.164062 -0.0234375 L 2051.433594 -0.0234375 Z M 2051.433594 37.246094 " fill-opacity="1" fill-rule="nonzero"/></g><g clip-path="url(#59a6542869)"><path fill="#f8f6e9" d="M 2014.164062 74.515625 L 1976.894531 74.515625 L 1976.894531 37.246094 L 2014.164062 37.246094 Z M 2014.164062 74.515625 " fill-opacity="1" fill-rule="nonzero"/></g><g clip-path="url(#940c122f68)"><path fill="#f8f6e9" d="M 1902.363281 37.246094 L 1865.09375 37.246094 L 1865.09375 -0.0234375 L 1902.363281 -0.0234375 Z M 1902.363281 37.246094 " fill-opacity="1" fill-rule="nonzero"/></g></svg>