<svg xmlns="http://www.w3.org/2000/svg" xmlns:xlink="http://www.w3.org/1999/xlink" width="2984" zoomAndPan="magnify" viewBox="0 0 2238 74.999997" height="100" preserveAspectRatio="xMidYMid meet" version="1.0"><defs><clipPath id="d3063b551d"><path d="M 0 37 L 38 37 L 38 74.535156 L 0 74.535156 Z M 0 37 " clip-rule="nonzero"/></clipPath><clipPath id="f98ae0339e"><path d="M 111 0.285156 L 150 0.285156 L 150 38 L 111 38 Z M 111 0.285156 " clip-rule="nonzero"/></clipPath><clipPath id="66a749b857"><path d="M 149 37 L 187 37 L 187 74.535156 L 149 74.535156 Z M 149 37 " clip-rule="nonzero"/></clipPath><clipPath id="6cff804046"><path d="M 260 0.285156 L 299 0.285156 L 299 38 L 260 38 Z M 260 0.285156 " clip-rule="nonzero"/></clipPath><clipPath id="a475a84108"><path d="M 298 37 L 336 37 L 336 74.535156 L 298 74.535156 Z M 298 37 " clip-rule="nonzero"/></clipPath><clipPath id="ee6762deae"><path d="M 37 0.285156 L 75 0.285156 L 75 38 L 37 38 Z M 37 0.285156 " clip-rule="nonzero"/></clipPath><clipPath id="30f1730fc2"><path d="M 74 37 L 112 37 L 112 74.535156 L 74 74.535156 Z M 74 37 " clip-rule="nonzero"/></clipPath><clipPath id="48221eff18"><path d="M 186 0.285156 L 224 0.285156 L 224 38 L 186 38 Z M 186 0.285156 " clip-rule="nonzero"/></clipPath><clipPath id="91c8c9dffc"><path d="M 223 37 L 261 37 L 261 74.535156 L 223 74.535156 Z M 223 37 " clip-rule="nonzero"/></clipPath><clipPath id="0fc15e72a9"><path d="M 335 0.285156 L 372.703125 0.285156 L 372.703125 38 L 335 38 Z M 335 0.285156 " clip-rule="nonzero"/></clipPath><clipPath id="ed3c168b2a"><path d="M 373.460938 37 L 411 37 L 411 74.535156 L 373.460938 74.535156 Z M 373.460938 37 " clip-rule="nonzero"/></clipPath><clipPath id="afa6a761c3"><path d="M 485 0.285156 L 523 0.285156 L 523 38 L 485 38 Z M 485 0.285156 " clip-rule="nonzero"/></clipPath><clipPath id="95c3294e72"><path d="M 522 37 L 560 37 L 560 74.535156 L 522 74.535156 Z M 522 37 " clip-rule="nonzero"/></clipPath><clipPath id="48eeddbd79"><path d="M 634 0.285156 L 672 0.285156 L 672 38 L 634 38 Z M 634 0.285156 " clip-rule="nonzero"/></clipPath><clipPath id="4caf432e71"><path d="M 671 37 L 709 37 L 709 74.535156 L 671 74.535156 Z M 671 37 " clip-rule="nonzero"/></clipPath><clipPath id="bc8c5e7356"><path d="M 410 0.285156 L 449 0.285156 L 449 38 L 410 38 Z M 410 0.285156 " clip-rule="nonzero"/></clipPath><clipPath id="e0bf602ef5"><path d="M 447 37 L 486 37 L 486 74.535156 L 447 74.535156 Z M 447 37 " clip-rule="nonzero"/></clipPath><clipPath id="d16bcadff8"><path d="M 559 0.285156 L 598 0.285156 L 598 38 L 559 38 Z M 559 0.285156 " clip-rule="nonzero"/></clipPath><clipPath id="f0ca879258"><path d="M 597 37 L 635 37 L 635 74.535156 L 597 74.535156 Z M 597 37 " clip-rule="nonzero"/></clipPath><clipPath id="46649880ed"><path d="M 708 0.285156 L 746.164062 0.285156 L 746.164062 38 L 708 38 Z M 708 0.285156 " clip-rule="nonzero"/></clipPath><clipPath id="82ad5e39fd"><path d="M 746.175781 37 L 784 37 L 784 74.535156 L 746.175781 74.535156 Z M 746.175781 37 " clip-rule="nonzero"/></clipPath><clipPath id="15d63739c5"><path d="M 857 0.285156 L 896 0.285156 L 896 38 L 857 38 Z M 857 0.285156 " clip-rule="nonzero"/></clipPath><clipPath id="cd9e8ddabd"><path d="M 895 37 L 933 37 L 933 74.535156 L 895 74.535156 Z M 895 37 " clip-rule="nonzero"/></clipPath><clipPath id="033a4adf26"><path d="M 1007 0.285156 L 1045 0.285156 L 1045 38 L 1007 38 Z M 1007 0.285156 " clip-rule="nonzero"/></clipPath><clipPath id="677b9cc5d7"><path d="M 1044 37 L 1082 37 L 1082 74.535156 L 1044 74.535156 Z M 1044 37 " clip-rule="nonzero"/></clipPath><clipPath id="fd230cb4b4"><path d="M 783 0.285156 L 821 0.285156 L 821 38 L 783 38 Z M 783 0.285156 " clip-rule="nonzero"/></clipPath><clipPath id="2708e181d0"><path d="M 820 37 L 858 37 L 858 74.535156 L 820 74.535156 Z M 820 37 " clip-rule="nonzero"/></clipPath><clipPath id="1bccf86cd9"><path d="M 932 0.285156 L 970 0.285156 L 970 38 L 932 38 Z M 932 0.285156 " clip-rule="nonzero"/></clipPath><clipPath id="1b78df826e"><path d="M 969 37 L 1008 37 L 1008 74.535156 L 969 74.535156 Z M 969 37 " clip-rule="nonzero"/></clipPath><clipPath id="5d31f33870"><path d="M 1081 0.285156 L 1118.878906 0.285156 L 1118.878906 38 L 1081 38 Z M 1081 0.285156 " clip-rule="nonzero"/></clipPath><clipPath id="75b49fcd81"><path d="M 1118.886719 37 L 1157 37 L 1157 74.535156 L 1118.886719 74.535156 Z M 1118.886719 37 " clip-rule="nonzero"/></clipPath><clipPath id="3f023694be"><path d="M 1230 0.285156 L 1268 0.285156 L 1268 38 L 1230 38 Z M 1230 0.285156 " clip-rule="nonzero"/></clipPath><clipPath id="76d2f6dc4b"><path d="M 1267 37 L 1306 37 L 1306 74.535156 L 1267 74.535156 Z M 1267 37 " clip-rule="nonzero"/></clipPath><clipPath id="29c85606c9"><path d="M 1379 0.285156 L 1418 0.285156 L 1418 38 L 1379 38 Z M 1379 0.285156 " clip-rule="nonzero"/></clipPath><clipPath id="964fdd23aa"><path d="M 1417 37 L 1455 37 L 1455 74.535156 L 1417 74.535156 Z M 1417 37 " clip-rule="nonzero"/></clipPath><clipPath id="e366b0ab0b"><path d="M 1156 0.285156 L 1194 0.285156 L 1194 38 L 1156 38 Z M 1156 0.285156 " clip-rule="nonzero"/></clipPath><clipPath id="705edca9aa"><path d="M 1193 37 L 1231 37 L 1231 74.535156 L 1193 74.535156 Z M 1193 37 " clip-rule="nonzero"/></clipPath><clipPath id="efdb4b18d4"><path d="M 1305 0.285156 L 1343 0.285156 L 1343 38 L 1305 38 Z M 1305 0.285156 " clip-rule="nonzero"/></clipPath><clipPath id="ef007ec5d5"><path d="M 1342 37 L 1380 37 L 1380 74.535156 L 1342 74.535156 Z M 1342 37 " clip-rule="nonzero"/></clipPath><clipPath id="1900af76b2"><path d="M 1454 0.285156 L 1491.589844 0.285156 L 1491.589844 38 L 1454 38 Z M 1454 0.285156 " clip-rule="nonzero"/></clipPath><clipPath id="4898aa9236"><path d="M 1827 37 L 1865.054688 37 L 1865.054688 74.535156 L 1827 74.535156 Z M 1827 37 " clip-rule="nonzero"/></clipPath><clipPath id="252bd6d2c9"><path d="M 1715 0.285156 L 1754 0.285156 L 1754 38 L 1715 38 Z M 1715 0.285156 " clip-rule="nonzero"/></clipPath><clipPath id="ccf72e3f25"><path d="M 1678 37 L 1716 37 L 1716 74.535156 L 1678 74.535156 Z M 1678 37 " clip-rule="nonzero"/></clipPath><clipPath id="aec86f76e5"><path d="M 1566 0.285156 L 1605 0.285156 L 1605 38 L 1566 38 Z M 1566 0.285156 " clip-rule="nonzero"/></clipPath><clipPath id="359966b4ae"><path d="M 1529 37 L 1567 37 L 1567 74.535156 L 1529 74.535156 Z M 1529 37 " clip-rule="nonzero"/></clipPath><clipPath id="57f85d723f"><path d="M 1790 0.285156 L 1828 0.285156 L 1828 38 L 1790 38 Z M 1790 0.285156 " clip-rule="nonzero"/></clipPath><clipPath id="c0e243be09"><path d="M 1753 37 L 1791 37 L 1791 74.535156 L 1753 74.535156 Z M 1753 37 " clip-rule="nonzero"/></clipPath><clipPath id="0661c04339"><path d="M 1641 0.285156 L 1679 0.285156 L 1679 38 L 1641 38 Z M 1641 0.285156 " clip-rule="nonzero"/></clipPath><clipPath id="e20b258595"><path d="M 1604 37 L 1642 37 L 1642 74.535156 L 1604 74.535156 Z M 1604 37 " clip-rule="nonzero"/></clipPath><clipPath id="0e615c7f3c"><path d="M 1492.304688 0.285156 L 1530 0.285156 L 1530 38 L 1492.304688 38 Z M 1492.304688 0.285156 " clip-rule="nonzero"/></clipPath><clipPath id="6244f641c8"><path d="M 2200 37 L 2237.765625 37 L 2237.765625 74.535156 L 2200 74.535156 Z M 2200 37 " clip-rule="nonzero"/></clipPath><clipPath id="f5dae840a6"><path d="M 2088 0.285156 L 2126 0.285156 L 2126 38 L 2088 38 Z M 2088 0.285156 " clip-rule="nonzero"/></clipPath><clipPath id="9581940704"><path d="M 2051 37 L 2089 37 L 2089 74.535156 L 2051 74.535156 Z M 2051 37 " clip-rule="nonzero"/></clipPath><clipPath id="910ce29177"><path d="M 1939 0.285156 L 1977 0.285156 L 1977 38 L 1939 38 Z M 1939 0.285156 " clip-rule="nonzero"/></clipPath><clipPath id="2f7e0214c6"><path d="M 1902 37 L 1940 37 L 1940 74.535156 L 1902 74.535156 Z M 1902 37 " clip-rule="nonzero"/></clipPath><clipPath id="7244723067"><path d="M 2163 0.285156 L 2201 0.285156 L 2201 38 L 2163 38 Z M 2163 0.285156 " clip-rule="nonzero"/></clipPath><clipPath id="4e81910b37"><path d="M 2125 37 L 2164 37 L 2164 74.535156 L 2125 74.535156 Z M 2125 37 " clip-rule="nonzero"/></clipPath><clipPath id="305a95d6d7"><path d="M 2014 0.285156 L 2052 0.285156 L 2052 38 L 2014 38 Z M 2014 0.285156 " clip-rule="nonzero"/></clipPath><clipPath id="e9e9f72d45"><path d="M 1976 37 L 2015 37 L 2015 74.535156 L 1976 74.535156 Z M 1976 37 " clip-rule="nonzero"/></clipPath><clipPath id="1e6e9af9e9"><path d="M 1865.015625 0.285156 L 1903 0.285156 L 1903 38 L 1865.015625 38 Z M 1865.015625 0.285156 " clip-rule="nonzero"/></clipPath></defs><g clip-path="url(#d3063b551d)"><path fill="#f8f6e9" d="M 0 74.515625 L 37.269531 74.515625 L 37.269531 37.246094 L 0 37.246094 Z M 0 74.515625 " fill-opacity="1" fill-rule="nonzero"/></g><g clip-path="url(#f98ae0339e)"><path fill="#f8f6e9" d="M 111.800781 37.246094 L 149.070312 37.246094 L 149.070312 -0.0234375 L 111.800781 -0.0234375 Z M 111.800781 37.246094 " fill-opacity="1" fill-rule="nonzero"/></g><g clip-path="url(#66a749b857)"><path fill="#f8f6e9" d="M 149.070312 74.515625 L 186.339844 74.515625 L 186.339844 37.246094 L 149.070312 37.246094 Z M 149.070312 74.515625 " fill-opacity="1" fill-rule="nonzero"/></g><g clip-path="url(#6cff804046)"><path fill="#f8f6e9" d="M 260.871094 37.246094 L 298.140625 37.246094 L 298.140625 -0.0234375 L 260.871094 -0.0234375 Z M 260.871094 37.246094 " fill-opacity="1" fill-rule="nonzero"/></g><g clip-path="url(#a475a84108)"><path fill="#f8f6e9" d="M 298.128906 74.515625 L 335.402344 74.515625 L 335.402344 37.246094 L 298.128906 37.246094 Z M 298.128906 74.515625 " fill-opacity="1" fill-rule="nonzero"/></g><g clip-path="url(#ee6762deae)"><path fill="#f8f6e9" d="M 37.269531 37.246094 L 74.539062 37.246094 L 74.539062 -0.0234375 L 37.269531 -0.0234375 Z M 37.269531 37.246094 " fill-opacity="1" fill-rule="nonzero"/></g><g clip-path="url(#30f1730fc2)"><path fill="#f8f6e9" d="M 74.53125 74.515625 L 111.800781 74.515625 L 111.800781 37.246094 L 74.53125 37.246094 Z M 74.53125 74.515625 " fill-opacity="1" fill-rule="nonzero"/></g><g clip-path="url(#48221eff18)"><path fill="#f8f6e9" d="M 186.332031 37.246094 L 223.601562 37.246094 L 223.601562 -0.0234375 L 186.332031 -0.0234375 Z M 186.332031 37.246094 " fill-opacity="1" fill-rule="nonzero"/></g><g clip-path="url(#91c8c9dffc)"><path fill="#f8f6e9" d="M 223.601562 74.515625 L 260.871094 74.515625 L 260.871094 37.246094 L 223.601562 37.246094 Z M 223.601562 74.515625 " fill-opacity="1" fill-rule="nonzero"/></g><g clip-path="url(#0fc15e72a9)"><path fill="#f8f6e9" d="M 335.402344 37.246094 L 372.671875 37.246094 L 372.671875 -0.0234375 L 335.402344 -0.0234375 Z M 335.402344 37.246094 " fill-opacity="1" fill-rule="nonzero"/></g><g clip-path="url(#ed3c168b2a)"><path fill="#f8f6e9" d="M 373.460938 74.515625 L 410.734375 74.515625 L 410.734375 37.246094 L 373.460938 37.246094 Z M 373.460938 74.515625 " fill-opacity="1" fill-rule="nonzero"/></g><g clip-path="url(#afa6a761c3)"><path fill="#f8f6e9" d="M 485.261719 37.246094 L 522.53125 37.246094 L 522.53125 -0.0234375 L 485.261719 -0.0234375 Z M 485.261719 37.246094 " fill-opacity="1" fill-rule="nonzero"/></g><g clip-path="url(#95c3294e72)"><path fill="#f8f6e9" d="M 522.53125 74.515625 L 559.804688 74.515625 L 559.804688 37.246094 L 522.53125 37.246094 Z M 522.53125 74.515625 " fill-opacity="1" fill-rule="nonzero"/></g><g clip-path="url(#48eeddbd79)"><path fill="#f8f6e9" d="M 634.332031 37.246094 L 671.605469 37.246094 L 671.605469 -0.0234375 L 634.332031 -0.0234375 Z M 634.332031 37.246094 " fill-opacity="1" fill-rule="nonzero"/></g><g clip-path="url(#4caf432e71)"><path fill="#f8f6e9" d="M 671.59375 74.515625 L 708.863281 74.515625 L 708.863281 37.246094 L 671.59375 37.246094 Z M 671.59375 74.515625 " fill-opacity="1" fill-rule="nonzero"/></g><g clip-path="url(#bc8c5e7356)"><path fill="#f8f6e9" d="M 410.734375 37.246094 L 448.003906 37.246094 L 448.003906 -0.0234375 L 410.734375 -0.0234375 Z M 410.734375 37.246094 " fill-opacity="1" fill-rule="nonzero"/></g><g clip-path="url(#e0bf602ef5)"><path fill="#f8f6e9" d="M 447.992188 74.515625 L 485.261719 74.515625 L 485.261719 37.246094 L 447.992188 37.246094 Z M 447.992188 74.515625 " fill-opacity="1" fill-rule="nonzero"/></g><g clip-path="url(#d16bcadff8)"><path fill="#f8f6e9" d="M 559.792969 37.246094 L 597.0625 37.246094 L 597.0625 -0.0234375 L 559.792969 -0.0234375 Z M 559.792969 37.246094 " fill-opacity="1" fill-rule="nonzero"/></g><g clip-path="url(#f0ca879258)"><path fill="#f8f6e9" d="M 597.0625 74.515625 L 634.332031 74.515625 L 634.332031 37.246094 L 597.0625 37.246094 Z M 597.0625 74.515625 " fill-opacity="1" fill-rule="nonzero"/></g><g clip-path="url(#46649880ed)"><path fill="#f8f6e9" d="M 708.863281 37.246094 L 746.132812 37.246094 L 746.132812 -0.0234375 L 708.863281 -0.0234375 Z M 708.863281 37.246094 " fill-opacity="1" fill-rule="nonzero"/></g><g clip-path="url(#82ad5e39fd)"><path fill="#f8f6e9" d="M 746.175781 74.515625 L 783.445312 74.515625 L 783.445312 37.246094 L 746.175781 37.246094 Z M 746.175781 74.515625 " fill-opacity="1" fill-rule="nonzero"/></g><g clip-path="url(#15d63739c5)"><path fill="#f8f6e9" d="M 857.976562 37.246094 L 895.246094 37.246094 L 895.246094 -0.0234375 L 857.976562 -0.0234375 Z M 857.976562 37.246094 " fill-opacity="1" fill-rule="nonzero"/></g><g clip-path="url(#cd9e8ddabd)"><path fill="#f8f6e9" d="M 895.246094 74.515625 L 932.515625 74.515625 L 932.515625 37.246094 L 895.246094 37.246094 Z M 895.246094 74.515625 " fill-opacity="1" fill-rule="nonzero"/></g><g clip-path="url(#033a4adf26)"><path fill="#f8f6e9" d="M 1007.046875 37.246094 L 1044.316406 37.246094 L 1044.316406 -0.0234375 L 1007.046875 -0.0234375 Z M 1007.046875 37.246094 " fill-opacity="1" fill-rule="nonzero"/></g><g clip-path="url(#677b9cc5d7)"><path fill="#f8f6e9" d="M 1044.304688 74.515625 L 1081.574219 74.515625 L 1081.574219 37.246094 L 1044.304688 37.246094 Z M 1044.304688 74.515625 " fill-opacity="1" fill-rule="nonzero"/></g><g clip-path="url(#fd230cb4b4)"><path fill="#f8f6e9" d="M 783.445312 37.246094 L 820.714844 37.246094 L 820.714844 -0.0234375 L 783.445312 -0.0234375 Z M 783.445312 37.246094 " fill-opacity="1" fill-rule="nonzero"/></g><g clip-path="url(#2708e181d0)"><path fill="#f8f6e9" d="M 820.703125 74.515625 L 857.976562 74.515625 L 857.976562 37.246094 L 820.703125 37.246094 Z M 820.703125 74.515625 " fill-opacity="1" fill-rule="nonzero"/></g><g clip-path="url(#1bccf86cd9)"><path fill="#f8f6e9" d="M 932.503906 37.246094 L 969.777344 37.246094 L 969.777344 -0.0234375 L 932.503906 -0.0234375 Z M 932.503906 37.246094 " fill-opacity="1" fill-rule="nonzero"/></g><g clip-path="url(#1b78df826e)"><path fill="#f8f6e9" d="M 969.777344 74.515625 L 1007.046875 74.515625 L 1007.046875 37.246094 L 969.777344 37.246094 Z M 969.777344 74.515625 " fill-opacity="1" fill-rule="nonzero"/></g><g clip-path="url(#5d31f33870)"><path fill="#f8f6e9" d="M 1081.574219 37.246094 L 1118.847656 37.246094 L 1118.847656 -0.0234375 L 1081.574219 -0.0234375 Z M 1081.574219 37.246094 " fill-opacity="1" fill-rule="nonzero"/></g><g clip-path="url(#75b49fcd81)"><path fill="#f8f6e9" d="M 1118.886719 74.515625 L 1156.15625 74.515625 L 1156.15625 37.246094 L 1118.886719 37.246094 Z M 1118.886719 74.515625 " fill-opacity="1" fill-rule="nonzero"/></g><g clip-path="url(#3f023694be)"><path fill="#f8f6e9" d="M 1230.6875 37.246094 L 1267.957031 37.246094 L 1267.957031 -0.0234375 L 1230.6875 -0.0234375 Z M 1230.6875 37.246094 " fill-opacity="1" fill-rule="nonzero"/></g><g clip-path="url(#76d2f6dc4b)"><path fill="#f8f6e9" d="M 1267.957031 74.515625 L 1305.226562 74.515625 L 1305.226562 37.246094 L 1267.957031 37.246094 Z M 1267.957031 74.515625 " fill-opacity="1" fill-rule="nonzero"/></g><g clip-path="url(#29c85606c9)"><path fill="#f8f6e9" d="M 1379.757812 37.246094 L 1417.027344 37.246094 L 1417.027344 -0.0234375 L 1379.757812 -0.0234375 Z M 1379.757812 37.246094 " fill-opacity="1" fill-rule="nonzero"/></g><g clip-path="url(#964fdd23aa)"><path fill="#f8f6e9" d="M 1417.019531 74.515625 L 1454.289062 74.515625 L 1454.289062 37.246094 L 1417.019531 37.246094 Z M 1417.019531 74.515625 " fill-opacity="1" fill-rule="nonzero"/></g><g clip-path="url(#e366b0ab0b)"><path fill="#f8f6e9" d="M 1156.15625 37.246094 L 1193.429688 37.246094 L 1193.429688 -0.0234375 L 1156.15625 -0.0234375 Z M 1156.15625 37.246094 " fill-opacity="1" fill-rule="nonzero"/></g><g clip-path="url(#705edca9aa)"><path fill="#f8f6e9" d="M 1193.417969 74.515625 L 1230.6875 74.515625 L 1230.6875 37.246094 L 1193.417969 37.246094 Z M 1193.417969 74.515625 " fill-opacity="1" fill-rule="nonzero"/></g><g clip-path="url(#efdb4b18d4)"><path fill="#f8f6e9" d="M 1305.21875 37.246094 L 1342.488281 37.246094 L 1342.488281 -0.0234375 L 1305.21875 -0.0234375 Z M 1305.21875 37.246094 " fill-opacity="1" fill-rule="nonzero"/></g><g clip-path="url(#ef007ec5d5)"><path fill="#f8f6e9" d="M 1342.488281 74.515625 L 1379.757812 74.515625 L 1379.757812 37.246094 L 1342.488281 37.246094 Z M 1342.488281 74.515625 " fill-opacity="1" fill-rule="nonzero"/></g><g clip-path="url(#1900af76b2)"><path fill="#f8f6e9" d="M 1454.289062 37.246094 L 1491.558594 37.246094 L 1491.558594 -0.0234375 L 1454.289062 -0.0234375 Z M 1454.289062 37.246094 " fill-opacity="1" fill-rule="nonzero"/></g><g clip-path="url(#4898aa9236)"><path fill="#f8f6e9" d="M 1865.054688 74.515625 L 1827.78125 74.515625 L 1827.78125 37.246094 L 1865.054688 37.246094 Z M 1865.054688 74.515625 " fill-opacity="1" fill-rule="nonzero"/></g><g clip-path="url(#252bd6d2c9)"><path fill="#f8f6e9" d="M 1753.253906 37.246094 L 1715.980469 37.246094 L 1715.980469 -0.0234375 L 1753.253906 -0.0234375 Z M 1753.253906 37.246094 " fill-opacity="1" fill-rule="nonzero"/></g><g clip-path="url(#ccf72e3f25)"><path fill="#f8f6e9" d="M 1715.980469 74.515625 L 1678.710938 74.515625 L 1678.710938 37.246094 L 1715.980469 37.246094 Z M 1715.980469 74.515625 " fill-opacity="1" fill-rule="nonzero"/></g><g clip-path="url(#aec86f76e5)"><path fill="#f8f6e9" d="M 1604.183594 37.246094 L 1566.910156 37.246094 L 1566.910156 -0.0234375 L 1604.183594 -0.0234375 Z M 1604.183594 37.246094 " fill-opacity="1" fill-rule="nonzero"/></g><g clip-path="url(#359966b4ae)"><path fill="#f8f6e9" d="M 1566.921875 74.515625 L 1529.652344 74.515625 L 1529.652344 37.246094 L 1566.921875 37.246094 Z M 1566.921875 74.515625 " fill-opacity="1" fill-rule="nonzero"/></g><g clip-path="url(#57f85d723f)"><path fill="#f8f6e9" d="M 1827.78125 37.246094 L 1790.511719 37.246094 L 1790.511719 -0.0234375 L 1827.78125 -0.0234375 Z M 1827.78125 37.246094 " fill-opacity="1" fill-rule="nonzero"/></g><g clip-path="url(#c0e243be09)"><path fill="#f8f6e9" d="M 1790.523438 74.515625 L 1753.253906 74.515625 L 1753.253906 37.246094 L 1790.523438 37.246094 Z M 1790.523438 74.515625 " fill-opacity="1" fill-rule="nonzero"/></g><g clip-path="url(#0661c04339)"><path fill="#f8f6e9" d="M 1678.722656 37.246094 L 1641.453125 37.246094 L 1641.453125 -0.0234375 L 1678.722656 -0.0234375 Z M 1678.722656 37.246094 " fill-opacity="1" fill-rule="nonzero"/></g><g clip-path="url(#e20b258595)"><path fill="#f8f6e9" d="M 1641.453125 74.515625 L 1604.183594 74.515625 L 1604.183594 37.246094 L 1641.453125 37.246094 Z M 1641.453125 74.515625 " fill-opacity="1" fill-rule="nonzero"/></g><g clip-path="url(#0e615c7f3c)"><path fill="#f8f6e9" d="M 1529.652344 37.246094 L 1492.382812 37.246094 L 1492.382812 -0.0234375 L 1529.652344 -0.0234375 Z M 1529.652344 37.246094 " fill-opacity="1" fill-rule="nonzero"/></g><g clip-path="url(#6244f641c8)"><path fill="#f8f6e9" d="M 2237.765625 74.515625 L 2200.496094 74.515625 L 2200.496094 37.246094 L 2237.765625 37.246094 Z M 2237.765625 74.515625 " fill-opacity="1" fill-rule="nonzero"/></g><g clip-path="url(#f5dae840a6)"><path fill="#f8f6e9" d="M 2125.964844 37.246094 L 2088.695312 37.246094 L 2088.695312 -0.0234375 L 2125.964844 -0.0234375 Z M 2125.964844 37.246094 " fill-opacity="1" fill-rule="nonzero"/></g><g clip-path="url(#9581940704)"><path fill="#f8f6e9" d="M 2088.695312 74.515625 L 2051.425781 74.515625 L 2051.425781 37.246094 L 2088.695312 37.246094 Z M 2088.695312 74.515625 " fill-opacity="1" fill-rule="nonzero"/></g><g clip-path="url(#910ce29177)"><path fill="#f8f6e9" d="M 1976.894531 37.246094 L 1939.625 37.246094 L 1939.625 -0.0234375 L 1976.894531 -0.0234375 Z M 1976.894531 37.246094 " fill-opacity="1" fill-rule="nonzero"/></g><g clip-path="url(#2f7e0214c6)"><path fill="#f8f6e9" d="M 1939.632812 74.515625 L 1902.363281 74.515625 L 1902.363281 37.246094 L 1939.632812 37.246094 Z M 1939.632812 74.515625 " fill-opacity="1" fill-rule="nonzero"/></g><g clip-path="url(#7244723067)"><path fill="#f8f6e9" d="M 2200.496094 37.246094 L 2163.226562 37.246094 L 2163.226562 -0.0234375 L 2200.496094 -0.0234375 Z M 2200.496094 37.246094 " fill-opacity="1" fill-rule="nonzero"/></g><g clip-path="url(#4e81910b37)"><path fill="#f8f6e9" d="M 2163.234375 74.515625 L 2125.964844 74.515625 L 2125.964844 37.246094 L 2163.234375 37.246094 Z M 2163.234375 74.515625 " fill-opacity="1" fill-rule="nonzero"/></g><g clip-path="url(#305a95d6d7)"><path fill="#f8f6e9" d="M 2051.433594 37.246094 L 2014.164062 37.246094 L 2014.164062 -0.0234375 L 2051.433594 -0.0234375 Z M 2051.433594 37.246094 " fill-opacity="1" fill-rule="nonzero"/></g><g clip-path="url(#e9e9f72d45)"><path fill="#f8f6e9" d="M 2014.164062 74.515625 L 1976.894531 74.515625 L 1976.894531 37.246094 L 2014.164062 37.246094 Z M 2014.164062 74.515625 " fill-opacity="1" fill-rule="nonzero"/></g><g clip-path="url(#1e6e9af9e9)"><path fill="#f8f6e9" d="M 1902.363281 37.246094 L 1865.09375 37.246094 L 1865.09375 -0.0234375 L 1902.363281 -0.0234375 Z M 1902.363281 37.246094 " fill-opacity="1" fill-rule="nonzero"/></g></svg>