<svg xmlns="http://www.w3.org/2000/svg" xmlns:xlink="http://www.w3.org/1999/xlink" width="100" zoomAndPan="magnify" viewBox="0 0 75 1118.99995" height="1492" preserveAspectRatio="xMidYMid meet" version="1.0"><defs><clipPath id="14d4784516"><path d="M 0.28125 746.171875 L 38 746.171875 L 38 784 L 0.28125 784 Z M 0.28125 746.171875 " clip-rule="nonzero"/></clipPath><clipPath id="1c36b53d23"><path d="M 37 857 L 74.25 857 L 74.25 896 L 37 896 Z M 37 857 " clip-rule="nonzero"/></clipPath><clipPath id="8be9e9ed21"><path d="M 0.28125 895 L 38 895 L 38 933 L 0.28125 933 Z M 0.28125 895 " clip-rule="nonzero"/></clipPath><clipPath id="89c85aac8f"><path d="M 37 1007 L 74.25 1007 L 74.25 1045 L 37 1045 Z M 37 1007 " clip-rule="nonzero"/></clipPath><clipPath id="d3dd5272e2"><path d="M 0.28125 1044 L 38 1044 L 38 1082 L 0.28125 1082 Z M 0.28125 1044 " clip-rule="nonzero"/></clipPath><clipPath id="50c9176864"><path d="M 37 783 L 74.25 783 L 74.25 821 L 37 821 Z M 37 783 " clip-rule="nonzero"/></clipPath><clipPath id="379ef55623"><path d="M 0.28125 820 L 38 820 L 38 858 L 0.28125 858 Z M 0.28125 820 " clip-rule="nonzero"/></clipPath><clipPath id="4ff6e844dc"><path d="M 37 932 L 74.25 932 L 74.25 970 L 37 970 Z M 37 932 " clip-rule="nonzero"/></clipPath><clipPath id="3fd4c8fc8a"><path d="M 0.28125 969 L 38 969 L 38 1008 L 0.28125 1008 Z M 0.28125 969 " clip-rule="nonzero"/></clipPath><clipPath id="13affabf63"><path d="M 37 1081 L 74.25 1081 L 74.25 1118.921875 L 37 1118.921875 Z M 37 1081 " clip-rule="nonzero"/></clipPath><clipPath id="fa7920714b"><path d="M 0.28125 372.710938 L 38 372.710938 L 38 410 L 0.28125 410 Z M 0.28125 372.710938 " clip-rule="nonzero"/></clipPath><clipPath id="8ce034d85a"><path d="M 37 484 L 74.25 484 L 74.25 522 L 37 522 Z M 37 484 " clip-rule="nonzero"/></clipPath><clipPath id="4e6d05e60f"><path d="M 0.28125 521 L 38 521 L 38 560 L 0.28125 560 Z M 0.28125 521 " clip-rule="nonzero"/></clipPath><clipPath id="10a9d1203d"><path d="M 37 633 L 74.25 633 L 74.25 671 L 37 671 Z M 37 633 " clip-rule="nonzero"/></clipPath><clipPath id="c69012074a"><path d="M 0.28125 670 L 38 670 L 38 709 L 0.28125 709 Z M 0.28125 670 " clip-rule="nonzero"/></clipPath><clipPath id="2175ab3697"><path d="M 37 409 L 74.25 409 L 74.25 448 L 37 448 Z M 37 409 " clip-rule="nonzero"/></clipPath><clipPath id="8ce4e33fea"><path d="M 0.28125 447 L 38 447 L 38 485 L 0.28125 485 Z M 0.28125 447 " clip-rule="nonzero"/></clipPath><clipPath id="d1bc483cb9"><path d="M 37 559 L 74.25 559 L 74.25 597 L 37 597 Z M 37 559 " clip-rule="nonzero"/></clipPath><clipPath id="974fae7466"><path d="M 0.28125 596 L 38 596 L 38 634 L 0.28125 634 Z M 0.28125 596 " clip-rule="nonzero"/></clipPath><clipPath id="f0a96ec32b"><path d="M 37 708 L 74.25 708 L 74.25 745.460938 L 37 745.460938 Z M 37 708 " clip-rule="nonzero"/></clipPath><clipPath id="03040575de"><path d="M 0.28125 0 L 38 0 L 38 38 L 0.28125 38 Z M 0.28125 0 " clip-rule="nonzero"/></clipPath><clipPath id="28175a17d3"><path d="M 37 111 L 74.25 111 L 74.25 150 L 37 150 Z M 37 111 " clip-rule="nonzero"/></clipPath><clipPath id="c9e26ea47a"><path d="M 0.28125 149 L 38 149 L 38 187 L 0.28125 187 Z M 0.28125 149 " clip-rule="nonzero"/></clipPath><clipPath id="4b008e4e84"><path d="M 37 260 L 74.25 260 L 74.25 299 L 37 299 Z M 37 260 " clip-rule="nonzero"/></clipPath><clipPath id="590353124c"><path d="M 0.28125 298 L 38 298 L 38 336 L 0.28125 336 Z M 0.28125 298 " clip-rule="nonzero"/></clipPath><clipPath id="864711be14"><path d="M 37 37 L 74.25 37 L 74.25 75 L 37 75 Z M 37 37 " clip-rule="nonzero"/></clipPath><clipPath id="94b893d7de"><path d="M 0.28125 74 L 38 74 L 38 112 L 0.28125 112 Z M 0.28125 74 " clip-rule="nonzero"/></clipPath><clipPath id="0cb7d4f5de"><path d="M 37 186 L 74.25 186 L 74.25 224 L 37 224 Z M 37 186 " clip-rule="nonzero"/></clipPath><clipPath id="a0682fd847"><path d="M 0.28125 223 L 38 223 L 38 261 L 0.28125 261 Z M 0.28125 223 " clip-rule="nonzero"/></clipPath><clipPath id="797042460c"><path d="M 37 335 L 74.25 335 L 74.25 372.75 L 37 372.75 Z M 37 335 " clip-rule="nonzero"/></clipPath></defs><g clip-path="url(#14d4784516)"><path fill="#f8f6e9" d="M 0.0195312 746.171875 L 0.0195312 783.445312 L 37.289062 783.445312 L 37.289062 746.171875 Z M 0.0195312 746.171875 " fill-opacity="1" fill-rule="nonzero"/></g><g clip-path="url(#1c36b53d23)"><path fill="#f8f6e9" d="M 37.289062 857.972656 L 37.289062 895.246094 L 74.558594 895.246094 L 74.558594 857.972656 Z M 37.289062 857.972656 " fill-opacity="1" fill-rule="nonzero"/></g><g clip-path="url(#8be9e9ed21)"><path fill="#f8f6e9" d="M 0.0195312 895.246094 L 0.0195312 932.515625 L 37.289062 932.515625 L 37.289062 895.246094 Z M 0.0195312 895.246094 " fill-opacity="1" fill-rule="nonzero"/></g><g clip-path="url(#89c85aac8f)"><path fill="#f8f6e9" d="M 37.289062 1007.042969 L 37.289062 1044.316406 L 74.558594 1044.316406 L 74.558594 1007.042969 Z M 37.289062 1007.042969 " fill-opacity="1" fill-rule="nonzero"/></g><g clip-path="url(#d3dd5272e2)"><path fill="#f8f6e9" d="M 0.0195312 1044.304688 L 0.0195312 1081.574219 L 37.289062 1081.574219 L 37.289062 1044.304688 Z M 0.0195312 1044.304688 " fill-opacity="1" fill-rule="nonzero"/></g><g clip-path="url(#50c9176864)"><path fill="#f8f6e9" d="M 37.289062 783.445312 L 37.289062 820.714844 L 74.558594 820.714844 L 74.558594 783.445312 Z M 37.289062 783.445312 " fill-opacity="1" fill-rule="nonzero"/></g><g clip-path="url(#379ef55623)"><path fill="#f8f6e9" d="M 0.0195312 820.703125 L 0.0195312 857.972656 L 37.289062 857.972656 L 37.289062 820.703125 Z M 0.0195312 820.703125 " fill-opacity="1" fill-rule="nonzero"/></g><g clip-path="url(#4ff6e844dc)"><path fill="#f8f6e9" d="M 37.289062 932.503906 L 37.289062 969.773438 L 74.558594 969.773438 L 74.558594 932.503906 Z M 37.289062 932.503906 " fill-opacity="1" fill-rule="nonzero"/></g><g clip-path="url(#3fd4c8fc8a)"><path fill="#f8f6e9" d="M 0.0195312 969.773438 L 0.0195312 1007.042969 L 37.289062 1007.042969 L 37.289062 969.773438 Z M 0.0195312 969.773438 " fill-opacity="1" fill-rule="nonzero"/></g><g clip-path="url(#13affabf63)"><path fill="#f8f6e9" d="M 37.289062 1081.574219 L 37.289062 1118.84375 L 74.558594 1118.84375 L 74.558594 1081.574219 Z M 37.289062 1081.574219 " fill-opacity="1" fill-rule="nonzero"/></g><g clip-path="url(#fa7920714b)"><path fill="#f8f6e9" d="M 0.0195312 372.710938 L 0.0195312 409.980469 L 37.289062 409.980469 L 37.289062 372.710938 Z M 0.0195312 372.710938 " fill-opacity="1" fill-rule="nonzero"/></g><g clip-path="url(#8ce034d85a)"><path fill="#f8f6e9" d="M 37.289062 484.511719 L 37.289062 521.78125 L 74.558594 521.78125 L 74.558594 484.511719 Z M 37.289062 484.511719 " fill-opacity="1" fill-rule="nonzero"/></g><g clip-path="url(#4e6d05e60f)"><path fill="#f8f6e9" d="M 0.0195312 521.78125 L 0.0195312 559.050781 L 37.289062 559.050781 L 37.289062 521.78125 Z M 0.0195312 521.78125 " fill-opacity="1" fill-rule="nonzero"/></g><g clip-path="url(#10a9d1203d)"><path fill="#f8f6e9" d="M 37.289062 633.582031 L 37.289062 670.851562 L 74.558594 670.851562 L 74.558594 633.582031 Z M 37.289062 633.582031 " fill-opacity="1" fill-rule="nonzero"/></g><g clip-path="url(#c69012074a)"><path fill="#f8f6e9" d="M 0.0195312 670.84375 L 0.0195312 708.113281 L 37.289062 708.113281 L 37.289062 670.84375 Z M 0.0195312 670.84375 " fill-opacity="1" fill-rule="nonzero"/></g><g clip-path="url(#2175ab3697)"><path fill="#f8f6e9" d="M 37.289062 409.980469 L 37.289062 447.253906 L 74.558594 447.253906 L 74.558594 409.980469 Z M 37.289062 409.980469 " fill-opacity="1" fill-rule="nonzero"/></g><g clip-path="url(#8ce4e33fea)"><path fill="#f8f6e9" d="M 0.0195312 447.242188 L 0.0195312 484.511719 L 37.289062 484.511719 L 37.289062 447.242188 Z M 0.0195312 447.242188 " fill-opacity="1" fill-rule="nonzero"/></g><g clip-path="url(#d1bc483cb9)"><path fill="#f8f6e9" d="M 37.289062 559.042969 L 37.289062 596.3125 L 74.558594 596.3125 L 74.558594 559.042969 Z M 37.289062 559.042969 " fill-opacity="1" fill-rule="nonzero"/></g><g clip-path="url(#974fae7466)"><path fill="#f8f6e9" d="M 0.0195312 596.3125 L 0.0195312 633.582031 L 37.289062 633.582031 L 37.289062 596.3125 Z M 0.0195312 596.3125 " fill-opacity="1" fill-rule="nonzero"/></g><g clip-path="url(#f0a96ec32b)"><path fill="#f8f6e9" d="M 37.289062 708.113281 L 37.289062 745.382812 L 74.558594 745.382812 L 74.558594 708.113281 Z M 37.289062 708.113281 " fill-opacity="1" fill-rule="nonzero"/></g><g clip-path="url(#03040575de)"><path fill="#f8f6e9" d="M 0.0195312 0 L 0.0195312 37.269531 L 37.289062 37.269531 L 37.289062 0 Z M 0.0195312 0 " fill-opacity="1" fill-rule="nonzero"/></g><g clip-path="url(#28175a17d3)"><path fill="#f8f6e9" d="M 37.289062 111.800781 L 37.289062 149.070312 L 74.558594 149.070312 L 74.558594 111.800781 Z M 37.289062 111.800781 " fill-opacity="1" fill-rule="nonzero"/></g><g clip-path="url(#c9e26ea47a)"><path fill="#f8f6e9" d="M 0.0195312 149.070312 L 0.0195312 186.339844 L 37.289062 186.339844 L 37.289062 149.070312 Z M 0.0195312 149.070312 " fill-opacity="1" fill-rule="nonzero"/></g><g clip-path="url(#4b008e4e84)"><path fill="#f8f6e9" d="M 37.289062 260.871094 L 37.289062 298.140625 L 74.558594 298.140625 L 74.558594 260.871094 Z M 37.289062 260.871094 " fill-opacity="1" fill-rule="nonzero"/></g><g clip-path="url(#590353124c)"><path fill="#f8f6e9" d="M 0.0195312 298.128906 L 0.0195312 335.398438 L 37.289062 335.398438 L 37.289062 298.128906 Z M 0.0195312 298.128906 " fill-opacity="1" fill-rule="nonzero"/></g><g clip-path="url(#864711be14)"><path fill="#f8f6e9" d="M 37.289062 37.269531 L 37.289062 74.539062 L 74.558594 74.539062 L 74.558594 37.269531 Z M 37.289062 37.269531 " fill-opacity="1" fill-rule="nonzero"/></g><g clip-path="url(#94b893d7de)"><path fill="#f8f6e9" d="M 0.0195312 74.527344 L 0.0195312 111.800781 L 37.289062 111.800781 L 37.289062 74.527344 Z M 0.0195312 74.527344 " fill-opacity="1" fill-rule="nonzero"/></g><g clip-path="url(#0cb7d4f5de)"><path fill="#f8f6e9" d="M 37.289062 186.328125 L 37.289062 223.597656 L 74.558594 223.597656 L 74.558594 186.328125 Z M 37.289062 186.328125 " fill-opacity="1" fill-rule="nonzero"/></g><g clip-path="url(#a0682fd847)"><path fill="#f8f6e9" d="M 0.0195312 223.597656 L 0.0195312 260.871094 L 37.289062 260.871094 L 37.289062 223.597656 Z M 0.0195312 223.597656 " fill-opacity="1" fill-rule="nonzero"/></g><g clip-path="url(#797042460c)"><path fill="#f8f6e9" d="M 37.289062 335.398438 L 37.289062 372.671875 L 74.558594 372.671875 L 74.558594 335.398438 Z M 37.289062 335.398438 " fill-opacity="1" fill-rule="nonzero"/></g></svg>