<?xml version="1.0" encoding="UTF-8"?>
<svg xmlns="http://www.w3.org/2000/svg" version="1.1" xmlns:xlink="http://www.w3.org/1999/xlink" viewBox="0 0 1711 1623">
  <defs>
    <style>
      .cls-1 {
        fill: #cf4545;
      }

      .cls-1, .cls-2, .cls-3 {
        stroke-width: 0px;
      }

      .cls-2 {
        fill: none;
      }

      .cls-4 {
        clip-path: url(#clippath-1);
      }

      .cls-5 {
        clip-path: url(#clippath);
      }

      .cls-3 {
        fill: #ffcf7e;
      }
    </style>
    <clipPath id="clippath">
      <rect class="cls-2" x="1.1" y="229.7" width="1708.8" height="728.2"/>
    </clipPath>
    <clipPath id="clippath-1">
      <rect class="cls-2" x="1.1" y="63.6" width="1708.8" height="730.9"/>
    </clipPath>
  </defs>
  <g id="Layer_1" data-name="Layer 1" image-rendering="optimizeQuality" text-rendering="geometricPrecision">
    <g class="cls-5">
      <path class="cls-1" d="M232.9,786.1c23.6-41,49.8-80.2,78.6-117.6-6.4,8.3-12.9,16.7-19.3,25,53.8-69.5,116-132.1,185.3-186.2-68.8-18.1-137.6-36.3-206.3-54.5,26.6,64,53.1,127.8,79.7,191.8,13.2,31.7,26.4,63.5,39.6,95.2,6.7,16.1,13.3,32.2,20.1,48.2,8.3,20,16.1,43.6,28.9,61.8,8.8,12.5,17.9,26.3,29.5,36.6,23,20.3,39.1,29.3,67.6,40.2,30,11.4,66.5,9.9,97,2.2,3.1-.8,6-1.9,9-3,11.9-4.6,24-9.3,35.4-15.2,10.8-5.6,20.1-13.4,29.6-20.8,15.1-11.7,28.9-23.3,41.1-37.9,27.8-33.1,53.2-68.6,79.5-102.9,20.9-27.2,41.8-54.4,62.8-81.7,47.5-61.7,94.9-123.4,142.4-185.2-6.4,8.3-12.9,16.7-19.3,25,8.7-11.3,17.9-22.2,29.2-31-8.3,6.4-16.7,12.9-25,19.3,4.6-3.4,9.4-6.3,14.8-8.6-9.8,4.2-19.7,8.3-29.5,12.4,4-1.5,7.9-2.6,12.2-3.1-11,1.5-21.9,2.9-32.8,4.4,3.5-.3,6.8-.3,10.3,0-11-1.5-21.9-2.9-32.8-4.4,4.4.6,8.4,1.8,12.5,3.5-9.8-4.2-19.6-8.3-29.5-12.4,4,1.9,7.6,4.1,11.1,6.7-8.3-6.4-16.7-12.9-25-19.3,5.1,4.1,9.4,8.7,13.5,13.9-6.4-8.3-12.9-16.7-19.3-25,19.4,25.6,29.7,58.1,42.3,87.3,15.1,35.3,30.2,70.5,45.2,105.8,15.1,35.3,30.2,70.5,45.2,105.8,7.6,17.9,15.3,35.7,22.9,53.5,6.7,15.6,12.7,31.7,20.5,46.8,15.4,29.8,38.3,53.1,65.7,71.8,13.3,9.1,28.9,15.7,44.6,18.8,10.3,2.1,27.6,5.3,40.6,4.5,10.4-.6,24.7-2.5,34.9-4.7,2-.4,3.9-1,5.8-1.7,28-9.5,46.2-20.5,68.1-40.7,12.4-11.4,22.2-26.2,31.9-39.7,10.7-14.9,20.5-30.6,30.6-45.9,42.3-63.9,84.7-127.7,127-191.7,47.7-72,95.4-144,143.1-215.9,9-14.1,13.9-29.5,14.6-45.9,3.7-16.4,2.9-32.8-2.2-49.2-3.8-16-11.2-30-22.1-42-8.7-13.5-20.2-24-34.6-31.8-28.6-15.1-63.4-22.7-95.1-12.4-9.8,4.2-19.7,8.3-29.5,12.4-18.6,11-33.3,25.7-44.3,44.3-79.3,119.7-158.6,239.4-238,359.1-11.3,17-22.5,34-33.8,50.9-10.4,15.7-20.2,31.9-31.6,47,6.4-8.3,12.9-16.7,19.3-25-3.9,5.1-8.2,9.8-13.2,14,8.3-6.4,16.7-12.9,25-19.3-3.3,2.5-6.7,4.6-10.5,6.2,9.8-4.2,19.7-8.3,29.5-12.4-2.6.9-5.1,1.6-7.9,2,11-1.5,21.9-2.9,32.8-4.4-2.6.2-5.2.2-7.8,0,11,1.5,21.9,2.9,32.8,4.4-2.5-.4-4.8-1-7.1-1.9,9.8,4.2,19.7,8.3,29.5,12.4-3.5-1.5-6.6-3.3-9.6-5.6,8.3,6.4,16.7,12.9,25,19.3-3.5-3-6.6-6.2-9.6-9.8,6.4,8.3,12.9,16.7,19.3,25-8.5-11.2-14-23.8-19.5-36.6-7.2-16.9-14.5-33.9-21.8-50.9-14.1-33-28.2-66-42.3-99.1-14.3-33.5-28.7-67-42.9-100.4-13.8-32.3-26.9-65-41.6-97-9.7-21.3-22.9-38.4-37.7-56.8-3.7-4.6-7.5-8.9-12-12.7-20-17.3-30-24.1-52.2-33.5-6.7-2.8-14.3-6.7-21.7-8.6-12.3-3.1-25.8-4.4-38.4-5.5-3.5-.3-6.8-.3-10.3,0-11,.9-24.1,2.7-34.9,4.7-2.1.4-4.1.8-6.1,1.4-32.5,10-61,27.9-84.9,52.1-17.4,17.7-31.5,38.6-46.5,58.2-10.9,14.2-21.8,28.3-32.7,42.5-22.4,29.1-44.8,58.3-67.2,87.4-49.5,64.4-99.1,128.8-148.6,193.2,6.4-8.3,12.9-16.7,19.3-25-10.6,13.7-22.3,26.4-35.8,37.2,8.3-6.4,16.7-12.9,25-19.3-7.2,5.5-14.7,10.3-23,13.9,9.8-4.2,19.6-8.3,29.5-12.4-5.2,2.1-10.4,3.6-16,4.4,11-1.5,21.9-2.9,32.8-4.4-4.1.4-8.1.4-12.2,0,11,1.5,21.9,2.9,32.8,4.4-4.2-.6-8.2-1.8-12.2-3.4,9.8,4.2,19.7,8.3,29.5,12.4-3.9-1.8-7.4-3.9-10.8-6.4,8.3,6.4,16.7,12.9,25,19.3-3.8-3.1-7.1-6.5-10.1-10.3,6.4,8.3,12.9,16.7,19.3,25-7.4-9.7-12.6-20.6-17.3-31.8,4.2,9.8,8.3,19.7,12.4,29.5-47.5-112.8-94-226.1-140.9-339.2-5.9-20.9-16.5-39-31.8-54.5-15.4-15.3-33.6-25.9-54.5-31.8-21.9-5.9-43.7-5.9-65.6,0-20.9,5.9-39,16.5-54.5,31.8-91.4,71.5-169.2,158.2-235.3,253.4-17,24.5-33,49.7-47.8,75.6-9,14.1-13.9,29.5-14.7,45.9-3.7,16.4-2.9,32.8,2.2,49.2,3.8,16,11.2,30,22.1,42,8.7,13.5,20.2,24,34.6,31.8,28.7,15.1,63.4,22.7,95.1,12.4,30.4-9.8,57.4-28.4,73.7-56.7Z"/>
    </g>
    <g class="cls-4">
      <path class="cls-3" d="M232.9,621.9c23.6-40.9,49.8-80.2,78.6-117.6-6.4,8.3-12.9,16.7-19.3,25,53.8-69.5,116-132.1,185.3-186.2-68.8-18.1-137.6-36.3-206.3-54.5,26.6,63.9,53.1,127.8,79.7,191.8,13.2,31.7,26.4,63.5,39.6,95.2,6.7,16.1,13.3,32.2,20.1,48.3,8.3,20,16.1,43.5,28.9,61.8,8.8,12.5,17.9,26.3,29.5,36.6,23,20.3,39.1,29.4,67.6,40.2,30,11.3,66.5,9.9,97,2.1,3.1-.8,6-1.8,9-3,11.9-4.6,24-9.3,35.4-15.2,10.8-5.6,20.1-13.4,29.6-20.8,15.1-11.7,28.9-23.3,41.1-37.9,27.8-33.1,53.2-68.6,79.5-102.9,20.9-27.3,41.8-54.5,62.8-81.7,47.5-61.7,94.9-123.5,142.4-185.2-6.4,8.3-12.9,16.7-19.3,25,8.7-11.3,17.9-22.2,29.2-31-8.3,6.4-16.7,12.9-25,19.3,4.6-3.4,9.4-6.3,14.8-8.6-9.8,4.2-19.7,8.3-29.5,12.4,4-1.5,7.9-2.5,12.2-3.1-11,1.5-21.9,2.9-32.8,4.4,3.5-.3,6.8-.3,10.3,0-11-1.5-21.9-2.9-32.8-4.4,4.4.6,8.4,1.8,12.5,3.5-9.8-4.2-19.6-8.3-29.5-12.4,4,1.8,7.6,4.1,11.1,6.7-8.3-6.4-16.7-12.9-25-19.3,5.1,4.1,9.4,8.8,13.5,13.9-6.4-8.3-12.9-16.7-19.3-25,19.4,25.6,29.7,58.1,42.3,87.3,15.1,35.3,30.2,70.5,45.2,105.8,15.1,35.2,30.2,70.5,45.2,105.7,7.6,17.9,15.3,35.7,22.9,53.5,6.7,15.6,12.7,31.7,20.5,46.8,15.4,29.8,38.3,53.1,65.7,71.9,13.3,9,28.9,15.7,44.6,18.8,10.3,2.1,27.6,5.3,40.6,4.5,10.4-.6,24.7-2.5,34.9-4.7,2-.4,3.9-1,5.8-1.7,28-9.5,46.2-20.6,68.1-40.7,12.4-11.4,22.2-26.3,31.9-39.7,10.7-14.9,20.5-30.6,30.6-45.9,42.3-63.9,84.7-127.8,127-191.7,47.7-72,95.4-144,143.1-215.9,9-14.2,13.9-29.5,14.6-45.9,3.7-16.4,2.9-32.8-2.2-49.2-3.8-16.1-11.2-30.1-22.1-42-8.7-13.4-20.2-24-34.6-31.8-28.6-15.2-63.4-22.7-95.1-12.4-9.8,4.2-19.7,8.3-29.5,12.4-18.6,11-33.3,25.7-44.3,44.3-79.3,119.7-158.6,239.4-238,359.1-11.3,17-22.5,34-33.8,50.9-10.4,15.7-20.2,31.9-31.6,47,6.4-8.3,12.9-16.7,19.3-25-3.9,5.1-8.2,9.8-13.2,14,8.3-6.4,16.7-12.9,25-19.3-3.3,2.5-6.7,4.6-10.5,6.2,9.8-4.2,19.7-8.3,29.5-12.4-2.6,1-5.1,1.6-7.9,2,11-1.5,21.9-2.9,32.8-4.4-2.6.2-5.2.2-7.8,0,11,1.5,21.9,2.9,32.8,4.4-2.5-.4-4.8-1-7.1-1.9,9.8,4.2,19.7,8.3,29.5,12.4-3.5-1.5-6.6-3.3-9.6-5.6,8.3,6.4,16.7,12.9,25,19.3-3.5-3-6.6-6.2-9.6-9.8,6.4,8.3,12.9,16.7,19.3,25-8.5-11.2-14-23.8-19.5-36.6-7.2-17-14.5-33.9-21.8-50.9-14.1-33-28.2-66.1-42.3-99.1-14.3-33.5-28.7-66.9-42.9-100.4-13.8-32.3-26.9-65.1-41.6-97-9.7-21.3-22.9-38.3-37.7-56.8-3.7-4.6-7.5-8.9-12-12.7-20-17.3-30-24.1-52.2-33.5-6.7-2.8-14.3-6.7-21.7-8.6-12.3-3.1-25.8-4.4-38.4-5.5-3.5-.3-6.8-.3-10.3,0-11,.9-24.1,2.7-34.9,4.7-2.1.4-4.1.8-6.1,1.5-32.5,10-61,27.8-84.9,52.1-17.4,17.7-31.5,38.6-46.5,58.2-10.9,14.2-21.8,28.4-32.7,42.6-22.4,29.1-44.8,58.3-67.2,87.4-49.5,64.4-99.1,128.8-148.6,193.2,6.4-8.3,12.9-16.7,19.3-25-10.6,13.7-22.3,26.4-35.8,37.2,8.3-6.4,16.7-12.9,25-19.3-7.2,5.5-14.7,10.2-23,13.9,9.8-4.2,19.6-8.3,29.5-12.4-5.2,2.1-10.4,3.6-16,4.4,11-1.5,21.9-2.9,32.8-4.4-4.1.4-8.1.4-12.2,0,11,1.5,21.9,2.9,32.8,4.4-4.2-.7-8.2-1.8-12.2-3.4,9.8,4.2,19.7,8.3,29.5,12.4-3.9-1.8-7.4-3.9-10.8-6.4,8.3,6.4,16.7,12.9,25,19.3-3.8-3.1-7.1-6.5-10.1-10.3,6.4,8.3,12.9,16.7,19.3,25-7.4-9.7-12.6-20.6-17.3-31.8,4.2,9.8,8.3,19.7,12.4,29.5-47.5-112.8-94-226.1-140.9-339.2-5.9-20.9-16.5-39.1-31.8-54.5-15.4-15.3-33.6-25.9-54.5-31.8-21.9-5.9-43.7-5.9-65.6,0-20.9,5.9-39,16.5-54.5,31.8-91.5,71.4-169.2,158.1-235.3,253.3-17.1,24.5-33,49.7-47.8,75.6-9,14.1-13.9,29.5-14.6,45.9-3.7,16.4-2.9,32.8,2.2,49.2,3.8,16,11.2,30,22.1,42,8.7,13.4,20.2,24,34.6,31.8,28.6,15.2,63.4,22.7,95.1,12.4,30.5-9.7,57.5-28.2,73.8-56.6Z"/>
    </g>
  </g>
</svg>