<?xml version="1.0" encoding="UTF-8" standalone="no"?><svg xmlns="http://www.w3.org/2000/svg" xmlns:xlink="http://www.w3.org/1999/xlink" contentScriptType="text/ecmascript" fill="#242536" width="416.6" zoomAndPan="magnify" contentStyleType="text/css" viewBox="22.9 79.2 416.6 293.4" height="293.4" preserveAspectRatio="xMidYMid meet" version="1"><g id="change1_1"><path d="M121.23,234.15c-1.04,2.22-2.01,4.48-2.96,6.77c-2.03,4.92-3.59,10.02-4.54,15.26c-1.22,6.69-1.98,13.53-2.31,20.38 c-0.87,0.37-1.74,0.74-2.62,1.11c0.8-0.33,1.61-0.65,2.42-0.94c-3.25,1.54-6.34,3.37-9.27,5.46c0.64-0.54,1.3-1.07,1.96-1.59 c-1.35,1.04-2.7,2.08-4.05,3.13c0.69-0.53,1.38-1.04,2.09-1.54c-3.22,2.7-6.19,5.69-8.88,8.92c0.46-0.64,0.93-1.27,1.41-1.9 c-1.04,1.35-2.08,2.69-3.13,4.04c0.56-0.72,1.12-1.43,1.71-2.12c-2.71,3.78-5.05,7.81-7.02,12.03c0.31-0.82,0.64-1.64,0.98-2.45 c-0.67,1.59-1.34,3.18-2.02,4.78c0.33-0.78,0.68-1.56,1.04-2.33c-1.58,4.19-2.79,8.5-3.57,12.91c0.08-0.87,0.18-1.74,0.29-2.61 c-0.24,1.77-0.48,3.54-0.72,5.32c0.13-0.91,0.27-1.81,0.43-2.71c-0.35,3.79-0.37,7.59-0.03,11.38c-0.17-0.83-0.3-1.66-0.42-2.5 c0.24,1.77,0.48,3.55,0.72,5.32c-0.13-0.94-0.23-1.88-0.3-2.82c0.73,4,1.87,7.91,3.44,11.68c0.95,3.55,0.95,7.09,0,10.64 c-0.67,1.59-1.35,3.18-2.02,4.77c-2.44,4.63-7.11,7.63-11.95,9.19c-4.81,1.56-11.12,0.5-15.41-2.01c-0.43-0.23-0.85-0.48-1.25-0.75 c-0.36-0.18-0.71-0.4-1.03-0.67l-19.28-16.01c-2.12-1.76-2.41-4.91-0.65-7.03c1.76-2.12,4.91-2.41,7.03-0.65l2.68,2.22 c-0.15-0.71-0.28-1.43-0.39-2.15c-0.95-6.1-1.68-12.18-1.32-18.35c0.75-12.82,4.05-24.56,9.56-36.11c2.03-4.26,4.47-8.33,7.28-12.13 c3.68-4.98,7.51-9.83,12.07-14.04c9.25-8.53,19.96-15,31.97-18.8C109,235.4,115.1,234.37,121.23,234.15z"/></g><g id="change1_2"><path d="M82.44,327.45c0.07,0.94,0.17,1.88,0.3,2.82c-0.24-1.77-0.48-3.55-0.72-5.32C82.14,325.79,82.27,326.62,82.44,327.45z"/></g><g id="change1_3"><path d="M82.04,318.78c0.24-1.78,0.48-3.55,0.72-5.32c-0.11,0.87-0.21,1.74-0.29,2.61C82.31,316.97,82.17,317.87,82.04,318.78z"/></g><g id="change1_4"><path d="M85,305.49c0.68-1.6,1.35-3.19,2.02-4.78c-0.34,0.81-0.67,1.63-0.98,2.45C85.68,303.93,85.33,304.71,85,305.49z"/></g><g id="change1_5"><path d="M91.35,293.25c1.05-1.35,2.09-2.69,3.13-4.04c-0.48,0.63-0.95,1.26-1.41,1.9c0,0-0.01,0.01-0.01,0.02 C92.47,291.82,91.91,292.53,91.35,293.25z"/></g><g id="change1_6"><path d="M99.86,283.73c1.35-1.05,2.7-2.09,4.05-3.13c-0.66,0.52-1.32,1.05-1.96,1.59C101.24,282.69,100.55,283.2,99.86,283.73z"/></g><g id="change1_7"><path d="M438.08,182.37c-3.71-14.15-7.79-28.06-14.13-41.3c-3.31-6.91-7.52-13.01-12.28-19.01c-4.55-5.75-9.98-10.33-15.86-14.69 c-5.72-4.24-12.41-7.37-19.18-9.49c-4.26-1.33-8.72-1.87-13.14-2.35c-2.58-0.28-5.19-0.3-7.78-0.06c-4.1,0.38-8.29,0.89-12.28,2 c-4.01,1.1-7.91,2.81-11.65,4.56c-6.03,2.81-11.5,6.97-16.45,11.36c-5.14,4.56-9.51,10.09-13.36,15.75 c-3.29,4.86-5.85,10.19-8.01,15.64c-2.66,0-5.3,0.14-7.93,0.42c-6.82,0.72-13.61,1.74-20.18,3.74c-6.49,1.97-12.86,4.64-18.86,7.78 c-6.04,3.17-11.46,7.18-16.79,11.43c-4.03,3.21-7.74,6.82-11.02,10.8c-1.95,2.37-3.85,4.79-5.62,7.28 c-18.9-3.55-38.75-1.06-55.98,8.41c-12.11,6.64-21.92,16.53-29.75,27.78c-2.6,3.73-4.71,7.66-6.6,11.73 c-1.04,2.22-2.01,4.48-2.96,6.77c-2.03,4.92-3.59,10.02-4.54,15.26c-1.22,6.69-1.98,13.53-2.31,20.38 c-0.87,0.37-1.74,0.74-2.62,1.11c0.8-0.33,1.61-0.65,2.42-0.94c0.06-0.03,0.13-0.06,0.2-0.07c-0.27,5.65-0.26,11.32,0.02,16.91 c0.63,12.35,2.33,25.1,6.69,36.74c2.33,6.24,5.01,12.5,8.69,18.08c4.33,6.56,9.95,14.03,16.83,18.18c3.67,2.21,7.96,4.08,12.21,4.87 c6.25,1.15,10.97,1.18,17.2,0.03c7.25-1.34,14.78-6.04,19.67-11.47c5.17-5.74,9.37-12.76,11.02-20.38 c1.38-6.35,1.68-13.01,1.13-19.48c-0.57-6.62-1.56-13.31-3.38-19.72c-1.82-6.37-4.4-12.59-7.33-18.52 c-2.2-4.45-4.79-8.71-7.77-12.68c-3.9-5.21-7.92-10.28-12.77-14.64c-3.97-3.57-8.24-6.84-12.78-9.66c0.69-1.1,1.42-2.18,2.2-3.24 c2.63-3.15,5.52-6.06,8.66-8.69c2.9-2.05,5.95-3.86,9.15-5.39c3.33-1.23,6.74-2.15,10.23-2.78c2.14-0.19,4.29-0.28,6.43-0.26 c-0.77,4.24-1.28,8.53-1.64,12.79c-0.47,5.62-0.4,11.28,0.19,16.89c0.77,7.21,1.85,14.41,3.93,21.37c2.05,6.86,4.85,13.6,8.17,19.93 c7.38,14.07,18.92,25.88,34.13,31.15c1.25,0.43,2.53,0.74,3.84,0.95c2.81,0.46,5.81,1.03,8.7,0.89c6.08-0.28,11.1-1.7,16.52-4.42 c2.41-1.21,4.51-3.04,6.6-4.71c0.94-0.75,1.81-1.54,2.59-2.45c1.76-2.07,3.53-4.23,4.94-6.58c1.43-2.38,2.41-5.05,3.44-7.61 c0.92-2.26,1.55-4.6,1.93-7.02c0.65-4.16,1.26-8.35,1.21-12.57c-0.05-4.19-0.7-8.33-1.28-12.47c-0.41-2.94-0.93-5.86-1.61-8.75 c-1.67-7.15-4.33-13.89-7.26-20.61c-2.33-5.34-5.18-10.45-8.53-15.22c-6.19-8.81-13.45-16.78-21.97-23.26c1.89-1.96,3.9-3.81,6-5.56 c4.23-3.04,8.73-5.66,13.46-7.85c0.03-0.01,0.07-0.03,0.12-0.05c5.01-1.9,10.19-3.33,15.47-4.24c0.01,0,0.01,0,0.02,0 c0.25-0.03,0.5-0.05,0.75-0.07c0.01,2.13,0.09,4.26,0.22,6.38c0.92,15.41,3.81,30.7,6.92,45.79c1.24,6.01,2.66,11.98,5.03,17.65 c3.35,8.02,7.36,16.1,14.22,21.78c3.24,2.68,6.56,5.33,10.42,7.06c2.51,1.12,5.13,2.33,7.8,3.11c2.05,0.6,4.13,0.83,6.24,1.11 c5.05,0.68,9.52,0.53,14.6-0.63c5.75-1.33,10.4-4.34,14.9-7.97c1.05-0.85,2.02-1.74,2.89-2.78c1.87-2.24,3.79-4.59,5.26-7.13 c2.18-3.75,3.83-7.93,5.06-12.09c1.92-6.47,2.83-13.43,3.04-20.16c0.22-6.68-0.65-13.47-1.93-20.01 c-1.29-6.62-3.71-12.74-6.36-18.93c-2.02-4.73-4.49-9.25-7.42-13.47c-3.74-5.39-7.88-10.65-12.61-15.21 c-6.55-6.31-13.9-11.51-21.91-15.53c1.14-2.04,2.39-4.01,3.75-5.92c2.18-2.6,4.56-5.02,7.15-7.23c2.11-1.48,4.32-2.79,6.63-3.93 c0,0,0.01-0.01,0.02-0.01c1.84-0.65,3.72-1.18,5.63-1.57c1.67-0.11,3.35-0.11,5.03-0.01c1.93,0.4,3.82,0.93,5.68,1.58 c2.41,1.17,4.7,2.54,6.9,4.07c2.83,2.39,5.43,5.02,7.81,7.87c0.01,0.01,0.02,0.02,0.02,0.03c3.29,4.64,6.01,9.65,8.34,14.85 c2.34,5.95,4.24,12.04,5.97,18.2l-2.86-2.37c-2.12-1.76-5.27-1.47-7.03,0.65c-1.76,2.12-1.47,5.27,0.65,7.03l17.05,14.15 c1.3,1.39,2.78,2.59,4.35,3.5c4.29,2.51,10.61,3.57,15.41,2.02c4.84-1.57,9.51-4.57,11.96-9.19 C438.6,192.98,439.48,187.7,438.08,182.37z M164.82,319.43c0.32,3.31,0.45,6.68,0.25,10.01c-0.13,0.53-0.27,1.06-0.43,1.59 c-0.14,0.25-0.28,0.49-0.42,0.74c-0.62-0.66-1.21-1.33-1.79-2.02c-2.14-3.05-3.99-6.29-5.56-9.67c-2.24-5.92-3.76-12.07-4.76-18.31 c-0.49-4.28-0.78-8.6-0.89-12.93c0.53,0.59,1.05,1.2,1.55,1.81c0.03,0.03,0.05,0.05,0.06,0.08c3,4.21,5.59,8.69,7.76,13.39 c0.01,0.02,0.02,0.04,0.03,0.06c0.01,0.01,0.01,0.02,0.02,0.04C162.51,309.14,163.93,314.23,164.82,319.43z M251.78,278.44 c0.28,2.81,0.36,5.62,0.17,8.44c-0.02,0.12-0.05,0.24-0.08,0.36c-0.21-0.14-0.43-0.27-0.64-0.42c-1.53-1.36-2.96-2.81-4.29-4.36 c-2.4-3.47-4.41-7.21-6.15-11.04c-2.18-5.66-3.76-11.53-4.75-17.52c-0.38-3.81-0.52-7.64-0.43-11.46c0.89,0.96,1.74,1.93,2.56,2.93 c3.32,4.6,6.15,9.5,8.53,14.63v0.01C249.02,265.96,250.71,272.13,251.78,278.44z M340.03,216.28c1.58,4.18,2.77,8.48,3.55,12.88 c0.36,3.88,0.38,7.77,0.03,11.66c-0.42,2.42-1,4.83-1.78,7.17c-0.34-0.19-0.68-0.39-1.02-0.6c-0.01,0.02-0.01,0.01-0.02-0.01 c-0.47-0.43-0.93-0.89-1.36-1.37c-0.93-1.42-1.76-2.9-2.51-4.43c-2.15-5.91-3.4-12.1-4.64-18.25c-1.44-7.16-2.81-14.33-3.87-21.56 c-0.01-0.04-0.01-0.08-0.01-0.12c-0.12-0.97-0.22-1.95-0.32-2.92c1.68,1.66,3.28,3.41,4.79,5.24 C335.64,207.84,338.04,211.96,340.03,216.28z"/></g><g id="change2_1"><path fill="#ffcf7e" d="M66.93,323.13c-1.89-4.55-3.17-9.3-3.86-14.18c0.24,1.77,0.48,3.54,0.71,5.32c-0.74-5.59-0.71-11.22,0.02-16.81 c-0.24,1.77-0.48,3.54-0.71,5.32c0.86-6.22,2.55-12.28,4.98-18.07c-0.67,1.59-1.34,3.19-2.02,4.78c2.47-5.8,5.65-11.26,9.48-16.28 c-1.04,1.35-2.08,2.7-3.13,4.05c3.65-4.72,7.84-8.98,12.55-12.66c-1.35,1.04-2.7,2.08-4.05,3.13c4.23-3.25,8.81-5.98,13.72-8.07 c-1.59,0.67-3.19,1.34-4.78,2.02c4.57-1.91,9.34-3.25,14.25-3.92c-1.77,0.24-3.54,0.48-5.32,0.71c4.1-0.52,8.22-0.53,12.32,0 c-1.77-0.24-3.54-0.48-5.32-0.71c4.44,0.61,8.75,1.82,12.88,3.56c-1.59-0.67-3.19-1.34-4.78-2.02c4.59,1.98,8.87,4.55,12.82,7.6 c-1.35-1.04-2.7-2.08-4.05-3.13c4.81,3.75,9.06,8.12,12.79,12.94c-1.04-1.35-2.08-2.7-3.13-4.05c4.19,5.49,7.65,11.48,10.36,17.83 c-0.67-1.59-1.34-3.19-2.02-4.78c2.74,6.54,4.65,13.39,5.6,20.42c-0.24-1.77-0.48-3.54-0.71-5.32c0.66,5.12,0.93,10.42,0.29,15.56 c0.24-1.77,0.48-3.54,0.71-5.32c-0.31,2.19-0.9,4.3-1.74,6.35c0.67-1.59,1.34-3.19,2.02-4.78c-0.88,2.06-1.99,3.98-3.35,5.77 c1.04-1.35,2.08-2.7,3.13-4.05c-1.19,1.51-2.53,2.87-4.04,4.07c1.35-1.04,2.7-2.08,4.05-3.13c-1.29,0.98-2.66,1.8-4.13,2.46 c1.59-0.67,3.19-1.34,4.78-2.02c-1.52,0.64-3.07,1.07-4.7,1.3c1.77-0.24,3.54-0.48,5.32-0.71c-1.57,0.18-3.12,0.17-4.69-0.01 c1.77,0.24,3.54,0.48,5.32,0.71c-1.92-0.28-3.75-0.81-5.55-1.56c1.59,0.67,3.19,1.34,4.78,2.02c-1.07-0.47-2.12-0.97-3.1-1.6 c1.35,1.04,2.7,2.08,4.05,3.13c-2.57-2.08-4.8-4.65-6.84-7.25c1.04,1.35,2.08,2.7,3.13,4.05c-3.33-4.33-6.01-9.08-8.15-14.11 c0.67,1.59,1.34,3.19,2.02,4.78c-3.1-7.43-4.98-15.28-6.08-23.24c0.24,1.77,0.48,3.54,0.71,5.32c-1.76-13.17-1.68-26.85,0.08-40.02 c-0.24,1.77-0.48,3.54-0.71,5.32c0.89-6.3,2.59-12.43,5.03-18.3c-0.67,1.59-1.34,3.19-2.02,4.78c2.55-6.01,5.83-11.66,9.82-16.82 c-1.04,1.35-2.08,2.7-3.13,4.05c3.57-4.56,7.65-8.67,12.23-12.23c-1.35,1.04-2.7,2.08-4.05,3.13c4.19-3.2,8.71-5.88,13.56-7.95 c-1.59,0.67-3.19,1.34-4.78,2.02c4.86-2.03,9.93-3.39,15.15-4.12c-1.77,0.24-3.54,0.48-5.32,0.71c5.86-0.77,11.77-0.74,17.63,0.02 c-1.77-0.24-3.54-0.48-5.32-0.71c6.26,0.86,12.35,2.53,18.18,4.95c-1.59-0.67-3.19-1.34-4.78-2.02c5.65,2.39,10.96,5.45,15.85,9.17 c-1.35-1.04-2.7-2.08-4.05-3.13c5.26,4.08,9.94,8.81,14.02,14.07c-1.04-1.35-2.08-2.7-3.13-4.05c4.5,5.89,8.2,12.32,11.1,19.14 c-0.67-1.59-1.34-3.19-2.02-4.78c3.15,7.55,5.3,15.46,6.42,23.56c-0.24-1.77-0.48-3.54-0.71-5.32c0.6,4.56,0.77,9.12,0.17,13.69 c0.24-1.77,0.48-3.54,0.71-5.32c-0.38,2.66-1.02,5.25-2.03,7.73c0.67-1.59,1.34-3.19,2.02-4.78c-0.72,1.66-1.59,3.22-2.68,4.67 c1.04-1.35,2.08-2.7,3.13-4.05c-0.93,1.17-1.96,2.21-3.15,3.14c1.35-1.04,2.7-2.08,4.05-3.13c-1.16,0.86-2.4,1.56-3.73,2.12 c1.59-0.67,3.19-1.34,4.78-2.02c-1.24,0.48-2.49,0.82-3.81,1.02c1.77-0.24,3.54-0.48,5.32-0.71c-1.62,0.2-3.21,0.17-4.83-0.04 c1.77,0.24,3.54,0.48,5.32,0.71c-1.82-0.29-3.55-0.81-5.26-1.5c1.59,0.67,3.19,1.34,4.78,2.02c-2.61-1.12-4.99-2.6-7.24-4.33 c1.35,1.04,2.7,2.08,4.05,3.13c-2.88-2.28-5.43-4.89-7.69-7.78c1.04,1.35,2.08,2.7,3.13,4.05c-3.69-4.81-6.55-10.29-8.91-15.86 c0.67,1.59,1.34,3.19,2.02,4.78c-2.96-7.13-4.95-14.6-6-22.25c0.24,1.77,0.48,3.54,0.71,5.32c-1.02-7.83-1.04-15.73-0.02-23.56 c-0.24,1.77-0.48,3.54-0.71,5.32c1.01-7.43,2.95-14.68,5.86-21.59c-0.67,1.59-1.34,3.19-2.02,4.78c2.51-5.85,5.7-11.38,9.56-16.45 c-1.04,1.35-2.08,2.7-3.13,4.05c3.88-5.01,8.37-9.47,13.36-13.37c-1.35,1.04-2.7,2.08-4.05,3.13c5.55-4.28,11.61-7.81,18.06-10.56 c-1.59,0.67-3.19,1.34-4.78,2.02c6.61-2.77,13.52-4.67,20.62-5.65c-1.77,0.24-3.54,0.48-5.32,0.71c6.57-0.86,13.2-0.91,19.77-0.06 c-1.77-0.24-3.54-0.48-5.32-0.71c5.91,0.81,11.68,2.33,17.19,4.62c-1.59-0.67-3.19-1.34-4.78-2.02c5.25,2.23,10.17,5.13,14.7,8.6 c-1.35-1.04-2.7-2.08-4.05-3.13c4.9,3.8,9.27,8.21,13.08,13.11c-1.04-1.35-2.08-2.7-3.13-4.05c3.98,5.18,7.28,10.83,9.83,16.85 c-0.67-1.59-1.34-3.19-2.02-4.78c2.37,5.7,4.03,11.65,4.89,17.76c-0.24-1.77-0.48-3.54-0.71-5.32c0.75,5.61,0.8,11.28,0.09,16.9 c0.24-1.77,0.48-3.54,0.71-5.32c-0.6,4.42-1.6,8.82-3.31,12.95c0.67-1.59,1.34-3.19,2.02-4.78c-0.87,2-1.9,3.88-3.21,5.63 c1.04-1.35,2.08-2.7,3.13-4.05c-1,1.27-2.12,2.4-3.39,3.4c1.35-1.04,2.7-2.08,4.05-3.13c-1.06,0.78-2.17,1.42-3.38,1.96 c1.59-0.67,3.19-1.34,4.78-2.02c-1.32,0.54-2.67,0.9-4.08,1.13c1.77-0.24,3.54-0.48,5.32-0.71c-1.75,0.23-3.48,0.22-5.23,0.02 c1.77,0.24,3.54,0.48,5.32,0.71c-2.12-0.29-4.16-0.86-6.15-1.66c1.59,0.67,3.19,1.34,4.78,2.02c-2.16-0.92-4.17-2.09-6.05-3.5 c1.35,1.04,2.7,2.08,4.05,3.13c-1.75-1.37-3.29-2.92-4.68-4.66c1.04,1.35,2.08,2.7,3.13,4.05c-2.12-2.75-3.8-5.74-5.18-8.92 c0.67,1.59,1.34,3.19,2.02,4.78c-2.82-6.7-4.27-13.85-5.7-20.95c-1.62-8.06-3.15-16.14-4.26-24.29c0.24,1.77,0.48,3.54,0.71,5.32 c-1.53-11.55-2.15-23.25-0.62-34.84c-0.24,1.77-0.48,3.54-0.71,5.32c0.9-6.43,2.4-12.76,4.89-18.78c-0.67,1.59-1.34,3.19-2.02,4.78 c2.21-5.22,5.06-10.13,8.49-14.63c-1.04,1.35-2.08,2.7-3.13,4.05c3.23-4.16,6.91-7.92,11.08-11.14c-1.35,1.04-2.7,2.08-4.05,3.13 c3.3-2.5,6.84-4.62,10.64-6.28c-1.59,0.67-3.19,1.34-4.78,2.02c3.47-1.46,7.06-2.49,10.79-3.03c-1.77,0.24-3.54,0.48-5.32,0.71 c3.52-0.46,7.04-0.46,10.56-0.01c-1.77-0.24-3.54-0.48-5.32-0.71c3.71,0.53,7.28,1.54,10.74,2.98c-1.59-0.67-3.19-1.34-4.78-2.02 c4.12,1.77,7.94,4.08,11.49,6.82c-1.35-1.04-2.7-2.08-4.05-3.13c4.15,3.26,7.83,7.03,11.08,11.18c-1.04-1.35-2.08-2.7-3.13-4.05 c4.48,5.82,7.97,12.3,10.85,19.04c-0.67-1.59-1.34-3.19-2.02-4.78c4.35,10.34,7.24,21.19,10.08,32.01c1.27,4.83,4.9,9.44,9.19,11.95 c4.29,2.51,10.61,3.57,15.41,2.02c4.84-1.57,9.51-4.57,11.95-9.19c2.53-4.79,3.42-10.08,2.02-15.41 c-3.72-14.15-7.79-28.06-14.13-41.3c-3.31-6.91-7.52-13.01-12.28-19c-4.56-5.75-9.98-10.33-15.87-14.69 c-5.72-4.24-12.41-7.37-19.18-9.49c-4.25-1.33-8.72-1.88-13.13-2.36c-2.58-0.28-5.19-0.3-7.78-0.06c-4.1,0.38-8.3,0.89-12.28,2 c-4,1.11-7.9,2.81-11.65,4.56c-6.03,2.81-11.5,6.97-16.45,11.36c-5.14,4.56-9.51,10.09-13.36,15.75c-3.9,5.76-6.77,12.16-9.19,18.66 c-2.76,7.4-3.89,15.21-4.83,23.01c-0.83,6.85-0.9,13.77-0.49,20.66c0.92,15.4,3.81,30.69,6.92,45.78 c1.24,6.01,2.66,11.98,5.03,17.66c3.35,8.02,7.37,16.1,14.22,21.78c3.24,2.68,6.56,5.33,10.42,7.06c2.52,1.12,5.13,2.33,7.81,3.12 c2.05,0.6,4.13,0.83,6.24,1.11c5.05,0.68,9.52,0.53,14.6-0.64c5.75-1.32,10.4-4.34,14.89-7.97c1.05-0.85,2.02-1.74,2.89-2.78 c1.87-2.24,3.79-4.59,5.27-7.13c2.17-3.75,3.83-7.93,5.06-12.08c1.92-6.48,2.83-13.43,3.04-20.17c0.21-6.68-0.65-13.47-1.93-20 c-1.3-6.63-3.72-12.75-6.37-18.94c-2.02-4.72-4.49-9.24-7.42-13.47c-3.74-5.39-7.88-10.65-12.61-15.21 c-9.74-9.37-21.26-16.32-34.07-20.58c-6.42-2.14-13.12-3.13-19.84-3.83c-5.18-0.54-10.41-0.52-15.59,0.03 c-6.82,0.72-13.61,1.74-20.18,3.74c-6.48,1.97-12.85,4.64-18.86,7.78c-6.05,3.16-11.46,7.17-16.79,11.42 c-4.03,3.21-7.74,6.83-11.02,10.8c-4.48,5.43-8.65,11.1-11.87,17.38c-3.25,6.33-6,13.06-7.91,19.92c-1.91,6.86-2.93,14.02-3.53,21.1 c-0.47,5.62-0.4,11.28,0.19,16.89c0.77,7.21,1.85,14.41,3.93,21.37c2.05,6.86,4.85,13.6,8.17,19.93 c7.38,14.07,18.92,25.87,34.13,31.15c1.25,0.43,2.53,0.74,3.84,0.96c2.81,0.46,5.81,1.02,8.7,0.89c6.08-0.28,11.1-1.7,16.52-4.42 c2.42-1.21,4.51-3.05,6.6-4.72c0.93-0.75,1.81-1.54,2.59-2.45c1.77-2.07,3.53-4.24,4.94-6.58c1.43-2.38,2.41-5.06,3.44-7.61 c0.91-2.27,1.55-4.61,1.93-7.02c0.65-4.16,1.26-8.36,1.21-12.58c-0.05-4.18-0.7-8.33-1.28-12.46c-0.41-2.94-0.93-5.86-1.61-8.75 c-1.67-7.15-4.33-13.89-7.26-20.61c-2.33-5.34-5.18-10.46-8.53-15.22c-8.42-11.98-18.82-22.42-31.67-29.65 c-25.75-14.49-57.96-16.21-84.14-1.84c-12.11,6.65-21.92,16.53-29.75,27.78c-4.02,5.77-6.88,12.02-9.56,18.5 c-2.03,4.92-3.59,10.02-4.55,15.26c-2.23,12.23-2.91,24.98-2.28,37.39c0.62,12.35,2.33,25.1,6.69,36.74 c2.33,6.24,5.01,12.5,8.69,18.08c4.32,6.55,9.95,14.03,16.83,18.18c3.67,2.21,7.96,4.08,12.21,4.87c6.24,1.15,10.96,1.18,17.2,0.03 c7.25-1.34,14.78-6.03,19.67-11.47c5.17-5.74,9.37-12.76,11.02-20.38c1.38-6.35,1.67-13.01,1.12-19.48 c-0.56-6.62-1.55-13.32-3.38-19.72c-1.82-6.37-4.4-12.59-7.33-18.52c-2.2-4.45-4.79-8.7-7.77-12.68 c-3.91-5.21-7.92-10.28-12.77-14.64c-9.33-8.39-20.31-15.13-32.55-18.3c-12.36-3.2-25.73-2.89-37.91,0.96 c-12.01,3.8-22.72,10.27-31.97,18.8c-4.56,4.21-8.39,9.06-12.07,14.04c-2.81,3.8-5.25,7.87-7.28,12.13 c-5.51,11.55-8.81,23.29-9.56,36.1c-0.36,6.18,0.37,12.25,1.32,18.36c0.7,4.5,1.95,8.88,3.7,13.08c0.62,2.6,1.81,4.87,3.58,6.8 c1.41,2.18,3.28,3.89,5.61,5.15c4.29,2.51,10.6,3.57,15.41,2.02c4.84-1.57,9.51-4.57,11.95-9.19c0.67-1.59,1.34-3.19,2.02-4.78 C67.88,330.22,67.88,326.68,66.93,323.13L66.93,323.13z"/></g></svg>