<?xml version="1.0" encoding="UTF-8" standalone="no"?><svg xmlns="http://www.w3.org/2000/svg" xmlns:xlink="http://www.w3.org/1999/xlink" contentScriptType="text/ecmascript" fill="#242536" width="415.4" zoomAndPan="magnify" contentStyleType="text/css" viewBox="38.4 109.1 415.4 218.0" height="218" preserveAspectRatio="xMidYMid meet" version="1"><g id="change1_1"><path d="M94.72,285.14c5.73-9.95,12.11-19.49,19.11-28.59c-1.56,2.02-3.13,4.05-4.69,6.07c13.06-16.89,28.19-32.11,45.02-45.25 c-16.71-4.41-33.43-8.83-50.14-13.24c6.46,15.54,12.91,31.07,19.37,46.61c3.21,7.71,6.41,15.43,9.62,23.14 c1.63,3.91,3.24,7.82,4.88,11.73c2.02,4.85,3.91,10.58,7.03,15.02c2.13,3.03,4.34,6.39,7.18,8.9c5.58,4.93,9.5,7.13,16.43,9.76 c7.28,2.76,16.16,2.41,23.58,0.52c0.75-0.19,1.46-0.45,2.18-0.73c2.88-1.13,5.84-2.27,8.6-3.69c2.62-1.35,4.88-3.25,7.19-5.05 c3.67-2.83,7.02-5.66,10-9.22c6.75-8.05,12.92-16.68,19.33-25.01c5.09-6.62,10.17-13.23,15.26-19.85c11.54-15,23.07-30,34.61-45 c-1.56,2.02-3.13,4.05-4.69,6.07c2.11-2.74,4.34-5.39,7.09-7.53c-2.02,1.56-4.05,3.13-6.07,4.69c1.13-0.83,2.3-1.53,3.59-2.08 c-2.39,1.01-4.78,2.02-7.17,3.02c0.97-0.37,1.93-0.62,2.96-0.76c-2.66,0.36-5.32,0.71-7.98,1.07c0.85-0.08,1.66-0.08,2.51,0.01 c-2.66-0.36-5.32-0.71-7.98-1.07c1.07,0.15,2.05,0.43,3.05,0.84c-2.39-1.01-4.78-2.02-7.17-3.02c0.97,0.45,1.84,0.99,2.69,1.64 c-2.02-1.56-4.05-3.13-6.07-4.69c1.23,1,2.3,2.13,3.28,3.38c-1.56-2.02-3.13-4.05-4.69-6.07c4.71,6.23,7.23,14.11,10.27,21.22 c3.66,8.57,7.33,17.14,10.99,25.7c3.66,8.57,7.33,17.14,10.99,25.7c1.85,4.34,3.71,8.68,5.56,13.01c1.62,3.79,3.09,7.71,4.98,11.37 c3.74,7.24,9.31,12.9,15.97,17.46c3.22,2.2,7.03,3.81,10.85,4.57c2.5,0.5,6.71,1.29,9.87,1.09c2.53-0.16,6-0.62,8.47-1.15 c0.49-0.1,0.94-0.25,1.41-0.41c6.8-2.3,11.24-4.99,16.55-9.89c3.01-2.77,5.41-6.38,7.76-9.65c2.6-3.62,4.97-7.43,7.43-11.15 c10.29-15.53,20.58-31.05,30.87-46.58c11.59-17.49,23.18-34.99,34.77-52.48c2.19-3.44,3.38-7.16,3.56-11.15 c0.89-3.99,0.71-7.98-0.54-11.96c-0.93-3.9-2.72-7.3-5.37-10.2c-2.12-3.27-4.92-5.84-8.42-7.73c-6.96-3.68-15.4-5.52-23.12-3.02 c-2.39,1.01-4.78,2.02-7.17,3.02c-4.51,2.67-8.1,6.25-10.76,10.76c-19.28,29.09-38.55,58.18-57.83,87.27 c-2.74,4.13-5.47,8.26-8.21,12.38c-2.52,3.81-4.92,7.75-7.67,11.41c1.56-2.02,3.13-4.05,4.69-6.07c-0.96,1.24-2,2.39-3.21,3.4 c2.02-1.56,4.05-3.13,6.07-4.69c-0.8,0.61-1.62,1.11-2.54,1.51c2.39-1.01,4.78-2.02,7.17-3.02c-0.63,0.23-1.24,0.38-1.91,0.48 c2.66-0.36,5.32-0.71,7.98-1.07c-0.64,0.05-1.26,0.05-1.9-0.02c2.66,0.36,5.32,0.71,7.98,1.07c-0.6-0.1-1.16-0.25-1.73-0.46 c2.39,1.01,4.78,2.02,7.17,3.02c-0.84-0.36-1.59-0.81-2.32-1.37c2.02,1.56,4.05,3.13,6.07,4.69c-0.86-0.72-1.61-1.51-2.32-2.38 c1.56,2.02,3.13,4.05,4.69,6.07c-2.06-2.71-3.4-5.79-4.73-8.9c-1.76-4.12-3.52-8.24-5.29-12.36c-3.43-8.03-6.86-16.05-10.29-24.08 c-3.48-8.13-6.96-16.27-10.43-24.4c-3.36-7.85-6.55-15.81-10.11-23.58c-2.37-5.18-5.57-9.32-9.16-13.81 c-0.9-1.12-1.83-2.15-2.92-3.09c-4.86-4.2-7.3-5.85-12.7-8.13c-1.63-0.69-3.48-1.64-5.28-2.1c-2.98-0.76-6.28-1.07-9.33-1.33 c-0.85-0.07-1.65-0.07-2.51-0.01c-2.68,0.21-5.85,0.66-8.48,1.14c-0.5,0.09-1,0.2-1.49,0.35c-7.89,2.43-14.83,6.77-20.62,12.66 c-4.23,4.3-7.65,9.39-11.31,14.15c-2.65,3.45-5.3,6.89-7.95,10.34c-5.45,7.08-10.89,14.16-16.34,21.24 c-12.04,15.65-24.08,31.31-36.11,46.96c1.56-2.02,3.13-4.05,4.69-6.07c-2.57,3.32-5.41,6.43-8.7,9.04c2.02-1.56,4.05-3.13,6.07-4.69 c-1.74,1.34-3.57,2.49-5.59,3.37c2.39-1.01,4.78-2.02,7.17-3.02c-1.27,0.51-2.54,0.87-3.9,1.06c2.66-0.36,5.32-0.71,7.98-1.07 c-1,0.1-1.96,0.1-2.96-0.01c2.66,0.36,5.32,0.71,7.98,1.07c-1.03-0.16-1.99-0.44-2.96-0.83c2.39,1.01,4.78,2.02,7.17,3.02 c-0.94-0.43-1.79-0.94-2.62-1.56c2.02,1.56,4.05,3.13,6.07,4.69c-0.92-0.75-1.71-1.57-2.46-2.49c1.56,2.02,3.13,4.05,4.69,6.07 c-1.79-2.35-3.06-5.01-4.21-7.72c1.01,2.39,2.02,4.78,3.02,7.17c-11.55-27.42-22.84-54.95-34.25-82.43c-1.43-5.08-4-9.49-7.72-13.24 c-3.74-3.72-8.16-6.29-13.24-7.72c-5.32-1.43-10.63-1.43-15.95,0c-5.08,1.43-9.49,4-13.24,7.72C89.5,192.3,70.6,213.36,54.53,236.5 c-4.14,5.95-8.01,12.08-11.62,18.36c-2.19,3.44-3.38,7.16-3.56,11.15c-0.89,3.99-0.71,7.98,0.54,11.96c0.93,3.9,2.72,7.3,5.37,10.2 c2.12,3.27,4.92,5.84,8.42,7.73c6.96,3.68,15.4,5.52,23.12,3.02C84.2,296.53,90.75,292.03,94.72,285.14L94.72,285.14z"/></g><g id="change2_1"><path fill="#ffcf7e" d="M94.72,245.23c5.73-9.95,12.11-19.49,19.11-28.59c-1.56,2.02-3.13,4.05-4.69,6.07 c13.06-16.89,28.19-32.11,45.02-45.25c-16.71-4.41-33.43-8.83-50.14-13.24c6.46,15.54,12.91,31.07,19.37,46.61 c3.21,7.71,6.41,15.43,9.62,23.14c1.63,3.91,3.24,7.82,4.88,11.73c2.02,4.85,3.91,10.58,7.03,15.02c2.13,3.03,4.34,6.39,7.18,8.9 c5.58,4.93,9.5,7.13,16.43,9.76c7.28,2.76,16.16,2.41,23.58,0.52c0.75-0.19,1.46-0.45,2.18-0.73c2.88-1.13,5.84-2.27,8.6-3.69 c2.62-1.35,4.88-3.25,7.19-5.05c3.67-2.83,7.02-5.66,10-9.22c6.75-8.05,12.92-16.68,19.33-25.01c5.09-6.62,10.17-13.23,15.26-19.85 c11.54-15,23.07-30,34.61-45c-1.56,2.02-3.13,4.05-4.69,6.07c2.11-2.74,4.34-5.39,7.09-7.53c-2.02,1.56-4.05,3.13-6.07,4.69 c1.13-0.83,2.3-1.53,3.59-2.08c-2.39,1.01-4.78,2.02-7.17,3.02c0.97-0.37,1.93-0.62,2.96-0.76c-2.66,0.36-5.32,0.71-7.98,1.07 c0.85-0.08,1.66-0.08,2.51,0.01c-2.66-0.36-5.32-0.71-7.98-1.07c1.07,0.15,2.05,0.43,3.05,0.84c-2.39-1.01-4.78-2.02-7.17-3.02 c0.97,0.45,1.84,0.99,2.69,1.64c-2.02-1.56-4.05-3.13-6.07-4.69c1.23,1,2.3,2.13,3.28,3.38c-1.56-2.02-3.13-4.05-4.69-6.07 c4.71,6.23,7.23,14.11,10.27,21.22c3.66,8.57,7.33,17.14,10.99,25.7c3.66,8.57,7.33,17.14,10.99,25.7 c1.85,4.34,3.71,8.68,5.56,13.01c1.62,3.79,3.09,7.71,4.98,11.37c3.74,7.24,9.31,12.9,15.97,17.46c3.22,2.2,7.03,3.81,10.85,4.57 c2.5,0.5,6.71,1.29,9.87,1.09c2.53-0.16,6-0.62,8.47-1.15c0.49-0.1,0.94-0.25,1.41-0.41c6.8-2.3,11.24-4.99,16.55-9.89 c3.01-2.77,5.41-6.38,7.76-9.65c2.6-3.62,4.97-7.43,7.43-11.15c10.29-15.53,20.58-31.05,30.87-46.58 c11.59-17.49,23.18-34.99,34.77-52.48c2.19-3.44,3.38-7.16,3.56-11.15c0.89-3.99,0.71-7.98-0.54-11.96c-0.93-3.9-2.72-7.3-5.37-10.2 c-2.12-3.27-4.92-5.84-8.42-7.73c-6.96-3.68-15.4-5.52-23.12-3.02c-2.39,1.01-4.78,2.02-7.17,3.02c-4.51,2.67-8.1,6.25-10.76,10.76 c-19.28,29.09-38.55,58.18-57.83,87.27c-2.74,4.13-5.47,8.26-8.21,12.38c-2.52,3.81-4.92,7.75-7.67,11.41 c1.56-2.02,3.13-4.05,4.69-6.07c-0.96,1.24-2,2.39-3.21,3.4c2.02-1.56,4.05-3.13,6.07-4.69c-0.8,0.61-1.62,1.11-2.54,1.51 c2.39-1.01,4.78-2.02,7.17-3.02c-0.63,0.23-1.24,0.38-1.91,0.48c2.66-0.36,5.32-0.71,7.98-1.07c-0.64,0.05-1.26,0.05-1.9-0.02 c2.66,0.36,5.32,0.71,7.98,1.07c-0.6-0.1-1.16-0.25-1.73-0.46c2.39,1.01,4.78,2.02,7.17,3.02c-0.84-0.36-1.59-0.81-2.32-1.37 c2.02,1.56,4.05,3.13,6.07,4.69c-0.86-0.72-1.61-1.51-2.32-2.38c1.56,2.02,3.13,4.05,4.69,6.07c-2.06-2.71-3.4-5.79-4.73-8.9 c-1.76-4.12-3.52-8.24-5.29-12.36c-3.43-8.03-6.86-16.05-10.29-24.08c-3.48-8.13-6.96-16.27-10.43-24.4 c-3.36-7.85-6.55-15.81-10.11-23.58c-2.37-5.18-5.57-9.32-9.16-13.81c-0.9-1.12-1.83-2.15-2.92-3.09c-4.86-4.2-7.3-5.85-12.7-8.13 c-1.63-0.69-3.48-1.64-5.28-2.1c-2.98-0.76-6.28-1.07-9.33-1.33c-0.85-0.07-1.65-0.07-2.51-0.01c-2.68,0.21-5.85,0.66-8.48,1.14 c-0.5,0.09-1,0.2-1.49,0.35c-7.89,2.43-14.83,6.77-20.62,12.66c-4.23,4.3-7.65,9.39-11.31,14.15c-2.65,3.45-5.3,6.89-7.95,10.34 c-5.45,7.08-10.89,14.16-16.34,21.24c-12.04,15.65-24.08,31.31-36.11,46.96c1.56-2.02,3.13-4.05,4.69-6.07 c-2.57,3.32-5.41,6.43-8.7,9.04c2.02-1.56,4.05-3.13,6.07-4.69c-1.74,1.34-3.57,2.49-5.59,3.37c2.39-1.01,4.78-2.02,7.17-3.02 c-1.27,0.51-2.54,0.87-3.9,1.06c2.66-0.36,5.32-0.71,7.98-1.07c-1,0.1-1.96,0.1-2.96-0.01c2.66,0.36,5.32,0.71,7.98,1.07 c-1.03-0.16-1.99-0.44-2.96-0.83c2.39,1.01,4.78,2.02,7.17,3.02c-0.94-0.43-1.79-0.94-2.62-1.56c2.02,1.56,4.05,3.13,6.07,4.69 c-0.92-0.75-1.71-1.57-2.46-2.49c1.56,2.02,3.13,4.05,4.69,6.07c-1.79-2.35-3.06-5.01-4.21-7.72c1.01,2.39,2.02,4.78,3.02,7.17 c-11.55-27.42-22.84-54.95-34.25-82.43c-1.43-5.08-4-9.49-7.72-13.24c-3.74-3.72-8.16-6.29-13.24-7.72 c-5.32-1.43-10.63-1.43-15.95,0c-5.08,1.43-9.49,4-13.24,7.72c-22.23,17.35-41.13,38.42-57.2,61.55 c-4.14,5.95-8.01,12.08-11.62,18.36c-2.19,3.44-3.38,7.16-3.56,11.15c-0.89,3.99-0.71,7.98,0.54,11.96c0.93,3.9,2.72,7.3,5.37,10.2 c2.12,3.27,4.92,5.84,8.42,7.73c6.96,3.68,15.4,5.52,23.12,3.02C84.2,256.61,90.75,252.12,94.72,245.23L94.72,245.23z"/></g></svg>