<?xml version="1.0" encoding="UTF-8" standalone="no"?><svg xmlns="http://www.w3.org/2000/svg" xmlns:xlink="http://www.w3.org/1999/xlink" contentScriptType="text/ecmascript" fill="#000000" width="490.4" zoomAndPan="magnify" contentStyleType="text/css" viewBox="8.6 1.3 490.4 276.3" height="276.3" preserveAspectRatio="xMidYMid meet" version="1"><g id="change1_1"><path fill="#242536" d="M246.59,277.68H13.08c-1.25,0-2.43-.54-3.25-1.48-.82-.94-1.18-2.19-1.01-3.43,7.31-51.07,40.19-92.7,95.09-120.39,45.74-23.07,91.3-29.26,105-29.7,3.39-.11,6.98-.11,10.78-.12,31.35-.03,74.28-.08,118.25-57.54,21.44-28.02,55.5-46.19,98.5-52.54,32.24-4.77,57.81-1.33,58.88-1.18,2.13,.3,3.71,2.11,3.71,4.26V127.97l-.95,66.75c-.02,1.48-.8,2.84-2.06,3.61-1.26,.77-2.83,.83-4.16,.18-.74-.37-74.58-36.59-93.42-1.8-22.16,40.93-36.68,43.61-100.96,39.14-20.16-1.41-34.13,2.34-41.51,11.13-8.79,10.48-5.25,25.2-5.22,25.35,.32,1.29,.03,2.65-.78,3.7s-2.06,1.66-3.39,1.66Zm-228.46-8.6H241.59c-.59-6.61-.15-18.09,7.74-27.55,9.23-11.07,25.65-15.87,48.76-14.25,61.48,4.28,72.8,2.28,92.8-34.65,19.36-35.76,79.17-13.21,98.69-4.64l.85-60.07V19.43c-8.16-.75-28.84-1.99-52.96,1.6-28.33,4.22-67.41,16.19-92.69,49.23-46.55,60.83-93.8,60.88-125.07,60.91-3.73,0-7.26,0-10.52,.11-33.67,1.08-171.59,29.09-191.06,137.8Z"/></g><g id="change2_1"><path fill="#303144" d="M494.72,127.98s-43.94-31.83-85.72,11.94c-41.78,43.77-49.74,69.63-105.45,71.62-55.71,1.99-94.5,7.3-107.44,61.84H82.72s7.96-73.78,103.46-92.68c95.5-18.9,109.24,4.91,151.02-36.87,41.78-41.78,85.07-107.32,157.52-70.52v54.67Z"/></g><g id="change3_1"><path fill="#ffcf7e" d="M494.72,15.57s-102.63-14.22-153.36,52.08c-50.73,66.3-101.47,58.34-132.31,59.34S30,155.17,13.08,273.38H82.72s26.06-81.03,104.57-87.78c78.52-6.75,132.16-.52,166.49-49.96,34.33-49.44,85.4-89.23,140.94-57.4V15.57Z"/></g><g id="change4_1"><path fill="#ffcf7e" d="M246.59,273.38s-11.82-46.22,51.2-41.82,75.82,2,96.88-36.89c21.05-38.89,99.12,0,99.12,0l.98-70.03s-42.83-20.48-75.22-1.81c-32.39,18.67-49.96,84.56-97.18,84.56s-121.8,3.48-126.25,65.99h50.47Z"/></g></svg>