<?xml version="1.0" encoding="UTF-8"?>
<svg id="Layer_2" data-name="Layer 2" xmlns="http://www.w3.org/2000/svg" viewBox="0 0 444.95 445.11">
  <defs>
    <style>
      .cls-1 {
        fill: #ffcf7e;
      }

      .cls-1, .cls-2 {
        stroke-width: 0px;
      }

      .cls-2 {
        fill: #242536;
      }
    </style>
  </defs>
  <g id="Layer_1-2" data-name="Layer 1">
    <path class="cls-2" d="M82.08,175.44h-2.03c-16.66-2.16-25.21-1.4-41.54-6.21C2.61,158.72-11.07,117.36,9.89,86.21c16.21-24.06,40.15-38.44,65.73-50.28,24.69-11.33,50.53-20.07,77.7-20.33,34.52-.38,73.27,20.39,85.36,63.52,6.33,22.48,6.02,45.28,3.93,68.4-1.08,11.78.06,24.25,2.79,35.84,3.04,12.98,13.23,20.07,26.79,20.83,17.73.95,35.53.76,53.19,2.21,28.05,2.28,54.27,10.14,75.99,29.13,19.76,17.29,30.53,39.14,31.6,65.54,2.66,62.19-31.09,101.96-81.5,131.09-17.16,9.94-35.91,15.2-55.79,12.03-32.43-5.19-54.59-31.67-55.03-65.98-.26-16.41,1.77-32.81,2.21-49.21.38-12.79-2.53-15.9-15.07-13.74-14.19,2.41-27.99,7.54-42.18,9.81-14.76,2.41-30.02,5.19-44.65,3.8-30.2-2.91-49.02-29.26-45.47-59.59,2.41-20.46,10.96-38.31,21.53-55.54,4.63-7.54,9.5-15.01,13.36-22.99,4.56-9.44,1.71-14.56-8.87-15.39-10.13-.76-20.32-.19-30.52-.19-.06.44-6.78.13-9.12.32l.19-.06ZM218.48,152.51c-.82-10.51-.95-16.08-.57-11.65-1.2-14.38-2.09-28.75-3.8-43.06-.82-7.09-2.85-14.18-5-21.09-7.6-24.25-31.22-40.72-55.98-37.3-24,3.29-47.88,7.72-70.17,18.11-18.05,8.42-34.89,18.56-48.13,33.63-8.93,10.13-15.58,21.59-10.32,35.91,5.13,14.06,15.77,21.66,30.33,23.24,11.4,1.27,22.93,1.39,34.39,1.96,7.47.38,14.94.44,22.42.69,36.16,1.33,50.97,27.8,33.06,59.21-.07.13-.19.31-.26.44-5.95,10.45-12.54,20.58-17.73,31.34-15.77,32.8,14.44,69.15,49.71,60.29,2.47-.63,4.88-1.2,7.34-1.77,10.7-2.34,21.34-5.32,32.11-7.47,28.75-5.7,50.97,14.63,49.46,43.89-.7,13.05-1.84,26.16-1.9,39.2-.06,21.15,14.56,41.04,32.48,42.36,11.72.89,24.51-.25,35.46-4.24,29.45-10.83,50.98-31.92,66.68-58.77,19.38-33.24,17.73-71.18-4.56-97.84-14.89-17.79-35.66-26.03-57.82-28.88-19.31-2.47-38.88-2.97-58.39-3.67-28.06-1.02-54.91-20.58-57.44-48.51-1.27-14.06-1.08-13.1-1.46-25.96l.06-.06Z"/>
    <path class="cls-1" d="M93.91,159.84h-2.03c-16.66-2.15-25.2-1.39-41.54-6.21C14.44,143.12.76,101.77,21.72,70.61c16.21-24.07,40.15-38.44,65.73-50.28C112.15,8.99,137.99.26,165.15,0c34.51-.38,73.27,20.39,85.36,63.52,6.33,22.48,6.02,45.28,3.93,68.39-1.07,11.78.06,24.26,2.79,35.84,3.04,12.98,13.23,20.07,26.79,20.83,17.73.95,35.53.76,53.2,2.22,28.05,2.28,54.27,10.13,75.99,29.13,19.76,17.29,30.52,39.14,31.6,65.54,2.66,62.18-31.09,101.95-81.5,131.08-17.16,9.94-35.91,15.2-55.79,12.03-32.42-5.19-54.59-31.66-55.03-65.98-.25-16.4,1.78-32.8,2.22-49.2.38-12.79-2.53-15.9-15.07-13.74-14.18,2.41-27.99,7.54-42.18,9.82-14.75,2.41-30.02,5.19-44.64,3.8-30.21-2.91-49.02-29.26-45.47-59.59,2.41-20.45,10.95-38.31,21.53-55.54,4.62-7.54,9.5-15.01,13.36-22.99,4.56-9.43,1.71-14.56-8.86-15.39-10.13-.76-20.33-.19-30.52-.19-.07.44-6.78.13-9.12.32l.19-.06ZM230.32,136.92c-.82-10.52-.95-16.09-.57-11.66-1.2-14.38-2.09-28.75-3.8-43.06-.82-7.09-2.85-14.19-5.01-21.09-7.6-24.26-31.22-40.72-55.98-37.3-24,3.3-47.88,7.73-70.17,18.11-18.05,8.42-34.89,18.55-48.13,33.63-8.93,10.13-15.58,21.59-10.32,35.91,5.13,14.06,15.77,21.66,30.33,23.24,11.4,1.27,22.92,1.4,34.39,1.96,7.47.38,14.95.44,22.42.7,36.16,1.33,50.98,27.8,33.06,59.21-.06.13-.19.32-.26.44-5.95,10.45-12.54,20.58-17.73,31.35-15.77,32.8,14.44,69.15,49.71,60.29,2.47-.64,4.88-1.2,7.34-1.78,10.7-2.34,21.34-5.32,32.1-7.47,28.75-5.7,50.98,14.63,49.46,43.89-.7,13.05-1.83,26.16-1.9,39.2-.06,21.15,14.57,41.03,32.49,42.36,11.71.89,24.51-.26,35.46-4.24,29.44-10.83,50.97-31.92,66.68-58.77,19.38-33.24,17.73-71.18-4.56-97.84-14.88-17.8-35.65-26.03-57.82-28.88-19.31-2.47-38.88-2.97-58.39-3.67-28.05-1.01-54.9-20.58-57.44-48.51-1.27-14.06-1.07-13.11-1.45-25.96l.06-.06Z"/>
  </g>
</svg>