<svg xmlns="http://www.w3.org/2000/svg" xmlns:xlink="http://www.w3.org/1999/xlink" width="1366" zoomAndPan="magnify" viewBox="0 0 1024.5 298.499991" height="398" preserveAspectRatio="xMidYMid meet" version="1.0"><defs><clipPath id="79576fe4f7"><path d="M 0.605469 14.074219 L 1023 14.074219 L 1023 297.917969 L 0.605469 297.917969 Z M 0.605469 14.074219 " clip-rule="nonzero"/></clipPath><clipPath id="b39cc56832"><path d="M 1022.945312 14.074219 L 0.605469 14.074219 L 40.289062 155.996094 L 0.605469 297.917969 L 1022.945312 297.917969 L 983.265625 155.996094 Z M 1022.945312 14.074219 " clip-rule="nonzero"/></clipPath><clipPath id="012cfb1fdb"><path d="M 15.140625 0 L 1008.601562 0 L 1008.601562 283.847656 L 15.140625 283.847656 Z M 15.140625 0 " clip-rule="nonzero"/></clipPath><clipPath id="d1cd93fe5e"><path d="M 1008.410156 0 L 15.140625 0 L 54.824219 141.921875 L 15.140625 283.847656 L 1008.410156 283.847656 L 968.730469 141.921875 Z M 1008.410156 0 " clip-rule="nonzero"/></clipPath></defs><g clip-path="url(#79576fe4f7)"><g clip-path="url(#b39cc56832)"><path fill="#cf4545" d="M 0.605469 14.074219 L 1022.894531 14.074219 L 1022.894531 297.917969 L 0.605469 297.917969 Z M 0.605469 14.074219 " fill-opacity="1" fill-rule="nonzero"/></g></g><g clip-path="url(#012cfb1fdb)"><g clip-path="url(#d1cd93fe5e)"><path fill="#ffcf7e" d="M 15.140625 0 L 1008.601562 0 L 1008.601562 283.847656 L 15.140625 283.847656 Z M 15.140625 0 " fill-opacity="1" fill-rule="nonzero"/></g></g></svg>