<svg xmlns="http://www.w3.org/2000/svg" xmlns:xlink="http://www.w3.org/1999/xlink" width="429" zoomAndPan="magnify" viewBox="0 0 321.75 336.749994" height="449" preserveAspectRatio="xMidYMid meet" version="1.0"><defs><clipPath id="c0d596cb87"><path d="M 30 12.105469 L 291 12.105469 L 291 133 L 30 133 Z M 30 12.105469 " clip-rule="nonzero"/></clipPath><clipPath id="d1889333e2"><path d="M 0 302 L 321.5 302 L 321.5 335.855469 L 0 335.855469 Z M 0 302 " clip-rule="nonzero"/></clipPath><clipPath id="de4a407176"><path d="M 30 0.00390625 L 291 0.00390625 L 291 121 L 30 121 Z M 30 0.00390625 " clip-rule="nonzero"/></clipPath><clipPath id="d26e62632d"><path d="M 0 290 L 321.5 290 L 321.5 323.753906 L 0 323.753906 Z M 0 290 " clip-rule="nonzero"/></clipPath></defs><path fill="#cf4545" d="M 191.265625 268.546875 C 191.261719 268.546875 191.253906 268.546875 191.253906 268.546875 L 129.996094 268.546875 C 128.855469 268.546875 127.777344 268.035156 127.0625 267.140625 C 126.339844 266.257812 126.0625 265.09375 126.304688 263.980469 L 129.867188 247.277344 C 130.234375 245.539062 131.777344 244.292969 133.558594 244.292969 L 187.6875 244.292969 C 189.472656 244.292969 191.007812 245.539062 191.382812 247.277344 L 194.882812 263.671875 C 194.984375 264.019531 195.042969 264.386719 195.042969 264.765625 C 195.042969 266.851562 193.355469 268.546875 191.265625 268.546875 Z M 191.265625 268.546875 " fill-opacity="1" fill-rule="evenodd"/><path fill="#cf4545" d="M 149.003906 236.707031 L 149.003906 181.125 C 152.480469 182.941406 156.433594 183.96875 160.625 183.96875 C 164.816406 183.96875 168.765625 182.945312 172.246094 181.125 L 172.246094 236.707031 Z M 149.003906 236.707031 " fill-opacity="1" fill-rule="evenodd"/><path fill="#cf4545" d="M 160.625 176.390625 C 150.933594 176.390625 143.054688 168.507812 143.054688 158.816406 C 143.054688 149.128906 150.933594 141.246094 160.625 141.246094 C 170.308594 141.246094 178.195312 149.128906 178.195312 158.816406 C 178.195312 168.507812 170.308594 176.390625 160.625 176.390625 Z M 160.625 176.390625 " fill-opacity="1" fill-rule="evenodd"/><path fill="#cf4545" d="M 207.558594 162.59375 L 185.496094 162.59375 C 185.683594 161.363281 185.78125 160.097656 185.78125 158.816406 C 185.78125 157.53125 185.683594 156.273438 185.496094 155.039062 L 207.558594 155.039062 C 209.644531 155.039062 211.332031 156.730469 211.332031 158.816406 C 211.332031 160.902344 209.644531 162.59375 207.558594 162.59375 Z M 135.746094 162.59375 L 113.691406 162.59375 C 111.605469 162.59375 109.917969 160.902344 109.917969 158.816406 C 109.917969 156.730469 111.605469 155.039062 113.691406 155.039062 L 135.746094 155.039062 C 135.566406 156.273438 135.46875 157.53125 135.46875 158.816406 C 135.46875 160.097656 135.566406 161.363281 135.746094 162.59375 Z M 135.746094 162.59375 " fill-opacity="1" fill-rule="evenodd"/><path fill="#cf4545" d="M 116.261719 232.085938 L 111.117188 232.085938 C 98.878906 232.085938 88.921875 222.128906 88.921875 209.882812 C 88.921875 207.796875 90.609375 206.109375 92.695312 206.109375 L 134.6875 206.109375 C 135.683594 206.109375 136.644531 206.507812 137.355469 207.214844 C 138.066406 207.925781 138.460938 208.886719 138.460938 209.882812 C 138.460938 222.128906 128.503906 232.085938 116.261719 232.085938 Z M 116.261719 232.085938 " fill-opacity="1" fill-rule="evenodd"/><path fill="#cf4545" d="M 94.761719 198.523438 L 110.378906 170.789062 C 110.414062 170.71875 110.460938 170.65625 110.496094 170.585938 L 110.542969 170.523438 L 110.554688 170.511719 L 110.664062 170.351562 L 110.699219 170.296875 L 110.71875 170.277344 L 110.757812 170.226562 L 110.78125 170.199219 L 110.820312 170.15625 L 110.839844 170.132812 L 110.964844 169.992188 L 111.003906 169.949219 L 111.027344 169.921875 L 111.042969 169.917969 L 111.097656 169.859375 L 111.144531 169.820312 L 111.167969 169.796875 L 111.210938 169.757812 L 111.238281 169.738281 L 111.308594 169.675781 L 111.359375 169.636719 L 111.375 169.617188 L 111.433594 169.582031 L 111.453125 169.5625 L 111.507812 169.523438 L 111.527344 169.511719 L 111.589844 169.46875 L 111.605469 169.460938 L 111.667969 169.417969 L 111.679688 169.410156 L 111.757812 169.367188 L 111.757812 169.359375 L 111.839844 169.316406 L 111.921875 169.269531 L 111.996094 169.234375 L 112.078125 169.195312 L 112.097656 169.183594 L 112.160156 169.15625 C 112.679688 168.929688 113.214844 168.824219 113.753906 168.835938 L 113.90625 168.835938 L 113.9375 168.839844 L 113.992188 168.839844 L 114.027344 168.847656 L 114.089844 168.855469 L 114.121094 168.855469 L 114.175781 168.859375 L 114.207031 168.867188 L 114.265625 168.875 L 114.304688 168.878906 L 114.355469 168.890625 L 114.390625 168.898438 L 114.441406 168.90625 L 114.53125 168.929688 L 114.574219 168.9375 L 114.621094 168.949219 L 114.796875 169 L 114.839844 169.011719 L 114.886719 169.023438 L 114.9375 169.042969 L 114.96875 169.054688 L 115.023438 169.074219 L 115.050781 169.089844 L 115.113281 169.105469 L 115.136719 169.121094 L 115.203125 169.144531 L 115.21875 169.15625 L 115.285156 169.183594 L 115.300781 169.195312 L 115.371094 169.226562 L 115.386719 169.234375 L 115.460938 169.269531 L 115.46875 169.269531 L 115.542969 169.316406 L 115.699219 169.410156 L 115.714844 169.417969 C 115.796875 169.46875 115.871094 169.523438 115.949219 169.582031 L 116.003906 169.617188 L 116.023438 169.636719 L 116.074219 169.675781 L 116.097656 169.695312 C 116.167969 169.75 116.238281 169.816406 116.308594 169.878906 L 116.308594 169.882812 L 116.351562 169.921875 L 116.378906 169.949219 L 116.414062 169.992188 L 116.441406 170.015625 L 116.476562 170.0625 L 116.503906 170.085938 L 116.542969 170.132812 L 116.566406 170.15625 L 116.605469 170.199219 L 116.625 170.226562 L 116.660156 170.277344 L 116.679688 170.296875 L 116.71875 170.351562 L 116.738281 170.371094 L 116.777344 170.429688 L 116.789062 170.445312 L 116.832031 170.511719 L 116.839844 170.523438 L 116.882812 170.585938 L 116.890625 170.597656 L 116.933594 170.667969 L 116.941406 170.675781 L 116.984375 170.757812 L 132.617188 198.523438 Z M 94.761719 198.523438 " fill-opacity="1" fill-rule="evenodd"/><path fill="#cf4545" d="M 113.691406 176.390625 C 111.605469 176.390625 109.917969 174.695312 109.917969 172.609375 L 109.917969 158.816406 C 109.917969 156.730469 111.605469 155.039062 113.691406 155.039062 C 115.777344 155.039062 117.472656 156.730469 117.472656 158.816406 L 117.472656 172.609375 C 117.472656 174.695312 115.777344 176.390625 113.691406 176.390625 Z M 113.691406 176.390625 " fill-opacity="1" fill-rule="evenodd"/><path fill="#cf4545" d="M 210.132812 232.085938 L 204.984375 232.085938 C 192.746094 232.085938 182.785156 222.128906 182.785156 209.882812 C 182.785156 207.796875 184.476562 206.109375 186.5625 206.109375 L 228.546875 206.109375 C 229.554688 206.109375 230.515625 206.507812 231.222656 207.214844 C 231.929688 207.925781 232.328125 208.886719 232.328125 209.882812 C 232.328125 222.128906 222.371094 232.085938 210.132812 232.085938 Z M 210.132812 232.085938 " fill-opacity="1" fill-rule="evenodd"/><path fill="#cf4545" d="M 188.632812 198.523438 L 204.226562 170.820312 C 204.273438 170.746094 204.316406 170.667969 204.359375 170.597656 L 204.367188 170.585938 C 204.5 170.378906 204.652344 170.175781 204.828125 169.992188 L 204.835938 169.992188 L 204.871094 169.949219 L 204.898438 169.921875 L 204.941406 169.882812 L 204.96875 169.859375 L 205.003906 169.820312 L 205.03125 169.796875 L 205.074219 169.757812 L 205.101562 169.738281 L 205.152344 169.695312 L 205.175781 169.675781 L 205.21875 169.636719 L 205.246094 169.617188 L 205.296875 169.582031 L 205.371094 169.523438 L 205.378906 169.523438 L 205.390625 169.511719 L 205.453125 169.46875 L 205.464844 169.460938 L 205.535156 169.417969 L 205.546875 169.410156 L 205.617188 169.367188 L 205.625 169.359375 L 205.699219 169.316406 L 205.78125 169.269531 L 205.789062 169.269531 L 205.863281 169.234375 L 205.878906 169.226562 L 205.945312 169.1875 L 205.960938 169.183594 L 206.027344 169.15625 L 206.046875 169.144531 L 206.113281 169.121094 C 206.226562 169.070312 206.339844 169.03125 206.453125 168.992188 L 206.496094 168.980469 L 206.542969 168.96875 C 206.773438 168.90625 207.015625 168.859375 207.253906 168.839844 L 207.3125 168.839844 L 207.34375 168.835938 L 207.433594 168.835938 L 207.496094 168.828125 L 207.617188 168.828125 L 207.679688 168.835938 L 207.769531 168.835938 L 207.800781 168.839844 L 207.863281 168.839844 C 208.273438 168.875 208.691406 168.980469 209.082031 169.15625 L 209.152344 169.183594 L 209.164062 169.1875 L 209.242188 169.226562 L 209.246094 169.234375 L 209.324219 169.269531 L 209.328125 169.269531 L 209.410156 169.316406 L 209.488281 169.359375 L 209.492188 169.367188 L 209.570312 169.410156 L 209.574219 169.417969 L 209.644531 169.460938 L 209.65625 169.46875 L 209.722656 169.511719 L 209.738281 169.523438 L 209.796875 169.5625 L 209.816406 169.582031 L 209.867188 169.617188 L 209.890625 169.636719 L 209.941406 169.675781 L 210.011719 169.738281 L 210.039062 169.757812 L 210.082031 169.796875 L 210.105469 169.820312 L 210.152344 169.859375 C 210.449219 170.144531 210.699219 170.472656 210.890625 170.828125 L 226.488281 198.523438 Z M 188.632812 198.523438 " fill-opacity="1" fill-rule="evenodd"/><path fill="#cf4545" d="M 207.558594 176.390625 C 205.472656 176.390625 203.777344 174.695312 203.777344 172.609375 L 203.777344 158.816406 C 203.777344 156.730469 205.472656 155.039062 207.558594 155.039062 C 209.644531 155.039062 211.332031 156.730469 211.332031 158.816406 L 211.332031 172.609375 C 211.332031 174.695312 209.644531 176.390625 207.558594 176.390625 Z M 207.558594 176.390625 " fill-opacity="1" fill-rule="evenodd"/><g clip-path="url(#c0d596cb87)"><path fill="#cf4545" d="M 287 132.566406 L 34.25 132.566406 C 32.164062 132.566406 30.46875 130.871094 30.46875 128.785156 L 30.46875 103.875 L 102.121094 103.875 C 104.207031 103.875 105.902344 102.1875 105.902344 100.101562 C 105.902344 98.015625 104.207031 96.320312 102.121094 96.320312 L 30.46875 96.320312 L 30.46875 77.097656 C 30.46875 75.648438 31.296875 74.328125 32.597656 73.695312 L 158.695312 12.632812 C 159.734375 12.125 160.941406 12.125 161.984375 12.625 L 288.636719 73.695312 C 289.945312 74.328125 290.78125 75.648438 290.78125 77.097656 L 290.78125 96.320312 L 219.121094 96.320312 C 217.035156 96.320312 215.347656 98.015625 215.347656 100.101562 C 215.347656 102.1875 217.035156 103.875 219.121094 103.875 L 290.78125 103.875 L 290.78125 128.785156 C 290.78125 130.871094 289.085938 132.566406 287 132.566406 Z M 160.625 114.105469 C 141.945312 114.105469 126.746094 98.90625 126.746094 80.226562 C 126.746094 61.539062 141.945312 46.339844 160.625 46.339844 C 179.304688 46.339844 194.503906 61.539062 194.503906 80.226562 C 194.503906 98.90625 179.304688 114.105469 160.625 114.105469 Z M 160.625 53.902344 C 146.109375 53.902344 134.300781 65.710938 134.300781 80.226562 C 134.300781 94.742188 146.109375 106.550781 160.625 106.550781 C 175.140625 106.550781 186.949219 94.742188 186.949219 80.226562 C 186.949219 65.710938 175.140625 53.902344 160.625 53.902344 Z M 160.625 53.902344 " fill-opacity="1" fill-rule="evenodd"/></g><path fill="#cf4545" d="M 15.421875 295.230469 L 15.421875 293.78125 C 15.421875 284.652344 22.84375 277.226562 31.980469 277.226562 L 289.269531 277.226562 C 298.40625 277.226562 305.828125 284.652344 305.828125 293.78125 L 305.828125 295.230469 C 305.421875 295.210938 305.019531 295.199219 304.609375 295.199219 L 16.640625 295.199219 C 16.230469 295.199219 15.828125 295.210938 15.421875 295.230469 Z M 15.421875 295.230469 " fill-opacity="1" fill-rule="evenodd"/><g clip-path="url(#d1889333e2)"><path fill="#cf4545" d="M 317.382812 335.898438 L 3.859375 335.898438 C 1.773438 335.898438 0.0859375 334.207031 0.0859375 332.125 L 0.0859375 319.34375 C 0.0859375 310.214844 7.511719 302.785156 16.640625 302.785156 L 304.609375 302.785156 C 313.738281 302.785156 321.164062 310.214844 321.164062 319.34375 L 321.164062 332.125 C 321.164062 334.207031 319.472656 335.898438 317.382812 335.898438 Z M 317.382812 335.898438 " fill-opacity="1" fill-rule="evenodd"/></g><path fill="#cf4545" d="M 85.9375 150.171875 L 38.226562 150.171875 C 36.140625 150.171875 34.445312 148.476562 34.445312 146.390625 L 34.445312 140.152344 L 89.710938 140.152344 L 89.710938 146.390625 C 89.710938 148.476562 88.023438 150.171875 85.9375 150.171875 Z M 283.023438 150.171875 L 235.3125 150.171875 C 233.226562 150.171875 231.539062 148.476562 231.539062 146.390625 L 231.539062 140.152344 L 286.804688 140.152344 L 286.804688 146.390625 C 286.804688 148.476562 285.109375 150.171875 283.023438 150.171875 Z M 283.023438 150.171875 " fill-opacity="1" fill-rule="evenodd"/><path fill="#cf4545" d="M 45.234375 269.640625 L 45.234375 157.753906 L 78.917969 157.753906 L 78.917969 269.640625 Z M 242.328125 269.640625 L 242.328125 157.753906 L 276.011719 157.753906 L 276.011719 269.640625 Z M 242.328125 269.640625 " fill-opacity="1" fill-rule="evenodd"/><path fill="#ffd37b" d="M 191.265625 256.445312 C 191.261719 256.445312 191.253906 256.445312 191.253906 256.445312 L 129.996094 256.445312 C 128.855469 256.445312 127.777344 255.933594 127.0625 255.039062 C 126.339844 254.15625 126.0625 252.992188 126.304688 251.878906 L 129.867188 235.175781 C 130.234375 233.4375 131.777344 232.191406 133.558594 232.191406 L 187.6875 232.191406 C 189.472656 232.191406 191.007812 233.4375 191.382812 235.175781 L 194.882812 251.570312 C 194.984375 251.917969 195.042969 252.285156 195.042969 252.664062 C 195.042969 254.75 193.355469 256.445312 191.265625 256.445312 Z M 191.265625 256.445312 " fill-opacity="1" fill-rule="evenodd"/><path fill="#ffd37b" d="M 149.003906 224.605469 L 149.003906 169.023438 C 152.480469 170.839844 156.433594 171.867188 160.625 171.867188 C 164.816406 171.867188 168.765625 170.84375 172.246094 169.023438 L 172.246094 224.605469 Z M 149.003906 224.605469 " fill-opacity="1" fill-rule="evenodd"/><path fill="#ffd37b" d="M 160.625 164.289062 C 150.933594 164.289062 143.054688 156.40625 143.054688 146.714844 C 143.054688 137.027344 150.933594 129.144531 160.625 129.144531 C 170.308594 129.144531 178.195312 137.027344 178.195312 146.714844 C 178.195312 156.40625 170.308594 164.289062 160.625 164.289062 Z M 160.625 164.289062 " fill-opacity="1" fill-rule="evenodd"/><path fill="#ffd37b" d="M 207.558594 150.496094 L 185.496094 150.496094 C 185.683594 149.261719 185.78125 147.996094 185.78125 146.714844 C 185.78125 145.429688 185.683594 144.171875 185.496094 142.9375 L 207.558594 142.9375 C 209.644531 142.9375 211.332031 144.628906 211.332031 146.714844 C 211.332031 148.800781 209.644531 150.496094 207.558594 150.496094 Z M 135.746094 150.496094 L 113.691406 150.496094 C 111.605469 150.496094 109.917969 148.800781 109.917969 146.714844 C 109.917969 144.628906 111.605469 142.9375 113.691406 142.9375 L 135.746094 142.9375 C 135.566406 144.171875 135.46875 145.429688 135.46875 146.714844 C 135.46875 147.996094 135.566406 149.261719 135.746094 150.496094 Z M 135.746094 150.496094 " fill-opacity="1" fill-rule="evenodd"/><path fill="#ffd37b" d="M 116.261719 219.984375 L 111.117188 219.984375 C 98.878906 219.984375 88.921875 210.027344 88.921875 197.78125 C 88.921875 195.695312 90.609375 194.007812 92.695312 194.007812 L 134.6875 194.007812 C 135.683594 194.007812 136.644531 194.40625 137.355469 195.113281 C 138.066406 195.824219 138.460938 196.785156 138.460938 197.78125 C 138.460938 210.027344 128.503906 219.984375 116.261719 219.984375 Z M 116.261719 219.984375 " fill-opacity="1" fill-rule="evenodd"/><path fill="#ffd37b" d="M 94.761719 186.421875 L 110.378906 158.6875 C 110.414062 158.617188 110.460938 158.554688 110.496094 158.484375 L 110.542969 158.421875 L 110.554688 158.410156 L 110.664062 158.25 L 110.699219 158.195312 L 110.71875 158.175781 L 110.757812 158.125 L 110.78125 158.097656 L 110.820312 158.054688 L 110.839844 158.03125 L 110.964844 157.890625 L 111.003906 157.847656 L 111.027344 157.820312 L 111.042969 157.816406 L 111.097656 157.757812 L 111.144531 157.71875 L 111.167969 157.695312 L 111.210938 157.65625 L 111.238281 157.636719 L 111.308594 157.574219 L 111.359375 157.535156 L 111.375 157.519531 L 111.433594 157.480469 L 111.453125 157.460938 L 111.507812 157.421875 L 111.527344 157.410156 L 111.589844 157.367188 L 111.605469 157.359375 L 111.667969 157.316406 L 111.679688 157.308594 L 111.757812 157.265625 L 111.757812 157.257812 L 111.921875 157.171875 L 111.996094 157.132812 L 112.078125 157.09375 L 112.097656 157.082031 L 112.160156 157.054688 C 112.679688 156.828125 113.214844 156.722656 113.753906 156.734375 L 113.90625 156.734375 L 113.9375 156.742188 L 113.992188 156.742188 L 114.027344 156.746094 L 114.089844 156.753906 L 114.121094 156.753906 L 114.175781 156.757812 L 114.207031 156.765625 L 114.265625 156.773438 L 114.304688 156.777344 L 114.355469 156.789062 L 114.390625 156.796875 L 114.441406 156.804688 L 114.53125 156.828125 L 114.574219 156.835938 L 114.621094 156.847656 L 114.796875 156.898438 L 114.839844 156.910156 L 114.886719 156.921875 L 114.9375 156.941406 L 114.96875 156.957031 L 115.023438 156.972656 L 115.050781 156.988281 L 115.113281 157.003906 L 115.136719 157.019531 L 115.203125 157.042969 L 115.21875 157.054688 L 115.285156 157.082031 L 115.300781 157.09375 L 115.371094 157.125 L 115.386719 157.132812 L 115.460938 157.171875 L 115.46875 157.171875 L 115.542969 157.214844 L 115.699219 157.308594 L 115.714844 157.316406 C 115.796875 157.367188 115.871094 157.421875 115.949219 157.480469 L 116.003906 157.519531 L 116.023438 157.535156 L 116.074219 157.574219 L 116.097656 157.59375 C 116.167969 157.652344 116.238281 157.714844 116.308594 157.777344 L 116.308594 157.785156 L 116.351562 157.820312 L 116.378906 157.847656 L 116.414062 157.890625 L 116.441406 157.917969 L 116.476562 157.960938 L 116.503906 157.984375 L 116.542969 158.03125 L 116.566406 158.054688 L 116.605469 158.097656 L 116.625 158.125 L 116.660156 158.175781 L 116.679688 158.195312 L 116.71875 158.25 L 116.738281 158.269531 L 116.777344 158.328125 L 116.789062 158.347656 L 116.832031 158.410156 L 116.839844 158.421875 L 116.882812 158.484375 L 116.890625 158.496094 L 116.933594 158.566406 L 116.941406 158.574219 L 116.984375 158.65625 L 132.617188 186.421875 Z M 94.761719 186.421875 " fill-opacity="1" fill-rule="evenodd"/><path fill="#ffd37b" d="M 113.691406 164.289062 C 111.605469 164.289062 109.917969 162.59375 109.917969 160.507812 L 109.917969 146.714844 C 109.917969 144.628906 111.605469 142.9375 113.691406 142.9375 C 115.777344 142.9375 117.472656 144.628906 117.472656 146.714844 L 117.472656 160.507812 C 117.472656 162.59375 115.777344 164.289062 113.691406 164.289062 Z M 113.691406 164.289062 " fill-opacity="1" fill-rule="evenodd"/><path fill="#ffd37b" d="M 210.132812 219.984375 L 204.984375 219.984375 C 192.746094 219.984375 182.785156 210.027344 182.785156 197.78125 C 182.785156 195.695312 184.476562 194.007812 186.5625 194.007812 L 228.546875 194.007812 C 229.554688 194.007812 230.515625 194.40625 231.222656 195.113281 C 231.929688 195.824219 232.328125 196.785156 232.328125 197.78125 C 232.328125 210.027344 222.371094 219.984375 210.132812 219.984375 Z M 210.132812 219.984375 " fill-opacity="1" fill-rule="evenodd"/><path fill="#ffd37b" d="M 188.632812 186.421875 L 204.226562 158.71875 C 204.273438 158.644531 204.316406 158.566406 204.359375 158.496094 L 204.367188 158.484375 C 204.5 158.277344 204.652344 158.074219 204.828125 157.890625 L 204.835938 157.890625 L 204.871094 157.847656 L 204.898438 157.820312 L 204.941406 157.785156 L 204.96875 157.757812 L 205.003906 157.71875 L 205.03125 157.695312 L 205.074219 157.65625 L 205.101562 157.636719 L 205.152344 157.59375 L 205.175781 157.574219 L 205.21875 157.535156 L 205.246094 157.519531 L 205.296875 157.480469 L 205.371094 157.421875 L 205.378906 157.421875 L 205.390625 157.410156 L 205.453125 157.367188 L 205.464844 157.359375 L 205.535156 157.316406 L 205.546875 157.308594 L 205.617188 157.265625 L 205.625 157.257812 L 205.699219 157.214844 L 205.78125 157.171875 L 205.789062 157.171875 L 205.863281 157.132812 L 205.878906 157.125 L 205.945312 157.089844 L 205.960938 157.082031 L 206.027344 157.054688 L 206.046875 157.042969 L 206.113281 157.019531 C 206.226562 156.96875 206.339844 156.929688 206.453125 156.890625 L 206.496094 156.878906 L 206.542969 156.867188 C 206.773438 156.804688 207.015625 156.757812 207.253906 156.742188 L 207.3125 156.742188 L 207.34375 156.734375 L 207.433594 156.734375 L 207.496094 156.726562 L 207.617188 156.726562 L 207.679688 156.734375 L 207.769531 156.734375 L 207.800781 156.742188 L 207.863281 156.742188 C 208.273438 156.773438 208.691406 156.878906 209.082031 157.054688 L 209.152344 157.082031 L 209.164062 157.089844 L 209.242188 157.125 L 209.246094 157.132812 L 209.324219 157.171875 L 209.328125 157.171875 L 209.410156 157.214844 L 209.488281 157.257812 L 209.492188 157.265625 L 209.570312 157.308594 L 209.574219 157.316406 L 209.644531 157.359375 L 209.65625 157.367188 L 209.722656 157.410156 L 209.738281 157.421875 L 209.796875 157.460938 L 209.816406 157.480469 L 209.867188 157.519531 L 209.890625 157.535156 L 209.941406 157.574219 L 210.011719 157.636719 L 210.039062 157.65625 L 210.082031 157.695312 L 210.105469 157.71875 L 210.152344 157.757812 C 210.449219 158.042969 210.699219 158.371094 210.890625 158.726562 L 226.488281 186.421875 Z M 188.632812 186.421875 " fill-opacity="1" fill-rule="evenodd"/><path fill="#ffd37b" d="M 207.558594 164.289062 C 205.472656 164.289062 203.777344 162.59375 203.777344 160.507812 L 203.777344 146.714844 C 203.777344 144.628906 205.472656 142.9375 207.558594 142.9375 C 209.644531 142.9375 211.332031 144.628906 211.332031 146.714844 L 211.332031 160.507812 C 211.332031 162.59375 209.644531 164.289062 207.558594 164.289062 Z M 207.558594 164.289062 " fill-opacity="1" fill-rule="evenodd"/><g clip-path="url(#de4a407176)"><path fill="#ffd37b" d="M 287 120.464844 L 34.25 120.464844 C 32.164062 120.464844 30.46875 118.769531 30.46875 116.683594 L 30.46875 91.777344 L 102.121094 91.777344 C 104.207031 91.777344 105.902344 90.085938 105.902344 88 C 105.902344 85.914062 104.207031 84.222656 102.121094 84.222656 L 30.46875 84.222656 L 30.46875 64.996094 C 30.46875 63.546875 31.296875 62.226562 32.597656 61.59375 L 158.695312 0.53125 C 159.734375 0.0234375 160.941406 0.0234375 161.984375 0.523438 L 288.636719 61.59375 C 289.945312 62.226562 290.78125 63.546875 290.78125 64.996094 L 290.78125 84.222656 L 219.121094 84.222656 C 217.035156 84.222656 215.347656 85.914062 215.347656 88 C 215.347656 90.085938 217.035156 91.777344 219.121094 91.777344 L 290.78125 91.777344 L 290.78125 116.683594 C 290.78125 118.769531 289.085938 120.464844 287 120.464844 Z M 160.625 102.003906 C 141.945312 102.003906 126.746094 86.804688 126.746094 68.125 C 126.746094 49.4375 141.945312 34.238281 160.625 34.238281 C 179.304688 34.238281 194.503906 49.4375 194.503906 68.125 C 194.503906 86.804688 179.304688 102.003906 160.625 102.003906 Z M 160.625 41.800781 C 146.109375 41.800781 134.300781 53.609375 134.300781 68.125 C 134.300781 82.640625 146.109375 94.449219 160.625 94.449219 C 175.140625 94.449219 186.949219 82.640625 186.949219 68.125 C 186.949219 53.609375 175.140625 41.800781 160.625 41.800781 Z M 160.625 41.800781 " fill-opacity="1" fill-rule="evenodd"/></g><path fill="#ffd37b" d="M 15.421875 283.128906 L 15.421875 281.679688 C 15.421875 272.550781 22.84375 265.125 31.980469 265.125 L 289.269531 265.125 C 298.40625 265.125 305.828125 272.550781 305.828125 281.679688 L 305.828125 283.128906 C 305.421875 283.109375 305.019531 283.097656 304.609375 283.097656 L 16.640625 283.097656 C 16.230469 283.097656 15.828125 283.109375 15.421875 283.128906 Z M 15.421875 283.128906 " fill-opacity="1" fill-rule="evenodd"/><g clip-path="url(#d26e62632d)"><path fill="#ffd37b" d="M 317.382812 323.796875 L 3.859375 323.796875 C 1.773438 323.796875 0.0859375 322.105469 0.0859375 320.023438 L 0.0859375 307.242188 C 0.0859375 298.113281 7.511719 290.683594 16.640625 290.683594 L 304.609375 290.683594 C 313.738281 290.683594 321.164062 298.113281 321.164062 307.242188 L 321.164062 320.023438 C 321.164062 322.105469 319.472656 323.796875 317.382812 323.796875 Z M 317.382812 323.796875 " fill-opacity="1" fill-rule="evenodd"/></g><path fill="#ffd37b" d="M 85.9375 138.070312 L 38.226562 138.070312 C 36.140625 138.070312 34.445312 136.378906 34.445312 134.289062 L 34.445312 128.050781 L 89.710938 128.050781 L 89.710938 134.289062 C 89.710938 136.378906 88.023438 138.070312 85.9375 138.070312 Z M 283.023438 138.070312 L 235.3125 138.070312 C 233.226562 138.070312 231.539062 136.378906 231.539062 134.289062 L 231.539062 128.050781 L 286.804688 128.050781 L 286.804688 134.289062 C 286.804688 136.378906 285.109375 138.070312 283.023438 138.070312 Z M 283.023438 138.070312 " fill-opacity="1" fill-rule="evenodd"/><path fill="#ffd37b" d="M 45.234375 257.539062 L 45.234375 145.652344 L 78.917969 145.652344 L 78.917969 257.539062 Z M 242.328125 257.539062 L 242.328125 145.652344 L 276.011719 145.652344 L 276.011719 257.539062 Z M 242.328125 257.539062 " fill-opacity="1" fill-rule="evenodd"/></svg>