<svg xmlns="http://www.w3.org/2000/svg" xmlns:xlink="http://www.w3.org/1999/xlink" width="768" zoomAndPan="magnify" viewBox="0 0 576 30.750001" height="41" preserveAspectRatio="xMidYMid meet" version="1.0"><defs><clipPath id="a21231fda5"><path d="M 217.082031 0 L 249.074219 0 L 249.074219 30.503906 L 217.082031 30.503906 Z M 217.082031 0 " clip-rule="nonzero"/></clipPath><clipPath id="188a7dec73"><path d="M 217.082031 0 L 249 0 L 249 30.503906 L 217.082031 30.503906 Z M 217.082031 0 " clip-rule="nonzero"/></clipPath><clipPath id="435ca759dc"><path d="M 272.027344 0 L 304 0 L 304 30.503906 L 272.027344 30.503906 Z M 272.027344 0 " clip-rule="nonzero"/></clipPath><clipPath id="e569869280"><path d="M 327 0 L 358.960938 0 L 358.960938 30.503906 L 327 30.503906 Z M 327 0 " clip-rule="nonzero"/></clipPath><clipPath id="115e295c8d"><path d="M 326.96875 0 L 358.960938 0 L 358.960938 30.503906 L 326.96875 30.503906 Z M 326.96875 0 " clip-rule="nonzero"/></clipPath><clipPath id="bd190566d8"><path d="M 2.324219 13 L 197 13 L 197 18 L 2.324219 18 Z M 2.324219 13 " clip-rule="nonzero"/></clipPath><clipPath id="b010b5023c"><path d="M 379 13 L 573.675781 13 L 573.675781 18 L 379 18 Z M 379 13 " clip-rule="nonzero"/></clipPath></defs><g clip-path="url(#a21231fda5)"><path fill="#ffcf7e" d="M 233.09375 0.101562 L 238.015625 10.078125 L 249.027344 11.679688 L 241.058594 19.449219 L 242.945312 30.414062 L 233.09375 25.238281 L 223.242188 30.414062 L 225.121094 19.449219 L 217.160156 11.679688 L 228.167969 10.078125 Z M 233.09375 0.101562 " fill-opacity="1" fill-rule="nonzero"/></g><g clip-path="url(#188a7dec73)"><path fill="#ffcf7e" d="M 233.019531 0.0078125 L 237.945312 9.984375 L 248.957031 11.582031 L 240.988281 19.355469 L 242.867188 30.316406 L 233.019531 25.140625 L 223.171875 30.316406 L 225.050781 19.355469 L 217.082031 11.582031 L 228.089844 9.984375 Z M 233.019531 0.0078125 " fill-opacity="1" fill-rule="nonzero"/><path fill="#ffcf7e" d="M 233.019531 0.0078125 L 237.945312 9.984375 L 248.957031 11.582031 L 240.988281 19.355469 L 242.867188 30.316406 L 233.019531 25.140625 L 223.171875 30.316406 L 225.050781 19.355469 L 217.082031 11.582031 L 228.089844 9.984375 Z M 233.019531 0.0078125 " fill-opacity="1" fill-rule="nonzero"/><path fill="#ffcf7e" d="M 233.019531 0.0078125 L 237.945312 9.984375 L 248.957031 11.582031 L 240.988281 19.355469 L 242.867188 30.316406 L 233.019531 25.140625 L 223.171875 30.316406 L 225.050781 19.355469 L 217.082031 11.582031 L 228.089844 9.984375 Z M 233.019531 0.0078125 " fill-opacity="1" fill-rule="nonzero"/></g><g clip-path="url(#435ca759dc)"><path fill="#ffcf7e" d="M 288.039062 0.101562 L 292.960938 10.078125 L 303.96875 11.679688 L 296 19.449219 L 297.886719 30.414062 L 288.039062 25.238281 L 278.183594 30.414062 L 280.0625 19.449219 L 272.101562 11.679688 L 283.113281 10.078125 Z M 288.039062 0.101562 " fill-opacity="1" fill-rule="nonzero"/><path fill="#ffcf7e" d="M 287.960938 0.0078125 L 292.890625 9.984375 L 303.898438 11.582031 L 295.929688 19.355469 L 297.8125 30.316406 L 287.960938 25.140625 L 278.113281 30.316406 L 279.996094 19.355469 L 272.027344 11.582031 L 283.035156 9.984375 Z M 287.960938 0.0078125 " fill-opacity="1" fill-rule="nonzero"/><path fill="#ffcf7e" d="M 287.960938 0.0078125 L 292.890625 9.984375 L 303.898438 11.582031 L 295.929688 19.355469 L 297.8125 30.316406 L 287.960938 25.140625 L 278.113281 30.316406 L 279.996094 19.355469 L 272.027344 11.582031 L 283.035156 9.984375 Z M 287.960938 0.0078125 " fill-opacity="1" fill-rule="nonzero"/><path fill="#ffcf7e" d="M 287.960938 0.0078125 L 292.890625 9.984375 L 303.898438 11.582031 L 295.929688 19.355469 L 297.8125 30.316406 L 287.960938 25.140625 L 278.113281 30.316406 L 279.996094 19.355469 L 272.027344 11.582031 L 283.035156 9.984375 Z M 287.960938 0.0078125 " fill-opacity="1" fill-rule="nonzero"/></g><g clip-path="url(#e569869280)"><path fill="#ffcf7e" d="M 342.984375 0.101562 L 347.902344 10.078125 L 358.914062 11.679688 L 350.945312 19.449219 L 352.832031 30.414062 L 342.984375 25.238281 L 333.128906 30.414062 L 335.007812 19.449219 L 327.046875 11.679688 L 338.054688 10.078125 Z M 342.984375 0.101562 " fill-opacity="1" fill-rule="nonzero"/></g><g clip-path="url(#115e295c8d)"><path fill="#ffcf7e" d="M 342.90625 0.0078125 L 347.832031 9.984375 L 358.84375 11.582031 L 350.875 19.355469 L 352.753906 30.316406 L 342.90625 25.140625 L 333.058594 30.316406 L 334.9375 19.355469 L 326.96875 11.582031 L 337.976562 9.984375 Z M 342.90625 0.0078125 " fill-opacity="1" fill-rule="nonzero"/><path fill="#ffcf7e" d="M 342.90625 0.0078125 L 347.832031 9.984375 L 358.84375 11.582031 L 350.875 19.355469 L 352.753906 30.316406 L 342.90625 25.140625 L 333.058594 30.316406 L 334.9375 19.355469 L 326.96875 11.582031 L 337.976562 9.984375 Z M 342.90625 0.0078125 " fill-opacity="1" fill-rule="nonzero"/><path fill="#ffcf7e" d="M 342.90625 0.0078125 L 347.832031 9.984375 L 358.84375 11.582031 L 350.875 19.355469 L 352.753906 30.316406 L 342.90625 25.140625 L 333.058594 30.316406 L 334.9375 19.355469 L 326.96875 11.582031 L 337.976562 9.984375 Z M 342.90625 0.0078125 " fill-opacity="1" fill-rule="nonzero"/></g><g clip-path="url(#bd190566d8)"><path stroke-linecap="round" transform="matrix(0.743952, 0, 0, 0.743952, 2.322571, 13.355482)" fill="none" stroke-linejoin="miter" d="M 2.501537 2.499305 L 258.461566 2.499305 " stroke="#ffcf7e" stroke-width="5" stroke-opacity="1" stroke-miterlimit="4"/></g><g clip-path="url(#b010b5023c)"><path stroke-linecap="round" transform="matrix(0.743952, 0, 0, 0.743952, 379.533411, 13.355482)" fill="none" stroke-linejoin="miter" d="M 2.501669 2.499305 L 258.461698 2.499305 " stroke="#ffcf7e" stroke-width="5" stroke-opacity="1" stroke-miterlimit="4"/></g></svg>