<?xml version="1.0" encoding="UTF-8" standalone="no"?><svg xmlns="http://www.w3.org/2000/svg" xmlns:xlink="http://www.w3.org/1999/xlink" contentScriptType="text/ecmascript" fill="#000000" width="501.1" zoomAndPan="magnify" contentStyleType="text/css" viewBox="0.0 0.0 501.1 477.0" height="477" preserveAspectRatio="xMidYMid meet" version="1"><g id="change1_3"><path fill="#f8f6e9" d="M251.2 1.5L328.4 158 501.1 183.1 376.1 305 405.7 477 251.2 395.8 96.6 477 126.1 305 1.2 183.1 173.9 158z"/></g><g id="change1_2"><path fill="#f8f6e9" d="M250 0L327.3 156.5 500 181.6 375 303.5 404.5 475.5 250 394.3 95.5 475.5 125 303.5 0 181.6 172.7 156.5z"/></g><g id="change1_1"><path fill="#f8f6e9" d="M250 0L327.3 156.5 500 181.6 375 303.5 404.5 475.5 250 394.3 95.5 475.5 125 303.5 0 181.6 172.7 156.5z"/></g><g id="change1_4"><path fill="#f8f6e9" d="M250 0L327.3 156.5 500 181.6 375 303.5 404.5 475.5 250 394.3 95.5 475.5 125 303.5 0 181.6 172.7 156.5z"/></g></svg>