<?xml version="1.0" encoding="UTF-8" standalone="no"?><svg xmlns="http://www.w3.org/2000/svg" xmlns:xlink="http://www.w3.org/1999/xlink" contentScriptType="text/ecmascript" fill="#000000" width="266" zoomAndPan="magnify" contentStyleType="text/css" viewBox="0.0 -0.0 266.0 266.0" height="266" preserveAspectRatio="xMidYMid meet" version="1"><g id="change1_1"><path fill="#f8f6e9" d="M136.251,71.171a66.161,66.161,0,0,0,58.59,58.591c17.985,1.97,41.2,3.244,71.171,3.244-29.97,0-53.186,1.274-71.171,3.245a66.159,66.159,0,0,0-58.59,58.59c-1.971,17.985-3.245,41.2-3.245,71.171,0-29.97-1.274-53.186-3.244-71.171a66.161,66.161,0,0,0-58.591-58.59C53.186,134.28,29.97,133.006,0,133.006c29.97,0,53.186-1.274,71.171-3.244a66.163,66.163,0,0,0,58.591-58.591c1.97-17.985,3.244-41.2,3.244-71.171C133.006,29.97,134.28,53.186,136.251,71.171Z"/></g></svg>