<?xml version="1.0" encoding="UTF-8" standalone="no"?><svg xmlns="http://www.w3.org/2000/svg" xmlns:xlink="http://www.w3.org/1999/xlink" contentScriptType="text/ecmascript" fill="#000000" width="460" zoomAndPan="magnify" contentStyleType="text/css" viewBox="17.2 71.8 460.0 382.9" height="382.9" preserveAspectRatio="xMidYMid meet" version="1"><g id="change1_1"><path fill="#f8f6e9" d="M167.1,75c-0.5-2-2.4-3.2-4.4-2.7c-1.3,0.3-2.4,1.4-2.7,2.7c-6.4,24-22.2,68.3-57,95.4 c-24.2,18.8-52.5,31.8-82.5,37.9c-2,0.4-3.3,2.3-2.9,4.3c0.3,1.4,1.3,2.4,2.6,2.8c24.4,6.8,66.8,21.7,88.3,47 c17,20,32.1,70.1,38.7,94.6c0.6,1.9,2.6,3.1,4.5,2.5c1.2-0.3,2.2-1.3,2.5-2.5c6.8-24.9,24.4-76.4,57.3-98.3 c29.4-19.6,62.1-29.4,80.6-33.8c2-0.5,3.1-2.5,2.6-4.5c-0.3-1.2-1.2-2.2-2.4-2.5c-22.3-6.6-63.8-21.5-80.8-43.8 C185.1,139.5,172.5,97.8,167.1,75z M352,280.5c-0.3-1.2-1.5-1.9-2.7-1.6c-0.8,0.2-1.4,0.8-1.6,1.6c-3.9,14.7-13.6,41.8-34.9,58.3 c-14.8,11.5-32.1,19.4-50.5,23.1c-1.2,0.2-2,1.4-1.7,2.6c0.2,0.8,0.8,1.5,1.6,1.7c14.9,4.2,40.9,13.2,54,28.7 c10.4,12.2,19.6,42.9,23.7,57.9c0.3,1.2,1.6,1.9,2.7,1.6c0.8-0.2,1.3-0.8,1.6-1.6c4.2-15.2,14.9-46.7,35-60.1c18-12,38-18,49.3-20.7 c1.2-0.3,1.9-1.5,1.6-2.7c-0.2-0.8-0.8-1.4-1.5-1.6c-13.7-4.1-39-13.1-49.4-26.8C363,320,355.3,294.5,352,280.5z M425.1,113.3 c-0.2-0.8-1-1.3-1.8-1.1c-0.5,0.1-0.9,0.5-1.1,1.1c-2.6,9.8-9,27.7-23.2,38.7c-9.8,7.6-21.3,12.9-33.5,15.4 c-0.8,0.2-1.3,0.9-1.2,1.7c0.1,0.6,0.5,1,1.1,1.1c9.9,2.8,27.1,8.8,35.9,19.1c6.9,8.1,13,28.5,15.7,38.4c0.2,0.8,1,1.2,1.8,1 c0.5-0.1,0.9-0.5,1-1c2.8-10.1,9.9-31,23.3-39.9c11.9-8,25.2-11.9,32.8-13.7c0.8-0.2,1.3-1,1.1-1.8c-0.1-0.5-0.5-0.9-1-1.1 c-9.1-2.7-25.9-8.7-32.8-17.8C432.5,139.5,427.3,122.6,425.1,113.3z"/></g></svg>