<?xml version="1.0" encoding="UTF-8" standalone="no"?><svg xmlns="http://www.w3.org/2000/svg" xmlns:xlink="http://www.w3.org/1999/xlink" contentScriptType="text/ecmascript" zoomAndPan="magnify" text-rendering="geometricPrecision" contentStyleType="text/css" version="1" width="1711" clip-rule="evenodd" fill="#000000" preserveAspectRatio="xMidYMid meet" viewBox="-5.0 39.0 1711.0 1623.0" height="1623" fill-rule="evenodd" image-rendering="optimizeQuality"><g id="change1_1"><path fill="#ffcf7e" d="M201 1374c-54,0 -104,-29 -131,-75l-49 -87c-20,-34 -26,-75 -15,-114 10,-39 35,-72 70,-92l93 -54c171,-135 261,-309 349,-519l476 824c-91,-11 -180,-20 -269,-20 -62,0 -120,4 -175,13 12,61 -13,125 -66,161l47 82c15,26 19,56 11,85 -8,29 -27,53 -53,68 -17,10 -37,16 -57,16l0 0c-40,0 -77,-22 -97,-56l-134 -232zm1465 -544l-486 0c-22,0 -40,-18 -40,-40 0,-23 18,-40 40,-40l486 0c22,0 40,17 40,40 0,22 -18,40 -40,40zm-596 -126c-14,0 -27,-7 -35,-20 -11,-19 -4,-43 15,-54l421 -244c19,-11 44,-4 55,15 11,19 4,44 -15,55l-421 243c-6,3 -13,5 -20,5zm-54 -158c-7,0 -13,-2 -20,-5 -19,-11 -25,-36 -14,-55l243 -421c11,-19 35,-26 54,-15 20,11 26,36 15,55l-243 421c-8,13 -21,20 -35,20zm-545 721c-20,5 -40,11 -60,18l33 57c22,-19 32,-47 27,-75zm669 40c-44,0 -85,-24 -107,-62l-485 -839c-16,-29 -20,-62 -12,-94 9,-32 29,-59 58,-75 18,-11 40,-17 61,-17 45,0 86,24 108,62l484 839c17,29 21,62 12,94 -8,32 -29,59 -57,75 -19,11 -40,17 -62,17z"/></g></svg>