<svg xmlns="http://www.w3.org/2000/svg" xmlns:xlink="http://www.w3.org/1999/xlink" width="1486" zoomAndPan="magnify" viewBox="0 0 1114.5 516.750002" height="689" preserveAspectRatio="xMidYMid meet" version="1.0"><defs><g/><clipPath id="f6f188771c"><path d="M 0.0195312 0 L 1113.980469 0 L 1113.980469 516.332031 L 0.0195312 516.332031 Z M 0.0195312 0 " clip-rule="nonzero"/></clipPath><clipPath id="4b617383bc"><path d="M 38.25 0 L 1075.71875 0 C 1085.859375 0 1095.582031 4.027344 1102.753906 11.199219 C 1109.921875 18.367188 1113.949219 28.09375 1113.949219 38.230469 L 1113.949219 478.101562 C 1113.949219 488.242188 1109.921875 497.964844 1102.753906 505.136719 C 1095.582031 512.304688 1085.859375 516.332031 1075.71875 516.332031 L 38.25 516.332031 C 28.113281 516.332031 18.386719 512.304688 11.21875 505.136719 C 4.046875 497.964844 0.0195312 488.242188 0.0195312 478.101562 L 0.0195312 38.230469 C 0.0195312 28.09375 4.046875 18.367188 11.21875 11.199219 C 18.386719 4.027344 28.113281 0 38.25 0 Z M 38.25 0 " clip-rule="nonzero"/></clipPath><clipPath id="e16709876b"><path d="M 0.0273438 0 L 1113.980469 0 L 1113.980469 516.5 L 0.0273438 516.5 Z M 0.0273438 0 " clip-rule="nonzero"/></clipPath><clipPath id="110f2b9455"><path d="M 38.257812 0 L 1075.707031 0 C 1085.847656 0 1095.570312 4.027344 1102.742188 11.199219 C 1109.910156 18.367188 1113.941406 28.089844 1113.941406 38.230469 L 1113.941406 478.09375 C 1113.941406 488.234375 1109.910156 497.957031 1102.742188 505.125 C 1095.570312 512.296875 1085.847656 516.324219 1075.707031 516.324219 L 38.257812 516.324219 C 28.117188 516.324219 18.394531 512.296875 11.222656 505.125 C 4.054688 497.957031 0.0273438 488.234375 0.0273438 478.09375 L 0.0273438 38.230469 C 0.0273438 28.089844 4.054688 18.367188 11.222656 11.199219 C 18.394531 4.027344 28.117188 0 38.257812 0 Z M 38.257812 0 " clip-rule="nonzero"/></clipPath></defs><g clip-path="url(#f6f188771c)"><g clip-path="url(#4b617383bc)"><path fill="#ffcf7e" d="M 0.0195312 0 L 1113.363281 0 L 1113.363281 516.332031 L 0.0195312 516.332031 Z M 0.0195312 0 " fill-opacity="1" fill-rule="nonzero"/></g></g><g clip-path="url(#e16709876b)"><g clip-path="url(#110f2b9455)"><path stroke-linecap="butt" transform="matrix(0.749637, 0, 0, 0.749637, 0.0256264, 0.0000199903)" fill="none" stroke-linejoin="miter" d="M 51.000909 -0.0000266667 L 1434.935712 -0.0000266667 C 1448.463086 -0.0000266667 1461.43811 5.372363 1471.000025 14.939489 C 1480.56194 24.501404 1485.93954 37.471217 1485.93954 50.998591 L 1485.93954 637.766688 C 1485.93954 651.294062 1480.56194 664.263875 1471.000025 673.82579 C 1461.43811 683.392916 1448.463086 688.765306 1434.935712 688.765306 L 51.000909 688.765306 C 37.473534 688.765306 24.503721 683.392916 14.936595 673.82579 C 5.37468 664.263875 0.00229086 651.294062 0.00229086 637.766688 L 0.00229086 50.998591 C 0.00229086 37.471217 5.37468 24.501404 14.936595 14.939489 C 24.503721 5.372363 37.473534 -0.0000266667 51.000909 -0.0000266667 Z M 51.000909 -0.0000266667 " stroke="#cf4545" stroke-width="40" stroke-opacity="1" stroke-miterlimit="4"/></g></g><g fill="#cf4545" fill-opacity="1"><g transform="translate(955.16379, 84.723757)"><g><path d="M 10.921875 -20.5625 L 1.4375 -20.5625 L 1.4375 -30.8125 L 10.921875 -30.8125 Z M 10.921875 0 L 1.4375 0 L 1.4375 -10.296875 L 10.921875 -10.296875 Z M 10.921875 0 "/></g></g></g><g fill="#cf4545" fill-opacity="1"><g transform="translate(967.392249, 84.723757)"><g><path d="M 25.765625 0 L 3.09375 0 L 3.09375 -4.609375 C 3.09375 -8.492188 4.347656 -11.785156 6.859375 -14.484375 L 12.015625 -20 C 12.691406 -20.75 13.238281 -21.347656 13.65625 -21.796875 C 14.082031 -22.253906 14.359375 -22.578125 14.484375 -22.765625 C 15.234375 -23.867188 15.609375 -25.066406 15.609375 -26.359375 L 15.609375 -30.71875 L 12.515625 -30.71875 L 12.515625 -26.640625 L 2.390625 -26.640625 L 2.390625 -33.59375 C 2.390625 -35.882812 3.300781 -37.804688 5.125 -39.359375 C 6.84375 -40.859375 8.867188 -41.609375 11.203125 -41.609375 L 17.78125 -41.609375 C 23.101562 -41.609375 25.765625 -38.9375 25.765625 -33.59375 L 25.765625 -25.90625 C 25.765625 -22.550781 24.273438 -19.175781 21.296875 -15.78125 L 16.96875 -10.859375 L 25.765625 -10.859375 Z M 25.765625 0 "/></g></g><g transform="translate(995.468509, 84.723757)"><g><path d="M 26.28125 -7.984375 C 26.28125 -5.453125 25.566406 -3.488281 24.140625 -2.09375 C 22.710938 -0.695312 20.734375 0 18.203125 0 L 9.9375 0 C 7.738281 0 5.84375 -0.785156 4.25 -2.359375 C 2.65625 -3.953125 1.859375 -5.828125 1.859375 -7.984375 L 1.859375 -33.59375 C 1.859375 -36.144531 2.566406 -38.117188 3.984375 -39.515625 C 5.398438 -40.910156 7.382812 -41.609375 9.9375 -41.609375 L 18.203125 -41.609375 C 20.734375 -41.609375 22.710938 -40.90625 24.140625 -39.5 C 25.566406 -38.09375 26.28125 -36.125 26.28125 -33.59375 Z M 16.0625 -10.859375 L 16.0625 -30.71875 L 12.015625 -30.71875 L 12.015625 -10.859375 Z M 16.0625 -10.859375 "/></g></g><g transform="translate(1023.544768, 84.723757)"><g><path d="M 21.890625 0 L 11.671875 0 L 11.671875 -30.71875 L 4.75 -30.71875 L 4.75 -41.609375 L 13.953125 -41.609375 C 19.242188 -41.609375 21.890625 -38.9375 21.890625 -33.59375 Z M 21.890625 0 "/></g></g><g transform="translate(1051.621028, 84.723757)"><g><path d="M 21.890625 0 L 11.671875 0 L 11.671875 -30.71875 L 4.75 -30.71875 L 4.75 -41.609375 L 13.953125 -41.609375 C 19.242188 -41.609375 21.890625 -38.9375 21.890625 -33.59375 Z M 21.890625 0 "/></g></g></g><g fill="#cf4545" fill-opacity="1"><g transform="translate(78.699499, 232.514701)"><g><path d="M 32.90625 0 L 3.953125 0 L 3.953125 -5.875 C 3.953125 -10.84375 5.550781 -15.050781 8.75 -18.5 L 15.359375 -25.546875 C 16.222656 -26.503906 16.925781 -27.273438 17.46875 -27.859375 C 18.007812 -28.441406 18.351562 -28.851562 18.5 -29.09375 C 19.457031 -30.5 19.9375 -32.023438 19.9375 -33.671875 L 19.9375 -39.234375 L 15.984375 -39.234375 L 15.984375 -34.03125 L 3.046875 -34.03125 L 3.046875 -42.921875 C 3.046875 -45.859375 4.21875 -48.3125 6.5625 -50.28125 C 8.738281 -52.195312 11.328125 -53.15625 14.328125 -53.15625 L 22.71875 -53.15625 C 29.507812 -53.15625 32.90625 -49.742188 32.90625 -42.921875 L 32.90625 -33.09375 C 32.90625 -28.8125 31.003906 -24.5 27.203125 -20.15625 L 21.6875 -13.875 L 32.90625 -13.875 Z M 32.90625 0 "/></g></g></g><g fill="#cf4545" fill-opacity="1"><g transform="translate(114.571673, 232.514701)"><g><path d="M 32.828125 -53.15625 L 29.234375 -31.15625 L 32.28125 -31.15625 L 32.28125 -17.28125 L 27.125 -17.28125 L 24.5625 0 L 11.046875 0 L 13.6875 -17.28125 L 8.53125 -17.28125 L 8.53125 -31.15625 L 15.71875 -31.15625 L 16.921875 -39.234375 L 3.046875 -39.234375 L 3.046875 -53.15625 Z M 32.828125 -53.15625 "/></g></g></g><g fill="#cf4545" fill-opacity="1"><g transform="translate(150.443847, 232.514701)"><g><path d="M 36.328125 -10.109375 L 33.671875 -10.109375 L 33.671875 0 L 20.703125 0 L 20.703125 -10.109375 L -0.453125 -10.109375 L 9.65625 -53.15625 L 23.171875 -53.15625 L 16.484375 -24.015625 L 20.703125 -24.015625 L 20.703125 -33.1875 L 33.671875 -33.1875 L 33.671875 -24.015625 L 36.328125 -24.015625 Z M 36.328125 -10.109375 "/></g></g></g><g fill="#cf4545" fill-opacity="1"><g transform="translate(186.316022, 232.514701)"><g><path d="M 32.546875 -10.1875 C 32.546875 -3.394531 29.117188 0 22.265625 0 L 3.40625 0 L 4.40625 -13.875 L 19.578125 -13.875 L 19.578125 -19.125 L 5.4375 -19.125 L 9.03125 -53.15625 L 32.546875 -53.15625 L 31.515625 -39.234375 L 20.96875 -39.234375 L 19.9375 -33 L 22.8125 -33 C 29.300781 -33 32.546875 -29.75 32.546875 -23.25 Z M 32.546875 -10.1875 "/></g></g></g><g fill="#cf4545" fill-opacity="1"><g transform="translate(222.196481, 232.514701)"><g/></g></g><g fill="#cf4545" fill-opacity="1"><g transform="translate(242.534522, 232.514701)"><g><path d="M 34.078125 0 L 20.875 0 L 20.875 -37.09375 C 20.875 -38.550781 20.128906 -39.28125 18.640625 -39.28125 L 2.296875 -39.28125 L 2.296875 -53.15625 L 24.6875 -53.15625 C 27.445312 -53.15625 29.707031 -52.273438 31.46875 -50.515625 C 33.207031 -48.773438 34.078125 -46.515625 34.078125 -43.734375 Z M 15.265625 0 L 2.328125 0 L 2.328125 -32.953125 L 15.265625 -32.953125 Z M 15.265625 0 "/></g></g></g><g fill="#cf4545" fill-opacity="1"><g transform="translate(278.900555, 232.514701)"><g><path d="M 31.75 -19.21875 C 31.75 -6.40625 25.609375 0 13.328125 0 L 7.71875 0 L 7.71875 -13.875 L 11.5 -13.875 C 14.394531 -13.875 16.367188 -14.800781 17.421875 -16.65625 C 18.171875 -17.976562 18.546875 -20.269531 18.546875 -23.53125 L 18.546875 -37.09375 C 18.546875 -38.550781 17.796875 -39.28125 16.296875 -39.28125 L 2.296875 -39.28125 L 2.296875 -59.765625 L 15.3125 -59.765625 L 15.3125 -53.15625 L 25.09375 -53.15625 C 29.53125 -53.15625 31.75 -51.015625 31.75 -46.734375 Z M 31.75 -19.21875 "/></g></g></g><g fill="#cf4545" fill-opacity="1"><g transform="translate(312.931979, 232.514701)"><g><path d="M 14.8125 -38.078125 L 16.84375 -38.078125 C 18.300781 -38.078125 19.03125 -38.867188 19.03125 -40.453125 L 19.03125 -53.15625 L 31.03125 -53.15625 L 31.03125 -38.25 C 31.03125 -32.050781 28.347656 -28.953125 22.984375 -28.953125 L 14.8125 -28.953125 L 14.8125 -16.296875 C 14.8125 -14.679688 15.488281 -13.875 16.84375 -13.875 L 33.21875 -13.875 C 34.539062 -13.875 35.203125 -14.679688 35.203125 -16.296875 L 35.203125 -53.15625 L 47.765625 -53.15625 L 47.765625 -12.078125 C 47.765625 -8.421875 46.820312 -5.519531 44.9375 -3.375 C 42.96875 -1.125 40.171875 0 36.546875 0 L 13.515625 0 C 6.035156 0 2.296875 -4.023438 2.296875 -12.078125 L 2.296875 -53.15625 L 14.8125 -53.15625 Z M 14.8125 -38.078125 "/></g></g></g><g fill="#cf4545" fill-opacity="1"><g transform="translate(362.991396, 232.514701)"><g><path d="M 37.578125 -9.5625 C 37.578125 -3.1875 34.691406 0 28.921875 0 L 19.75 0 L 19.75 -13.921875 L 22.5 -13.921875 C 23.84375 -13.921875 24.515625 -14.726562 24.515625 -16.34375 L 24.515625 -36.59375 C 24.515625 -38.207031 24.109375 -39.015625 23.296875 -39.015625 C 22.492188 -39.015625 21.941406 -38.101562 21.640625 -36.28125 L 15.125 0 L 2.296875 0 L 7.765625 -29.671875 L 5.203125 -29.671875 C 3.203125 -29.671875 2.203125 -30.660156 2.203125 -32.640625 L 2.203125 -53.15625 L 15.21875 -53.15625 L 15.21875 -34.390625 L 17.828125 -44.671875 C 19.265625 -50.328125 22.363281 -53.15625 27.125 -53.15625 L 27.796875 -53.15625 C 34.316406 -53.15625 37.578125 -49.175781 37.578125 -41.21875 Z M 37.578125 -9.5625 "/></g></g></g><g fill="#cf4545" fill-opacity="1"><g transform="translate(402.859344, 232.514701)"><g><path d="M 37.578125 -9.5625 C 37.578125 -3.1875 34.691406 0 28.921875 0 L 19.75 0 L 19.75 -13.921875 L 22.5 -13.921875 C 23.84375 -13.921875 24.515625 -14.726562 24.515625 -16.34375 L 24.515625 -36.59375 C 24.515625 -38.207031 24.109375 -39.015625 23.296875 -39.015625 C 22.492188 -39.015625 21.941406 -38.101562 21.640625 -36.28125 L 15.125 0 L 2.296875 0 L 7.765625 -29.671875 L 5.203125 -29.671875 C 3.203125 -29.671875 2.203125 -30.660156 2.203125 -32.640625 L 2.203125 -53.15625 L 15.21875 -53.15625 L 15.21875 -34.390625 L 17.828125 -44.671875 C 19.265625 -50.328125 22.363281 -53.15625 27.125 -53.15625 L 27.796875 -53.15625 C 34.316406 -53.15625 37.578125 -49.175781 37.578125 -41.21875 Z M 37.578125 -9.5625 "/></g></g></g><g fill="#cf4545" fill-opacity="1"><g transform="translate(442.727292, 232.514701)"><g/></g></g><g fill="#cf4545" fill-opacity="1"><g transform="translate(463.065322, 232.514701)"><g><path d="M 36.765625 0 L 23.796875 0 L 23.796875 -36.765625 C 23.796875 -38.441406 23.03125 -39.28125 21.5 -39.28125 L 19.75 -39.28125 C 18.195312 -39.28125 17.421875 -38.441406 17.421875 -36.765625 L 17.421875 -6.375 C 17.421875 -2.125 15.640625 0 12.078125 0 L 0.890625 0 L 0.890625 -13.875 L 3.140625 -13.875 C 3.890625 -13.875 4.265625 -14.203125 4.265625 -14.859375 L 4.265625 -42.96875 C 4.265625 -46.59375 4.96875 -49.195312 6.375 -50.78125 C 7.78125 -52.363281 10.265625 -53.15625 13.828125 -53.15625 L 27.84375 -53.15625 C 33.789062 -53.15625 36.765625 -49.757812 36.765625 -42.96875 Z M 36.765625 0 "/></g></g></g><g fill="#cf4545" fill-opacity="1"><g transform="translate(502.170044, 232.514701)"><g><path d="M 35.921875 -10.234375 C 35.921875 -3.410156 33.109375 0 27.484375 0 L 10.734375 0 C 7.890625 0 5.734375 -1.03125 4.265625 -3.09375 C 2.953125 -4.945312 2.296875 -7.328125 2.296875 -10.234375 L 2.296875 -53.15625 L 15.21875 -53.15625 L 15.21875 -36.40625 L 17.78125 -45.484375 C 19.21875 -50.597656 21.835938 -53.15625 25.640625 -53.15625 L 28.28125 -53.15625 C 33.375 -53.15625 35.921875 -50.390625 35.921875 -44.859375 Z M 23.03125 -38.078125 C 23.03125 -38.640625 22.910156 -38.921875 22.671875 -38.921875 C 22.492188 -38.921875 22.34375 -38.679688 22.21875 -38.203125 L 20.34375 -31.15625 L 15.21875 -31.15625 L 15.21875 -16.296875 C 15.21875 -14.679688 15.878906 -13.875 17.203125 -13.875 L 21.015625 -13.875 C 22.359375 -13.875 23.03125 -14.679688 23.03125 -16.296875 Z M 23.03125 -38.078125 "/></g></g></g><g fill="#cf4545" fill-opacity="1"><g transform="translate(540.376839, 232.514701)"><g><path d="M 31.75 -19.21875 C 31.75 -6.40625 25.609375 0 13.328125 0 L 7.71875 0 L 7.71875 -13.875 L 11.5 -13.875 C 14.394531 -13.875 16.367188 -14.800781 17.421875 -16.65625 C 18.171875 -17.976562 18.546875 -20.269531 18.546875 -23.53125 L 18.546875 -37.09375 C 18.546875 -38.550781 17.796875 -39.28125 16.296875 -39.28125 L 2.296875 -39.28125 L 2.296875 -59.765625 L 15.3125 -59.765625 L 15.3125 -53.15625 L 25.09375 -53.15625 C 29.53125 -53.15625 31.75 -51.015625 31.75 -46.734375 Z M 31.75 -19.21875 "/></g></g></g><g fill="#cf4545" fill-opacity="1"><g transform="translate(574.408263, 232.514701)"><g><path d="M 34.65625 0 L 21.640625 0 L 21.640625 -36.765625 C 21.640625 -38.441406 20.875 -39.28125 19.34375 -39.28125 L 17.78125 -39.28125 C 16.25 -39.28125 15.484375 -38.441406 15.484375 -36.765625 L 15.484375 0 L 2.296875 0 L 2.296875 -43.859375 C 2.296875 -47.179688 2.847656 -49.503906 3.953125 -50.828125 C 5.210938 -52.378906 7.457031 -53.15625 10.6875 -53.15625 L 25.6875 -53.15625 C 31.664062 -53.15625 34.65625 -50.054688 34.65625 -43.859375 Z M 34.65625 0 "/></g></g></g><g fill="#cf4545" fill-opacity="1"><g transform="translate(611.357938, 232.514701)"><g><path d="M 34.078125 0 L 20.875 0 L 20.875 -37.09375 C 20.875 -38.550781 20.128906 -39.28125 18.640625 -39.28125 L 2.296875 -39.28125 L 2.296875 -53.15625 L 24.6875 -53.15625 C 27.445312 -53.15625 29.707031 -52.273438 31.46875 -50.515625 C 33.207031 -48.773438 34.078125 -46.515625 34.078125 -43.734375 Z M 15.265625 0 L 2.328125 0 L 2.328125 -32.953125 L 15.265625 -32.953125 Z M 15.265625 0 "/></g></g></g><g fill="#cf4545" fill-opacity="1"><g transform="translate(647.723995, 232.514701)"><g/></g></g><g fill="#cf4545" fill-opacity="1"><g transform="translate(668.062025, 232.514701)"><g><path d="M 24.734375 -19.03125 L 2.734375 -19.03125 L 2.734375 -32.90625 L 24.734375 -32.90625 Z M 24.734375 -19.03125 "/></g></g></g><g fill="#cf4545" fill-opacity="1"><g transform="translate(695.538583, 232.514701)"><g/></g></g><g fill="#cf4545" fill-opacity="1"><g transform="translate(715.879497, 232.514701)"><g><path d="M 27.96875 0 L 14.90625 0 L 14.90625 -39.234375 L 6.0625 -39.234375 L 6.0625 -53.15625 L 17.828125 -53.15625 C 24.585938 -53.15625 27.96875 -49.742188 27.96875 -42.921875 Z M 27.96875 0 "/></g></g></g><g fill="#cf4545" fill-opacity="1"><g transform="translate(751.751671, 232.514701)"><g><path d="M 33.1875 -10.1875 C 33.1875 -3.394531 30.085938 0 23.890625 0 L 4.578125 0 L 4.578125 -13.875 L 20.25 -13.875 L 20.25 -20.15625 L 12.03125 -20.15625 C 5.832031 -20.15625 2.734375 -23.554688 2.734375 -30.359375 L 2.734375 -42.921875 C 2.734375 -49.742188 6.175781 -53.15625 13.0625 -53.15625 L 22.90625 -53.15625 C 26.007812 -53.15625 28.492188 -52.226562 30.359375 -50.375 C 32.242188 -48.519531 33.1875 -46.035156 33.1875 -42.921875 Z M 20.25 -32.1875 L 20.25 -39.234375 L 15.71875 -39.234375 L 15.71875 -32.1875 Z M 20.25 -32.1875 "/></g></g></g><g fill="#cf4545" fill-opacity="1"><g transform="translate(787.623845, 232.514701)"><g><path d="M 13.96875 0 L 1.84375 0 L 1.84375 -13.15625 L 13.96875 -13.15625 Z M 13.96875 0 "/></g></g></g><g fill="#cf4545" fill-opacity="1"><g transform="translate(803.247771, 232.514701)"><g><path d="M 33.578125 -10.1875 C 33.578125 -6.957031 32.664062 -4.453125 30.84375 -2.671875 C 29.019531 -0.890625 26.488281 0 23.25 0 L 12.703125 0 C 9.890625 0 7.46875 -1.003906 5.4375 -3.015625 C 3.394531 -5.046875 2.375 -7.4375 2.375 -10.1875 L 2.375 -42.921875 C 2.375 -46.179688 3.28125 -48.703125 5.09375 -50.484375 C 6.90625 -52.265625 9.441406 -53.15625 12.703125 -53.15625 L 23.25 -53.15625 C 26.488281 -53.15625 29.019531 -52.253906 30.84375 -50.453125 C 32.664062 -48.660156 33.578125 -46.148438 33.578125 -42.921875 Z M 20.515625 -13.875 L 20.515625 -39.234375 L 15.359375 -39.234375 L 15.359375 -13.875 Z M 20.515625 -13.875 "/></g></g></g><g fill="#cf4545" fill-opacity="1"><g transform="translate(839.119945, 232.514701)"><g><path d="M 27.96875 0 L 14.90625 0 L 14.90625 -39.234375 L 6.0625 -39.234375 L 6.0625 -53.15625 L 17.828125 -53.15625 C 24.585938 -53.15625 27.96875 -49.742188 27.96875 -42.921875 Z M 27.96875 0 "/></g></g></g><g fill="#cf4545" fill-opacity="1"><g transform="translate(874.992119, 232.514701)"><g><path d="M 13.96875 0 L 1.84375 0 L 1.84375 -13.15625 L 13.96875 -13.15625 Z M 13.96875 0 "/></g></g></g><g fill="#cf4545" fill-opacity="1"><g transform="translate(890.616045, 232.514701)"><g><path d="M 32.90625 0 L 3.953125 0 L 3.953125 -5.875 C 3.953125 -10.84375 5.550781 -15.050781 8.75 -18.5 L 15.359375 -25.546875 C 16.222656 -26.503906 16.925781 -27.273438 17.46875 -27.859375 C 18.007812 -28.441406 18.351562 -28.851562 18.5 -29.09375 C 19.457031 -30.5 19.9375 -32.023438 19.9375 -33.671875 L 19.9375 -39.234375 L 15.984375 -39.234375 L 15.984375 -34.03125 L 3.046875 -34.03125 L 3.046875 -42.921875 C 3.046875 -45.859375 4.21875 -48.3125 6.5625 -50.28125 C 8.738281 -52.195312 11.328125 -53.15625 14.328125 -53.15625 L 22.71875 -53.15625 C 29.507812 -53.15625 32.90625 -49.742188 32.90625 -42.921875 L 32.90625 -33.09375 C 32.90625 -28.8125 31.003906 -24.5 27.203125 -20.15625 L 21.6875 -13.875 L 32.90625 -13.875 Z M 32.90625 0 "/></g></g></g><g fill="#cf4545" fill-opacity="1"><g transform="translate(926.48823, 232.514701)"><g><path d="M 33.578125 -10.1875 C 33.578125 -6.957031 32.664062 -4.453125 30.84375 -2.671875 C 29.019531 -0.890625 26.488281 0 23.25 0 L 12.703125 0 C 9.890625 0 7.46875 -1.003906 5.4375 -3.015625 C 3.394531 -5.046875 2.375 -7.4375 2.375 -10.1875 L 2.375 -42.921875 C 2.375 -46.179688 3.28125 -48.703125 5.09375 -50.484375 C 6.90625 -52.265625 9.441406 -53.15625 12.703125 -53.15625 L 23.25 -53.15625 C 26.488281 -53.15625 29.019531 -52.253906 30.84375 -50.453125 C 32.664062 -48.660156 33.578125 -46.148438 33.578125 -42.921875 Z M 20.515625 -13.875 L 20.515625 -39.234375 L 15.359375 -39.234375 L 15.359375 -13.875 Z M 20.515625 -13.875 "/></g></g></g><g fill="#cf4545" fill-opacity="1"><g transform="translate(962.360416, 232.514701)"><g><path d="M 27.96875 0 L 14.90625 0 L 14.90625 -39.234375 L 6.0625 -39.234375 L 6.0625 -53.15625 L 17.828125 -53.15625 C 24.585938 -53.15625 27.96875 -49.742188 27.96875 -42.921875 Z M 27.96875 0 "/></g></g></g><g fill="#cf4545" fill-opacity="1"><g transform="translate(998.232601, 232.514701)"><g><path d="M 27.96875 0 L 14.90625 0 L 14.90625 -39.234375 L 6.0625 -39.234375 L 6.0625 -53.15625 L 17.828125 -53.15625 C 24.585938 -53.15625 27.96875 -49.742188 27.96875 -42.921875 Z M 27.96875 0 "/></g></g></g><g fill="#cf4545" fill-opacity="1"><g transform="translate(190.793702, 328.468275)"><g><path d="M 33.9375 7.546875 L 21.015625 7.546875 L 21.015625 -37.09375 C 21.015625 -38.550781 20.28125 -39.28125 18.8125 -39.28125 L 17.28125 -39.28125 C 16.050781 -39.28125 15.4375 -38.519531 15.4375 -37 L 15.4375 -29.1875 L 2.296875 -29.1875 L 2.296875 -43.734375 C 2.296875 -50.015625 5.628906 -53.15625 12.296875 -53.15625 L 23.703125 -53.15625 C 26.515625 -53.15625 28.894531 -52.300781 30.84375 -50.59375 C 32.90625 -48.800781 33.9375 -46.515625 33.9375 -43.734375 Z M 33.9375 7.546875 "/></g></g></g><g fill="#cf4545" fill-opacity="1"><g transform="translate(227.025047, 328.468275)"><g><path d="M 28.46875 0 L 15.3125 0 L 15.3125 -37.09375 C 15.3125 -38.550781 14.546875 -39.28125 13.015625 -39.28125 L 1.390625 -39.28125 L 1.390625 -53.15625 L 19.078125 -53.15625 C 21.835938 -53.15625 24.097656 -52.273438 25.859375 -50.515625 C 27.597656 -48.773438 28.46875 -46.515625 28.46875 -43.734375 Z M 28.46875 0 "/></g></g></g><g fill="#cf4545" fill-opacity="1"><g transform="translate(257.779039, 328.468275)"><g><path d="M 15.265625 0 L 2.296875 0 L 2.296875 -53.15625 L 15.265625 -53.15625 Z M 15.265625 0 "/></g></g></g><g fill="#cf4545" fill-opacity="1"><g transform="translate(275.333507, 328.468275)"><g><path d="M 35.203125 -14.015625 C 35.203125 -4.671875 31.367188 0 23.703125 0 L 1.390625 0 L 1.390625 -13.875 L 4.53125 -13.875 L 4.53125 -53.15625 L 17.515625 -53.15625 L 17.515625 -13.875 L 20.109375 -13.875 C 21.609375 -13.875 22.359375 -14.90625 22.359375 -16.96875 L 22.359375 -53.15625 L 35.203125 -53.15625 Z M 35.203125 -14.015625 "/></g></g></g><g fill="#cf4545" fill-opacity="1"><g transform="translate(312.821949, 328.468275)"><g><path d="M 34.078125 0 L 20.875 0 L 20.875 -37.09375 C 20.875 -38.550781 20.128906 -39.28125 18.640625 -39.28125 L 2.296875 -39.28125 L 2.296875 -53.15625 L 24.6875 -53.15625 C 27.445312 -53.15625 29.707031 -52.273438 31.46875 -50.515625 C 33.207031 -48.773438 34.078125 -46.515625 34.078125 -43.734375 Z M 15.265625 0 L 2.328125 0 L 2.328125 -32.953125 L 15.265625 -32.953125 Z M 15.265625 0 "/></g></g></g><g fill="#cf4545" fill-opacity="1"><g transform="translate(349.187983, 328.468275)"><g/></g></g><g fill="#cf4545" fill-opacity="1"><g transform="translate(369.526024, 328.468275)"><g><path d="M 36.765625 0 L 23.796875 0 L 23.796875 -36.765625 C 23.796875 -38.441406 23.03125 -39.28125 21.5 -39.28125 L 19.75 -39.28125 C 18.195312 -39.28125 17.421875 -38.441406 17.421875 -36.765625 L 17.421875 -6.375 C 17.421875 -2.125 15.640625 0 12.078125 0 L 0.890625 0 L 0.890625 -13.875 L 3.140625 -13.875 C 3.890625 -13.875 4.265625 -14.203125 4.265625 -14.859375 L 4.265625 -42.96875 C 4.265625 -46.59375 4.96875 -49.195312 6.375 -50.78125 C 7.78125 -52.363281 10.265625 -53.15625 13.828125 -53.15625 L 27.84375 -53.15625 C 33.789062 -53.15625 36.765625 -49.757812 36.765625 -42.96875 Z M 36.765625 0 "/></g></g></g><g fill="#cf4545" fill-opacity="1"><g transform="translate(408.630734, 328.468275)"><g><path d="M 25.765625 -8.34375 C 25.765625 -2.78125 23.132812 0 17.875 0 L 1.84375 0 L 1.84375 -13.875 L 11.046875 -13.875 C 12.117188 -13.875 12.65625 -14.53125 12.65625 -15.84375 L 12.65625 -37.09375 C 12.65625 -38.550781 12 -39.28125 10.6875 -39.28125 L 5.65625 -39.28125 L 5.65625 -53.15625 L 17.640625 -53.15625 C 23.054688 -53.15625 25.765625 -50.359375 25.765625 -44.765625 Z M 25.765625 -8.34375 "/></g></g></g><g fill="#cf4545" fill-opacity="1"><g transform="translate(436.690935, 328.468275)"><g><path d="M 31.515625 0 L 18.546875 0 L 16.203125 -14.734375 C 15.273438 -14.734375 14.691406 -14.070312 14.453125 -12.75 L 12.03125 0 L 0.453125 0 L 3.546875 -15.359375 C 4.921875 -22.296875 8.140625 -25.765625 13.203125 -25.765625 L 15.359375 -25.765625 L 15.359375 -37.09375 C 15.359375 -38.550781 14.519531 -39.28125 12.84375 -39.28125 L 3.59375 -39.28125 L 3.59375 -53.15625 L 18.59375 -53.15625 C 25.144531 -53.15625 28.421875 -49.710938 28.421875 -42.828125 L 28.421875 -24.96875 C 28.421875 -23.082031 28.472656 -21.34375 28.578125 -19.75 C 28.679688 -18.164062 28.835938 -16.71875 29.046875 -15.40625 Z M 31.515625 0 "/></g></g></g><g fill="#cf4545" fill-opacity="1"><g transform="translate(469.150998, 328.468275)"><g><path d="M 34.078125 0 L 20.875 0 L 20.875 -37.09375 C 20.875 -38.550781 20.128906 -39.28125 18.640625 -39.28125 L 2.296875 -39.28125 L 2.296875 -53.15625 L 24.6875 -53.15625 C 27.445312 -53.15625 29.707031 -52.273438 31.46875 -50.515625 C 33.207031 -48.773438 34.078125 -46.515625 34.078125 -43.734375 Z M 15.265625 0 L 2.328125 0 L 2.328125 -32.953125 L 15.265625 -32.953125 Z M 15.265625 0 "/></g></g></g><g fill="#cf4545" fill-opacity="1"><g transform="translate(505.517032, 328.468275)"><g><path d="M 31.75 -19.21875 C 31.75 -6.40625 25.609375 0 13.328125 0 L 7.71875 0 L 7.71875 -13.875 L 11.5 -13.875 C 14.394531 -13.875 16.367188 -14.800781 17.421875 -16.65625 C 18.171875 -17.976562 18.546875 -20.269531 18.546875 -23.53125 L 18.546875 -37.09375 C 18.546875 -38.550781 17.796875 -39.28125 16.296875 -39.28125 L 2.296875 -39.28125 L 2.296875 -59.765625 L 15.3125 -59.765625 L 15.3125 -53.15625 L 25.09375 -53.15625 C 29.53125 -53.15625 31.75 -51.015625 31.75 -46.734375 Z M 31.75 -19.21875 "/></g></g></g><g fill="#cf4545" fill-opacity="1"><g transform="translate(539.548456, 328.468275)"><g/></g></g><g fill="#cf4545" fill-opacity="1"><g transform="translate(559.886486, 328.468275)"><g><path d="M 30.359375 -39.28125 C 27.421875 -39.28125 25.953125 -37.84375 25.953125 -34.96875 L 25.953125 0 L 12.75 0 L 12.75 -31.296875 C 12.75 -35.398438 14.484375 -38.0625 17.953125 -39.28125 L 1.390625 -39.28125 L 1.390625 -53.15625 L 30.359375 -53.15625 Z M 30.359375 -39.28125 "/></g></g></g><g fill="#cf4545" fill-opacity="1"><g transform="translate(592.526134, 328.468275)"><g><path d="M 28.46875 0 L 15.3125 0 L 15.3125 -37.09375 C 15.3125 -38.550781 14.546875 -39.28125 13.015625 -39.28125 L 1.390625 -39.28125 L 1.390625 -53.15625 L 19.078125 -53.15625 C 21.835938 -53.15625 24.097656 -52.273438 25.859375 -50.515625 C 27.597656 -48.773438 28.46875 -46.515625 28.46875 -43.734375 Z M 28.46875 0 "/></g></g></g><g fill="#cf4545" fill-opacity="1"><g transform="translate(623.280114, 328.468275)"><g><path d="M 14.8125 -38.078125 L 16.84375 -38.078125 C 18.300781 -38.078125 19.03125 -38.867188 19.03125 -40.453125 L 19.03125 -53.15625 L 31.03125 -53.15625 L 31.03125 -38.25 C 31.03125 -32.050781 28.347656 -28.953125 22.984375 -28.953125 L 14.8125 -28.953125 L 14.8125 -16.296875 C 14.8125 -14.679688 15.488281 -13.875 16.84375 -13.875 L 33.21875 -13.875 C 34.539062 -13.875 35.203125 -14.679688 35.203125 -16.296875 L 35.203125 -53.15625 L 47.765625 -53.15625 L 47.765625 -12.078125 C 47.765625 -8.421875 46.820312 -5.519531 44.9375 -3.375 C 42.96875 -1.125 40.171875 0 36.546875 0 L 13.515625 0 C 6.035156 0 2.296875 -4.023438 2.296875 -12.078125 L 2.296875 -53.15625 L 14.8125 -53.15625 Z M 14.8125 -38.078125 "/></g></g></g><g fill="#cf4545" fill-opacity="1"><g transform="translate(673.339542, 328.468275)"><g><path d="M 37.578125 -9.5625 C 37.578125 -3.1875 34.691406 0 28.921875 0 L 19.75 0 L 19.75 -13.921875 L 22.5 -13.921875 C 23.84375 -13.921875 24.515625 -14.726562 24.515625 -16.34375 L 24.515625 -36.59375 C 24.515625 -38.207031 24.109375 -39.015625 23.296875 -39.015625 C 22.492188 -39.015625 21.941406 -38.101562 21.640625 -36.28125 L 15.125 0 L 2.296875 0 L 7.765625 -29.671875 L 5.203125 -29.671875 C 3.203125 -29.671875 2.203125 -30.660156 2.203125 -32.640625 L 2.203125 -53.15625 L 15.21875 -53.15625 L 15.21875 -34.390625 L 17.828125 -44.671875 C 19.265625 -50.328125 22.363281 -53.15625 27.125 -53.15625 L 27.796875 -53.15625 C 34.316406 -53.15625 37.578125 -49.175781 37.578125 -41.21875 Z M 37.578125 -9.5625 "/></g></g></g><g fill="#cf4545" fill-opacity="1"><g transform="translate(713.20749, 328.468275)"><g><path d="M 34.078125 0 L 20.875 0 L 20.875 -37.09375 C 20.875 -38.550781 20.128906 -39.28125 18.640625 -39.28125 L 2.296875 -39.28125 L 2.296875 -53.15625 L 24.6875 -53.15625 C 27.445312 -53.15625 29.707031 -52.273438 31.46875 -50.515625 C 33.207031 -48.773438 34.078125 -46.515625 34.078125 -43.734375 Z M 15.265625 0 L 2.328125 0 L 2.328125 -32.953125 L 15.265625 -32.953125 Z M 15.265625 0 "/></g></g></g><g fill="#cf4545" fill-opacity="1"><g transform="translate(749.573547, 328.468275)"><g/></g></g><g fill="#cf4545" fill-opacity="1"><g transform="translate(769.911577, 328.468275)"><g><path d="M 36.765625 0 L 23.796875 0 L 23.796875 -36.765625 C 23.796875 -38.441406 23.03125 -39.28125 21.5 -39.28125 L 19.75 -39.28125 C 18.195312 -39.28125 17.421875 -38.441406 17.421875 -36.765625 L 17.421875 -6.375 C 17.421875 -2.125 15.640625 0 12.078125 0 L 0.890625 0 L 0.890625 -13.875 L 3.140625 -13.875 C 3.890625 -13.875 4.265625 -14.203125 4.265625 -14.859375 L 4.265625 -42.96875 C 4.265625 -46.59375 4.96875 -49.195312 6.375 -50.78125 C 7.78125 -52.363281 10.265625 -53.15625 13.828125 -53.15625 L 27.84375 -53.15625 C 33.789062 -53.15625 36.765625 -49.757812 36.765625 -42.96875 Z M 36.765625 0 "/></g></g></g><g fill="#cf4545" fill-opacity="1"><g transform="translate(809.016299, 328.468275)"><g><path d="M 37.578125 -9.5625 C 37.578125 -3.1875 34.691406 0 28.921875 0 L 19.75 0 L 19.75 -13.921875 L 22.5 -13.921875 C 23.84375 -13.921875 24.515625 -14.726562 24.515625 -16.34375 L 24.515625 -36.59375 C 24.515625 -38.207031 24.109375 -39.015625 23.296875 -39.015625 C 22.492188 -39.015625 21.941406 -38.101562 21.640625 -36.28125 L 15.125 0 L 2.296875 0 L 7.765625 -29.671875 L 5.203125 -29.671875 C 3.203125 -29.671875 2.203125 -30.660156 2.203125 -32.640625 L 2.203125 -53.15625 L 15.21875 -53.15625 L 15.21875 -34.390625 L 17.828125 -44.671875 C 19.265625 -50.328125 22.363281 -53.15625 27.125 -53.15625 L 27.796875 -53.15625 C 34.316406 -53.15625 37.578125 -49.175781 37.578125 -41.21875 Z M 37.578125 -9.5625 "/></g></g></g><g fill="#cf4545" fill-opacity="1"><g transform="translate(848.884247, 328.468275)"><g><path d="M 34.4375 -16.4375 C 34.4375 -11.019531 33.550781 -7.019531 31.78125 -4.4375 C 29.632812 -1.382812 25.96875 0.140625 20.78125 0.140625 C 19.851562 0.140625 18.882812 0.09375 17.875 0 L 17.875 -13.875 C 20.144531 -13.875 21.28125 -15.550781 21.28125 -18.90625 L 21.28125 -37.09375 C 21.28125 -38.550781 20.519531 -39.28125 19 -39.28125 L 2.296875 -39.28125 L 2.296875 -53.15625 L 27.796875 -53.15625 C 32.222656 -53.15625 34.4375 -51.015625 34.4375 -46.734375 Z M 15.359375 7.671875 L 2.375 7.671875 L 2.375 -33.453125 L 15.359375 -33.453125 Z M 15.359375 7.671875 "/></g></g></g><g fill="#cf4545" fill-opacity="1"><g transform="translate(885.654359, 328.468275)"><g><path d="M 34.078125 0 L 20.875 0 L 20.875 -37.09375 C 20.875 -38.550781 20.128906 -39.28125 18.640625 -39.28125 L 2.296875 -39.28125 L 2.296875 -53.15625 L 24.6875 -53.15625 C 27.445312 -53.15625 29.707031 -52.273438 31.46875 -50.515625 C 33.207031 -48.773438 34.078125 -46.515625 34.078125 -43.734375 Z M 15.265625 0 L 2.328125 0 L 2.328125 -32.953125 L 15.265625 -32.953125 Z M 15.265625 0 "/></g></g></g></svg>