<svg xmlns="http://www.w3.org/2000/svg" xmlns:xlink="http://www.w3.org/1999/xlink" width="1486" zoomAndPan="magnify" viewBox="0 0 1114.5 516.750002" height="689" preserveAspectRatio="xMidYMid meet" version="1.0"><defs><g/><clipPath id="d2cf4a5509"><path d="M 0.0195312 0 L 1113.980469 0 L 1113.980469 516.332031 L 0.0195312 516.332031 Z M 0.0195312 0 " clip-rule="nonzero"/></clipPath><clipPath id="a0052027e4"><path d="M 38.25 0 L 1075.71875 0 C 1085.859375 0 1095.582031 4.027344 1102.753906 11.199219 C 1109.921875 18.367188 1113.949219 28.09375 1113.949219 38.230469 L 1113.949219 478.101562 C 1113.949219 488.242188 1109.921875 497.964844 1102.753906 505.136719 C 1095.582031 512.304688 1085.859375 516.332031 1075.71875 516.332031 L 38.25 516.332031 C 28.113281 516.332031 18.386719 512.304688 11.21875 505.136719 C 4.046875 497.964844 0.0195312 488.242188 0.0195312 478.101562 L 0.0195312 38.230469 C 0.0195312 28.09375 4.046875 18.367188 11.21875 11.199219 C 18.386719 4.027344 28.113281 0 38.25 0 Z M 38.25 0 " clip-rule="nonzero"/></clipPath><clipPath id="3a9a7ea316"><path d="M 0.0273438 0 L 1113.980469 0 L 1113.980469 516.5 L 0.0273438 516.5 Z M 0.0273438 0 " clip-rule="nonzero"/></clipPath><clipPath id="532db6c4e2"><path d="M 38.257812 0 L 1075.707031 0 C 1085.847656 0 1095.570312 4.027344 1102.742188 11.199219 C 1109.910156 18.367188 1113.941406 28.089844 1113.941406 38.230469 L 1113.941406 478.09375 C 1113.941406 488.234375 1109.910156 497.957031 1102.742188 505.125 C 1095.570312 512.296875 1085.847656 516.324219 1075.707031 516.324219 L 38.257812 516.324219 C 28.117188 516.324219 18.394531 512.296875 11.222656 505.125 C 4.054688 497.957031 0.0273438 488.234375 0.0273438 478.09375 L 0.0273438 38.230469 C 0.0273438 28.089844 4.054688 18.367188 11.222656 11.199219 C 18.394531 4.027344 28.117188 0 38.257812 0 Z M 38.257812 0 " clip-rule="nonzero"/></clipPath></defs><g clip-path="url(#d2cf4a5509)"><g clip-path="url(#a0052027e4)"><path fill="#ffcf7e" d="M 0.0195312 0 L 1113.363281 0 L 1113.363281 516.332031 L 0.0195312 516.332031 Z M 0.0195312 0 " fill-opacity="1" fill-rule="nonzero"/></g></g><g clip-path="url(#3a9a7ea316)"><g clip-path="url(#532db6c4e2)"><path stroke-linecap="butt" transform="matrix(0.749637, 0, 0, 0.749637, 0.0256264, 0.0000199903)" fill="none" stroke-linejoin="miter" d="M 51.000909 -0.0000266667 L 1434.935712 -0.0000266667 C 1448.463086 -0.0000266667 1461.43811 5.372363 1471.000025 14.939489 C 1480.56194 24.501404 1485.93954 37.471217 1485.93954 50.998591 L 1485.93954 637.766688 C 1485.93954 651.294062 1480.56194 664.263875 1471.000025 673.82579 C 1461.43811 683.392916 1448.463086 688.765306 1434.935712 688.765306 L 51.000909 688.765306 C 37.473534 688.765306 24.503721 683.392916 14.936595 673.82579 C 5.37468 664.263875 0.00229086 651.294062 0.00229086 637.766688 L 0.00229086 50.998591 C 0.00229086 37.471217 5.37468 24.501404 14.936595 14.939489 C 24.503721 5.372363 37.473534 -0.0000266667 51.000909 -0.0000266667 Z M 51.000909 -0.0000266667 " stroke="#cf4545" stroke-width="40" stroke-opacity="1" stroke-miterlimit="4"/></g></g><g fill="#cf4545" fill-opacity="1"><g transform="translate(955.16379, 84.723757)"><g><path d="M 10.921875 -20.5625 L 1.4375 -20.5625 L 1.4375 -30.8125 L 10.921875 -30.8125 Z M 10.921875 0 L 1.4375 0 L 1.4375 -10.296875 L 10.921875 -10.296875 Z M 10.921875 0 "/></g></g></g><g fill="#cf4545" fill-opacity="1"><g transform="translate(967.392249, 84.723757)"><g><path d="M 21.890625 0 L 11.671875 0 L 11.671875 -30.71875 L 4.75 -30.71875 L 4.75 -41.609375 L 13.953125 -41.609375 C 19.242188 -41.609375 21.890625 -38.9375 21.890625 -33.59375 Z M 21.890625 0 "/></g></g><g transform="translate(995.468509, 84.723757)"><g><path d="M 25.96875 -7.984375 C 25.96875 -2.660156 23.539062 0 18.6875 0 L 3.578125 0 L 3.578125 -10.859375 L 15.84375 -10.859375 L 15.84375 -15.78125 L 9.421875 -15.78125 C 4.566406 -15.78125 2.140625 -18.4375 2.140625 -23.75 L 2.140625 -33.59375 C 2.140625 -38.9375 4.832031 -41.609375 10.21875 -41.609375 L 17.921875 -41.609375 C 20.359375 -41.609375 22.300781 -40.878906 23.75 -39.421875 C 25.226562 -37.972656 25.96875 -36.03125 25.96875 -33.59375 Z M 15.84375 -25.203125 L 15.84375 -30.71875 L 12.296875 -30.71875 L 12.296875 -25.203125 Z M 15.84375 -25.203125 "/></g></g><g transform="translate(1023.544768, 84.723757)"><g><path d="M 25.484375 -7.984375 C 25.484375 -2.660156 22.800781 0 17.4375 0 L 2.671875 0 L 3.4375 -10.859375 L 15.328125 -10.859375 L 15.328125 -14.96875 L 4.25 -14.96875 L 7.0625 -41.609375 L 25.484375 -41.609375 L 24.671875 -30.71875 L 16.40625 -30.71875 L 15.609375 -25.828125 L 17.859375 -25.828125 C 22.941406 -25.828125 25.484375 -23.285156 25.484375 -18.203125 Z M 25.484375 -7.984375 "/></g></g><g transform="translate(1051.621028, 84.723757)"><g><path d="M 25.484375 -7.984375 C 25.484375 -2.660156 22.800781 0 17.4375 0 L 2.671875 0 L 3.4375 -10.859375 L 15.328125 -10.859375 L 15.328125 -14.96875 L 4.25 -14.96875 L 7.0625 -41.609375 L 25.484375 -41.609375 L 24.671875 -30.71875 L 16.40625 -30.71875 L 15.609375 -25.828125 L 17.859375 -25.828125 C 22.941406 -25.828125 25.484375 -23.285156 25.484375 -18.203125 Z M 25.484375 -7.984375 "/></g></g></g><g fill="#cf4545" fill-opacity="1"><g transform="translate(84.169509, 201.760097)"><g><path d="M 32.59375 0 L 19.96875 0 L 19.96875 -35.46875 C 19.96875 -36.875 19.253906 -37.578125 17.828125 -37.578125 L 2.1875 -37.578125 L 2.1875 -50.84375 L 23.625 -50.84375 C 26.257812 -50.84375 28.421875 -50 30.109375 -48.3125 C 31.765625 -46.65625 32.59375 -44.492188 32.59375 -41.828125 Z M 14.609375 0 L 2.234375 0 L 2.234375 -31.515625 L 14.609375 -31.515625 Z M 14.609375 0 "/></g></g></g><g fill="#cf4545" fill-opacity="1"><g transform="translate(118.955821, 201.760097)"><g><path d="M 24.65625 -7.984375 C 24.65625 -2.660156 22.132812 0 17.09375 0 L 1.765625 0 L 1.765625 -13.265625 L 10.5625 -13.265625 C 11.59375 -13.265625 12.109375 -13.894531 12.109375 -15.15625 L 12.109375 -35.46875 C 12.109375 -36.875 11.476562 -37.578125 10.21875 -37.578125 L 5.40625 -37.578125 L 5.40625 -50.84375 L 16.875 -50.84375 C 22.0625 -50.84375 24.65625 -48.164062 24.65625 -42.8125 Z M 24.65625 -7.984375 "/></g></g></g><g fill="#cf4545" fill-opacity="1"><g transform="translate(145.797116, 201.760097)"><g><path d="M 14.609375 0 L 2.1875 0 L 2.1875 -50.84375 L 14.609375 -50.84375 Z M 14.609375 0 "/></g></g></g><g fill="#cf4545" fill-opacity="1"><g transform="translate(162.589033, 201.760097)"><g><path d="M 14.4375 -28.296875 L 2.109375 -28.296875 L 2.109375 -50.84375 L 14.4375 -50.84375 Z M 14.4375 -28.296875 "/></g></g></g><g fill="#cf4545" fill-opacity="1"><g transform="translate(179.209165, 201.760097)"><g><path d="M 30.359375 -18.375 C 30.359375 -6.125 24.488281 0 12.75 0 L 7.390625 0 L 7.390625 -13.265625 L 11 -13.265625 C 13.769531 -13.265625 15.65625 -14.15625 16.65625 -15.9375 C 17.375 -17.195312 17.734375 -19.382812 17.734375 -22.5 L 17.734375 -35.46875 C 17.734375 -36.875 17.019531 -37.578125 15.59375 -37.578125 L 2.1875 -37.578125 L 2.1875 -57.15625 L 14.640625 -57.15625 L 14.640625 -50.84375 L 24 -50.84375 C 28.238281 -50.84375 30.359375 -48.796875 30.359375 -44.703125 Z M 30.359375 -18.375 "/></g></g></g><g fill="#cf4545" fill-opacity="1"><g transform="translate(211.762282, 201.760097)"><g><path d="M 33.671875 -13.40625 C 33.671875 -4.46875 30.003906 0 22.671875 0 L 1.328125 0 L 1.328125 -13.265625 L 4.34375 -13.265625 L 4.34375 -50.84375 L 16.75 -50.84375 L 16.75 -13.265625 L 19.234375 -13.265625 C 20.671875 -13.265625 21.390625 -14.253906 21.390625 -16.234375 L 21.390625 -50.84375 L 33.671875 -50.84375 Z M 33.671875 -13.40625 "/></g></g></g><g fill="#cf4545" fill-opacity="1"><g transform="translate(247.622252, 201.760097)"><g/></g></g><g fill="#cf4545" fill-opacity="1"><g transform="translate(267.076825, 201.760097)"><g><path d="M 35.171875 0 L 22.765625 0 L 22.765625 -35.171875 C 22.765625 -36.773438 22.035156 -37.578125 20.578125 -37.578125 L 18.890625 -37.578125 C 17.398438 -37.578125 16.65625 -36.773438 16.65625 -35.171875 L 16.65625 -6.09375 C 16.65625 -2.03125 14.953125 0 11.546875 0 L 0.859375 0 L 0.859375 -13.265625 L 3 -13.265625 C 3.71875 -13.265625 4.078125 -13.582031 4.078125 -14.21875 L 4.078125 -41.09375 C 4.078125 -44.5625 4.75 -47.054688 6.09375 -48.578125 C 7.4375 -50.085938 9.816406 -50.84375 13.234375 -50.84375 L 26.625 -50.84375 C 32.320312 -50.84375 35.171875 -47.59375 35.171875 -41.09375 Z M 35.171875 0 "/></g></g></g><g fill="#cf4545" fill-opacity="1"><g transform="translate(304.482852, 201.760097)"><g><path d="M 14.4375 -28.296875 L 2.109375 -28.296875 L 2.109375 -50.84375 L 14.4375 -50.84375 Z M 14.4375 -28.296875 "/></g></g></g><g fill="#cf4545" fill-opacity="1"><g transform="translate(321.102984, 201.760097)"><g><path d="M 29.03125 -37.578125 C 26.226562 -37.578125 24.828125 -36.203125 24.828125 -33.453125 L 24.828125 0 L 12.203125 0 L 12.203125 -29.9375 C 12.203125 -33.851562 13.859375 -36.398438 17.171875 -37.578125 L 1.328125 -37.578125 L 1.328125 -50.84375 L 29.03125 -50.84375 Z M 29.03125 -37.578125 "/></g></g></g><g fill="#cf4545" fill-opacity="1"><g transform="translate(352.324778, 201.760097)"><g><path d="M 27.234375 0 L 14.640625 0 L 14.640625 -35.46875 C 14.640625 -36.875 13.910156 -37.578125 12.453125 -37.578125 L 1.328125 -37.578125 L 1.328125 -50.84375 L 18.25 -50.84375 C 20.882812 -50.84375 23.046875 -50 24.734375 -48.3125 C 26.398438 -46.65625 27.234375 -44.492188 27.234375 -41.828125 Z M 27.234375 0 "/></g></g></g><g fill="#cf4545" fill-opacity="1"><g transform="translate(381.742849, 201.760097)"><g><path d="M 14.171875 -36.421875 L 16.109375 -36.421875 C 17.503906 -36.421875 18.203125 -37.175781 18.203125 -38.6875 L 18.203125 -50.84375 L 29.671875 -50.84375 L 29.671875 -36.59375 C 29.671875 -30.664062 27.109375 -27.703125 21.984375 -27.703125 L 14.171875 -27.703125 L 14.171875 -15.59375 C 14.171875 -14.039062 14.816406 -13.265625 16.109375 -13.265625 L 31.78125 -13.265625 C 33.039062 -13.265625 33.671875 -14.039062 33.671875 -15.59375 L 33.671875 -50.84375 L 45.6875 -50.84375 L 45.6875 -11.546875 C 45.6875 -8.054688 44.785156 -5.28125 42.984375 -3.21875 C 41.097656 -1.070312 38.421875 0 34.953125 0 L 12.921875 0 C 5.765625 0 2.1875 -3.847656 2.1875 -11.546875 L 2.1875 -50.84375 L 14.171875 -50.84375 Z M 14.171875 -36.421875 "/></g></g></g><g fill="#cf4545" fill-opacity="1"><g transform="translate(429.627716, 201.760097)"><g><path d="M 35.953125 -9.140625 C 35.953125 -3.046875 33.1875 0 27.65625 0 L 18.890625 0 L 18.890625 -13.3125 L 21.515625 -13.3125 C 22.804688 -13.3125 23.453125 -14.082031 23.453125 -15.625 L 23.453125 -35 C 23.453125 -36.539062 23.0625 -37.3125 22.28125 -37.3125 C 21.507812 -37.3125 20.984375 -36.441406 20.703125 -34.703125 L 14.46875 0 L 2.1875 0 L 7.421875 -28.390625 L 4.984375 -28.390625 C 3.066406 -28.390625 2.109375 -29.332031 2.109375 -31.21875 L 2.109375 -50.84375 L 14.5625 -50.84375 L 14.5625 -32.890625 L 17.046875 -42.734375 C 18.421875 -48.140625 21.382812 -50.84375 25.9375 -50.84375 L 26.578125 -50.84375 C 32.828125 -50.84375 35.953125 -47.035156 35.953125 -39.421875 Z M 35.953125 -9.140625 "/></g></g></g><g fill="#cf4545" fill-opacity="1"><g transform="translate(467.763821, 201.760097)"><g/></g></g><g fill="#cf4545" fill-opacity="1"><g transform="translate(487.218382, 201.760097)"><g><path d="M 14.609375 7.296875 L 2.1875 7.296875 L 2.1875 -50.84375 L 14.609375 -50.84375 Z M 14.609375 7.296875 "/></g></g></g><g fill="#cf4545" fill-opacity="1"><g transform="translate(504.010322, 201.760097)"><g><path d="M 14.4375 -28.296875 L 2.109375 -28.296875 L 2.109375 -50.84375 L 14.4375 -50.84375 Z M 14.4375 -28.296875 "/></g></g></g><g fill="#cf4545" fill-opacity="1"><g transform="translate(520.630454, 201.760097)"><g><path d="M 31.21875 0 L 2.1875 0 L 2.1875 -13.265625 L 11.859375 -13.265625 C 14.691406 -13.265625 16.109375 -14.941406 16.109375 -18.296875 L 16.109375 -33.546875 C 16.109375 -35.035156 15.847656 -36.078125 15.328125 -36.671875 C 14.816406 -37.273438 13.832031 -37.578125 12.375 -37.578125 L 2.1875 -37.578125 L 2.1875 -50.84375 L 18.890625 -50.84375 C 25.453125 -50.84375 28.734375 -46.960938 28.734375 -39.203125 L 28.734375 -21.8125 C 28.734375 -17.320312 27.054688 -14.472656 23.703125 -13.265625 L 31.21875 -13.265625 Z M 31.21875 0 "/></g></g></g><g fill="#cf4545" fill-opacity="1"><g transform="translate(553.613031, 201.760097)"><g/></g></g><g fill="#cf4545" fill-opacity="1"><g transform="translate(573.067592, 201.760097)"><g><path d="M 32.59375 0 L 19.96875 0 L 19.96875 -35.46875 C 19.96875 -36.875 19.253906 -37.578125 17.828125 -37.578125 L 2.1875 -37.578125 L 2.1875 -50.84375 L 23.625 -50.84375 C 26.257812 -50.84375 28.421875 -50 30.109375 -48.3125 C 31.765625 -46.65625 32.59375 -44.492188 32.59375 -41.828125 Z M 14.609375 0 L 2.234375 0 L 2.234375 -31.515625 L 14.609375 -31.515625 Z M 14.609375 0 "/></g></g></g><g fill="#cf4545" fill-opacity="1"><g transform="translate(607.853893, 201.760097)"><g><path d="M 29.03125 -37.578125 C 26.226562 -37.578125 24.828125 -36.203125 24.828125 -33.453125 L 24.828125 0 L 12.203125 0 L 12.203125 -29.9375 C 12.203125 -33.851562 13.859375 -36.398438 17.171875 -37.578125 L 1.328125 -37.578125 L 1.328125 -50.84375 L 29.03125 -50.84375 Z M 29.03125 -37.578125 "/></g></g></g><g fill="#cf4545" fill-opacity="1"><g transform="translate(639.07571, 201.760097)"><g><path d="M 33.671875 -13.40625 C 33.671875 -4.46875 30.003906 0 22.671875 0 L 1.328125 0 L 1.328125 -13.265625 L 4.34375 -13.265625 L 4.34375 -50.84375 L 16.75 -50.84375 L 16.75 -13.265625 L 19.234375 -13.265625 C 20.671875 -13.265625 21.390625 -14.253906 21.390625 -16.234375 L 21.390625 -50.84375 L 33.671875 -50.84375 Z M 33.671875 -13.40625 "/></g></g></g><g fill="#cf4545" fill-opacity="1"><g transform="translate(674.935679, 201.760097)"><g><path d="M 14.609375 0 L 2.1875 0 L 2.1875 -50.84375 L 14.609375 -50.84375 Z M 14.609375 0 "/></g></g></g><g fill="#cf4545" fill-opacity="1"><g transform="translate(691.727573, 201.760097)"><g/></g></g><g fill="#cf4545" fill-opacity="1"><g transform="translate(711.182134, 201.760097)"><g><path d="M 14.4375 -28.296875 L 2.109375 -28.296875 L 2.109375 -50.84375 L 14.4375 -50.84375 Z M 14.4375 -28.296875 "/></g></g></g><g fill="#cf4545" fill-opacity="1"><g transform="translate(727.802266, 201.760097)"><g><path d="M 14.609375 0 L 2.1875 0 L 2.1875 -50.84375 L 14.609375 -50.84375 Z M 14.609375 0 "/></g></g></g><g fill="#cf4545" fill-opacity="1"><g transform="translate(744.594205, 201.760097)"><g><path d="M 24.65625 -7.984375 C 24.65625 -2.660156 22.132812 0 17.09375 0 L 1.765625 0 L 1.765625 -13.265625 L 10.5625 -13.265625 C 11.59375 -13.265625 12.109375 -13.894531 12.109375 -15.15625 L 12.109375 -35.46875 C 12.109375 -36.875 11.476562 -37.578125 10.21875 -37.578125 L 5.40625 -37.578125 L 5.40625 -50.84375 L 16.875 -50.84375 C 22.0625 -50.84375 24.65625 -48.164062 24.65625 -42.8125 Z M 24.65625 -7.984375 "/></g></g></g><g fill="#cf4545" fill-opacity="1"><g transform="translate(771.435512, 201.760097)"><g><path d="M 14.4375 -28.296875 L 2.109375 -28.296875 L 2.109375 -50.84375 L 14.4375 -50.84375 Z M 14.4375 -28.296875 "/></g></g></g><g fill="#cf4545" fill-opacity="1"><g transform="translate(788.055645, 201.760097)"><g><path d="M 35.953125 -9.140625 C 35.953125 -3.046875 33.1875 0 27.65625 0 L 18.890625 0 L 18.890625 -13.3125 L 21.515625 -13.3125 C 22.804688 -13.3125 23.453125 -14.082031 23.453125 -15.625 L 23.453125 -35 C 23.453125 -36.539062 23.0625 -37.3125 22.28125 -37.3125 C 21.507812 -37.3125 20.984375 -36.441406 20.703125 -34.703125 L 14.46875 0 L 2.1875 0 L 7.421875 -28.390625 L 4.984375 -28.390625 C 3.066406 -28.390625 2.109375 -29.332031 2.109375 -31.21875 L 2.109375 -50.84375 L 14.5625 -50.84375 L 14.5625 -32.890625 L 17.046875 -42.734375 C 18.421875 -48.140625 21.382812 -50.84375 25.9375 -50.84375 L 26.578125 -50.84375 C 32.828125 -50.84375 35.953125 -47.035156 35.953125 -39.421875 Z M 35.953125 -9.140625 "/></g></g></g><g fill="#cf4545" fill-opacity="1"><g transform="translate(826.19175, 201.760097)"><g/></g></g><g fill="#cf4545" fill-opacity="1"><g transform="translate(845.646311, 201.760097)"><g><path d="M 23.65625 -18.203125 L 2.625 -18.203125 L 2.625 -31.484375 L 23.65625 -31.484375 Z M 23.65625 -18.203125 "/></g></g></g><g fill="#cf4545" fill-opacity="1"><g transform="translate(871.929325, 201.760097)"><g/></g></g><g fill="#cf4545" fill-opacity="1"><g transform="translate(891.38833, 201.760097)"><g><path d="M 26.75 0 L 14.265625 0 L 14.265625 -37.53125 L 5.796875 -37.53125 L 5.796875 -50.84375 L 17.046875 -50.84375 C 23.515625 -50.84375 26.75 -47.582031 26.75 -41.0625 Z M 26.75 0 "/></g></g></g><g fill="#cf4545" fill-opacity="1"><g transform="translate(925.702241, 201.760097)"><g><path d="M 31.734375 -9.75 C 31.734375 -3.25 28.769531 0 22.84375 0 L 4.375 0 L 4.375 -13.265625 L 19.375 -13.265625 L 19.375 -19.28125 L 11.515625 -19.28125 C 5.585938 -19.28125 2.625 -22.53125 2.625 -29.03125 L 2.625 -41.0625 C 2.625 -47.582031 5.914062 -50.84375 12.5 -50.84375 L 21.90625 -50.84375 C 24.882812 -50.84375 27.257812 -49.957031 29.03125 -48.1875 C 30.832031 -46.40625 31.734375 -44.03125 31.734375 -41.0625 Z M 19.375 -30.796875 L 19.375 -37.53125 L 15.03125 -37.53125 L 15.03125 -30.796875 Z M 19.375 -30.796875 "/></g></g></g><g fill="#cf4545" fill-opacity="1"><g transform="translate(960.016152, 201.760097)"><g><path d="M 31.140625 -9.75 C 31.140625 -3.25 27.859375 0 21.296875 0 L 3.265625 0 L 4.203125 -13.265625 L 18.71875 -13.265625 L 18.71875 -18.296875 L 5.203125 -18.296875 L 8.625 -50.84375 L 31.140625 -50.84375 L 30.140625 -37.53125 L 20.0625 -37.53125 L 19.0625 -31.5625 L 21.8125 -31.5625 C 28.03125 -31.5625 31.140625 -28.457031 31.140625 -22.25 Z M 31.140625 -9.75 "/></g></g></g><g fill="#cf4545" fill-opacity="1"><g transform="translate(994.330062, 201.760097)"><g><path d="M 31.140625 -9.75 C 31.140625 -3.25 27.859375 0 21.296875 0 L 3.265625 0 L 4.203125 -13.265625 L 18.71875 -13.265625 L 18.71875 -18.296875 L 5.203125 -18.296875 L 8.625 -50.84375 L 31.140625 -50.84375 L 30.140625 -37.53125 L 20.0625 -37.53125 L 19.0625 -31.5625 L 21.8125 -31.5625 C 28.03125 -31.5625 31.140625 -28.457031 31.140625 -22.25 Z M 31.140625 -9.75 "/></g></g></g><g fill="#cf4545" fill-opacity="1"><g transform="translate(119.004217, 293.965486)"><g><path d="M 35.171875 0 L 22.765625 0 L 22.765625 -35.171875 C 22.765625 -36.773438 22.035156 -37.578125 20.578125 -37.578125 L 18.890625 -37.578125 C 17.398438 -37.578125 16.65625 -36.773438 16.65625 -35.171875 L 16.65625 -6.09375 C 16.65625 -2.03125 14.953125 0 11.546875 0 L 0.859375 0 L 0.859375 -13.265625 L 3 -13.265625 C 3.71875 -13.265625 4.078125 -13.582031 4.078125 -14.21875 L 4.078125 -41.09375 C 4.078125 -44.5625 4.75 -47.054688 6.09375 -48.578125 C 7.4375 -50.085938 9.816406 -50.84375 13.234375 -50.84375 L 26.625 -50.84375 C 32.320312 -50.84375 35.171875 -47.59375 35.171875 -41.09375 Z M 35.171875 0 "/></g></g></g><g fill="#cf4545" fill-opacity="1"><g transform="translate(156.410245, 293.965486)"><g><path d="M 35.953125 -9.140625 C 35.953125 -3.046875 33.1875 0 27.65625 0 L 18.890625 0 L 18.890625 -13.3125 L 21.515625 -13.3125 C 22.804688 -13.3125 23.453125 -14.082031 23.453125 -15.625 L 23.453125 -35 C 23.453125 -36.539062 23.0625 -37.3125 22.28125 -37.3125 C 21.507812 -37.3125 20.984375 -36.441406 20.703125 -34.703125 L 14.46875 0 L 2.1875 0 L 7.421875 -28.390625 L 4.984375 -28.390625 C 3.066406 -28.390625 2.109375 -29.332031 2.109375 -31.21875 L 2.109375 -50.84375 L 14.5625 -50.84375 L 14.5625 -32.890625 L 17.046875 -42.734375 C 18.421875 -48.140625 21.382812 -50.84375 25.9375 -50.84375 L 26.578125 -50.84375 C 32.828125 -50.84375 35.953125 -47.035156 35.953125 -39.421875 Z M 35.953125 -9.140625 "/></g></g></g><g fill="#cf4545" fill-opacity="1"><g transform="translate(194.54635, 293.965486)"><g><path d="M 32.9375 -15.71875 C 32.9375 -10.53125 32.09375 -6.707031 30.40625 -4.25 C 28.34375 -1.332031 24.835938 0.125 19.890625 0.125 C 18.992188 0.125 18.0625 0.0820312 17.09375 0 L 17.09375 -13.265625 C 19.269531 -13.265625 20.359375 -14.867188 20.359375 -18.078125 L 20.359375 -35.46875 C 20.359375 -36.875 19.628906 -37.578125 18.171875 -37.578125 L 2.1875 -37.578125 L 2.1875 -50.84375 L 26.578125 -50.84375 C 30.816406 -50.84375 32.9375 -48.796875 32.9375 -44.703125 Z M 14.6875 7.34375 L 2.28125 7.34375 L 2.28125 -32 L 14.6875 -32 Z M 14.6875 7.34375 "/></g></g></g><g fill="#cf4545" fill-opacity="1"><g transform="translate(229.719182, 293.965486)"><g><path d="M 32.59375 0 L 19.96875 0 L 19.96875 -35.46875 C 19.96875 -36.875 19.253906 -37.578125 17.828125 -37.578125 L 2.1875 -37.578125 L 2.1875 -50.84375 L 23.625 -50.84375 C 26.257812 -50.84375 28.421875 -50 30.109375 -48.3125 C 31.765625 -46.65625 32.59375 -44.492188 32.59375 -41.828125 Z M 14.609375 0 L 2.234375 0 L 2.234375 -31.515625 L 14.609375 -31.515625 Z M 14.609375 0 "/></g></g></g><g fill="#cf4545" fill-opacity="1"><g transform="translate(264.505494, 293.965486)"><g/></g></g><g fill="#cf4545" fill-opacity="1"><g transform="translate(283.960067, 293.965486)"><g><path d="M 23.65625 -18.203125 L 2.625 -18.203125 L 2.625 -31.484375 L 23.65625 -31.484375 Z M 23.65625 -18.203125 "/></g></g></g><g fill="#cf4545" fill-opacity="1"><g transform="translate(310.243058, 293.965486)"><g/></g></g><g fill="#cf4545" fill-opacity="1"><g transform="translate(329.697642, 293.965486)"><g><path d="M 34.015625 0 L 2.1875 0 L 2.1875 -41.953125 C 2.1875 -45.128906 2.71875 -47.347656 3.78125 -48.609375 C 4.976562 -50.097656 7.125 -50.84375 10.21875 -50.84375 L 25.421875 -50.84375 C 31.148438 -50.84375 34.015625 -47.878906 34.015625 -41.953125 Z M 21.609375 -35.171875 C 21.609375 -36.773438 20.875 -37.578125 19.40625 -37.578125 L 17 -37.578125 C 15.539062 -37.578125 14.8125 -36.773438 14.8125 -35.171875 L 14.8125 -13.265625 L 21.609375 -13.265625 Z M 21.609375 -35.171875 "/></g></g></g><g fill="#cf4545" fill-opacity="1"><g transform="translate(365.90118, 293.965486)"><g><path d="M 14.609375 0 L 2.1875 0 L 2.1875 -50.84375 L 14.609375 -50.84375 Z M 14.609375 0 "/></g></g></g><g fill="#cf4545" fill-opacity="1"><g transform="translate(382.693097, 293.965486)"><g><path d="M 27.234375 0 L 14.640625 0 L 14.640625 -35.46875 C 14.640625 -36.875 13.910156 -37.578125 12.453125 -37.578125 L 1.328125 -37.578125 L 1.328125 -50.84375 L 18.25 -50.84375 C 20.882812 -50.84375 23.046875 -50 24.734375 -48.3125 C 26.398438 -46.65625 27.234375 -44.492188 27.234375 -41.828125 Z M 27.234375 0 "/></g></g></g><g fill="#cf4545" fill-opacity="1"><g transform="translate(412.111169, 293.965486)"><g><path d="M 14.4375 -28.296875 L 2.109375 -28.296875 L 2.109375 -50.84375 L 14.4375 -50.84375 Z M 14.4375 -28.296875 "/></g></g></g><g fill="#cf4545" fill-opacity="1"><g transform="translate(428.731301, 293.965486)"><g><path d="M 33.15625 0 L 20.703125 0 L 20.703125 -35.171875 C 20.703125 -36.773438 19.972656 -37.578125 18.515625 -37.578125 L 17 -37.578125 C 15.539062 -37.578125 14.8125 -36.773438 14.8125 -35.171875 L 14.8125 0 L 2.1875 0 L 2.1875 -41.953125 C 2.1875 -45.128906 2.71875 -47.347656 3.78125 -48.609375 C 4.976562 -50.097656 7.125 -50.84375 10.21875 -50.84375 L 24.5625 -50.84375 C 30.289062 -50.84375 33.15625 -47.878906 33.15625 -41.953125 Z M 33.15625 0 "/></g></g></g><g fill="#cf4545" fill-opacity="1"><g transform="translate(464.075917, 293.965486)"><g/></g></g><g fill="#cf4545" fill-opacity="1"><g transform="translate(483.530501, 293.965486)"><g><path d="M 35.171875 0 L 22.765625 0 L 22.765625 -35.171875 C 22.765625 -36.773438 22.035156 -37.578125 20.578125 -37.578125 L 18.890625 -37.578125 C 17.398438 -37.578125 16.65625 -36.773438 16.65625 -35.171875 L 16.65625 -6.09375 C 16.65625 -2.03125 14.953125 0 11.546875 0 L 0.859375 0 L 0.859375 -13.265625 L 3 -13.265625 C 3.71875 -13.265625 4.078125 -13.582031 4.078125 -14.21875 L 4.078125 -41.09375 C 4.078125 -44.5625 4.75 -47.054688 6.09375 -48.578125 C 7.4375 -50.085938 9.816406 -50.84375 13.234375 -50.84375 L 26.625 -50.84375 C 32.320312 -50.84375 35.171875 -47.59375 35.171875 -41.09375 Z M 35.171875 0 "/></g></g></g><g fill="#cf4545" fill-opacity="1"><g transform="translate(520.936552, 293.965486)"><g><path d="M 33.671875 -13.40625 C 33.671875 -4.46875 30.003906 0 22.671875 0 L 1.328125 0 L 1.328125 -13.265625 L 4.34375 -13.265625 L 4.34375 -50.84375 L 16.75 -50.84375 L 16.75 -13.265625 L 19.234375 -13.265625 C 20.671875 -13.265625 21.390625 -14.253906 21.390625 -16.234375 L 21.390625 -50.84375 L 33.671875 -50.84375 Z M 33.671875 -13.40625 "/></g></g></g><g fill="#cf4545" fill-opacity="1"><g transform="translate(556.796521, 293.965486)"><g><path d="M 14.171875 -36.421875 L 16.109375 -36.421875 C 17.503906 -36.421875 18.203125 -37.175781 18.203125 -38.6875 L 18.203125 -50.84375 L 29.671875 -50.84375 L 29.671875 -36.59375 C 29.671875 -30.664062 27.109375 -27.703125 21.984375 -27.703125 L 14.171875 -27.703125 L 14.171875 -15.59375 C 14.171875 -14.039062 14.816406 -13.265625 16.109375 -13.265625 L 31.78125 -13.265625 C 33.039062 -13.265625 33.671875 -14.039062 33.671875 -15.59375 L 33.671875 -50.84375 L 45.6875 -50.84375 L 45.6875 -11.546875 C 45.6875 -8.054688 44.785156 -5.28125 42.984375 -3.21875 C 41.097656 -1.070312 38.421875 0 34.953125 0 L 12.921875 0 C 5.765625 0 2.1875 -3.847656 2.1875 -11.546875 L 2.1875 -50.84375 L 14.171875 -50.84375 Z M 14.171875 -36.421875 "/></g></g></g><g fill="#cf4545" fill-opacity="1"><g transform="translate(604.681388, 293.965486)"><g><path d="M 30.359375 -18.375 C 30.359375 -6.125 24.488281 0 12.75 0 L 7.390625 0 L 7.390625 -13.265625 L 11 -13.265625 C 13.769531 -13.265625 15.65625 -14.15625 16.65625 -15.9375 C 17.375 -17.195312 17.734375 -19.382812 17.734375 -22.5 L 17.734375 -35.46875 C 17.734375 -36.875 17.019531 -37.578125 15.59375 -37.578125 L 2.1875 -37.578125 L 2.1875 -57.15625 L 14.640625 -57.15625 L 14.640625 -50.84375 L 24 -50.84375 C 28.238281 -50.84375 30.359375 -48.796875 30.359375 -44.703125 Z M 30.359375 -18.375 "/></g></g></g><g fill="#cf4545" fill-opacity="1"><g transform="translate(637.234516, 293.965486)"><g/></g></g><g fill="#cf4545" fill-opacity="1"><g transform="translate(656.689077, 293.965486)"><g><path d="M 32.9375 -15.71875 C 32.9375 -10.53125 32.09375 -6.707031 30.40625 -4.25 C 28.34375 -1.332031 24.835938 0.125 19.890625 0.125 C 18.992188 0.125 18.0625 0.0820312 17.09375 0 L 17.09375 -13.265625 C 19.269531 -13.265625 20.359375 -14.867188 20.359375 -18.078125 L 20.359375 -35.46875 C 20.359375 -36.875 19.628906 -37.578125 18.171875 -37.578125 L 2.1875 -37.578125 L 2.1875 -50.84375 L 26.578125 -50.84375 C 30.816406 -50.84375 32.9375 -48.796875 32.9375 -44.703125 Z M 14.6875 7.34375 L 2.28125 7.34375 L 2.28125 -32 L 14.6875 -32 Z M 14.6875 7.34375 "/></g></g></g><g fill="#cf4545" fill-opacity="1"><g transform="translate(691.861909, 293.965486)"><g><path d="M 14.171875 -36.421875 L 16.109375 -36.421875 C 17.503906 -36.421875 18.203125 -37.175781 18.203125 -38.6875 L 18.203125 -50.84375 L 29.671875 -50.84375 L 29.671875 -36.59375 C 29.671875 -30.664062 27.109375 -27.703125 21.984375 -27.703125 L 14.171875 -27.703125 L 14.171875 -15.59375 C 14.171875 -14.039062 14.816406 -13.265625 16.109375 -13.265625 L 31.78125 -13.265625 C 33.039062 -13.265625 33.671875 -14.039062 33.671875 -15.59375 L 33.671875 -50.84375 L 45.6875 -50.84375 L 45.6875 -11.546875 C 45.6875 -8.054688 44.785156 -5.28125 42.984375 -3.21875 C 41.097656 -1.070312 38.421875 0 34.953125 0 L 12.921875 0 C 5.765625 0 2.1875 -3.847656 2.1875 -11.546875 L 2.1875 -50.84375 L 14.171875 -50.84375 Z M 14.171875 -36.421875 "/></g></g></g><g fill="#cf4545" fill-opacity="1"><g transform="translate(739.746776, 293.965486)"><g><path d="M 35.953125 -9.140625 C 35.953125 -3.046875 33.1875 0 27.65625 0 L 18.890625 0 L 18.890625 -13.3125 L 21.515625 -13.3125 C 22.804688 -13.3125 23.453125 -14.082031 23.453125 -15.625 L 23.453125 -35 C 23.453125 -36.539062 23.0625 -37.3125 22.28125 -37.3125 C 21.507812 -37.3125 20.984375 -36.441406 20.703125 -34.703125 L 14.46875 0 L 2.1875 0 L 7.421875 -28.390625 L 4.984375 -28.390625 C 3.066406 -28.390625 2.109375 -29.332031 2.109375 -31.21875 L 2.109375 -50.84375 L 14.5625 -50.84375 L 14.5625 -32.890625 L 17.046875 -42.734375 C 18.421875 -48.140625 21.382812 -50.84375 25.9375 -50.84375 L 26.578125 -50.84375 C 32.828125 -50.84375 35.953125 -47.035156 35.953125 -39.421875 Z M 35.953125 -9.140625 "/></g></g></g><g fill="#cf4545" fill-opacity="1"><g transform="translate(777.882881, 293.965486)"><g><path d="M 32.59375 0 L 19.96875 0 L 19.96875 -35.46875 C 19.96875 -36.875 19.253906 -37.578125 17.828125 -37.578125 L 2.1875 -37.578125 L 2.1875 -50.84375 L 23.625 -50.84375 C 26.257812 -50.84375 28.421875 -50 30.109375 -48.3125 C 31.765625 -46.65625 32.59375 -44.492188 32.59375 -41.828125 Z M 14.609375 0 L 2.234375 0 L 2.234375 -31.515625 L 14.609375 -31.515625 Z M 14.609375 0 "/></g></g></g><g fill="#cf4545" fill-opacity="1"><g transform="translate(812.669182, 293.965486)"><g/></g></g><g fill="#cf4545" fill-opacity="1"><g transform="translate(832.123743, 293.965486)"><g><path d="M 14.609375 7.296875 L 2.1875 7.296875 L 2.1875 -50.84375 L 14.609375 -50.84375 Z M 14.609375 7.296875 "/></g></g></g><g fill="#cf4545" fill-opacity="1"><g transform="translate(848.915682, 293.965486)"><g><path d="M 14.609375 0 L 2.1875 0 L 2.1875 -50.84375 L 14.609375 -50.84375 Z M 14.609375 0 "/></g></g></g><g fill="#cf4545" fill-opacity="1"><g transform="translate(865.707576, 293.965486)"><g><path d="M 24.65625 -7.984375 C 24.65625 -2.660156 22.132812 0 17.09375 0 L 1.765625 0 L 1.765625 -13.265625 L 10.5625 -13.265625 C 11.59375 -13.265625 12.109375 -13.894531 12.109375 -15.15625 L 12.109375 -35.46875 C 12.109375 -36.875 11.476562 -37.578125 10.21875 -37.578125 L 5.40625 -37.578125 L 5.40625 -50.84375 L 16.875 -50.84375 C 22.0625 -50.84375 24.65625 -48.164062 24.65625 -42.8125 Z M 24.65625 -7.984375 "/></g></g></g><g fill="#cf4545" fill-opacity="1"><g transform="translate(892.548837, 293.965486)"><g><path d="M 29.125 -12.546875 C 29.125 -4.179688 25.1875 0 17.3125 0 L 2.1875 0 L 2.1875 -13.265625 L 12.71875 -13.265625 C 15.320312 -13.265625 16.625 -14.484375 16.625 -16.921875 L 16.625 -33.921875 C 16.625 -36.359375 15.320312 -37.578125 12.71875 -37.578125 L 2.1875 -37.578125 L 2.1875 -50.84375 L 17.3125 -50.84375 C 25.1875 -50.84375 29.125 -46.664062 29.125 -38.3125 Z M 29.125 -12.546875 "/></g></g></g><g fill="#cf4545" fill-opacity="1"><g transform="translate(923.856535, 293.965486)"><g><path d="M 35.171875 0 L 22.765625 0 L 22.765625 -35.171875 C 22.765625 -36.773438 22.035156 -37.578125 20.578125 -37.578125 L 18.890625 -37.578125 C 17.398438 -37.578125 16.65625 -36.773438 16.65625 -35.171875 L 16.65625 -6.09375 C 16.65625 -2.03125 14.953125 0 11.546875 0 L 0.859375 0 L 0.859375 -13.265625 L 3 -13.265625 C 3.71875 -13.265625 4.078125 -13.582031 4.078125 -14.21875 L 4.078125 -41.09375 C 4.078125 -44.5625 4.75 -47.054688 6.09375 -48.578125 C 7.4375 -50.085938 9.816406 -50.84375 13.234375 -50.84375 L 26.625 -50.84375 C 32.320312 -50.84375 35.171875 -47.59375 35.171875 -41.09375 Z M 35.171875 0 "/></g></g></g><g fill="#cf4545" fill-opacity="1"><g transform="translate(961.26254, 293.965486)"><g><path d="M 30.359375 -18.375 C 30.359375 -6.125 24.488281 0 12.75 0 L 7.390625 0 L 7.390625 -13.265625 L 11 -13.265625 C 13.769531 -13.265625 15.65625 -14.15625 16.65625 -15.9375 C 17.375 -17.195312 17.734375 -19.382812 17.734375 -22.5 L 17.734375 -35.46875 C 17.734375 -36.875 17.019531 -37.578125 15.59375 -37.578125 L 2.1875 -37.578125 L 2.1875 -57.15625 L 14.640625 -57.15625 L 14.640625 -50.84375 L 24 -50.84375 C 28.238281 -50.84375 30.359375 -48.796875 30.359375 -44.703125 Z M 30.359375 -18.375 "/></g></g></g><g fill="#cf4545" fill-opacity="1"><g transform="translate(492.393876, 386.170874)"><g><path d="M 33.15625 0 L 20.703125 0 L 20.703125 -35.171875 C 20.703125 -36.773438 19.972656 -37.578125 18.515625 -37.578125 L 17 -37.578125 C 15.539062 -37.578125 14.8125 -36.773438 14.8125 -35.171875 L 14.8125 0 L 2.1875 0 L 2.1875 -41.953125 C 2.1875 -45.128906 2.71875 -47.347656 3.78125 -48.609375 C 4.976562 -50.097656 7.125 -50.84375 10.21875 -50.84375 L 24.5625 -50.84375 C 30.289062 -50.84375 33.15625 -47.878906 33.15625 -41.953125 Z M 33.15625 0 "/></g></g></g><g fill="#cf4545" fill-opacity="1"><g transform="translate(527.738492, 386.170874)"><g><path d="M 21.125 -47.921875 C 21.125 -45.460938 20.066406 -43.085938 17.953125 -40.796875 C 16.203125 -38.910156 14.210938 -37.46875 11.984375 -36.46875 L 11.984375 -58.28125 L 21.125 -58.28125 Z M 9.921875 -47.921875 C 9.921875 -43.398438 6.898438 -39.582031 0.859375 -36.46875 L 0.859375 -58.28125 L 9.921875 -58.28125 Z M 9.921875 -47.921875 "/></g></g></g><g fill="#cf4545" fill-opacity="1"><g transform="translate(549.726877, 386.170874)"><g><path d="M 30.359375 -18.375 C 30.359375 -6.125 24.488281 0 12.75 0 L 7.390625 0 L 7.390625 -13.265625 L 11 -13.265625 C 13.769531 -13.265625 15.65625 -14.15625 16.65625 -15.9375 C 17.375 -17.195312 17.734375 -19.382812 17.734375 -22.5 L 17.734375 -35.46875 C 17.734375 -36.875 17.019531 -37.578125 15.59375 -37.578125 L 2.1875 -37.578125 L 2.1875 -57.15625 L 14.640625 -57.15625 L 14.640625 -50.84375 L 24 -50.84375 C 28.238281 -50.84375 30.359375 -48.796875 30.359375 -44.703125 Z M 30.359375 -18.375 "/></g></g></g><g fill="#cf4545" fill-opacity="1"><g transform="translate(582.279994, 386.170874)"><g><path d="M 35.953125 -9.140625 C 35.953125 -3.046875 33.1875 0 27.65625 0 L 18.890625 0 L 18.890625 -13.3125 L 21.515625 -13.3125 C 22.804688 -13.3125 23.453125 -14.082031 23.453125 -15.625 L 23.453125 -35 C 23.453125 -36.539062 23.0625 -37.3125 22.28125 -37.3125 C 21.507812 -37.3125 20.984375 -36.441406 20.703125 -34.703125 L 14.46875 0 L 2.1875 0 L 7.421875 -28.390625 L 4.984375 -28.390625 C 3.066406 -28.390625 2.109375 -29.332031 2.109375 -31.21875 L 2.109375 -50.84375 L 14.5625 -50.84375 L 14.5625 -32.890625 L 17.046875 -42.734375 C 18.421875 -48.140625 21.382812 -50.84375 25.9375 -50.84375 L 26.578125 -50.84375 C 32.828125 -50.84375 35.953125 -47.035156 35.953125 -39.421875 Z M 35.953125 -9.140625 "/></g></g></g></svg>