<svg xmlns="http://www.w3.org/2000/svg" xmlns:xlink="http://www.w3.org/1999/xlink" width="1486" zoomAndPan="magnify" viewBox="0 0 1114.5 516.750002" height="689" preserveAspectRatio="xMidYMid meet" version="1.0"><defs><g/><clipPath id="42e2dd1b7d"><path d="M 0.0195312 0 L 1113.980469 0 L 1113.980469 516.332031 L 0.0195312 516.332031 Z M 0.0195312 0 " clip-rule="nonzero"/></clipPath><clipPath id="81ada4f217"><path d="M 38.25 0 L 1075.71875 0 C 1085.859375 0 1095.582031 4.027344 1102.753906 11.199219 C 1109.921875 18.367188 1113.949219 28.09375 1113.949219 38.230469 L 1113.949219 478.101562 C 1113.949219 488.242188 1109.921875 497.964844 1102.753906 505.136719 C 1095.582031 512.304688 1085.859375 516.332031 1075.71875 516.332031 L 38.25 516.332031 C 28.113281 516.332031 18.386719 512.304688 11.21875 505.136719 C 4.046875 497.964844 0.0195312 488.242188 0.0195312 478.101562 L 0.0195312 38.230469 C 0.0195312 28.09375 4.046875 18.367188 11.21875 11.199219 C 18.386719 4.027344 28.113281 0 38.25 0 Z M 38.25 0 " clip-rule="nonzero"/></clipPath><clipPath id="6bd320e9ad"><path d="M 0.0273438 0 L 1113.980469 0 L 1113.980469 516.5 L 0.0273438 516.5 Z M 0.0273438 0 " clip-rule="nonzero"/></clipPath><clipPath id="a66cf84388"><path d="M 38.257812 0 L 1075.707031 0 C 1085.847656 0 1095.570312 4.027344 1102.742188 11.199219 C 1109.910156 18.367188 1113.941406 28.089844 1113.941406 38.230469 L 1113.941406 478.09375 C 1113.941406 488.234375 1109.910156 497.957031 1102.742188 505.125 C 1095.570312 512.296875 1085.847656 516.324219 1075.707031 516.324219 L 38.257812 516.324219 C 28.117188 516.324219 18.394531 512.296875 11.222656 505.125 C 4.054688 497.957031 0.0273438 488.234375 0.0273438 478.09375 L 0.0273438 38.230469 C 0.0273438 28.089844 4.054688 18.367188 11.222656 11.199219 C 18.394531 4.027344 28.117188 0 38.257812 0 Z M 38.257812 0 " clip-rule="nonzero"/></clipPath></defs><g clip-path="url(#42e2dd1b7d)"><g clip-path="url(#81ada4f217)"><path fill="#ffcf7e" d="M 0.0195312 0 L 1113.363281 0 L 1113.363281 516.332031 L 0.0195312 516.332031 Z M 0.0195312 0 " fill-opacity="1" fill-rule="nonzero"/></g></g><g clip-path="url(#6bd320e9ad)"><g clip-path="url(#a66cf84388)"><path stroke-linecap="butt" transform="matrix(0.749637, 0, 0, 0.749637, 0.0256264, 0.0000199903)" fill="none" stroke-linejoin="miter" d="M 51.000909 -0.0000266667 L 1434.935712 -0.0000266667 C 1448.463086 -0.0000266667 1461.43811 5.372363 1471.000025 14.939489 C 1480.56194 24.501404 1485.93954 37.471217 1485.93954 50.998591 L 1485.93954 637.766688 C 1485.93954 651.294062 1480.56194 664.263875 1471.000025 673.82579 C 1461.43811 683.392916 1448.463086 688.765306 1434.935712 688.765306 L 51.000909 688.765306 C 37.473534 688.765306 24.503721 683.392916 14.936595 673.82579 C 5.37468 664.263875 0.00229086 651.294062 0.00229086 637.766688 L 0.00229086 50.998591 C 0.00229086 37.471217 5.37468 24.501404 14.936595 14.939489 C 24.503721 5.372363 37.473534 -0.0000266667 51.000909 -0.0000266667 Z M 51.000909 -0.0000266667 " stroke="#cf4545" stroke-width="40" stroke-opacity="1" stroke-miterlimit="4"/></g></g><g fill="#cf4545" fill-opacity="1"><g transform="translate(955.16379, 84.723757)"><g><path d="M 10.921875 -20.5625 L 1.4375 -20.5625 L 1.4375 -30.8125 L 10.921875 -30.8125 Z M 10.921875 0 L 1.4375 0 L 1.4375 -10.296875 L 10.921875 -10.296875 Z M 10.921875 0 "/></g></g></g><g fill="#cf4545" fill-opacity="1"><g transform="translate(967.392249, 84.723757)"><g><path d="M 25.765625 0 L 3.09375 0 L 3.09375 -4.609375 C 3.09375 -8.492188 4.347656 -11.785156 6.859375 -14.484375 L 12.015625 -20 C 12.691406 -20.75 13.238281 -21.347656 13.65625 -21.796875 C 14.082031 -22.253906 14.359375 -22.578125 14.484375 -22.765625 C 15.234375 -23.867188 15.609375 -25.066406 15.609375 -26.359375 L 15.609375 -30.71875 L 12.515625 -30.71875 L 12.515625 -26.640625 L 2.390625 -26.640625 L 2.390625 -33.59375 C 2.390625 -35.882812 3.300781 -37.804688 5.125 -39.359375 C 6.84375 -40.859375 8.867188 -41.609375 11.203125 -41.609375 L 17.78125 -41.609375 C 23.101562 -41.609375 25.765625 -38.9375 25.765625 -33.59375 L 25.765625 -25.90625 C 25.765625 -22.550781 24.273438 -19.175781 21.296875 -15.78125 L 16.96875 -10.859375 L 25.765625 -10.859375 Z M 25.765625 0 "/></g></g><g transform="translate(995.468509, 84.723757)"><g><path d="M 26.28125 -7.984375 C 26.28125 -5.453125 25.566406 -3.488281 24.140625 -2.09375 C 22.710938 -0.695312 20.734375 0 18.203125 0 L 9.9375 0 C 7.738281 0 5.84375 -0.785156 4.25 -2.359375 C 2.65625 -3.953125 1.859375 -5.828125 1.859375 -7.984375 L 1.859375 -33.59375 C 1.859375 -36.144531 2.566406 -38.117188 3.984375 -39.515625 C 5.398438 -40.910156 7.382812 -41.609375 9.9375 -41.609375 L 18.203125 -41.609375 C 20.734375 -41.609375 22.710938 -40.90625 24.140625 -39.5 C 25.566406 -38.09375 26.28125 -36.125 26.28125 -33.59375 Z M 16.0625 -10.859375 L 16.0625 -30.71875 L 12.015625 -30.71875 L 12.015625 -10.859375 Z M 16.0625 -10.859375 "/></g></g><g transform="translate(1023.544768, 84.723757)"><g><path d="M 21.890625 0 L 11.671875 0 L 11.671875 -30.71875 L 4.75 -30.71875 L 4.75 -41.609375 L 13.953125 -41.609375 C 19.242188 -41.609375 21.890625 -38.9375 21.890625 -33.59375 Z M 21.890625 0 "/></g></g><g transform="translate(1051.621028, 84.723757)"><g><path d="M 21.890625 0 L 11.671875 0 L 11.671875 -30.71875 L 4.75 -30.71875 L 4.75 -41.609375 L 13.953125 -41.609375 C 19.242188 -41.609375 21.890625 -38.9375 21.890625 -33.59375 Z M 21.890625 0 "/></g></g></g><g fill="#cf4545" fill-opacity="1"><g transform="translate(139.743968, 177.484726)"><g><path d="M 28.921875 -8.859375 C 28.921875 -2.953125 26.503906 0 21.671875 0 L 3.046875 0 L 3.046875 -12.0625 L 17.765625 -12.0625 L 17.765625 -17.40625 L 6.71875 -17.40625 L 11.828125 -34.125 L 3.046875 -34.125 L 3.046875 -46.21875 L 28.140625 -46.21875 L 22.296875 -28.6875 C 26.710938 -28.6875 28.921875 -25.941406 28.921875 -20.453125 Z M 28.921875 -8.859375 "/></g></g></g><g fill="#cf4545" fill-opacity="1"><g transform="translate(170.936765, 177.484726)"><g><path d="M 29.203125 -8.859375 C 29.203125 -6.046875 28.40625 -3.863281 26.8125 -2.3125 C 25.226562 -0.769531 23.03125 0 20.21875 0 L 11.046875 0 C 8.597656 0 6.488281 -0.867188 4.71875 -2.609375 C 2.945312 -4.378906 2.0625 -6.460938 2.0625 -8.859375 L 2.0625 -37.328125 C 2.0625 -40.160156 2.847656 -42.347656 4.421875 -43.890625 C 6.003906 -45.441406 8.210938 -46.21875 11.046875 -46.21875 L 20.21875 -46.21875 C 23.03125 -46.21875 25.226562 -45.4375 26.8125 -43.875 C 28.40625 -42.3125 29.203125 -40.128906 29.203125 -37.328125 Z M 17.84375 -12.0625 L 17.84375 -34.125 L 13.34375 -34.125 L 13.34375 -12.0625 Z M 17.84375 -12.0625 "/></g></g></g><g fill="#cf4545" fill-opacity="1"><g transform="translate(202.129562, 177.484726)"><g><path d="M 31.578125 -8.78125 L 29.28125 -8.78125 L 29.28125 0 L 18 0 L 18 -8.78125 L -0.390625 -8.78125 L 8.390625 -46.21875 L 20.140625 -46.21875 L 14.328125 -20.890625 L 18 -20.890625 L 18 -28.84375 L 29.28125 -28.84375 L 29.28125 -20.890625 L 31.578125 -20.890625 Z M 31.578125 -8.78125 "/></g></g></g><g fill="#cf4545" fill-opacity="1"><g transform="translate(233.322359, 177.484726)"><g><path d="M 29.28125 -8.859375 C 29.28125 -2.953125 26.3125 0 20.375 0 L 10.890625 0 C 8.285156 0 6.148438 -0.832031 4.484375 -2.5 C 2.816406 -4.164062 1.984375 -6.285156 1.984375 -8.859375 L 1.984375 -17.09375 C 1.984375 -20.53125 3.613281 -22.820312 6.875 -23.96875 C 5.3125 -24.101562 4.085938 -24.804688 3.203125 -26.078125 C 2.390625 -27.273438 1.984375 -28.679688 1.984375 -30.296875 L 1.984375 -37.328125 C 1.984375 -39.765625 2.832031 -41.859375 4.53125 -43.609375 C 6.195312 -45.347656 8.28125 -46.21875 10.78125 -46.21875 L 20.375 -46.21875 C 26.3125 -46.21875 29.28125 -43.253906 29.28125 -37.328125 L 29.28125 -30.609375 C 29.28125 -29.046875 28.757812 -27.65625 27.71875 -26.4375 C 26.65625 -25.207031 25.378906 -24.382812 23.890625 -23.96875 C 27.484375 -23.132812 29.28125 -20.816406 29.28125 -17.015625 Z M 18 -28.765625 L 18 -34.125 L 13.28125 -34.125 L 13.28125 -28.765625 Z M 18 -12.0625 L 18 -19.203125 L 13.28125 -19.203125 L 13.28125 -12.0625 Z M 18 -12.0625 "/></g></g></g><g fill="#cf4545" fill-opacity="1"><g transform="translate(264.523443, 177.484726)"><g/></g></g><g fill="#cf4545" fill-opacity="1"><g transform="translate(282.208471, 177.484726)"><g><path d="M 29.625 0 L 18.15625 0 L 18.15625 -32.25 C 18.15625 -33.519531 17.503906 -34.15625 16.203125 -34.15625 L 1.984375 -34.15625 L 1.984375 -46.21875 L 21.46875 -46.21875 C 23.863281 -46.21875 25.828125 -45.453125 27.359375 -43.921875 C 28.867188 -42.410156 29.625 -40.445312 29.625 -38.03125 Z M 13.28125 0 L 2.03125 0 L 2.03125 -28.65625 L 13.28125 -28.65625 Z M 13.28125 0 "/></g></g></g><g fill="#cf4545" fill-opacity="1"><g transform="translate(313.830706, 177.484726)"><g><path d="M 27.59375 -16.703125 C 27.59375 -5.566406 22.257812 0 11.59375 0 L 6.71875 0 L 6.71875 -12.0625 L 10 -12.0625 C 12.519531 -12.0625 14.234375 -12.867188 15.140625 -14.484375 C 15.796875 -15.628906 16.125 -17.617188 16.125 -20.453125 L 16.125 -32.25 C 16.125 -33.519531 15.472656 -34.15625 14.171875 -34.15625 L 1.984375 -34.15625 L 1.984375 -51.96875 L 13.3125 -51.96875 L 13.3125 -46.21875 L 21.828125 -46.21875 C 25.671875 -46.21875 27.59375 -44.359375 27.59375 -40.640625 Z M 27.59375 -16.703125 "/></g></g></g><g fill="#cf4545" fill-opacity="1"><g transform="translate(343.422872, 177.484726)"><g><path d="M 12.890625 -33.109375 L 14.640625 -33.109375 C 15.910156 -33.109375 16.546875 -33.796875 16.546875 -35.171875 L 16.546875 -46.21875 L 26.96875 -46.21875 L 26.96875 -33.265625 C 26.96875 -27.878906 24.640625 -25.1875 19.984375 -25.1875 L 12.890625 -25.1875 L 12.890625 -14.171875 C 12.890625 -12.765625 13.472656 -12.0625 14.640625 -12.0625 L 28.890625 -12.0625 C 30.035156 -12.0625 30.609375 -12.765625 30.609375 -14.171875 L 30.609375 -46.21875 L 41.53125 -46.21875 L 41.53125 -10.5 C 41.53125 -7.320312 40.710938 -4.796875 39.078125 -2.921875 C 37.359375 -0.972656 34.925781 0 31.78125 0 L 11.75 0 C 5.238281 0 1.984375 -3.5 1.984375 -10.5 L 1.984375 -46.21875 L 12.890625 -46.21875 Z M 12.890625 -33.109375 "/></g></g></g><g fill="#cf4545" fill-opacity="1"><g transform="translate(386.952245, 177.484726)"><g><path d="M 32.671875 -8.3125 C 32.671875 -2.769531 30.160156 0 25.140625 0 L 17.171875 0 L 17.171875 -12.109375 L 19.5625 -12.109375 C 20.726562 -12.109375 21.3125 -12.804688 21.3125 -14.203125 L 21.3125 -31.8125 C 21.3125 -33.21875 20.960938 -33.921875 20.265625 -33.921875 C 19.554688 -33.921875 19.070312 -33.128906 18.8125 -31.546875 L 13.15625 0 L 1.984375 0 L 6.75 -25.8125 L 4.53125 -25.8125 C 2.78125 -25.8125 1.90625 -26.664062 1.90625 -28.375 L 1.90625 -46.21875 L 13.234375 -46.21875 L 13.234375 -29.90625 L 15.5 -38.84375 C 16.75 -43.757812 19.441406 -46.21875 23.578125 -46.21875 L 24.171875 -46.21875 C 29.835938 -46.21875 32.671875 -42.757812 32.671875 -35.84375 Z M 32.671875 -8.3125 "/></g></g></g><g fill="#cf4545" fill-opacity="1"><g transform="translate(421.619584, 177.484726)"><g><path d="M 32.671875 -8.3125 C 32.671875 -2.769531 30.160156 0 25.140625 0 L 17.171875 0 L 17.171875 -12.109375 L 19.5625 -12.109375 C 20.726562 -12.109375 21.3125 -12.804688 21.3125 -14.203125 L 21.3125 -31.8125 C 21.3125 -33.21875 20.960938 -33.921875 20.265625 -33.921875 C 19.554688 -33.921875 19.070312 -33.128906 18.8125 -31.546875 L 13.15625 0 L 1.984375 0 L 6.75 -25.8125 L 4.53125 -25.8125 C 2.78125 -25.8125 1.90625 -26.664062 1.90625 -28.375 L 1.90625 -46.21875 L 13.234375 -46.21875 L 13.234375 -29.90625 L 15.5 -38.84375 C 16.75 -43.757812 19.441406 -46.21875 23.578125 -46.21875 L 24.171875 -46.21875 C 29.835938 -46.21875 32.671875 -42.757812 32.671875 -35.84375 Z M 32.671875 -8.3125 "/></g></g></g><g fill="#cf4545" fill-opacity="1"><g transform="translate(456.286923, 177.484726)"><g/></g></g><g fill="#cf4545" fill-opacity="1"><g transform="translate(473.97194, 177.484726)"><g><path d="M 31.96875 0 L 20.6875 0 L 20.6875 -31.96875 C 20.6875 -33.425781 20.023438 -34.15625 18.703125 -34.15625 L 17.171875 -34.15625 C 15.816406 -34.15625 15.140625 -33.425781 15.140625 -31.96875 L 15.140625 -5.546875 C 15.140625 -1.847656 13.59375 0 10.5 0 L 0.78125 0 L 0.78125 -12.0625 L 2.734375 -12.0625 C 3.378906 -12.0625 3.703125 -12.347656 3.703125 -12.921875 L 3.703125 -37.359375 C 3.703125 -40.503906 4.316406 -42.769531 5.546875 -44.15625 C 6.765625 -45.53125 8.925781 -46.21875 12.03125 -46.21875 L 24.203125 -46.21875 C 29.378906 -46.21875 31.96875 -43.265625 31.96875 -37.359375 Z M 31.96875 0 "/></g></g></g><g fill="#cf4545" fill-opacity="1"><g transform="translate(507.975613, 177.484726)"><g><path d="M 31.234375 -8.90625 C 31.234375 -2.96875 28.785156 0 23.890625 0 L 9.328125 0 C 6.859375 0 4.984375 -0.894531 3.703125 -2.6875 C 2.554688 -4.300781 1.984375 -6.375 1.984375 -8.90625 L 1.984375 -46.21875 L 13.234375 -46.21875 L 13.234375 -31.65625 L 15.453125 -39.546875 C 16.703125 -43.992188 18.984375 -46.21875 22.296875 -46.21875 L 24.59375 -46.21875 C 29.019531 -46.21875 31.234375 -43.8125 31.234375 -39 Z M 20.03125 -33.109375 C 20.03125 -33.597656 19.925781 -33.84375 19.71875 -33.84375 C 19.5625 -33.84375 19.429688 -33.632812 19.328125 -33.21875 L 17.6875 -27.09375 L 13.234375 -27.09375 L 13.234375 -14.171875 C 13.234375 -12.765625 13.804688 -12.0625 14.953125 -12.0625 L 18.265625 -12.0625 C 19.441406 -12.0625 20.03125 -12.765625 20.03125 -14.171875 Z M 20.03125 -33.109375 "/></g></g></g><g fill="#cf4545" fill-opacity="1"><g transform="translate(541.198492, 177.484726)"><g><path d="M 27.59375 -16.703125 C 27.59375 -5.566406 22.257812 0 11.59375 0 L 6.71875 0 L 6.71875 -12.0625 L 10 -12.0625 C 12.519531 -12.0625 14.234375 -12.867188 15.140625 -14.484375 C 15.796875 -15.628906 16.125 -17.617188 16.125 -20.453125 L 16.125 -32.25 C 16.125 -33.519531 15.472656 -34.15625 14.171875 -34.15625 L 1.984375 -34.15625 L 1.984375 -51.96875 L 13.3125 -51.96875 L 13.3125 -46.21875 L 21.828125 -46.21875 C 25.671875 -46.21875 27.59375 -44.359375 27.59375 -40.640625 Z M 27.59375 -16.703125 "/></g></g></g><g fill="#cf4545" fill-opacity="1"><g transform="translate(570.790658, 177.484726)"><g><path d="M 30.140625 0 L 18.8125 0 L 18.8125 -31.96875 C 18.8125 -33.425781 18.148438 -34.15625 16.828125 -34.15625 L 15.453125 -34.15625 C 14.128906 -34.15625 13.46875 -33.425781 13.46875 -31.96875 L 13.46875 0 L 1.984375 0 L 1.984375 -38.140625 C 1.984375 -41.023438 2.46875 -43.039062 3.4375 -44.1875 C 4.53125 -45.539062 6.484375 -46.21875 9.296875 -46.21875 L 22.328125 -46.21875 C 27.535156 -46.21875 30.140625 -43.523438 30.140625 -38.140625 Z M 30.140625 0 "/></g></g></g><g fill="#cf4545" fill-opacity="1"><g transform="translate(602.920399, 177.484726)"><g><path d="M 29.625 0 L 18.15625 0 L 18.15625 -32.25 C 18.15625 -33.519531 17.503906 -34.15625 16.203125 -34.15625 L 1.984375 -34.15625 L 1.984375 -46.21875 L 21.46875 -46.21875 C 23.863281 -46.21875 25.828125 -45.453125 27.359375 -43.921875 C 28.867188 -42.410156 29.625 -40.445312 29.625 -38.03125 Z M 13.28125 0 L 2.03125 0 L 2.03125 -28.65625 L 13.28125 -28.65625 Z M 13.28125 0 "/></g></g></g><g fill="#cf4545" fill-opacity="1"><g transform="translate(634.542634, 177.484726)"><g/></g></g><g fill="#cf4545" fill-opacity="1"><g transform="translate(652.227673, 177.484726)"><g><path d="M 21.515625 -16.546875 L 2.375 -16.546875 L 2.375 -28.609375 L 21.515625 -28.609375 Z M 21.515625 -16.546875 "/></g></g></g><g fill="#cf4545" fill-opacity="1"><g transform="translate(676.120029, 177.484726)"><g/></g></g><g fill="#cf4545" fill-opacity="1"><g transform="translate(693.807929, 177.484726)"><g><path d="M 28.609375 0 L 3.4375 0 L 3.4375 -5.109375 C 3.4375 -9.429688 4.828125 -13.085938 7.609375 -16.078125 L 13.34375 -22.21875 C 14.101562 -23.050781 14.71875 -23.71875 15.1875 -24.21875 C 15.65625 -24.726562 15.953125 -25.085938 16.078125 -25.296875 C 16.910156 -26.515625 17.328125 -27.84375 17.328125 -29.28125 L 17.328125 -34.125 L 13.890625 -34.125 L 13.890625 -29.59375 L 2.65625 -29.59375 L 2.65625 -37.328125 C 2.65625 -39.867188 3.671875 -42 5.703125 -43.71875 C 7.597656 -45.382812 9.847656 -46.21875 12.453125 -46.21875 L 19.75 -46.21875 C 25.65625 -46.21875 28.609375 -43.253906 28.609375 -37.328125 L 28.609375 -28.765625 C 28.609375 -25.046875 26.957031 -21.300781 23.65625 -17.53125 L 18.859375 -12.0625 L 28.609375 -12.0625 Z M 28.609375 0 "/></g></g></g><g fill="#cf4545" fill-opacity="1"><g transform="translate(725.000727, 177.484726)"><g><path d="M 28.53125 -46.21875 L 25.421875 -27.09375 L 28.0625 -27.09375 L 28.0625 -15.03125 L 23.578125 -15.03125 L 21.359375 0 L 9.609375 0 L 11.90625 -15.03125 L 7.421875 -15.03125 L 7.421875 -27.09375 L 13.65625 -27.09375 L 14.71875 -34.125 L 2.65625 -34.125 L 2.65625 -46.21875 Z M 28.53125 -46.21875 "/></g></g></g><g fill="#cf4545" fill-opacity="1"><g transform="translate(756.193524, 177.484726)"><g><path d="M 12.140625 0 L 1.59375 0 L 1.59375 -11.4375 L 12.140625 -11.4375 Z M 12.140625 0 "/></g></g></g><g fill="#cf4545" fill-opacity="1"><g transform="translate(769.779373, 177.484726)"><g><path d="M 29.203125 -8.859375 C 29.203125 -6.046875 28.40625 -3.863281 26.8125 -2.3125 C 25.226562 -0.769531 23.03125 0 20.21875 0 L 11.046875 0 C 8.597656 0 6.488281 -0.867188 4.71875 -2.609375 C 2.945312 -4.378906 2.0625 -6.460938 2.0625 -8.859375 L 2.0625 -37.328125 C 2.0625 -40.160156 2.847656 -42.347656 4.421875 -43.890625 C 6.003906 -45.441406 8.210938 -46.21875 11.046875 -46.21875 L 20.21875 -46.21875 C 23.03125 -46.21875 25.226562 -45.4375 26.8125 -43.875 C 28.40625 -42.3125 29.203125 -40.128906 29.203125 -37.328125 Z M 17.84375 -12.0625 L 17.84375 -34.125 L 13.34375 -34.125 L 13.34375 -12.0625 Z M 17.84375 -12.0625 "/></g></g></g><g fill="#cf4545" fill-opacity="1"><g transform="translate(800.97217, 177.484726)"><g><path d="M 28.921875 -8.859375 C 28.921875 -2.953125 26.503906 0 21.671875 0 L 3.046875 0 L 3.046875 -12.0625 L 17.765625 -12.0625 L 17.765625 -17.40625 L 6.71875 -17.40625 L 11.828125 -34.125 L 3.046875 -34.125 L 3.046875 -46.21875 L 28.140625 -46.21875 L 22.296875 -28.6875 C 26.710938 -28.6875 28.921875 -25.941406 28.921875 -20.453125 Z M 28.921875 -8.859375 "/></g></g></g><g fill="#cf4545" fill-opacity="1"><g transform="translate(832.164967, 177.484726)"><g><path d="M 12.140625 0 L 1.59375 0 L 1.59375 -11.4375 L 12.140625 -11.4375 Z M 12.140625 0 "/></g></g></g><g fill="#cf4545" fill-opacity="1"><g transform="translate(845.750817, 177.484726)"><g><path d="M 28.609375 0 L 3.4375 0 L 3.4375 -5.109375 C 3.4375 -9.429688 4.828125 -13.085938 7.609375 -16.078125 L 13.34375 -22.21875 C 14.101562 -23.050781 14.71875 -23.71875 15.1875 -24.21875 C 15.65625 -24.726562 15.953125 -25.085938 16.078125 -25.296875 C 16.910156 -26.515625 17.328125 -27.84375 17.328125 -29.28125 L 17.328125 -34.125 L 13.890625 -34.125 L 13.890625 -29.59375 L 2.65625 -29.59375 L 2.65625 -37.328125 C 2.65625 -39.867188 3.671875 -42 5.703125 -43.71875 C 7.597656 -45.382812 9.847656 -46.21875 12.453125 -46.21875 L 19.75 -46.21875 C 25.65625 -46.21875 28.609375 -43.253906 28.609375 -37.328125 L 28.609375 -28.765625 C 28.609375 -25.046875 26.957031 -21.300781 23.65625 -17.53125 L 18.859375 -12.0625 L 28.609375 -12.0625 Z M 28.609375 0 "/></g></g></g><g fill="#cf4545" fill-opacity="1"><g transform="translate(876.943614, 177.484726)"><g><path d="M 29.203125 -8.859375 C 29.203125 -6.046875 28.40625 -3.863281 26.8125 -2.3125 C 25.226562 -0.769531 23.03125 0 20.21875 0 L 11.046875 0 C 8.597656 0 6.488281 -0.867188 4.71875 -2.609375 C 2.945312 -4.378906 2.0625 -6.460938 2.0625 -8.859375 L 2.0625 -37.328125 C 2.0625 -40.160156 2.847656 -42.347656 4.421875 -43.890625 C 6.003906 -45.441406 8.210938 -46.21875 11.046875 -46.21875 L 20.21875 -46.21875 C 23.03125 -46.21875 25.226562 -45.4375 26.8125 -43.875 C 28.40625 -42.3125 29.203125 -40.128906 29.203125 -37.328125 Z M 17.84375 -12.0625 L 17.84375 -34.125 L 13.34375 -34.125 L 13.34375 -12.0625 Z M 17.84375 -12.0625 "/></g></g></g><g fill="#cf4545" fill-opacity="1"><g transform="translate(908.136411, 177.484726)"><g><path d="M 24.328125 0 L 12.96875 0 L 12.96875 -34.125 L 5.265625 -34.125 L 5.265625 -46.21875 L 15.5 -46.21875 C 21.382812 -46.21875 24.328125 -43.253906 24.328125 -37.328125 Z M 24.328125 0 "/></g></g></g><g fill="#cf4545" fill-opacity="1"><g transform="translate(939.329197, 177.484726)"><g><path d="M 24.328125 0 L 12.96875 0 L 12.96875 -34.125 L 5.265625 -34.125 L 5.265625 -46.21875 L 15.5 -46.21875 C 21.382812 -46.21875 24.328125 -43.253906 24.328125 -37.328125 Z M 24.328125 0 "/></g></g></g><g fill="#cf4545" fill-opacity="1"><g transform="translate(97.457307, 389.878299)"><g><path d="M 27.125 0 L 16.9375 0 L 16.9375 -28.78125 C 16.9375 -30.09375 16.335938 -30.75 15.140625 -30.75 L 13.921875 -30.75 C 12.722656 -30.75 12.125 -30.09375 12.125 -28.78125 L 12.125 0 L 1.796875 0 L 1.796875 -34.328125 C 1.796875 -36.929688 2.226562 -38.75 3.09375 -39.78125 C 4.070312 -41 5.828125 -41.609375 8.359375 -41.609375 L 20.09375 -41.609375 C 24.78125 -41.609375 27.125 -39.179688 27.125 -34.328125 Z M 27.125 0 "/></g></g><g transform="translate(126.376908, 389.878299)"><g><path d="M 17.296875 -39.21875 C 17.296875 -37.195312 16.425781 -35.253906 14.6875 -33.390625 C 13.257812 -31.835938 11.628906 -30.648438 9.796875 -29.828125 L 9.796875 -47.6875 L 17.296875 -47.6875 Z M 8.125 -39.21875 C 8.125 -35.519531 5.648438 -32.390625 0.703125 -29.828125 L 0.703125 -47.6875 L 8.125 -47.6875 Z M 8.125 -39.21875 "/></g></g><g transform="translate(144.368204, 389.878299)"><g><path d="M 24.84375 -15.046875 C 24.84375 -5.015625 20.039062 0 10.4375 0 L 6.046875 0 L 6.046875 -10.859375 L 9 -10.859375 C 11.269531 -10.859375 12.816406 -11.582031 13.640625 -13.03125 C 14.222656 -14.0625 14.515625 -15.851562 14.515625 -18.40625 L 14.515625 -29.03125 C 14.515625 -30.175781 13.925781 -30.75 12.75 -30.75 L 1.796875 -30.75 L 1.796875 -46.765625 L 11.984375 -46.765625 L 11.984375 -41.609375 L 19.640625 -41.609375 C 23.109375 -41.609375 24.84375 -39.929688 24.84375 -36.578125 Z M 24.84375 -15.046875 "/></g></g><g transform="translate(171.003754, 389.878299)"><g><path d="M 29.40625 -7.484375 C 29.40625 -2.492188 27.144531 0 22.625 0 L 15.46875 0 L 15.46875 -10.890625 L 17.609375 -10.890625 C 18.660156 -10.890625 19.1875 -11.523438 19.1875 -12.796875 L 19.1875 -28.640625 C 19.1875 -29.898438 18.867188 -30.53125 18.234375 -30.53125 C 17.609375 -30.53125 17.175781 -29.816406 16.9375 -28.390625 L 11.84375 0 L 1.796875 0 L 6.078125 -23.234375 L 4.078125 -23.234375 C 2.503906 -23.234375 1.71875 -24.003906 1.71875 -25.546875 L 1.71875 -41.609375 L 11.90625 -41.609375 L 11.90625 -26.921875 L 13.953125 -34.96875 C 15.078125 -39.394531 17.5 -41.609375 21.21875 -41.609375 L 21.75 -41.609375 C 26.851562 -41.609375 29.40625 -38.492188 29.40625 -32.265625 Z M 29.40625 -7.484375 "/></g></g><g transform="translate(202.207407, 389.878299)"><g/></g><g transform="translate(218.125487, 389.878299)"><g><path d="M 22.28125 5.90625 L 11.984375 5.90625 L 11.984375 -29.03125 C 11.984375 -30.175781 11.382812 -30.75 10.1875 -30.75 L 1.09375 -30.75 L 1.09375 -41.609375 L 14.9375 -41.609375 C 17.09375 -41.609375 18.859375 -40.914062 20.234375 -39.53125 C 21.597656 -38.175781 22.28125 -36.410156 22.28125 -34.234375 Z M 22.28125 5.90625 "/></g></g><g transform="translate(242.195872, 389.878299)"><g><path d="M 22.28125 0 L 11.984375 0 L 11.984375 -29.03125 C 11.984375 -30.175781 11.382812 -30.75 10.1875 -30.75 L 1.09375 -30.75 L 1.09375 -41.609375 L 14.9375 -41.609375 C 17.09375 -41.609375 18.859375 -40.914062 20.234375 -39.53125 C 21.597656 -38.175781 22.28125 -36.410156 22.28125 -34.234375 Z M 22.28125 0 "/></g></g><g transform="translate(266.266258, 389.878299)"><g><path d="M 27.546875 -10.96875 C 27.546875 -3.65625 24.546875 0 18.546875 0 L 1.09375 0 L 1.09375 -10.859375 L 3.546875 -10.859375 L 3.546875 -41.609375 L 13.703125 -41.609375 L 13.703125 -10.859375 L 15.75 -10.859375 C 16.914062 -10.859375 17.5 -11.664062 17.5 -13.28125 L 17.5 -41.609375 L 27.546875 -41.609375 Z M 27.546875 -10.96875 "/></g></g><g transform="translate(295.60753, 389.878299)"><g><path d="M 29.40625 -7.484375 C 29.40625 -2.492188 27.144531 0 22.625 0 L 15.46875 0 L 15.46875 -10.890625 L 17.609375 -10.890625 C 18.660156 -10.890625 19.1875 -11.523438 19.1875 -12.796875 L 19.1875 -28.640625 C 19.1875 -29.898438 18.867188 -30.53125 18.234375 -30.53125 C 17.609375 -30.53125 17.175781 -29.816406 16.9375 -28.390625 L 11.84375 0 L 1.796875 0 L 6.078125 -23.234375 L 4.078125 -23.234375 C 2.503906 -23.234375 1.71875 -24.003906 1.71875 -25.546875 L 1.71875 -41.609375 L 11.90625 -41.609375 L 11.90625 -26.921875 L 13.953125 -34.96875 C 15.078125 -39.394531 17.5 -41.609375 21.21875 -41.609375 L 21.75 -41.609375 C 26.851562 -41.609375 29.40625 -38.492188 29.40625 -32.265625 Z M 29.40625 -7.484375 "/></g></g><g transform="translate(326.811183, 389.878299)"><g><path d="M 11.953125 0 L 1.796875 0 L 1.796875 -41.609375 L 11.953125 -41.609375 Z M 11.953125 0 "/></g></g><g transform="translate(340.550629, 389.878299)"><g/></g><g transform="translate(356.468709, 389.878299)"><g><path d="M 28.78125 0 L 18.625 0 L 18.625 -28.78125 C 18.625 -30.09375 18.023438 -30.75 16.828125 -30.75 L 15.46875 -30.75 C 14.25 -30.75 13.640625 -30.09375 13.640625 -28.78125 L 13.640625 -4.984375 C 13.640625 -1.660156 12.242188 0 9.453125 0 L 0.703125 0 L 0.703125 -10.859375 L 2.453125 -10.859375 C 3.046875 -10.859375 3.34375 -11.113281 3.34375 -11.625 L 3.34375 -33.625 C 3.34375 -36.457031 3.890625 -38.5 4.984375 -39.75 C 6.085938 -40.988281 8.035156 -41.609375 10.828125 -41.609375 L 21.78125 -41.609375 C 26.445312 -41.609375 28.78125 -38.945312 28.78125 -33.625 Z M 28.78125 0 "/></g></g><g transform="translate(387.074994, 389.878299)"><g><path d="M 11.8125 -23.15625 L 1.71875 -23.15625 L 1.71875 -41.609375 L 11.8125 -41.609375 Z M 11.8125 -23.15625 "/></g></g><g transform="translate(400.673883, 389.878299)"><g><path d="M 29.40625 -7.484375 C 29.40625 -2.492188 27.144531 0 22.625 0 L 15.46875 0 L 15.46875 -10.890625 L 17.609375 -10.890625 C 18.660156 -10.890625 19.1875 -11.523438 19.1875 -12.796875 L 19.1875 -28.640625 C 19.1875 -29.898438 18.867188 -30.53125 18.234375 -30.53125 C 17.609375 -30.53125 17.175781 -29.816406 16.9375 -28.390625 L 11.84375 0 L 1.796875 0 L 6.078125 -23.234375 L 4.078125 -23.234375 C 2.503906 -23.234375 1.71875 -24.003906 1.71875 -25.546875 L 1.71875 -41.609375 L 11.90625 -41.609375 L 11.90625 -26.921875 L 13.953125 -34.96875 C 15.078125 -39.394531 17.5 -41.609375 21.21875 -41.609375 L 21.75 -41.609375 C 26.851562 -41.609375 29.40625 -38.492188 29.40625 -32.265625 Z M 29.40625 -7.484375 "/></g></g><g transform="translate(431.877536, 389.878299)"><g><path d="M 11.953125 0 L 1.796875 0 L 1.796875 -41.609375 L 11.953125 -41.609375 Z M 11.953125 0 "/></g></g><g transform="translate(445.616982, 389.878299)"><g><path d="M 18.828125 0 C 18.523438 -1.632812 17.863281 -3.789062 16.84375 -6.46875 C 15.832031 -9.15625 14.445312 -12.398438 12.6875 -16.203125 C 12.5 -15.992188 12.359375 -15.828125 12.265625 -15.703125 C 12.171875 -15.585938 12.113281 -15.519531 12.09375 -15.5 C 12.0625 -15.40625 12.039062 -15.195312 12.03125 -14.875 C 12.019531 -14.5625 12.015625 -14.125 12.015625 -13.5625 L 12.015625 0 L 1.859375 0 L 1.859375 -12.4375 C 1.859375 -19.019531 3.882812 -23.285156 7.9375 -25.234375 C 4.050781 -32.867188 1.882812 -38.328125 1.4375 -41.609375 L 12.015625 -41.609375 C 12.535156 -39.265625 13.300781 -36.789062 14.3125 -34.1875 C 15.332031 -31.59375 16.617188 -28.832031 18.171875 -25.90625 C 18.753906 -26.320312 19.046875 -27.1875 19.046875 -28.5 L 19.046875 -41.609375 L 29.3125 -41.609375 L 29.3125 -27.515625 C 29.3125 -25.410156 28.664062 -23.359375 27.375 -21.359375 C 26.082031 -19.390625 24.488281 -17.894531 22.59375 -16.875 C 26.976562 -8.15625 29.21875 -2.53125 29.3125 0 Z M 18.828125 0 "/></g></g><g transform="translate(476.363825, 389.878299)"><g><path d="M 24.84375 -15.046875 C 24.84375 -5.015625 20.039062 0 10.4375 0 L 6.046875 0 L 6.046875 -10.859375 L 9 -10.859375 C 11.269531 -10.859375 12.816406 -11.582031 13.640625 -13.03125 C 14.222656 -14.0625 14.515625 -15.851562 14.515625 -18.40625 L 14.515625 -29.03125 C 14.515625 -30.175781 13.925781 -30.75 12.75 -30.75 L 1.796875 -30.75 L 1.796875 -46.765625 L 11.984375 -46.765625 L 11.984375 -41.609375 L 19.640625 -41.609375 C 23.109375 -41.609375 24.84375 -39.929688 24.84375 -36.578125 Z M 24.84375 -15.046875 "/></g></g><g transform="translate(502.999375, 389.878299)"><g><path d="M 26.671875 0 L 16.34375 0 L 16.34375 -29.03125 C 16.34375 -30.175781 15.753906 -30.75 14.578125 -30.75 L 1.796875 -30.75 L 1.796875 -41.609375 L 19.328125 -41.609375 C 21.484375 -41.609375 23.253906 -40.914062 24.640625 -39.53125 C 25.992188 -38.175781 26.671875 -36.410156 26.671875 -34.234375 Z M 11.953125 0 L 1.828125 0 L 1.828125 -25.796875 L 11.953125 -25.796875 Z M 11.953125 0 "/></g></g><g transform="translate(531.462166, 389.878299)"><g/></g><g transform="translate(547.380246, 389.878299)"><g><path d="M 27.828125 0 L 1.796875 0 L 1.796875 -34.328125 C 1.796875 -36.929688 2.226562 -38.75 3.09375 -39.78125 C 4.070312 -41 5.828125 -41.609375 8.359375 -41.609375 L 20.796875 -41.609375 C 25.484375 -41.609375 27.828125 -39.179688 27.828125 -34.328125 Z M 17.671875 -28.78125 C 17.671875 -30.09375 17.078125 -30.75 15.890625 -30.75 L 13.921875 -30.75 C 12.722656 -30.75 12.125 -30.09375 12.125 -28.78125 L 12.125 -10.859375 L 17.671875 -10.859375 Z M 17.671875 -28.78125 "/></g></g><g transform="translate(577.002632, 389.878299)"><g><path d="M 11.953125 0 L 1.796875 0 L 1.796875 -41.609375 L 11.953125 -41.609375 Z M 11.953125 0 "/></g></g><g transform="translate(590.742079, 389.878299)"><g><path d="M 22.28125 0 L 11.984375 0 L 11.984375 -29.03125 C 11.984375 -30.175781 11.382812 -30.75 10.1875 -30.75 L 1.09375 -30.75 L 1.09375 -41.609375 L 14.9375 -41.609375 C 17.09375 -41.609375 18.859375 -40.914062 20.234375 -39.53125 C 21.597656 -38.175781 22.28125 -36.410156 22.28125 -34.234375 Z M 22.28125 0 "/></g></g><g transform="translate(614.812464, 389.878299)"><g><path d="M 11.8125 -23.15625 L 1.71875 -23.15625 L 1.71875 -41.609375 L 11.8125 -41.609375 Z M 11.8125 -23.15625 "/></g></g><g transform="translate(628.411353, 389.878299)"><g><path d="M 27.125 0 L 16.9375 0 L 16.9375 -28.78125 C 16.9375 -30.09375 16.335938 -30.75 15.140625 -30.75 L 13.921875 -30.75 C 12.722656 -30.75 12.125 -30.09375 12.125 -28.78125 L 12.125 0 L 1.796875 0 L 1.796875 -34.328125 C 1.796875 -36.929688 2.226562 -38.75 3.09375 -39.78125 C 4.070312 -41 5.828125 -41.609375 8.359375 -41.609375 L 20.09375 -41.609375 C 24.78125 -41.609375 27.125 -39.179688 27.125 -34.328125 Z M 27.125 0 "/></g></g><g transform="translate(657.330955, 389.878299)"><g><path d="M 26.671875 0 L 16.34375 0 L 16.34375 -29.03125 C 16.34375 -30.175781 15.753906 -30.75 14.578125 -30.75 L 1.796875 -30.75 L 1.796875 -41.609375 L 19.328125 -41.609375 C 21.484375 -41.609375 23.253906 -40.914062 24.640625 -39.53125 C 25.992188 -38.175781 26.671875 -36.410156 26.671875 -34.234375 Z M 11.953125 0 L 1.828125 0 L 1.828125 -25.796875 L 11.953125 -25.796875 Z M 11.953125 0 "/></g></g><g transform="translate(685.793746, 389.878299)"><g/></g><g transform="translate(701.711826, 389.878299)"><g><path d="M 28.78125 0 L 18.625 0 L 18.625 -28.78125 C 18.625 -30.09375 18.023438 -30.75 16.828125 -30.75 L 15.46875 -30.75 C 14.25 -30.75 13.640625 -30.09375 13.640625 -28.78125 L 13.640625 -4.984375 C 13.640625 -1.660156 12.242188 0 9.453125 0 L 0.703125 0 L 0.703125 -10.859375 L 2.453125 -10.859375 C 3.046875 -10.859375 3.34375 -11.113281 3.34375 -11.625 L 3.34375 -33.625 C 3.34375 -36.457031 3.890625 -38.5 4.984375 -39.75 C 6.085938 -40.988281 8.035156 -41.609375 10.828125 -41.609375 L 21.78125 -41.609375 C 26.445312 -41.609375 28.78125 -38.945312 28.78125 -33.625 Z M 28.78125 0 "/></g></g><g transform="translate(732.318111, 389.878299)"><g><path d="M 11.953125 0 L 1.796875 0 L 1.796875 -41.609375 L 11.953125 -41.609375 Z M 11.953125 0 "/></g></g><g transform="translate(746.057558, 389.878299)"><g><path d="M 11.59375 -29.796875 L 13.171875 -29.796875 C 14.328125 -29.796875 14.90625 -30.414062 14.90625 -31.65625 L 14.90625 -41.609375 L 24.28125 -41.609375 L 24.28125 -29.9375 C 24.28125 -25.09375 22.1875 -22.671875 18 -22.671875 L 11.59375 -22.671875 L 11.59375 -12.75 C 11.59375 -11.488281 12.117188 -10.859375 13.171875 -10.859375 L 26 -10.859375 C 27.03125 -10.859375 27.546875 -11.488281 27.546875 -12.75 L 27.546875 -41.609375 L 37.390625 -41.609375 L 37.390625 -9.453125 C 37.390625 -6.597656 36.648438 -4.328125 35.171875 -2.640625 C 33.628906 -0.878906 31.441406 0 28.609375 0 L 10.578125 0 C 4.722656 0 1.796875 -3.148438 1.796875 -9.453125 L 1.796875 -41.609375 L 11.59375 -41.609375 Z M 11.59375 -29.796875 "/></g></g><g transform="translate(785.237819, 389.878299)"><g><path d="M 22.28125 0 L 11.984375 0 L 11.984375 -29.03125 C 11.984375 -30.175781 11.382812 -30.75 10.1875 -30.75 L 1.09375 -30.75 L 1.09375 -41.609375 L 14.9375 -41.609375 C 17.09375 -41.609375 18.859375 -40.914062 20.234375 -39.53125 C 21.597656 -38.175781 22.28125 -36.410156 22.28125 -34.234375 Z M 22.28125 0 "/></g></g><g transform="translate(809.308205, 389.878299)"><g/></g><g transform="translate(825.226285, 389.878299)"><g><path d="M 26.671875 0 L 16.34375 0 L 16.34375 -29.03125 C 16.34375 -30.175781 15.753906 -30.75 14.578125 -30.75 L 1.796875 -30.75 L 1.796875 -41.609375 L 19.328125 -41.609375 C 21.484375 -41.609375 23.253906 -40.914062 24.640625 -39.53125 C 25.992188 -38.175781 26.671875 -36.410156 26.671875 -34.234375 Z M 11.953125 0 L 1.828125 0 L 1.828125 -25.796875 L 11.953125 -25.796875 Z M 11.953125 0 "/></g></g><g transform="translate(853.689076, 389.878299)"><g><path d="M 28.109375 -8.015625 C 28.109375 -2.671875 25.90625 0 21.5 0 L 8.40625 0 C 6.175781 0 4.488281 -0.804688 3.34375 -2.421875 C 2.3125 -3.878906 1.796875 -5.742188 1.796875 -8.015625 L 1.796875 -41.609375 L 11.90625 -41.609375 L 11.90625 -28.5 L 13.921875 -35.59375 C 15.046875 -39.601562 17.09375 -41.609375 20.0625 -41.609375 L 22.140625 -41.609375 C 26.117188 -41.609375 28.109375 -39.441406 28.109375 -35.109375 Z M 18.03125 -29.796875 C 18.03125 -30.242188 17.9375 -30.46875 17.75 -30.46875 C 17.601562 -30.46875 17.484375 -30.28125 17.390625 -29.90625 L 15.921875 -24.390625 L 11.90625 -24.390625 L 11.90625 -12.75 C 11.90625 -11.488281 12.421875 -10.859375 13.453125 -10.859375 L 16.453125 -10.859375 C 17.503906 -10.859375 18.03125 -11.488281 18.03125 -12.75 Z M 18.03125 -29.796875 "/></g></g><g transform="translate(883.592576, 389.878299)"><g><path d="M 29.40625 -7.484375 C 29.40625 -2.492188 27.144531 0 22.625 0 L 15.46875 0 L 15.46875 -10.890625 L 17.609375 -10.890625 C 18.660156 -10.890625 19.1875 -11.523438 19.1875 -12.796875 L 19.1875 -28.640625 C 19.1875 -29.898438 18.867188 -30.53125 18.234375 -30.53125 C 17.609375 -30.53125 17.175781 -29.816406 16.9375 -28.390625 L 11.84375 0 L 1.796875 0 L 6.078125 -23.234375 L 4.078125 -23.234375 C 2.503906 -23.234375 1.71875 -24.003906 1.71875 -25.546875 L 1.71875 -41.609375 L 11.90625 -41.609375 L 11.90625 -26.921875 L 13.953125 -34.96875 C 15.078125 -39.394531 17.5 -41.609375 21.21875 -41.609375 L 21.75 -41.609375 C 26.851562 -41.609375 29.40625 -38.492188 29.40625 -32.265625 Z M 29.40625 -7.484375 "/></g></g><g transform="translate(914.796229, 389.878299)"><g/></g><g transform="translate(930.714309, 389.878299)"><g><path d="M 25.546875 0 L 1.796875 0 L 1.796875 -10.859375 L 9.703125 -10.859375 C 12.015625 -10.859375 13.171875 -12.226562 13.171875 -14.96875 L 13.171875 -27.4375 C 13.171875 -28.65625 12.957031 -29.507812 12.53125 -30 C 12.113281 -30.5 11.3125 -30.75 10.125 -30.75 L 1.796875 -30.75 L 1.796875 -41.609375 L 15.46875 -41.609375 C 20.832031 -41.609375 23.515625 -38.429688 23.515625 -32.078125 L 23.515625 -17.859375 C 23.515625 -14.171875 22.140625 -11.835938 19.390625 -10.859375 L 25.546875 -10.859375 Z M 25.546875 0 "/></g></g><g transform="translate(957.701252, 389.878299)"><g><path d="M 11.953125 0 L 1.796875 0 L 1.796875 -41.609375 L 11.953125 -41.609375 Z M 11.953125 0 "/></g></g><g transform="translate(971.440698, 389.878299)"><g><path d="M 24.84375 -15.046875 C 24.84375 -5.015625 20.039062 0 10.4375 0 L 6.046875 0 L 6.046875 -10.859375 L 9 -10.859375 C 11.269531 -10.859375 12.816406 -11.582031 13.640625 -13.03125 C 14.222656 -14.0625 14.515625 -15.851562 14.515625 -18.40625 L 14.515625 -29.03125 C 14.515625 -30.175781 13.925781 -30.75 12.75 -30.75 L 1.796875 -30.75 L 1.796875 -46.765625 L 11.984375 -46.765625 L 11.984375 -41.609375 L 19.640625 -41.609375 C 23.109375 -41.609375 24.84375 -39.929688 24.84375 -36.578125 Z M 24.84375 -15.046875 "/></g></g><g transform="translate(998.076249, 389.878299)"><g><path d="M 11.8125 -23.15625 L 1.71875 -23.15625 L 1.71875 -41.609375 L 11.8125 -41.609375 Z M 11.8125 -23.15625 "/></g></g><g transform="translate(1011.675138, 389.878299)"><g><path d="M 11.59375 -29.796875 L 13.171875 -29.796875 C 14.328125 -29.796875 14.90625 -30.414062 14.90625 -31.65625 L 14.90625 -41.609375 L 24.28125 -41.609375 L 24.28125 -29.9375 C 24.28125 -25.09375 22.1875 -22.671875 18 -22.671875 L 11.59375 -22.671875 L 11.59375 -12.75 C 11.59375 -11.488281 12.117188 -10.859375 13.171875 -10.859375 L 26 -10.859375 C 27.03125 -10.859375 27.546875 -11.488281 27.546875 -12.75 L 27.546875 -41.609375 L 37.390625 -41.609375 L 37.390625 -9.453125 C 37.390625 -6.597656 36.648438 -4.328125 35.171875 -2.640625 C 33.628906 -0.878906 31.441406 0 28.609375 0 L 10.578125 0 C 4.722656 0 1.796875 -3.148438 1.796875 -9.453125 L 1.796875 -41.609375 L 11.59375 -41.609375 Z M 11.59375 -29.796875 "/></g></g></g><g fill="#cf4545" fill-opacity="1"><g transform="translate(356.222733, 464.84203)"><g><path d="M 26.5625 5.90625 L 16.453125 5.90625 L 16.453125 -29.03125 C 16.453125 -30.175781 15.875 -30.75 14.71875 -30.75 L 13.53125 -30.75 C 12.570312 -30.75 12.09375 -30.148438 12.09375 -28.953125 L 12.09375 -22.84375 L 1.796875 -22.84375 L 1.796875 -34.234375 C 1.796875 -39.148438 4.40625 -41.609375 9.625 -41.609375 L 18.546875 -41.609375 C 20.753906 -41.609375 22.617188 -40.941406 24.140625 -39.609375 C 25.753906 -38.203125 26.5625 -36.410156 26.5625 -34.234375 Z M 26.5625 5.90625 "/></g></g><g transform="translate(384.580107, 464.84203)"><g><path d="M 22.28125 0 L 11.984375 0 L 11.984375 -29.03125 C 11.984375 -30.175781 11.382812 -30.75 10.1875 -30.75 L 1.09375 -30.75 L 1.09375 -41.609375 L 14.9375 -41.609375 C 17.09375 -41.609375 18.859375 -40.914062 20.234375 -39.53125 C 21.597656 -38.175781 22.28125 -36.410156 22.28125 -34.234375 Z M 22.28125 0 "/></g></g><g transform="translate(408.650492, 464.84203)"><g><path d="M 11.953125 0 L 1.796875 0 L 1.796875 -41.609375 L 11.953125 -41.609375 Z M 11.953125 0 "/></g></g><g transform="translate(422.389938, 464.84203)"><g><path d="M 27.546875 -10.96875 C 27.546875 -3.65625 24.546875 0 18.546875 0 L 1.09375 0 L 1.09375 -10.859375 L 3.546875 -10.859375 L 3.546875 -41.609375 L 13.703125 -41.609375 L 13.703125 -10.859375 L 15.75 -10.859375 C 16.914062 -10.859375 17.5 -11.664062 17.5 -13.28125 L 17.5 -41.609375 L 27.546875 -41.609375 Z M 27.546875 -10.96875 "/></g></g><g transform="translate(451.731211, 464.84203)"><g><path d="M 26.671875 0 L 16.34375 0 L 16.34375 -29.03125 C 16.34375 -30.175781 15.753906 -30.75 14.578125 -30.75 L 1.796875 -30.75 L 1.796875 -41.609375 L 19.328125 -41.609375 C 21.484375 -41.609375 23.253906 -40.914062 24.640625 -39.53125 C 25.992188 -38.175781 26.671875 -36.410156 26.671875 -34.234375 Z M 11.953125 0 L 1.828125 0 L 1.828125 -25.796875 L 11.953125 -25.796875 Z M 11.953125 0 "/></g></g><g transform="translate(480.194002, 464.84203)"><g/></g><g transform="translate(496.112082, 464.84203)"><g><path d="M 28.78125 0 L 18.625 0 L 18.625 -28.78125 C 18.625 -30.09375 18.023438 -30.75 16.828125 -30.75 L 15.46875 -30.75 C 14.25 -30.75 13.640625 -30.09375 13.640625 -28.78125 L 13.640625 -4.984375 C 13.640625 -1.660156 12.242188 0 9.453125 0 L 0.703125 0 L 0.703125 -10.859375 L 2.453125 -10.859375 C 3.046875 -10.859375 3.34375 -11.113281 3.34375 -11.625 L 3.34375 -33.625 C 3.34375 -36.457031 3.890625 -38.5 4.984375 -39.75 C 6.085938 -40.988281 8.035156 -41.609375 10.828125 -41.609375 L 21.78125 -41.609375 C 26.445312 -41.609375 28.78125 -38.945312 28.78125 -33.625 Z M 28.78125 0 "/></g></g><g transform="translate(526.718367, 464.84203)"><g><path d="M 20.171875 -6.53125 C 20.171875 -2.175781 18.109375 0 13.984375 0 L 1.4375 0 L 1.4375 -10.859375 L 8.640625 -10.859375 C 9.484375 -10.859375 9.90625 -11.375 9.90625 -12.40625 L 9.90625 -29.03125 C 9.90625 -30.175781 9.390625 -30.75 8.359375 -30.75 L 4.421875 -30.75 L 4.421875 -41.609375 L 13.8125 -41.609375 C 18.050781 -41.609375 20.171875 -39.414062 20.171875 -35.03125 Z M 20.171875 -6.53125 "/></g></g><g transform="translate(548.680398, 464.84203)"><g><path d="M 24.671875 0 L 14.515625 0 L 12.6875 -11.53125 C 11.957031 -11.53125 11.5 -11.015625 11.3125 -9.984375 L 9.421875 0 L 0.34375 0 L 2.78125 -12.015625 C 3.851562 -17.453125 6.367188 -20.171875 10.328125 -20.171875 L 12.015625 -20.171875 L 12.015625 -29.03125 C 12.015625 -30.175781 11.359375 -30.75 10.046875 -30.75 L 2.8125 -30.75 L 2.8125 -41.609375 L 14.546875 -41.609375 C 19.679688 -41.609375 22.25 -38.914062 22.25 -33.53125 L 22.25 -19.53125 C 22.25 -18.0625 22.285156 -16.703125 22.359375 -15.453125 C 22.441406 -14.210938 22.566406 -13.078125 22.734375 -12.046875 Z M 24.671875 0 "/></g></g><g transform="translate(574.086074, 464.84203)"><g><path d="M 26.671875 0 L 16.34375 0 L 16.34375 -29.03125 C 16.34375 -30.175781 15.753906 -30.75 14.578125 -30.75 L 1.796875 -30.75 L 1.796875 -41.609375 L 19.328125 -41.609375 C 21.484375 -41.609375 23.253906 -40.914062 24.640625 -39.53125 C 25.992188 -38.175781 26.671875 -36.410156 26.671875 -34.234375 Z M 11.953125 0 L 1.828125 0 L 1.828125 -25.796875 L 11.953125 -25.796875 Z M 11.953125 0 "/></g></g><g transform="translate(602.548865, 464.84203)"><g><path d="M 24.84375 -15.046875 C 24.84375 -5.015625 20.039062 0 10.4375 0 L 6.046875 0 L 6.046875 -10.859375 L 9 -10.859375 C 11.269531 -10.859375 12.816406 -11.582031 13.640625 -13.03125 C 14.222656 -14.0625 14.515625 -15.851562 14.515625 -18.40625 L 14.515625 -29.03125 C 14.515625 -30.175781 13.925781 -30.75 12.75 -30.75 L 1.796875 -30.75 L 1.796875 -46.765625 L 11.984375 -46.765625 L 11.984375 -41.609375 L 19.640625 -41.609375 C 23.109375 -41.609375 24.84375 -39.929688 24.84375 -36.578125 Z M 24.84375 -15.046875 "/></g></g><g transform="translate(629.184416, 464.84203)"><g/></g><g transform="translate(645.102496, 464.84203)"><g><path d="M 23.75 -30.75 C 21.457031 -30.75 20.3125 -29.625 20.3125 -27.375 L 20.3125 0 L 9.984375 0 L 9.984375 -24.5 C 9.984375 -27.707031 11.34375 -29.789062 14.0625 -30.75 L 1.09375 -30.75 L 1.09375 -41.609375 L 23.75 -41.609375 Z M 23.75 -30.75 "/></g></g><g transform="translate(670.648729, 464.84203)"><g><path d="M 22.28125 0 L 11.984375 0 L 11.984375 -29.03125 C 11.984375 -30.175781 11.382812 -30.75 10.1875 -30.75 L 1.09375 -30.75 L 1.09375 -41.609375 L 14.9375 -41.609375 C 17.09375 -41.609375 18.859375 -40.914062 20.234375 -39.53125 C 21.597656 -38.175781 22.28125 -36.410156 22.28125 -34.234375 Z M 22.28125 0 "/></g></g><g transform="translate(694.719115, 464.84203)"><g><path d="M 11.59375 -29.796875 L 13.171875 -29.796875 C 14.328125 -29.796875 14.90625 -30.414062 14.90625 -31.65625 L 14.90625 -41.609375 L 24.28125 -41.609375 L 24.28125 -29.9375 C 24.28125 -25.09375 22.1875 -22.671875 18 -22.671875 L 11.59375 -22.671875 L 11.59375 -12.75 C 11.59375 -11.488281 12.117188 -10.859375 13.171875 -10.859375 L 26 -10.859375 C 27.03125 -10.859375 27.546875 -11.488281 27.546875 -12.75 L 27.546875 -41.609375 L 37.390625 -41.609375 L 37.390625 -9.453125 C 37.390625 -6.597656 36.648438 -4.328125 35.171875 -2.640625 C 33.628906 -0.878906 31.441406 0 28.609375 0 L 10.578125 0 C 4.722656 0 1.796875 -3.148438 1.796875 -9.453125 L 1.796875 -41.609375 L 11.59375 -41.609375 Z M 11.59375 -29.796875 "/></g></g><g transform="translate(733.899377, 464.84203)"><g><path d="M 29.40625 -7.484375 C 29.40625 -2.492188 27.144531 0 22.625 0 L 15.46875 0 L 15.46875 -10.890625 L 17.609375 -10.890625 C 18.660156 -10.890625 19.1875 -11.523438 19.1875 -12.796875 L 19.1875 -28.640625 C 19.1875 -29.898438 18.867188 -30.53125 18.234375 -30.53125 C 17.609375 -30.53125 17.175781 -29.816406 16.9375 -28.390625 L 11.84375 0 L 1.796875 0 L 6.078125 -23.234375 L 4.078125 -23.234375 C 2.503906 -23.234375 1.71875 -24.003906 1.71875 -25.546875 L 1.71875 -41.609375 L 11.90625 -41.609375 L 11.90625 -26.921875 L 13.953125 -34.96875 C 15.078125 -39.394531 17.5 -41.609375 21.21875 -41.609375 L 21.75 -41.609375 C 26.851562 -41.609375 29.40625 -38.492188 29.40625 -32.265625 Z M 29.40625 -7.484375 "/></g></g><g transform="translate(765.103029, 464.84203)"><g><path d="M 25.546875 0 L 1.796875 0 L 1.796875 -10.859375 L 9.703125 -10.859375 C 12.015625 -10.859375 13.171875 -12.226562 13.171875 -14.96875 L 13.171875 -27.4375 C 13.171875 -28.65625 12.957031 -29.507812 12.53125 -30 C 12.113281 -30.5 11.3125 -30.75 10.125 -30.75 L 1.796875 -30.75 L 1.796875 -41.609375 L 15.46875 -41.609375 C 20.832031 -41.609375 23.515625 -38.429688 23.515625 -32.078125 L 23.515625 -17.859375 C 23.515625 -14.171875 22.140625 -11.835938 19.390625 -10.859375 L 25.546875 -10.859375 Z M 25.546875 0 "/></g></g></g><path stroke-linecap="butt" transform="matrix(0.749637, 0, 0, 0.749637, 276.977418, 305.019357)" fill="none" stroke-linejoin="miter" d="M -0.0011413 4.50241 L 681.599312 4.50241 " stroke="#cf4545" stroke-width="9" stroke-opacity="1" stroke-miterlimit="4"/><g fill="#cf4545" fill-opacity="1"><g transform="translate(141.58404, 265.63656)"><g><path d="M 28.921875 -8.859375 C 28.921875 -2.953125 26.503906 0 21.671875 0 L 3.046875 0 L 3.046875 -12.0625 L 17.765625 -12.0625 L 17.765625 -17.40625 L 6.71875 -17.40625 L 11.828125 -34.125 L 3.046875 -34.125 L 3.046875 -46.21875 L 28.140625 -46.21875 L 22.296875 -28.6875 C 26.710938 -28.6875 28.921875 -25.941406 28.921875 -20.453125 Z M 28.921875 -8.859375 "/></g></g></g><g fill="#cf4545" fill-opacity="1"><g transform="translate(172.776838, 265.63656)"><g><path d="M 28.53125 -46.21875 L 25.421875 -27.09375 L 28.0625 -27.09375 L 28.0625 -15.03125 L 23.578125 -15.03125 L 21.359375 0 L 9.609375 0 L 11.90625 -15.03125 L 7.421875 -15.03125 L 7.421875 -27.09375 L 13.65625 -27.09375 L 14.71875 -34.125 L 2.65625 -34.125 L 2.65625 -46.21875 Z M 28.53125 -46.21875 "/></g></g></g><g fill="#cf4545" fill-opacity="1"><g transform="translate(203.969635, 265.63656)"><g><path d="M 31.578125 -8.78125 L 29.28125 -8.78125 L 29.28125 0 L 18 0 L 18 -8.78125 L -0.390625 -8.78125 L 8.390625 -46.21875 L 20.140625 -46.21875 L 14.328125 -20.890625 L 18 -20.890625 L 18 -28.84375 L 29.28125 -28.84375 L 29.28125 -20.890625 L 31.578125 -20.890625 Z M 31.578125 -8.78125 "/></g></g></g><g fill="#cf4545" fill-opacity="1"><g transform="translate(235.162432, 265.63656)"><g><path d="M 29.203125 -8.859375 C 29.203125 -6.046875 28.40625 -3.863281 26.8125 -2.3125 C 25.226562 -0.769531 23.03125 0 20.21875 0 L 11.046875 0 C 8.597656 0 6.488281 -0.867188 4.71875 -2.609375 C 2.945312 -4.378906 2.0625 -6.460938 2.0625 -8.859375 L 2.0625 -37.328125 C 2.0625 -40.160156 2.847656 -42.347656 4.421875 -43.890625 C 6.003906 -45.441406 8.210938 -46.21875 11.046875 -46.21875 L 20.21875 -46.21875 C 23.03125 -46.21875 25.226562 -45.4375 26.8125 -43.875 C 28.40625 -42.3125 29.203125 -40.128906 29.203125 -37.328125 Z M 17.84375 -12.0625 L 17.84375 -34.125 L 13.34375 -34.125 L 13.34375 -12.0625 Z M 17.84375 -12.0625 "/></g></g></g><g fill="#cf4545" fill-opacity="1"><g transform="translate(266.363516, 265.63656)"><g/></g></g><g fill="#cf4545" fill-opacity="1"><g transform="translate(284.048544, 265.63656)"><g><path d="M 29.625 0 L 18.15625 0 L 18.15625 -32.25 C 18.15625 -33.519531 17.503906 -34.15625 16.203125 -34.15625 L 1.984375 -34.15625 L 1.984375 -46.21875 L 21.46875 -46.21875 C 23.863281 -46.21875 25.828125 -45.453125 27.359375 -43.921875 C 28.867188 -42.410156 29.625 -40.445312 29.625 -38.03125 Z M 13.28125 0 L 2.03125 0 L 2.03125 -28.65625 L 13.28125 -28.65625 Z M 13.28125 0 "/></g></g></g><g fill="#cf4545" fill-opacity="1"><g transform="translate(315.670779, 265.63656)"><g><path d="M 27.59375 -16.703125 C 27.59375 -5.566406 22.257812 0 11.59375 0 L 6.71875 0 L 6.71875 -12.0625 L 10 -12.0625 C 12.519531 -12.0625 14.234375 -12.867188 15.140625 -14.484375 C 15.796875 -15.628906 16.125 -17.617188 16.125 -20.453125 L 16.125 -32.25 C 16.125 -33.519531 15.472656 -34.15625 14.171875 -34.15625 L 1.984375 -34.15625 L 1.984375 -51.96875 L 13.3125 -51.96875 L 13.3125 -46.21875 L 21.828125 -46.21875 C 25.671875 -46.21875 27.59375 -44.359375 27.59375 -40.640625 Z M 27.59375 -16.703125 "/></g></g></g><g fill="#cf4545" fill-opacity="1"><g transform="translate(345.262945, 265.63656)"><g><path d="M 12.890625 -33.109375 L 14.640625 -33.109375 C 15.910156 -33.109375 16.546875 -33.796875 16.546875 -35.171875 L 16.546875 -46.21875 L 26.96875 -46.21875 L 26.96875 -33.265625 C 26.96875 -27.878906 24.640625 -25.1875 19.984375 -25.1875 L 12.890625 -25.1875 L 12.890625 -14.171875 C 12.890625 -12.765625 13.472656 -12.0625 14.640625 -12.0625 L 28.890625 -12.0625 C 30.035156 -12.0625 30.609375 -12.765625 30.609375 -14.171875 L 30.609375 -46.21875 L 41.53125 -46.21875 L 41.53125 -10.5 C 41.53125 -7.320312 40.710938 -4.796875 39.078125 -2.921875 C 37.359375 -0.972656 34.925781 0 31.78125 0 L 11.75 0 C 5.238281 0 1.984375 -3.5 1.984375 -10.5 L 1.984375 -46.21875 L 12.890625 -46.21875 Z M 12.890625 -33.109375 "/></g></g></g><g fill="#cf4545" fill-opacity="1"><g transform="translate(388.792317, 265.63656)"><g><path d="M 32.671875 -8.3125 C 32.671875 -2.769531 30.160156 0 25.140625 0 L 17.171875 0 L 17.171875 -12.109375 L 19.5625 -12.109375 C 20.726562 -12.109375 21.3125 -12.804688 21.3125 -14.203125 L 21.3125 -31.8125 C 21.3125 -33.21875 20.960938 -33.921875 20.265625 -33.921875 C 19.554688 -33.921875 19.070312 -33.128906 18.8125 -31.546875 L 13.15625 0 L 1.984375 0 L 6.75 -25.8125 L 4.53125 -25.8125 C 2.78125 -25.8125 1.90625 -26.664062 1.90625 -28.375 L 1.90625 -46.21875 L 13.234375 -46.21875 L 13.234375 -29.90625 L 15.5 -38.84375 C 16.75 -43.757812 19.441406 -46.21875 23.578125 -46.21875 L 24.171875 -46.21875 C 29.835938 -46.21875 32.671875 -42.757812 32.671875 -35.84375 Z M 32.671875 -8.3125 "/></g></g></g><g fill="#cf4545" fill-opacity="1"><g transform="translate(423.459657, 265.63656)"><g><path d="M 32.671875 -8.3125 C 32.671875 -2.769531 30.160156 0 25.140625 0 L 17.171875 0 L 17.171875 -12.109375 L 19.5625 -12.109375 C 20.726562 -12.109375 21.3125 -12.804688 21.3125 -14.203125 L 21.3125 -31.8125 C 21.3125 -33.21875 20.960938 -33.921875 20.265625 -33.921875 C 19.554688 -33.921875 19.070312 -33.128906 18.8125 -31.546875 L 13.15625 0 L 1.984375 0 L 6.75 -25.8125 L 4.53125 -25.8125 C 2.78125 -25.8125 1.90625 -26.664062 1.90625 -28.375 L 1.90625 -46.21875 L 13.234375 -46.21875 L 13.234375 -29.90625 L 15.5 -38.84375 C 16.75 -43.757812 19.441406 -46.21875 23.578125 -46.21875 L 24.171875 -46.21875 C 29.835938 -46.21875 32.671875 -42.757812 32.671875 -35.84375 Z M 32.671875 -8.3125 "/></g></g></g><g fill="#cf4545" fill-opacity="1"><g transform="translate(458.126996, 265.63656)"><g/></g></g><g fill="#cf4545" fill-opacity="1"><g transform="translate(475.812012, 265.63656)"><g><path d="M 31.96875 0 L 20.6875 0 L 20.6875 -31.96875 C 20.6875 -33.425781 20.023438 -34.15625 18.703125 -34.15625 L 17.171875 -34.15625 C 15.816406 -34.15625 15.140625 -33.425781 15.140625 -31.96875 L 15.140625 -5.546875 C 15.140625 -1.847656 13.59375 0 10.5 0 L 0.78125 0 L 0.78125 -12.0625 L 2.734375 -12.0625 C 3.378906 -12.0625 3.703125 -12.347656 3.703125 -12.921875 L 3.703125 -37.359375 C 3.703125 -40.503906 4.316406 -42.769531 5.546875 -44.15625 C 6.765625 -45.53125 8.925781 -46.21875 12.03125 -46.21875 L 24.203125 -46.21875 C 29.378906 -46.21875 31.96875 -43.265625 31.96875 -37.359375 Z M 31.96875 0 "/></g></g></g><g fill="#cf4545" fill-opacity="1"><g transform="translate(509.815686, 265.63656)"><g><path d="M 31.234375 -8.90625 C 31.234375 -2.96875 28.785156 0 23.890625 0 L 9.328125 0 C 6.859375 0 4.984375 -0.894531 3.703125 -2.6875 C 2.554688 -4.300781 1.984375 -6.375 1.984375 -8.90625 L 1.984375 -46.21875 L 13.234375 -46.21875 L 13.234375 -31.65625 L 15.453125 -39.546875 C 16.703125 -43.992188 18.984375 -46.21875 22.296875 -46.21875 L 24.59375 -46.21875 C 29.019531 -46.21875 31.234375 -43.8125 31.234375 -39 Z M 20.03125 -33.109375 C 20.03125 -33.597656 19.925781 -33.84375 19.71875 -33.84375 C 19.5625 -33.84375 19.429688 -33.632812 19.328125 -33.21875 L 17.6875 -27.09375 L 13.234375 -27.09375 L 13.234375 -14.171875 C 13.234375 -12.765625 13.804688 -12.0625 14.953125 -12.0625 L 18.265625 -12.0625 C 19.441406 -12.0625 20.03125 -12.765625 20.03125 -14.171875 Z M 20.03125 -33.109375 "/></g></g></g><g fill="#cf4545" fill-opacity="1"><g transform="translate(543.038565, 265.63656)"><g><path d="M 27.59375 -16.703125 C 27.59375 -5.566406 22.257812 0 11.59375 0 L 6.71875 0 L 6.71875 -12.0625 L 10 -12.0625 C 12.519531 -12.0625 14.234375 -12.867188 15.140625 -14.484375 C 15.796875 -15.628906 16.125 -17.617188 16.125 -20.453125 L 16.125 -32.25 C 16.125 -33.519531 15.472656 -34.15625 14.171875 -34.15625 L 1.984375 -34.15625 L 1.984375 -51.96875 L 13.3125 -51.96875 L 13.3125 -46.21875 L 21.828125 -46.21875 C 25.671875 -46.21875 27.59375 -44.359375 27.59375 -40.640625 Z M 27.59375 -16.703125 "/></g></g></g><g fill="#cf4545" fill-opacity="1"><g transform="translate(572.630731, 265.63656)"><g><path d="M 30.140625 0 L 18.8125 0 L 18.8125 -31.96875 C 18.8125 -33.425781 18.148438 -34.15625 16.828125 -34.15625 L 15.453125 -34.15625 C 14.128906 -34.15625 13.46875 -33.425781 13.46875 -31.96875 L 13.46875 0 L 1.984375 0 L 1.984375 -38.140625 C 1.984375 -41.023438 2.46875 -43.039062 3.4375 -44.1875 C 4.53125 -45.539062 6.484375 -46.21875 9.296875 -46.21875 L 22.328125 -46.21875 C 27.535156 -46.21875 30.140625 -43.523438 30.140625 -38.140625 Z M 30.140625 0 "/></g></g></g><g fill="#cf4545" fill-opacity="1"><g transform="translate(604.760472, 265.63656)"><g><path d="M 29.625 0 L 18.15625 0 L 18.15625 -32.25 C 18.15625 -33.519531 17.503906 -34.15625 16.203125 -34.15625 L 1.984375 -34.15625 L 1.984375 -46.21875 L 21.46875 -46.21875 C 23.863281 -46.21875 25.828125 -45.453125 27.359375 -43.921875 C 28.867188 -42.410156 29.625 -40.445312 29.625 -38.03125 Z M 13.28125 0 L 2.03125 0 L 2.03125 -28.65625 L 13.28125 -28.65625 Z M 13.28125 0 "/></g></g></g><g fill="#cf4545" fill-opacity="1"><g transform="translate(636.382707, 265.63656)"><g/></g></g><g fill="#cf4545" fill-opacity="1"><g transform="translate(654.067746, 265.63656)"><g><path d="M 21.515625 -16.546875 L 2.375 -16.546875 L 2.375 -28.609375 L 21.515625 -28.609375 Z M 21.515625 -16.546875 "/></g></g></g><g fill="#cf4545" fill-opacity="1"><g transform="translate(677.960102, 265.63656)"><g/></g></g><g fill="#cf4545" fill-opacity="1"><g transform="translate(695.648002, 265.63656)"><g><path d="M 29.203125 -8.859375 C 29.203125 -6.046875 28.40625 -3.863281 26.8125 -2.3125 C 25.226562 -0.769531 23.03125 0 20.21875 0 L 11.046875 0 C 8.597656 0 6.488281 -0.867188 4.71875 -2.609375 C 2.945312 -4.378906 2.0625 -6.460938 2.0625 -8.859375 L 2.0625 -37.328125 C 2.0625 -40.160156 2.847656 -42.347656 4.421875 -43.890625 C 6.003906 -45.441406 8.210938 -46.21875 11.046875 -46.21875 L 20.21875 -46.21875 C 23.03125 -46.21875 25.226562 -45.4375 26.8125 -43.875 C 28.40625 -42.3125 29.203125 -40.128906 29.203125 -37.328125 Z M 17.84375 -12.0625 L 17.84375 -34.125 L 13.34375 -34.125 L 13.34375 -12.0625 Z M 17.84375 -12.0625 "/></g></g></g><g fill="#cf4545" fill-opacity="1"><g transform="translate(726.840799, 265.63656)"><g><path d="M 28.921875 -8.859375 C 28.921875 -2.953125 26.503906 0 21.671875 0 L 3.046875 0 L 3.046875 -12.0625 L 17.765625 -12.0625 L 17.765625 -17.40625 L 6.71875 -17.40625 L 11.828125 -34.125 L 3.046875 -34.125 L 3.046875 -46.21875 L 28.140625 -46.21875 L 22.296875 -28.6875 C 26.710938 -28.6875 28.921875 -25.941406 28.921875 -20.453125 Z M 28.921875 -8.859375 "/></g></g></g><g fill="#cf4545" fill-opacity="1"><g transform="translate(758.033597, 265.63656)"><g><path d="M 12.140625 0 L 1.59375 0 L 1.59375 -11.4375 L 12.140625 -11.4375 Z M 12.140625 0 "/></g></g></g><g fill="#cf4545" fill-opacity="1"><g transform="translate(771.619446, 265.63656)"><g><path d="M 24.328125 0 L 12.96875 0 L 12.96875 -34.125 L 5.265625 -34.125 L 5.265625 -46.21875 L 15.5 -46.21875 C 21.382812 -46.21875 24.328125 -43.253906 24.328125 -37.328125 Z M 24.328125 0 "/></g></g></g><g fill="#cf4545" fill-opacity="1"><g transform="translate(802.812243, 265.63656)"><g><path d="M 29.203125 -8.859375 C 29.203125 -6.046875 28.40625 -3.863281 26.8125 -2.3125 C 25.226562 -0.769531 23.03125 0 20.21875 0 L 11.046875 0 C 8.597656 0 6.488281 -0.867188 4.71875 -2.609375 C 2.945312 -4.378906 2.0625 -6.460938 2.0625 -8.859375 L 2.0625 -37.328125 C 2.0625 -40.160156 2.847656 -42.347656 4.421875 -43.890625 C 6.003906 -45.441406 8.210938 -46.21875 11.046875 -46.21875 L 20.21875 -46.21875 C 23.03125 -46.21875 25.226562 -45.4375 26.8125 -43.875 C 28.40625 -42.3125 29.203125 -40.128906 29.203125 -37.328125 Z M 17.84375 -12.0625 L 17.84375 -34.125 L 13.34375 -34.125 L 13.34375 -12.0625 Z M 17.84375 -12.0625 "/></g></g></g><g fill="#cf4545" fill-opacity="1"><g transform="translate(834.00504, 265.63656)"><g><path d="M 12.140625 0 L 1.59375 0 L 1.59375 -11.4375 L 12.140625 -11.4375 Z M 12.140625 0 "/></g></g></g><g fill="#cf4545" fill-opacity="1"><g transform="translate(847.59089, 265.63656)"><g><path d="M 28.609375 0 L 3.4375 0 L 3.4375 -5.109375 C 3.4375 -9.429688 4.828125 -13.085938 7.609375 -16.078125 L 13.34375 -22.21875 C 14.101562 -23.050781 14.71875 -23.71875 15.1875 -24.21875 C 15.65625 -24.726562 15.953125 -25.085938 16.078125 -25.296875 C 16.910156 -26.515625 17.328125 -27.84375 17.328125 -29.28125 L 17.328125 -34.125 L 13.890625 -34.125 L 13.890625 -29.59375 L 2.65625 -29.59375 L 2.65625 -37.328125 C 2.65625 -39.867188 3.671875 -42 5.703125 -43.71875 C 7.597656 -45.382812 9.847656 -46.21875 12.453125 -46.21875 L 19.75 -46.21875 C 25.65625 -46.21875 28.609375 -43.253906 28.609375 -37.328125 L 28.609375 -28.765625 C 28.609375 -25.046875 26.957031 -21.300781 23.65625 -17.53125 L 18.859375 -12.0625 L 28.609375 -12.0625 Z M 28.609375 0 "/></g></g></g><g fill="#cf4545" fill-opacity="1"><g transform="translate(878.783687, 265.63656)"><g><path d="M 29.203125 -8.859375 C 29.203125 -6.046875 28.40625 -3.863281 26.8125 -2.3125 C 25.226562 -0.769531 23.03125 0 20.21875 0 L 11.046875 0 C 8.597656 0 6.488281 -0.867188 4.71875 -2.609375 C 2.945312 -4.378906 2.0625 -6.460938 2.0625 -8.859375 L 2.0625 -37.328125 C 2.0625 -40.160156 2.847656 -42.347656 4.421875 -43.890625 C 6.003906 -45.441406 8.210938 -46.21875 11.046875 -46.21875 L 20.21875 -46.21875 C 23.03125 -46.21875 25.226562 -45.4375 26.8125 -43.875 C 28.40625 -42.3125 29.203125 -40.128906 29.203125 -37.328125 Z M 17.84375 -12.0625 L 17.84375 -34.125 L 13.34375 -34.125 L 13.34375 -12.0625 Z M 17.84375 -12.0625 "/></g></g></g><g fill="#cf4545" fill-opacity="1"><g transform="translate(909.976484, 265.63656)"><g><path d="M 24.328125 0 L 12.96875 0 L 12.96875 -34.125 L 5.265625 -34.125 L 5.265625 -46.21875 L 15.5 -46.21875 C 21.382812 -46.21875 24.328125 -43.253906 24.328125 -37.328125 Z M 24.328125 0 "/></g></g></g><g fill="#cf4545" fill-opacity="1"><g transform="translate(941.16927, 265.63656)"><g><path d="M 24.328125 0 L 12.96875 0 L 12.96875 -34.125 L 5.265625 -34.125 L 5.265625 -46.21875 L 15.5 -46.21875 C 21.382812 -46.21875 24.328125 -43.253906 24.328125 -37.328125 Z M 24.328125 0 "/></g></g></g></svg>