<svg xmlns="http://www.w3.org/2000/svg" xmlns:xlink="http://www.w3.org/1999/xlink" width="1486" zoomAndPan="magnify" viewBox="0 0 1114.5 516.750002" height="689" preserveAspectRatio="xMidYMid meet" version="1.0"><defs><g/><clipPath id="af79c994d6"><path d="M 0.0195312 0 L 1113.980469 0 L 1113.980469 516.332031 L 0.0195312 516.332031 Z M 0.0195312 0 " clip-rule="nonzero"/></clipPath><clipPath id="872252d726"><path d="M 38.25 0 L 1075.71875 0 C 1085.859375 0 1095.582031 4.027344 1102.753906 11.199219 C 1109.921875 18.367188 1113.949219 28.09375 1113.949219 38.230469 L 1113.949219 478.101562 C 1113.949219 488.242188 1109.921875 497.964844 1102.753906 505.136719 C 1095.582031 512.304688 1085.859375 516.332031 1075.71875 516.332031 L 38.25 516.332031 C 28.113281 516.332031 18.386719 512.304688 11.21875 505.136719 C 4.046875 497.964844 0.0195312 488.242188 0.0195312 478.101562 L 0.0195312 38.230469 C 0.0195312 28.09375 4.046875 18.367188 11.21875 11.199219 C 18.386719 4.027344 28.113281 0 38.25 0 Z M 38.25 0 " clip-rule="nonzero"/></clipPath><clipPath id="4ea8decf45"><path d="M 0.0273438 0 L 1113.980469 0 L 1113.980469 516.5 L 0.0273438 516.5 Z M 0.0273438 0 " clip-rule="nonzero"/></clipPath><clipPath id="82b40e5046"><path d="M 38.257812 0 L 1075.707031 0 C 1085.847656 0 1095.570312 4.027344 1102.742188 11.199219 C 1109.910156 18.367188 1113.941406 28.089844 1113.941406 38.230469 L 1113.941406 478.09375 C 1113.941406 488.234375 1109.910156 497.957031 1102.742188 505.125 C 1095.570312 512.296875 1085.847656 516.324219 1075.707031 516.324219 L 38.257812 516.324219 C 28.117188 516.324219 18.394531 512.296875 11.222656 505.125 C 4.054688 497.957031 0.0273438 488.234375 0.0273438 478.09375 L 0.0273438 38.230469 C 0.0273438 28.089844 4.054688 18.367188 11.222656 11.199219 C 18.394531 4.027344 28.117188 0 38.257812 0 Z M 38.257812 0 " clip-rule="nonzero"/></clipPath></defs><g clip-path="url(#af79c994d6)"><g clip-path="url(#872252d726)"><path fill="#ffcf7e" d="M 0.0195312 0 L 1113.363281 0 L 1113.363281 516.332031 L 0.0195312 516.332031 Z M 0.0195312 0 " fill-opacity="1" fill-rule="nonzero"/></g></g><g clip-path="url(#4ea8decf45)"><g clip-path="url(#82b40e5046)"><path stroke-linecap="butt" transform="matrix(0.749637, 0, 0, 0.749637, 0.0256264, 0.0000199903)" fill="none" stroke-linejoin="miter" d="M 51.000909 -0.0000266667 L 1434.935712 -0.0000266667 C 1448.463086 -0.0000266667 1461.43811 5.372363 1471.000025 14.939489 C 1480.56194 24.501404 1485.93954 37.471217 1485.93954 50.998591 L 1485.93954 637.766688 C 1485.93954 651.294062 1480.56194 664.263875 1471.000025 673.82579 C 1461.43811 683.392916 1448.463086 688.765306 1434.935712 688.765306 L 51.000909 688.765306 C 37.473534 688.765306 24.503721 683.392916 14.936595 673.82579 C 5.37468 664.263875 0.00229086 651.294062 0.00229086 637.766688 L 0.00229086 50.998591 C 0.00229086 37.471217 5.37468 24.501404 14.936595 14.939489 C 24.503721 5.372363 37.473534 -0.0000266667 51.000909 -0.0000266667 Z M 51.000909 -0.0000266667 " stroke="#cf4545" stroke-width="40" stroke-opacity="1" stroke-miterlimit="4"/></g></g><g fill="#cf4545" fill-opacity="1"><g transform="translate(955.16379, 84.723757)"><g><path d="M 10.921875 -20.5625 L 1.4375 -20.5625 L 1.4375 -30.8125 L 10.921875 -30.8125 Z M 10.921875 0 L 1.4375 0 L 1.4375 -10.296875 L 10.921875 -10.296875 Z M 10.921875 0 "/></g></g></g><g fill="#cf4545" fill-opacity="1"><g transform="translate(967.392249, 84.723757)"><g><path d="M 21.890625 0 L 11.671875 0 L 11.671875 -30.71875 L 4.75 -30.71875 L 4.75 -41.609375 L 13.953125 -41.609375 C 19.242188 -41.609375 21.890625 -38.9375 21.890625 -33.59375 Z M 21.890625 0 "/></g></g><g transform="translate(995.468509, 84.723757)"><g><path d="M 25.96875 -7.984375 C 25.96875 -2.660156 23.539062 0 18.6875 0 L 3.578125 0 L 3.578125 -10.859375 L 15.84375 -10.859375 L 15.84375 -15.78125 L 9.421875 -15.78125 C 4.566406 -15.78125 2.140625 -18.4375 2.140625 -23.75 L 2.140625 -33.59375 C 2.140625 -38.9375 4.832031 -41.609375 10.21875 -41.609375 L 17.921875 -41.609375 C 20.359375 -41.609375 22.300781 -40.878906 23.75 -39.421875 C 25.226562 -37.972656 25.96875 -36.03125 25.96875 -33.59375 Z M 15.84375 -25.203125 L 15.84375 -30.71875 L 12.296875 -30.71875 L 12.296875 -25.203125 Z M 15.84375 -25.203125 "/></g></g><g transform="translate(1023.544768, 84.723757)"><g><path d="M 25.96875 -7.984375 C 25.96875 -2.660156 23.265625 0 17.859375 0 L 10.15625 0 C 7.695312 0 5.753906 -0.710938 4.328125 -2.140625 C 2.867188 -3.597656 2.140625 -5.546875 2.140625 -7.984375 L 2.140625 -33.59375 C 2.140625 -38.9375 4.539062 -41.609375 9.34375 -41.609375 L 24.53125 -41.609375 L 24.53125 -30.71875 L 12.296875 -30.71875 L 12.296875 -25.828125 L 18.625 -25.828125 C 23.519531 -25.828125 25.96875 -23.398438 25.96875 -18.546875 Z M 15.84375 -10.859375 L 15.84375 -14.96875 L 12.296875 -14.96875 L 12.296875 -10.859375 Z M 15.84375 -10.859375 "/></g></g><g transform="translate(1051.621028, 84.723757)"><g><path d="M 25.6875 -41.609375 L 22.875 -24.390625 L 25.265625 -24.390625 L 25.265625 -13.53125 L 21.21875 -13.53125 L 19.21875 0 L 8.640625 0 L 10.71875 -13.53125 L 6.671875 -13.53125 L 6.671875 -24.390625 L 12.296875 -24.390625 L 13.25 -30.71875 L 2.390625 -30.71875 L 2.390625 -41.609375 Z M 25.6875 -41.609375 "/></g></g></g><g fill="#cf4545" fill-opacity="1"><g transform="translate(140.341335, 184.831018)"><g><path d="M 32.59375 0 L 19.96875 0 L 19.96875 -35.46875 C 19.96875 -36.875 19.253906 -37.578125 17.828125 -37.578125 L 2.1875 -37.578125 L 2.1875 -50.84375 L 23.625 -50.84375 C 26.257812 -50.84375 28.421875 -50 30.109375 -48.3125 C 31.765625 -46.65625 32.59375 -44.492188 32.59375 -41.828125 Z M 14.609375 0 L 2.234375 0 L 2.234375 -31.515625 L 14.609375 -31.515625 Z M 14.609375 0 "/></g></g></g><g fill="#cf4545" fill-opacity="1"><g transform="translate(175.127647, 184.831018)"><g><path d="M 29.03125 -37.578125 C 26.226562 -37.578125 24.828125 -36.203125 24.828125 -33.453125 L 24.828125 0 L 12.203125 0 L 12.203125 -29.9375 C 12.203125 -33.851562 13.859375 -36.398438 17.171875 -37.578125 L 1.328125 -37.578125 L 1.328125 -50.84375 L 29.03125 -50.84375 Z M 29.03125 -37.578125 "/></g></g></g><g fill="#cf4545" fill-opacity="1"><g transform="translate(206.349441, 184.831018)"><g><path d="M 14.609375 0 L 2.1875 0 L 2.1875 -50.84375 L 14.609375 -50.84375 Z M 14.609375 0 "/></g></g></g><g fill="#cf4545" fill-opacity="1"><g transform="translate(223.141357, 184.831018)"><g><path d="M 31.21875 0 L 2.1875 0 L 2.1875 -13.265625 L 11.859375 -13.265625 C 14.691406 -13.265625 16.109375 -14.941406 16.109375 -18.296875 L 16.109375 -33.546875 C 16.109375 -35.035156 15.847656 -36.078125 15.328125 -36.671875 C 14.816406 -37.273438 13.832031 -37.578125 12.375 -37.578125 L 2.1875 -37.578125 L 2.1875 -50.84375 L 18.890625 -50.84375 C 25.453125 -50.84375 28.734375 -46.960938 28.734375 -39.203125 L 28.734375 -21.8125 C 28.734375 -17.320312 27.054688 -14.472656 23.703125 -13.265625 L 31.21875 -13.265625 Z M 31.21875 0 "/></g></g></g><g fill="#cf4545" fill-opacity="1"><g transform="translate(256.123935, 184.831018)"><g><path d="M 33.671875 -13.40625 C 33.671875 -4.46875 30.003906 0 22.671875 0 L 1.328125 0 L 1.328125 -13.265625 L 4.34375 -13.265625 L 4.34375 -50.84375 L 16.75 -50.84375 L 16.75 -13.265625 L 19.234375 -13.265625 C 20.671875 -13.265625 21.390625 -14.253906 21.390625 -16.234375 L 21.390625 -50.84375 L 33.671875 -50.84375 Z M 33.671875 -13.40625 "/></g></g></g><g fill="#cf4545" fill-opacity="1"><g transform="translate(291.983904, 184.831018)"><g/></g></g><g fill="#cf4545" fill-opacity="1"><g transform="translate(311.438477, 184.831018)"><g><path d="M 35.171875 0 L 22.765625 0 L 22.765625 -35.171875 C 22.765625 -36.773438 22.035156 -37.578125 20.578125 -37.578125 L 18.890625 -37.578125 C 17.398438 -37.578125 16.65625 -36.773438 16.65625 -35.171875 L 16.65625 -6.09375 C 16.65625 -2.03125 14.953125 0 11.546875 0 L 0.859375 0 L 0.859375 -13.265625 L 3 -13.265625 C 3.71875 -13.265625 4.078125 -13.582031 4.078125 -14.21875 L 4.078125 -41.09375 C 4.078125 -44.5625 4.75 -47.054688 6.09375 -48.578125 C 7.4375 -50.085938 9.816406 -50.84375 13.234375 -50.84375 L 26.625 -50.84375 C 32.320312 -50.84375 35.171875 -47.59375 35.171875 -41.09375 Z M 35.171875 0 "/></g></g></g><g fill="#cf4545" fill-opacity="1"><g transform="translate(348.844504, 184.831018)"><g><path d="M 14.609375 0 L 2.1875 0 L 2.1875 -50.84375 L 14.609375 -50.84375 Z M 14.609375 0 "/></g></g></g><g fill="#cf4545" fill-opacity="1"><g transform="translate(365.636421, 184.831018)"><g><path d="M 27.234375 0 L 14.640625 0 L 14.640625 -35.46875 C 14.640625 -36.875 13.910156 -37.578125 12.453125 -37.578125 L 1.328125 -37.578125 L 1.328125 -50.84375 L 18.25 -50.84375 C 20.882812 -50.84375 23.046875 -50 24.734375 -48.3125 C 26.398438 -46.65625 27.234375 -44.492188 27.234375 -41.828125 Z M 27.234375 0 "/></g></g></g><g fill="#cf4545" fill-opacity="1"><g transform="translate(395.054492, 184.831018)"><g><path d="M 14.4375 -28.296875 L 2.109375 -28.296875 L 2.109375 -50.84375 L 14.4375 -50.84375 Z M 14.4375 -28.296875 "/></g></g></g><g fill="#cf4545" fill-opacity="1"><g transform="translate(411.674625, 184.831018)"><g><path d="M 14.171875 -36.421875 L 16.109375 -36.421875 C 17.503906 -36.421875 18.203125 -37.175781 18.203125 -38.6875 L 18.203125 -50.84375 L 29.671875 -50.84375 L 29.671875 -36.59375 C 29.671875 -30.664062 27.109375 -27.703125 21.984375 -27.703125 L 14.171875 -27.703125 L 14.171875 -15.59375 C 14.171875 -14.039062 14.816406 -13.265625 16.109375 -13.265625 L 31.78125 -13.265625 C 33.039062 -13.265625 33.671875 -14.039062 33.671875 -15.59375 L 33.671875 -50.84375 L 45.6875 -50.84375 L 45.6875 -11.546875 C 45.6875 -8.054688 44.785156 -5.28125 42.984375 -3.21875 C 41.097656 -1.070312 38.421875 0 34.953125 0 L 12.921875 0 C 5.765625 0 2.1875 -3.847656 2.1875 -11.546875 L 2.1875 -50.84375 L 14.171875 -50.84375 Z M 14.171875 -36.421875 "/></g></g></g><g fill="#cf4545" fill-opacity="1"><g transform="translate(459.559491, 184.831018)"><g/></g></g><g fill="#cf4545" fill-opacity="1"><g transform="translate(479.014052, 184.831018)"><g><path d="M 32.9375 -15.71875 C 32.9375 -10.53125 32.09375 -6.707031 30.40625 -4.25 C 28.34375 -1.332031 24.835938 0.125 19.890625 0.125 C 18.992188 0.125 18.0625 0.0820312 17.09375 0 L 17.09375 -13.265625 C 19.269531 -13.265625 20.359375 -14.867188 20.359375 -18.078125 L 20.359375 -35.46875 C 20.359375 -36.875 19.628906 -37.578125 18.171875 -37.578125 L 2.1875 -37.578125 L 2.1875 -50.84375 L 26.578125 -50.84375 C 30.816406 -50.84375 32.9375 -48.796875 32.9375 -44.703125 Z M 14.6875 7.34375 L 2.28125 7.34375 L 2.28125 -32 L 14.6875 -32 Z M 14.6875 7.34375 "/></g></g></g><g fill="#cf4545" fill-opacity="1"><g transform="translate(514.186885, 184.831018)"><g><path d="M 14.609375 0 L 2.1875 0 L 2.1875 -50.84375 L 14.609375 -50.84375 Z M 14.609375 0 "/></g></g></g><g fill="#cf4545" fill-opacity="1"><g transform="translate(530.978778, 184.831018)"><g><path d="M 33.15625 0 L 20.703125 0 L 20.703125 -35.171875 C 20.703125 -36.773438 19.972656 -37.578125 18.515625 -37.578125 L 17 -37.578125 C 15.539062 -37.578125 14.8125 -36.773438 14.8125 -35.171875 L 14.8125 0 L 2.1875 0 L 2.1875 -41.953125 C 2.1875 -45.128906 2.71875 -47.347656 3.78125 -48.609375 C 4.976562 -50.097656 7.125 -50.84375 10.21875 -50.84375 L 24.5625 -50.84375 C 30.289062 -50.84375 33.15625 -47.878906 33.15625 -41.953125 Z M 33.15625 0 "/></g></g></g><g fill="#cf4545" fill-opacity="1"><g transform="translate(566.323372, 184.831018)"><g><path d="M 0.859375 -46.8125 C 0.859375 -49.269531 1.914062 -51.644531 4.03125 -53.9375 C 5.78125 -55.832031 7.769531 -57.28125 10 -58.28125 L 10 -36.46875 L 0.859375 -36.46875 Z M 12.0625 -46.8125 C 12.0625 -51.332031 15.082031 -55.15625 21.125 -58.28125 L 21.125 -36.46875 L 12.0625 -36.46875 Z M 12.0625 -46.8125 "/></g></g></g><g fill="#cf4545" fill-opacity="1"><g transform="translate(588.311757, 184.831018)"><g/></g></g><g fill="#cf4545" fill-opacity="1"><g transform="translate(607.766318, 184.831018)"><g><path d="M 35.171875 0 L 22.765625 0 L 22.765625 -35.171875 C 22.765625 -36.773438 22.035156 -37.578125 20.578125 -37.578125 L 18.890625 -37.578125 C 17.398438 -37.578125 16.65625 -36.773438 16.65625 -35.171875 L 16.65625 -6.09375 C 16.65625 -2.03125 14.953125 0 11.546875 0 L 0.859375 0 L 0.859375 -13.265625 L 3 -13.265625 C 3.71875 -13.265625 4.078125 -13.582031 4.078125 -14.21875 L 4.078125 -41.09375 C 4.078125 -44.5625 4.75 -47.054688 6.09375 -48.578125 C 7.4375 -50.085938 9.816406 -50.84375 13.234375 -50.84375 L 26.625 -50.84375 C 32.320312 -50.84375 35.171875 -47.59375 35.171875 -41.09375 Z M 35.171875 0 "/></g></g></g><g fill="#cf4545" fill-opacity="1"><g transform="translate(645.172368, 184.831018)"><g><path d="M 32.9375 -15.71875 C 32.9375 -10.53125 32.09375 -6.707031 30.40625 -4.25 C 28.34375 -1.332031 24.835938 0.125 19.890625 0.125 C 18.992188 0.125 18.0625 0.0820312 17.09375 0 L 17.09375 -13.265625 C 19.269531 -13.265625 20.359375 -14.867188 20.359375 -18.078125 L 20.359375 -35.46875 C 20.359375 -36.875 19.628906 -37.578125 18.171875 -37.578125 L 2.1875 -37.578125 L 2.1875 -50.84375 L 26.578125 -50.84375 C 30.816406 -50.84375 32.9375 -48.796875 32.9375 -44.703125 Z M 14.6875 7.34375 L 2.28125 7.34375 L 2.28125 -32 L 14.6875 -32 Z M 14.6875 7.34375 "/></g></g></g><g fill="#cf4545" fill-opacity="1"><g transform="translate(680.345201, 184.831018)"><g><path d="M 14.4375 -28.296875 L 2.109375 -28.296875 L 2.109375 -50.84375 L 14.4375 -50.84375 Z M 14.4375 -28.296875 "/></g></g></g><g fill="#cf4545" fill-opacity="1"><g transform="translate(696.965333, 184.831018)"><g><path d="M 32.9375 -15.71875 C 32.9375 -10.53125 32.09375 -6.707031 30.40625 -4.25 C 28.34375 -1.332031 24.835938 0.125 19.890625 0.125 C 18.992188 0.125 18.0625 0.0820312 17.09375 0 L 17.09375 -13.265625 C 19.269531 -13.265625 20.359375 -14.867188 20.359375 -18.078125 L 20.359375 -35.46875 C 20.359375 -36.875 19.628906 -37.578125 18.171875 -37.578125 L 2.1875 -37.578125 L 2.1875 -50.84375 L 26.578125 -50.84375 C 30.816406 -50.84375 32.9375 -48.796875 32.9375 -44.703125 Z M 14.6875 7.34375 L 2.28125 7.34375 L 2.28125 -32 L 14.6875 -32 Z M 14.6875 7.34375 "/></g></g></g><g fill="#cf4545" fill-opacity="1"><g transform="translate(732.138165, 184.831018)"><g><path d="M 33.15625 0 L 20.703125 0 L 20.703125 -35.171875 C 20.703125 -36.773438 19.972656 -37.578125 18.515625 -37.578125 L 17 -37.578125 C 15.539062 -37.578125 14.8125 -36.773438 14.8125 -35.171875 L 14.8125 0 L 2.1875 0 L 2.1875 -41.953125 C 2.1875 -45.128906 2.71875 -47.347656 3.78125 -48.609375 C 4.976562 -50.097656 7.125 -50.84375 10.21875 -50.84375 L 24.5625 -50.84375 C 30.289062 -50.84375 33.15625 -47.878906 33.15625 -41.953125 Z M 33.15625 0 "/></g></g></g><g fill="#cf4545" fill-opacity="1"><g transform="translate(767.482759, 184.831018)"><g/></g></g><g fill="#cf4545" fill-opacity="1"><g transform="translate(786.93732, 184.831018)"><g><path d="M 23.65625 -18.203125 L 2.625 -18.203125 L 2.625 -31.484375 L 23.65625 -31.484375 Z M 23.65625 -18.203125 "/></g></g></g><g fill="#cf4545" fill-opacity="1"><g transform="translate(813.220334, 184.831018)"><g/></g></g><g fill="#cf4545" fill-opacity="1"><g transform="translate(832.67824, 184.831018)"><g><path d="M 26.75 0 L 14.265625 0 L 14.265625 -37.53125 L 5.796875 -37.53125 L 5.796875 -50.84375 L 17.046875 -50.84375 C 23.515625 -50.84375 26.75 -47.582031 26.75 -41.0625 Z M 26.75 0 "/></g></g></g><g fill="#cf4545" fill-opacity="1"><g transform="translate(866.99215, 184.831018)"><g><path d="M 31.734375 -9.75 C 31.734375 -3.25 28.769531 0 22.84375 0 L 4.375 0 L 4.375 -13.265625 L 19.375 -13.265625 L 19.375 -19.28125 L 11.515625 -19.28125 C 5.585938 -19.28125 2.625 -22.53125 2.625 -29.03125 L 2.625 -41.0625 C 2.625 -47.582031 5.914062 -50.84375 12.5 -50.84375 L 21.90625 -50.84375 C 24.882812 -50.84375 27.257812 -49.957031 29.03125 -48.1875 C 30.832031 -46.40625 31.734375 -44.03125 31.734375 -41.0625 Z M 19.375 -30.796875 L 19.375 -37.53125 L 15.03125 -37.53125 L 15.03125 -30.796875 Z M 19.375 -30.796875 "/></g></g></g><g fill="#cf4545" fill-opacity="1"><g transform="translate(901.306061, 184.831018)"><g><path d="M 31.734375 -9.75 C 31.734375 -3.25 28.425781 0 21.8125 0 L 12.40625 0 C 9.40625 0 7.03125 -0.875 5.28125 -2.625 C 3.507812 -4.394531 2.625 -6.769531 2.625 -9.75 L 2.625 -41.0625 C 2.625 -47.582031 5.554688 -50.84375 11.421875 -50.84375 L 29.96875 -50.84375 L 29.96875 -37.53125 L 15.03125 -37.53125 L 15.03125 -31.5625 L 22.765625 -31.5625 C 28.742188 -31.5625 31.734375 -28.597656 31.734375 -22.671875 Z M 19.375 -13.265625 L 19.375 -18.296875 L 15.03125 -18.296875 L 15.03125 -13.265625 Z M 19.375 -13.265625 "/></g></g></g><g fill="#cf4545" fill-opacity="1"><g transform="translate(935.619971, 184.831018)"><g><path d="M 31.390625 -50.84375 L 27.953125 -29.796875 L 30.875 -29.796875 L 30.875 -16.53125 L 25.9375 -16.53125 L 23.484375 0 L 10.5625 0 L 13.09375 -16.53125 L 8.15625 -16.53125 L 8.15625 -29.796875 L 15.03125 -29.796875 L 16.1875 -37.53125 L 2.921875 -37.53125 L 2.921875 -50.84375 Z M 31.390625 -50.84375 "/></g></g></g><g fill="#cf4545" fill-opacity="1"><g transform="translate(163.978336, 277.036406)"><g><path d="M 16.1875 7.390625 L 1.765625 7.390625 L 1.765625 -59.90625 L 16.1875 -59.90625 L 16.1875 -49.171875 L 12.84375 -49.171875 L 12.84375 -3.515625 L 16.1875 -3.515625 Z M 16.1875 7.390625 "/></g></g></g><g fill="#cf4545" fill-opacity="1"><g transform="translate(182.110188, 277.036406)"><g><path d="M 26.75 0 L 14.265625 0 L 14.265625 -37.53125 L 5.796875 -37.53125 L 5.796875 -50.84375 L 17.046875 -50.84375 C 23.515625 -50.84375 26.75 -47.582031 26.75 -41.0625 Z M 26.75 0 "/></g></g></g><g fill="#cf4545" fill-opacity="1"><g transform="translate(216.424099, 277.036406)"><g><path d="M 31.734375 -9.75 C 31.734375 -3.25 28.769531 0 22.84375 0 L 4.375 0 L 4.375 -13.265625 L 19.375 -13.265625 L 19.375 -19.28125 L 11.515625 -19.28125 C 5.585938 -19.28125 2.625 -22.53125 2.625 -29.03125 L 2.625 -41.0625 C 2.625 -47.582031 5.914062 -50.84375 12.5 -50.84375 L 21.90625 -50.84375 C 24.882812 -50.84375 27.257812 -49.957031 29.03125 -48.1875 C 30.832031 -46.40625 31.734375 -44.03125 31.734375 -41.0625 Z M 19.375 -30.796875 L 19.375 -37.53125 L 15.03125 -37.53125 L 15.03125 -30.796875 Z M 19.375 -30.796875 "/></g></g></g><g fill="#cf4545" fill-opacity="1"><g transform="translate(250.738009, 277.036406)"><g><path d="M 31.734375 -9.75 C 31.734375 -3.25 28.425781 0 21.8125 0 L 12.40625 0 C 9.40625 0 7.03125 -0.875 5.28125 -2.625 C 3.507812 -4.394531 2.625 -6.769531 2.625 -9.75 L 2.625 -41.0625 C 2.625 -47.582031 5.554688 -50.84375 11.421875 -50.84375 L 29.96875 -50.84375 L 29.96875 -37.53125 L 15.03125 -37.53125 L 15.03125 -31.5625 L 22.765625 -31.5625 C 28.742188 -31.5625 31.734375 -28.597656 31.734375 -22.671875 Z M 19.375 -13.265625 L 19.375 -18.296875 L 15.03125 -18.296875 L 15.03125 -13.265625 Z M 19.375 -13.265625 "/></g></g></g><g fill="#cf4545" fill-opacity="1"><g transform="translate(285.05192, 277.036406)"><g><path d="M 31.390625 -50.84375 L 27.953125 -29.796875 L 30.875 -29.796875 L 30.875 -16.53125 L 25.9375 -16.53125 L 23.484375 0 L 10.5625 0 L 13.09375 -16.53125 L 8.15625 -16.53125 L 8.15625 -29.796875 L 15.03125 -29.796875 L 16.1875 -37.53125 L 2.921875 -37.53125 L 2.921875 -50.84375 Z M 31.390625 -50.84375 "/></g></g></g><g fill="#cf4545" fill-opacity="1"><g transform="translate(319.375806, 277.036406)"><g/></g></g><g fill="#cf4545" fill-opacity="1"><g transform="translate(338.830379, 277.036406)"><g><path d="M 23.65625 -18.203125 L 2.625 -18.203125 L 2.625 -31.484375 L 23.65625 -31.484375 Z M 23.65625 -18.203125 "/></g></g></g><g fill="#cf4545" fill-opacity="1"><g transform="translate(365.113371, 277.036406)"><g/></g></g><g fill="#cf4545" fill-opacity="1"><g transform="translate(384.567944, 277.036406)"><g><path d="M 19.0625 -37.578125 L 18.890625 -37.578125 C 16.921875 -37.578125 15.9375 -36.160156 15.9375 -33.328125 L 15.9375 0 L 3.609375 0 L 3.609375 -30.828125 C 3.609375 -34.523438 4.78125 -36.773438 7.125 -37.578125 L 1.765625 -37.578125 L 1.765625 -50.84375 L 19.0625 -50.84375 Z M 19.0625 -37.578125 "/></g></g></g><g fill="#cf4545" fill-opacity="1"><g transform="translate(405.396791, 277.036406)"><g><path d="M 21.125 -47.921875 C 21.125 -45.460938 20.066406 -43.085938 17.953125 -40.796875 C 16.203125 -38.910156 14.210938 -37.46875 11.984375 -36.46875 L 11.984375 -58.28125 L 21.125 -58.28125 Z M 9.921875 -47.921875 C 9.921875 -43.398438 6.898438 -39.582031 0.859375 -36.46875 L 0.859375 -58.28125 L 9.921875 -58.28125 Z M 9.921875 -47.921875 "/></g></g></g><g fill="#cf4545" fill-opacity="1"><g transform="translate(427.385175, 277.036406)"><g><path d="M 29.125 -12.546875 C 29.125 -4.179688 25.1875 0 17.3125 0 L 2.1875 0 L 2.1875 -13.265625 L 12.71875 -13.265625 C 15.320312 -13.265625 16.625 -14.484375 16.625 -16.921875 L 16.625 -33.921875 C 16.625 -36.359375 15.320312 -37.578125 12.71875 -37.578125 L 2.1875 -37.578125 L 2.1875 -50.84375 L 17.3125 -50.84375 C 25.1875 -50.84375 29.125 -46.664062 29.125 -38.3125 Z M 29.125 -12.546875 "/></g></g></g><g fill="#cf4545" fill-opacity="1"><g transform="translate(458.692862, 277.036406)"><g><path d="M 14.171875 -36.421875 L 16.109375 -36.421875 C 17.503906 -36.421875 18.203125 -37.175781 18.203125 -38.6875 L 18.203125 -50.84375 L 29.671875 -50.84375 L 29.671875 -36.59375 C 29.671875 -30.664062 27.109375 -27.703125 21.984375 -27.703125 L 14.171875 -27.703125 L 14.171875 -15.59375 C 14.171875 -14.039062 14.816406 -13.265625 16.109375 -13.265625 L 31.78125 -13.265625 C 33.039062 -13.265625 33.671875 -14.039062 33.671875 -15.59375 L 33.671875 -50.84375 L 45.6875 -50.84375 L 45.6875 -11.546875 C 45.6875 -8.054688 44.785156 -5.28125 42.984375 -3.21875 C 41.097656 -1.070312 38.421875 0 34.953125 0 L 12.921875 0 C 5.765625 0 2.1875 -3.847656 2.1875 -11.546875 L 2.1875 -50.84375 L 14.171875 -50.84375 Z M 14.171875 -36.421875 "/></g></g></g><g fill="#cf4545" fill-opacity="1"><g transform="translate(506.577729, 277.036406)"><g><path d="M 35.171875 0 L 22.765625 0 L 22.765625 -35.171875 C 22.765625 -36.773438 22.035156 -37.578125 20.578125 -37.578125 L 18.890625 -37.578125 C 17.398438 -37.578125 16.65625 -36.773438 16.65625 -35.171875 L 16.65625 -6.09375 C 16.65625 -2.03125 14.953125 0 11.546875 0 L 0.859375 0 L 0.859375 -13.265625 L 3 -13.265625 C 3.71875 -13.265625 4.078125 -13.582031 4.078125 -14.21875 L 4.078125 -41.09375 C 4.078125 -44.5625 4.75 -47.054688 6.09375 -48.578125 C 7.4375 -50.085938 9.816406 -50.84375 13.234375 -50.84375 L 26.625 -50.84375 C 32.320312 -50.84375 35.171875 -47.59375 35.171875 -41.09375 Z M 35.171875 0 "/></g></g></g><g fill="#cf4545" fill-opacity="1"><g transform="translate(543.983756, 277.036406)"><g><path d="M 32.59375 0 L 19.96875 0 L 19.96875 -35.46875 C 19.96875 -36.875 19.253906 -37.578125 17.828125 -37.578125 L 2.1875 -37.578125 L 2.1875 -50.84375 L 23.625 -50.84375 C 26.257812 -50.84375 28.421875 -50 30.109375 -48.3125 C 31.765625 -46.65625 32.59375 -44.492188 32.59375 -41.828125 Z M 14.609375 0 L 2.234375 0 L 2.234375 -31.515625 L 14.609375 -31.515625 Z M 14.609375 0 "/></g></g></g><g fill="#cf4545" fill-opacity="1"><g transform="translate(578.770079, 277.036406)"><g><path d="M 16.53125 7.390625 L 2.015625 7.390625 L 2.015625 -3.515625 L 5.453125 -3.515625 L 5.453125 -49.171875 L 2.015625 -49.171875 L 2.015625 -59.90625 L 16.53125 -59.90625 Z M 16.53125 7.390625 "/></g></g></g><g fill="#cf4545" fill-opacity="1"><g transform="translate(596.893329, 277.036406)"><g/></g></g><g fill="#cf4545" fill-opacity="1"><g transform="translate(616.34789, 277.036406)"><g><path d="M 21.125 -47.921875 C 21.125 -45.460938 20.066406 -43.085938 17.953125 -40.796875 C 16.203125 -38.910156 14.210938 -37.46875 11.984375 -36.46875 L 11.984375 -58.28125 L 21.125 -58.28125 Z M 9.921875 -47.921875 C 9.921875 -43.398438 6.898438 -39.582031 0.859375 -36.46875 L 0.859375 -58.28125 L 9.921875 -58.28125 Z M 9.921875 -47.921875 "/></g></g></g><g fill="#cf4545" fill-opacity="1"><g transform="translate(638.336275, 277.036406)"><g><path d="M 34.015625 0 L 2.1875 0 L 2.1875 -41.953125 C 2.1875 -45.128906 2.71875 -47.347656 3.78125 -48.609375 C 4.976562 -50.097656 7.125 -50.84375 10.21875 -50.84375 L 25.421875 -50.84375 C 31.148438 -50.84375 34.015625 -47.878906 34.015625 -41.953125 Z M 21.609375 -35.171875 C 21.609375 -36.773438 20.875 -37.578125 19.40625 -37.578125 L 17 -37.578125 C 15.539062 -37.578125 14.8125 -36.773438 14.8125 -35.171875 L 14.8125 -13.265625 L 21.609375 -13.265625 Z M 21.609375 -35.171875 "/></g></g></g><g fill="#cf4545" fill-opacity="1"><g transform="translate(674.539813, 277.036406)"><g><path d="M 14.609375 0 L 2.1875 0 L 2.1875 -50.84375 L 14.609375 -50.84375 Z M 14.609375 0 "/></g></g></g><g fill="#cf4545" fill-opacity="1"><g transform="translate(691.33173, 277.036406)"><g><path d="M 27.234375 0 L 14.640625 0 L 14.640625 -35.46875 C 14.640625 -36.875 13.910156 -37.578125 12.453125 -37.578125 L 1.328125 -37.578125 L 1.328125 -50.84375 L 18.25 -50.84375 C 20.882812 -50.84375 23.046875 -50 24.734375 -48.3125 C 26.398438 -46.65625 27.234375 -44.492188 27.234375 -41.828125 Z M 27.234375 0 "/></g></g></g><g fill="#cf4545" fill-opacity="1"><g transform="translate(720.749801, 277.036406)"><g><path d="M 14.4375 -28.296875 L 2.109375 -28.296875 L 2.109375 -50.84375 L 14.4375 -50.84375 Z M 14.4375 -28.296875 "/></g></g></g><g fill="#cf4545" fill-opacity="1"><g transform="translate(737.369933, 277.036406)"><g><path d="M 33.15625 0 L 20.703125 0 L 20.703125 -35.171875 C 20.703125 -36.773438 19.972656 -37.578125 18.515625 -37.578125 L 17 -37.578125 C 15.539062 -37.578125 14.8125 -36.773438 14.8125 -35.171875 L 14.8125 0 L 2.1875 0 L 2.1875 -41.953125 C 2.1875 -45.128906 2.71875 -47.347656 3.78125 -48.609375 C 4.976562 -50.097656 7.125 -50.84375 10.21875 -50.84375 L 24.5625 -50.84375 C 30.289062 -50.84375 33.15625 -47.878906 33.15625 -41.953125 Z M 33.15625 0 "/></g></g></g><g fill="#cf4545" fill-opacity="1"><g transform="translate(772.714573, 277.036406)"><g/></g></g><g fill="#cf4545" fill-opacity="1"><g transform="translate(792.169134, 277.036406)"><g><path d="M 35.171875 0 L 22.765625 0 L 22.765625 -35.171875 C 22.765625 -36.773438 22.035156 -37.578125 20.578125 -37.578125 L 18.890625 -37.578125 C 17.398438 -37.578125 16.65625 -36.773438 16.65625 -35.171875 L 16.65625 -6.09375 C 16.65625 -2.03125 14.953125 0 11.546875 0 L 0.859375 0 L 0.859375 -13.265625 L 3 -13.265625 C 3.71875 -13.265625 4.078125 -13.582031 4.078125 -14.21875 L 4.078125 -41.09375 C 4.078125 -44.5625 4.75 -47.054688 6.09375 -48.578125 C 7.4375 -50.085938 9.816406 -50.84375 13.234375 -50.84375 L 26.625 -50.84375 C 32.320312 -50.84375 35.171875 -47.59375 35.171875 -41.09375 Z M 35.171875 0 "/></g></g></g><g fill="#cf4545" fill-opacity="1"><g transform="translate(829.575184, 277.036406)"><g><path d="M 33.671875 -13.40625 C 33.671875 -4.46875 30.003906 0 22.671875 0 L 1.328125 0 L 1.328125 -13.265625 L 4.34375 -13.265625 L 4.34375 -50.84375 L 16.75 -50.84375 L 16.75 -13.265625 L 19.234375 -13.265625 C 20.671875 -13.265625 21.390625 -14.253906 21.390625 -16.234375 L 21.390625 -50.84375 L 33.671875 -50.84375 Z M 33.671875 -13.40625 "/></g></g></g><g fill="#cf4545" fill-opacity="1"><g transform="translate(865.435154, 277.036406)"><g><path d="M 14.171875 -36.421875 L 16.109375 -36.421875 C 17.503906 -36.421875 18.203125 -37.175781 18.203125 -38.6875 L 18.203125 -50.84375 L 29.671875 -50.84375 L 29.671875 -36.59375 C 29.671875 -30.664062 27.109375 -27.703125 21.984375 -27.703125 L 14.171875 -27.703125 L 14.171875 -15.59375 C 14.171875 -14.039062 14.816406 -13.265625 16.109375 -13.265625 L 31.78125 -13.265625 C 33.039062 -13.265625 33.671875 -14.039062 33.671875 -15.59375 L 33.671875 -50.84375 L 45.6875 -50.84375 L 45.6875 -11.546875 C 45.6875 -8.054688 44.785156 -5.28125 42.984375 -3.21875 C 41.097656 -1.070312 38.421875 0 34.953125 0 L 12.921875 0 C 5.765625 0 2.1875 -3.847656 2.1875 -11.546875 L 2.1875 -50.84375 L 14.171875 -50.84375 Z M 14.171875 -36.421875 "/></g></g></g><g fill="#cf4545" fill-opacity="1"><g transform="translate(913.32002, 277.036406)"><g><path d="M 31.21875 0 L 2.1875 0 L 2.1875 -13.265625 L 11.859375 -13.265625 C 14.691406 -13.265625 16.109375 -14.941406 16.109375 -18.296875 L 16.109375 -33.546875 C 16.109375 -35.035156 15.847656 -36.078125 15.328125 -36.671875 C 14.816406 -37.273438 13.832031 -37.578125 12.375 -37.578125 L 2.1875 -37.578125 L 2.1875 -50.84375 L 18.890625 -50.84375 C 25.453125 -50.84375 28.734375 -46.960938 28.734375 -39.203125 L 28.734375 -21.8125 C 28.734375 -17.320312 27.054688 -14.472656 23.703125 -13.265625 L 31.21875 -13.265625 Z M 31.21875 0 "/></g></g></g><g fill="#cf4545" fill-opacity="1"><g transform="translate(248.131433, 408.469333)"><g><path d="M 13.125 -25.734375 L 1.90625 -25.734375 L 1.90625 -46.21875 L 13.125 -46.21875 Z M 13.125 -25.734375 "/></g></g></g><g fill="#cf4545" fill-opacity="1"><g transform="translate(263.239835, 408.469333)"><g><path d="M 29.9375 -14.28125 C 29.9375 -9.570312 29.171875 -6.097656 27.640625 -3.859375 C 25.765625 -1.210938 22.578125 0.109375 18.078125 0.109375 C 17.265625 0.109375 16.414062 0.0703125 15.53125 0 L 15.53125 -12.0625 C 17.507812 -12.0625 18.5 -13.519531 18.5 -16.4375 L 18.5 -32.25 C 18.5 -33.519531 17.835938 -34.15625 16.515625 -34.15625 L 1.984375 -34.15625 L 1.984375 -46.21875 L 24.171875 -46.21875 C 28.015625 -46.21875 29.9375 -44.359375 29.9375 -40.640625 Z M 13.34375 6.671875 L 2.0625 6.671875 L 2.0625 -29.078125 L 13.34375 -29.078125 Z M 13.34375 6.671875 "/></g></g></g><g fill="#cf4545" fill-opacity="1"><g transform="translate(295.213428, 408.469333)"><g><path d="M 12.890625 -33.109375 L 14.640625 -33.109375 C 15.910156 -33.109375 16.546875 -33.796875 16.546875 -35.171875 L 16.546875 -46.21875 L 26.96875 -46.21875 L 26.96875 -33.265625 C 26.96875 -27.878906 24.640625 -25.1875 19.984375 -25.1875 L 12.890625 -25.1875 L 12.890625 -14.171875 C 12.890625 -12.765625 13.472656 -12.0625 14.640625 -12.0625 L 28.890625 -12.0625 C 30.035156 -12.0625 30.609375 -12.765625 30.609375 -14.171875 L 30.609375 -46.21875 L 41.53125 -46.21875 L 41.53125 -10.5 C 41.53125 -7.320312 40.710938 -4.796875 39.078125 -2.921875 C 37.359375 -0.972656 34.925781 0 31.78125 0 L 11.75 0 C 5.238281 0 1.984375 -3.5 1.984375 -10.5 L 1.984375 -46.21875 L 12.890625 -46.21875 Z M 12.890625 -33.109375 "/></g></g></g><g fill="#cf4545" fill-opacity="1"><g transform="translate(338.742801, 408.469333)"><g><path d="M 32.671875 -8.3125 C 32.671875 -2.769531 30.160156 0 25.140625 0 L 17.171875 0 L 17.171875 -12.109375 L 19.5625 -12.109375 C 20.726562 -12.109375 21.3125 -12.804688 21.3125 -14.203125 L 21.3125 -31.8125 C 21.3125 -33.21875 20.960938 -33.921875 20.265625 -33.921875 C 19.554688 -33.921875 19.070312 -33.128906 18.8125 -31.546875 L 13.15625 0 L 1.984375 0 L 6.75 -25.8125 L 4.53125 -25.8125 C 2.78125 -25.8125 1.90625 -26.664062 1.90625 -28.375 L 1.90625 -46.21875 L 13.234375 -46.21875 L 13.234375 -29.90625 L 15.5 -38.84375 C 16.75 -43.757812 19.441406 -46.21875 23.578125 -46.21875 L 24.171875 -46.21875 C 29.835938 -46.21875 32.671875 -42.757812 32.671875 -35.84375 Z M 32.671875 -8.3125 "/></g></g></g><g fill="#cf4545" fill-opacity="1"><g transform="translate(373.41014, 408.469333)"><g><path d="M 29.625 0 L 18.15625 0 L 18.15625 -32.25 C 18.15625 -33.519531 17.503906 -34.15625 16.203125 -34.15625 L 1.984375 -34.15625 L 1.984375 -46.21875 L 21.46875 -46.21875 C 23.863281 -46.21875 25.828125 -45.453125 27.359375 -43.921875 C 28.867188 -42.410156 29.625 -40.445312 29.625 -38.03125 Z M 13.28125 0 L 2.03125 0 L 2.03125 -28.65625 L 13.28125 -28.65625 Z M 13.28125 0 "/></g></g></g><g fill="#cf4545" fill-opacity="1"><g transform="translate(405.032375, 408.469333)"><g/></g></g><g fill="#cf4545" fill-opacity="1"><g transform="translate(422.717403, 408.469333)"><g><path d="M 29.9375 -14.28125 C 29.9375 -9.570312 29.171875 -6.097656 27.640625 -3.859375 C 25.765625 -1.210938 22.578125 0.109375 18.078125 0.109375 C 17.265625 0.109375 16.414062 0.0703125 15.53125 0 L 15.53125 -12.0625 C 17.507812 -12.0625 18.5 -13.519531 18.5 -16.4375 L 18.5 -32.25 C 18.5 -33.519531 17.835938 -34.15625 16.515625 -34.15625 L 1.984375 -34.15625 L 1.984375 -46.21875 L 24.171875 -46.21875 C 28.015625 -46.21875 29.9375 -44.359375 29.9375 -40.640625 Z M 13.34375 6.671875 L 2.0625 6.671875 L 2.0625 -29.078125 L 13.34375 -29.078125 Z M 13.34375 6.671875 "/></g></g></g><g fill="#cf4545" fill-opacity="1"><g transform="translate(454.691008, 408.469333)"><g><path d="M 13.28125 0 L 1.984375 0 L 1.984375 -46.21875 L 13.28125 -46.21875 Z M 13.28125 0 "/></g></g></g><g fill="#cf4545" fill-opacity="1"><g transform="translate(469.95558, 408.469333)"><g><path d="M 31.96875 0 L 20.6875 0 L 20.6875 -31.96875 C 20.6875 -33.425781 20.023438 -34.15625 18.703125 -34.15625 L 17.171875 -34.15625 C 15.816406 -34.15625 15.140625 -33.425781 15.140625 -31.96875 L 15.140625 -5.546875 C 15.140625 -1.847656 13.59375 0 10.5 0 L 0.78125 0 L 0.78125 -12.0625 L 2.734375 -12.0625 C 3.378906 -12.0625 3.703125 -12.347656 3.703125 -12.921875 L 3.703125 -37.359375 C 3.703125 -40.503906 4.316406 -42.769531 5.546875 -44.15625 C 6.765625 -45.53125 8.925781 -46.21875 12.03125 -46.21875 L 24.203125 -46.21875 C 29.378906 -46.21875 31.96875 -43.265625 31.96875 -37.359375 Z M 31.96875 0 "/></g></g></g><g fill="#cf4545" fill-opacity="1"><g transform="translate(503.959254, 408.469333)"><g><path d="M 13.125 -25.734375 L 1.90625 -25.734375 L 1.90625 -46.21875 L 13.125 -46.21875 Z M 13.125 -25.734375 "/></g></g></g><g fill="#cf4545" fill-opacity="1"><g transform="translate(519.067667, 408.469333)"><g><path d="M 24.75 0 L 13.3125 0 L 13.3125 -32.25 C 13.3125 -33.519531 12.648438 -34.15625 11.328125 -34.15625 L 1.203125 -34.15625 L 1.203125 -46.21875 L 16.59375 -46.21875 C 18.988281 -46.21875 20.953125 -45.453125 22.484375 -43.921875 C 23.992188 -42.410156 24.75 -40.445312 24.75 -38.03125 Z M 24.75 0 "/></g></g></g><g fill="#cf4545" fill-opacity="1"><g transform="translate(545.809916, 408.469333)"><g><path d="M 29.625 0 L 18.15625 0 L 18.15625 -32.25 C 18.15625 -33.519531 17.503906 -34.15625 16.203125 -34.15625 L 1.984375 -34.15625 L 1.984375 -46.21875 L 21.46875 -46.21875 C 23.863281 -46.21875 25.828125 -45.453125 27.359375 -43.921875 C 28.867188 -42.410156 29.625 -40.445312 29.625 -38.03125 Z M 13.28125 0 L 2.03125 0 L 2.03125 -28.65625 L 13.28125 -28.65625 Z M 13.28125 0 "/></g></g></g><g fill="#cf4545" fill-opacity="1"><g transform="translate(577.432151, 408.469333)"><g/></g></g><g fill="#cf4545" fill-opacity="1"><g transform="translate(595.117191, 408.469333)"><g><path d="M 24.75 6.5625 L 13.3125 6.5625 L 13.3125 -32.25 C 13.3125 -33.519531 12.648438 -34.15625 11.328125 -34.15625 L 1.203125 -34.15625 L 1.203125 -46.21875 L 16.59375 -46.21875 C 18.988281 -46.21875 20.953125 -45.453125 22.484375 -43.921875 C 23.992188 -42.410156 24.75 -40.445312 24.75 -38.03125 Z M 24.75 6.5625 "/></g></g></g><g fill="#cf4545" fill-opacity="1"><g transform="translate(621.85944, 408.469333)"><g><path d="M 24.75 0 L 13.3125 0 L 13.3125 -32.25 C 13.3125 -33.519531 12.648438 -34.15625 11.328125 -34.15625 L 1.203125 -34.15625 L 1.203125 -46.21875 L 16.59375 -46.21875 C 18.988281 -46.21875 20.953125 -45.453125 22.484375 -43.921875 C 23.992188 -42.410156 24.75 -40.445312 24.75 -38.03125 Z M 24.75 0 "/></g></g></g><g fill="#cf4545" fill-opacity="1"><g transform="translate(648.601689, 408.469333)"><g><path d="M 30.609375 -12.1875 C 30.609375 -4.0625 27.273438 0 20.609375 0 L 1.203125 0 L 1.203125 -12.0625 L 3.9375 -12.0625 L 3.9375 -46.21875 L 15.21875 -46.21875 L 15.21875 -12.0625 L 17.484375 -12.0625 C 18.785156 -12.0625 19.4375 -12.957031 19.4375 -14.75 L 19.4375 -46.21875 L 30.609375 -46.21875 Z M 30.609375 -12.1875 "/></g></g></g><g fill="#cf4545" fill-opacity="1"><g transform="translate(681.199931, 408.469333)"><g><path d="M 32.671875 -8.3125 C 32.671875 -2.769531 30.160156 0 25.140625 0 L 17.171875 0 L 17.171875 -12.109375 L 19.5625 -12.109375 C 20.726562 -12.109375 21.3125 -12.804688 21.3125 -14.203125 L 21.3125 -31.8125 C 21.3125 -33.21875 20.960938 -33.921875 20.265625 -33.921875 C 19.554688 -33.921875 19.070312 -33.128906 18.8125 -31.546875 L 13.15625 0 L 1.984375 0 L 6.75 -25.8125 L 4.53125 -25.8125 C 2.78125 -25.8125 1.90625 -26.664062 1.90625 -28.375 L 1.90625 -46.21875 L 13.234375 -46.21875 L 13.234375 -29.90625 L 15.5 -38.84375 C 16.75 -43.757812 19.441406 -46.21875 23.578125 -46.21875 L 24.171875 -46.21875 C 29.835938 -46.21875 32.671875 -42.757812 32.671875 -35.84375 Z M 32.671875 -8.3125 "/></g></g></g><g fill="#cf4545" fill-opacity="1"><g transform="translate(715.86727, 408.469333)"><g/></g></g><g fill="#cf4545" fill-opacity="1"><g transform="translate(733.552287, 408.469333)"><g><path d="M 31.96875 0 L 20.6875 0 L 20.6875 -31.96875 C 20.6875 -33.425781 20.023438 -34.15625 18.703125 -34.15625 L 17.171875 -34.15625 C 15.816406 -34.15625 15.140625 -33.425781 15.140625 -31.96875 L 15.140625 -5.546875 C 15.140625 -1.847656 13.59375 0 10.5 0 L 0.78125 0 L 0.78125 -12.0625 L 2.734375 -12.0625 C 3.378906 -12.0625 3.703125 -12.347656 3.703125 -12.921875 L 3.703125 -37.359375 C 3.703125 -40.503906 4.316406 -42.769531 5.546875 -44.15625 C 6.765625 -45.53125 8.925781 -46.21875 12.03125 -46.21875 L 24.203125 -46.21875 C 29.378906 -46.21875 31.96875 -43.265625 31.96875 -37.359375 Z M 31.96875 0 "/></g></g></g><g fill="#cf4545" fill-opacity="1"><g transform="translate(767.555961, 408.469333)"><g><path d="M 32.671875 -8.3125 C 32.671875 -2.769531 30.160156 0 25.140625 0 L 17.171875 0 L 17.171875 -12.109375 L 19.5625 -12.109375 C 20.726562 -12.109375 21.3125 -12.804688 21.3125 -14.203125 L 21.3125 -31.8125 C 21.3125 -33.21875 20.960938 -33.921875 20.265625 -33.921875 C 19.554688 -33.921875 19.070312 -33.128906 18.8125 -31.546875 L 13.15625 0 L 1.984375 0 L 6.75 -25.8125 L 4.53125 -25.8125 C 2.78125 -25.8125 1.90625 -26.664062 1.90625 -28.375 L 1.90625 -46.21875 L 13.234375 -46.21875 L 13.234375 -29.90625 L 15.5 -38.84375 C 16.75 -43.757812 19.441406 -46.21875 23.578125 -46.21875 L 24.171875 -46.21875 C 29.835938 -46.21875 32.671875 -42.757812 32.671875 -35.84375 Z M 32.671875 -8.3125 "/></g></g></g><g fill="#cf4545" fill-opacity="1"><g transform="translate(802.2233, 408.469333)"><g><path d="M 29.9375 -14.28125 C 29.9375 -9.570312 29.171875 -6.097656 27.640625 -3.859375 C 25.765625 -1.210938 22.578125 0.109375 18.078125 0.109375 C 17.265625 0.109375 16.414062 0.0703125 15.53125 0 L 15.53125 -12.0625 C 17.507812 -12.0625 18.5 -13.519531 18.5 -16.4375 L 18.5 -32.25 C 18.5 -33.519531 17.835938 -34.15625 16.515625 -34.15625 L 1.984375 -34.15625 L 1.984375 -46.21875 L 24.171875 -46.21875 C 28.015625 -46.21875 29.9375 -44.359375 29.9375 -40.640625 Z M 13.34375 6.671875 L 2.0625 6.671875 L 2.0625 -29.078125 L 13.34375 -29.078125 Z M 13.34375 6.671875 "/></g></g></g><g fill="#cf4545" fill-opacity="1"><g transform="translate(834.196905, 408.469333)"><g><path d="M 29.625 0 L 18.15625 0 L 18.15625 -32.25 C 18.15625 -33.519531 17.503906 -34.15625 16.203125 -34.15625 L 1.984375 -34.15625 L 1.984375 -46.21875 L 21.46875 -46.21875 C 23.863281 -46.21875 25.828125 -45.453125 27.359375 -43.921875 C 28.867188 -42.410156 29.625 -40.445312 29.625 -38.03125 Z M 13.28125 0 L 2.03125 0 L 2.03125 -28.65625 L 13.28125 -28.65625 Z M 13.28125 0 "/></g></g></g><path stroke-linecap="butt" transform="matrix(0.749637, 0, 0, 0.749637, 276.977418, 317.363393)" fill="none" stroke-linejoin="miter" d="M -0.0011413 4.502028 L 681.599312 4.502028 " stroke="#cf4545" stroke-width="9" stroke-opacity="1" stroke-miterlimit="4"/></svg>