<svg xmlns="http://www.w3.org/2000/svg" xmlns:xlink="http://www.w3.org/1999/xlink" width="1486" zoomAndPan="magnify" viewBox="0 0 1114.5 516.750002" height="689" preserveAspectRatio="xMidYMid meet" version="1.0"><defs><g/><clipPath id="04b65c4220"><path d="M 0.0195312 0 L 1113.980469 0 L 1113.980469 516.332031 L 0.0195312 516.332031 Z M 0.0195312 0 " clip-rule="nonzero"/></clipPath><clipPath id="5ef35066d3"><path d="M 38.25 0 L 1075.71875 0 C 1085.859375 0 1095.582031 4.027344 1102.753906 11.199219 C 1109.921875 18.367188 1113.949219 28.09375 1113.949219 38.230469 L 1113.949219 478.101562 C 1113.949219 488.242188 1109.921875 497.964844 1102.753906 505.136719 C 1095.582031 512.304688 1085.859375 516.332031 1075.71875 516.332031 L 38.25 516.332031 C 28.113281 516.332031 18.386719 512.304688 11.21875 505.136719 C 4.046875 497.964844 0.0195312 488.242188 0.0195312 478.101562 L 0.0195312 38.230469 C 0.0195312 28.09375 4.046875 18.367188 11.21875 11.199219 C 18.386719 4.027344 28.113281 0 38.25 0 Z M 38.25 0 " clip-rule="nonzero"/></clipPath><clipPath id="79074da1e3"><path d="M 0.0273438 0 L 1113.980469 0 L 1113.980469 516.5 L 0.0273438 516.5 Z M 0.0273438 0 " clip-rule="nonzero"/></clipPath><clipPath id="76f39ff929"><path d="M 38.257812 0 L 1075.707031 0 C 1085.847656 0 1095.570312 4.027344 1102.742188 11.199219 C 1109.910156 18.367188 1113.941406 28.089844 1113.941406 38.230469 L 1113.941406 478.09375 C 1113.941406 488.234375 1109.910156 497.957031 1102.742188 505.125 C 1095.570312 512.296875 1085.847656 516.324219 1075.707031 516.324219 L 38.257812 516.324219 C 28.117188 516.324219 18.394531 512.296875 11.222656 505.125 C 4.054688 497.957031 0.0273438 488.234375 0.0273438 478.09375 L 0.0273438 38.230469 C 0.0273438 28.089844 4.054688 18.367188 11.222656 11.199219 C 18.394531 4.027344 28.117188 0 38.257812 0 Z M 38.257812 0 " clip-rule="nonzero"/></clipPath></defs><g clip-path="url(#04b65c4220)"><g clip-path="url(#5ef35066d3)"><path fill="#ffcf7e" d="M 0.0195312 0 L 1113.363281 0 L 1113.363281 516.332031 L 0.0195312 516.332031 Z M 0.0195312 0 " fill-opacity="1" fill-rule="nonzero"/></g></g><g clip-path="url(#79074da1e3)"><g clip-path="url(#76f39ff929)"><path stroke-linecap="butt" transform="matrix(0.749637, 0, 0, 0.749637, 0.0256264, 0.0000199903)" fill="none" stroke-linejoin="miter" d="M 51.000909 -0.0000266667 L 1434.935712 -0.0000266667 C 1448.463086 -0.0000266667 1461.43811 5.372363 1471.000025 14.939489 C 1480.56194 24.501404 1485.93954 37.471217 1485.93954 50.998591 L 1485.93954 637.766688 C 1485.93954 651.294062 1480.56194 664.263875 1471.000025 673.82579 C 1461.43811 683.392916 1448.463086 688.765306 1434.935712 688.765306 L 51.000909 688.765306 C 37.473534 688.765306 24.503721 683.392916 14.936595 673.82579 C 5.37468 664.263875 0.00229086 651.294062 0.00229086 637.766688 L 0.00229086 50.998591 C 0.00229086 37.471217 5.37468 24.501404 14.936595 14.939489 C 24.503721 5.372363 37.473534 -0.0000266667 51.000909 -0.0000266667 Z M 51.000909 -0.0000266667 " stroke="#cf4545" stroke-width="40" stroke-opacity="1" stroke-miterlimit="4"/></g></g><g fill="#cf4545" fill-opacity="1"><g transform="translate(955.16379, 84.723757)"><g><path d="M 10.921875 -20.5625 L 1.4375 -20.5625 L 1.4375 -30.8125 L 10.921875 -30.8125 Z M 10.921875 0 L 1.4375 0 L 1.4375 -10.296875 L 10.921875 -10.296875 Z M 10.921875 0 "/></g></g></g><g fill="#cf4545" fill-opacity="1"><g transform="translate(967.392249, 84.723757)"><g><path d="M 25.765625 0 L 3.09375 0 L 3.09375 -4.609375 C 3.09375 -8.492188 4.347656 -11.785156 6.859375 -14.484375 L 12.015625 -20 C 12.691406 -20.75 13.238281 -21.347656 13.65625 -21.796875 C 14.082031 -22.253906 14.359375 -22.578125 14.484375 -22.765625 C 15.234375 -23.867188 15.609375 -25.066406 15.609375 -26.359375 L 15.609375 -30.71875 L 12.515625 -30.71875 L 12.515625 -26.640625 L 2.390625 -26.640625 L 2.390625 -33.59375 C 2.390625 -35.882812 3.300781 -37.804688 5.125 -39.359375 C 6.84375 -40.859375 8.867188 -41.609375 11.203125 -41.609375 L 17.78125 -41.609375 C 23.101562 -41.609375 25.765625 -38.9375 25.765625 -33.59375 L 25.765625 -25.90625 C 25.765625 -22.550781 24.273438 -19.175781 21.296875 -15.78125 L 16.96875 -10.859375 L 25.765625 -10.859375 Z M 25.765625 0 "/></g></g><g transform="translate(995.468509, 84.723757)"><g><path d="M 26.28125 -7.984375 C 26.28125 -5.453125 25.566406 -3.488281 24.140625 -2.09375 C 22.710938 -0.695312 20.734375 0 18.203125 0 L 9.9375 0 C 7.738281 0 5.84375 -0.785156 4.25 -2.359375 C 2.65625 -3.953125 1.859375 -5.828125 1.859375 -7.984375 L 1.859375 -33.59375 C 1.859375 -36.144531 2.566406 -38.117188 3.984375 -39.515625 C 5.398438 -40.910156 7.382812 -41.609375 9.9375 -41.609375 L 18.203125 -41.609375 C 20.734375 -41.609375 22.710938 -40.90625 24.140625 -39.5 C 25.566406 -38.09375 26.28125 -36.125 26.28125 -33.59375 Z M 16.0625 -10.859375 L 16.0625 -30.71875 L 12.015625 -30.71875 L 12.015625 -10.859375 Z M 16.0625 -10.859375 "/></g></g><g transform="translate(1023.544768, 84.723757)"><g><path d="M 26.28125 -7.984375 C 26.28125 -5.453125 25.566406 -3.488281 24.140625 -2.09375 C 22.710938 -0.695312 20.734375 0 18.203125 0 L 9.9375 0 C 7.738281 0 5.84375 -0.785156 4.25 -2.359375 C 2.65625 -3.953125 1.859375 -5.828125 1.859375 -7.984375 L 1.859375 -33.59375 C 1.859375 -36.144531 2.566406 -38.117188 3.984375 -39.515625 C 5.398438 -40.910156 7.382812 -41.609375 9.9375 -41.609375 L 18.203125 -41.609375 C 20.734375 -41.609375 22.710938 -40.90625 24.140625 -39.5 C 25.566406 -38.09375 26.28125 -36.125 26.28125 -33.59375 Z M 16.0625 -10.859375 L 16.0625 -30.71875 L 12.015625 -30.71875 L 12.015625 -10.859375 Z M 16.0625 -10.859375 "/></g></g><g transform="translate(1051.621028, 84.723757)"><g><path d="M 25.6875 -41.609375 L 22.875 -24.390625 L 25.265625 -24.390625 L 25.265625 -13.53125 L 21.21875 -13.53125 L 19.21875 0 L 8.640625 0 L 10.71875 -13.53125 L 6.671875 -13.53125 L 6.671875 -24.390625 L 12.296875 -24.390625 L 13.25 -30.71875 L 2.390625 -30.71875 L 2.390625 -41.609375 Z M 25.6875 -41.609375 "/></g></g></g><g fill="#cf4545" fill-opacity="1"><g transform="translate(99.455082, 201.760097)"><g><path d="M 26.75 0 L 14.265625 0 L 14.265625 -37.53125 L 5.796875 -37.53125 L 5.796875 -50.84375 L 17.046875 -50.84375 C 23.515625 -50.84375 26.75 -47.582031 26.75 -41.0625 Z M 26.75 0 "/></g></g></g><g fill="#cf4545" fill-opacity="1"><g transform="translate(133.768993, 201.760097)"><g><path d="M 31.140625 -9.75 C 31.140625 -3.25 27.859375 0 21.296875 0 L 3.265625 0 L 4.203125 -13.265625 L 18.71875 -13.265625 L 18.71875 -18.296875 L 5.203125 -18.296875 L 8.625 -50.84375 L 31.140625 -50.84375 L 30.140625 -37.53125 L 20.0625 -37.53125 L 19.0625 -31.5625 L 21.8125 -31.5625 C 28.03125 -31.5625 31.140625 -28.457031 31.140625 -22.25 Z M 31.140625 -9.75 "/></g></g></g><g fill="#cf4545" fill-opacity="1"><g transform="translate(168.082903, 201.760097)"><g><path d="M 31.140625 -9.75 C 31.140625 -3.25 27.859375 0 21.296875 0 L 3.265625 0 L 4.203125 -13.265625 L 18.71875 -13.265625 L 18.71875 -18.296875 L 5.203125 -18.296875 L 8.625 -50.84375 L 31.140625 -50.84375 L 30.140625 -37.53125 L 20.0625 -37.53125 L 19.0625 -31.5625 L 21.8125 -31.5625 C 28.03125 -31.5625 31.140625 -28.457031 31.140625 -22.25 Z M 31.140625 -9.75 "/></g></g></g><g fill="#cf4545" fill-opacity="1"><g transform="translate(202.396814, 201.760097)"><g><path d="M 31.390625 -50.84375 L 27.953125 -29.796875 L 30.875 -29.796875 L 30.875 -16.53125 L 25.9375 -16.53125 L 23.484375 0 L 10.5625 0 L 13.09375 -16.53125 L 8.15625 -16.53125 L 8.15625 -29.796875 L 15.03125 -29.796875 L 16.1875 -37.53125 L 2.921875 -37.53125 L 2.921875 -50.84375 Z M 31.390625 -50.84375 "/></g></g></g><g fill="#cf4545" fill-opacity="1"><g transform="translate(236.720704, 201.760097)"><g/></g></g><g fill="#cf4545" fill-opacity="1"><g transform="translate(256.175277, 201.760097)"><g><path d="M 32.59375 0 L 19.96875 0 L 19.96875 -35.46875 C 19.96875 -36.875 19.253906 -37.578125 17.828125 -37.578125 L 2.1875 -37.578125 L 2.1875 -50.84375 L 23.625 -50.84375 C 26.257812 -50.84375 28.421875 -50 30.109375 -48.3125 C 31.765625 -46.65625 32.59375 -44.492188 32.59375 -41.828125 Z M 14.609375 0 L 2.234375 0 L 2.234375 -31.515625 L 14.609375 -31.515625 Z M 14.609375 0 "/></g></g></g><g fill="#cf4545" fill-opacity="1"><g transform="translate(290.961588, 201.760097)"><g><path d="M 30.359375 -18.375 C 30.359375 -6.125 24.488281 0 12.75 0 L 7.390625 0 L 7.390625 -13.265625 L 11 -13.265625 C 13.769531 -13.265625 15.65625 -14.15625 16.65625 -15.9375 C 17.375 -17.195312 17.734375 -19.382812 17.734375 -22.5 L 17.734375 -35.46875 C 17.734375 -36.875 17.019531 -37.578125 15.59375 -37.578125 L 2.1875 -37.578125 L 2.1875 -57.15625 L 14.640625 -57.15625 L 14.640625 -50.84375 L 24 -50.84375 C 28.238281 -50.84375 30.359375 -48.796875 30.359375 -44.703125 Z M 30.359375 -18.375 "/></g></g></g><g fill="#cf4545" fill-opacity="1"><g transform="translate(323.514705, 201.760097)"><g><path d="M 14.171875 -36.421875 L 16.109375 -36.421875 C 17.503906 -36.421875 18.203125 -37.175781 18.203125 -38.6875 L 18.203125 -50.84375 L 29.671875 -50.84375 L 29.671875 -36.59375 C 29.671875 -30.664062 27.109375 -27.703125 21.984375 -27.703125 L 14.171875 -27.703125 L 14.171875 -15.59375 C 14.171875 -14.039062 14.816406 -13.265625 16.109375 -13.265625 L 31.78125 -13.265625 C 33.039062 -13.265625 33.671875 -14.039062 33.671875 -15.59375 L 33.671875 -50.84375 L 45.6875 -50.84375 L 45.6875 -11.546875 C 45.6875 -8.054688 44.785156 -5.28125 42.984375 -3.21875 C 41.097656 -1.070312 38.421875 0 34.953125 0 L 12.921875 0 C 5.765625 0 2.1875 -3.847656 2.1875 -11.546875 L 2.1875 -50.84375 L 14.171875 -50.84375 Z M 14.171875 -36.421875 "/></g></g></g><g fill="#cf4545" fill-opacity="1"><g transform="translate(371.399572, 201.760097)"><g><path d="M 35.953125 -9.140625 C 35.953125 -3.046875 33.1875 0 27.65625 0 L 18.890625 0 L 18.890625 -13.3125 L 21.515625 -13.3125 C 22.804688 -13.3125 23.453125 -14.082031 23.453125 -15.625 L 23.453125 -35 C 23.453125 -36.539062 23.0625 -37.3125 22.28125 -37.3125 C 21.507812 -37.3125 20.984375 -36.441406 20.703125 -34.703125 L 14.46875 0 L 2.1875 0 L 7.421875 -28.390625 L 4.984375 -28.390625 C 3.066406 -28.390625 2.109375 -29.332031 2.109375 -31.21875 L 2.109375 -50.84375 L 14.5625 -50.84375 L 14.5625 -32.890625 L 17.046875 -42.734375 C 18.421875 -48.140625 21.382812 -50.84375 25.9375 -50.84375 L 26.578125 -50.84375 C 32.828125 -50.84375 35.953125 -47.035156 35.953125 -39.421875 Z M 35.953125 -9.140625 "/></g></g></g><g fill="#cf4545" fill-opacity="1"><g transform="translate(409.535677, 201.760097)"><g><path d="M 35.953125 -9.140625 C 35.953125 -3.046875 33.1875 0 27.65625 0 L 18.890625 0 L 18.890625 -13.3125 L 21.515625 -13.3125 C 22.804688 -13.3125 23.453125 -14.082031 23.453125 -15.625 L 23.453125 -35 C 23.453125 -36.539062 23.0625 -37.3125 22.28125 -37.3125 C 21.507812 -37.3125 20.984375 -36.441406 20.703125 -34.703125 L 14.46875 0 L 2.1875 0 L 7.421875 -28.390625 L 4.984375 -28.390625 C 3.066406 -28.390625 2.109375 -29.332031 2.109375 -31.21875 L 2.109375 -50.84375 L 14.5625 -50.84375 L 14.5625 -32.890625 L 17.046875 -42.734375 C 18.421875 -48.140625 21.382812 -50.84375 25.9375 -50.84375 L 26.578125 -50.84375 C 32.828125 -50.84375 35.953125 -47.035156 35.953125 -39.421875 Z M 35.953125 -9.140625 "/></g></g></g><g fill="#cf4545" fill-opacity="1"><g transform="translate(447.67177, 201.760097)"><g/></g></g><g fill="#cf4545" fill-opacity="1"><g transform="translate(467.126331, 201.760097)"><g><path d="M 35.171875 0 L 22.765625 0 L 22.765625 -35.171875 C 22.765625 -36.773438 22.035156 -37.578125 20.578125 -37.578125 L 18.890625 -37.578125 C 17.398438 -37.578125 16.65625 -36.773438 16.65625 -35.171875 L 16.65625 -6.09375 C 16.65625 -2.03125 14.953125 0 11.546875 0 L 0.859375 0 L 0.859375 -13.265625 L 3 -13.265625 C 3.71875 -13.265625 4.078125 -13.582031 4.078125 -14.21875 L 4.078125 -41.09375 C 4.078125 -44.5625 4.75 -47.054688 6.09375 -48.578125 C 7.4375 -50.085938 9.816406 -50.84375 13.234375 -50.84375 L 26.625 -50.84375 C 32.320312 -50.84375 35.171875 -47.59375 35.171875 -41.09375 Z M 35.171875 0 "/></g></g></g><g fill="#cf4545" fill-opacity="1"><g transform="translate(504.532359, 201.760097)"><g><path d="M 34.359375 -9.796875 C 34.359375 -3.265625 31.664062 0 26.28125 0 L 10.265625 0 C 7.546875 0 5.484375 -0.988281 4.078125 -2.96875 C 2.816406 -4.738281 2.1875 -7.015625 2.1875 -9.796875 L 2.1875 -50.84375 L 14.5625 -50.84375 L 14.5625 -34.828125 L 17 -43.5 C 18.375 -48.394531 20.878906 -50.84375 24.515625 -50.84375 L 27.0625 -50.84375 C 31.925781 -50.84375 34.359375 -48.195312 34.359375 -42.90625 Z M 22.03125 -36.421875 C 22.03125 -36.960938 21.914062 -37.234375 21.6875 -37.234375 C 21.519531 -37.234375 21.378906 -37.003906 21.265625 -36.546875 L 19.453125 -29.796875 L 14.5625 -29.796875 L 14.5625 -15.59375 C 14.5625 -14.039062 15.191406 -13.265625 16.453125 -13.265625 L 20.09375 -13.265625 C 21.382812 -13.265625 22.03125 -14.039062 22.03125 -15.59375 Z M 22.03125 -36.421875 "/></g></g></g><g fill="#cf4545" fill-opacity="1"><g transform="translate(541.079465, 201.760097)"><g><path d="M 30.359375 -18.375 C 30.359375 -6.125 24.488281 0 12.75 0 L 7.390625 0 L 7.390625 -13.265625 L 11 -13.265625 C 13.769531 -13.265625 15.65625 -14.15625 16.65625 -15.9375 C 17.375 -17.195312 17.734375 -19.382812 17.734375 -22.5 L 17.734375 -35.46875 C 17.734375 -36.875 17.019531 -37.578125 15.59375 -37.578125 L 2.1875 -37.578125 L 2.1875 -57.15625 L 14.640625 -57.15625 L 14.640625 -50.84375 L 24 -50.84375 C 28.238281 -50.84375 30.359375 -48.796875 30.359375 -44.703125 Z M 30.359375 -18.375 "/></g></g></g><g fill="#cf4545" fill-opacity="1"><g transform="translate(573.63257, 201.760097)"><g><path d="M 33.15625 0 L 20.703125 0 L 20.703125 -35.171875 C 20.703125 -36.773438 19.972656 -37.578125 18.515625 -37.578125 L 17 -37.578125 C 15.539062 -37.578125 14.8125 -36.773438 14.8125 -35.171875 L 14.8125 0 L 2.1875 0 L 2.1875 -41.953125 C 2.1875 -45.128906 2.71875 -47.347656 3.78125 -48.609375 C 4.976562 -50.097656 7.125 -50.84375 10.21875 -50.84375 L 24.5625 -50.84375 C 30.289062 -50.84375 33.15625 -47.878906 33.15625 -41.953125 Z M 33.15625 0 "/></g></g></g><g fill="#cf4545" fill-opacity="1"><g transform="translate(608.977186, 201.760097)"><g><path d="M 32.59375 0 L 19.96875 0 L 19.96875 -35.46875 C 19.96875 -36.875 19.253906 -37.578125 17.828125 -37.578125 L 2.1875 -37.578125 L 2.1875 -50.84375 L 23.625 -50.84375 C 26.257812 -50.84375 28.421875 -50 30.109375 -48.3125 C 31.765625 -46.65625 32.59375 -44.492188 32.59375 -41.828125 Z M 14.609375 0 L 2.234375 0 L 2.234375 -31.515625 L 14.609375 -31.515625 Z M 14.609375 0 "/></g></g></g><g fill="#cf4545" fill-opacity="1"><g transform="translate(643.763509, 201.760097)"><g/></g></g><g fill="#cf4545" fill-opacity="1"><g transform="translate(663.21807, 201.760097)"><g><path d="M 23.65625 -18.203125 L 2.625 -18.203125 L 2.625 -31.484375 L 23.65625 -31.484375 Z M 23.65625 -18.203125 "/></g></g></g><g fill="#cf4545" fill-opacity="1"><g transform="translate(689.501084, 201.760097)"><g/></g></g><g fill="#cf4545" fill-opacity="1"><g transform="translate(708.957061, 201.760097)"><g><path d="M 26.75 0 L 14.265625 0 L 14.265625 -37.53125 L 5.796875 -37.53125 L 5.796875 -50.84375 L 17.046875 -50.84375 C 23.515625 -50.84375 26.75 -47.582031 26.75 -41.0625 Z M 26.75 0 "/></g></g></g><g fill="#cf4545" fill-opacity="1"><g transform="translate(743.270972, 201.760097)"><g><path d="M 31.140625 -9.75 C 31.140625 -3.25 27.859375 0 21.296875 0 L 3.265625 0 L 4.203125 -13.265625 L 18.71875 -13.265625 L 18.71875 -18.296875 L 5.203125 -18.296875 L 8.625 -50.84375 L 31.140625 -50.84375 L 30.140625 -37.53125 L 20.0625 -37.53125 L 19.0625 -31.5625 L 21.8125 -31.5625 C 28.03125 -31.5625 31.140625 -28.457031 31.140625 -22.25 Z M 31.140625 -9.75 "/></g></g></g><g fill="#cf4545" fill-opacity="1"><g transform="translate(777.584882, 201.760097)"><g><path d="M 13.359375 0 L 1.765625 0 L 1.765625 -12.578125 L 13.359375 -12.578125 Z M 13.359375 0 "/></g></g></g><g fill="#cf4545" fill-opacity="1"><g transform="translate(792.530113, 201.760097)"><g><path d="M 32.125 -9.75 C 32.125 -6.65625 31.25 -4.253906 29.5 -2.546875 C 27.757812 -0.847656 25.34375 0 22.25 0 L 12.15625 0 C 9.457031 0 7.140625 -0.957031 5.203125 -2.875 C 3.253906 -4.820312 2.28125 -7.113281 2.28125 -9.75 L 2.28125 -41.0625 C 2.28125 -44.175781 3.144531 -46.582031 4.875 -48.28125 C 6.601562 -49.988281 9.03125 -50.84375 12.15625 -50.84375 L 22.25 -50.84375 C 25.34375 -50.84375 27.757812 -49.984375 29.5 -48.265625 C 31.25 -46.546875 32.125 -44.144531 32.125 -41.0625 Z M 19.625 -13.265625 L 19.625 -37.53125 L 14.6875 -37.53125 L 14.6875 -13.265625 Z M 19.625 -13.265625 "/></g></g></g><g fill="#cf4545" fill-opacity="1"><g transform="translate(826.844023, 201.760097)"><g><path d="M 34.75 -9.65625 L 32.203125 -9.65625 L 32.203125 0 L 19.796875 0 L 19.796875 -9.65625 L -0.421875 -9.65625 L 9.234375 -50.84375 L 22.15625 -50.84375 L 15.765625 -22.96875 L 19.796875 -22.96875 L 19.796875 -31.734375 L 32.203125 -31.734375 L 32.203125 -22.96875 L 34.75 -22.96875 Z M 34.75 -9.65625 "/></g></g></g><g fill="#cf4545" fill-opacity="1"><g transform="translate(861.157934, 201.760097)"><g><path d="M 13.359375 0 L 1.765625 0 L 1.765625 -12.578125 L 13.359375 -12.578125 Z M 13.359375 0 "/></g></g></g><g fill="#cf4545" fill-opacity="1"><g transform="translate(876.103164, 201.760097)"><g><path d="M 31.484375 0 L 3.78125 0 L 3.78125 -5.625 C 3.78125 -10.375 5.3125 -14.394531 8.375 -17.6875 L 14.6875 -24.4375 C 15.519531 -25.351562 16.191406 -26.085938 16.703125 -26.640625 C 17.222656 -27.203125 17.550781 -27.597656 17.6875 -27.828125 C 18.601562 -29.171875 19.0625 -30.628906 19.0625 -32.203125 L 19.0625 -37.53125 L 15.28125 -37.53125 L 15.28125 -32.546875 L 2.921875 -32.546875 L 2.921875 -41.0625 C 2.921875 -43.863281 4.035156 -46.207031 6.265625 -48.09375 C 8.359375 -49.925781 10.835938 -50.84375 13.703125 -50.84375 L 21.734375 -50.84375 C 28.234375 -50.84375 31.484375 -47.582031 31.484375 -41.0625 L 31.484375 -31.65625 C 31.484375 -27.5625 29.664062 -23.4375 26.03125 -19.28125 L 20.75 -13.265625 L 31.484375 -13.265625 Z M 31.484375 0 "/></g></g></g><g fill="#cf4545" fill-opacity="1"><g transform="translate(910.417075, 201.760097)"><g><path d="M 32.125 -9.75 C 32.125 -6.65625 31.25 -4.253906 29.5 -2.546875 C 27.757812 -0.847656 25.34375 0 22.25 0 L 12.15625 0 C 9.457031 0 7.140625 -0.957031 5.203125 -2.875 C 3.253906 -4.820312 2.28125 -7.113281 2.28125 -9.75 L 2.28125 -41.0625 C 2.28125 -44.175781 3.144531 -46.582031 4.875 -48.28125 C 6.601562 -49.988281 9.03125 -50.84375 12.15625 -50.84375 L 22.25 -50.84375 C 25.34375 -50.84375 27.757812 -49.984375 29.5 -48.265625 C 31.25 -46.546875 32.125 -44.144531 32.125 -41.0625 Z M 19.625 -13.265625 L 19.625 -37.53125 L 14.6875 -37.53125 L 14.6875 -13.265625 Z M 19.625 -13.265625 "/></g></g></g><g fill="#cf4545" fill-opacity="1"><g transform="translate(944.730985, 201.760097)"><g><path d="M 32.125 -9.75 C 32.125 -6.65625 31.25 -4.253906 29.5 -2.546875 C 27.757812 -0.847656 25.34375 0 22.25 0 L 12.15625 0 C 9.457031 0 7.140625 -0.957031 5.203125 -2.875 C 3.253906 -4.820312 2.28125 -7.113281 2.28125 -9.75 L 2.28125 -41.0625 C 2.28125 -44.175781 3.144531 -46.582031 4.875 -48.28125 C 6.601562 -49.988281 9.03125 -50.84375 12.15625 -50.84375 L 22.25 -50.84375 C 25.34375 -50.84375 27.757812 -49.984375 29.5 -48.265625 C 31.25 -46.546875 32.125 -44.144531 32.125 -41.0625 Z M 19.625 -13.265625 L 19.625 -37.53125 L 14.6875 -37.53125 L 14.6875 -13.265625 Z M 19.625 -13.265625 "/></g></g></g><g fill="#cf4545" fill-opacity="1"><g transform="translate(979.044896, 201.760097)"><g><path d="M 31.390625 -50.84375 L 27.953125 -29.796875 L 30.875 -29.796875 L 30.875 -16.53125 L 25.9375 -16.53125 L 23.484375 0 L 10.5625 0 L 13.09375 -16.53125 L 8.15625 -16.53125 L 8.15625 -29.796875 L 15.03125 -29.796875 L 16.1875 -37.53125 L 2.921875 -37.53125 L 2.921875 -50.84375 Z M 31.390625 -50.84375 "/></g></g></g><g fill="#cf4545" fill-opacity="1"><g transform="translate(90.424295, 293.965486)"><g><path d="M 32.46875 7.21875 L 20.09375 7.21875 L 20.09375 -35.46875 C 20.09375 -36.875 19.394531 -37.578125 18 -37.578125 L 16.53125 -37.578125 C 15.351562 -37.578125 14.765625 -36.847656 14.765625 -35.390625 L 14.765625 -27.921875 L 2.1875 -27.921875 L 2.1875 -41.828125 C 2.1875 -47.835938 5.378906 -50.84375 11.765625 -50.84375 L 22.671875 -50.84375 C 25.367188 -50.84375 27.644531 -50.03125 29.5 -48.40625 C 31.476562 -46.6875 32.46875 -44.492188 32.46875 -41.828125 Z M 32.46875 7.21875 "/></g></g></g><g fill="#cf4545" fill-opacity="1"><g transform="translate(125.081774, 293.965486)"><g><path d="M 27.234375 0 L 14.640625 0 L 14.640625 -35.46875 C 14.640625 -36.875 13.910156 -37.578125 12.453125 -37.578125 L 1.328125 -37.578125 L 1.328125 -50.84375 L 18.25 -50.84375 C 20.882812 -50.84375 23.046875 -50 24.734375 -48.3125 C 26.398438 -46.65625 27.234375 -44.492188 27.234375 -41.828125 Z M 27.234375 0 "/></g></g></g><g fill="#cf4545" fill-opacity="1"><g transform="translate(154.499834, 293.965486)"><g><path d="M 14.609375 0 L 2.1875 0 L 2.1875 -50.84375 L 14.609375 -50.84375 Z M 14.609375 0 "/></g></g></g><g fill="#cf4545" fill-opacity="1"><g transform="translate(171.29175, 293.965486)"><g><path d="M 33.671875 -13.40625 C 33.671875 -4.46875 30.003906 0 22.671875 0 L 1.328125 0 L 1.328125 -13.265625 L 4.34375 -13.265625 L 4.34375 -50.84375 L 16.75 -50.84375 L 16.75 -13.265625 L 19.234375 -13.265625 C 20.671875 -13.265625 21.390625 -14.253906 21.390625 -16.234375 L 21.390625 -50.84375 L 33.671875 -50.84375 Z M 33.671875 -13.40625 "/></g></g></g><g fill="#cf4545" fill-opacity="1"><g transform="translate(207.15172, 293.965486)"><g><path d="M 31.21875 0 L 2.1875 0 L 2.1875 -13.265625 L 11.859375 -13.265625 C 14.691406 -13.265625 16.109375 -14.941406 16.109375 -18.296875 L 16.109375 -33.546875 C 16.109375 -35.035156 15.847656 -36.078125 15.328125 -36.671875 C 14.816406 -37.273438 13.832031 -37.578125 12.375 -37.578125 L 2.1875 -37.578125 L 2.1875 -50.84375 L 18.890625 -50.84375 C 25.453125 -50.84375 28.734375 -46.960938 28.734375 -39.203125 L 28.734375 -21.8125 C 28.734375 -17.320312 27.054688 -14.472656 23.703125 -13.265625 L 31.21875 -13.265625 Z M 31.21875 0 "/></g></g></g><g fill="#cf4545" fill-opacity="1"><g transform="translate(240.134297, 293.965486)"><g/></g></g><g fill="#cf4545" fill-opacity="1"><g transform="translate(259.58887, 293.965486)"><g><path d="M 30.359375 -18.375 C 30.359375 -6.125 24.488281 0 12.75 0 L 7.390625 0 L 7.390625 -13.265625 L 11 -13.265625 C 13.769531 -13.265625 15.65625 -14.15625 16.65625 -15.9375 C 17.375 -17.195312 17.734375 -19.382812 17.734375 -22.5 L 17.734375 -35.46875 C 17.734375 -36.875 17.019531 -37.578125 15.59375 -37.578125 L 2.1875 -37.578125 L 2.1875 -57.15625 L 14.640625 -57.15625 L 14.640625 -50.84375 L 24 -50.84375 C 28.238281 -50.84375 30.359375 -48.796875 30.359375 -44.703125 Z M 30.359375 -18.375 "/></g></g></g><g fill="#cf4545" fill-opacity="1"><g transform="translate(292.141975, 293.965486)"><g><path d="M 14.609375 0 L 2.1875 0 L 2.1875 -50.84375 L 14.609375 -50.84375 Z M 14.609375 0 "/></g></g></g><g fill="#cf4545" fill-opacity="1"><g transform="translate(308.933892, 293.965486)"><g><path d="M 32.515625 -9.875 C 32.515625 -3.289062 29.320312 0 22.9375 0 L 2.28125 0 L 2.28125 -13.265625 L 17.65625 -13.265625 C 19.34375 -13.265625 20.1875 -14.269531 20.1875 -16.28125 L 20.1875 -35.46875 C 20.1875 -36.875 19.539062 -37.578125 18.25 -37.578125 L 16.53125 -37.578125 C 15.351562 -37.578125 14.765625 -36.847656 14.765625 -35.390625 L 14.765625 -27.921875 L 2.1875 -27.921875 L 2.1875 -41.828125 C 2.1875 -47.835938 5.078125 -50.84375 10.859375 -50.84375 L 23.578125 -50.84375 C 26.265625 -50.84375 28.425781 -50.015625 30.0625 -48.359375 C 31.695312 -46.671875 32.515625 -44.492188 32.515625 -41.828125 Z M 32.515625 -9.875 "/></g></g></g><g fill="#cf4545" fill-opacity="1"><g transform="translate(343.677251, 293.965486)"><g><path d="M 14.4375 -28.296875 L 2.109375 -28.296875 L 2.109375 -50.84375 L 14.4375 -50.84375 Z M 14.4375 -28.296875 "/></g></g></g><g fill="#cf4545" fill-opacity="1"><g transform="translate(360.297384, 293.965486)"><g><path d="M 34.359375 -9.796875 C 34.359375 -3.265625 31.664062 0 26.28125 0 L 10.265625 0 C 7.546875 0 5.484375 -0.988281 4.078125 -2.96875 C 2.816406 -4.738281 2.1875 -7.015625 2.1875 -9.796875 L 2.1875 -50.84375 L 14.5625 -50.84375 L 14.5625 -34.828125 L 17 -43.5 C 18.375 -48.394531 20.878906 -50.84375 24.515625 -50.84375 L 27.0625 -50.84375 C 31.925781 -50.84375 34.359375 -48.195312 34.359375 -42.90625 Z M 22.03125 -36.421875 C 22.03125 -36.960938 21.914062 -37.234375 21.6875 -37.234375 C 21.519531 -37.234375 21.378906 -37.003906 21.265625 -36.546875 L 19.453125 -29.796875 L 14.5625 -29.796875 L 14.5625 -15.59375 C 14.5625 -14.039062 15.191406 -13.265625 16.453125 -13.265625 L 20.09375 -13.265625 C 21.382812 -13.265625 22.03125 -14.039062 22.03125 -15.59375 Z M 22.03125 -36.421875 "/></g></g></g><g fill="#cf4545" fill-opacity="1"><g transform="translate(396.84449, 293.965486)"><g><path d="M 30.359375 -18.375 C 30.359375 -6.125 24.488281 0 12.75 0 L 7.390625 0 L 7.390625 -13.265625 L 11 -13.265625 C 13.769531 -13.265625 15.65625 -14.15625 16.65625 -15.9375 C 17.375 -17.195312 17.734375 -19.382812 17.734375 -22.5 L 17.734375 -35.46875 C 17.734375 -36.875 17.019531 -37.578125 15.59375 -37.578125 L 2.1875 -37.578125 L 2.1875 -57.15625 L 14.640625 -57.15625 L 14.640625 -50.84375 L 24 -50.84375 C 28.238281 -50.84375 30.359375 -48.796875 30.359375 -44.703125 Z M 30.359375 -18.375 "/></g></g></g><g fill="#cf4545" fill-opacity="1"><g transform="translate(429.397618, 293.965486)"><g/></g></g><g fill="#cf4545" fill-opacity="1"><g transform="translate(448.852179, 293.965486)"><g><path d="M 35.171875 0 L 22.765625 0 L 22.765625 -35.171875 C 22.765625 -36.773438 22.035156 -37.578125 20.578125 -37.578125 L 18.890625 -37.578125 C 17.398438 -37.578125 16.65625 -36.773438 16.65625 -35.171875 L 16.65625 -6.09375 C 16.65625 -2.03125 14.953125 0 11.546875 0 L 0.859375 0 L 0.859375 -13.265625 L 3 -13.265625 C 3.71875 -13.265625 4.078125 -13.582031 4.078125 -14.21875 L 4.078125 -41.09375 C 4.078125 -44.5625 4.75 -47.054688 6.09375 -48.578125 C 7.4375 -50.085938 9.816406 -50.84375 13.234375 -50.84375 L 26.625 -50.84375 C 32.320312 -50.84375 35.171875 -47.59375 35.171875 -41.09375 Z M 35.171875 0 "/></g></g></g><g fill="#cf4545" fill-opacity="1"><g transform="translate(486.25823, 293.965486)"><g><path d="M 30.359375 -18.375 C 30.359375 -6.125 24.488281 0 12.75 0 L 7.390625 0 L 7.390625 -13.265625 L 11 -13.265625 C 13.769531 -13.265625 15.65625 -14.15625 16.65625 -15.9375 C 17.375 -17.195312 17.734375 -19.382812 17.734375 -22.5 L 17.734375 -35.46875 C 17.734375 -36.875 17.019531 -37.578125 15.59375 -37.578125 L 2.1875 -37.578125 L 2.1875 -57.15625 L 14.640625 -57.15625 L 14.640625 -50.84375 L 24 -50.84375 C 28.238281 -50.84375 30.359375 -48.796875 30.359375 -44.703125 Z M 30.359375 -18.375 "/></g></g></g><g fill="#cf4545" fill-opacity="1"><g transform="translate(518.811358, 293.965486)"><g><path d="M 30.359375 -18.375 C 30.359375 -6.125 24.488281 0 12.75 0 L 7.390625 0 L 7.390625 -13.265625 L 11 -13.265625 C 13.769531 -13.265625 15.65625 -14.15625 16.65625 -15.9375 C 17.375 -17.195312 17.734375 -19.382812 17.734375 -22.5 L 17.734375 -35.46875 C 17.734375 -36.875 17.019531 -37.578125 15.59375 -37.578125 L 2.1875 -37.578125 L 2.1875 -57.15625 L 14.640625 -57.15625 L 14.640625 -50.84375 L 24 -50.84375 C 28.238281 -50.84375 30.359375 -48.796875 30.359375 -44.703125 Z M 30.359375 -18.375 "/></g></g></g><g fill="#cf4545" fill-opacity="1"><g transform="translate(551.364486, 293.965486)"><g><path d="M 14.609375 0 L 2.1875 0 L 2.1875 -50.84375 L 14.609375 -50.84375 Z M 14.609375 0 "/></g></g></g><g fill="#cf4545" fill-opacity="1"><g transform="translate(568.156379, 293.965486)"><g><path d="M 29.125 -12.546875 C 29.125 -4.179688 25.1875 0 17.3125 0 L 2.1875 0 L 2.1875 -13.265625 L 12.71875 -13.265625 C 15.320312 -13.265625 16.625 -14.484375 16.625 -16.921875 L 16.625 -33.921875 C 16.625 -36.359375 15.320312 -37.578125 12.71875 -37.578125 L 2.1875 -37.578125 L 2.1875 -50.84375 L 17.3125 -50.84375 C 25.1875 -50.84375 29.125 -46.664062 29.125 -38.3125 Z M 29.125 -12.546875 "/></g></g></g><g fill="#cf4545" fill-opacity="1"><g transform="translate(599.464077, 293.965486)"><g><path d="M 32.59375 0 L 19.96875 0 L 19.96875 -35.46875 C 19.96875 -36.875 19.253906 -37.578125 17.828125 -37.578125 L 2.1875 -37.578125 L 2.1875 -50.84375 L 23.625 -50.84375 C 26.257812 -50.84375 28.421875 -50 30.109375 -48.3125 C 31.765625 -46.65625 32.59375 -44.492188 32.59375 -41.828125 Z M 14.609375 0 L 2.234375 0 L 2.234375 -31.515625 L 14.609375 -31.515625 Z M 14.609375 0 "/></g></g></g><g fill="#cf4545" fill-opacity="1"><g transform="translate(634.250378, 293.965486)"><g/></g></g><g fill="#cf4545" fill-opacity="1"><g transform="translate(653.704939, 293.965486)"><g><path d="M 35.171875 0 L 22.765625 0 L 22.765625 -35.171875 C 22.765625 -36.773438 22.035156 -37.578125 20.578125 -37.578125 L 18.890625 -37.578125 C 17.398438 -37.578125 16.65625 -36.773438 16.65625 -35.171875 L 16.65625 -6.09375 C 16.65625 -2.03125 14.953125 0 11.546875 0 L 0.859375 0 L 0.859375 -13.265625 L 3 -13.265625 C 3.71875 -13.265625 4.078125 -13.582031 4.078125 -14.21875 L 4.078125 -41.09375 C 4.078125 -44.5625 4.75 -47.054688 6.09375 -48.578125 C 7.4375 -50.085938 9.816406 -50.84375 13.234375 -50.84375 L 26.625 -50.84375 C 32.320312 -50.84375 35.171875 -47.59375 35.171875 -41.09375 Z M 35.171875 0 "/></g></g></g><g fill="#cf4545" fill-opacity="1"><g transform="translate(691.110989, 293.965486)"><g><path d="M 14.609375 0 L 2.1875 0 L 2.1875 -50.84375 L 14.609375 -50.84375 Z M 14.609375 0 "/></g></g></g><g fill="#cf4545" fill-opacity="1"><g transform="translate(707.902883, 293.965486)"><g><path d="M 14.4375 -28.296875 L 2.109375 -28.296875 L 2.109375 -50.84375 L 14.4375 -50.84375 Z M 14.4375 -28.296875 "/></g></g></g><g fill="#cf4545" fill-opacity="1"><g transform="translate(724.523015, 293.965486)"><g><path d="M 27.234375 0 L 14.640625 0 L 14.640625 -35.46875 C 14.640625 -36.875 13.910156 -37.578125 12.453125 -37.578125 L 1.328125 -37.578125 L 1.328125 -50.84375 L 18.25 -50.84375 C 20.882812 -50.84375 23.046875 -50 24.734375 -48.3125 C 26.398438 -46.65625 27.234375 -44.492188 27.234375 -41.828125 Z M 27.234375 0 "/></g></g></g><g fill="#cf4545" fill-opacity="1"><g transform="translate(753.941063, 293.965486)"><g><path d="M 33.15625 0 L 20.703125 0 L 20.703125 -35.171875 C 20.703125 -36.773438 19.972656 -37.578125 18.515625 -37.578125 L 17 -37.578125 C 15.539062 -37.578125 14.8125 -36.773438 14.8125 -35.171875 L 14.8125 0 L 2.1875 0 L 2.1875 -41.953125 C 2.1875 -45.128906 2.71875 -47.347656 3.78125 -48.609375 C 4.976562 -50.097656 7.125 -50.84375 10.21875 -50.84375 L 24.5625 -50.84375 C 30.289062 -50.84375 33.15625 -47.878906 33.15625 -41.953125 Z M 33.15625 0 "/></g></g></g><g fill="#cf4545" fill-opacity="1"><g transform="translate(789.285657, 293.965486)"><g><path d="M 23.015625 0 C 22.640625 -2 21.828125 -4.640625 20.578125 -7.921875 C 19.335938 -11.203125 17.644531 -15.160156 15.5 -19.796875 C 15.269531 -19.535156 15.097656 -19.332031 14.984375 -19.1875 C 14.867188 -19.050781 14.796875 -18.96875 14.765625 -18.9375 C 14.742188 -18.820312 14.722656 -18.570312 14.703125 -18.1875 C 14.691406 -17.800781 14.6875 -17.265625 14.6875 -16.578125 L 14.6875 0 L 2.28125 0 L 2.28125 -15.203125 C 2.28125 -23.242188 4.753906 -28.453125 9.703125 -30.828125 C 4.953125 -40.160156 2.304688 -46.832031 1.765625 -50.84375 L 14.6875 -50.84375 C 15.3125 -47.976562 16.25 -44.957031 17.5 -41.78125 C 18.75 -38.601562 20.316406 -35.226562 22.203125 -31.65625 C 22.921875 -32.164062 23.28125 -33.222656 23.28125 -34.828125 L 23.28125 -50.84375 L 35.8125 -50.84375 L 35.8125 -33.625 C 35.8125 -31.050781 35.023438 -28.546875 33.453125 -26.109375 C 31.878906 -23.703125 29.929688 -21.867188 27.609375 -20.609375 C 32.960938 -9.960938 35.695312 -3.09375 35.8125 0 Z M 23.015625 0 "/></g></g></g><g fill="#cf4545" fill-opacity="1"><g transform="translate(826.863469, 293.965486)"><g><path d="M 32.59375 0 L 19.96875 0 L 19.96875 -35.46875 C 19.96875 -36.875 19.253906 -37.578125 17.828125 -37.578125 L 2.1875 -37.578125 L 2.1875 -50.84375 L 23.625 -50.84375 C 26.257812 -50.84375 28.421875 -50 30.109375 -48.3125 C 31.765625 -46.65625 32.59375 -44.492188 32.59375 -41.828125 Z M 14.609375 0 L 2.234375 0 L 2.234375 -31.515625 L 14.609375 -31.515625 Z M 14.609375 0 "/></g></g></g><g fill="#cf4545" fill-opacity="1"><g transform="translate(861.649815, 293.965486)"><g/></g></g><g fill="#cf4545" fill-opacity="1"><g transform="translate(881.104422, 293.965486)"><g><path d="M 35.171875 0 L 22.765625 0 L 22.765625 -35.171875 C 22.765625 -36.773438 22.035156 -37.578125 20.578125 -37.578125 L 18.890625 -37.578125 C 17.398438 -37.578125 16.65625 -36.773438 16.65625 -35.171875 L 16.65625 -6.09375 C 16.65625 -2.03125 14.953125 0 11.546875 0 L 0.859375 0 L 0.859375 -13.265625 L 3 -13.265625 C 3.71875 -13.265625 4.078125 -13.582031 4.078125 -14.21875 L 4.078125 -41.09375 C 4.078125 -44.5625 4.75 -47.054688 6.09375 -48.578125 C 7.4375 -50.085938 9.816406 -50.84375 13.234375 -50.84375 L 26.625 -50.84375 C 32.320312 -50.84375 35.171875 -47.59375 35.171875 -41.09375 Z M 35.171875 0 "/></g></g></g><g fill="#cf4545" fill-opacity="1"><g transform="translate(918.510427, 293.965486)"><g><path d="M 30.359375 -18.375 C 30.359375 -6.125 24.488281 0 12.75 0 L 7.390625 0 L 7.390625 -13.265625 L 11 -13.265625 C 13.769531 -13.265625 15.65625 -14.15625 16.65625 -15.9375 C 17.375 -17.195312 17.734375 -19.382812 17.734375 -22.5 L 17.734375 -35.46875 C 17.734375 -36.875 17.019531 -37.578125 15.59375 -37.578125 L 2.1875 -37.578125 L 2.1875 -57.15625 L 14.640625 -57.15625 L 14.640625 -50.84375 L 24 -50.84375 C 28.238281 -50.84375 30.359375 -48.796875 30.359375 -44.703125 Z M 30.359375 -18.375 "/></g></g></g><g fill="#cf4545" fill-opacity="1"><g transform="translate(951.063555, 293.965486)"><g><path d="M 34.359375 -9.796875 C 34.359375 -3.265625 31.664062 0 26.28125 0 L 10.265625 0 C 7.546875 0 5.484375 -0.988281 4.078125 -2.96875 C 2.816406 -4.738281 2.1875 -7.015625 2.1875 -9.796875 L 2.1875 -50.84375 L 14.5625 -50.84375 L 14.5625 -34.828125 L 17 -43.5 C 18.375 -48.394531 20.878906 -50.84375 24.515625 -50.84375 L 27.0625 -50.84375 C 31.925781 -50.84375 34.359375 -48.195312 34.359375 -42.90625 Z M 22.03125 -36.421875 C 22.03125 -36.960938 21.914062 -37.234375 21.6875 -37.234375 C 21.519531 -37.234375 21.378906 -37.003906 21.265625 -36.546875 L 19.453125 -29.796875 L 14.5625 -29.796875 L 14.5625 -15.59375 C 14.5625 -14.039062 15.191406 -13.265625 16.453125 -13.265625 L 20.09375 -13.265625 C 21.382812 -13.265625 22.03125 -14.039062 22.03125 -15.59375 Z M 22.03125 -36.421875 "/></g></g></g><g fill="#cf4545" fill-opacity="1"><g transform="translate(987.610661, 293.965486)"><g><path d="M 32.59375 0 L 19.96875 0 L 19.96875 -35.46875 C 19.96875 -36.875 19.253906 -37.578125 17.828125 -37.578125 L 2.1875 -37.578125 L 2.1875 -50.84375 L 23.625 -50.84375 C 26.257812 -50.84375 28.421875 -50 30.109375 -48.3125 C 31.765625 -46.65625 32.59375 -44.492188 32.59375 -41.828125 Z M 14.609375 0 L 2.234375 0 L 2.234375 -31.515625 L 14.609375 -31.515625 Z M 14.609375 0 "/></g></g></g><g fill="#cf4545" fill-opacity="1"><g transform="translate(203.68981, 386.170874)"><g><path d="M 14.609375 7.296875 L 2.1875 7.296875 L 2.1875 -50.84375 L 14.609375 -50.84375 Z M 14.609375 7.296875 "/></g></g></g><g fill="#cf4545" fill-opacity="1"><g transform="translate(220.481727, 386.170874)"><g><path d="M 14.609375 0 L 2.1875 0 L 2.1875 -50.84375 L 14.609375 -50.84375 Z M 14.609375 0 "/></g></g></g><g fill="#cf4545" fill-opacity="1"><g transform="translate(237.273644, 386.170874)"><g><path d="M 33.15625 0 L 20.703125 0 L 20.703125 -35.171875 C 20.703125 -36.773438 19.972656 -37.578125 18.515625 -37.578125 L 17 -37.578125 C 15.539062 -37.578125 14.8125 -36.773438 14.8125 -35.171875 L 14.8125 0 L 2.1875 0 L 2.1875 -41.953125 C 2.1875 -45.128906 2.71875 -47.347656 3.78125 -48.609375 C 4.976562 -50.097656 7.125 -50.84375 10.21875 -50.84375 L 24.5625 -50.84375 C 30.289062 -50.84375 33.15625 -47.878906 33.15625 -41.953125 Z M 33.15625 0 "/></g></g></g><g fill="#cf4545" fill-opacity="1"><g transform="translate(272.61826, 386.170874)"><g><path d="M 34.359375 -9.796875 C 34.359375 -3.265625 31.664062 0 26.28125 0 L 10.265625 0 C 7.546875 0 5.484375 -0.988281 4.078125 -2.96875 C 2.816406 -4.738281 2.1875 -7.015625 2.1875 -9.796875 L 2.1875 -50.84375 L 14.5625 -50.84375 L 14.5625 -34.828125 L 17 -43.5 C 18.375 -48.394531 20.878906 -50.84375 24.515625 -50.84375 L 27.0625 -50.84375 C 31.925781 -50.84375 34.359375 -48.195312 34.359375 -42.90625 Z M 22.03125 -36.421875 C 22.03125 -36.960938 21.914062 -37.234375 21.6875 -37.234375 C 21.519531 -37.234375 21.378906 -37.003906 21.265625 -36.546875 L 19.453125 -29.796875 L 14.5625 -29.796875 L 14.5625 -15.59375 C 14.5625 -14.039062 15.191406 -13.265625 16.453125 -13.265625 L 20.09375 -13.265625 C 21.382812 -13.265625 22.03125 -14.039062 22.03125 -15.59375 Z M 22.03125 -36.421875 "/></g></g></g><g fill="#cf4545" fill-opacity="1"><g transform="translate(309.165366, 386.170874)"><g><path d="M 14.4375 -28.296875 L 2.109375 -28.296875 L 2.109375 -50.84375 L 14.4375 -50.84375 Z M 14.4375 -28.296875 "/></g></g></g><g fill="#cf4545" fill-opacity="1"><g transform="translate(325.785498, 386.170874)"><g><path d="M 31.21875 0 L 2.1875 0 L 2.1875 -13.265625 L 11.859375 -13.265625 C 14.691406 -13.265625 16.109375 -14.941406 16.109375 -18.296875 L 16.109375 -33.546875 C 16.109375 -35.035156 15.847656 -36.078125 15.328125 -36.671875 C 14.816406 -37.273438 13.832031 -37.578125 12.375 -37.578125 L 2.1875 -37.578125 L 2.1875 -50.84375 L 18.890625 -50.84375 C 25.453125 -50.84375 28.734375 -46.960938 28.734375 -39.203125 L 28.734375 -21.8125 C 28.734375 -17.320312 27.054688 -14.472656 23.703125 -13.265625 L 31.21875 -13.265625 Z M 31.21875 0 "/></g></g></g><g fill="#cf4545" fill-opacity="1"><g transform="translate(358.768076, 386.170874)"><g><path d="M 32.59375 0 L 19.96875 0 L 19.96875 -35.46875 C 19.96875 -36.875 19.253906 -37.578125 17.828125 -37.578125 L 2.1875 -37.578125 L 2.1875 -50.84375 L 23.625 -50.84375 C 26.257812 -50.84375 28.421875 -50 30.109375 -48.3125 C 31.765625 -46.65625 32.59375 -44.492188 32.59375 -41.828125 Z M 14.609375 0 L 2.234375 0 L 2.234375 -31.515625 L 14.609375 -31.515625 Z M 14.609375 0 "/></g></g></g><g fill="#cf4545" fill-opacity="1"><g transform="translate(393.554387, 386.170874)"><g/></g></g><g fill="#cf4545" fill-opacity="1"><g transform="translate(413.00896, 386.170874)"><g><path d="M 27.234375 0 L 14.640625 0 L 14.640625 -35.46875 C 14.640625 -36.875 13.910156 -37.578125 12.453125 -37.578125 L 1.328125 -37.578125 L 1.328125 -50.84375 L 18.25 -50.84375 C 20.882812 -50.84375 23.046875 -50 24.734375 -48.3125 C 26.398438 -46.65625 27.234375 -44.492188 27.234375 -41.828125 Z M 27.234375 0 "/></g></g></g><g fill="#cf4545" fill-opacity="1"><g transform="translate(442.427009, 386.170874)"><g><path d="M 14.171875 -36.421875 L 16.109375 -36.421875 C 17.503906 -36.421875 18.203125 -37.175781 18.203125 -38.6875 L 18.203125 -50.84375 L 29.671875 -50.84375 L 29.671875 -36.59375 C 29.671875 -30.664062 27.109375 -27.703125 21.984375 -27.703125 L 14.171875 -27.703125 L 14.171875 -15.59375 C 14.171875 -14.039062 14.816406 -13.265625 16.109375 -13.265625 L 31.78125 -13.265625 C 33.039062 -13.265625 33.671875 -14.039062 33.671875 -15.59375 L 33.671875 -50.84375 L 45.6875 -50.84375 L 45.6875 -11.546875 C 45.6875 -8.054688 44.785156 -5.28125 42.984375 -3.21875 C 41.097656 -1.070312 38.421875 0 34.953125 0 L 12.921875 0 C 5.765625 0 2.1875 -3.847656 2.1875 -11.546875 L 2.1875 -50.84375 L 14.171875 -50.84375 Z M 14.171875 -36.421875 "/></g></g></g><g fill="#cf4545" fill-opacity="1"><g transform="translate(490.311875, 386.170874)"><g/></g></g><g fill="#cf4545" fill-opacity="1"><g transform="translate(509.766436, 386.170874)"><g><path d="M 30.359375 -18.375 C 30.359375 -6.125 24.488281 0 12.75 0 L 7.390625 0 L 7.390625 -13.265625 L 11 -13.265625 C 13.769531 -13.265625 15.65625 -14.15625 16.65625 -15.9375 C 17.375 -17.195312 17.734375 -19.382812 17.734375 -22.5 L 17.734375 -35.46875 C 17.734375 -36.875 17.019531 -37.578125 15.59375 -37.578125 L 2.1875 -37.578125 L 2.1875 -57.15625 L 14.640625 -57.15625 L 14.640625 -50.84375 L 24 -50.84375 C 28.238281 -50.84375 30.359375 -48.796875 30.359375 -44.703125 Z M 30.359375 -18.375 "/></g></g></g><g fill="#cf4545" fill-opacity="1"><g transform="translate(542.319564, 386.170874)"><g><path d="M 33.671875 -13.40625 C 33.671875 -4.46875 30.003906 0 22.671875 0 L 1.328125 0 L 1.328125 -13.265625 L 4.34375 -13.265625 L 4.34375 -50.84375 L 16.75 -50.84375 L 16.75 -13.265625 L 19.234375 -13.265625 C 20.671875 -13.265625 21.390625 -14.253906 21.390625 -16.234375 L 21.390625 -50.84375 L 33.671875 -50.84375 Z M 33.671875 -13.40625 "/></g></g></g><g fill="#cf4545" fill-opacity="1"><g transform="translate(578.179534, 386.170874)"><g/></g></g><g fill="#cf4545" fill-opacity="1"><g transform="translate(597.634095, 386.170874)"><g><path d="M 34.015625 0 L 2.1875 0 L 2.1875 -41.953125 C 2.1875 -45.128906 2.71875 -47.347656 3.78125 -48.609375 C 4.976562 -50.097656 7.125 -50.84375 10.21875 -50.84375 L 25.421875 -50.84375 C 31.148438 -50.84375 34.015625 -47.878906 34.015625 -41.953125 Z M 21.609375 -35.171875 C 21.609375 -36.773438 20.875 -37.578125 19.40625 -37.578125 L 17 -37.578125 C 15.539062 -37.578125 14.8125 -36.773438 14.8125 -35.171875 L 14.8125 -13.265625 L 21.609375 -13.265625 Z M 21.609375 -35.171875 "/></g></g></g><g fill="#cf4545" fill-opacity="1"><g transform="translate(633.837633, 386.170874)"><g><path d="M 14.609375 0 L 2.1875 0 L 2.1875 -50.84375 L 14.609375 -50.84375 Z M 14.609375 0 "/></g></g></g><g fill="#cf4545" fill-opacity="1"><g transform="translate(650.629572, 386.170874)"><g><path d="M 27.234375 0 L 14.640625 0 L 14.640625 -35.46875 C 14.640625 -36.875 13.910156 -37.578125 12.453125 -37.578125 L 1.328125 -37.578125 L 1.328125 -50.84375 L 18.25 -50.84375 C 20.882812 -50.84375 23.046875 -50 24.734375 -48.3125 C 26.398438 -46.65625 27.234375 -44.492188 27.234375 -41.828125 Z M 27.234375 0 "/></g></g></g><g fill="#cf4545" fill-opacity="1"><g transform="translate(680.04762, 386.170874)"><g><path d="M 14.4375 -28.296875 L 2.109375 -28.296875 L 2.109375 -50.84375 L 14.4375 -50.84375 Z M 14.4375 -28.296875 "/></g></g></g><g fill="#cf4545" fill-opacity="1"><g transform="translate(696.667752, 386.170874)"><g><path d="M 33.15625 0 L 20.703125 0 L 20.703125 -35.171875 C 20.703125 -36.773438 19.972656 -37.578125 18.515625 -37.578125 L 17 -37.578125 C 15.539062 -37.578125 14.8125 -36.773438 14.8125 -35.171875 L 14.8125 0 L 2.1875 0 L 2.1875 -41.953125 C 2.1875 -45.128906 2.71875 -47.347656 3.78125 -48.609375 C 4.976562 -50.097656 7.125 -50.84375 10.21875 -50.84375 L 24.5625 -50.84375 C 30.289062 -50.84375 33.15625 -47.878906 33.15625 -41.953125 Z M 33.15625 0 "/></g></g></g><g fill="#cf4545" fill-opacity="1"><g transform="translate(732.012346, 386.170874)"><g/></g></g><g fill="#cf4545" fill-opacity="1"><g transform="translate(751.466907, 386.170874)"><g><path d="M 14.4375 -28.296875 L 2.109375 -28.296875 L 2.109375 -50.84375 L 14.4375 -50.84375 Z M 14.4375 -28.296875 "/></g></g></g><g fill="#cf4545" fill-opacity="1"><g transform="translate(768.087039, 386.170874)"><g><path d="M 31.21875 0 L 2.1875 0 L 2.1875 -13.265625 L 11.859375 -13.265625 C 14.691406 -13.265625 16.109375 -14.941406 16.109375 -18.296875 L 16.109375 -33.546875 C 16.109375 -35.035156 15.847656 -36.078125 15.328125 -36.671875 C 14.816406 -37.273438 13.832031 -37.578125 12.375 -37.578125 L 2.1875 -37.578125 L 2.1875 -50.84375 L 18.890625 -50.84375 C 25.453125 -50.84375 28.734375 -46.960938 28.734375 -39.203125 L 28.734375 -21.8125 C 28.734375 -17.320312 27.054688 -14.472656 23.703125 -13.265625 L 31.21875 -13.265625 Z M 31.21875 0 "/></g></g></g><g fill="#cf4545" fill-opacity="1"><g transform="translate(801.069616, 386.170874)"><g><path d="M 2.453125 0 L 2.453125 -13.265625 L 16.96875 -13.3125 L 8.84375 -29.71875 C 4.0625 -39.394531 1.34375 -46.4375 0.6875 -50.84375 L 13.875 -50.84375 C 15.613281 -43.75 18.0625 -37.46875 21.21875 -32 C 21.707031 -32.3125 22.003906 -32.894531 22.109375 -33.75 C 22.203125 -34.300781 22.25 -34.945312 22.25 -35.6875 L 22.25 -50.84375 L 34.75 -50.84375 L 34.75 -33.625 C 34.75 -31.019531 33.957031 -28.53125 32.375 -26.15625 C 30.832031 -23.832031 28.898438 -22.054688 26.578125 -20.828125 C 31.992188 -10.066406 34.71875 -3.125 34.75 0 Z M 2.453125 0 "/></g></g></g><g fill="#cf4545" fill-opacity="1"><g transform="translate(838.003209, 386.170874)"><g><path d="M 35.953125 -9.140625 C 35.953125 -3.046875 33.1875 0 27.65625 0 L 18.890625 0 L 18.890625 -13.3125 L 21.515625 -13.3125 C 22.804688 -13.3125 23.453125 -14.082031 23.453125 -15.625 L 23.453125 -35 C 23.453125 -36.539062 23.0625 -37.3125 22.28125 -37.3125 C 21.507812 -37.3125 20.984375 -36.441406 20.703125 -34.703125 L 14.46875 0 L 2.1875 0 L 7.421875 -28.390625 L 4.984375 -28.390625 C 3.066406 -28.390625 2.109375 -29.332031 2.109375 -31.21875 L 2.109375 -50.84375 L 14.5625 -50.84375 L 14.5625 -32.890625 L 17.046875 -42.734375 C 18.421875 -48.140625 21.382812 -50.84375 25.9375 -50.84375 L 26.578125 -50.84375 C 32.828125 -50.84375 35.953125 -47.035156 35.953125 -39.421875 Z M 35.953125 -9.140625 "/></g></g></g><g fill="#cf4545" fill-opacity="1"><g transform="translate(876.139314, 386.170874)"><g><path d="M 31.21875 0 L 2.1875 0 L 2.1875 -13.265625 L 11.859375 -13.265625 C 14.691406 -13.265625 16.109375 -14.941406 16.109375 -18.296875 L 16.109375 -33.546875 C 16.109375 -35.035156 15.847656 -36.078125 15.328125 -36.671875 C 14.816406 -37.273438 13.832031 -37.578125 12.375 -37.578125 L 2.1875 -37.578125 L 2.1875 -50.84375 L 18.890625 -50.84375 C 25.453125 -50.84375 28.734375 -46.960938 28.734375 -39.203125 L 28.734375 -21.8125 C 28.734375 -17.320312 27.054688 -14.472656 23.703125 -13.265625 L 31.21875 -13.265625 Z M 31.21875 0 "/></g></g></g></svg>