<svg xmlns="http://www.w3.org/2000/svg" xmlns:xlink="http://www.w3.org/1999/xlink" width="1486" zoomAndPan="magnify" viewBox="0 0 1114.5 516.750002" height="689" preserveAspectRatio="xMidYMid meet" version="1.0"><defs><g/><clipPath id="2a45889b26"><path d="M 0.0195312 0 L 1113.980469 0 L 1113.980469 516.332031 L 0.0195312 516.332031 Z M 0.0195312 0 " clip-rule="nonzero"/></clipPath><clipPath id="111f88bd08"><path d="M 38.25 0 L 1075.71875 0 C 1085.859375 0 1095.582031 4.027344 1102.753906 11.199219 C 1109.921875 18.367188 1113.949219 28.09375 1113.949219 38.230469 L 1113.949219 478.101562 C 1113.949219 488.242188 1109.921875 497.964844 1102.753906 505.136719 C 1095.582031 512.304688 1085.859375 516.332031 1075.71875 516.332031 L 38.25 516.332031 C 28.113281 516.332031 18.386719 512.304688 11.21875 505.136719 C 4.046875 497.964844 0.0195312 488.242188 0.0195312 478.101562 L 0.0195312 38.230469 C 0.0195312 28.09375 4.046875 18.367188 11.21875 11.199219 C 18.386719 4.027344 28.113281 0 38.25 0 Z M 38.25 0 " clip-rule="nonzero"/></clipPath><clipPath id="5e49f43c93"><path d="M 0.0273438 0 L 1113.980469 0 L 1113.980469 516.5 L 0.0273438 516.5 Z M 0.0273438 0 " clip-rule="nonzero"/></clipPath><clipPath id="2df0a87607"><path d="M 38.257812 0 L 1075.707031 0 C 1085.847656 0 1095.570312 4.027344 1102.742188 11.199219 C 1109.910156 18.367188 1113.941406 28.089844 1113.941406 38.230469 L 1113.941406 478.09375 C 1113.941406 488.234375 1109.910156 497.957031 1102.742188 505.125 C 1095.570312 512.296875 1085.847656 516.324219 1075.707031 516.324219 L 38.257812 516.324219 C 28.117188 516.324219 18.394531 512.296875 11.222656 505.125 C 4.054688 497.957031 0.0273438 488.234375 0.0273438 478.09375 L 0.0273438 38.230469 C 0.0273438 28.089844 4.054688 18.367188 11.222656 11.199219 C 18.394531 4.027344 28.117188 0 38.257812 0 Z M 38.257812 0 " clip-rule="nonzero"/></clipPath></defs><g clip-path="url(#2a45889b26)"><g clip-path="url(#111f88bd08)"><path fill="#ffcf7e" d="M 0.0195312 0 L 1113.363281 0 L 1113.363281 516.332031 L 0.0195312 516.332031 Z M 0.0195312 0 " fill-opacity="1" fill-rule="nonzero"/></g></g><g clip-path="url(#5e49f43c93)"><g clip-path="url(#2df0a87607)"><path stroke-linecap="butt" transform="matrix(0.749637, 0, 0, 0.749637, 0.0256264, 0.0000199903)" fill="none" stroke-linejoin="miter" d="M 51.000909 -0.0000266667 L 1434.935712 -0.0000266667 C 1448.463086 -0.0000266667 1461.43811 5.372363 1471.000025 14.939489 C 1480.56194 24.501404 1485.93954 37.471217 1485.93954 50.998591 L 1485.93954 637.766688 C 1485.93954 651.294062 1480.56194 664.263875 1471.000025 673.82579 C 1461.43811 683.392916 1448.463086 688.765306 1434.935712 688.765306 L 51.000909 688.765306 C 37.473534 688.765306 24.503721 683.392916 14.936595 673.82579 C 5.37468 664.263875 0.00229086 651.294062 0.00229086 637.766688 L 0.00229086 50.998591 C 0.00229086 37.471217 5.37468 24.501404 14.936595 14.939489 C 24.503721 5.372363 37.473534 -0.0000266667 51.000909 -0.0000266667 Z M 51.000909 -0.0000266667 " stroke="#cf4545" stroke-width="40" stroke-opacity="1" stroke-miterlimit="4"/></g></g><g fill="#cf4545" fill-opacity="1"><g transform="translate(955.16379, 84.723757)"><g><path d="M 10.921875 -20.5625 L 1.4375 -20.5625 L 1.4375 -30.8125 L 10.921875 -30.8125 Z M 10.921875 0 L 1.4375 0 L 1.4375 -10.296875 L 10.921875 -10.296875 Z M 10.921875 0 "/></g></g></g><g fill="#cf4545" fill-opacity="1"><g transform="translate(967.392249, 84.723757)"><g><path d="M 21.890625 0 L 11.671875 0 L 11.671875 -30.71875 L 4.75 -30.71875 L 4.75 -41.609375 L 13.953125 -41.609375 C 19.242188 -41.609375 21.890625 -38.9375 21.890625 -33.59375 Z M 21.890625 0 "/></g></g><g transform="translate(995.468509, 84.723757)"><g><path d="M 25.96875 -7.984375 C 25.96875 -2.660156 23.539062 0 18.6875 0 L 3.578125 0 L 3.578125 -10.859375 L 15.84375 -10.859375 L 15.84375 -15.78125 L 9.421875 -15.78125 C 4.566406 -15.78125 2.140625 -18.4375 2.140625 -23.75 L 2.140625 -33.59375 C 2.140625 -38.9375 4.832031 -41.609375 10.21875 -41.609375 L 17.921875 -41.609375 C 20.359375 -41.609375 22.300781 -40.878906 23.75 -39.421875 C 25.226562 -37.972656 25.96875 -36.03125 25.96875 -33.59375 Z M 15.84375 -25.203125 L 15.84375 -30.71875 L 12.296875 -30.71875 L 12.296875 -25.203125 Z M 15.84375 -25.203125 "/></g></g><g transform="translate(1023.544768, 84.723757)"><g><path d="M 25.484375 -7.984375 C 25.484375 -2.660156 22.800781 0 17.4375 0 L 2.671875 0 L 3.4375 -10.859375 L 15.328125 -10.859375 L 15.328125 -14.96875 L 4.25 -14.96875 L 7.0625 -41.609375 L 25.484375 -41.609375 L 24.671875 -30.71875 L 16.40625 -30.71875 L 15.609375 -25.828125 L 17.859375 -25.828125 C 22.941406 -25.828125 25.484375 -23.285156 25.484375 -18.203125 Z M 25.484375 -7.984375 "/></g></g><g transform="translate(1051.621028, 84.723757)"><g><path d="M 21.890625 0 L 11.671875 0 L 11.671875 -30.71875 L 4.75 -30.71875 L 4.75 -41.609375 L 13.953125 -41.609375 C 19.242188 -41.609375 21.890625 -38.9375 21.890625 -33.59375 Z M 21.890625 0 "/></g></g></g><g fill="#cf4545" fill-opacity="1"><g transform="translate(153.459988, 184.831018)"><g><path d="M 35.171875 0 L 22.765625 0 L 22.765625 -35.171875 C 22.765625 -36.773438 22.035156 -37.578125 20.578125 -37.578125 L 18.890625 -37.578125 C 17.398438 -37.578125 16.65625 -36.773438 16.65625 -35.171875 L 16.65625 -6.09375 C 16.65625 -2.03125 14.953125 0 11.546875 0 L 0.859375 0 L 0.859375 -13.265625 L 3 -13.265625 C 3.71875 -13.265625 4.078125 -13.582031 4.078125 -14.21875 L 4.078125 -41.09375 C 4.078125 -44.5625 4.75 -47.054688 6.09375 -48.578125 C 7.4375 -50.085938 9.816406 -50.84375 13.234375 -50.84375 L 26.625 -50.84375 C 32.320312 -50.84375 35.171875 -47.59375 35.171875 -41.09375 Z M 35.171875 0 "/></g></g></g><g fill="#cf4545" fill-opacity="1"><g transform="translate(190.866015, 184.831018)"><g><path d="M 14.4375 -28.296875 L 2.109375 -28.296875 L 2.109375 -50.84375 L 14.4375 -50.84375 Z M 14.4375 -28.296875 "/></g></g></g><g fill="#cf4545" fill-opacity="1"><g transform="translate(207.486147, 184.831018)"><g><path d="M 33.15625 0 L 20.703125 0 L 20.703125 -35.171875 C 20.703125 -36.773438 19.972656 -37.578125 18.515625 -37.578125 L 17 -37.578125 C 15.539062 -37.578125 14.8125 -36.773438 14.8125 -35.171875 L 14.8125 0 L 2.1875 0 L 2.1875 -41.953125 C 2.1875 -45.128906 2.71875 -47.347656 3.78125 -48.609375 C 4.976562 -50.097656 7.125 -50.84375 10.21875 -50.84375 L 24.5625 -50.84375 C 30.289062 -50.84375 33.15625 -47.878906 33.15625 -41.953125 Z M 33.15625 0 "/></g></g></g><g fill="#cf4545" fill-opacity="1"><g transform="translate(242.830763, 184.831018)"><g><path d="M 27.234375 0 L 14.640625 0 L 14.640625 -35.46875 C 14.640625 -36.875 13.910156 -37.578125 12.453125 -37.578125 L 1.328125 -37.578125 L 1.328125 -50.84375 L 18.25 -50.84375 C 20.882812 -50.84375 23.046875 -50 24.734375 -48.3125 C 26.398438 -46.65625 27.234375 -44.492188 27.234375 -41.828125 Z M 27.234375 0 "/></g></g></g><g fill="#cf4545" fill-opacity="1"><g transform="translate(272.248823, 184.831018)"><g><path d="M 19.0625 -37.578125 L 18.890625 -37.578125 C 16.921875 -37.578125 15.9375 -36.160156 15.9375 -33.328125 L 15.9375 0 L 3.609375 0 L 3.609375 -30.828125 C 3.609375 -34.523438 4.78125 -36.773438 7.125 -37.578125 L 1.765625 -37.578125 L 1.765625 -50.84375 L 19.0625 -50.84375 Z M 19.0625 -37.578125 "/></g></g></g><g fill="#cf4545" fill-opacity="1"><g transform="translate(293.07767, 184.831018)"><g><path d="M 23.015625 0 C 22.640625 -2 21.828125 -4.640625 20.578125 -7.921875 C 19.335938 -11.203125 17.644531 -15.160156 15.5 -19.796875 C 15.269531 -19.535156 15.097656 -19.332031 14.984375 -19.1875 C 14.867188 -19.050781 14.796875 -18.96875 14.765625 -18.9375 C 14.742188 -18.820312 14.722656 -18.570312 14.703125 -18.1875 C 14.691406 -17.800781 14.6875 -17.265625 14.6875 -16.578125 L 14.6875 0 L 2.28125 0 L 2.28125 -15.203125 C 2.28125 -23.242188 4.753906 -28.453125 9.703125 -30.828125 C 4.953125 -40.160156 2.304688 -46.832031 1.765625 -50.84375 L 14.6875 -50.84375 C 15.3125 -47.976562 16.25 -44.957031 17.5 -41.78125 C 18.75 -38.601562 20.316406 -35.226562 22.203125 -31.65625 C 22.921875 -32.164062 23.28125 -33.222656 23.28125 -34.828125 L 23.28125 -50.84375 L 35.8125 -50.84375 L 35.8125 -33.625 C 35.8125 -31.050781 35.023438 -28.546875 33.453125 -26.109375 C 31.878906 -23.703125 29.929688 -21.867188 27.609375 -20.609375 C 32.960938 -9.960938 35.695312 -3.09375 35.8125 0 Z M 23.015625 0 "/></g></g></g><g fill="#cf4545" fill-opacity="1"><g transform="translate(330.655482, 184.831018)"><g><path d="M 32.59375 0 L 19.96875 0 L 19.96875 -35.46875 C 19.96875 -36.875 19.253906 -37.578125 17.828125 -37.578125 L 2.1875 -37.578125 L 2.1875 -50.84375 L 23.625 -50.84375 C 26.257812 -50.84375 28.421875 -50 30.109375 -48.3125 C 31.765625 -46.65625 32.59375 -44.492188 32.59375 -41.828125 Z M 14.609375 0 L 2.234375 0 L 2.234375 -31.515625 L 14.609375 -31.515625 Z M 14.609375 0 "/></g></g></g><g fill="#cf4545" fill-opacity="1"><g transform="translate(365.441805, 184.831018)"><g/></g></g><g fill="#cf4545" fill-opacity="1"><g transform="translate(384.896366, 184.831018)"><g><path d="M 35.171875 0 L 22.765625 0 L 22.765625 -35.171875 C 22.765625 -36.773438 22.035156 -37.578125 20.578125 -37.578125 L 18.890625 -37.578125 C 17.398438 -37.578125 16.65625 -36.773438 16.65625 -35.171875 L 16.65625 -6.09375 C 16.65625 -2.03125 14.953125 0 11.546875 0 L 0.859375 0 L 0.859375 -13.265625 L 3 -13.265625 C 3.71875 -13.265625 4.078125 -13.582031 4.078125 -14.21875 L 4.078125 -41.09375 C 4.078125 -44.5625 4.75 -47.054688 6.09375 -48.578125 C 7.4375 -50.085938 9.816406 -50.84375 13.234375 -50.84375 L 26.625 -50.84375 C 32.320312 -50.84375 35.171875 -47.59375 35.171875 -41.09375 Z M 35.171875 0 "/></g></g></g><g fill="#cf4545" fill-opacity="1"><g transform="translate(422.302393, 184.831018)"><g><path d="M 14.609375 0 L 2.1875 0 L 2.1875 -50.84375 L 14.609375 -50.84375 Z M 14.609375 0 "/></g></g></g><g fill="#cf4545" fill-opacity="1"><g transform="translate(439.09431, 184.831018)"><g><path d="M 24.65625 -7.984375 C 24.65625 -2.660156 22.132812 0 17.09375 0 L 1.765625 0 L 1.765625 -13.265625 L 10.5625 -13.265625 C 11.59375 -13.265625 12.109375 -13.894531 12.109375 -15.15625 L 12.109375 -35.46875 C 12.109375 -36.875 11.476562 -37.578125 10.21875 -37.578125 L 5.40625 -37.578125 L 5.40625 -50.84375 L 16.875 -50.84375 C 22.0625 -50.84375 24.65625 -48.164062 24.65625 -42.8125 Z M 24.65625 -7.984375 "/></g></g></g><g fill="#cf4545" fill-opacity="1"><g transform="translate(465.935617, 184.831018)"><g><path d="M 24.65625 -7.984375 C 24.65625 -2.660156 22.132812 0 17.09375 0 L 1.765625 0 L 1.765625 -13.265625 L 10.5625 -13.265625 C 11.59375 -13.265625 12.109375 -13.894531 12.109375 -15.15625 L 12.109375 -35.46875 C 12.109375 -36.875 11.476562 -37.578125 10.21875 -37.578125 L 5.40625 -37.578125 L 5.40625 -50.84375 L 16.875 -50.84375 C 22.0625 -50.84375 24.65625 -48.164062 24.65625 -42.8125 Z M 24.65625 -7.984375 "/></g></g></g><g fill="#cf4545" fill-opacity="1"><g transform="translate(492.776924, 184.831018)"><g><path d="M 14.609375 0 L 2.1875 0 L 2.1875 -50.84375 L 14.609375 -50.84375 Z M 14.609375 0 "/></g></g></g><g fill="#cf4545" fill-opacity="1"><g transform="translate(509.568841, 184.831018)"><g><path d="M 30.140625 0 L 17.734375 0 L 15.5 -14.09375 C 14.613281 -14.09375 14.054688 -13.460938 13.828125 -12.203125 L 11.515625 0 L 0.421875 0 L 3.390625 -14.6875 C 4.710938 -21.332031 7.789062 -24.65625 12.625 -24.65625 L 14.6875 -24.65625 L 14.6875 -35.46875 C 14.6875 -36.875 13.882812 -37.578125 12.28125 -37.578125 L 3.4375 -37.578125 L 3.4375 -50.84375 L 17.78125 -50.84375 C 24.050781 -50.84375 27.1875 -47.550781 27.1875 -40.96875 L 27.1875 -23.875 C 27.1875 -22.070312 27.234375 -20.410156 27.328125 -18.890625 C 27.429688 -17.378906 27.582031 -15.992188 27.78125 -14.734375 Z M 30.140625 0 "/></g></g></g><g fill="#cf4545" fill-opacity="1"><g transform="translate(540.618828, 184.831018)"><g><path d="M 35.171875 0 L 22.765625 0 L 22.765625 -35.171875 C 22.765625 -36.773438 22.035156 -37.578125 20.578125 -37.578125 L 18.890625 -37.578125 C 17.398438 -37.578125 16.65625 -36.773438 16.65625 -35.171875 L 16.65625 -6.09375 C 16.65625 -2.03125 14.953125 0 11.546875 0 L 0.859375 0 L 0.859375 -13.265625 L 3 -13.265625 C 3.71875 -13.265625 4.078125 -13.582031 4.078125 -14.21875 L 4.078125 -41.09375 C 4.078125 -44.5625 4.75 -47.054688 6.09375 -48.578125 C 7.4375 -50.085938 9.816406 -50.84375 13.234375 -50.84375 L 26.625 -50.84375 C 32.320312 -50.84375 35.171875 -47.59375 35.171875 -41.09375 Z M 35.171875 0 "/></g></g></g><g fill="#cf4545" fill-opacity="1"><g transform="translate(578.024833, 184.831018)"><g><path d="M 32.59375 0 L 19.96875 0 L 19.96875 -35.46875 C 19.96875 -36.875 19.253906 -37.578125 17.828125 -37.578125 L 2.1875 -37.578125 L 2.1875 -50.84375 L 23.625 -50.84375 C 26.257812 -50.84375 28.421875 -50 30.109375 -48.3125 C 31.765625 -46.65625 32.59375 -44.492188 32.59375 -41.828125 Z M 14.609375 0 L 2.234375 0 L 2.234375 -31.515625 L 14.609375 -31.515625 Z M 14.609375 0 "/></g></g></g><g fill="#cf4545" fill-opacity="1"><g transform="translate(612.811133, 184.831018)"><g><path d="M 32.59375 0 L 19.96875 0 L 19.96875 -35.46875 C 19.96875 -36.875 19.253906 -37.578125 17.828125 -37.578125 L 2.1875 -37.578125 L 2.1875 -50.84375 L 23.625 -50.84375 C 26.257812 -50.84375 28.421875 -50 30.109375 -48.3125 C 31.765625 -46.65625 32.59375 -44.492188 32.59375 -41.828125 Z M 14.609375 0 L 2.234375 0 L 2.234375 -31.515625 L 14.609375 -31.515625 Z M 14.609375 0 "/></g></g></g><g fill="#cf4545" fill-opacity="1"><g transform="translate(647.597434, 184.831018)"><g/></g></g><g fill="#cf4545" fill-opacity="1"><g transform="translate(667.051995, 184.831018)"><g><path d="M 32.9375 -15.71875 C 32.9375 -10.53125 32.09375 -6.707031 30.40625 -4.25 C 28.34375 -1.332031 24.835938 0.125 19.890625 0.125 C 18.992188 0.125 18.0625 0.0820312 17.09375 0 L 17.09375 -13.265625 C 19.269531 -13.265625 20.359375 -14.867188 20.359375 -18.078125 L 20.359375 -35.46875 C 20.359375 -36.875 19.628906 -37.578125 18.171875 -37.578125 L 2.1875 -37.578125 L 2.1875 -50.84375 L 26.578125 -50.84375 C 30.816406 -50.84375 32.9375 -48.796875 32.9375 -44.703125 Z M 14.6875 7.34375 L 2.28125 7.34375 L 2.28125 -32 L 14.6875 -32 Z M 14.6875 7.34375 "/></g></g></g><g fill="#cf4545" fill-opacity="1"><g transform="translate(702.224827, 184.831018)"><g><path d="M 14.609375 0 L 2.1875 0 L 2.1875 -50.84375 L 14.609375 -50.84375 Z M 14.609375 0 "/></g></g></g><g fill="#cf4545" fill-opacity="1"><g transform="translate(719.016766, 184.831018)"><g><path d="M 33.15625 0 L 20.703125 0 L 20.703125 -35.171875 C 20.703125 -36.773438 19.972656 -37.578125 18.515625 -37.578125 L 17 -37.578125 C 15.539062 -37.578125 14.8125 -36.773438 14.8125 -35.171875 L 14.8125 0 L 2.1875 0 L 2.1875 -41.953125 C 2.1875 -45.128906 2.71875 -47.347656 3.78125 -48.609375 C 4.976562 -50.097656 7.125 -50.84375 10.21875 -50.84375 L 24.5625 -50.84375 C 30.289062 -50.84375 33.15625 -47.878906 33.15625 -41.953125 Z M 33.15625 0 "/></g></g></g><g fill="#cf4545" fill-opacity="1"><g transform="translate(754.36136, 184.831018)"><g/></g></g><g fill="#cf4545" fill-opacity="1"><g transform="translate(773.815921, 184.831018)"><g><path d="M 23.65625 -18.203125 L 2.625 -18.203125 L 2.625 -31.484375 L 23.65625 -31.484375 Z M 23.65625 -18.203125 "/></g></g></g><g fill="#cf4545" fill-opacity="1"><g transform="translate(800.098935, 184.831018)"><g/></g></g><g fill="#cf4545" fill-opacity="1"><g transform="translate(819.559587, 184.831018)"><g><path d="M 26.75 0 L 14.265625 0 L 14.265625 -37.53125 L 5.796875 -37.53125 L 5.796875 -50.84375 L 17.046875 -50.84375 C 23.515625 -50.84375 26.75 -47.582031 26.75 -41.0625 Z M 26.75 0 "/></g></g></g><g fill="#cf4545" fill-opacity="1"><g transform="translate(853.873497, 184.831018)"><g><path d="M 31.734375 -9.75 C 31.734375 -3.25 28.769531 0 22.84375 0 L 4.375 0 L 4.375 -13.265625 L 19.375 -13.265625 L 19.375 -19.28125 L 11.515625 -19.28125 C 5.585938 -19.28125 2.625 -22.53125 2.625 -29.03125 L 2.625 -41.0625 C 2.625 -47.582031 5.914062 -50.84375 12.5 -50.84375 L 21.90625 -50.84375 C 24.882812 -50.84375 27.257812 -49.957031 29.03125 -48.1875 C 30.832031 -46.40625 31.734375 -44.03125 31.734375 -41.0625 Z M 19.375 -30.796875 L 19.375 -37.53125 L 15.03125 -37.53125 L 15.03125 -30.796875 Z M 19.375 -30.796875 "/></g></g></g><g fill="#cf4545" fill-opacity="1"><g transform="translate(888.187408, 184.831018)"><g><path d="M 31.140625 -9.75 C 31.140625 -3.25 27.859375 0 21.296875 0 L 3.265625 0 L 4.203125 -13.265625 L 18.71875 -13.265625 L 18.71875 -18.296875 L 5.203125 -18.296875 L 8.625 -50.84375 L 31.140625 -50.84375 L 30.140625 -37.53125 L 20.0625 -37.53125 L 19.0625 -31.5625 L 21.8125 -31.5625 C 28.03125 -31.5625 31.140625 -28.457031 31.140625 -22.25 Z M 31.140625 -9.75 "/></g></g></g><g fill="#cf4545" fill-opacity="1"><g transform="translate(922.501319, 184.831018)"><g><path d="M 26.75 0 L 14.265625 0 L 14.265625 -37.53125 L 5.796875 -37.53125 L 5.796875 -50.84375 L 17.046875 -50.84375 C 23.515625 -50.84375 26.75 -47.582031 26.75 -41.0625 Z M 26.75 0 "/></g></g></g><g fill="#cf4545" fill-opacity="1"><g transform="translate(337.648215, 277.036406)"><g><path d="M 16.1875 7.390625 L 1.765625 7.390625 L 1.765625 -59.90625 L 16.1875 -59.90625 L 16.1875 -49.171875 L 12.84375 -49.171875 L 12.84375 -3.515625 L 16.1875 -3.515625 Z M 16.1875 7.390625 "/></g></g></g><g fill="#cf4545" fill-opacity="1"><g transform="translate(355.780068, 277.036406)"><g><path d="M 26.75 0 L 14.265625 0 L 14.265625 -37.53125 L 5.796875 -37.53125 L 5.796875 -50.84375 L 17.046875 -50.84375 C 23.515625 -50.84375 26.75 -47.582031 26.75 -41.0625 Z M 26.75 0 "/></g></g></g><g fill="#cf4545" fill-opacity="1"><g transform="translate(390.093978, 277.036406)"><g><path d="M 31.734375 -9.75 C 31.734375 -3.25 28.769531 0 22.84375 0 L 4.375 0 L 4.375 -13.265625 L 19.375 -13.265625 L 19.375 -19.28125 L 11.515625 -19.28125 C 5.585938 -19.28125 2.625 -22.53125 2.625 -29.03125 L 2.625 -41.0625 C 2.625 -47.582031 5.914062 -50.84375 12.5 -50.84375 L 21.90625 -50.84375 C 24.882812 -50.84375 27.257812 -49.957031 29.03125 -48.1875 C 30.832031 -46.40625 31.734375 -44.03125 31.734375 -41.0625 Z M 19.375 -30.796875 L 19.375 -37.53125 L 15.03125 -37.53125 L 15.03125 -30.796875 Z M 19.375 -30.796875 "/></g></g></g><g fill="#cf4545" fill-opacity="1"><g transform="translate(424.407889, 277.036406)"><g><path d="M 31.140625 -9.75 C 31.140625 -3.25 27.859375 0 21.296875 0 L 3.265625 0 L 4.203125 -13.265625 L 18.71875 -13.265625 L 18.71875 -18.296875 L 5.203125 -18.296875 L 8.625 -50.84375 L 31.140625 -50.84375 L 30.140625 -37.53125 L 20.0625 -37.53125 L 19.0625 -31.5625 L 21.8125 -31.5625 C 28.03125 -31.5625 31.140625 -28.457031 31.140625 -22.25 Z M 31.140625 -9.75 "/></g></g></g><g fill="#cf4545" fill-opacity="1"><g transform="translate(458.721799, 277.036406)"><g><path d="M 26.75 0 L 14.265625 0 L 14.265625 -37.53125 L 5.796875 -37.53125 L 5.796875 -50.84375 L 17.046875 -50.84375 C 23.515625 -50.84375 26.75 -47.582031 26.75 -41.0625 Z M 26.75 0 "/></g></g></g><g fill="#cf4545" fill-opacity="1"><g transform="translate(493.045689, 277.036406)"><g/></g></g><g fill="#cf4545" fill-opacity="1"><g transform="translate(512.500262, 277.036406)"><g><path d="M 23.65625 -18.203125 L 2.625 -18.203125 L 2.625 -31.484375 L 23.65625 -31.484375 Z M 23.65625 -18.203125 "/></g></g></g><g fill="#cf4545" fill-opacity="1"><g transform="translate(538.783254, 277.036406)"><g/></g></g><g fill="#cf4545" fill-opacity="1"><g transform="translate(558.237827, 277.036406)"><g><path d="M 23.015625 0 C 22.640625 -2 21.828125 -4.640625 20.578125 -7.921875 C 19.335938 -11.203125 17.644531 -15.160156 15.5 -19.796875 C 15.269531 -19.535156 15.097656 -19.332031 14.984375 -19.1875 C 14.867188 -19.050781 14.796875 -18.96875 14.765625 -18.9375 C 14.742188 -18.820312 14.722656 -18.570312 14.703125 -18.1875 C 14.691406 -17.800781 14.6875 -17.265625 14.6875 -16.578125 L 14.6875 0 L 2.28125 0 L 2.28125 -15.203125 C 2.28125 -23.242188 4.753906 -28.453125 9.703125 -30.828125 C 4.953125 -40.160156 2.304688 -46.832031 1.765625 -50.84375 L 14.6875 -50.84375 C 15.3125 -47.976562 16.25 -44.957031 17.5 -41.78125 C 18.75 -38.601562 20.316406 -35.226562 22.203125 -31.65625 C 22.921875 -32.164062 23.28125 -33.222656 23.28125 -34.828125 L 23.28125 -50.84375 L 35.8125 -50.84375 L 35.8125 -33.625 C 35.8125 -31.050781 35.023438 -28.546875 33.453125 -26.109375 C 31.878906 -23.703125 29.929688 -21.867188 27.609375 -20.609375 C 32.960938 -9.960938 35.695312 -3.09375 35.8125 0 Z M 23.015625 0 "/></g></g></g><g fill="#cf4545" fill-opacity="1"><g transform="translate(595.815639, 277.036406)"><g><path d="M 21.125 -47.921875 C 21.125 -45.460938 20.066406 -43.085938 17.953125 -40.796875 C 16.203125 -38.910156 14.210938 -37.46875 11.984375 -36.46875 L 11.984375 -58.28125 L 21.125 -58.28125 Z M 9.921875 -47.921875 C 9.921875 -43.398438 6.898438 -39.582031 0.859375 -36.46875 L 0.859375 -58.28125 L 9.921875 -58.28125 Z M 9.921875 -47.921875 "/></g></g></g><g fill="#cf4545" fill-opacity="1"><g transform="translate(617.804023, 277.036406)"><g><path d="M 14.4375 -28.296875 L 2.109375 -28.296875 L 2.109375 -50.84375 L 14.4375 -50.84375 Z M 14.4375 -28.296875 "/></g></g></g><g fill="#cf4545" fill-opacity="1"><g transform="translate(634.424156, 277.036406)"><g><path d="M 14.171875 -36.421875 L 16.109375 -36.421875 C 17.503906 -36.421875 18.203125 -37.175781 18.203125 -38.6875 L 18.203125 -50.84375 L 29.671875 -50.84375 L 29.671875 -36.59375 C 29.671875 -30.664062 27.109375 -27.703125 21.984375 -27.703125 L 14.171875 -27.703125 L 14.171875 -15.59375 C 14.171875 -14.039062 14.816406 -13.265625 16.109375 -13.265625 L 31.78125 -13.265625 C 33.039062 -13.265625 33.671875 -14.039062 33.671875 -15.59375 L 33.671875 -50.84375 L 45.6875 -50.84375 L 45.6875 -11.546875 C 45.6875 -8.054688 44.785156 -5.28125 42.984375 -3.21875 C 41.097656 -1.070312 38.421875 0 34.953125 0 L 12.921875 0 C 5.765625 0 2.1875 -3.847656 2.1875 -11.546875 L 2.1875 -50.84375 L 14.171875 -50.84375 Z M 14.171875 -36.421875 "/></g></g></g><g fill="#cf4545" fill-opacity="1"><g transform="translate(682.309022, 277.036406)"><g><path d="M 35.171875 0 L 22.765625 0 L 22.765625 -35.171875 C 22.765625 -36.773438 22.035156 -37.578125 20.578125 -37.578125 L 18.890625 -37.578125 C 17.398438 -37.578125 16.65625 -36.773438 16.65625 -35.171875 L 16.65625 -6.09375 C 16.65625 -2.03125 14.953125 0 11.546875 0 L 0.859375 0 L 0.859375 -13.265625 L 3 -13.265625 C 3.71875 -13.265625 4.078125 -13.582031 4.078125 -14.21875 L 4.078125 -41.09375 C 4.078125 -44.5625 4.75 -47.054688 6.09375 -48.578125 C 7.4375 -50.085938 9.816406 -50.84375 13.234375 -50.84375 L 26.625 -50.84375 C 32.320312 -50.84375 35.171875 -47.59375 35.171875 -41.09375 Z M 35.171875 0 "/></g></g></g><g fill="#cf4545" fill-opacity="1"><g transform="translate(719.71505, 277.036406)"><g><path d="M 32.59375 0 L 19.96875 0 L 19.96875 -35.46875 C 19.96875 -36.875 19.253906 -37.578125 17.828125 -37.578125 L 2.1875 -37.578125 L 2.1875 -50.84375 L 23.625 -50.84375 C 26.257812 -50.84375 28.421875 -50 30.109375 -48.3125 C 31.765625 -46.65625 32.59375 -44.492188 32.59375 -41.828125 Z M 14.609375 0 L 2.234375 0 L 2.234375 -31.515625 L 14.609375 -31.515625 Z M 14.609375 0 "/></g></g></g><g fill="#cf4545" fill-opacity="1"><g transform="translate(754.501373, 277.036406)"><g><path d="M 16.53125 7.390625 L 2.015625 7.390625 L 2.015625 -3.515625 L 5.453125 -3.515625 L 5.453125 -49.171875 L 2.015625 -49.171875 L 2.015625 -59.90625 L 16.53125 -59.90625 Z M 16.53125 7.390625 "/></g></g></g><g fill="#cf4545" fill-opacity="1"><g transform="translate(197.050679, 408.469333)"><g><path d="M 31.96875 0 L 20.6875 0 L 20.6875 -31.96875 C 20.6875 -33.425781 20.023438 -34.15625 18.703125 -34.15625 L 17.171875 -34.15625 C 15.816406 -34.15625 15.140625 -33.425781 15.140625 -31.96875 L 15.140625 -5.546875 C 15.140625 -1.847656 13.59375 0 10.5 0 L 0.78125 0 L 0.78125 -12.0625 L 2.734375 -12.0625 C 3.378906 -12.0625 3.703125 -12.347656 3.703125 -12.921875 L 3.703125 -37.359375 C 3.703125 -40.503906 4.316406 -42.769531 5.546875 -44.15625 C 6.765625 -45.53125 8.925781 -46.21875 12.03125 -46.21875 L 24.203125 -46.21875 C 29.378906 -46.21875 31.96875 -43.265625 31.96875 -37.359375 Z M 31.96875 0 "/></g></g></g><g fill="#cf4545" fill-opacity="1"><g transform="translate(231.054341, 408.469333)"><g><path d="M 13.125 -25.734375 L 1.90625 -25.734375 L 1.90625 -46.21875 L 13.125 -46.21875 Z M 13.125 -25.734375 "/></g></g></g><g fill="#cf4545" fill-opacity="1"><g transform="translate(246.162743, 408.469333)"><g><path d="M 30.140625 0 L 18.8125 0 L 18.8125 -31.96875 C 18.8125 -33.425781 18.148438 -34.15625 16.828125 -34.15625 L 15.453125 -34.15625 C 14.128906 -34.15625 13.46875 -33.425781 13.46875 -31.96875 L 13.46875 0 L 1.984375 0 L 1.984375 -38.140625 C 1.984375 -41.023438 2.46875 -43.039062 3.4375 -44.1875 C 4.53125 -45.539062 6.484375 -46.21875 9.296875 -46.21875 L 22.328125 -46.21875 C 27.535156 -46.21875 30.140625 -43.523438 30.140625 -38.140625 Z M 30.140625 0 "/></g></g></g><g fill="#cf4545" fill-opacity="1"><g transform="translate(278.292495, 408.469333)"><g><path d="M 24.75 0 L 13.3125 0 L 13.3125 -32.25 C 13.3125 -33.519531 12.648438 -34.15625 11.328125 -34.15625 L 1.203125 -34.15625 L 1.203125 -46.21875 L 16.59375 -46.21875 C 18.988281 -46.21875 20.953125 -45.453125 22.484375 -43.921875 C 23.992188 -42.410156 24.75 -40.445312 24.75 -38.03125 Z M 24.75 0 "/></g></g></g><g fill="#cf4545" fill-opacity="1"><g transform="translate(305.034756, 408.469333)"><g><path d="M 17.328125 -34.15625 L 17.171875 -34.15625 C 15.378906 -34.15625 14.484375 -32.867188 14.484375 -30.296875 L 14.484375 0 L 3.28125 0 L 3.28125 -28.03125 C 3.28125 -31.382812 4.347656 -33.425781 6.484375 -34.15625 L 1.59375 -34.15625 L 1.59375 -46.21875 L 17.328125 -46.21875 Z M 17.328125 -34.15625 "/></g></g></g><g fill="#cf4545" fill-opacity="1"><g transform="translate(323.969057, 408.469333)"><g><path d="M 20.921875 0 C 20.585938 -1.820312 19.851562 -4.222656 18.71875 -7.203125 C 17.582031 -10.179688 16.039062 -13.78125 14.09375 -18 C 13.882812 -17.757812 13.726562 -17.570312 13.625 -17.4375 C 13.519531 -17.3125 13.453125 -17.238281 13.421875 -17.21875 C 13.398438 -17.113281 13.378906 -16.882812 13.359375 -16.53125 C 13.347656 -16.175781 13.34375 -15.6875 13.34375 -15.0625 L 13.34375 0 L 2.0625 0 L 2.0625 -13.8125 C 2.0625 -21.132812 4.316406 -25.875 8.828125 -28.03125 C 4.503906 -36.507812 2.09375 -42.570312 1.59375 -46.21875 L 13.34375 -46.21875 C 13.914062 -43.613281 14.769531 -40.867188 15.90625 -37.984375 C 17.039062 -35.097656 18.46875 -32.023438 20.1875 -28.765625 C 20.832031 -29.234375 21.15625 -30.195312 21.15625 -31.65625 L 21.15625 -46.21875 L 32.5625 -46.21875 L 32.5625 -30.5625 C 32.5625 -28.21875 31.84375 -25.941406 30.40625 -23.734375 C 28.976562 -21.546875 27.210938 -19.878906 25.109375 -18.734375 C 29.972656 -9.054688 32.457031 -2.8125 32.5625 0 Z M 20.921875 0 "/></g></g></g><g fill="#cf4545" fill-opacity="1"><g transform="translate(358.128879, 408.469333)"><g><path d="M 29.625 0 L 18.15625 0 L 18.15625 -32.25 C 18.15625 -33.519531 17.503906 -34.15625 16.203125 -34.15625 L 1.984375 -34.15625 L 1.984375 -46.21875 L 21.46875 -46.21875 C 23.863281 -46.21875 25.828125 -45.453125 27.359375 -43.921875 C 28.867188 -42.410156 29.625 -40.445312 29.625 -38.03125 Z M 13.28125 0 L 2.03125 0 L 2.03125 -28.65625 L 13.28125 -28.65625 Z M 13.28125 0 "/></g></g></g><g fill="#cf4545" fill-opacity="1"><g transform="translate(389.751115, 408.469333)"><g/></g></g><g fill="#cf4545" fill-opacity="1"><g transform="translate(407.436131, 408.469333)"><g><path d="M 31.96875 0 L 20.6875 0 L 20.6875 -31.96875 C 20.6875 -33.425781 20.023438 -34.15625 18.703125 -34.15625 L 17.171875 -34.15625 C 15.816406 -34.15625 15.140625 -33.425781 15.140625 -31.96875 L 15.140625 -5.546875 C 15.140625 -1.847656 13.59375 0 10.5 0 L 0.78125 0 L 0.78125 -12.0625 L 2.734375 -12.0625 C 3.378906 -12.0625 3.703125 -12.347656 3.703125 -12.921875 L 3.703125 -37.359375 C 3.703125 -40.503906 4.316406 -42.769531 5.546875 -44.15625 C 6.765625 -45.53125 8.925781 -46.21875 12.03125 -46.21875 L 24.203125 -46.21875 C 29.378906 -46.21875 31.96875 -43.265625 31.96875 -37.359375 Z M 31.96875 0 "/></g></g></g><g fill="#cf4545" fill-opacity="1"><g transform="translate(441.439805, 408.469333)"><g><path d="M 13.28125 0 L 1.984375 0 L 1.984375 -46.21875 L 13.28125 -46.21875 Z M 13.28125 0 "/></g></g></g><g fill="#cf4545" fill-opacity="1"><g transform="translate(456.704377, 408.469333)"><g><path d="M 22.40625 -7.265625 C 22.40625 -2.421875 20.113281 0 15.53125 0 L 1.59375 0 L 1.59375 -12.0625 L 9.609375 -12.0625 C 10.546875 -12.0625 11.015625 -12.632812 11.015625 -13.78125 L 11.015625 -32.25 C 11.015625 -33.519531 10.441406 -34.15625 9.296875 -34.15625 L 4.921875 -34.15625 L 4.921875 -46.21875 L 15.34375 -46.21875 C 20.050781 -46.21875 22.40625 -43.785156 22.40625 -38.921875 Z M 22.40625 -7.265625 "/></g></g></g><g fill="#cf4545" fill-opacity="1"><g transform="translate(481.104239, 408.469333)"><g><path d="M 22.40625 -7.265625 C 22.40625 -2.421875 20.113281 0 15.53125 0 L 1.59375 0 L 1.59375 -12.0625 L 9.609375 -12.0625 C 10.546875 -12.0625 11.015625 -12.632812 11.015625 -13.78125 L 11.015625 -32.25 C 11.015625 -33.519531 10.441406 -34.15625 9.296875 -34.15625 L 4.921875 -34.15625 L 4.921875 -46.21875 L 15.34375 -46.21875 C 20.050781 -46.21875 22.40625 -43.785156 22.40625 -38.921875 Z M 22.40625 -7.265625 "/></g></g></g><g fill="#cf4545" fill-opacity="1"><g transform="translate(505.5041, 408.469333)"><g><path d="M 13.28125 0 L 1.984375 0 L 1.984375 -46.21875 L 13.28125 -46.21875 Z M 13.28125 0 "/></g></g></g><g fill="#cf4545" fill-opacity="1"><g transform="translate(520.768672, 408.469333)"><g><path d="M 27.40625 0 L 16.125 0 L 14.09375 -12.8125 C 13.289062 -12.8125 12.785156 -12.238281 12.578125 -11.09375 L 10.46875 0 L 0.390625 0 L 3.078125 -13.34375 C 4.273438 -19.382812 7.078125 -22.40625 11.484375 -22.40625 L 13.34375 -22.40625 L 13.34375 -32.25 C 13.34375 -33.519531 12.617188 -34.15625 11.171875 -34.15625 L 3.125 -34.15625 L 3.125 -46.21875 L 16.15625 -46.21875 C 21.863281 -46.21875 24.71875 -43.226562 24.71875 -37.25 L 24.71875 -21.703125 C 24.71875 -20.066406 24.757812 -18.554688 24.84375 -17.171875 C 24.9375 -15.796875 25.078125 -14.535156 25.265625 -13.390625 Z M 27.40625 0 "/></g></g></g><g fill="#cf4545" fill-opacity="1"><g transform="translate(548.994456, 408.469333)"><g><path d="M 31.96875 0 L 20.6875 0 L 20.6875 -31.96875 C 20.6875 -33.425781 20.023438 -34.15625 18.703125 -34.15625 L 17.171875 -34.15625 C 15.816406 -34.15625 15.140625 -33.425781 15.140625 -31.96875 L 15.140625 -5.546875 C 15.140625 -1.847656 13.59375 0 10.5 0 L 0.78125 0 L 0.78125 -12.0625 L 2.734375 -12.0625 C 3.378906 -12.0625 3.703125 -12.347656 3.703125 -12.921875 L 3.703125 -37.359375 C 3.703125 -40.503906 4.316406 -42.769531 5.546875 -44.15625 C 6.765625 -45.53125 8.925781 -46.21875 12.03125 -46.21875 L 24.203125 -46.21875 C 29.378906 -46.21875 31.96875 -43.265625 31.96875 -37.359375 Z M 31.96875 0 "/></g></g></g><g fill="#cf4545" fill-opacity="1"><g transform="translate(582.99813, 408.469333)"><g><path d="M 29.625 0 L 18.15625 0 L 18.15625 -32.25 C 18.15625 -33.519531 17.503906 -34.15625 16.203125 -34.15625 L 1.984375 -34.15625 L 1.984375 -46.21875 L 21.46875 -46.21875 C 23.863281 -46.21875 25.828125 -45.453125 27.359375 -43.921875 C 28.867188 -42.410156 29.625 -40.445312 29.625 -38.03125 Z M 13.28125 0 L 2.03125 0 L 2.03125 -28.65625 L 13.28125 -28.65625 Z M 13.28125 0 "/></g></g></g><g fill="#cf4545" fill-opacity="1"><g transform="translate(614.620343, 408.469333)"><g/></g></g><g fill="#cf4545" fill-opacity="1"><g transform="translate(632.30536, 408.469333)"><g><path d="M 31.96875 0 L 20.6875 0 L 20.6875 -31.96875 C 20.6875 -33.425781 20.023438 -34.15625 18.703125 -34.15625 L 17.171875 -34.15625 C 15.816406 -34.15625 15.140625 -33.425781 15.140625 -31.96875 L 15.140625 -5.546875 C 15.140625 -1.847656 13.59375 0 10.5 0 L 0.78125 0 L 0.78125 -12.0625 L 2.734375 -12.0625 C 3.378906 -12.0625 3.703125 -12.347656 3.703125 -12.921875 L 3.703125 -37.359375 C 3.703125 -40.503906 4.316406 -42.769531 5.546875 -44.15625 C 6.765625 -45.53125 8.925781 -46.21875 12.03125 -46.21875 L 24.203125 -46.21875 C 29.378906 -46.21875 31.96875 -43.265625 31.96875 -37.359375 Z M 31.96875 0 "/></g></g></g><g fill="#cf4545" fill-opacity="1"><g transform="translate(666.309034, 408.469333)"><g><path d="M 13.28125 0 L 1.984375 0 L 1.984375 -46.21875 L 13.28125 -46.21875 Z M 13.28125 0 "/></g></g></g><g fill="#cf4545" fill-opacity="1"><g transform="translate(681.573606, 408.469333)"><g><path d="M 24.75 0 L 13.3125 0 L 13.3125 -32.25 C 13.3125 -33.519531 12.648438 -34.15625 11.328125 -34.15625 L 1.203125 -34.15625 L 1.203125 -46.21875 L 16.59375 -46.21875 C 18.988281 -46.21875 20.953125 -45.453125 22.484375 -43.921875 C 23.992188 -42.410156 24.75 -40.445312 24.75 -38.03125 Z M 24.75 0 "/></g></g></g><g fill="#cf4545" fill-opacity="1"><g transform="translate(708.315855, 408.469333)"><g><path d="M 13.125 -25.734375 L 1.90625 -25.734375 L 1.90625 -46.21875 L 13.125 -46.21875 Z M 13.125 -25.734375 "/></g></g></g><g fill="#cf4545" fill-opacity="1"><g transform="translate(723.424268, 408.469333)"><g><path d="M 12.890625 -33.109375 L 14.640625 -33.109375 C 15.910156 -33.109375 16.546875 -33.796875 16.546875 -35.171875 L 16.546875 -46.21875 L 26.96875 -46.21875 L 26.96875 -33.265625 C 26.96875 -27.878906 24.640625 -25.1875 19.984375 -25.1875 L 12.890625 -25.1875 L 12.890625 -14.171875 C 12.890625 -12.765625 13.472656 -12.0625 14.640625 -12.0625 L 28.890625 -12.0625 C 30.035156 -12.0625 30.609375 -12.765625 30.609375 -14.171875 L 30.609375 -46.21875 L 41.53125 -46.21875 L 41.53125 -10.5 C 41.53125 -7.320312 40.710938 -4.796875 39.078125 -2.921875 C 37.359375 -0.972656 34.925781 0 31.78125 0 L 11.75 0 C 5.238281 0 1.984375 -3.5 1.984375 -10.5 L 1.984375 -46.21875 L 12.890625 -46.21875 Z M 12.890625 -33.109375 "/></g></g></g><g fill="#cf4545" fill-opacity="1"><g transform="translate(766.953653, 408.469333)"><g/></g></g><g fill="#cf4545" fill-opacity="1"><g transform="translate(784.63867, 408.469333)"><g><path d="M 31.96875 0 L 20.6875 0 L 20.6875 -31.96875 C 20.6875 -33.425781 20.023438 -34.15625 18.703125 -34.15625 L 17.171875 -34.15625 C 15.816406 -34.15625 15.140625 -33.425781 15.140625 -31.96875 L 15.140625 -5.546875 C 15.140625 -1.847656 13.59375 0 10.5 0 L 0.78125 0 L 0.78125 -12.0625 L 2.734375 -12.0625 C 3.378906 -12.0625 3.703125 -12.347656 3.703125 -12.921875 L 3.703125 -37.359375 C 3.703125 -40.503906 4.316406 -42.769531 5.546875 -44.15625 C 6.765625 -45.53125 8.925781 -46.21875 12.03125 -46.21875 L 24.203125 -46.21875 C 29.378906 -46.21875 31.96875 -43.265625 31.96875 -37.359375 Z M 31.96875 0 "/></g></g></g><g fill="#cf4545" fill-opacity="1"><g transform="translate(818.642344, 408.469333)"><g><path d="M 32.671875 -8.3125 C 32.671875 -2.769531 30.160156 0 25.140625 0 L 17.171875 0 L 17.171875 -12.109375 L 19.5625 -12.109375 C 20.726562 -12.109375 21.3125 -12.804688 21.3125 -14.203125 L 21.3125 -31.8125 C 21.3125 -33.21875 20.960938 -33.921875 20.265625 -33.921875 C 19.554688 -33.921875 19.070312 -33.128906 18.8125 -31.546875 L 13.15625 0 L 1.984375 0 L 6.75 -25.8125 L 4.53125 -25.8125 C 2.78125 -25.8125 1.90625 -26.664062 1.90625 -28.375 L 1.90625 -46.21875 L 13.234375 -46.21875 L 13.234375 -29.90625 L 15.5 -38.84375 C 16.75 -43.757812 19.441406 -46.21875 23.578125 -46.21875 L 24.171875 -46.21875 C 29.835938 -46.21875 32.671875 -42.757812 32.671875 -35.84375 Z M 32.671875 -8.3125 "/></g></g></g><g fill="#cf4545" fill-opacity="1"><g transform="translate(853.309683, 408.469333)"><g><path d="M 29.9375 -14.28125 C 29.9375 -9.570312 29.171875 -6.097656 27.640625 -3.859375 C 25.765625 -1.210938 22.578125 0.109375 18.078125 0.109375 C 17.265625 0.109375 16.414062 0.0703125 15.53125 0 L 15.53125 -12.0625 C 17.507812 -12.0625 18.5 -13.519531 18.5 -16.4375 L 18.5 -32.25 C 18.5 -33.519531 17.835938 -34.15625 16.515625 -34.15625 L 1.984375 -34.15625 L 1.984375 -46.21875 L 24.171875 -46.21875 C 28.015625 -46.21875 29.9375 -44.359375 29.9375 -40.640625 Z M 13.34375 6.671875 L 2.0625 6.671875 L 2.0625 -29.078125 L 13.34375 -29.078125 Z M 13.34375 6.671875 "/></g></g></g><g fill="#cf4545" fill-opacity="1"><g transform="translate(885.283288, 408.469333)"><g><path d="M 29.625 0 L 18.15625 0 L 18.15625 -32.25 C 18.15625 -33.519531 17.503906 -34.15625 16.203125 -34.15625 L 1.984375 -34.15625 L 1.984375 -46.21875 L 21.46875 -46.21875 C 23.863281 -46.21875 25.828125 -45.453125 27.359375 -43.921875 C 28.867188 -42.410156 29.625 -40.445312 29.625 -38.03125 Z M 13.28125 0 L 2.03125 0 L 2.03125 -28.65625 L 13.28125 -28.65625 Z M 13.28125 0 "/></g></g></g><path stroke-linecap="butt" transform="matrix(0.749637, 0, 0, 0.749637, 276.977418, 317.363393)" fill="none" stroke-linejoin="miter" d="M -0.0011413 4.502028 L 681.599312 4.502028 " stroke="#cf4545" stroke-width="9" stroke-opacity="1" stroke-miterlimit="4"/></svg>