<svg xmlns="http://www.w3.org/2000/svg" xmlns:xlink="http://www.w3.org/1999/xlink" width="1486" zoomAndPan="magnify" viewBox="0 0 1114.5 516.750002" height="689" preserveAspectRatio="xMidYMid meet" version="1.0"><defs><g/><clipPath id="9815750542"><path d="M 0.0195312 0 L 1113.980469 0 L 1113.980469 516.332031 L 0.0195312 516.332031 Z M 0.0195312 0 " clip-rule="nonzero"/></clipPath><clipPath id="41a1edcc0c"><path d="M 38.25 0 L 1075.71875 0 C 1085.859375 0 1095.582031 4.027344 1102.753906 11.199219 C 1109.921875 18.367188 1113.949219 28.09375 1113.949219 38.230469 L 1113.949219 478.101562 C 1113.949219 488.242188 1109.921875 497.964844 1102.753906 505.136719 C 1095.582031 512.304688 1085.859375 516.332031 1075.71875 516.332031 L 38.25 516.332031 C 28.113281 516.332031 18.386719 512.304688 11.21875 505.136719 C 4.046875 497.964844 0.0195312 488.242188 0.0195312 478.101562 L 0.0195312 38.230469 C 0.0195312 28.09375 4.046875 18.367188 11.21875 11.199219 C 18.386719 4.027344 28.113281 0 38.25 0 Z M 38.25 0 " clip-rule="nonzero"/></clipPath><clipPath id="eb6a622694"><path d="M 0.0273438 0 L 1113.980469 0 L 1113.980469 516.5 L 0.0273438 516.5 Z M 0.0273438 0 " clip-rule="nonzero"/></clipPath><clipPath id="4a2d3892dc"><path d="M 38.257812 0 L 1075.707031 0 C 1085.847656 0 1095.570312 4.027344 1102.742188 11.199219 C 1109.910156 18.367188 1113.941406 28.089844 1113.941406 38.230469 L 1113.941406 478.09375 C 1113.941406 488.234375 1109.910156 497.957031 1102.742188 505.125 C 1095.570312 512.296875 1085.847656 516.324219 1075.707031 516.324219 L 38.257812 516.324219 C 28.117188 516.324219 18.394531 512.296875 11.222656 505.125 C 4.054688 497.957031 0.0273438 488.234375 0.0273438 478.09375 L 0.0273438 38.230469 C 0.0273438 28.089844 4.054688 18.367188 11.222656 11.199219 C 18.394531 4.027344 28.117188 0 38.257812 0 Z M 38.257812 0 " clip-rule="nonzero"/></clipPath></defs><g clip-path="url(#9815750542)"><g clip-path="url(#41a1edcc0c)"><path fill="#ffcf7e" d="M 0.0195312 0 L 1113.363281 0 L 1113.363281 516.332031 L 0.0195312 516.332031 Z M 0.0195312 0 " fill-opacity="1" fill-rule="nonzero"/></g></g><g clip-path="url(#eb6a622694)"><g clip-path="url(#4a2d3892dc)"><path stroke-linecap="butt" transform="matrix(0.749637, 0, 0, 0.749637, 0.0256264, 0.0000199903)" fill="none" stroke-linejoin="miter" d="M 51.000909 -0.0000266667 L 1434.935712 -0.0000266667 C 1448.463086 -0.0000266667 1461.43811 5.372363 1471.000025 14.939489 C 1480.56194 24.501404 1485.93954 37.471217 1485.93954 50.998591 L 1485.93954 637.766688 C 1485.93954 651.294062 1480.56194 664.263875 1471.000025 673.82579 C 1461.43811 683.392916 1448.463086 688.765306 1434.935712 688.765306 L 51.000909 688.765306 C 37.473534 688.765306 24.503721 683.392916 14.936595 673.82579 C 5.37468 664.263875 0.00229086 651.294062 0.00229086 637.766688 L 0.00229086 50.998591 C 0.00229086 37.471217 5.37468 24.501404 14.936595 14.939489 C 24.503721 5.372363 37.473534 -0.0000266667 51.000909 -0.0000266667 Z M 51.000909 -0.0000266667 " stroke="#cf4545" stroke-width="40" stroke-opacity="1" stroke-miterlimit="4"/></g></g><g fill="#cf4545" fill-opacity="1"><g transform="translate(898.659879, 84.723757)"><g><path d="M 10.921875 -20.5625 L 1.4375 -20.5625 L 1.4375 -30.8125 L 10.921875 -30.8125 Z M 10.921875 0 L 1.4375 0 L 1.4375 -10.296875 L 10.921875 -10.296875 Z M 10.921875 0 "/></g></g></g><g fill="#cf4545" fill-opacity="1"><g transform="translate(910.888337, 84.723757)"><g><path d="M 21.890625 0 L 11.671875 0 L 11.671875 -30.71875 L 4.75 -30.71875 L 4.75 -41.609375 L 13.953125 -41.609375 C 19.242188 -41.609375 21.890625 -38.9375 21.890625 -33.59375 Z M 21.890625 0 "/></g></g><g transform="translate(938.964597, 84.723757)"><g><path d="M 25.96875 -7.984375 C 25.96875 -2.660156 23.539062 0 18.6875 0 L 3.578125 0 L 3.578125 -10.859375 L 15.84375 -10.859375 L 15.84375 -15.78125 L 9.421875 -15.78125 C 4.566406 -15.78125 2.140625 -18.4375 2.140625 -23.75 L 2.140625 -33.59375 C 2.140625 -38.9375 4.832031 -41.609375 10.21875 -41.609375 L 17.921875 -41.609375 C 20.359375 -41.609375 22.300781 -40.878906 23.75 -39.421875 C 25.226562 -37.972656 25.96875 -36.03125 25.96875 -33.59375 Z M 15.84375 -25.203125 L 15.84375 -30.71875 L 12.296875 -30.71875 L 12.296875 -25.203125 Z M 15.84375 -25.203125 "/></g></g><g transform="translate(967.040857, 84.723757)"><g><path d="M 25.96875 -7.984375 C 25.96875 -2.660156 23.265625 0 17.859375 0 L 10.15625 0 C 7.695312 0 5.753906 -0.710938 4.328125 -2.140625 C 2.867188 -3.597656 2.140625 -5.546875 2.140625 -7.984375 L 2.140625 -33.59375 C 2.140625 -38.9375 4.539062 -41.609375 9.34375 -41.609375 L 24.53125 -41.609375 L 24.53125 -30.71875 L 12.296875 -30.71875 L 12.296875 -25.828125 L 18.625 -25.828125 C 23.519531 -25.828125 25.96875 -23.398438 25.96875 -18.546875 Z M 15.84375 -10.859375 L 15.84375 -14.96875 L 12.296875 -14.96875 L 12.296875 -10.859375 Z M 15.84375 -10.859375 "/></g></g><g transform="translate(995.117116, 84.723757)"><g><path d="M 26.28125 -7.984375 C 26.28125 -5.453125 25.566406 -3.488281 24.140625 -2.09375 C 22.710938 -0.695312 20.734375 0 18.203125 0 L 9.9375 0 C 7.738281 0 5.84375 -0.785156 4.25 -2.359375 C 2.65625 -3.953125 1.859375 -5.828125 1.859375 -7.984375 L 1.859375 -33.59375 C 1.859375 -36.144531 2.566406 -38.117188 3.984375 -39.515625 C 5.398438 -40.910156 7.382812 -41.609375 9.9375 -41.609375 L 18.203125 -41.609375 C 20.734375 -41.609375 22.710938 -40.90625 24.140625 -39.5 C 25.566406 -38.09375 26.28125 -36.125 26.28125 -33.59375 Z M 16.0625 -10.859375 L 16.0625 -30.71875 L 12.015625 -30.71875 L 12.015625 -10.859375 Z M 16.0625 -10.859375 "/></g></g><g transform="translate(1023.193376, 84.723757)"><g><path d="M 26.78125 -41.609375 L 10.640625 0 L 1.9375 0 L 18 -41.609375 Z M 26.78125 -41.609375 "/></g></g><g transform="translate(1051.621028, 84.723757)"><g><path d="M 26.046875 -7.984375 C 26.046875 -2.660156 23.863281 0 19.5 0 L 2.734375 0 L 2.734375 -10.859375 L 15.984375 -10.859375 L 15.984375 -15.671875 L 6.046875 -15.671875 L 10.640625 -30.71875 L 2.734375 -30.71875 L 2.734375 -41.609375 L 25.34375 -41.609375 L 20.0625 -25.828125 C 24.050781 -25.828125 26.046875 -23.351562 26.046875 -18.40625 Z M 26.046875 -7.984375 "/></g></g></g><g fill="#cf4545" fill-opacity="1"><g transform="translate(155.345794, 177.484726)"><g><path d="M 28.296875 -8.859375 C 28.296875 -2.953125 25.316406 0 19.359375 0 L 2.96875 0 L 3.828125 -12.0625 L 17.015625 -12.0625 L 17.015625 -16.625 L 4.71875 -16.625 L 7.84375 -46.21875 L 28.296875 -46.21875 L 27.40625 -34.125 L 18.234375 -34.125 L 17.328125 -28.6875 L 19.828125 -28.6875 C 25.472656 -28.6875 28.296875 -25.863281 28.296875 -20.21875 Z M 28.296875 -8.859375 "/></g></g></g><g fill="#cf4545" fill-opacity="1"><g transform="translate(186.538591, 177.484726)"><g><path d="M 24.328125 0 L 12.96875 0 L 12.96875 -34.125 L 5.265625 -34.125 L 5.265625 -46.21875 L 15.5 -46.21875 C 21.382812 -46.21875 24.328125 -43.253906 24.328125 -37.328125 Z M 24.328125 0 "/></g></g></g><g fill="#cf4545" fill-opacity="1"><g transform="translate(217.731388, 177.484726)"><g><path d="M 28.296875 -8.859375 C 28.296875 -2.953125 25.316406 0 19.359375 0 L 2.96875 0 L 3.828125 -12.0625 L 17.015625 -12.0625 L 17.015625 -16.625 L 4.71875 -16.625 L 7.84375 -46.21875 L 28.296875 -46.21875 L 27.40625 -34.125 L 18.234375 -34.125 L 17.328125 -28.6875 L 19.828125 -28.6875 C 25.472656 -28.6875 28.296875 -25.863281 28.296875 -20.21875 Z M 28.296875 -8.859375 "/></g></g></g><g fill="#cf4545" fill-opacity="1"><g transform="translate(248.933326, 177.484726)"><g/></g></g><g fill="#cf4545" fill-opacity="1"><g transform="translate(266.618354, 177.484726)"><g><path d="M 29.625 0 L 18.15625 0 L 18.15625 -32.25 C 18.15625 -33.519531 17.503906 -34.15625 16.203125 -34.15625 L 1.984375 -34.15625 L 1.984375 -46.21875 L 21.46875 -46.21875 C 23.863281 -46.21875 25.828125 -45.453125 27.359375 -43.921875 C 28.867188 -42.410156 29.625 -40.445312 29.625 -38.03125 Z M 13.28125 0 L 2.03125 0 L 2.03125 -28.65625 L 13.28125 -28.65625 Z M 13.28125 0 "/></g></g></g><g fill="#cf4545" fill-opacity="1"><g transform="translate(298.240589, 177.484726)"><g><path d="M 27.59375 -16.703125 C 27.59375 -5.566406 22.257812 0 11.59375 0 L 6.71875 0 L 6.71875 -12.0625 L 10 -12.0625 C 12.519531 -12.0625 14.234375 -12.867188 15.140625 -14.484375 C 15.796875 -15.628906 16.125 -17.617188 16.125 -20.453125 L 16.125 -32.25 C 16.125 -33.519531 15.472656 -34.15625 14.171875 -34.15625 L 1.984375 -34.15625 L 1.984375 -51.96875 L 13.3125 -51.96875 L 13.3125 -46.21875 L 21.828125 -46.21875 C 25.671875 -46.21875 27.59375 -44.359375 27.59375 -40.640625 Z M 27.59375 -16.703125 "/></g></g></g><g fill="#cf4545" fill-opacity="1"><g transform="translate(327.832755, 177.484726)"><g><path d="M 12.890625 -33.109375 L 14.640625 -33.109375 C 15.910156 -33.109375 16.546875 -33.796875 16.546875 -35.171875 L 16.546875 -46.21875 L 26.96875 -46.21875 L 26.96875 -33.265625 C 26.96875 -27.878906 24.640625 -25.1875 19.984375 -25.1875 L 12.890625 -25.1875 L 12.890625 -14.171875 C 12.890625 -12.765625 13.472656 -12.0625 14.640625 -12.0625 L 28.890625 -12.0625 C 30.035156 -12.0625 30.609375 -12.765625 30.609375 -14.171875 L 30.609375 -46.21875 L 41.53125 -46.21875 L 41.53125 -10.5 C 41.53125 -7.320312 40.710938 -4.796875 39.078125 -2.921875 C 37.359375 -0.972656 34.925781 0 31.78125 0 L 11.75 0 C 5.238281 0 1.984375 -3.5 1.984375 -10.5 L 1.984375 -46.21875 L 12.890625 -46.21875 Z M 12.890625 -33.109375 "/></g></g></g><g fill="#cf4545" fill-opacity="1"><g transform="translate(371.362128, 177.484726)"><g><path d="M 32.671875 -8.3125 C 32.671875 -2.769531 30.160156 0 25.140625 0 L 17.171875 0 L 17.171875 -12.109375 L 19.5625 -12.109375 C 20.726562 -12.109375 21.3125 -12.804688 21.3125 -14.203125 L 21.3125 -31.8125 C 21.3125 -33.21875 20.960938 -33.921875 20.265625 -33.921875 C 19.554688 -33.921875 19.070312 -33.128906 18.8125 -31.546875 L 13.15625 0 L 1.984375 0 L 6.75 -25.8125 L 4.53125 -25.8125 C 2.78125 -25.8125 1.90625 -26.664062 1.90625 -28.375 L 1.90625 -46.21875 L 13.234375 -46.21875 L 13.234375 -29.90625 L 15.5 -38.84375 C 16.75 -43.757812 19.441406 -46.21875 23.578125 -46.21875 L 24.171875 -46.21875 C 29.835938 -46.21875 32.671875 -42.757812 32.671875 -35.84375 Z M 32.671875 -8.3125 "/></g></g></g><g fill="#cf4545" fill-opacity="1"><g transform="translate(406.029467, 177.484726)"><g><path d="M 32.671875 -8.3125 C 32.671875 -2.769531 30.160156 0 25.140625 0 L 17.171875 0 L 17.171875 -12.109375 L 19.5625 -12.109375 C 20.726562 -12.109375 21.3125 -12.804688 21.3125 -14.203125 L 21.3125 -31.8125 C 21.3125 -33.21875 20.960938 -33.921875 20.265625 -33.921875 C 19.554688 -33.921875 19.070312 -33.128906 18.8125 -31.546875 L 13.15625 0 L 1.984375 0 L 6.75 -25.8125 L 4.53125 -25.8125 C 2.78125 -25.8125 1.90625 -26.664062 1.90625 -28.375 L 1.90625 -46.21875 L 13.234375 -46.21875 L 13.234375 -29.90625 L 15.5 -38.84375 C 16.75 -43.757812 19.441406 -46.21875 23.578125 -46.21875 L 24.171875 -46.21875 C 29.835938 -46.21875 32.671875 -42.757812 32.671875 -35.84375 Z M 32.671875 -8.3125 "/></g></g></g><g fill="#cf4545" fill-opacity="1"><g transform="translate(440.696806, 177.484726)"><g/></g></g><g fill="#cf4545" fill-opacity="1"><g transform="translate(458.381822, 177.484726)"><g><path d="M 31.96875 0 L 20.6875 0 L 20.6875 -31.96875 C 20.6875 -33.425781 20.023438 -34.15625 18.703125 -34.15625 L 17.171875 -34.15625 C 15.816406 -34.15625 15.140625 -33.425781 15.140625 -31.96875 L 15.140625 -5.546875 C 15.140625 -1.847656 13.59375 0 10.5 0 L 0.78125 0 L 0.78125 -12.0625 L 2.734375 -12.0625 C 3.378906 -12.0625 3.703125 -12.347656 3.703125 -12.921875 L 3.703125 -37.359375 C 3.703125 -40.503906 4.316406 -42.769531 5.546875 -44.15625 C 6.765625 -45.53125 8.925781 -46.21875 12.03125 -46.21875 L 24.203125 -46.21875 C 29.378906 -46.21875 31.96875 -43.265625 31.96875 -37.359375 Z M 31.96875 0 "/></g></g></g><g fill="#cf4545" fill-opacity="1"><g transform="translate(492.385496, 177.484726)"><g><path d="M 31.234375 -8.90625 C 31.234375 -2.96875 28.785156 0 23.890625 0 L 9.328125 0 C 6.859375 0 4.984375 -0.894531 3.703125 -2.6875 C 2.554688 -4.300781 1.984375 -6.375 1.984375 -8.90625 L 1.984375 -46.21875 L 13.234375 -46.21875 L 13.234375 -31.65625 L 15.453125 -39.546875 C 16.703125 -43.992188 18.984375 -46.21875 22.296875 -46.21875 L 24.59375 -46.21875 C 29.019531 -46.21875 31.234375 -43.8125 31.234375 -39 Z M 20.03125 -33.109375 C 20.03125 -33.597656 19.925781 -33.84375 19.71875 -33.84375 C 19.5625 -33.84375 19.429688 -33.632812 19.328125 -33.21875 L 17.6875 -27.09375 L 13.234375 -27.09375 L 13.234375 -14.171875 C 13.234375 -12.765625 13.804688 -12.0625 14.953125 -12.0625 L 18.265625 -12.0625 C 19.441406 -12.0625 20.03125 -12.765625 20.03125 -14.171875 Z M 20.03125 -33.109375 "/></g></g></g><g fill="#cf4545" fill-opacity="1"><g transform="translate(525.608375, 177.484726)"><g><path d="M 27.59375 -16.703125 C 27.59375 -5.566406 22.257812 0 11.59375 0 L 6.71875 0 L 6.71875 -12.0625 L 10 -12.0625 C 12.519531 -12.0625 14.234375 -12.867188 15.140625 -14.484375 C 15.796875 -15.628906 16.125 -17.617188 16.125 -20.453125 L 16.125 -32.25 C 16.125 -33.519531 15.472656 -34.15625 14.171875 -34.15625 L 1.984375 -34.15625 L 1.984375 -51.96875 L 13.3125 -51.96875 L 13.3125 -46.21875 L 21.828125 -46.21875 C 25.671875 -46.21875 27.59375 -44.359375 27.59375 -40.640625 Z M 27.59375 -16.703125 "/></g></g></g><g fill="#cf4545" fill-opacity="1"><g transform="translate(555.200541, 177.484726)"><g><path d="M 30.140625 0 L 18.8125 0 L 18.8125 -31.96875 C 18.8125 -33.425781 18.148438 -34.15625 16.828125 -34.15625 L 15.453125 -34.15625 C 14.128906 -34.15625 13.46875 -33.425781 13.46875 -31.96875 L 13.46875 0 L 1.984375 0 L 1.984375 -38.140625 C 1.984375 -41.023438 2.46875 -43.039062 3.4375 -44.1875 C 4.53125 -45.539062 6.484375 -46.21875 9.296875 -46.21875 L 22.328125 -46.21875 C 27.535156 -46.21875 30.140625 -43.523438 30.140625 -38.140625 Z M 30.140625 0 "/></g></g></g><g fill="#cf4545" fill-opacity="1"><g transform="translate(587.330282, 177.484726)"><g><path d="M 29.625 0 L 18.15625 0 L 18.15625 -32.25 C 18.15625 -33.519531 17.503906 -34.15625 16.203125 -34.15625 L 1.984375 -34.15625 L 1.984375 -46.21875 L 21.46875 -46.21875 C 23.863281 -46.21875 25.828125 -45.453125 27.359375 -43.921875 C 28.867188 -42.410156 29.625 -40.445312 29.625 -38.03125 Z M 13.28125 0 L 2.03125 0 L 2.03125 -28.65625 L 13.28125 -28.65625 Z M 13.28125 0 "/></g></g></g><g fill="#cf4545" fill-opacity="1"><g transform="translate(618.952517, 177.484726)"><g/></g></g><g fill="#cf4545" fill-opacity="1"><g transform="translate(636.637556, 177.484726)"><g><path d="M 21.515625 -16.546875 L 2.375 -16.546875 L 2.375 -28.609375 L 21.515625 -28.609375 Z M 21.515625 -16.546875 "/></g></g></g><g fill="#cf4545" fill-opacity="1"><g transform="translate(660.529912, 177.484726)"><g/></g></g><g fill="#cf4545" fill-opacity="1"><g transform="translate(678.217812, 177.484726)"><g><path d="M 24.328125 0 L 12.96875 0 L 12.96875 -34.125 L 5.265625 -34.125 L 5.265625 -46.21875 L 15.5 -46.21875 C 21.382812 -46.21875 24.328125 -43.253906 24.328125 -37.328125 Z M 24.328125 0 "/></g></g></g><g fill="#cf4545" fill-opacity="1"><g transform="translate(709.41061, 177.484726)"><g><path d="M 31.578125 -8.78125 L 29.28125 -8.78125 L 29.28125 0 L 18 0 L 18 -8.78125 L -0.390625 -8.78125 L 8.390625 -46.21875 L 20.140625 -46.21875 L 14.328125 -20.890625 L 18 -20.890625 L 18 -28.84375 L 29.28125 -28.84375 L 29.28125 -20.890625 L 31.578125 -20.890625 Z M 31.578125 -8.78125 "/></g></g></g><g fill="#cf4545" fill-opacity="1"><g transform="translate(740.603407, 177.484726)"><g><path d="M 12.140625 0 L 1.59375 0 L 1.59375 -11.4375 L 12.140625 -11.4375 Z M 12.140625 0 "/></g></g></g><g fill="#cf4545" fill-opacity="1"><g transform="translate(754.189256, 177.484726)"><g><path d="M 29.203125 -8.859375 C 29.203125 -6.046875 28.40625 -3.863281 26.8125 -2.3125 C 25.226562 -0.769531 23.03125 0 20.21875 0 L 11.046875 0 C 8.597656 0 6.488281 -0.867188 4.71875 -2.609375 C 2.945312 -4.378906 2.0625 -6.460938 2.0625 -8.859375 L 2.0625 -37.328125 C 2.0625 -40.160156 2.847656 -42.347656 4.421875 -43.890625 C 6.003906 -45.441406 8.210938 -46.21875 11.046875 -46.21875 L 20.21875 -46.21875 C 23.03125 -46.21875 25.226562 -45.4375 26.8125 -43.875 C 28.40625 -42.3125 29.203125 -40.128906 29.203125 -37.328125 Z M 17.84375 -12.0625 L 17.84375 -34.125 L 13.34375 -34.125 L 13.34375 -12.0625 Z M 17.84375 -12.0625 "/></g></g></g><g fill="#cf4545" fill-opacity="1"><g transform="translate(785.382053, 177.484726)"><g><path d="M 29.28125 -8.859375 C 29.28125 -2.953125 26.3125 0 20.375 0 L 10.890625 0 C 8.285156 0 6.148438 -0.832031 4.484375 -2.5 C 2.816406 -4.164062 1.984375 -6.285156 1.984375 -8.859375 L 1.984375 -17.09375 C 1.984375 -20.53125 3.613281 -22.820312 6.875 -23.96875 C 5.3125 -24.101562 4.085938 -24.804688 3.203125 -26.078125 C 2.390625 -27.273438 1.984375 -28.679688 1.984375 -30.296875 L 1.984375 -37.328125 C 1.984375 -39.765625 2.832031 -41.859375 4.53125 -43.609375 C 6.195312 -45.347656 8.28125 -46.21875 10.78125 -46.21875 L 20.375 -46.21875 C 26.3125 -46.21875 29.28125 -43.253906 29.28125 -37.328125 L 29.28125 -30.609375 C 29.28125 -29.046875 28.757812 -27.65625 27.71875 -26.4375 C 26.65625 -25.207031 25.378906 -24.382812 23.890625 -23.96875 C 27.484375 -23.132812 29.28125 -20.816406 29.28125 -17.015625 Z M 18 -28.765625 L 18 -34.125 L 13.28125 -34.125 L 13.28125 -28.765625 Z M 18 -12.0625 L 18 -19.203125 L 13.28125 -19.203125 L 13.28125 -12.0625 Z M 18 -12.0625 "/></g></g></g><g fill="#cf4545" fill-opacity="1"><g transform="translate(816.57485, 177.484726)"><g><path d="M 12.140625 0 L 1.59375 0 L 1.59375 -11.4375 L 12.140625 -11.4375 Z M 12.140625 0 "/></g></g></g><g fill="#cf4545" fill-opacity="1"><g transform="translate(830.1607, 177.484726)"><g><path d="M 24.328125 0 L 12.96875 0 L 12.96875 -34.125 L 5.265625 -34.125 L 5.265625 -46.21875 L 15.5 -46.21875 C 21.382812 -46.21875 24.328125 -43.253906 24.328125 -37.328125 Z M 24.328125 0 "/></g></g></g><g fill="#cf4545" fill-opacity="1"><g transform="translate(861.353497, 177.484726)"><g><path d="M 28.84375 -8.859375 C 28.84375 -2.953125 26.148438 0 20.765625 0 L 3.984375 0 L 3.984375 -12.0625 L 17.609375 -12.0625 L 17.609375 -17.53125 L 10.46875 -17.53125 C 5.070312 -17.53125 2.375 -20.484375 2.375 -26.390625 L 2.375 -37.328125 C 2.375 -43.253906 5.367188 -46.21875 11.359375 -46.21875 L 19.90625 -46.21875 C 22.613281 -46.21875 24.773438 -45.410156 26.390625 -43.796875 C 28.023438 -42.179688 28.84375 -40.023438 28.84375 -37.328125 Z M 17.609375 -27.984375 L 17.609375 -34.125 L 13.65625 -34.125 L 13.65625 -27.984375 Z M 17.609375 -27.984375 "/></g></g></g><g fill="#cf4545" fill-opacity="1"><g transform="translate(892.546294, 177.484726)"><g><path d="M 28.84375 -8.859375 C 28.84375 -2.953125 25.835938 0 19.828125 0 L 11.28125 0 C 8.550781 0 6.390625 -0.789062 4.796875 -2.375 C 3.179688 -3.988281 2.375 -6.148438 2.375 -8.859375 L 2.375 -37.328125 C 2.375 -43.253906 5.046875 -46.21875 10.390625 -46.21875 L 27.25 -46.21875 L 27.25 -34.125 L 13.65625 -34.125 L 13.65625 -28.6875 L 20.6875 -28.6875 C 26.125 -28.6875 28.84375 -25.992188 28.84375 -20.609375 Z M 17.609375 -12.0625 L 17.609375 -16.625 L 13.65625 -16.625 L 13.65625 -12.0625 Z M 17.609375 -12.0625 "/></g></g></g><g fill="#cf4545" fill-opacity="1"><g transform="translate(923.73908, 177.484726)"><g><path d="M 29.203125 -8.859375 C 29.203125 -6.046875 28.40625 -3.863281 26.8125 -2.3125 C 25.226562 -0.769531 23.03125 0 20.21875 0 L 11.046875 0 C 8.597656 0 6.488281 -0.867188 4.71875 -2.609375 C 2.945312 -4.378906 2.0625 -6.460938 2.0625 -8.859375 L 2.0625 -37.328125 C 2.0625 -40.160156 2.847656 -42.347656 4.421875 -43.890625 C 6.003906 -45.441406 8.210938 -46.21875 11.046875 -46.21875 L 20.21875 -46.21875 C 23.03125 -46.21875 25.226562 -45.4375 26.8125 -43.875 C 28.40625 -42.3125 29.203125 -40.128906 29.203125 -37.328125 Z M 17.84375 -12.0625 L 17.84375 -34.125 L 13.34375 -34.125 L 13.34375 -12.0625 Z M 17.84375 -12.0625 "/></g></g></g><g fill="#cf4545" fill-opacity="1"><g transform="translate(99.366539, 389.878299)"><g><path d="M 27.828125 0 L 1.796875 0 L 1.796875 -34.328125 C 1.796875 -36.929688 2.226562 -38.75 3.09375 -39.78125 C 4.070312 -41 5.828125 -41.609375 8.359375 -41.609375 L 20.796875 -41.609375 C 25.484375 -41.609375 27.828125 -39.179688 27.828125 -34.328125 Z M 17.671875 -28.78125 C 17.671875 -30.09375 17.078125 -30.75 15.890625 -30.75 L 13.921875 -30.75 C 12.722656 -30.75 12.125 -30.09375 12.125 -28.78125 L 12.125 -10.859375 L 17.671875 -10.859375 Z M 17.671875 -28.78125 "/></g></g><g transform="translate(128.988925, 389.878299)"><g><path d="M 11.8125 -23.15625 L 1.71875 -23.15625 L 1.71875 -41.609375 L 11.8125 -41.609375 Z M 11.8125 -23.15625 "/></g></g><g transform="translate(142.587814, 389.878299)"><g><path d="M 24.84375 -15.046875 C 24.84375 -5.015625 20.039062 0 10.4375 0 L 6.046875 0 L 6.046875 -10.859375 L 9 -10.859375 C 11.269531 -10.859375 12.816406 -11.582031 13.640625 -13.03125 C 14.222656 -14.0625 14.515625 -15.851562 14.515625 -18.40625 L 14.515625 -29.03125 C 14.515625 -30.175781 13.925781 -30.75 12.75 -30.75 L 1.796875 -30.75 L 1.796875 -46.765625 L 11.984375 -46.765625 L 11.984375 -41.609375 L 19.640625 -41.609375 C 23.109375 -41.609375 24.84375 -39.929688 24.84375 -36.578125 Z M 24.84375 -15.046875 "/></g></g><g transform="translate(169.223365, 389.878299)"><g><path d="M 24.84375 -15.046875 C 24.84375 -5.015625 20.039062 0 10.4375 0 L 6.046875 0 L 6.046875 -10.859375 L 9 -10.859375 C 11.269531 -10.859375 12.816406 -11.582031 13.640625 -13.03125 C 14.222656 -14.0625 14.515625 -15.851562 14.515625 -18.40625 L 14.515625 -29.03125 C 14.515625 -30.175781 13.925781 -30.75 12.75 -30.75 L 1.796875 -30.75 L 1.796875 -46.765625 L 11.984375 -46.765625 L 11.984375 -41.609375 L 19.640625 -41.609375 C 23.109375 -41.609375 24.84375 -39.929688 24.84375 -36.578125 Z M 24.84375 -15.046875 "/></g></g><g transform="translate(195.858915, 389.878299)"><g><path d="M 27.125 0 L 16.9375 0 L 16.9375 -28.78125 C 16.9375 -30.09375 16.335938 -30.75 15.140625 -30.75 L 13.921875 -30.75 C 12.722656 -30.75 12.125 -30.09375 12.125 -28.78125 L 12.125 0 L 1.796875 0 L 1.796875 -34.328125 C 1.796875 -36.929688 2.226562 -38.75 3.09375 -39.78125 C 4.070312 -41 5.828125 -41.609375 8.359375 -41.609375 L 20.09375 -41.609375 C 24.78125 -41.609375 27.125 -39.179688 27.125 -34.328125 Z M 27.125 0 "/></g></g><g transform="translate(224.778517, 389.878299)"><g><path d="M 25.546875 0 L 1.796875 0 L 1.796875 -10.859375 L 9.703125 -10.859375 C 12.015625 -10.859375 13.171875 -12.226562 13.171875 -14.96875 L 13.171875 -27.4375 C 13.171875 -28.65625 12.957031 -29.507812 12.53125 -30 C 12.113281 -30.5 11.3125 -30.75 10.125 -30.75 L 1.796875 -30.75 L 1.796875 -41.609375 L 15.46875 -41.609375 C 20.832031 -41.609375 23.515625 -38.429688 23.515625 -32.078125 L 23.515625 -17.859375 C 23.515625 -14.171875 22.140625 -11.835938 19.390625 -10.859375 L 25.546875 -10.859375 Z M 25.546875 0 "/></g></g><g transform="translate(251.76546, 389.878299)"><g/></g><g transform="translate(267.68354, 389.878299)"><g><path d="M 24.84375 -15.046875 C 24.84375 -5.015625 20.039062 0 10.4375 0 L 6.046875 0 L 6.046875 -10.859375 L 9 -10.859375 C 11.269531 -10.859375 12.816406 -11.582031 13.640625 -13.03125 C 14.222656 -14.0625 14.515625 -15.851562 14.515625 -18.40625 L 14.515625 -29.03125 C 14.515625 -30.175781 13.925781 -30.75 12.75 -30.75 L 1.796875 -30.75 L 1.796875 -46.765625 L 11.984375 -46.765625 L 11.984375 -41.609375 L 19.640625 -41.609375 C 23.109375 -41.609375 24.84375 -39.929688 24.84375 -36.578125 Z M 24.84375 -15.046875 "/></g></g><g transform="translate(294.31909, 389.878299)"><g><path d="M 11.953125 0 L 1.796875 0 L 1.796875 -41.609375 L 11.953125 -41.609375 Z M 11.953125 0 "/></g></g><g transform="translate(308.058537, 389.878299)"><g><path d="M 26.609375 -8.078125 C 26.609375 -2.691406 23.992188 0 18.765625 0 L 1.859375 0 L 1.859375 -10.859375 L 14.4375 -10.859375 C 15.820312 -10.859375 16.515625 -11.675781 16.515625 -13.3125 L 16.515625 -29.03125 C 16.515625 -30.175781 15.988281 -30.75 14.9375 -30.75 L 13.53125 -30.75 C 12.570312 -30.75 12.09375 -30.148438 12.09375 -28.953125 L 12.09375 -22.84375 L 1.796875 -22.84375 L 1.796875 -34.234375 C 1.796875 -39.148438 4.160156 -41.609375 8.890625 -41.609375 L 19.296875 -41.609375 C 21.492188 -41.609375 23.257812 -40.925781 24.59375 -39.5625 C 25.9375 -38.1875 26.609375 -36.410156 26.609375 -34.234375 Z M 26.609375 -8.078125 "/></g></g><g transform="translate(336.486189, 389.878299)"><g><path d="M 11.8125 -23.15625 L 1.71875 -23.15625 L 1.71875 -41.609375 L 11.8125 -41.609375 Z M 11.8125 -23.15625 "/></g></g><g transform="translate(350.085078, 389.878299)"><g><path d="M 28.109375 -8.015625 C 28.109375 -2.671875 25.90625 0 21.5 0 L 8.40625 0 C 6.175781 0 4.488281 -0.804688 3.34375 -2.421875 C 2.3125 -3.878906 1.796875 -5.742188 1.796875 -8.015625 L 1.796875 -41.609375 L 11.90625 -41.609375 L 11.90625 -28.5 L 13.921875 -35.59375 C 15.046875 -39.601562 17.09375 -41.609375 20.0625 -41.609375 L 22.140625 -41.609375 C 26.117188 -41.609375 28.109375 -39.441406 28.109375 -35.109375 Z M 18.03125 -29.796875 C 18.03125 -30.242188 17.9375 -30.46875 17.75 -30.46875 C 17.601562 -30.46875 17.484375 -30.28125 17.390625 -29.90625 L 15.921875 -24.390625 L 11.90625 -24.390625 L 11.90625 -12.75 C 11.90625 -11.488281 12.421875 -10.859375 13.453125 -10.859375 L 16.453125 -10.859375 C 17.503906 -10.859375 18.03125 -11.488281 18.03125 -12.75 Z M 18.03125 -29.796875 "/></g></g><g transform="translate(379.988578, 389.878299)"><g><path d="M 11.953125 0 L 1.796875 0 L 1.796875 -41.609375 L 11.953125 -41.609375 Z M 11.953125 0 "/></g></g><g transform="translate(393.728024, 389.878299)"><g/></g><g transform="translate(409.646104, 389.878299)"><g><path d="M 23.75 -30.75 C 21.457031 -30.75 20.3125 -29.625 20.3125 -27.375 L 20.3125 0 L 9.984375 0 L 9.984375 -24.5 C 9.984375 -27.707031 11.34375 -29.789062 14.0625 -30.75 L 1.09375 -30.75 L 1.09375 -41.609375 L 23.75 -41.609375 Z M 23.75 -30.75 "/></g></g><g transform="translate(435.192338, 389.878299)"><g><path d="M 27.546875 -10.96875 C 27.546875 -3.65625 24.546875 0 18.546875 0 L 1.09375 0 L 1.09375 -10.859375 L 3.546875 -10.859375 L 3.546875 -41.609375 L 13.703125 -41.609375 L 13.703125 -10.859375 L 15.75 -10.859375 C 16.914062 -10.859375 17.5 -11.664062 17.5 -13.28125 L 17.5 -41.609375 L 27.546875 -41.609375 Z M 27.546875 -10.96875 "/></g></g><g transform="translate(464.53361, 389.878299)"><g><path d="M 28.359375 -12.46875 C 28.359375 -8.394531 27.210938 -5.140625 24.921875 -2.703125 C 22.546875 -0.203125 19.347656 1.046875 15.328125 1.046875 C 11.171875 1.046875 7.878906 -0.164062 5.453125 -2.59375 C 3.015625 -5.03125 1.796875 -8.320312 1.796875 -12.46875 L 1.796875 -34.96875 C 1.796875 -36.15625 1.910156 -37.171875 2.140625 -38.015625 C 2.378906 -38.859375 2.753906 -39.546875 3.265625 -40.078125 C 3.785156 -40.609375 4.457031 -40.992188 5.28125 -41.234375 C 6.113281 -41.484375 7.128906 -41.609375 8.328125 -41.609375 L 21.75 -41.609375 C 26.15625 -41.609375 28.359375 -39.394531 28.359375 -34.96875 Z M 18.09375 -29.90625 C 18.09375 -30.46875 17.859375 -30.75 17.390625 -30.75 L 12.6875 -30.75 C 12.21875 -30.75 11.984375 -30.46875 11.984375 -29.90625 L 11.984375 -13.59375 C 11.984375 -11.039062 13.050781 -9.765625 15.1875 -9.765625 C 17.125 -9.765625 18.09375 -11.039062 18.09375 -13.59375 Z M 18.09375 -29.90625 "/></g></g><g transform="translate(494.683085, 389.878299)"><g/></g><g transform="translate(510.601165, 389.878299)"><g><path d="M 10.921875 0 C 10.921875 2.53125 10.269531 4.660156 8.96875 6.390625 C 7.53125 8.316406 5.570312 9.28125 3.09375 9.28125 L 3.09375 3.4375 C 4.425781 3.4375 5.09375 2.289062 5.09375 0 L 1.4375 0 L 1.4375 -10.5 L 10.921875 -10.5 Z M 10.921875 0 "/></g></g><g transform="translate(522.829624, 389.878299)"><g><path d="M 11.8125 -23.15625 L 1.71875 -23.15625 L 1.71875 -41.609375 L 11.8125 -41.609375 Z M 11.8125 -23.15625 "/></g></g><g transform="translate(536.428513, 389.878299)"><g><path d="M 11.953125 0 L 1.796875 0 L 1.796875 -41.609375 L 11.953125 -41.609375 Z M 11.953125 0 "/></g></g><g transform="translate(550.167959, 389.878299)"><g><path d="M 20.171875 -6.53125 C 20.171875 -2.175781 18.109375 0 13.984375 0 L 1.4375 0 L 1.4375 -10.859375 L 8.640625 -10.859375 C 9.484375 -10.859375 9.90625 -11.375 9.90625 -12.40625 L 9.90625 -29.03125 C 9.90625 -30.175781 9.390625 -30.75 8.359375 -30.75 L 4.421875 -30.75 L 4.421875 -41.609375 L 13.8125 -41.609375 C 18.050781 -41.609375 20.171875 -39.414062 20.171875 -35.03125 Z M 20.171875 -6.53125 "/></g></g><g transform="translate(572.129989, 389.878299)"><g><path d="M 11.8125 -23.15625 L 1.71875 -23.15625 L 1.71875 -41.609375 L 11.8125 -41.609375 Z M 11.8125 -23.15625 "/></g></g><g transform="translate(585.728878, 389.878299)"><g><path d="M 26.609375 -8.078125 C 26.609375 -2.691406 23.992188 0 18.765625 0 L 1.859375 0 L 1.859375 -10.859375 L 14.4375 -10.859375 C 15.820312 -10.859375 16.515625 -11.675781 16.515625 -13.3125 L 16.515625 -29.03125 C 16.515625 -30.175781 15.988281 -30.75 14.9375 -30.75 L 13.53125 -30.75 C 12.570312 -30.75 12.09375 -30.148438 12.09375 -28.953125 L 12.09375 -22.84375 L 1.796875 -22.84375 L 1.796875 -34.234375 C 1.796875 -39.148438 4.160156 -41.609375 8.890625 -41.609375 L 19.296875 -41.609375 C 21.492188 -41.609375 23.257812 -40.925781 24.59375 -39.5625 C 25.9375 -38.1875 26.609375 -36.410156 26.609375 -34.234375 Z M 26.609375 -8.078125 "/></g></g><g transform="translate(614.15653, 389.878299)"><g><path d="M 24.84375 -15.046875 C 24.84375 -5.015625 20.039062 0 10.4375 0 L 6.046875 0 L 6.046875 -10.859375 L 9 -10.859375 C 11.269531 -10.859375 12.816406 -11.582031 13.640625 -13.03125 C 14.222656 -14.0625 14.515625 -15.851562 14.515625 -18.40625 L 14.515625 -29.03125 C 14.515625 -30.175781 13.925781 -30.75 12.75 -30.75 L 1.796875 -30.75 L 1.796875 -46.765625 L 11.984375 -46.765625 L 11.984375 -41.609375 L 19.640625 -41.609375 C 23.109375 -41.609375 24.84375 -39.929688 24.84375 -36.578125 Z M 24.84375 -15.046875 "/></g></g><g transform="translate(640.792081, 389.878299)"><g/></g><g transform="translate(656.710161, 389.878299)"><g><path d="M 26.671875 0 L 16.34375 0 L 16.34375 -29.03125 C 16.34375 -30.175781 15.753906 -30.75 14.578125 -30.75 L 1.796875 -30.75 L 1.796875 -41.609375 L 19.328125 -41.609375 C 21.484375 -41.609375 23.253906 -40.914062 24.640625 -39.53125 C 25.992188 -38.175781 26.671875 -36.410156 26.671875 -34.234375 Z M 11.953125 0 L 1.828125 0 L 1.828125 -25.796875 L 11.953125 -25.796875 Z M 11.953125 0 "/></g></g><g transform="translate(685.172952, 389.878299)"><g><path d="M 20.171875 -6.53125 C 20.171875 -2.175781 18.109375 0 13.984375 0 L 1.4375 0 L 1.4375 -10.859375 L 8.640625 -10.859375 C 9.484375 -10.859375 9.90625 -11.375 9.90625 -12.40625 L 9.90625 -29.03125 C 9.90625 -30.175781 9.390625 -30.75 8.359375 -30.75 L 4.421875 -30.75 L 4.421875 -41.609375 L 13.8125 -41.609375 C 18.050781 -41.609375 20.171875 -39.414062 20.171875 -35.03125 Z M 20.171875 -6.53125 "/></g></g><g transform="translate(707.134982, 389.878299)"><g><path d="M 11.953125 0 L 1.796875 0 L 1.796875 -41.609375 L 11.953125 -41.609375 Z M 11.953125 0 "/></g></g><g transform="translate(720.874428, 389.878299)"><g><path d="M 11.8125 -23.15625 L 1.71875 -23.15625 L 1.71875 -41.609375 L 11.8125 -41.609375 Z M 11.8125 -23.15625 "/></g></g><g transform="translate(734.473317, 389.878299)"><g><path d="M 24.84375 -15.046875 C 24.84375 -5.015625 20.039062 0 10.4375 0 L 6.046875 0 L 6.046875 -10.859375 L 9 -10.859375 C 11.269531 -10.859375 12.816406 -11.582031 13.640625 -13.03125 C 14.222656 -14.0625 14.515625 -15.851562 14.515625 -18.40625 L 14.515625 -29.03125 C 14.515625 -30.175781 13.925781 -30.75 12.75 -30.75 L 1.796875 -30.75 L 1.796875 -46.765625 L 11.984375 -46.765625 L 11.984375 -41.609375 L 19.640625 -41.609375 C 23.109375 -41.609375 24.84375 -39.929688 24.84375 -36.578125 Z M 24.84375 -15.046875 "/></g></g><g transform="translate(761.108868, 389.878299)"><g><path d="M 27.546875 -10.96875 C 27.546875 -3.65625 24.546875 0 18.546875 0 L 1.09375 0 L 1.09375 -10.859375 L 3.546875 -10.859375 L 3.546875 -41.609375 L 13.703125 -41.609375 L 13.703125 -10.859375 L 15.75 -10.859375 C 16.914062 -10.859375 17.5 -11.664062 17.5 -13.28125 L 17.5 -41.609375 L 27.546875 -41.609375 Z M 27.546875 -10.96875 "/></g></g><g transform="translate(790.45014, 389.878299)"><g/></g><g transform="translate(806.36822, 389.878299)"><g><path d="M 28.78125 0 L 18.625 0 L 18.625 -28.78125 C 18.625 -30.09375 18.023438 -30.75 16.828125 -30.75 L 15.46875 -30.75 C 14.25 -30.75 13.640625 -30.09375 13.640625 -28.78125 L 13.640625 -4.984375 C 13.640625 -1.660156 12.242188 0 9.453125 0 L 0.703125 0 L 0.703125 -10.859375 L 2.453125 -10.859375 C 3.046875 -10.859375 3.34375 -11.113281 3.34375 -11.625 L 3.34375 -33.625 C 3.34375 -36.457031 3.890625 -38.5 4.984375 -39.75 C 6.085938 -40.988281 8.035156 -41.609375 10.828125 -41.609375 L 21.78125 -41.609375 C 26.445312 -41.609375 28.78125 -38.945312 28.78125 -33.625 Z M 28.78125 0 "/></g></g><g transform="translate(836.974506, 389.878299)"><g><path d="M 11.953125 0 L 1.796875 0 L 1.796875 -41.609375 L 11.953125 -41.609375 Z M 11.953125 0 "/></g></g><g transform="translate(850.713952, 389.878299)"><g><path d="M 11.59375 -29.796875 L 13.171875 -29.796875 C 14.328125 -29.796875 14.90625 -30.414062 14.90625 -31.65625 L 14.90625 -41.609375 L 24.28125 -41.609375 L 24.28125 -29.9375 C 24.28125 -25.09375 22.1875 -22.671875 18 -22.671875 L 11.59375 -22.671875 L 11.59375 -12.75 C 11.59375 -11.488281 12.117188 -10.859375 13.171875 -10.859375 L 26 -10.859375 C 27.03125 -10.859375 27.546875 -11.488281 27.546875 -12.75 L 27.546875 -41.609375 L 37.390625 -41.609375 L 37.390625 -9.453125 C 37.390625 -6.597656 36.648438 -4.328125 35.171875 -2.640625 C 33.628906 -0.878906 31.441406 0 28.609375 0 L 10.578125 0 C 4.722656 0 1.796875 -3.148438 1.796875 -9.453125 L 1.796875 -41.609375 L 11.59375 -41.609375 Z M 11.59375 -29.796875 "/></g></g><g transform="translate(889.894214, 389.878299)"><g><path d="M 22.28125 0 L 11.984375 0 L 11.984375 -29.03125 C 11.984375 -30.175781 11.382812 -30.75 10.1875 -30.75 L 1.09375 -30.75 L 1.09375 -41.609375 L 14.9375 -41.609375 C 17.09375 -41.609375 18.859375 -40.914062 20.234375 -39.53125 C 21.597656 -38.175781 22.28125 -36.410156 22.28125 -34.234375 Z M 22.28125 0 "/></g></g><g transform="translate(913.964599, 389.878299)"><g/></g><g transform="translate(929.882679, 389.878299)"><g><path d="M 28.78125 0 L 18.625 0 L 18.625 -28.78125 C 18.625 -30.09375 18.023438 -30.75 16.828125 -30.75 L 15.46875 -30.75 C 14.25 -30.75 13.640625 -30.09375 13.640625 -28.78125 L 13.640625 -4.984375 C 13.640625 -1.660156 12.242188 0 9.453125 0 L 0.703125 0 L 0.703125 -10.859375 L 2.453125 -10.859375 C 3.046875 -10.859375 3.34375 -11.113281 3.34375 -11.625 L 3.34375 -33.625 C 3.34375 -36.457031 3.890625 -38.5 4.984375 -39.75 C 6.085938 -40.988281 8.035156 -41.609375 10.828125 -41.609375 L 21.78125 -41.609375 C 26.445312 -41.609375 28.78125 -38.945312 28.78125 -33.625 Z M 28.78125 0 "/></g></g><g transform="translate(960.488965, 389.878299)"><g><path d="M 29.40625 -7.484375 C 29.40625 -2.492188 27.144531 0 22.625 0 L 15.46875 0 L 15.46875 -10.890625 L 17.609375 -10.890625 C 18.660156 -10.890625 19.1875 -11.523438 19.1875 -12.796875 L 19.1875 -28.640625 C 19.1875 -29.898438 18.867188 -30.53125 18.234375 -30.53125 C 17.609375 -30.53125 17.175781 -29.816406 16.9375 -28.390625 L 11.84375 0 L 1.796875 0 L 6.078125 -23.234375 L 4.078125 -23.234375 C 2.503906 -23.234375 1.71875 -24.003906 1.71875 -25.546875 L 1.71875 -41.609375 L 11.90625 -41.609375 L 11.90625 -26.921875 L 13.953125 -34.96875 C 15.078125 -39.394531 17.5 -41.609375 21.21875 -41.609375 L 21.75 -41.609375 C 26.851562 -41.609375 29.40625 -38.492188 29.40625 -32.265625 Z M 29.40625 -7.484375 "/></g></g><g transform="translate(991.692617, 389.878299)"><g><path d="M 26.953125 -12.859375 C 26.953125 -8.617188 26.257812 -5.492188 24.875 -3.484375 C 23.1875 -1.085938 20.316406 0.109375 16.265625 0.109375 C 15.546875 0.109375 14.785156 0.0703125 13.984375 0 L 13.984375 -10.859375 C 15.765625 -10.859375 16.65625 -12.171875 16.65625 -14.796875 L 16.65625 -29.03125 C 16.65625 -30.175781 16.054688 -30.75 14.859375 -30.75 L 1.796875 -30.75 L 1.796875 -41.609375 L 21.75 -41.609375 C 25.21875 -41.609375 26.953125 -39.929688 26.953125 -36.578125 Z M 12.015625 6.015625 L 1.859375 6.015625 L 1.859375 -26.1875 L 12.015625 -26.1875 Z M 12.015625 6.015625 "/></g></g><g transform="translate(1020.471662, 389.878299)"><g><path d="M 26.671875 0 L 16.34375 0 L 16.34375 -29.03125 C 16.34375 -30.175781 15.753906 -30.75 14.578125 -30.75 L 1.796875 -30.75 L 1.796875 -41.609375 L 19.328125 -41.609375 C 21.484375 -41.609375 23.253906 -40.914062 24.640625 -39.53125 C 25.992188 -38.175781 26.671875 -36.410156 26.671875 -34.234375 Z M 11.953125 0 L 1.828125 0 L 1.828125 -25.796875 L 11.953125 -25.796875 Z M 11.953125 0 "/></g></g></g><g fill="#cf4545" fill-opacity="1"><g transform="translate(147.366753, 464.84203)"><g><path d="M 27.125 0 L 16.9375 0 L 16.9375 -28.78125 C 16.9375 -30.09375 16.335938 -30.75 15.140625 -30.75 L 13.921875 -30.75 C 12.722656 -30.75 12.125 -30.09375 12.125 -28.78125 L 12.125 0 L 1.796875 0 L 1.796875 -34.328125 C 1.796875 -36.929688 2.226562 -38.75 3.09375 -39.78125 C 4.070312 -41 5.828125 -41.609375 8.359375 -41.609375 L 20.09375 -41.609375 C 24.78125 -41.609375 27.125 -39.179688 27.125 -34.328125 Z M 27.125 0 "/></g></g><g transform="translate(176.286354, 464.84203)"><g><path d="M 17.296875 -39.21875 C 17.296875 -37.195312 16.425781 -35.253906 14.6875 -33.390625 C 13.257812 -31.835938 11.628906 -30.648438 9.796875 -29.828125 L 9.796875 -47.6875 L 17.296875 -47.6875 Z M 8.125 -39.21875 C 8.125 -35.519531 5.648438 -32.390625 0.703125 -29.828125 L 0.703125 -47.6875 L 8.125 -47.6875 Z M 8.125 -39.21875 "/></g></g><g transform="translate(194.27765, 464.84203)"><g><path d="M 24.84375 -15.046875 C 24.84375 -5.015625 20.039062 0 10.4375 0 L 6.046875 0 L 6.046875 -10.859375 L 9 -10.859375 C 11.269531 -10.859375 12.816406 -11.582031 13.640625 -13.03125 C 14.222656 -14.0625 14.515625 -15.851562 14.515625 -18.40625 L 14.515625 -29.03125 C 14.515625 -30.175781 13.925781 -30.75 12.75 -30.75 L 1.796875 -30.75 L 1.796875 -46.765625 L 11.984375 -46.765625 L 11.984375 -41.609375 L 19.640625 -41.609375 C 23.109375 -41.609375 24.84375 -39.929688 24.84375 -36.578125 Z M 24.84375 -15.046875 "/></g></g><g transform="translate(220.9132, 464.84203)"><g><path d="M 29.40625 -7.484375 C 29.40625 -2.492188 27.144531 0 22.625 0 L 15.46875 0 L 15.46875 -10.890625 L 17.609375 -10.890625 C 18.660156 -10.890625 19.1875 -11.523438 19.1875 -12.796875 L 19.1875 -28.640625 C 19.1875 -29.898438 18.867188 -30.53125 18.234375 -30.53125 C 17.609375 -30.53125 17.175781 -29.816406 16.9375 -28.390625 L 11.84375 0 L 1.796875 0 L 6.078125 -23.234375 L 4.078125 -23.234375 C 2.503906 -23.234375 1.71875 -24.003906 1.71875 -25.546875 L 1.71875 -41.609375 L 11.90625 -41.609375 L 11.90625 -26.921875 L 13.953125 -34.96875 C 15.078125 -39.394531 17.5 -41.609375 21.21875 -41.609375 L 21.75 -41.609375 C 26.851562 -41.609375 29.40625 -38.492188 29.40625 -32.265625 Z M 29.40625 -7.484375 "/></g></g><g transform="translate(252.116853, 464.84203)"><g/></g><g transform="translate(268.034933, 464.84203)"><g><path d="M 22.28125 5.90625 L 11.984375 5.90625 L 11.984375 -29.03125 C 11.984375 -30.175781 11.382812 -30.75 10.1875 -30.75 L 1.09375 -30.75 L 1.09375 -41.609375 L 14.9375 -41.609375 C 17.09375 -41.609375 18.859375 -40.914062 20.234375 -39.53125 C 21.597656 -38.175781 22.28125 -36.410156 22.28125 -34.234375 Z M 22.28125 5.90625 "/></g></g><g transform="translate(292.105318, 464.84203)"><g><path d="M 22.28125 0 L 11.984375 0 L 11.984375 -29.03125 C 11.984375 -30.175781 11.382812 -30.75 10.1875 -30.75 L 1.09375 -30.75 L 1.09375 -41.609375 L 14.9375 -41.609375 C 17.09375 -41.609375 18.859375 -40.914062 20.234375 -39.53125 C 21.597656 -38.175781 22.28125 -36.410156 22.28125 -34.234375 Z M 22.28125 0 "/></g></g><g transform="translate(316.175704, 464.84203)"><g><path d="M 27.546875 -10.96875 C 27.546875 -3.65625 24.546875 0 18.546875 0 L 1.09375 0 L 1.09375 -10.859375 L 3.546875 -10.859375 L 3.546875 -41.609375 L 13.703125 -41.609375 L 13.703125 -10.859375 L 15.75 -10.859375 C 16.914062 -10.859375 17.5 -11.664062 17.5 -13.28125 L 17.5 -41.609375 L 27.546875 -41.609375 Z M 27.546875 -10.96875 "/></g></g><g transform="translate(345.516976, 464.84203)"><g><path d="M 29.40625 -7.484375 C 29.40625 -2.492188 27.144531 0 22.625 0 L 15.46875 0 L 15.46875 -10.890625 L 17.609375 -10.890625 C 18.660156 -10.890625 19.1875 -11.523438 19.1875 -12.796875 L 19.1875 -28.640625 C 19.1875 -29.898438 18.867188 -30.53125 18.234375 -30.53125 C 17.609375 -30.53125 17.175781 -29.816406 16.9375 -28.390625 L 11.84375 0 L 1.796875 0 L 6.078125 -23.234375 L 4.078125 -23.234375 C 2.503906 -23.234375 1.71875 -24.003906 1.71875 -25.546875 L 1.71875 -41.609375 L 11.90625 -41.609375 L 11.90625 -26.921875 L 13.953125 -34.96875 C 15.078125 -39.394531 17.5 -41.609375 21.21875 -41.609375 L 21.75 -41.609375 C 26.851562 -41.609375 29.40625 -38.492188 29.40625 -32.265625 Z M 29.40625 -7.484375 "/></g></g><g transform="translate(376.720629, 464.84203)"><g><path d="M 25.546875 0 L 1.796875 0 L 1.796875 -10.859375 L 9.703125 -10.859375 C 12.015625 -10.859375 13.171875 -12.226562 13.171875 -14.96875 L 13.171875 -27.4375 C 13.171875 -28.65625 12.957031 -29.507812 12.53125 -30 C 12.113281 -30.5 11.3125 -30.75 10.125 -30.75 L 1.796875 -30.75 L 1.796875 -41.609375 L 15.46875 -41.609375 C 20.832031 -41.609375 23.515625 -38.429688 23.515625 -32.078125 L 23.515625 -17.859375 C 23.515625 -14.171875 22.140625 -11.835938 19.390625 -10.859375 L 25.546875 -10.859375 Z M 25.546875 0 "/></g></g><g transform="translate(403.707572, 464.84203)"><g/></g><g transform="translate(419.625651, 464.84203)"><g><path d="M 26.671875 0 L 16.34375 0 L 16.34375 -29.03125 C 16.34375 -30.175781 15.753906 -30.75 14.578125 -30.75 L 1.796875 -30.75 L 1.796875 -41.609375 L 19.328125 -41.609375 C 21.484375 -41.609375 23.253906 -40.914062 24.640625 -39.53125 C 25.992188 -38.175781 26.671875 -36.410156 26.671875 -34.234375 Z M 11.953125 0 L 1.828125 0 L 1.828125 -25.796875 L 11.953125 -25.796875 Z M 11.953125 0 "/></g></g><g transform="translate(448.088443, 464.84203)"><g><path d="M 25.546875 0 L 1.796875 0 L 1.796875 -10.859375 L 9.703125 -10.859375 C 12.015625 -10.859375 13.171875 -12.226562 13.171875 -14.96875 L 13.171875 -27.4375 C 13.171875 -28.65625 12.957031 -29.507812 12.53125 -30 C 12.113281 -30.5 11.3125 -30.75 10.125 -30.75 L 1.796875 -30.75 L 1.796875 -41.609375 L 15.46875 -41.609375 C 20.832031 -41.609375 23.515625 -38.429688 23.515625 -32.078125 L 23.515625 -17.859375 C 23.515625 -14.171875 22.140625 -11.835938 19.390625 -10.859375 L 25.546875 -10.859375 Z M 25.546875 0 "/></g></g><g transform="translate(475.075386, 464.84203)"><g><path d="M 11.953125 0 L 1.796875 0 L 1.796875 -41.609375 L 11.953125 -41.609375 Z M 11.953125 0 "/></g></g><g transform="translate(488.814832, 464.84203)"><g><path d="M 24.84375 -15.046875 C 24.84375 -5.015625 20.039062 0 10.4375 0 L 6.046875 0 L 6.046875 -10.859375 L 9 -10.859375 C 11.269531 -10.859375 12.816406 -11.582031 13.640625 -13.03125 C 14.222656 -14.0625 14.515625 -15.851562 14.515625 -18.40625 L 14.515625 -29.03125 C 14.515625 -30.175781 13.925781 -30.75 12.75 -30.75 L 1.796875 -30.75 L 1.796875 -46.765625 L 11.984375 -46.765625 L 11.984375 -41.609375 L 19.640625 -41.609375 C 23.109375 -41.609375 24.84375 -39.929688 24.84375 -36.578125 Z M 24.84375 -15.046875 "/></g></g><g transform="translate(515.450382, 464.84203)"><g><path d="M 11.8125 -23.15625 L 1.71875 -23.15625 L 1.71875 -41.609375 L 11.8125 -41.609375 Z M 11.8125 -23.15625 "/></g></g><g transform="translate(529.049271, 464.84203)"><g><path d="M 11.59375 -29.796875 L 13.171875 -29.796875 C 14.328125 -29.796875 14.90625 -30.414062 14.90625 -31.65625 L 14.90625 -41.609375 L 24.28125 -41.609375 L 24.28125 -29.9375 C 24.28125 -25.09375 22.1875 -22.671875 18 -22.671875 L 11.59375 -22.671875 L 11.59375 -12.75 C 11.59375 -11.488281 12.117188 -10.859375 13.171875 -10.859375 L 26 -10.859375 C 27.03125 -10.859375 27.546875 -11.488281 27.546875 -12.75 L 27.546875 -41.609375 L 37.390625 -41.609375 L 37.390625 -9.453125 C 37.390625 -6.597656 36.648438 -4.328125 35.171875 -2.640625 C 33.628906 -0.878906 31.441406 0 28.609375 0 L 10.578125 0 C 4.722656 0 1.796875 -3.148438 1.796875 -9.453125 L 1.796875 -41.609375 L 11.59375 -41.609375 Z M 11.59375 -29.796875 "/></g></g><g transform="translate(568.229533, 464.84203)"><g><path d="M 11.953125 0 L 1.796875 0 L 1.796875 -41.609375 L 11.953125 -41.609375 Z M 11.953125 0 "/></g></g><g transform="translate(581.968979, 464.84203)"><g/></g></g><g fill="#cf4545" fill-opacity="1"><g transform="translate(597.887059, 464.84203)"><g><path d="M 13.25 6.046875 L 1.4375 6.046875 L 1.4375 -49.015625 L 13.25 -49.015625 L 13.25 -40.234375 L 10.5 -40.234375 L 10.5 -2.875 L 13.25 -2.875 Z M 13.25 6.046875 "/></g></g></g><g fill="#cf4545" fill-opacity="1"><g transform="translate(612.715822, 464.84203)"><g><path d="M 27.125 0 L 16.9375 0 L 16.9375 -28.78125 C 16.9375 -30.09375 16.335938 -30.75 15.140625 -30.75 L 13.921875 -30.75 C 12.722656 -30.75 12.125 -30.09375 12.125 -28.78125 L 12.125 0 L 1.796875 0 L 1.796875 -34.328125 C 1.796875 -36.929688 2.226562 -38.75 3.09375 -39.78125 C 4.070312 -41 5.828125 -41.609375 8.359375 -41.609375 L 20.09375 -41.609375 C 24.78125 -41.609375 27.125 -39.179688 27.125 -34.328125 Z M 27.125 0 "/></g></g><g transform="translate(641.635424, 464.84203)"><g><path d="M 17.296875 -39.21875 C 17.296875 -37.195312 16.425781 -35.253906 14.6875 -33.390625 C 13.257812 -31.835938 11.628906 -30.648438 9.796875 -29.828125 L 9.796875 -47.6875 L 17.296875 -47.6875 Z M 8.125 -39.21875 C 8.125 -35.519531 5.648438 -32.390625 0.703125 -29.828125 L 0.703125 -47.6875 L 8.125 -47.6875 Z M 8.125 -39.21875 "/></g></g><g transform="translate(659.626719, 464.84203)"><g><path d="M 28.359375 -12.46875 C 28.359375 -8.394531 27.210938 -5.140625 24.921875 -2.703125 C 22.546875 -0.203125 19.347656 1.046875 15.328125 1.046875 C 11.171875 1.046875 7.878906 -0.164062 5.453125 -2.59375 C 3.015625 -5.03125 1.796875 -8.320312 1.796875 -12.46875 L 1.796875 -34.96875 C 1.796875 -36.15625 1.910156 -37.171875 2.140625 -38.015625 C 2.378906 -38.859375 2.753906 -39.546875 3.265625 -40.078125 C 3.785156 -40.609375 4.457031 -40.992188 5.28125 -41.234375 C 6.113281 -41.484375 7.128906 -41.609375 8.328125 -41.609375 L 21.75 -41.609375 C 26.15625 -41.609375 28.359375 -39.394531 28.359375 -34.96875 Z M 18.09375 -29.90625 C 18.09375 -30.46875 17.859375 -30.75 17.390625 -30.75 L 12.6875 -30.75 C 12.21875 -30.75 11.984375 -30.46875 11.984375 -29.90625 L 11.984375 -13.59375 C 11.984375 -11.039062 13.050781 -9.765625 15.1875 -9.765625 C 17.125 -9.765625 18.09375 -11.039062 18.09375 -13.59375 Z M 18.09375 -29.90625 "/></g></g><g transform="translate(689.776194, 464.84203)"><g><path d="M 26.609375 -8.078125 C 26.609375 -2.691406 23.992188 0 18.765625 0 L 1.859375 0 L 1.859375 -10.859375 L 14.4375 -10.859375 C 15.820312 -10.859375 16.515625 -11.675781 16.515625 -13.3125 L 16.515625 -29.03125 C 16.515625 -30.175781 15.988281 -30.75 14.9375 -30.75 L 13.53125 -30.75 C 12.570312 -30.75 12.09375 -30.148438 12.09375 -28.953125 L 12.09375 -22.84375 L 1.796875 -22.84375 L 1.796875 -34.234375 C 1.796875 -39.148438 4.160156 -41.609375 8.890625 -41.609375 L 19.296875 -41.609375 C 21.492188 -41.609375 23.257812 -40.925781 24.59375 -39.5625 C 25.9375 -38.1875 26.609375 -36.410156 26.609375 -34.234375 Z M 26.609375 -8.078125 "/></g></g></g><g fill="#cf4545" fill-opacity="1"><g transform="translate(718.203846, 464.84203)"><g><path d="M 13.53125 6.046875 L 1.65625 6.046875 L 1.65625 -2.875 L 4.46875 -2.875 L 4.46875 -40.234375 L 1.65625 -40.234375 L 1.65625 -49.015625 L 13.53125 -49.015625 Z M 13.53125 6.046875 "/></g></g></g><g fill="#cf4545" fill-opacity="1"><g transform="translate(733.032609, 464.84203)"><g/></g><g transform="translate(748.950689, 464.84203)"><g><path d="M 27.828125 0 L 1.796875 0 L 1.796875 -34.328125 C 1.796875 -36.929688 2.226562 -38.75 3.09375 -39.78125 C 4.070312 -41 5.828125 -41.609375 8.359375 -41.609375 L 20.796875 -41.609375 C 25.484375 -41.609375 27.828125 -39.179688 27.828125 -34.328125 Z M 17.671875 -28.78125 C 17.671875 -30.09375 17.078125 -30.75 15.890625 -30.75 L 13.921875 -30.75 C 12.722656 -30.75 12.125 -30.09375 12.125 -28.78125 L 12.125 -10.859375 L 17.671875 -10.859375 Z M 17.671875 -28.78125 "/></g></g><g transform="translate(778.573076, 464.84203)"><g><path d="M 11.953125 0 L 1.796875 0 L 1.796875 -41.609375 L 11.953125 -41.609375 Z M 11.953125 0 "/></g></g><g transform="translate(792.312522, 464.84203)"><g><path d="M 22.28125 0 L 11.984375 0 L 11.984375 -29.03125 C 11.984375 -30.175781 11.382812 -30.75 10.1875 -30.75 L 1.09375 -30.75 L 1.09375 -41.609375 L 14.9375 -41.609375 C 17.09375 -41.609375 18.859375 -40.914062 20.234375 -39.53125 C 21.597656 -38.175781 22.28125 -36.410156 22.28125 -34.234375 Z M 22.28125 0 "/></g></g><g transform="translate(816.382907, 464.84203)"><g><path d="M 11.8125 -23.15625 L 1.71875 -23.15625 L 1.71875 -41.609375 L 11.8125 -41.609375 Z M 11.8125 -23.15625 "/></g></g><g transform="translate(829.981796, 464.84203)"><g><path d="M 27.125 0 L 16.9375 0 L 16.9375 -28.78125 C 16.9375 -30.09375 16.335938 -30.75 15.140625 -30.75 L 13.921875 -30.75 C 12.722656 -30.75 12.125 -30.09375 12.125 -28.78125 L 12.125 0 L 1.796875 0 L 1.796875 -34.328125 C 1.796875 -36.929688 2.226562 -38.75 3.09375 -39.78125 C 4.070312 -41 5.828125 -41.609375 8.359375 -41.609375 L 20.09375 -41.609375 C 24.78125 -41.609375 27.125 -39.179688 27.125 -34.328125 Z M 27.125 0 "/></g></g><g transform="translate(858.901398, 464.84203)"><g/></g><g transform="translate(874.819478, 464.84203)"><g><path d="M 28.78125 0 L 18.625 0 L 18.625 -28.78125 C 18.625 -30.09375 18.023438 -30.75 16.828125 -30.75 L 15.46875 -30.75 C 14.25 -30.75 13.640625 -30.09375 13.640625 -28.78125 L 13.640625 -4.984375 C 13.640625 -1.660156 12.242188 0 9.453125 0 L 0.703125 0 L 0.703125 -10.859375 L 2.453125 -10.859375 C 3.046875 -10.859375 3.34375 -11.113281 3.34375 -11.625 L 3.34375 -33.625 C 3.34375 -36.457031 3.890625 -38.5 4.984375 -39.75 C 6.085938 -40.988281 8.035156 -41.609375 10.828125 -41.609375 L 21.78125 -41.609375 C 26.445312 -41.609375 28.78125 -38.945312 28.78125 -33.625 Z M 28.78125 0 "/></g></g><g transform="translate(905.425763, 464.84203)"><g><path d="M 27.546875 -10.96875 C 27.546875 -3.65625 24.546875 0 18.546875 0 L 1.09375 0 L 1.09375 -10.859375 L 3.546875 -10.859375 L 3.546875 -41.609375 L 13.703125 -41.609375 L 13.703125 -10.859375 L 15.75 -10.859375 C 16.914062 -10.859375 17.5 -11.664062 17.5 -13.28125 L 17.5 -41.609375 L 27.546875 -41.609375 Z M 27.546875 -10.96875 "/></g></g><g transform="translate(934.767036, 464.84203)"><g><path d="M 11.59375 -29.796875 L 13.171875 -29.796875 C 14.328125 -29.796875 14.90625 -30.414062 14.90625 -31.65625 L 14.90625 -41.609375 L 24.28125 -41.609375 L 24.28125 -29.9375 C 24.28125 -25.09375 22.1875 -22.671875 18 -22.671875 L 11.59375 -22.671875 L 11.59375 -12.75 C 11.59375 -11.488281 12.117188 -10.859375 13.171875 -10.859375 L 26 -10.859375 C 27.03125 -10.859375 27.546875 -11.488281 27.546875 -12.75 L 27.546875 -41.609375 L 37.390625 -41.609375 L 37.390625 -9.453125 C 37.390625 -6.597656 36.648438 -4.328125 35.171875 -2.640625 C 33.628906 -0.878906 31.441406 0 28.609375 0 L 10.578125 0 C 4.722656 0 1.796875 -3.148438 1.796875 -9.453125 L 1.796875 -41.609375 L 11.59375 -41.609375 Z M 11.59375 -29.796875 "/></g></g><g transform="translate(973.947297, 464.84203)"><g><path d="M 25.546875 0 L 1.796875 0 L 1.796875 -10.859375 L 9.703125 -10.859375 C 12.015625 -10.859375 13.171875 -12.226562 13.171875 -14.96875 L 13.171875 -27.4375 C 13.171875 -28.65625 12.957031 -29.507812 12.53125 -30 C 12.113281 -30.5 11.3125 -30.75 10.125 -30.75 L 1.796875 -30.75 L 1.796875 -41.609375 L 15.46875 -41.609375 C 20.832031 -41.609375 23.515625 -38.429688 23.515625 -32.078125 L 23.515625 -17.859375 C 23.515625 -14.171875 22.140625 -11.835938 19.390625 -10.859375 L 25.546875 -10.859375 Z M 25.546875 0 "/></g></g></g><path stroke-linecap="butt" transform="matrix(0.749637, 0, 0, 0.749637, 276.977418, 305.019357)" fill="none" stroke-linejoin="miter" d="M -0.0011413 4.50241 L 681.599312 4.50241 " stroke="#cf4545" stroke-width="9" stroke-opacity="1" stroke-miterlimit="4"/><g fill="#cf4545" fill-opacity="1"><g transform="translate(157.185867, 265.63656)"><g><path d="M 28.84375 -8.859375 C 28.84375 -2.953125 25.835938 0 19.828125 0 L 11.28125 0 C 8.550781 0 6.390625 -0.789062 4.796875 -2.375 C 3.179688 -3.988281 2.375 -6.148438 2.375 -8.859375 L 2.375 -37.328125 C 2.375 -43.253906 5.046875 -46.21875 10.390625 -46.21875 L 27.25 -46.21875 L 27.25 -34.125 L 13.65625 -34.125 L 13.65625 -28.6875 L 20.6875 -28.6875 C 26.125 -28.6875 28.84375 -25.992188 28.84375 -20.609375 Z M 17.609375 -12.0625 L 17.609375 -16.625 L 13.65625 -16.625 L 13.65625 -12.0625 Z M 17.609375 -12.0625 "/></g></g></g><g fill="#cf4545" fill-opacity="1"><g transform="translate(188.378664, 265.63656)"><g><path d="M 28.609375 0 L 3.4375 0 L 3.4375 -5.109375 C 3.4375 -9.429688 4.828125 -13.085938 7.609375 -16.078125 L 13.34375 -22.21875 C 14.101562 -23.050781 14.71875 -23.71875 15.1875 -24.21875 C 15.65625 -24.726562 15.953125 -25.085938 16.078125 -25.296875 C 16.910156 -26.515625 17.328125 -27.84375 17.328125 -29.28125 L 17.328125 -34.125 L 13.890625 -34.125 L 13.890625 -29.59375 L 2.65625 -29.59375 L 2.65625 -37.328125 C 2.65625 -39.867188 3.671875 -42 5.703125 -43.71875 C 7.597656 -45.382812 9.847656 -46.21875 12.453125 -46.21875 L 19.75 -46.21875 C 25.65625 -46.21875 28.609375 -43.253906 28.609375 -37.328125 L 28.609375 -28.765625 C 28.609375 -25.046875 26.957031 -21.300781 23.65625 -17.53125 L 18.859375 -12.0625 L 28.609375 -12.0625 Z M 28.609375 0 "/></g></g></g><g fill="#cf4545" fill-opacity="1"><g transform="translate(219.571461, 265.63656)"><g><path d="M 24.328125 0 L 12.96875 0 L 12.96875 -34.125 L 5.265625 -34.125 L 5.265625 -46.21875 L 15.5 -46.21875 C 21.382812 -46.21875 24.328125 -43.253906 24.328125 -37.328125 Z M 24.328125 0 "/></g></g></g><g fill="#cf4545" fill-opacity="1"><g transform="translate(250.773399, 265.63656)"><g/></g></g><g fill="#cf4545" fill-opacity="1"><g transform="translate(268.458427, 265.63656)"><g><path d="M 29.625 0 L 18.15625 0 L 18.15625 -32.25 C 18.15625 -33.519531 17.503906 -34.15625 16.203125 -34.15625 L 1.984375 -34.15625 L 1.984375 -46.21875 L 21.46875 -46.21875 C 23.863281 -46.21875 25.828125 -45.453125 27.359375 -43.921875 C 28.867188 -42.410156 29.625 -40.445312 29.625 -38.03125 Z M 13.28125 0 L 2.03125 0 L 2.03125 -28.65625 L 13.28125 -28.65625 Z M 13.28125 0 "/></g></g></g><g fill="#cf4545" fill-opacity="1"><g transform="translate(300.080662, 265.63656)"><g><path d="M 27.59375 -16.703125 C 27.59375 -5.566406 22.257812 0 11.59375 0 L 6.71875 0 L 6.71875 -12.0625 L 10 -12.0625 C 12.519531 -12.0625 14.234375 -12.867188 15.140625 -14.484375 C 15.796875 -15.628906 16.125 -17.617188 16.125 -20.453125 L 16.125 -32.25 C 16.125 -33.519531 15.472656 -34.15625 14.171875 -34.15625 L 1.984375 -34.15625 L 1.984375 -51.96875 L 13.3125 -51.96875 L 13.3125 -46.21875 L 21.828125 -46.21875 C 25.671875 -46.21875 27.59375 -44.359375 27.59375 -40.640625 Z M 27.59375 -16.703125 "/></g></g></g><g fill="#cf4545" fill-opacity="1"><g transform="translate(329.672828, 265.63656)"><g><path d="M 12.890625 -33.109375 L 14.640625 -33.109375 C 15.910156 -33.109375 16.546875 -33.796875 16.546875 -35.171875 L 16.546875 -46.21875 L 26.96875 -46.21875 L 26.96875 -33.265625 C 26.96875 -27.878906 24.640625 -25.1875 19.984375 -25.1875 L 12.890625 -25.1875 L 12.890625 -14.171875 C 12.890625 -12.765625 13.472656 -12.0625 14.640625 -12.0625 L 28.890625 -12.0625 C 30.035156 -12.0625 30.609375 -12.765625 30.609375 -14.171875 L 30.609375 -46.21875 L 41.53125 -46.21875 L 41.53125 -10.5 C 41.53125 -7.320312 40.710938 -4.796875 39.078125 -2.921875 C 37.359375 -0.972656 34.925781 0 31.78125 0 L 11.75 0 C 5.238281 0 1.984375 -3.5 1.984375 -10.5 L 1.984375 -46.21875 L 12.890625 -46.21875 Z M 12.890625 -33.109375 "/></g></g></g><g fill="#cf4545" fill-opacity="1"><g transform="translate(373.2022, 265.63656)"><g><path d="M 32.671875 -8.3125 C 32.671875 -2.769531 30.160156 0 25.140625 0 L 17.171875 0 L 17.171875 -12.109375 L 19.5625 -12.109375 C 20.726562 -12.109375 21.3125 -12.804688 21.3125 -14.203125 L 21.3125 -31.8125 C 21.3125 -33.21875 20.960938 -33.921875 20.265625 -33.921875 C 19.554688 -33.921875 19.070312 -33.128906 18.8125 -31.546875 L 13.15625 0 L 1.984375 0 L 6.75 -25.8125 L 4.53125 -25.8125 C 2.78125 -25.8125 1.90625 -26.664062 1.90625 -28.375 L 1.90625 -46.21875 L 13.234375 -46.21875 L 13.234375 -29.90625 L 15.5 -38.84375 C 16.75 -43.757812 19.441406 -46.21875 23.578125 -46.21875 L 24.171875 -46.21875 C 29.835938 -46.21875 32.671875 -42.757812 32.671875 -35.84375 Z M 32.671875 -8.3125 "/></g></g></g><g fill="#cf4545" fill-opacity="1"><g transform="translate(407.86954, 265.63656)"><g><path d="M 32.671875 -8.3125 C 32.671875 -2.769531 30.160156 0 25.140625 0 L 17.171875 0 L 17.171875 -12.109375 L 19.5625 -12.109375 C 20.726562 -12.109375 21.3125 -12.804688 21.3125 -14.203125 L 21.3125 -31.8125 C 21.3125 -33.21875 20.960938 -33.921875 20.265625 -33.921875 C 19.554688 -33.921875 19.070312 -33.128906 18.8125 -31.546875 L 13.15625 0 L 1.984375 0 L 6.75 -25.8125 L 4.53125 -25.8125 C 2.78125 -25.8125 1.90625 -26.664062 1.90625 -28.375 L 1.90625 -46.21875 L 13.234375 -46.21875 L 13.234375 -29.90625 L 15.5 -38.84375 C 16.75 -43.757812 19.441406 -46.21875 23.578125 -46.21875 L 24.171875 -46.21875 C 29.835938 -46.21875 32.671875 -42.757812 32.671875 -35.84375 Z M 32.671875 -8.3125 "/></g></g></g><g fill="#cf4545" fill-opacity="1"><g transform="translate(442.536879, 265.63656)"><g/></g></g><g fill="#cf4545" fill-opacity="1"><g transform="translate(460.221895, 265.63656)"><g><path d="M 31.96875 0 L 20.6875 0 L 20.6875 -31.96875 C 20.6875 -33.425781 20.023438 -34.15625 18.703125 -34.15625 L 17.171875 -34.15625 C 15.816406 -34.15625 15.140625 -33.425781 15.140625 -31.96875 L 15.140625 -5.546875 C 15.140625 -1.847656 13.59375 0 10.5 0 L 0.78125 0 L 0.78125 -12.0625 L 2.734375 -12.0625 C 3.378906 -12.0625 3.703125 -12.347656 3.703125 -12.921875 L 3.703125 -37.359375 C 3.703125 -40.503906 4.316406 -42.769531 5.546875 -44.15625 C 6.765625 -45.53125 8.925781 -46.21875 12.03125 -46.21875 L 24.203125 -46.21875 C 29.378906 -46.21875 31.96875 -43.265625 31.96875 -37.359375 Z M 31.96875 0 "/></g></g></g><g fill="#cf4545" fill-opacity="1"><g transform="translate(494.225569, 265.63656)"><g><path d="M 31.234375 -8.90625 C 31.234375 -2.96875 28.785156 0 23.890625 0 L 9.328125 0 C 6.859375 0 4.984375 -0.894531 3.703125 -2.6875 C 2.554688 -4.300781 1.984375 -6.375 1.984375 -8.90625 L 1.984375 -46.21875 L 13.234375 -46.21875 L 13.234375 -31.65625 L 15.453125 -39.546875 C 16.703125 -43.992188 18.984375 -46.21875 22.296875 -46.21875 L 24.59375 -46.21875 C 29.019531 -46.21875 31.234375 -43.8125 31.234375 -39 Z M 20.03125 -33.109375 C 20.03125 -33.597656 19.925781 -33.84375 19.71875 -33.84375 C 19.5625 -33.84375 19.429688 -33.632812 19.328125 -33.21875 L 17.6875 -27.09375 L 13.234375 -27.09375 L 13.234375 -14.171875 C 13.234375 -12.765625 13.804688 -12.0625 14.953125 -12.0625 L 18.265625 -12.0625 C 19.441406 -12.0625 20.03125 -12.765625 20.03125 -14.171875 Z M 20.03125 -33.109375 "/></g></g></g><g fill="#cf4545" fill-opacity="1"><g transform="translate(527.448448, 265.63656)"><g><path d="M 27.59375 -16.703125 C 27.59375 -5.566406 22.257812 0 11.59375 0 L 6.71875 0 L 6.71875 -12.0625 L 10 -12.0625 C 12.519531 -12.0625 14.234375 -12.867188 15.140625 -14.484375 C 15.796875 -15.628906 16.125 -17.617188 16.125 -20.453125 L 16.125 -32.25 C 16.125 -33.519531 15.472656 -34.15625 14.171875 -34.15625 L 1.984375 -34.15625 L 1.984375 -51.96875 L 13.3125 -51.96875 L 13.3125 -46.21875 L 21.828125 -46.21875 C 25.671875 -46.21875 27.59375 -44.359375 27.59375 -40.640625 Z M 27.59375 -16.703125 "/></g></g></g><g fill="#cf4545" fill-opacity="1"><g transform="translate(557.040614, 265.63656)"><g><path d="M 30.140625 0 L 18.8125 0 L 18.8125 -31.96875 C 18.8125 -33.425781 18.148438 -34.15625 16.828125 -34.15625 L 15.453125 -34.15625 C 14.128906 -34.15625 13.46875 -33.425781 13.46875 -31.96875 L 13.46875 0 L 1.984375 0 L 1.984375 -38.140625 C 1.984375 -41.023438 2.46875 -43.039062 3.4375 -44.1875 C 4.53125 -45.539062 6.484375 -46.21875 9.296875 -46.21875 L 22.328125 -46.21875 C 27.535156 -46.21875 30.140625 -43.523438 30.140625 -38.140625 Z M 30.140625 0 "/></g></g></g><g fill="#cf4545" fill-opacity="1"><g transform="translate(589.170355, 265.63656)"><g><path d="M 29.625 0 L 18.15625 0 L 18.15625 -32.25 C 18.15625 -33.519531 17.503906 -34.15625 16.203125 -34.15625 L 1.984375 -34.15625 L 1.984375 -46.21875 L 21.46875 -46.21875 C 23.863281 -46.21875 25.828125 -45.453125 27.359375 -43.921875 C 28.867188 -42.410156 29.625 -40.445312 29.625 -38.03125 Z M 13.28125 0 L 2.03125 0 L 2.03125 -28.65625 L 13.28125 -28.65625 Z M 13.28125 0 "/></g></g></g><g fill="#cf4545" fill-opacity="1"><g transform="translate(620.79259, 265.63656)"><g/></g></g><g fill="#cf4545" fill-opacity="1"><g transform="translate(638.477629, 265.63656)"><g><path d="M 21.515625 -16.546875 L 2.375 -16.546875 L 2.375 -28.609375 L 21.515625 -28.609375 Z M 21.515625 -16.546875 "/></g></g></g><g fill="#cf4545" fill-opacity="1"><g transform="translate(662.369985, 265.63656)"><g/></g></g><g fill="#cf4545" fill-opacity="1"><g transform="translate(680.057885, 265.63656)"><g><path d="M 24.328125 0 L 12.96875 0 L 12.96875 -34.125 L 5.265625 -34.125 L 5.265625 -46.21875 L 15.5 -46.21875 C 21.382812 -46.21875 24.328125 -43.253906 24.328125 -37.328125 Z M 24.328125 0 "/></g></g></g><g fill="#cf4545" fill-opacity="1"><g transform="translate(711.250682, 265.63656)"><g><path d="M 29.28125 -8.859375 C 29.28125 -2.953125 26.3125 0 20.375 0 L 10.890625 0 C 8.285156 0 6.148438 -0.832031 4.484375 -2.5 C 2.816406 -4.164062 1.984375 -6.285156 1.984375 -8.859375 L 1.984375 -17.09375 C 1.984375 -20.53125 3.613281 -22.820312 6.875 -23.96875 C 5.3125 -24.101562 4.085938 -24.804688 3.203125 -26.078125 C 2.390625 -27.273438 1.984375 -28.679688 1.984375 -30.296875 L 1.984375 -37.328125 C 1.984375 -39.765625 2.832031 -41.859375 4.53125 -43.609375 C 6.195312 -45.347656 8.28125 -46.21875 10.78125 -46.21875 L 20.375 -46.21875 C 26.3125 -46.21875 29.28125 -43.253906 29.28125 -37.328125 L 29.28125 -30.609375 C 29.28125 -29.046875 28.757812 -27.65625 27.71875 -26.4375 C 26.65625 -25.207031 25.378906 -24.382812 23.890625 -23.96875 C 27.484375 -23.132812 29.28125 -20.816406 29.28125 -17.015625 Z M 18 -28.765625 L 18 -34.125 L 13.28125 -34.125 L 13.28125 -28.765625 Z M 18 -12.0625 L 18 -19.203125 L 13.28125 -19.203125 L 13.28125 -12.0625 Z M 18 -12.0625 "/></g></g></g><g fill="#cf4545" fill-opacity="1"><g transform="translate(742.44348, 265.63656)"><g><path d="M 12.140625 0 L 1.59375 0 L 1.59375 -11.4375 L 12.140625 -11.4375 Z M 12.140625 0 "/></g></g></g><g fill="#cf4545" fill-opacity="1"><g transform="translate(756.029329, 265.63656)"><g><path d="M 29.203125 -8.859375 C 29.203125 -6.046875 28.40625 -3.863281 26.8125 -2.3125 C 25.226562 -0.769531 23.03125 0 20.21875 0 L 11.046875 0 C 8.597656 0 6.488281 -0.867188 4.71875 -2.609375 C 2.945312 -4.378906 2.0625 -6.460938 2.0625 -8.859375 L 2.0625 -37.328125 C 2.0625 -40.160156 2.847656 -42.347656 4.421875 -43.890625 C 6.003906 -45.441406 8.210938 -46.21875 11.046875 -46.21875 L 20.21875 -46.21875 C 23.03125 -46.21875 25.226562 -45.4375 26.8125 -43.875 C 28.40625 -42.3125 29.203125 -40.128906 29.203125 -37.328125 Z M 17.84375 -12.0625 L 17.84375 -34.125 L 13.34375 -34.125 L 13.34375 -12.0625 Z M 17.84375 -12.0625 "/></g></g></g><g fill="#cf4545" fill-opacity="1"><g transform="translate(787.222126, 265.63656)"><g><path d="M 29.28125 -8.859375 C 29.28125 -2.953125 26.3125 0 20.375 0 L 10.890625 0 C 8.285156 0 6.148438 -0.832031 4.484375 -2.5 C 2.816406 -4.164062 1.984375 -6.285156 1.984375 -8.859375 L 1.984375 -17.09375 C 1.984375 -20.53125 3.613281 -22.820312 6.875 -23.96875 C 5.3125 -24.101562 4.085938 -24.804688 3.203125 -26.078125 C 2.390625 -27.273438 1.984375 -28.679688 1.984375 -30.296875 L 1.984375 -37.328125 C 1.984375 -39.765625 2.832031 -41.859375 4.53125 -43.609375 C 6.195312 -45.347656 8.28125 -46.21875 10.78125 -46.21875 L 20.375 -46.21875 C 26.3125 -46.21875 29.28125 -43.253906 29.28125 -37.328125 L 29.28125 -30.609375 C 29.28125 -29.046875 28.757812 -27.65625 27.71875 -26.4375 C 26.65625 -25.207031 25.378906 -24.382812 23.890625 -23.96875 C 27.484375 -23.132812 29.28125 -20.816406 29.28125 -17.015625 Z M 18 -28.765625 L 18 -34.125 L 13.28125 -34.125 L 13.28125 -28.765625 Z M 18 -12.0625 L 18 -19.203125 L 13.28125 -19.203125 L 13.28125 -12.0625 Z M 18 -12.0625 "/></g></g></g><g fill="#cf4545" fill-opacity="1"><g transform="translate(818.414923, 265.63656)"><g><path d="M 12.140625 0 L 1.59375 0 L 1.59375 -11.4375 L 12.140625 -11.4375 Z M 12.140625 0 "/></g></g></g><g fill="#cf4545" fill-opacity="1"><g transform="translate(832.000773, 265.63656)"><g><path d="M 24.328125 0 L 12.96875 0 L 12.96875 -34.125 L 5.265625 -34.125 L 5.265625 -46.21875 L 15.5 -46.21875 C 21.382812 -46.21875 24.328125 -43.253906 24.328125 -37.328125 Z M 24.328125 0 "/></g></g></g><g fill="#cf4545" fill-opacity="1"><g transform="translate(863.19357, 265.63656)"><g><path d="M 28.84375 -8.859375 C 28.84375 -2.953125 26.148438 0 20.765625 0 L 3.984375 0 L 3.984375 -12.0625 L 17.609375 -12.0625 L 17.609375 -17.53125 L 10.46875 -17.53125 C 5.070312 -17.53125 2.375 -20.484375 2.375 -26.390625 L 2.375 -37.328125 C 2.375 -43.253906 5.367188 -46.21875 11.359375 -46.21875 L 19.90625 -46.21875 C 22.613281 -46.21875 24.773438 -45.410156 26.390625 -43.796875 C 28.023438 -42.179688 28.84375 -40.023438 28.84375 -37.328125 Z M 17.609375 -27.984375 L 17.609375 -34.125 L 13.65625 -34.125 L 13.65625 -27.984375 Z M 17.609375 -27.984375 "/></g></g></g><g fill="#cf4545" fill-opacity="1"><g transform="translate(894.386367, 265.63656)"><g><path d="M 28.84375 -8.859375 C 28.84375 -2.953125 25.835938 0 19.828125 0 L 11.28125 0 C 8.550781 0 6.390625 -0.789062 4.796875 -2.375 C 3.179688 -3.988281 2.375 -6.148438 2.375 -8.859375 L 2.375 -37.328125 C 2.375 -43.253906 5.046875 -46.21875 10.390625 -46.21875 L 27.25 -46.21875 L 27.25 -34.125 L 13.65625 -34.125 L 13.65625 -28.6875 L 20.6875 -28.6875 C 26.125 -28.6875 28.84375 -25.992188 28.84375 -20.609375 Z M 17.609375 -12.0625 L 17.609375 -16.625 L 13.65625 -16.625 L 13.65625 -12.0625 Z M 17.609375 -12.0625 "/></g></g></g><g fill="#cf4545" fill-opacity="1"><g transform="translate(925.579153, 265.63656)"><g><path d="M 28.921875 -8.859375 C 28.921875 -2.953125 26.503906 0 21.671875 0 L 3.046875 0 L 3.046875 -12.0625 L 17.765625 -12.0625 L 17.765625 -17.40625 L 6.71875 -17.40625 L 11.828125 -34.125 L 3.046875 -34.125 L 3.046875 -46.21875 L 28.140625 -46.21875 L 22.296875 -28.6875 C 26.710938 -28.6875 28.921875 -25.941406 28.921875 -20.453125 Z M 28.921875 -8.859375 "/></g></g></g></svg>