<svg xmlns="http://www.w3.org/2000/svg" xmlns:xlink="http://www.w3.org/1999/xlink" width="1486" zoomAndPan="magnify" viewBox="0 0 1114.5 516.750002" height="689" preserveAspectRatio="xMidYMid meet" version="1.0"><defs><g/><clipPath id="1e3e7a4c11"><path d="M 0.0195312 0 L 1113.980469 0 L 1113.980469 516.332031 L 0.0195312 516.332031 Z M 0.0195312 0 " clip-rule="nonzero"/></clipPath><clipPath id="fc3dca7f52"><path d="M 38.25 0 L 1075.71875 0 C 1085.859375 0 1095.582031 4.027344 1102.753906 11.199219 C 1109.921875 18.367188 1113.949219 28.09375 1113.949219 38.230469 L 1113.949219 478.101562 C 1113.949219 488.242188 1109.921875 497.964844 1102.753906 505.136719 C 1095.582031 512.304688 1085.859375 516.332031 1075.71875 516.332031 L 38.25 516.332031 C 28.113281 516.332031 18.386719 512.304688 11.21875 505.136719 C 4.046875 497.964844 0.0195312 488.242188 0.0195312 478.101562 L 0.0195312 38.230469 C 0.0195312 28.09375 4.046875 18.367188 11.21875 11.199219 C 18.386719 4.027344 28.113281 0 38.25 0 Z M 38.25 0 " clip-rule="nonzero"/></clipPath><clipPath id="f0f84dd507"><path d="M 0.0273438 0 L 1113.980469 0 L 1113.980469 516.5 L 0.0273438 516.5 Z M 0.0273438 0 " clip-rule="nonzero"/></clipPath><clipPath id="9e78365ad8"><path d="M 38.257812 0 L 1075.707031 0 C 1085.847656 0 1095.570312 4.027344 1102.742188 11.199219 C 1109.910156 18.367188 1113.941406 28.089844 1113.941406 38.230469 L 1113.941406 478.09375 C 1113.941406 488.234375 1109.910156 497.957031 1102.742188 505.125 C 1095.570312 512.296875 1085.847656 516.324219 1075.707031 516.324219 L 38.257812 516.324219 C 28.117188 516.324219 18.394531 512.296875 11.222656 505.125 C 4.054688 497.957031 0.0273438 488.234375 0.0273438 478.09375 L 0.0273438 38.230469 C 0.0273438 28.089844 4.054688 18.367188 11.222656 11.199219 C 18.394531 4.027344 28.117188 0 38.257812 0 Z M 38.257812 0 " clip-rule="nonzero"/></clipPath></defs><g clip-path="url(#1e3e7a4c11)"><g clip-path="url(#fc3dca7f52)"><path fill="#ffcf7e" d="M 0.0195312 0 L 1113.363281 0 L 1113.363281 516.332031 L 0.0195312 516.332031 Z M 0.0195312 0 " fill-opacity="1" fill-rule="nonzero"/></g></g><g clip-path="url(#f0f84dd507)"><g clip-path="url(#9e78365ad8)"><path stroke-linecap="butt" transform="matrix(0.749637, 0, 0, 0.749637, 0.0256264, 0.0000199903)" fill="none" stroke-linejoin="miter" d="M 51.000909 -0.0000266667 L 1434.935712 -0.0000266667 C 1448.463086 -0.0000266667 1461.43811 5.372363 1471.000025 14.939489 C 1480.56194 24.501404 1485.93954 37.471217 1485.93954 50.998591 L 1485.93954 637.766688 C 1485.93954 651.294062 1480.56194 664.263875 1471.000025 673.82579 C 1461.43811 683.392916 1448.463086 688.765306 1434.935712 688.765306 L 51.000909 688.765306 C 37.473534 688.765306 24.503721 683.392916 14.936595 673.82579 C 5.37468 664.263875 0.00229086 651.294062 0.00229086 637.766688 L 0.00229086 50.998591 C 0.00229086 37.471217 5.37468 24.501404 14.936595 14.939489 C 24.503721 5.372363 37.473534 -0.0000266667 51.000909 -0.0000266667 Z M 51.000909 -0.0000266667 " stroke="#cf4545" stroke-width="40" stroke-opacity="1" stroke-miterlimit="4"/></g></g><g fill="#cf4545" fill-opacity="1"><g transform="translate(955.16379, 84.723757)"><g><path d="M 10.921875 -20.5625 L 1.4375 -20.5625 L 1.4375 -30.8125 L 10.921875 -30.8125 Z M 10.921875 0 L 1.4375 0 L 1.4375 -10.296875 L 10.921875 -10.296875 Z M 10.921875 0 "/></g></g></g><g fill="#cf4545" fill-opacity="1"><g transform="translate(967.392249, 84.723757)"><g><path d="M 25.765625 0 L 3.09375 0 L 3.09375 -4.609375 C 3.09375 -8.492188 4.347656 -11.785156 6.859375 -14.484375 L 12.015625 -20 C 12.691406 -20.75 13.238281 -21.347656 13.65625 -21.796875 C 14.082031 -22.253906 14.359375 -22.578125 14.484375 -22.765625 C 15.234375 -23.867188 15.609375 -25.066406 15.609375 -26.359375 L 15.609375 -30.71875 L 12.515625 -30.71875 L 12.515625 -26.640625 L 2.390625 -26.640625 L 2.390625 -33.59375 C 2.390625 -35.882812 3.300781 -37.804688 5.125 -39.359375 C 6.84375 -40.859375 8.867188 -41.609375 11.203125 -41.609375 L 17.78125 -41.609375 C 23.101562 -41.609375 25.765625 -38.9375 25.765625 -33.59375 L 25.765625 -25.90625 C 25.765625 -22.550781 24.273438 -19.175781 21.296875 -15.78125 L 16.96875 -10.859375 L 25.765625 -10.859375 Z M 25.765625 0 "/></g></g><g transform="translate(995.468509, 84.723757)"><g><path d="M 26.28125 -7.984375 C 26.28125 -5.453125 25.566406 -3.488281 24.140625 -2.09375 C 22.710938 -0.695312 20.734375 0 18.203125 0 L 9.9375 0 C 7.738281 0 5.84375 -0.785156 4.25 -2.359375 C 2.65625 -3.953125 1.859375 -5.828125 1.859375 -7.984375 L 1.859375 -33.59375 C 1.859375 -36.144531 2.566406 -38.117188 3.984375 -39.515625 C 5.398438 -40.910156 7.382812 -41.609375 9.9375 -41.609375 L 18.203125 -41.609375 C 20.734375 -41.609375 22.710938 -40.90625 24.140625 -39.5 C 25.566406 -38.09375 26.28125 -36.125 26.28125 -33.59375 Z M 16.0625 -10.859375 L 16.0625 -30.71875 L 12.015625 -30.71875 L 12.015625 -10.859375 Z M 16.0625 -10.859375 "/></g></g><g transform="translate(1023.544768, 84.723757)"><g><path d="M 26.28125 -7.984375 C 26.28125 -5.453125 25.566406 -3.488281 24.140625 -2.09375 C 22.710938 -0.695312 20.734375 0 18.203125 0 L 9.9375 0 C 7.738281 0 5.84375 -0.785156 4.25 -2.359375 C 2.65625 -3.953125 1.859375 -5.828125 1.859375 -7.984375 L 1.859375 -33.59375 C 1.859375 -36.144531 2.566406 -38.117188 3.984375 -39.515625 C 5.398438 -40.910156 7.382812 -41.609375 9.9375 -41.609375 L 18.203125 -41.609375 C 20.734375 -41.609375 22.710938 -40.90625 24.140625 -39.5 C 25.566406 -38.09375 26.28125 -36.125 26.28125 -33.59375 Z M 16.0625 -10.859375 L 16.0625 -30.71875 L 12.015625 -30.71875 L 12.015625 -10.859375 Z M 16.0625 -10.859375 "/></g></g><g transform="translate(1051.621028, 84.723757)"><g><path d="M 25.96875 -7.984375 C 25.96875 -2.660156 23.539062 0 18.6875 0 L 3.578125 0 L 3.578125 -10.859375 L 15.84375 -10.859375 L 15.84375 -15.78125 L 9.421875 -15.78125 C 4.566406 -15.78125 2.140625 -18.4375 2.140625 -23.75 L 2.140625 -33.59375 C 2.140625 -38.9375 4.832031 -41.609375 10.21875 -41.609375 L 17.921875 -41.609375 C 20.359375 -41.609375 22.300781 -40.878906 23.75 -39.421875 C 25.226562 -37.972656 25.96875 -36.03125 25.96875 -33.59375 Z M 15.84375 -25.203125 L 15.84375 -30.71875 L 12.296875 -30.71875 L 12.296875 -25.203125 Z M 15.84375 -25.203125 "/></g></g></g><g fill="#cf4545" fill-opacity="1"><g transform="translate(91.607316, 211.55263)"><g><path d="M 33.171875 -53.734375 L 29.546875 -31.5 L 32.640625 -31.5 L 32.640625 -17.46875 L 27.40625 -17.46875 L 24.828125 0 L 11.171875 0 L 13.84375 -17.46875 L 8.625 -17.46875 L 8.625 -31.5 L 15.890625 -31.5 L 17.109375 -39.671875 L 3.09375 -39.671875 L 3.09375 -53.734375 Z M 33.171875 -53.734375 "/></g></g><g transform="translate(127.872485, 211.55263)"><g><path d="M 33.953125 -10.296875 C 33.953125 -7.035156 33.023438 -4.503906 31.171875 -2.703125 C 29.328125 -0.898438 26.773438 0 23.515625 0 L 12.84375 0 C 10 0 7.546875 -1.015625 5.484375 -3.046875 C 3.429688 -5.097656 2.40625 -7.515625 2.40625 -10.296875 L 2.40625 -43.390625 C 2.40625 -46.691406 3.316406 -49.238281 5.140625 -51.03125 C 6.972656 -52.832031 9.539062 -53.734375 12.84375 -53.734375 L 23.515625 -53.734375 C 26.773438 -53.734375 29.328125 -52.828125 31.171875 -51.015625 C 33.023438 -49.203125 33.953125 -46.660156 33.953125 -43.390625 Z M 20.734375 -14.03125 L 20.734375 -39.671875 L 15.515625 -39.671875 L 15.515625 -14.03125 Z M 20.734375 -14.03125 "/></g></g><g transform="translate(164.137654, 211.55263)"><g><path d="M 33.546875 -10.296875 C 33.546875 -3.429688 30.050781 0 23.0625 0 L 13.109375 0 C 9.929688 0 7.421875 -0.921875 5.578125 -2.765625 C 3.703125 -4.640625 2.765625 -7.148438 2.765625 -10.296875 L 2.765625 -43.390625 C 2.765625 -50.285156 5.867188 -53.734375 12.078125 -53.734375 L 31.6875 -53.734375 L 31.6875 -39.671875 L 15.890625 -39.671875 L 15.890625 -33.359375 L 24.0625 -33.359375 C 30.382812 -33.359375 33.546875 -30.226562 33.546875 -23.96875 Z M 20.46875 -14.03125 L 20.46875 -19.328125 L 15.890625 -19.328125 L 15.890625 -14.03125 Z M 20.46875 -14.03125 "/></g></g></g><g fill="#cf4545" fill-opacity="1"><g transform="translate(200.410147, 211.55263)"><g/></g><g transform="translate(220.971, 211.55263)"><g><path d="M 34.453125 0 L 21.109375 0 L 21.109375 -37.484375 C 21.109375 -38.972656 20.347656 -39.71875 18.828125 -39.71875 L 2.3125 -39.71875 L 2.3125 -53.734375 L 24.96875 -53.734375 C 27.75 -53.734375 30.03125 -52.84375 31.8125 -51.0625 C 33.570312 -49.300781 34.453125 -47.015625 34.453125 -44.203125 Z M 15.4375 0 L 2.359375 0 L 2.359375 -33.3125 L 15.4375 -33.3125 Z M 15.4375 0 "/></g></g><g transform="translate(257.735438, 211.55263)"><g><path d="M 32.09375 -19.421875 C 32.09375 -6.472656 25.890625 0 13.484375 0 L 7.8125 0 L 7.8125 -14.03125 L 11.625 -14.03125 C 14.550781 -14.03125 16.546875 -14.96875 17.609375 -16.84375 C 18.367188 -18.164062 18.75 -20.476562 18.75 -23.78125 L 18.75 -37.484375 C 18.75 -38.972656 17.988281 -39.71875 16.46875 -39.71875 L 2.3125 -39.71875 L 2.3125 -60.40625 L 15.484375 -60.40625 L 15.484375 -53.734375 L 25.375 -53.734375 C 29.851562 -53.734375 32.09375 -51.570312 32.09375 -47.25 Z M 32.09375 -19.421875 "/></g></g><g transform="translate(292.139691, 211.55263)"><g><path d="M 14.984375 -38.484375 L 17.015625 -38.484375 C 18.503906 -38.484375 19.25 -39.285156 19.25 -40.890625 L 19.25 -53.734375 L 31.359375 -53.734375 L 31.359375 -38.671875 C 31.359375 -32.410156 28.648438 -29.28125 23.234375 -29.28125 L 14.984375 -29.28125 L 14.984375 -16.46875 C 14.984375 -14.84375 15.660156 -14.03125 17.015625 -14.03125 L 33.59375 -14.03125 C 34.914062 -14.03125 35.578125 -14.84375 35.578125 -16.46875 L 35.578125 -53.734375 L 48.296875 -53.734375 L 48.296875 -12.203125 C 48.296875 -8.515625 47.34375 -5.582031 45.4375 -3.40625 C 43.4375 -1.132812 40.601562 0 36.9375 0 L 13.65625 0 C 6.09375 0 2.3125 -4.066406 2.3125 -12.203125 L 2.3125 -53.734375 L 14.984375 -53.734375 Z M 14.984375 -38.484375 "/></g></g><g transform="translate(342.74753, 211.55263)"><g><path d="M 37.984375 -9.671875 C 37.984375 -3.222656 35.066406 0 29.234375 0 L 19.96875 0 L 19.96875 -14.0625 L 22.734375 -14.0625 C 24.097656 -14.0625 24.78125 -14.878906 24.78125 -16.515625 L 24.78125 -36.984375 C 24.78125 -38.617188 24.375 -39.4375 23.5625 -39.4375 C 22.738281 -39.4375 22.175781 -38.515625 21.875 -36.671875 L 15.296875 0 L 2.3125 0 L 7.859375 -30 L 5.265625 -30 C 3.234375 -30 2.21875 -31 2.21875 -33 L 2.21875 -53.734375 L 15.390625 -53.734375 L 15.390625 -34.765625 L 18.015625 -45.15625 C 19.472656 -50.875 22.601562 -53.734375 27.40625 -53.734375 L 28.09375 -53.734375 C 34.6875 -53.734375 37.984375 -49.710938 37.984375 -41.671875 Z M 37.984375 -9.671875 "/></g></g><g transform="translate(383.052248, 211.55263)"><g><path d="M 37.984375 -9.671875 C 37.984375 -3.222656 35.066406 0 29.234375 0 L 19.96875 0 L 19.96875 -14.0625 L 22.734375 -14.0625 C 24.097656 -14.0625 24.78125 -14.878906 24.78125 -16.515625 L 24.78125 -36.984375 C 24.78125 -38.617188 24.375 -39.4375 23.5625 -39.4375 C 22.738281 -39.4375 22.175781 -38.515625 21.875 -36.671875 L 15.296875 0 L 2.3125 0 L 7.859375 -30 L 5.265625 -30 C 3.234375 -30 2.21875 -31 2.21875 -33 L 2.21875 -53.734375 L 15.390625 -53.734375 L 15.390625 -34.765625 L 18.015625 -45.15625 C 19.472656 -50.875 22.601562 -53.734375 27.40625 -53.734375 L 28.09375 -53.734375 C 34.6875 -53.734375 37.984375 -49.710938 37.984375 -41.671875 Z M 37.984375 -9.671875 "/></g></g><g transform="translate(423.356966, 211.55263)"><g/></g><g transform="translate(443.917819, 211.55263)"><g><path d="M 37.171875 0 L 24.0625 0 L 24.0625 -37.171875 C 24.0625 -38.867188 23.285156 -39.71875 21.734375 -39.71875 L 19.96875 -39.71875 C 18.394531 -39.71875 17.609375 -38.867188 17.609375 -37.171875 L 17.609375 -6.4375 C 17.609375 -2.144531 15.804688 0 12.203125 0 L 0.90625 0 L 0.90625 -14.03125 L 3.171875 -14.03125 C 3.929688 -14.03125 4.3125 -14.359375 4.3125 -15.015625 L 4.3125 -43.4375 C 4.3125 -47.09375 5.019531 -49.722656 6.4375 -51.328125 C 7.863281 -52.929688 10.378906 -53.734375 13.984375 -53.734375 L 28.140625 -53.734375 C 34.160156 -53.734375 37.171875 -50.300781 37.171875 -43.4375 Z M 37.171875 0 "/></g></g><g transform="translate(483.450938, 211.55263)"><g><path d="M 36.3125 -10.34375 C 36.3125 -3.445312 33.46875 0 27.78125 0 L 10.84375 0 C 7.96875 0 5.789062 -1.039062 4.3125 -3.125 C 2.976562 -5.007812 2.3125 -7.414062 2.3125 -10.34375 L 2.3125 -53.734375 L 15.390625 -53.734375 L 15.390625 -36.8125 L 17.96875 -45.984375 C 19.425781 -51.148438 22.078125 -53.734375 25.921875 -53.734375 L 28.59375 -53.734375 C 33.738281 -53.734375 36.3125 -50.9375 36.3125 -45.34375 Z M 23.28125 -38.484375 C 23.28125 -39.054688 23.160156 -39.34375 22.921875 -39.34375 C 22.734375 -39.34375 22.582031 -39.101562 22.46875 -38.625 L 20.5625 -31.5 L 15.390625 -31.5 L 15.390625 -16.46875 C 15.390625 -14.84375 16.054688 -14.03125 17.390625 -14.03125 L 21.234375 -14.03125 C 22.597656 -14.03125 23.28125 -14.84375 23.28125 -16.46875 Z M 23.28125 -38.484375 "/></g></g><g transform="translate(522.076292, 211.55263)"><g><path d="M 32.09375 -19.421875 C 32.09375 -6.472656 25.890625 0 13.484375 0 L 7.8125 0 L 7.8125 -14.03125 L 11.625 -14.03125 C 14.550781 -14.03125 16.546875 -14.96875 17.609375 -16.84375 C 18.367188 -18.164062 18.75 -20.476562 18.75 -23.78125 L 18.75 -37.484375 C 18.75 -38.972656 17.988281 -39.71875 16.46875 -39.71875 L 2.3125 -39.71875 L 2.3125 -60.40625 L 15.484375 -60.40625 L 15.484375 -53.734375 L 25.375 -53.734375 C 29.851562 -53.734375 32.09375 -51.570312 32.09375 -47.25 Z M 32.09375 -19.421875 "/></g></g><g transform="translate(556.480545, 211.55263)"><g><path d="M 35.03125 0 L 21.875 0 L 21.875 -37.171875 C 21.875 -38.867188 21.101562 -39.71875 19.5625 -39.71875 L 17.96875 -39.71875 C 16.425781 -39.71875 15.65625 -38.867188 15.65625 -37.171875 L 15.65625 0 L 2.3125 0 L 2.3125 -44.34375 C 2.3125 -47.695312 2.875 -50.039062 4 -51.375 C 5.269531 -52.945312 7.535156 -53.734375 10.796875 -53.734375 L 25.96875 -53.734375 C 32.007812 -53.734375 35.03125 -50.601562 35.03125 -44.34375 Z M 35.03125 0 "/></g></g><g transform="translate(593.835031, 211.55263)"><g><path d="M 34.453125 0 L 21.109375 0 L 21.109375 -37.484375 C 21.109375 -38.972656 20.347656 -39.71875 18.828125 -39.71875 L 2.3125 -39.71875 L 2.3125 -53.734375 L 24.96875 -53.734375 C 27.75 -53.734375 30.03125 -52.84375 31.8125 -51.0625 C 33.570312 -49.300781 34.453125 -47.015625 34.453125 -44.203125 Z M 15.4375 0 L 2.359375 0 L 2.359375 -33.3125 L 15.4375 -33.3125 Z M 15.4375 0 "/></g></g><g transform="translate(630.599469, 211.55263)"><g/></g><g transform="translate(651.160322, 211.55263)"><g><path d="M 25.015625 -19.25 L 2.765625 -19.25 L 2.765625 -33.265625 L 25.015625 -33.265625 Z M 25.015625 -19.25 "/></g></g><g transform="translate(678.937899, 211.55263)"><g/></g></g><g fill="#cf4545" fill-opacity="1"><g transform="translate(699.504607, 211.55263)"><g><path d="M 33.265625 0 L 4 0 L 4 -5.953125 C 4 -10.972656 5.613281 -15.222656 8.84375 -18.703125 L 15.515625 -25.828125 C 16.398438 -26.796875 17.113281 -27.570312 17.65625 -28.15625 C 18.195312 -28.75 18.546875 -29.164062 18.703125 -29.40625 C 19.671875 -30.832031 20.15625 -32.378906 20.15625 -34.046875 L 20.15625 -39.671875 L 16.15625 -39.671875 L 16.15625 -34.40625 L 3.09375 -34.40625 L 3.09375 -43.390625 C 3.09375 -46.359375 4.269531 -48.835938 6.625 -50.828125 C 8.832031 -52.765625 11.453125 -53.734375 14.484375 -53.734375 L 22.96875 -53.734375 C 29.832031 -53.734375 33.265625 -50.285156 33.265625 -43.390625 L 33.265625 -33.453125 C 33.265625 -29.117188 31.34375 -24.757812 27.5 -20.375 L 21.921875 -14.03125 L 33.265625 -14.03125 Z M 33.265625 0 "/></g></g><g transform="translate(735.769776, 211.55263)"><g><path d="M 33.625 -10.296875 C 33.625 -3.429688 30.8125 0 25.1875 0 L 3.546875 0 L 3.546875 -14.03125 L 20.65625 -14.03125 L 20.65625 -20.25 L 7.8125 -20.25 L 13.75 -39.671875 L 3.546875 -39.671875 L 3.546875 -53.734375 L 32.71875 -53.734375 L 25.921875 -33.359375 C 31.054688 -33.359375 33.625 -30.164062 33.625 -23.78125 Z M 33.625 -10.296875 "/></g></g><g transform="translate(772.034945, 211.55263)"><g><path d="M 14.109375 0 L 1.859375 0 L 1.859375 -13.296875 L 14.109375 -13.296875 Z M 14.109375 0 "/></g></g><g transform="translate(787.830037, 211.55263)"><g><path d="M 33.953125 -10.296875 C 33.953125 -7.035156 33.023438 -4.503906 31.171875 -2.703125 C 29.328125 -0.898438 26.773438 0 23.515625 0 L 12.84375 0 C 10 0 7.546875 -1.015625 5.484375 -3.046875 C 3.429688 -5.097656 2.40625 -7.515625 2.40625 -10.296875 L 2.40625 -43.390625 C 2.40625 -46.691406 3.316406 -49.238281 5.140625 -51.03125 C 6.972656 -52.832031 9.539062 -53.734375 12.84375 -53.734375 L 23.515625 -53.734375 C 26.773438 -53.734375 29.328125 -52.828125 31.171875 -51.015625 C 33.023438 -49.203125 33.953125 -46.660156 33.953125 -43.390625 Z M 20.734375 -14.03125 L 20.734375 -39.671875 L 15.515625 -39.671875 L 15.515625 -14.03125 Z M 20.734375 -14.03125 "/></g></g><g transform="translate(824.095206, 211.55263)"><g><path d="M 34.046875 -10.296875 C 34.046875 -3.429688 30.59375 0 23.6875 0 L 12.65625 0 C 9.632812 0 7.15625 -0.96875 5.21875 -2.90625 C 3.28125 -4.84375 2.3125 -7.304688 2.3125 -10.296875 L 2.3125 -19.875 C 2.3125 -23.875 4.203125 -26.539062 7.984375 -27.875 C 6.171875 -28.019531 4.75 -28.832031 3.71875 -30.3125 C 2.78125 -31.707031 2.3125 -33.34375 2.3125 -35.21875 L 2.3125 -43.390625 C 2.3125 -46.234375 3.296875 -48.671875 5.265625 -50.703125 C 7.203125 -52.722656 9.625 -53.734375 12.53125 -53.734375 L 23.6875 -53.734375 C 30.59375 -53.734375 34.046875 -50.285156 34.046875 -43.390625 L 34.046875 -35.578125 C 34.046875 -33.765625 33.4375 -32.148438 32.21875 -30.734375 C 30.976562 -29.304688 29.5 -28.351562 27.78125 -27.875 C 31.957031 -26.90625 34.046875 -24.207031 34.046875 -19.78125 Z M 20.921875 -33.453125 L 20.921875 -39.671875 L 15.4375 -39.671875 L 15.4375 -33.453125 Z M 20.921875 -14.03125 L 20.921875 -22.328125 L 15.4375 -22.328125 L 15.4375 -14.03125 Z M 20.921875 -14.03125 "/></g></g><g transform="translate(860.360375, 211.55263)"><g><path d="M 14.109375 0 L 1.859375 0 L 1.859375 -13.296875 L 14.109375 -13.296875 Z M 14.109375 0 "/></g></g><g transform="translate(876.155467, 211.55263)"><g><path d="M 33.265625 0 L 4 0 L 4 -5.953125 C 4 -10.972656 5.613281 -15.222656 8.84375 -18.703125 L 15.515625 -25.828125 C 16.398438 -26.796875 17.113281 -27.570312 17.65625 -28.15625 C 18.195312 -28.75 18.546875 -29.164062 18.703125 -29.40625 C 19.671875 -30.832031 20.15625 -32.378906 20.15625 -34.046875 L 20.15625 -39.671875 L 16.15625 -39.671875 L 16.15625 -34.40625 L 3.09375 -34.40625 L 3.09375 -43.390625 C 3.09375 -46.359375 4.269531 -48.835938 6.625 -50.828125 C 8.832031 -52.765625 11.453125 -53.734375 14.484375 -53.734375 L 22.96875 -53.734375 C 29.832031 -53.734375 33.265625 -50.285156 33.265625 -43.390625 L 33.265625 -33.453125 C 33.265625 -29.117188 31.34375 -24.757812 27.5 -20.375 L 21.921875 -14.03125 L 33.265625 -14.03125 Z M 33.265625 0 "/></g></g><g transform="translate(912.420636, 211.55263)"><g><path d="M 33.953125 -10.296875 C 33.953125 -7.035156 33.023438 -4.503906 31.171875 -2.703125 C 29.328125 -0.898438 26.773438 0 23.515625 0 L 12.84375 0 C 10 0 7.546875 -1.015625 5.484375 -3.046875 C 3.429688 -5.097656 2.40625 -7.515625 2.40625 -10.296875 L 2.40625 -43.390625 C 2.40625 -46.691406 3.316406 -49.238281 5.140625 -51.03125 C 6.972656 -52.832031 9.539062 -53.734375 12.84375 -53.734375 L 23.515625 -53.734375 C 26.773438 -53.734375 29.328125 -52.828125 31.171875 -51.015625 C 33.023438 -49.203125 33.953125 -46.660156 33.953125 -43.390625 Z M 20.734375 -14.03125 L 20.734375 -39.671875 L 15.515625 -39.671875 L 15.515625 -14.03125 Z M 20.734375 -14.03125 "/></g></g><g transform="translate(948.685805, 211.55263)"><g><path d="M 33.953125 -10.296875 C 33.953125 -7.035156 33.023438 -4.503906 31.171875 -2.703125 C 29.328125 -0.898438 26.773438 0 23.515625 0 L 12.84375 0 C 10 0 7.546875 -1.015625 5.484375 -3.046875 C 3.429688 -5.097656 2.40625 -7.515625 2.40625 -10.296875 L 2.40625 -43.390625 C 2.40625 -46.691406 3.316406 -49.238281 5.140625 -51.03125 C 6.972656 -52.832031 9.539062 -53.734375 12.84375 -53.734375 L 23.515625 -53.734375 C 26.773438 -53.734375 29.328125 -52.828125 31.171875 -51.015625 C 33.023438 -49.203125 33.953125 -46.660156 33.953125 -43.390625 Z M 20.734375 -14.03125 L 20.734375 -39.671875 L 15.515625 -39.671875 L 15.515625 -14.03125 Z M 20.734375 -14.03125 "/></g></g><g transform="translate(984.950974, 211.55263)"><g><path d="M 33.546875 -10.296875 C 33.546875 -3.429688 30.410156 0 24.140625 0 L 4.625 0 L 4.625 -14.03125 L 20.46875 -14.03125 L 20.46875 -20.375 L 12.15625 -20.375 C 5.894531 -20.375 2.765625 -23.8125 2.765625 -30.6875 L 2.765625 -43.390625 C 2.765625 -50.285156 6.242188 -53.734375 13.203125 -53.734375 L 23.140625 -53.734375 C 26.296875 -53.734375 28.8125 -52.796875 30.6875 -50.921875 C 32.59375 -49.046875 33.546875 -46.535156 33.546875 -43.390625 Z M 20.46875 -32.546875 L 20.46875 -39.671875 L 15.890625 -39.671875 L 15.890625 -32.546875 Z M 20.46875 -32.546875 "/></g></g></g><g fill="#cf4545" fill-opacity="1"><g transform="translate(161.56956, 309.005479)"><g><path d="M 37.171875 0 L 24.0625 0 L 24.0625 -37.171875 C 24.0625 -38.867188 23.285156 -39.71875 21.734375 -39.71875 L 19.96875 -39.71875 C 18.394531 -39.71875 17.609375 -38.867188 17.609375 -37.171875 L 17.609375 -6.4375 C 17.609375 -2.144531 15.804688 0 12.203125 0 L 0.90625 0 L 0.90625 -14.03125 L 3.171875 -14.03125 C 3.929688 -14.03125 4.3125 -14.359375 4.3125 -15.015625 L 4.3125 -43.4375 C 4.3125 -47.09375 5.019531 -49.722656 6.4375 -51.328125 C 7.863281 -52.929688 10.378906 -53.734375 13.984375 -53.734375 L 28.140625 -53.734375 C 34.160156 -53.734375 37.171875 -50.300781 37.171875 -43.4375 Z M 37.171875 0 "/></g></g><g transform="translate(201.102679, 309.005479)"><g><path d="M 15.4375 0 L 2.3125 0 L 2.3125 -53.734375 L 15.4375 -53.734375 Z M 15.4375 0 "/></g></g><g transform="translate(218.849464, 309.005479)"><g><path d="M 14.984375 -38.484375 L 17.015625 -38.484375 C 18.503906 -38.484375 19.25 -39.285156 19.25 -40.890625 L 19.25 -53.734375 L 31.359375 -53.734375 L 31.359375 -38.671875 C 31.359375 -32.410156 28.648438 -29.28125 23.234375 -29.28125 L 14.984375 -29.28125 L 14.984375 -16.46875 C 14.984375 -14.84375 15.660156 -14.03125 17.015625 -14.03125 L 33.59375 -14.03125 C 34.914062 -14.03125 35.578125 -14.84375 35.578125 -16.46875 L 35.578125 -53.734375 L 48.296875 -53.734375 L 48.296875 -12.203125 C 48.296875 -8.515625 47.34375 -5.582031 45.4375 -3.40625 C 43.4375 -1.132812 40.601562 0 36.9375 0 L 13.65625 0 C 6.09375 0 2.3125 -4.066406 2.3125 -12.203125 L 2.3125 -53.734375 L 14.984375 -53.734375 Z M 14.984375 -38.484375 "/></g></g><g transform="translate(269.457302, 309.005479)"><g><path d="M 28.78125 0 L 15.484375 0 L 15.484375 -37.484375 C 15.484375 -38.972656 14.707031 -39.71875 13.15625 -39.71875 L 1.40625 -39.71875 L 1.40625 -53.734375 L 19.296875 -53.734375 C 22.078125 -53.734375 24.359375 -52.84375 26.140625 -51.0625 C 27.898438 -49.300781 28.78125 -47.015625 28.78125 -44.203125 Z M 28.78125 0 "/></g></g><g transform="translate(300.548217, 309.005479)"><g><path d="M 33 0 L 2.3125 0 L 2.3125 -14.03125 L 12.53125 -14.03125 C 15.519531 -14.03125 17.015625 -15.796875 17.015625 -19.328125 L 17.015625 -35.453125 C 17.015625 -37.023438 16.742188 -38.128906 16.203125 -38.765625 C 15.660156 -39.398438 14.617188 -39.71875 13.078125 -39.71875 L 2.3125 -39.71875 L 2.3125 -53.734375 L 19.96875 -53.734375 C 26.894531 -53.734375 30.359375 -49.632812 30.359375 -41.4375 L 30.359375 -23.0625 C 30.359375 -18.3125 28.585938 -15.300781 25.046875 -14.03125 L 33 -14.03125 Z M 33 0 "/></g></g><g transform="translate(335.406351, 309.005479)"><g/></g><g transform="translate(355.967205, 309.005479)"><g><path d="M 15.25 -29.90625 L 2.21875 -29.90625 L 2.21875 -53.734375 L 15.25 -53.734375 Z M 15.25 -29.90625 "/></g></g><g transform="translate(373.532436, 309.005479)"><g><path d="M 2.59375 0 L 2.59375 -14.03125 L 17.921875 -14.0625 L 9.34375 -31.40625 C 4.289062 -41.632812 1.414062 -49.078125 0.71875 -53.734375 L 14.65625 -53.734375 C 16.5 -46.234375 19.085938 -39.59375 22.421875 -33.8125 C 22.929688 -34.144531 23.25 -34.765625 23.375 -35.671875 C 23.46875 -36.242188 23.515625 -36.925781 23.515625 -37.71875 L 23.515625 -53.734375 L 36.71875 -53.734375 L 36.71875 -35.53125 C 36.71875 -32.78125 35.882812 -30.148438 34.21875 -27.640625 C 32.582031 -25.191406 30.539062 -23.316406 28.09375 -22.015625 C 33.8125 -10.640625 36.6875 -3.300781 36.71875 0 Z M 2.59375 0 "/></g></g><g transform="translate(412.566285, 309.005479)"><g><path d="M 28.78125 0 L 15.484375 0 L 15.484375 -37.484375 C 15.484375 -38.972656 14.707031 -39.71875 13.15625 -39.71875 L 1.40625 -39.71875 L 1.40625 -53.734375 L 19.296875 -53.734375 C 22.078125 -53.734375 24.359375 -52.84375 26.140625 -51.0625 C 27.898438 -49.300781 28.78125 -47.015625 28.78125 -44.203125 Z M 28.78125 0 "/></g></g><g transform="translate(443.6572, 309.005479)"><g><path d="M 24.328125 0 C 23.929688 -2.113281 23.070312 -4.90625 21.75 -8.375 C 20.4375 -11.84375 18.648438 -16.023438 16.390625 -20.921875 C 16.140625 -20.648438 15.953125 -20.4375 15.828125 -20.28125 C 15.710938 -20.132812 15.640625 -20.046875 15.609375 -20.015625 C 15.578125 -19.890625 15.550781 -19.625 15.53125 -19.21875 C 15.519531 -18.8125 15.515625 -18.242188 15.515625 -17.515625 L 15.515625 0 L 2.40625 0 L 2.40625 -16.0625 C 2.40625 -24.570312 5.019531 -30.082031 10.25 -32.59375 C 5.226562 -42.457031 2.429688 -49.503906 1.859375 -53.734375 L 15.515625 -53.734375 C 16.179688 -50.710938 17.171875 -47.519531 18.484375 -44.15625 C 19.804688 -40.800781 21.46875 -37.234375 23.46875 -33.453125 C 24.21875 -33.992188 24.59375 -35.113281 24.59375 -36.8125 L 24.59375 -53.734375 L 37.859375 -53.734375 L 37.859375 -35.53125 C 37.859375 -32.8125 37.023438 -30.164062 35.359375 -27.59375 C 33.691406 -25.050781 31.632812 -23.113281 29.1875 -21.78125 C 34.84375 -10.53125 37.734375 -3.269531 37.859375 0 Z M 24.328125 0 "/></g></g><g transform="translate(483.371871, 309.005479)"><g/></g><g transform="translate(503.932724, 309.005479)"><g><path d="M 35.03125 0 L 21.875 0 L 21.875 -37.171875 C 21.875 -38.867188 21.101562 -39.71875 19.5625 -39.71875 L 17.96875 -39.71875 C 16.425781 -39.71875 15.65625 -38.867188 15.65625 -37.171875 L 15.65625 0 L 2.3125 0 L 2.3125 -44.34375 C 2.3125 -47.695312 2.875 -50.039062 4 -51.375 C 5.269531 -52.945312 7.535156 -53.734375 10.796875 -53.734375 L 25.96875 -53.734375 C 32.007812 -53.734375 35.03125 -50.601562 35.03125 -44.34375 Z M 35.03125 0 "/></g></g><g transform="translate(541.28721, 309.005479)"><g><path d="M 22.328125 -50.65625 C 22.328125 -48.050781 21.207031 -45.539062 18.96875 -43.125 C 17.125 -41.125 15.019531 -39.59375 12.65625 -38.53125 L 12.65625 -61.59375 L 22.328125 -61.59375 Z M 10.484375 -50.65625 C 10.484375 -45.875 7.289062 -41.832031 0.90625 -38.53125 L 0.90625 -61.59375 L 10.484375 -61.59375 Z M 10.484375 -50.65625 "/></g></g><g transform="translate(564.525966, 309.005479)"><g><path d="M 32.09375 -19.421875 C 32.09375 -6.472656 25.890625 0 13.484375 0 L 7.8125 0 L 7.8125 -14.03125 L 11.625 -14.03125 C 14.550781 -14.03125 16.546875 -14.96875 17.609375 -16.84375 C 18.367188 -18.164062 18.75 -20.476562 18.75 -23.78125 L 18.75 -37.484375 C 18.75 -38.972656 17.988281 -39.71875 16.46875 -39.71875 L 2.3125 -39.71875 L 2.3125 -60.40625 L 15.484375 -60.40625 L 15.484375 -53.734375 L 25.375 -53.734375 C 29.851562 -53.734375 32.09375 -51.570312 32.09375 -47.25 Z M 32.09375 -19.421875 "/></g></g><g transform="translate(598.930219, 309.005479)"><g><path d="M 37.984375 -9.671875 C 37.984375 -3.222656 35.066406 0 29.234375 0 L 19.96875 0 L 19.96875 -14.0625 L 22.734375 -14.0625 C 24.097656 -14.0625 24.78125 -14.878906 24.78125 -16.515625 L 24.78125 -36.984375 C 24.78125 -38.617188 24.375 -39.4375 23.5625 -39.4375 C 22.738281 -39.4375 22.175781 -38.515625 21.875 -36.671875 L 15.296875 0 L 2.3125 0 L 7.859375 -30 L 5.265625 -30 C 3.234375 -30 2.21875 -31 2.21875 -33 L 2.21875 -53.734375 L 15.390625 -53.734375 L 15.390625 -34.765625 L 18.015625 -45.15625 C 19.472656 -50.875 22.601562 -53.734375 27.40625 -53.734375 L 28.09375 -53.734375 C 34.6875 -53.734375 37.984375 -49.710938 37.984375 -41.671875 Z M 37.984375 -9.671875 "/></g></g><g transform="translate(639.234937, 309.005479)"><g/></g><g transform="translate(659.79579, 309.005479)"><g><path d="M 34.453125 0 L 21.109375 0 L 21.109375 -37.484375 C 21.109375 -38.972656 20.347656 -39.71875 18.828125 -39.71875 L 2.3125 -39.71875 L 2.3125 -53.734375 L 24.96875 -53.734375 C 27.75 -53.734375 30.03125 -52.84375 31.8125 -51.0625 C 33.570312 -49.300781 34.453125 -47.015625 34.453125 -44.203125 Z M 15.4375 0 L 2.359375 0 L 2.359375 -33.3125 L 15.4375 -33.3125 Z M 15.4375 0 "/></g></g><g transform="translate(696.560229, 309.005479)"><g><path d="M 36.3125 -10.34375 C 36.3125 -3.445312 33.46875 0 27.78125 0 L 10.84375 0 C 7.96875 0 5.789062 -1.039062 4.3125 -3.125 C 2.976562 -5.007812 2.3125 -7.414062 2.3125 -10.34375 L 2.3125 -53.734375 L 15.390625 -53.734375 L 15.390625 -36.8125 L 17.96875 -45.984375 C 19.425781 -51.148438 22.078125 -53.734375 25.921875 -53.734375 L 28.59375 -53.734375 C 33.738281 -53.734375 36.3125 -50.9375 36.3125 -45.34375 Z M 23.28125 -38.484375 C 23.28125 -39.054688 23.160156 -39.34375 22.921875 -39.34375 C 22.734375 -39.34375 22.582031 -39.101562 22.46875 -38.625 L 20.5625 -31.5 L 15.390625 -31.5 L 15.390625 -16.46875 C 15.390625 -14.84375 16.054688 -14.03125 17.390625 -14.03125 L 21.234375 -14.03125 C 22.597656 -14.03125 23.28125 -14.84375 23.28125 -16.46875 Z M 23.28125 -38.484375 "/></g></g><g transform="translate(735.185583, 309.005479)"><g><path d="M 37.984375 -9.671875 C 37.984375 -3.222656 35.066406 0 29.234375 0 L 19.96875 0 L 19.96875 -14.0625 L 22.734375 -14.0625 C 24.097656 -14.0625 24.78125 -14.878906 24.78125 -16.515625 L 24.78125 -36.984375 C 24.78125 -38.617188 24.375 -39.4375 23.5625 -39.4375 C 22.738281 -39.4375 22.175781 -38.515625 21.875 -36.671875 L 15.296875 0 L 2.3125 0 L 7.859375 -30 L 5.265625 -30 C 3.234375 -30 2.21875 -31 2.21875 -33 L 2.21875 -53.734375 L 15.390625 -53.734375 L 15.390625 -34.765625 L 18.015625 -45.15625 C 19.472656 -50.875 22.601562 -53.734375 27.40625 -53.734375 L 28.09375 -53.734375 C 34.6875 -53.734375 37.984375 -49.710938 37.984375 -41.671875 Z M 37.984375 -9.671875 "/></g></g><g transform="translate(775.490301, 309.005479)"><g/></g><g transform="translate(796.051154, 309.005479)"><g><path d="M 33 0 L 2.3125 0 L 2.3125 -14.03125 L 12.53125 -14.03125 C 15.519531 -14.03125 17.015625 -15.796875 17.015625 -19.328125 L 17.015625 -35.453125 C 17.015625 -37.023438 16.742188 -38.128906 16.203125 -38.765625 C 15.660156 -39.398438 14.617188 -39.71875 13.078125 -39.71875 L 2.3125 -39.71875 L 2.3125 -53.734375 L 19.96875 -53.734375 C 26.894531 -53.734375 30.359375 -49.632812 30.359375 -41.4375 L 30.359375 -23.0625 C 30.359375 -18.3125 28.585938 -15.300781 25.046875 -14.03125 L 33 -14.03125 Z M 33 0 "/></g></g><g transform="translate(830.909289, 309.005479)"><g><path d="M 15.4375 0 L 2.3125 0 L 2.3125 -53.734375 L 15.4375 -53.734375 Z M 15.4375 0 "/></g></g><g transform="translate(848.656074, 309.005479)"><g><path d="M 32.09375 -19.421875 C 32.09375 -6.472656 25.890625 0 13.484375 0 L 7.8125 0 L 7.8125 -14.03125 L 11.625 -14.03125 C 14.550781 -14.03125 16.546875 -14.96875 17.609375 -16.84375 C 18.367188 -18.164062 18.75 -20.476562 18.75 -23.78125 L 18.75 -37.484375 C 18.75 -38.972656 17.988281 -39.71875 16.46875 -39.71875 L 2.3125 -39.71875 L 2.3125 -60.40625 L 15.484375 -60.40625 L 15.484375 -53.734375 L 25.375 -53.734375 C 29.851562 -53.734375 32.09375 -51.570312 32.09375 -47.25 Z M 32.09375 -19.421875 "/></g></g><g transform="translate(883.060326, 309.005479)"><g><path d="M 15.25 -29.90625 L 2.21875 -29.90625 L 2.21875 -53.734375 L 15.25 -53.734375 Z M 15.25 -29.90625 "/></g></g><g transform="translate(900.625558, 309.005479)"><g><path d="M 14.984375 -38.484375 L 17.015625 -38.484375 C 18.503906 -38.484375 19.25 -39.285156 19.25 -40.890625 L 19.25 -53.734375 L 31.359375 -53.734375 L 31.359375 -38.671875 C 31.359375 -32.410156 28.648438 -29.28125 23.234375 -29.28125 L 14.984375 -29.28125 L 14.984375 -16.46875 C 14.984375 -14.84375 15.660156 -14.03125 17.015625 -14.03125 L 33.59375 -14.03125 C 34.914062 -14.03125 35.578125 -14.84375 35.578125 -16.46875 L 35.578125 -53.734375 L 48.296875 -53.734375 L 48.296875 -12.203125 C 48.296875 -8.515625 47.34375 -5.582031 45.4375 -3.40625 C 43.4375 -1.132812 40.601562 0 36.9375 0 L 13.65625 0 C 6.09375 0 2.3125 -4.066406 2.3125 -12.203125 L 2.3125 -53.734375 L 14.984375 -53.734375 Z M 14.984375 -38.484375 "/></g></g></g><g fill="#cf4545" fill-opacity="1"><g transform="translate(343.719712, 406.458329)"><g><path d="M 37.171875 0 L 24.0625 0 L 24.0625 -37.171875 C 24.0625 -38.867188 23.285156 -39.71875 21.734375 -39.71875 L 19.96875 -39.71875 C 18.394531 -39.71875 17.609375 -38.867188 17.609375 -37.171875 L 17.609375 -6.4375 C 17.609375 -2.144531 15.804688 0 12.203125 0 L 0.90625 0 L 0.90625 -14.03125 L 3.171875 -14.03125 C 3.929688 -14.03125 4.3125 -14.359375 4.3125 -15.015625 L 4.3125 -43.4375 C 4.3125 -47.09375 5.019531 -49.722656 6.4375 -51.328125 C 7.863281 -52.929688 10.378906 -53.734375 13.984375 -53.734375 L 28.140625 -53.734375 C 34.160156 -53.734375 37.171875 -50.300781 37.171875 -43.4375 Z M 37.171875 0 "/></g></g><g transform="translate(383.252831, 406.458329)"><g><path d="M 15.25 -29.90625 L 2.21875 -29.90625 L 2.21875 -53.734375 L 15.25 -53.734375 Z M 15.25 -29.90625 "/></g></g><g transform="translate(400.818062, 406.458329)"><g><path d="M 37.984375 -9.671875 C 37.984375 -3.222656 35.066406 0 29.234375 0 L 19.96875 0 L 19.96875 -14.0625 L 22.734375 -14.0625 C 24.097656 -14.0625 24.78125 -14.878906 24.78125 -16.515625 L 24.78125 -36.984375 C 24.78125 -38.617188 24.375 -39.4375 23.5625 -39.4375 C 22.738281 -39.4375 22.175781 -38.515625 21.875 -36.671875 L 15.296875 0 L 2.3125 0 L 7.859375 -30 L 5.265625 -30 C 3.234375 -30 2.21875 -31 2.21875 -33 L 2.21875 -53.734375 L 15.390625 -53.734375 L 15.390625 -34.765625 L 18.015625 -45.15625 C 19.472656 -50.875 22.601562 -53.734375 27.40625 -53.734375 L 28.09375 -53.734375 C 34.6875 -53.734375 37.984375 -49.710938 37.984375 -41.671875 Z M 37.984375 -9.671875 "/></g></g><g transform="translate(441.12278, 406.458329)"><g><path d="M 15.4375 0 L 2.3125 0 L 2.3125 -53.734375 L 15.4375 -53.734375 Z M 15.4375 0 "/></g></g><g transform="translate(458.869565, 406.458329)"><g><path d="M 24.328125 0 C 23.929688 -2.113281 23.070312 -4.90625 21.75 -8.375 C 20.4375 -11.84375 18.648438 -16.023438 16.390625 -20.921875 C 16.140625 -20.648438 15.953125 -20.4375 15.828125 -20.28125 C 15.710938 -20.132812 15.640625 -20.046875 15.609375 -20.015625 C 15.578125 -19.890625 15.550781 -19.625 15.53125 -19.21875 C 15.519531 -18.8125 15.515625 -18.242188 15.515625 -17.515625 L 15.515625 0 L 2.40625 0 L 2.40625 -16.0625 C 2.40625 -24.570312 5.019531 -30.082031 10.25 -32.59375 C 5.226562 -42.457031 2.429688 -49.503906 1.859375 -53.734375 L 15.515625 -53.734375 C 16.179688 -50.710938 17.171875 -47.519531 18.484375 -44.15625 C 19.804688 -40.800781 21.46875 -37.234375 23.46875 -33.453125 C 24.21875 -33.992188 24.59375 -35.113281 24.59375 -36.8125 L 24.59375 -53.734375 L 37.859375 -53.734375 L 37.859375 -35.53125 C 37.859375 -32.8125 37.023438 -30.164062 35.359375 -27.59375 C 33.691406 -25.050781 31.632812 -23.113281 29.1875 -21.78125 C 34.84375 -10.53125 37.734375 -3.269531 37.859375 0 Z M 24.328125 0 "/></g></g><g transform="translate(498.584236, 406.458329)"><g><path d="M 32.09375 -19.421875 C 32.09375 -6.472656 25.890625 0 13.484375 0 L 7.8125 0 L 7.8125 -14.03125 L 11.625 -14.03125 C 14.550781 -14.03125 16.546875 -14.96875 17.609375 -16.84375 C 18.367188 -18.164062 18.75 -20.476562 18.75 -23.78125 L 18.75 -37.484375 C 18.75 -38.972656 17.988281 -39.71875 16.46875 -39.71875 L 2.3125 -39.71875 L 2.3125 -60.40625 L 15.484375 -60.40625 L 15.484375 -53.734375 L 25.375 -53.734375 C 29.851562 -53.734375 32.09375 -51.570312 32.09375 -47.25 Z M 32.09375 -19.421875 "/></g></g><g transform="translate(532.988489, 406.458329)"><g><path d="M 34.453125 0 L 21.109375 0 L 21.109375 -37.484375 C 21.109375 -38.972656 20.347656 -39.71875 18.828125 -39.71875 L 2.3125 -39.71875 L 2.3125 -53.734375 L 24.96875 -53.734375 C 27.75 -53.734375 30.03125 -52.84375 31.8125 -51.0625 C 33.570312 -49.300781 34.453125 -47.015625 34.453125 -44.203125 Z M 15.4375 0 L 2.359375 0 L 2.359375 -33.3125 L 15.4375 -33.3125 Z M 15.4375 0 "/></g></g><g transform="translate(569.752928, 406.458329)"><g/></g><g transform="translate(590.313781, 406.458329)"><g><path d="M 35.953125 0 L 2.3125 0 L 2.3125 -44.34375 C 2.3125 -47.695312 2.875 -50.039062 4 -51.375 C 5.269531 -52.945312 7.535156 -53.734375 10.796875 -53.734375 L 26.875 -53.734375 C 32.925781 -53.734375 35.953125 -50.601562 35.953125 -44.34375 Z M 22.828125 -37.171875 C 22.828125 -38.867188 22.054688 -39.71875 20.515625 -39.71875 L 17.96875 -39.71875 C 16.425781 -39.71875 15.65625 -38.867188 15.65625 -37.171875 L 15.65625 -14.03125 L 22.828125 -14.03125 Z M 22.828125 -37.171875 "/></g></g><g transform="translate(628.57603, 406.458329)"><g><path d="M 15.4375 0 L 2.3125 0 L 2.3125 -53.734375 L 15.4375 -53.734375 Z M 15.4375 0 "/></g></g><g transform="translate(646.322814, 406.458329)"><g><path d="M 28.78125 0 L 15.484375 0 L 15.484375 -37.484375 C 15.484375 -38.972656 14.707031 -39.71875 13.15625 -39.71875 L 1.40625 -39.71875 L 1.40625 -53.734375 L 19.296875 -53.734375 C 22.078125 -53.734375 24.359375 -52.84375 26.140625 -51.0625 C 27.898438 -49.300781 28.78125 -47.015625 28.78125 -44.203125 Z M 28.78125 0 "/></g></g><g transform="translate(677.413729, 406.458329)"><g><path d="M 15.25 -29.90625 L 2.21875 -29.90625 L 2.21875 -53.734375 L 15.25 -53.734375 Z M 15.25 -29.90625 "/></g></g><g transform="translate(694.978961, 406.458329)"><g><path d="M 35.03125 0 L 21.875 0 L 21.875 -37.171875 C 21.875 -38.867188 21.101562 -39.71875 19.5625 -39.71875 L 17.96875 -39.71875 C 16.425781 -39.71875 15.65625 -38.867188 15.65625 -37.171875 L 15.65625 0 L 2.3125 0 L 2.3125 -44.34375 C 2.3125 -47.695312 2.875 -50.039062 4 -51.375 C 5.269531 -52.945312 7.535156 -53.734375 10.796875 -53.734375 L 25.96875 -53.734375 C 32.007812 -53.734375 35.03125 -50.601562 35.03125 -44.34375 Z M 35.03125 0 "/></g></g><g transform="translate(732.333446, 406.458329)"><g><path d="M 34.453125 0 L 21.109375 0 L 21.109375 -37.484375 C 21.109375 -38.972656 20.347656 -39.71875 18.828125 -39.71875 L 2.3125 -39.71875 L 2.3125 -53.734375 L 24.96875 -53.734375 C 27.75 -53.734375 30.03125 -52.84375 31.8125 -51.0625 C 33.570312 -49.300781 34.453125 -47.015625 34.453125 -44.203125 Z M 15.4375 0 L 2.359375 0 L 2.359375 -33.3125 L 15.4375 -33.3125 Z M 15.4375 0 "/></g></g></g></svg>