<svg xmlns="http://www.w3.org/2000/svg" xmlns:xlink="http://www.w3.org/1999/xlink" width="1486" zoomAndPan="magnify" viewBox="0 0 1114.5 516.750002" height="689" preserveAspectRatio="xMidYMid meet" version="1.0"><defs><g/><clipPath id="c894a29891"><path d="M 0.0195312 0 L 1113.980469 0 L 1113.980469 516.332031 L 0.0195312 516.332031 Z M 0.0195312 0 " clip-rule="nonzero"/></clipPath><clipPath id="910cccad9d"><path d="M 38.25 0 L 1075.71875 0 C 1085.859375 0 1095.582031 4.027344 1102.753906 11.199219 C 1109.921875 18.367188 1113.949219 28.09375 1113.949219 38.230469 L 1113.949219 478.101562 C 1113.949219 488.242188 1109.921875 497.964844 1102.753906 505.136719 C 1095.582031 512.304688 1085.859375 516.332031 1075.71875 516.332031 L 38.25 516.332031 C 28.113281 516.332031 18.386719 512.304688 11.21875 505.136719 C 4.046875 497.964844 0.0195312 488.242188 0.0195312 478.101562 L 0.0195312 38.230469 C 0.0195312 28.09375 4.046875 18.367188 11.21875 11.199219 C 18.386719 4.027344 28.113281 0 38.25 0 Z M 38.25 0 " clip-rule="nonzero"/></clipPath><clipPath id="4c6d2947f1"><path d="M 0.0273438 0 L 1113.980469 0 L 1113.980469 516.5 L 0.0273438 516.5 Z M 0.0273438 0 " clip-rule="nonzero"/></clipPath><clipPath id="f0db4b6d2c"><path d="M 38.257812 0 L 1075.707031 0 C 1085.847656 0 1095.570312 4.027344 1102.742188 11.199219 C 1109.910156 18.367188 1113.941406 28.089844 1113.941406 38.230469 L 1113.941406 478.09375 C 1113.941406 488.234375 1109.910156 497.957031 1102.742188 505.125 C 1095.570312 512.296875 1085.847656 516.324219 1075.707031 516.324219 L 38.257812 516.324219 C 28.117188 516.324219 18.394531 512.296875 11.222656 505.125 C 4.054688 497.957031 0.0273438 488.234375 0.0273438 478.09375 L 0.0273438 38.230469 C 0.0273438 28.089844 4.054688 18.367188 11.222656 11.199219 C 18.394531 4.027344 28.117188 0 38.257812 0 Z M 38.257812 0 " clip-rule="nonzero"/></clipPath></defs><g clip-path="url(#c894a29891)"><g clip-path="url(#910cccad9d)"><path fill="#ffcf7e" d="M 0.0195312 0 L 1113.363281 0 L 1113.363281 516.332031 L 0.0195312 516.332031 Z M 0.0195312 0 " fill-opacity="1" fill-rule="nonzero"/></g></g><g clip-path="url(#4c6d2947f1)"><g clip-path="url(#f0db4b6d2c)"><path stroke-linecap="butt" transform="matrix(0.749637, 0, 0, 0.749637, 0.0256264, 0.0000199903)" fill="none" stroke-linejoin="miter" d="M 51.000909 -0.0000266667 L 1434.935712 -0.0000266667 C 1448.463086 -0.0000266667 1461.43811 5.372363 1471.000025 14.939489 C 1480.56194 24.501404 1485.93954 37.471217 1485.93954 50.998591 L 1485.93954 637.766688 C 1485.93954 651.294062 1480.56194 664.263875 1471.000025 673.82579 C 1461.43811 683.392916 1448.463086 688.765306 1434.935712 688.765306 L 51.000909 688.765306 C 37.473534 688.765306 24.503721 683.392916 14.936595 673.82579 C 5.37468 664.263875 0.00229086 651.294062 0.00229086 637.766688 L 0.00229086 50.998591 C 0.00229086 37.471217 5.37468 24.501404 14.936595 14.939489 C 24.503721 5.372363 37.473534 -0.0000266667 51.000909 -0.0000266667 Z M 51.000909 -0.0000266667 " stroke="#cf4545" stroke-width="40" stroke-opacity="1" stroke-miterlimit="4"/></g></g><g fill="#cf4545" fill-opacity="1"><g transform="translate(955.16379, 84.723757)"><g><path d="M 10.921875 -20.5625 L 1.4375 -20.5625 L 1.4375 -30.8125 L 10.921875 -30.8125 Z M 10.921875 0 L 1.4375 0 L 1.4375 -10.296875 L 10.921875 -10.296875 Z M 10.921875 0 "/></g></g></g><g fill="#cf4545" fill-opacity="1"><g transform="translate(967.392249, 84.723757)"><g><path d="M 21.890625 0 L 11.671875 0 L 11.671875 -30.71875 L 4.75 -30.71875 L 4.75 -41.609375 L 13.953125 -41.609375 C 19.242188 -41.609375 21.890625 -38.9375 21.890625 -33.59375 Z M 21.890625 0 "/></g></g><g transform="translate(995.468509, 84.723757)"><g><path d="M 25.96875 -7.984375 C 25.96875 -2.660156 23.539062 0 18.6875 0 L 3.578125 0 L 3.578125 -10.859375 L 15.84375 -10.859375 L 15.84375 -15.78125 L 9.421875 -15.78125 C 4.566406 -15.78125 2.140625 -18.4375 2.140625 -23.75 L 2.140625 -33.59375 C 2.140625 -38.9375 4.832031 -41.609375 10.21875 -41.609375 L 17.921875 -41.609375 C 20.359375 -41.609375 22.300781 -40.878906 23.75 -39.421875 C 25.226562 -37.972656 25.96875 -36.03125 25.96875 -33.59375 Z M 15.84375 -25.203125 L 15.84375 -30.71875 L 12.296875 -30.71875 L 12.296875 -25.203125 Z M 15.84375 -25.203125 "/></g></g><g transform="translate(1023.544768, 84.723757)"><g><path d="M 28.421875 -7.90625 L 26.359375 -7.90625 L 26.359375 0 L 16.203125 0 L 16.203125 -7.90625 L -0.34375 -7.90625 L 7.5625 -41.609375 L 18.125 -41.609375 L 12.890625 -18.796875 L 16.203125 -18.796875 L 16.203125 -25.96875 L 26.359375 -25.96875 L 26.359375 -18.796875 L 28.421875 -18.796875 Z M 28.421875 -7.90625 "/></g></g><g transform="translate(1051.621028, 84.723757)"><g><path d="M 26.359375 -7.984375 C 26.359375 -2.660156 23.6875 0 18.34375 0 L 9.796875 0 C 7.460938 0 5.546875 -0.75 4.046875 -2.25 C 2.546875 -3.75 1.796875 -5.660156 1.796875 -7.984375 L 1.796875 -15.390625 C 1.796875 -18.484375 3.257812 -20.546875 6.1875 -21.578125 C 4.78125 -21.691406 3.675781 -22.320312 2.875 -23.46875 C 2.15625 -24.550781 1.796875 -25.816406 1.796875 -27.265625 L 1.796875 -33.59375 C 1.796875 -35.789062 2.554688 -37.675781 4.078125 -39.25 C 5.578125 -40.820312 7.453125 -41.609375 9.703125 -41.609375 L 18.34375 -41.609375 C 23.6875 -41.609375 26.359375 -38.9375 26.359375 -33.59375 L 26.359375 -27.546875 C 26.359375 -26.140625 25.890625 -24.890625 24.953125 -23.796875 C 23.992188 -22.691406 22.84375 -21.953125 21.5 -21.578125 C 24.738281 -20.828125 26.359375 -18.742188 26.359375 -15.328125 Z M 16.203125 -25.90625 L 16.203125 -30.71875 L 11.953125 -30.71875 L 11.953125 -25.90625 Z M 16.203125 -10.859375 L 16.203125 -17.296875 L 11.953125 -17.296875 L 11.953125 -10.859375 Z M 16.203125 -10.859375 "/></g></g></g><g fill="#cf4545" fill-opacity="1"><g transform="translate(103.118276, 207.514618)"><g><path d="M 14.71875 6.71875 L 1.59375 6.71875 L 1.59375 -54.453125 L 14.71875 -54.453125 L 14.71875 -44.703125 L 11.671875 -44.703125 L 11.671875 -3.203125 L 14.71875 -3.203125 Z M 14.71875 6.71875 "/></g></g></g><g fill="#cf4545" fill-opacity="1"><g transform="translate(119.59307, 207.514618)"><g><path d="M 31.96875 0 L 20.6875 0 L 20.6875 -31.96875 C 20.6875 -33.425781 20.023438 -34.15625 18.703125 -34.15625 L 17.171875 -34.15625 C 15.816406 -34.15625 15.140625 -33.425781 15.140625 -31.96875 L 15.140625 -5.546875 C 15.140625 -1.847656 13.59375 0 10.5 0 L 0.78125 0 L 0.78125 -12.0625 L 2.734375 -12.0625 C 3.378906 -12.0625 3.703125 -12.347656 3.703125 -12.921875 L 3.703125 -37.359375 C 3.703125 -40.503906 4.316406 -42.769531 5.546875 -44.15625 C 6.765625 -45.53125 8.925781 -46.21875 12.03125 -46.21875 L 24.203125 -46.21875 C 29.378906 -46.21875 31.96875 -43.265625 31.96875 -37.359375 Z M 31.96875 0 "/></g></g></g><g fill="#cf4545" fill-opacity="1"><g transform="translate(153.596733, 207.514618)"><g><path d="M 13.125 -25.734375 L 1.90625 -25.734375 L 1.90625 -46.21875 L 13.125 -46.21875 Z M 13.125 -25.734375 "/></g></g></g><g fill="#cf4545" fill-opacity="1"><g transform="translate(168.705135, 207.514618)"><g><path d="M 30.140625 0 L 18.8125 0 L 18.8125 -31.96875 C 18.8125 -33.425781 18.148438 -34.15625 16.828125 -34.15625 L 15.453125 -34.15625 C 14.128906 -34.15625 13.46875 -33.425781 13.46875 -31.96875 L 13.46875 0 L 1.984375 0 L 1.984375 -38.140625 C 1.984375 -41.023438 2.46875 -43.039062 3.4375 -44.1875 C 4.53125 -45.539062 6.484375 -46.21875 9.296875 -46.21875 L 22.328125 -46.21875 C 27.535156 -46.21875 30.140625 -43.523438 30.140625 -38.140625 Z M 30.140625 0 "/></g></g></g><g fill="#cf4545" fill-opacity="1"><g transform="translate(200.834887, 207.514618)"><g><path d="M 24.75 0 L 13.3125 0 L 13.3125 -32.25 C 13.3125 -33.519531 12.648438 -34.15625 11.328125 -34.15625 L 1.203125 -34.15625 L 1.203125 -46.21875 L 16.59375 -46.21875 C 18.988281 -46.21875 20.953125 -45.453125 22.484375 -43.921875 C 23.992188 -42.410156 24.75 -40.445312 24.75 -38.03125 Z M 24.75 0 "/></g></g></g><g fill="#cf4545" fill-opacity="1"><g transform="translate(227.577148, 207.514618)"><g><path d="M 17.328125 -34.15625 L 17.171875 -34.15625 C 15.378906 -34.15625 14.484375 -32.867188 14.484375 -30.296875 L 14.484375 0 L 3.28125 0 L 3.28125 -28.03125 C 3.28125 -31.382812 4.347656 -33.425781 6.484375 -34.15625 L 1.59375 -34.15625 L 1.59375 -46.21875 L 17.328125 -46.21875 Z M 17.328125 -34.15625 "/></g></g></g><g fill="#cf4545" fill-opacity="1"><g transform="translate(246.511449, 207.514618)"><g><path d="M 20.921875 0 C 20.585938 -1.820312 19.851562 -4.222656 18.71875 -7.203125 C 17.582031 -10.179688 16.039062 -13.78125 14.09375 -18 C 13.882812 -17.757812 13.726562 -17.570312 13.625 -17.4375 C 13.519531 -17.3125 13.453125 -17.238281 13.421875 -17.21875 C 13.398438 -17.113281 13.378906 -16.882812 13.359375 -16.53125 C 13.347656 -16.175781 13.34375 -15.6875 13.34375 -15.0625 L 13.34375 0 L 2.0625 0 L 2.0625 -13.8125 C 2.0625 -21.132812 4.316406 -25.875 8.828125 -28.03125 C 4.503906 -36.507812 2.09375 -42.570312 1.59375 -46.21875 L 13.34375 -46.21875 C 13.914062 -43.613281 14.769531 -40.867188 15.90625 -37.984375 C 17.039062 -35.097656 18.46875 -32.023438 20.1875 -28.765625 C 20.832031 -29.234375 21.15625 -30.195312 21.15625 -31.65625 L 21.15625 -46.21875 L 32.5625 -46.21875 L 32.5625 -30.5625 C 32.5625 -28.21875 31.84375 -25.941406 30.40625 -23.734375 C 28.976562 -21.546875 27.210938 -19.878906 25.109375 -18.734375 C 29.972656 -9.054688 32.457031 -2.8125 32.5625 0 Z M 20.921875 0 "/></g></g></g><g fill="#cf4545" fill-opacity="1"><g transform="translate(280.671271, 207.514618)"><g/></g></g><g fill="#cf4545" fill-opacity="1"><g transform="translate(298.356288, 207.514618)"><g><path d="M 29.625 0 L 18.15625 0 L 18.15625 -32.25 C 18.15625 -33.519531 17.503906 -34.15625 16.203125 -34.15625 L 1.984375 -34.15625 L 1.984375 -46.21875 L 21.46875 -46.21875 C 23.863281 -46.21875 25.828125 -45.453125 27.359375 -43.921875 C 28.867188 -42.410156 29.625 -40.445312 29.625 -38.03125 Z M 13.28125 0 L 2.03125 0 L 2.03125 -28.65625 L 13.28125 -28.65625 Z M 13.28125 0 "/></g></g></g><g fill="#cf4545" fill-opacity="1"><g transform="translate(329.978523, 207.514618)"><g><path d="M 22.40625 -7.265625 C 22.40625 -2.421875 20.113281 0 15.53125 0 L 1.59375 0 L 1.59375 -12.0625 L 9.609375 -12.0625 C 10.546875 -12.0625 11.015625 -12.632812 11.015625 -13.78125 L 11.015625 -32.25 C 11.015625 -33.519531 10.441406 -34.15625 9.296875 -34.15625 L 4.921875 -34.15625 L 4.921875 -46.21875 L 15.34375 -46.21875 C 20.050781 -46.21875 22.40625 -43.785156 22.40625 -38.921875 Z M 22.40625 -7.265625 "/></g></g></g><g fill="#cf4545" fill-opacity="1"><g transform="translate(354.378407, 207.514618)"><g><path d="M 27.40625 0 L 16.125 0 L 14.09375 -12.8125 C 13.289062 -12.8125 12.785156 -12.238281 12.578125 -11.09375 L 10.46875 0 L 0.390625 0 L 3.078125 -13.34375 C 4.273438 -19.382812 7.078125 -22.40625 11.484375 -22.40625 L 13.34375 -22.40625 L 13.34375 -32.25 C 13.34375 -33.519531 12.617188 -34.15625 11.171875 -34.15625 L 3.125 -34.15625 L 3.125 -46.21875 L 16.15625 -46.21875 C 21.863281 -46.21875 24.71875 -43.226562 24.71875 -37.25 L 24.71875 -21.703125 C 24.71875 -20.066406 24.757812 -18.554688 24.84375 -17.171875 C 24.9375 -15.796875 25.078125 -14.535156 25.265625 -13.390625 Z M 27.40625 0 "/></g></g></g><g fill="#cf4545" fill-opacity="1"><g transform="translate(382.604192, 207.514618)"><g><path d="M 29.625 0 L 18.15625 0 L 18.15625 -32.25 C 18.15625 -33.519531 17.503906 -34.15625 16.203125 -34.15625 L 1.984375 -34.15625 L 1.984375 -46.21875 L 21.46875 -46.21875 C 23.863281 -46.21875 25.828125 -45.453125 27.359375 -43.921875 C 28.867188 -42.410156 29.625 -40.445312 29.625 -38.03125 Z M 13.28125 0 L 2.03125 0 L 2.03125 -28.65625 L 13.28125 -28.65625 Z M 13.28125 0 "/></g></g></g><g fill="#cf4545" fill-opacity="1"><g transform="translate(414.226427, 207.514618)"><g><path d="M 15.03125 6.71875 L 1.828125 6.71875 L 1.828125 -3.203125 L 4.953125 -3.203125 L 4.953125 -44.703125 L 1.828125 -44.703125 L 1.828125 -54.453125 L 15.03125 -54.453125 Z M 15.03125 6.71875 "/></g></g></g><g fill="#cf4545" fill-opacity="1"><g transform="translate(430.701221, 207.514618)"><g/></g></g><g fill="#cf4545" fill-opacity="1"><g transform="translate(448.386238, 207.514618)"><g><path d="M 30.921875 0 L 1.984375 0 L 1.984375 -38.140625 C 1.984375 -41.023438 2.46875 -43.039062 3.4375 -44.1875 C 4.53125 -45.539062 6.484375 -46.21875 9.296875 -46.21875 L 23.109375 -46.21875 C 28.316406 -46.21875 30.921875 -43.523438 30.921875 -38.140625 Z M 19.640625 -31.96875 C 19.640625 -33.425781 18.972656 -34.15625 17.640625 -34.15625 L 15.453125 -34.15625 C 14.128906 -34.15625 13.46875 -33.425781 13.46875 -31.96875 L 13.46875 -12.0625 L 19.640625 -12.0625 Z M 19.640625 -31.96875 "/></g></g></g><g fill="#cf4545" fill-opacity="1"><g transform="translate(481.296798, 207.514618)"><g><path d="M 13.28125 0 L 1.984375 0 L 1.984375 -46.21875 L 13.28125 -46.21875 Z M 13.28125 0 "/></g></g></g><g fill="#cf4545" fill-opacity="1"><g transform="translate(496.56137, 207.514618)"><g><path d="M 24.75 0 L 13.3125 0 L 13.3125 -32.25 C 13.3125 -33.519531 12.648438 -34.15625 11.328125 -34.15625 L 1.203125 -34.15625 L 1.203125 -46.21875 L 16.59375 -46.21875 C 18.988281 -46.21875 20.953125 -45.453125 22.484375 -43.921875 C 23.992188 -42.410156 24.75 -40.445312 24.75 -38.03125 Z M 24.75 0 "/></g></g></g><g fill="#cf4545" fill-opacity="1"><g transform="translate(523.30362, 207.514618)"><g><path d="M 13.125 -25.734375 L 1.90625 -25.734375 L 1.90625 -46.21875 L 13.125 -46.21875 Z M 13.125 -25.734375 "/></g></g></g><g fill="#cf4545" fill-opacity="1"><g transform="translate(538.412032, 207.514618)"><g><path d="M 30.140625 0 L 18.8125 0 L 18.8125 -31.96875 C 18.8125 -33.425781 18.148438 -34.15625 16.828125 -34.15625 L 15.453125 -34.15625 C 14.128906 -34.15625 13.46875 -33.425781 13.46875 -31.96875 L 13.46875 0 L 1.984375 0 L 1.984375 -38.140625 C 1.984375 -41.023438 2.46875 -43.039062 3.4375 -44.1875 C 4.53125 -45.539062 6.484375 -46.21875 9.296875 -46.21875 L 22.328125 -46.21875 C 27.535156 -46.21875 30.140625 -43.523438 30.140625 -38.140625 Z M 30.140625 0 "/></g></g></g><g fill="#cf4545" fill-opacity="1"><g transform="translate(570.541797, 207.514618)"><g/></g></g><g fill="#cf4545" fill-opacity="1"><g transform="translate(588.226813, 207.514618)"><g><path d="M 31.96875 0 L 20.6875 0 L 20.6875 -31.96875 C 20.6875 -33.425781 20.023438 -34.15625 18.703125 -34.15625 L 17.171875 -34.15625 C 15.816406 -34.15625 15.140625 -33.425781 15.140625 -31.96875 L 15.140625 -5.546875 C 15.140625 -1.847656 13.59375 0 10.5 0 L 0.78125 0 L 0.78125 -12.0625 L 2.734375 -12.0625 C 3.378906 -12.0625 3.703125 -12.347656 3.703125 -12.921875 L 3.703125 -37.359375 C 3.703125 -40.503906 4.316406 -42.769531 5.546875 -44.15625 C 6.765625 -45.53125 8.925781 -46.21875 12.03125 -46.21875 L 24.203125 -46.21875 C 29.378906 -46.21875 31.96875 -43.265625 31.96875 -37.359375 Z M 31.96875 0 "/></g></g></g><g fill="#cf4545" fill-opacity="1"><g transform="translate(622.230487, 207.514618)"><g><path d="M 30.609375 -12.1875 C 30.609375 -4.0625 27.273438 0 20.609375 0 L 1.203125 0 L 1.203125 -12.0625 L 3.9375 -12.0625 L 3.9375 -46.21875 L 15.21875 -46.21875 L 15.21875 -12.0625 L 17.484375 -12.0625 C 18.785156 -12.0625 19.4375 -12.957031 19.4375 -14.75 L 19.4375 -46.21875 L 30.609375 -46.21875 Z M 30.609375 -12.1875 "/></g></g></g><g fill="#cf4545" fill-opacity="1"><g transform="translate(654.828729, 207.514618)"><g><path d="M 12.890625 -33.109375 L 14.640625 -33.109375 C 15.910156 -33.109375 16.546875 -33.796875 16.546875 -35.171875 L 16.546875 -46.21875 L 26.96875 -46.21875 L 26.96875 -33.265625 C 26.96875 -27.878906 24.640625 -25.1875 19.984375 -25.1875 L 12.890625 -25.1875 L 12.890625 -14.171875 C 12.890625 -12.765625 13.472656 -12.0625 14.640625 -12.0625 L 28.890625 -12.0625 C 30.035156 -12.0625 30.609375 -12.765625 30.609375 -14.171875 L 30.609375 -46.21875 L 41.53125 -46.21875 L 41.53125 -10.5 C 41.53125 -7.320312 40.710938 -4.796875 39.078125 -2.921875 C 37.359375 -0.972656 34.925781 0 31.78125 0 L 11.75 0 C 5.238281 0 1.984375 -3.5 1.984375 -10.5 L 1.984375 -46.21875 L 12.890625 -46.21875 Z M 12.890625 -33.109375 "/></g></g></g><g fill="#cf4545" fill-opacity="1"><g transform="translate(698.358114, 207.514618)"><g/></g></g><g fill="#cf4545" fill-opacity="1"><g transform="translate(716.043131, 207.514618)"><g><path d="M 31.96875 0 L 20.6875 0 L 20.6875 -31.96875 C 20.6875 -33.425781 20.023438 -34.15625 18.703125 -34.15625 L 17.171875 -34.15625 C 15.816406 -34.15625 15.140625 -33.425781 15.140625 -31.96875 L 15.140625 -5.546875 C 15.140625 -1.847656 13.59375 0 10.5 0 L 0.78125 0 L 0.78125 -12.0625 L 2.734375 -12.0625 C 3.378906 -12.0625 3.703125 -12.347656 3.703125 -12.921875 L 3.703125 -37.359375 C 3.703125 -40.503906 4.316406 -42.769531 5.546875 -44.15625 C 6.765625 -45.53125 8.925781 -46.21875 12.03125 -46.21875 L 24.203125 -46.21875 C 29.378906 -46.21875 31.96875 -43.265625 31.96875 -37.359375 Z M 31.96875 0 "/></g></g></g><g fill="#cf4545" fill-opacity="1"><g transform="translate(750.046805, 207.514618)"><g><path d="M 13.28125 0 L 1.984375 0 L 1.984375 -46.21875 L 13.28125 -46.21875 Z M 13.28125 0 "/></g></g></g><g fill="#cf4545" fill-opacity="1"><g transform="translate(765.311377, 207.514618)"><g><path d="M 22.40625 -7.265625 C 22.40625 -2.421875 20.113281 0 15.53125 0 L 1.59375 0 L 1.59375 -12.0625 L 9.609375 -12.0625 C 10.546875 -12.0625 11.015625 -12.632812 11.015625 -13.78125 L 11.015625 -32.25 C 11.015625 -33.519531 10.441406 -34.15625 9.296875 -34.15625 L 4.921875 -34.15625 L 4.921875 -46.21875 L 15.34375 -46.21875 C 20.050781 -46.21875 22.40625 -43.785156 22.40625 -38.921875 Z M 22.40625 -7.265625 "/></g></g></g><g fill="#cf4545" fill-opacity="1"><g transform="translate(789.711238, 207.514618)"><g><path d="M 29.9375 -14.28125 C 29.9375 -9.570312 29.171875 -6.097656 27.640625 -3.859375 C 25.765625 -1.210938 22.578125 0.109375 18.078125 0.109375 C 17.265625 0.109375 16.414062 0.0703125 15.53125 0 L 15.53125 -12.0625 C 17.507812 -12.0625 18.5 -13.519531 18.5 -16.4375 L 18.5 -32.25 C 18.5 -33.519531 17.835938 -34.15625 16.515625 -34.15625 L 1.984375 -34.15625 L 1.984375 -46.21875 L 24.171875 -46.21875 C 28.015625 -46.21875 29.9375 -44.359375 29.9375 -40.640625 Z M 13.34375 6.671875 L 2.0625 6.671875 L 2.0625 -29.078125 L 13.34375 -29.078125 Z M 13.34375 6.671875 "/></g></g></g><g fill="#cf4545" fill-opacity="1"><g transform="translate(821.684844, 207.514618)"><g><path d="M 31.96875 0 L 20.6875 0 L 20.6875 -31.96875 C 20.6875 -33.425781 20.023438 -34.15625 18.703125 -34.15625 L 17.171875 -34.15625 C 15.816406 -34.15625 15.140625 -33.425781 15.140625 -31.96875 L 15.140625 -5.546875 C 15.140625 -1.847656 13.59375 0 10.5 0 L 0.78125 0 L 0.78125 -12.0625 L 2.734375 -12.0625 C 3.378906 -12.0625 3.703125 -12.347656 3.703125 -12.921875 L 3.703125 -37.359375 C 3.703125 -40.503906 4.316406 -42.769531 5.546875 -44.15625 C 6.765625 -45.53125 8.925781 -46.21875 12.03125 -46.21875 L 24.203125 -46.21875 C 29.378906 -46.21875 31.96875 -43.265625 31.96875 -37.359375 Z M 31.96875 0 "/></g></g></g><g fill="#cf4545" fill-opacity="1"><g transform="translate(855.688517, 207.514618)"><g/></g></g><g fill="#cf4545" fill-opacity="1"><g transform="translate(873.373534, 207.514618)"><g><path d="M 21.515625 -16.546875 L 2.375 -16.546875 L 2.375 -28.609375 L 21.515625 -28.609375 Z M 21.515625 -16.546875 "/></g></g></g><g fill="#cf4545" fill-opacity="1"><g transform="translate(897.265844, 207.514618)"><g/></g></g><g fill="#cf4545" fill-opacity="1"><g transform="translate(914.952049, 207.514618)"><g><path d="M 24.328125 0 L 12.96875 0 L 12.96875 -34.125 L 5.265625 -34.125 L 5.265625 -46.21875 L 15.5 -46.21875 C 21.382812 -46.21875 24.328125 -43.253906 24.328125 -37.328125 Z M 24.328125 0 "/></g></g></g><g fill="#cf4545" fill-opacity="1"><g transform="translate(946.144846, 207.514618)"><g><path d="M 28.84375 -8.859375 C 28.84375 -2.953125 26.148438 0 20.765625 0 L 3.984375 0 L 3.984375 -12.0625 L 17.609375 -12.0625 L 17.609375 -17.53125 L 10.46875 -17.53125 C 5.070312 -17.53125 2.375 -20.484375 2.375 -26.390625 L 2.375 -37.328125 C 2.375 -43.253906 5.367188 -46.21875 11.359375 -46.21875 L 19.90625 -46.21875 C 22.613281 -46.21875 24.773438 -45.410156 26.390625 -43.796875 C 28.023438 -42.179688 28.84375 -40.023438 28.84375 -37.328125 Z M 17.609375 -27.984375 L 17.609375 -34.125 L 13.65625 -34.125 L 13.65625 -27.984375 Z M 17.609375 -27.984375 "/></g></g></g><g fill="#cf4545" fill-opacity="1"><g transform="translate(977.337643, 207.514618)"><g><path d="M 31.578125 -8.78125 L 29.28125 -8.78125 L 29.28125 0 L 18 0 L 18 -8.78125 L -0.390625 -8.78125 L 8.390625 -46.21875 L 20.140625 -46.21875 L 14.328125 -20.890625 L 18 -20.890625 L 18 -28.84375 L 29.28125 -28.84375 L 29.28125 -20.890625 L 31.578125 -20.890625 Z M 31.578125 -8.78125 "/></g></g></g><g fill="#cf4545" fill-opacity="1"><g transform="translate(1008.53044, 207.514618)"><g><path d="M 29.28125 -8.859375 C 29.28125 -2.953125 26.3125 0 20.375 0 L 10.890625 0 C 8.285156 0 6.148438 -0.832031 4.484375 -2.5 C 2.816406 -4.164062 1.984375 -6.285156 1.984375 -8.859375 L 1.984375 -17.09375 C 1.984375 -20.53125 3.613281 -22.820312 6.875 -23.96875 C 5.3125 -24.101562 4.085938 -24.804688 3.203125 -26.078125 C 2.390625 -27.273438 1.984375 -28.679688 1.984375 -30.296875 L 1.984375 -37.328125 C 1.984375 -39.765625 2.832031 -41.859375 4.53125 -43.609375 C 6.195312 -45.347656 8.28125 -46.21875 10.78125 -46.21875 L 20.375 -46.21875 C 26.3125 -46.21875 29.28125 -43.253906 29.28125 -37.328125 L 29.28125 -30.609375 C 29.28125 -29.046875 28.757812 -27.65625 27.71875 -26.4375 C 26.65625 -25.207031 25.378906 -24.382812 23.890625 -23.96875 C 27.484375 -23.132812 29.28125 -20.816406 29.28125 -17.015625 Z M 18 -28.765625 L 18 -34.125 L 13.28125 -34.125 L 13.28125 -28.765625 Z M 18 -12.0625 L 18 -19.203125 L 13.28125 -19.203125 L 13.28125 -12.0625 Z M 18 -12.0625 "/></g></g></g><g fill="#cf4545" fill-opacity="1"><g transform="translate(232.869286, 342.101453)"><g><path d="M 13.125 -25.734375 L 1.90625 -25.734375 L 1.90625 -46.21875 L 13.125 -46.21875 Z M 13.125 -25.734375 "/></g></g></g><g fill="#cf4545" fill-opacity="1"><g transform="translate(247.977688, 342.101453)"><g><path d="M 22.40625 -7.265625 C 22.40625 -2.421875 20.113281 0 15.53125 0 L 1.59375 0 L 1.59375 -12.0625 L 9.609375 -12.0625 C 10.546875 -12.0625 11.015625 -12.632812 11.015625 -13.78125 L 11.015625 -32.25 C 11.015625 -33.519531 10.441406 -34.15625 9.296875 -34.15625 L 4.921875 -34.15625 L 4.921875 -46.21875 L 15.34375 -46.21875 C 20.050781 -46.21875 22.40625 -43.785156 22.40625 -38.921875 Z M 22.40625 -7.265625 "/></g></g></g><g fill="#cf4545" fill-opacity="1"><g transform="translate(272.37756, 342.101453)"><g><path d="M 29.546875 -8.984375 C 29.546875 -2.992188 26.644531 0 20.84375 0 L 2.0625 0 L 2.0625 -12.0625 L 16.046875 -12.0625 C 17.578125 -12.0625 18.34375 -12.972656 18.34375 -14.796875 L 18.34375 -32.25 C 18.34375 -33.519531 17.757812 -34.15625 16.59375 -34.15625 L 15.03125 -34.15625 C 13.957031 -34.15625 13.421875 -33.492188 13.421875 -32.171875 L 13.421875 -25.375 L 1.984375 -25.375 L 1.984375 -38.03125 C 1.984375 -43.488281 4.613281 -46.21875 9.875 -46.21875 L 21.4375 -46.21875 C 23.882812 -46.21875 25.847656 -45.460938 27.328125 -43.953125 C 28.804688 -42.421875 29.546875 -40.445312 29.546875 -38.03125 Z M 29.546875 -8.984375 "/></g></g></g><g fill="#cf4545" fill-opacity="1"><g transform="translate(303.960756, 342.101453)"><g><path d="M 28.375 0 L 1.984375 0 L 1.984375 -12.0625 L 10.78125 -12.0625 C 13.351562 -12.0625 14.640625 -13.582031 14.640625 -16.625 L 14.640625 -30.484375 C 14.640625 -31.835938 14.40625 -32.785156 13.9375 -33.328125 C 13.46875 -33.878906 12.570312 -34.15625 11.25 -34.15625 L 1.984375 -34.15625 L 1.984375 -46.21875 L 17.171875 -46.21875 C 23.140625 -46.21875 26.125 -42.691406 26.125 -35.640625 L 26.125 -19.828125 C 26.125 -15.742188 24.597656 -13.15625 21.546875 -12.0625 L 28.375 -12.0625 Z M 28.375 0 "/></g></g></g><g fill="#cf4545" fill-opacity="1"><g transform="translate(333.94332, 342.101453)"><g/></g></g><g fill="#cf4545" fill-opacity="1"><g transform="translate(351.628348, 342.101453)"><g><path d="M 31.96875 0 L 20.6875 0 L 20.6875 -31.96875 C 20.6875 -33.425781 20.023438 -34.15625 18.703125 -34.15625 L 17.171875 -34.15625 C 15.816406 -34.15625 15.140625 -33.425781 15.140625 -31.96875 L 15.140625 -5.546875 C 15.140625 -1.847656 13.59375 0 10.5 0 L 0.78125 0 L 0.78125 -12.0625 L 2.734375 -12.0625 C 3.378906 -12.0625 3.703125 -12.347656 3.703125 -12.921875 L 3.703125 -37.359375 C 3.703125 -40.503906 4.316406 -42.769531 5.546875 -44.15625 C 6.765625 -45.53125 8.925781 -46.21875 12.03125 -46.21875 L 24.203125 -46.21875 C 29.378906 -46.21875 31.96875 -43.265625 31.96875 -37.359375 Z M 31.96875 0 "/></g></g></g><g fill="#cf4545" fill-opacity="1"><g transform="translate(385.63201, 342.101453)"><g><path d="M 13.28125 0 L 1.984375 0 L 1.984375 -46.21875 L 13.28125 -46.21875 Z M 13.28125 0 "/></g></g></g><g fill="#cf4545" fill-opacity="1"><g transform="translate(400.896571, 342.101453)"><g><path d="M 22.40625 -7.265625 C 22.40625 -2.421875 20.113281 0 15.53125 0 L 1.59375 0 L 1.59375 -12.0625 L 9.609375 -12.0625 C 10.546875 -12.0625 11.015625 -12.632812 11.015625 -13.78125 L 11.015625 -32.25 C 11.015625 -33.519531 10.441406 -34.15625 9.296875 -34.15625 L 4.921875 -34.15625 L 4.921875 -46.21875 L 15.34375 -46.21875 C 20.050781 -46.21875 22.40625 -43.785156 22.40625 -38.921875 Z M 22.40625 -7.265625 "/></g></g></g><g fill="#cf4545" fill-opacity="1"><g transform="translate(425.296433, 342.101453)"><g><path d="M 22.40625 -7.265625 C 22.40625 -2.421875 20.113281 0 15.53125 0 L 1.59375 0 L 1.59375 -12.0625 L 9.609375 -12.0625 C 10.546875 -12.0625 11.015625 -12.632812 11.015625 -13.78125 L 11.015625 -32.25 C 11.015625 -33.519531 10.441406 -34.15625 9.296875 -34.15625 L 4.921875 -34.15625 L 4.921875 -46.21875 L 15.34375 -46.21875 C 20.050781 -46.21875 22.40625 -43.785156 22.40625 -38.921875 Z M 22.40625 -7.265625 "/></g></g></g><g fill="#cf4545" fill-opacity="1"><g transform="translate(449.696294, 342.101453)"><g><path d="M 13.28125 0 L 1.984375 0 L 1.984375 -46.21875 L 13.28125 -46.21875 Z M 13.28125 0 "/></g></g></g><g fill="#cf4545" fill-opacity="1"><g transform="translate(464.960866, 342.101453)"><g><path d="M 27.40625 0 L 16.125 0 L 14.09375 -12.8125 C 13.289062 -12.8125 12.785156 -12.238281 12.578125 -11.09375 L 10.46875 0 L 0.390625 0 L 3.078125 -13.34375 C 4.273438 -19.382812 7.078125 -22.40625 11.484375 -22.40625 L 13.34375 -22.40625 L 13.34375 -32.25 C 13.34375 -33.519531 12.617188 -34.15625 11.171875 -34.15625 L 3.125 -34.15625 L 3.125 -46.21875 L 16.15625 -46.21875 C 21.863281 -46.21875 24.71875 -43.226562 24.71875 -37.25 L 24.71875 -21.703125 C 24.71875 -20.066406 24.757812 -18.554688 24.84375 -17.171875 C 24.9375 -15.796875 25.078125 -14.535156 25.265625 -13.390625 Z M 27.40625 0 "/></g></g></g><g fill="#cf4545" fill-opacity="1"><g transform="translate(493.18665, 342.101453)"><g><path d="M 31.96875 0 L 20.6875 0 L 20.6875 -31.96875 C 20.6875 -33.425781 20.023438 -34.15625 18.703125 -34.15625 L 17.171875 -34.15625 C 15.816406 -34.15625 15.140625 -33.425781 15.140625 -31.96875 L 15.140625 -5.546875 C 15.140625 -1.847656 13.59375 0 10.5 0 L 0.78125 0 L 0.78125 -12.0625 L 2.734375 -12.0625 C 3.378906 -12.0625 3.703125 -12.347656 3.703125 -12.921875 L 3.703125 -37.359375 C 3.703125 -40.503906 4.316406 -42.769531 5.546875 -44.15625 C 6.765625 -45.53125 8.925781 -46.21875 12.03125 -46.21875 L 24.203125 -46.21875 C 29.378906 -46.21875 31.96875 -43.265625 31.96875 -37.359375 Z M 31.96875 0 "/></g></g></g><g fill="#cf4545" fill-opacity="1"><g transform="translate(527.190324, 342.101453)"><g><path d="M 29.625 0 L 18.15625 0 L 18.15625 -32.25 C 18.15625 -33.519531 17.503906 -34.15625 16.203125 -34.15625 L 1.984375 -34.15625 L 1.984375 -46.21875 L 21.46875 -46.21875 C 23.863281 -46.21875 25.828125 -45.453125 27.359375 -43.921875 C 28.867188 -42.410156 29.625 -40.445312 29.625 -38.03125 Z M 13.28125 0 L 2.03125 0 L 2.03125 -28.65625 L 13.28125 -28.65625 Z M 13.28125 0 "/></g></g></g><g fill="#cf4545" fill-opacity="1"><g transform="translate(558.81256, 342.101453)"><g/></g></g><g fill="#cf4545" fill-opacity="1"><g transform="translate(576.497599, 342.101453)"><g><path d="M 31.96875 0 L 20.6875 0 L 20.6875 -31.96875 C 20.6875 -33.425781 20.023438 -34.15625 18.703125 -34.15625 L 17.171875 -34.15625 C 15.816406 -34.15625 15.140625 -33.425781 15.140625 -31.96875 L 15.140625 -5.546875 C 15.140625 -1.847656 13.59375 0 10.5 0 L 0.78125 0 L 0.78125 -12.0625 L 2.734375 -12.0625 C 3.378906 -12.0625 3.703125 -12.347656 3.703125 -12.921875 L 3.703125 -37.359375 C 3.703125 -40.503906 4.316406 -42.769531 5.546875 -44.15625 C 6.765625 -45.53125 8.925781 -46.21875 12.03125 -46.21875 L 24.203125 -46.21875 C 29.378906 -46.21875 31.96875 -43.265625 31.96875 -37.359375 Z M 31.96875 0 "/></g></g></g><g fill="#cf4545" fill-opacity="1"><g transform="translate(610.501273, 342.101453)"><g><path d="M 13.28125 0 L 1.984375 0 L 1.984375 -46.21875 L 13.28125 -46.21875 Z M 13.28125 0 "/></g></g></g><g fill="#cf4545" fill-opacity="1"><g transform="translate(625.765845, 342.101453)"><g><path d="M 24.75 0 L 13.3125 0 L 13.3125 -32.25 C 13.3125 -33.519531 12.648438 -34.15625 11.328125 -34.15625 L 1.203125 -34.15625 L 1.203125 -46.21875 L 16.59375 -46.21875 C 18.988281 -46.21875 20.953125 -45.453125 22.484375 -43.921875 C 23.992188 -42.410156 24.75 -40.445312 24.75 -38.03125 Z M 24.75 0 "/></g></g></g><g fill="#cf4545" fill-opacity="1"><g transform="translate(652.508094, 342.101453)"><g><path d="M 13.125 -25.734375 L 1.90625 -25.734375 L 1.90625 -46.21875 L 13.125 -46.21875 Z M 13.125 -25.734375 "/></g></g></g><g fill="#cf4545" fill-opacity="1"><g transform="translate(667.616507, 342.101453)"><g><path d="M 12.890625 -33.109375 L 14.640625 -33.109375 C 15.910156 -33.109375 16.546875 -33.796875 16.546875 -35.171875 L 16.546875 -46.21875 L 26.96875 -46.21875 L 26.96875 -33.265625 C 26.96875 -27.878906 24.640625 -25.1875 19.984375 -25.1875 L 12.890625 -25.1875 L 12.890625 -14.171875 C 12.890625 -12.765625 13.472656 -12.0625 14.640625 -12.0625 L 28.890625 -12.0625 C 30.035156 -12.0625 30.609375 -12.765625 30.609375 -14.171875 L 30.609375 -46.21875 L 41.53125 -46.21875 L 41.53125 -10.5 C 41.53125 -7.320312 40.710938 -4.796875 39.078125 -2.921875 C 37.359375 -0.972656 34.925781 0 31.78125 0 L 11.75 0 C 5.238281 0 1.984375 -3.5 1.984375 -10.5 L 1.984375 -46.21875 L 12.890625 -46.21875 Z M 12.890625 -33.109375 "/></g></g></g><g fill="#cf4545" fill-opacity="1"><g transform="translate(711.145892, 342.101453)"><g><path d="M 0.78125 -42.546875 C 0.78125 -44.785156 1.742188 -46.945312 3.671875 -49.03125 C 5.253906 -50.75 7.0625 -52.066406 9.09375 -52.984375 L 9.09375 -33.140625 L 0.78125 -33.140625 Z M 10.96875 -42.546875 C 10.96875 -46.660156 13.710938 -50.140625 19.203125 -52.984375 L 19.203125 -33.140625 L 10.96875 -33.140625 Z M 10.96875 -42.546875 "/></g></g></g><g fill="#cf4545" fill-opacity="1"><g transform="translate(731.134268, 342.101453)"><g/></g></g><g fill="#cf4545" fill-opacity="1"><g transform="translate(748.819285, 342.101453)"><g><path d="M 31.96875 0 L 20.6875 0 L 20.6875 -31.96875 C 20.6875 -33.425781 20.023438 -34.15625 18.703125 -34.15625 L 17.171875 -34.15625 C 15.816406 -34.15625 15.140625 -33.425781 15.140625 -31.96875 L 15.140625 -5.546875 C 15.140625 -1.847656 13.59375 0 10.5 0 L 0.78125 0 L 0.78125 -12.0625 L 2.734375 -12.0625 C 3.378906 -12.0625 3.703125 -12.347656 3.703125 -12.921875 L 3.703125 -37.359375 C 3.703125 -40.503906 4.316406 -42.769531 5.546875 -44.15625 C 6.765625 -45.53125 8.925781 -46.21875 12.03125 -46.21875 L 24.203125 -46.21875 C 29.378906 -46.21875 31.96875 -43.265625 31.96875 -37.359375 Z M 31.96875 0 "/></g></g></g><g fill="#cf4545" fill-opacity="1"><g transform="translate(782.822959, 342.101453)"><g><path d="M 32.671875 -8.3125 C 32.671875 -2.769531 30.160156 0 25.140625 0 L 17.171875 0 L 17.171875 -12.109375 L 19.5625 -12.109375 C 20.726562 -12.109375 21.3125 -12.804688 21.3125 -14.203125 L 21.3125 -31.8125 C 21.3125 -33.21875 20.960938 -33.921875 20.265625 -33.921875 C 19.554688 -33.921875 19.070312 -33.128906 18.8125 -31.546875 L 13.15625 0 L 1.984375 0 L 6.75 -25.8125 L 4.53125 -25.8125 C 2.78125 -25.8125 1.90625 -26.664062 1.90625 -28.375 L 1.90625 -46.21875 L 13.234375 -46.21875 L 13.234375 -29.90625 L 15.5 -38.84375 C 16.75 -43.757812 19.441406 -46.21875 23.578125 -46.21875 L 24.171875 -46.21875 C 29.835938 -46.21875 32.671875 -42.757812 32.671875 -35.84375 Z M 32.671875 -8.3125 "/></g></g></g><g fill="#cf4545" fill-opacity="1"><g transform="translate(817.490298, 342.101453)"><g><path d="M 29.9375 -14.28125 C 29.9375 -9.570312 29.171875 -6.097656 27.640625 -3.859375 C 25.765625 -1.210938 22.578125 0.109375 18.078125 0.109375 C 17.265625 0.109375 16.414062 0.0703125 15.53125 0 L 15.53125 -12.0625 C 17.507812 -12.0625 18.5 -13.519531 18.5 -16.4375 L 18.5 -32.25 C 18.5 -33.519531 17.835938 -34.15625 16.515625 -34.15625 L 1.984375 -34.15625 L 1.984375 -46.21875 L 24.171875 -46.21875 C 28.015625 -46.21875 29.9375 -44.359375 29.9375 -40.640625 Z M 13.34375 6.671875 L 2.0625 6.671875 L 2.0625 -29.078125 L 13.34375 -29.078125 Z M 13.34375 6.671875 "/></g></g></g><g fill="#cf4545" fill-opacity="1"><g transform="translate(849.463903, 342.101453)"><g><path d="M 29.625 0 L 18.15625 0 L 18.15625 -32.25 C 18.15625 -33.519531 17.503906 -34.15625 16.203125 -34.15625 L 1.984375 -34.15625 L 1.984375 -46.21875 L 21.46875 -46.21875 C 23.863281 -46.21875 25.828125 -45.453125 27.359375 -43.921875 C 28.867188 -42.410156 29.625 -40.445312 29.625 -38.03125 Z M 13.28125 0 L 2.03125 0 L 2.03125 -28.65625 L 13.28125 -28.65625 Z M 13.28125 0 "/></g></g></g><g fill="#cf4545" fill-opacity="1"><g transform="translate(368.47165, 426.060831)"><g><path d="M 19.203125 -43.5625 C 19.203125 -41.320312 18.238281 -39.164062 16.3125 -37.09375 C 14.726562 -35.375 12.921875 -34.054688 10.890625 -33.140625 L 10.890625 -52.984375 L 19.203125 -52.984375 Z M 9.015625 -43.5625 C 9.015625 -39.457031 6.269531 -35.984375 0.78125 -33.140625 L 0.78125 -52.984375 L 9.015625 -52.984375 Z M 9.015625 -43.5625 "/></g></g></g><g fill="#cf4545" fill-opacity="1"><g transform="translate(388.460026, 426.060831)"><g><path d="M 20.921875 0 C 20.585938 -1.820312 19.851562 -4.222656 18.71875 -7.203125 C 17.582031 -10.179688 16.039062 -13.78125 14.09375 -18 C 13.882812 -17.757812 13.726562 -17.570312 13.625 -17.4375 C 13.519531 -17.3125 13.453125 -17.238281 13.421875 -17.21875 C 13.398438 -17.113281 13.378906 -16.882812 13.359375 -16.53125 C 13.347656 -16.175781 13.34375 -15.6875 13.34375 -15.0625 L 13.34375 0 L 2.0625 0 L 2.0625 -13.8125 C 2.0625 -21.132812 4.316406 -25.875 8.828125 -28.03125 C 4.503906 -36.507812 2.09375 -42.570312 1.59375 -46.21875 L 13.34375 -46.21875 C 13.914062 -43.613281 14.769531 -40.867188 15.90625 -37.984375 C 17.039062 -35.097656 18.46875 -32.023438 20.1875 -28.765625 C 20.832031 -29.234375 21.15625 -30.195312 21.15625 -31.65625 L 21.15625 -46.21875 L 32.5625 -46.21875 L 32.5625 -30.5625 C 32.5625 -28.21875 31.84375 -25.941406 30.40625 -23.734375 C 28.976562 -21.546875 27.210938 -19.878906 25.109375 -18.734375 C 29.972656 -9.054688 32.457031 -2.8125 32.5625 0 Z M 20.921875 0 "/></g></g></g><g fill="#cf4545" fill-opacity="1"><g transform="translate(422.619848, 426.060831)"><g><path d="M 19.203125 -43.5625 C 19.203125 -41.320312 18.238281 -39.164062 16.3125 -37.09375 C 14.726562 -35.375 12.921875 -34.054688 10.890625 -33.140625 L 10.890625 -52.984375 L 19.203125 -52.984375 Z M 9.015625 -43.5625 C 9.015625 -39.457031 6.269531 -35.984375 0.78125 -33.140625 L 0.78125 -52.984375 L 9.015625 -52.984375 Z M 9.015625 -43.5625 "/></g></g></g><g fill="#cf4545" fill-opacity="1"><g transform="translate(442.608224, 426.060831)"><g><path d="M 27.40625 0 L 16.125 0 L 14.09375 -12.8125 C 13.289062 -12.8125 12.785156 -12.238281 12.578125 -11.09375 L 10.46875 0 L 0.390625 0 L 3.078125 -13.34375 C 4.273438 -19.382812 7.078125 -22.40625 11.484375 -22.40625 L 13.34375 -22.40625 L 13.34375 -32.25 C 13.34375 -33.519531 12.617188 -34.15625 11.171875 -34.15625 L 3.125 -34.15625 L 3.125 -46.21875 L 16.15625 -46.21875 C 21.863281 -46.21875 24.71875 -43.226562 24.71875 -37.25 L 24.71875 -21.703125 C 24.71875 -20.066406 24.757812 -18.554688 24.84375 -17.171875 C 24.9375 -15.796875 25.078125 -14.535156 25.265625 -13.390625 Z M 27.40625 0 "/></g></g></g><g fill="#cf4545" fill-opacity="1"><g transform="translate(470.833998, 426.060831)"><g><path d="M 29.625 0 L 18.15625 0 L 18.15625 -32.25 C 18.15625 -33.519531 17.503906 -34.15625 16.203125 -34.15625 L 1.984375 -34.15625 L 1.984375 -46.21875 L 21.46875 -46.21875 C 23.863281 -46.21875 25.828125 -45.453125 27.359375 -43.921875 C 28.867188 -42.410156 29.625 -40.445312 29.625 -38.03125 Z M 13.28125 0 L 2.03125 0 L 2.03125 -28.65625 L 13.28125 -28.65625 Z M 13.28125 0 "/></g></g></g><g fill="#cf4545" fill-opacity="1"><g transform="translate(502.456233, 426.060831)"><g/></g></g><g fill="#cf4545" fill-opacity="1"><g transform="translate(520.141261, 426.060831)"><g><path d="M 21.515625 -16.546875 L 2.375 -16.546875 L 2.375 -28.609375 L 21.515625 -28.609375 Z M 21.515625 -16.546875 "/></g></g></g><g fill="#cf4545" fill-opacity="1"><g transform="translate(544.033616, 426.060831)"><g/></g></g><g fill="#cf4545" fill-opacity="1"><g transform="translate(561.718644, 426.060831)"><g><path d="M 31.96875 0 L 20.6875 0 L 20.6875 -31.96875 C 20.6875 -33.425781 20.023438 -34.15625 18.703125 -34.15625 L 17.171875 -34.15625 C 15.816406 -34.15625 15.140625 -33.425781 15.140625 -31.96875 L 15.140625 -5.546875 C 15.140625 -1.847656 13.59375 0 10.5 0 L 0.78125 0 L 0.78125 -12.0625 L 2.734375 -12.0625 C 3.378906 -12.0625 3.703125 -12.347656 3.703125 -12.921875 L 3.703125 -37.359375 C 3.703125 -40.503906 4.316406 -42.769531 5.546875 -44.15625 C 6.765625 -45.53125 8.925781 -46.21875 12.03125 -46.21875 L 24.203125 -46.21875 C 29.378906 -46.21875 31.96875 -43.265625 31.96875 -37.359375 Z M 31.96875 0 "/></g></g></g><g fill="#cf4545" fill-opacity="1"><g transform="translate(595.722296, 426.060831)"><g><path d="M 13.28125 0 L 1.984375 0 L 1.984375 -46.21875 L 13.28125 -46.21875 Z M 13.28125 0 "/></g></g></g><g fill="#cf4545" fill-opacity="1"><g transform="translate(610.986868, 426.060831)"><g><path d="M 12.890625 -33.109375 L 14.640625 -33.109375 C 15.910156 -33.109375 16.546875 -33.796875 16.546875 -35.171875 L 16.546875 -46.21875 L 26.96875 -46.21875 L 26.96875 -33.265625 C 26.96875 -27.878906 24.640625 -25.1875 19.984375 -25.1875 L 12.890625 -25.1875 L 12.890625 -14.171875 C 12.890625 -12.765625 13.472656 -12.0625 14.640625 -12.0625 L 28.890625 -12.0625 C 30.035156 -12.0625 30.609375 -12.765625 30.609375 -14.171875 L 30.609375 -46.21875 L 41.53125 -46.21875 L 41.53125 -10.5 C 41.53125 -7.320312 40.710938 -4.796875 39.078125 -2.921875 C 37.359375 -0.972656 34.925781 0 31.78125 0 L 11.75 0 C 5.238281 0 1.984375 -3.5 1.984375 -10.5 L 1.984375 -46.21875 L 12.890625 -46.21875 Z M 12.890625 -33.109375 "/></g></g></g><g fill="#cf4545" fill-opacity="1"><g transform="translate(654.516253, 426.060831)"><g><path d="M 30.609375 -12.1875 C 30.609375 -4.0625 27.273438 0 20.609375 0 L 1.203125 0 L 1.203125 -12.0625 L 3.9375 -12.0625 L 3.9375 -46.21875 L 15.21875 -46.21875 L 15.21875 -12.0625 L 17.484375 -12.0625 C 18.785156 -12.0625 19.4375 -12.957031 19.4375 -14.75 L 19.4375 -46.21875 L 30.609375 -46.21875 Z M 30.609375 -12.1875 "/></g></g></g><g fill="#cf4545" fill-opacity="1"><g transform="translate(687.114494, 426.060831)"><g><path d="M 24.75 0 L 13.3125 0 L 13.3125 -32.25 C 13.3125 -33.519531 12.648438 -34.15625 11.328125 -34.15625 L 1.203125 -34.15625 L 1.203125 -46.21875 L 16.59375 -46.21875 C 18.988281 -46.21875 20.953125 -45.453125 22.484375 -43.921875 C 23.992188 -42.410156 24.75 -40.445312 24.75 -38.03125 Z M 24.75 0 "/></g></g></g><g fill="#cf4545" fill-opacity="1"><g transform="translate(713.856744, 426.060831)"><g><path d="M 29.625 0 L 18.15625 0 L 18.15625 -32.25 C 18.15625 -33.519531 17.503906 -34.15625 16.203125 -34.15625 L 1.984375 -34.15625 L 1.984375 -46.21875 L 21.46875 -46.21875 C 23.863281 -46.21875 25.828125 -45.453125 27.359375 -43.921875 C 28.867188 -42.410156 29.625 -40.445312 29.625 -38.03125 Z M 13.28125 0 L 2.03125 0 L 2.03125 -28.65625 L 13.28125 -28.65625 Z M 13.28125 0 "/></g></g></g><path stroke-linecap="butt" transform="matrix(0.749637, 0, 0, 0.749637, 301.508859, 254.792926)" fill="none" stroke-linejoin="miter" d="M -0.00139547 4.502235 L 681.599058 4.502235 " stroke="#cf4545" stroke-width="9" stroke-opacity="1" stroke-miterlimit="4"/></svg>