<svg xmlns="http://www.w3.org/2000/svg" xmlns:xlink="http://www.w3.org/1999/xlink" width="1486" zoomAndPan="magnify" viewBox="0 0 1114.5 516.750002" height="689" preserveAspectRatio="xMidYMid meet" version="1.0"><defs><g/><clipPath id="c1723fb0a9"><path d="M 0.0195312 0 L 1113.980469 0 L 1113.980469 516.332031 L 0.0195312 516.332031 Z M 0.0195312 0 " clip-rule="nonzero"/></clipPath><clipPath id="7013081c22"><path d="M 38.25 0 L 1075.71875 0 C 1085.859375 0 1095.582031 4.027344 1102.753906 11.199219 C 1109.921875 18.367188 1113.949219 28.09375 1113.949219 38.230469 L 1113.949219 478.101562 C 1113.949219 488.242188 1109.921875 497.964844 1102.753906 505.136719 C 1095.582031 512.304688 1085.859375 516.332031 1075.71875 516.332031 L 38.25 516.332031 C 28.113281 516.332031 18.386719 512.304688 11.21875 505.136719 C 4.046875 497.964844 0.0195312 488.242188 0.0195312 478.101562 L 0.0195312 38.230469 C 0.0195312 28.09375 4.046875 18.367188 11.21875 11.199219 C 18.386719 4.027344 28.113281 0 38.25 0 Z M 38.25 0 " clip-rule="nonzero"/></clipPath><clipPath id="d6e5e5e3aa"><path d="M 0.0273438 0 L 1113.980469 0 L 1113.980469 516.5 L 0.0273438 516.5 Z M 0.0273438 0 " clip-rule="nonzero"/></clipPath><clipPath id="fc30e55b8a"><path d="M 38.257812 0 L 1075.707031 0 C 1085.847656 0 1095.570312 4.027344 1102.742188 11.199219 C 1109.910156 18.367188 1113.941406 28.089844 1113.941406 38.230469 L 1113.941406 478.09375 C 1113.941406 488.234375 1109.910156 497.957031 1102.742188 505.125 C 1095.570312 512.296875 1085.847656 516.324219 1075.707031 516.324219 L 38.257812 516.324219 C 28.117188 516.324219 18.394531 512.296875 11.222656 505.125 C 4.054688 497.957031 0.0273438 488.234375 0.0273438 478.09375 L 0.0273438 38.230469 C 0.0273438 28.089844 4.054688 18.367188 11.222656 11.199219 C 18.394531 4.027344 28.117188 0 38.257812 0 Z M 38.257812 0 " clip-rule="nonzero"/></clipPath></defs><g clip-path="url(#c1723fb0a9)"><g clip-path="url(#7013081c22)"><path fill="#ffcf7e" d="M 0.0195312 0 L 1113.363281 0 L 1113.363281 516.332031 L 0.0195312 516.332031 Z M 0.0195312 0 " fill-opacity="1" fill-rule="nonzero"/></g></g><g clip-path="url(#d6e5e5e3aa)"><g clip-path="url(#fc30e55b8a)"><path stroke-linecap="butt" transform="matrix(0.749637, 0, 0, 0.749637, 0.0256264, 0.0000199903)" fill="none" stroke-linejoin="miter" d="M 51.000909 -0.0000266667 L 1434.935712 -0.0000266667 C 1448.463086 -0.0000266667 1461.43811 5.372363 1471.000025 14.939489 C 1480.56194 24.501404 1485.93954 37.471217 1485.93954 50.998591 L 1485.93954 637.766688 C 1485.93954 651.294062 1480.56194 664.263875 1471.000025 673.82579 C 1461.43811 683.392916 1448.463086 688.765306 1434.935712 688.765306 L 51.000909 688.765306 C 37.473534 688.765306 24.503721 683.392916 14.936595 673.82579 C 5.37468 664.263875 0.00229086 651.294062 0.00229086 637.766688 L 0.00229086 50.998591 C 0.00229086 37.471217 5.37468 24.501404 14.936595 14.939489 C 24.503721 5.372363 37.473534 -0.0000266667 51.000909 -0.0000266667 Z M 51.000909 -0.0000266667 " stroke="#cf4545" stroke-width="40" stroke-opacity="1" stroke-miterlimit="4"/></g></g><g fill="#cf4545" fill-opacity="1"><g transform="translate(955.16379, 84.723757)"><g><path d="M 10.921875 -20.5625 L 1.4375 -20.5625 L 1.4375 -30.8125 L 10.921875 -30.8125 Z M 10.921875 0 L 1.4375 0 L 1.4375 -10.296875 L 10.921875 -10.296875 Z M 10.921875 0 "/></g></g></g><g fill="#cf4545" fill-opacity="1"><g transform="translate(967.392249, 84.723757)"><g><path d="M 21.890625 0 L 11.671875 0 L 11.671875 -30.71875 L 4.75 -30.71875 L 4.75 -41.609375 L 13.953125 -41.609375 C 19.242188 -41.609375 21.890625 -38.9375 21.890625 -33.59375 Z M 21.890625 0 "/></g></g><g transform="translate(995.468509, 84.723757)"><g><path d="M 25.96875 -7.984375 C 25.96875 -2.660156 23.539062 0 18.6875 0 L 3.578125 0 L 3.578125 -10.859375 L 15.84375 -10.859375 L 15.84375 -15.78125 L 9.421875 -15.78125 C 4.566406 -15.78125 2.140625 -18.4375 2.140625 -23.75 L 2.140625 -33.59375 C 2.140625 -38.9375 4.832031 -41.609375 10.21875 -41.609375 L 17.921875 -41.609375 C 20.359375 -41.609375 22.300781 -40.878906 23.75 -39.421875 C 25.226562 -37.972656 25.96875 -36.03125 25.96875 -33.59375 Z M 15.84375 -25.203125 L 15.84375 -30.71875 L 12.296875 -30.71875 L 12.296875 -25.203125 Z M 15.84375 -25.203125 "/></g></g><g transform="translate(1023.544768, 84.723757)"><g><path d="M 26.359375 -7.984375 C 26.359375 -2.660156 23.6875 0 18.34375 0 L 9.796875 0 C 7.460938 0 5.546875 -0.75 4.046875 -2.25 C 2.546875 -3.75 1.796875 -5.660156 1.796875 -7.984375 L 1.796875 -15.390625 C 1.796875 -18.484375 3.257812 -20.546875 6.1875 -21.578125 C 4.78125 -21.691406 3.675781 -22.320312 2.875 -23.46875 C 2.15625 -24.550781 1.796875 -25.816406 1.796875 -27.265625 L 1.796875 -33.59375 C 1.796875 -35.789062 2.554688 -37.675781 4.078125 -39.25 C 5.578125 -40.820312 7.453125 -41.609375 9.703125 -41.609375 L 18.34375 -41.609375 C 23.6875 -41.609375 26.359375 -38.9375 26.359375 -33.59375 L 26.359375 -27.546875 C 26.359375 -26.140625 25.890625 -24.890625 24.953125 -23.796875 C 23.992188 -22.691406 22.84375 -21.953125 21.5 -21.578125 C 24.738281 -20.828125 26.359375 -18.742188 26.359375 -15.328125 Z M 16.203125 -25.90625 L 16.203125 -30.71875 L 11.953125 -30.71875 L 11.953125 -25.90625 Z M 16.203125 -10.859375 L 16.203125 -17.296875 L 11.953125 -17.296875 L 11.953125 -10.859375 Z M 16.203125 -10.859375 "/></g></g><g transform="translate(1051.621028, 84.723757)"><g><path d="M 25.96875 -7.984375 C 25.96875 -2.660156 23.265625 0 17.859375 0 L 10.15625 0 C 7.695312 0 5.753906 -0.710938 4.328125 -2.140625 C 2.867188 -3.597656 2.140625 -5.546875 2.140625 -7.984375 L 2.140625 -33.59375 C 2.140625 -38.9375 4.539062 -41.609375 9.34375 -41.609375 L 24.53125 -41.609375 L 24.53125 -30.71875 L 12.296875 -30.71875 L 12.296875 -25.828125 L 18.625 -25.828125 C 23.519531 -25.828125 25.96875 -23.398438 25.96875 -18.546875 Z M 15.84375 -10.859375 L 15.84375 -14.96875 L 12.296875 -14.96875 L 12.296875 -10.859375 Z M 15.84375 -10.859375 "/></g></g></g><g fill="#cf4545" fill-opacity="1"><g transform="translate(204.962413, 184.831018)"><g><path d="M 26.75 0 L 14.265625 0 L 14.265625 -37.53125 L 5.796875 -37.53125 L 5.796875 -50.84375 L 17.046875 -50.84375 C 23.515625 -50.84375 26.75 -47.582031 26.75 -41.0625 Z M 26.75 0 "/></g></g></g><g fill="#cf4545" fill-opacity="1"><g transform="translate(239.276323, 184.831018)"><g><path d="M 31.390625 -50.84375 L 27.953125 -29.796875 L 30.875 -29.796875 L 30.875 -16.53125 L 25.9375 -16.53125 L 23.484375 0 L 10.5625 0 L 13.09375 -16.53125 L 8.15625 -16.53125 L 8.15625 -29.796875 L 15.03125 -29.796875 L 16.1875 -37.53125 L 2.921875 -37.53125 L 2.921875 -50.84375 Z M 31.390625 -50.84375 "/></g></g></g><g fill="#cf4545" fill-opacity="1"><g transform="translate(273.590234, 184.831018)"><g><path d="M 26.75 0 L 14.265625 0 L 14.265625 -37.53125 L 5.796875 -37.53125 L 5.796875 -50.84375 L 17.046875 -50.84375 C 23.515625 -50.84375 26.75 -47.582031 26.75 -41.0625 Z M 26.75 0 "/></g></g></g><g fill="#cf4545" fill-opacity="1"><g transform="translate(307.904145, 184.831018)"><g><path d="M 31.734375 -9.75 C 31.734375 -3.25 28.425781 0 21.8125 0 L 12.40625 0 C 9.40625 0 7.03125 -0.875 5.28125 -2.625 C 3.507812 -4.394531 2.625 -6.769531 2.625 -9.75 L 2.625 -41.0625 C 2.625 -47.582031 5.554688 -50.84375 11.421875 -50.84375 L 29.96875 -50.84375 L 29.96875 -37.53125 L 15.03125 -37.53125 L 15.03125 -31.5625 L 22.765625 -31.5625 C 28.742188 -31.5625 31.734375 -28.597656 31.734375 -22.671875 Z M 19.375 -13.265625 L 19.375 -18.296875 L 15.03125 -18.296875 L 15.03125 -13.265625 Z M 19.375 -13.265625 "/></g></g></g><g fill="#cf4545" fill-opacity="1"><g transform="translate(342.228035, 184.831018)"><g/></g></g><g fill="#cf4545" fill-opacity="1"><g transform="translate(361.682608, 184.831018)"><g><path d="M 32.59375 0 L 19.96875 0 L 19.96875 -35.46875 C 19.96875 -36.875 19.253906 -37.578125 17.828125 -37.578125 L 2.1875 -37.578125 L 2.1875 -50.84375 L 23.625 -50.84375 C 26.257812 -50.84375 28.421875 -50 30.109375 -48.3125 C 31.765625 -46.65625 32.59375 -44.492188 32.59375 -41.828125 Z M 14.609375 0 L 2.234375 0 L 2.234375 -31.515625 L 14.609375 -31.515625 Z M 14.609375 0 "/></g></g></g><g fill="#cf4545" fill-opacity="1"><g transform="translate(396.468919, 184.831018)"><g><path d="M 34.359375 -9.796875 C 34.359375 -3.265625 31.664062 0 26.28125 0 L 10.265625 0 C 7.546875 0 5.484375 -0.988281 4.078125 -2.96875 C 2.816406 -4.738281 2.1875 -7.015625 2.1875 -9.796875 L 2.1875 -50.84375 L 14.5625 -50.84375 L 14.5625 -34.828125 L 17 -43.5 C 18.375 -48.394531 20.878906 -50.84375 24.515625 -50.84375 L 27.0625 -50.84375 C 31.925781 -50.84375 34.359375 -48.195312 34.359375 -42.90625 Z M 22.03125 -36.421875 C 22.03125 -36.960938 21.914062 -37.234375 21.6875 -37.234375 C 21.519531 -37.234375 21.378906 -37.003906 21.265625 -36.546875 L 19.453125 -29.796875 L 14.5625 -29.796875 L 14.5625 -15.59375 C 14.5625 -14.039062 15.191406 -13.265625 16.453125 -13.265625 L 20.09375 -13.265625 C 21.382812 -13.265625 22.03125 -14.039062 22.03125 -15.59375 Z M 22.03125 -36.421875 "/></g></g></g><g fill="#cf4545" fill-opacity="1"><g transform="translate(433.016026, 184.831018)"><g><path d="M 30.359375 -18.375 C 30.359375 -6.125 24.488281 0 12.75 0 L 7.390625 0 L 7.390625 -13.265625 L 11 -13.265625 C 13.769531 -13.265625 15.65625 -14.15625 16.65625 -15.9375 C 17.375 -17.195312 17.734375 -19.382812 17.734375 -22.5 L 17.734375 -35.46875 C 17.734375 -36.875 17.019531 -37.578125 15.59375 -37.578125 L 2.1875 -37.578125 L 2.1875 -57.15625 L 14.640625 -57.15625 L 14.640625 -50.84375 L 24 -50.84375 C 28.238281 -50.84375 30.359375 -48.796875 30.359375 -44.703125 Z M 30.359375 -18.375 "/></g></g></g><g fill="#cf4545" fill-opacity="1"><g transform="translate(465.569143, 184.831018)"><g><path d="M 33.15625 0 L 20.703125 0 L 20.703125 -35.171875 C 20.703125 -36.773438 19.972656 -37.578125 18.515625 -37.578125 L 17 -37.578125 C 15.539062 -37.578125 14.8125 -36.773438 14.8125 -35.171875 L 14.8125 0 L 2.1875 0 L 2.1875 -41.953125 C 2.1875 -45.128906 2.71875 -47.347656 3.78125 -48.609375 C 4.976562 -50.097656 7.125 -50.84375 10.21875 -50.84375 L 24.5625 -50.84375 C 30.289062 -50.84375 33.15625 -47.878906 33.15625 -41.953125 Z M 33.15625 0 "/></g></g></g><g fill="#cf4545" fill-opacity="1"><g transform="translate(500.913759, 184.831018)"><g><path d="M 32.59375 0 L 19.96875 0 L 19.96875 -35.46875 C 19.96875 -36.875 19.253906 -37.578125 17.828125 -37.578125 L 2.1875 -37.578125 L 2.1875 -50.84375 L 23.625 -50.84375 C 26.257812 -50.84375 28.421875 -50 30.109375 -48.3125 C 31.765625 -46.65625 32.59375 -44.492188 32.59375 -41.828125 Z M 14.609375 0 L 2.234375 0 L 2.234375 -31.515625 L 14.609375 -31.515625 Z M 14.609375 0 "/></g></g></g><g fill="#cf4545" fill-opacity="1"><g transform="translate(535.700071, 184.831018)"><g/></g></g><g fill="#cf4545" fill-opacity="1"><g transform="translate(555.154632, 184.831018)"><g><path d="M 23.65625 -18.203125 L 2.625 -18.203125 L 2.625 -31.484375 L 23.65625 -31.484375 Z M 23.65625 -18.203125 "/></g></g></g><g fill="#cf4545" fill-opacity="1"><g transform="translate(581.437623, 184.831018)"><g/></g></g><g fill="#cf4545" fill-opacity="1"><g transform="translate(600.899756, 184.831018)"><g><path d="M 32.125 -9.75 C 32.125 -6.65625 31.25 -4.253906 29.5 -2.546875 C 27.757812 -0.847656 25.34375 0 22.25 0 L 12.15625 0 C 9.457031 0 7.140625 -0.957031 5.203125 -2.875 C 3.253906 -4.820312 2.28125 -7.113281 2.28125 -9.75 L 2.28125 -41.0625 C 2.28125 -44.175781 3.144531 -46.582031 4.875 -48.28125 C 6.601562 -49.988281 9.03125 -50.84375 12.15625 -50.84375 L 22.25 -50.84375 C 25.34375 -50.84375 27.757812 -49.984375 29.5 -48.265625 C 31.25 -46.546875 32.125 -44.144531 32.125 -41.0625 Z M 19.625 -13.265625 L 19.625 -37.53125 L 14.6875 -37.53125 L 14.6875 -13.265625 Z M 19.625 -13.265625 "/></g></g></g><g fill="#cf4545" fill-opacity="1"><g transform="translate(635.213667, 184.831018)"><g><path d="M 31.734375 -9.75 C 31.734375 -3.25 28.425781 0 21.8125 0 L 12.40625 0 C 9.40625 0 7.03125 -0.875 5.28125 -2.625 C 3.507812 -4.394531 2.625 -6.769531 2.625 -9.75 L 2.625 -41.0625 C 2.625 -47.582031 5.554688 -50.84375 11.421875 -50.84375 L 29.96875 -50.84375 L 29.96875 -37.53125 L 15.03125 -37.53125 L 15.03125 -31.5625 L 22.765625 -31.5625 C 28.742188 -31.5625 31.734375 -28.597656 31.734375 -22.671875 Z M 19.375 -13.265625 L 19.375 -18.296875 L 15.03125 -18.296875 L 15.03125 -13.265625 Z M 19.375 -13.265625 "/></g></g></g><g fill="#cf4545" fill-opacity="1"><g transform="translate(669.527577, 184.831018)"><g><path d="M 13.359375 0 L 1.765625 0 L 1.765625 -12.578125 L 13.359375 -12.578125 Z M 13.359375 0 "/></g></g></g><g fill="#cf4545" fill-opacity="1"><g transform="translate(684.472808, 184.831018)"><g><path d="M 32.125 -9.75 C 32.125 -6.65625 31.25 -4.253906 29.5 -2.546875 C 27.757812 -0.847656 25.34375 0 22.25 0 L 12.15625 0 C 9.457031 0 7.140625 -0.957031 5.203125 -2.875 C 3.253906 -4.820312 2.28125 -7.113281 2.28125 -9.75 L 2.28125 -41.0625 C 2.28125 -44.175781 3.144531 -46.582031 4.875 -48.28125 C 6.601562 -49.988281 9.03125 -50.84375 12.15625 -50.84375 L 22.25 -50.84375 C 25.34375 -50.84375 27.757812 -49.984375 29.5 -48.265625 C 31.25 -46.546875 32.125 -44.144531 32.125 -41.0625 Z M 19.625 -13.265625 L 19.625 -37.53125 L 14.6875 -37.53125 L 14.6875 -13.265625 Z M 19.625 -13.265625 "/></g></g></g><g fill="#cf4545" fill-opacity="1"><g transform="translate(718.786718, 184.831018)"><g><path d="M 31.390625 -50.84375 L 27.953125 -29.796875 L 30.875 -29.796875 L 30.875 -16.53125 L 25.9375 -16.53125 L 23.484375 0 L 10.5625 0 L 13.09375 -16.53125 L 8.15625 -16.53125 L 8.15625 -29.796875 L 15.03125 -29.796875 L 16.1875 -37.53125 L 2.921875 -37.53125 L 2.921875 -50.84375 Z M 31.390625 -50.84375 "/></g></g></g><g fill="#cf4545" fill-opacity="1"><g transform="translate(753.100629, 184.831018)"><g><path d="M 13.359375 0 L 1.765625 0 L 1.765625 -12.578125 L 13.359375 -12.578125 Z M 13.359375 0 "/></g></g></g><g fill="#cf4545" fill-opacity="1"><g transform="translate(768.045859, 184.831018)"><g><path d="M 26.75 0 L 14.265625 0 L 14.265625 -37.53125 L 5.796875 -37.53125 L 5.796875 -50.84375 L 17.046875 -50.84375 C 23.515625 -50.84375 26.75 -47.582031 26.75 -41.0625 Z M 26.75 0 "/></g></g></g><g fill="#cf4545" fill-opacity="1"><g transform="translate(802.35977, 184.831018)"><g><path d="M 31.734375 -9.75 C 31.734375 -3.25 28.769531 0 22.84375 0 L 4.375 0 L 4.375 -13.265625 L 19.375 -13.265625 L 19.375 -19.28125 L 11.515625 -19.28125 C 5.585938 -19.28125 2.625 -22.53125 2.625 -29.03125 L 2.625 -41.0625 C 2.625 -47.582031 5.914062 -50.84375 12.5 -50.84375 L 21.90625 -50.84375 C 24.882812 -50.84375 27.257812 -49.957031 29.03125 -48.1875 C 30.832031 -46.40625 31.734375 -44.03125 31.734375 -41.0625 Z M 19.375 -30.796875 L 19.375 -37.53125 L 15.03125 -37.53125 L 15.03125 -30.796875 Z M 19.375 -30.796875 "/></g></g></g><g fill="#cf4545" fill-opacity="1"><g transform="translate(836.673681, 184.831018)"><g><path d="M 32.203125 -9.75 C 32.203125 -3.25 28.941406 0 22.421875 0 L 11.984375 0 C 9.117188 0 6.769531 -0.914062 4.9375 -2.75 C 3.101562 -4.582031 2.1875 -6.914062 2.1875 -9.75 L 2.1875 -18.8125 C 2.1875 -22.59375 3.976562 -25.113281 7.5625 -26.375 C 5.84375 -26.507812 4.492188 -27.28125 3.515625 -28.6875 C 2.628906 -30 2.1875 -31.546875 2.1875 -33.328125 L 2.1875 -41.0625 C 2.1875 -43.75 3.117188 -46.050781 4.984375 -47.96875 C 6.816406 -49.882812 9.109375 -50.84375 11.859375 -50.84375 L 22.421875 -50.84375 C 28.941406 -50.84375 32.203125 -47.582031 32.203125 -41.0625 L 32.203125 -33.671875 C 32.203125 -31.953125 31.628906 -30.421875 30.484375 -29.078125 C 29.316406 -27.734375 27.914062 -26.832031 26.28125 -26.375 C 30.226562 -25.457031 32.203125 -22.90625 32.203125 -18.71875 Z M 19.796875 -31.65625 L 19.796875 -37.53125 L 14.609375 -37.53125 L 14.609375 -31.65625 Z M 19.796875 -13.265625 L 19.796875 -21.125 L 14.609375 -21.125 L 14.609375 -13.265625 Z M 19.796875 -13.265625 "/></g></g></g><g fill="#cf4545" fill-opacity="1"><g transform="translate(870.987591, 184.831018)"><g><path d="M 31.734375 -9.75 C 31.734375 -3.25 28.425781 0 21.8125 0 L 12.40625 0 C 9.40625 0 7.03125 -0.875 5.28125 -2.625 C 3.507812 -4.394531 2.625 -6.769531 2.625 -9.75 L 2.625 -41.0625 C 2.625 -47.582031 5.554688 -50.84375 11.421875 -50.84375 L 29.96875 -50.84375 L 29.96875 -37.53125 L 15.03125 -37.53125 L 15.03125 -31.5625 L 22.765625 -31.5625 C 28.742188 -31.5625 31.734375 -28.597656 31.734375 -22.671875 Z M 19.375 -13.265625 L 19.375 -18.296875 L 15.03125 -18.296875 L 15.03125 -13.265625 Z M 19.375 -13.265625 "/></g></g></g><g fill="#cf4545" fill-opacity="1"><g transform="translate(192.286425, 398.02062)"><g><path d="M 30.140625 0 L 18.8125 0 L 18.8125 -31.96875 C 18.8125 -33.425781 18.148438 -34.15625 16.828125 -34.15625 L 15.453125 -34.15625 C 14.128906 -34.15625 13.46875 -33.425781 13.46875 -31.96875 L 13.46875 0 L 1.984375 0 L 1.984375 -38.140625 C 1.984375 -41.023438 2.46875 -43.039062 3.4375 -44.1875 C 4.53125 -45.539062 6.484375 -46.21875 9.296875 -46.21875 L 22.328125 -46.21875 C 27.535156 -46.21875 30.140625 -43.523438 30.140625 -38.140625 Z M 30.140625 0 "/></g></g></g><g fill="#cf4545" fill-opacity="1"><g transform="translate(224.416178, 398.02062)"><g><path d="M 19.203125 -43.5625 C 19.203125 -41.320312 18.238281 -39.164062 16.3125 -37.09375 C 14.726562 -35.375 12.921875 -34.054688 10.890625 -33.140625 L 10.890625 -52.984375 L 19.203125 -52.984375 Z M 9.015625 -43.5625 C 9.015625 -39.457031 6.269531 -35.984375 0.78125 -33.140625 L 0.78125 -52.984375 L 9.015625 -52.984375 Z M 9.015625 -43.5625 "/></g></g></g><g fill="#cf4545" fill-opacity="1"><g transform="translate(244.404554, 398.02062)"><g><path d="M 27.59375 -16.703125 C 27.59375 -5.566406 22.257812 0 11.59375 0 L 6.71875 0 L 6.71875 -12.0625 L 10 -12.0625 C 12.519531 -12.0625 14.234375 -12.867188 15.140625 -14.484375 C 15.796875 -15.628906 16.125 -17.617188 16.125 -20.453125 L 16.125 -32.25 C 16.125 -33.519531 15.472656 -34.15625 14.171875 -34.15625 L 1.984375 -34.15625 L 1.984375 -51.96875 L 13.3125 -51.96875 L 13.3125 -46.21875 L 21.828125 -46.21875 C 25.671875 -46.21875 27.59375 -44.359375 27.59375 -40.640625 Z M 27.59375 -16.703125 "/></g></g></g><g fill="#cf4545" fill-opacity="1"><g transform="translate(273.99672, 398.02062)"><g><path d="M 32.671875 -8.3125 C 32.671875 -2.769531 30.160156 0 25.140625 0 L 17.171875 0 L 17.171875 -12.109375 L 19.5625 -12.109375 C 20.726562 -12.109375 21.3125 -12.804688 21.3125 -14.203125 L 21.3125 -31.8125 C 21.3125 -33.21875 20.960938 -33.921875 20.265625 -33.921875 C 19.554688 -33.921875 19.070312 -33.128906 18.8125 -31.546875 L 13.15625 0 L 1.984375 0 L 6.75 -25.8125 L 4.53125 -25.8125 C 2.78125 -25.8125 1.90625 -26.664062 1.90625 -28.375 L 1.90625 -46.21875 L 13.234375 -46.21875 L 13.234375 -29.90625 L 15.5 -38.84375 C 16.75 -43.757812 19.441406 -46.21875 23.578125 -46.21875 L 24.171875 -46.21875 C 29.835938 -46.21875 32.671875 -42.757812 32.671875 -35.84375 Z M 32.671875 -8.3125 "/></g></g></g><g fill="#cf4545" fill-opacity="1"><g transform="translate(308.664059, 398.02062)"><g/></g></g><g fill="#cf4545" fill-opacity="1"><g transform="translate(326.349087, 398.02062)"><g><path d="M 24.75 6.5625 L 13.3125 6.5625 L 13.3125 -32.25 C 13.3125 -33.519531 12.648438 -34.15625 11.328125 -34.15625 L 1.203125 -34.15625 L 1.203125 -46.21875 L 16.59375 -46.21875 C 18.988281 -46.21875 20.953125 -45.453125 22.484375 -43.921875 C 23.992188 -42.410156 24.75 -40.445312 24.75 -38.03125 Z M 24.75 6.5625 "/></g></g></g><g fill="#cf4545" fill-opacity="1"><g transform="translate(353.091347, 398.02062)"><g><path d="M 24.75 0 L 13.3125 0 L 13.3125 -32.25 C 13.3125 -33.519531 12.648438 -34.15625 11.328125 -34.15625 L 1.203125 -34.15625 L 1.203125 -46.21875 L 16.59375 -46.21875 C 18.988281 -46.21875 20.953125 -45.453125 22.484375 -43.921875 C 23.992188 -42.410156 24.75 -40.445312 24.75 -38.03125 Z M 24.75 0 "/></g></g></g><g fill="#cf4545" fill-opacity="1"><g transform="translate(379.833608, 398.02062)"><g><path d="M 30.609375 -12.1875 C 30.609375 -4.0625 27.273438 0 20.609375 0 L 1.203125 0 L 1.203125 -12.0625 L 3.9375 -12.0625 L 3.9375 -46.21875 L 15.21875 -46.21875 L 15.21875 -12.0625 L 17.484375 -12.0625 C 18.785156 -12.0625 19.4375 -12.957031 19.4375 -14.75 L 19.4375 -46.21875 L 30.609375 -46.21875 Z M 30.609375 -12.1875 "/></g></g></g><g fill="#cf4545" fill-opacity="1"><g transform="translate(412.43185, 398.02062)"><g><path d="M 32.671875 -8.3125 C 32.671875 -2.769531 30.160156 0 25.140625 0 L 17.171875 0 L 17.171875 -12.109375 L 19.5625 -12.109375 C 20.726562 -12.109375 21.3125 -12.804688 21.3125 -14.203125 L 21.3125 -31.8125 C 21.3125 -33.21875 20.960938 -33.921875 20.265625 -33.921875 C 19.554688 -33.921875 19.070312 -33.128906 18.8125 -31.546875 L 13.15625 0 L 1.984375 0 L 6.75 -25.8125 L 4.53125 -25.8125 C 2.78125 -25.8125 1.90625 -26.664062 1.90625 -28.375 L 1.90625 -46.21875 L 13.234375 -46.21875 L 13.234375 -29.90625 L 15.5 -38.84375 C 16.75 -43.757812 19.441406 -46.21875 23.578125 -46.21875 L 24.171875 -46.21875 C 29.835938 -46.21875 32.671875 -42.757812 32.671875 -35.84375 Z M 32.671875 -8.3125 "/></g></g></g><g fill="#cf4545" fill-opacity="1"><g transform="translate(447.099189, 398.02062)"><g/></g></g><g fill="#cf4545" fill-opacity="1"><g transform="translate(464.784206, 398.02062)"><g><path d="M 31.96875 0 L 20.6875 0 L 20.6875 -31.96875 C 20.6875 -33.425781 20.023438 -34.15625 18.703125 -34.15625 L 17.171875 -34.15625 C 15.816406 -34.15625 15.140625 -33.425781 15.140625 -31.96875 L 15.140625 -5.546875 C 15.140625 -1.847656 13.59375 0 10.5 0 L 0.78125 0 L 0.78125 -12.0625 L 2.734375 -12.0625 C 3.378906 -12.0625 3.703125 -12.347656 3.703125 -12.921875 L 3.703125 -37.359375 C 3.703125 -40.503906 4.316406 -42.769531 5.546875 -44.15625 C 6.765625 -45.53125 8.925781 -46.21875 12.03125 -46.21875 L 24.203125 -46.21875 C 29.378906 -46.21875 31.96875 -43.265625 31.96875 -37.359375 Z M 31.96875 0 "/></g></g></g><g fill="#cf4545" fill-opacity="1"><g transform="translate(498.78788, 398.02062)"><g><path d="M 13.28125 0 L 1.984375 0 L 1.984375 -46.21875 L 13.28125 -46.21875 Z M 13.28125 0 "/></g></g></g><g fill="#cf4545" fill-opacity="1"><g transform="translate(514.052452, 398.02062)"><g><path d="M 13.125 -25.734375 L 1.90625 -25.734375 L 1.90625 -46.21875 L 13.125 -46.21875 Z M 13.125 -25.734375 "/></g></g></g><g fill="#cf4545" fill-opacity="1"><g transform="translate(529.160864, 398.02062)"><g><path d="M 13.28125 0 L 1.984375 0 L 1.984375 -46.21875 L 13.28125 -46.21875 Z M 13.28125 0 "/></g></g></g><g fill="#cf4545" fill-opacity="1"><g transform="translate(544.425436, 398.02062)"><g><path d="M 26.46875 -11.40625 C 26.46875 -3.800781 22.890625 0 15.734375 0 L 1.984375 0 L 1.984375 -12.0625 L 11.5625 -12.0625 C 13.925781 -12.0625 15.109375 -13.164062 15.109375 -15.375 L 15.109375 -30.84375 C 15.109375 -33.050781 13.925781 -34.15625 11.5625 -34.15625 L 1.984375 -34.15625 L 1.984375 -46.21875 L 15.734375 -46.21875 C 22.890625 -46.21875 26.46875 -42.421875 26.46875 -34.828125 Z M 26.46875 -11.40625 "/></g></g></g><g fill="#cf4545" fill-opacity="1"><g transform="translate(572.885437, 398.02062)"><g><path d="M 32.671875 -8.3125 C 32.671875 -2.769531 30.160156 0 25.140625 0 L 17.171875 0 L 17.171875 -12.109375 L 19.5625 -12.109375 C 20.726562 -12.109375 21.3125 -12.804688 21.3125 -14.203125 L 21.3125 -31.8125 C 21.3125 -33.21875 20.960938 -33.921875 20.265625 -33.921875 C 19.554688 -33.921875 19.070312 -33.128906 18.8125 -31.546875 L 13.15625 0 L 1.984375 0 L 6.75 -25.8125 L 4.53125 -25.8125 C 2.78125 -25.8125 1.90625 -26.664062 1.90625 -28.375 L 1.90625 -46.21875 L 13.234375 -46.21875 L 13.234375 -29.90625 L 15.5 -38.84375 C 16.75 -43.757812 19.441406 -46.21875 23.578125 -46.21875 L 24.171875 -46.21875 C 29.835938 -46.21875 32.671875 -42.757812 32.671875 -35.84375 Z M 32.671875 -8.3125 "/></g></g></g><g fill="#cf4545" fill-opacity="1"><g transform="translate(607.552776, 398.02062)"><g><path d="M 31.5 -13.859375 C 31.5 -9.328125 30.222656 -5.707031 27.671875 -3 C 25.046875 -0.21875 21.492188 1.171875 17.015625 1.171875 C 12.410156 1.171875 8.753906 -0.179688 6.046875 -2.890625 C 3.335938 -5.597656 1.984375 -9.253906 1.984375 -13.859375 L 1.984375 -38.84375 C 1.984375 -40.164062 2.113281 -41.296875 2.375 -42.234375 C 2.632812 -43.171875 3.050781 -43.929688 3.625 -44.515625 C 4.195312 -45.109375 4.945312 -45.539062 5.875 -45.8125 C 6.800781 -46.082031 7.925781 -46.21875 9.25 -46.21875 L 24.171875 -46.21875 C 29.054688 -46.21875 31.5 -43.757812 31.5 -38.84375 Z M 20.109375 -33.21875 C 20.109375 -33.84375 19.847656 -34.15625 19.328125 -34.15625 L 14.09375 -34.15625 C 13.570312 -34.15625 13.3125 -33.84375 13.3125 -33.21875 L 13.3125 -15.109375 C 13.3125 -12.273438 14.492188 -10.859375 16.859375 -10.859375 C 19.023438 -10.859375 20.109375 -12.273438 20.109375 -15.109375 Z M 20.109375 -33.21875 "/></g></g></g><g fill="#cf4545" fill-opacity="1"><g transform="translate(641.048945, 398.02062)"><g><path d="M 13.28125 0 L 1.984375 0 L 1.984375 -46.21875 L 13.28125 -46.21875 Z M 13.28125 0 "/></g></g></g><g fill="#cf4545" fill-opacity="1"><g transform="translate(656.313517, 398.02062)"><g/></g></g><g fill="#cf4545" fill-opacity="1"><g transform="translate(673.998533, 398.02062)"><g><path d="M 29.625 0 L 18.15625 0 L 18.15625 -32.25 C 18.15625 -33.519531 17.503906 -34.15625 16.203125 -34.15625 L 1.984375 -34.15625 L 1.984375 -46.21875 L 21.46875 -46.21875 C 23.863281 -46.21875 25.828125 -45.453125 27.359375 -43.921875 C 28.867188 -42.410156 29.625 -40.445312 29.625 -38.03125 Z M 13.28125 0 L 2.03125 0 L 2.03125 -28.65625 L 13.28125 -28.65625 Z M 13.28125 0 "/></g></g></g><g fill="#cf4545" fill-opacity="1"><g transform="translate(705.620792, 398.02062)"><g><path d="M 22.40625 -7.265625 C 22.40625 -2.421875 20.113281 0 15.53125 0 L 1.59375 0 L 1.59375 -12.0625 L 9.609375 -12.0625 C 10.546875 -12.0625 11.015625 -12.632812 11.015625 -13.78125 L 11.015625 -32.25 C 11.015625 -33.519531 10.441406 -34.15625 9.296875 -34.15625 L 4.921875 -34.15625 L 4.921875 -46.21875 L 15.34375 -46.21875 C 20.050781 -46.21875 22.40625 -43.785156 22.40625 -38.921875 Z M 22.40625 -7.265625 "/></g></g></g><g fill="#cf4545" fill-opacity="1"><g transform="translate(730.020653, 398.02062)"><g><path d="M 28.375 0 L 1.984375 0 L 1.984375 -12.0625 L 10.78125 -12.0625 C 13.351562 -12.0625 14.640625 -13.582031 14.640625 -16.625 L 14.640625 -30.484375 C 14.640625 -31.835938 14.40625 -32.785156 13.9375 -33.328125 C 13.46875 -33.878906 12.570312 -34.15625 11.25 -34.15625 L 1.984375 -34.15625 L 1.984375 -46.21875 L 17.171875 -46.21875 C 23.140625 -46.21875 26.125 -42.691406 26.125 -35.640625 L 26.125 -19.828125 C 26.125 -15.742188 24.597656 -13.15625 21.546875 -12.0625 L 28.375 -12.0625 Z M 28.375 0 "/></g></g></g><g fill="#cf4545" fill-opacity="1"><g transform="translate(760.003217, 398.02062)"><g><path d="M 32.671875 -8.3125 C 32.671875 -2.769531 30.160156 0 25.140625 0 L 17.171875 0 L 17.171875 -12.109375 L 19.5625 -12.109375 C 20.726562 -12.109375 21.3125 -12.804688 21.3125 -14.203125 L 21.3125 -31.8125 C 21.3125 -33.21875 20.960938 -33.921875 20.265625 -33.921875 C 19.554688 -33.921875 19.070312 -33.128906 18.8125 -31.546875 L 13.15625 0 L 1.984375 0 L 6.75 -25.8125 L 4.53125 -25.8125 C 2.78125 -25.8125 1.90625 -26.664062 1.90625 -28.375 L 1.90625 -46.21875 L 13.234375 -46.21875 L 13.234375 -29.90625 L 15.5 -38.84375 C 16.75 -43.757812 19.441406 -46.21875 23.578125 -46.21875 L 24.171875 -46.21875 C 29.835938 -46.21875 32.671875 -42.757812 32.671875 -35.84375 Z M 32.671875 -8.3125 "/></g></g></g><g fill="#cf4545" fill-opacity="1"><g transform="translate(794.670556, 398.02062)"><g/></g></g><g fill="#cf4545" fill-opacity="1"><g transform="translate(812.355573, 398.02062)"><g><path d="M 31.96875 0 L 20.6875 0 L 20.6875 -31.96875 C 20.6875 -33.425781 20.023438 -34.15625 18.703125 -34.15625 L 17.171875 -34.15625 C 15.816406 -34.15625 15.140625 -33.425781 15.140625 -31.96875 L 15.140625 -5.546875 C 15.140625 -1.847656 13.59375 0 10.5 0 L 0.78125 0 L 0.78125 -12.0625 L 2.734375 -12.0625 C 3.378906 -12.0625 3.703125 -12.347656 3.703125 -12.921875 L 3.703125 -37.359375 C 3.703125 -40.503906 4.316406 -42.769531 5.546875 -44.15625 C 6.765625 -45.53125 8.925781 -46.21875 12.03125 -46.21875 L 24.203125 -46.21875 C 29.378906 -46.21875 31.96875 -43.265625 31.96875 -37.359375 Z M 31.96875 0 "/></g></g></g><g fill="#cf4545" fill-opacity="1"><g transform="translate(846.359247, 398.02062)"><g><path d="M 30.609375 -12.1875 C 30.609375 -4.0625 27.273438 0 20.609375 0 L 1.203125 0 L 1.203125 -12.0625 L 3.9375 -12.0625 L 3.9375 -46.21875 L 15.21875 -46.21875 L 15.21875 -12.0625 L 17.484375 -12.0625 C 18.785156 -12.0625 19.4375 -12.957031 19.4375 -14.75 L 19.4375 -46.21875 L 30.609375 -46.21875 Z M 30.609375 -12.1875 "/></g></g></g><g fill="#cf4545" fill-opacity="1"><g transform="translate(878.957489, 398.02062)"><g><path d="M 13.125 -25.734375 L 1.90625 -25.734375 L 1.90625 -46.21875 L 13.125 -46.21875 Z M 13.125 -25.734375 "/></g></g></g><g fill="#cf4545" fill-opacity="1"><g transform="translate(894.065902, 398.02062)"><g><path d="M 28.375 0 L 1.984375 0 L 1.984375 -12.0625 L 10.78125 -12.0625 C 13.351562 -12.0625 14.640625 -13.582031 14.640625 -16.625 L 14.640625 -30.484375 C 14.640625 -31.835938 14.40625 -32.785156 13.9375 -33.328125 C 13.46875 -33.878906 12.570312 -34.15625 11.25 -34.15625 L 1.984375 -34.15625 L 1.984375 -46.21875 L 17.171875 -46.21875 C 23.140625 -46.21875 26.125 -42.691406 26.125 -35.640625 L 26.125 -19.828125 C 26.125 -15.742188 24.597656 -13.15625 21.546875 -12.0625 L 28.375 -12.0625 Z M 28.375 0 "/></g></g></g><g fill="#cf4545" fill-opacity="1"><g transform="translate(924.048466, 398.02062)"><g><path d="M 29.9375 -14.28125 C 29.9375 -9.570312 29.171875 -6.097656 27.640625 -3.859375 C 25.765625 -1.210938 22.578125 0.109375 18.078125 0.109375 C 17.265625 0.109375 16.414062 0.0703125 15.53125 0 L 15.53125 -12.0625 C 17.507812 -12.0625 18.5 -13.519531 18.5 -16.4375 L 18.5 -32.25 C 18.5 -33.519531 17.835938 -34.15625 16.515625 -34.15625 L 1.984375 -34.15625 L 1.984375 -46.21875 L 24.171875 -46.21875 C 28.015625 -46.21875 29.9375 -44.359375 29.9375 -40.640625 Z M 13.34375 6.671875 L 2.0625 6.671875 L 2.0625 -29.078125 L 13.34375 -29.078125 Z M 13.34375 6.671875 "/></g></g></g><path stroke-linecap="butt" transform="matrix(0.749637, 0, 0, 0.749637, 276.977418, 313.311576)" fill="none" stroke-linejoin="miter" d="M -0.0011413 4.498199 L 681.599312 4.498199 " stroke="#cf4545" stroke-width="9" stroke-opacity="1" stroke-miterlimit="4"/><g fill="#cf4545" fill-opacity="1"><g transform="translate(206.802486, 278.533954)"><g><path d="M 26.75 0 L 14.265625 0 L 14.265625 -37.53125 L 5.796875 -37.53125 L 5.796875 -50.84375 L 17.046875 -50.84375 C 23.515625 -50.84375 26.75 -47.582031 26.75 -41.0625 Z M 26.75 0 "/></g></g></g><g fill="#cf4545" fill-opacity="1"><g transform="translate(241.116396, 278.533954)"><g><path d="M 32.125 -9.75 C 32.125 -6.65625 31.25 -4.253906 29.5 -2.546875 C 27.757812 -0.847656 25.34375 0 22.25 0 L 12.15625 0 C 9.457031 0 7.140625 -0.957031 5.203125 -2.875 C 3.253906 -4.820312 2.28125 -7.113281 2.28125 -9.75 L 2.28125 -41.0625 C 2.28125 -44.175781 3.144531 -46.582031 4.875 -48.28125 C 6.601562 -49.988281 9.03125 -50.84375 12.15625 -50.84375 L 22.25 -50.84375 C 25.34375 -50.84375 27.757812 -49.984375 29.5 -48.265625 C 31.25 -46.546875 32.125 -44.144531 32.125 -41.0625 Z M 19.625 -13.265625 L 19.625 -37.53125 L 14.6875 -37.53125 L 14.6875 -13.265625 Z M 19.625 -13.265625 "/></g></g></g><g fill="#cf4545" fill-opacity="1"><g transform="translate(275.430307, 278.533954)"><g><path d="M 32.203125 -9.75 C 32.203125 -3.25 28.941406 0 22.421875 0 L 11.984375 0 C 9.117188 0 6.769531 -0.914062 4.9375 -2.75 C 3.101562 -4.582031 2.1875 -6.914062 2.1875 -9.75 L 2.1875 -18.8125 C 2.1875 -22.59375 3.976562 -25.113281 7.5625 -26.375 C 5.84375 -26.507812 4.492188 -27.28125 3.515625 -28.6875 C 2.628906 -30 2.1875 -31.546875 2.1875 -33.328125 L 2.1875 -41.0625 C 2.1875 -43.75 3.117188 -46.050781 4.984375 -47.96875 C 6.816406 -49.882812 9.109375 -50.84375 11.859375 -50.84375 L 22.421875 -50.84375 C 28.941406 -50.84375 32.203125 -47.582031 32.203125 -41.0625 L 32.203125 -33.671875 C 32.203125 -31.953125 31.628906 -30.421875 30.484375 -29.078125 C 29.316406 -27.734375 27.914062 -26.832031 26.28125 -26.375 C 30.226562 -25.457031 32.203125 -22.90625 32.203125 -18.71875 Z M 19.796875 -31.65625 L 19.796875 -37.53125 L 14.609375 -37.53125 L 14.609375 -31.65625 Z M 19.796875 -13.265625 L 19.796875 -21.125 L 14.609375 -21.125 L 14.609375 -13.265625 Z M 19.796875 -13.265625 "/></g></g></g><g fill="#cf4545" fill-opacity="1"><g transform="translate(309.744218, 278.533954)"><g><path d="M 32.125 -9.75 C 32.125 -6.65625 31.25 -4.253906 29.5 -2.546875 C 27.757812 -0.847656 25.34375 0 22.25 0 L 12.15625 0 C 9.457031 0 7.140625 -0.957031 5.203125 -2.875 C 3.253906 -4.820312 2.28125 -7.113281 2.28125 -9.75 L 2.28125 -41.0625 C 2.28125 -44.175781 3.144531 -46.582031 4.875 -48.28125 C 6.601562 -49.988281 9.03125 -50.84375 12.15625 -50.84375 L 22.25 -50.84375 C 25.34375 -50.84375 27.757812 -49.984375 29.5 -48.265625 C 31.25 -46.546875 32.125 -44.144531 32.125 -41.0625 Z M 19.625 -13.265625 L 19.625 -37.53125 L 14.6875 -37.53125 L 14.6875 -13.265625 Z M 19.625 -13.265625 "/></g></g></g><g fill="#cf4545" fill-opacity="1"><g transform="translate(344.068107, 278.533954)"><g/></g></g><g fill="#cf4545" fill-opacity="1"><g transform="translate(363.52268, 278.533954)"><g><path d="M 32.59375 0 L 19.96875 0 L 19.96875 -35.46875 C 19.96875 -36.875 19.253906 -37.578125 17.828125 -37.578125 L 2.1875 -37.578125 L 2.1875 -50.84375 L 23.625 -50.84375 C 26.257812 -50.84375 28.421875 -50 30.109375 -48.3125 C 31.765625 -46.65625 32.59375 -44.492188 32.59375 -41.828125 Z M 14.609375 0 L 2.234375 0 L 2.234375 -31.515625 L 14.609375 -31.515625 Z M 14.609375 0 "/></g></g></g><g fill="#cf4545" fill-opacity="1"><g transform="translate(398.308992, 278.533954)"><g><path d="M 34.359375 -9.796875 C 34.359375 -3.265625 31.664062 0 26.28125 0 L 10.265625 0 C 7.546875 0 5.484375 -0.988281 4.078125 -2.96875 C 2.816406 -4.738281 2.1875 -7.015625 2.1875 -9.796875 L 2.1875 -50.84375 L 14.5625 -50.84375 L 14.5625 -34.828125 L 17 -43.5 C 18.375 -48.394531 20.878906 -50.84375 24.515625 -50.84375 L 27.0625 -50.84375 C 31.925781 -50.84375 34.359375 -48.195312 34.359375 -42.90625 Z M 22.03125 -36.421875 C 22.03125 -36.960938 21.914062 -37.234375 21.6875 -37.234375 C 21.519531 -37.234375 21.378906 -37.003906 21.265625 -36.546875 L 19.453125 -29.796875 L 14.5625 -29.796875 L 14.5625 -15.59375 C 14.5625 -14.039062 15.191406 -13.265625 16.453125 -13.265625 L 20.09375 -13.265625 C 21.382812 -13.265625 22.03125 -14.039062 22.03125 -15.59375 Z M 22.03125 -36.421875 "/></g></g></g><g fill="#cf4545" fill-opacity="1"><g transform="translate(434.856099, 278.533954)"><g><path d="M 30.359375 -18.375 C 30.359375 -6.125 24.488281 0 12.75 0 L 7.390625 0 L 7.390625 -13.265625 L 11 -13.265625 C 13.769531 -13.265625 15.65625 -14.15625 16.65625 -15.9375 C 17.375 -17.195312 17.734375 -19.382812 17.734375 -22.5 L 17.734375 -35.46875 C 17.734375 -36.875 17.019531 -37.578125 15.59375 -37.578125 L 2.1875 -37.578125 L 2.1875 -57.15625 L 14.640625 -57.15625 L 14.640625 -50.84375 L 24 -50.84375 C 28.238281 -50.84375 30.359375 -48.796875 30.359375 -44.703125 Z M 30.359375 -18.375 "/></g></g></g><g fill="#cf4545" fill-opacity="1"><g transform="translate(467.409215, 278.533954)"><g><path d="M 33.15625 0 L 20.703125 0 L 20.703125 -35.171875 C 20.703125 -36.773438 19.972656 -37.578125 18.515625 -37.578125 L 17 -37.578125 C 15.539062 -37.578125 14.8125 -36.773438 14.8125 -35.171875 L 14.8125 0 L 2.1875 0 L 2.1875 -41.953125 C 2.1875 -45.128906 2.71875 -47.347656 3.78125 -48.609375 C 4.976562 -50.097656 7.125 -50.84375 10.21875 -50.84375 L 24.5625 -50.84375 C 30.289062 -50.84375 33.15625 -47.878906 33.15625 -41.953125 Z M 33.15625 0 "/></g></g></g><g fill="#cf4545" fill-opacity="1"><g transform="translate(502.753832, 278.533954)"><g><path d="M 32.59375 0 L 19.96875 0 L 19.96875 -35.46875 C 19.96875 -36.875 19.253906 -37.578125 17.828125 -37.578125 L 2.1875 -37.578125 L 2.1875 -50.84375 L 23.625 -50.84375 C 26.257812 -50.84375 28.421875 -50 30.109375 -48.3125 C 31.765625 -46.65625 32.59375 -44.492188 32.59375 -41.828125 Z M 14.609375 0 L 2.234375 0 L 2.234375 -31.515625 L 14.609375 -31.515625 Z M 14.609375 0 "/></g></g></g><g fill="#cf4545" fill-opacity="1"><g transform="translate(537.540143, 278.533954)"><g/></g></g><g fill="#cf4545" fill-opacity="1"><g transform="translate(556.994704, 278.533954)"><g><path d="M 23.65625 -18.203125 L 2.625 -18.203125 L 2.625 -31.484375 L 23.65625 -31.484375 Z M 23.65625 -18.203125 "/></g></g></g><g fill="#cf4545" fill-opacity="1"><g transform="translate(583.277696, 278.533954)"><g/></g></g><g fill="#cf4545" fill-opacity="1"><g transform="translate(602.739829, 278.533954)"><g><path d="M 26.75 0 L 14.265625 0 L 14.265625 -37.53125 L 5.796875 -37.53125 L 5.796875 -50.84375 L 17.046875 -50.84375 C 23.515625 -50.84375 26.75 -47.582031 26.75 -41.0625 Z M 26.75 0 "/></g></g></g><g fill="#cf4545" fill-opacity="1"><g transform="translate(637.05374, 278.533954)"><g><path d="M 31.484375 0 L 3.78125 0 L 3.78125 -5.625 C 3.78125 -10.375 5.3125 -14.394531 8.375 -17.6875 L 14.6875 -24.4375 C 15.519531 -25.351562 16.191406 -26.085938 16.703125 -26.640625 C 17.222656 -27.203125 17.550781 -27.597656 17.6875 -27.828125 C 18.601562 -29.171875 19.0625 -30.628906 19.0625 -32.203125 L 19.0625 -37.53125 L 15.28125 -37.53125 L 15.28125 -32.546875 L 2.921875 -32.546875 L 2.921875 -41.0625 C 2.921875 -43.863281 4.035156 -46.207031 6.265625 -48.09375 C 8.359375 -49.925781 10.835938 -50.84375 13.703125 -50.84375 L 21.734375 -50.84375 C 28.234375 -50.84375 31.484375 -47.582031 31.484375 -41.0625 L 31.484375 -31.65625 C 31.484375 -27.5625 29.664062 -23.4375 26.03125 -19.28125 L 20.75 -13.265625 L 31.484375 -13.265625 Z M 31.484375 0 "/></g></g></g><g fill="#cf4545" fill-opacity="1"><g transform="translate(671.36765, 278.533954)"><g><path d="M 13.359375 0 L 1.765625 0 L 1.765625 -12.578125 L 13.359375 -12.578125 Z M 13.359375 0 "/></g></g></g><g fill="#cf4545" fill-opacity="1"><g transform="translate(686.312881, 278.533954)"><g><path d="M 32.125 -9.75 C 32.125 -6.65625 31.25 -4.253906 29.5 -2.546875 C 27.757812 -0.847656 25.34375 0 22.25 0 L 12.15625 0 C 9.457031 0 7.140625 -0.957031 5.203125 -2.875 C 3.253906 -4.820312 2.28125 -7.113281 2.28125 -9.75 L 2.28125 -41.0625 C 2.28125 -44.175781 3.144531 -46.582031 4.875 -48.28125 C 6.601562 -49.988281 9.03125 -50.84375 12.15625 -50.84375 L 22.25 -50.84375 C 25.34375 -50.84375 27.757812 -49.984375 29.5 -48.265625 C 31.25 -46.546875 32.125 -44.144531 32.125 -41.0625 Z M 19.625 -13.265625 L 19.625 -37.53125 L 14.6875 -37.53125 L 14.6875 -13.265625 Z M 19.625 -13.265625 "/></g></g></g><g fill="#cf4545" fill-opacity="1"><g transform="translate(720.626791, 278.533954)"><g><path d="M 31.484375 0 L 3.78125 0 L 3.78125 -5.625 C 3.78125 -10.375 5.3125 -14.394531 8.375 -17.6875 L 14.6875 -24.4375 C 15.519531 -25.351562 16.191406 -26.085938 16.703125 -26.640625 C 17.222656 -27.203125 17.550781 -27.597656 17.6875 -27.828125 C 18.601562 -29.171875 19.0625 -30.628906 19.0625 -32.203125 L 19.0625 -37.53125 L 15.28125 -37.53125 L 15.28125 -32.546875 L 2.921875 -32.546875 L 2.921875 -41.0625 C 2.921875 -43.863281 4.035156 -46.207031 6.265625 -48.09375 C 8.359375 -49.925781 10.835938 -50.84375 13.703125 -50.84375 L 21.734375 -50.84375 C 28.234375 -50.84375 31.484375 -47.582031 31.484375 -41.0625 L 31.484375 -31.65625 C 31.484375 -27.5625 29.664062 -23.4375 26.03125 -19.28125 L 20.75 -13.265625 L 31.484375 -13.265625 Z M 31.484375 0 "/></g></g></g><g fill="#cf4545" fill-opacity="1"><g transform="translate(754.940702, 278.533954)"><g><path d="M 13.359375 0 L 1.765625 0 L 1.765625 -12.578125 L 13.359375 -12.578125 Z M 13.359375 0 "/></g></g></g><g fill="#cf4545" fill-opacity="1"><g transform="translate(769.885932, 278.533954)"><g><path d="M 31.484375 0 L 3.78125 0 L 3.78125 -5.625 C 3.78125 -10.375 5.3125 -14.394531 8.375 -17.6875 L 14.6875 -24.4375 C 15.519531 -25.351562 16.191406 -26.085938 16.703125 -26.640625 C 17.222656 -27.203125 17.550781 -27.597656 17.6875 -27.828125 C 18.601562 -29.171875 19.0625 -30.628906 19.0625 -32.203125 L 19.0625 -37.53125 L 15.28125 -37.53125 L 15.28125 -32.546875 L 2.921875 -32.546875 L 2.921875 -41.0625 C 2.921875 -43.863281 4.035156 -46.207031 6.265625 -48.09375 C 8.359375 -49.925781 10.835938 -50.84375 13.703125 -50.84375 L 21.734375 -50.84375 C 28.234375 -50.84375 31.484375 -47.582031 31.484375 -41.0625 L 31.484375 -31.65625 C 31.484375 -27.5625 29.664062 -23.4375 26.03125 -19.28125 L 20.75 -13.265625 L 31.484375 -13.265625 Z M 31.484375 0 "/></g></g></g><g fill="#cf4545" fill-opacity="1"><g transform="translate(804.199843, 278.533954)"><g><path d="M 32.125 -9.75 C 32.125 -6.65625 31.25 -4.253906 29.5 -2.546875 C 27.757812 -0.847656 25.34375 0 22.25 0 L 12.15625 0 C 9.457031 0 7.140625 -0.957031 5.203125 -2.875 C 3.253906 -4.820312 2.28125 -7.113281 2.28125 -9.75 L 2.28125 -41.0625 C 2.28125 -44.175781 3.144531 -46.582031 4.875 -48.28125 C 6.601562 -49.988281 9.03125 -50.84375 12.15625 -50.84375 L 22.25 -50.84375 C 25.34375 -50.84375 27.757812 -49.984375 29.5 -48.265625 C 31.25 -46.546875 32.125 -44.144531 32.125 -41.0625 Z M 19.625 -13.265625 L 19.625 -37.53125 L 14.6875 -37.53125 L 14.6875 -13.265625 Z M 19.625 -13.265625 "/></g></g></g><g fill="#cf4545" fill-opacity="1"><g transform="translate(838.513753, 278.533954)"><g><path d="M 32.125 -9.75 C 32.125 -6.65625 31.25 -4.253906 29.5 -2.546875 C 27.757812 -0.847656 25.34375 0 22.25 0 L 12.15625 0 C 9.457031 0 7.140625 -0.957031 5.203125 -2.875 C 3.253906 -4.820312 2.28125 -7.113281 2.28125 -9.75 L 2.28125 -41.0625 C 2.28125 -44.175781 3.144531 -46.582031 4.875 -48.28125 C 6.601562 -49.988281 9.03125 -50.84375 12.15625 -50.84375 L 22.25 -50.84375 C 25.34375 -50.84375 27.757812 -49.984375 29.5 -48.265625 C 31.25 -46.546875 32.125 -44.144531 32.125 -41.0625 Z M 19.625 -13.265625 L 19.625 -37.53125 L 14.6875 -37.53125 L 14.6875 -13.265625 Z M 19.625 -13.265625 "/></g></g></g><g fill="#cf4545" fill-opacity="1"><g transform="translate(872.827664, 278.533954)"><g><path d="M 32.125 -9.75 C 32.125 -6.65625 31.25 -4.253906 29.5 -2.546875 C 27.757812 -0.847656 25.34375 0 22.25 0 L 12.15625 0 C 9.457031 0 7.140625 -0.957031 5.203125 -2.875 C 3.253906 -4.820312 2.28125 -7.113281 2.28125 -9.75 L 2.28125 -41.0625 C 2.28125 -44.175781 3.144531 -46.582031 4.875 -48.28125 C 6.601562 -49.988281 9.03125 -50.84375 12.15625 -50.84375 L 22.25 -50.84375 C 25.34375 -50.84375 27.757812 -49.984375 29.5 -48.265625 C 31.25 -46.546875 32.125 -44.144531 32.125 -41.0625 Z M 19.625 -13.265625 L 19.625 -37.53125 L 14.6875 -37.53125 L 14.6875 -13.265625 Z M 19.625 -13.265625 "/></g></g></g></svg>