<svg xmlns="http://www.w3.org/2000/svg" xmlns:xlink="http://www.w3.org/1999/xlink" width="3022" zoomAndPan="magnify" viewBox="0 0 2266.5 291.749983" height="389" preserveAspectRatio="xMidYMid meet" version="1.0"><defs><clipPath id="6b7add81c7"><path d="M 364 254 L 401.425781 254 L 401.425781 291.464844 L 364 291.464844 Z M 364 254 " clip-rule="nonzero"/></clipPath><clipPath id="1b54720801"><path d="M 252 217.277344 L 290 217.277344 L 290 255 L 252 255 Z M 252 217.277344 " clip-rule="nonzero"/></clipPath><clipPath id="73c115a72b"><path d="M 215 254 L 253 254 L 253 291.464844 L 215 291.464844 Z M 215 254 " clip-rule="nonzero"/></clipPath><clipPath id="65defa3407"><path d="M 103 217.277344 L 141 217.277344 L 141 255 L 103 255 Z M 103 217.277344 " clip-rule="nonzero"/></clipPath><clipPath id="33becccb6b"><path d="M 66 254 L 104 254 L 104 291.464844 L 66 291.464844 Z M 66 254 " clip-rule="nonzero"/></clipPath><clipPath id="2b96ce0e44"><path d="M 326 217.277344 L 365 217.277344 L 365 255 L 326 255 Z M 326 217.277344 " clip-rule="nonzero"/></clipPath><clipPath id="cd3c4df44c"><path d="M 289 254 L 327 254 L 327 291.464844 L 289 291.464844 Z M 289 254 " clip-rule="nonzero"/></clipPath><clipPath id="e874943173"><path d="M 178 217.277344 L 216 217.277344 L 216 255 L 178 255 Z M 178 217.277344 " clip-rule="nonzero"/></clipPath><clipPath id="600a95dd39"><path d="M 140 254 L 179 254 L 179 291.464844 L 140 291.464844 Z M 140 254 " clip-rule="nonzero"/></clipPath><clipPath id="51a6628a96"><path d="M 29 217.277344 L 67 217.277344 L 67 255 L 29 255 Z M 29 217.277344 " clip-rule="nonzero"/></clipPath><clipPath id="2434897c45"><path d="M 737 254 L 774.566406 254 L 774.566406 291.464844 L 737 291.464844 Z M 737 254 " clip-rule="nonzero"/></clipPath><clipPath id="5c59b902d1"><path d="M 625 217.277344 L 663 217.277344 L 663 255 L 625 255 Z M 625 217.277344 " clip-rule="nonzero"/></clipPath><clipPath id="1d7ba2a8f4"><path d="M 588 254 L 626 254 L 626 291.464844 L 588 291.464844 Z M 588 254 " clip-rule="nonzero"/></clipPath><clipPath id="d3ed00d40a"><path d="M 476 217.277344 L 514 217.277344 L 514 255 L 476 255 Z M 476 217.277344 " clip-rule="nonzero"/></clipPath><clipPath id="6141f22090"><path d="M 439 254 L 477 254 L 477 291.464844 L 439 291.464844 Z M 439 254 " clip-rule="nonzero"/></clipPath><clipPath id="823ade6877"><path d="M 700 217.277344 L 738 217.277344 L 738 255 L 700 255 Z M 700 217.277344 " clip-rule="nonzero"/></clipPath><clipPath id="c3f66d9a12"><path d="M 662 254 L 701 254 L 701 291.464844 L 662 291.464844 Z M 662 254 " clip-rule="nonzero"/></clipPath><clipPath id="92dfc6c2bf"><path d="M 551 217.277344 L 589 217.277344 L 589 255 L 551 255 Z M 551 217.277344 " clip-rule="nonzero"/></clipPath><clipPath id="da580bb836"><path d="M 513 254 L 552 254 L 552 291.464844 L 513 291.464844 Z M 513 254 " clip-rule="nonzero"/></clipPath><clipPath id="ed0382a6a6"><path d="M 402.136719 217.277344 L 440 217.277344 L 440 255 L 402.136719 255 Z M 402.136719 217.277344 " clip-rule="nonzero"/></clipPath><clipPath id="1c7ce2d345"><path d="M 1109 254 L 1146.960938 254 L 1146.960938 291.464844 L 1109 291.464844 Z M 1109 254 " clip-rule="nonzero"/></clipPath><clipPath id="ff6ecf93ce"><path d="M 998 217.277344 L 1036 217.277344 L 1036 255 L 998 255 Z M 998 217.277344 " clip-rule="nonzero"/></clipPath><clipPath id="d4ce4de557"><path d="M 960 254 L 999 254 L 999 291.464844 L 960 291.464844 Z M 960 254 " clip-rule="nonzero"/></clipPath><clipPath id="c078b42156"><path d="M 849 217.277344 L 887 217.277344 L 887 255 L 849 255 Z M 849 217.277344 " clip-rule="nonzero"/></clipPath><clipPath id="862f3e45d3"><path d="M 811 254 L 850 254 L 850 291.464844 L 811 291.464844 Z M 811 254 " clip-rule="nonzero"/></clipPath><clipPath id="857bd8bb29"><path d="M 1072 217.277344 L 1110 217.277344 L 1110 255 L 1072 255 Z M 1072 217.277344 " clip-rule="nonzero"/></clipPath><clipPath id="e06644f0ed"><path d="M 1035 254 L 1073 254 L 1073 291.464844 L 1035 291.464844 Z M 1035 254 " clip-rule="nonzero"/></clipPath><clipPath id="d197145dee"><path d="M 923 217.277344 L 961 217.277344 L 961 255 L 923 255 Z M 923 217.277344 " clip-rule="nonzero"/></clipPath><clipPath id="ad6a59269e"><path d="M 886 254 L 924 254 L 924 291.464844 L 886 291.464844 Z M 886 254 " clip-rule="nonzero"/></clipPath><clipPath id="c3717f5390"><path d="M 774.53125 217.277344 L 812 217.277344 L 812 255 L 774.53125 255 Z M 774.53125 217.277344 " clip-rule="nonzero"/></clipPath><clipPath id="3505d6d78e"><path d="M 1482 254 L 1519.355469 254 L 1519.355469 291.464844 L 1482 291.464844 Z M 1482 254 " clip-rule="nonzero"/></clipPath><clipPath id="ee8589637d"><path d="M 1370 217.277344 L 1408 217.277344 L 1408 255 L 1370 255 Z M 1370 217.277344 " clip-rule="nonzero"/></clipPath><clipPath id="7d0709baed"><path d="M 1333 254 L 1371 254 L 1371 291.464844 L 1333 291.464844 Z M 1333 254 " clip-rule="nonzero"/></clipPath><clipPath id="e1c6294a11"><path d="M 1221 217.277344 L 1259 217.277344 L 1259 255 L 1221 255 Z M 1221 217.277344 " clip-rule="nonzero"/></clipPath><clipPath id="43efb92c52"><path d="M 1184 254 L 1222 254 L 1222 291.464844 L 1184 291.464844 Z M 1184 254 " clip-rule="nonzero"/></clipPath><clipPath id="5b04939f22"><path d="M 1444 217.277344 L 1483 217.277344 L 1483 255 L 1444 255 Z M 1444 217.277344 " clip-rule="nonzero"/></clipPath><clipPath id="4ec48a9224"><path d="M 1407 254 L 1445 254 L 1445 291.464844 L 1407 291.464844 Z M 1407 254 " clip-rule="nonzero"/></clipPath><clipPath id="c3a410b41b"><path d="M 1295 217.277344 L 1334 217.277344 L 1334 255 L 1295 255 Z M 1295 217.277344 " clip-rule="nonzero"/></clipPath><clipPath id="f919860107"><path d="M 1258 254 L 1296 254 L 1296 291.464844 L 1258 291.464844 Z M 1258 254 " clip-rule="nonzero"/></clipPath><clipPath id="fc6ae9f00d"><path d="M 1147 217.277344 L 1185 217.277344 L 1185 255 L 1147 255 Z M 1147 217.277344 " clip-rule="nonzero"/></clipPath><clipPath id="78d6f00118"><path d="M 1855 254 L 1892.496094 254 L 1892.496094 291.464844 L 1855 291.464844 Z M 1855 254 " clip-rule="nonzero"/></clipPath><clipPath id="d0eb6c8d11"><path d="M 1743 217.277344 L 1781 217.277344 L 1781 255 L 1743 255 Z M 1743 217.277344 " clip-rule="nonzero"/></clipPath><clipPath id="aa033c0601"><path d="M 1706 254 L 1744 254 L 1744 291.464844 L 1706 291.464844 Z M 1706 254 " clip-rule="nonzero"/></clipPath><clipPath id="7fb209133f"><path d="M 1594 217.277344 L 1632 217.277344 L 1632 255 L 1594 255 Z M 1594 217.277344 " clip-rule="nonzero"/></clipPath><clipPath id="0d3a3e0b31"><path d="M 1557 254 L 1595 254 L 1595 291.464844 L 1557 291.464844 Z M 1557 254 " clip-rule="nonzero"/></clipPath><clipPath id="c41ff89c20"><path d="M 1818 217.277344 L 1856 217.277344 L 1856 255 L 1818 255 Z M 1818 217.277344 " clip-rule="nonzero"/></clipPath><clipPath id="fd94cde0e3"><path d="M 1780 254 L 1819 254 L 1819 291.464844 L 1780 291.464844 Z M 1780 254 " clip-rule="nonzero"/></clipPath><clipPath id="26c7f271e2"><path d="M 1669 217.277344 L 1707 217.277344 L 1707 255 L 1669 255 Z M 1669 217.277344 " clip-rule="nonzero"/></clipPath><clipPath id="a637469385"><path d="M 1631 254 L 1670 254 L 1670 291.464844 L 1631 291.464844 Z M 1631 254 " clip-rule="nonzero"/></clipPath><clipPath id="52ea3107c1"><path d="M 1520.066406 217.277344 L 1558 217.277344 L 1558 255 L 1520.066406 255 Z M 1520.066406 217.277344 " clip-rule="nonzero"/></clipPath><clipPath id="0acc765fb5"><path d="M 2227 254 L 2264.890625 254 L 2264.890625 291.464844 L 2227 291.464844 Z M 2227 254 " clip-rule="nonzero"/></clipPath><clipPath id="bdc4cacb0d"><path d="M 2115 217.277344 L 2154 217.277344 L 2154 255 L 2115 255 Z M 2115 217.277344 " clip-rule="nonzero"/></clipPath><clipPath id="be20c4f5e1"><path d="M 2078 254 L 2116 254 L 2116 291.464844 L 2078 291.464844 Z M 2078 254 " clip-rule="nonzero"/></clipPath><clipPath id="17113a7551"><path d="M 1967 217.277344 L 2005 217.277344 L 2005 255 L 1967 255 Z M 1967 217.277344 " clip-rule="nonzero"/></clipPath><clipPath id="8a121d4370"><path d="M 1929 254 L 1968 254 L 1968 291.464844 L 1929 291.464844 Z M 1929 254 " clip-rule="nonzero"/></clipPath><clipPath id="60ed0d3c24"><path d="M 2190 217.277344 L 2228 217.277344 L 2228 255 L 2190 255 Z M 2190 217.277344 " clip-rule="nonzero"/></clipPath><clipPath id="7e7815bdb5"><path d="M 2153 254 L 2191 254 L 2191 291.464844 L 2153 291.464844 Z M 2153 254 " clip-rule="nonzero"/></clipPath><clipPath id="9f6260237f"><path d="M 2041 217.277344 L 2079 217.277344 L 2079 255 L 2041 255 Z M 2041 217.277344 " clip-rule="nonzero"/></clipPath><clipPath id="f7ea4a4a15"><path d="M 2004 254 L 2042 254 L 2042 291.464844 L 2004 291.464844 Z M 2004 254 " clip-rule="nonzero"/></clipPath><clipPath id="9210b7b347"><path d="M 1892.460938 217.277344 L 1930 217.277344 L 1930 255 L 1892.460938 255 Z M 1892.460938 217.277344 " clip-rule="nonzero"/></clipPath><clipPath id="0334f79e6f"><path d="M 12 104 L 83 104 L 83 171 L 12 171 Z M 12 104 " clip-rule="nonzero"/></clipPath><clipPath id="a7ce9fbdbe"><path d="M 54.738281 0 L 292.070312 77.085938 L 238.132812 243.144531 L 0.800781 166.0625 Z M 54.738281 0 " clip-rule="nonzero"/></clipPath><clipPath id="51dcb3558f"><path d="M 54.738281 0 L 292.070312 77.085938 L 238.132812 243.144531 L 0.800781 166.0625 Z M 54.738281 0 " clip-rule="nonzero"/></clipPath><clipPath id="fdc7f987ad"><path d="M 42 150 L 44 150 L 44 154 L 42 154 Z M 42 150 " clip-rule="nonzero"/></clipPath><clipPath id="08c6750509"><path d="M 54.738281 0 L 292.070312 77.085938 L 238.132812 243.144531 L 0.800781 166.0625 Z M 54.738281 0 " clip-rule="nonzero"/></clipPath><clipPath id="d5a64d0606"><path d="M 54.738281 0 L 292.070312 77.085938 L 238.132812 243.144531 L 0.800781 166.0625 Z M 54.738281 0 " clip-rule="nonzero"/></clipPath><clipPath id="ff4bf8c22d"><path d="M 44 143 L 46 143 L 46 147 L 44 147 Z M 44 143 " clip-rule="nonzero"/></clipPath><clipPath id="e8ba445f84"><path d="M 54.738281 0 L 292.070312 77.085938 L 238.132812 243.144531 L 0.800781 166.0625 Z M 54.738281 0 " clip-rule="nonzero"/></clipPath><clipPath id="d13e8c7742"><path d="M 54.738281 0 L 292.070312 77.085938 L 238.132812 243.144531 L 0.800781 166.0625 Z M 54.738281 0 " clip-rule="nonzero"/></clipPath><clipPath id="9226fa6104"><path d="M 48 137 L 51 137 L 51 140 L 48 140 Z M 48 137 " clip-rule="nonzero"/></clipPath><clipPath id="1cc2e90ec0"><path d="M 54.738281 0 L 292.070312 77.085938 L 238.132812 243.144531 L 0.800781 166.0625 Z M 54.738281 0 " clip-rule="nonzero"/></clipPath><clipPath id="13e4583ee5"><path d="M 54.738281 0 L 292.070312 77.085938 L 238.132812 243.144531 L 0.800781 166.0625 Z M 54.738281 0 " clip-rule="nonzero"/></clipPath><clipPath id="f33c5bb65b"><path d="M 54 132 L 58 132 L 58 135 L 54 135 Z M 54 132 " clip-rule="nonzero"/></clipPath><clipPath id="bdb759f4f7"><path d="M 54.738281 0 L 292.070312 77.085938 L 238.132812 243.144531 L 0.800781 166.0625 Z M 54.738281 0 " clip-rule="nonzero"/></clipPath><clipPath id="4801862c3a"><path d="M 54.738281 0 L 292.070312 77.085938 L 238.132812 243.144531 L 0.800781 166.0625 Z M 54.738281 0 " clip-rule="nonzero"/></clipPath><clipPath id="5e22232458"><path d="M 61 129 L 64 129 L 64 131 L 61 131 Z M 61 129 " clip-rule="nonzero"/></clipPath><clipPath id="349e3f2f1c"><path d="M 54.738281 0 L 292.070312 77.085938 L 238.132812 243.144531 L 0.800781 166.0625 Z M 54.738281 0 " clip-rule="nonzero"/></clipPath><clipPath id="1b43a21ba5"><path d="M 54.738281 0 L 292.070312 77.085938 L 238.132812 243.144531 L 0.800781 166.0625 Z M 54.738281 0 " clip-rule="nonzero"/></clipPath><clipPath id="9f4d309b9a"><path d="M 62 69 L 272 69 L 272 194 L 62 194 Z M 62 69 " clip-rule="nonzero"/></clipPath><clipPath id="a7c6dc1a3c"><path d="M 54.738281 0 L 292.070312 77.085938 L 238.132812 243.144531 L 0.800781 166.0625 Z M 54.738281 0 " clip-rule="nonzero"/></clipPath><clipPath id="ff8d3945cc"><path d="M 54.738281 0 L 292.070312 77.085938 L 238.132812 243.144531 L 0.800781 166.0625 Z M 54.738281 0 " clip-rule="nonzero"/></clipPath><clipPath id="115a702b88"><path d="M 11 56 L 265 56 L 265 181 L 11 181 Z M 11 56 " clip-rule="nonzero"/></clipPath><clipPath id="517491bc20"><path d="M 54.738281 0 L 292.070312 77.085938 L 238.132812 243.144531 L 0.800781 166.0625 Z M 54.738281 0 " clip-rule="nonzero"/></clipPath><clipPath id="8ba31ed464"><path d="M 54.738281 0 L 292.070312 77.085938 L 238.132812 243.144531 L 0.800781 166.0625 Z M 54.738281 0 " clip-rule="nonzero"/></clipPath></defs><g clip-path="url(#6b7add81c7)"><path fill="#f8f6e9" d="M 401.425781 291.449219 L 364.1875 291.449219 L 364.1875 254.210938 L 401.425781 254.210938 Z M 401.425781 291.449219 " fill-opacity="1" fill-rule="nonzero"/></g><g clip-path="url(#1b54720801)"><path fill="#f8f6e9" d="M 289.71875 254.210938 L 252.480469 254.210938 L 252.480469 216.972656 L 289.71875 216.972656 Z M 289.71875 254.210938 " fill-opacity="1" fill-rule="nonzero"/></g><g clip-path="url(#73c115a72b)"><path fill="#f8f6e9" d="M 252.480469 291.449219 L 215.242188 291.449219 L 215.242188 254.210938 L 252.480469 254.210938 Z M 252.480469 291.449219 " fill-opacity="1" fill-rule="nonzero"/></g><g clip-path="url(#65defa3407)"><path fill="#f8f6e9" d="M 140.777344 254.210938 L 103.539062 254.210938 L 103.539062 216.972656 L 140.777344 216.972656 Z M 140.777344 254.210938 " fill-opacity="1" fill-rule="nonzero"/></g><g clip-path="url(#33becccb6b)"><path fill="#f8f6e9" d="M 103.550781 291.449219 L 66.3125 291.449219 L 66.3125 254.210938 L 103.550781 254.210938 Z M 103.550781 291.449219 " fill-opacity="1" fill-rule="nonzero"/></g><g clip-path="url(#2b96ce0e44)"><path fill="#f8f6e9" d="M 364.1875 254.210938 L 326.949219 254.210938 L 326.949219 216.972656 L 364.1875 216.972656 Z M 364.1875 254.210938 " fill-opacity="1" fill-rule="nonzero"/></g><g clip-path="url(#cd3c4df44c)"><path fill="#f8f6e9" d="M 326.960938 291.449219 L 289.71875 291.449219 L 289.71875 254.210938 L 326.960938 254.210938 Z M 326.960938 291.449219 " fill-opacity="1" fill-rule="nonzero"/></g><g clip-path="url(#e874943173)"><path fill="#f8f6e9" d="M 215.253906 254.210938 L 178.015625 254.210938 L 178.015625 216.972656 L 215.253906 216.972656 Z M 215.253906 254.210938 " fill-opacity="1" fill-rule="nonzero"/></g><g clip-path="url(#600a95dd39)"><path fill="#f8f6e9" d="M 178.015625 291.449219 L 140.777344 291.449219 L 140.777344 254.210938 L 178.015625 254.210938 Z M 178.015625 291.449219 " fill-opacity="1" fill-rule="nonzero"/></g><g clip-path="url(#51a6628a96)"><path fill="#f8f6e9" d="M 66.3125 254.210938 L 29.074219 254.210938 L 29.074219 216.972656 L 66.3125 216.972656 Z M 66.3125 254.210938 " fill-opacity="1" fill-rule="nonzero"/></g><g clip-path="url(#2434897c45)"><path fill="#f8f6e9" d="M 774.566406 291.449219 L 737.328125 291.449219 L 737.328125 254.210938 L 774.566406 254.210938 Z M 774.566406 291.449219 " fill-opacity="1" fill-rule="nonzero"/></g><g clip-path="url(#5c59b902d1)"><path fill="#f8f6e9" d="M 662.863281 254.210938 L 625.625 254.210938 L 625.625 216.972656 L 662.863281 216.972656 Z M 662.863281 254.210938 " fill-opacity="1" fill-rule="nonzero"/></g><g clip-path="url(#1d7ba2a8f4)"><path fill="#f8f6e9" d="M 625.625 291.449219 L 588.386719 291.449219 L 588.386719 254.210938 L 625.625 254.210938 Z M 625.625 291.449219 " fill-opacity="1" fill-rule="nonzero"/></g><g clip-path="url(#d3ed00d40a)"><path fill="#f8f6e9" d="M 513.921875 254.210938 L 476.683594 254.210938 L 476.683594 216.972656 L 513.921875 216.972656 Z M 513.921875 254.210938 " fill-opacity="1" fill-rule="nonzero"/></g><g clip-path="url(#6141f22090)"><path fill="#f8f6e9" d="M 476.691406 291.449219 L 439.453125 291.449219 L 439.453125 254.210938 L 476.691406 254.210938 Z M 476.691406 291.449219 " fill-opacity="1" fill-rule="nonzero"/></g><g clip-path="url(#823ade6877)"><path fill="#f8f6e9" d="M 737.328125 254.210938 L 700.089844 254.210938 L 700.089844 216.972656 L 737.328125 216.972656 Z M 737.328125 254.210938 " fill-opacity="1" fill-rule="nonzero"/></g><g clip-path="url(#c3f66d9a12)"><path fill="#f8f6e9" d="M 700.101562 291.449219 L 662.863281 291.449219 L 662.863281 254.210938 L 700.101562 254.210938 Z M 700.101562 291.449219 " fill-opacity="1" fill-rule="nonzero"/></g><g clip-path="url(#92dfc6c2bf)"><path fill="#f8f6e9" d="M 588.398438 254.210938 L 551.160156 254.210938 L 551.160156 216.972656 L 588.398438 216.972656 Z M 588.398438 254.210938 " fill-opacity="1" fill-rule="nonzero"/></g><g clip-path="url(#da580bb836)"><path fill="#f8f6e9" d="M 551.160156 291.449219 L 513.921875 291.449219 L 513.921875 254.210938 L 551.160156 254.210938 Z M 551.160156 291.449219 " fill-opacity="1" fill-rule="nonzero"/></g><g clip-path="url(#ed0382a6a6)"><path fill="#f8f6e9" d="M 439.453125 254.210938 L 402.214844 254.210938 L 402.214844 216.972656 L 439.453125 216.972656 Z M 439.453125 254.210938 " fill-opacity="1" fill-rule="nonzero"/></g><g clip-path="url(#1c7ce2d345)"><path fill="#f8f6e9" d="M 1146.960938 291.449219 L 1109.722656 291.449219 L 1109.722656 254.210938 L 1146.960938 254.210938 Z M 1146.960938 291.449219 " fill-opacity="1" fill-rule="nonzero"/></g><g clip-path="url(#ff6ecf93ce)"><path fill="#f8f6e9" d="M 1035.257812 254.210938 L 998.019531 254.210938 L 998.019531 216.972656 L 1035.257812 216.972656 Z M 1035.257812 254.210938 " fill-opacity="1" fill-rule="nonzero"/></g><g clip-path="url(#d4ce4de557)"><path fill="#f8f6e9" d="M 998.019531 291.449219 L 960.78125 291.449219 L 960.78125 254.210938 L 998.019531 254.210938 Z M 998.019531 291.449219 " fill-opacity="1" fill-rule="nonzero"/></g><g clip-path="url(#c078b42156)"><path fill="#f8f6e9" d="M 886.3125 254.210938 L 849.074219 254.210938 L 849.074219 216.972656 L 886.3125 216.972656 Z M 886.3125 254.210938 " fill-opacity="1" fill-rule="nonzero"/></g><g clip-path="url(#862f3e45d3)"><path fill="#f8f6e9" d="M 849.085938 291.449219 L 811.847656 291.449219 L 811.847656 254.210938 L 849.085938 254.210938 Z M 849.085938 291.449219 " fill-opacity="1" fill-rule="nonzero"/></g><g clip-path="url(#857bd8bb29)"><path fill="#f8f6e9" d="M 1109.722656 254.210938 L 1072.484375 254.210938 L 1072.484375 216.972656 L 1109.722656 216.972656 Z M 1109.722656 254.210938 " fill-opacity="1" fill-rule="nonzero"/></g><g clip-path="url(#e06644f0ed)"><path fill="#f8f6e9" d="M 1072.496094 291.449219 L 1035.257812 291.449219 L 1035.257812 254.210938 L 1072.496094 254.210938 Z M 1072.496094 291.449219 " fill-opacity="1" fill-rule="nonzero"/></g><g clip-path="url(#d197145dee)"><path fill="#f8f6e9" d="M 960.789062 254.210938 L 923.550781 254.210938 L 923.550781 216.972656 L 960.789062 216.972656 Z M 960.789062 254.210938 " fill-opacity="1" fill-rule="nonzero"/></g><g clip-path="url(#ad6a59269e)"><path fill="#f8f6e9" d="M 923.550781 291.449219 L 886.3125 291.449219 L 886.3125 254.210938 L 923.550781 254.210938 Z M 923.550781 291.449219 " fill-opacity="1" fill-rule="nonzero"/></g><g clip-path="url(#c3717f5390)"><path fill="#f8f6e9" d="M 811.847656 254.210938 L 774.609375 254.210938 L 774.609375 216.972656 L 811.847656 216.972656 Z M 811.847656 254.210938 " fill-opacity="1" fill-rule="nonzero"/></g><g clip-path="url(#3505d6d78e)"><path fill="#f8f6e9" d="M 1519.355469 291.449219 L 1482.117188 291.449219 L 1482.117188 254.210938 L 1519.355469 254.210938 Z M 1519.355469 291.449219 " fill-opacity="1" fill-rule="nonzero"/></g><g clip-path="url(#ee8589637d)"><path fill="#f8f6e9" d="M 1407.648438 254.210938 L 1370.410156 254.210938 L 1370.410156 216.972656 L 1407.648438 216.972656 Z M 1407.648438 254.210938 " fill-opacity="1" fill-rule="nonzero"/></g><g clip-path="url(#7d0709baed)"><path fill="#f8f6e9" d="M 1370.410156 291.449219 L 1333.171875 291.449219 L 1333.171875 254.210938 L 1370.410156 254.210938 Z M 1370.410156 291.449219 " fill-opacity="1" fill-rule="nonzero"/></g><g clip-path="url(#e1c6294a11)"><path fill="#f8f6e9" d="M 1258.707031 254.210938 L 1221.46875 254.210938 L 1221.46875 216.972656 L 1258.707031 216.972656 Z M 1258.707031 254.210938 " fill-opacity="1" fill-rule="nonzero"/></g><g clip-path="url(#43efb92c52)"><path fill="#f8f6e9" d="M 1221.480469 291.449219 L 1184.242188 291.449219 L 1184.242188 254.210938 L 1221.480469 254.210938 Z M 1221.480469 291.449219 " fill-opacity="1" fill-rule="nonzero"/></g><g clip-path="url(#5b04939f22)"><path fill="#f8f6e9" d="M 1482.117188 254.210938 L 1444.878906 254.210938 L 1444.878906 216.972656 L 1482.117188 216.972656 Z M 1482.117188 254.210938 " fill-opacity="1" fill-rule="nonzero"/></g><g clip-path="url(#4ec48a9224)"><path fill="#f8f6e9" d="M 1444.886719 291.449219 L 1407.648438 291.449219 L 1407.648438 254.210938 L 1444.886719 254.210938 Z M 1444.886719 291.449219 " fill-opacity="1" fill-rule="nonzero"/></g><g clip-path="url(#c3a410b41b)"><path fill="#f8f6e9" d="M 1333.183594 254.210938 L 1295.945312 254.210938 L 1295.945312 216.972656 L 1333.183594 216.972656 Z M 1333.183594 254.210938 " fill-opacity="1" fill-rule="nonzero"/></g><g clip-path="url(#f919860107)"><path fill="#f8f6e9" d="M 1295.945312 291.449219 L 1258.707031 291.449219 L 1258.707031 254.210938 L 1295.945312 254.210938 Z M 1295.945312 291.449219 " fill-opacity="1" fill-rule="nonzero"/></g><g clip-path="url(#fc6ae9f00d)"><path fill="#f8f6e9" d="M 1184.242188 254.210938 L 1147.003906 254.210938 L 1147.003906 216.972656 L 1184.242188 216.972656 Z M 1184.242188 254.210938 " fill-opacity="1" fill-rule="nonzero"/></g><g clip-path="url(#78d6f00118)"><path fill="#f8f6e9" d="M 1892.496094 291.449219 L 1855.257812 291.449219 L 1855.257812 254.210938 L 1892.496094 254.210938 Z M 1892.496094 291.449219 " fill-opacity="1" fill-rule="nonzero"/></g><g clip-path="url(#d0eb6c8d11)"><path fill="#f8f6e9" d="M 1780.792969 254.210938 L 1743.554688 254.210938 L 1743.554688 216.972656 L 1780.792969 216.972656 Z M 1780.792969 254.210938 " fill-opacity="1" fill-rule="nonzero"/></g><g clip-path="url(#aa033c0601)"><path fill="#f8f6e9" d="M 1743.554688 291.449219 L 1706.316406 291.449219 L 1706.316406 254.210938 L 1743.554688 254.210938 Z M 1743.554688 291.449219 " fill-opacity="1" fill-rule="nonzero"/></g><g clip-path="url(#7fb209133f)"><path fill="#f8f6e9" d="M 1631.847656 254.210938 L 1594.609375 254.210938 L 1594.609375 216.972656 L 1631.847656 216.972656 Z M 1631.847656 254.210938 " fill-opacity="1" fill-rule="nonzero"/></g><g clip-path="url(#0d3a3e0b31)"><path fill="#f8f6e9" d="M 1594.621094 291.449219 L 1557.382812 291.449219 L 1557.382812 254.210938 L 1594.621094 254.210938 Z M 1594.621094 291.449219 " fill-opacity="1" fill-rule="nonzero"/></g><g clip-path="url(#c41ff89c20)"><path fill="#f8f6e9" d="M 1855.257812 254.210938 L 1818.019531 254.210938 L 1818.019531 216.972656 L 1855.257812 216.972656 Z M 1855.257812 254.210938 " fill-opacity="1" fill-rule="nonzero"/></g><g clip-path="url(#fd94cde0e3)"><path fill="#f8f6e9" d="M 1818.03125 291.449219 L 1780.792969 291.449219 L 1780.792969 254.210938 L 1818.03125 254.210938 Z M 1818.03125 291.449219 " fill-opacity="1" fill-rule="nonzero"/></g><g clip-path="url(#26c7f271e2)"><path fill="#f8f6e9" d="M 1706.328125 254.210938 L 1669.089844 254.210938 L 1669.089844 216.972656 L 1706.328125 216.972656 Z M 1706.328125 254.210938 " fill-opacity="1" fill-rule="nonzero"/></g><g clip-path="url(#a637469385)"><path fill="#f8f6e9" d="M 1669.089844 291.449219 L 1631.847656 291.449219 L 1631.847656 254.210938 L 1669.089844 254.210938 Z M 1669.089844 291.449219 " fill-opacity="1" fill-rule="nonzero"/></g><g clip-path="url(#52ea3107c1)"><path fill="#f8f6e9" d="M 1557.382812 254.210938 L 1520.144531 254.210938 L 1520.144531 216.972656 L 1557.382812 216.972656 Z M 1557.382812 254.210938 " fill-opacity="1" fill-rule="nonzero"/></g><g clip-path="url(#0acc765fb5)"><path fill="#f8f6e9" d="M 2264.890625 291.449219 L 2227.652344 291.449219 L 2227.652344 254.210938 L 2264.890625 254.210938 Z M 2264.890625 291.449219 " fill-opacity="1" fill-rule="nonzero"/></g><g clip-path="url(#bdc4cacb0d)"><path fill="#f8f6e9" d="M 2153.1875 254.210938 L 2115.949219 254.210938 L 2115.949219 216.972656 L 2153.1875 216.972656 Z M 2153.1875 254.210938 " fill-opacity="1" fill-rule="nonzero"/></g><g clip-path="url(#be20c4f5e1)"><path fill="#f8f6e9" d="M 2115.949219 291.449219 L 2078.710938 291.449219 L 2078.710938 254.210938 L 2115.949219 254.210938 Z M 2115.949219 291.449219 " fill-opacity="1" fill-rule="nonzero"/></g><g clip-path="url(#17113a7551)"><path fill="#f8f6e9" d="M 2004.242188 254.210938 L 1967.003906 254.210938 L 1967.003906 216.972656 L 2004.242188 216.972656 Z M 2004.242188 254.210938 " fill-opacity="1" fill-rule="nonzero"/></g><g clip-path="url(#8a121d4370)"><path fill="#f8f6e9" d="M 1967.015625 291.449219 L 1929.777344 291.449219 L 1929.777344 254.210938 L 1967.015625 254.210938 Z M 1967.015625 291.449219 " fill-opacity="1" fill-rule="nonzero"/></g><g clip-path="url(#60ed0d3c24)"><path fill="#f8f6e9" d="M 2227.652344 254.210938 L 2190.414062 254.210938 L 2190.414062 216.972656 L 2227.652344 216.972656 Z M 2227.652344 254.210938 " fill-opacity="1" fill-rule="nonzero"/></g><g clip-path="url(#7e7815bdb5)"><path fill="#f8f6e9" d="M 2190.425781 291.449219 L 2153.1875 291.449219 L 2153.1875 254.210938 L 2190.425781 254.210938 Z M 2190.425781 291.449219 " fill-opacity="1" fill-rule="nonzero"/></g><g clip-path="url(#9f6260237f)"><path fill="#f8f6e9" d="M 2078.71875 254.210938 L 2041.480469 254.210938 L 2041.480469 216.972656 L 2078.71875 216.972656 Z M 2078.71875 254.210938 " fill-opacity="1" fill-rule="nonzero"/></g><g clip-path="url(#f7ea4a4a15)"><path fill="#f8f6e9" d="M 2041.480469 291.449219 L 2004.242188 291.449219 L 2004.242188 254.210938 L 2041.480469 254.210938 Z M 2041.480469 291.449219 " fill-opacity="1" fill-rule="nonzero"/></g><g clip-path="url(#9210b7b347)"><path fill="#f8f6e9" d="M 1929.777344 254.210938 L 1892.539062 254.210938 L 1892.539062 216.972656 L 1929.777344 216.972656 Z M 1929.777344 254.210938 " fill-opacity="1" fill-rule="nonzero"/></g><g clip-path="url(#0334f79e6f)"><g clip-path="url(#a7ce9fbdbe)"><g clip-path="url(#51dcb3558f)"><path fill="#242536" d="M 82.363281 106.066406 C 81.367188 107.136719 80.402344 108.238281 79.441406 109.359375 C 77.382812 111.777344 75.5625 114.378906 74.058594 117.175781 C 72.136719 120.742188 70.445312 124.480469 68.996094 128.300781 C 68.4375 128.351562 67.875 128.398438 67.308594 128.449219 C 67.820312 128.410156 68.339844 128.375 68.851562 128.359375 C 66.726562 128.636719 64.636719 129.105469 62.59375 129.75 C 63.054688 129.5625 63.527344 129.382812 63.996094 129.207031 C 63.039062 129.550781 62.082031 129.890625 61.125 130.238281 C 61.613281 130.0625 62.097656 129.902344 62.59375 129.75 C 60.269531 130.6875 58.035156 131.835938 55.917969 133.171875 C 56.296875 132.890625 56.679688 132.621094 57.066406 132.351562 C 56.226562 132.925781 55.390625 133.496094 54.546875 134.066406 C 54.996094 133.761719 55.445312 133.460938 55.90625 133.179688 C 53.675781 134.824219 51.605469 136.675781 49.714844 138.707031 C 50.039062 138.296875 50.378906 137.894531 50.71875 137.496094 C 50.046875 138.277344 49.375 139.054688 48.695312 139.835938 C 49.027344 139.453125 49.367188 139.078125 49.714844 138.707031 C 48.046875 140.789062 46.566406 143.011719 45.3125 145.367188 C 45.519531 144.886719 45.734375 144.414062 45.957031 143.941406 C 45.496094 144.898438 45.035156 145.859375 44.570312 146.824219 C 44.8125 146.332031 45.058594 145.847656 45.3125 145.367188 C 44.417969 147.449219 43.707031 149.601562 43.203125 151.8125 C 43.257812 151.308594 43.335938 150.816406 43.421875 150.316406 C 43.234375 151.363281 43.042969 152.417969 42.851562 153.464844 C 42.953125 152.910156 43.066406 152.355469 43.203125 151.8125 C 42.878906 154.214844 42.804688 156.640625 43 159.066406 C 42.886719 161.253906 42.234375 163.257812 41.042969 165.097656 C 40.371094 165.875 39.691406 166.648438 39.019531 167.429688 C 36.785156 169.601562 33.585938 170.445312 30.554688 170.4375 C 27.539062 170.4375 24.160156 168.671875 22.1875 166.460938 C 21.988281 166.25 21.796875 166.03125 21.617188 165.804688 C 21.449219 165.636719 21.289062 165.449219 21.15625 165.238281 L 13.175781 152.613281 C 12.300781 151.222656 12.714844 149.386719 14.101562 148.507812 C 15.492188 147.628906 17.328125 148.046875 18.207031 149.433594 L 19.316406 151.183594 C 19.363281 150.753906 19.421875 150.324219 19.492188 149.894531 C 20.078125 146.261719 20.78125 142.679688 22.121094 139.25 C 24.90625 132.121094 28.941406 126.074219 34.1875 120.542969 C 36.125 118.5 38.257812 116.644531 40.546875 115.007812 C 43.550781 112.863281 46.617188 110.816406 49.976562 109.269531 C 56.789062 106.140625 64.050781 104.445312 71.558594 104.5 C 75.203125 104.523438 78.851562 105.0625 82.363281 106.066406 Z M 82.363281 106.066406 " fill-opacity="1" fill-rule="nonzero"/></g></g></g><g clip-path="url(#fdc7f987ad)"><g clip-path="url(#08c6750509)"><g clip-path="url(#d5a64d0606)"><path fill="#242536" d="M 43.203125 151.8125 C 43.066406 152.355469 42.953125 152.910156 42.851562 153.464844 C 43.042969 152.417969 43.234375 151.363281 43.421875 150.316406 C 43.335938 150.816406 43.257812 151.308594 43.203125 151.8125 Z M 43.203125 151.8125 " fill-opacity="1" fill-rule="nonzero"/></g></g></g><g clip-path="url(#ff4bf8c22d)"><g clip-path="url(#e8ba445f84)"><g clip-path="url(#d13e8c7742)"><path fill="#242536" d="M 44.570312 146.824219 C 45.035156 145.859375 45.496094 144.898438 45.957031 143.941406 C 45.734375 144.414062 45.519531 144.886719 45.3125 145.367188 C 45.058594 145.847656 44.8125 146.332031 44.570312 146.824219 Z M 44.570312 146.824219 " fill-opacity="1" fill-rule="nonzero"/></g></g></g><g clip-path="url(#9226fa6104)"><g clip-path="url(#1cc2e90ec0)"><g clip-path="url(#13e4583ee5)"><path fill="#242536" d="M 48.695312 139.835938 C 49.375 139.054688 50.046875 138.277344 50.71875 137.496094 C 50.378906 137.894531 50.039062 138.296875 49.714844 138.707031 C 49.367188 139.078125 49.027344 139.453125 48.695312 139.835938 Z M 48.695312 139.835938 " fill-opacity="1" fill-rule="nonzero"/></g></g></g><g clip-path="url(#f33c5bb65b)"><g clip-path="url(#bdb759f4f7)"><g clip-path="url(#4801862c3a)"><path fill="#242536" d="M 54.546875 134.066406 C 55.390625 133.496094 56.226562 132.925781 57.066406 132.351562 C 56.679688 132.621094 56.296875 132.890625 55.917969 133.171875 C 55.917969 133.171875 55.910156 133.175781 55.90625 133.179688 C 55.445312 133.460938 54.996094 133.761719 54.546875 134.066406 Z M 54.546875 134.066406 " fill-opacity="1" fill-rule="nonzero"/></g></g></g><g clip-path="url(#5e22232458)"><g clip-path="url(#349e3f2f1c)"><g clip-path="url(#1b43a21ba5)"><path fill="#242536" d="M 61.125 130.238281 C 62.082031 129.890625 63.039062 129.550781 63.996094 129.207031 C 63.527344 129.382812 63.054688 129.5625 62.59375 129.75 C 62.097656 129.902344 61.613281 130.0625 61.125 130.238281 Z M 61.125 130.238281 " fill-opacity="1" fill-rule="nonzero"/></g></g></g><g clip-path="url(#9f4d309b9a)"><g clip-path="url(#a7c6dc1a3c)"><g clip-path="url(#ff8d3945cc)"><path fill="#242536" d="M 271.496094 135.050781 C 271.996094 126.347656 272.246094 117.710938 271.089844 109.039062 C 270.484375 104.511719 269.222656 100.28125 267.628906 96.003906 C 266.109375 91.90625 263.875 88.3125 261.34375 84.757812 C 258.882812 81.300781 255.667969 78.292969 252.21875 75.847656 C 250.050781 74.308594 247.621094 73.179688 245.203125 72.09375 C 243.792969 71.460938 242.316406 70.96875 240.804688 70.628906 C 238.410156 70.089844 235.941406 69.609375 233.476562 69.503906 C 231 69.386719 228.476562 69.636719 226.03125 69.941406 C 222.097656 70.425781 218.230469 71.777344 214.617188 73.351562 C 210.863281 74.992188 207.371094 77.320312 204.144531 79.820312 C 201.386719 81.96875 198.953125 84.519531 196.726562 87.210938 C 195.21875 86.722656 193.695312 86.316406 192.152344 85.988281 C 188.15625 85.140625 184.117188 84.46875 180.027344 84.394531 C 175.984375 84.316406 171.882812 84.65625 167.902344 85.332031 C 163.898438 86.015625 160.085938 87.292969 156.28125 88.71875 C 153.40625 89.796875 150.640625 91.160156 148.046875 92.8125 C 146.507812 93.796875 144.984375 94.820312 143.523438 95.902344 C 133.460938 90.414062 121.753906 88.167969 110.242188 90.363281 C 102.15625 91.898438 94.773438 95.699219 88.265625 100.632812 C 86.105469 102.269531 84.1875 104.109375 82.363281 106.066406 C 81.367188 107.136719 80.402344 108.238281 79.441406 109.359375 C 77.382812 111.777344 75.5625 114.378906 74.058594 117.175781 C 72.136719 120.742188 70.445312 124.480469 68.996094 128.300781 C 68.4375 128.351562 67.875 128.398438 67.308594 128.449219 C 67.820312 128.410156 68.339844 128.375 68.851562 128.359375 C 68.890625 128.355469 68.9375 128.351562 68.976562 128.359375 C 67.785156 131.511719 66.746094 134.726562 65.875 137.945312 C 63.960938 145.0625 62.578125 152.601562 62.90625 160.003906 C 63.078125 163.96875 63.441406 168.011719 64.5 171.851562 C 65.75 176.367188 67.558594 181.636719 70.695312 185.253906 C 72.367188 187.183594 74.457031 189.03125 76.71875 190.261719 C 80.050781 192.066406 82.71875 192.953125 86.460938 193.445312 C 90.820312 194.023438 95.953125 192.742188 99.722656 190.566406 C 103.710938 188.265625 107.382812 185.058594 109.722656 181.042969 C 111.671875 177.699219 113.070312 173.976562 113.949219 170.210938 C 114.84375 166.351562 115.515625 162.378906 115.664062 158.410156 C 115.804688 154.464844 115.488281 150.464844 114.917969 146.5625 C 114.492188 143.636719 113.808594 140.742188 112.847656 137.945312 C 111.597656 134.273438 110.25 130.660156 108.304688 127.296875 C 106.710938 124.539062 104.894531 121.902344 102.839844 119.46875 C 103.433594 118.96875 104.046875 118.492188 104.683594 118.035156 C 106.753906 116.734375 108.929688 115.617188 111.191406 114.703125 C 113.214844 114.074219 115.273438 113.613281 117.371094 113.332031 C 119.484375 113.25 121.585938 113.355469 123.679688 113.640625 C 124.929688 113.925781 126.164062 114.273438 127.375 114.675781 C 126.15625 116.9375 125.078125 119.277344 124.089844 121.625 C 122.789062 124.722656 121.785156 127.945312 121.085938 131.234375 C 120.195312 135.460938 119.484375 139.742188 119.382812 144.070312 C 119.28125 148.335938 119.625 152.671875 120.34375 156.871094 C 121.9375 166.207031 126.300781 175.023438 133.953125 180.8125 C 134.582031 181.285156 135.25 181.695312 135.957031 182.054688 C 137.464844 182.835938 139.058594 183.710938 140.722656 184.164062 C 144.21875 185.125 147.328125 185.242188 150.902344 184.699219 C 152.488281 184.457031 154.015625 183.804688 155.507812 183.242188 C 156.179688 182.992188 156.816406 182.703125 157.429688 182.332031 C 158.804688 181.484375 160.207031 180.585938 161.4375 179.511719 C 162.6875 178.425781 163.734375 177.09375 164.789062 175.832031 C 165.726562 174.71875 166.515625 173.507812 167.175781 172.207031 C 168.3125 169.96875 169.429688 167.707031 170.175781 165.304688 C 170.917969 162.921875 171.3125 160.457031 171.746094 158 C 172.054688 156.261719 172.296875 154.507812 172.445312 152.746094 C 172.816406 148.386719 172.546875 144.074219 172.125 139.726562 C 171.785156 136.269531 171.113281 132.851562 170.089844 129.53125 C 168.203125 123.394531 165.558594 117.542969 161.921875 112.300781 C 163.351562 111.539062 164.832031 110.859375 166.34375 110.253906 C 169.300781 109.308594 172.335938 108.652344 175.417969 108.28125 C 175.4375 108.28125 175.464844 108.277344 175.496094 108.277344 C 178.6875 108.121094 181.886719 108.265625 185.046875 108.71875 C 185.050781 108.722656 185.050781 108.722656 185.058594 108.722656 C 185.203125 108.753906 185.351562 108.789062 185.496094 108.824219 C 185.109375 110.03125 184.761719 111.253906 184.445312 112.480469 C 182.128906 121.382812 180.953125 130.582031 179.9375 139.707031 C 179.535156 143.34375 179.238281 146.988281 179.539062 150.636719 C 179.960938 155.800781 180.746094 161.121094 183.589844 165.601562 C 184.933594 167.71875 186.328125 169.832031 188.195312 171.523438 C 189.414062 172.617188 190.675781 173.789062 192.046875 174.722656 C 193.097656 175.4375 194.234375 175.953125 195.378906 176.5 C 198.117188 177.8125 200.675781 178.550781 203.769531 178.828125 C 207.273438 179.132812 210.464844 178.285156 213.683594 177.054688 C 214.433594 176.765625 215.148438 176.441406 215.832031 176.011719 C 217.304688 175.085938 218.824219 174.105469 220.125 172.9375 C 222.050781 171.214844 223.757812 169.148438 225.21875 167.015625 C 227.5 163.703125 229.296875 159.925781 230.65625 156.148438 C 232.007812 152.402344 232.765625 148.394531 233.246094 144.453125 C 233.734375 140.460938 233.488281 136.546875 233.125 132.550781 C 232.851562 129.5 232.28125 126.480469 231.398438 123.550781 C 230.273438 119.804688 228.894531 116.0625 227.050781 112.605469 C 224.5 107.824219 221.292969 103.523438 217.492188 99.769531 C 218.511719 98.824219 219.585938 97.9375 220.707031 97.105469 C 222.421875 96.03125 224.214844 95.097656 226.089844 94.324219 C 227.558594 93.875 229.054688 93.539062 230.574219 93.316406 C 230.574219 93.316406 230.578125 93.3125 230.585938 93.316406 C 231.75 93.285156 232.910156 93.332031 234.066406 93.460938 C 235.03125 93.707031 235.984375 94.015625 236.917969 94.382812 C 237.9375 94.964844 238.914062 95.613281 239.847656 96.324219 C 241 97.429688 242.042969 98.628906 243.007812 99.898438 C 244.171875 101.777344 245.164062 103.746094 245.988281 105.800781 C 245.992188 105.804688 245.996094 105.8125 245.992188 105.820312 C 247.003906 109.054688 247.625 112.394531 247.988281 115.773438 C 248.21875 119.574219 248.171875 123.378906 248.019531 127.1875 L 246.835938 125.316406 C 245.957031 123.929688 244.117188 123.515625 242.730469 124.390625 C 241.34375 125.269531 240.925781 127.109375 241.804688 128.496094 L 248.863281 139.65625 C 249.34375 140.683594 249.964844 141.636719 250.683594 142.441406 C 252.65625 144.652344 256.042969 146.417969 259.046875 146.421875 C 262.082031 146.421875 265.28125 145.582031 267.519531 143.414062 C 269.835938 141.160156 271.308594 138.328125 271.496094 135.050781 Z M 91.371094 162.433594 C 90.945312 164.367188 90.398438 166.300781 89.671875 168.152344 C 89.5 168.429688 89.324219 168.703125 89.136719 168.972656 C 89.011719 169.089844 88.886719 169.199219 88.761719 169.316406 C 88.53125 168.828125 88.320312 168.339844 88.117188 167.839844 C 87.464844 165.71875 87.015625 163.542969 86.746094 161.335938 C 86.566406 157.570312 86.835938 153.804688 87.417969 150.082031 C 87.929688 147.566406 88.5625 145.0625 89.296875 142.589844 C 89.488281 143.019531 89.667969 143.460938 89.839844 143.898438 C 89.851562 143.921875 89.859375 143.9375 89.859375 143.957031 C 90.785156 146.894531 91.429688 149.910156 91.792969 152.976562 C 91.796875 152.988281 91.796875 153 91.800781 153.015625 C 91.804688 153.023438 91.800781 153.027344 91.804688 153.039062 C 91.957031 156.175781 91.824219 159.320312 91.371094 162.433594 Z M 148.210938 155.207031 C 147.851562 156.851562 147.378906 158.460938 146.753906 160.023438 C 146.71875 160.085938 146.679688 160.148438 146.640625 160.210938 C 146.546875 160.09375 146.445312 159.980469 146.355469 159.855469 C 145.738281 158.804688 145.195312 157.71875 144.726562 156.59375 C 144.003906 154.1875 143.554688 151.695312 143.273438 149.203125 C 143.078125 145.59375 143.265625 141.976562 143.804688 138.398438 C 144.292969 136.171875 144.917969 133.972656 145.671875 131.824219 C 146 132.53125 146.304688 133.238281 146.582031 133.957031 C 147.617188 137.175781 148.320312 140.472656 148.726562 143.820312 L 148.722656 143.824219 C 148.941406 147.625 148.765625 151.433594 148.210938 155.207031 Z M 209.675781 136.21875 C 209.800781 138.878906 209.683594 141.535156 209.316406 144.175781 C 208.804688 146.441406 208.101562 148.648438 207.1875 150.789062 C 206.503906 152.082031 205.730469 153.34375 204.859375 154.527344 C 204.699219 154.355469 204.542969 154.179688 204.390625 153.996094 C 204.382812 154.007812 204.382812 154 204.382812 153.988281 C 204.195312 153.660156 204.019531 153.3125 203.863281 152.960938 C 203.597656 151.984375 203.398438 150.992188 203.253906 149.988281 C 203.125 146.242188 203.554688 142.503906 203.984375 138.789062 C 204.488281 134.464844 205.03125 130.148438 205.761719 125.855469 C 205.761719 125.832031 205.769531 125.808594 205.777344 125.785156 C 205.886719 125.214844 206.011719 124.640625 206.132812 124.074219 C 206.78125 125.324219 207.363281 126.609375 207.882812 127.925781 C 208.742188 130.628906 209.34375 133.40625 209.675781 136.21875 Z M 209.675781 136.21875 " fill-opacity="1" fill-rule="nonzero"/></g></g></g><g clip-path="url(#115a702b88)"><g clip-path="url(#517491bc20)"><g clip-path="url(#8ba31ed464)"><path fill="#ffcf7e" d="M 35.207031 146.507812 C 34.972656 143.582031 35.121094 140.652344 35.628906 137.757812 C 35.4375 138.808594 35.25 139.855469 35.050781 140.90625 C 35.660156 137.601562 36.714844 134.414062 38.15625 131.382812 C 37.695312 132.339844 37.234375 133.300781 36.773438 134.265625 C 38.40625 130.898438 40.480469 127.773438 42.925781 124.941406 C 42.253906 125.71875 41.578125 126.5 40.898438 127.277344 C 43.367188 124.445312 46.175781 121.933594 49.269531 119.796875 C 48.433594 120.367188 47.59375 120.941406 46.75 121.515625 C 49.6875 119.511719 52.847656 117.867188 56.195312 116.648438 C 55.238281 116.988281 54.28125 117.332031 53.324219 117.675781 C 56.320312 116.613281 59.417969 115.910156 62.585938 115.628906 C 61.5625 115.714844 60.53125 115.800781 59.503906 115.894531 C 62.445312 115.652344 65.398438 115.769531 68.304688 116.296875 C 67.253906 116.105469 66.207031 115.914062 65.15625 115.71875 C 67.578125 116.179688 69.914062 116.929688 72.140625 117.988281 C 71.179688 117.523438 70.222656 117.0625 69.253906 116.605469 C 71.660156 117.769531 73.878906 119.246094 75.902344 120.992188 C 75.121094 120.320312 74.339844 119.648438 73.5625 118.96875 C 75.800781 120.9375 77.753906 123.179688 79.429688 125.636719 C 78.855469 124.800781 78.28125 123.960938 77.710938 123.117188 C 79.746094 126.128906 81.351562 129.386719 82.578125 132.804688 C 82.238281 131.851562 81.898438 130.894531 81.550781 129.933594 C 82.914062 133.816406 83.773438 137.851562 84.140625 141.949219 C 84.054688 140.921875 83.96875 139.894531 83.875 138.867188 C 84.222656 143.078125 84.046875 147.3125 83.289062 151.472656 C 83.480469 150.425781 83.667969 149.378906 83.867188 148.328125 C 83.296875 151.351562 82.476562 154.402344 81.167969 157.199219 C 81.628906 156.242188 82.089844 155.28125 82.546875 154.316406 C 81.96875 155.5 81.246094 156.585938 80.394531 157.59375 C 81.066406 156.816406 81.738281 156.03125 82.417969 155.257812 C 81.539062 156.261719 80.558594 157.144531 79.457031 157.910156 C 80.292969 157.335938 81.132812 156.761719 81.976562 156.191406 C 81.023438 156.828125 80.015625 157.351562 78.9375 157.753906 C 79.894531 157.414062 80.851562 157.070312 81.808594 156.726562 C 80.898438 157.042969 79.96875 157.253906 79.015625 157.359375 C 80.039062 157.273438 81.070312 157.1875 82.097656 157.09375 C 81.117188 157.175781 80.160156 157.136719 79.191406 156.964844 C 80.242188 157.15625 81.289062 157.34375 82.339844 157.542969 C 81.417969 157.355469 80.539062 157.066406 79.683594 156.671875 C 80.640625 157.136719 81.601562 157.597656 82.566406 158.054688 C 81.53125 157.542969 80.589844 156.90625 79.710938 156.148438 C 80.488281 156.820312 81.269531 157.496094 82.046875 158.175781 C 81.527344 157.710938 81.023438 157.234375 80.585938 156.695312 C 81.15625 157.535156 81.730469 158.371094 82.304688 159.214844 C 81.230469 157.566406 80.4375 155.699219 79.761719 153.847656 C 80.101562 154.804688 80.441406 155.761719 80.789062 156.71875 C 79.699219 153.652344 79.054688 150.464844 78.769531 147.222656 C 78.855469 148.246094 78.941406 149.277344 79.03125 150.304688 C 78.644531 145.519531 79.023438 140.726562 79.863281 136.011719 C 79.675781 137.058594 79.484375 138.105469 79.289062 139.15625 C 80.714844 131.367188 83.277344 123.628906 86.699219 116.488281 C 86.238281 117.445312 85.777344 118.40625 85.320312 119.371094 C 86.984375 115.964844 89.074219 112.804688 91.539062 109.925781 C 90.867188 110.703125 90.191406 111.488281 89.515625 112.261719 C 92.066406 109.324219 94.964844 106.726562 98.175781 104.535156 C 97.339844 105.109375 96.5 105.683594 95.65625 106.257812 C 98.519531 104.328125 101.589844 102.75 104.839844 101.574219 C 103.882812 101.917969 102.929688 102.257812 101.96875 102.605469 C 104.933594 101.5625 107.988281 100.875 111.117188 100.59375 C 110.09375 100.679688 109.0625 100.765625 108.039062 100.859375 C 111.167969 100.601562 114.289062 100.765625 117.382812 101.3125 C 116.335938 101.125 115.289062 100.933594 114.238281 100.734375 C 117.699219 101.378906 121.046875 102.484375 124.226562 103.992188 C 123.269531 103.53125 122.308594 103.070312 121.34375 102.609375 C 124.730469 104.25 127.875 106.320312 130.734375 108.765625 C 129.957031 108.089844 129.175781 107.417969 128.398438 106.738281 C 131.160156 109.132812 133.605469 111.847656 135.695312 114.855469 C 135.121094 114.015625 134.546875 113.179688 133.972656 112.335938 C 136.203125 115.617188 137.988281 119.160156 139.332031 122.890625 C 138.988281 121.933594 138.648438 120.976562 138.300781 120.019531 C 139.769531 124.1875 140.683594 128.511719 141.070312 132.910156 C 140.984375 131.886719 140.898438 130.855469 140.804688 129.832031 C 141.199219 134.691406 140.964844 139.570312 140.105469 144.367188 C 140.296875 143.320312 140.488281 142.273438 140.683594 141.21875 C 140.183594 143.914062 139.441406 146.53125 138.261719 149.011719 C 138.722656 148.050781 139.183594 147.09375 139.640625 146.125 C 138.9375 147.566406 138.097656 148.914062 137.066406 150.132812 C 137.742188 149.355469 138.414062 148.574219 139.09375 147.796875 C 138.378906 148.605469 137.597656 149.328125 136.714844 149.949219 C 137.550781 149.378906 138.390625 148.804688 139.234375 148.230469 C 138.492188 148.722656 137.714844 149.125 136.871094 149.429688 C 137.828125 149.089844 138.785156 148.75 139.742188 148.402344 C 138.925781 148.675781 138.09375 148.84375 137.238281 148.917969 C 138.261719 148.832031 139.292969 148.746094 140.320312 148.652344 C 139.527344 148.695312 138.757812 148.660156 137.972656 148.53125 C 139.019531 148.71875 140.066406 148.910156 141.117188 149.105469 C 140.164062 148.921875 139.265625 148.613281 138.386719 148.195312 C 139.347656 148.65625 140.304688 149.117188 141.273438 149.578125 C 140.292969 149.078125 139.410156 148.464844 138.566406 147.757812 C 139.34375 148.429688 140.128906 149.105469 140.90625 149.78125 C 139.632812 148.667969 138.554688 147.390625 137.597656 145.996094 C 138.171875 146.832031 138.746094 147.671875 139.316406 148.515625 C 138.105469 146.691406 137.140625 144.742188 136.390625 142.691406 C 136.730469 143.644531 137.074219 144.601562 137.417969 145.5625 C 136.214844 142.15625 135.601562 138.523438 135.289062 134.929688 C 135.375 135.957031 135.460938 136.988281 135.554688 138.011719 C 135.1875 133.425781 135.4375 128.824219 136.25 124.296875 C 136.058594 125.34375 135.871094 126.390625 135.671875 127.441406 C 136.535156 122.816406 137.980469 118.335938 140 114.085938 C 139.535156 115.042969 139.074219 116.003906 138.617188 116.96875 C 140.558594 112.945312 142.992188 109.191406 145.914062 105.808594 C 145.238281 106.589844 144.566406 107.371094 143.886719 108.148438 C 146.386719 105.292969 149.214844 102.746094 152.335938 100.582031 C 151.496094 101.15625 150.660156 101.730469 149.816406 102.304688 C 152.9375 100.175781 156.304688 98.476562 159.847656 97.183594 C 158.894531 97.523438 157.9375 97.867188 156.976562 98.214844 C 160.910156 96.808594 164.996094 95.921875 169.160156 95.550781 C 168.132812 95.640625 167.105469 95.722656 166.078125 95.816406 C 170.332031 95.464844 174.601562 95.660156 178.804688 96.410156 C 177.757812 96.222656 176.710938 96.03125 175.660156 95.832031 C 179.542969 96.554688 183.308594 97.75 186.875 99.4375 C 185.917969 98.976562 184.957031 98.515625 183.992188 98.058594 C 187.191406 99.605469 190.183594 101.527344 192.882812 103.839844 C 192.105469 103.167969 191.324219 102.496094 190.546875 101.816406 C 193.113281 104.046875 195.367188 106.597656 197.296875 109.398438 C 196.722656 108.558594 196.148438 107.722656 195.578125 106.878906 C 197.65625 109.933594 199.320312 113.238281 200.578125 116.714844 C 200.234375 115.757812 199.894531 114.804688 199.546875 113.84375 C 200.851562 117.511719 201.679688 121.324219 202.019531 125.207031 C 201.929688 124.179688 201.847656 123.148438 201.753906 122.125 C 202.046875 125.789062 201.894531 129.46875 201.253906 133.089844 C 201.445312 132.042969 201.636719 130.996094 201.832031 129.945312 C 201.226562 133.261719 200.210938 136.484375 198.773438 139.539062 C 199.234375 138.582031 199.695312 137.621094 200.152344 136.65625 C 199 139.050781 197.625 141.359375 195.894531 143.386719 C 196.566406 142.609375 197.242188 141.824219 197.917969 141.050781 C 197.058594 142.023438 196.128906 142.898438 195.0625 143.648438 C 195.902344 143.074219 196.738281 142.5 197.582031 141.929688 C 196.78125 142.464844 195.9375 142.898438 195.035156 143.234375 C 195.992188 142.890625 196.949219 142.550781 197.90625 142.203125 C 197.164062 142.453125 196.414062 142.609375 195.628906 142.691406 C 196.65625 142.605469 197.683594 142.519531 198.710938 142.429688 C 197.863281 142.492188 197.03125 142.445312 196.191406 142.316406 C 197.238281 142.507812 198.285156 142.699219 199.335938 142.894531 C 198.304688 142.703125 197.324219 142.378906 196.367188 141.941406 C 197.328125 142.40625 198.285156 142.867188 199.253906 143.324219 C 198.105469 142.769531 197.054688 142.070312 196.074219 141.25 C 196.851562 141.925781 197.636719 142.597656 198.410156 143.277344 C 197.355469 142.359375 196.433594 141.324219 195.625 140.179688 C 196.199219 141.015625 196.773438 141.855469 197.34375 142.699219 C 196.605469 141.601562 196.019531 140.4375 195.550781 139.195312 C 195.890625 140.152344 196.230469 141.109375 196.578125 142.066406 C 195.882812 140.117188 195.480469 138.113281 195.285156 136.058594 C 195.371094 137.082031 195.457031 138.113281 195.550781 139.140625 C 195.183594 134.824219 195.679688 130.503906 196.175781 126.214844 C 196.742188 121.347656 197.363281 116.488281 198.234375 111.664062 C 198.042969 112.710938 197.855469 113.757812 197.65625 114.808594 C 198.914062 107.980469 200.71875 101.234375 203.71875 94.945312 C 203.257812 95.90625 202.796875 96.863281 202.335938 97.832031 C 204.03125 94.351562 206.046875 91.039062 208.566406 88.085938 C 207.894531 88.863281 207.21875 89.648438 206.542969 90.425781 C 208.753906 87.871094 211.273438 85.613281 214.046875 83.695312 C 213.207031 84.269531 212.371094 84.84375 211.527344 85.414062 C 214.125 83.652344 216.902344 82.195312 219.859375 81.140625 C 218.902344 81.480469 217.945312 81.820312 216.988281 82.167969 C 219.316406 81.359375 221.714844 80.808594 224.171875 80.566406 C 223.148438 80.652344 222.117188 80.738281 221.09375 80.832031 C 223.328125 80.644531 225.550781 80.71875 227.765625 81.101562 C 226.71875 80.910156 225.671875 80.722656 224.621094 80.523438 C 226.699219 80.910156 228.695312 81.558594 230.609375 82.460938 C 229.648438 82 228.6875 81.539062 227.722656 81.082031 C 229.726562 82.0625 231.566406 83.292969 233.261719 84.746094 C 232.484375 84.074219 231.699219 83.398438 230.925781 82.722656 C 232.933594 84.484375 234.671875 86.496094 236.179688 88.703125 C 235.609375 87.863281 235.035156 87.027344 234.460938 86.183594 C 236.214844 88.796875 237.605469 91.609375 238.683594 94.558594 C 238.34375 93.605469 238.003906 92.648438 237.65625 91.6875 C 239.125 95.8125 239.910156 100.128906 240.300781 104.476562 C 240.214844 103.453125 240.128906 102.421875 240.035156 101.398438 C 240.597656 108.058594 240.238281 114.742188 239.855469 121.398438 C 239.6875 124.367188 240.894531 127.648438 242.863281 129.863281 C 244.835938 132.074219 248.222656 133.839844 251.226562 133.84375 C 254.261719 133.84375 257.460938 133.003906 259.695312 130.835938 C 262.007812 128.585938 263.488281 125.75 263.675781 122.472656 C 264.171875 113.765625 264.425781 105.132812 263.269531 96.460938 C 262.664062 91.933594 261.402344 87.703125 259.808594 83.429688 C 258.28125 79.332031 256.050781 75.738281 253.515625 72.183594 C 251.054688 68.726562 247.839844 65.71875 244.390625 63.273438 C 242.226562 61.734375 239.792969 60.601562 237.382812 59.515625 C 235.972656 58.882812 234.496094 58.390625 232.984375 58.050781 C 230.589844 57.511719 228.117188 57.027344 225.65625 56.921875 C 223.183594 56.816406 220.660156 57.0625 218.210938 57.363281 C 214.277344 57.847656 210.410156 59.199219 206.796875 60.773438 C 203.042969 62.414062 199.550781 64.742188 196.324219 67.242188 C 193.054688 69.789062 190.25 72.886719 187.679688 76.128906 C 184.753906 79.8125 182.675781 84.03125 180.707031 88.28125 C 178.976562 92.011719 177.660156 95.921875 176.625 99.902344 C 174.3125 108.800781 173.132812 118 172.121094 127.125 C 171.714844 130.757812 171.421875 134.40625 171.71875 138.058594 C 172.140625 143.222656 172.933594 148.542969 175.769531 153.023438 C 177.113281 155.140625 178.507812 157.253906 180.375 158.945312 C 181.597656 160.042969 182.855469 161.207031 184.230469 162.148438 C 185.28125 162.867188 186.417969 163.378906 187.5625 163.929688 C 190.296875 165.242188 192.859375 165.980469 195.953125 166.253906 C 199.457031 166.5625 202.648438 165.707031 205.863281 164.476562 C 206.613281 164.1875 207.328125 163.863281 208.011719 163.433594 C 209.484375 162.507812 211.003906 161.527344 212.3125 160.363281 C 214.230469 158.636719 215.941406 156.570312 217.402344 154.445312 C 219.683594 151.125 221.480469 147.355469 222.839844 143.574219 C 224.1875 139.824219 224.953125 135.816406 225.429688 131.882812 C 225.914062 127.882812 225.667969 123.96875 225.304688 119.972656 C 225.027344 116.925781 224.460938 113.910156 223.578125 110.972656 C 222.453125 107.226562 221.074219 103.484375 219.230469 100.027344 C 215.433594 92.925781 210.183594 86.863281 203.707031 82.089844 C 200.464844 79.695312 196.847656 77.902344 193.167969 76.269531 C 190.332031 75.007812 187.363281 74.054688 184.324219 73.414062 C 180.328125 72.566406 176.289062 71.894531 172.199219 71.820312 C 168.164062 71.742188 164.0625 72.082031 160.074219 72.757812 C 156.066406 73.433594 152.261719 74.710938 148.457031 76.140625 C 145.582031 77.214844 142.8125 78.585938 140.222656 80.230469 C 136.683594 82.484375 133.273438 84.929688 130.292969 87.898438 C 127.285156 90.886719 124.488281 94.195312 122.144531 97.734375 C 119.796875 101.269531 117.902344 105.140625 116.257812 109.042969 C 114.957031 112.140625 113.953125 115.363281 113.257812 118.652344 C 112.363281 122.878906 111.652344 127.160156 111.550781 131.488281 C 111.449219 135.753906 111.792969 140.089844 112.511719 144.289062 C 114.105469 153.621094 118.472656 162.4375 126.121094 168.230469 C 126.75 168.703125 127.417969 169.113281 128.121094 169.480469 C 129.628906 170.257812 131.226562 171.128906 132.890625 171.585938 C 136.386719 172.546875 139.492188 172.667969 143.066406 172.121094 C 144.660156 171.882812 146.183594 171.222656 147.675781 170.660156 C 148.34375 170.40625 148.988281 170.121094 149.597656 169.75 C 150.980469 168.902344 152.378906 167.996094 153.609375 166.929688 C 154.855469 165.84375 155.90625 164.503906 156.957031 163.25 C 157.890625 162.128906 158.6875 160.921875 159.34375 159.625 C 160.480469 157.386719 161.597656 155.121094 162.347656 152.71875 C 163.089844 150.339844 163.484375 147.867188 163.914062 145.417969 C 164.222656 143.679688 164.464844 141.925781 164.613281 140.164062 C 164.984375 135.804688 164.714844 131.492188 164.292969 127.144531 C 163.953125 123.6875 163.28125 120.261719 162.257812 116.949219 C 159.691406 108.605469 155.71875 100.773438 149.765625 94.3125 C 137.839844 81.355469 119.898438 74.453125 102.414062 77.777344 C 94.324219 79.316406 86.945312 83.113281 80.4375 88.046875 C 77.09375 90.578125 74.324219 93.59375 71.609375 96.773438 C 69.554688 99.1875 67.730469 101.792969 66.222656 104.585938 C 62.707031 111.105469 59.972656 118.207031 58.046875 125.359375 C 56.125 132.472656 54.746094 140.015625 55.074219 147.414062 C 55.246094 151.382812 55.613281 155.421875 56.671875 159.261719 C 57.914062 163.769531 59.730469 169.046875 62.863281 172.667969 C 64.539062 174.59375 66.625 176.445312 68.890625 177.675781 C 72.214844 179.476562 74.882812 180.363281 78.632812 180.859375 C 82.988281 181.433594 88.121094 180.160156 91.894531 177.976562 C 95.882812 175.675781 99.554688 172.472656 101.890625 168.457031 C 103.84375 165.109375 105.234375 161.386719 106.113281 157.621094 C 107.015625 153.765625 107.6875 149.785156 107.828125 145.820312 C 107.96875 141.875 107.652344 137.875 107.082031 133.972656 C 106.65625 131.046875 105.96875 128.160156 105.011719 125.355469 C 103.757812 121.683594 102.417969 118.070312 100.46875 114.707031 C 96.726562 108.230469 91.742188 102.390625 85.390625 98.339844 C 78.972656 94.25 71.335938 91.964844 63.722656 91.90625 C 56.21875 91.847656 48.953125 93.542969 42.140625 96.675781 C 38.78125 98.222656 35.71875 100.265625 32.714844 102.410156 C 30.421875 104.046875 28.289062 105.90625 26.355469 107.945312 C 21.105469 113.480469 17.074219 119.527344 14.289062 126.648438 C 12.949219 130.085938 12.246094 133.660156 11.660156 137.300781 C 11.226562 139.980469 11.128906 142.691406 11.347656 145.394531 C 11.222656 146.984375 11.476562 148.488281 12.125 149.90625 C 12.523438 151.402344 13.269531 152.71875 14.355469 153.859375 C 16.328125 156.074219 19.707031 157.835938 22.71875 157.84375 C 25.753906 157.84375 28.953125 157.003906 31.183594 154.832031 C 31.859375 154.054688 32.53125 153.269531 33.210938 152.496094 C 34.4375 150.699219 35.089844 148.695312 35.207031 146.507812 Z M 35.207031 146.507812 " fill-opacity="1" fill-rule="nonzero"/></g></g></g></svg>