<svg xmlns="http://www.w3.org/2000/svg" xmlns:xlink="http://www.w3.org/1999/xlink" width="230" zoomAndPan="magnify" viewBox="0 0 172.5 131.999998" height="176" preserveAspectRatio="xMidYMid meet" version="1.0"><defs><g/><clipPath id="ac58a47642"><path d="M 0 5.0625 L 171.546875 5.0625 L 171.546875 126 L 0 126 Z M 0 5.0625 " clip-rule="nonzero"/></clipPath><clipPath id="e13d132478"><path d="M 158.027344 5.0625 L 13.460938 5.0625 C 6.027344 5.0625 0 11.089844 0 18.523438 L 0 62.128906 C 0 69.5625 6.027344 75.589844 13.460938 75.589844 L 33.484375 75.589844 C 40.917969 75.589844 46.945312 81.617188 46.945312 89.050781 L 46.945312 118.160156 C 46.945312 120.886719 48.417969 123.402344 50.800781 124.734375 C 53.179688 126.0625 56.09375 126.003906 58.414062 124.578125 L 126.714844 82.636719 C 134.214844 78.03125 142.84375 75.589844 151.644531 75.589844 L 158.027344 75.589844 C 165.460938 75.589844 171.488281 69.5625 171.488281 62.128906 L 171.488281 18.523438 C 171.488281 11.089844 165.460938 5.0625 158.027344 5.0625 Z M 158.027344 5.0625 " clip-rule="nonzero"/></clipPath></defs><g clip-path="url(#ac58a47642)"><g clip-path="url(#e13d132478)"><path fill="#ffcf7e" d="M 0 5.0625 L 171.546875 5.0625 L 171.546875 131.621094 L 0 131.621094 Z M 0 5.0625 " fill-opacity="1" fill-rule="nonzero"/></g></g><g fill="#303144" fill-opacity="1"><g transform="translate(44.138113, 60.366331)"><g><path d="M 19.875 -1.0625 C 19.875 -0.351562 19.554688 0 18.921875 0 L 2.015625 0 C 1.378906 0 1.0625 -0.351562 1.0625 -1.0625 L 1.0625 -1.171875 L 1.4375 -9.546875 C 1.5 -10.722656 1.890625 -11.640625 2.609375 -12.296875 L 10.171875 -19.140625 C 10.460938 -19.367188 10.609375 -19.910156 10.609375 -20.765625 C 10.617188 -20.929688 10.570312 -21.195312 10.46875 -21.5625 C 10.320312 -21.78125 10.066406 -21.890625 9.703125 -21.890625 L 3.515625 -21.890625 C 2.703125 -21.890625 2.296875 -22.367188 2.296875 -23.328125 L 2.296875 -23.390625 L 2.671875 -31.859375 C 2.691406 -32.679688 3.046875 -33.09375 3.734375 -33.09375 L 17.140625 -33.09375 C 17.816406 -33.09375 18.171875 -32.679688 18.203125 -31.859375 L 18.75 -19.59375 L 18.75 -19.4375 C 18.75 -18.414062 18.429688 -17.613281 17.796875 -17.03125 L 11.171875 -11.125 L 18.375 -11.125 C 19.0625 -11.125 19.429688 -10.488281 19.484375 -9.21875 L 19.875 -1.171875 Z M 19.875 -1.0625 "/></g></g></g><g fill="#303144" fill-opacity="1"><g transform="translate(64.938193, 60.366331)"><g><path d="M 19.8125 -1.0625 C 19.8125 -0.351562 19.492188 0 18.859375 0 L 1.96875 0 C 1.332031 0 1.015625 -0.34375 1.015625 -1.03125 L 1.015625 -1.171875 L 2.671875 -31.859375 C 2.691406 -32.679688 3.046875 -33.09375 3.734375 -33.09375 L 17.140625 -33.09375 C 17.816406 -33.09375 18.171875 -32.679688 18.203125 -31.859375 L 19.8125 -1.171875 Z M 12.734375 -11.171875 L 12 -21.890625 L 8.703125 -21.890625 L 8.09375 -11.171875 Z M 12.734375 -11.171875 "/></g></g></g><g fill="#303144" fill-opacity="1"><g transform="translate(85.738273, 60.366331)"><g><path d="M 19.984375 -1.03125 C 19.984375 -0.34375 19.664062 0 19.03125 0 L 1.796875 0 C 1.160156 0 0.84375 -0.375 0.84375 -1.125 L 0.84375 -1.171875 L 1.234375 -9.703125 C 1.242188 -10.648438 1.597656 -11.125 2.296875 -11.125 L 7.53125 -11.125 L 7.53125 -20.9375 L 3.6875 -17.6875 C 3.320312 -17.382812 2.984375 -17.234375 2.671875 -17.234375 C 2.210938 -17.234375 1.984375 -17.539062 1.984375 -18.15625 C 1.984375 -18.257812 1.992188 -18.332031 2.015625 -18.375 L 2.71875 -27.640625 C 2.738281 -28.109375 2.785156 -28.445312 2.859375 -28.65625 C 2.972656 -28.976562 3.175781 -29.25 3.46875 -29.46875 L 6.875 -31.921875 L 7.609375 -32.6875 C 7.878906 -32.957031 8.171875 -33.09375 8.484375 -33.09375 L 13.6875 -33.09375 C 14.351562 -33.09375 14.6875 -32.726562 14.6875 -32 L 14.6875 -11.125 L 18.484375 -11.125 C 19.171875 -11.125 19.539062 -10.597656 19.59375 -9.546875 L 19.984375 -1.171875 Z M 19.984375 -1.03125 "/></g></g></g><g fill="#303144" fill-opacity="1"><g transform="translate(106.538353, 60.366331)"><g><path d="M 19.984375 -1.03125 C 19.984375 -0.34375 19.664062 0 19.03125 0 L 1.796875 0 C 1.160156 0 0.84375 -0.375 0.84375 -1.125 L 0.84375 -1.171875 L 1.234375 -9.703125 C 1.242188 -10.648438 1.597656 -11.125 2.296875 -11.125 L 7.53125 -11.125 L 7.53125 -20.9375 L 3.6875 -17.6875 C 3.320312 -17.382812 2.984375 -17.234375 2.671875 -17.234375 C 2.210938 -17.234375 1.984375 -17.539062 1.984375 -18.15625 C 1.984375 -18.257812 1.992188 -18.332031 2.015625 -18.375 L 2.71875 -27.640625 C 2.738281 -28.109375 2.785156 -28.445312 2.859375 -28.65625 C 2.972656 -28.976562 3.175781 -29.25 3.46875 -29.46875 L 6.875 -31.921875 L 7.609375 -32.6875 C 7.878906 -32.957031 8.171875 -33.09375 8.484375 -33.09375 L 13.6875 -33.09375 C 14.351562 -33.09375 14.6875 -32.726562 14.6875 -32 L 14.6875 -11.125 L 18.484375 -11.125 C 19.171875 -11.125 19.539062 -10.597656 19.59375 -9.546875 L 19.984375 -1.171875 Z M 19.984375 -1.03125 "/></g></g></g></svg>