<svg xmlns="http://www.w3.org/2000/svg" xmlns:xlink="http://www.w3.org/1999/xlink" width="230" zoomAndPan="magnify" viewBox="0 0 172.5 131.249995" height="175" preserveAspectRatio="xMidYMid meet" version="1.0"><defs><g/><clipPath id="a4858e63b0"><path d="M 0.242188 5.410156 L 171.25 5.410156 L 171.25 126.191406 L 0.242188 126.191406 Z M 0.242188 5.410156 " clip-rule="nonzero"/></clipPath><clipPath id="4133108223"><path d="M 13.664062 126.191406 L 157.824219 126.191406 C 165.238281 126.191406 171.25 120.183594 171.25 112.769531 L 171.25 69.285156 C 171.25 61.875 165.238281 55.863281 157.824219 55.863281 L 137.859375 55.863281 C 130.445312 55.863281 124.433594 49.855469 124.433594 42.441406 L 124.433594 13.414062 C 124.433594 10.691406 122.964844 8.1875 120.59375 6.859375 C 118.21875 5.53125 115.3125 5.589844 112.996094 7.011719 L 44.890625 48.839844 C 37.410156 53.433594 28.804688 55.863281 20.027344 55.863281 L 13.664062 55.863281 C 6.25 55.863281 0.242188 61.875 0.242188 69.285156 L 0.242188 112.769531 C 0.242188 120.183594 6.25 126.191406 13.664062 126.191406 Z M 13.664062 126.191406 " clip-rule="nonzero"/></clipPath></defs><g clip-path="url(#a4858e63b0)"><g clip-path="url(#4133108223)"><path fill="#ffcf7e" d="M 171.25 126.191406 L 0.183594 126.191406 L 0.183594 -0.0117188 L 171.25 -0.0117188 Z M 171.25 126.191406 " fill-opacity="1" fill-rule="nonzero"/></g></g><g fill="#303144" fill-opacity="1"><g transform="translate(42.283036, 101.818171)"><g><path d="M 19.8125 -1.0625 C 19.8125 -0.351562 19.492188 0 18.859375 0 L 2.015625 0 C 1.378906 0 1.0625 -0.351562 1.0625 -1.0625 L 1.0625 -1.171875 L 1.4375 -9.515625 C 1.488281 -10.691406 1.878906 -11.609375 2.609375 -12.265625 L 10.140625 -19.078125 C 10.429688 -19.316406 10.578125 -19.863281 10.578125 -20.71875 C 10.597656 -20.875 10.550781 -21.132812 10.4375 -21.5 C 10.289062 -21.71875 10.035156 -21.828125 9.671875 -21.828125 L 3.5 -21.828125 C 2.6875 -21.828125 2.28125 -22.304688 2.28125 -23.265625 L 2.28125 -23.328125 L 2.65625 -31.78125 C 2.675781 -32.59375 3.03125 -33 3.71875 -33 L 17.09375 -33 C 17.769531 -33 18.125 -32.59375 18.15625 -31.78125 L 18.703125 -19.546875 L 18.703125 -19.375 C 18.703125 -18.363281 18.382812 -17.566406 17.75 -16.984375 L 11.140625 -11.09375 L 18.328125 -11.09375 C 19.015625 -11.09375 19.382812 -10.457031 19.4375 -9.1875 L 19.8125 -1.171875 Z M 19.8125 -1.0625 "/></g></g></g><g fill="#303144" fill-opacity="1"><g transform="translate(63.02488, 101.818171)"><g><path d="M 19.765625 -1.0625 C 19.765625 -0.351562 19.445312 0 18.8125 0 L 1.953125 0 C 1.316406 0 1 -0.34375 1 -1.03125 L 1 -1.171875 L 2.65625 -31.78125 C 2.675781 -32.59375 3.03125 -33 3.71875 -33 L 17.09375 -33 C 17.769531 -33 18.125 -32.59375 18.15625 -31.78125 L 19.765625 -1.171875 Z M 12.6875 -11.140625 L 11.953125 -21.828125 L 8.671875 -21.828125 L 8.078125 -11.140625 Z M 12.6875 -11.140625 "/></g></g></g><g fill="#303144" fill-opacity="1"><g transform="translate(83.766725, 101.818171)"><g><path d="M 19.921875 -1.03125 C 19.921875 -0.34375 19.601562 0 18.96875 0 L 1.796875 0 C 1.160156 0 0.84375 -0.367188 0.84375 -1.109375 L 0.84375 -1.171875 L 1.21875 -9.671875 C 1.238281 -10.617188 1.59375 -11.09375 2.28125 -11.09375 L 7.5 -11.09375 L 7.5 -20.875 L 3.671875 -17.640625 C 3.304688 -17.335938 2.96875 -17.1875 2.65625 -17.1875 C 2.207031 -17.1875 1.984375 -17.492188 1.984375 -18.109375 C 1.984375 -18.210938 1.992188 -18.285156 2.015625 -18.328125 L 2.71875 -27.5625 C 2.738281 -28.03125 2.785156 -28.363281 2.859375 -28.5625 C 2.960938 -28.894531 3.160156 -29.171875 3.453125 -29.390625 L 6.84375 -31.828125 L 7.578125 -32.59375 C 7.847656 -32.863281 8.140625 -33 8.453125 -33 L 13.640625 -33 C 14.316406 -33 14.65625 -32.632812 14.65625 -31.90625 L 14.65625 -11.09375 L 18.4375 -11.09375 C 19.125 -11.09375 19.492188 -10.566406 19.546875 -9.515625 L 19.921875 -1.171875 Z M 19.921875 -1.03125 "/></g></g></g><g fill="#303144" fill-opacity="1"><g transform="translate(104.508569, 101.818171)"><g><path d="M 19.921875 -1.03125 C 19.921875 -0.34375 19.601562 0 18.96875 0 L 1.796875 0 C 1.160156 0 0.84375 -0.367188 0.84375 -1.109375 L 0.84375 -1.171875 L 1.21875 -9.671875 C 1.238281 -10.617188 1.59375 -11.09375 2.28125 -11.09375 L 7.5 -11.09375 L 7.5 -20.875 L 3.671875 -17.640625 C 3.304688 -17.335938 2.96875 -17.1875 2.65625 -17.1875 C 2.207031 -17.1875 1.984375 -17.492188 1.984375 -18.109375 C 1.984375 -18.210938 1.992188 -18.285156 2.015625 -18.328125 L 2.71875 -27.5625 C 2.738281 -28.03125 2.785156 -28.363281 2.859375 -28.5625 C 2.960938 -28.894531 3.160156 -29.171875 3.453125 -29.390625 L 6.84375 -31.828125 L 7.578125 -32.59375 C 7.847656 -32.863281 8.140625 -33 8.453125 -33 L 13.640625 -33 C 14.316406 -33 14.65625 -32.632812 14.65625 -31.90625 L 14.65625 -11.09375 L 18.4375 -11.09375 C 19.125 -11.09375 19.492188 -10.566406 19.546875 -9.515625 L 19.921875 -1.171875 Z M 19.921875 -1.03125 "/></g></g></g></svg>