<svg xmlns="http://www.w3.org/2000/svg" xmlns:xlink="http://www.w3.org/1999/xlink" width="230" zoomAndPan="magnify" viewBox="0 0 172.5 131.249995" height="175" preserveAspectRatio="xMidYMid meet" version="1.0"><defs><g/><clipPath id="eadcf8ca7d"><path d="M 0.242188 5.410156 L 171.25 5.410156 L 171.25 126.191406 L 0.242188 126.191406 Z M 0.242188 5.410156 " clip-rule="nonzero"/></clipPath><clipPath id="d72e8166ba"><path d="M 13.664062 126.191406 L 157.824219 126.191406 C 165.238281 126.191406 171.25 120.183594 171.25 112.769531 L 171.25 69.285156 C 171.25 61.875 165.238281 55.863281 157.824219 55.863281 L 137.859375 55.863281 C 130.445312 55.863281 124.433594 49.855469 124.433594 42.441406 L 124.433594 13.414062 C 124.433594 10.691406 122.964844 8.1875 120.59375 6.859375 C 118.21875 5.53125 115.3125 5.589844 112.996094 7.011719 L 44.890625 48.839844 C 37.410156 53.433594 28.804688 55.863281 20.027344 55.863281 L 13.664062 55.863281 C 6.25 55.863281 0.242188 61.875 0.242188 69.285156 L 0.242188 112.769531 C 0.242188 120.183594 6.25 126.191406 13.664062 126.191406 Z M 13.664062 126.191406 " clip-rule="nonzero"/></clipPath></defs><g clip-path="url(#eadcf8ca7d)"><g clip-path="url(#d72e8166ba)"><path fill="#ffcf7e" d="M 171.25 126.191406 L 0.183594 126.191406 L 0.183594 -0.0117188 L 171.25 -0.0117188 Z M 171.25 126.191406 " fill-opacity="1" fill-rule="nonzero"/></g></g><g fill="#303144" fill-opacity="1"><g transform="translate(44.271977, 101.818171)"><g><path d="M 19.921875 -1.03125 C 19.921875 -0.34375 19.601562 0 18.96875 0 L 1.796875 0 C 1.160156 0 0.84375 -0.367188 0.84375 -1.109375 L 0.84375 -1.171875 L 1.21875 -9.671875 C 1.238281 -10.617188 1.59375 -11.09375 2.28125 -11.09375 L 7.5 -11.09375 L 7.5 -20.875 L 3.671875 -17.640625 C 3.304688 -17.335938 2.96875 -17.1875 2.65625 -17.1875 C 2.207031 -17.1875 1.984375 -17.492188 1.984375 -18.109375 C 1.984375 -18.210938 1.992188 -18.285156 2.015625 -18.328125 L 2.71875 -27.5625 C 2.738281 -28.03125 2.785156 -28.363281 2.859375 -28.5625 C 2.960938 -28.894531 3.160156 -29.171875 3.453125 -29.390625 L 6.84375 -31.828125 L 7.578125 -32.59375 C 7.847656 -32.863281 8.140625 -33 8.453125 -33 L 13.640625 -33 C 14.316406 -33 14.65625 -32.632812 14.65625 -31.90625 L 14.65625 -11.09375 L 18.4375 -11.09375 C 19.125 -11.09375 19.492188 -10.566406 19.546875 -9.515625 L 19.921875 -1.171875 Z M 19.921875 -1.03125 "/></g></g></g><g fill="#303144" fill-opacity="1"><g transform="translate(65.013821, 101.818171)"><g><path d="M 19.8125 -1.03125 C 19.8125 -0.34375 19.515625 0 18.921875 0 L 2.015625 0 C 1.304688 0 0.953125 -0.351562 0.953125 -1.0625 L 0.953125 -1.171875 L 1.390625 -9.625 C 1.390625 -9.789062 1.429688 -9.960938 1.515625 -10.140625 C 1.609375 -10.316406 1.722656 -10.484375 1.859375 -10.640625 C 1.992188 -10.796875 2.144531 -10.914062 2.3125 -11 C 2.488281 -11.09375 2.660156 -11.140625 2.828125 -11.140625 L 12.203125 -11.140625 C 12.640625 -11.140625 12.859375 -11.410156 12.859375 -11.953125 C 12.859375 -12.046875 12.851562 -12.140625 12.84375 -12.234375 C 12.832031 -12.335938 12.816406 -12.457031 12.796875 -12.59375 C 12.671875 -13.476562 12.410156 -13.921875 12.015625 -13.921875 L 3.234375 -13.921875 C 2.222656 -13.921875 1.71875 -14.347656 1.71875 -15.203125 L 1.71875 -15.296875 L 2.71875 -31.78125 C 2.769531 -32.59375 3.140625 -33 3.828125 -33 L 17.15625 -33 C 17.726562 -33 18.046875 -32.59375 18.109375 -31.78125 L 19.8125 -1.171875 Z M 12.015625 -18.96875 L 11.859375 -21.828125 L 8.671875 -21.828125 L 8.515625 -18.96875 Z M 12.015625 -18.96875 "/></g></g></g><g fill="#303144" fill-opacity="1"><g transform="translate(85.755666, 101.818171)"><g><path d="M 19.8125 -1.03125 C 19.8125 -0.34375 19.515625 0 18.921875 0 L 2.015625 0 C 1.304688 0 0.953125 -0.351562 0.953125 -1.0625 L 0.953125 -1.171875 L 2.71875 -31.78125 C 2.769531 -32.59375 3.140625 -33 3.828125 -33 L 17.15625 -33 C 17.726562 -33 18.046875 -32.59375 18.109375 -31.78125 L 19.8125 -1.171875 Z M 12.203125 -18.96875 L 11.953125 -21.828125 L 8.671875 -21.828125 L 8.515625 -18.96875 Z M 12.6875 -11.140625 L 12.53125 -13.921875 L 8.1875 -13.921875 L 8.078125 -11.140625 Z M 12.6875 -11.140625 "/></g></g></g><g fill="#303144" fill-opacity="1"><g transform="translate(106.49751, 101.818171)"><g><path d="M 19.8125 -1.03125 C 19.8125 -0.34375 19.492188 0 18.859375 0 L 1.953125 0 C 1.316406 0 1 -0.34375 1 -1.03125 L 1 -1.171875 L 2.65625 -31.78125 C 2.675781 -32.59375 3.050781 -33 3.78125 -33 L 17.09375 -33 C 17.769531 -33 18.125 -32.59375 18.15625 -31.78125 L 18.546875 -23.328125 L 18.546875 -23.03125 C 18.546875 -22.226562 18.226562 -21.828125 17.59375 -21.828125 L 9.1875 -21.828125 C 8.820312 -21.828125 8.597656 -21.347656 8.515625 -20.390625 C 8.492188 -20.222656 8.476562 -20.070312 8.46875 -19.9375 C 8.457031 -19.800781 8.453125 -19.6875 8.453125 -19.59375 C 8.453125 -19.175781 8.644531 -18.96875 9.03125 -18.96875 L 17.8125 -18.96875 C 18.457031 -18.96875 18.804688 -18.4375 18.859375 -17.375 L 19.8125 -1.171875 Z M 12.6875 -11.140625 L 12.53125 -13.921875 L 8.40625 -13.921875 L 8.296875 -11.140625 Z M 12.6875 -11.140625 "/></g></g></g></svg>