<svg xmlns="http://www.w3.org/2000/svg" xmlns:xlink="http://www.w3.org/1999/xlink" width="230" zoomAndPan="magnify" viewBox="0 0 172.5 131.249995" height="175" preserveAspectRatio="xMidYMid meet" version="1.0"><defs><g/><clipPath id="f14441abdd"><path d="M 0.242188 5.410156 L 171.25 5.410156 L 171.25 126.191406 L 0.242188 126.191406 Z M 0.242188 5.410156 " clip-rule="nonzero"/></clipPath><clipPath id="869f64351c"><path d="M 13.664062 126.191406 L 157.824219 126.191406 C 165.238281 126.191406 171.25 120.183594 171.25 112.769531 L 171.25 69.285156 C 171.25 61.875 165.238281 55.863281 157.824219 55.863281 L 137.859375 55.863281 C 130.445312 55.863281 124.433594 49.855469 124.433594 42.441406 L 124.433594 13.414062 C 124.433594 10.691406 122.964844 8.1875 120.59375 6.859375 C 118.21875 5.53125 115.3125 5.589844 112.996094 7.011719 L 44.890625 48.839844 C 37.410156 53.433594 28.804688 55.863281 20.027344 55.863281 L 13.664062 55.863281 C 6.25 55.863281 0.242188 61.875 0.242188 69.285156 L 0.242188 112.769531 C 0.242188 120.183594 6.25 126.191406 13.664062 126.191406 Z M 13.664062 126.191406 " clip-rule="nonzero"/></clipPath></defs><g clip-path="url(#f14441abdd)"><g clip-path="url(#869f64351c)"><path fill="#ffcf7e" d="M 171.25 126.191406 L 0.183594 126.191406 L 0.183594 -0.0117188 L 171.25 -0.0117188 Z M 171.25 126.191406 " fill-opacity="1" fill-rule="nonzero"/></g></g><g fill="#303144" fill-opacity="1"><g transform="translate(48.069454, 101.818171)"><g><path d="M 19.8125 -1.0625 C 19.8125 -0.351562 19.492188 0 18.859375 0 L 2.015625 0 C 1.378906 0 1.0625 -0.351562 1.0625 -1.0625 L 1.0625 -1.171875 L 1.4375 -9.515625 C 1.488281 -10.691406 1.878906 -11.609375 2.609375 -12.265625 L 10.140625 -19.078125 C 10.429688 -19.316406 10.578125 -19.863281 10.578125 -20.71875 C 10.597656 -20.875 10.550781 -21.132812 10.4375 -21.5 C 10.289062 -21.71875 10.035156 -21.828125 9.671875 -21.828125 L 3.5 -21.828125 C 2.6875 -21.828125 2.28125 -22.304688 2.28125 -23.265625 L 2.28125 -23.328125 L 2.65625 -31.78125 C 2.675781 -32.59375 3.03125 -33 3.71875 -33 L 17.09375 -33 C 17.769531 -33 18.125 -32.59375 18.15625 -31.78125 L 18.703125 -19.546875 L 18.703125 -19.375 C 18.703125 -18.363281 18.382812 -17.566406 17.75 -16.984375 L 11.140625 -11.09375 L 18.328125 -11.09375 C 19.015625 -11.09375 19.382812 -10.457031 19.4375 -9.1875 L 19.8125 -1.171875 Z M 19.8125 -1.0625 "/></g></g></g><g fill="#303144" fill-opacity="1"><g transform="translate(68.811299, 101.818171)"><g><path d="M 19.765625 -1.0625 C 19.765625 -0.351562 19.445312 0 18.8125 0 L 1.953125 0 C 1.316406 0 1 -0.34375 1 -1.03125 L 1 -1.171875 L 2.65625 -31.78125 C 2.675781 -32.59375 3.03125 -33 3.71875 -33 L 17.09375 -33 C 17.769531 -33 18.125 -32.59375 18.15625 -31.78125 L 19.765625 -1.171875 Z M 12.6875 -11.140625 L 11.953125 -21.828125 L 8.671875 -21.828125 L 8.078125 -11.140625 Z M 12.6875 -11.140625 "/></g></g></g><g fill="#303144" fill-opacity="1"><g transform="translate(89.553143, 101.818171)"><g><path d="M 19.765625 -1.0625 C 19.765625 -0.351562 19.445312 0 18.8125 0 L 1.953125 0 C 1.316406 0 1 -0.34375 1 -1.03125 L 1 -1.171875 L 2.65625 -31.78125 C 2.675781 -32.59375 3.03125 -33 3.71875 -33 L 17.09375 -33 C 17.769531 -33 18.125 -32.59375 18.15625 -31.78125 L 19.765625 -1.171875 Z M 12.6875 -11.140625 L 11.953125 -21.828125 L 8.671875 -21.828125 L 8.078125 -11.140625 Z M 12.6875 -11.140625 "/></g></g></g><g fill="#303144" fill-opacity="1"><g transform="translate(110.294987, 101.818171)"><g><path d="M 20.03125 -31.78125 L 19.546875 -23.375 C 19.492188 -22.519531 19.382812 -21.578125 19.21875 -20.546875 L 12.484375 -1.171875 C 12.203125 -0.390625 11.738281 0 11.09375 0 L 4.84375 0 C 4.1875 0 3.859375 -0.316406 3.859375 -0.953125 C 3.859375 -1.054688 3.867188 -1.128906 3.890625 -1.171875 L 10.734375 -20.546875 C 10.785156 -20.671875 10.8125 -20.804688 10.8125 -20.953125 C 10.8125 -21.460938 10.601562 -21.71875 10.1875 -21.71875 L 2.5 -21.71875 C 1.84375 -21.71875 1.488281 -22.085938 1.4375 -22.828125 L 0.78125 -31.78125 C 0.769531 -31.90625 0.765625 -31.992188 0.765625 -32.046875 C 0.765625 -32.097656 0.765625 -32.117188 0.765625 -32.109375 C 0.765625 -32.703125 1.0625 -33 1.65625 -33 L 18.96875 -33 C 19.675781 -33 20.03125 -32.628906 20.03125 -31.890625 Z M 20.03125 -31.78125 "/></g></g></g></svg>