<svg xmlns="http://www.w3.org/2000/svg" xmlns:xlink="http://www.w3.org/1999/xlink" width="230" zoomAndPan="magnify" viewBox="0 0 172.5 131.999998" height="176" preserveAspectRatio="xMidYMid meet" version="1.0"><defs><g/><clipPath id="98908d4231"><path d="M 0 5.0625 L 171.546875 5.0625 L 171.546875 126 L 0 126 Z M 0 5.0625 " clip-rule="nonzero"/></clipPath><clipPath id="d40e2375e1"><path d="M 158.027344 5.0625 L 13.460938 5.0625 C 6.027344 5.0625 0 11.089844 0 18.523438 L 0 62.128906 C 0 69.5625 6.027344 75.589844 13.460938 75.589844 L 33.484375 75.589844 C 40.917969 75.589844 46.945312 81.617188 46.945312 89.050781 L 46.945312 118.160156 C 46.945312 120.886719 48.417969 123.402344 50.800781 124.734375 C 53.179688 126.0625 56.09375 126.003906 58.414062 124.578125 L 126.714844 82.636719 C 134.214844 78.03125 142.84375 75.589844 151.644531 75.589844 L 158.027344 75.589844 C 165.460938 75.589844 171.488281 69.5625 171.488281 62.128906 L 171.488281 18.523438 C 171.488281 11.089844 165.460938 5.0625 158.027344 5.0625 Z M 158.027344 5.0625 " clip-rule="nonzero"/></clipPath></defs><g clip-path="url(#98908d4231)"><g clip-path="url(#d40e2375e1)"><path fill="#ffcf7e" d="M 0 5.0625 L 171.546875 5.0625 L 171.546875 131.621094 L 0 131.621094 Z M 0 5.0625 " fill-opacity="1" fill-rule="nonzero"/></g></g><g fill="#303144" fill-opacity="1"><g transform="translate(44.138113, 60.366331)"><g><path d="M 19.984375 -1.03125 C 19.984375 -0.34375 19.664062 0 19.03125 0 L 1.796875 0 C 1.160156 0 0.84375 -0.375 0.84375 -1.125 L 0.84375 -1.171875 L 1.234375 -9.703125 C 1.242188 -10.648438 1.597656 -11.125 2.296875 -11.125 L 7.53125 -11.125 L 7.53125 -20.9375 L 3.6875 -17.6875 C 3.320312 -17.382812 2.984375 -17.234375 2.671875 -17.234375 C 2.210938 -17.234375 1.984375 -17.539062 1.984375 -18.15625 C 1.984375 -18.257812 1.992188 -18.332031 2.015625 -18.375 L 2.71875 -27.640625 C 2.738281 -28.109375 2.785156 -28.445312 2.859375 -28.65625 C 2.972656 -28.976562 3.175781 -29.25 3.46875 -29.46875 L 6.875 -31.921875 L 7.609375 -32.6875 C 7.878906 -32.957031 8.171875 -33.09375 8.484375 -33.09375 L 13.6875 -33.09375 C 14.351562 -33.09375 14.6875 -32.726562 14.6875 -32 L 14.6875 -11.125 L 18.484375 -11.125 C 19.171875 -11.125 19.539062 -10.597656 19.59375 -9.546875 L 19.984375 -1.171875 Z M 19.984375 -1.03125 "/></g></g></g><g fill="#303144" fill-opacity="1"><g transform="translate(64.938193, 60.366331)"><g><path d="M 19.875 -1.03125 C 19.875 -0.34375 19.570312 0 18.96875 0 L 2.015625 0 C 1.304688 0 0.953125 -0.351562 0.953125 -1.0625 L 0.953125 -1.171875 L 1.390625 -9.65625 C 1.390625 -9.8125 1.429688 -9.976562 1.515625 -10.15625 C 1.609375 -10.34375 1.722656 -10.515625 1.859375 -10.671875 C 2.003906 -10.828125 2.160156 -10.945312 2.328125 -11.03125 C 2.503906 -11.125 2.671875 -11.171875 2.828125 -11.171875 L 12.234375 -11.171875 C 12.671875 -11.171875 12.890625 -11.445312 12.890625 -12 C 12.890625 -12.082031 12.882812 -12.175781 12.875 -12.28125 C 12.863281 -12.382812 12.851562 -12.5 12.84375 -12.625 C 12.71875 -13.507812 12.453125 -13.953125 12.046875 -13.953125 L 3.25 -13.953125 C 2.226562 -13.953125 1.71875 -14.378906 1.71875 -15.234375 L 1.71875 -15.34375 L 2.71875 -31.859375 C 2.78125 -32.679688 3.15625 -33.09375 3.84375 -33.09375 L 17.203125 -33.09375 C 17.785156 -33.09375 18.101562 -32.679688 18.15625 -31.859375 L 19.875 -1.171875 Z M 12.046875 -19.03125 L 11.890625 -21.890625 L 8.703125 -21.890625 L 8.53125 -19.03125 Z M 12.046875 -19.03125 "/></g></g></g><g fill="#303144" fill-opacity="1"><g transform="translate(85.738273, 60.366331)"><g><path d="M 19.875 -1.03125 C 19.875 -0.34375 19.570312 0 18.96875 0 L 2.015625 0 C 1.304688 0 0.953125 -0.351562 0.953125 -1.0625 L 0.953125 -1.171875 L 1.390625 -9.546875 C 1.441406 -10.597656 1.941406 -11.125 2.890625 -11.125 L 12.234375 -11.125 C 12.640625 -11.125 12.84375 -11.488281 12.84375 -12.21875 C 12.84375 -13.375 12.578125 -13.953125 12.046875 -13.953125 L 3.03125 -13.953125 C 2.1875 -13.953125 1.765625 -14.414062 1.765625 -15.34375 C 1.765625 -15.394531 1.773438 -15.429688 1.796875 -15.453125 L 2.71875 -31.859375 C 2.78125 -32.679688 3.15625 -33.09375 3.84375 -33.09375 L 17.203125 -33.09375 C 17.796875 -33.09375 18.113281 -32.679688 18.15625 -31.859375 L 18.53125 -23.4375 L 18.53125 -23.171875 C 18.53125 -22.316406 18.140625 -21.890625 17.359375 -21.890625 L 8.828125 -21.890625 C 8.460938 -21.890625 8.253906 -21.425781 8.203125 -20.5 C 8.179688 -20.175781 8.164062 -19.941406 8.15625 -19.796875 C 8.15625 -19.660156 8.15625 -19.613281 8.15625 -19.65625 C 8.15625 -19.238281 8.316406 -19.03125 8.640625 -19.03125 L 17.859375 -19.03125 C 18.515625 -19.03125 18.867188 -18.582031 18.921875 -17.6875 L 19.875 -1.171875 Z M 19.875 -1.03125 "/></g></g></g><g fill="#303144" fill-opacity="1"><g transform="translate(106.538353, 60.366331)"><g><path d="M 19.875 -1.03125 C 19.875 -0.34375 19.570312 0 18.96875 0 L 2.015625 0 C 1.304688 0 0.953125 -0.351562 0.953125 -1.0625 L 0.953125 -1.171875 L 1.390625 -9.546875 C 1.441406 -10.597656 1.941406 -11.125 2.890625 -11.125 L 12.234375 -11.125 C 12.640625 -11.125 12.84375 -11.488281 12.84375 -12.21875 C 12.84375 -13.375 12.578125 -13.953125 12.046875 -13.953125 L 3.03125 -13.953125 C 2.1875 -13.953125 1.765625 -14.414062 1.765625 -15.34375 C 1.765625 -15.394531 1.773438 -15.429688 1.796875 -15.453125 L 2.71875 -31.859375 C 2.78125 -32.679688 3.15625 -33.09375 3.84375 -33.09375 L 17.203125 -33.09375 C 17.796875 -33.09375 18.113281 -32.679688 18.15625 -31.859375 L 18.53125 -23.4375 L 18.53125 -23.171875 C 18.53125 -22.316406 18.140625 -21.890625 17.359375 -21.890625 L 8.828125 -21.890625 C 8.460938 -21.890625 8.253906 -21.425781 8.203125 -20.5 C 8.179688 -20.175781 8.164062 -19.941406 8.15625 -19.796875 C 8.15625 -19.660156 8.15625 -19.613281 8.15625 -19.65625 C 8.15625 -19.238281 8.316406 -19.03125 8.640625 -19.03125 L 17.859375 -19.03125 C 18.515625 -19.03125 18.867188 -18.582031 18.921875 -17.6875 L 19.875 -1.171875 Z M 19.875 -1.03125 "/></g></g></g></svg>