<svg xmlns="http://www.w3.org/2000/svg" xmlns:xlink="http://www.w3.org/1999/xlink" width="230" zoomAndPan="magnify" viewBox="0 0 172.5 132.750001" height="177" preserveAspectRatio="xMidYMid meet" version="1.0"><defs><g/><clipPath id="682552ca5d"><path d="M 0 5.347656 L 171.546875 5.347656 L 171.546875 126 L 0 126 Z M 0 5.347656 " clip-rule="nonzero"/></clipPath><clipPath id="8b7a3079c7"><path d="M 158.027344 5.347656 L 13.460938 5.347656 C 6.027344 5.347656 0 11.371094 0 18.808594 L 0 62.414062 C 0 69.847656 6.027344 75.875 13.460938 75.875 L 33.484375 75.875 C 40.917969 75.875 46.945312 81.898438 46.945312 89.335938 L 46.945312 118.445312 C 46.945312 121.171875 48.417969 123.683594 50.800781 125.015625 C 53.179688 126.347656 56.09375 126.289062 58.414062 124.859375 L 126.714844 82.917969 C 134.214844 78.3125 142.84375 75.875 151.644531 75.875 L 158.027344 75.875 C 165.460938 75.875 171.488281 69.847656 171.488281 62.414062 L 171.488281 18.808594 C 171.488281 11.371094 165.460938 5.347656 158.027344 5.347656 Z M 158.027344 5.347656 " clip-rule="nonzero"/></clipPath></defs><g clip-path="url(#682552ca5d)"><g clip-path="url(#8b7a3079c7)"><path fill="#ffcf7e" d="M 0 5.347656 L 171.546875 5.347656 L 171.546875 131.90625 L 0 131.90625 Z M 0 5.347656 " fill-opacity="1" fill-rule="nonzero"/></g></g><g fill="#303144" fill-opacity="1"><g transform="translate(44.154118, 60.24278)"><g><path d="M 19.875 -1.0625 C 19.875 -0.351562 19.554688 0 18.921875 0 L 2.015625 0 C 1.378906 0 1.0625 -0.351562 1.0625 -1.0625 L 1.0625 -1.171875 L 1.4375 -9.546875 C 1.5 -10.722656 1.890625 -11.640625 2.609375 -12.296875 L 10.171875 -19.140625 C 10.460938 -19.367188 10.609375 -19.910156 10.609375 -20.765625 C 10.617188 -20.929688 10.570312 -21.195312 10.46875 -21.5625 C 10.320312 -21.78125 10.066406 -21.890625 9.703125 -21.890625 L 3.515625 -21.890625 C 2.703125 -21.890625 2.296875 -22.367188 2.296875 -23.328125 L 2.296875 -23.390625 L 2.671875 -31.859375 C 2.691406 -32.679688 3.046875 -33.09375 3.734375 -33.09375 L 17.140625 -33.09375 C 17.816406 -33.09375 18.171875 -32.679688 18.203125 -31.859375 L 18.75 -19.59375 L 18.75 -19.4375 C 18.75 -18.414062 18.429688 -17.613281 17.796875 -17.03125 L 11.171875 -11.125 L 18.375 -11.125 C 19.0625 -11.125 19.429688 -10.488281 19.484375 -9.21875 L 19.875 -1.171875 Z M 19.875 -1.0625 "/></g></g></g><g fill="#303144" fill-opacity="1"><g transform="translate(64.954198, 60.24278)"><g><path d="M 19.8125 -1.0625 C 19.8125 -0.351562 19.492188 0 18.859375 0 L 1.96875 0 C 1.332031 0 1.015625 -0.34375 1.015625 -1.03125 L 1.015625 -1.171875 L 2.671875 -31.859375 C 2.691406 -32.679688 3.046875 -33.09375 3.734375 -33.09375 L 17.140625 -33.09375 C 17.816406 -33.09375 18.171875 -32.679688 18.203125 -31.859375 L 19.8125 -1.171875 Z M 12.734375 -11.171875 L 12 -21.890625 L 8.703125 -21.890625 L 8.09375 -11.171875 Z M 12.734375 -11.171875 "/></g></g></g><g fill="#303144" fill-opacity="1"><g transform="translate(85.754278, 60.24278)"><g><path d="M 19.8125 -1.0625 C 19.8125 -0.351562 19.492188 0 18.859375 0 L 1.96875 0 C 1.332031 0 1.015625 -0.34375 1.015625 -1.03125 L 1.015625 -1.171875 L 2.671875 -31.859375 C 2.691406 -32.679688 3.046875 -33.09375 3.734375 -33.09375 L 17.140625 -33.09375 C 17.816406 -33.09375 18.171875 -32.679688 18.203125 -31.859375 L 19.8125 -1.171875 Z M 12.734375 -11.171875 L 12 -21.890625 L 8.703125 -21.890625 L 8.09375 -11.171875 Z M 12.734375 -11.171875 "/></g></g></g><g fill="#303144" fill-opacity="1"><g transform="translate(106.554358, 60.24278)"><g><path d="M 20.09375 -31.859375 L 19.59375 -23.4375 C 19.539062 -22.582031 19.429688 -21.640625 19.265625 -20.609375 L 12.515625 -1.171875 C 12.242188 -0.390625 11.78125 0 11.125 0 L 4.859375 0 C 4.203125 0 3.875 -0.316406 3.875 -0.953125 C 3.875 -1.066406 3.878906 -1.140625 3.890625 -1.171875 L 10.765625 -20.609375 C 10.816406 -20.734375 10.84375 -20.867188 10.84375 -21.015625 C 10.84375 -21.523438 10.632812 -21.78125 10.21875 -21.78125 L 2.515625 -21.78125 C 1.859375 -21.78125 1.5 -22.148438 1.4375 -22.890625 L 0.796875 -31.859375 C 0.773438 -31.992188 0.765625 -32.085938 0.765625 -32.140625 C 0.765625 -32.191406 0.765625 -32.207031 0.765625 -32.1875 C 0.765625 -32.789062 1.0625 -33.09375 1.65625 -33.09375 L 19.03125 -33.09375 C 19.738281 -33.09375 20.09375 -32.71875 20.09375 -31.96875 Z M 20.09375 -31.859375 "/></g></g></g></svg>