<svg xmlns="http://www.w3.org/2000/svg" xmlns:xlink="http://www.w3.org/1999/xlink" width="230" zoomAndPan="magnify" viewBox="0 0 172.5 131.999998" height="176" preserveAspectRatio="xMidYMid meet" version="1.0"><defs><g/><clipPath id="dd1ef18914"><path d="M 0 5.0625 L 171.546875 5.0625 L 171.546875 126 L 0 126 Z M 0 5.0625 " clip-rule="nonzero"/></clipPath><clipPath id="19212f7857"><path d="M 158.027344 5.0625 L 13.460938 5.0625 C 6.027344 5.0625 0 11.089844 0 18.523438 L 0 62.128906 C 0 69.5625 6.027344 75.589844 13.460938 75.589844 L 33.484375 75.589844 C 40.917969 75.589844 46.945312 81.617188 46.945312 89.050781 L 46.945312 118.160156 C 46.945312 120.886719 48.417969 123.402344 50.800781 124.734375 C 53.179688 126.0625 56.09375 126.003906 58.414062 124.578125 L 126.714844 82.636719 C 134.214844 78.03125 142.84375 75.589844 151.644531 75.589844 L 158.027344 75.589844 C 165.460938 75.589844 171.488281 69.5625 171.488281 62.128906 L 171.488281 18.523438 C 171.488281 11.089844 165.460938 5.0625 158.027344 5.0625 Z M 158.027344 5.0625 " clip-rule="nonzero"/></clipPath></defs><g clip-path="url(#dd1ef18914)"><g clip-path="url(#19212f7857)"><path fill="#ffcf7e" d="M 0 5.0625 L 171.546875 5.0625 L 171.546875 131.621094 L 0 131.621094 Z M 0 5.0625 " fill-opacity="1" fill-rule="nonzero"/></g></g><g fill="#303144" fill-opacity="1"><g transform="translate(44.138113, 60.366331)"><g><path d="M 19.875 -1.0625 C 19.875 -0.351562 19.554688 0 18.921875 0 L 2.015625 0 C 1.378906 0 1.0625 -0.351562 1.0625 -1.0625 L 1.0625 -1.171875 L 1.4375 -9.546875 C 1.5 -10.722656 1.890625 -11.640625 2.609375 -12.296875 L 10.171875 -19.140625 C 10.460938 -19.367188 10.609375 -19.910156 10.609375 -20.765625 C 10.617188 -20.929688 10.570312 -21.195312 10.46875 -21.5625 C 10.320312 -21.78125 10.066406 -21.890625 9.703125 -21.890625 L 3.515625 -21.890625 C 2.703125 -21.890625 2.296875 -22.367188 2.296875 -23.328125 L 2.296875 -23.390625 L 2.671875 -31.859375 C 2.691406 -32.679688 3.046875 -33.09375 3.734375 -33.09375 L 17.140625 -33.09375 C 17.816406 -33.09375 18.171875 -32.679688 18.203125 -31.859375 L 18.75 -19.59375 L 18.75 -19.4375 C 18.75 -18.414062 18.429688 -17.613281 17.796875 -17.03125 L 11.171875 -11.125 L 18.375 -11.125 C 19.0625 -11.125 19.429688 -10.488281 19.484375 -9.21875 L 19.875 -1.171875 Z M 19.875 -1.0625 "/></g></g></g><g fill="#303144" fill-opacity="1"><g transform="translate(64.938193, 60.366331)"><g><path d="M 19.8125 -1.0625 C 19.8125 -0.351562 19.492188 0 18.859375 0 L 1.96875 0 C 1.332031 0 1.015625 -0.34375 1.015625 -1.03125 L 1.015625 -1.171875 L 2.671875 -31.859375 C 2.691406 -32.679688 3.046875 -33.09375 3.734375 -33.09375 L 17.140625 -33.09375 C 17.816406 -33.09375 18.171875 -32.679688 18.203125 -31.859375 L 19.8125 -1.171875 Z M 12.734375 -11.171875 L 12 -21.890625 L 8.703125 -21.890625 L 8.09375 -11.171875 Z M 12.734375 -11.171875 "/></g></g></g><g fill="#303144" fill-opacity="1"><g transform="translate(85.738273, 60.366331)"><g><path d="M 19.8125 -1.0625 C 19.8125 -0.351562 19.492188 0 18.859375 0 L 1.96875 0 C 1.332031 0 1.015625 -0.34375 1.015625 -1.03125 L 1.015625 -1.171875 L 2.671875 -31.859375 C 2.691406 -32.679688 3.046875 -33.09375 3.734375 -33.09375 L 17.140625 -33.09375 C 17.816406 -33.09375 18.171875 -32.679688 18.203125 -31.859375 L 19.8125 -1.171875 Z M 12.734375 -11.171875 L 12 -21.890625 L 8.703125 -21.890625 L 8.09375 -11.171875 Z M 12.734375 -11.171875 "/></g></g></g><g fill="#303144" fill-opacity="1"><g transform="translate(106.538353, 60.366331)"><g><path d="M 19.875 -1.03125 C 19.875 -0.34375 19.570312 0 18.96875 0 L 2.015625 0 C 1.304688 0 0.953125 -0.351562 0.953125 -1.0625 L 0.953125 -1.171875 L 1.390625 -9.65625 C 1.390625 -9.8125 1.429688 -9.976562 1.515625 -10.15625 C 1.609375 -10.34375 1.722656 -10.515625 1.859375 -10.671875 C 2.003906 -10.828125 2.160156 -10.945312 2.328125 -11.03125 C 2.503906 -11.125 2.671875 -11.171875 2.828125 -11.171875 L 12.234375 -11.171875 C 12.671875 -11.171875 12.890625 -11.445312 12.890625 -12 C 12.890625 -12.082031 12.882812 -12.175781 12.875 -12.28125 C 12.863281 -12.382812 12.851562 -12.5 12.84375 -12.625 C 12.71875 -13.507812 12.453125 -13.953125 12.046875 -13.953125 L 3.25 -13.953125 C 2.226562 -13.953125 1.71875 -14.378906 1.71875 -15.234375 L 1.71875 -15.34375 L 2.71875 -31.859375 C 2.78125 -32.679688 3.15625 -33.09375 3.84375 -33.09375 L 17.203125 -33.09375 C 17.785156 -33.09375 18.101562 -32.679688 18.15625 -31.859375 L 19.875 -1.171875 Z M 12.046875 -19.03125 L 11.890625 -21.890625 L 8.703125 -21.890625 L 8.53125 -19.03125 Z M 12.046875 -19.03125 "/></g></g></g></svg>