<?xml version="1.0" encoding="UTF-8" standalone="no"?><svg xmlns="http://www.w3.org/2000/svg" xmlns:xlink="http://www.w3.org/1999/xlink" contentScriptType="text/ecmascript" fill="#cf4545" width="88.1" zoomAndPan="magnify" contentStyleType="text/css" viewBox="0.0 -1.4 88.1 101.4" height="101.4" preserveAspectRatio="xMidYMid meet" version="1"><g id="change1_1"><path fill="inherit" d="m6.755 25.72c7.382-9.081 18.004-15.425 30.093-17.245l-5.514-6.871c-2.868-2.967-9.069-1.697-16.868 2.807s-11.998 9.237-10.864 13.204l3.153 8.105z"/></g><g id="change1_2"><path fill="inherit" d="m44.03 23.948c-1.658 0-3.002 1.344-3.002 3.002v26.018h-26.018c-1.658 0-3.002 1.344-3.002 3.002s1.344 3.002 3.002 3.002h29.02c1.658 0 3.002-1.344 3.002-3.002v-29.02c0-1.658-1.344-3.002-3.002-3.002z"/></g><g id="change1_3"><path fill="inherit" d="m81.306 25.72c-7.382-9.081-18.004-15.425-30.093-17.245l5.514-6.871c2.868-2.967 9.069-1.697 16.868 2.807s11.998 9.237 10.864 13.204l-3.153 8.105z"/></g><g id="change1_4"><path fill="inherit" d="m44.03 11.939c-24.278 0-44.03 19.752-44.03 44.03s19.752 44.031 44.03 44.031 44.03-19.752 44.03-44.031-19.751-44.03-44.03-44.03zm0 82.057c-20.968 0-38.026-17.059-38.026-38.026s17.058-38.027 38.026-38.027 38.026 17.059 38.026 38.026-17.058 38.027-38.026 38.027z"/></g></svg>