<?xml version="1.0" encoding="UTF-8" standalone="no"?><svg xmlns="http://www.w3.org/2000/svg" xmlns:xlink="http://www.w3.org/1999/xlink" contentScriptType="text/ecmascript" fill="#cf4545" width="469.2" zoomAndPan="magnify" contentStyleType="text/css" viewBox="-1.4 0.0 469.2 400.0" height="400" data-name="Layer 1" preserveAspectRatio="xMidYMid meet" version="1"><g id="change1_1"><path d="M455.42,352.37,257.14,15.57a31.59,31.59,0,0,0-54.45,0L4.42,352.37A31.59,31.59,0,0,0,31.64,400H428.2C452.63,400,467.82,373.43,455.42,352.37ZM37.78,366.11,227.5,48.94,417.23,366.11Z"/></g><g id="change1_2"><path d="M204.2,320.24c0-14.22,9.88-24.49,23.3-24.49,14.22,0,23.31,10.27,23.31,24.49,0,13.83-9.09,24.49-23.31,24.49C213.68,344.73,204.2,334.07,204.2,320.24Zm10-43.84-9.63-133.73c-.48-6.65,10-12.13,22.94-12.13h0c12.93,0,23.43,5.48,22.95,12.13L240.82,276.4c-.33,4.54-6.17,8.12-13.32,8.12h0C220.35,284.52,214.51,280.94,214.19,276.4Z"/></g></svg>