<svg xmlns="http://www.w3.org/2000/svg" xmlns:xlink="http://www.w3.org/1999/xlink" width="969" zoomAndPan="magnify" viewBox="0 0 726.75 173.249993" height="231" preserveAspectRatio="xMidYMid meet" version="1.0"><defs><g/><clipPath id="289cdae130"><path d="M 1.441406 36.878906 L 724.5 36.878906 L 724.5 172.328125 L 1.441406 172.328125 Z M 1.441406 36.878906 " clip-rule="nonzero"/></clipPath><clipPath id="e7f2df6a3a"><path d="M 1.460938 36.878906 L 724.3125 36.878906 L 724.3125 172.042969 L 1.460938 172.042969 Z M 1.460938 36.878906 " clip-rule="nonzero"/></clipPath><clipPath id="ef56cc5872"><path d="M 1.441406 19.488281 L 724.5 19.488281 L 724.5 154.941406 L 1.441406 154.941406 Z M 1.441406 19.488281 " clip-rule="nonzero"/></clipPath><clipPath id="19f7004470"><path d="M 1.460938 19.488281 L 724.3125 19.488281 L 724.3125 154.652344 L 1.460938 154.652344 Z M 1.460938 19.488281 " clip-rule="nonzero"/></clipPath><clipPath id="e958e347f8"><path d="M 93 0 L 629 0 L 629 172.503906 L 93 172.503906 Z M 93 0 " clip-rule="nonzero"/></clipPath><clipPath id="9fa8f72140"><path d="M 601.003906 36.957031 L 692.855469 36.957031 L 692.855469 128.808594 L 601.003906 128.808594 Z M 601.003906 36.957031 " clip-rule="nonzero"/></clipPath><clipPath id="bd2eced452"><path d="M 28.792969 36.957031 L 120.644531 36.957031 L 120.644531 128.808594 L 28.792969 128.808594 Z M 28.792969 36.957031 " clip-rule="nonzero"/></clipPath></defs><g clip-path="url(#289cdae130)"><path fill="#cf4545" d="M 1.441406 36.878906 L 724.734375 36.878906 L 724.734375 172.328125 L 1.441406 172.328125 Z M 1.441406 36.878906 " fill-opacity="1" fill-rule="nonzero"/></g><g clip-path="url(#e7f2df6a3a)"><path stroke-linecap="butt" transform="matrix(0.746767, 0, 0, 0.746767, 1.459106, 36.877219)" fill="none" stroke-linejoin="miter" d="M 0.00245219 0.00225879 L 968.201845 0.00225879 L 968.201845 181.372584 L 0.00245219 181.372584 Z M 0.00245219 0.00225879 " stroke="#cf4545" stroke-width="20" stroke-opacity="1" stroke-miterlimit="4"/></g><g clip-path="url(#ef56cc5872)"><path fill="#ffcf7e" d="M 1.441406 19.488281 L 724.734375 19.488281 L 724.734375 154.941406 L 1.441406 154.941406 Z M 1.441406 19.488281 " fill-opacity="1" fill-rule="nonzero"/></g><g clip-path="url(#19f7004470)"><path stroke-linecap="butt" transform="matrix(0.746767, 0, 0, 0.746767, 1.459106, 19.489334)" fill="none" stroke-linejoin="miter" d="M 0.00245219 -0.00141035 L 968.201845 -0.00141035 L 968.201845 181.374145 L 0.00245219 181.374145 Z M 0.00245219 -0.00141035 " stroke="#cf4545" stroke-width="20" stroke-opacity="1" stroke-miterlimit="4"/></g><g clip-path="url(#e958e347f8)"><path stroke-linecap="butt" transform="matrix(0.746767, 0, 0, 0.746767, 121.952457, 10.355197)" fill="none" stroke-linejoin="miter" d="M 111.434345 137.002359 L 91.86562 137.002359 L 91.86562 81.549793 C 91.86562 79.023278 90.714827 77.757405 88.413239 77.757405 L 85.776875 77.757405 C 83.42821 77.757405 82.256493 79.023278 82.256493 81.549793 L 82.256493 127.388001 C 82.256493 133.795829 79.56782 137.002359 74.195705 137.002359 L 57.336577 137.002359 L 57.336577 116.078837 L 60.726188 116.078837 C 61.850827 116.078837 62.415762 115.581903 62.415762 114.588036 L 62.415762 72.207441 C 62.415762 66.746401 63.477631 62.81801 65.596138 60.427497 C 67.719875 58.031754 71.465186 56.839113 76.8373 56.839113 L 97.959596 56.839113 C 106.946249 56.839113 111.434345 61.960145 111.434345 72.207441 Z M 137.975833 137.002359 L 118.407109 137.002359 L 118.407109 56.839113 L 137.975833 56.839113 Z M 189.290772 108.02328 C 189.290772 127.340923 180.042575 137.002359 161.53572 137.002359 L 153.072155 137.002359 L 153.072155 116.078837 L 158.758122 116.078837 C 163.136369 116.078837 166.117971 114.682192 167.697697 111.88367 C 168.822336 109.895936 169.387272 106.443554 169.387272 101.521296 L 169.387272 81.073783 C 169.387272 78.866352 168.257401 77.757405 166.002892 77.757405 L 144.880596 77.757405 L 144.880596 46.884747 L 164.512091 46.884747 L 164.512091 56.839113 L 179.273636 56.839113 C 185.953471 56.839113 189.290772 60.066567 189.290772 66.521473 Z M 215.764259 137.002359 L 196.195535 137.002359 L 196.195535 56.839113 L 215.764259 56.839113 Z M 272.299617 115.874832 C 272.299617 129.956363 266.519494 137.002359 254.964479 137.002359 L 221.314224 137.002359 L 221.314224 116.078837 L 226.053402 116.078837 L 226.053402 56.839113 L 245.622126 56.839113 L 245.622126 116.078837 L 249.550518 116.078837 C 251.805027 116.078837 252.934897 114.520034 252.934897 111.40766 L 252.934897 56.839113 L 272.299617 56.839113 Z M 327.004167 121.430028 C 327.004167 131.808095 321.966829 137.002359 311.902615 137.002359 L 279.335152 137.002359 L 279.335152 116.078837 L 303.575053 116.078837 C 306.237571 116.078837 307.571446 114.499111 307.571446 111.339659 L 307.571446 81.073783 C 307.571446 78.866352 306.556655 77.757405 304.521842 77.757405 L 301.817477 77.757405 C 299.965745 77.757405 299.039879 78.908199 299.039879 81.209786 L 299.039879 92.989729 L 279.20438 92.989729 L 279.20438 71.056647 C 279.20438 61.578291 283.760477 56.839113 292.877902 56.839113 L 312.917406 56.839113 C 317.15965 56.839113 320.570184 58.146833 323.143777 60.762274 C 325.717371 63.424792 327.004167 66.85625 327.004167 71.056647 Z M 381.907491 137.002359 L 362.00399 137.002359 L 362.00399 81.073783 C 362.00399 78.866352 360.87412 77.757405 358.61961 77.757405 L 333.9717 77.757405 L 333.9717 56.839113 L 367.757958 56.839113 C 371.911278 56.839113 375.321812 58.167757 377.98433 60.830275 C 380.59977 63.450946 381.907491 66.85625 381.907491 71.056647 Z M 353.540425 137.002359 L 334.039702 137.002359 L 334.039702 87.303762 L 353.540425 87.303762 Z M 461.798731 77.757405 C 457.373406 77.757405 455.165974 79.92299 455.165974 84.25939 L 455.165974 137.002359 L 435.257242 137.002359 L 435.257242 89.809354 C 435.257242 83.626453 437.877914 79.609137 443.114025 77.757405 L 418.131339 77.757405 L 418.131339 56.839113 L 461.798731 56.839113 Z M 521.917242 122.580821 C 521.917242 132.19518 517.565149 137.002359 508.850502 137.002359 L 495.040977 137.002359 L 495.040977 116.010835 L 499.173373 116.010835 C 501.202955 116.010835 502.217746 114.79204 502.217746 112.35445 L 502.217746 81.821799 C 502.217746 79.384209 501.605733 78.165414 500.386937 78.165414 C 499.173373 78.165414 498.336432 79.541135 497.886576 82.292579 L 488.068213 137.002359 L 468.703493 137.002359 L 476.963054 92.246944 L 473.102664 92.246944 C 470.079215 92.246944 468.56749 90.756143 468.56749 87.779772 L 468.56749 56.839113 L 488.204216 56.839113 L 488.204216 85.138178 L 492.127377 69.633847 C 494.298192 61.102281 498.969369 56.839113 506.146137 56.839113 L 507.160928 56.839113 C 517.000214 56.839113 521.917242 62.838933 521.917242 74.849035 Z M 582.040984 122.580821 C 582.040984 132.19518 577.683661 137.002359 568.974244 137.002359 L 555.159489 137.002359 L 555.159489 116.010835 L 559.291884 116.010835 C 561.321466 116.010835 562.336257 114.79204 562.336257 112.35445 L 562.336257 81.821799 C 562.336257 79.384209 561.729475 78.165414 560.51068 78.165414 C 559.291884 78.165414 558.454943 79.541135 558.005088 82.292579 L 548.186725 137.002359 L 528.822005 137.002359 L 537.081565 92.246944 L 533.226406 92.246944 C 530.202957 92.246944 528.686002 90.756143 528.686002 87.779772 L 528.686002 56.839113 L 548.322728 56.839113 L 548.322728 85.138178 L 552.251119 69.633847 C 554.416704 61.102281 559.08788 56.839113 566.264648 56.839113 L 567.279439 56.839113 C 577.118726 56.839113 582.040984 62.838933 582.040984 74.849035 Z M 582.040984 122.580821 " stroke="#cf4545" stroke-width="16.986708" stroke-opacity="1" stroke-miterlimit="4"/></g><g fill="#ffcf7e" fill-opacity="1"><g transform="translate(163.759751, 112.662301)"><g><path d="M 41.40625 0 L 26.796875 0 L 26.796875 -41.40625 C 26.796875 -43.289062 25.9375 -44.234375 24.21875 -44.234375 L 22.25 -44.234375 C 20.5 -44.234375 19.625 -43.289062 19.625 -41.40625 L 19.625 -7.171875 C 19.625 -2.390625 17.613281 0 13.59375 0 L 1.015625 0 L 1.015625 -15.625 L 3.546875 -15.625 C 4.378906 -15.625 4.796875 -15.992188 4.796875 -16.734375 L 4.796875 -48.390625 C 4.796875 -52.460938 5.585938 -55.394531 7.171875 -57.1875 C 8.765625 -58.96875 11.566406 -59.859375 15.578125 -59.859375 L 31.34375 -59.859375 C 38.050781 -59.859375 41.40625 -56.035156 41.40625 -48.390625 Z M 41.40625 0 "/></g></g></g><g fill="#ffcf7e" fill-opacity="1"><g transform="translate(207.796259, 112.662301)"><g><path d="M 17.1875 0 L 2.578125 0 L 2.578125 -59.859375 L 17.1875 -59.859375 Z M 17.1875 0 "/></g></g></g><g fill="#ffcf7e" fill-opacity="1"><g transform="translate(227.564658, 112.662301)"><g><path d="M 35.75 -21.640625 C 35.75 -7.210938 28.835938 0 15.015625 0 L 8.703125 0 L 8.703125 -15.625 L 12.9375 -15.625 C 16.207031 -15.625 18.4375 -16.664062 19.625 -18.75 C 20.457031 -20.238281 20.875 -22.820312 20.875 -26.5 L 20.875 -41.765625 C 20.875 -43.410156 20.035156 -44.234375 18.359375 -44.234375 L 2.578125 -44.234375 L 2.578125 -67.296875 L 17.234375 -67.296875 L 17.234375 -59.859375 L 28.265625 -59.859375 C 33.253906 -59.859375 35.75 -57.453125 35.75 -52.640625 Z M 35.75 -21.640625 "/></g></g></g><g fill="#ffcf7e" fill-opacity="1"><g transform="translate(265.888048, 112.662301)"><g><path d="M 17.1875 0 L 2.578125 0 L 2.578125 -59.859375 L 17.1875 -59.859375 Z M 17.1875 0 "/></g></g></g><g fill="#ffcf7e" fill-opacity="1"><g transform="translate(285.656447, 112.662301)"><g><path d="M 39.640625 -15.78125 C 39.640625 -5.257812 35.328125 0 26.703125 0 L 1.5625 0 L 1.5625 -15.625 L 5.109375 -15.625 L 5.109375 -59.859375 L 19.71875 -59.859375 L 19.71875 -15.625 L 22.65625 -15.625 C 24.332031 -15.625 25.171875 -16.785156 25.171875 -19.109375 L 25.171875 -59.859375 L 39.640625 -59.859375 Z M 39.640625 -15.78125 "/></g></g></g><g fill="#ffcf7e" fill-opacity="1"><g transform="translate(327.872847, 112.662301)"><g><path d="M 38.28125 -11.625 C 38.28125 -3.875 34.519531 0 27 0 L 2.671875 0 L 2.671875 -15.625 L 20.78125 -15.625 C 22.769531 -15.625 23.765625 -16.800781 23.765625 -19.15625 L 23.765625 -41.765625 C 23.765625 -43.410156 23.003906 -44.234375 21.484375 -44.234375 L 19.46875 -44.234375 C 18.082031 -44.234375 17.390625 -43.375 17.390625 -41.65625 L 17.390625 -32.859375 L 2.578125 -32.859375 L 2.578125 -49.25 C 2.578125 -56.320312 5.984375 -59.859375 12.796875 -59.859375 L 27.75 -59.859375 C 30.925781 -59.859375 33.472656 -58.882812 35.390625 -56.9375 C 37.316406 -54.945312 38.28125 -52.382812 38.28125 -49.25 Z M 38.28125 -11.625 "/></g></g></g><g fill="#ffcf7e" fill-opacity="1"><g transform="translate(368.774735, 112.662301)"><g><path d="M 38.375 0 L 23.515625 0 L 23.515625 -41.765625 C 23.515625 -43.410156 22.671875 -44.234375 20.984375 -44.234375 L 2.578125 -44.234375 L 2.578125 -59.859375 L 27.8125 -59.859375 C 30.90625 -59.859375 33.445312 -58.863281 35.4375 -56.875 C 37.394531 -54.925781 38.375 -52.382812 38.375 -49.25 Z M 17.1875 0 L 2.625 0 L 2.625 -37.109375 L 17.1875 -37.109375 Z M 17.1875 0 "/></g></g></g><g fill="#ffcf7e" fill-opacity="1"><g transform="translate(409.727171, 112.662301)"><g/></g></g><g fill="#ffcf7e" fill-opacity="1"><g transform="translate(432.630212, 112.662301)"><g><path d="M 34.171875 -44.234375 C 30.867188 -44.234375 29.21875 -42.617188 29.21875 -39.390625 L 29.21875 0 L 14.359375 0 L 14.359375 -35.234375 C 14.359375 -39.859375 16.3125 -42.859375 20.21875 -44.234375 L 1.5625 -44.234375 L 1.5625 -59.859375 L 34.171875 -59.859375 Z M 34.171875 -44.234375 "/></g></g></g><g fill="#ffcf7e" fill-opacity="1"><g transform="translate(469.386298, 112.662301)"><g><path d="M 42.3125 -10.765625 C 42.3125 -3.585938 39.0625 0 32.5625 0 L 22.25 0 L 22.25 -15.671875 L 25.328125 -15.671875 C 26.847656 -15.671875 27.609375 -16.582031 27.609375 -18.40625 L 27.609375 -41.203125 C 27.609375 -43.023438 27.148438 -43.9375 26.234375 -43.9375 C 25.328125 -43.9375 24.707031 -42.910156 24.375 -40.859375 L 17.03125 0 L 2.578125 0 L 8.75 -33.421875 L 5.859375 -33.421875 C 3.609375 -33.421875 2.484375 -34.53125 2.484375 -36.75 L 2.484375 -59.859375 L 17.140625 -59.859375 L 17.140625 -38.734375 L 20.078125 -50.3125 C 21.691406 -56.675781 25.175781 -59.859375 30.53125 -59.859375 L 31.296875 -59.859375 C 38.640625 -59.859375 42.3125 -55.378906 42.3125 -46.421875 Z M 42.3125 -10.765625 "/></g></g></g><g fill="#ffcf7e" fill-opacity="1"><g transform="translate(514.282302, 112.662301)"><g><path d="M 42.3125 -10.765625 C 42.3125 -3.585938 39.0625 0 32.5625 0 L 22.25 0 L 22.25 -15.671875 L 25.328125 -15.671875 C 26.847656 -15.671875 27.609375 -16.582031 27.609375 -18.40625 L 27.609375 -41.203125 C 27.609375 -43.023438 27.148438 -43.9375 26.234375 -43.9375 C 25.328125 -43.9375 24.707031 -42.910156 24.375 -40.859375 L 17.03125 0 L 2.578125 0 L 8.75 -33.421875 L 5.859375 -33.421875 C 3.609375 -33.421875 2.484375 -34.53125 2.484375 -36.75 L 2.484375 -59.859375 L 17.140625 -59.859375 L 17.140625 -38.734375 L 20.078125 -50.3125 C 21.691406 -56.675781 25.175781 -59.859375 30.53125 -59.859375 L 31.296875 -59.859375 C 38.640625 -59.859375 42.3125 -55.378906 42.3125 -46.421875 Z M 42.3125 -10.765625 "/></g></g></g><g clip-path="url(#9fa8f72140)"><path fill="#cf4545" d="M 646.8125 36.957031 C 621.492188 36.957031 601.003906 57.46875 601.003906 82.789062 C 601.003906 108.113281 621.492188 128.625 646.8125 128.625 C 672.136719 128.625 692.667969 108.113281 692.667969 82.789062 C 692.667969 57.46875 672.136719 36.957031 646.8125 36.957031 Z M 646.835938 119.457031 C 626.578125 119.457031 610.171875 103.046875 610.171875 82.789062 C 610.171875 62.53125 626.578125 46.125 646.835938 46.125 C 667.09375 46.125 683.503906 62.53125 683.503906 82.789062 C 683.503906 103.046875 667.09375 119.457031 646.835938 119.457031 Z M 646.835938 119.457031 " fill-opacity="1" fill-rule="nonzero"/></g><path fill="#cf4545" d="M 649.128906 59.875 L 642.253906 59.875 L 642.253906 87.375 L 666.292969 101.8125 L 669.753906 96.175781 L 649.128906 83.9375 Z M 649.128906 59.875 " fill-opacity="1" fill-rule="nonzero"/><g clip-path="url(#bd2eced452)"><path fill="#cf4545" d="M 74.601562 36.957031 C 49.277344 36.957031 28.792969 57.46875 28.792969 82.789062 C 28.792969 108.113281 49.277344 128.625 74.601562 128.625 C 99.925781 128.625 120.457031 108.113281 120.457031 82.789062 C 120.457031 57.46875 99.925781 36.957031 74.601562 36.957031 Z M 74.625 119.457031 C 54.367188 119.457031 37.957031 103.046875 37.957031 82.789062 C 37.957031 62.53125 54.367188 46.125 74.625 46.125 C 94.882812 46.125 111.289062 62.53125 111.289062 82.789062 C 111.289062 103.046875 94.882812 119.457031 74.625 119.457031 Z M 74.625 119.457031 " fill-opacity="1" fill-rule="nonzero"/></g><path fill="#cf4545" d="M 76.914062 59.875 L 70.039062 59.875 L 70.039062 87.375 L 94.082031 101.8125 L 97.539062 96.175781 L 76.914062 83.9375 Z M 76.914062 59.875 " fill-opacity="1" fill-rule="nonzero"/></svg>