<svg xmlns="http://www.w3.org/2000/svg" xmlns:xlink="http://www.w3.org/1999/xlink" width="983" zoomAndPan="magnify" viewBox="0 0 737.25 153.750002" height="205" preserveAspectRatio="xMidYMid meet" version="1.0"><defs><g/><clipPath id="5111238ed8"><path d="M 5.460938 17.433594 L 730.46875 17.433594 L 730.46875 153.253906 L 5.460938 153.253906 Z M 5.460938 17.433594 " clip-rule="nonzero"/></clipPath><clipPath id="978ef36d40"><path d="M 5.476562 17.433594 L 730.28125 17.433594 L 730.28125 152.964844 L 5.476562 152.964844 Z M 5.476562 17.433594 " clip-rule="nonzero"/></clipPath><clipPath id="74b0342468"><path d="M 5.460938 0 L 730.46875 0 L 730.46875 135.816406 L 5.460938 135.816406 Z M 5.460938 0 " clip-rule="nonzero"/></clipPath><clipPath id="aff210d665"><path d="M 5.476562 0 L 730.28125 0 L 730.28125 135.53125 L 5.476562 135.53125 Z M 5.476562 0 " clip-rule="nonzero"/></clipPath><clipPath id="f2e75505b8"><path d="M 0.222656 0 L 736.277344 0 L 736.277344 137 L 0.222656 137 Z M 0.222656 0 " clip-rule="nonzero"/></clipPath></defs><g clip-path="url(#5111238ed8)"><path fill="#cf4545" d="M 5.460938 17.433594 L 730.703125 17.433594 L 730.703125 153.253906 L 5.460938 153.253906 Z M 5.460938 17.433594 " fill-opacity="1" fill-rule="nonzero"/></g><g clip-path="url(#978ef36d40)"><path stroke-linecap="butt" transform="matrix(0.748782, 0, 0, 0.748782, 5.477074, 17.434814)" fill="none" stroke-linejoin="miter" d="M -0.000683271 -0.00162955 L 968.201309 -0.00162955 L 968.201309 181.376153 L -0.000683271 181.376153 Z M -0.000683271 -0.00162955 " stroke="#cf4545" stroke-width="20" stroke-opacity="1" stroke-miterlimit="4"/></g><g clip-path="url(#74b0342468)"><path fill="#ffcf7e" d="M 5.460938 0 L 730.703125 0 L 730.703125 135.816406 L 5.460938 135.816406 Z M 5.460938 0 " fill-opacity="1" fill-rule="nonzero"/></g><g clip-path="url(#aff210d665)"><path stroke-linecap="butt" transform="matrix(0.748782, 0, 0, 0.748782, 5.477074, 0.00000698864)" fill="none" stroke-linejoin="miter" d="M -0.000683271 -0.00000933333 L 968.201309 -0.00000933333 L 968.201309 181.372557 L -0.000683271 181.372557 Z M -0.000683271 -0.00000933333 " stroke="#cf4545" stroke-width="20" stroke-opacity="1" stroke-miterlimit="4"/></g><g clip-path="url(#f2e75505b8)"><path stroke-linecap="butt" transform="matrix(0.748782, 0, 0, 0.748782, 14.600645, 14.61934)" fill="none" stroke-linejoin="miter" d="M 54.892419 95.000312 L 20.153733 95.000312 L 20.153733 49.202005 C 20.153733 45.732831 20.732798 43.312235 21.890928 41.934999 C 23.205562 40.312574 25.547906 39.498753 28.923177 39.498753 L 45.517825 39.498753 C 51.767555 39.498753 54.892419 42.73317 54.892419 49.202005 Z M 41.344384 56.609864 C 41.344384 54.857019 40.546213 53.985813 38.955088 53.985813 L 36.32582 53.985813 C 34.734695 53.985813 33.936524 54.857019 33.936524 56.609864 L 33.936524 80.513252 L 41.344384 80.513252 Z M 73.031241 64.111626 L 59.577108 64.111626 L 59.577108 39.498753 L 73.031241 39.498753 Z M 91.170062 64.111626 L 77.721146 64.111626 L 77.721146 39.498753 L 91.170062 39.498753 Z M 123.279481 95.000312 L 109.548857 95.000312 L 109.548857 56.281206 C 109.548857 54.747466 108.750686 53.985813 107.154345 53.985813 L 95.014846 53.985813 L 95.014846 39.498753 L 113.482326 39.498753 C 116.356784 39.498753 118.719996 40.422127 120.561527 42.263658 C 122.376974 44.079105 123.279481 46.4371 123.279481 49.342859 Z M 141.611324 95.000312 L 128.063288 95.000312 L 128.063288 39.498753 L 141.611324 39.498753 Z M 178.076772 95.000312 L 146.389915 95.000312 L 146.389915 80.513252 L 156.938289 80.513252 C 160.031853 80.513252 161.576027 78.687372 161.576027 75.030393 L 161.576027 58.388794 C 161.576027 56.766368 161.294319 55.623889 160.736121 54.966571 C 160.172707 54.314471 159.092829 53.985813 157.501704 53.985813 L 146.389915 53.985813 L 146.389915 39.498753 L 164.622639 39.498753 C 171.780092 39.498753 175.358818 43.734796 175.358818 52.201666 L 175.358818 71.18561 C 175.358818 76.094621 173.532937 79.203835 169.875959 80.513252 L 178.076772 80.513252 Z M 195.751299 64.111626 L 182.297165 64.111626 L 182.297165 39.498753 L 195.751299 39.498753 Z M 200.811597 95.000312 L 200.811597 80.513252 L 216.655025 80.466301 L 207.796895 62.562236 C 202.580093 51.998211 199.611732 44.313861 198.891814 39.498753 L 213.279754 39.498753 C 215.189104 47.250921 217.860107 54.111016 221.297979 60.079038 C 221.830093 59.734729 222.158752 59.093062 222.278738 58.154038 C 222.372641 57.564539 222.419592 56.860271 222.419592 56.04645 L 222.419592 39.498753 L 236.06153 39.498753 L 236.06153 58.294891 C 236.06153 61.138049 235.200758 63.861219 233.48443 66.45397 C 231.799403 68.984119 229.686598 70.919553 227.156448 72.265488 C 233.061869 84.013727 236.030229 91.593741 236.06153 95.000312 Z M 296.811193 95.000312 L 262.077723 95.000312 L 262.077723 49.202005 C 262.077723 45.732831 262.656788 43.312235 263.814918 41.934999 C 265.124336 40.312574 267.46668 39.498753 270.841951 39.498753 L 287.436599 39.498753 C 293.686328 39.498753 296.811193 42.73317 296.811193 49.202005 Z M 283.263157 56.609864 C 283.263157 54.857019 282.470203 53.985813 280.873862 53.985813 L 278.24981 53.985813 C 276.658686 53.985813 275.860515 54.857019 275.860515 56.609864 L 275.860515 80.513252 L 283.263157 80.513252 Z M 314.955231 64.111626 L 301.501098 64.111626 L 301.501098 39.498753 L 314.955231 39.498753 Z M 355.171561 78.358713 C 355.171561 83.794621 353.643037 88.140217 350.575558 91.390285 C 347.419392 94.734256 343.157265 96.408849 337.778742 96.408849 C 332.248931 96.408849 327.8616 94.781207 324.611533 91.531139 C 321.361465 88.281071 319.733822 83.888523 319.733822 78.358713 L 319.733822 48.356883 C 319.733822 46.765758 319.890326 45.404173 320.203335 44.28256 C 320.516343 43.155731 321.017156 42.242791 321.700557 41.538522 C 322.389175 40.834254 323.286465 40.317791 324.397644 39.994349 C 325.508823 39.66569 326.859974 39.498753 328.451099 39.498753 L 346.360381 39.498753 C 352.234501 39.498753 355.171561 42.451463 355.171561 48.356883 Z M 341.482671 55.107425 C 341.482671 54.361422 341.169663 53.985813 340.548864 53.985813 L 334.267834 53.985813 C 333.641817 53.985813 333.328809 54.361422 333.328809 55.107425 L 333.328809 76.861491 C 333.328809 80.268063 334.747779 81.96874 337.596154 81.96874 C 340.188904 81.96874 341.482671 80.268063 341.482671 76.861491 Z M 393.749814 95.000312 L 380.154827 95.000312 L 380.154827 56.609864 C 380.154827 54.857019 379.361873 53.985813 377.765531 53.985813 L 376.127455 53.985813 C 374.531114 53.985813 373.732943 54.857019 373.732943 56.609864 L 373.732943 95.000312 L 359.955368 95.000312 L 359.955368 49.202005 C 359.955368 45.732831 360.529217 43.312235 361.687347 41.934999 C 363.001981 40.312574 365.344325 39.498753 368.719596 39.498753 L 384.37522 39.498753 C 390.624949 39.498753 393.749814 42.73317 393.749814 49.202005 Z M 435.374679 85.015353 C 435.374679 91.671993 432.359368 95.000312 426.328744 95.000312 L 416.766346 95.000312 L 416.766346 80.466301 L 419.625153 80.466301 C 421.03369 80.466301 421.732741 79.626396 421.732741 77.936152 L 421.732741 56.797669 C 421.732741 55.107425 421.31018 54.26752 420.470275 54.26752 C 419.625153 54.26752 419.046088 55.216978 418.73308 57.126328 L 411.935587 95.000312 L 398.533621 95.000312 L 404.251237 64.017723 L 401.580234 64.017723 C 399.483079 64.017723 398.439719 62.984797 398.439719 60.92416 L 398.439719 39.498753 L 412.029489 39.498753 L 412.029489 59.093062 L 414.747443 48.356883 C 416.249882 42.451463 419.4843 39.498753 424.450695 39.498753 L 425.154964 39.498753 C 431.968107 39.498753 435.374679 43.656544 435.374679 51.96691 Z M 484.829965 75.124296 L 461.860385 75.124296 L 461.860385 60.642452 L 484.829965 60.642452 Z M 546.049141 95.000312 L 511.310454 95.000312 L 511.310454 49.202005 C 511.310454 45.732831 511.889519 43.312235 513.047649 41.934999 C 514.357066 40.312574 516.704628 39.498753 520.079899 39.498753 L 536.66933 39.498753 C 542.924276 39.498753 546.049141 42.73317 546.049141 49.202005 Z M 532.501105 56.609864 C 532.501105 54.857019 531.702934 53.985813 530.111809 53.985813 L 527.482541 53.985813 C 525.891416 53.985813 525.093246 54.857019 525.093246 56.609864 L 525.093246 80.513252 L 532.501105 80.513252 Z M 564.187962 64.111626 L 550.733829 64.111626 L 550.733829 39.498753 L 564.187962 39.498753 Z M 600.658627 95.000312 L 568.966553 95.000312 L 568.966553 80.513252 L 579.514927 80.513252 C 582.608491 80.513252 584.157881 78.687372 584.157881 75.030393 L 584.157881 58.388794 C 584.157881 56.766368 583.876174 55.623889 583.31276 54.966571 C 582.749345 54.314471 581.669467 53.985813 580.078342 53.985813 L 568.966553 53.985813 L 568.966553 39.498753 L 587.204494 39.498753 C 594.361947 39.498753 597.935456 43.734796 597.935456 52.201666 L 597.935456 71.18561 C 597.935456 76.094621 596.109576 79.203835 592.452597 80.513252 L 600.658627 80.513252 Z M 618.515742 95.000312 L 604.967706 95.000312 L 604.967706 39.498753 L 618.515742 39.498753 Z M 636.372856 55.248279 L 638.485661 55.248279 C 640.014184 55.248279 640.781054 54.424024 640.781054 52.765081 L 640.781054 39.498753 L 653.296163 39.498753 L 653.296163 55.060474 C 653.296163 61.529309 650.499957 64.763726 644.907544 64.763726 L 636.372856 64.763726 L 636.372856 77.983103 C 636.372856 79.673347 637.077124 80.513252 638.485661 80.513252 L 655.591556 80.513252 C 656.968791 80.513252 657.657409 79.673347 657.657409 77.983103 L 657.657409 39.498753 L 670.782884 39.498753 L 670.782884 82.391301 C 670.782884 86.204784 669.796908 89.235746 667.830174 91.484188 C 665.76432 93.826532 662.842911 95.000312 659.060729 95.000312 L 635.016487 95.000312 C 627.201717 95.000312 623.294332 90.79557 623.294332 82.391301 L 623.294332 39.498753 L 636.372856 39.498753 Z M 709.361137 95.000312 L 695.76615 95.000312 L 695.76615 56.609864 C 695.76615 54.857019 694.96798 53.985813 693.376855 53.985813 L 691.733562 53.985813 C 690.142437 53.985813 689.344267 54.857019 689.344267 56.609864 L 689.344267 95.000312 L 675.561475 95.000312 L 675.561475 49.202005 C 675.561475 45.732831 676.14054 43.312235 677.29867 41.934999 C 678.608087 40.312574 680.955648 39.498753 684.325703 39.498753 L 699.986543 39.498753 C 706.236273 39.498753 709.361137 42.73317 709.361137 49.202005 Z M 770.1108 95.000312 L 735.37733 95.000312 L 735.37733 49.202005 C 735.37733 45.732831 735.951179 43.312235 737.109309 41.934999 C 738.423943 40.312574 740.766287 39.498753 744.141558 39.498753 L 760.736206 39.498753 C 766.985936 39.498753 770.1108 42.73317 770.1108 49.202005 Z M 756.562764 56.609864 C 756.562764 54.857019 755.764594 53.985813 754.173469 53.985813 L 751.549417 53.985813 C 749.953076 53.985813 749.154905 54.857019 749.154905 56.609864 L 749.154905 80.513252 L 756.562764 80.513252 Z M 788.249622 64.111626 L 774.795489 64.111626 L 774.795489 39.498753 L 788.249622 39.498753 Z M 826.123607 84.217182 C 826.123607 91.405936 822.638783 95.000312 815.674352 95.000312 L 793.127332 95.000312 L 793.127332 80.513252 L 809.904568 80.513252 C 811.751316 80.513252 812.669473 79.422941 812.669473 77.231884 L 812.669473 56.281206 C 812.669473 54.747466 811.970422 53.985813 810.561885 53.985813 L 808.689053 53.985813 C 807.40572 53.985813 806.764053 54.778767 806.764053 56.375108 L 806.764053 64.52897 L 793.033429 64.52897 L 793.033429 49.342859 C 793.033429 42.780121 796.189595 39.498753 802.501926 39.498753 L 816.373403 39.498753 C 819.310463 39.498753 821.673674 40.406476 823.452604 42.216707 C 825.23675 44.063455 826.123607 46.4371 826.123607 49.342859 Z M 844.314596 64.111626 L 830.860463 64.111626 L 830.860463 39.498753 L 844.314596 39.498753 Z M 883.451047 80.372399 C 883.451047 90.122602 879.454977 95.000312 871.452402 95.000312 L 848.154163 95.000312 L 848.154163 80.513252 L 851.435531 80.513252 L 851.435531 39.498753 L 864.983567 39.498753 L 864.983567 80.513252 L 867.701521 80.513252 C 869.266562 80.513252 870.049082 79.438591 870.049082 77.278835 L 870.049082 39.498753 L 883.451047 39.498753 Z M 923.672593 78.358713 C 923.672593 83.794621 922.138853 88.140217 919.07659 91.390285 C 915.920425 94.734256 911.658297 96.408849 906.279774 96.408849 C 900.749964 96.408849 896.357416 94.781207 893.107348 91.531139 C 889.85728 88.281071 888.234855 83.888523 888.234855 78.358713 L 888.234855 48.356883 C 888.234855 46.765758 888.391359 45.404173 888.704367 44.28256 C 889.017375 43.155731 889.518188 42.242791 890.201589 41.538522 C 890.890207 40.834254 891.787497 40.317791 892.898676 39.994349 C 894.009855 39.66569 895.361007 39.498753 896.952132 39.498753 L 914.861414 39.498753 C 920.735533 39.498753 923.672593 42.451463 923.672593 48.356883 Z M 909.983704 55.107425 C 909.983704 54.361422 909.670696 53.985813 909.044679 53.985813 L 902.763649 53.985813 C 902.14285 53.985813 901.829842 54.361422 901.829842 55.107425 L 901.829842 76.861491 C 901.829842 80.268063 903.248812 81.96874 906.091969 81.96874 C 908.689937 81.96874 909.983704 80.268063 909.983704 76.861491 Z M 909.983704 55.107425 " stroke="#cf4545" stroke-width="11.76" stroke-opacity="1" stroke-miterlimit="4"/></g><g fill="#ffcf7e" fill-opacity="1"><g transform="translate(27.903233, 85.753672)"><g><path d="M 27.796875 0 L 1.796875 0 L 1.796875 -34.296875 C 1.796875 -36.890625 2.226562 -38.703125 3.09375 -39.734375 C 4.070312 -40.953125 5.828125 -41.5625 8.359375 -41.5625 L 20.78125 -41.5625 C 25.457031 -41.5625 27.796875 -39.140625 27.796875 -34.296875 Z M 17.65625 -28.75 C 17.65625 -30.0625 17.054688 -30.71875 15.859375 -30.71875 L 13.90625 -30.71875 C 12.707031 -30.71875 12.109375 -30.0625 12.109375 -28.75 L 12.109375 -10.84375 L 17.65625 -10.84375 Z M 17.65625 -28.75 "/></g></g><g transform="translate(57.491839, 85.753672)"><g><path d="M 11.796875 -23.125 L 1.71875 -23.125 L 1.71875 -41.5625 L 11.796875 -41.5625 Z M 11.796875 -23.125 "/></g></g><g transform="translate(71.075221, 85.753672)"><g><path d="M 11.796875 -23.125 L 1.71875 -23.125 L 1.71875 -41.5625 L 11.796875 -41.5625 Z M 11.796875 -23.125 "/></g></g><g transform="translate(84.658602, 85.753672)"><g><path d="M 22.25 0 L 11.96875 0 L 11.96875 -29 C 11.96875 -30.144531 11.375 -30.71875 10.1875 -30.71875 L 1.09375 -30.71875 L 1.09375 -41.5625 L 14.921875 -41.5625 C 17.066406 -41.5625 18.832031 -40.867188 20.21875 -39.484375 C 21.570312 -38.128906 22.25 -36.363281 22.25 -34.1875 Z M 22.25 0 "/></g></g><g transform="translate(108.701539, 85.753672)"><g><path d="M 11.9375 0 L 1.796875 0 L 1.796875 -41.5625 L 11.9375 -41.5625 Z M 11.9375 0 "/></g></g><g transform="translate(122.425317, 85.753672)"><g><path d="M 25.515625 0 L 1.796875 0 L 1.796875 -10.84375 L 9.6875 -10.84375 C 12 -10.84375 13.15625 -12.210938 13.15625 -14.953125 L 13.15625 -27.421875 C 13.15625 -28.628906 12.945312 -29.476562 12.53125 -29.96875 C 12.113281 -30.46875 11.304688 -30.71875 10.109375 -30.71875 L 1.796875 -30.71875 L 1.796875 -41.5625 L 15.4375 -41.5625 C 20.800781 -41.5625 23.484375 -38.390625 23.484375 -32.046875 L 23.484375 -17.828125 C 23.484375 -14.160156 22.113281 -11.832031 19.375 -10.84375 L 25.515625 -10.84375 Z M 25.515625 0 "/></g></g><g transform="translate(149.381485, 85.753672)"><g><path d="M 11.796875 -23.125 L 1.71875 -23.125 L 1.71875 -41.5625 L 11.796875 -41.5625 Z M 11.796875 -23.125 "/></g></g><g transform="translate(162.964866, 85.753672)"><g><path d="M 2 0 L 2 -10.84375 L 13.859375 -10.875 L 7.234375 -24.296875 C 3.328125 -32.203125 1.101562 -37.957031 0.5625 -41.5625 L 11.34375 -41.5625 C 12.769531 -35.757812 14.769531 -30.625 17.34375 -26.15625 C 17.738281 -26.40625 17.984375 -26.882812 18.078125 -27.59375 C 18.148438 -28.03125 18.1875 -28.554688 18.1875 -29.171875 L 18.1875 -41.5625 L 28.390625 -41.5625 L 28.390625 -27.484375 C 28.390625 -25.359375 27.75 -23.320312 26.46875 -21.375 C 25.207031 -19.476562 23.628906 -18.03125 21.734375 -17.03125 C 26.148438 -8.226562 28.367188 -2.550781 28.390625 0 Z M 2 0 "/></g></g><g transform="translate(193.150159, 85.753672)"><g/></g><g transform="translate(209.050086, 85.753672)"><g><path d="M 27.796875 0 L 1.796875 0 L 1.796875 -34.296875 C 1.796875 -36.890625 2.226562 -38.703125 3.09375 -39.734375 C 4.070312 -40.953125 5.828125 -41.5625 8.359375 -41.5625 L 20.78125 -41.5625 C 25.457031 -41.5625 27.796875 -39.140625 27.796875 -34.296875 Z M 17.65625 -28.75 C 17.65625 -30.0625 17.054688 -30.71875 15.859375 -30.71875 L 13.90625 -30.71875 C 12.707031 -30.71875 12.109375 -30.0625 12.109375 -28.75 L 12.109375 -10.84375 L 17.65625 -10.84375 Z M 17.65625 -28.75 "/></g></g><g transform="translate(238.638693, 85.753672)"><g><path d="M 11.796875 -23.125 L 1.71875 -23.125 L 1.71875 -41.5625 L 11.796875 -41.5625 Z M 11.796875 -23.125 "/></g></g><g transform="translate(252.222074, 85.753672)"><g><path d="M 28.328125 -12.46875 C 28.328125 -8.394531 27.179688 -5.140625 24.890625 -2.703125 C 22.523438 -0.203125 19.332031 1.046875 15.3125 1.046875 C 11.164062 1.046875 7.875 -0.164062 5.4375 -2.59375 C 3.007812 -5.03125 1.796875 -8.320312 1.796875 -12.46875 L 1.796875 -34.921875 C 1.796875 -36.117188 1.910156 -37.140625 2.140625 -37.984375 C 2.378906 -38.828125 2.753906 -39.507812 3.265625 -40.03125 C 3.773438 -40.5625 4.445312 -40.945312 5.28125 -41.1875 C 6.113281 -41.4375 7.125 -41.5625 8.3125 -41.5625 L 21.734375 -41.5625 C 26.128906 -41.5625 28.328125 -39.347656 28.328125 -34.921875 Z M 18.078125 -29.875 C 18.078125 -30.4375 17.84375 -30.71875 17.375 -30.71875 L 12.671875 -30.71875 C 12.203125 -30.71875 11.96875 -30.4375 11.96875 -29.875 L 11.96875 -13.578125 C 11.96875 -11.035156 13.035156 -9.765625 15.171875 -9.765625 C 17.109375 -9.765625 18.078125 -11.035156 18.078125 -13.578125 Z M 18.078125 -29.875 "/></g></g><g transform="translate(282.337168, 85.753672)"><g><path d="M 27.09375 0 L 16.921875 0 L 16.921875 -28.75 C 16.921875 -30.0625 16.320312 -30.71875 15.125 -30.71875 L 13.90625 -30.71875 C 12.707031 -30.71875 12.109375 -30.0625 12.109375 -28.75 L 12.109375 0 L 1.796875 0 L 1.796875 -34.296875 C 1.796875 -36.890625 2.226562 -38.703125 3.09375 -39.734375 C 4.070312 -40.953125 5.828125 -41.5625 8.359375 -41.5625 L 20.078125 -41.5625 C 24.753906 -41.5625 27.09375 -39.140625 27.09375 -34.296875 Z M 27.09375 0 "/></g></g><g transform="translate(311.223791, 85.753672)"><g><path d="M 29.375 -7.484375 C 29.375 -2.492188 27.117188 0 22.609375 0 L 15.4375 0 L 15.4375 -10.875 L 17.59375 -10.875 C 18.644531 -10.875 19.171875 -11.507812 19.171875 -12.78125 L 19.171875 -28.609375 C 19.171875 -29.867188 18.851562 -30.5 18.21875 -30.5 C 17.582031 -30.5 17.148438 -29.785156 16.921875 -28.359375 L 11.828125 0 L 1.796875 0 L 6.078125 -23.203125 L 4.078125 -23.203125 C 2.503906 -23.203125 1.71875 -23.972656 1.71875 -25.515625 L 1.71875 -41.5625 L 11.90625 -41.5625 L 11.90625 -26.890625 L 13.9375 -34.921875 C 15.0625 -39.347656 17.484375 -41.5625 21.203125 -41.5625 L 21.734375 -41.5625 C 26.828125 -41.5625 29.375 -38.445312 29.375 -32.21875 Z M 29.375 -7.484375 "/></g></g><g transform="translate(342.39186, 85.753672)"><g/></g><g transform="translate(358.291787, 85.753672)"><g><path d="M 19.34375 -14.890625 L 2.140625 -14.890625 L 2.140625 -25.734375 L 19.34375 -25.734375 Z M 19.34375 -14.890625 "/></g></g><g transform="translate(379.772484, 85.753672)"><g/></g><g transform="translate(395.672412, 85.753672)"><g><path d="M 27.796875 0 L 1.796875 0 L 1.796875 -34.296875 C 1.796875 -36.890625 2.226562 -38.703125 3.09375 -39.734375 C 4.070312 -40.953125 5.828125 -41.5625 8.359375 -41.5625 L 20.78125 -41.5625 C 25.457031 -41.5625 27.796875 -39.140625 27.796875 -34.296875 Z M 17.65625 -28.75 C 17.65625 -30.0625 17.054688 -30.71875 15.859375 -30.71875 L 13.90625 -30.71875 C 12.707031 -30.71875 12.109375 -30.0625 12.109375 -28.75 L 12.109375 -10.84375 L 17.65625 -10.84375 Z M 17.65625 -28.75 "/></g></g><g transform="translate(425.261018, 85.753672)"><g><path d="M 11.796875 -23.125 L 1.71875 -23.125 L 1.71875 -41.5625 L 11.796875 -41.5625 Z M 11.796875 -23.125 "/></g></g><g transform="translate(438.844399, 85.753672)"><g><path d="M 25.515625 0 L 1.796875 0 L 1.796875 -10.84375 L 9.6875 -10.84375 C 12 -10.84375 13.15625 -12.210938 13.15625 -14.953125 L 13.15625 -27.421875 C 13.15625 -28.628906 12.945312 -29.476562 12.53125 -29.96875 C 12.113281 -30.46875 11.304688 -30.71875 10.109375 -30.71875 L 1.796875 -30.71875 L 1.796875 -41.5625 L 15.4375 -41.5625 C 20.800781 -41.5625 23.484375 -38.390625 23.484375 -32.046875 L 23.484375 -17.828125 C 23.484375 -14.160156 22.113281 -11.832031 19.375 -10.84375 L 25.515625 -10.84375 Z M 25.515625 0 "/></g></g><g transform="translate(465.800567, 85.753672)"><g><path d="M 11.9375 0 L 1.796875 0 L 1.796875 -41.5625 L 11.9375 -41.5625 Z M 11.9375 0 "/></g></g><g transform="translate(479.524345, 85.753672)"><g><path d="M 11.578125 -29.765625 L 13.15625 -29.765625 C 14.3125 -29.765625 14.890625 -30.382812 14.890625 -31.625 L 14.890625 -41.5625 L 24.25 -41.5625 L 24.25 -29.90625 C 24.25 -25.0625 22.15625 -22.640625 17.96875 -22.640625 L 11.578125 -22.640625 L 11.578125 -12.75 C 11.578125 -11.476562 12.101562 -10.84375 13.15625 -10.84375 L 25.96875 -10.84375 C 27 -10.84375 27.515625 -11.476562 27.515625 -12.75 L 27.515625 -41.5625 L 37.34375 -41.5625 L 37.34375 -9.4375 C 37.34375 -6.582031 36.609375 -4.3125 35.140625 -2.625 C 33.597656 -0.875 31.410156 0 28.578125 0 L 10.5625 0 C 4.71875 0 1.796875 -3.144531 1.796875 -9.4375 L 1.796875 -41.5625 L 11.578125 -41.5625 Z M 11.578125 -29.765625 "/></g></g><g transform="translate(518.659928, 85.753672)"><g><path d="M 27.09375 0 L 16.921875 0 L 16.921875 -28.75 C 16.921875 -30.0625 16.320312 -30.71875 15.125 -30.71875 L 13.90625 -30.71875 C 12.707031 -30.71875 12.109375 -30.0625 12.109375 -28.75 L 12.109375 0 L 1.796875 0 L 1.796875 -34.296875 C 1.796875 -36.890625 2.226562 -38.703125 3.09375 -39.734375 C 4.070312 -40.953125 5.828125 -41.5625 8.359375 -41.5625 L 20.078125 -41.5625 C 24.753906 -41.5625 27.09375 -39.140625 27.09375 -34.296875 Z M 27.09375 0 "/></g></g><g transform="translate(547.546551, 85.753672)"><g/></g><g transform="translate(563.446478, 85.753672)"><g><path d="M 27.796875 0 L 1.796875 0 L 1.796875 -34.296875 C 1.796875 -36.890625 2.226562 -38.703125 3.09375 -39.734375 C 4.070312 -40.953125 5.828125 -41.5625 8.359375 -41.5625 L 20.78125 -41.5625 C 25.457031 -41.5625 27.796875 -39.140625 27.796875 -34.296875 Z M 17.65625 -28.75 C 17.65625 -30.0625 17.054688 -30.71875 15.859375 -30.71875 L 13.90625 -30.71875 C 12.707031 -30.71875 12.109375 -30.0625 12.109375 -28.75 L 12.109375 -10.84375 L 17.65625 -10.84375 Z M 17.65625 -28.75 "/></g></g><g transform="translate(593.035084, 85.753672)"><g><path d="M 11.796875 -23.125 L 1.71875 -23.125 L 1.71875 -41.5625 L 11.796875 -41.5625 Z M 11.796875 -23.125 "/></g></g><g transform="translate(606.618466, 85.753672)"><g><path d="M 26.578125 -8.078125 C 26.578125 -2.691406 23.96875 0 18.75 0 L 1.859375 0 L 1.859375 -10.84375 L 14.421875 -10.84375 C 15.804688 -10.84375 16.5 -11.660156 16.5 -13.296875 L 16.5 -29 C 16.5 -30.144531 15.972656 -30.71875 14.921875 -30.71875 L 13.515625 -30.71875 C 12.554688 -30.71875 12.078125 -30.117188 12.078125 -28.921875 L 12.078125 -22.8125 L 1.796875 -22.8125 L 1.796875 -34.1875 C 1.796875 -39.101562 4.15625 -41.5625 8.875 -41.5625 L 19.265625 -41.5625 C 21.472656 -41.5625 23.242188 -40.882812 24.578125 -39.53125 C 25.910156 -38.144531 26.578125 -36.363281 26.578125 -34.1875 Z M 26.578125 -8.078125 "/></g></g><g transform="translate(635.0137, 85.753672)"><g><path d="M 11.796875 -23.125 L 1.71875 -23.125 L 1.71875 -41.5625 L 11.796875 -41.5625 Z M 11.796875 -23.125 "/></g></g><g transform="translate(648.597081, 85.753672)"><g><path d="M 27.515625 -10.953125 C 27.515625 -3.648438 24.519531 0 18.53125 0 L 1.09375 0 L 1.09375 -10.84375 L 3.546875 -10.84375 L 3.546875 -41.5625 L 13.6875 -41.5625 L 13.6875 -10.84375 L 15.71875 -10.84375 C 16.894531 -10.84375 17.484375 -11.648438 17.484375 -13.265625 L 17.484375 -41.5625 L 27.515625 -41.5625 Z M 27.515625 -10.953125 "/></g></g><g transform="translate(677.904894, 85.753672)"><g><path d="M 28.328125 -12.46875 C 28.328125 -8.394531 27.179688 -5.140625 24.890625 -2.703125 C 22.523438 -0.203125 19.332031 1.046875 15.3125 1.046875 C 11.164062 1.046875 7.875 -0.164062 5.4375 -2.59375 C 3.007812 -5.03125 1.796875 -8.320312 1.796875 -12.46875 L 1.796875 -34.921875 C 1.796875 -36.117188 1.910156 -37.140625 2.140625 -37.984375 C 2.378906 -38.828125 2.753906 -39.507812 3.265625 -40.03125 C 3.773438 -40.5625 4.445312 -40.945312 5.28125 -41.1875 C 6.113281 -41.4375 7.125 -41.5625 8.3125 -41.5625 L 21.734375 -41.5625 C 26.128906 -41.5625 28.328125 -39.347656 28.328125 -34.921875 Z M 18.078125 -29.875 C 18.078125 -30.4375 17.84375 -30.71875 17.375 -30.71875 L 12.671875 -30.71875 C 12.203125 -30.71875 11.96875 -30.4375 11.96875 -29.875 L 11.96875 -13.578125 C 11.96875 -11.035156 13.035156 -9.765625 15.171875 -9.765625 C 17.109375 -9.765625 18.078125 -11.035156 18.078125 -13.578125 Z M 18.078125 -29.875 "/></g></g></g></svg>