<svg xmlns="http://www.w3.org/2000/svg" xmlns:xlink="http://www.w3.org/1999/xlink" width="983" zoomAndPan="magnify" viewBox="0 0 737.25 153.750002" height="205" preserveAspectRatio="xMidYMid meet" version="1.0"><defs><g/><clipPath id="2dea89e523"><path d="M 5.460938 17.433594 L 730.46875 17.433594 L 730.46875 153.253906 L 5.460938 153.253906 Z M 5.460938 17.433594 " clip-rule="nonzero"/></clipPath><clipPath id="43f267f820"><path d="M 5.476562 17.433594 L 730.28125 17.433594 L 730.28125 152.964844 L 5.476562 152.964844 Z M 5.476562 17.433594 " clip-rule="nonzero"/></clipPath><clipPath id="bfe8490daa"><path d="M 5.460938 0 L 730.46875 0 L 730.46875 135.816406 L 5.460938 135.816406 Z M 5.460938 0 " clip-rule="nonzero"/></clipPath><clipPath id="b66a6eaae6"><path d="M 5.476562 0 L 730.28125 0 L 730.28125 135.53125 L 5.476562 135.53125 Z M 5.476562 0 " clip-rule="nonzero"/></clipPath></defs><g clip-path="url(#2dea89e523)"><path fill="#cf4545" d="M 5.460938 17.433594 L 730.703125 17.433594 L 730.703125 153.253906 L 5.460938 153.253906 Z M 5.460938 17.433594 " fill-opacity="1" fill-rule="nonzero"/></g><g clip-path="url(#43f267f820)"><path stroke-linecap="butt" transform="matrix(0.748782, 0, 0, 0.748782, 5.477074, 17.434814)" fill="none" stroke-linejoin="miter" d="M -0.000683271 -0.00162955 L 968.201309 -0.00162955 L 968.201309 181.376153 L -0.000683271 181.376153 Z M -0.000683271 -0.00162955 " stroke="#cf4545" stroke-width="20" stroke-opacity="1" stroke-miterlimit="4"/></g><g clip-path="url(#bfe8490daa)"><path fill="#ffcf7e" d="M 5.460938 0 L 730.703125 0 L 730.703125 135.816406 L 5.460938 135.816406 Z M 5.460938 0 " fill-opacity="1" fill-rule="nonzero"/></g><g clip-path="url(#b66a6eaae6)"><path stroke-linecap="butt" transform="matrix(0.748782, 0, 0, 0.748782, 5.477074, 0.00000698864)" fill="none" stroke-linejoin="miter" d="M -0.000683271 -0.00000933333 L 968.201309 -0.00000933333 L 968.201309 181.372557 L -0.000683271 181.372557 Z M -0.000683271 -0.00000933333 " stroke="#cf4545" stroke-width="20" stroke-opacity="1" stroke-miterlimit="4"/></g><path stroke-linecap="butt" transform="matrix(0.748782, 0, 0, 0.748782, 14.600645, 14.61934)" fill="none" stroke-linejoin="miter" d="M 158.341609 95.000312 L 123.608139 95.000312 L 123.608139 49.202005 C 123.608139 45.732831 124.187204 43.312235 125.345334 41.934999 C 126.654752 40.312574 129.002313 39.498753 132.377584 39.498753 L 148.967015 39.498753 C 155.216745 39.498753 158.341609 42.73317 158.341609 49.202005 Z M 144.79879 56.609864 C 144.79879 54.857019 144.00062 53.985813 142.404278 53.985813 L 139.780226 53.985813 C 138.189102 53.985813 137.390931 54.857019 137.390931 56.609864 L 137.390931 80.513252 L 144.79879 80.513252 Z M 176.485648 64.111626 L 163.031514 64.111626 L 163.031514 39.498753 L 176.485648 39.498753 Z M 216.373318 84.311084 C 216.373318 91.437236 213.436258 95.000312 207.562139 95.000312 L 190.080634 95.000312 C 187.107057 95.000312 184.858615 93.920434 183.330092 91.765895 C 181.952856 89.830461 181.264239 87.342047 181.264239 84.311084 L 181.264239 39.498753 L 194.765323 39.498753 L 194.765323 56.985474 L 197.436326 47.516978 C 198.938765 42.169755 201.672369 39.498753 205.642356 39.498753 L 208.407261 39.498753 C 213.717966 39.498753 216.373318 42.388861 216.373318 48.174295 Z M 202.924402 55.248279 C 202.924402 54.65878 202.799198 54.361422 202.548792 54.361422 C 202.360987 54.361422 202.204483 54.611829 202.07928 55.107425 L 200.107328 62.468333 L 194.765323 62.468333 L 194.765323 77.983103 C 194.765323 79.673347 195.453941 80.513252 196.82596 80.513252 L 200.811597 80.513252 C 202.220133 80.513252 202.924402 79.673347 202.924402 77.983103 Z M 251.904959 74.936491 C 251.904959 88.312372 245.498725 95.000312 232.686259 95.000312 L 226.82779 95.000312 L 226.82779 80.513252 L 230.766476 80.513252 C 233.797438 80.513252 235.858075 79.548144 236.953603 77.607493 C 237.736124 76.235474 238.127384 73.846179 238.127384 70.439607 L 238.127384 56.281206 C 238.127384 54.747466 237.344863 53.985813 235.779823 53.985813 L 221.157126 53.985813 L 221.157126 32.607357 L 234.752113 32.607357 L 234.752113 39.498753 L 244.966612 39.498753 C 249.593915 39.498753 251.904959 41.736761 251.904959 46.202344 Z M 290.248456 77.84225 C 290.248456 83.50248 289.330299 87.670705 287.48355 90.357358 C 285.235109 93.544825 281.405976 95.141166 276.001369 95.141166 C 275.031043 95.141166 274.013767 95.094215 272.954756 95.000312 L 272.954756 80.513252 C 275.328401 80.513252 276.517832 78.765624 276.517832 75.265149 L 276.517832 56.281206 C 276.517832 54.747466 275.719661 53.985813 274.12332 53.985813 L 256.688766 53.985813 L 256.688766 39.498753 L 283.310109 39.498753 C 287.937412 39.498753 290.248456 41.736761 290.248456 46.202344 Z M 270.330704 103.013321 L 256.782669 103.013321 L 256.782669 60.079038 L 270.330704 60.079038 Z M 331.920273 85.015353 C 331.920273 91.671993 328.904961 95.000312 322.874337 95.000312 L 313.311939 95.000312 L 313.311939 80.466301 L 316.170746 80.466301 C 317.579283 80.466301 318.283551 79.626396 318.283551 77.936152 L 318.283551 56.797669 C 318.283551 55.107425 317.86099 54.26752 317.015868 54.26752 C 316.170746 54.26752 315.591681 55.216978 315.278673 57.126328 L 308.486397 95.000312 L 295.079215 95.000312 L 300.79683 64.017723 L 298.125827 64.017723 C 296.028673 64.017723 294.985312 62.984797 294.985312 60.92416 L 294.985312 39.498753 L 308.580299 39.498753 L 308.580299 59.093062 L 311.298253 48.356883 C 312.795475 42.451463 316.029893 39.498753 321.001505 39.498753 L 321.700557 39.498753 C 328.513701 39.498753 331.920273 43.656544 331.920273 51.96691 Z M 381.375559 75.124296 L 358.405978 75.124296 L 358.405978 60.642452 L 381.375559 60.642452 Z M 442.594734 95.000312 L 407.861264 95.000312 L 407.861264 49.202005 C 407.861264 45.732831 408.435112 43.312235 409.593242 41.934999 C 410.907877 40.312574 413.250221 39.498753 416.625492 39.498753 L 433.22014 39.498753 C 439.469869 39.498753 442.594734 42.73317 442.594734 49.202005 Z M 429.046698 56.609864 C 429.046698 54.857019 428.248527 53.985813 426.657403 53.985813 L 424.033351 53.985813 C 422.43701 53.985813 421.638839 54.857019 421.638839 56.609864 L 421.638839 80.513252 L 429.046698 80.513252 Z M 460.733555 64.111626 L 447.279422 64.111626 L 447.279422 39.498753 L 460.733555 39.498753 Z M 497.20422 95.000312 L 465.517363 95.000312 L 465.517363 80.513252 L 476.060521 80.513252 C 479.154084 80.513252 480.703475 78.687372 480.703475 75.030393 L 480.703475 58.388794 C 480.703475 56.766368 480.421767 55.623889 479.858353 54.966571 C 479.294938 54.314471 478.220277 53.985813 476.623935 53.985813 L 465.517363 53.985813 L 465.517363 39.498753 L 483.750087 39.498753 C 490.90754 39.498753 494.486266 43.734796 494.486266 52.201666 L 494.486266 71.18561 C 494.486266 76.094621 492.655169 79.203835 488.99819 80.513252 L 497.20422 80.513252 Z M 515.061335 95.000312 L 501.513299 95.000312 L 501.513299 39.498753 L 515.061335 39.498753 Z M 532.923666 55.248279 L 535.031254 55.248279 C 536.564994 55.248279 537.326647 54.424024 537.326647 52.765081 L 537.326647 39.498753 L 549.841756 39.498753 L 549.841756 55.060474 C 549.841756 61.529309 547.04555 64.763726 541.453138 64.763726 L 532.923666 64.763726 L 532.923666 77.983103 C 532.923666 79.673347 533.622717 80.513252 535.031254 80.513252 L 552.142366 80.513252 C 553.514385 80.513252 554.203003 79.673347 554.203003 77.983103 L 554.203003 39.498753 L 567.328477 39.498753 L 567.328477 82.391301 C 567.328477 86.204784 566.342502 89.235746 564.375767 91.484188 C 562.309913 93.826532 559.388504 95.000312 555.611539 95.000312 L 531.562081 95.000312 C 523.752527 95.000312 519.845143 90.79557 519.845143 82.391301 L 519.845143 39.498753 L 532.923666 39.498753 Z M 605.90673 95.000312 L 592.311744 95.000312 L 592.311744 56.609864 C 592.311744 54.857019 591.513573 53.985813 589.922448 53.985813 L 588.279155 53.985813 C 586.688031 53.985813 585.88986 54.857019 585.88986 56.609864 L 585.88986 95.000312 L 572.107068 95.000312 L 572.107068 49.202005 C 572.107068 45.732831 572.686133 43.312235 573.844263 41.934999 C 575.153681 40.312574 577.501242 39.498753 580.876513 39.498753 L 596.532137 39.498753 C 602.781866 39.498753 605.90673 42.73317 605.90673 49.202005 Z M 666.656393 95.000312 L 631.922924 95.000312 L 631.922924 49.202005 C 631.922924 45.732831 632.501989 43.312235 633.654902 41.934999 C 634.969536 40.312574 637.31188 39.498753 640.687151 39.498753 L 657.2818 39.498753 C 663.531529 39.498753 666.656393 42.73317 666.656393 49.202005 Z M 653.108358 56.609864 C 653.108358 54.857019 652.310187 53.985813 650.719062 53.985813 L 648.095011 53.985813 C 646.498669 53.985813 645.705715 54.857019 645.705715 56.609864 L 645.705715 80.513252 L 653.108358 80.513252 Z M 684.795215 64.111626 L 671.346299 64.111626 L 671.346299 39.498753 L 684.795215 39.498753 Z M 722.674417 84.217182 C 722.674417 91.405936 719.189593 95.000312 712.219945 95.000312 L 689.672925 95.000312 L 689.672925 80.513252 L 706.455378 80.513252 C 708.296909 80.513252 709.220283 79.422941 709.220283 77.231884 L 709.220283 56.281206 C 709.220283 54.747466 708.516015 53.985813 707.107479 53.985813 L 705.234646 53.985813 C 703.951313 53.985813 703.314863 54.778767 703.314863 56.375108 L 703.314863 64.52897 L 689.579023 64.52897 L 689.579023 49.342859 C 689.579023 42.780121 692.735188 39.498753 699.047519 39.498753 L 712.924213 39.498753 C 715.861273 39.498753 718.219267 40.406476 719.998197 42.216707 C 721.782343 44.063455 722.674417 46.4371 722.674417 49.342859 Z M 740.86019 64.111626 L 727.406056 64.111626 L 727.406056 39.498753 L 740.86019 39.498753 Z M 780.001857 80.372399 C 780.001857 90.122602 776.00057 95.000312 767.997995 95.000312 L 744.704973 95.000312 L 744.704973 80.513252 L 747.986341 80.513252 L 747.986341 39.498753 L 761.52916 39.498753 L 761.52916 80.513252 L 764.252331 80.513252 C 765.812155 80.513252 766.594675 79.438591 766.594675 77.278835 L 766.594675 39.498753 L 780.001857 39.498753 Z M 820.218186 78.358713 C 820.218186 83.794621 818.689663 88.140217 815.6274 91.390285 C 812.471235 94.734256 808.203891 96.408849 802.830584 96.408849 C 797.295557 96.408849 792.908226 94.781207 789.658158 91.531139 C 786.408091 88.281071 784.780448 83.888523 784.780448 78.358713 L 784.780448 48.356883 C 784.780448 46.765758 784.936952 45.404173 785.24996 44.28256 C 785.562969 43.155731 786.063782 42.242791 786.752399 41.538522 C 787.435801 40.834254 788.338307 40.317791 789.444269 39.994349 C 790.555448 39.66569 791.9066 39.498753 793.497725 39.498753 L 811.407007 39.498753 C 817.281127 39.498753 820.218186 42.451463 820.218186 48.356883 Z M 806.529297 55.107425 C 806.529297 54.361422 806.216289 53.985813 805.595489 53.985813 L 799.314459 53.985813 C 798.688443 53.985813 798.375435 54.361422 798.375435 55.107425 L 798.375435 76.861491 C 798.375435 80.268063 799.794405 81.96874 802.642779 81.96874 C 805.23553 81.96874 806.529297 80.268063 806.529297 76.861491 Z M 806.529297 55.107425 " stroke="#cf4545" stroke-width="11.76" stroke-opacity="1" stroke-miterlimit="4"/><g fill="#ffcf7e" fill-opacity="1"><g transform="translate(105.367117, 85.753672)"><g><path d="M 27.796875 0 L 1.796875 0 L 1.796875 -34.296875 C 1.796875 -36.890625 2.226562 -38.703125 3.09375 -39.734375 C 4.070312 -40.953125 5.828125 -41.5625 8.359375 -41.5625 L 20.78125 -41.5625 C 25.457031 -41.5625 27.796875 -39.140625 27.796875 -34.296875 Z M 17.65625 -28.75 C 17.65625 -30.0625 17.054688 -30.71875 15.859375 -30.71875 L 13.90625 -30.71875 C 12.707031 -30.71875 12.109375 -30.0625 12.109375 -28.75 L 12.109375 -10.84375 L 17.65625 -10.84375 Z M 17.65625 -28.75 "/></g></g><g transform="translate(134.955723, 85.753672)"><g><path d="M 11.796875 -23.125 L 1.71875 -23.125 L 1.71875 -41.5625 L 11.796875 -41.5625 Z M 11.796875 -23.125 "/></g></g><g transform="translate(148.539105, 85.753672)"><g><path d="M 28.078125 -8 C 28.078125 -2.664062 25.878906 0 21.484375 0 L 8.390625 0 C 6.171875 0 4.484375 -0.804688 3.328125 -2.421875 C 2.304688 -3.867188 1.796875 -5.726562 1.796875 -8 L 1.796875 -41.5625 L 11.90625 -41.5625 L 11.90625 -28.46875 L 13.90625 -35.5625 C 15.019531 -39.5625 17.066406 -41.5625 20.046875 -41.5625 L 22.109375 -41.5625 C 26.085938 -41.5625 28.078125 -39.394531 28.078125 -35.0625 Z M 18 -29.765625 C 18 -30.210938 17.910156 -30.4375 17.734375 -30.4375 C 17.585938 -30.4375 17.46875 -30.25 17.375 -29.875 L 15.90625 -24.359375 L 11.90625 -24.359375 L 11.90625 -12.75 C 11.90625 -11.476562 12.414062 -10.84375 13.4375 -10.84375 L 16.421875 -10.84375 C 17.472656 -10.84375 18 -11.476562 18 -12.75 Z M 18 -29.765625 "/></g></g><g transform="translate(178.408504, 85.753672)"><g><path d="M 24.8125 -15.03125 C 24.8125 -5.007812 20.015625 0 10.421875 0 L 6.03125 0 L 6.03125 -10.84375 L 8.984375 -10.84375 C 11.253906 -10.84375 12.800781 -11.566406 13.625 -13.015625 C 14.207031 -14.046875 14.5 -15.835938 14.5 -18.390625 L 14.5 -29 C 14.5 -30.144531 13.914062 -30.71875 12.75 -30.71875 L 1.796875 -30.71875 L 1.796875 -46.71875 L 11.96875 -46.71875 L 11.96875 -41.5625 L 19.625 -41.5625 C 23.082031 -41.5625 24.8125 -39.890625 24.8125 -36.546875 Z M 24.8125 -15.03125 "/></g></g><g transform="translate(205.013681, 85.753672)"><g><path d="M 26.921875 -12.84375 C 26.921875 -8.613281 26.234375 -5.488281 24.859375 -3.46875 C 23.171875 -1.082031 20.300781 0.109375 16.25 0.109375 C 15.53125 0.109375 14.769531 0.0703125 13.96875 0 L 13.96875 -10.84375 C 15.75 -10.84375 16.640625 -12.15625 16.640625 -14.78125 L 16.640625 -29 C 16.640625 -30.144531 16.039062 -30.71875 14.84375 -30.71875 L 1.796875 -30.71875 L 1.796875 -41.5625 L 21.734375 -41.5625 C 25.191406 -41.5625 26.921875 -39.890625 26.921875 -36.546875 Z M 12 6 L 1.859375 6 L 1.859375 -26.15625 L 12 -26.15625 Z M 12 6 "/></g></g><g transform="translate(233.759906, 85.753672)"><g><path d="M 29.375 -7.484375 C 29.375 -2.492188 27.117188 0 22.609375 0 L 15.4375 0 L 15.4375 -10.875 L 17.59375 -10.875 C 18.644531 -10.875 19.171875 -11.507812 19.171875 -12.78125 L 19.171875 -28.609375 C 19.171875 -29.867188 18.851562 -30.5 18.21875 -30.5 C 17.582031 -30.5 17.148438 -29.785156 16.921875 -28.359375 L 11.828125 0 L 1.796875 0 L 6.078125 -23.203125 L 4.078125 -23.203125 C 2.503906 -23.203125 1.71875 -23.972656 1.71875 -25.515625 L 1.71875 -41.5625 L 11.90625 -41.5625 L 11.90625 -26.890625 L 13.9375 -34.921875 C 15.0625 -39.347656 17.484375 -41.5625 21.203125 -41.5625 L 21.734375 -41.5625 C 26.828125 -41.5625 29.375 -38.445312 29.375 -32.21875 Z M 29.375 -7.484375 "/></g></g><g transform="translate(264.927976, 85.753672)"><g/></g><g transform="translate(280.827903, 85.753672)"><g><path d="M 19.34375 -14.890625 L 2.140625 -14.890625 L 2.140625 -25.734375 L 19.34375 -25.734375 Z M 19.34375 -14.890625 "/></g></g><g transform="translate(302.3086, 85.753672)"><g/></g><g transform="translate(318.208528, 85.753672)"><g><path d="M 27.796875 0 L 1.796875 0 L 1.796875 -34.296875 C 1.796875 -36.890625 2.226562 -38.703125 3.09375 -39.734375 C 4.070312 -40.953125 5.828125 -41.5625 8.359375 -41.5625 L 20.78125 -41.5625 C 25.457031 -41.5625 27.796875 -39.140625 27.796875 -34.296875 Z M 17.65625 -28.75 C 17.65625 -30.0625 17.054688 -30.71875 15.859375 -30.71875 L 13.90625 -30.71875 C 12.707031 -30.71875 12.109375 -30.0625 12.109375 -28.75 L 12.109375 -10.84375 L 17.65625 -10.84375 Z M 17.65625 -28.75 "/></g></g><g transform="translate(347.797134, 85.753672)"><g><path d="M 11.796875 -23.125 L 1.71875 -23.125 L 1.71875 -41.5625 L 11.796875 -41.5625 Z M 11.796875 -23.125 "/></g></g><g transform="translate(361.380515, 85.753672)"><g><path d="M 25.515625 0 L 1.796875 0 L 1.796875 -10.84375 L 9.6875 -10.84375 C 12 -10.84375 13.15625 -12.210938 13.15625 -14.953125 L 13.15625 -27.421875 C 13.15625 -28.628906 12.945312 -29.476562 12.53125 -29.96875 C 12.113281 -30.46875 11.304688 -30.71875 10.109375 -30.71875 L 1.796875 -30.71875 L 1.796875 -41.5625 L 15.4375 -41.5625 C 20.800781 -41.5625 23.484375 -38.390625 23.484375 -32.046875 L 23.484375 -17.828125 C 23.484375 -14.160156 22.113281 -11.832031 19.375 -10.84375 L 25.515625 -10.84375 Z M 25.515625 0 "/></g></g><g transform="translate(388.336683, 85.753672)"><g><path d="M 11.9375 0 L 1.796875 0 L 1.796875 -41.5625 L 11.9375 -41.5625 Z M 11.9375 0 "/></g></g><g transform="translate(402.060461, 85.753672)"><g><path d="M 11.578125 -29.765625 L 13.15625 -29.765625 C 14.3125 -29.765625 14.890625 -30.382812 14.890625 -31.625 L 14.890625 -41.5625 L 24.25 -41.5625 L 24.25 -29.90625 C 24.25 -25.0625 22.15625 -22.640625 17.96875 -22.640625 L 11.578125 -22.640625 L 11.578125 -12.75 C 11.578125 -11.476562 12.101562 -10.84375 13.15625 -10.84375 L 25.96875 -10.84375 C 27 -10.84375 27.515625 -11.476562 27.515625 -12.75 L 27.515625 -41.5625 L 37.34375 -41.5625 L 37.34375 -9.4375 C 37.34375 -6.582031 36.609375 -4.3125 35.140625 -2.625 C 33.597656 -0.875 31.410156 0 28.578125 0 L 10.5625 0 C 4.71875 0 1.796875 -3.144531 1.796875 -9.4375 L 1.796875 -41.5625 L 11.578125 -41.5625 Z M 11.578125 -29.765625 "/></g></g><g transform="translate(441.196044, 85.753672)"><g><path d="M 27.09375 0 L 16.921875 0 L 16.921875 -28.75 C 16.921875 -30.0625 16.320312 -30.71875 15.125 -30.71875 L 13.90625 -30.71875 C 12.707031 -30.71875 12.109375 -30.0625 12.109375 -28.75 L 12.109375 0 L 1.796875 0 L 1.796875 -34.296875 C 1.796875 -36.890625 2.226562 -38.703125 3.09375 -39.734375 C 4.070312 -40.953125 5.828125 -41.5625 8.359375 -41.5625 L 20.078125 -41.5625 C 24.753906 -41.5625 27.09375 -39.140625 27.09375 -34.296875 Z M 27.09375 0 "/></g></g><g transform="translate(470.082666, 85.753672)"><g/></g><g transform="translate(485.982594, 85.753672)"><g><path d="M 27.796875 0 L 1.796875 0 L 1.796875 -34.296875 C 1.796875 -36.890625 2.226562 -38.703125 3.09375 -39.734375 C 4.070312 -40.953125 5.828125 -41.5625 8.359375 -41.5625 L 20.78125 -41.5625 C 25.457031 -41.5625 27.796875 -39.140625 27.796875 -34.296875 Z M 17.65625 -28.75 C 17.65625 -30.0625 17.054688 -30.71875 15.859375 -30.71875 L 13.90625 -30.71875 C 12.707031 -30.71875 12.109375 -30.0625 12.109375 -28.75 L 12.109375 -10.84375 L 17.65625 -10.84375 Z M 17.65625 -28.75 "/></g></g><g transform="translate(515.5712, 85.753672)"><g><path d="M 11.796875 -23.125 L 1.71875 -23.125 L 1.71875 -41.5625 L 11.796875 -41.5625 Z M 11.796875 -23.125 "/></g></g><g transform="translate(529.154581, 85.753672)"><g><path d="M 26.578125 -8.078125 C 26.578125 -2.691406 23.96875 0 18.75 0 L 1.859375 0 L 1.859375 -10.84375 L 14.421875 -10.84375 C 15.804688 -10.84375 16.5 -11.660156 16.5 -13.296875 L 16.5 -29 C 16.5 -30.144531 15.972656 -30.71875 14.921875 -30.71875 L 13.515625 -30.71875 C 12.554688 -30.71875 12.078125 -30.117188 12.078125 -28.921875 L 12.078125 -22.8125 L 1.796875 -22.8125 L 1.796875 -34.1875 C 1.796875 -39.101562 4.15625 -41.5625 8.875 -41.5625 L 19.265625 -41.5625 C 21.472656 -41.5625 23.242188 -40.882812 24.578125 -39.53125 C 25.910156 -38.144531 26.578125 -36.363281 26.578125 -34.1875 Z M 26.578125 -8.078125 "/></g></g><g transform="translate(557.549816, 85.753672)"><g><path d="M 11.796875 -23.125 L 1.71875 -23.125 L 1.71875 -41.5625 L 11.796875 -41.5625 Z M 11.796875 -23.125 "/></g></g><g transform="translate(571.133197, 85.753672)"><g><path d="M 27.515625 -10.953125 C 27.515625 -3.648438 24.519531 0 18.53125 0 L 1.09375 0 L 1.09375 -10.84375 L 3.546875 -10.84375 L 3.546875 -41.5625 L 13.6875 -41.5625 L 13.6875 -10.84375 L 15.71875 -10.84375 C 16.894531 -10.84375 17.484375 -11.648438 17.484375 -13.265625 L 17.484375 -41.5625 L 27.515625 -41.5625 Z M 27.515625 -10.953125 "/></g></g><g transform="translate(600.44101, 85.753672)"><g><path d="M 28.328125 -12.46875 C 28.328125 -8.394531 27.179688 -5.140625 24.890625 -2.703125 C 22.523438 -0.203125 19.332031 1.046875 15.3125 1.046875 C 11.164062 1.046875 7.875 -0.164062 5.4375 -2.59375 C 3.007812 -5.03125 1.796875 -8.320312 1.796875 -12.46875 L 1.796875 -34.921875 C 1.796875 -36.117188 1.910156 -37.140625 2.140625 -37.984375 C 2.378906 -38.828125 2.753906 -39.507812 3.265625 -40.03125 C 3.773438 -40.5625 4.445312 -40.945312 5.28125 -41.1875 C 6.113281 -41.4375 7.125 -41.5625 8.3125 -41.5625 L 21.734375 -41.5625 C 26.128906 -41.5625 28.328125 -39.347656 28.328125 -34.921875 Z M 18.078125 -29.875 C 18.078125 -30.4375 17.84375 -30.71875 17.375 -30.71875 L 12.671875 -30.71875 C 12.203125 -30.71875 11.96875 -30.4375 11.96875 -29.875 L 11.96875 -13.578125 C 11.96875 -11.035156 13.035156 -9.765625 15.171875 -9.765625 C 17.109375 -9.765625 18.078125 -11.035156 18.078125 -13.578125 Z M 18.078125 -29.875 "/></g></g></g></svg>