<svg xmlns="http://www.w3.org/2000/svg" xmlns:xlink="http://www.w3.org/1999/xlink" width="969" zoomAndPan="magnify" viewBox="0 0 726.75 171.000002" height="228" preserveAspectRatio="xMidYMid meet" version="1.0"><defs><g/><clipPath id="97e22e9f49"><path d="M 1.988281 34.382812 L 723.957031 34.382812 L 723.957031 169.628906 L 1.988281 169.628906 Z M 1.988281 34.382812 " clip-rule="nonzero"/></clipPath><clipPath id="758dff1b7b"><path d="M 2.003906 34.382812 L 723.765625 34.382812 L 723.765625 169.34375 L 2.003906 169.34375 Z M 2.003906 34.382812 " clip-rule="nonzero"/></clipPath><clipPath id="c6d0722cb7"><path d="M 1.988281 17.019531 L 723.957031 17.019531 L 723.957031 152.265625 L 1.988281 152.265625 Z M 1.988281 17.019531 " clip-rule="nonzero"/></clipPath><clipPath id="c8d9cc94d4"><path d="M 2.003906 17.019531 L 723.765625 17.019531 L 723.765625 151.980469 L 2.003906 151.980469 Z M 2.003906 17.019531 " clip-rule="nonzero"/></clipPath><clipPath id="3a716be4db"><path d="M 138 0 L 594 0 L 594 170.003906 L 138 170.003906 Z M 138 0 " clip-rule="nonzero"/></clipPath><clipPath id="f02b1ca2f9"><path d="M 590.082031 34.460938 L 696 34.460938 L 696 126 L 590.082031 126 Z M 590.082031 34.460938 " clip-rule="nonzero"/></clipPath><clipPath id="acf8189726"><path d="M 36.617188 34.460938 L 143 34.460938 L 143 126 L 36.617188 126 Z M 36.617188 34.460938 " clip-rule="nonzero"/></clipPath></defs><g clip-path="url(#97e22e9f49)"><path fill="#cf4545" d="M 1.988281 34.382812 L 724.1875 34.382812 L 724.1875 169.628906 L 1.988281 169.628906 Z M 1.988281 34.382812 " fill-opacity="1" fill-rule="nonzero"/></g><g clip-path="url(#758dff1b7b)"><path stroke-linecap="butt" transform="matrix(0.74564, 0, 0, 0.74564, 2.005624, 34.381197)" fill="none" stroke-linejoin="miter" d="M -0.00230334 0.00216711 L 968.204963 0.00216711 L 968.204963 181.37437 L -0.00230334 181.37437 Z M -0.00230334 0.00216711 " stroke="#cf4545" stroke-width="20" stroke-opacity="1" stroke-miterlimit="4"/></g><g clip-path="url(#c6d0722cb7)"><path fill="#ffcf7e" d="M 1.988281 17.019531 L 724.1875 17.019531 L 724.1875 152.265625 L 1.988281 152.265625 Z M 1.988281 17.019531 " fill-opacity="1" fill-rule="nonzero"/></g><g clip-path="url(#c8d9cc94d4)"><path stroke-linecap="butt" transform="matrix(0.74564, 0, 0, 0.74564, 2.005624, 17.019572)" fill="none" stroke-linejoin="miter" d="M -0.00230334 -0.0000550592 L 968.204963 -0.0000550592 L 968.204963 181.377387 L -0.00230334 181.377387 Z M -0.00230334 -0.0000550592 " stroke="#cf4545" stroke-width="20" stroke-opacity="1" stroke-miterlimit="4"/></g><g clip-path="url(#3a716be4db)"><path stroke-linecap="butt" transform="matrix(0.74564, 0, 0, 0.74564, 126.790859, 10.33957)" fill="none" stroke-linejoin="miter" d="M 162.373936 137.000006 L 112.202029 137.000006 L 112.202029 70.849785 C 112.202029 65.8415 113.040236 62.341987 114.706172 60.356485 C 116.602614 58.009507 119.986874 56.836017 124.864189 56.836017 L 148.83166 56.836017 C 157.858098 56.836017 162.373936 61.509019 162.373936 70.849785 Z M 142.80705 81.547397 C 142.80705 79.0223 141.654516 77.759751 139.354686 77.759751 L 135.561801 77.759751 C 133.256733 77.759751 132.109437 79.0223 132.109437 81.547397 L 132.109437 116.081511 L 142.80705 116.081511 Z M 188.84555 137.000006 L 169.278664 137.000006 L 169.278664 56.836017 L 188.84555 56.836017 Z M 215.044747 92.381218 L 195.614069 92.381218 L 195.614069 56.836017 L 215.044747 56.836017 Z M 254.78622 137.000006 C 254.199475 133.841015 252.926449 129.676175 250.961902 124.510727 C 248.997355 119.34004 246.325571 113.100639 242.936073 105.787286 C 242.579835 106.195912 242.307418 106.510239 242.12406 106.735507 C 241.945942 106.960775 241.830688 107.096984 241.788778 107.144133 C 241.741629 107.322252 241.710196 107.715161 241.684002 108.3281 C 241.663047 108.9358 241.652569 109.784484 241.652569 110.863675 L 241.652569 137.000006 L 222.085683 137.000006 L 222.085683 113.032535 C 222.085683 100.34942 225.988582 92.134995 233.799621 88.389259 C 226.308149 73.673493 222.132832 63.154 221.27367 56.836017 L 241.652569 56.836017 C 242.642701 61.351856 244.125279 66.113917 246.084587 71.122202 C 248.049134 76.135726 250.521843 81.458338 253.502716 87.100516 C 254.629056 86.288504 255.194845 84.617329 255.194845 82.092232 L 255.194845 56.836017 L 274.960806 56.836017 L 274.960806 83.988674 C 274.960806 88.048738 273.719212 91.998786 271.241264 95.833582 C 268.758077 99.626467 265.688145 102.513041 262.031468 104.503782 C 270.471162 121.294109 274.782687 132.122691 274.960806 137.000006 Z M 329.124672 137.000006 L 309.222503 137.000006 L 309.222503 81.075906 C 309.222503 78.865136 308.090924 77.759751 305.833005 77.759751 L 281.189729 77.759751 L 281.189729 56.836017 L 314.974696 56.836017 C 319.129058 56.836017 322.534272 58.16667 325.200817 60.833215 C 327.814974 63.447372 329.124672 66.857826 329.124672 71.054098 Z M 300.756616 137.000006 L 281.257834 137.000006 L 281.257834 87.304829 L 300.756616 87.304829 Z M 409.016244 77.759751 C 404.589465 77.759751 402.378695 79.923372 402.378695 84.255852 L 402.378695 137.000006 L 382.476526 137.000006 L 382.476526 89.808972 C 382.476526 83.627197 385.090683 79.609044 390.329474 77.759751 L 365.345677 77.759751 L 365.345677 56.836017 L 409.016244 56.836017 Z M 469.136616 122.577613 C 469.136616 132.190795 464.777941 137.000006 456.07107 137.000006 L 442.256376 137.000006 L 442.256376 116.013407 L 446.384544 116.013407 C 448.417195 116.013407 449.433521 114.792769 449.433521 112.356731 L 449.433521 81.819814 C 449.433521 79.383776 448.825821 78.163138 447.605183 78.163138 C 446.384544 78.163138 445.551576 79.54094 445.10104 82.296544 L 435.283545 137.000006 L 415.920971 137.000006 L 424.177307 92.24501 L 420.321556 92.24501 C 417.298773 92.24501 415.784763 90.757193 415.784763 87.77632 L 415.784763 56.836017 L 435.419753 56.836017 L 435.419753 85.135969 L 439.343608 69.634385 C 441.512468 61.100394 446.18547 56.836017 453.362615 56.836017 L 454.373701 56.836017 C 464.217391 56.836017 469.136616 62.839673 469.136616 74.846983 Z M 529.256988 122.577613 C 529.256988 132.190795 524.898314 137.000006 516.191442 137.000006 L 502.376749 137.000006 L 502.376749 116.013407 L 506.504916 116.013407 C 508.537567 116.013407 509.553893 114.792769 509.553893 112.356731 L 509.553893 81.819814 C 509.553893 79.383776 508.946193 78.163138 507.725555 78.163138 C 506.504916 78.163138 505.671948 79.54094 505.221412 82.296544 L 495.403917 137.000006 L 476.041343 137.000006 L 484.297679 92.24501 L 480.441928 92.24501 C 477.419145 92.24501 475.905135 90.757193 475.905135 87.77632 L 475.905135 56.836017 L 495.540126 56.836017 L 495.540126 85.135969 L 499.46398 69.634385 C 501.63284 61.100394 506.305842 56.836017 513.482987 56.836017 L 514.499312 56.836017 C 524.337763 56.836017 529.256988 62.839673 529.256988 74.846983 Z M 529.256988 122.577613 " stroke="#cf4545" stroke-width="16.986708" stroke-opacity="1" stroke-miterlimit="4"/></g><g fill="#ffcf7e" fill-opacity="1"><g transform="translate(207.879156, 112.492183)"><g><path d="M 39.984375 0 L 2.578125 0 L 2.578125 -49.328125 C 2.578125 -53.054688 3.195312 -55.660156 4.4375 -57.140625 C 5.851562 -58.890625 8.378906 -59.765625 12.015625 -59.765625 L 29.890625 -59.765625 C 36.617188 -59.765625 39.984375 -56.285156 39.984375 -49.328125 Z M 25.390625 -41.34375 C 25.390625 -43.226562 24.53125 -44.171875 22.8125 -44.171875 L 19.984375 -44.171875 C 18.273438 -44.171875 17.421875 -43.226562 17.421875 -41.34375 L 17.421875 -15.59375 L 25.390625 -15.59375 Z M 25.390625 -41.34375 "/></g></g></g><g fill="#ffcf7e" fill-opacity="1"><g transform="translate(250.435664, 112.492183)"><g><path d="M 17.171875 0 L 2.578125 0 L 2.578125 -59.765625 L 17.171875 -59.765625 Z M 17.171875 0 "/></g></g></g><g fill="#ffcf7e" fill-opacity="1"><g transform="translate(270.17421, 112.492183)"><g><path d="M 16.96875 -33.265625 L 2.46875 -33.265625 L 2.46875 -59.765625 L 16.96875 -59.765625 Z M 16.96875 -33.265625 "/></g></g></g><g fill="#ffcf7e" fill-opacity="1"><g transform="translate(289.710828, 112.492183)"><g><path d="M 27.0625 0 C 26.625 -2.351562 25.671875 -5.457031 24.203125 -9.3125 C 22.742188 -13.164062 20.75 -17.816406 18.21875 -23.265625 C 17.957031 -22.960938 17.757812 -22.726562 17.625 -22.5625 C 17.488281 -22.394531 17.398438 -22.296875 17.359375 -22.265625 C 17.328125 -22.128906 17.300781 -21.832031 17.28125 -21.375 C 17.269531 -20.925781 17.265625 -20.296875 17.265625 -19.484375 L 17.265625 0 L 2.671875 0 L 2.671875 -17.875 C 2.671875 -27.332031 5.582031 -33.457031 11.40625 -36.25 C 5.820312 -47.21875 2.707031 -55.054688 2.0625 -59.765625 L 17.265625 -59.765625 C 18.003906 -56.398438 19.101562 -52.847656 20.5625 -49.109375 C 22.03125 -45.378906 23.875 -41.410156 26.09375 -37.203125 C 26.9375 -37.804688 27.359375 -39.050781 27.359375 -40.9375 L 27.359375 -59.765625 L 42.109375 -59.765625 L 42.109375 -39.53125 C 42.109375 -36.5 41.179688 -33.550781 39.328125 -30.6875 C 37.472656 -27.863281 35.1875 -25.710938 32.46875 -24.234375 C 38.757812 -11.710938 41.972656 -3.632812 42.109375 0 Z M 27.0625 0 "/></g></g></g><g fill="#ffcf7e" fill-opacity="1"><g transform="translate(333.882767, 112.492183)"><g><path d="M 38.3125 0 L 23.46875 0 L 23.46875 -41.703125 C 23.46875 -43.347656 22.628906 -44.171875 20.953125 -44.171875 L 2.578125 -44.171875 L 2.578125 -59.765625 L 27.765625 -59.765625 C 30.859375 -59.765625 33.398438 -58.773438 35.390625 -56.796875 C 37.335938 -54.835938 38.3125 -52.296875 38.3125 -49.171875 Z M 17.171875 0 L 2.625 0 L 2.625 -37.0625 L 17.171875 -37.0625 Z M 17.171875 0 "/></g></g></g><g fill="#ffcf7e" fill-opacity="1"><g transform="translate(374.773362, 112.492183)"><g/></g></g><g fill="#ffcf7e" fill-opacity="1"><g transform="translate(397.641806, 112.492183)"><g><path d="M 34.125 -44.171875 C 30.820312 -44.171875 29.171875 -42.554688 29.171875 -39.328125 L 29.171875 0 L 14.34375 0 L 14.34375 -35.1875 C 14.34375 -39.800781 16.289062 -42.796875 20.1875 -44.171875 L 1.5625 -44.171875 L 1.5625 -59.765625 L 34.125 -59.765625 Z M 34.125 -44.171875 "/></g></g></g><g fill="#ffcf7e" fill-opacity="1"><g transform="translate(434.342378, 112.492183)"><g><path d="M 42.25 -10.75 C 42.25 -3.582031 39.003906 0 32.515625 0 L 22.21875 0 L 22.21875 -15.65625 L 25.296875 -15.65625 C 26.804688 -15.65625 27.5625 -16.5625 27.5625 -18.375 L 27.5625 -41.140625 C 27.5625 -42.960938 27.109375 -43.875 26.203125 -43.875 C 25.296875 -43.875 24.671875 -42.847656 24.328125 -40.796875 L 17.015625 0 L 2.578125 0 L 8.734375 -33.375 L 5.859375 -33.375 C 3.597656 -33.375 2.46875 -34.484375 2.46875 -36.703125 L 2.46875 -59.765625 L 17.109375 -59.765625 L 17.109375 -38.671875 L 20.046875 -50.234375 C 21.660156 -56.585938 25.140625 -59.765625 30.484375 -59.765625 L 31.25 -59.765625 C 38.582031 -59.765625 42.25 -55.289062 42.25 -46.34375 Z M 42.25 -10.75 "/></g></g></g><g fill="#ffcf7e" fill-opacity="1"><g transform="translate(479.170585, 112.492183)"><g><path d="M 42.25 -10.75 C 42.25 -3.582031 39.003906 0 32.515625 0 L 22.21875 0 L 22.21875 -15.65625 L 25.296875 -15.65625 C 26.804688 -15.65625 27.5625 -16.5625 27.5625 -18.375 L 27.5625 -41.140625 C 27.5625 -42.960938 27.109375 -43.875 26.203125 -43.875 C 25.296875 -43.875 24.671875 -42.847656 24.328125 -40.796875 L 17.015625 0 L 2.578125 0 L 8.734375 -33.375 L 5.859375 -33.375 C 3.597656 -33.375 2.46875 -34.484375 2.46875 -36.703125 L 2.46875 -59.765625 L 17.109375 -59.765625 L 17.109375 -38.671875 L 20.046875 -50.234375 C 21.660156 -56.585938 25.140625 -59.765625 30.484375 -59.765625 L 31.25 -59.765625 C 38.582031 -59.765625 42.25 -55.289062 42.25 -46.34375 Z M 42.25 -10.75 "/></g></g></g><g clip-path="url(#f02b1ca2f9)"><path fill="#cf4545" d="M 694.574219 115.078125 L 649.21875 38.039062 C 649.0625 37.769531 648.886719 37.511719 648.691406 37.261719 C 648.5 37.015625 648.292969 36.78125 648.070312 36.5625 C 647.847656 36.34375 647.609375 36.136719 647.359375 35.949219 C 647.113281 35.757812 646.851562 35.585938 646.578125 35.429688 C 646.308594 35.273438 646.027344 35.136719 645.734375 35.019531 C 645.445312 34.898438 645.148438 34.800781 644.847656 34.71875 C 644.542969 34.640625 644.238281 34.578125 643.925781 34.539062 C 643.617188 34.496094 643.304688 34.476562 642.992188 34.476562 C 642.679688 34.476562 642.367188 34.496094 642.054688 34.539062 C 641.746094 34.578125 641.4375 34.640625 641.136719 34.71875 C 640.832031 34.800781 640.539062 34.898438 640.246094 35.019531 C 639.957031 35.136719 639.675781 35.273438 639.40625 35.429688 C 639.132812 35.585938 638.871094 35.757812 638.625 35.949219 C 638.375 36.136719 638.136719 36.34375 637.914062 36.5625 C 637.691406 36.78125 637.484375 37.015625 637.292969 37.261719 C 637.097656 37.511719 636.921875 37.769531 636.765625 38.039062 L 591.410156 115.078125 C 591.089844 115.628906 590.84375 116.207031 590.671875 116.824219 C 590.503906 117.4375 590.414062 118.0625 590.410156 118.699219 C 590.40625 119.335938 590.484375 119.964844 590.648438 120.578125 C 590.808594 121.195312 591.046875 121.78125 591.363281 122.332031 C 591.679688 122.886719 592.0625 123.386719 592.511719 123.839844 C 592.960938 124.292969 593.460938 124.679688 594.011719 124.996094 C 594.5625 125.316406 595.144531 125.558594 595.761719 125.726562 C 596.375 125.890625 597 125.972656 597.636719 125.972656 L 688.347656 125.972656 C 693.9375 125.972656 697.410156 119.894531 694.574219 115.078125 Z M 599.042969 118.222656 L 642.441406 45.671875 L 685.839844 118.222656 Z M 599.042969 118.222656 " fill-opacity="1" fill-rule="nonzero"/></g><path fill="#cf4545" d="M 637.109375 107.730469 C 637.109375 104.476562 639.371094 102.128906 642.441406 102.128906 C 645.691406 102.128906 647.773438 104.476562 647.773438 107.730469 C 647.773438 110.894531 645.691406 113.332031 642.441406 113.332031 C 639.277344 113.332031 637.109375 110.894531 637.109375 107.730469 Z M 639.398438 97.699219 L 637.195312 67.113281 C 637.085938 65.589844 639.480469 64.335938 642.441406 64.335938 C 645.398438 64.335938 647.800781 65.589844 647.691406 67.113281 L 645.488281 97.699219 C 645.410156 98.738281 644.074219 99.558594 642.441406 99.558594 C 640.804688 99.558594 639.46875 98.738281 639.394531 97.699219 Z M 639.398438 97.699219 " fill-opacity="1" fill-rule="nonzero"/><g clip-path="url(#acf8189726)"><path fill="#cf4545" d="M 141.109375 115.078125 L 95.753906 38.039062 C 95.59375 37.769531 95.417969 37.511719 95.226562 37.261719 C 95.035156 37.015625 94.828125 36.78125 94.605469 36.5625 C 94.382812 36.34375 94.144531 36.136719 93.894531 35.949219 C 93.644531 35.757812 93.386719 35.585938 93.113281 35.429688 C 92.84375 35.273438 92.5625 35.136719 92.269531 35.019531 C 91.980469 34.898438 91.683594 34.800781 91.382812 34.71875 C 91.078125 34.640625 90.773438 34.578125 90.460938 34.539062 C 90.152344 34.496094 89.839844 34.476562 89.527344 34.476562 C 89.214844 34.476562 88.902344 34.496094 88.589844 34.539062 C 88.28125 34.578125 87.972656 34.640625 87.671875 34.71875 C 87.367188 34.800781 87.074219 34.898438 86.78125 35.019531 C 86.492188 35.136719 86.210938 35.273438 85.941406 35.429688 C 85.667969 35.585938 85.40625 35.757812 85.15625 35.949219 C 84.910156 36.136719 84.671875 36.34375 84.449219 36.5625 C 84.226562 36.78125 84.019531 37.015625 83.828125 37.261719 C 83.632812 37.511719 83.457031 37.769531 83.300781 38.039062 L 37.945312 115.078125 C 37.625 115.628906 37.375 116.207031 37.207031 116.824219 C 37.039062 117.4375 36.949219 118.0625 36.945312 118.699219 C 36.941406 119.335938 37.019531 119.964844 37.183594 120.578125 C 37.34375 121.195312 37.582031 121.78125 37.898438 122.332031 C 38.214844 122.886719 38.597656 123.386719 39.046875 123.839844 C 39.496094 124.292969 39.996094 124.679688 40.546875 124.996094 C 41.097656 125.316406 41.679688 125.558594 42.296875 125.726562 C 42.910156 125.890625 43.535156 125.972656 44.171875 125.972656 L 134.882812 125.972656 C 140.472656 125.972656 143.945312 119.894531 141.109375 115.078125 Z M 45.578125 118.222656 L 88.972656 45.671875 L 132.375 118.222656 Z M 45.578125 118.222656 " fill-opacity="1" fill-rule="nonzero"/></g><path fill="#cf4545" d="M 83.644531 107.730469 C 83.644531 104.476562 85.90625 102.128906 88.972656 102.128906 C 92.226562 102.128906 94.304688 104.476562 94.304688 107.730469 C 94.304688 110.894531 92.226562 113.332031 88.972656 113.332031 C 85.8125 113.332031 83.644531 110.894531 83.644531 107.730469 Z M 85.933594 97.699219 L 83.730469 67.113281 C 83.621094 65.589844 86.015625 64.335938 88.976562 64.335938 C 91.933594 64.335938 94.335938 65.589844 94.226562 67.113281 L 92.019531 97.699219 C 91.945312 98.738281 90.609375 99.558594 88.972656 99.558594 C 87.339844 99.558594 86.003906 98.738281 85.929688 97.699219 Z M 85.933594 97.699219 " fill-opacity="1" fill-rule="nonzero"/></svg>