<svg xmlns="http://www.w3.org/2000/svg" xmlns:xlink="http://www.w3.org/1999/xlink" width="1038" zoomAndPan="magnify" viewBox="0 0 778.5 346.49999" height="462" preserveAspectRatio="xMidYMid meet" version="1.0"><defs><g/><clipPath id="2a15fa5fac"><path d="M 476.589844 0 L 759.226562 0 L 759.226562 287.832031 L 476.589844 287.832031 Z M 476.589844 0 " clip-rule="nonzero"/></clipPath><clipPath id="238767b728"><path d="M 551.984375 287.832031 L 759.226562 287.832031 L 759.226562 -0.0117188 L 551.984375 -0.0117188 L 476.589844 143.910156 Z M 551.984375 287.832031 " clip-rule="nonzero"/></clipPath><clipPath id="cbf47781a4"><path d="M 241.0625 0 L 523.695312 0 L 523.695312 287.832031 L 241.0625 287.832031 Z M 241.0625 0 " clip-rule="nonzero"/></clipPath><clipPath id="f26c304845"><path d="M 523.695312 287.832031 L 316.453125 287.832031 L 241.0625 143.910156 L 316.453125 -0.0117188 L 523.695312 -0.0117188 L 448.300781 143.910156 Z M 523.695312 287.832031 " clip-rule="nonzero"/></clipPath><clipPath id="ce23383202"><path d="M 0.3125 0 L 282.933594 0 L 282.933594 287.832031 L 0.3125 287.832031 Z M 0.3125 0 " clip-rule="nonzero"/></clipPath><clipPath id="f36231a54e"><path d="M 282.933594 287.832031 L 75.695312 287.832031 L 0.300781 143.910156 L 75.695312 -0.0117188 L 282.933594 -0.0117188 L 207.542969 143.910156 Z M 282.933594 287.832031 " clip-rule="nonzero"/></clipPath></defs><g clip-path="url(#2a15fa5fac)"><g clip-path="url(#238767b728)"><path fill="#303144" d="M 759.226562 287.832031 L 476.589844 287.832031 L 476.589844 -0.324219 L 759.226562 -0.324219 Z M 759.226562 287.832031 " fill-opacity="1" fill-rule="nonzero"/></g></g><g clip-path="url(#cbf47781a4)"><g clip-path="url(#f26c304845)"><path fill="#303144" d="M 523.695312 287.832031 L 241.0625 287.832031 L 241.0625 -0.324219 L 523.695312 -0.324219 Z M 523.695312 287.832031 " fill-opacity="1" fill-rule="nonzero"/></g></g><g clip-path="url(#ce23383202)"><g clip-path="url(#f36231a54e)"><path fill="#303144" d="M 282.933594 287.832031 L 0.300781 287.832031 L 0.300781 -0.324219 L 282.933594 -0.324219 Z M 282.933594 287.832031 " fill-opacity="1" fill-rule="nonzero"/></g></g><g fill="#303144" fill-opacity="1"><g transform="translate(571.883041, 323.938646)"><g><path d="M 15.546875 0 L 9.515625 0 L 9.515625 -16.921875 C 9.515625 -17.585938 9.175781 -17.921875 8.5 -17.921875 L 1.046875 -17.921875 L 1.046875 -24.25 L 11.265625 -24.25 C 12.515625 -24.25 13.546875 -23.84375 14.359375 -23.03125 C 15.148438 -22.238281 15.546875 -21.207031 15.546875 -19.9375 Z M 6.96875 0 L 1.0625 0 L 1.0625 -15.03125 L 6.96875 -15.03125 Z M 6.96875 0 "/></g></g><g transform="translate(588.470432, 323.938646)"><g><path d="M 15.5 -4.703125 C 15.5 -1.566406 13.976562 0 10.9375 0 L 1.078125 0 L 1.078125 -6.328125 L 8.421875 -6.328125 C 9.222656 -6.328125 9.625 -6.804688 9.625 -7.765625 L 9.625 -16.921875 C 9.625 -17.585938 9.316406 -17.921875 8.703125 -17.921875 L 7.890625 -17.921875 C 7.328125 -17.921875 7.046875 -17.570312 7.046875 -16.875 L 7.046875 -13.3125 L 1.046875 -13.3125 L 1.046875 -19.9375 C 1.046875 -22.8125 2.425781 -24.25 5.1875 -24.25 L 11.234375 -24.25 C 12.523438 -24.25 13.554688 -23.851562 14.328125 -23.0625 C 15.109375 -22.25 15.5 -21.207031 15.5 -19.9375 Z M 15.5 -4.703125 "/></g></g><g transform="translate(605.037345, 323.938646)"><g><path d="M 15.703125 -7.5 C 15.703125 -5.019531 15.300781 -3.195312 14.5 -2.03125 C 13.519531 -0.632812 11.847656 0.0625 9.484375 0.0625 C 9.054688 0.0625 8.613281 0.0390625 8.15625 0 L 8.15625 -6.328125 C 9.1875 -6.328125 9.703125 -7.09375 9.703125 -8.625 L 9.703125 -16.921875 C 9.703125 -17.585938 9.351562 -17.921875 8.65625 -17.921875 L 1.046875 -17.921875 L 1.046875 -24.25 L 12.671875 -24.25 C 14.691406 -24.25 15.703125 -23.269531 15.703125 -21.3125 Z M 7 3.5 L 1.078125 3.5 L 1.078125 -15.25 L 7 -15.25 Z M 7 3.5 "/></g></g><g transform="translate(621.809041, 323.938646)"><g><path d="M 16.765625 0 L 10.859375 0 L 10.859375 -16.765625 C 10.859375 -17.535156 10.507812 -17.921875 9.8125 -17.921875 L 9.015625 -17.921875 C 8.296875 -17.921875 7.9375 -17.535156 7.9375 -16.765625 L 7.9375 -2.90625 C 7.9375 -0.96875 7.128906 0 5.515625 0 L 0.40625 0 L 0.40625 -6.328125 L 1.4375 -6.328125 C 1.78125 -6.328125 1.953125 -6.476562 1.953125 -6.78125 L 1.953125 -19.59375 C 1.953125 -21.25 2.269531 -22.4375 2.90625 -23.15625 C 3.550781 -23.882812 4.6875 -24.25 6.3125 -24.25 L 12.703125 -24.25 C 15.410156 -24.25 16.765625 -22.695312 16.765625 -19.59375 Z M 16.765625 0 "/></g></g><g transform="translate(639.645606, 323.938646)"><g><path d="M 15.546875 0 L 9.515625 0 L 9.515625 -16.921875 C 9.515625 -17.585938 9.175781 -17.921875 8.5 -17.921875 L 1.046875 -17.921875 L 1.046875 -24.25 L 11.265625 -24.25 C 12.515625 -24.25 13.546875 -23.84375 14.359375 -23.03125 C 15.148438 -22.238281 15.546875 -21.207031 15.546875 -19.9375 Z M 6.96875 0 L 1.0625 0 L 1.0625 -15.03125 L 6.96875 -15.03125 Z M 6.96875 0 "/></g></g><g transform="translate(656.232997, 323.938646)"><g><path d="M 15.546875 0 L 9.515625 0 L 9.515625 -16.921875 C 9.515625 -17.585938 9.175781 -17.921875 8.5 -17.921875 L 1.046875 -17.921875 L 1.046875 -24.25 L 11.265625 -24.25 C 12.515625 -24.25 13.546875 -23.84375 14.359375 -23.03125 C 15.148438 -22.238281 15.546875 -21.207031 15.546875 -19.9375 Z M 6.96875 0 L 1.0625 0 L 1.0625 -15.03125 L 6.96875 -15.03125 Z M 6.96875 0 "/></g></g><g transform="translate(672.820388, 323.938646)"><g/></g><g transform="translate(682.097041, 323.938646)"><g><path d="M 6.875 -13.5 L 1 -13.5 L 1 -24.25 L 6.875 -24.25 Z M 6.875 -13.5 "/></g></g><g transform="translate(690.022127, 323.938646)"><g><path d="M 11.75 -3.8125 C 11.75 -1.269531 10.550781 0 8.15625 0 L 0.84375 0 L 0.84375 -6.328125 L 5.03125 -6.328125 C 5.53125 -6.328125 5.78125 -6.628906 5.78125 -7.234375 L 5.78125 -16.921875 C 5.78125 -17.585938 5.476562 -17.921875 4.875 -17.921875 L 2.578125 -17.921875 L 2.578125 -24.25 L 8.046875 -24.25 C 10.515625 -24.25 11.75 -22.972656 11.75 -20.421875 Z M 11.75 -3.8125 "/></g></g><g transform="translate(702.82104, 323.938646)"><g><path d="M 15.5 -4.703125 C 15.5 -1.566406 13.976562 0 10.9375 0 L 1.078125 0 L 1.078125 -6.328125 L 8.421875 -6.328125 C 9.222656 -6.328125 9.625 -6.804688 9.625 -7.765625 L 9.625 -16.921875 C 9.625 -17.585938 9.316406 -17.921875 8.703125 -17.921875 L 7.890625 -17.921875 C 7.328125 -17.921875 7.046875 -17.570312 7.046875 -16.875 L 7.046875 -13.3125 L 1.046875 -13.3125 L 1.046875 -19.9375 C 1.046875 -22.8125 2.425781 -24.25 5.1875 -24.25 L 11.234375 -24.25 C 12.523438 -24.25 13.554688 -23.851562 14.328125 -23.0625 C 15.109375 -22.25 15.5 -21.207031 15.5 -19.9375 Z M 15.5 -4.703125 "/></g></g><g transform="translate(719.387953, 323.938646)"><g><path d="M 14.484375 -8.765625 C 14.484375 -2.921875 11.679688 0 6.078125 0 L 3.515625 0 L 3.515625 -6.328125 L 5.25 -6.328125 C 6.570312 -6.328125 7.46875 -6.75 7.9375 -7.59375 C 8.28125 -8.195312 8.453125 -9.242188 8.453125 -10.734375 L 8.453125 -16.921875 C 8.453125 -17.585938 8.113281 -17.921875 7.4375 -17.921875 L 1.046875 -17.921875 L 1.046875 -27.25 L 6.984375 -27.25 L 6.984375 -24.25 L 11.453125 -24.25 C 13.472656 -24.25 14.484375 -23.269531 14.484375 -21.3125 Z M 14.484375 -8.765625 "/></g></g></g><g fill="#303144" fill-opacity="1"><g transform="translate(341.363462, 323.938646)"><g><path d="M 15.546875 0 L 9.515625 0 L 9.515625 -16.921875 C 9.515625 -17.585938 9.175781 -17.921875 8.5 -17.921875 L 1.046875 -17.921875 L 1.046875 -24.25 L 11.265625 -24.25 C 12.515625 -24.25 13.546875 -23.84375 14.359375 -23.03125 C 15.148438 -22.238281 15.546875 -21.207031 15.546875 -19.9375 Z M 6.96875 0 L 1.0625 0 L 1.0625 -15.03125 L 6.96875 -15.03125 Z M 6.96875 0 "/></g></g><g transform="translate(357.950853, 323.938646)"><g><path d="M 15.5 -4.703125 C 15.5 -1.566406 13.976562 0 10.9375 0 L 1.078125 0 L 1.078125 -6.328125 L 8.421875 -6.328125 C 9.222656 -6.328125 9.625 -6.804688 9.625 -7.765625 L 9.625 -16.921875 C 9.625 -17.585938 9.316406 -17.921875 8.703125 -17.921875 L 7.890625 -17.921875 C 7.328125 -17.921875 7.046875 -17.570312 7.046875 -16.875 L 7.046875 -13.3125 L 1.046875 -13.3125 L 1.046875 -19.9375 C 1.046875 -22.8125 2.425781 -24.25 5.1875 -24.25 L 11.234375 -24.25 C 12.523438 -24.25 13.554688 -23.851562 14.328125 -23.0625 C 15.109375 -22.25 15.5 -21.207031 15.5 -19.9375 Z M 15.5 -4.703125 "/></g></g><g transform="translate(374.517766, 323.938646)"><g><path d="M 15.703125 -7.5 C 15.703125 -5.019531 15.300781 -3.195312 14.5 -2.03125 C 13.519531 -0.632812 11.847656 0.0625 9.484375 0.0625 C 9.054688 0.0625 8.613281 0.0390625 8.15625 0 L 8.15625 -6.328125 C 9.1875 -6.328125 9.703125 -7.09375 9.703125 -8.625 L 9.703125 -16.921875 C 9.703125 -17.585938 9.351562 -17.921875 8.65625 -17.921875 L 1.046875 -17.921875 L 1.046875 -24.25 L 12.671875 -24.25 C 14.691406 -24.25 15.703125 -23.269531 15.703125 -21.3125 Z M 7 3.5 L 1.078125 3.5 L 1.078125 -15.25 L 7 -15.25 Z M 7 3.5 "/></g></g><g transform="translate(391.289461, 323.938646)"><g><path d="M 16.765625 0 L 10.859375 0 L 10.859375 -16.765625 C 10.859375 -17.535156 10.507812 -17.921875 9.8125 -17.921875 L 9.015625 -17.921875 C 8.296875 -17.921875 7.9375 -17.535156 7.9375 -16.765625 L 7.9375 -2.90625 C 7.9375 -0.96875 7.128906 0 5.515625 0 L 0.40625 0 L 0.40625 -6.328125 L 1.4375 -6.328125 C 1.78125 -6.328125 1.953125 -6.476562 1.953125 -6.78125 L 1.953125 -19.59375 C 1.953125 -21.25 2.269531 -22.4375 2.90625 -23.15625 C 3.550781 -23.882812 4.6875 -24.25 6.3125 -24.25 L 12.703125 -24.25 C 15.410156 -24.25 16.765625 -22.695312 16.765625 -19.59375 Z M 16.765625 0 "/></g></g><g transform="translate(409.126026, 323.938646)"><g><path d="M 15.546875 0 L 9.515625 0 L 9.515625 -16.921875 C 9.515625 -17.585938 9.175781 -17.921875 8.5 -17.921875 L 1.046875 -17.921875 L 1.046875 -24.25 L 11.265625 -24.25 C 12.515625 -24.25 13.546875 -23.84375 14.359375 -23.03125 C 15.148438 -22.238281 15.546875 -21.207031 15.546875 -19.9375 Z M 6.96875 0 L 1.0625 0 L 1.0625 -15.03125 L 6.96875 -15.03125 Z M 6.96875 0 "/></g></g><g transform="translate(425.713418, 323.938646)"><g><path d="M 15.546875 0 L 9.515625 0 L 9.515625 -16.921875 C 9.515625 -17.585938 9.175781 -17.921875 8.5 -17.921875 L 1.046875 -17.921875 L 1.046875 -24.25 L 11.265625 -24.25 C 12.515625 -24.25 13.546875 -23.84375 14.359375 -23.03125 C 15.148438 -22.238281 15.546875 -21.207031 15.546875 -19.9375 Z M 6.96875 0 L 1.0625 0 L 1.0625 -15.03125 L 6.96875 -15.03125 Z M 6.96875 0 "/></g></g><g transform="translate(442.300809, 323.938646)"><g/></g><g transform="translate(451.577461, 323.938646)"><g><path d="M 6.96875 3.484375 L 1.046875 3.484375 L 1.046875 -24.25 L 6.96875 -24.25 Z M 6.96875 3.484375 "/></g></g><g transform="translate(459.584461, 323.938646)"><g><path d="M 17.140625 -4.359375 C 17.140625 -1.453125 15.820312 0 13.1875 0 L 9.015625 0 L 9.015625 -6.34375 L 10.265625 -6.34375 C 10.878906 -6.34375 11.1875 -6.710938 11.1875 -7.453125 L 11.1875 -16.6875 C 11.1875 -17.425781 11 -17.796875 10.625 -17.796875 C 10.257812 -17.796875 10.007812 -17.378906 9.875 -16.546875 L 6.90625 0 L 1.046875 0 L 3.546875 -13.53125 L 2.375 -13.53125 C 1.457031 -13.53125 1 -13.984375 1 -14.890625 L 1 -24.25 L 6.9375 -24.25 L 6.9375 -15.6875 L 8.125 -20.375 C 8.78125 -22.957031 10.195312 -24.25 12.375 -24.25 L 12.671875 -24.25 C 15.648438 -24.25 17.140625 -22.429688 17.140625 -18.796875 Z M 17.140625 -4.359375 "/></g></g><g transform="translate(477.769157, 323.938646)"><g><path d="M 9.09375 -17.921875 L 9.015625 -17.921875 C 8.066406 -17.921875 7.59375 -17.242188 7.59375 -15.890625 L 7.59375 0 L 1.71875 0 L 1.71875 -14.703125 C 1.71875 -16.460938 2.28125 -17.535156 3.40625 -17.921875 L 0.84375 -17.921875 L 0.84375 -24.25 L 9.09375 -24.25 Z M 9.09375 -17.921875 "/></g></g><g transform="translate(487.701114, 323.938646)"><g><path d="M 14.890625 0 L 1.046875 0 L 1.046875 -6.328125 L 5.65625 -6.328125 C 7 -6.328125 7.671875 -7.125 7.671875 -8.71875 L 7.671875 -16 C 7.671875 -16.707031 7.546875 -17.203125 7.296875 -17.484375 C 7.054688 -17.773438 6.585938 -17.921875 5.890625 -17.921875 L 1.046875 -17.921875 L 1.046875 -24.25 L 9.015625 -24.25 C 12.140625 -24.25 13.703125 -22.398438 13.703125 -18.703125 L 13.703125 -10.40625 C 13.703125 -8.257812 12.898438 -6.898438 11.296875 -6.328125 L 14.890625 -6.328125 Z M 14.890625 0 "/></g></g></g><g fill="#303144" fill-opacity="1"><g transform="translate(96.550996, 323.938646)"><g><path d="M 15.546875 0 L 9.515625 0 L 9.515625 -16.921875 C 9.515625 -17.585938 9.175781 -17.921875 8.5 -17.921875 L 1.046875 -17.921875 L 1.046875 -24.25 L 11.265625 -24.25 C 12.515625 -24.25 13.546875 -23.84375 14.359375 -23.03125 C 15.148438 -22.238281 15.546875 -21.207031 15.546875 -19.9375 Z M 6.96875 0 L 1.0625 0 L 1.0625 -15.03125 L 6.96875 -15.03125 Z M 6.96875 0 "/></g></g><g transform="translate(113.138387, 323.938646)"><g><path d="M 15.5 -4.703125 C 15.5 -1.566406 13.976562 0 10.9375 0 L 1.078125 0 L 1.078125 -6.328125 L 8.421875 -6.328125 C 9.222656 -6.328125 9.625 -6.804688 9.625 -7.765625 L 9.625 -16.921875 C 9.625 -17.585938 9.316406 -17.921875 8.703125 -17.921875 L 7.890625 -17.921875 C 7.328125 -17.921875 7.046875 -17.570312 7.046875 -16.875 L 7.046875 -13.3125 L 1.046875 -13.3125 L 1.046875 -19.9375 C 1.046875 -22.8125 2.425781 -24.25 5.1875 -24.25 L 11.234375 -24.25 C 12.523438 -24.25 13.554688 -23.851562 14.328125 -23.0625 C 15.109375 -22.25 15.5 -21.207031 15.5 -19.9375 Z M 15.5 -4.703125 "/></g></g><g transform="translate(129.7053, 323.938646)"><g><path d="M 15.703125 -7.5 C 15.703125 -5.019531 15.300781 -3.195312 14.5 -2.03125 C 13.519531 -0.632812 11.847656 0.0625 9.484375 0.0625 C 9.054688 0.0625 8.613281 0.0390625 8.15625 0 L 8.15625 -6.328125 C 9.1875 -6.328125 9.703125 -7.09375 9.703125 -8.625 L 9.703125 -16.921875 C 9.703125 -17.585938 9.351562 -17.921875 8.65625 -17.921875 L 1.046875 -17.921875 L 1.046875 -24.25 L 12.671875 -24.25 C 14.691406 -24.25 15.703125 -23.269531 15.703125 -21.3125 Z M 7 3.5 L 1.078125 3.5 L 1.078125 -15.25 L 7 -15.25 Z M 7 3.5 "/></g></g><g transform="translate(146.476996, 323.938646)"><g><path d="M 16.765625 0 L 10.859375 0 L 10.859375 -16.765625 C 10.859375 -17.535156 10.507812 -17.921875 9.8125 -17.921875 L 9.015625 -17.921875 C 8.296875 -17.921875 7.9375 -17.535156 7.9375 -16.765625 L 7.9375 -2.90625 C 7.9375 -0.96875 7.128906 0 5.515625 0 L 0.40625 0 L 0.40625 -6.328125 L 1.4375 -6.328125 C 1.78125 -6.328125 1.953125 -6.476562 1.953125 -6.78125 L 1.953125 -19.59375 C 1.953125 -21.25 2.269531 -22.4375 2.90625 -23.15625 C 3.550781 -23.882812 4.6875 -24.25 6.3125 -24.25 L 12.703125 -24.25 C 15.410156 -24.25 16.765625 -22.695312 16.765625 -19.59375 Z M 16.765625 0 "/></g></g><g transform="translate(164.313561, 323.938646)"><g><path d="M 15.546875 0 L 9.515625 0 L 9.515625 -16.921875 C 9.515625 -17.585938 9.175781 -17.921875 8.5 -17.921875 L 1.046875 -17.921875 L 1.046875 -24.25 L 11.265625 -24.25 C 12.515625 -24.25 13.546875 -23.84375 14.359375 -23.03125 C 15.148438 -22.238281 15.546875 -21.207031 15.546875 -19.9375 Z M 6.96875 0 L 1.0625 0 L 1.0625 -15.03125 L 6.96875 -15.03125 Z M 6.96875 0 "/></g></g><g transform="translate(180.900952, 323.938646)"><g><path d="M 15.546875 0 L 9.515625 0 L 9.515625 -16.921875 C 9.515625 -17.585938 9.175781 -17.921875 8.5 -17.921875 L 1.046875 -17.921875 L 1.046875 -24.25 L 11.265625 -24.25 C 12.515625 -24.25 13.546875 -23.84375 14.359375 -23.03125 C 15.148438 -22.238281 15.546875 -21.207031 15.546875 -19.9375 Z M 6.96875 0 L 1.0625 0 L 1.0625 -15.03125 L 6.96875 -15.03125 Z M 6.96875 0 "/></g></g><g transform="translate(197.488343, 323.938646)"><g/></g><g transform="translate(206.764996, 323.938646)"><g><path d="M 6.875 -13.5 L 1 -13.5 L 1 -24.25 L 6.875 -24.25 Z M 6.875 -13.5 "/></g></g><g transform="translate(214.690082, 323.938646)"><g><path d="M 12.984375 0 L 6.984375 0 L 6.984375 -16.921875 C 6.984375 -17.585938 6.632812 -17.921875 5.9375 -17.921875 L 0.640625 -17.921875 L 0.640625 -24.25 L 8.703125 -24.25 C 9.960938 -24.25 10.992188 -23.84375 11.796875 -23.03125 C 12.585938 -22.238281 12.984375 -21.207031 12.984375 -19.9375 Z M 12.984375 0 "/></g></g><g transform="translate(228.717691, 323.938646)"><g><path d="M 15.8125 0 L 9.875 0 L 9.875 -16.765625 C 9.875 -17.535156 9.523438 -17.921875 8.828125 -17.921875 L 8.109375 -17.921875 C 7.410156 -17.921875 7.0625 -17.535156 7.0625 -16.765625 L 7.0625 0 L 1.046875 0 L 1.046875 -20 C 1.046875 -21.519531 1.296875 -22.582031 1.796875 -23.1875 C 2.367188 -23.894531 3.394531 -24.25 4.875 -24.25 L 11.71875 -24.25 C 14.445312 -24.25 15.8125 -22.832031 15.8125 -20 Z M 15.8125 0 "/></g></g><g transform="translate(245.5713, 323.938646)"><g><path d="M 10.96875 0 C 10.789062 -0.957031 10.40625 -2.21875 9.8125 -3.78125 C 9.21875 -5.34375 8.410156 -7.226562 7.390625 -9.4375 C 7.285156 -9.3125 7.203125 -9.210938 7.140625 -9.140625 C 7.085938 -9.078125 7.054688 -9.039062 7.046875 -9.03125 C 7.035156 -8.976562 7.023438 -8.859375 7.015625 -8.671875 C 7.003906 -8.484375 7 -8.226562 7 -7.90625 L 7 0 L 1.078125 0 L 1.078125 -7.25 C 1.078125 -11.082031 2.257812 -13.566406 4.625 -14.703125 C 2.363281 -19.148438 1.101562 -22.332031 0.84375 -24.25 L 7 -24.25 C 7.300781 -22.882812 7.75 -21.441406 8.34375 -19.921875 C 8.9375 -18.410156 9.6875 -16.800781 10.59375 -15.09375 C 10.925781 -15.332031 11.09375 -15.835938 11.09375 -16.609375 L 11.09375 -24.25 L 17.078125 -24.25 L 17.078125 -16.03125 C 17.078125 -14.800781 16.703125 -13.609375 15.953125 -12.453125 C 15.203125 -11.304688 14.273438 -10.429688 13.171875 -9.828125 C 15.722656 -4.753906 17.023438 -1.476562 17.078125 0 Z M 10.96875 0 "/></g></g></g><g fill="#f8f6e9" fill-opacity="1"><g transform="translate(543.011258, 116.959271)"><g><path d="M 25.5625 0 L 16.53125 0 L 16.53125 -25.5625 C 16.53125 -26.71875 16.003906 -27.296875 14.953125 -27.296875 L 13.734375 -27.296875 C 12.648438 -27.296875 12.109375 -26.71875 12.109375 -25.5625 L 12.109375 -4.4375 C 12.109375 -1.476562 10.867188 0 8.390625 0 L 0.625 0 L 0.625 -9.640625 L 2.1875 -9.640625 C 2.707031 -9.640625 2.96875 -9.867188 2.96875 -10.328125 L 2.96875 -29.859375 C 2.96875 -32.378906 3.457031 -34.191406 4.4375 -35.296875 C 5.40625 -36.398438 7.128906 -36.953125 9.609375 -36.953125 L 19.34375 -36.953125 C 23.488281 -36.953125 25.5625 -34.585938 25.5625 -29.859375 Z M 25.5625 0 "/></g></g></g><g fill="#f8f6e9" fill-opacity="1"><g transform="translate(570.189132, 116.959271)"><g><path d="M 16.71875 0 C 16.445312 -1.457031 15.859375 -3.375 14.953125 -5.75 C 14.054688 -8.132812 12.828125 -11.015625 11.265625 -14.390625 C 11.097656 -14.203125 10.972656 -14.054688 10.890625 -13.953125 C 10.804688 -13.847656 10.753906 -13.785156 10.734375 -13.765625 C 10.710938 -13.679688 10.695312 -13.5 10.6875 -13.21875 C 10.675781 -12.9375 10.671875 -12.546875 10.671875 -12.046875 L 10.671875 0 L 1.65625 0 L 1.65625 -11.046875 C 1.65625 -16.890625 3.453125 -20.675781 7.046875 -22.40625 C 3.597656 -29.1875 1.675781 -34.035156 1.28125 -36.953125 L 10.671875 -36.953125 C 11.128906 -34.867188 11.8125 -32.671875 12.71875 -30.359375 C 13.625 -28.046875 14.757812 -25.59375 16.125 -23 C 16.644531 -23.375 16.90625 -24.144531 16.90625 -25.3125 L 16.90625 -36.953125 L 26.03125 -36.953125 L 26.03125 -24.4375 C 26.03125 -22.5625 25.457031 -20.738281 24.3125 -18.96875 C 23.164062 -17.21875 21.75 -15.890625 20.0625 -14.984375 C 23.957031 -7.242188 25.945312 -2.25 26.03125 0 Z M 16.71875 0 "/></g></g></g><g fill="#f8f6e9" fill-opacity="1"><g transform="translate(597.49182, 116.959271)"><g/></g></g><g fill="#f8f6e9" fill-opacity="1"><g transform="translate(611.626814, 116.959271)"><g><path d="M 19.78125 5.25 L 10.640625 5.25 L 10.640625 -25.78125 C 10.640625 -26.789062 10.109375 -27.296875 9.046875 -27.296875 L 0.96875 -27.296875 L 0.96875 -36.953125 L 13.265625 -36.953125 C 15.171875 -36.953125 16.738281 -36.335938 17.96875 -35.109375 C 19.175781 -33.898438 19.78125 -32.328125 19.78125 -30.390625 Z M 19.78125 5.25 "/></g></g></g><g fill="#f8f6e9" fill-opacity="1"><g transform="translate(633.000918, 116.959271)"><g><path d="M 10.484375 -20.5625 L 1.53125 -20.5625 L 1.53125 -36.953125 L 10.484375 -36.953125 Z M 10.484375 -20.5625 "/></g></g></g><g fill="#f8f6e9" fill-opacity="1"><g transform="translate(645.07651, 116.959271)"><g><path d="M 19.78125 0 L 10.640625 0 L 10.640625 -25.78125 C 10.640625 -26.789062 10.109375 -27.296875 9.046875 -27.296875 L 0.96875 -27.296875 L 0.96875 -36.953125 L 13.265625 -36.953125 C 15.171875 -36.953125 16.738281 -36.335938 17.96875 -35.109375 C 19.175781 -33.898438 19.78125 -32.328125 19.78125 -30.390625 Z M 19.78125 0 "/></g></g></g><g fill="#f8f6e9" fill-opacity="1"><g transform="translate(666.450614, 116.959271)"><g><path d="M 21.09375 -27.296875 C 19.050781 -27.296875 18.03125 -26.300781 18.03125 -24.3125 L 18.03125 0 L 8.859375 0 L 8.859375 -21.75 C 8.859375 -24.601562 10.066406 -26.453125 12.484375 -27.296875 L 0.96875 -27.296875 L 0.96875 -36.953125 L 21.09375 -36.953125 Z M 21.09375 -27.296875 "/></g></g></g><g fill="#f8f6e9" fill-opacity="1"><g transform="translate(689.135248, 116.959271)"><g><path d="M 23.6875 0 L 14.515625 0 L 14.515625 -25.78125 C 14.515625 -26.789062 13.992188 -27.296875 12.953125 -27.296875 L 1.59375 -27.296875 L 1.59375 -36.953125 L 17.15625 -36.953125 C 19.070312 -36.953125 20.644531 -36.335938 21.875 -35.109375 C 23.082031 -33.898438 23.6875 -32.328125 23.6875 -30.390625 Z M 10.609375 0 L 1.625 0 L 1.625 -22.90625 L 10.609375 -22.90625 Z M 10.609375 0 "/></g></g></g><g fill="#f8f6e9" fill-opacity="1"><g transform="translate(714.40973, 116.959271)"><g><path d="M 22.0625 -13.359375 C 22.0625 -4.453125 17.796875 0 9.265625 0 L 5.359375 0 L 5.359375 -9.640625 L 7.984375 -9.640625 C 10.003906 -9.640625 11.378906 -10.285156 12.109375 -11.578125 C 12.628906 -12.492188 12.890625 -14.082031 12.890625 -16.34375 L 12.890625 -25.78125 C 12.890625 -26.789062 12.367188 -27.296875 11.328125 -27.296875 L 1.59375 -27.296875 L 1.59375 -41.53125 L 10.640625 -41.53125 L 10.640625 -36.953125 L 17.4375 -36.953125 C 20.519531 -36.953125 22.0625 -35.460938 22.0625 -32.484375 Z M 22.0625 -13.359375 "/></g></g></g><g fill="#f8f6e9" fill-opacity="1"><g transform="translate(540.752798, 206.080662)"><g><path d="M 23.6875 0 L 14.515625 0 L 14.515625 -25.78125 C 14.515625 -26.789062 13.992188 -27.296875 12.953125 -27.296875 L 1.59375 -27.296875 L 1.59375 -36.953125 L 17.15625 -36.953125 C 19.070312 -36.953125 20.644531 -36.335938 21.875 -35.109375 C 23.082031 -33.898438 23.6875 -32.328125 23.6875 -30.390625 Z M 10.609375 0 L 1.625 0 L 1.625 -22.90625 L 10.609375 -22.90625 Z M 10.609375 0 "/></g></g></g><g fill="#f8f6e9" fill-opacity="1"><g transform="translate(566.02728, 206.080662)"><g><path d="M 10.484375 -20.5625 L 1.53125 -20.5625 L 1.53125 -36.953125 L 10.484375 -36.953125 Z M 10.484375 -20.5625 "/></g></g></g><g fill="#f8f6e9" fill-opacity="1"><g transform="translate(578.102872, 206.080662)"><g><path d="M 10.484375 -20.5625 L 1.53125 -20.5625 L 1.53125 -36.953125 L 10.484375 -36.953125 Z M 10.484375 -20.5625 "/></g></g></g><g fill="#f8f6e9" fill-opacity="1"><g transform="translate(590.178463, 206.080662)"><g><path d="M 25.1875 -11.078125 C 25.1875 -7.453125 24.164062 -4.5625 22.125 -2.40625 C 20.019531 -0.175781 17.179688 0.9375 13.609375 0.9375 C 9.921875 0.9375 7 -0.144531 4.84375 -2.3125 C 2.675781 -4.46875 1.59375 -7.390625 1.59375 -11.078125 L 1.59375 -31.046875 C 1.59375 -32.109375 1.695312 -33.015625 1.90625 -33.765625 C 2.113281 -34.515625 2.445312 -35.125 2.90625 -35.59375 C 3.363281 -36.0625 3.957031 -36.40625 4.6875 -36.625 C 5.425781 -36.84375 6.328125 -36.953125 7.390625 -36.953125 L 19.3125 -36.953125 C 23.226562 -36.953125 25.1875 -34.984375 25.1875 -31.046875 Z M 16.0625 -26.5625 C 16.0625 -27.050781 15.859375 -27.296875 15.453125 -27.296875 L 11.265625 -27.296875 C 10.847656 -27.296875 10.640625 -27.050781 10.640625 -26.5625 L 10.640625 -12.078125 C 10.640625 -9.804688 11.585938 -8.671875 13.484375 -8.671875 C 15.203125 -8.671875 16.0625 -9.804688 16.0625 -12.078125 Z M 16.0625 -26.5625 "/></g></g></g><g fill="#f8f6e9" fill-opacity="1"><g transform="translate(616.950693, 206.080662)"><g><path d="M 10.609375 0 L 1.59375 0 L 1.59375 -36.953125 L 10.609375 -36.953125 Z M 10.609375 0 "/></g></g></g><g fill="#f8f6e9" fill-opacity="1"><g transform="translate(629.151096, 206.080662)"><g><path d="M 22.0625 -13.359375 C 22.0625 -4.453125 17.796875 0 9.265625 0 L 5.359375 0 L 5.359375 -9.640625 L 7.984375 -9.640625 C 10.003906 -9.640625 11.378906 -10.285156 12.109375 -11.578125 C 12.628906 -12.492188 12.890625 -14.082031 12.890625 -16.34375 L 12.890625 -25.78125 C 12.890625 -26.789062 12.367188 -27.296875 11.328125 -27.296875 L 1.59375 -27.296875 L 1.59375 -41.53125 L 10.640625 -41.53125 L 10.640625 -36.953125 L 17.4375 -36.953125 C 20.519531 -36.953125 22.0625 -35.460938 22.0625 -32.484375 Z M 22.0625 -13.359375 "/></g></g></g><g fill="#f8f6e9" fill-opacity="1"><g transform="translate(652.803019, 206.080662)"><g><path d="M 21.15625 -9.109375 C 21.15625 -3.035156 18.296875 0 12.578125 0 L 1.59375 0 L 1.59375 -9.640625 L 9.234375 -9.640625 C 11.128906 -9.640625 12.078125 -10.523438 12.078125 -12.296875 L 12.078125 -24.65625 C 12.078125 -26.414062 11.128906 -27.296875 9.234375 -27.296875 L 1.59375 -27.296875 L 1.59375 -36.953125 L 12.578125 -36.953125 C 18.296875 -36.953125 21.15625 -33.910156 21.15625 -27.828125 Z M 21.15625 -9.109375 "/></g></g></g><g fill="#f8f6e9" fill-opacity="1"><g transform="translate(675.550059, 206.080662)"><g><path d="M 10.609375 0 L 1.59375 0 L 1.59375 -36.953125 L 10.609375 -36.953125 Z M 10.609375 0 "/></g></g></g><g fill="#f8f6e9" fill-opacity="1"><g transform="translate(687.750463, 206.080662)"><g><path d="M 16.71875 0 C 16.445312 -1.457031 15.859375 -3.375 14.953125 -5.75 C 14.054688 -8.132812 12.828125 -11.015625 11.265625 -14.390625 C 11.097656 -14.203125 10.972656 -14.054688 10.890625 -13.953125 C 10.804688 -13.847656 10.753906 -13.785156 10.734375 -13.765625 C 10.710938 -13.679688 10.695312 -13.5 10.6875 -13.21875 C 10.675781 -12.9375 10.671875 -12.546875 10.671875 -12.046875 L 10.671875 0 L 1.65625 0 L 1.65625 -11.046875 C 1.65625 -16.890625 3.453125 -20.675781 7.046875 -22.40625 C 3.597656 -29.1875 1.675781 -34.035156 1.28125 -36.953125 L 10.671875 -36.953125 C 11.128906 -34.867188 11.8125 -32.671875 12.71875 -30.359375 C 13.625 -28.046875 14.757812 -25.59375 16.125 -23 C 16.644531 -23.375 16.90625 -24.144531 16.90625 -25.3125 L 16.90625 -36.953125 L 26.03125 -36.953125 L 26.03125 -24.4375 C 26.03125 -22.5625 25.457031 -20.738281 24.3125 -18.96875 C 23.164062 -17.21875 21.75 -15.890625 20.0625 -14.984375 C 23.957031 -7.242188 25.945312 -2.25 26.03125 0 Z M 16.71875 0 "/></g></g></g><g fill="#f8f6e9" fill-opacity="1"><g transform="translate(715.05315, 206.080662)"><g><path d="M 23.6875 0 L 14.515625 0 L 14.515625 -25.78125 C 14.515625 -26.789062 13.992188 -27.296875 12.953125 -27.296875 L 1.59375 -27.296875 L 1.59375 -36.953125 L 17.15625 -36.953125 C 19.070312 -36.953125 20.644531 -36.335938 21.875 -35.109375 C 23.082031 -33.898438 23.6875 -32.328125 23.6875 -30.390625 Z M 10.609375 0 L 1.625 0 L 1.625 -22.90625 L 10.609375 -22.90625 Z M 10.609375 0 "/></g></g></g><g fill="#f8f6e9" fill-opacity="1"><g transform="translate(298.836755, 116.959271)"><g><path d="M 24.46875 -9.734375 C 24.46875 -3.242188 21.800781 0 16.46875 0 L 0.96875 0 L 0.96875 -9.640625 L 3.15625 -9.640625 L 3.15625 -36.953125 L 12.171875 -36.953125 L 12.171875 -9.640625 L 13.984375 -9.640625 C 15.023438 -9.640625 15.546875 -10.359375 15.546875 -11.796875 L 15.546875 -36.953125 L 24.46875 -36.953125 Z M 24.46875 -9.734375 "/></g></g></g><g fill="#f8f6e9" fill-opacity="1"><g transform="translate(324.89132, 116.959271)"><g><path d="M 10.484375 -20.5625 L 1.53125 -20.5625 L 1.53125 -36.953125 L 10.484375 -36.953125 Z M 10.484375 -20.5625 "/></g></g></g><g fill="#f8f6e9" fill-opacity="1"><g transform="translate(336.966911, 116.959271)"><g><path d="M 26.125 -6.640625 C 26.125 -2.210938 24.113281 0 20.09375 0 L 13.734375 0 L 13.734375 -9.671875 L 15.640625 -9.671875 C 16.566406 -9.671875 17.03125 -10.234375 17.03125 -11.359375 L 17.03125 -25.4375 C 17.03125 -26.550781 16.75 -27.109375 16.1875 -27.109375 C 15.632812 -27.109375 15.253906 -26.476562 15.046875 -25.21875 L 10.515625 0 L 1.59375 0 L 5.390625 -20.625 L 3.625 -20.625 C 2.226562 -20.625 1.53125 -21.3125 1.53125 -22.6875 L 1.53125 -36.953125 L 10.578125 -36.953125 L 10.578125 -23.90625 L 12.390625 -31.046875 C 13.390625 -34.984375 15.539062 -36.953125 18.84375 -36.953125 L 19.3125 -36.953125 C 23.851562 -36.953125 26.125 -34.179688 26.125 -28.640625 Z M 26.125 -6.640625 "/></g></g></g><g fill="#f8f6e9" fill-opacity="1"><g transform="translate(364.675233, 116.959271)"><g><path d="M 10.296875 -26.46875 L 11.703125 -26.46875 C 12.722656 -26.46875 13.234375 -27.015625 13.234375 -28.109375 L 13.234375 -36.953125 L 21.5625 -36.953125 L 21.5625 -26.59375 C 21.5625 -22.28125 19.703125 -20.125 15.984375 -20.125 L 10.296875 -20.125 L 10.296875 -11.328125 C 10.296875 -10.203125 10.765625 -9.640625 11.703125 -9.640625 L 23.09375 -9.640625 C 24.007812 -9.640625 24.46875 -10.203125 24.46875 -11.328125 L 24.46875 -36.953125 L 33.203125 -36.953125 L 33.203125 -8.390625 C 33.203125 -5.859375 32.546875 -3.84375 31.234375 -2.34375 C 29.859375 -0.78125 27.914062 0 25.40625 0 L 9.390625 0 C 4.191406 0 1.59375 -2.796875 1.59375 -8.390625 L 1.59375 -36.953125 L 10.296875 -36.953125 Z M 10.296875 -26.46875 "/></g></g></g><g fill="#f8f6e9" fill-opacity="1"><g transform="translate(399.466655, 116.959271)"><g><path d="M 23.6875 0 L 14.515625 0 L 14.515625 -25.78125 C 14.515625 -26.789062 13.992188 -27.296875 12.953125 -27.296875 L 1.59375 -27.296875 L 1.59375 -36.953125 L 17.15625 -36.953125 C 19.070312 -36.953125 20.644531 -36.335938 21.875 -35.109375 C 23.082031 -33.898438 23.6875 -32.328125 23.6875 -30.390625 Z M 10.609375 0 L 1.625 0 L 1.625 -22.90625 L 10.609375 -22.90625 Z M 10.609375 0 "/></g></g></g><g fill="#f8f6e9" fill-opacity="1"><g transform="translate(424.741137, 116.959271)"><g><path d="M 22.0625 -13.359375 C 22.0625 -4.453125 17.796875 0 9.265625 0 L 5.359375 0 L 5.359375 -9.640625 L 7.984375 -9.640625 C 10.003906 -9.640625 11.378906 -10.285156 12.109375 -11.578125 C 12.628906 -12.492188 12.890625 -14.082031 12.890625 -16.34375 L 12.890625 -25.78125 C 12.890625 -26.789062 12.367188 -27.296875 11.328125 -27.296875 L 1.59375 -27.296875 L 1.59375 -41.53125 L 10.640625 -41.53125 L 10.640625 -36.953125 L 17.4375 -36.953125 C 20.519531 -36.953125 22.0625 -35.460938 22.0625 -32.484375 Z M 22.0625 -13.359375 "/></g></g></g><g fill="#f8f6e9" fill-opacity="1"><g transform="translate(313.955563, 206.080662)"><g><path d="M 23.6875 0 L 14.515625 0 L 14.515625 -25.78125 C 14.515625 -26.789062 13.992188 -27.296875 12.953125 -27.296875 L 1.59375 -27.296875 L 1.59375 -36.953125 L 17.15625 -36.953125 C 19.070312 -36.953125 20.644531 -36.335938 21.875 -35.109375 C 23.082031 -33.898438 23.6875 -32.328125 23.6875 -30.390625 Z M 10.609375 0 L 1.625 0 L 1.625 -22.90625 L 10.609375 -22.90625 Z M 10.609375 0 "/></g></g></g><g fill="#f8f6e9" fill-opacity="1"><g transform="translate(339.230045, 206.080662)"><g><path d="M 23.9375 -11.421875 C 23.9375 -7.648438 23.320312 -4.875 22.09375 -3.09375 C 20.59375 -0.96875 18.046875 0.09375 14.453125 0.09375 C 13.804688 0.09375 13.128906 0.0625 12.421875 0 L 12.421875 -9.640625 C 14.003906 -9.640625 14.796875 -10.804688 14.796875 -13.140625 L 14.796875 -25.78125 C 14.796875 -26.789062 14.265625 -27.296875 13.203125 -27.296875 L 1.59375 -27.296875 L 1.59375 -36.953125 L 19.3125 -36.953125 C 22.394531 -36.953125 23.9375 -35.460938 23.9375 -32.484375 Z M 10.671875 5.328125 L 1.65625 5.328125 L 1.65625 -23.25 L 10.671875 -23.25 Z M 10.671875 5.328125 "/></g></g></g><g fill="#f8f6e9" fill-opacity="1"><g transform="translate(364.78536, 206.080662)"><g><path d="M 24.46875 -9.734375 C 24.46875 -3.242188 21.800781 0 16.46875 0 L 0.96875 0 L 0.96875 -9.640625 L 3.15625 -9.640625 L 3.15625 -36.953125 L 12.171875 -36.953125 L 12.171875 -9.640625 L 13.984375 -9.640625 C 15.023438 -9.640625 15.546875 -10.359375 15.546875 -11.796875 L 15.546875 -36.953125 L 24.46875 -36.953125 Z M 24.46875 -9.734375 "/></g></g></g><g fill="#f8f6e9" fill-opacity="1"><g transform="translate(390.839925, 206.080662)"><g><path d="M 13.859375 -27.296875 L 13.734375 -27.296875 C 12.296875 -27.296875 11.578125 -26.269531 11.578125 -24.21875 L 11.578125 0 L 2.625 0 L 2.625 -22.40625 C 2.625 -25.09375 3.476562 -26.722656 5.1875 -27.296875 L 1.28125 -27.296875 L 1.28125 -36.953125 L 13.859375 -36.953125 Z M 13.859375 -27.296875 "/></g></g></g><g fill="#f8f6e9" fill-opacity="1"><g transform="translate(405.973417, 206.080662)"><g><path d="M 16.71875 0 C 16.445312 -1.457031 15.859375 -3.375 14.953125 -5.75 C 14.054688 -8.132812 12.828125 -11.015625 11.265625 -14.390625 C 11.097656 -14.203125 10.972656 -14.054688 10.890625 -13.953125 C 10.804688 -13.847656 10.753906 -13.785156 10.734375 -13.765625 C 10.710938 -13.679688 10.695312 -13.5 10.6875 -13.21875 C 10.675781 -12.9375 10.671875 -12.546875 10.671875 -12.046875 L 10.671875 0 L 1.65625 0 L 1.65625 -11.046875 C 1.65625 -16.890625 3.453125 -20.675781 7.046875 -22.40625 C 3.597656 -29.1875 1.675781 -34.035156 1.28125 -36.953125 L 10.671875 -36.953125 C 11.128906 -34.867188 11.8125 -32.671875 12.71875 -30.359375 C 13.625 -28.046875 14.757812 -25.59375 16.125 -23 C 16.644531 -23.375 16.90625 -24.144531 16.90625 -25.3125 L 16.90625 -36.953125 L 26.03125 -36.953125 L 26.03125 -24.4375 C 26.03125 -22.5625 25.457031 -20.738281 24.3125 -18.96875 C 23.164062 -17.21875 21.75 -15.890625 20.0625 -14.984375 C 23.957031 -7.242188 25.945312 -2.25 26.03125 0 Z M 16.71875 0 "/></g></g></g><g fill="#f8f6e9" fill-opacity="1"><g transform="translate(80.496995, 121.25308)"><g><path d="M 22.28125 -29.4375 C 22.28125 -27.082031 21.773438 -25.046875 20.765625 -23.328125 C 20.015625 -22.085938 18.535156 -20.414062 16.328125 -18.3125 L 10.21875 -12.578125 L 10.21875 5.078125 L 1.546875 5.078125 L 1.546875 -35.796875 L 10.25 -35.796875 L 10.25 -23.484375 L 11.703125 -24.875 C 12.972656 -26.082031 13.609375 -27.785156 13.609375 -29.984375 L 13.609375 -35.796875 L 22.28125 -35.796875 Z M 22.28125 -29.4375 "/></g></g></g><g fill="#f8f6e9" fill-opacity="1"><g transform="translate(104.012827, 121.25308)"><g><path d="M 21.375 -12.9375 C 21.375 -4.3125 17.242188 0 8.984375 0 L 5.203125 0 L 5.203125 -9.34375 L 7.734375 -9.34375 C 9.691406 -9.34375 11.023438 -9.96875 11.734375 -11.21875 C 12.234375 -12.101562 12.484375 -13.644531 12.484375 -15.84375 L 12.484375 -24.96875 C 12.484375 -25.957031 11.976562 -26.453125 10.96875 -26.453125 L 1.546875 -26.453125 L 1.546875 -40.234375 L 10.3125 -40.234375 L 10.3125 -35.796875 L 16.890625 -35.796875 C 19.878906 -35.796875 21.375 -34.351562 21.375 -31.46875 Z M 21.375 -12.9375 "/></g></g></g><g fill="#f8f6e9" fill-opacity="1"><g transform="translate(126.924138, 121.25308)"><g><path d="M 23.328125 0 L 14.5625 0 L 14.5625 -24.75 C 14.5625 -25.882812 14.050781 -26.453125 13.03125 -26.453125 L 11.96875 -26.453125 C 10.9375 -26.453125 10.421875 -25.882812 10.421875 -24.75 L 10.421875 0 L 1.546875 0 L 1.546875 -29.53125 C 1.546875 -31.769531 1.914062 -33.332031 2.65625 -34.21875 C 3.5 -35.269531 5.007812 -35.796875 7.1875 -35.796875 L 17.296875 -35.796875 C 21.316406 -35.796875 23.328125 -33.707031 23.328125 -29.53125 Z M 23.328125 0 "/></g></g></g><g fill="#f8f6e9" fill-opacity="1"><g transform="translate(151.80014, 121.25308)"><g><path d="M 21.375 -12.9375 C 21.375 -4.3125 17.242188 0 8.984375 0 L 5.203125 0 L 5.203125 -9.34375 L 7.734375 -9.34375 C 9.691406 -9.34375 11.023438 -9.96875 11.734375 -11.21875 C 12.234375 -12.101562 12.484375 -13.644531 12.484375 -15.84375 L 12.484375 -24.96875 C 12.484375 -25.957031 11.976562 -26.453125 10.96875 -26.453125 L 1.546875 -26.453125 L 1.546875 -40.234375 L 10.3125 -40.234375 L 10.3125 -35.796875 L 16.890625 -35.796875 C 19.878906 -35.796875 21.375 -34.351562 21.375 -31.46875 Z M 21.375 -12.9375 "/></g></g></g><g fill="#f8f6e9" fill-opacity="1"><g transform="translate(35.035256, 207.378795)"><g><path d="M 24.390625 -10.734375 C 24.390625 -7.222656 23.40625 -4.421875 21.4375 -2.328125 C 19.394531 -0.171875 16.640625 0.90625 13.171875 0.90625 C 9.609375 0.90625 6.78125 -0.140625 4.6875 -2.234375 C 2.59375 -4.328125 1.546875 -7.160156 1.546875 -10.734375 L 1.546875 -30.078125 C 1.546875 -31.109375 1.644531 -31.984375 1.84375 -32.703125 C 2.039062 -33.429688 2.359375 -34.019531 2.796875 -34.46875 C 3.242188 -34.925781 3.828125 -35.257812 4.546875 -35.46875 C 5.265625 -35.6875 6.132812 -35.796875 7.15625 -35.796875 L 18.703125 -35.796875 C 22.492188 -35.796875 24.390625 -33.890625 24.390625 -30.078125 Z M 15.5625 -25.71875 C 15.5625 -26.207031 15.363281 -26.453125 14.96875 -26.453125 L 10.90625 -26.453125 C 10.507812 -26.453125 10.3125 -26.207031 10.3125 -25.71875 L 10.3125 -11.703125 C 10.3125 -9.503906 11.226562 -8.40625 13.0625 -8.40625 C 14.726562 -8.40625 15.5625 -9.503906 15.5625 -11.703125 Z M 15.5625 -25.71875 "/></g></g></g><g fill="#f8f6e9" fill-opacity="1"><g transform="translate(60.969167, 207.378795)"><g><path d="M 19.171875 0 L 10.3125 0 L 10.3125 -24.96875 C 10.3125 -25.957031 9.796875 -26.453125 8.765625 -26.453125 L 0.9375 -26.453125 L 0.9375 -35.796875 L 12.84375 -35.796875 C 14.695312 -35.796875 16.21875 -35.195312 17.40625 -34 C 18.582031 -32.832031 19.171875 -31.3125 19.171875 -29.4375 Z M 19.171875 0 "/></g></g></g><g fill="#f8f6e9" fill-opacity="1"><g transform="translate(81.67398, 207.378795)"><g><path d="M 22.9375 0 L 14.0625 0 L 14.0625 -24.96875 C 14.0625 -25.957031 13.554688 -26.453125 12.546875 -26.453125 L 1.546875 -26.453125 L 1.546875 -35.796875 L 16.625 -35.796875 C 18.476562 -35.796875 20 -35.195312 21.1875 -34 C 22.351562 -32.832031 22.9375 -31.3125 22.9375 -29.4375 Z M 10.28125 0 L 1.578125 0 L 1.578125 -22.1875 L 10.28125 -22.1875 Z M 10.28125 0 "/></g></g></g><g fill="#f8f6e9" fill-opacity="1"><g transform="translate(106.157044, 207.378795)"><g/></g></g><g fill="#f8f6e9" fill-opacity="1"><g transform="translate(119.849424, 207.378795)"><g><path d="M 19.171875 0 L 10.3125 0 L 10.3125 -24.96875 C 10.3125 -25.957031 9.796875 -26.453125 8.765625 -26.453125 L 0.9375 -26.453125 L 0.9375 -35.796875 L 12.84375 -35.796875 C 14.695312 -35.796875 16.21875 -35.195312 17.40625 -34 C 18.582031 -32.832031 19.171875 -31.3125 19.171875 -29.4375 Z M 19.171875 0 "/></g></g></g><g fill="#f8f6e9" fill-opacity="1"><g transform="translate(140.554237, 207.378795)"><g><path d="M 24.75 0 L 16.015625 0 L 16.015625 -24.75 C 16.015625 -25.882812 15.503906 -26.453125 14.484375 -26.453125 L 13.296875 -26.453125 C 12.253906 -26.453125 11.734375 -25.882812 11.734375 -24.75 L 11.734375 -4.296875 C 11.734375 -1.429688 10.53125 0 8.125 0 L 0.609375 0 L 0.609375 -9.34375 L 2.109375 -9.34375 C 2.617188 -9.34375 2.875 -9.5625 2.875 -10 L 2.875 -28.921875 C 2.875 -31.359375 3.347656 -33.113281 4.296875 -34.1875 C 5.242188 -35.257812 6.914062 -35.796875 9.3125 -35.796875 L 18.734375 -35.796875 C 22.742188 -35.796875 24.75 -33.503906 24.75 -28.921875 Z M 24.75 0 "/></g></g></g><g fill="#f8f6e9" fill-opacity="1"><g transform="translate(166.881087, 207.378795)"><g><path d="M 16.203125 0 C 15.941406 -1.40625 15.367188 -3.257812 14.484375 -5.5625 C 13.609375 -7.875 12.414062 -10.664062 10.90625 -13.9375 C 10.75 -13.75 10.628906 -13.601562 10.546875 -13.5 C 10.460938 -13.40625 10.410156 -13.347656 10.390625 -13.328125 C 10.378906 -13.242188 10.367188 -13.066406 10.359375 -12.796875 C 10.347656 -12.523438 10.34375 -12.148438 10.34375 -11.671875 L 10.34375 0 L 1.609375 0 L 1.609375 -10.703125 C 1.609375 -16.359375 3.347656 -20.023438 6.828125 -21.703125 C 3.484375 -28.273438 1.617188 -32.972656 1.234375 -35.796875 L 10.34375 -35.796875 C 10.78125 -33.773438 11.4375 -31.644531 12.3125 -29.40625 C 13.1875 -27.175781 14.289062 -24.800781 15.625 -22.28125 C 16.132812 -22.644531 16.390625 -23.390625 16.390625 -24.515625 L 16.390625 -35.796875 L 25.203125 -35.796875 L 25.203125 -23.671875 C 25.203125 -21.859375 24.648438 -20.09375 23.546875 -18.375 C 22.441406 -16.6875 21.070312 -15.398438 19.4375 -14.515625 C 23.207031 -7.015625 25.128906 -2.175781 25.203125 0 Z M 16.203125 0 "/></g></g></g><g fill="#f8f6e9" fill-opacity="1"><g transform="translate(193.328841, 207.378795)"><g><path d="M 25.296875 -6.4375 C 25.296875 -2.144531 23.351562 0 19.46875 0 L 13.296875 0 L 13.296875 -9.375 L 15.140625 -9.375 C 16.046875 -9.375 16.5 -9.914062 16.5 -11 L 16.5 -24.640625 C 16.5 -25.722656 16.226562 -26.265625 15.6875 -26.265625 C 15.144531 -26.265625 14.769531 -25.648438 14.5625 -24.421875 L 10.1875 0 L 1.546875 0 L 5.234375 -19.984375 L 3.5 -19.984375 C 2.15625 -19.984375 1.484375 -20.644531 1.484375 -21.96875 L 1.484375 -35.796875 L 10.25 -35.796875 L 10.25 -23.15625 L 12 -30.078125 C 12.96875 -33.890625 15.050781 -35.796875 18.25 -35.796875 L 18.703125 -35.796875 C 23.097656 -35.796875 25.296875 -33.113281 25.296875 -27.75 Z M 25.296875 -6.4375 "/></g></g></g></svg>