<svg xmlns="http://www.w3.org/2000/svg" xmlns:xlink="http://www.w3.org/1999/xlink" width="969" zoomAndPan="magnify" viewBox="0 0 726.75 173.249993" height="231" preserveAspectRatio="xMidYMid meet" version="1.0"><defs><g/><clipPath id="a45310322b"><path d="M 1.441406 36.878906 L 724.5 36.878906 L 724.5 172.328125 L 1.441406 172.328125 Z M 1.441406 36.878906 " clip-rule="nonzero"/></clipPath><clipPath id="3d8ba121ff"><path d="M 1.460938 36.878906 L 724.3125 36.878906 L 724.3125 172.042969 L 1.460938 172.042969 Z M 1.460938 36.878906 " clip-rule="nonzero"/></clipPath><clipPath id="6d1fa6fc20"><path d="M 1.441406 19.488281 L 724.5 19.488281 L 724.5 154.941406 L 1.441406 154.941406 Z M 1.441406 19.488281 " clip-rule="nonzero"/></clipPath><clipPath id="6921e1a662"><path d="M 1.460938 19.488281 L 724.3125 19.488281 L 724.3125 154.652344 L 1.460938 154.652344 Z M 1.460938 19.488281 " clip-rule="nonzero"/></clipPath><clipPath id="ccfbafe148"><path d="M 152 0 L 571 0 L 571 172.503906 L 152 172.503906 Z M 152 0 " clip-rule="nonzero"/></clipPath><clipPath id="7eb23c8fe7"><path d="M 596.515625 49 L 676.421875 49 L 676.421875 128.808594 L 596.515625 128.808594 Z M 596.515625 49 " clip-rule="nonzero"/></clipPath><clipPath id="70d859fa2b"><path d="M 46.597656 49 L 126.503906 49 L 126.503906 128.808594 L 46.597656 128.808594 Z M 46.597656 49 " clip-rule="nonzero"/></clipPath></defs><g clip-path="url(#a45310322b)"><path fill="#cf4545" d="M 1.441406 36.878906 L 724.734375 36.878906 L 724.734375 172.328125 L 1.441406 172.328125 Z M 1.441406 36.878906 " fill-opacity="1" fill-rule="nonzero"/></g><g clip-path="url(#3d8ba121ff)"><path stroke-linecap="butt" transform="matrix(0.746767, 0, 0, 0.746767, 1.459106, 36.877219)" fill="none" stroke-linejoin="miter" d="M 0.00245219 0.00225879 L 968.201845 0.00225879 L 968.201845 181.372584 L 0.00245219 181.372584 Z M 0.00245219 0.00225879 " stroke="#cf4545" stroke-width="20" stroke-opacity="1" stroke-miterlimit="4"/></g><g clip-path="url(#6d1fa6fc20)"><path fill="#ffcf7e" d="M 1.441406 19.488281 L 724.734375 19.488281 L 724.734375 154.941406 L 1.441406 154.941406 Z M 1.441406 19.488281 " fill-opacity="1" fill-rule="nonzero"/></g><g clip-path="url(#6921e1a662)"><path stroke-linecap="butt" transform="matrix(0.746767, 0, 0, 0.746767, 1.459106, 19.489334)" fill="none" stroke-linejoin="miter" d="M 0.00245219 -0.00141035 L 968.201845 -0.00141035 L 968.201845 181.374145 L 0.00245219 181.374145 Z M 0.00245219 -0.00141035 " stroke="#cf4545" stroke-width="20" stroke-opacity="1" stroke-miterlimit="4"/></g><g clip-path="url(#ccfbafe148)"><path stroke-linecap="butt" transform="matrix(0.746767, 0, 0, 0.746767, 121.952457, 10.355197)" fill="none" stroke-linejoin="miter" d="M 156.55069 148.510297 L 136.981966 148.510297 L 136.981966 56.839113 L 156.55069 56.839113 Z M 216.674433 122.580821 C 216.674433 132.19518 212.317109 137.002359 203.607693 137.002359 L 189.792937 137.002359 L 189.792937 116.010835 L 193.925333 116.010835 C 195.954914 116.010835 196.969705 114.79204 196.969705 112.35445 L 196.969705 81.821799 C 196.969705 79.384209 196.362923 78.165414 195.144128 78.165414 C 193.925333 78.165414 193.088392 79.541135 192.638536 82.292579 L 182.820173 137.002359 L 163.455453 137.002359 L 171.715013 92.246944 L 167.854624 92.246944 C 164.831174 92.246944 163.31945 90.756143 163.31945 87.779772 L 163.31945 56.839113 L 182.956176 56.839113 L 182.956176 85.138178 L 186.884567 69.633847 C 189.050152 61.102281 193.721328 56.839113 200.898097 56.839113 L 201.912887 56.839113 C 211.752174 56.839113 216.674433 62.838933 216.674433 74.849035 Z M 250.183454 77.757405 L 249.911448 77.757405 C 246.799074 77.757405 245.240272 79.990991 245.240272 84.463394 L 245.240272 137.002359 L 225.812781 137.002359 L 225.812781 88.386554 C 225.812781 82.564584 227.659282 79.023278 231.362745 77.757405 L 222.899181 77.757405 L 222.899181 56.839113 L 250.183454 56.839113 Z M 304.349223 137.002359 L 284.440491 137.002359 L 284.440491 81.073783 C 284.440491 78.866352 283.315852 77.757405 281.056112 77.757405 L 256.413433 77.757405 L 256.413433 56.839113 L 290.199691 56.839113 C 294.347779 56.839113 297.758314 58.167757 300.420832 60.830275 C 303.041503 63.450946 304.349223 66.85625 304.349223 71.056647 Z M 275.976927 137.002359 L 256.481434 137.002359 L 256.481434 87.303762 L 275.976927 87.303762 Z M 384.235233 77.757405 C 379.815138 77.757405 377.602476 79.92299 377.602476 84.25939 L 377.602476 137.002359 L 357.698975 137.002359 L 357.698975 89.809354 C 357.698975 83.626453 360.314415 79.609137 365.550527 77.757405 L 340.567841 77.757405 L 340.567841 56.839113 L 384.235233 56.839113 Z M 444.358975 122.580821 C 444.358975 132.19518 440.001651 137.002359 431.292235 137.002359 L 417.477479 137.002359 L 417.477479 116.010835 L 421.609875 116.010835 C 423.639456 116.010835 424.654247 114.79204 424.654247 112.35445 L 424.654247 81.821799 C 424.654247 79.384209 424.047465 78.165414 422.82867 78.165414 C 421.609875 78.165414 420.772934 79.541135 420.323078 82.292579 L 410.504715 137.002359 L 391.139995 137.002359 L 399.404786 92.246944 L 395.544396 92.246944 C 392.520947 92.246944 391.009223 90.756143 391.009223 87.779772 L 391.009223 56.839113 L 410.640718 56.839113 L 410.640718 85.138178 L 414.569109 69.633847 C 416.734694 61.102281 421.40587 56.839113 428.582639 56.839113 L 429.59743 56.839113 C 439.436716 56.839113 444.358975 62.838933 444.358975 74.849035 Z M 504.477486 122.580821 C 504.477486 132.19518 500.125393 137.002359 491.410746 137.002359 L 477.601221 137.002359 L 477.601221 116.010835 L 481.728386 116.010835 C 483.763199 116.010835 484.77799 114.79204 484.77799 112.35445 L 484.77799 81.821799 C 484.77799 79.384209 484.165976 78.165414 482.947181 78.165414 C 481.728386 78.165414 480.896676 79.541135 480.441589 82.292579 L 470.628457 137.002359 L 451.263737 137.002359 L 459.523298 92.246944 L 455.662908 92.246944 C 452.639459 92.246944 451.127734 90.756143 451.127734 87.779772 L 451.127734 56.839113 L 470.759229 56.839113 L 470.759229 85.138178 L 474.687621 69.633847 C 476.853205 61.102281 481.524382 56.839113 488.70115 56.839113 L 489.721172 56.839113 C 499.560458 56.839113 504.477486 62.838933 504.477486 74.849035 Z M 504.477486 122.580821 " stroke="#cf4545" stroke-width="16.986708" stroke-opacity="1" stroke-miterlimit="4"/></g><g fill="#ffcf7e" fill-opacity="1"><g transform="translate(221.669212, 112.662301)"><g><path d="M 17.1875 8.59375 L 2.578125 8.59375 L 2.578125 -59.859375 L 17.1875 -59.859375 Z M 17.1875 8.59375 "/></g></g></g><g fill="#ffcf7e" fill-opacity="1"><g transform="translate(241.437611, 112.662301)"><g><path d="M 42.3125 -10.765625 C 42.3125 -3.585938 39.0625 0 32.5625 0 L 22.25 0 L 22.25 -15.671875 L 25.328125 -15.671875 C 26.847656 -15.671875 27.609375 -16.582031 27.609375 -18.40625 L 27.609375 -41.203125 C 27.609375 -43.023438 27.148438 -43.9375 26.234375 -43.9375 C 25.328125 -43.9375 24.707031 -42.910156 24.375 -40.859375 L 17.03125 0 L 2.578125 0 L 8.75 -33.421875 L 5.859375 -33.421875 C 3.609375 -33.421875 2.484375 -34.53125 2.484375 -36.75 L 2.484375 -59.859375 L 17.140625 -59.859375 L 17.140625 -38.734375 L 20.078125 -50.3125 C 21.691406 -56.675781 25.175781 -59.859375 30.53125 -59.859375 L 31.296875 -59.859375 C 38.640625 -59.859375 42.3125 -55.378906 42.3125 -46.421875 Z M 42.3125 -10.765625 "/></g></g></g><g fill="#ffcf7e" fill-opacity="1"><g transform="translate(286.333614, 112.662301)"><g><path d="M 22.453125 -44.234375 L 22.25 -44.234375 C 19.914062 -44.234375 18.75 -42.566406 18.75 -39.234375 L 18.75 0 L 4.25 0 L 4.25 -36.296875 C 4.25 -40.648438 5.628906 -43.296875 8.390625 -44.234375 L 2.078125 -44.234375 L 2.078125 -59.859375 L 22.453125 -59.859375 Z M 22.453125 -44.234375 "/></g></g></g><g fill="#ffcf7e" fill-opacity="1"><g transform="translate(310.854518, 112.662301)"><g><path d="M 38.375 0 L 23.515625 0 L 23.515625 -41.765625 C 23.515625 -43.410156 22.671875 -44.234375 20.984375 -44.234375 L 2.578125 -44.234375 L 2.578125 -59.859375 L 27.8125 -59.859375 C 30.90625 -59.859375 33.445312 -58.863281 35.4375 -56.875 C 37.394531 -54.925781 38.375 -52.382812 38.375 -49.25 Z M 17.1875 0 L 2.625 0 L 2.625 -37.109375 L 17.1875 -37.109375 Z M 17.1875 0 "/></g></g></g><g fill="#ffcf7e" fill-opacity="1"><g transform="translate(351.806954, 112.662301)"><g/></g></g><g fill="#ffcf7e" fill-opacity="1"><g transform="translate(374.709983, 112.662301)"><g><path d="M 34.171875 -44.234375 C 30.867188 -44.234375 29.21875 -42.617188 29.21875 -39.390625 L 29.21875 0 L 14.359375 0 L 14.359375 -35.234375 C 14.359375 -39.859375 16.3125 -42.859375 20.21875 -44.234375 L 1.5625 -44.234375 L 1.5625 -59.859375 L 34.171875 -59.859375 Z M 34.171875 -44.234375 "/></g></g></g><g fill="#ffcf7e" fill-opacity="1"><g transform="translate(411.466058, 112.662301)"><g><path d="M 42.3125 -10.765625 C 42.3125 -3.585938 39.0625 0 32.5625 0 L 22.25 0 L 22.25 -15.671875 L 25.328125 -15.671875 C 26.847656 -15.671875 27.609375 -16.582031 27.609375 -18.40625 L 27.609375 -41.203125 C 27.609375 -43.023438 27.148438 -43.9375 26.234375 -43.9375 C 25.328125 -43.9375 24.707031 -42.910156 24.375 -40.859375 L 17.03125 0 L 2.578125 0 L 8.75 -33.421875 L 5.859375 -33.421875 C 3.609375 -33.421875 2.484375 -34.53125 2.484375 -36.75 L 2.484375 -59.859375 L 17.140625 -59.859375 L 17.140625 -38.734375 L 20.078125 -50.3125 C 21.691406 -56.675781 25.175781 -59.859375 30.53125 -59.859375 L 31.296875 -59.859375 C 38.640625 -59.859375 42.3125 -55.378906 42.3125 -46.421875 Z M 42.3125 -10.765625 "/></g></g></g><g fill="#ffcf7e" fill-opacity="1"><g transform="translate(456.362062, 112.662301)"><g><path d="M 42.3125 -10.765625 C 42.3125 -3.585938 39.0625 0 32.5625 0 L 22.25 0 L 22.25 -15.671875 L 25.328125 -15.671875 C 26.847656 -15.671875 27.609375 -16.582031 27.609375 -18.40625 L 27.609375 -41.203125 C 27.609375 -43.023438 27.148438 -43.9375 26.234375 -43.9375 C 25.328125 -43.9375 24.707031 -42.910156 24.375 -40.859375 L 17.03125 0 L 2.578125 0 L 8.75 -33.421875 L 5.859375 -33.421875 C 3.609375 -33.421875 2.484375 -34.53125 2.484375 -36.75 L 2.484375 -59.859375 L 17.140625 -59.859375 L 17.140625 -38.734375 L 20.078125 -50.3125 C 21.691406 -56.675781 25.175781 -59.859375 30.53125 -59.859375 L 31.296875 -59.859375 C 38.640625 -59.859375 42.3125 -55.378906 42.3125 -46.421875 Z M 42.3125 -10.765625 "/></g></g></g><path fill="#cf4545" d="M 602.71875 61.472656 C 609.394531 53.265625 618.996094 47.53125 629.921875 45.886719 L 624.9375 39.671875 C 622.347656 36.992188 616.742188 38.140625 609.691406 42.210938 C 602.640625 46.28125 598.84375 50.5625 599.867188 54.148438 Z M 602.71875 61.472656 " fill-opacity="1" fill-rule="nonzero"/><path fill="#cf4545" d="M 636.414062 59.871094 C 634.917969 59.871094 633.703125 61.085938 633.703125 62.585938 L 633.703125 86.105469 L 610.183594 86.105469 C 608.683594 86.105469 607.46875 87.320312 607.46875 88.820312 C 607.46875 90.320312 608.683594 91.535156 610.183594 91.535156 L 636.414062 91.535156 C 637.914062 91.535156 639.128906 90.320312 639.128906 88.820312 L 639.128906 62.585938 C 639.128906 61.085938 637.914062 59.871094 636.414062 59.871094 Z M 636.414062 59.871094 " fill-opacity="1" fill-rule="nonzero"/><path fill="#cf4545" d="M 670.113281 61.472656 C 663.441406 53.265625 653.835938 47.53125 642.910156 45.886719 L 647.894531 39.671875 C 650.488281 36.992188 656.09375 38.140625 663.144531 42.210938 C 670.191406 46.28125 673.988281 50.5625 672.964844 54.148438 Z M 670.113281 61.472656 " fill-opacity="1" fill-rule="nonzero"/><g clip-path="url(#7eb23c8fe7)"><path fill="#cf4545" d="M 636.414062 49.015625 C 614.46875 49.015625 596.613281 66.871094 596.613281 88.820312 C 596.613281 110.765625 614.46875 128.625 636.414062 128.625 C 658.363281 128.625 676.21875 110.769531 676.21875 88.820312 C 676.21875 66.871094 658.363281 49.015625 636.414062 49.015625 Z M 636.414062 123.195312 C 617.460938 123.195312 602.039062 107.773438 602.039062 88.820312 C 602.039062 69.867188 617.460938 54.445312 636.414062 54.445312 C 655.371094 54.445312 670.792969 69.867188 670.792969 88.820312 C 670.792969 107.773438 655.371094 123.195312 636.414062 123.195312 Z M 636.414062 123.195312 " fill-opacity="1" fill-rule="nonzero"/></g><path fill="#cf4545" d="M 52.800781 61.472656 C 59.476562 53.265625 69.078125 47.53125 80.003906 45.886719 L 75.019531 39.671875 C 72.429688 36.992188 66.824219 38.140625 59.773438 42.210938 C 52.722656 46.28125 48.925781 50.5625 49.949219 54.148438 Z M 52.800781 61.472656 " fill-opacity="1" fill-rule="nonzero"/><path fill="#cf4545" d="M 86.496094 59.871094 C 85 59.871094 83.785156 61.085938 83.785156 62.585938 L 83.785156 86.105469 L 60.265625 86.105469 C 58.765625 86.105469 57.550781 87.320312 57.550781 88.820312 C 57.550781 90.320312 58.765625 91.535156 60.265625 91.535156 L 86.496094 91.535156 C 87.996094 91.535156 89.210938 90.320312 89.210938 88.820312 L 89.210938 62.585938 C 89.210938 61.085938 87.996094 59.871094 86.496094 59.871094 Z M 86.496094 59.871094 " fill-opacity="1" fill-rule="nonzero"/><path fill="#cf4545" d="M 120.195312 61.472656 C 113.523438 53.265625 103.917969 47.53125 92.992188 45.886719 L 97.976562 39.671875 C 100.570312 36.992188 106.175781 38.140625 113.226562 42.210938 C 120.273438 46.28125 124.070312 50.5625 123.046875 54.148438 Z M 120.195312 61.472656 " fill-opacity="1" fill-rule="nonzero"/><g clip-path="url(#70d859fa2b)"><path fill="#cf4545" d="M 86.496094 49.015625 C 64.550781 49.015625 46.695312 66.871094 46.695312 88.820312 C 46.695312 110.765625 64.550781 128.625 86.496094 128.625 C 108.445312 128.625 126.300781 110.769531 126.300781 88.820312 C 126.300781 66.871094 108.445312 49.015625 86.496094 49.015625 Z M 86.496094 123.195312 C 67.542969 123.195312 52.121094 107.773438 52.121094 88.820312 C 52.121094 69.867188 67.542969 54.445312 86.496094 54.445312 C 105.453125 54.445312 120.875 69.867188 120.875 88.820312 C 120.875 107.773438 105.453125 123.195312 86.496094 123.195312 Z M 86.496094 123.195312 " fill-opacity="1" fill-rule="nonzero"/></g></svg>