<svg xmlns="http://www.w3.org/2000/svg" xmlns:xlink="http://www.w3.org/1999/xlink" width="1014" zoomAndPan="magnify" viewBox="0 0 760.5 150.749998" height="201" preserveAspectRatio="xMidYMid meet" version="1.0"><defs><clipPath id="943cd22a34"><path d="M 476.359375 0 L 759.128906 0 L 759.128906 149.867188 L 476.359375 149.867188 Z M 476.359375 0 " clip-rule="nonzero"/></clipPath><clipPath id="0f19f9d02f"><path d="M 551.933594 149.867188 L 759.128906 149.867188 L 759.128906 -0.00390625 L 551.933594 -0.00390625 L 476.558594 74.933594 Z M 551.933594 149.867188 " clip-rule="nonzero"/></clipPath><clipPath id="7405c64359"><path d="M 241 0 L 523.652344 0 L 523.652344 149.867188 L 241 149.867188 Z M 241 0 " clip-rule="nonzero"/></clipPath><clipPath id="4e9c8ea2c0"><path d="M 523.652344 149.867188 L 316.457031 149.867188 L 241.078125 74.933594 L 316.457031 -0.00390625 L 523.652344 -0.00390625 L 448.273438 74.933594 Z M 523.652344 149.867188 " clip-rule="nonzero"/></clipPath><clipPath id="60ccd63058"><path d="M 0.378906 0 L 282.941406 0 L 282.941406 149.867188 L 0.378906 149.867188 Z M 0.378906 0 " clip-rule="nonzero"/></clipPath><clipPath id="79563bfa39"><path d="M 282.941406 149.867188 L 75.746094 149.867188 L 0.371094 74.933594 L 75.746094 -0.00390625 L 282.941406 -0.00390625 L 207.566406 74.933594 Z M 282.941406 149.867188 " clip-rule="nonzero"/></clipPath></defs><g clip-path="url(#943cd22a34)"><g clip-path="url(#0f19f9d02f)"><path fill="#303144" d="M 759.128906 149.867188 L 476.359375 149.867188 L 476.359375 -0.00390625 L 759.128906 -0.00390625 Z M 759.128906 149.867188 " fill-opacity="1" fill-rule="nonzero"/></g></g><g clip-path="url(#7405c64359)"><g clip-path="url(#4e9c8ea2c0)"><path fill="#303144" d="M 523.652344 149.867188 L 240.882812 149.867188 L 240.882812 -0.00390625 L 523.652344 -0.00390625 Z M 523.652344 149.867188 " fill-opacity="1" fill-rule="nonzero"/></g></g><g clip-path="url(#60ccd63058)"><g clip-path="url(#79563bfa39)"><path fill="#303144" d="M 282.941406 149.867188 L 0.171875 149.867188 L 0.171875 -0.00390625 L 282.941406 -0.00390625 Z M 282.941406 149.867188 " fill-opacity="1" fill-rule="nonzero"/></g></g></svg>