<svg xmlns="http://www.w3.org/2000/svg" xmlns:xlink="http://www.w3.org/1999/xlink" width="963" zoomAndPan="magnify" viewBox="0 0 722.25 66.75" height="89" preserveAspectRatio="xMidYMid meet" version="1.0"><defs><g/></defs><g fill="#303144" fill-opacity="1"><g transform="translate(515.538836, 44.383769)"><g><path d="M 15.5 0 L 9.5 0 L 9.5 -16.875 C 9.5 -17.539062 9.160156 -17.875 8.484375 -17.875 L 1.046875 -17.875 L 1.046875 -24.1875 L 11.234375 -24.1875 C 12.484375 -24.1875 13.515625 -23.785156 14.328125 -22.984375 C 15.109375 -22.191406 15.5 -21.164062 15.5 -19.90625 Z M 6.953125 0 L 1.0625 0 L 1.0625 -15 L 6.953125 -15 Z M 6.953125 0 "/></g></g><g transform="translate(532.08818, 44.383769)"><g><path d="M 15.46875 -4.703125 C 15.46875 -1.566406 13.945312 0 10.90625 0 L 1.078125 0 L 1.078125 -6.3125 L 8.390625 -6.3125 C 9.203125 -6.3125 9.609375 -6.789062 9.609375 -7.75 L 9.609375 -16.875 C 9.609375 -17.539062 9.300781 -17.875 8.6875 -17.875 L 7.859375 -17.875 C 7.304688 -17.875 7.03125 -17.523438 7.03125 -16.828125 L 7.03125 -13.28125 L 1.046875 -13.28125 L 1.046875 -19.90625 C 1.046875 -22.757812 2.421875 -24.1875 5.171875 -24.1875 L 11.21875 -24.1875 C 12.5 -24.1875 13.523438 -23.789062 14.296875 -23 C 15.078125 -22.195312 15.46875 -21.164062 15.46875 -19.90625 Z M 15.46875 -4.703125 "/></g></g><g transform="translate(548.617094, 44.383769)"><g><path d="M 15.671875 -7.484375 C 15.671875 -5.015625 15.269531 -3.191406 14.46875 -2.015625 C 13.488281 -0.628906 11.816406 0.0625 9.453125 0.0625 C 9.035156 0.0625 8.59375 0.0390625 8.125 0 L 8.125 -6.3125 C 9.164062 -6.3125 9.6875 -7.078125 9.6875 -8.609375 L 9.6875 -16.875 C 9.6875 -17.539062 9.335938 -17.875 8.640625 -17.875 L 1.046875 -17.875 L 1.046875 -24.1875 L 12.640625 -24.1875 C 14.660156 -24.1875 15.671875 -23.210938 15.671875 -21.265625 Z M 6.984375 3.5 L 1.078125 3.5 L 1.078125 -15.21875 L 6.984375 -15.21875 Z M 6.984375 3.5 "/></g></g><g transform="translate(565.35032, 44.383769)"><g><path d="M 16.734375 0 L 10.828125 0 L 10.828125 -16.734375 C 10.828125 -17.492188 10.476562 -17.875 9.78125 -17.875 L 8.984375 -17.875 C 8.273438 -17.875 7.921875 -17.492188 7.921875 -16.734375 L 7.921875 -2.90625 C 7.921875 -0.96875 7.113281 0 5.5 0 L 0.40625 0 L 0.40625 -6.3125 L 1.4375 -6.3125 C 1.769531 -6.3125 1.9375 -6.460938 1.9375 -6.765625 L 1.9375 -19.546875 C 1.9375 -21.203125 2.257812 -22.390625 2.90625 -23.109375 C 3.539062 -23.828125 4.671875 -24.1875 6.296875 -24.1875 L 12.671875 -24.1875 C 15.378906 -24.1875 16.734375 -22.640625 16.734375 -19.546875 Z M 16.734375 0 "/></g></g><g transform="translate(583.145974, 44.383769)"><g><path d="M 15.5 0 L 9.5 0 L 9.5 -16.875 C 9.5 -17.539062 9.160156 -17.875 8.484375 -17.875 L 1.046875 -17.875 L 1.046875 -24.1875 L 11.234375 -24.1875 C 12.484375 -24.1875 13.515625 -23.785156 14.328125 -22.984375 C 15.109375 -22.191406 15.5 -21.164062 15.5 -19.90625 Z M 6.953125 0 L 1.0625 0 L 1.0625 -15 L 6.953125 -15 Z M 6.953125 0 "/></g></g><g transform="translate(599.695318, 44.383769)"><g><path d="M 15.5 0 L 9.5 0 L 9.5 -16.875 C 9.5 -17.539062 9.160156 -17.875 8.484375 -17.875 L 1.046875 -17.875 L 1.046875 -24.1875 L 11.234375 -24.1875 C 12.484375 -24.1875 13.515625 -23.785156 14.328125 -22.984375 C 15.109375 -22.191406 15.5 -21.164062 15.5 -19.90625 Z M 6.953125 0 L 1.0625 0 L 1.0625 -15 L 6.953125 -15 Z M 6.953125 0 "/></g></g><g transform="translate(616.244663, 44.383769)"><g/></g><g transform="translate(625.500038, 44.383769)"><g><path d="M 6.859375 -13.46875 L 1 -13.46875 L 1 -24.1875 L 6.859375 -24.1875 Z M 6.859375 -13.46875 "/></g></g><g transform="translate(633.406947, 44.383769)"><g><path d="M 11.734375 -3.796875 C 11.734375 -1.265625 10.53125 0 8.125 0 L 0.84375 0 L 0.84375 -6.3125 L 5.03125 -6.3125 C 5.519531 -6.3125 5.765625 -6.613281 5.765625 -7.21875 L 5.765625 -16.875 C 5.765625 -17.539062 5.460938 -17.875 4.859375 -17.875 L 2.578125 -17.875 L 2.578125 -24.1875 L 8.03125 -24.1875 C 10.5 -24.1875 11.734375 -22.914062 11.734375 -20.375 Z M 11.734375 -3.796875 "/></g></g><g transform="translate(646.176503, 44.383769)"><g><path d="M 15.46875 -4.703125 C 15.46875 -1.566406 13.945312 0 10.90625 0 L 1.078125 0 L 1.078125 -6.3125 L 8.390625 -6.3125 C 9.203125 -6.3125 9.609375 -6.789062 9.609375 -7.75 L 9.609375 -16.875 C 9.609375 -17.539062 9.300781 -17.875 8.6875 -17.875 L 7.859375 -17.875 C 7.304688 -17.875 7.03125 -17.523438 7.03125 -16.828125 L 7.03125 -13.28125 L 1.046875 -13.28125 L 1.046875 -19.90625 C 1.046875 -22.757812 2.421875 -24.1875 5.171875 -24.1875 L 11.21875 -24.1875 C 12.5 -24.1875 13.523438 -23.789062 14.296875 -23 C 15.078125 -22.195312 15.46875 -21.164062 15.46875 -19.90625 Z M 15.46875 -4.703125 "/></g></g><g transform="translate(662.705417, 44.383769)"><g><path d="M 14.4375 -8.75 C 14.4375 -2.914062 11.644531 0 6.0625 0 L 3.515625 0 L 3.515625 -6.3125 L 5.234375 -6.3125 C 6.554688 -6.3125 7.453125 -6.734375 7.921875 -7.578125 C 8.265625 -8.179688 8.4375 -9.222656 8.4375 -10.703125 L 8.4375 -16.875 C 8.4375 -17.539062 8.097656 -17.875 7.421875 -17.875 L 1.046875 -17.875 L 1.046875 -27.1875 L 6.96875 -27.1875 L 6.96875 -24.1875 L 11.421875 -24.1875 C 13.429688 -24.1875 14.4375 -23.210938 14.4375 -21.265625 Z M 14.4375 -8.75 "/></g></g></g><g fill="#303144" fill-opacity="1"><g transform="translate(285.54801, 44.383769)"><g><path d="M 15.5 0 L 9.5 0 L 9.5 -16.875 C 9.5 -17.539062 9.160156 -17.875 8.484375 -17.875 L 1.046875 -17.875 L 1.046875 -24.1875 L 11.234375 -24.1875 C 12.484375 -24.1875 13.515625 -23.785156 14.328125 -22.984375 C 15.109375 -22.191406 15.5 -21.164062 15.5 -19.90625 Z M 6.953125 0 L 1.0625 0 L 1.0625 -15 L 6.953125 -15 Z M 6.953125 0 "/></g></g><g transform="translate(302.097355, 44.383769)"><g><path d="M 15.46875 -4.703125 C 15.46875 -1.566406 13.945312 0 10.90625 0 L 1.078125 0 L 1.078125 -6.3125 L 8.390625 -6.3125 C 9.203125 -6.3125 9.609375 -6.789062 9.609375 -7.75 L 9.609375 -16.875 C 9.609375 -17.539062 9.300781 -17.875 8.6875 -17.875 L 7.859375 -17.875 C 7.304688 -17.875 7.03125 -17.523438 7.03125 -16.828125 L 7.03125 -13.28125 L 1.046875 -13.28125 L 1.046875 -19.90625 C 1.046875 -22.757812 2.421875 -24.1875 5.171875 -24.1875 L 11.21875 -24.1875 C 12.5 -24.1875 13.523438 -23.789062 14.296875 -23 C 15.078125 -22.195312 15.46875 -21.164062 15.46875 -19.90625 Z M 15.46875 -4.703125 "/></g></g><g transform="translate(318.626268, 44.383769)"><g><path d="M 15.671875 -7.484375 C 15.671875 -5.015625 15.269531 -3.191406 14.46875 -2.015625 C 13.488281 -0.628906 11.816406 0.0625 9.453125 0.0625 C 9.035156 0.0625 8.59375 0.0390625 8.125 0 L 8.125 -6.3125 C 9.164062 -6.3125 9.6875 -7.078125 9.6875 -8.609375 L 9.6875 -16.875 C 9.6875 -17.539062 9.335938 -17.875 8.640625 -17.875 L 1.046875 -17.875 L 1.046875 -24.1875 L 12.640625 -24.1875 C 14.660156 -24.1875 15.671875 -23.210938 15.671875 -21.265625 Z M 6.984375 3.5 L 1.078125 3.5 L 1.078125 -15.21875 L 6.984375 -15.21875 Z M 6.984375 3.5 "/></g></g><g transform="translate(335.359495, 44.383769)"><g><path d="M 16.734375 0 L 10.828125 0 L 10.828125 -16.734375 C 10.828125 -17.492188 10.476562 -17.875 9.78125 -17.875 L 8.984375 -17.875 C 8.273438 -17.875 7.921875 -17.492188 7.921875 -16.734375 L 7.921875 -2.90625 C 7.921875 -0.96875 7.113281 0 5.5 0 L 0.40625 0 L 0.40625 -6.3125 L 1.4375 -6.3125 C 1.769531 -6.3125 1.9375 -6.460938 1.9375 -6.765625 L 1.9375 -19.546875 C 1.9375 -21.203125 2.257812 -22.390625 2.90625 -23.109375 C 3.539062 -23.828125 4.671875 -24.1875 6.296875 -24.1875 L 12.671875 -24.1875 C 15.378906 -24.1875 16.734375 -22.640625 16.734375 -19.546875 Z M 16.734375 0 "/></g></g><g transform="translate(353.155148, 44.383769)"><g><path d="M 15.5 0 L 9.5 0 L 9.5 -16.875 C 9.5 -17.539062 9.160156 -17.875 8.484375 -17.875 L 1.046875 -17.875 L 1.046875 -24.1875 L 11.234375 -24.1875 C 12.484375 -24.1875 13.515625 -23.785156 14.328125 -22.984375 C 15.109375 -22.191406 15.5 -21.164062 15.5 -19.90625 Z M 6.953125 0 L 1.0625 0 L 1.0625 -15 L 6.953125 -15 Z M 6.953125 0 "/></g></g><g transform="translate(369.704493, 44.383769)"><g><path d="M 15.5 0 L 9.5 0 L 9.5 -16.875 C 9.5 -17.539062 9.160156 -17.875 8.484375 -17.875 L 1.046875 -17.875 L 1.046875 -24.1875 L 11.234375 -24.1875 C 12.484375 -24.1875 13.515625 -23.785156 14.328125 -22.984375 C 15.109375 -22.191406 15.5 -21.164062 15.5 -19.90625 Z M 6.953125 0 L 1.0625 0 L 1.0625 -15 L 6.953125 -15 Z M 6.953125 0 "/></g></g><g transform="translate(386.253838, 44.383769)"><g/></g><g transform="translate(395.509212, 44.383769)"><g><path d="M 6.953125 3.46875 L 1.046875 3.46875 L 1.046875 -24.1875 L 6.953125 -24.1875 Z M 6.953125 3.46875 "/></g></g><g transform="translate(403.497847, 44.383769)"><g><path d="M 17.09375 -4.359375 C 17.09375 -1.453125 15.78125 0 13.15625 0 L 8.984375 0 L 8.984375 -6.328125 L 10.234375 -6.328125 C 10.847656 -6.328125 11.15625 -6.695312 11.15625 -7.4375 L 11.15625 -16.65625 C 11.15625 -17.382812 10.972656 -17.75 10.609375 -17.75 C 10.234375 -17.75 9.976562 -17.335938 9.84375 -16.515625 L 6.890625 0 L 1.046875 0 L 3.53125 -13.5 L 2.375 -13.5 C 1.457031 -13.5 1 -13.953125 1 -14.859375 L 1 -24.1875 L 6.921875 -24.1875 L 6.921875 -15.65625 L 8.109375 -20.328125 C 8.765625 -22.898438 10.175781 -24.1875 12.34375 -24.1875 L 12.640625 -24.1875 C 15.609375 -24.1875 17.09375 -22.375 17.09375 -18.75 Z M 17.09375 -4.359375 "/></g></g><g transform="translate(421.640832, 44.383769)"><g><path d="M 9.078125 -17.875 L 8.984375 -17.875 C 8.046875 -17.875 7.578125 -17.203125 7.578125 -15.859375 L 7.578125 0 L 1.71875 0 L 1.71875 -14.671875 C 1.71875 -16.429688 2.273438 -17.5 3.390625 -17.875 L 0.84375 -17.875 L 0.84375 -24.1875 L 9.078125 -24.1875 Z M 9.078125 -17.875 "/></g></g><g transform="translate(431.550008, 44.383769)"><g><path d="M 14.859375 0 L 1.046875 0 L 1.046875 -6.3125 L 5.640625 -6.3125 C 6.984375 -6.3125 7.65625 -7.109375 7.65625 -8.703125 L 7.65625 -15.953125 C 7.65625 -16.660156 7.53125 -17.15625 7.28125 -17.4375 C 7.039062 -17.726562 6.578125 -17.875 5.890625 -17.875 L 1.046875 -17.875 L 1.046875 -24.1875 L 8.984375 -24.1875 C 12.109375 -24.1875 13.671875 -22.34375 13.671875 -18.65625 L 13.671875 -10.375 C 13.671875 -8.238281 12.875 -6.882812 11.28125 -6.3125 L 14.859375 -6.3125 Z M 14.859375 0 "/></g></g></g><g fill="#303144" fill-opacity="1"><g transform="translate(41.297074, 44.383769)"><g><path d="M 15.5 0 L 9.5 0 L 9.5 -16.875 C 9.5 -17.539062 9.160156 -17.875 8.484375 -17.875 L 1.046875 -17.875 L 1.046875 -24.1875 L 11.234375 -24.1875 C 12.484375 -24.1875 13.515625 -23.785156 14.328125 -22.984375 C 15.109375 -22.191406 15.5 -21.164062 15.5 -19.90625 Z M 6.953125 0 L 1.0625 0 L 1.0625 -15 L 6.953125 -15 Z M 6.953125 0 "/></g></g><g transform="translate(57.846419, 44.383769)"><g><path d="M 15.46875 -4.703125 C 15.46875 -1.566406 13.945312 0 10.90625 0 L 1.078125 0 L 1.078125 -6.3125 L 8.390625 -6.3125 C 9.203125 -6.3125 9.609375 -6.789062 9.609375 -7.75 L 9.609375 -16.875 C 9.609375 -17.539062 9.300781 -17.875 8.6875 -17.875 L 7.859375 -17.875 C 7.304688 -17.875 7.03125 -17.523438 7.03125 -16.828125 L 7.03125 -13.28125 L 1.046875 -13.28125 L 1.046875 -19.90625 C 1.046875 -22.757812 2.421875 -24.1875 5.171875 -24.1875 L 11.21875 -24.1875 C 12.5 -24.1875 13.523438 -23.789062 14.296875 -23 C 15.078125 -22.195312 15.46875 -21.164062 15.46875 -19.90625 Z M 15.46875 -4.703125 "/></g></g><g transform="translate(74.375333, 44.383769)"><g><path d="M 15.671875 -7.484375 C 15.671875 -5.015625 15.269531 -3.191406 14.46875 -2.015625 C 13.488281 -0.628906 11.816406 0.0625 9.453125 0.0625 C 9.035156 0.0625 8.59375 0.0390625 8.125 0 L 8.125 -6.3125 C 9.164062 -6.3125 9.6875 -7.078125 9.6875 -8.609375 L 9.6875 -16.875 C 9.6875 -17.539062 9.335938 -17.875 8.640625 -17.875 L 1.046875 -17.875 L 1.046875 -24.1875 L 12.640625 -24.1875 C 14.660156 -24.1875 15.671875 -23.210938 15.671875 -21.265625 Z M 6.984375 3.5 L 1.078125 3.5 L 1.078125 -15.21875 L 6.984375 -15.21875 Z M 6.984375 3.5 "/></g></g><g transform="translate(91.108559, 44.383769)"><g><path d="M 16.734375 0 L 10.828125 0 L 10.828125 -16.734375 C 10.828125 -17.492188 10.476562 -17.875 9.78125 -17.875 L 8.984375 -17.875 C 8.273438 -17.875 7.921875 -17.492188 7.921875 -16.734375 L 7.921875 -2.90625 C 7.921875 -0.96875 7.113281 0 5.5 0 L 0.40625 0 L 0.40625 -6.3125 L 1.4375 -6.3125 C 1.769531 -6.3125 1.9375 -6.460938 1.9375 -6.765625 L 1.9375 -19.546875 C 1.9375 -21.203125 2.257812 -22.390625 2.90625 -23.109375 C 3.539062 -23.828125 4.671875 -24.1875 6.296875 -24.1875 L 12.671875 -24.1875 C 15.378906 -24.1875 16.734375 -22.640625 16.734375 -19.546875 Z M 16.734375 0 "/></g></g><g transform="translate(108.904213, 44.383769)"><g><path d="M 15.5 0 L 9.5 0 L 9.5 -16.875 C 9.5 -17.539062 9.160156 -17.875 8.484375 -17.875 L 1.046875 -17.875 L 1.046875 -24.1875 L 11.234375 -24.1875 C 12.484375 -24.1875 13.515625 -23.785156 14.328125 -22.984375 C 15.109375 -22.191406 15.5 -21.164062 15.5 -19.90625 Z M 6.953125 0 L 1.0625 0 L 1.0625 -15 L 6.953125 -15 Z M 6.953125 0 "/></g></g><g transform="translate(125.453557, 44.383769)"><g><path d="M 15.5 0 L 9.5 0 L 9.5 -16.875 C 9.5 -17.539062 9.160156 -17.875 8.484375 -17.875 L 1.046875 -17.875 L 1.046875 -24.1875 L 11.234375 -24.1875 C 12.484375 -24.1875 13.515625 -23.785156 14.328125 -22.984375 C 15.109375 -22.191406 15.5 -21.164062 15.5 -19.90625 Z M 6.953125 0 L 1.0625 0 L 1.0625 -15 L 6.953125 -15 Z M 6.953125 0 "/></g></g><g transform="translate(142.002902, 44.383769)"><g/></g><g transform="translate(151.258277, 44.383769)"><g><path d="M 6.859375 -13.46875 L 1 -13.46875 L 1 -24.1875 L 6.859375 -24.1875 Z M 6.859375 -13.46875 "/></g></g><g transform="translate(159.165186, 44.383769)"><g><path d="M 12.953125 0 L 6.96875 0 L 6.96875 -16.875 C 6.96875 -17.539062 6.617188 -17.875 5.921875 -17.875 L 0.640625 -17.875 L 0.640625 -24.1875 L 8.6875 -24.1875 C 9.9375 -24.1875 10.960938 -23.785156 11.765625 -22.984375 C 12.554688 -22.191406 12.953125 -21.164062 12.953125 -19.90625 Z M 12.953125 0 "/></g></g><g transform="translate(173.16062, 44.383769)"><g><path d="M 15.765625 0 L 9.84375 0 L 9.84375 -16.734375 C 9.84375 -17.492188 9.5 -17.875 8.8125 -17.875 L 8.09375 -17.875 C 7.394531 -17.875 7.046875 -17.492188 7.046875 -16.734375 L 7.046875 0 L 1.046875 0 L 1.046875 -19.96875 C 1.046875 -21.476562 1.296875 -22.53125 1.796875 -23.125 C 2.367188 -23.832031 3.390625 -24.1875 4.859375 -24.1875 L 11.6875 -24.1875 C 14.40625 -24.1875 15.765625 -22.78125 15.765625 -19.96875 Z M 15.765625 0 "/></g></g><g transform="translate(189.975571, 44.383769)"><g><path d="M 10.953125 0 C 10.773438 -0.957031 10.390625 -2.210938 9.796875 -3.765625 C 9.203125 -5.328125 8.394531 -7.210938 7.375 -9.421875 C 7.269531 -9.296875 7.1875 -9.195312 7.125 -9.125 C 7.070312 -9.0625 7.039062 -9.023438 7.03125 -9.015625 C 7.019531 -8.953125 7.007812 -8.828125 7 -8.640625 C 6.988281 -8.460938 6.984375 -8.210938 6.984375 -7.890625 L 6.984375 0 L 1.078125 0 L 1.078125 -7.234375 C 1.078125 -11.054688 2.257812 -13.535156 4.625 -14.671875 C 2.351562 -19.109375 1.09375 -22.28125 0.84375 -24.1875 L 6.984375 -24.1875 C 7.285156 -22.820312 7.734375 -21.382812 8.328125 -19.875 C 8.921875 -18.363281 9.664062 -16.757812 10.5625 -15.0625 C 10.90625 -15.300781 11.078125 -15.800781 11.078125 -16.5625 L 11.078125 -24.1875 L 17.046875 -24.1875 L 17.046875 -16 C 17.046875 -14.769531 16.671875 -13.578125 15.921875 -12.421875 C 15.171875 -11.273438 14.242188 -10.40625 13.140625 -9.8125 C 15.679688 -4.738281 16.984375 -1.46875 17.046875 0 Z M 10.953125 0 "/></g></g></g></svg>