<svg xmlns="http://www.w3.org/2000/svg" xmlns:xlink="http://www.w3.org/1999/xlink" width="1045" zoomAndPan="magnify" viewBox="0 0 783.75 224.249992" height="299" preserveAspectRatio="xMidYMid meet" version="1.0"><defs><g/><clipPath id="99d086079b"><path d="M 476.363281 0 L 758.65625 0 L 758.65625 149.617188 L 476.363281 149.617188 Z M 476.363281 0 " clip-rule="nonzero"/></clipPath><clipPath id="831c047405"><path d="M 551.808594 149.617188 L 758.65625 149.617188 L 758.65625 -0.00390625 L 551.808594 -0.00390625 L 476.558594 74.804688 Z M 551.808594 149.617188 " clip-rule="nonzero"/></clipPath><clipPath id="d5c06ab0b0"><path d="M 241.277344 0 L 523.574219 0 L 523.574219 149.617188 L 241.277344 149.617188 Z M 241.277344 0 " clip-rule="nonzero"/></clipPath><clipPath id="06a6278999"><path d="M 523.574219 149.617188 L 316.726562 149.617188 L 241.476562 74.804688 L 316.726562 -0.00390625 L 523.574219 -0.00390625 L 448.324219 74.804688 Z M 523.574219 149.617188 " clip-rule="nonzero"/></clipPath><clipPath id="01de5b769f"><path d="M 1.183594 0 L 283.269531 0 L 283.269531 149.617188 L 1.183594 149.617188 Z M 1.183594 0 " clip-rule="nonzero"/></clipPath><clipPath id="4f493c85e7"><path d="M 283.269531 149.617188 L 76.421875 149.617188 L 1.171875 74.804688 L 76.421875 -0.00390625 L 283.269531 -0.00390625 L 208.019531 74.804688 Z M 283.269531 149.617188 " clip-rule="nonzero"/></clipPath></defs><g clip-path="url(#99d086079b)"><g clip-path="url(#831c047405)"><path fill="#303144" d="M 758.65625 149.617188 L 476.363281 149.617188 L 476.363281 -0.00390625 L 758.65625 -0.00390625 Z M 758.65625 149.617188 " fill-opacity="1" fill-rule="nonzero"/></g></g><g clip-path="url(#d5c06ab0b0)"><g clip-path="url(#06a6278999)"><path fill="#303144" d="M 523.574219 149.617188 L 241.277344 149.617188 L 241.277344 -0.00390625 L 523.574219 -0.00390625 Z M 523.574219 149.617188 " fill-opacity="1" fill-rule="nonzero"/></g></g><g clip-path="url(#01de5b769f)"><g clip-path="url(#4f493c85e7)"><path fill="#303144" d="M 283.269531 149.617188 L 0.976562 149.617188 L 0.976562 -0.00390625 L 283.269531 -0.00390625 Z M 283.269531 149.617188 " fill-opacity="1" fill-rule="nonzero"/></g></g><g fill="#303144" fill-opacity="1"><g transform="translate(576.984922, 201.510333)"><g><path d="M 15.515625 0 L 9.5 0 L 9.5 -16.875 C 9.5 -17.550781 9.160156 -17.890625 8.484375 -17.890625 L 1.046875 -17.890625 L 1.046875 -24.203125 L 11.234375 -24.203125 C 12.492188 -24.203125 13.523438 -23.800781 14.328125 -23 C 15.117188 -22.207031 15.515625 -21.175781 15.515625 -19.90625 Z M 6.953125 0 L 1.0625 0 L 1.0625 -15 L 6.953125 -15 Z M 6.953125 0 "/></g></g><g transform="translate(593.540878, 201.510333)"><g><path d="M 15.46875 -4.703125 C 15.46875 -1.566406 13.953125 0 10.921875 0 L 1.078125 0 L 1.078125 -6.3125 L 8.40625 -6.3125 C 9.207031 -6.3125 9.609375 -6.789062 9.609375 -7.75 L 9.609375 -16.875 C 9.609375 -17.550781 9.300781 -17.890625 8.6875 -17.890625 L 7.875 -17.890625 C 7.3125 -17.890625 7.03125 -17.539062 7.03125 -16.84375 L 7.03125 -13.28125 L 1.046875 -13.28125 L 1.046875 -19.90625 C 1.046875 -22.769531 2.421875 -24.203125 5.171875 -24.203125 L 11.21875 -24.203125 C 12.5 -24.203125 13.53125 -23.804688 14.3125 -23.015625 C 15.082031 -22.210938 15.46875 -21.175781 15.46875 -19.90625 Z M 15.46875 -4.703125 "/></g></g><g transform="translate(610.076394, 201.510333)"><g><path d="M 15.671875 -7.484375 C 15.671875 -5.015625 15.269531 -3.195312 14.46875 -2.03125 C 13.488281 -0.632812 11.820312 0.0625 9.46875 0.0625 C 9.039062 0.0625 8.597656 0.0390625 8.140625 0 L 8.140625 -6.3125 C 9.171875 -6.3125 9.6875 -7.078125 9.6875 -8.609375 L 9.6875 -16.875 C 9.6875 -17.550781 9.335938 -17.890625 8.640625 -17.890625 L 1.046875 -17.890625 L 1.046875 -24.203125 L 12.65625 -24.203125 C 14.664062 -24.203125 15.671875 -23.226562 15.671875 -21.28125 Z M 6.984375 3.5 L 1.078125 3.5 L 1.078125 -15.234375 L 6.984375 -15.234375 Z M 6.984375 3.5 "/></g></g><g transform="translate(626.816305, 201.510333)"><g><path d="M 16.734375 0 L 10.828125 0 L 10.828125 -16.734375 C 10.828125 -17.503906 10.484375 -17.890625 9.796875 -17.890625 L 9 -17.890625 C 8.289062 -17.890625 7.9375 -17.503906 7.9375 -16.734375 L 7.9375 -2.90625 C 7.9375 -0.96875 7.125 0 5.5 0 L 0.40625 0 L 0.40625 -6.3125 L 1.4375 -6.3125 C 1.769531 -6.3125 1.9375 -6.460938 1.9375 -6.765625 L 1.9375 -19.5625 C 1.9375 -21.207031 2.257812 -22.390625 2.90625 -23.109375 C 3.539062 -23.835938 4.671875 -24.203125 6.296875 -24.203125 L 12.671875 -24.203125 C 15.378906 -24.203125 16.734375 -22.65625 16.734375 -19.5625 Z M 16.734375 0 "/></g></g><g transform="translate(644.619067, 201.510333)"><g><path d="M 15.515625 0 L 9.5 0 L 9.5 -16.875 C 9.5 -17.550781 9.160156 -17.890625 8.484375 -17.890625 L 1.046875 -17.890625 L 1.046875 -24.203125 L 11.234375 -24.203125 C 12.492188 -24.203125 13.523438 -23.800781 14.328125 -23 C 15.117188 -22.207031 15.515625 -21.175781 15.515625 -19.90625 Z M 6.953125 0 L 1.0625 0 L 1.0625 -15 L 6.953125 -15 Z M 6.953125 0 "/></g></g><g transform="translate(661.175023, 201.510333)"><g><path d="M 15.515625 0 L 9.5 0 L 9.5 -16.875 C 9.5 -17.550781 9.160156 -17.890625 8.484375 -17.890625 L 1.046875 -17.890625 L 1.046875 -24.203125 L 11.234375 -24.203125 C 12.492188 -24.203125 13.523438 -23.800781 14.328125 -23 C 15.117188 -22.207031 15.515625 -21.175781 15.515625 -19.90625 Z M 6.953125 0 L 1.0625 0 L 1.0625 -15 L 6.953125 -15 Z M 6.953125 0 "/></g></g><g transform="translate(677.730978, 201.510333)"><g/></g><g transform="translate(686.99005, 201.510333)"><g><path d="M 6.875 -13.46875 L 1 -13.46875 L 1 -24.203125 L 6.875 -24.203125 Z M 6.875 -13.46875 "/></g></g><g transform="translate(694.900117, 201.510333)"><g><path d="M 11.734375 -3.796875 C 11.734375 -1.265625 10.535156 0 8.140625 0 L 0.84375 0 L 0.84375 -6.3125 L 5.03125 -6.3125 C 5.519531 -6.3125 5.765625 -6.613281 5.765625 -7.21875 L 5.765625 -16.875 C 5.765625 -17.550781 5.460938 -17.890625 4.859375 -17.890625 L 2.578125 -17.890625 L 2.578125 -24.203125 L 8.03125 -24.203125 C 10.5 -24.203125 11.734375 -22.925781 11.734375 -20.375 Z M 11.734375 -3.796875 "/></g></g><g transform="translate(707.674775, 201.510333)"><g><path d="M 15.46875 -4.703125 C 15.46875 -1.566406 13.953125 0 10.921875 0 L 1.078125 0 L 1.078125 -6.3125 L 8.40625 -6.3125 C 9.207031 -6.3125 9.609375 -6.789062 9.609375 -7.75 L 9.609375 -16.875 C 9.609375 -17.550781 9.300781 -17.890625 8.6875 -17.890625 L 7.875 -17.890625 C 7.3125 -17.890625 7.03125 -17.539062 7.03125 -16.84375 L 7.03125 -13.28125 L 1.046875 -13.28125 L 1.046875 -19.90625 C 1.046875 -22.769531 2.421875 -24.203125 5.171875 -24.203125 L 11.21875 -24.203125 C 12.5 -24.203125 13.53125 -23.804688 14.3125 -23.015625 C 15.082031 -22.210938 15.46875 -21.175781 15.46875 -19.90625 Z M 15.46875 -4.703125 "/></g></g><g transform="translate(724.210291, 201.510333)"><g><path d="M 14.453125 -8.75 C 14.453125 -2.914062 11.660156 0 6.078125 0 L 3.515625 0 L 3.515625 -6.3125 L 5.234375 -6.3125 C 6.554688 -6.3125 7.457031 -6.734375 7.9375 -7.578125 C 8.269531 -8.179688 8.4375 -9.222656 8.4375 -10.703125 L 8.4375 -16.875 C 8.4375 -17.550781 8.097656 -17.890625 7.421875 -17.890625 L 1.046875 -17.890625 L 1.046875 -27.203125 L 6.96875 -27.203125 L 6.96875 -24.203125 L 11.421875 -24.203125 C 13.441406 -24.203125 14.453125 -23.226562 14.453125 -21.28125 Z M 14.453125 -8.75 "/></g></g></g><g fill="#303144" fill-opacity="1"><g transform="translate(346.902214, 201.510333)"><g><path d="M 15.515625 0 L 9.5 0 L 9.5 -16.875 C 9.5 -17.550781 9.160156 -17.890625 8.484375 -17.890625 L 1.046875 -17.890625 L 1.046875 -24.203125 L 11.234375 -24.203125 C 12.492188 -24.203125 13.523438 -23.800781 14.328125 -23 C 15.117188 -22.207031 15.515625 -21.175781 15.515625 -19.90625 Z M 6.953125 0 L 1.0625 0 L 1.0625 -15 L 6.953125 -15 Z M 6.953125 0 "/></g></g><g transform="translate(363.45817, 201.510333)"><g><path d="M 15.46875 -4.703125 C 15.46875 -1.566406 13.953125 0 10.921875 0 L 1.078125 0 L 1.078125 -6.3125 L 8.40625 -6.3125 C 9.207031 -6.3125 9.609375 -6.789062 9.609375 -7.75 L 9.609375 -16.875 C 9.609375 -17.550781 9.300781 -17.890625 8.6875 -17.890625 L 7.875 -17.890625 C 7.3125 -17.890625 7.03125 -17.539062 7.03125 -16.84375 L 7.03125 -13.28125 L 1.046875 -13.28125 L 1.046875 -19.90625 C 1.046875 -22.769531 2.421875 -24.203125 5.171875 -24.203125 L 11.21875 -24.203125 C 12.5 -24.203125 13.53125 -23.804688 14.3125 -23.015625 C 15.082031 -22.210938 15.46875 -21.175781 15.46875 -19.90625 Z M 15.46875 -4.703125 "/></g></g><g transform="translate(379.993686, 201.510333)"><g><path d="M 15.671875 -7.484375 C 15.671875 -5.015625 15.269531 -3.195312 14.46875 -2.03125 C 13.488281 -0.632812 11.820312 0.0625 9.46875 0.0625 C 9.039062 0.0625 8.597656 0.0390625 8.140625 0 L 8.140625 -6.3125 C 9.171875 -6.3125 9.6875 -7.078125 9.6875 -8.609375 L 9.6875 -16.875 C 9.6875 -17.550781 9.335938 -17.890625 8.640625 -17.890625 L 1.046875 -17.890625 L 1.046875 -24.203125 L 12.65625 -24.203125 C 14.664062 -24.203125 15.671875 -23.226562 15.671875 -21.28125 Z M 6.984375 3.5 L 1.078125 3.5 L 1.078125 -15.234375 L 6.984375 -15.234375 Z M 6.984375 3.5 "/></g></g><g transform="translate(396.733597, 201.510333)"><g><path d="M 16.734375 0 L 10.828125 0 L 10.828125 -16.734375 C 10.828125 -17.503906 10.484375 -17.890625 9.796875 -17.890625 L 9 -17.890625 C 8.289062 -17.890625 7.9375 -17.503906 7.9375 -16.734375 L 7.9375 -2.90625 C 7.9375 -0.96875 7.125 0 5.5 0 L 0.40625 0 L 0.40625 -6.3125 L 1.4375 -6.3125 C 1.769531 -6.3125 1.9375 -6.460938 1.9375 -6.765625 L 1.9375 -19.5625 C 1.9375 -21.207031 2.257812 -22.390625 2.90625 -23.109375 C 3.539062 -23.835938 4.671875 -24.203125 6.296875 -24.203125 L 12.671875 -24.203125 C 15.378906 -24.203125 16.734375 -22.65625 16.734375 -19.5625 Z M 16.734375 0 "/></g></g><g transform="translate(414.536359, 201.510333)"><g><path d="M 15.515625 0 L 9.5 0 L 9.5 -16.875 C 9.5 -17.550781 9.160156 -17.890625 8.484375 -17.890625 L 1.046875 -17.890625 L 1.046875 -24.203125 L 11.234375 -24.203125 C 12.492188 -24.203125 13.523438 -23.800781 14.328125 -23 C 15.117188 -22.207031 15.515625 -21.175781 15.515625 -19.90625 Z M 6.953125 0 L 1.0625 0 L 1.0625 -15 L 6.953125 -15 Z M 6.953125 0 "/></g></g><g transform="translate(431.092315, 201.510333)"><g><path d="M 15.515625 0 L 9.5 0 L 9.5 -16.875 C 9.5 -17.550781 9.160156 -17.890625 8.484375 -17.890625 L 1.046875 -17.890625 L 1.046875 -24.203125 L 11.234375 -24.203125 C 12.492188 -24.203125 13.523438 -23.800781 14.328125 -23 C 15.117188 -22.207031 15.515625 -21.175781 15.515625 -19.90625 Z M 6.953125 0 L 1.0625 0 L 1.0625 -15 L 6.953125 -15 Z M 6.953125 0 "/></g></g><g transform="translate(447.64827, 201.510333)"><g/></g><g transform="translate(456.907342, 201.510333)"><g><path d="M 6.953125 3.46875 L 1.046875 3.46875 L 1.046875 -24.203125 L 6.953125 -24.203125 Z M 6.953125 3.46875 "/></g></g><g transform="translate(464.899168, 201.510333)"><g><path d="M 17.109375 -4.359375 C 17.109375 -1.453125 15.789062 0 13.15625 0 L 9 0 L 9 -6.34375 L 10.234375 -6.34375 C 10.847656 -6.34375 11.15625 -6.707031 11.15625 -7.4375 L 11.15625 -16.65625 C 11.15625 -17.394531 10.972656 -17.765625 10.609375 -17.765625 C 10.242188 -17.765625 9.992188 -17.347656 9.859375 -16.515625 L 6.890625 0 L 1.046875 0 L 3.53125 -13.515625 L 2.375 -13.515625 C 1.457031 -13.515625 1 -13.960938 1 -14.859375 L 1 -24.203125 L 6.921875 -24.203125 L 6.921875 -15.65625 L 8.109375 -20.34375 C 8.765625 -22.914062 10.175781 -24.203125 12.34375 -24.203125 L 12.65625 -24.203125 C 15.625 -24.203125 17.109375 -22.390625 17.109375 -18.765625 Z M 17.109375 -4.359375 "/></g></g><g transform="translate(483.0494, 201.510333)"><g><path d="M 9.078125 -17.890625 L 9 -17.890625 C 8.050781 -17.890625 7.578125 -17.210938 7.578125 -15.859375 L 7.578125 0 L 1.71875 0 L 1.71875 -14.671875 C 1.71875 -16.429688 2.273438 -17.503906 3.390625 -17.890625 L 0.84375 -17.890625 L 0.84375 -24.203125 L 9.078125 -24.203125 Z M 9.078125 -17.890625 "/></g></g><g transform="translate(492.962535, 201.510333)"><g><path d="M 14.859375 0 L 1.046875 0 L 1.046875 -6.3125 L 5.640625 -6.3125 C 6.992188 -6.3125 7.671875 -7.109375 7.671875 -8.703125 L 7.671875 -15.96875 C 7.671875 -16.675781 7.546875 -17.171875 7.296875 -17.453125 C 7.046875 -17.742188 6.578125 -17.890625 5.890625 -17.890625 L 1.046875 -17.890625 L 1.046875 -24.203125 L 9 -24.203125 C 12.113281 -24.203125 13.671875 -22.351562 13.671875 -18.65625 L 13.671875 -10.390625 C 13.671875 -8.242188 12.875 -6.882812 11.28125 -6.3125 L 14.859375 -6.3125 Z M 14.859375 0 "/></g></g></g><g fill="#303144" fill-opacity="1"><g transform="translate(102.55371, 201.510333)"><g><path d="M 15.515625 0 L 9.5 0 L 9.5 -16.875 C 9.5 -17.550781 9.160156 -17.890625 8.484375 -17.890625 L 1.046875 -17.890625 L 1.046875 -24.203125 L 11.234375 -24.203125 C 12.492188 -24.203125 13.523438 -23.800781 14.328125 -23 C 15.117188 -22.207031 15.515625 -21.175781 15.515625 -19.90625 Z M 6.953125 0 L 1.0625 0 L 1.0625 -15 L 6.953125 -15 Z M 6.953125 0 "/></g></g><g transform="translate(119.109665, 201.510333)"><g><path d="M 15.46875 -4.703125 C 15.46875 -1.566406 13.953125 0 10.921875 0 L 1.078125 0 L 1.078125 -6.3125 L 8.40625 -6.3125 C 9.207031 -6.3125 9.609375 -6.789062 9.609375 -7.75 L 9.609375 -16.875 C 9.609375 -17.550781 9.300781 -17.890625 8.6875 -17.890625 L 7.875 -17.890625 C 7.3125 -17.890625 7.03125 -17.539062 7.03125 -16.84375 L 7.03125 -13.28125 L 1.046875 -13.28125 L 1.046875 -19.90625 C 1.046875 -22.769531 2.421875 -24.203125 5.171875 -24.203125 L 11.21875 -24.203125 C 12.5 -24.203125 13.53125 -23.804688 14.3125 -23.015625 C 15.082031 -22.210938 15.46875 -21.175781 15.46875 -19.90625 Z M 15.46875 -4.703125 "/></g></g><g transform="translate(135.645181, 201.510333)"><g><path d="M 15.671875 -7.484375 C 15.671875 -5.015625 15.269531 -3.195312 14.46875 -2.03125 C 13.488281 -0.632812 11.820312 0.0625 9.46875 0.0625 C 9.039062 0.0625 8.597656 0.0390625 8.140625 0 L 8.140625 -6.3125 C 9.171875 -6.3125 9.6875 -7.078125 9.6875 -8.609375 L 9.6875 -16.875 C 9.6875 -17.550781 9.335938 -17.890625 8.640625 -17.890625 L 1.046875 -17.890625 L 1.046875 -24.203125 L 12.65625 -24.203125 C 14.664062 -24.203125 15.671875 -23.226562 15.671875 -21.28125 Z M 6.984375 3.5 L 1.078125 3.5 L 1.078125 -15.234375 L 6.984375 -15.234375 Z M 6.984375 3.5 "/></g></g><g transform="translate(152.385092, 201.510333)"><g><path d="M 16.734375 0 L 10.828125 0 L 10.828125 -16.734375 C 10.828125 -17.503906 10.484375 -17.890625 9.796875 -17.890625 L 9 -17.890625 C 8.289062 -17.890625 7.9375 -17.503906 7.9375 -16.734375 L 7.9375 -2.90625 C 7.9375 -0.96875 7.125 0 5.5 0 L 0.40625 0 L 0.40625 -6.3125 L 1.4375 -6.3125 C 1.769531 -6.3125 1.9375 -6.460938 1.9375 -6.765625 L 1.9375 -19.5625 C 1.9375 -21.207031 2.257812 -22.390625 2.90625 -23.109375 C 3.539062 -23.835938 4.671875 -24.203125 6.296875 -24.203125 L 12.671875 -24.203125 C 15.378906 -24.203125 16.734375 -22.65625 16.734375 -19.5625 Z M 16.734375 0 "/></g></g><g transform="translate(170.187854, 201.510333)"><g><path d="M 15.515625 0 L 9.5 0 L 9.5 -16.875 C 9.5 -17.550781 9.160156 -17.890625 8.484375 -17.890625 L 1.046875 -17.890625 L 1.046875 -24.203125 L 11.234375 -24.203125 C 12.492188 -24.203125 13.523438 -23.800781 14.328125 -23 C 15.117188 -22.207031 15.515625 -21.175781 15.515625 -19.90625 Z M 6.953125 0 L 1.0625 0 L 1.0625 -15 L 6.953125 -15 Z M 6.953125 0 "/></g></g><g transform="translate(186.74381, 201.510333)"><g><path d="M 15.515625 0 L 9.5 0 L 9.5 -16.875 C 9.5 -17.550781 9.160156 -17.890625 8.484375 -17.890625 L 1.046875 -17.890625 L 1.046875 -24.203125 L 11.234375 -24.203125 C 12.492188 -24.203125 13.523438 -23.800781 14.328125 -23 C 15.117188 -22.207031 15.515625 -21.175781 15.515625 -19.90625 Z M 6.953125 0 L 1.0625 0 L 1.0625 -15 L 6.953125 -15 Z M 6.953125 0 "/></g></g><g transform="translate(203.299766, 201.510333)"><g/></g><g transform="translate(212.558837, 201.510333)"><g><path d="M 6.875 -13.46875 L 1 -13.46875 L 1 -24.203125 L 6.875 -24.203125 Z M 6.875 -13.46875 "/></g></g><g transform="translate(220.468905, 201.510333)"><g><path d="M 12.953125 0 L 6.96875 0 L 6.96875 -16.875 C 6.96875 -17.550781 6.617188 -17.890625 5.921875 -17.890625 L 0.640625 -17.890625 L 0.640625 -24.203125 L 8.6875 -24.203125 C 9.9375 -24.203125 10.960938 -23.800781 11.765625 -23 C 12.554688 -22.207031 12.953125 -21.175781 12.953125 -19.90625 Z M 12.953125 0 "/></g></g><g transform="translate(234.469929, 201.510333)"><g><path d="M 15.78125 0 L 9.859375 0 L 9.859375 -16.734375 C 9.859375 -17.503906 9.507812 -17.890625 8.8125 -17.890625 L 8.09375 -17.890625 C 7.394531 -17.890625 7.046875 -17.503906 7.046875 -16.734375 L 7.046875 0 L 1.046875 0 L 1.046875 -19.96875 C 1.046875 -21.476562 1.296875 -22.535156 1.796875 -23.140625 C 2.367188 -23.847656 3.390625 -24.203125 4.859375 -24.203125 L 11.6875 -24.203125 C 14.414062 -24.203125 15.78125 -22.789062 15.78125 -19.96875 Z M 15.78125 0 "/></g></g><g transform="translate(251.291598, 201.510333)"><g><path d="M 10.953125 0 C 10.773438 -0.957031 10.390625 -2.210938 9.796875 -3.765625 C 9.203125 -5.328125 8.394531 -7.210938 7.375 -9.421875 C 7.269531 -9.296875 7.1875 -9.195312 7.125 -9.125 C 7.070312 -9.0625 7.039062 -9.023438 7.03125 -9.015625 C 7.019531 -8.960938 7.007812 -8.84375 7 -8.65625 C 6.988281 -8.46875 6.984375 -8.210938 6.984375 -7.890625 L 6.984375 0 L 1.078125 0 L 1.078125 -7.234375 C 1.078125 -11.066406 2.257812 -13.546875 4.625 -14.671875 C 2.351562 -19.117188 1.09375 -22.296875 0.84375 -24.203125 L 6.984375 -24.203125 C 7.285156 -22.835938 7.734375 -21.398438 8.328125 -19.890625 C 8.921875 -18.378906 9.664062 -16.769531 10.5625 -15.0625 C 10.90625 -15.3125 11.078125 -15.816406 11.078125 -16.578125 L 11.078125 -24.203125 L 17.046875 -24.203125 L 17.046875 -16 C 17.046875 -14.78125 16.671875 -13.585938 15.921875 -12.421875 C 15.171875 -11.273438 14.242188 -10.40625 13.140625 -9.8125 C 15.691406 -4.738281 16.992188 -1.46875 17.046875 0 Z M 10.953125 0 "/></g></g></g></svg>