<svg xmlns="http://www.w3.org/2000/svg" xmlns:xlink="http://www.w3.org/1999/xlink" width="925" zoomAndPan="magnify" viewBox="0 0 693.75 192.749996" height="257" preserveAspectRatio="xMidYMid meet" version="1.0"><defs><g/></defs><g fill="#f8f6e9" fill-opacity="0.4"><g transform="translate(23.736763, 108.202294)"><g><path d="M 39.9375 -55.609375 C 39.9375 -55.359375 39.921875 -55.171875 39.890625 -55.046875 L 33.375 -17.28125 L 39.609375 -1.453125 C 39.671875 -1.265625 39.703125 -1.109375 39.703125 -0.984375 C 39.703125 -0.328125 39.21875 0 38.25 0 L 25.140625 0 C 24.234375 0 23.59375 -0.453125 23.21875 -1.359375 L 16.578125 -18.015625 L 14.28125 -1.640625 C 14.125 -0.546875 13.515625 0 12.453125 0 L 2.765625 0 C 1.921875 0 1.5 -0.390625 1.5 -1.171875 C 1.5 -1.328125 1.515625 -1.453125 1.546875 -1.546875 L 7.859375 -39.328125 L 1.921875 -55.234375 C 1.796875 -55.515625 1.734375 -55.78125 1.734375 -56.03125 C 1.734375 -56.5625 2.015625 -56.828125 2.578125 -56.828125 L 15.734375 -56.828125 C 16.578125 -56.828125 17.1875 -56.328125 17.5625 -55.328125 L 24.0625 -38.625 L 26.828125 -55.328125 C 26.984375 -56.328125 27.53125 -56.828125 28.46875 -56.828125 L 38.71875 -56.828125 C 39.53125 -56.828125 39.9375 -56.421875 39.9375 -55.609375 Z M 39.9375 -55.609375 "/></g></g><g transform="translate(65.261028, 108.202294)"><g><path d="M 23.125 -62.6875 C 23.125 -62.3125 23.09375 -61.96875 23.03125 -61.65625 L 17.375 -38.625 C 17.125 -37.6875 16.46875 -37.21875 15.40625 -37.21875 C 13.96875 -37.21875 13.25 -37.921875 13.25 -39.328125 L 13.25 -61.46875 C 13.25 -63.1875 13.78125 -64.046875 14.84375 -64.046875 L 22.046875 -64.046875 C 22.765625 -64.046875 23.125 -63.59375 23.125 -62.6875 Z M 11.9375 -62.6875 C 11.9375 -62.375 11.890625 -62.03125 11.796875 -61.65625 L 6.125 -38.625 C 5.882812 -37.6875 5.21875 -37.21875 4.125 -37.21875 C 2.65625 -37.21875 1.921875 -37.921875 1.921875 -39.328125 L 1.921875 -61.46875 C 1.921875 -63.1875 2.5 -64.046875 3.65625 -64.046875 L 10.8125 -64.046875 C 11.5625 -64.046875 11.9375 -63.59375 11.9375 -62.6875 Z M 11.9375 -62.6875 "/></g></g><g transform="translate(89.698081, 108.202294)"><g><path d="M 27.625 -1.734375 C 27.625 -0.578125 27.015625 0 25.796875 0 L 16.859375 0 C 15.765625 0 15.203125 -0.578125 15.171875 -1.734375 L 14.84375 -6.78125 L 4.21875 1.921875 C 3.875 2.171875 3.546875 2.296875 3.234375 2.296875 C 2.359375 2.296875 1.921875 1.765625 1.921875 0.703125 L 1.921875 0.46875 L 3.28125 -16.765625 C 3.375 -17.910156 3.984375 -18.84375 5.109375 -19.5625 L 13.4375 -24.8125 L 12.640625 -36.609375 C 12.578125 -37.265625 12.265625 -37.59375 11.703125 -37.59375 L 7.859375 -37.59375 C 6.335938 -37.59375 5.578125 -38.171875 5.578125 -39.328125 L 5.578125 -39.703125 L 6.59375 -54.953125 C 6.6875 -56.203125 7.296875 -56.828125 8.421875 -56.828125 L 22.609375 -56.828125 C 23.734375 -56.828125 24.34375 -56.15625 24.4375 -54.8125 L 27.625 -2.015625 Z M 27.625 -1.734375 "/></g></g><g transform="translate(119.191076, 108.202294)"><g><path d="M 37.59375 -2.15625 C 37.59375 -0.71875 36.953125 0 35.671875 0 L 27.0625 0 C 25.65625 0 24.90625 -0.796875 24.8125 -2.390625 L 22.796875 -36.140625 C 22.734375 -37.171875 22.296875 -37.6875 21.484375 -37.6875 L 6.78125 -37.6875 C 5.320312 -37.6875 4.59375 -38.515625 4.59375 -40.171875 L 4.59375 -40.453125 L 5.390625 -54.53125 C 5.484375 -56.0625 6.304688 -56.828125 7.859375 -56.828125 L 32.390625 -56.828125 C 33.828125 -56.828125 34.59375 -56 34.6875 -54.34375 L 37.59375 -2.390625 Z M 15.734375 -24.90625 L 15.078125 -2.203125 C 15.015625 -0.734375 14.234375 0 12.734375 0 L 4.59375 0 C 3.3125 0 2.671875 -0.75 2.671875 -2.25 L 2.671875 -2.390625 L 3.5625 -25.140625 C 3.59375 -26.671875 4.445312 -27.4375 6.125 -27.4375 L 13.53125 -27.4375 C 15 -27.4375 15.734375 -26.65625 15.734375 -25.09375 Z M 15.734375 -24.90625 "/></g></g><g transform="translate(159.49817, 108.202294)"><g/></g><g transform="translate(180.705039, 108.202294)"><g><path d="M 37.96875 -54.71875 L 34.78125 -2.015625 C 34.6875 -0.671875 34.015625 0 32.765625 0 L 4.03125 0 C 2.875 0 2.296875 -0.625 2.296875 -1.875 L 2.296875 -2.015625 L 3.5625 -17.28125 C 3.65625 -18.550781 4.359375 -19.1875 5.671875 -19.1875 L 7.671875 -19.1875 L 4.59375 -54.71875 L 4.59375 -55 C 4.59375 -56.15625 5.164062 -56.734375 6.3125 -56.734375 L 15.171875 -56.734375 C 16.453125 -56.734375 17.15625 -56.0625 17.28125 -54.71875 L 20.3125 -19.09375 L 22.140625 -19.09375 C 22.796875 -19.09375 23.15625 -19.5 23.21875 -20.3125 L 25.515625 -54.71875 C 25.609375 -56.0625 26.28125 -56.734375 27.53125 -56.734375 L 36.140625 -56.734375 C 37.359375 -56.734375 37.96875 -56.140625 37.96875 -54.953125 Z M 37.96875 -54.71875 "/></g></g><g transform="translate(221.386647, 108.202294)"><g><path d="M 18.765625 -1.921875 C 18.765625 -0.640625 18.300781 0 17.375 0 L 7.859375 0 C 6.703125 0 6.125 -0.640625 6.125 -1.921875 L 6.125 -36.796875 C 6.125 -37.390625 5.910156 -37.6875 5.484375 -37.6875 L 4.96875 -37.6875 C 4.1875 -37.6875 3.75 -38.328125 3.65625 -39.609375 L 2.671875 -54.71875 L 2.671875 -54.859375 C 2.671875 -56.171875 3.28125 -56.828125 4.5 -56.828125 L 16.859375 -56.828125 C 18.128906 -56.828125 18.765625 -56.125 18.765625 -54.71875 Z M 18.765625 -1.921875 "/></g></g><g transform="translate(243.2021, 108.202294)"><g><path d="M 31.453125 -1.921875 C 31.453125 -0.640625 30.941406 0 29.921875 0 L 20.5 0 C 19.28125 0 18.671875 -0.640625 18.671875 -1.921875 L 18.671875 -36.703125 C 18.671875 -37.359375 18.332031 -37.6875 17.65625 -37.6875 L 4.78125 -37.6875 C 3.46875 -37.6875 2.796875 -38.296875 2.765625 -39.515625 L 1.828125 -54.71875 L 1.828125 -54.859375 C 1.828125 -56.171875 2.4375 -56.828125 3.65625 -56.828125 L 29.546875 -56.828125 C 30.816406 -56.828125 31.453125 -56.125 31.453125 -54.71875 Z M 31.453125 -1.921875 "/></g></g><g transform="translate(278.500065, 108.202294)"><g><path d="M 19.65625 -24.53125 C 19.65625 -23.25 19.140625 -22.609375 18.109375 -22.609375 L 8.703125 -22.609375 C 7.578125 -22.609375 7.015625 -23.25 7.015625 -24.53125 L 7.015625 -36.703125 C 7.015625 -37.359375 6.6875 -37.6875 6.03125 -37.6875 L 5.296875 -37.6875 C 4.296875 -37.6875 3.75 -38.328125 3.65625 -39.609375 L 2.671875 -54.71875 L 2.671875 -54.90625 C 2.671875 -56.1875 3.28125 -56.828125 4.5 -56.828125 L 17.75 -56.828125 C 19.019531 -56.828125 19.65625 -56.125 19.65625 -54.71875 Z M 19.65625 -24.53125 "/></g></g><g transform="translate(301.158177, 108.202294)"><g><path d="M 39.9375 -55.609375 C 39.9375 -55.359375 39.921875 -55.171875 39.890625 -55.046875 L 33.375 -17.28125 L 39.609375 -1.453125 C 39.671875 -1.265625 39.703125 -1.109375 39.703125 -0.984375 C 39.703125 -0.328125 39.21875 0 38.25 0 L 25.140625 0 C 24.234375 0 23.59375 -0.453125 23.21875 -1.359375 L 16.578125 -18.015625 L 14.28125 -1.640625 C 14.125 -0.546875 13.515625 0 12.453125 0 L 2.765625 0 C 1.921875 0 1.5 -0.390625 1.5 -1.171875 C 1.5 -1.328125 1.515625 -1.453125 1.546875 -1.546875 L 7.859375 -39.328125 L 1.921875 -55.234375 C 1.796875 -55.515625 1.734375 -55.78125 1.734375 -56.03125 C 1.734375 -56.5625 2.015625 -56.828125 2.578125 -56.828125 L 15.734375 -56.828125 C 16.578125 -56.828125 17.1875 -56.328125 17.5625 -55.328125 L 24.0625 -38.625 L 26.828125 -55.328125 C 26.984375 -56.328125 27.53125 -56.828125 28.46875 -56.828125 L 38.71875 -56.828125 C 39.53125 -56.828125 39.9375 -56.421875 39.9375 -55.609375 Z M 39.9375 -55.609375 "/></g></g><g transform="translate(342.682441, 108.202294)"><g><path d="M 34.78125 -1.734375 C 34.78125 -0.578125 34.3125 0 33.375 0 L 2.859375 0 C 1.859375 0 1.359375 -0.515625 1.359375 -1.546875 L 1.359375 -1.734375 L 2.109375 -17.46875 C 2.140625 -18.613281 2.6875 -19.1875 3.75 -19.1875 L 17.84375 -19.1875 L 16.765625 -36.609375 C 16.703125 -37.265625 16.421875 -37.59375 15.921875 -37.59375 L 5.953125 -37.59375 C 4.859375 -37.59375 4.3125 -38.1875 4.3125 -39.375 L 4.3125 -39.515625 L 4.96875 -55.140625 C 5 -56.265625 5.679688 -56.828125 7.015625 -56.828125 L 26.546875 -56.828125 C 27.765625 -56.828125 28.40625 -56.234375 28.46875 -55.046875 L 30.5625 -19.1875 L 32.390625 -19.1875 C 33.421875 -19.1875 33.96875 -18.550781 34.03125 -17.28125 L 34.78125 -1.828125 Z M 34.78125 -1.734375 "/></g></g><g transform="translate(378.823065, 108.202294)"><g/></g><g transform="translate(400.029933, 108.202294)"><g><path d="M 41.71875 -1.78125 C 41.71875 -0.59375 41.140625 0 39.984375 0 L 31.453125 0 C 30.148438 0 29.453125 -0.671875 29.359375 -2.015625 L 26.828125 -36.515625 C 26.765625 -37.234375 26.421875 -37.59375 25.796875 -37.59375 L 21.203125 -37.59375 C 20.546875 -37.59375 20.1875 -37.234375 20.125 -36.515625 L 18.390625 -2.015625 C 18.359375 -0.671875 17.691406 0 16.390625 0 L 4.03125 0 C 2.8125 0 2.203125 -0.65625 2.203125 -1.96875 L 2.203125 -2.015625 L 2.953125 -17.09375 C 2.984375 -18.488281 3.625 -19.1875 4.875 -19.1875 L 6.21875 -19.1875 C 6.875 -19.1875 7.234375 -19.5 7.296875 -20.125 L 8.234375 -36.609375 L 8.234375 -36.75 C 8.234375 -37.3125 7.953125 -37.59375 7.390625 -37.59375 L 5.765625 -37.59375 C 4.421875 -37.59375 3.71875 -38.328125 3.65625 -39.796875 L 2.953125 -54.71875 L 2.953125 -55 C 2.953125 -56.21875 3.53125 -56.828125 4.6875 -56.828125 L 36.515625 -56.828125 C 37.765625 -56.828125 38.4375 -56.125 38.53125 -54.71875 L 41.71875 -2.015625 Z M 41.71875 -1.78125 "/></g></g><g transform="translate(444.456683, 108.202294)"><g><path d="M 18.765625 -1.921875 C 18.765625 -0.640625 18.300781 0 17.375 0 L 7.859375 0 C 6.703125 0 6.125 -0.640625 6.125 -1.921875 L 6.125 -36.796875 C 6.125 -37.390625 5.910156 -37.6875 5.484375 -37.6875 L 4.96875 -37.6875 C 4.1875 -37.6875 3.75 -38.328125 3.65625 -39.609375 L 2.671875 -54.71875 L 2.671875 -54.859375 C 2.671875 -56.171875 3.28125 -56.828125 4.5 -56.828125 L 16.859375 -56.828125 C 18.128906 -56.828125 18.765625 -56.125 18.765625 -54.71875 Z M 18.765625 -1.921875 "/></g></g><g transform="translate(466.272137, 108.202294)"><g><path d="M 19.65625 -24.53125 C 19.65625 -23.25 19.140625 -22.609375 18.109375 -22.609375 L 8.703125 -22.609375 C 7.578125 -22.609375 7.015625 -23.25 7.015625 -24.53125 L 7.015625 -36.703125 C 7.015625 -37.359375 6.6875 -37.6875 6.03125 -37.6875 L 5.296875 -37.6875 C 4.296875 -37.6875 3.75 -38.328125 3.65625 -39.609375 L 2.671875 -54.71875 L 2.671875 -54.90625 C 2.671875 -56.1875 3.28125 -56.828125 4.5 -56.828125 L 17.75 -56.828125 C 19.019531 -56.828125 19.65625 -56.125 19.65625 -54.71875 Z M 19.65625 -24.53125 "/></g></g><g transform="translate(488.930248, 108.202294)"><g><path d="M 18.765625 -1.921875 C 18.765625 -0.640625 18.300781 0 17.375 0 L 7.859375 0 C 6.703125 0 6.125 -0.640625 6.125 -1.921875 L 6.125 -36.796875 C 6.125 -37.390625 5.910156 -37.6875 5.484375 -37.6875 L 4.96875 -37.6875 C 4.1875 -37.6875 3.75 -38.328125 3.65625 -39.609375 L 2.671875 -54.71875 L 2.671875 -54.859375 C 2.671875 -56.171875 3.28125 -56.828125 4.5 -56.828125 L 16.859375 -56.828125 C 18.128906 -56.828125 18.765625 -56.125 18.765625 -54.71875 Z M 18.765625 -1.921875 "/></g></g><g transform="translate(510.745701, 108.202294)"><g><path d="M 33.75 -1.875 C 33.75 -0.625 33.140625 0 31.921875 0 L 3.65625 0 C 2.5 0 1.921875 -0.578125 1.921875 -1.734375 L 1.921875 -2.015625 L 3.28125 -17.28125 C 3.4375 -18.550781 4.140625 -19.1875 5.390625 -19.1875 L 19.28125 -19.1875 C 19.96875 -19.1875 20.3125 -19.515625 20.3125 -20.171875 L 20.3125 -20.3125 L 19.28125 -36.703125 C 19.25 -37.296875 18.953125 -37.59375 18.390625 -37.59375 L 5.296875 -37.59375 C 4.078125 -37.59375 3.46875 -38.15625 3.46875 -39.28125 L 3.46875 -39.421875 L 4.5 -54.71875 C 4.59375 -56.125 5.289062 -56.828125 6.59375 -56.828125 L 28.5625 -56.828125 C 29.800781 -56.828125 30.46875 -56.125 30.5625 -54.71875 L 33.75 -2.015625 Z M 33.75 -1.875 "/></g></g><g transform="translate(547.214024, 108.202294)"><g><path d="M 40.546875 -1.875 C 40.546875 -0.625 39.9375 0 38.71875 0 L 21.203125 0 C 19.984375 0 19.375 -0.640625 19.375 -1.921875 L 19.375 -2.015625 L 20.21875 -16.859375 C 20.3125 -18.410156 20.984375 -19.1875 22.234375 -19.1875 L 25.890625 -19.1875 C 26.484375 -19.1875 26.78125 -19.484375 26.78125 -20.078125 C 26.78125 -20.203125 26.765625 -20.28125 26.734375 -20.3125 L 25.703125 -36.515625 C 25.671875 -37.296875 25.3125 -37.6875 24.625 -37.6875 L 18.578125 -37.6875 C 17.929688 -37.6875 17.59375 -37.296875 17.5625 -36.515625 L 15.453125 -2.015625 C 15.359375 -0.671875 14.6875 0 13.4375 0 L 4.5 0 C 3.28125 0 2.671875 -0.640625 2.671875 -1.921875 L 2.671875 -2.015625 L 6.03125 -54.71875 C 6.125 -56.125 6.828125 -56.828125 8.140625 -56.828125 L 35.203125 -56.828125 C 36.453125 -56.828125 37.125 -56.125 37.21875 -54.71875 L 40.546875 -2.015625 Z M 40.546875 -1.875 "/></g></g><g transform="translate(590.470417, 108.202294)"><g><path d="M 40.359375 -54.8125 L 37.21875 -2.109375 C 37.125 -0.703125 36.421875 0 35.109375 0 L 7.765625 0 C 6.523438 0 5.859375 -0.703125 5.765625 -2.109375 L 2.578125 -54.8125 L 2.578125 -55.046875 C 2.578125 -56.234375 3.1875 -56.828125 4.40625 -56.828125 L 38.53125 -56.828125 C 39.75 -56.828125 40.359375 -56.203125 40.359375 -54.953125 Z M 26.734375 -36.890625 C 26.734375 -37.484375 26.453125 -37.78125 25.890625 -37.78125 L 16.953125 -37.78125 C 16.390625 -37.78125 16.109375 -37.5 16.109375 -36.9375 L 16.109375 -36.796875 L 17.46875 -19.84375 C 17.5 -19.46875 17.710938 -19.28125 18.109375 -19.28125 L 25.046875 -19.28125 C 25.484375 -19.28125 25.734375 -19.46875 25.796875 -19.84375 L 26.734375 -36.796875 Z M 26.734375 -36.890625 "/></g></g><g transform="translate(633.586367, 108.202294)"><g><path d="M 37.59375 -2.15625 C 37.59375 -0.71875 36.953125 0 35.671875 0 L 27.0625 0 C 25.65625 0 24.90625 -0.796875 24.8125 -2.390625 L 22.796875 -36.140625 C 22.734375 -37.171875 22.296875 -37.6875 21.484375 -37.6875 L 6.78125 -37.6875 C 5.320312 -37.6875 4.59375 -38.515625 4.59375 -40.171875 L 4.59375 -40.453125 L 5.390625 -54.53125 C 5.484375 -56.0625 6.304688 -56.828125 7.859375 -56.828125 L 32.390625 -56.828125 C 33.828125 -56.828125 34.59375 -56 34.6875 -54.34375 L 37.59375 -2.390625 Z M 15.734375 -24.90625 L 15.078125 -2.203125 C 15.015625 -0.734375 14.234375 0 12.734375 0 L 4.59375 0 C 3.3125 0 2.671875 -0.75 2.671875 -2.25 L 2.671875 -2.390625 L 3.5625 -25.140625 C 3.59375 -26.671875 4.445312 -27.4375 6.125 -27.4375 L 13.53125 -27.4375 C 15 -27.4375 15.734375 -26.65625 15.734375 -25.09375 Z M 15.734375 -24.90625 "/></g></g></g><g fill="#f8f6e9" fill-opacity="1"><g transform="translate(19.499617, 103.965149)"><g><path d="M 39.9375 -55.609375 C 39.9375 -55.359375 39.921875 -55.171875 39.890625 -55.046875 L 33.375 -17.28125 L 39.609375 -1.453125 C 39.671875 -1.265625 39.703125 -1.109375 39.703125 -0.984375 C 39.703125 -0.328125 39.21875 0 38.25 0 L 25.140625 0 C 24.234375 0 23.59375 -0.453125 23.21875 -1.359375 L 16.578125 -18.015625 L 14.28125 -1.640625 C 14.125 -0.546875 13.515625 0 12.453125 0 L 2.765625 0 C 1.921875 0 1.5 -0.390625 1.5 -1.171875 C 1.5 -1.328125 1.515625 -1.453125 1.546875 -1.546875 L 7.859375 -39.328125 L 1.921875 -55.234375 C 1.796875 -55.515625 1.734375 -55.78125 1.734375 -56.03125 C 1.734375 -56.5625 2.015625 -56.828125 2.578125 -56.828125 L 15.734375 -56.828125 C 16.578125 -56.828125 17.1875 -56.328125 17.5625 -55.328125 L 24.0625 -38.625 L 26.828125 -55.328125 C 26.984375 -56.328125 27.53125 -56.828125 28.46875 -56.828125 L 38.71875 -56.828125 C 39.53125 -56.828125 39.9375 -56.421875 39.9375 -55.609375 Z M 39.9375 -55.609375 "/></g></g><g transform="translate(61.023882, 103.965149)"><g><path d="M 23.125 -62.6875 C 23.125 -62.3125 23.09375 -61.96875 23.03125 -61.65625 L 17.375 -38.625 C 17.125 -37.6875 16.46875 -37.21875 15.40625 -37.21875 C 13.96875 -37.21875 13.25 -37.921875 13.25 -39.328125 L 13.25 -61.46875 C 13.25 -63.1875 13.78125 -64.046875 14.84375 -64.046875 L 22.046875 -64.046875 C 22.765625 -64.046875 23.125 -63.59375 23.125 -62.6875 Z M 11.9375 -62.6875 C 11.9375 -62.375 11.890625 -62.03125 11.796875 -61.65625 L 6.125 -38.625 C 5.882812 -37.6875 5.21875 -37.21875 4.125 -37.21875 C 2.65625 -37.21875 1.921875 -37.921875 1.921875 -39.328125 L 1.921875 -61.46875 C 1.921875 -63.1875 2.5 -64.046875 3.65625 -64.046875 L 10.8125 -64.046875 C 11.5625 -64.046875 11.9375 -63.59375 11.9375 -62.6875 Z M 11.9375 -62.6875 "/></g></g><g transform="translate(85.460935, 103.965149)"><g><path d="M 27.625 -1.734375 C 27.625 -0.578125 27.015625 0 25.796875 0 L 16.859375 0 C 15.765625 0 15.203125 -0.578125 15.171875 -1.734375 L 14.84375 -6.78125 L 4.21875 1.921875 C 3.875 2.171875 3.546875 2.296875 3.234375 2.296875 C 2.359375 2.296875 1.921875 1.765625 1.921875 0.703125 L 1.921875 0.46875 L 3.28125 -16.765625 C 3.375 -17.910156 3.984375 -18.84375 5.109375 -19.5625 L 13.4375 -24.8125 L 12.640625 -36.609375 C 12.578125 -37.265625 12.265625 -37.59375 11.703125 -37.59375 L 7.859375 -37.59375 C 6.335938 -37.59375 5.578125 -38.171875 5.578125 -39.328125 L 5.578125 -39.703125 L 6.59375 -54.953125 C 6.6875 -56.203125 7.296875 -56.828125 8.421875 -56.828125 L 22.609375 -56.828125 C 23.734375 -56.828125 24.34375 -56.15625 24.4375 -54.8125 L 27.625 -2.015625 Z M 27.625 -1.734375 "/></g></g><g transform="translate(114.953931, 103.965149)"><g><path d="M 37.59375 -2.15625 C 37.59375 -0.71875 36.953125 0 35.671875 0 L 27.0625 0 C 25.65625 0 24.90625 -0.796875 24.8125 -2.390625 L 22.796875 -36.140625 C 22.734375 -37.171875 22.296875 -37.6875 21.484375 -37.6875 L 6.78125 -37.6875 C 5.320312 -37.6875 4.59375 -38.515625 4.59375 -40.171875 L 4.59375 -40.453125 L 5.390625 -54.53125 C 5.484375 -56.0625 6.304688 -56.828125 7.859375 -56.828125 L 32.390625 -56.828125 C 33.828125 -56.828125 34.59375 -56 34.6875 -54.34375 L 37.59375 -2.390625 Z M 15.734375 -24.90625 L 15.078125 -2.203125 C 15.015625 -0.734375 14.234375 0 12.734375 0 L 4.59375 0 C 3.3125 0 2.671875 -0.75 2.671875 -2.25 L 2.671875 -2.390625 L 3.5625 -25.140625 C 3.59375 -26.671875 4.445312 -27.4375 6.125 -27.4375 L 13.53125 -27.4375 C 15 -27.4375 15.734375 -26.65625 15.734375 -25.09375 Z M 15.734375 -24.90625 "/></g></g><g transform="translate(155.261025, 103.965149)"><g/></g><g transform="translate(176.467893, 103.965149)"><g><path d="M 37.96875 -54.71875 L 34.78125 -2.015625 C 34.6875 -0.671875 34.015625 0 32.765625 0 L 4.03125 0 C 2.875 0 2.296875 -0.625 2.296875 -1.875 L 2.296875 -2.015625 L 3.5625 -17.28125 C 3.65625 -18.550781 4.359375 -19.1875 5.671875 -19.1875 L 7.671875 -19.1875 L 4.59375 -54.71875 L 4.59375 -55 C 4.59375 -56.15625 5.164062 -56.734375 6.3125 -56.734375 L 15.171875 -56.734375 C 16.453125 -56.734375 17.15625 -56.0625 17.28125 -54.71875 L 20.3125 -19.09375 L 22.140625 -19.09375 C 22.796875 -19.09375 23.15625 -19.5 23.21875 -20.3125 L 25.515625 -54.71875 C 25.609375 -56.0625 26.28125 -56.734375 27.53125 -56.734375 L 36.140625 -56.734375 C 37.359375 -56.734375 37.96875 -56.140625 37.96875 -54.953125 Z M 37.96875 -54.71875 "/></g></g><g transform="translate(217.149501, 103.965149)"><g><path d="M 18.765625 -1.921875 C 18.765625 -0.640625 18.300781 0 17.375 0 L 7.859375 0 C 6.703125 0 6.125 -0.640625 6.125 -1.921875 L 6.125 -36.796875 C 6.125 -37.390625 5.910156 -37.6875 5.484375 -37.6875 L 4.96875 -37.6875 C 4.1875 -37.6875 3.75 -38.328125 3.65625 -39.609375 L 2.671875 -54.71875 L 2.671875 -54.859375 C 2.671875 -56.171875 3.28125 -56.828125 4.5 -56.828125 L 16.859375 -56.828125 C 18.128906 -56.828125 18.765625 -56.125 18.765625 -54.71875 Z M 18.765625 -1.921875 "/></g></g><g transform="translate(238.964954, 103.965149)"><g><path d="M 31.453125 -1.921875 C 31.453125 -0.640625 30.941406 0 29.921875 0 L 20.5 0 C 19.28125 0 18.671875 -0.640625 18.671875 -1.921875 L 18.671875 -36.703125 C 18.671875 -37.359375 18.332031 -37.6875 17.65625 -37.6875 L 4.78125 -37.6875 C 3.46875 -37.6875 2.796875 -38.296875 2.765625 -39.515625 L 1.828125 -54.71875 L 1.828125 -54.859375 C 1.828125 -56.171875 2.4375 -56.828125 3.65625 -56.828125 L 29.546875 -56.828125 C 30.816406 -56.828125 31.453125 -56.125 31.453125 -54.71875 Z M 31.453125 -1.921875 "/></g></g><g transform="translate(274.26292, 103.965149)"><g><path d="M 19.65625 -24.53125 C 19.65625 -23.25 19.140625 -22.609375 18.109375 -22.609375 L 8.703125 -22.609375 C 7.578125 -22.609375 7.015625 -23.25 7.015625 -24.53125 L 7.015625 -36.703125 C 7.015625 -37.359375 6.6875 -37.6875 6.03125 -37.6875 L 5.296875 -37.6875 C 4.296875 -37.6875 3.75 -38.328125 3.65625 -39.609375 L 2.671875 -54.71875 L 2.671875 -54.90625 C 2.671875 -56.1875 3.28125 -56.828125 4.5 -56.828125 L 17.75 -56.828125 C 19.019531 -56.828125 19.65625 -56.125 19.65625 -54.71875 Z M 19.65625 -24.53125 "/></g></g><g transform="translate(296.921031, 103.965149)"><g><path d="M 39.9375 -55.609375 C 39.9375 -55.359375 39.921875 -55.171875 39.890625 -55.046875 L 33.375 -17.28125 L 39.609375 -1.453125 C 39.671875 -1.265625 39.703125 -1.109375 39.703125 -0.984375 C 39.703125 -0.328125 39.21875 0 38.25 0 L 25.140625 0 C 24.234375 0 23.59375 -0.453125 23.21875 -1.359375 L 16.578125 -18.015625 L 14.28125 -1.640625 C 14.125 -0.546875 13.515625 0 12.453125 0 L 2.765625 0 C 1.921875 0 1.5 -0.390625 1.5 -1.171875 C 1.5 -1.328125 1.515625 -1.453125 1.546875 -1.546875 L 7.859375 -39.328125 L 1.921875 -55.234375 C 1.796875 -55.515625 1.734375 -55.78125 1.734375 -56.03125 C 1.734375 -56.5625 2.015625 -56.828125 2.578125 -56.828125 L 15.734375 -56.828125 C 16.578125 -56.828125 17.1875 -56.328125 17.5625 -55.328125 L 24.0625 -38.625 L 26.828125 -55.328125 C 26.984375 -56.328125 27.53125 -56.828125 28.46875 -56.828125 L 38.71875 -56.828125 C 39.53125 -56.828125 39.9375 -56.421875 39.9375 -55.609375 Z M 39.9375 -55.609375 "/></g></g><g transform="translate(338.445296, 103.965149)"><g><path d="M 34.78125 -1.734375 C 34.78125 -0.578125 34.3125 0 33.375 0 L 2.859375 0 C 1.859375 0 1.359375 -0.515625 1.359375 -1.546875 L 1.359375 -1.734375 L 2.109375 -17.46875 C 2.140625 -18.613281 2.6875 -19.1875 3.75 -19.1875 L 17.84375 -19.1875 L 16.765625 -36.609375 C 16.703125 -37.265625 16.421875 -37.59375 15.921875 -37.59375 L 5.953125 -37.59375 C 4.859375 -37.59375 4.3125 -38.1875 4.3125 -39.375 L 4.3125 -39.515625 L 4.96875 -55.140625 C 5 -56.265625 5.679688 -56.828125 7.015625 -56.828125 L 26.546875 -56.828125 C 27.765625 -56.828125 28.40625 -56.234375 28.46875 -55.046875 L 30.5625 -19.1875 L 32.390625 -19.1875 C 33.421875 -19.1875 33.96875 -18.550781 34.03125 -17.28125 L 34.78125 -1.828125 Z M 34.78125 -1.734375 "/></g></g><g transform="translate(374.585919, 103.965149)"><g/></g><g transform="translate(395.792787, 103.965149)"><g><path d="M 41.71875 -1.78125 C 41.71875 -0.59375 41.140625 0 39.984375 0 L 31.453125 0 C 30.148438 0 29.453125 -0.671875 29.359375 -2.015625 L 26.828125 -36.515625 C 26.765625 -37.234375 26.421875 -37.59375 25.796875 -37.59375 L 21.203125 -37.59375 C 20.546875 -37.59375 20.1875 -37.234375 20.125 -36.515625 L 18.390625 -2.015625 C 18.359375 -0.671875 17.691406 0 16.390625 0 L 4.03125 0 C 2.8125 0 2.203125 -0.65625 2.203125 -1.96875 L 2.203125 -2.015625 L 2.953125 -17.09375 C 2.984375 -18.488281 3.625 -19.1875 4.875 -19.1875 L 6.21875 -19.1875 C 6.875 -19.1875 7.234375 -19.5 7.296875 -20.125 L 8.234375 -36.609375 L 8.234375 -36.75 C 8.234375 -37.3125 7.953125 -37.59375 7.390625 -37.59375 L 5.765625 -37.59375 C 4.421875 -37.59375 3.71875 -38.328125 3.65625 -39.796875 L 2.953125 -54.71875 L 2.953125 -55 C 2.953125 -56.21875 3.53125 -56.828125 4.6875 -56.828125 L 36.515625 -56.828125 C 37.765625 -56.828125 38.4375 -56.125 38.53125 -54.71875 L 41.71875 -2.015625 Z M 41.71875 -1.78125 "/></g></g><g transform="translate(440.219538, 103.965149)"><g><path d="M 18.765625 -1.921875 C 18.765625 -0.640625 18.300781 0 17.375 0 L 7.859375 0 C 6.703125 0 6.125 -0.640625 6.125 -1.921875 L 6.125 -36.796875 C 6.125 -37.390625 5.910156 -37.6875 5.484375 -37.6875 L 4.96875 -37.6875 C 4.1875 -37.6875 3.75 -38.328125 3.65625 -39.609375 L 2.671875 -54.71875 L 2.671875 -54.859375 C 2.671875 -56.171875 3.28125 -56.828125 4.5 -56.828125 L 16.859375 -56.828125 C 18.128906 -56.828125 18.765625 -56.125 18.765625 -54.71875 Z M 18.765625 -1.921875 "/></g></g><g transform="translate(462.034991, 103.965149)"><g><path d="M 19.65625 -24.53125 C 19.65625 -23.25 19.140625 -22.609375 18.109375 -22.609375 L 8.703125 -22.609375 C 7.578125 -22.609375 7.015625 -23.25 7.015625 -24.53125 L 7.015625 -36.703125 C 7.015625 -37.359375 6.6875 -37.6875 6.03125 -37.6875 L 5.296875 -37.6875 C 4.296875 -37.6875 3.75 -38.328125 3.65625 -39.609375 L 2.671875 -54.71875 L 2.671875 -54.90625 C 2.671875 -56.1875 3.28125 -56.828125 4.5 -56.828125 L 17.75 -56.828125 C 19.019531 -56.828125 19.65625 -56.125 19.65625 -54.71875 Z M 19.65625 -24.53125 "/></g></g><g transform="translate(484.693102, 103.965149)"><g><path d="M 18.765625 -1.921875 C 18.765625 -0.640625 18.300781 0 17.375 0 L 7.859375 0 C 6.703125 0 6.125 -0.640625 6.125 -1.921875 L 6.125 -36.796875 C 6.125 -37.390625 5.910156 -37.6875 5.484375 -37.6875 L 4.96875 -37.6875 C 4.1875 -37.6875 3.75 -38.328125 3.65625 -39.609375 L 2.671875 -54.71875 L 2.671875 -54.859375 C 2.671875 -56.171875 3.28125 -56.828125 4.5 -56.828125 L 16.859375 -56.828125 C 18.128906 -56.828125 18.765625 -56.125 18.765625 -54.71875 Z M 18.765625 -1.921875 "/></g></g><g transform="translate(506.508556, 103.965149)"><g><path d="M 33.75 -1.875 C 33.75 -0.625 33.140625 0 31.921875 0 L 3.65625 0 C 2.5 0 1.921875 -0.578125 1.921875 -1.734375 L 1.921875 -2.015625 L 3.28125 -17.28125 C 3.4375 -18.550781 4.140625 -19.1875 5.390625 -19.1875 L 19.28125 -19.1875 C 19.96875 -19.1875 20.3125 -19.515625 20.3125 -20.171875 L 20.3125 -20.3125 L 19.28125 -36.703125 C 19.25 -37.296875 18.953125 -37.59375 18.390625 -37.59375 L 5.296875 -37.59375 C 4.078125 -37.59375 3.46875 -38.15625 3.46875 -39.28125 L 3.46875 -39.421875 L 4.5 -54.71875 C 4.59375 -56.125 5.289062 -56.828125 6.59375 -56.828125 L 28.5625 -56.828125 C 29.800781 -56.828125 30.46875 -56.125 30.5625 -54.71875 L 33.75 -2.015625 Z M 33.75 -1.875 "/></g></g><g transform="translate(542.976878, 103.965149)"><g><path d="M 40.546875 -1.875 C 40.546875 -0.625 39.9375 0 38.71875 0 L 21.203125 0 C 19.984375 0 19.375 -0.640625 19.375 -1.921875 L 19.375 -2.015625 L 20.21875 -16.859375 C 20.3125 -18.410156 20.984375 -19.1875 22.234375 -19.1875 L 25.890625 -19.1875 C 26.484375 -19.1875 26.78125 -19.484375 26.78125 -20.078125 C 26.78125 -20.203125 26.765625 -20.28125 26.734375 -20.3125 L 25.703125 -36.515625 C 25.671875 -37.296875 25.3125 -37.6875 24.625 -37.6875 L 18.578125 -37.6875 C 17.929688 -37.6875 17.59375 -37.296875 17.5625 -36.515625 L 15.453125 -2.015625 C 15.359375 -0.671875 14.6875 0 13.4375 0 L 4.5 0 C 3.28125 0 2.671875 -0.640625 2.671875 -1.921875 L 2.671875 -2.015625 L 6.03125 -54.71875 C 6.125 -56.125 6.828125 -56.828125 8.140625 -56.828125 L 35.203125 -56.828125 C 36.453125 -56.828125 37.125 -56.125 37.21875 -54.71875 L 40.546875 -2.015625 Z M 40.546875 -1.875 "/></g></g><g transform="translate(586.233272, 103.965149)"><g><path d="M 40.359375 -54.8125 L 37.21875 -2.109375 C 37.125 -0.703125 36.421875 0 35.109375 0 L 7.765625 0 C 6.523438 0 5.859375 -0.703125 5.765625 -2.109375 L 2.578125 -54.8125 L 2.578125 -55.046875 C 2.578125 -56.234375 3.1875 -56.828125 4.40625 -56.828125 L 38.53125 -56.828125 C 39.75 -56.828125 40.359375 -56.203125 40.359375 -54.953125 Z M 26.734375 -36.890625 C 26.734375 -37.484375 26.453125 -37.78125 25.890625 -37.78125 L 16.953125 -37.78125 C 16.390625 -37.78125 16.109375 -37.5 16.109375 -36.9375 L 16.109375 -36.796875 L 17.46875 -19.84375 C 17.5 -19.46875 17.710938 -19.28125 18.109375 -19.28125 L 25.046875 -19.28125 C 25.484375 -19.28125 25.734375 -19.46875 25.796875 -19.84375 L 26.734375 -36.796875 Z M 26.734375 -36.890625 "/></g></g><g transform="translate(629.349222, 103.965149)"><g><path d="M 37.59375 -2.15625 C 37.59375 -0.71875 36.953125 0 35.671875 0 L 27.0625 0 C 25.65625 0 24.90625 -0.796875 24.8125 -2.390625 L 22.796875 -36.140625 C 22.734375 -37.171875 22.296875 -37.6875 21.484375 -37.6875 L 6.78125 -37.6875 C 5.320312 -37.6875 4.59375 -38.515625 4.59375 -40.171875 L 4.59375 -40.453125 L 5.390625 -54.53125 C 5.484375 -56.0625 6.304688 -56.828125 7.859375 -56.828125 L 32.390625 -56.828125 C 33.828125 -56.828125 34.59375 -56 34.6875 -54.34375 L 37.59375 -2.390625 Z M 15.734375 -24.90625 L 15.078125 -2.203125 C 15.015625 -0.734375 14.234375 0 12.734375 0 L 4.59375 0 C 3.3125 0 2.671875 -0.75 2.671875 -2.25 L 2.671875 -2.390625 L 3.5625 -25.140625 C 3.59375 -26.671875 4.445312 -27.4375 6.125 -27.4375 L 13.53125 -27.4375 C 15 -27.4375 15.734375 -26.65625 15.734375 -25.09375 Z M 15.734375 -24.90625 "/></g></g></g><g fill="#f8f6e9" fill-opacity="1"><g transform="translate(218.338218, 163.645447)"><g><path d="M 24.0625 -1.0625 C 24.0625 -0.351562 23.703125 0 22.984375 0 L 2.625 0 C 1.914062 0 1.5625 -0.363281 1.5625 -1.09375 L 1.5625 -1.171875 L 3.46875 -31.921875 C 3.519531 -32.742188 3.910156 -33.15625 4.640625 -33.15625 L 21.03125 -33.15625 C 21.757812 -33.15625 22.148438 -32.742188 22.203125 -31.921875 L 24.0625 -1.171875 Z M 16.171875 -11.6875 L 15.375 -21.59375 C 15.332031 -21.8125 15.222656 -21.921875 15.046875 -21.921875 L 10.515625 -21.921875 C 10.242188 -21.921875 10.097656 -21.8125 10.078125 -21.59375 L 9.5 -11.6875 L 9.5 -11.65625 C 9.5 -11.34375 9.671875 -11.1875 10.015625 -11.1875 L 15.640625 -11.1875 C 15.992188 -11.1875 16.171875 -11.328125 16.171875 -11.609375 Z M 16.171875 -11.6875 "/></g></g></g><g fill="#f8f6e9" fill-opacity="1"><g transform="translate(243.949857, 163.645447)"><g><path d="M 11.46875 -14.3125 C 11.46875 -13.5625 11.164062 -13.1875 10.5625 -13.1875 L 5.078125 -13.1875 C 4.421875 -13.1875 4.09375 -13.5625 4.09375 -14.3125 L 4.09375 -21.40625 C 4.09375 -21.789062 3.898438 -21.984375 3.515625 -21.984375 L 3.078125 -21.984375 C 2.503906 -21.984375 2.1875 -22.351562 2.125 -23.09375 L 1.5625 -31.921875 L 1.5625 -32.03125 C 1.5625 -32.78125 1.914062 -33.15625 2.625 -33.15625 L 10.34375 -33.15625 C 11.09375 -33.15625 11.46875 -32.742188 11.46875 -31.921875 Z M 11.46875 -14.3125 "/></g></g></g><g fill="#f8f6e9" fill-opacity="1"><g transform="translate(257.165244, 163.645447)"><g><path d="M 15.671875 -1.0625 C 15.671875 -0.351562 15.316406 0 14.609375 0 L 2.125 0 C 1.457031 0 1.125 -0.351562 1.125 -1.0625 L 1.125 -1.171875 L 1.96875 -10.015625 C 2.039062 -10.796875 2.429688 -11.1875 3.140625 -11.1875 L 7.15625 -11.1875 C 7.570312 -11.1875 7.78125 -11.304688 7.78125 -11.546875 L 7.78125 -11.625 L 6.984375 -21.46875 C 6.953125 -21.769531 6.742188 -21.921875 6.359375 -21.921875 L 4.859375 -21.921875 C 4.148438 -21.921875 3.796875 -22.273438 3.796875 -22.984375 L 3.796875 -23.046875 L 4.421875 -31.921875 C 4.472656 -32.742188 4.882812 -33.15625 5.65625 -33.15625 L 12.640625 -33.15625 C 13.367188 -33.15625 13.757812 -32.742188 13.8125 -31.921875 L 15.640625 -1.171875 C 15.660156 -1.148438 15.671875 -1.113281 15.671875 -1.0625 Z M 15.671875 -1.0625 "/></g></g></g><g fill="#f8f6e9" fill-opacity="1"><g transform="translate(274.394396, 163.645447)"><g><path d="M 11.46875 -14.3125 C 11.46875 -13.5625 11.164062 -13.1875 10.5625 -13.1875 L 5.078125 -13.1875 C 4.421875 -13.1875 4.09375 -13.5625 4.09375 -14.3125 L 4.09375 -21.40625 C 4.09375 -21.789062 3.898438 -21.984375 3.515625 -21.984375 L 3.078125 -21.984375 C 2.503906 -21.984375 2.1875 -22.351562 2.125 -23.09375 L 1.5625 -31.921875 L 1.5625 -32.03125 C 1.5625 -32.78125 1.914062 -33.15625 2.625 -33.15625 L 10.34375 -33.15625 C 11.09375 -33.15625 11.46875 -32.742188 11.46875 -31.921875 Z M 11.46875 -14.3125 "/></g></g></g><g fill="#f8f6e9" fill-opacity="1"><g transform="translate(287.609784, 163.645447)"><g><path d="M 22.203125 -32.390625 C 22.203125 -32.316406 22.195312 -32.242188 22.1875 -32.171875 C 22.175781 -32.097656 22.160156 -32.015625 22.140625 -31.921875 L 17.9375 -11.734375 L 21.515625 -1.171875 C 21.566406 -1.066406 21.59375 -0.945312 21.59375 -0.8125 C 21.59375 -0.269531 21.347656 0 20.859375 0 L 2.234375 0 C 1.566406 0 1.234375 -0.363281 1.234375 -1.09375 L 1.234375 -1.171875 L 1.96875 -9.890625 C 2.039062 -10.753906 2.46875 -11.1875 3.25 -11.1875 L 7.78125 -11.1875 C 8.09375 -11.1875 8.25 -11.28125 8.25 -11.46875 C 8.25 -11.519531 8.238281 -11.554688 8.21875 -11.578125 L 1.125 -31.921875 C 1.082031 -32.066406 1.0625 -32.191406 1.0625 -32.296875 C 1.0625 -32.867188 1.363281 -33.15625 1.96875 -33.15625 L 8.796875 -33.15625 C 9.523438 -33.15625 10.023438 -32.742188 10.296875 -31.921875 L 13.03125 -23.640625 L 14.53125 -31.921875 C 14.65625 -32.742188 15.144531 -33.15625 16 -33.15625 L 21.359375 -33.15625 C 21.921875 -33.15625 22.203125 -32.898438 22.203125 -32.390625 Z M 22.203125 -32.390625 "/></g></g></g><g fill="#f8f6e9" fill-opacity="1"><g transform="translate(310.818625, 163.645447)"><g><path d="M 22.4375 -31.890625 C 22.4375 -31.867188 22.4375 -31.820312 22.4375 -31.75 C 22.4375 -31.675781 22.429688 -31.566406 22.421875 -31.421875 L 20.59375 -2.125 C 20.550781 -1.5625 20.320312 -1.066406 19.90625 -0.640625 C 19.488281 -0.210938 19.003906 0 18.453125 0 L 12.75 0 C 12 0 11.625 -0.425781 11.625 -1.28125 L 11.625 -10.125 C 11.625 -10.832031 12.035156 -11.1875 12.859375 -11.1875 C 13.390625 -11.1875 13.671875 -11.460938 13.703125 -12.015625 L 14.46875 -21.1875 C 14.488281 -21.226562 14.5 -21.273438 14.5 -21.328125 C 14.5 -21.765625 14.328125 -21.984375 13.984375 -21.984375 L 3.25 -21.984375 C 2.570312 -21.984375 2.21875 -22.351562 2.1875 -23.09375 L 1.671875 -31.640625 L 1.671875 -31.96875 C 1.671875 -32.757812 2.003906 -33.15625 2.671875 -33.15625 L 21.59375 -33.09375 C 22.15625 -33.09375 22.4375 -32.691406 22.4375 -31.890625 Z M 9.890625 4.484375 C 9.890625 5.265625 9.457031 5.65625 8.59375 5.65625 L 3.953125 5.65625 C 3.023438 5.65625 2.5625 5.265625 2.5625 4.484375 L 2.5625 -14.875 C 2.5625 -15.625 3.023438 -16 3.953125 -16 L 8.59375 -16 C 9.457031 -16 9.890625 -15.625 9.890625 -14.875 Z M 9.890625 4.484375 "/></g></g></g><g fill="#f8f6e9" fill-opacity="1"><g transform="translate(334.846601, 163.645447)"><g><path d="M 10.953125 -1.125 C 10.953125 -0.375 10.675781 0 10.125 0 L 4.59375 0 C 3.914062 0 3.578125 -0.375 3.578125 -1.125 L 3.578125 -21.46875 C 3.578125 -21.8125 3.445312 -21.984375 3.1875 -21.984375 L 2.890625 -21.984375 C 2.441406 -21.984375 2.1875 -22.351562 2.125 -23.09375 L 1.5625 -31.921875 L 1.5625 -32 C 1.5625 -32.769531 1.914062 -33.15625 2.625 -33.15625 L 9.828125 -33.15625 C 10.578125 -33.15625 10.953125 -32.742188 10.953125 -31.921875 Z M 10.953125 -1.125 "/></g></g></g><g fill="#f8f6e9" fill-opacity="1"><g transform="translate(347.570507, 163.645447)"><g/></g></g><g fill="#f8f6e9" fill-opacity="1"><g transform="translate(359.939454, 163.645447)"><g><path d="M 24.0625 -1.0625 C 24.0625 -0.351562 23.703125 0 22.984375 0 L 2.625 0 C 1.914062 0 1.5625 -0.363281 1.5625 -1.09375 L 1.5625 -1.171875 L 3.46875 -31.921875 C 3.519531 -32.742188 3.910156 -33.15625 4.640625 -33.15625 L 21.03125 -33.15625 C 21.757812 -33.15625 22.148438 -32.742188 22.203125 -31.921875 L 24.0625 -1.171875 Z M 16.171875 -11.6875 L 15.375 -21.59375 C 15.332031 -21.8125 15.222656 -21.921875 15.046875 -21.921875 L 10.515625 -21.921875 C 10.242188 -21.921875 10.097656 -21.8125 10.078125 -21.59375 L 9.5 -11.6875 L 9.5 -11.65625 C 9.5 -11.34375 9.671875 -11.1875 10.015625 -11.1875 L 15.640625 -11.1875 C 15.992188 -11.1875 16.171875 -11.328125 16.171875 -11.609375 Z M 16.171875 -11.6875 "/></g></g></g><g fill="#f8f6e9" fill-opacity="1"><g transform="translate(385.551094, 163.645447)"><g><path d="M 11.46875 -14.3125 C 11.46875 -13.5625 11.164062 -13.1875 10.5625 -13.1875 L 5.078125 -13.1875 C 4.421875 -13.1875 4.09375 -13.5625 4.09375 -14.3125 L 4.09375 -21.40625 C 4.09375 -21.789062 3.898438 -21.984375 3.515625 -21.984375 L 3.078125 -21.984375 C 2.503906 -21.984375 2.1875 -22.351562 2.125 -23.09375 L 1.5625 -31.921875 L 1.5625 -32.03125 C 1.5625 -32.78125 1.914062 -33.15625 2.625 -33.15625 L 10.34375 -33.15625 C 11.09375 -33.15625 11.46875 -32.742188 11.46875 -31.921875 Z M 11.46875 -14.3125 "/></g></g></g><g fill="#f8f6e9" fill-opacity="1"><g transform="translate(398.766481, 163.645447)"><g><path d="M 19.421875 -31.921875 L 17.609375 -1.171875 C 17.554688 -0.390625 17.164062 0 16.4375 0 L 7.734375 0 C 7.003906 0 6.609375 -0.390625 6.546875 -1.171875 L 6.03125 -9.890625 L 6.03125 -10.015625 C 6.03125 -10.796875 6.382812 -11.1875 7.09375 -11.1875 L 10.453125 -11.1875 C 10.859375 -11.1875 11.070312 -11.390625 11.09375 -11.796875 L 11.515625 -21.1875 L 11.515625 -21.265625 C 11.515625 -21.703125 11.328125 -21.921875 10.953125 -21.921875 L 2.96875 -21.921875 C 2.226562 -21.921875 1.835938 -22.296875 1.796875 -23.046875 L 0.953125 -38.140625 L 0.953125 -38.359375 C 0.953125 -39.066406 1.253906 -39.421875 1.859375 -39.421875 L 7.15625 -39.421875 C 7.914062 -39.421875 8.304688 -39.03125 8.328125 -38.25 L 8.546875 -33.890625 C 8.566406 -33.398438 8.773438 -33.15625 9.171875 -33.15625 L 18.34375 -33.09375 C 19.0625 -33.09375 19.421875 -32.753906 19.421875 -32.078125 Z M 19.421875 -31.921875 "/></g></g></g><g fill="#f8f6e9" fill-opacity="1"><g transform="translate(419.736352, 163.645447)"><g><path d="M 11.46875 -14.3125 C 11.46875 -13.5625 11.164062 -13.1875 10.5625 -13.1875 L 5.078125 -13.1875 C 4.421875 -13.1875 4.09375 -13.5625 4.09375 -14.3125 L 4.09375 -21.40625 C 4.09375 -21.789062 3.898438 -21.984375 3.515625 -21.984375 L 3.078125 -21.984375 C 2.503906 -21.984375 2.1875 -22.351562 2.125 -23.09375 L 1.5625 -31.921875 L 1.5625 -32.03125 C 1.5625 -32.78125 1.914062 -33.15625 2.625 -33.15625 L 10.34375 -33.15625 C 11.09375 -33.15625 11.46875 -32.742188 11.46875 -31.921875 Z M 11.46875 -14.3125 "/></g></g></g><g fill="#f8f6e9" fill-opacity="1"><g transform="translate(432.95174, 163.645447)"><g><path d="M 11.46875 -14.3125 C 11.46875 -13.5625 11.164062 -13.1875 10.5625 -13.1875 L 5.078125 -13.1875 C 4.421875 -13.1875 4.09375 -13.5625 4.09375 -14.3125 L 4.09375 -21.40625 C 4.09375 -21.789062 3.898438 -21.984375 3.515625 -21.984375 L 3.078125 -21.984375 C 2.503906 -21.984375 2.1875 -22.351562 2.125 -23.09375 L 1.5625 -31.921875 L 1.5625 -32.03125 C 1.5625 -32.78125 1.914062 -33.15625 2.625 -33.15625 L 10.34375 -33.15625 C 11.09375 -33.15625 11.46875 -32.742188 11.46875 -31.921875 Z M 11.46875 -14.3125 "/></g></g></g><g fill="#f8f6e9" fill-opacity="1"><g transform="translate(446.167127, 163.645447)"><g><path d="M 23.046875 -0.90625 C 23.046875 -0.300781 22.78125 0 22.25 0 L 16.8125 0 C 16.21875 0 15.894531 -0.390625 15.84375 -1.171875 L 14.421875 -21.46875 C 14.378906 -21.769531 14.175781 -21.921875 13.8125 -21.921875 L 10.734375 -21.921875 C 10.460938 -21.921875 10.316406 -21.75 10.296875 -21.40625 L 8.796875 -1.171875 C 8.734375 -0.390625 8.378906 0 7.734375 0 L 2.453125 0 C 1.859375 0 1.5625 -0.363281 1.5625 -1.09375 L 1.5625 -1.171875 L 3.515625 -31.921875 C 3.578125 -32.742188 3.972656 -33.15625 4.703125 -33.15625 L 20.125 -33.15625 C 20.851562 -33.15625 21.242188 -32.742188 21.296875 -31.921875 L 23.046875 -1.171875 Z M 23.046875 -0.90625 "/></g></g></g></svg>