<svg xmlns="http://www.w3.org/2000/svg" xmlns:xlink="http://www.w3.org/1999/xlink" width="1220" zoomAndPan="magnify" viewBox="0 0 914.88 61.499998" height="82" preserveAspectRatio="xMidYMid meet" version="1.0"><defs><g/></defs><g fill="#ffcf7e" fill-opacity="1"><g transform="translate(177.925685, 33.676209)"><g><path d="M 7.625 -17.296875 C 7.625 -16.398438 7.242188 -15.539062 6.484375 -14.71875 C 5.847656 -14.039062 5.128906 -13.519531 4.328125 -13.15625 L 4.328125 -21.03125 L 7.625 -21.03125 Z M 3.578125 -17.296875 C 3.578125 -15.660156 2.488281 -14.28125 0.3125 -13.15625 L 0.3125 -21.03125 L 3.578125 -21.03125 Z M 3.578125 -17.296875 "/></g></g></g><g fill="#ffcf7e" fill-opacity="1"><g transform="translate(185.859231, 33.676209)"><g><path d="M 5.265625 0 L 0.796875 0 L 0.796875 -18.34375 L 5.265625 -18.34375 Z M 5.265625 0 "/></g></g></g><g fill="#ffcf7e" fill-opacity="1"><g transform="translate(191.917856, 33.676209)"><g><path d="M 10.46875 -13.5625 C 9.457031 -13.5625 8.953125 -13.066406 8.953125 -12.078125 L 8.953125 0 L 4.40625 0 L 4.40625 -10.796875 C 4.40625 -12.210938 5.003906 -13.132812 6.203125 -13.5625 L 0.484375 -13.5625 L 0.484375 -18.34375 L 10.46875 -18.34375 Z M 10.46875 -13.5625 "/></g></g></g><g fill="#ffcf7e" fill-opacity="1"><g transform="translate(203.182872, 33.676209)"><g><path d="M 5.203125 -10.21875 L 0.765625 -10.21875 L 0.765625 -18.34375 L 5.203125 -18.34375 Z M 5.203125 -10.21875 "/></g></g></g><g fill="#ffcf7e" fill-opacity="1"><g transform="translate(209.179517, 33.676209)"><g><path d="M 11.890625 -5.671875 C 11.890625 -3.796875 11.582031 -2.414062 10.96875 -1.53125 C 10.226562 -0.476562 8.960938 0.046875 7.171875 0.046875 C 6.847656 0.046875 6.515625 0.03125 6.171875 0 L 6.171875 -4.78125 C 6.953125 -4.78125 7.34375 -5.363281 7.34375 -6.53125 L 7.34375 -12.796875 C 7.34375 -13.304688 7.078125 -13.5625 6.546875 -13.5625 L 0.796875 -13.5625 L 0.796875 -18.34375 L 9.59375 -18.34375 C 11.125 -18.34375 11.890625 -17.601562 11.890625 -16.125 Z M 5.296875 2.65625 L 0.828125 2.65625 L 0.828125 -11.546875 L 5.296875 -11.546875 Z M 5.296875 2.65625 "/></g></g></g><g fill="#ffcf7e" fill-opacity="1"><g transform="translate(221.870091, 33.676209)"><g><path d="M 11.734375 -3.5625 C 11.734375 -1.1875 10.582031 0 8.28125 0 L 0.828125 0 L 0.828125 -4.78125 L 6.375 -4.78125 C 6.976562 -4.78125 7.28125 -5.144531 7.28125 -5.875 L 7.28125 -12.796875 C 7.28125 -13.304688 7.046875 -13.5625 6.578125 -13.5625 L 5.96875 -13.5625 C 5.539062 -13.5625 5.328125 -13.296875 5.328125 -12.765625 L 5.328125 -10.078125 L 0.796875 -10.078125 L 0.796875 -15.09375 C 0.796875 -17.257812 1.835938 -18.34375 3.921875 -18.34375 L 8.5 -18.34375 C 9.476562 -18.34375 10.257812 -18.046875 10.84375 -17.453125 C 11.4375 -16.835938 11.734375 -16.050781 11.734375 -15.09375 Z M 11.734375 -3.5625 "/></g></g></g><g fill="#ffcf7e" fill-opacity="1"><g transform="translate(234.405713, 33.676209)"><g><path d="M 12.6875 0 L 8.21875 0 L 8.21875 -12.6875 C 8.21875 -13.269531 7.953125 -13.5625 7.421875 -13.5625 L 6.8125 -13.5625 C 6.28125 -13.5625 6.015625 -13.269531 6.015625 -12.6875 L 6.015625 -2.203125 C 6.015625 -0.734375 5.398438 0 4.171875 0 L 0.3125 0 L 0.3125 -4.78125 L 1.078125 -4.78125 C 1.335938 -4.78125 1.46875 -4.894531 1.46875 -5.125 L 1.46875 -14.828125 C 1.46875 -16.078125 1.710938 -16.976562 2.203125 -17.53125 C 2.679688 -18.070312 3.535156 -18.34375 4.765625 -18.34375 L 9.609375 -18.34375 C 11.660156 -18.34375 12.6875 -17.171875 12.6875 -14.828125 Z M 12.6875 0 "/></g></g></g><g fill="#ffcf7e" fill-opacity="1"><g transform="translate(247.902038, 33.676209)"><g/></g></g><g fill="#ffcf7e" fill-opacity="1"><g transform="translate(254.921367, 33.676209)"><g><path d="M 5.203125 -10.21875 L 0.765625 -10.21875 L 0.765625 -18.34375 L 5.203125 -18.34375 Z M 5.203125 -10.21875 "/></g></g></g><g fill="#ffcf7e" fill-opacity="1"><g transform="translate(260.918012, 33.676209)"><g><path d="M 5.265625 0 L 0.796875 0 L 0.796875 -18.34375 L 5.265625 -18.34375 Z M 5.265625 0 "/></g></g></g><g fill="#ffcf7e" fill-opacity="1"><g transform="translate(266.976638, 33.676209)"><g><path d="M 10.953125 -6.625 C 10.953125 -2.207031 8.835938 0 4.609375 0 L 2.671875 0 L 2.671875 -4.78125 L 3.96875 -4.78125 C 4.96875 -4.78125 5.648438 -5.101562 6.015625 -5.75 C 6.273438 -6.207031 6.40625 -7 6.40625 -8.125 L 6.40625 -12.796875 C 6.40625 -13.304688 6.144531 -13.5625 5.625 -13.5625 L 0.796875 -13.5625 L 0.796875 -20.625 L 5.28125 -20.625 L 5.28125 -18.34375 L 8.65625 -18.34375 C 10.1875 -18.34375 10.953125 -17.601562 10.953125 -16.125 Z M 10.953125 -6.625 "/></g></g></g><g fill="#ffcf7e" fill-opacity="1"><g transform="translate(278.722005, 33.676209)"><g><path d="M 5.203125 -10.21875 L 0.765625 -10.21875 L 0.765625 -18.34375 L 5.203125 -18.34375 Z M 5.203125 -10.21875 "/></g></g></g><g fill="#ffcf7e" fill-opacity="1"><g transform="translate(284.71865, 33.676209)"><g><path d="M 12.96875 -3.296875 C 12.96875 -1.097656 11.972656 0 9.984375 0 L 6.8125 0 L 6.8125 -4.796875 L 7.765625 -4.796875 C 8.222656 -4.796875 8.453125 -5.078125 8.453125 -5.640625 L 8.453125 -12.625 C 8.453125 -13.1875 8.316406 -13.46875 8.046875 -13.46875 C 7.765625 -13.46875 7.570312 -13.148438 7.46875 -12.515625 L 5.21875 0 L 0.796875 0 L 2.6875 -10.25 L 1.796875 -10.25 C 1.109375 -10.25 0.765625 -10.585938 0.765625 -11.265625 L 0.765625 -18.34375 L 5.25 -18.34375 L 5.25 -11.875 L 6.15625 -15.421875 C 6.644531 -17.367188 7.710938 -18.34375 9.359375 -18.34375 L 9.59375 -18.34375 C 11.84375 -18.34375 12.96875 -16.96875 12.96875 -14.21875 Z M 12.96875 -3.296875 "/></g></g></g><g fill="#ffcf7e" fill-opacity="1"><g transform="translate(298.478393, 33.676209)"><g/></g></g><g fill="#ffcf7e" fill-opacity="1"><g transform="translate(305.497722, 33.676209)"><g><path d="M 9.828125 2.609375 L 5.28125 2.609375 L 5.28125 -12.796875 C 5.28125 -13.304688 5.019531 -13.5625 4.5 -13.5625 L 0.484375 -13.5625 L 0.484375 -18.34375 L 6.578125 -18.34375 C 7.535156 -18.34375 8.316406 -18.039062 8.921875 -17.4375 C 9.523438 -16.832031 9.828125 -16.050781 9.828125 -15.09375 Z M 9.828125 2.609375 "/></g></g></g><g fill="#ffcf7e" fill-opacity="1"><g transform="translate(316.111939, 33.676209)"><g><path d="M 9.828125 0 L 5.28125 0 L 5.28125 -12.796875 C 5.28125 -13.304688 5.019531 -13.5625 4.5 -13.5625 L 0.484375 -13.5625 L 0.484375 -18.34375 L 6.578125 -18.34375 C 7.535156 -18.34375 8.316406 -18.039062 8.921875 -17.4375 C 9.523438 -16.832031 9.828125 -16.050781 9.828125 -15.09375 Z M 9.828125 0 "/></g></g></g><g fill="#ffcf7e" fill-opacity="1"><g transform="translate(326.726155, 33.676209)"><g><path d="M 5.265625 0 L 0.796875 0 L 0.796875 -18.34375 L 5.265625 -18.34375 Z M 5.265625 0 "/></g></g></g><g fill="#ffcf7e" fill-opacity="1"><g transform="translate(332.784781, 33.676209)"><g><path d="M 0.890625 0 L 0.890625 -4.78125 L 6.125 -4.796875 L 3.1875 -10.71875 C 1.46875 -14.207031 0.488281 -16.75 0.25 -18.34375 L 5 -18.34375 C 5.632812 -15.78125 6.519531 -13.515625 7.65625 -11.546875 C 7.832031 -11.660156 7.941406 -11.867188 7.984375 -12.171875 C 8.015625 -12.367188 8.03125 -12.601562 8.03125 -12.875 L 8.03125 -18.34375 L 12.53125 -18.34375 L 12.53125 -12.140625 C 12.53125 -11.191406 12.25 -10.289062 11.6875 -9.4375 C 11.125 -8.601562 10.425781 -7.960938 9.59375 -7.515625 C 11.539062 -3.628906 12.519531 -1.125 12.53125 0 Z M 0.890625 0 "/></g></g></g><g fill="#ffcf7e" fill-opacity="1"><g transform="translate(346.110659, 33.676209)"><g><path d="M 10.953125 -6.625 C 10.953125 -2.207031 8.835938 0 4.609375 0 L 2.671875 0 L 2.671875 -4.78125 L 3.96875 -4.78125 C 4.96875 -4.78125 5.648438 -5.101562 6.015625 -5.75 C 6.273438 -6.207031 6.40625 -7 6.40625 -8.125 L 6.40625 -12.796875 C 6.40625 -13.304688 6.144531 -13.5625 5.625 -13.5625 L 0.796875 -13.5625 L 0.796875 -20.625 L 5.28125 -20.625 L 5.28125 -18.34375 L 8.65625 -18.34375 C 10.1875 -18.34375 10.953125 -17.601562 10.953125 -16.125 Z M 10.953125 -6.625 "/></g></g></g><g fill="#ffcf7e" fill-opacity="1"><g transform="translate(357.856025, 33.676209)"><g/></g></g><g fill="#ffcf7e" fill-opacity="1"><g transform="translate(364.875354, 33.676209)"><g><path d="M 4.8125 0 C 4.8125 1.113281 4.523438 2.050781 3.953125 2.8125 C 3.316406 3.664062 2.453125 4.09375 1.359375 4.09375 L 1.359375 1.515625 C 1.953125 1.515625 2.25 1.007812 2.25 0 L 0.640625 0 L 0.640625 -4.640625 L 4.8125 -4.640625 Z M 4.8125 0 "/></g></g></g><g fill="#ffcf7e" fill-opacity="1"><g transform="translate(370.267675, 33.676209)"><g><path d="M 8.3125 0 C 8.175781 -0.71875 7.878906 -1.671875 7.421875 -2.859375 C 6.972656 -4.046875 6.363281 -5.472656 5.59375 -7.140625 C 5.507812 -7.046875 5.445312 -6.972656 5.40625 -6.921875 C 5.363281 -6.867188 5.335938 -6.835938 5.328125 -6.828125 C 5.316406 -6.785156 5.304688 -6.695312 5.296875 -6.5625 C 5.296875 -6.425781 5.296875 -6.234375 5.296875 -5.984375 L 5.296875 0 L 0.828125 0 L 0.828125 -5.484375 C 0.828125 -8.390625 1.71875 -10.269531 3.5 -11.125 C 1.789062 -14.488281 0.835938 -16.894531 0.640625 -18.34375 L 5.296875 -18.34375 C 5.523438 -17.3125 5.863281 -16.222656 6.3125 -15.078125 C 6.757812 -13.929688 7.328125 -12.710938 8.015625 -11.421875 C 8.273438 -11.609375 8.40625 -11.988281 8.40625 -12.5625 L 8.40625 -18.34375 L 12.921875 -18.34375 L 12.921875 -12.140625 C 12.921875 -11.203125 12.640625 -10.296875 12.078125 -9.421875 C 11.503906 -8.554688 10.800781 -7.894531 9.96875 -7.4375 C 11.894531 -3.59375 12.878906 -1.113281 12.921875 0 Z M 8.3125 0 "/></g></g></g><g fill="#ffcf7e" fill-opacity="1"><g transform="translate(383.825992, 33.676209)"><g><path d="M 7.625 -17.296875 C 7.625 -16.398438 7.242188 -15.539062 6.484375 -14.71875 C 5.847656 -14.039062 5.128906 -13.519531 4.328125 -13.15625 L 4.328125 -21.03125 L 7.625 -21.03125 Z M 3.578125 -17.296875 C 3.578125 -15.660156 2.488281 -14.28125 0.3125 -13.15625 L 0.3125 -21.03125 L 3.578125 -21.03125 Z M 3.578125 -17.296875 "/></g></g></g><g fill="#ffcf7e" fill-opacity="1"><g transform="translate(391.759538, 33.676209)"><g><path d="M 10.875 0 L 6.40625 0 L 5.59375 -5.078125 C 5.269531 -5.078125 5.066406 -4.851562 4.984375 -4.40625 L 4.15625 0 L 0.15625 0 L 1.21875 -5.296875 C 1.695312 -7.691406 2.8125 -8.890625 4.5625 -8.890625 L 5.296875 -8.890625 L 5.296875 -12.796875 C 5.296875 -13.304688 5.007812 -13.5625 4.4375 -13.5625 L 1.234375 -13.5625 L 1.234375 -18.34375 L 6.421875 -18.34375 C 8.679688 -18.34375 9.8125 -17.15625 9.8125 -14.78125 L 9.8125 -8.609375 C 9.8125 -7.960938 9.828125 -7.363281 9.859375 -6.8125 C 9.898438 -6.269531 9.957031 -5.769531 10.03125 -5.3125 Z M 10.875 0 "/></g></g></g><g fill="#ffcf7e" fill-opacity="1"><g transform="translate(402.962584, 33.676209)"><g><path d="M 11.765625 0 L 7.203125 0 L 7.203125 -12.796875 C 7.203125 -13.304688 6.945312 -13.5625 6.4375 -13.5625 L 0.796875 -13.5625 L 0.796875 -18.34375 L 8.515625 -18.34375 C 9.472656 -18.34375 10.253906 -18.039062 10.859375 -17.4375 C 11.460938 -16.832031 11.765625 -16.050781 11.765625 -15.09375 Z M 5.265625 0 L 0.8125 0 L 0.8125 -11.375 L 5.265625 -11.375 Z M 5.265625 0 "/></g></g></g><g fill="#ffcf7e" fill-opacity="1"><g transform="translate(415.513701, 33.676209)"><g/></g></g><g fill="#ffcf7e" fill-opacity="1"><g transform="translate(422.533041, 33.676209)"><g><path d="M 9.828125 0 L 5.28125 0 L 5.28125 -12.796875 C 5.28125 -13.304688 5.019531 -13.5625 4.5 -13.5625 L 0.484375 -13.5625 L 0.484375 -18.34375 L 6.578125 -18.34375 C 7.535156 -18.34375 8.316406 -18.039062 8.921875 -17.4375 C 9.523438 -16.832031 9.828125 -16.050781 9.828125 -15.09375 Z M 9.828125 0 "/></g></g></g><g fill="#ffcf7e" fill-opacity="1"><g transform="translate(433.147246, 33.676209)"><g><path d="M 11.265625 0 L 0.796875 0 L 0.796875 -4.78125 L 4.28125 -4.78125 C 5.300781 -4.78125 5.8125 -5.382812 5.8125 -6.59375 L 5.8125 -12.109375 C 5.8125 -12.640625 5.71875 -13.015625 5.53125 -13.234375 C 5.34375 -13.453125 4.988281 -13.5625 4.46875 -13.5625 L 0.796875 -13.5625 L 0.796875 -18.34375 L 6.8125 -18.34375 C 9.175781 -18.34375 10.359375 -16.941406 10.359375 -14.140625 L 10.359375 -7.875 C 10.359375 -6.25 9.753906 -5.21875 8.546875 -4.78125 L 11.265625 -4.78125 Z M 11.265625 0 "/></g></g></g><g fill="#ffcf7e" fill-opacity="1"><g transform="translate(445.047565, 33.676209)"><g><path d="M 11.96875 0 L 7.46875 0 L 7.46875 -12.6875 C 7.46875 -13.269531 7.203125 -13.5625 6.671875 -13.5625 L 6.140625 -13.5625 C 5.609375 -13.5625 5.34375 -13.269531 5.34375 -12.6875 L 5.34375 0 L 0.796875 0 L 0.796875 -15.140625 C 0.796875 -16.285156 0.984375 -17.085938 1.359375 -17.546875 C 1.796875 -18.078125 2.570312 -18.34375 3.6875 -18.34375 L 8.859375 -18.34375 C 10.929688 -18.34375 11.96875 -17.273438 11.96875 -15.140625 Z M 11.96875 0 "/></g></g></g><g fill="#ffcf7e" fill-opacity="1"><g transform="translate(457.800132, 33.676209)"><g/></g></g><g fill="#ffcf7e" fill-opacity="1"><g transform="translate(464.81945, 33.676209)"><g><path d="M 5.203125 -10.21875 L 0.765625 -10.21875 L 0.765625 -18.34375 L 5.203125 -18.34375 Z M 5.203125 -10.21875 "/></g></g></g><g fill="#ffcf7e" fill-opacity="1"><g transform="translate(470.816106, 33.676209)"><g><path d="M 8.3125 0 C 8.175781 -0.71875 7.878906 -1.671875 7.421875 -2.859375 C 6.972656 -4.046875 6.363281 -5.472656 5.59375 -7.140625 C 5.507812 -7.046875 5.445312 -6.972656 5.40625 -6.921875 C 5.363281 -6.867188 5.335938 -6.835938 5.328125 -6.828125 C 5.316406 -6.785156 5.304688 -6.695312 5.296875 -6.5625 C 5.296875 -6.425781 5.296875 -6.234375 5.296875 -5.984375 L 5.296875 0 L 0.828125 0 L 0.828125 -5.484375 C 0.828125 -8.390625 1.71875 -10.269531 3.5 -11.125 C 1.789062 -14.488281 0.835938 -16.894531 0.640625 -18.34375 L 5.296875 -18.34375 C 5.523438 -17.3125 5.863281 -16.222656 6.3125 -15.078125 C 6.757812 -13.929688 7.328125 -12.710938 8.015625 -11.421875 C 8.273438 -11.609375 8.40625 -11.988281 8.40625 -12.5625 L 8.40625 -18.34375 L 12.921875 -18.34375 L 12.921875 -12.140625 C 12.921875 -11.203125 12.640625 -10.296875 12.078125 -9.421875 C 11.503906 -8.554688 10.800781 -7.894531 9.96875 -7.4375 C 11.894531 -3.59375 12.878906 -1.113281 12.921875 0 Z M 8.3125 0 "/></g></g></g><g fill="#ffcf7e" fill-opacity="1"><g transform="translate(484.374423, 33.676209)"><g><path d="M 5.109375 -13.140625 L 5.8125 -13.140625 C 6.3125 -13.140625 6.5625 -13.414062 6.5625 -13.96875 L 6.5625 -18.34375 L 10.703125 -18.34375 L 10.703125 -13.203125 C 10.703125 -11.066406 9.78125 -10 7.9375 -10 L 5.109375 -10 L 5.109375 -5.625 C 5.109375 -5.0625 5.34375 -4.78125 5.8125 -4.78125 L 11.46875 -4.78125 C 11.914062 -4.78125 12.140625 -5.0625 12.140625 -5.625 L 12.140625 -18.34375 L 16.484375 -18.34375 L 16.484375 -4.171875 C 16.484375 -2.910156 16.160156 -1.90625 15.515625 -1.15625 C 14.828125 -0.382812 13.859375 0 12.609375 0 L 4.671875 0 C 2.085938 0 0.796875 -1.390625 0.796875 -4.171875 L 0.796875 -18.34375 L 5.109375 -18.34375 Z M 5.109375 -13.140625 "/></g></g></g><g fill="#ffcf7e" fill-opacity="1"><g transform="translate(501.65159, 33.676209)"><g><path d="M 9.828125 0 L 5.28125 0 L 5.28125 -12.796875 C 5.28125 -13.304688 5.019531 -13.5625 4.5 -13.5625 L 0.484375 -13.5625 L 0.484375 -18.34375 L 6.578125 -18.34375 C 7.535156 -18.34375 8.316406 -18.039062 8.921875 -17.4375 C 9.523438 -16.832031 9.828125 -16.050781 9.828125 -15.09375 Z M 9.828125 0 "/></g></g></g><g fill="#ffcf7e" fill-opacity="1"><g transform="translate(512.265796, 33.676209)"><g/></g></g><g fill="#ffcf7e" fill-opacity="1"><g transform="translate(519.285113, 33.676209)"><g><path d="M 11.765625 0 L 7.203125 0 L 7.203125 -12.796875 C 7.203125 -13.304688 6.945312 -13.5625 6.4375 -13.5625 L 0.796875 -13.5625 L 0.796875 -18.34375 L 8.515625 -18.34375 C 9.472656 -18.34375 10.253906 -18.039062 10.859375 -17.4375 C 11.460938 -16.832031 11.765625 -16.050781 11.765625 -15.09375 Z M 5.265625 0 L 0.8125 0 L 0.8125 -11.375 L 5.265625 -11.375 Z M 5.265625 0 "/></g></g></g><g fill="#ffcf7e" fill-opacity="1"><g transform="translate(531.83623, 33.676209)"><g><path d="M 11.734375 -3.5625 C 11.734375 -1.1875 10.582031 0 8.28125 0 L 0.828125 0 L 0.828125 -4.78125 L 6.375 -4.78125 C 6.976562 -4.78125 7.28125 -5.144531 7.28125 -5.875 L 7.28125 -12.796875 C 7.28125 -13.304688 7.046875 -13.5625 6.578125 -13.5625 L 5.96875 -13.5625 C 5.539062 -13.5625 5.328125 -13.296875 5.328125 -12.765625 L 5.328125 -10.078125 L 0.796875 -10.078125 L 0.796875 -15.09375 C 0.796875 -17.257812 1.835938 -18.34375 3.921875 -18.34375 L 8.5 -18.34375 C 9.476562 -18.34375 10.257812 -18.046875 10.84375 -17.453125 C 11.4375 -16.835938 11.734375 -16.050781 11.734375 -15.09375 Z M 11.734375 -3.5625 "/></g></g></g><g fill="#ffcf7e" fill-opacity="1"><g transform="translate(544.371864, 33.676209)"><g><path d="M 11.890625 -5.671875 C 11.890625 -3.796875 11.582031 -2.414062 10.96875 -1.53125 C 10.226562 -0.476562 8.960938 0.046875 7.171875 0.046875 C 6.847656 0.046875 6.515625 0.03125 6.171875 0 L 6.171875 -4.78125 C 6.953125 -4.78125 7.34375 -5.363281 7.34375 -6.53125 L 7.34375 -12.796875 C 7.34375 -13.304688 7.078125 -13.5625 6.546875 -13.5625 L 0.796875 -13.5625 L 0.796875 -18.34375 L 9.59375 -18.34375 C 11.125 -18.34375 11.890625 -17.601562 11.890625 -16.125 Z M 5.296875 2.65625 L 0.828125 2.65625 L 0.828125 -11.546875 L 5.296875 -11.546875 Z M 5.296875 2.65625 "/></g></g></g><g fill="#ffcf7e" fill-opacity="1"><g transform="translate(557.06245, 33.676209)"><g><path d="M 12.6875 0 L 8.21875 0 L 8.21875 -12.6875 C 8.21875 -13.269531 7.953125 -13.5625 7.421875 -13.5625 L 6.8125 -13.5625 C 6.28125 -13.5625 6.015625 -13.269531 6.015625 -12.6875 L 6.015625 -2.203125 C 6.015625 -0.734375 5.398438 0 4.171875 0 L 0.3125 0 L 0.3125 -4.78125 L 1.078125 -4.78125 C 1.335938 -4.78125 1.46875 -4.894531 1.46875 -5.125 L 1.46875 -14.828125 C 1.46875 -16.078125 1.710938 -16.976562 2.203125 -17.53125 C 2.679688 -18.070312 3.535156 -18.34375 4.765625 -18.34375 L 9.609375 -18.34375 C 11.660156 -18.34375 12.6875 -17.171875 12.6875 -14.828125 Z M 12.6875 0 "/></g></g></g><g fill="#ffcf7e" fill-opacity="1"><g transform="translate(570.558786, 33.676209)"><g><path d="M 11.765625 0 L 7.203125 0 L 7.203125 -12.796875 C 7.203125 -13.304688 6.945312 -13.5625 6.4375 -13.5625 L 0.796875 -13.5625 L 0.796875 -18.34375 L 8.515625 -18.34375 C 9.472656 -18.34375 10.253906 -18.039062 10.859375 -17.4375 C 11.460938 -16.832031 11.765625 -16.050781 11.765625 -15.09375 Z M 5.265625 0 L 0.8125 0 L 0.8125 -11.375 L 5.265625 -11.375 Z M 5.265625 0 "/></g></g></g><g fill="#ffcf7e" fill-opacity="1"><g transform="translate(583.109927, 33.676209)"><g/></g></g><g fill="#ffcf7e" fill-opacity="1"><g transform="translate(590.129244, 33.676209)"><g><path d="M 12.6875 0 L 8.21875 0 L 8.21875 -12.6875 C 8.21875 -13.269531 7.953125 -13.5625 7.421875 -13.5625 L 6.8125 -13.5625 C 6.28125 -13.5625 6.015625 -13.269531 6.015625 -12.6875 L 6.015625 -2.203125 C 6.015625 -0.734375 5.398438 0 4.171875 0 L 0.3125 0 L 0.3125 -4.78125 L 1.078125 -4.78125 C 1.335938 -4.78125 1.46875 -4.894531 1.46875 -5.125 L 1.46875 -14.828125 C 1.46875 -16.078125 1.710938 -16.976562 2.203125 -17.53125 C 2.679688 -18.070312 3.535156 -18.34375 4.765625 -18.34375 L 9.609375 -18.34375 C 11.660156 -18.34375 12.6875 -17.171875 12.6875 -14.828125 Z M 12.6875 0 "/></g></g></g><g fill="#ffcf7e" fill-opacity="1"><g transform="translate(603.62558, 33.676209)"><g><path d="M 12.140625 -4.828125 C 12.140625 -1.609375 10.820312 0 8.1875 0 L 0.484375 0 L 0.484375 -4.78125 L 1.5625 -4.78125 L 1.5625 -18.34375 L 6.046875 -18.34375 L 6.046875 -4.78125 L 6.9375 -4.78125 C 7.457031 -4.78125 7.71875 -5.140625 7.71875 -5.859375 L 7.71875 -18.34375 L 12.140625 -18.34375 Z M 12.140625 -4.828125 "/></g></g></g><g fill="#ffcf7e" fill-opacity="1"><g transform="translate(616.56409, 33.676209)"><g><path d="M 5.109375 -13.140625 L 5.8125 -13.140625 C 6.3125 -13.140625 6.5625 -13.414062 6.5625 -13.96875 L 6.5625 -18.34375 L 10.703125 -18.34375 L 10.703125 -13.203125 C 10.703125 -11.066406 9.78125 -10 7.9375 -10 L 5.109375 -10 L 5.109375 -5.625 C 5.109375 -5.0625 5.34375 -4.78125 5.8125 -4.78125 L 11.46875 -4.78125 C 11.914062 -4.78125 12.140625 -5.0625 12.140625 -5.625 L 12.140625 -18.34375 L 16.484375 -18.34375 L 16.484375 -4.171875 C 16.484375 -2.910156 16.160156 -1.90625 15.515625 -1.15625 C 14.828125 -0.382812 13.859375 0 12.609375 0 L 4.671875 0 C 2.085938 0 0.796875 -1.390625 0.796875 -4.171875 L 0.796875 -18.34375 L 5.109375 -18.34375 Z M 5.109375 -13.140625 "/></g></g></g><g fill="#ffcf7e" fill-opacity="1"><g transform="translate(633.841257, 33.676209)"><g><path d="M 11.265625 0 L 0.796875 0 L 0.796875 -4.78125 L 4.28125 -4.78125 C 5.300781 -4.78125 5.8125 -5.382812 5.8125 -6.59375 L 5.8125 -12.109375 C 5.8125 -12.640625 5.71875 -13.015625 5.53125 -13.234375 C 5.34375 -13.453125 4.988281 -13.5625 4.46875 -13.5625 L 0.796875 -13.5625 L 0.796875 -18.34375 L 6.8125 -18.34375 C 9.175781 -18.34375 10.359375 -16.941406 10.359375 -14.140625 L 10.359375 -7.875 C 10.359375 -6.25 9.753906 -5.21875 8.546875 -4.78125 L 11.265625 -4.78125 Z M 11.265625 0 "/></g></g></g><g fill="#ffcf7e" fill-opacity="1"><g transform="translate(645.741576, 33.676209)"><g/></g></g><g fill="#ffcf7e" fill-opacity="1"><g transform="translate(652.760893, 33.676209)"><g><path d="M 5.265625 0 L 0.796875 0 L 0.796875 -18.34375 L 5.265625 -18.34375 Z M 5.265625 0 "/></g></g></g><g fill="#ffcf7e" fill-opacity="1"><g transform="translate(658.81953, 33.676209)"><g><path d="M 8.3125 0 C 8.175781 -0.71875 7.878906 -1.671875 7.421875 -2.859375 C 6.972656 -4.046875 6.363281 -5.472656 5.59375 -7.140625 C 5.507812 -7.046875 5.445312 -6.972656 5.40625 -6.921875 C 5.363281 -6.867188 5.335938 -6.835938 5.328125 -6.828125 C 5.316406 -6.785156 5.304688 -6.695312 5.296875 -6.5625 C 5.296875 -6.425781 5.296875 -6.234375 5.296875 -5.984375 L 5.296875 0 L 0.828125 0 L 0.828125 -5.484375 C 0.828125 -8.390625 1.71875 -10.269531 3.5 -11.125 C 1.789062 -14.488281 0.835938 -16.894531 0.640625 -18.34375 L 5.296875 -18.34375 C 5.523438 -17.3125 5.863281 -16.222656 6.3125 -15.078125 C 6.757812 -13.929688 7.328125 -12.710938 8.015625 -11.421875 C 8.273438 -11.609375 8.40625 -11.988281 8.40625 -12.5625 L 8.40625 -18.34375 L 12.921875 -18.34375 L 12.921875 -12.140625 C 12.921875 -11.203125 12.640625 -10.296875 12.078125 -9.421875 C 11.503906 -8.554688 10.800781 -7.894531 9.96875 -7.4375 C 11.894531 -3.59375 12.878906 -1.113281 12.921875 0 Z M 8.3125 0 "/></g></g></g><g fill="#ffcf7e" fill-opacity="1"><g transform="translate(672.377848, 33.676209)"><g/></g></g><g fill="#ffcf7e" fill-opacity="1"><g transform="translate(679.397165, 33.676209)"><g><path d="M 11.71875 2.609375 L 7.25 2.609375 L 7.25 -12.796875 C 7.25 -13.304688 7 -13.5625 6.5 -13.5625 L 5.96875 -13.5625 C 5.539062 -13.5625 5.328125 -13.296875 5.328125 -12.765625 L 5.328125 -10.078125 L 0.796875 -10.078125 L 0.796875 -15.09375 C 0.796875 -17.257812 1.945312 -18.34375 4.25 -18.34375 L 8.1875 -18.34375 C 9.15625 -18.34375 9.972656 -18.050781 10.640625 -17.46875 C 11.359375 -16.84375 11.71875 -16.050781 11.71875 -15.09375 Z M 11.71875 2.609375 "/></g></g></g><g fill="#ffcf7e" fill-opacity="1"><g transform="translate(691.901808, 33.676209)"><g><path d="M 9.828125 0 L 5.28125 0 L 5.28125 -12.796875 C 5.28125 -13.304688 5.019531 -13.5625 4.5 -13.5625 L 0.484375 -13.5625 L 0.484375 -18.34375 L 6.578125 -18.34375 C 7.535156 -18.34375 8.316406 -18.039062 8.921875 -17.4375 C 9.523438 -16.832031 9.828125 -16.050781 9.828125 -15.09375 Z M 9.828125 0 "/></g></g></g><g fill="#ffcf7e" fill-opacity="1"><g transform="translate(702.516014, 33.676209)"><g><path d="M 5.265625 0 L 0.796875 0 L 0.796875 -18.34375 L 5.265625 -18.34375 Z M 5.265625 0 "/></g></g></g><g fill="#ffcf7e" fill-opacity="1"><g transform="translate(708.574651, 33.676209)"><g><path d="M 12.140625 -4.828125 C 12.140625 -1.609375 10.820312 0 8.1875 0 L 0.484375 0 L 0.484375 -4.78125 L 1.5625 -4.78125 L 1.5625 -18.34375 L 6.046875 -18.34375 L 6.046875 -4.78125 L 6.9375 -4.78125 C 7.457031 -4.78125 7.71875 -5.140625 7.71875 -5.859375 L 7.71875 -18.34375 L 12.140625 -18.34375 Z M 12.140625 -4.828125 "/></g></g></g><g fill="#ffcf7e" fill-opacity="1"><g transform="translate(721.51316, 33.676209)"><g><path d="M 11.265625 0 L 0.796875 0 L 0.796875 -4.78125 L 4.28125 -4.78125 C 5.300781 -4.78125 5.8125 -5.382812 5.8125 -6.59375 L 5.8125 -12.109375 C 5.8125 -12.640625 5.71875 -13.015625 5.53125 -13.234375 C 5.34375 -13.453125 4.988281 -13.5625 4.46875 -13.5625 L 0.796875 -13.5625 L 0.796875 -18.34375 L 6.8125 -18.34375 C 9.175781 -18.34375 10.359375 -16.941406 10.359375 -14.140625 L 10.359375 -7.875 C 10.359375 -6.25 9.753906 -5.21875 8.546875 -4.78125 L 11.265625 -4.78125 Z M 11.265625 0 "/></g></g></g><g fill="#ffcf7e" fill-opacity="1"><g transform="translate(733.413479, 33.676209)"><g/></g></g><g fill="#ffcf7e" fill-opacity="1"><g transform="translate(740.432797, 33.676209)"><g><path d="M 10.46875 -13.5625 C 9.457031 -13.5625 8.953125 -13.066406 8.953125 -12.078125 L 8.953125 0 L 4.40625 0 L 4.40625 -10.796875 C 4.40625 -12.210938 5.003906 -13.132812 6.203125 -13.5625 L 0.484375 -13.5625 L 0.484375 -18.34375 L 10.46875 -18.34375 Z M 10.46875 -13.5625 "/></g></g></g><g fill="#ffcf7e" fill-opacity="1"><g transform="translate(751.697823, 33.676209)"><g><path d="M 11.96875 0 L 7.46875 0 L 7.46875 -12.6875 C 7.46875 -13.269531 7.203125 -13.5625 6.671875 -13.5625 L 6.140625 -13.5625 C 5.609375 -13.5625 5.34375 -13.269531 5.34375 -12.6875 L 5.34375 0 L 0.796875 0 L 0.796875 -15.140625 C 0.796875 -16.285156 0.984375 -17.085938 1.359375 -17.546875 C 1.796875 -18.078125 2.570312 -18.34375 3.6875 -18.34375 L 8.859375 -18.34375 C 10.929688 -18.34375 11.96875 -17.273438 11.96875 -15.140625 Z M 11.96875 0 "/></g></g></g><g fill="#ffcf7e" fill-opacity="1"><g transform="translate(764.45039, 33.676209)"><g><path d="M 5.265625 0 L 0.796875 0 L 0.796875 -18.34375 L 5.265625 -18.34375 Z M 5.265625 0 "/></g></g></g><g fill="#ffcf7e" fill-opacity="1"><g transform="translate(770.509028, 33.676209)"><g><path d="M 5.203125 -10.21875 L 0.765625 -10.21875 L 0.765625 -18.34375 L 5.203125 -18.34375 Z M 5.203125 -10.21875 "/></g></g></g><g fill="#ffcf7e" fill-opacity="1"><g transform="translate(776.505684, 33.676209)"><g><path d="M 12.96875 -3.296875 C 12.96875 -1.097656 11.972656 0 9.984375 0 L 6.8125 0 L 6.8125 -4.796875 L 7.765625 -4.796875 C 8.222656 -4.796875 8.453125 -5.078125 8.453125 -5.640625 L 8.453125 -12.625 C 8.453125 -13.1875 8.316406 -13.46875 8.046875 -13.46875 C 7.765625 -13.46875 7.570312 -13.148438 7.46875 -12.515625 L 5.21875 0 L 0.796875 0 L 2.6875 -10.25 L 1.796875 -10.25 C 1.109375 -10.25 0.765625 -10.585938 0.765625 -11.265625 L 0.765625 -18.34375 L 5.25 -18.34375 L 5.25 -11.875 L 6.15625 -15.421875 C 6.644531 -17.367188 7.710938 -18.34375 9.359375 -18.34375 L 9.59375 -18.34375 C 11.84375 -18.34375 12.96875 -16.96875 12.96875 -14.21875 Z M 12.96875 -3.296875 "/></g></g></g><g fill="#ffcf7e" fill-opacity="1"><g transform="translate(790.265427, 33.676209)"><g/></g></g><g fill="#ffcf7e" fill-opacity="1"><g transform="translate(797.284745, 33.676209)"><g><path d="M 11.265625 0 L 0.796875 0 L 0.796875 -4.78125 L 4.28125 -4.78125 C 5.300781 -4.78125 5.8125 -5.382812 5.8125 -6.59375 L 5.8125 -12.109375 C 5.8125 -12.640625 5.71875 -13.015625 5.53125 -13.234375 C 5.34375 -13.453125 4.988281 -13.5625 4.46875 -13.5625 L 0.796875 -13.5625 L 0.796875 -18.34375 L 6.8125 -18.34375 C 9.175781 -18.34375 10.359375 -16.941406 10.359375 -14.140625 L 10.359375 -7.875 C 10.359375 -6.25 9.753906 -5.21875 8.546875 -4.78125 L 11.265625 -4.78125 Z M 11.265625 0 "/></g></g></g><g fill="#ffcf7e" fill-opacity="1"><g transform="translate(809.185064, 33.676209)"><g><path d="M 0.890625 0 L 0.890625 -4.78125 L 6.125 -4.796875 L 3.1875 -10.71875 C 1.46875 -14.207031 0.488281 -16.75 0.25 -18.34375 L 5 -18.34375 C 5.632812 -15.78125 6.519531 -13.515625 7.65625 -11.546875 C 7.832031 -11.660156 7.941406 -11.867188 7.984375 -12.171875 C 8.015625 -12.367188 8.03125 -12.601562 8.03125 -12.875 L 8.03125 -18.34375 L 12.53125 -18.34375 L 12.53125 -12.140625 C 12.53125 -11.191406 12.25 -10.289062 11.6875 -9.4375 C 11.125 -8.601562 10.425781 -7.960938 9.59375 -7.515625 C 11.539062 -3.628906 12.519531 -1.125 12.53125 0 Z M 0.890625 0 "/></g></g></g><g fill="#ffcf7e" fill-opacity="1"><g transform="translate(822.510941, 33.676209)"><g><path d="M 12.96875 -3.296875 C 12.96875 -1.097656 11.972656 0 9.984375 0 L 6.8125 0 L 6.8125 -4.796875 L 7.765625 -4.796875 C 8.222656 -4.796875 8.453125 -5.078125 8.453125 -5.640625 L 8.453125 -12.625 C 8.453125 -13.1875 8.316406 -13.46875 8.046875 -13.46875 C 7.765625 -13.46875 7.570312 -13.148438 7.46875 -12.515625 L 5.21875 0 L 0.796875 0 L 2.6875 -10.25 L 1.796875 -10.25 C 1.109375 -10.25 0.765625 -10.585938 0.765625 -11.265625 L 0.765625 -18.34375 L 5.25 -18.34375 L 5.25 -11.875 L 6.15625 -15.421875 C 6.644531 -17.367188 7.710938 -18.34375 9.359375 -18.34375 L 9.59375 -18.34375 C 11.84375 -18.34375 12.96875 -16.96875 12.96875 -14.21875 Z M 12.96875 -3.296875 "/></g></g></g><g fill="#ffcf7e" fill-opacity="1"><g transform="translate(836.270685, 33.676209)"><g/></g></g><g fill="#ffcf7e" fill-opacity="1"><g transform="translate(843.290002, 33.676209)"><g><path d="M 12.6875 0 L 8.21875 0 L 8.21875 -12.6875 C 8.21875 -13.269531 7.953125 -13.5625 7.421875 -13.5625 L 6.8125 -13.5625 C 6.28125 -13.5625 6.015625 -13.269531 6.015625 -12.6875 L 6.015625 -2.203125 C 6.015625 -0.734375 5.398438 0 4.171875 0 L 0.3125 0 L 0.3125 -4.78125 L 1.078125 -4.78125 C 1.335938 -4.78125 1.46875 -4.894531 1.46875 -5.125 L 1.46875 -14.828125 C 1.46875 -16.078125 1.710938 -16.976562 2.203125 -17.53125 C 2.679688 -18.070312 3.535156 -18.34375 4.765625 -18.34375 L 9.609375 -18.34375 C 11.660156 -18.34375 12.6875 -17.171875 12.6875 -14.828125 Z M 12.6875 0 "/></g></g></g><g fill="#ffcf7e" fill-opacity="1"><g transform="translate(856.786338, 33.676209)"><g><path d="M 12.140625 -4.828125 C 12.140625 -1.609375 10.820312 0 8.1875 0 L 0.484375 0 L 0.484375 -4.78125 L 1.5625 -4.78125 L 1.5625 -18.34375 L 6.046875 -18.34375 L 6.046875 -4.78125 L 6.9375 -4.78125 C 7.457031 -4.78125 7.71875 -5.140625 7.71875 -5.859375 L 7.71875 -18.34375 L 12.140625 -18.34375 Z M 12.140625 -4.828125 "/></g></g></g><g fill="#ffcf7e" fill-opacity="1"><g transform="translate(869.724848, 33.676209)"><g><path d="M 11.265625 0 L 0.796875 0 L 0.796875 -4.78125 L 4.28125 -4.78125 C 5.300781 -4.78125 5.8125 -5.382812 5.8125 -6.59375 L 5.8125 -12.109375 C 5.8125 -12.640625 5.71875 -13.015625 5.53125 -13.234375 C 5.34375 -13.453125 4.988281 -13.5625 4.46875 -13.5625 L 0.796875 -13.5625 L 0.796875 -18.34375 L 6.8125 -18.34375 C 9.175781 -18.34375 10.359375 -16.941406 10.359375 -14.140625 L 10.359375 -7.875 C 10.359375 -6.25 9.753906 -5.21875 8.546875 -4.78125 L 11.265625 -4.78125 Z M 11.265625 0 "/></g></g></g><g fill="#ffcf7e" fill-opacity="1"><g transform="translate(881.625166, 33.676209)"><g><path d="M 0.3125 -16.890625 C 0.3125 -17.773438 0.691406 -18.632812 1.453125 -19.46875 C 2.085938 -20.144531 2.804688 -20.664062 3.609375 -21.03125 L 3.609375 -13.15625 L 0.3125 -13.15625 Z M 4.359375 -16.890625 C 4.359375 -18.523438 5.445312 -19.90625 7.625 -21.03125 L 7.625 -13.15625 L 4.359375 -13.15625 Z M 4.359375 -16.890625 "/></g></g></g><g fill="#ffcf7e" fill-opacity="1"><g transform="translate(20.796983, 46.720165)"><g><path d="M 7.265625 0 C 7.148438 -0.632812 6.894531 -1.46875 6.5 -2.5 C 6.101562 -3.53125 5.566406 -4.78125 4.890625 -6.25 C 4.816406 -6.164062 4.757812 -6.101562 4.71875 -6.0625 C 4.6875 -6.019531 4.664062 -5.992188 4.65625 -5.984375 C 4.65625 -5.941406 4.648438 -5.859375 4.640625 -5.734375 C 4.640625 -5.617188 4.640625 -5.453125 4.640625 -5.234375 L 4.640625 0 L 0.71875 0 L 0.71875 -4.796875 C 0.71875 -7.335938 1.5 -8.984375 3.0625 -9.734375 C 1.5625 -12.679688 0.726562 -14.785156 0.5625 -16.046875 L 4.640625 -16.046875 C 4.835938 -15.148438 5.128906 -14.195312 5.515625 -13.1875 C 5.910156 -12.1875 6.410156 -11.117188 7.015625 -9.984375 C 7.234375 -10.148438 7.34375 -10.488281 7.34375 -11 L 7.34375 -16.046875 L 11.3125 -16.046875 L 11.3125 -10.609375 C 11.3125 -9.796875 11.0625 -9.007812 10.5625 -8.25 C 10.0625 -7.488281 9.445312 -6.90625 8.71875 -6.5 C 10.40625 -3.144531 11.269531 -0.976562 11.3125 0 Z M 7.265625 0 "/></g></g></g><g fill="#ffcf7e" fill-opacity="1"><g transform="translate(32.661748, 46.720165)"><g><path d="M 6.671875 -15.125 C 6.671875 -14.351562 6.335938 -13.601562 5.671875 -12.875 C 5.117188 -12.28125 4.488281 -11.828125 3.78125 -11.515625 L 3.78125 -18.390625 L 6.671875 -18.390625 Z M 3.125 -15.125 C 3.125 -13.695312 2.171875 -12.492188 0.265625 -11.515625 L 0.265625 -18.390625 L 3.125 -18.390625 Z M 3.125 -15.125 "/></g></g></g><g fill="#ffcf7e" fill-opacity="1"><g transform="translate(39.604327, 46.720165)"><g><path d="M 9.515625 0 L 5.59375 0 L 4.890625 -4.453125 C 4.609375 -4.453125 4.429688 -4.25 4.359375 -3.84375 L 3.640625 0 L 0.140625 0 L 1.078125 -4.640625 C 1.484375 -6.734375 2.453125 -7.78125 3.984375 -7.78125 L 4.640625 -7.78125 L 4.640625 -11.203125 C 4.640625 -11.640625 4.382812 -11.859375 3.875 -11.859375 L 1.078125 -11.859375 L 1.078125 -16.046875 L 5.609375 -16.046875 C 7.585938 -16.046875 8.578125 -15.007812 8.578125 -12.9375 L 8.578125 -7.53125 C 8.578125 -6.96875 8.59375 -6.445312 8.625 -5.96875 C 8.65625 -5.488281 8.703125 -5.050781 8.765625 -4.65625 Z M 9.515625 0 "/></g></g></g><g fill="#ffcf7e" fill-opacity="1"><g transform="translate(49.408014, 46.720165)"><g><path d="M 10.296875 0 L 6.296875 0 L 6.296875 -11.203125 C 6.296875 -11.640625 6.070312 -11.859375 5.625 -11.859375 L 0.6875 -11.859375 L 0.6875 -16.046875 L 7.453125 -16.046875 C 8.285156 -16.046875 8.96875 -15.78125 9.5 -15.25 C 10.03125 -14.726562 10.296875 -14.046875 10.296875 -13.203125 Z M 4.609375 0 L 0.703125 0 L 0.703125 -9.953125 L 4.609375 -9.953125 Z M 4.609375 0 "/></g></g></g><g fill="#ffcf7e" fill-opacity="1"><g transform="translate(60.391391, 46.720165)"><g/></g></g><g fill="#ffcf7e" fill-opacity="1"><g transform="translate(66.533953, 46.720165)"><g><path d="M 10.40625 -4.96875 C 10.40625 -3.332031 10.132812 -2.125 9.59375 -1.34375 C 8.945312 -0.414062 7.84375 0.046875 6.28125 0.046875 C 6 0.046875 5.703125 0.03125 5.390625 0 L 5.390625 -4.1875 C 6.078125 -4.1875 6.421875 -4.691406 6.421875 -5.703125 L 6.421875 -11.203125 C 6.421875 -11.640625 6.191406 -11.859375 5.734375 -11.859375 L 0.6875 -11.859375 L 0.6875 -16.046875 L 8.390625 -16.046875 C 9.734375 -16.046875 10.40625 -15.398438 10.40625 -14.109375 Z M 4.640625 2.3125 L 0.71875 2.3125 L 0.71875 -10.09375 L 4.640625 -10.09375 Z M 4.640625 2.3125 "/></g></g></g><g fill="#ffcf7e" fill-opacity="1"><g transform="translate(77.639373, 46.720165)"><g><path d="M 4.609375 0 L 0.6875 0 L 0.6875 -16.046875 L 4.609375 -16.046875 Z M 4.609375 0 "/></g></g></g><g fill="#ffcf7e" fill-opacity="1"><g transform="translate(82.941231, 46.720165)"><g><path d="M 10.46875 0 L 6.53125 0 L 6.53125 -11.109375 C 6.53125 -11.609375 6.300781 -11.859375 5.84375 -11.859375 L 5.375 -11.859375 C 4.90625 -11.859375 4.671875 -11.609375 4.671875 -11.109375 L 4.671875 0 L 0.6875 0 L 0.6875 -13.25 C 0.6875 -14.25 0.851562 -14.945312 1.1875 -15.34375 C 1.570312 -15.8125 2.253906 -16.046875 3.234375 -16.046875 L 7.75 -16.046875 C 9.5625 -16.046875 10.46875 -15.113281 10.46875 -13.25 Z M 10.46875 0 "/></g></g></g><g fill="#ffcf7e" fill-opacity="1"><g transform="translate(94.10089, 46.720165)"><g><path d="M 9.578125 -5.796875 C 9.578125 -1.929688 7.726562 0 4.03125 0 L 2.328125 0 L 2.328125 -4.1875 L 3.46875 -4.1875 C 4.34375 -4.1875 4.941406 -4.46875 5.265625 -5.03125 C 5.484375 -5.425781 5.59375 -6.117188 5.59375 -7.109375 L 5.59375 -11.203125 C 5.59375 -11.640625 5.367188 -11.859375 4.921875 -11.859375 L 0.6875 -11.859375 L 0.6875 -18.046875 L 4.625 -18.046875 L 4.625 -16.046875 L 7.578125 -16.046875 C 8.910156 -16.046875 9.578125 -15.398438 9.578125 -14.109375 Z M 9.578125 -5.796875 "/></g></g></g><g fill="#ffcf7e" fill-opacity="1"><g transform="translate(104.379162, 46.720165)"><g/></g></g><g fill="#ffcf7e" fill-opacity="1"><g transform="translate(110.524516, 46.720165)"><g><path d="M 10.015625 -3.078125 C 10.015625 -1.023438 9.082031 0 7.21875 0 L 1.390625 0 L 1.390625 -4.1875 L 6.109375 -4.1875 L 6.109375 -6.09375 L 3.640625 -6.09375 C 1.765625 -6.09375 0.828125 -7.117188 0.828125 -9.171875 L 0.828125 -12.953125 C 0.828125 -15.015625 1.863281 -16.046875 3.9375 -16.046875 L 6.921875 -16.046875 C 7.859375 -16.046875 8.609375 -15.769531 9.171875 -15.21875 C 9.734375 -14.65625 10.015625 -13.898438 10.015625 -12.953125 Z M 6.109375 -9.71875 L 6.109375 -11.84375 L 4.75 -11.84375 L 4.75 -9.71875 Z M 6.109375 -9.71875 "/></g></g></g><g fill="#ffcf7e" fill-opacity="1"><g transform="translate(121.369934, 46.720165)"><g/></g></g><g fill="#ffcf7e" fill-opacity="1"><g transform="translate(127.512495, 46.720165)"><g><path d="M 10.25 2.28125 L 6.34375 2.28125 L 6.34375 -11.203125 C 6.34375 -11.640625 6.125 -11.859375 5.6875 -11.859375 L 5.21875 -11.859375 C 4.84375 -11.859375 4.65625 -11.628906 4.65625 -11.171875 L 4.65625 -8.8125 L 0.6875 -8.8125 L 0.6875 -13.203125 C 0.6875 -15.097656 1.695312 -16.046875 3.71875 -16.046875 L 7.15625 -16.046875 C 8.007812 -16.046875 8.726562 -15.789062 9.3125 -15.28125 C 9.9375 -14.738281 10.25 -14.046875 10.25 -13.203125 Z M 10.25 2.28125 "/></g></g></g><g fill="#ffcf7e" fill-opacity="1"><g transform="translate(138.455199, 46.720165)"><g><path d="M 4.5625 -8.9375 L 0.671875 -8.9375 L 0.671875 -16.046875 L 4.5625 -16.046875 Z M 4.5625 -8.9375 "/></g></g></g><g fill="#ffcf7e" fill-opacity="1"><g transform="translate(143.702818, 46.720165)"><g><path d="M 10.625 -4.234375 C 10.625 -1.410156 9.46875 0 7.15625 0 L 0.421875 0 L 0.421875 -4.1875 L 1.375 -4.1875 L 1.375 -16.046875 L 5.28125 -16.046875 L 5.28125 -4.1875 L 6.078125 -4.1875 C 6.523438 -4.1875 6.75 -4.5 6.75 -5.125 L 6.75 -16.046875 L 10.625 -16.046875 Z M 10.625 -4.234375 "/></g></g></g><g fill="#ffcf7e" fill-opacity="1"><g transform="translate(155.025194, 46.720165)"><g><path d="M 10.9375 -4.8125 C 10.9375 -3.238281 10.492188 -1.984375 9.609375 -1.046875 C 8.703125 -0.078125 7.46875 0.40625 5.90625 0.40625 C 4.3125 0.40625 3.039062 -0.0625 2.09375 -1 C 1.15625 -1.9375 0.6875 -3.207031 0.6875 -4.8125 L 0.6875 -13.484375 C 0.6875 -13.953125 0.734375 -14.347656 0.828125 -14.671875 C 0.921875 -14.992188 1.066406 -15.253906 1.265625 -15.453125 C 1.460938 -15.660156 1.71875 -15.8125 2.03125 -15.90625 C 2.351562 -16 2.75 -16.046875 3.21875 -16.046875 L 8.390625 -16.046875 C 10.085938 -16.046875 10.9375 -15.191406 10.9375 -13.484375 Z M 6.984375 -11.53125 C 6.984375 -11.75 6.890625 -11.859375 6.703125 -11.859375 L 4.890625 -11.859375 C 4.710938 -11.859375 4.625 -11.75 4.625 -11.53125 L 4.625 -5.25 C 4.625 -4.257812 5.035156 -3.765625 5.859375 -3.765625 C 6.609375 -3.765625 6.984375 -4.257812 6.984375 -5.25 Z M 6.984375 -11.53125 "/></g></g></g></svg>