<svg xmlns="http://www.w3.org/2000/svg" xmlns:xlink="http://www.w3.org/1999/xlink" width="1725" zoomAndPan="magnify" viewBox="0 0 1293.75 127.500001" height="170" preserveAspectRatio="xMidYMid meet" version="1.0"><defs><g/></defs><g fill="#ffcf7e" fill-opacity="1"><g transform="translate(32.029906, 33.817389)"><g><path d="M 12.75 0 L 8.25 0 L 8.25 -12.75 C 8.25 -13.332031 7.984375 -13.625 7.453125 -13.625 L 6.84375 -13.625 C 6.300781 -13.625 6.03125 -13.332031 6.03125 -12.75 L 6.03125 -2.203125 C 6.03125 -0.734375 5.414062 0 4.1875 0 L 0.3125 0 L 0.3125 -4.8125 L 1.09375 -4.8125 C 1.351562 -4.8125 1.484375 -4.925781 1.484375 -5.15625 L 1.484375 -14.890625 C 1.484375 -16.148438 1.722656 -17.054688 2.203125 -17.609375 C 2.691406 -18.148438 3.554688 -18.421875 4.796875 -18.421875 L 9.65625 -18.421875 C 11.71875 -18.421875 12.75 -17.242188 12.75 -14.890625 Z M 12.75 0 "/></g></g></g><g fill="#ffcf7e" fill-opacity="1"><g transform="translate(45.582809, 33.817389)"><g><path d="M 10.921875 0 L 6.421875 0 L 5.625 -5.109375 C 5.300781 -5.109375 5.097656 -4.878906 5.015625 -4.421875 L 4.171875 0 L 0.15625 0 L 1.234375 -5.328125 C 1.710938 -7.734375 2.828125 -8.9375 4.578125 -8.9375 L 5.328125 -8.9375 L 5.328125 -12.859375 C 5.328125 -13.367188 5.035156 -13.625 4.453125 -13.625 L 1.25 -13.625 L 1.25 -18.421875 L 6.4375 -18.421875 C 8.71875 -18.421875 9.859375 -17.226562 9.859375 -14.84375 L 9.859375 -8.65625 C 9.859375 -8 9.875 -7.394531 9.90625 -6.84375 C 9.945312 -6.289062 10 -5.789062 10.0625 -5.34375 Z M 10.921875 0 "/></g></g></g><g fill="#ffcf7e" fill-opacity="1"><g transform="translate(56.832808, 33.817389)"><g><path d="M 9.875 0 L 5.3125 0 L 5.3125 -12.859375 C 5.3125 -13.367188 5.046875 -13.625 4.515625 -13.625 L 0.484375 -13.625 L 0.484375 -18.421875 L 6.609375 -18.421875 C 7.566406 -18.421875 8.351562 -18.117188 8.96875 -17.515625 C 9.570312 -16.910156 9.875 -16.125 9.875 -15.15625 Z M 9.875 0 "/></g></g></g><g fill="#ffcf7e" fill-opacity="1"><g transform="translate(67.49152, 33.817389)"><g><path d="M 10.515625 -13.625 C 9.503906 -13.625 9 -13.125 9 -12.125 L 9 0 L 4.421875 0 L 4.421875 -10.84375 C 4.421875 -12.269531 5.019531 -13.195312 6.21875 -13.625 L 0.484375 -13.625 L 0.484375 -18.421875 L 10.515625 -18.421875 Z M 10.515625 -13.625 "/></g></g></g><g fill="#ffcf7e" fill-opacity="1"><g transform="translate(78.80376, 33.817389)"><g><path d="M 11.3125 0 L 0.796875 0 L 0.796875 -4.8125 L 4.296875 -4.8125 C 5.328125 -4.8125 5.84375 -5.414062 5.84375 -6.625 L 5.84375 -12.15625 C 5.84375 -12.695312 5.75 -13.078125 5.5625 -13.296875 C 5.375 -13.515625 5.015625 -13.625 4.484375 -13.625 L 0.796875 -13.625 L 0.796875 -18.421875 L 6.84375 -18.421875 C 9.21875 -18.421875 10.40625 -17.015625 10.40625 -14.203125 L 10.40625 -7.90625 C 10.40625 -6.28125 9.800781 -5.25 8.59375 -4.8125 L 11.3125 -4.8125 Z M 11.3125 0 "/></g></g></g><g fill="#ffcf7e" fill-opacity="1"><g transform="translate(90.753966, 33.817389)"><g/></g></g><g fill="#ffcf7e" fill-opacity="1"><g transform="translate(97.802721, 33.817389)"><g><path d="M 5.296875 2.640625 L 0.796875 2.640625 L 0.796875 -18.421875 L 5.296875 -18.421875 Z M 5.296875 2.640625 "/></g></g></g><g fill="#ffcf7e" fill-opacity="1"><g transform="translate(103.886745, 33.817389)"><g><path d="M 5.234375 -10.25 L 0.765625 -10.25 L 0.765625 -18.421875 L 5.234375 -18.421875 Z M 5.234375 -10.25 "/></g></g></g><g fill="#ffcf7e" fill-opacity="1"><g transform="translate(109.908529, 33.817389)"><g><path d="M 0.890625 0 L 0.890625 -4.8125 L 6.140625 -4.828125 L 3.203125 -10.765625 C 1.472656 -14.273438 0.488281 -16.828125 0.25 -18.421875 L 5.03125 -18.421875 C 5.664062 -15.847656 6.550781 -13.570312 7.6875 -11.59375 C 7.863281 -11.707031 7.972656 -11.921875 8.015625 -12.234375 C 8.046875 -12.429688 8.0625 -12.664062 8.0625 -12.9375 L 8.0625 -18.421875 L 12.59375 -18.421875 L 12.59375 -12.1875 C 12.59375 -11.238281 12.304688 -10.335938 11.734375 -9.484375 C 11.171875 -8.640625 10.472656 -7.992188 9.640625 -7.546875 C 11.597656 -3.648438 12.582031 -1.132812 12.59375 0 Z M 0.890625 0 "/></g></g></g><g fill="#ffcf7e" fill-opacity="1"><g transform="translate(123.29027, 33.817389)"><g><path d="M 11.9375 -5.703125 C 11.9375 -3.816406 11.628906 -2.429688 11.015625 -1.546875 C 10.273438 -0.484375 9.003906 0.046875 7.203125 0.046875 C 6.878906 0.046875 6.539062 0.03125 6.1875 0 L 6.1875 -4.8125 C 6.976562 -4.8125 7.375 -5.390625 7.375 -6.546875 L 7.375 -12.859375 C 7.375 -13.367188 7.109375 -13.625 6.578125 -13.625 L 0.796875 -13.625 L 0.796875 -18.421875 L 9.640625 -18.421875 C 11.171875 -18.421875 11.9375 -17.679688 11.9375 -16.203125 Z M 5.328125 2.65625 L 0.828125 2.65625 L 0.828125 -11.59375 L 5.328125 -11.59375 Z M 5.328125 2.65625 "/></g></g></g><g fill="#ffcf7e" fill-opacity="1"><g transform="translate(136.034044, 33.817389)"><g/></g></g><g fill="#ffcf7e" fill-opacity="1"><g transform="translate(143.082799, 33.817389)"><g><path d="M 5.296875 0 L 0.796875 0 L 0.796875 -18.421875 L 5.296875 -18.421875 Z M 5.296875 0 "/></g></g></g><g fill="#ffcf7e" fill-opacity="1"><g transform="translate(149.166823, 33.817389)"><g><path d="M 8.34375 0 C 8.207031 -0.726562 7.910156 -1.6875 7.453125 -2.875 C 7.003906 -4.0625 6.394531 -5.492188 5.625 -7.171875 C 5.539062 -7.078125 5.476562 -7.003906 5.4375 -6.953125 C 5.394531 -6.898438 5.367188 -6.867188 5.359375 -6.859375 C 5.347656 -6.816406 5.335938 -6.722656 5.328125 -6.578125 C 5.328125 -6.441406 5.328125 -6.25 5.328125 -6 L 5.328125 0 L 0.828125 0 L 0.828125 -5.515625 C 0.828125 -8.429688 1.722656 -10.316406 3.515625 -11.171875 C 1.796875 -14.554688 0.835938 -16.972656 0.640625 -18.421875 L 5.328125 -18.421875 C 5.554688 -17.390625 5.894531 -16.296875 6.34375 -15.140625 C 6.789062 -13.992188 7.359375 -12.769531 8.046875 -11.46875 C 8.304688 -11.65625 8.4375 -12.039062 8.4375 -12.625 L 8.4375 -18.421875 L 12.984375 -18.421875 L 12.984375 -12.1875 C 12.984375 -11.25 12.695312 -10.34375 12.125 -9.46875 C 11.550781 -8.59375 10.84375 -7.925781 10 -7.46875 C 11.945312 -3.613281 12.941406 -1.125 12.984375 0 Z M 8.34375 0 "/></g></g></g><g fill="#ffcf7e" fill-opacity="1"><g transform="translate(162.781967, 33.817389)"><g/></g></g><g fill="#ffcf7e" fill-opacity="1"><g transform="translate(169.830722, 33.817389)"><g><path d="M 4.84375 0 C 4.84375 1.125 4.550781 2.066406 3.96875 2.828125 C 3.332031 3.679688 2.46875 4.109375 1.375 4.109375 L 1.375 1.53125 C 1.957031 1.53125 2.25 1.019531 2.25 0 L 0.640625 0 L 0.640625 -4.65625 L 4.84375 -4.65625 Z M 4.84375 0 "/></g></g></g><g fill="#ffcf7e" fill-opacity="1"><g transform="translate(175.245659, 33.817389)"><g><path d="M 8.34375 0 C 8.207031 -0.726562 7.910156 -1.6875 7.453125 -2.875 C 7.003906 -4.0625 6.394531 -5.492188 5.625 -7.171875 C 5.539062 -7.078125 5.476562 -7.003906 5.4375 -6.953125 C 5.394531 -6.898438 5.367188 -6.867188 5.359375 -6.859375 C 5.347656 -6.816406 5.335938 -6.722656 5.328125 -6.578125 C 5.328125 -6.441406 5.328125 -6.25 5.328125 -6 L 5.328125 0 L 0.828125 0 L 0.828125 -5.515625 C 0.828125 -8.429688 1.722656 -10.316406 3.515625 -11.171875 C 1.796875 -14.554688 0.835938 -16.972656 0.640625 -18.421875 L 5.328125 -18.421875 C 5.554688 -17.390625 5.894531 -16.296875 6.34375 -15.140625 C 6.789062 -13.992188 7.359375 -12.769531 8.046875 -11.46875 C 8.304688 -11.65625 8.4375 -12.039062 8.4375 -12.625 L 8.4375 -18.421875 L 12.984375 -18.421875 L 12.984375 -12.1875 C 12.984375 -11.25 12.695312 -10.34375 12.125 -9.46875 C 11.550781 -8.59375 10.84375 -7.925781 10 -7.46875 C 11.945312 -3.613281 12.941406 -1.125 12.984375 0 Z M 8.34375 0 "/></g></g></g><g fill="#ffcf7e" fill-opacity="1"><g transform="translate(188.860803, 33.817389)"><g><path d="M 7.65625 -17.375 C 7.65625 -16.476562 7.269531 -15.613281 6.5 -14.78125 C 5.875 -14.101562 5.15625 -13.582031 4.34375 -13.21875 L 4.34375 -21.125 L 7.65625 -21.125 Z M 3.59375 -17.375 C 3.59375 -15.726562 2.5 -14.34375 0.3125 -13.21875 L 0.3125 -21.125 L 3.59375 -21.125 Z M 3.59375 -17.375 "/></g></g></g><g fill="#ffcf7e" fill-opacity="1"><g transform="translate(196.827607, 33.817389)"><g><path d="M 10.921875 0 L 6.421875 0 L 5.625 -5.109375 C 5.300781 -5.109375 5.097656 -4.878906 5.015625 -4.421875 L 4.171875 0 L 0.15625 0 L 1.234375 -5.328125 C 1.710938 -7.734375 2.828125 -8.9375 4.578125 -8.9375 L 5.328125 -8.9375 L 5.328125 -12.859375 C 5.328125 -13.367188 5.035156 -13.625 4.453125 -13.625 L 1.25 -13.625 L 1.25 -18.421875 L 6.4375 -18.421875 C 8.71875 -18.421875 9.859375 -17.226562 9.859375 -14.84375 L 9.859375 -8.65625 C 9.859375 -8 9.875 -7.394531 9.90625 -6.84375 C 9.945312 -6.289062 10 -5.789062 10.0625 -5.34375 Z M 10.921875 0 "/></g></g></g><g fill="#ffcf7e" fill-opacity="1"><g transform="translate(208.077606, 33.817389)"><g><path d="M 11.8125 0 L 7.234375 0 L 7.234375 -12.859375 C 7.234375 -13.367188 6.972656 -13.625 6.453125 -13.625 L 0.796875 -13.625 L 0.796875 -18.421875 L 8.5625 -18.421875 C 9.507812 -18.421875 10.289062 -18.117188 10.90625 -17.515625 C 11.507812 -16.910156 11.8125 -16.125 11.8125 -15.15625 Z M 5.296875 0 L 0.8125 0 L 0.8125 -11.421875 L 5.296875 -11.421875 Z M 5.296875 0 "/></g></g></g><g fill="#ffcf7e" fill-opacity="1"><g transform="translate(220.681339, 33.817389)"><g/></g></g><g fill="#ffcf7e" fill-opacity="1"><g transform="translate(227.730082, 33.817389)"><g><path d="M 5.140625 -13.203125 L 5.84375 -13.203125 C 6.34375 -13.203125 6.59375 -13.472656 6.59375 -14.015625 L 6.59375 -18.421875 L 10.75 -18.421875 L 10.75 -13.265625 C 10.75 -11.109375 9.820312 -10.03125 7.96875 -10.03125 L 5.140625 -10.03125 L 5.140625 -5.65625 C 5.140625 -5.09375 5.375 -4.8125 5.84375 -4.8125 L 11.515625 -4.8125 C 11.972656 -4.8125 12.203125 -5.09375 12.203125 -5.65625 L 12.203125 -18.421875 L 16.5625 -18.421875 L 16.5625 -4.1875 C 16.5625 -2.914062 16.234375 -1.910156 15.578125 -1.171875 C 14.890625 -0.390625 13.921875 0 12.671875 0 L 4.6875 0 C 2.09375 0 0.796875 -1.394531 0.796875 -4.1875 L 0.796875 -18.421875 L 5.140625 -18.421875 Z M 5.140625 -13.203125 "/></g></g></g><g fill="#ffcf7e" fill-opacity="1"><g transform="translate(245.079677, 33.817389)"><g><path d="M 8.34375 0 C 8.207031 -0.726562 7.910156 -1.6875 7.453125 -2.875 C 7.003906 -4.0625 6.394531 -5.492188 5.625 -7.171875 C 5.539062 -7.078125 5.476562 -7.003906 5.4375 -6.953125 C 5.394531 -6.898438 5.367188 -6.867188 5.359375 -6.859375 C 5.347656 -6.816406 5.335938 -6.722656 5.328125 -6.578125 C 5.328125 -6.441406 5.328125 -6.25 5.328125 -6 L 5.328125 0 L 0.828125 0 L 0.828125 -5.515625 C 0.828125 -8.429688 1.722656 -10.316406 3.515625 -11.171875 C 1.796875 -14.554688 0.835938 -16.972656 0.640625 -18.421875 L 5.328125 -18.421875 C 5.554688 -17.390625 5.894531 -16.296875 6.34375 -15.140625 C 6.789062 -13.992188 7.359375 -12.769531 8.046875 -11.46875 C 8.304688 -11.65625 8.4375 -12.039062 8.4375 -12.625 L 8.4375 -18.421875 L 12.984375 -18.421875 L 12.984375 -12.1875 C 12.984375 -11.25 12.695312 -10.34375 12.125 -9.46875 C 11.550781 -8.59375 10.84375 -7.925781 10 -7.46875 C 11.945312 -3.613281 12.941406 -1.125 12.984375 0 Z M 8.34375 0 "/></g></g></g><g fill="#ffcf7e" fill-opacity="1"><g transform="translate(258.694832, 33.817389)"><g><path d="M 9.875 0 L 5.3125 0 L 5.3125 -12.859375 C 5.3125 -13.367188 5.046875 -13.625 4.515625 -13.625 L 0.484375 -13.625 L 0.484375 -18.421875 L 6.609375 -18.421875 C 7.566406 -18.421875 8.351562 -18.117188 8.96875 -17.515625 C 9.570312 -16.910156 9.875 -16.125 9.875 -15.15625 Z M 9.875 0 "/></g></g></g><g fill="#ffcf7e" fill-opacity="1"><g transform="translate(269.353533, 33.817389)"><g/></g></g><g fill="#ffcf7e" fill-opacity="1"><g transform="translate(276.402277, 33.817389)"><g><path d="M 4.84375 0 C 4.84375 1.125 4.550781 2.066406 3.96875 2.828125 C 3.332031 3.679688 2.46875 4.109375 1.375 4.109375 L 1.375 1.53125 C 1.957031 1.53125 2.25 1.019531 2.25 0 L 0.640625 0 L 0.640625 -4.65625 L 4.84375 -4.65625 Z M 4.84375 0 "/></g></g></g><g fill="#ffcf7e" fill-opacity="1"><g transform="translate(281.817214, 33.817389)"><g><path d="M 11 -6.65625 C 11 -2.21875 8.875 0 4.625 0 L 2.671875 0 L 2.671875 -4.8125 L 3.984375 -4.8125 C 4.992188 -4.8125 5.675781 -5.132812 6.03125 -5.78125 C 6.289062 -6.226562 6.421875 -7.019531 6.421875 -8.15625 L 6.421875 -12.859375 C 6.421875 -13.367188 6.164062 -13.625 5.65625 -13.625 L 0.796875 -13.625 L 0.796875 -20.71875 L 5.3125 -20.71875 L 5.3125 -18.421875 L 8.703125 -18.421875 C 10.234375 -18.421875 11 -17.679688 11 -16.203125 Z M 11 -6.65625 "/></g></g></g><g fill="#ffcf7e" fill-opacity="1"><g transform="translate(293.611819, 33.817389)"><g><path d="M 8.34375 0 C 8.207031 -0.726562 7.910156 -1.6875 7.453125 -2.875 C 7.003906 -4.0625 6.394531 -5.492188 5.625 -7.171875 C 5.539062 -7.078125 5.476562 -7.003906 5.4375 -6.953125 C 5.394531 -6.898438 5.367188 -6.867188 5.359375 -6.859375 C 5.347656 -6.816406 5.335938 -6.722656 5.328125 -6.578125 C 5.328125 -6.441406 5.328125 -6.25 5.328125 -6 L 5.328125 0 L 0.828125 0 L 0.828125 -5.515625 C 0.828125 -8.429688 1.722656 -10.316406 3.515625 -11.171875 C 1.796875 -14.554688 0.835938 -16.972656 0.640625 -18.421875 L 5.328125 -18.421875 C 5.554688 -17.390625 5.894531 -16.296875 6.34375 -15.140625 C 6.789062 -13.992188 7.359375 -12.769531 8.046875 -11.46875 C 8.304688 -11.65625 8.4375 -12.039062 8.4375 -12.625 L 8.4375 -18.421875 L 12.984375 -18.421875 L 12.984375 -12.1875 C 12.984375 -11.25 12.695312 -10.34375 12.125 -9.46875 C 11.550781 -8.59375 10.84375 -7.925781 10 -7.46875 C 11.945312 -3.613281 12.941406 -1.125 12.984375 0 Z M 8.34375 0 "/></g></g></g><g fill="#ffcf7e" fill-opacity="1"><g transform="translate(307.226951, 33.817389)"><g><path d="M 9.875 0 L 5.3125 0 L 5.3125 -12.859375 C 5.3125 -13.367188 5.046875 -13.625 4.515625 -13.625 L 0.484375 -13.625 L 0.484375 -18.421875 L 6.609375 -18.421875 C 7.566406 -18.421875 8.351562 -18.117188 8.96875 -17.515625 C 9.570312 -16.910156 9.875 -16.125 9.875 -15.15625 Z M 9.875 0 "/></g></g></g><g fill="#ffcf7e" fill-opacity="1"><g transform="translate(317.885653, 33.817389)"><g><path d="M 5.140625 -13.203125 L 5.84375 -13.203125 C 6.34375 -13.203125 6.59375 -13.472656 6.59375 -14.015625 L 6.59375 -18.421875 L 10.75 -18.421875 L 10.75 -13.265625 C 10.75 -11.109375 9.820312 -10.03125 7.96875 -10.03125 L 5.140625 -10.03125 L 5.140625 -5.65625 C 5.140625 -5.09375 5.375 -4.8125 5.84375 -4.8125 L 11.515625 -4.8125 C 11.972656 -4.8125 12.203125 -5.09375 12.203125 -5.65625 L 12.203125 -18.421875 L 16.5625 -18.421875 L 16.5625 -4.1875 C 16.5625 -2.914062 16.234375 -1.910156 15.578125 -1.171875 C 14.890625 -0.390625 13.921875 0 12.671875 0 L 4.6875 0 C 2.09375 0 0.796875 -1.394531 0.796875 -4.1875 L 0.796875 -18.421875 L 5.140625 -18.421875 Z M 5.140625 -13.203125 "/></g></g></g><g fill="#ffcf7e" fill-opacity="1"><g transform="translate(335.235248, 33.817389)"><g><path d="M 5.234375 -10.25 L 0.765625 -10.25 L 0.765625 -18.421875 L 5.234375 -18.421875 Z M 5.234375 -10.25 "/></g></g></g><g fill="#ffcf7e" fill-opacity="1"><g transform="translate(341.257043, 33.817389)"><g><path d="M 11 -6.65625 C 11 -2.21875 8.875 0 4.625 0 L 2.671875 0 L 2.671875 -4.8125 L 3.984375 -4.8125 C 4.992188 -4.8125 5.675781 -5.132812 6.03125 -5.78125 C 6.289062 -6.226562 6.421875 -7.019531 6.421875 -8.15625 L 6.421875 -12.859375 C 6.421875 -13.367188 6.164062 -13.625 5.65625 -13.625 L 0.796875 -13.625 L 0.796875 -20.71875 L 5.3125 -20.71875 L 5.3125 -18.421875 L 8.703125 -18.421875 C 10.234375 -18.421875 11 -17.679688 11 -16.203125 Z M 11 -6.65625 "/></g></g></g><g fill="#ffcf7e" fill-opacity="1"><g transform="translate(353.051647, 33.817389)"><g/></g></g><g fill="#ffcf7e" fill-opacity="1"><g transform="translate(360.100413, 33.817389)"><g><path d="M 11.8125 0 L 7.234375 0 L 7.234375 -12.859375 C 7.234375 -13.367188 6.972656 -13.625 6.453125 -13.625 L 0.796875 -13.625 L 0.796875 -18.421875 L 8.5625 -18.421875 C 9.507812 -18.421875 10.289062 -18.117188 10.90625 -17.515625 C 11.507812 -16.910156 11.8125 -16.125 11.8125 -15.15625 Z M 5.296875 0 L 0.8125 0 L 0.8125 -11.421875 L 5.296875 -11.421875 Z M 5.296875 0 "/></g></g></g><g fill="#ffcf7e" fill-opacity="1"><g transform="translate(372.704146, 33.817389)"><g><path d="M 8.9375 -2.890625 C 8.9375 -0.960938 8.019531 0 6.1875 0 L 0.640625 0 L 0.640625 -4.8125 L 3.828125 -4.8125 C 4.203125 -4.8125 4.390625 -5.039062 4.390625 -5.5 L 4.390625 -12.859375 C 4.390625 -13.367188 4.160156 -13.625 3.703125 -13.625 L 1.96875 -13.625 L 1.96875 -18.421875 L 6.109375 -18.421875 C 7.992188 -18.421875 8.9375 -17.453125 8.9375 -15.515625 Z M 8.9375 -2.890625 "/></g></g></g><g fill="#ffcf7e" fill-opacity="1"><g transform="translate(382.429261, 33.817389)"><g><path d="M 10.921875 0 L 6.421875 0 L 5.625 -5.109375 C 5.300781 -5.109375 5.097656 -4.878906 5.015625 -4.421875 L 4.171875 0 L 0.15625 0 L 1.234375 -5.328125 C 1.710938 -7.734375 2.828125 -8.9375 4.578125 -8.9375 L 5.328125 -8.9375 L 5.328125 -12.859375 C 5.328125 -13.367188 5.035156 -13.625 4.453125 -13.625 L 1.25 -13.625 L 1.25 -18.421875 L 6.4375 -18.421875 C 8.71875 -18.421875 9.859375 -17.226562 9.859375 -14.84375 L 9.859375 -8.65625 C 9.859375 -8 9.875 -7.394531 9.90625 -6.84375 C 9.945312 -6.289062 10 -5.789062 10.0625 -5.34375 Z M 10.921875 0 "/></g></g></g><g fill="#ffcf7e" fill-opacity="1"><g transform="translate(393.679271, 33.817389)"><g><path d="M 11.8125 0 L 7.234375 0 L 7.234375 -12.859375 C 7.234375 -13.367188 6.972656 -13.625 6.453125 -13.625 L 0.796875 -13.625 L 0.796875 -18.421875 L 8.5625 -18.421875 C 9.507812 -18.421875 10.289062 -18.117188 10.90625 -17.515625 C 11.507812 -16.910156 11.8125 -16.125 11.8125 -15.15625 Z M 5.296875 0 L 0.8125 0 L 0.8125 -11.421875 L 5.296875 -11.421875 Z M 5.296875 0 "/></g></g></g><g fill="#ffcf7e" fill-opacity="1"><g transform="translate(406.283004, 33.817389)"><g/></g></g><g fill="#ffcf7e" fill-opacity="1"><g transform="translate(413.33177, 33.817389)"><g><path d="M 8.34375 0 C 8.207031 -0.726562 7.910156 -1.6875 7.453125 -2.875 C 7.003906 -4.0625 6.394531 -5.492188 5.625 -7.171875 C 5.539062 -7.078125 5.476562 -7.003906 5.4375 -6.953125 C 5.394531 -6.898438 5.367188 -6.867188 5.359375 -6.859375 C 5.347656 -6.816406 5.335938 -6.722656 5.328125 -6.578125 C 5.328125 -6.441406 5.328125 -6.25 5.328125 -6 L 5.328125 0 L 0.828125 0 L 0.828125 -5.515625 C 0.828125 -8.429688 1.722656 -10.316406 3.515625 -11.171875 C 1.796875 -14.554688 0.835938 -16.972656 0.640625 -18.421875 L 5.328125 -18.421875 C 5.554688 -17.390625 5.894531 -16.296875 6.34375 -15.140625 C 6.789062 -13.992188 7.359375 -12.769531 8.046875 -11.46875 C 8.304688 -11.65625 8.4375 -12.039062 8.4375 -12.625 L 8.4375 -18.421875 L 12.984375 -18.421875 L 12.984375 -12.1875 C 12.984375 -11.25 12.695312 -10.34375 12.125 -9.46875 C 11.550781 -8.59375 10.84375 -7.925781 10 -7.46875 C 11.945312 -3.613281 12.941406 -1.125 12.984375 0 Z M 8.34375 0 "/></g></g></g><g fill="#ffcf7e" fill-opacity="1"><g transform="translate(426.946925, 33.817389)"><g><path d="M 11.3125 0 L 0.796875 0 L 0.796875 -4.8125 L 4.296875 -4.8125 C 5.328125 -4.8125 5.84375 -5.414062 5.84375 -6.625 L 5.84375 -12.15625 C 5.84375 -12.695312 5.75 -13.078125 5.5625 -13.296875 C 5.375 -13.515625 5.015625 -13.625 4.484375 -13.625 L 0.796875 -13.625 L 0.796875 -18.421875 L 6.84375 -18.421875 C 9.21875 -18.421875 10.40625 -17.015625 10.40625 -14.203125 L 10.40625 -7.90625 C 10.40625 -6.28125 9.800781 -5.25 8.59375 -4.8125 L 11.3125 -4.8125 Z M 11.3125 0 "/></g></g></g><g fill="#ffcf7e" fill-opacity="1"><g transform="translate(438.897132, 33.817389)"><g><path d="M 0.890625 0 L 0.890625 -4.8125 L 6.140625 -4.828125 L 3.203125 -10.765625 C 1.472656 -14.273438 0.488281 -16.828125 0.25 -18.421875 L 5.03125 -18.421875 C 5.664062 -15.847656 6.550781 -13.570312 7.6875 -11.59375 C 7.863281 -11.707031 7.972656 -11.921875 8.015625 -12.234375 C 8.046875 -12.429688 8.0625 -12.664062 8.0625 -12.9375 L 8.0625 -18.421875 L 12.59375 -18.421875 L 12.59375 -12.1875 C 12.59375 -11.238281 12.304688 -10.335938 11.734375 -9.484375 C 11.171875 -8.640625 10.472656 -7.992188 9.640625 -7.546875 C 11.597656 -3.648438 12.582031 -1.132812 12.59375 0 Z M 0.890625 0 "/></g></g></g><g fill="#ffcf7e" fill-opacity="1"><g transform="translate(452.278873, 33.817389)"><g><path d="M 11.3125 0 L 0.796875 0 L 0.796875 -4.8125 L 4.296875 -4.8125 C 5.328125 -4.8125 5.84375 -5.414062 5.84375 -6.625 L 5.84375 -12.15625 C 5.84375 -12.695312 5.75 -13.078125 5.5625 -13.296875 C 5.375 -13.515625 5.015625 -13.625 4.484375 -13.625 L 0.796875 -13.625 L 0.796875 -18.421875 L 6.84375 -18.421875 C 9.21875 -18.421875 10.40625 -17.015625 10.40625 -14.203125 L 10.40625 -7.90625 C 10.40625 -6.28125 9.800781 -5.25 8.59375 -4.8125 L 11.3125 -4.8125 Z M 11.3125 0 "/></g></g></g><g fill="#ffcf7e" fill-opacity="1"><g transform="translate(464.229079, 33.817389)"><g/></g></g><g fill="#ffcf7e" fill-opacity="1"><g transform="translate(471.277822, 33.817389)"><g><path d="M 5.234375 -10.25 L 0.765625 -10.25 L 0.765625 -18.421875 L 5.234375 -18.421875 Z M 5.234375 -10.25 "/></g></g></g><g fill="#ffcf7e" fill-opacity="1"><g transform="translate(477.299617, 33.817389)"><g><path d="M 11 -6.65625 C 11 -2.21875 8.875 0 4.625 0 L 2.671875 0 L 2.671875 -4.8125 L 3.984375 -4.8125 C 4.992188 -4.8125 5.675781 -5.132812 6.03125 -5.78125 C 6.289062 -6.226562 6.421875 -7.019531 6.421875 -8.15625 L 6.421875 -12.859375 C 6.421875 -13.367188 6.164062 -13.625 5.65625 -13.625 L 0.796875 -13.625 L 0.796875 -20.71875 L 5.3125 -20.71875 L 5.3125 -18.421875 L 8.703125 -18.421875 C 10.234375 -18.421875 11 -17.679688 11 -16.203125 Z M 11 -6.65625 "/></g></g></g><g fill="#ffcf7e" fill-opacity="1"><g transform="translate(489.094199, 33.817389)"><g><path d="M 11 -6.65625 C 11 -2.21875 8.875 0 4.625 0 L 2.671875 0 L 2.671875 -4.8125 L 3.984375 -4.8125 C 4.992188 -4.8125 5.675781 -5.132812 6.03125 -5.78125 C 6.289062 -6.226562 6.421875 -7.019531 6.421875 -8.15625 L 6.421875 -12.859375 C 6.421875 -13.367188 6.164062 -13.625 5.65625 -13.625 L 0.796875 -13.625 L 0.796875 -20.71875 L 5.3125 -20.71875 L 5.3125 -18.421875 L 8.703125 -18.421875 C 10.234375 -18.421875 11 -17.679688 11 -16.203125 Z M 11 -6.65625 "/></g></g></g><g fill="#ffcf7e" fill-opacity="1"><g transform="translate(500.888827, 33.817389)"><g><path d="M 10.546875 -4.546875 C 10.546875 -1.515625 9.117188 0 6.265625 0 L 0.796875 0 L 0.796875 -4.8125 L 4.609375 -4.8125 C 5.546875 -4.8125 6.015625 -5.25 6.015625 -6.125 L 6.015625 -12.296875 C 6.015625 -13.179688 5.546875 -13.625 4.609375 -13.625 L 0.796875 -13.625 L 0.796875 -18.421875 L 6.265625 -18.421875 C 9.117188 -18.421875 10.546875 -16.910156 10.546875 -13.890625 Z M 10.546875 -4.546875 "/></g></g></g><g fill="#ffcf7e" fill-opacity="1"><g transform="translate(512.232175, 33.817389)"><g><path d="M 11.8125 0 L 7.234375 0 L 7.234375 -12.859375 C 7.234375 -13.367188 6.972656 -13.625 6.453125 -13.625 L 0.796875 -13.625 L 0.796875 -18.421875 L 8.5625 -18.421875 C 9.507812 -18.421875 10.289062 -18.117188 10.90625 -17.515625 C 11.507812 -16.910156 11.8125 -16.125 11.8125 -15.15625 Z M 5.296875 0 L 0.8125 0 L 0.8125 -11.421875 L 5.296875 -11.421875 Z M 5.296875 0 "/></g></g></g><g fill="#ffcf7e" fill-opacity="1"><g transform="translate(524.835932, 33.817389)"><g/></g></g><g fill="#ffcf7e" fill-opacity="1"><g transform="translate(531.884675, 33.817389)"><g><path d="M 11.8125 0 L 7.234375 0 L 7.234375 -12.859375 C 7.234375 -13.367188 6.972656 -13.625 6.453125 -13.625 L 0.796875 -13.625 L 0.796875 -18.421875 L 8.5625 -18.421875 C 9.507812 -18.421875 10.289062 -18.117188 10.90625 -17.515625 C 11.507812 -16.910156 11.8125 -16.125 11.8125 -15.15625 Z M 5.296875 0 L 0.8125 0 L 0.8125 -11.421875 L 5.296875 -11.421875 Z M 5.296875 0 "/></g></g></g><g fill="#ffcf7e" fill-opacity="1"><g transform="translate(544.488386, 33.817389)"><g><path d="M 12.453125 -3.546875 C 12.453125 -1.179688 11.476562 0 9.53125 0 L 3.71875 0 C 2.726562 0 1.984375 -0.359375 1.484375 -1.078125 C 1.023438 -1.710938 0.796875 -2.535156 0.796875 -3.546875 L 0.796875 -18.421875 L 5.28125 -18.421875 L 5.28125 -12.625 L 6.15625 -15.765625 C 6.65625 -17.535156 7.566406 -18.421875 8.890625 -18.421875 L 9.8125 -18.421875 C 11.570312 -18.421875 12.453125 -17.460938 12.453125 -15.546875 Z M 7.984375 -13.203125 C 7.984375 -13.398438 7.941406 -13.5 7.859375 -13.5 C 7.796875 -13.5 7.742188 -13.414062 7.703125 -13.25 L 7.046875 -10.796875 L 5.28125 -10.796875 L 5.28125 -5.65625 C 5.28125 -5.09375 5.507812 -4.8125 5.96875 -4.8125 L 7.28125 -4.8125 C 7.75 -4.8125 7.984375 -5.09375 7.984375 -5.65625 Z M 7.984375 -13.203125 "/></g></g></g><g fill="#ffcf7e" fill-opacity="1"><g transform="translate(557.730097, 33.817389)"><g><path d="M 13.03125 -3.3125 C 13.03125 -1.101562 12.023438 0 10.015625 0 L 6.84375 0 L 6.84375 -4.828125 L 7.796875 -4.828125 C 8.265625 -4.828125 8.5 -5.109375 8.5 -5.671875 L 8.5 -12.6875 C 8.5 -13.25 8.359375 -13.53125 8.078125 -13.53125 C 7.796875 -13.53125 7.601562 -13.210938 7.5 -12.578125 L 5.25 0 L 0.796875 0 L 2.6875 -10.28125 L 1.8125 -10.28125 C 1.113281 -10.28125 0.765625 -10.625 0.765625 -11.3125 L 0.765625 -18.421875 L 5.28125 -18.421875 L 5.28125 -11.921875 L 6.171875 -15.484375 C 6.671875 -17.441406 7.75 -18.421875 9.40625 -18.421875 L 9.640625 -18.421875 C 11.898438 -18.421875 13.03125 -17.039062 13.03125 -14.28125 Z M 13.03125 -3.3125 "/></g></g></g><g fill="#ffcf7e" fill-opacity="1"><g transform="translate(571.547523, 33.817389)"><g><path d="M 11.8125 0 L 7.234375 0 L 7.234375 -12.859375 C 7.234375 -13.367188 6.972656 -13.625 6.453125 -13.625 L 0.796875 -13.625 L 0.796875 -18.421875 L 8.5625 -18.421875 C 9.507812 -18.421875 10.289062 -18.117188 10.90625 -17.515625 C 11.507812 -16.910156 11.8125 -16.125 11.8125 -15.15625 Z M 5.296875 0 L 0.8125 0 L 0.8125 -11.421875 L 5.296875 -11.421875 Z M 5.296875 0 "/></g></g></g><g fill="#ffcf7e" fill-opacity="1"><g transform="translate(584.151234, 33.817389)"><g/></g></g><g fill="#ffcf7e" fill-opacity="1"><g transform="translate(591.199977, 33.817389)"><g><path d="M 11.765625 2.609375 L 7.28125 2.609375 L 7.28125 -12.859375 C 7.28125 -13.367188 7.023438 -13.625 6.515625 -13.625 L 5.984375 -13.625 C 5.566406 -13.625 5.359375 -13.359375 5.359375 -12.828125 L 5.359375 -10.109375 L 0.796875 -10.109375 L 0.796875 -15.15625 C 0.796875 -17.332031 1.953125 -18.421875 4.265625 -18.421875 L 8.21875 -18.421875 C 9.195312 -18.421875 10.019531 -18.128906 10.6875 -17.546875 C 11.40625 -16.921875 11.765625 -16.125 11.765625 -15.15625 Z M 11.765625 2.609375 "/></g></g></g><g fill="#ffcf7e" fill-opacity="1"><g transform="translate(603.757042, 33.817389)"><g><path d="M 10.921875 0 L 6.421875 0 L 5.625 -5.109375 C 5.300781 -5.109375 5.097656 -4.878906 5.015625 -4.421875 L 4.171875 0 L 0.15625 0 L 1.234375 -5.328125 C 1.710938 -7.734375 2.828125 -8.9375 4.578125 -8.9375 L 5.328125 -8.9375 L 5.328125 -12.859375 C 5.328125 -13.367188 5.035156 -13.625 4.453125 -13.625 L 1.25 -13.625 L 1.25 -18.421875 L 6.4375 -18.421875 C 8.71875 -18.421875 9.859375 -17.226562 9.859375 -14.84375 L 9.859375 -8.65625 C 9.859375 -8 9.875 -7.394531 9.90625 -6.84375 C 9.945312 -6.289062 10 -5.789062 10.0625 -5.34375 Z M 10.921875 0 "/></g></g></g><g fill="#ffcf7e" fill-opacity="1"><g transform="translate(615.007052, 33.817389)"><g><path d="M 8.34375 0 C 8.207031 -0.726562 7.910156 -1.6875 7.453125 -2.875 C 7.003906 -4.0625 6.394531 -5.492188 5.625 -7.171875 C 5.539062 -7.078125 5.476562 -7.003906 5.4375 -6.953125 C 5.394531 -6.898438 5.367188 -6.867188 5.359375 -6.859375 C 5.347656 -6.816406 5.335938 -6.722656 5.328125 -6.578125 C 5.328125 -6.441406 5.328125 -6.25 5.328125 -6 L 5.328125 0 L 0.828125 0 L 0.828125 -5.515625 C 0.828125 -8.429688 1.722656 -10.316406 3.515625 -11.171875 C 1.796875 -14.554688 0.835938 -16.972656 0.640625 -18.421875 L 5.328125 -18.421875 C 5.554688 -17.390625 5.894531 -16.296875 6.34375 -15.140625 C 6.789062 -13.992188 7.359375 -12.769531 8.046875 -11.46875 C 8.304688 -11.65625 8.4375 -12.039062 8.4375 -12.625 L 8.4375 -18.421875 L 12.984375 -18.421875 L 12.984375 -12.1875 C 12.984375 -11.25 12.695312 -10.34375 12.125 -9.46875 C 11.550781 -8.59375 10.84375 -7.925781 10 -7.46875 C 11.945312 -3.613281 12.941406 -1.125 12.984375 0 Z M 8.34375 0 "/></g></g></g><g fill="#ffcf7e" fill-opacity="1"><g transform="translate(628.622207, 33.817389)"><g/></g></g><g fill="#ffcf7e" fill-opacity="1"><g transform="translate(635.67095, 33.817389)"><g><path d="M 5.140625 -13.203125 L 5.84375 -13.203125 C 6.34375 -13.203125 6.59375 -13.472656 6.59375 -14.015625 L 6.59375 -18.421875 L 10.75 -18.421875 L 10.75 -13.265625 C 10.75 -11.109375 9.820312 -10.03125 7.96875 -10.03125 L 5.140625 -10.03125 L 5.140625 -5.65625 C 5.140625 -5.09375 5.375 -4.8125 5.84375 -4.8125 L 11.515625 -4.8125 C 11.972656 -4.8125 12.203125 -5.09375 12.203125 -5.65625 L 12.203125 -18.421875 L 16.5625 -18.421875 L 16.5625 -4.1875 C 16.5625 -2.914062 16.234375 -1.910156 15.578125 -1.171875 C 14.890625 -0.390625 13.921875 0 12.671875 0 L 4.6875 0 C 2.09375 0 0.796875 -1.394531 0.796875 -4.1875 L 0.796875 -18.421875 L 5.140625 -18.421875 Z M 5.140625 -13.203125 "/></g></g></g><g fill="#ffcf7e" fill-opacity="1"><g transform="translate(653.020545, 33.817389)"><g><path d="M 8.34375 0 C 8.207031 -0.726562 7.910156 -1.6875 7.453125 -2.875 C 7.003906 -4.0625 6.394531 -5.492188 5.625 -7.171875 C 5.539062 -7.078125 5.476562 -7.003906 5.4375 -6.953125 C 5.394531 -6.898438 5.367188 -6.867188 5.359375 -6.859375 C 5.347656 -6.816406 5.335938 -6.722656 5.328125 -6.578125 C 5.328125 -6.441406 5.328125 -6.25 5.328125 -6 L 5.328125 0 L 0.828125 0 L 0.828125 -5.515625 C 0.828125 -8.429688 1.722656 -10.316406 3.515625 -11.171875 C 1.796875 -14.554688 0.835938 -16.972656 0.640625 -18.421875 L 5.328125 -18.421875 C 5.554688 -17.390625 5.894531 -16.296875 6.34375 -15.140625 C 6.789062 -13.992188 7.359375 -12.769531 8.046875 -11.46875 C 8.304688 -11.65625 8.4375 -12.039062 8.4375 -12.625 L 8.4375 -18.421875 L 12.984375 -18.421875 L 12.984375 -12.1875 C 12.984375 -11.25 12.695312 -10.34375 12.125 -9.46875 C 11.550781 -8.59375 10.84375 -7.925781 10 -7.46875 C 11.945312 -3.613281 12.941406 -1.125 12.984375 0 Z M 8.34375 0 "/></g></g></g><g fill="#ffcf7e" fill-opacity="1"><g transform="translate(666.6357, 33.817389)"><g><path d="M 9.875 0 L 5.3125 0 L 5.3125 -12.859375 C 5.3125 -13.367188 5.046875 -13.625 4.515625 -13.625 L 0.484375 -13.625 L 0.484375 -18.421875 L 6.609375 -18.421875 C 7.566406 -18.421875 8.351562 -18.117188 8.96875 -17.515625 C 9.570312 -16.910156 9.875 -16.125 9.875 -15.15625 Z M 9.875 0 "/></g></g></g><g fill="#ffcf7e" fill-opacity="1"><g transform="translate(677.294401, 33.817389)"><g/></g></g><g fill="#ffcf7e" fill-opacity="1"><g transform="translate(684.343145, 33.817389)"><g><path d="M 4.84375 0 C 4.84375 1.125 4.550781 2.066406 3.96875 2.828125 C 3.332031 3.679688 2.46875 4.109375 1.375 4.109375 L 1.375 1.53125 C 1.957031 1.53125 2.25 1.019531 2.25 0 L 0.640625 0 L 0.640625 -4.65625 L 4.84375 -4.65625 Z M 4.84375 0 "/></g></g></g><g fill="#ffcf7e" fill-opacity="1"><g transform="translate(689.758082, 33.817389)"><g><path d="M 5.296875 0 L 0.796875 0 L 0.796875 -18.421875 L 5.296875 -18.421875 Z M 5.296875 0 "/></g></g></g><g fill="#ffcf7e" fill-opacity="1"><g transform="translate(695.842118, 33.817389)"><g><path d="M 8.9375 -2.890625 C 8.9375 -0.960938 8.019531 0 6.1875 0 L 0.640625 0 L 0.640625 -4.8125 L 3.828125 -4.8125 C 4.203125 -4.8125 4.390625 -5.039062 4.390625 -5.5 L 4.390625 -12.859375 C 4.390625 -13.367188 4.160156 -13.625 3.703125 -13.625 L 1.96875 -13.625 L 1.96875 -18.421875 L 6.109375 -18.421875 C 7.992188 -18.421875 8.9375 -17.453125 8.9375 -15.515625 Z M 8.9375 -2.890625 "/></g></g></g><g fill="#ffcf7e" fill-opacity="1"><g transform="translate(705.567209, 33.817389)"><g><path d="M 10.921875 0 L 6.421875 0 L 5.625 -5.109375 C 5.300781 -5.109375 5.097656 -4.878906 5.015625 -4.421875 L 4.171875 0 L 0.15625 0 L 1.234375 -5.328125 C 1.710938 -7.734375 2.828125 -8.9375 4.578125 -8.9375 L 5.328125 -8.9375 L 5.328125 -12.859375 C 5.328125 -13.367188 5.035156 -13.625 4.453125 -13.625 L 1.25 -13.625 L 1.25 -18.421875 L 6.4375 -18.421875 C 8.71875 -18.421875 9.859375 -17.226562 9.859375 -14.84375 L 9.859375 -8.65625 C 9.859375 -8 9.875 -7.394531 9.90625 -6.84375 C 9.945312 -6.289062 10 -5.789062 10.0625 -5.34375 Z M 10.921875 0 "/></g></g></g><g fill="#ffcf7e" fill-opacity="1"><g transform="translate(716.817219, 33.817389)"><g><path d="M 12.5625 -5.53125 C 12.5625 -3.71875 12.050781 -2.273438 11.03125 -1.203125 C 9.988281 -0.0859375 8.570312 0.46875 6.78125 0.46875 C 4.945312 0.46875 3.488281 -0.0703125 2.40625 -1.15625 C 1.332031 -2.226562 0.796875 -3.6875 0.796875 -5.53125 L 0.796875 -15.484375 C 0.796875 -16.015625 0.847656 -16.46875 0.953125 -16.84375 C 1.054688 -17.21875 1.222656 -17.519531 1.453125 -17.75 C 1.679688 -17.976562 1.976562 -18.144531 2.34375 -18.25 C 2.707031 -18.363281 3.15625 -18.421875 3.6875 -18.421875 L 9.640625 -18.421875 C 11.585938 -18.421875 12.5625 -17.441406 12.5625 -15.484375 Z M 8.015625 -13.25 C 8.015625 -13.5 7.910156 -13.625 7.703125 -13.625 L 5.625 -13.625 C 5.414062 -13.625 5.3125 -13.5 5.3125 -13.25 L 5.3125 -6.015625 C 5.3125 -4.890625 5.78125 -4.328125 6.71875 -4.328125 C 7.582031 -4.328125 8.015625 -4.890625 8.015625 -6.015625 Z M 8.015625 -13.25 "/></g></g></g><g fill="#ffcf7e" fill-opacity="1"><g transform="translate(730.167817, 33.817389)"><g/></g></g><g fill="#ffcf7e" fill-opacity="1"><g transform="translate(737.216561, 33.817389)"><g><path d="M 4.84375 0 C 4.84375 1.125 4.550781 2.066406 3.96875 2.828125 C 3.332031 3.679688 2.46875 4.109375 1.375 4.109375 L 1.375 1.53125 C 1.957031 1.53125 2.25 1.019531 2.25 0 L 0.640625 0 L 0.640625 -4.65625 L 4.84375 -4.65625 Z M 4.84375 0 "/></g></g></g><g fill="#ffcf7e" fill-opacity="1"><g transform="translate(742.631498, 33.817389)"><g><path d="M 11 -6.65625 C 11 -2.21875 8.875 0 4.625 0 L 2.671875 0 L 2.671875 -4.8125 L 3.984375 -4.8125 C 4.992188 -4.8125 5.675781 -5.132812 6.03125 -5.78125 C 6.289062 -6.226562 6.421875 -7.019531 6.421875 -8.15625 L 6.421875 -12.859375 C 6.421875 -13.367188 6.164062 -13.625 5.65625 -13.625 L 0.796875 -13.625 L 0.796875 -20.71875 L 5.3125 -20.71875 L 5.3125 -18.421875 L 8.703125 -18.421875 C 10.234375 -18.421875 11 -17.679688 11 -16.203125 Z M 11 -6.65625 "/></g></g></g><g fill="#ffcf7e" fill-opacity="1"><g transform="translate(754.42608, 33.817389)"><g><path d="M 7.65625 -17.375 C 7.65625 -16.476562 7.269531 -15.613281 6.5 -14.78125 C 5.875 -14.101562 5.15625 -13.582031 4.34375 -13.21875 L 4.34375 -21.125 L 7.65625 -21.125 Z M 3.59375 -17.375 C 3.59375 -15.726562 2.5 -14.34375 0.3125 -13.21875 L 0.3125 -21.125 L 3.59375 -21.125 Z M 3.59375 -17.375 "/></g></g></g><g fill="#ffcf7e" fill-opacity="1"><g transform="translate(762.392884, 33.817389)"><g><path d="M 10.546875 -4.546875 C 10.546875 -1.515625 9.117188 0 6.265625 0 L 0.796875 0 L 0.796875 -4.8125 L 4.609375 -4.8125 C 5.546875 -4.8125 6.015625 -5.25 6.015625 -6.125 L 6.015625 -12.296875 C 6.015625 -13.179688 5.546875 -13.625 4.609375 -13.625 L 0.796875 -13.625 L 0.796875 -18.421875 L 6.265625 -18.421875 C 9.117188 -18.421875 10.546875 -16.910156 10.546875 -13.890625 Z M 10.546875 -4.546875 "/></g></g></g><g fill="#ffcf7e" fill-opacity="1"><g transform="translate(773.736233, 33.817389)"><g><path d="M 12.453125 -3.546875 C 12.453125 -1.179688 11.476562 0 9.53125 0 L 3.71875 0 C 2.726562 0 1.984375 -0.359375 1.484375 -1.078125 C 1.023438 -1.710938 0.796875 -2.535156 0.796875 -3.546875 L 0.796875 -18.421875 L 5.28125 -18.421875 L 5.28125 -12.625 L 6.15625 -15.765625 C 6.65625 -17.535156 7.566406 -18.421875 8.890625 -18.421875 L 9.8125 -18.421875 C 11.570312 -18.421875 12.453125 -17.460938 12.453125 -15.546875 Z M 7.984375 -13.203125 C 7.984375 -13.398438 7.941406 -13.5 7.859375 -13.5 C 7.796875 -13.5 7.742188 -13.414062 7.703125 -13.25 L 7.046875 -10.796875 L 5.28125 -10.796875 L 5.28125 -5.65625 C 5.28125 -5.09375 5.507812 -4.8125 5.96875 -4.8125 L 7.28125 -4.8125 C 7.75 -4.8125 7.984375 -5.09375 7.984375 -5.65625 Z M 7.984375 -13.203125 "/></g></g></g><g fill="#ffcf7e" fill-opacity="1"><g transform="translate(786.977944, 33.817389)"><g><path d="M 13.03125 -3.3125 C 13.03125 -1.101562 12.023438 0 10.015625 0 L 6.84375 0 L 6.84375 -4.828125 L 7.796875 -4.828125 C 8.265625 -4.828125 8.5 -5.109375 8.5 -5.671875 L 8.5 -12.6875 C 8.5 -13.25 8.359375 -13.53125 8.078125 -13.53125 C 7.796875 -13.53125 7.601562 -13.210938 7.5 -12.578125 L 5.25 0 L 0.796875 0 L 2.6875 -10.28125 L 1.8125 -10.28125 C 1.113281 -10.28125 0.765625 -10.625 0.765625 -11.3125 L 0.765625 -18.421875 L 5.28125 -18.421875 L 5.28125 -11.921875 L 6.171875 -15.484375 C 6.671875 -17.441406 7.75 -18.421875 9.40625 -18.421875 L 9.640625 -18.421875 C 11.898438 -18.421875 13.03125 -17.039062 13.03125 -14.28125 Z M 13.03125 -3.3125 "/></g></g></g><g fill="#ffcf7e" fill-opacity="1"><g transform="translate(800.795325, 33.817389)"><g><path d="M 9.875 0 L 5.3125 0 L 5.3125 -12.859375 C 5.3125 -13.367188 5.046875 -13.625 4.515625 -13.625 L 0.484375 -13.625 L 0.484375 -18.421875 L 6.609375 -18.421875 C 7.566406 -18.421875 8.351562 -18.117188 8.96875 -17.515625 C 9.570312 -16.910156 9.875 -16.125 9.875 -15.15625 Z M 9.875 0 "/></g></g></g><g fill="#ffcf7e" fill-opacity="1"><g transform="translate(811.454026, 33.817389)"><g><path d="M 11.8125 0 L 7.234375 0 L 7.234375 -12.859375 C 7.234375 -13.367188 6.972656 -13.625 6.453125 -13.625 L 0.796875 -13.625 L 0.796875 -18.421875 L 8.5625 -18.421875 C 9.507812 -18.421875 10.289062 -18.117188 10.90625 -17.515625 C 11.507812 -16.910156 11.8125 -16.125 11.8125 -15.15625 Z M 5.296875 0 L 0.8125 0 L 0.8125 -11.421875 L 5.296875 -11.421875 Z M 5.296875 0 "/></g></g></g><g fill="#ffcf7e" fill-opacity="1"><g transform="translate(824.057737, 33.817389)"><g/></g></g><g fill="#ffcf7e" fill-opacity="1"><g transform="translate(831.10648, 33.817389)"><g><path d="M 4.84375 0 C 4.84375 1.125 4.550781 2.066406 3.96875 2.828125 C 3.332031 3.679688 2.46875 4.109375 1.375 4.109375 L 1.375 1.53125 C 1.957031 1.53125 2.25 1.019531 2.25 0 L 0.640625 0 L 0.640625 -4.65625 L 4.84375 -4.65625 Z M 4.84375 0 "/></g></g></g><g fill="#ffcf7e" fill-opacity="1"><g transform="translate(836.521371, 33.817389)"><g><path d="M 11.8125 0 L 7.234375 0 L 7.234375 -12.859375 C 7.234375 -13.367188 6.972656 -13.625 6.453125 -13.625 L 0.796875 -13.625 L 0.796875 -18.421875 L 8.5625 -18.421875 C 9.507812 -18.421875 10.289062 -18.117188 10.90625 -17.515625 C 11.507812 -16.910156 11.8125 -16.125 11.8125 -15.15625 Z M 5.296875 0 L 0.8125 0 L 0.8125 -11.421875 L 5.296875 -11.421875 Z M 5.296875 0 "/></g></g></g><g fill="#ffcf7e" fill-opacity="1"><g transform="translate(849.125082, 33.817389)"><g><path d="M 11.78125 -3.578125 C 11.78125 -1.191406 10.625 0 8.3125 0 L 0.828125 0 L 0.828125 -4.8125 L 6.390625 -4.8125 C 7.003906 -4.8125 7.3125 -5.175781 7.3125 -5.90625 L 7.3125 -12.859375 C 7.3125 -13.367188 7.078125 -13.625 6.609375 -13.625 L 5.984375 -13.625 C 5.566406 -13.625 5.359375 -13.359375 5.359375 -12.828125 L 5.359375 -10.109375 L 0.796875 -10.109375 L 0.796875 -15.15625 C 0.796875 -17.332031 1.84375 -18.421875 3.9375 -18.421875 L 8.546875 -18.421875 C 9.515625 -18.421875 10.296875 -18.125 10.890625 -17.53125 C 11.484375 -16.914062 11.78125 -16.125 11.78125 -15.15625 Z M 11.78125 -3.578125 "/></g></g></g><g fill="#ffcf7e" fill-opacity="1"><g transform="translate(861.71329, 33.817389)"><g><path d="M 11.9375 -5.703125 C 11.9375 -3.816406 11.628906 -2.429688 11.015625 -1.546875 C 10.273438 -0.484375 9.003906 0.046875 7.203125 0.046875 C 6.878906 0.046875 6.539062 0.03125 6.1875 0 L 6.1875 -4.8125 C 6.976562 -4.8125 7.375 -5.390625 7.375 -6.546875 L 7.375 -12.859375 C 7.375 -13.367188 7.109375 -13.625 6.578125 -13.625 L 0.796875 -13.625 L 0.796875 -18.421875 L 9.640625 -18.421875 C 11.171875 -18.421875 11.9375 -17.679688 11.9375 -16.203125 Z M 5.328125 2.65625 L 0.828125 2.65625 L 0.828125 -11.59375 L 5.328125 -11.59375 Z M 5.328125 2.65625 "/></g></g></g><g fill="#ffcf7e" fill-opacity="1"><g transform="translate(874.457076, 33.817389)"><g><path d="M 12.75 0 L 8.25 0 L 8.25 -12.75 C 8.25 -13.332031 7.984375 -13.625 7.453125 -13.625 L 6.84375 -13.625 C 6.300781 -13.625 6.03125 -13.332031 6.03125 -12.75 L 6.03125 -2.203125 C 6.03125 -0.734375 5.414062 0 4.1875 0 L 0.3125 0 L 0.3125 -4.8125 L 1.09375 -4.8125 C 1.351562 -4.8125 1.484375 -4.925781 1.484375 -5.15625 L 1.484375 -14.890625 C 1.484375 -16.148438 1.722656 -17.054688 2.203125 -17.609375 C 2.691406 -18.148438 3.554688 -18.421875 4.796875 -18.421875 L 9.65625 -18.421875 C 11.71875 -18.421875 12.75 -17.242188 12.75 -14.890625 Z M 12.75 0 "/></g></g></g><g fill="#ffcf7e" fill-opacity="1"><g transform="translate(888.009945, 33.817389)"><g><path d="M 11.8125 0 L 7.234375 0 L 7.234375 -12.859375 C 7.234375 -13.367188 6.972656 -13.625 6.453125 -13.625 L 0.796875 -13.625 L 0.796875 -18.421875 L 8.5625 -18.421875 C 9.507812 -18.421875 10.289062 -18.117188 10.90625 -17.515625 C 11.507812 -16.910156 11.8125 -16.125 11.8125 -15.15625 Z M 5.296875 0 L 0.8125 0 L 0.8125 -11.421875 L 5.296875 -11.421875 Z M 5.296875 0 "/></g></g></g><g fill="#ffcf7e" fill-opacity="1"><g transform="translate(900.613656, 33.817389)"><g/></g></g><g fill="#ffcf7e" fill-opacity="1"><g transform="translate(907.662399, 33.817389)"><g><path d="M 12.75 0 L 8.25 0 L 8.25 -12.75 C 8.25 -13.332031 7.984375 -13.625 7.453125 -13.625 L 6.84375 -13.625 C 6.300781 -13.625 6.03125 -13.332031 6.03125 -12.75 L 6.03125 -2.203125 C 6.03125 -0.734375 5.414062 0 4.1875 0 L 0.3125 0 L 0.3125 -4.8125 L 1.09375 -4.8125 C 1.351562 -4.8125 1.484375 -4.925781 1.484375 -5.15625 L 1.484375 -14.890625 C 1.484375 -16.148438 1.722656 -17.054688 2.203125 -17.609375 C 2.691406 -18.148438 3.554688 -18.421875 4.796875 -18.421875 L 9.65625 -18.421875 C 11.71875 -18.421875 12.75 -17.242188 12.75 -14.890625 Z M 12.75 0 "/></g></g></g><g fill="#ffcf7e" fill-opacity="1"><g transform="translate(921.215268, 33.817389)"><g><path d="M 12.203125 -4.859375 C 12.203125 -1.617188 10.875 0 8.21875 0 L 0.484375 0 L 0.484375 -4.8125 L 1.578125 -4.8125 L 1.578125 -18.421875 L 6.0625 -18.421875 L 6.0625 -4.8125 L 6.96875 -4.8125 C 7.488281 -4.8125 7.75 -5.171875 7.75 -5.890625 L 7.75 -18.421875 L 12.203125 -18.421875 Z M 12.203125 -4.859375 "/></g></g></g><g fill="#ffcf7e" fill-opacity="1"><g transform="translate(934.208017, 33.817389)"><g><path d="M 5.140625 -13.203125 L 5.84375 -13.203125 C 6.34375 -13.203125 6.59375 -13.472656 6.59375 -14.015625 L 6.59375 -18.421875 L 10.75 -18.421875 L 10.75 -13.265625 C 10.75 -11.109375 9.820312 -10.03125 7.96875 -10.03125 L 5.140625 -10.03125 L 5.140625 -5.65625 C 5.140625 -5.09375 5.375 -4.8125 5.84375 -4.8125 L 11.515625 -4.8125 C 11.972656 -4.8125 12.203125 -5.09375 12.203125 -5.65625 L 12.203125 -18.421875 L 16.5625 -18.421875 L 16.5625 -4.1875 C 16.5625 -2.914062 16.234375 -1.910156 15.578125 -1.171875 C 14.890625 -0.390625 13.921875 0 12.671875 0 L 4.6875 0 C 2.09375 0 0.796875 -1.394531 0.796875 -4.1875 L 0.796875 -18.421875 L 5.140625 -18.421875 Z M 5.140625 -13.203125 "/></g></g></g><g fill="#ffcf7e" fill-opacity="1"><g transform="translate(951.557612, 33.817389)"><g><path d="M 11.3125 0 L 0.796875 0 L 0.796875 -4.8125 L 4.296875 -4.8125 C 5.328125 -4.8125 5.84375 -5.414062 5.84375 -6.625 L 5.84375 -12.15625 C 5.84375 -12.695312 5.75 -13.078125 5.5625 -13.296875 C 5.375 -13.515625 5.015625 -13.625 4.484375 -13.625 L 0.796875 -13.625 L 0.796875 -18.421875 L 6.84375 -18.421875 C 9.21875 -18.421875 10.40625 -17.015625 10.40625 -14.203125 L 10.40625 -7.90625 C 10.40625 -6.28125 9.800781 -5.25 8.59375 -4.8125 L 11.3125 -4.8125 Z M 11.3125 0 "/></g></g></g><g fill="#ffcf7e" fill-opacity="1"><g transform="translate(963.507818, 33.817389)"><g/></g></g><g fill="#ffcf7e" fill-opacity="1"><g transform="translate(970.556561, 33.817389)"><g><path d="M 5.296875 0 L 0.796875 0 L 0.796875 -18.421875 L 5.296875 -18.421875 Z M 5.296875 0 "/></g></g></g><g fill="#ffcf7e" fill-opacity="1"><g transform="translate(976.640551, 33.817389)"><g><path d="M 8.34375 0 C 8.207031 -0.726562 7.910156 -1.6875 7.453125 -2.875 C 7.003906 -4.0625 6.394531 -5.492188 5.625 -7.171875 C 5.539062 -7.078125 5.476562 -7.003906 5.4375 -6.953125 C 5.394531 -6.898438 5.367188 -6.867188 5.359375 -6.859375 C 5.347656 -6.816406 5.335938 -6.722656 5.328125 -6.578125 C 5.328125 -6.441406 5.328125 -6.25 5.328125 -6 L 5.328125 0 L 0.828125 0 L 0.828125 -5.515625 C 0.828125 -8.429688 1.722656 -10.316406 3.515625 -11.171875 C 1.796875 -14.554688 0.835938 -16.972656 0.640625 -18.421875 L 5.328125 -18.421875 C 5.554688 -17.390625 5.894531 -16.296875 6.34375 -15.140625 C 6.789062 -13.992188 7.359375 -12.769531 8.046875 -11.46875 C 8.304688 -11.65625 8.4375 -12.039062 8.4375 -12.625 L 8.4375 -18.421875 L 12.984375 -18.421875 L 12.984375 -12.1875 C 12.984375 -11.25 12.695312 -10.34375 12.125 -9.46875 C 11.550781 -8.59375 10.84375 -7.925781 10 -7.46875 C 11.945312 -3.613281 12.941406 -1.125 12.984375 0 Z M 8.34375 0 "/></g></g></g><g fill="#ffcf7e" fill-opacity="1"><g transform="translate(990.255706, 33.817389)"><g/></g></g><g fill="#ffcf7e" fill-opacity="1"><g transform="translate(997.30445, 33.817389)"><g><path d="M 11.765625 2.609375 L 7.28125 2.609375 L 7.28125 -12.859375 C 7.28125 -13.367188 7.023438 -13.625 6.515625 -13.625 L 5.984375 -13.625 C 5.566406 -13.625 5.359375 -13.359375 5.359375 -12.828125 L 5.359375 -10.109375 L 0.796875 -10.109375 L 0.796875 -15.15625 C 0.796875 -17.332031 1.953125 -18.421875 4.265625 -18.421875 L 8.21875 -18.421875 C 9.195312 -18.421875 10.019531 -18.128906 10.6875 -17.546875 C 11.40625 -16.921875 11.765625 -16.125 11.765625 -15.15625 Z M 11.765625 2.609375 "/></g></g></g><g fill="#ffcf7e" fill-opacity="1"><g transform="translate(1009.861468, 33.817389)"><g><path d="M 9.875 0 L 5.3125 0 L 5.3125 -12.859375 C 5.3125 -13.367188 5.046875 -13.625 4.515625 -13.625 L 0.484375 -13.625 L 0.484375 -18.421875 L 6.609375 -18.421875 C 7.566406 -18.421875 8.351562 -18.117188 8.96875 -17.515625 C 9.570312 -16.910156 9.875 -16.125 9.875 -15.15625 Z M 9.875 0 "/></g></g></g><g fill="#ffcf7e" fill-opacity="1"><g transform="translate(1020.52017, 33.817389)"><g><path d="M 5.296875 0 L 0.796875 0 L 0.796875 -18.421875 L 5.296875 -18.421875 Z M 5.296875 0 "/></g></g></g><g fill="#ffcf7e" fill-opacity="1"><g transform="translate(1026.60416, 33.817389)"><g><path d="M 12.203125 -4.859375 C 12.203125 -1.617188 10.875 0 8.21875 0 L 0.484375 0 L 0.484375 -4.8125 L 1.578125 -4.8125 L 1.578125 -18.421875 L 6.0625 -18.421875 L 6.0625 -4.8125 L 6.96875 -4.8125 C 7.488281 -4.8125 7.75 -5.171875 7.75 -5.890625 L 7.75 -18.421875 L 12.203125 -18.421875 Z M 12.203125 -4.859375 "/></g></g></g><g fill="#ffcf7e" fill-opacity="1"><g transform="translate(1039.596909, 33.817389)"><g><path d="M 11.3125 0 L 0.796875 0 L 0.796875 -4.8125 L 4.296875 -4.8125 C 5.328125 -4.8125 5.84375 -5.414062 5.84375 -6.625 L 5.84375 -12.15625 C 5.84375 -12.695312 5.75 -13.078125 5.5625 -13.296875 C 5.375 -13.515625 5.015625 -13.625 4.484375 -13.625 L 0.796875 -13.625 L 0.796875 -18.421875 L 6.84375 -18.421875 C 9.21875 -18.421875 10.40625 -17.015625 10.40625 -14.203125 L 10.40625 -7.90625 C 10.40625 -6.28125 9.800781 -5.25 8.59375 -4.8125 L 11.3125 -4.8125 Z M 11.3125 0 "/></g></g></g><g fill="#ffcf7e" fill-opacity="1"><g transform="translate(1051.547115, 33.817389)"><g/></g></g><g fill="#ffcf7e" fill-opacity="1"><g transform="translate(1058.595859, 33.817389)"><g><path d="M 10.515625 -13.625 C 9.503906 -13.625 9 -13.125 9 -12.125 L 9 0 L 4.421875 0 L 4.421875 -10.84375 C 4.421875 -12.269531 5.019531 -13.195312 6.21875 -13.625 L 0.484375 -13.625 L 0.484375 -18.421875 L 10.515625 -18.421875 Z M 10.515625 -13.625 "/></g></g></g><g fill="#ffcf7e" fill-opacity="1"><g transform="translate(1069.908064, 33.817389)"><g><path d="M 12.015625 0 L 7.5 0 L 7.5 -12.75 C 7.5 -13.332031 7.234375 -13.625 6.703125 -13.625 L 6.15625 -13.625 C 5.632812 -13.625 5.375 -13.332031 5.375 -12.75 L 5.375 0 L 0.796875 0 L 0.796875 -15.203125 C 0.796875 -16.359375 0.988281 -17.164062 1.375 -17.625 C 1.800781 -18.15625 2.578125 -18.421875 3.703125 -18.421875 L 8.90625 -18.421875 C 10.976562 -18.421875 12.015625 -17.347656 12.015625 -15.203125 Z M 12.015625 0 "/></g></g></g><g fill="#ffcf7e" fill-opacity="1"><g transform="translate(1082.714045, 33.817389)"><g><path d="M 5.296875 0 L 0.796875 0 L 0.796875 -18.421875 L 5.296875 -18.421875 Z M 5.296875 0 "/></g></g></g><g fill="#ffcf7e" fill-opacity="1"><g transform="translate(1088.798036, 33.817389)"><g><path d="M 5.234375 -10.25 L 0.765625 -10.25 L 0.765625 -18.421875 L 5.234375 -18.421875 Z M 5.234375 -10.25 "/></g></g></g><g fill="#ffcf7e" fill-opacity="1"><g transform="translate(1094.819831, 33.817389)"><g><path d="M 13.03125 -3.3125 C 13.03125 -1.101562 12.023438 0 10.015625 0 L 6.84375 0 L 6.84375 -4.828125 L 7.796875 -4.828125 C 8.265625 -4.828125 8.5 -5.109375 8.5 -5.671875 L 8.5 -12.6875 C 8.5 -13.25 8.359375 -13.53125 8.078125 -13.53125 C 7.796875 -13.53125 7.601562 -13.210938 7.5 -12.578125 L 5.25 0 L 0.796875 0 L 2.6875 -10.28125 L 1.8125 -10.28125 C 1.113281 -10.28125 0.765625 -10.625 0.765625 -11.3125 L 0.765625 -18.421875 L 5.28125 -18.421875 L 5.28125 -11.921875 L 6.171875 -15.484375 C 6.671875 -17.441406 7.75 -18.421875 9.40625 -18.421875 L 9.640625 -18.421875 C 11.898438 -18.421875 13.03125 -17.039062 13.03125 -14.28125 Z M 13.03125 -3.3125 "/></g></g></g><g fill="#ffcf7e" fill-opacity="1"><g transform="translate(1108.637256, 33.817389)"><g/></g></g><g fill="#ffcf7e" fill-opacity="1"><g transform="translate(1115.686, 33.817389)"><g><path d="M 11.3125 0 L 0.796875 0 L 0.796875 -4.8125 L 4.296875 -4.8125 C 5.328125 -4.8125 5.84375 -5.414062 5.84375 -6.625 L 5.84375 -12.15625 C 5.84375 -12.695312 5.75 -13.078125 5.5625 -13.296875 C 5.375 -13.515625 5.015625 -13.625 4.484375 -13.625 L 0.796875 -13.625 L 0.796875 -18.421875 L 6.84375 -18.421875 C 9.21875 -18.421875 10.40625 -17.015625 10.40625 -14.203125 L 10.40625 -7.90625 C 10.40625 -6.28125 9.800781 -5.25 8.59375 -4.8125 L 11.3125 -4.8125 Z M 11.3125 0 "/></g></g></g><g fill="#ffcf7e" fill-opacity="1"><g transform="translate(1127.636206, 33.817389)"><g><path d="M 0.890625 0 L 0.890625 -4.8125 L 6.140625 -4.828125 L 3.203125 -10.765625 C 1.472656 -14.273438 0.488281 -16.828125 0.25 -18.421875 L 5.03125 -18.421875 C 5.664062 -15.847656 6.550781 -13.570312 7.6875 -11.59375 C 7.863281 -11.707031 7.972656 -11.921875 8.015625 -12.234375 C 8.046875 -12.429688 8.0625 -12.664062 8.0625 -12.9375 L 8.0625 -18.421875 L 12.59375 -18.421875 L 12.59375 -12.1875 C 12.59375 -11.238281 12.304688 -10.335938 11.734375 -9.484375 C 11.171875 -8.640625 10.472656 -7.992188 9.640625 -7.546875 C 11.597656 -3.648438 12.582031 -1.132812 12.59375 0 Z M 0.890625 0 "/></g></g></g><g fill="#ffcf7e" fill-opacity="1"><g transform="translate(1141.017993, 33.817389)"><g><path d="M 13.03125 -3.3125 C 13.03125 -1.101562 12.023438 0 10.015625 0 L 6.84375 0 L 6.84375 -4.828125 L 7.796875 -4.828125 C 8.265625 -4.828125 8.5 -5.109375 8.5 -5.671875 L 8.5 -12.6875 C 8.5 -13.25 8.359375 -13.53125 8.078125 -13.53125 C 7.796875 -13.53125 7.601562 -13.210938 7.5 -12.578125 L 5.25 0 L 0.796875 0 L 2.6875 -10.28125 L 1.8125 -10.28125 C 1.113281 -10.28125 0.765625 -10.625 0.765625 -11.3125 L 0.765625 -18.421875 L 5.28125 -18.421875 L 5.28125 -11.921875 L 6.171875 -15.484375 C 6.671875 -17.441406 7.75 -18.421875 9.40625 -18.421875 L 9.640625 -18.421875 C 11.898438 -18.421875 13.03125 -17.039062 13.03125 -14.28125 Z M 13.03125 -3.3125 "/></g></g></g><g fill="#ffcf7e" fill-opacity="1"><g transform="translate(1154.835419, 33.817389)"><g><path d="M 11.3125 0 L 0.796875 0 L 0.796875 -4.8125 L 4.296875 -4.8125 C 5.328125 -4.8125 5.84375 -5.414062 5.84375 -6.625 L 5.84375 -12.15625 C 5.84375 -12.695312 5.75 -13.078125 5.5625 -13.296875 C 5.375 -13.515625 5.015625 -13.625 4.484375 -13.625 L 0.796875 -13.625 L 0.796875 -18.421875 L 6.84375 -18.421875 C 9.21875 -18.421875 10.40625 -17.015625 10.40625 -14.203125 L 10.40625 -7.90625 C 10.40625 -6.28125 9.800781 -5.25 8.59375 -4.8125 L 11.3125 -4.8125 Z M 11.3125 0 "/></g></g></g><g fill="#ffcf7e" fill-opacity="1"><g transform="translate(1166.785626, 33.817389)"><g><path d="M 0.3125 -16.96875 C 0.3125 -17.851562 0.695312 -18.710938 1.46875 -19.546875 C 2.09375 -20.234375 2.8125 -20.757812 3.625 -21.125 L 3.625 -13.21875 L 0.3125 -13.21875 Z M 4.375 -16.96875 C 4.375 -18.601562 5.46875 -19.988281 7.65625 -21.125 L 7.65625 -13.21875 L 4.375 -13.21875 Z M 4.375 -16.96875 "/></g></g></g><g fill="#ffcf7e" fill-opacity="1"><g transform="translate(193.513817, 77.894536)"><g><path d="M 7.65625 -17.375 C 7.65625 -16.476562 7.269531 -15.613281 6.5 -14.78125 C 5.875 -14.101562 5.15625 -13.582031 4.34375 -13.21875 L 4.34375 -21.125 L 7.65625 -21.125 Z M 3.59375 -17.375 C 3.59375 -15.726562 2.5 -14.34375 0.3125 -13.21875 L 0.3125 -21.125 L 3.59375 -21.125 Z M 3.59375 -17.375 "/></g></g></g><g fill="#ffcf7e" fill-opacity="1"><g transform="translate(201.480622, 77.894536)"><g><path d="M 11.8125 0 L 7.234375 0 L 7.234375 -12.859375 C 7.234375 -13.367188 6.972656 -13.625 6.453125 -13.625 L 0.796875 -13.625 L 0.796875 -18.421875 L 8.5625 -18.421875 C 9.507812 -18.421875 10.289062 -18.117188 10.90625 -17.515625 C 11.507812 -16.910156 11.8125 -16.125 11.8125 -15.15625 Z M 5.296875 0 L 0.8125 0 L 0.8125 -11.421875 L 5.296875 -11.421875 Z M 5.296875 0 "/></g></g></g><g fill="#ffcf7e" fill-opacity="1"><g transform="translate(214.084355, 77.894536)"><g><path d="M 8.9375 -2.890625 C 8.9375 -0.960938 8.019531 0 6.1875 0 L 0.640625 0 L 0.640625 -4.8125 L 3.828125 -4.8125 C 4.203125 -4.8125 4.390625 -5.039062 4.390625 -5.5 L 4.390625 -12.859375 C 4.390625 -13.367188 4.160156 -13.625 3.703125 -13.625 L 1.96875 -13.625 L 1.96875 -18.421875 L 6.109375 -18.421875 C 7.992188 -18.421875 8.9375 -17.453125 8.9375 -15.515625 Z M 8.9375 -2.890625 "/></g></g></g><g fill="#ffcf7e" fill-opacity="1"><g transform="translate(223.809458, 77.894536)"><g><path d="M 13.03125 -3.3125 C 13.03125 -1.101562 12.023438 0 10.015625 0 L 6.84375 0 L 6.84375 -4.828125 L 7.796875 -4.828125 C 8.265625 -4.828125 8.5 -5.109375 8.5 -5.671875 L 8.5 -12.6875 C 8.5 -13.25 8.359375 -13.53125 8.078125 -13.53125 C 7.796875 -13.53125 7.601562 -13.210938 7.5 -12.578125 L 5.25 0 L 0.796875 0 L 2.6875 -10.28125 L 1.8125 -10.28125 C 1.113281 -10.28125 0.765625 -10.625 0.765625 -11.3125 L 0.765625 -18.421875 L 5.28125 -18.421875 L 5.28125 -11.921875 L 6.171875 -15.484375 C 6.671875 -17.441406 7.75 -18.421875 9.40625 -18.421875 L 9.640625 -18.421875 C 11.898438 -18.421875 13.03125 -17.039062 13.03125 -14.28125 Z M 13.03125 -3.3125 "/></g></g></g><g fill="#ffcf7e" fill-opacity="1"><g transform="translate(237.626883, 77.894536)"><g><path d="M 13.03125 -3.3125 C 13.03125 -1.101562 12.023438 0 10.015625 0 L 6.84375 0 L 6.84375 -4.828125 L 7.796875 -4.828125 C 8.265625 -4.828125 8.5 -5.109375 8.5 -5.671875 L 8.5 -12.6875 C 8.5 -13.25 8.359375 -13.53125 8.078125 -13.53125 C 7.796875 -13.53125 7.601562 -13.210938 7.5 -12.578125 L 5.25 0 L 0.796875 0 L 2.6875 -10.28125 L 1.8125 -10.28125 C 1.113281 -10.28125 0.765625 -10.625 0.765625 -11.3125 L 0.765625 -18.421875 L 5.28125 -18.421875 L 5.28125 -11.921875 L 6.171875 -15.484375 C 6.671875 -17.441406 7.75 -18.421875 9.40625 -18.421875 L 9.640625 -18.421875 C 11.898438 -18.421875 13.03125 -17.039062 13.03125 -14.28125 Z M 13.03125 -3.3125 "/></g></g></g><g fill="#ffcf7e" fill-opacity="1"><g transform="translate(251.444309, 77.894536)"><g/></g></g><g fill="#ffcf7e" fill-opacity="1"><g transform="translate(258.493064, 77.894536)"><g><path d="M 8.34375 0 C 8.207031 -0.726562 7.910156 -1.6875 7.453125 -2.875 C 7.003906 -4.0625 6.394531 -5.492188 5.625 -7.171875 C 5.539062 -7.078125 5.476562 -7.003906 5.4375 -6.953125 C 5.394531 -6.898438 5.367188 -6.867188 5.359375 -6.859375 C 5.347656 -6.816406 5.335938 -6.722656 5.328125 -6.578125 C 5.328125 -6.441406 5.328125 -6.25 5.328125 -6 L 5.328125 0 L 0.828125 0 L 0.828125 -5.515625 C 0.828125 -8.429688 1.722656 -10.316406 3.515625 -11.171875 C 1.796875 -14.554688 0.835938 -16.972656 0.640625 -18.421875 L 5.328125 -18.421875 C 5.554688 -17.390625 5.894531 -16.296875 6.34375 -15.140625 C 6.789062 -13.992188 7.359375 -12.769531 8.046875 -11.46875 C 8.304688 -11.65625 8.4375 -12.039062 8.4375 -12.625 L 8.4375 -18.421875 L 12.984375 -18.421875 L 12.984375 -12.1875 C 12.984375 -11.25 12.695312 -10.34375 12.125 -9.46875 C 11.550781 -8.59375 10.84375 -7.925781 10 -7.46875 C 11.945312 -3.613281 12.941406 -1.125 12.984375 0 Z M 8.34375 0 "/></g></g></g><g fill="#ffcf7e" fill-opacity="1"><g transform="translate(272.108207, 77.894536)"><g><path d="M 5.296875 0 L 0.796875 0 L 0.796875 -18.421875 L 5.296875 -18.421875 Z M 5.296875 0 "/></g></g></g><g fill="#ffcf7e" fill-opacity="1"><g transform="translate(278.192232, 77.894536)"><g><path d="M 11.8125 0 L 7.234375 0 L 7.234375 -12.859375 C 7.234375 -13.367188 6.972656 -13.625 6.453125 -13.625 L 0.796875 -13.625 L 0.796875 -18.421875 L 8.5625 -18.421875 C 9.507812 -18.421875 10.289062 -18.117188 10.90625 -17.515625 C 11.507812 -16.910156 11.8125 -16.125 11.8125 -15.15625 Z M 5.296875 0 L 0.8125 0 L 0.8125 -11.421875 L 5.296875 -11.421875 Z M 5.296875 0 "/></g></g></g><g fill="#ffcf7e" fill-opacity="1"><g transform="translate(290.795965, 77.894536)"><g><path d="M 5.140625 -13.203125 L 5.84375 -13.203125 C 6.34375 -13.203125 6.59375 -13.472656 6.59375 -14.015625 L 6.59375 -18.421875 L 10.75 -18.421875 L 10.75 -13.265625 C 10.75 -11.109375 9.820312 -10.03125 7.96875 -10.03125 L 5.140625 -10.03125 L 5.140625 -5.65625 C 5.140625 -5.09375 5.375 -4.8125 5.84375 -4.8125 L 11.515625 -4.8125 C 11.972656 -4.8125 12.203125 -5.09375 12.203125 -5.65625 L 12.203125 -18.421875 L 16.5625 -18.421875 L 16.5625 -4.1875 C 16.5625 -2.914062 16.234375 -1.910156 15.578125 -1.171875 C 14.890625 -0.390625 13.921875 0 12.671875 0 L 4.6875 0 C 2.09375 0 0.796875 -1.394531 0.796875 -4.1875 L 0.796875 -18.421875 L 5.140625 -18.421875 Z M 5.140625 -13.203125 "/></g></g></g><g fill="#ffcf7e" fill-opacity="1"><g transform="translate(308.145548, 77.894536)"><g/></g></g><g fill="#ffcf7e" fill-opacity="1"><g transform="translate(315.194303, 77.894536)"><g><path d="M 11.3125 0 L 0.796875 0 L 0.796875 -4.8125 L 4.296875 -4.8125 C 5.328125 -4.8125 5.84375 -5.414062 5.84375 -6.625 L 5.84375 -12.15625 C 5.84375 -12.695312 5.75 -13.078125 5.5625 -13.296875 C 5.375 -13.515625 5.015625 -13.625 4.484375 -13.625 L 0.796875 -13.625 L 0.796875 -18.421875 L 6.84375 -18.421875 C 9.21875 -18.421875 10.40625 -17.015625 10.40625 -14.203125 L 10.40625 -7.90625 C 10.40625 -6.28125 9.800781 -5.25 8.59375 -4.8125 L 11.3125 -4.8125 Z M 11.3125 0 "/></g></g></g><g fill="#ffcf7e" fill-opacity="1"><g transform="translate(327.144509, 77.894536)"><g><path d="M 12.015625 0 L 7.5 0 L 7.5 -12.75 C 7.5 -13.332031 7.234375 -13.625 6.703125 -13.625 L 6.15625 -13.625 C 5.632812 -13.625 5.375 -13.332031 5.375 -12.75 L 5.375 0 L 0.796875 0 L 0.796875 -15.203125 C 0.796875 -16.359375 0.988281 -17.164062 1.375 -17.625 C 1.800781 -18.15625 2.578125 -18.421875 3.703125 -18.421875 L 8.90625 -18.421875 C 10.976562 -18.421875 12.015625 -17.347656 12.015625 -15.203125 Z M 12.015625 0 "/></g></g></g><g fill="#ffcf7e" fill-opacity="1"><g transform="translate(339.950524, 77.894536)"><g><path d="M 9.875 0 L 5.3125 0 L 5.3125 -12.859375 C 5.3125 -13.367188 5.046875 -13.625 4.515625 -13.625 L 0.484375 -13.625 L 0.484375 -18.421875 L 6.609375 -18.421875 C 7.566406 -18.421875 8.351562 -18.117188 8.96875 -17.515625 C 9.570312 -16.910156 9.875 -16.125 9.875 -15.15625 Z M 9.875 0 "/></g></g></g><g fill="#ffcf7e" fill-opacity="1"><g transform="translate(350.609237, 77.894536)"><g><path d="M 13.03125 -3.3125 C 13.03125 -1.101562 12.023438 0 10.015625 0 L 6.84375 0 L 6.84375 -4.828125 L 7.796875 -4.828125 C 8.265625 -4.828125 8.5 -5.109375 8.5 -5.671875 L 8.5 -12.6875 C 8.5 -13.25 8.359375 -13.53125 8.078125 -13.53125 C 7.796875 -13.53125 7.601562 -13.210938 7.5 -12.578125 L 5.25 0 L 0.796875 0 L 2.6875 -10.28125 L 1.8125 -10.28125 C 1.113281 -10.28125 0.765625 -10.625 0.765625 -11.3125 L 0.765625 -18.421875 L 5.28125 -18.421875 L 5.28125 -11.921875 L 6.171875 -15.484375 C 6.671875 -17.441406 7.75 -18.421875 9.40625 -18.421875 L 9.640625 -18.421875 C 11.898438 -18.421875 13.03125 -17.039062 13.03125 -14.28125 Z M 13.03125 -3.3125 "/></g></g></g><g fill="#ffcf7e" fill-opacity="1"><g transform="translate(364.426663, 77.894536)"><g><path d="M 11.8125 0 L 7.234375 0 L 7.234375 -12.859375 C 7.234375 -13.367188 6.972656 -13.625 6.453125 -13.625 L 0.796875 -13.625 L 0.796875 -18.421875 L 8.5625 -18.421875 C 9.507812 -18.421875 10.289062 -18.117188 10.90625 -17.515625 C 11.507812 -16.910156 11.8125 -16.125 11.8125 -15.15625 Z M 5.296875 0 L 0.8125 0 L 0.8125 -11.421875 L 5.296875 -11.421875 Z M 5.296875 0 "/></g></g></g><g fill="#ffcf7e" fill-opacity="1"><g transform="translate(377.030396, 77.894536)"><g/></g></g><g fill="#ffcf7e" fill-opacity="1"><g transform="translate(384.07915, 77.894536)"><g><path d="M 5.234375 -10.25 L 0.765625 -10.25 L 0.765625 -18.421875 L 5.234375 -18.421875 Z M 5.234375 -10.25 "/></g></g></g><g fill="#ffcf7e" fill-opacity="1"><g transform="translate(390.100934, 77.894536)"><g><path d="M 11.3125 0 L 0.796875 0 L 0.796875 -4.8125 L 4.296875 -4.8125 C 5.328125 -4.8125 5.84375 -5.414062 5.84375 -6.625 L 5.84375 -12.15625 C 5.84375 -12.695312 5.75 -13.078125 5.5625 -13.296875 C 5.375 -13.515625 5.015625 -13.625 4.484375 -13.625 L 0.796875 -13.625 L 0.796875 -18.421875 L 6.84375 -18.421875 C 9.21875 -18.421875 10.40625 -17.015625 10.40625 -14.203125 L 10.40625 -7.90625 C 10.40625 -6.28125 9.800781 -5.25 8.59375 -4.8125 L 11.3125 -4.8125 Z M 11.3125 0 "/></g></g></g><g fill="#ffcf7e" fill-opacity="1"><g transform="translate(402.05114, 77.894536)"><g><path d="M 10.921875 0 L 6.421875 0 L 5.625 -5.109375 C 5.300781 -5.109375 5.097656 -4.878906 5.015625 -4.421875 L 4.171875 0 L 0.15625 0 L 1.234375 -5.328125 C 1.710938 -7.734375 2.828125 -8.9375 4.578125 -8.9375 L 5.328125 -8.9375 L 5.328125 -12.859375 C 5.328125 -13.367188 5.035156 -13.625 4.453125 -13.625 L 1.25 -13.625 L 1.25 -18.421875 L 6.4375 -18.421875 C 8.71875 -18.421875 9.859375 -17.226562 9.859375 -14.84375 L 9.859375 -8.65625 C 9.859375 -8 9.875 -7.394531 9.90625 -6.84375 C 9.945312 -6.289062 10 -5.789062 10.0625 -5.34375 Z M 10.921875 0 "/></g></g></g><g fill="#ffcf7e" fill-opacity="1"><g transform="translate(413.301128, 77.894536)"><g><path d="M 11 -6.65625 C 11 -2.21875 8.875 0 4.625 0 L 2.671875 0 L 2.671875 -4.8125 L 3.984375 -4.8125 C 4.992188 -4.8125 5.675781 -5.132812 6.03125 -5.78125 C 6.289062 -6.226562 6.421875 -7.019531 6.421875 -8.15625 L 6.421875 -12.859375 C 6.421875 -13.367188 6.164062 -13.625 5.65625 -13.625 L 0.796875 -13.625 L 0.796875 -20.71875 L 5.3125 -20.71875 L 5.3125 -18.421875 L 8.703125 -18.421875 C 10.234375 -18.421875 11 -17.679688 11 -16.203125 Z M 11 -6.65625 "/></g></g></g><g fill="#ffcf7e" fill-opacity="1"><g transform="translate(425.095733, 77.894536)"><g/></g></g><g fill="#ffcf7e" fill-opacity="1"><g transform="translate(432.144499, 77.894536)"><g><path d="M 4.84375 0 C 4.84375 1.125 4.550781 2.066406 3.96875 2.828125 C 3.332031 3.679688 2.46875 4.109375 1.375 4.109375 L 1.375 1.53125 C 1.957031 1.53125 2.25 1.019531 2.25 0 L 0.640625 0 L 0.640625 -4.65625 L 4.84375 -4.65625 Z M 4.84375 0 "/></g></g></g><g fill="#ffcf7e" fill-opacity="1"><g transform="translate(437.559436, 77.894536)"><g><path d="M 10.515625 -13.625 C 9.503906 -13.625 9 -13.125 9 -12.125 L 9 0 L 4.421875 0 L 4.421875 -10.84375 C 4.421875 -12.269531 5.019531 -13.195312 6.21875 -13.625 L 0.484375 -13.625 L 0.484375 -18.421875 L 10.515625 -18.421875 Z M 10.515625 -13.625 "/></g></g></g><g fill="#ffcf7e" fill-opacity="1"><g transform="translate(448.871687, 77.894536)"><g><path d="M 5.296875 0 L 0.796875 0 L 0.796875 -18.421875 L 5.296875 -18.421875 Z M 5.296875 0 "/></g></g></g><g fill="#ffcf7e" fill-opacity="1"><g transform="translate(454.955723, 77.894536)"><g><path d="M 11.9375 -5.703125 C 11.9375 -3.816406 11.628906 -2.429688 11.015625 -1.546875 C 10.273438 -0.484375 9.003906 0.046875 7.203125 0.046875 C 6.878906 0.046875 6.539062 0.03125 6.1875 0 L 6.1875 -4.8125 C 6.976562 -4.8125 7.375 -5.390625 7.375 -6.546875 L 7.375 -12.859375 C 7.375 -13.367188 7.109375 -13.625 6.578125 -13.625 L 0.796875 -13.625 L 0.796875 -18.421875 L 9.640625 -18.421875 C 11.171875 -18.421875 11.9375 -17.679688 11.9375 -16.203125 Z M 5.328125 2.65625 L 0.828125 2.65625 L 0.828125 -11.59375 L 5.328125 -11.59375 Z M 5.328125 2.65625 "/></g></g></g><g fill="#ffcf7e" fill-opacity="1"><g transform="translate(467.699509, 77.894536)"><g><path d="M 5.234375 -10.25 L 0.765625 -10.25 L 0.765625 -18.421875 L 5.234375 -18.421875 Z M 5.234375 -10.25 "/></g></g></g><g fill="#ffcf7e" fill-opacity="1"><g transform="translate(473.721304, 77.894536)"><g><path d="M 11.78125 -3.578125 C 11.78125 -1.191406 10.625 0 8.3125 0 L 0.828125 0 L 0.828125 -4.8125 L 6.390625 -4.8125 C 7.003906 -4.8125 7.3125 -5.175781 7.3125 -5.90625 L 7.3125 -12.859375 C 7.3125 -13.367188 7.078125 -13.625 6.609375 -13.625 L 5.984375 -13.625 C 5.566406 -13.625 5.359375 -13.359375 5.359375 -12.828125 L 5.359375 -10.109375 L 0.796875 -10.109375 L 0.796875 -15.15625 C 0.796875 -17.332031 1.84375 -18.421875 3.9375 -18.421875 L 8.546875 -18.421875 C 9.515625 -18.421875 10.296875 -18.125 10.890625 -17.53125 C 11.484375 -16.914062 11.78125 -16.125 11.78125 -15.15625 Z M 11.78125 -3.578125 "/></g></g></g><g fill="#ffcf7e" fill-opacity="1"><g transform="translate(486.309466, 77.894536)"><g/></g></g><g fill="#ffcf7e" fill-opacity="1"><g transform="translate(493.358209, 77.894536)"><g><path d="M 11.765625 2.609375 L 7.28125 2.609375 L 7.28125 -12.859375 C 7.28125 -13.367188 7.023438 -13.625 6.515625 -13.625 L 5.984375 -13.625 C 5.566406 -13.625 5.359375 -13.359375 5.359375 -12.828125 L 5.359375 -10.109375 L 0.796875 -10.109375 L 0.796875 -15.15625 C 0.796875 -17.332031 1.953125 -18.421875 4.265625 -18.421875 L 8.21875 -18.421875 C 9.195312 -18.421875 10.019531 -18.128906 10.6875 -17.546875 C 11.40625 -16.921875 11.765625 -16.125 11.765625 -15.15625 Z M 11.765625 2.609375 "/></g></g></g><g fill="#ffcf7e" fill-opacity="1"><g transform="translate(505.915274, 77.894536)"><g><path d="M 5.296875 0 L 0.796875 0 L 0.796875 -18.421875 L 5.296875 -18.421875 Z M 5.296875 0 "/></g></g></g><g fill="#ffcf7e" fill-opacity="1"><g transform="translate(511.999309, 77.894536)"><g><path d="M 11 -6.65625 C 11 -2.21875 8.875 0 4.625 0 L 2.671875 0 L 2.671875 -4.8125 L 3.984375 -4.8125 C 4.992188 -4.8125 5.675781 -5.132812 6.03125 -5.78125 C 6.289062 -6.226562 6.421875 -7.019531 6.421875 -8.15625 L 6.421875 -12.859375 C 6.421875 -13.367188 6.164062 -13.625 5.65625 -13.625 L 0.796875 -13.625 L 0.796875 -20.71875 L 5.3125 -20.71875 L 5.3125 -18.421875 L 8.703125 -18.421875 C 10.234375 -18.421875 11 -17.679688 11 -16.203125 Z M 11 -6.65625 "/></g></g></g><g fill="#ffcf7e" fill-opacity="1"><g transform="translate(523.793914, 77.894536)"><g><path d="M 8.34375 0 C 8.207031 -0.726562 7.910156 -1.6875 7.453125 -2.875 C 7.003906 -4.0625 6.394531 -5.492188 5.625 -7.171875 C 5.539062 -7.078125 5.476562 -7.003906 5.4375 -6.953125 C 5.394531 -6.898438 5.367188 -6.867188 5.359375 -6.859375 C 5.347656 -6.816406 5.335938 -6.722656 5.328125 -6.578125 C 5.328125 -6.441406 5.328125 -6.25 5.328125 -6 L 5.328125 0 L 0.828125 0 L 0.828125 -5.515625 C 0.828125 -8.429688 1.722656 -10.316406 3.515625 -11.171875 C 1.796875 -14.554688 0.835938 -16.972656 0.640625 -18.421875 L 5.328125 -18.421875 C 5.554688 -17.390625 5.894531 -16.296875 6.34375 -15.140625 C 6.789062 -13.992188 7.359375 -12.769531 8.046875 -11.46875 C 8.304688 -11.65625 8.4375 -12.039062 8.4375 -12.625 L 8.4375 -18.421875 L 12.984375 -18.421875 L 12.984375 -12.1875 C 12.984375 -11.25 12.695312 -10.34375 12.125 -9.46875 C 11.550781 -8.59375 10.84375 -7.925781 10 -7.46875 C 11.945312 -3.613281 12.941406 -1.125 12.984375 0 Z M 8.34375 0 "/></g></g></g><g fill="#ffcf7e" fill-opacity="1"><g transform="translate(537.409047, 77.894536)"><g><path d="M 10.546875 -4.546875 C 10.546875 -1.515625 9.117188 0 6.265625 0 L 0.796875 0 L 0.796875 -4.8125 L 4.609375 -4.8125 C 5.546875 -4.8125 6.015625 -5.25 6.015625 -6.125 L 6.015625 -12.296875 C 6.015625 -13.179688 5.546875 -13.625 4.609375 -13.625 L 0.796875 -13.625 L 0.796875 -18.421875 L 6.265625 -18.421875 C 9.117188 -18.421875 10.546875 -16.910156 10.546875 -13.890625 Z M 10.546875 -4.546875 "/></g></g></g><g fill="#ffcf7e" fill-opacity="1"><g transform="translate(548.752395, 77.894536)"><g/></g></g><g fill="#ffcf7e" fill-opacity="1"><g transform="translate(555.801138, 77.894536)"><g><path d="M 5.140625 -13.203125 L 5.84375 -13.203125 C 6.34375 -13.203125 6.59375 -13.472656 6.59375 -14.015625 L 6.59375 -18.421875 L 10.75 -18.421875 L 10.75 -13.265625 C 10.75 -11.109375 9.820312 -10.03125 7.96875 -10.03125 L 5.140625 -10.03125 L 5.140625 -5.65625 C 5.140625 -5.09375 5.375 -4.8125 5.84375 -4.8125 L 11.515625 -4.8125 C 11.972656 -4.8125 12.203125 -5.09375 12.203125 -5.65625 L 12.203125 -18.421875 L 16.5625 -18.421875 L 16.5625 -4.1875 C 16.5625 -2.914062 16.234375 -1.910156 15.578125 -1.171875 C 14.890625 -0.390625 13.921875 0 12.671875 0 L 4.6875 0 C 2.09375 0 0.796875 -1.394531 0.796875 -4.1875 L 0.796875 -18.421875 L 5.140625 -18.421875 Z M 5.140625 -13.203125 "/></g></g></g><g fill="#ffcf7e" fill-opacity="1"><g transform="translate(573.150733, 77.894536)"><g><path d="M 13.03125 -3.3125 C 13.03125 -1.101562 12.023438 0 10.015625 0 L 6.84375 0 L 6.84375 -4.828125 L 7.796875 -4.828125 C 8.265625 -4.828125 8.5 -5.109375 8.5 -5.671875 L 8.5 -12.6875 C 8.5 -13.25 8.359375 -13.53125 8.078125 -13.53125 C 7.796875 -13.53125 7.601562 -13.210938 7.5 -12.578125 L 5.25 0 L 0.796875 0 L 2.6875 -10.28125 L 1.8125 -10.28125 C 1.113281 -10.28125 0.765625 -10.625 0.765625 -11.3125 L 0.765625 -18.421875 L 5.28125 -18.421875 L 5.28125 -11.921875 L 6.171875 -15.484375 C 6.671875 -17.441406 7.75 -18.421875 9.40625 -18.421875 L 9.640625 -18.421875 C 11.898438 -18.421875 13.03125 -17.039062 13.03125 -14.28125 Z M 13.03125 -3.3125 "/></g></g></g><g fill="#ffcf7e" fill-opacity="1"><g transform="translate(586.968159, 77.894536)"><g><path d="M 5.140625 -13.203125 L 5.84375 -13.203125 C 6.34375 -13.203125 6.59375 -13.472656 6.59375 -14.015625 L 6.59375 -18.421875 L 10.75 -18.421875 L 10.75 -13.265625 C 10.75 -11.109375 9.820312 -10.03125 7.96875 -10.03125 L 5.140625 -10.03125 L 5.140625 -5.65625 C 5.140625 -5.09375 5.375 -4.8125 5.84375 -4.8125 L 11.515625 -4.8125 C 11.972656 -4.8125 12.203125 -5.09375 12.203125 -5.65625 L 12.203125 -18.421875 L 16.5625 -18.421875 L 16.5625 -4.1875 C 16.5625 -2.914062 16.234375 -1.910156 15.578125 -1.171875 C 14.890625 -0.390625 13.921875 0 12.671875 0 L 4.6875 0 C 2.09375 0 0.796875 -1.394531 0.796875 -4.1875 L 0.796875 -18.421875 L 5.140625 -18.421875 Z M 5.140625 -13.203125 "/></g></g></g><g fill="#ffcf7e" fill-opacity="1"><g transform="translate(604.317754, 77.894536)"><g><path d="M 13.03125 -3.3125 C 13.03125 -1.101562 12.023438 0 10.015625 0 L 6.84375 0 L 6.84375 -4.828125 L 7.796875 -4.828125 C 8.265625 -4.828125 8.5 -5.109375 8.5 -5.671875 L 8.5 -12.6875 C 8.5 -13.25 8.359375 -13.53125 8.078125 -13.53125 C 7.796875 -13.53125 7.601562 -13.210938 7.5 -12.578125 L 5.25 0 L 0.796875 0 L 2.6875 -10.28125 L 1.8125 -10.28125 C 1.113281 -10.28125 0.765625 -10.625 0.765625 -11.3125 L 0.765625 -18.421875 L 5.28125 -18.421875 L 5.28125 -11.921875 L 6.171875 -15.484375 C 6.671875 -17.441406 7.75 -18.421875 9.40625 -18.421875 L 9.640625 -18.421875 C 11.898438 -18.421875 13.03125 -17.039062 13.03125 -14.28125 Z M 13.03125 -3.3125 "/></g></g></g><g fill="#ffcf7e" fill-opacity="1"><g transform="translate(618.13518, 77.894536)"><g><path d="M 11.8125 0 L 7.234375 0 L 7.234375 -12.859375 C 7.234375 -13.367188 6.972656 -13.625 6.453125 -13.625 L 0.796875 -13.625 L 0.796875 -18.421875 L 8.5625 -18.421875 C 9.507812 -18.421875 10.289062 -18.117188 10.90625 -17.515625 C 11.507812 -16.910156 11.8125 -16.125 11.8125 -15.15625 Z M 5.296875 0 L 0.8125 0 L 0.8125 -11.421875 L 5.296875 -11.421875 Z M 5.296875 0 "/></g></g></g><g fill="#ffcf7e" fill-opacity="1"><g transform="translate(630.738891, 77.894536)"><g/></g></g><g fill="#ffcf7e" fill-opacity="1"><g transform="translate(637.787634, 77.894536)"><g><path d="M 11.765625 2.609375 L 7.28125 2.609375 L 7.28125 -12.859375 C 7.28125 -13.367188 7.023438 -13.625 6.515625 -13.625 L 5.984375 -13.625 C 5.566406 -13.625 5.359375 -13.359375 5.359375 -12.828125 L 5.359375 -10.109375 L 0.796875 -10.109375 L 0.796875 -15.15625 C 0.796875 -17.332031 1.953125 -18.421875 4.265625 -18.421875 L 8.21875 -18.421875 C 9.195312 -18.421875 10.019531 -18.128906 10.6875 -17.546875 C 11.40625 -16.921875 11.765625 -16.125 11.765625 -15.15625 Z M 11.765625 2.609375 "/></g></g></g><g fill="#ffcf7e" fill-opacity="1"><g transform="translate(650.344698, 77.894536)"><g><path d="M 5.296875 0 L 0.796875 0 L 0.796875 -18.421875 L 5.296875 -18.421875 Z M 5.296875 0 "/></g></g></g><g fill="#ffcf7e" fill-opacity="1"><g transform="translate(656.428734, 77.894536)"><g><path d="M 11 -6.65625 C 11 -2.21875 8.875 0 4.625 0 L 2.671875 0 L 2.671875 -4.8125 L 3.984375 -4.8125 C 4.992188 -4.8125 5.675781 -5.132812 6.03125 -5.78125 C 6.289062 -6.226562 6.421875 -7.019531 6.421875 -8.15625 L 6.421875 -12.859375 C 6.421875 -13.367188 6.164062 -13.625 5.65625 -13.625 L 0.796875 -13.625 L 0.796875 -20.71875 L 5.3125 -20.71875 L 5.3125 -18.421875 L 8.703125 -18.421875 C 10.234375 -18.421875 11 -17.679688 11 -16.203125 Z M 11 -6.65625 "/></g></g></g><g fill="#ffcf7e" fill-opacity="1"><g transform="translate(668.223362, 77.894536)"><g><path d="M 8.34375 0 C 8.207031 -0.726562 7.910156 -1.6875 7.453125 -2.875 C 7.003906 -4.0625 6.394531 -5.492188 5.625 -7.171875 C 5.539062 -7.078125 5.476562 -7.003906 5.4375 -6.953125 C 5.394531 -6.898438 5.367188 -6.867188 5.359375 -6.859375 C 5.347656 -6.816406 5.335938 -6.722656 5.328125 -6.578125 C 5.328125 -6.441406 5.328125 -6.25 5.328125 -6 L 5.328125 0 L 0.828125 0 L 0.828125 -5.515625 C 0.828125 -8.429688 1.722656 -10.316406 3.515625 -11.171875 C 1.796875 -14.554688 0.835938 -16.972656 0.640625 -18.421875 L 5.328125 -18.421875 C 5.554688 -17.390625 5.894531 -16.296875 6.34375 -15.140625 C 6.789062 -13.992188 7.359375 -12.769531 8.046875 -11.46875 C 8.304688 -11.65625 8.4375 -12.039062 8.4375 -12.625 L 8.4375 -18.421875 L 12.984375 -18.421875 L 12.984375 -12.1875 C 12.984375 -11.25 12.695312 -10.34375 12.125 -9.46875 C 11.550781 -8.59375 10.84375 -7.925781 10 -7.46875 C 11.945312 -3.613281 12.941406 -1.125 12.984375 0 Z M 8.34375 0 "/></g></g></g><g fill="#ffcf7e" fill-opacity="1"><g transform="translate(681.838517, 77.894536)"><g/></g></g><g fill="#ffcf7e" fill-opacity="1"><g transform="translate(688.88726, 77.894536)"><g><path d="M 5.296875 0 L 0.796875 0 L 0.796875 -18.421875 L 5.296875 -18.421875 Z M 5.296875 0 "/></g></g></g><g fill="#ffcf7e" fill-opacity="1"><g transform="translate(694.971296, 77.894536)"><g><path d="M 12.75 0 L 8.25 0 L 8.25 -12.75 C 8.25 -13.332031 7.984375 -13.625 7.453125 -13.625 L 6.84375 -13.625 C 6.300781 -13.625 6.03125 -13.332031 6.03125 -12.75 L 6.03125 -2.203125 C 6.03125 -0.734375 5.414062 0 4.1875 0 L 0.3125 0 L 0.3125 -4.8125 L 1.09375 -4.8125 C 1.351562 -4.8125 1.484375 -4.925781 1.484375 -5.15625 L 1.484375 -14.890625 C 1.484375 -16.148438 1.722656 -17.054688 2.203125 -17.609375 C 2.691406 -18.148438 3.554688 -18.421875 4.796875 -18.421875 L 9.65625 -18.421875 C 11.71875 -18.421875 12.75 -17.242188 12.75 -14.890625 Z M 12.75 0 "/></g></g></g><g fill="#ffcf7e" fill-opacity="1"><g transform="translate(708.52421, 77.894536)"><g><path d="M 10.921875 0 L 6.421875 0 L 5.625 -5.109375 C 5.300781 -5.109375 5.097656 -4.878906 5.015625 -4.421875 L 4.171875 0 L 0.15625 0 L 1.234375 -5.328125 C 1.710938 -7.734375 2.828125 -8.9375 4.578125 -8.9375 L 5.328125 -8.9375 L 5.328125 -12.859375 C 5.328125 -13.367188 5.035156 -13.625 4.453125 -13.625 L 1.25 -13.625 L 1.25 -18.421875 L 6.4375 -18.421875 C 8.71875 -18.421875 9.859375 -17.226562 9.859375 -14.84375 L 9.859375 -8.65625 C 9.859375 -8 9.875 -7.394531 9.90625 -6.84375 C 9.945312 -6.289062 10 -5.789062 10.0625 -5.34375 Z M 10.921875 0 "/></g></g></g><g fill="#ffcf7e" fill-opacity="1"><g transform="translate(719.77422, 77.894536)"><g><path d="M 8.34375 0 C 8.207031 -0.726562 7.910156 -1.6875 7.453125 -2.875 C 7.003906 -4.0625 6.394531 -5.492188 5.625 -7.171875 C 5.539062 -7.078125 5.476562 -7.003906 5.4375 -6.953125 C 5.394531 -6.898438 5.367188 -6.867188 5.359375 -6.859375 C 5.347656 -6.816406 5.335938 -6.722656 5.328125 -6.578125 C 5.328125 -6.441406 5.328125 -6.25 5.328125 -6 L 5.328125 0 L 0.828125 0 L 0.828125 -5.515625 C 0.828125 -8.429688 1.722656 -10.316406 3.515625 -11.171875 C 1.796875 -14.554688 0.835938 -16.972656 0.640625 -18.421875 L 5.328125 -18.421875 C 5.554688 -17.390625 5.894531 -16.296875 6.34375 -15.140625 C 6.789062 -13.992188 7.359375 -12.769531 8.046875 -11.46875 C 8.304688 -11.65625 8.4375 -12.039062 8.4375 -12.625 L 8.4375 -18.421875 L 12.984375 -18.421875 L 12.984375 -12.1875 C 12.984375 -11.25 12.695312 -10.34375 12.125 -9.46875 C 11.550781 -8.59375 10.84375 -7.925781 10 -7.46875 C 11.945312 -3.613281 12.941406 -1.125 12.984375 0 Z M 8.34375 0 "/></g></g></g><g fill="#ffcf7e" fill-opacity="1"><g transform="translate(733.389375, 77.894536)"><g><path d="M 9.875 0 L 5.3125 0 L 5.3125 -12.859375 C 5.3125 -13.367188 5.046875 -13.625 4.515625 -13.625 L 0.484375 -13.625 L 0.484375 -18.421875 L 6.609375 -18.421875 C 7.566406 -18.421875 8.351562 -18.117188 8.96875 -17.515625 C 9.570312 -16.910156 9.875 -16.125 9.875 -15.15625 Z M 9.875 0 "/></g></g></g><g fill="#ffcf7e" fill-opacity="1"><g transform="translate(744.048077, 77.894536)"><g><path d="M 10.515625 -13.625 C 9.503906 -13.625 9 -13.125 9 -12.125 L 9 0 L 4.421875 0 L 4.421875 -10.84375 C 4.421875 -12.269531 5.019531 -13.195312 6.21875 -13.625 L 0.484375 -13.625 L 0.484375 -18.421875 L 10.515625 -18.421875 Z M 10.515625 -13.625 "/></g></g></g><g fill="#ffcf7e" fill-opacity="1"><g transform="translate(755.360328, 77.894536)"><g><path d="M 5.140625 -13.203125 L 5.84375 -13.203125 C 6.34375 -13.203125 6.59375 -13.472656 6.59375 -14.015625 L 6.59375 -18.421875 L 10.75 -18.421875 L 10.75 -13.265625 C 10.75 -11.109375 9.820312 -10.03125 7.96875 -10.03125 L 5.140625 -10.03125 L 5.140625 -5.65625 C 5.140625 -5.09375 5.375 -4.8125 5.84375 -4.8125 L 11.515625 -4.8125 C 11.972656 -4.8125 12.203125 -5.09375 12.203125 -5.65625 L 12.203125 -18.421875 L 16.5625 -18.421875 L 16.5625 -4.1875 C 16.5625 -2.914062 16.234375 -1.910156 15.578125 -1.171875 C 14.890625 -0.390625 13.921875 0 12.671875 0 L 4.6875 0 C 2.09375 0 0.796875 -1.394531 0.796875 -4.1875 L 0.796875 -18.421875 L 5.140625 -18.421875 Z M 5.140625 -13.203125 "/></g></g></g><g fill="#ffcf7e" fill-opacity="1"><g transform="translate(772.709923, 77.894536)"><g/></g></g><g fill="#ffcf7e" fill-opacity="1"><g transform="translate(779.758666, 77.894536)"><g><path d="M 11 -6.65625 C 11 -2.21875 8.875 0 4.625 0 L 2.671875 0 L 2.671875 -4.8125 L 3.984375 -4.8125 C 4.992188 -4.8125 5.675781 -5.132812 6.03125 -5.78125 C 6.289062 -6.226562 6.421875 -7.019531 6.421875 -8.15625 L 6.421875 -12.859375 C 6.421875 -13.367188 6.164062 -13.625 5.65625 -13.625 L 0.796875 -13.625 L 0.796875 -20.71875 L 5.3125 -20.71875 L 5.3125 -18.421875 L 8.703125 -18.421875 C 10.234375 -18.421875 11 -17.679688 11 -16.203125 Z M 11 -6.65625 "/></g></g></g><g fill="#ffcf7e" fill-opacity="1"><g transform="translate(791.553248, 77.894536)"><g><path d="M 8.34375 0 C 8.207031 -0.726562 7.910156 -1.6875 7.453125 -2.875 C 7.003906 -4.0625 6.394531 -5.492188 5.625 -7.171875 C 5.539062 -7.078125 5.476562 -7.003906 5.4375 -6.953125 C 5.394531 -6.898438 5.367188 -6.867188 5.359375 -6.859375 C 5.347656 -6.816406 5.335938 -6.722656 5.328125 -6.578125 C 5.328125 -6.441406 5.328125 -6.25 5.328125 -6 L 5.328125 0 L 0.828125 0 L 0.828125 -5.515625 C 0.828125 -8.429688 1.722656 -10.316406 3.515625 -11.171875 C 1.796875 -14.554688 0.835938 -16.972656 0.640625 -18.421875 L 5.328125 -18.421875 C 5.554688 -17.390625 5.894531 -16.296875 6.34375 -15.140625 C 6.789062 -13.992188 7.359375 -12.769531 8.046875 -11.46875 C 8.304688 -11.65625 8.4375 -12.039062 8.4375 -12.625 L 8.4375 -18.421875 L 12.984375 -18.421875 L 12.984375 -12.1875 C 12.984375 -11.25 12.695312 -10.34375 12.125 -9.46875 C 11.550781 -8.59375 10.84375 -7.925781 10 -7.46875 C 11.945312 -3.613281 12.941406 -1.125 12.984375 0 Z M 8.34375 0 "/></g></g></g><g fill="#ffcf7e" fill-opacity="1"><g transform="translate(805.168403, 77.894536)"><g><path d="M 9.875 0 L 5.3125 0 L 5.3125 -12.859375 C 5.3125 -13.367188 5.046875 -13.625 4.515625 -13.625 L 0.484375 -13.625 L 0.484375 -18.421875 L 6.609375 -18.421875 C 7.566406 -18.421875 8.351562 -18.117188 8.96875 -17.515625 C 9.570312 -16.910156 9.875 -16.125 9.875 -15.15625 Z M 9.875 0 "/></g></g></g><g fill="#ffcf7e" fill-opacity="1"><g transform="translate(815.827104, 77.894536)"><g><path d="M 5.140625 -13.203125 L 5.84375 -13.203125 C 6.34375 -13.203125 6.59375 -13.472656 6.59375 -14.015625 L 6.59375 -18.421875 L 10.75 -18.421875 L 10.75 -13.265625 C 10.75 -11.109375 9.820312 -10.03125 7.96875 -10.03125 L 5.140625 -10.03125 L 5.140625 -5.65625 C 5.140625 -5.09375 5.375 -4.8125 5.84375 -4.8125 L 11.515625 -4.8125 C 11.972656 -4.8125 12.203125 -5.09375 12.203125 -5.65625 L 12.203125 -18.421875 L 16.5625 -18.421875 L 16.5625 -4.1875 C 16.5625 -2.914062 16.234375 -1.910156 15.578125 -1.171875 C 14.890625 -0.390625 13.921875 0 12.671875 0 L 4.6875 0 C 2.09375 0 0.796875 -1.394531 0.796875 -4.1875 L 0.796875 -18.421875 L 5.140625 -18.421875 Z M 5.140625 -13.203125 "/></g></g></g><g fill="#ffcf7e" fill-opacity="1"><g transform="translate(833.176699, 77.894536)"><g><path d="M 5.234375 -10.25 L 0.765625 -10.25 L 0.765625 -18.421875 L 5.234375 -18.421875 Z M 5.234375 -10.25 "/></g></g></g><g fill="#ffcf7e" fill-opacity="1"><g transform="translate(839.198494, 77.894536)"><g><path d="M 11 -6.65625 C 11 -2.21875 8.875 0 4.625 0 L 2.671875 0 L 2.671875 -4.8125 L 3.984375 -4.8125 C 4.992188 -4.8125 5.675781 -5.132812 6.03125 -5.78125 C 6.289062 -6.226562 6.421875 -7.019531 6.421875 -8.15625 L 6.421875 -12.859375 C 6.421875 -13.367188 6.164062 -13.625 5.65625 -13.625 L 0.796875 -13.625 L 0.796875 -20.71875 L 5.3125 -20.71875 L 5.3125 -18.421875 L 8.703125 -18.421875 C 10.234375 -18.421875 11 -17.679688 11 -16.203125 Z M 11 -6.65625 "/></g></g></g><g fill="#ffcf7e" fill-opacity="1"><g transform="translate(850.993122, 77.894536)"><g/></g></g><g fill="#ffcf7e" fill-opacity="1"><g transform="translate(858.041865, 77.894536)"><g><path d="M 11.8125 0 L 7.234375 0 L 7.234375 -12.859375 C 7.234375 -13.367188 6.972656 -13.625 6.453125 -13.625 L 0.796875 -13.625 L 0.796875 -18.421875 L 8.5625 -18.421875 C 9.507812 -18.421875 10.289062 -18.117188 10.90625 -17.515625 C 11.507812 -16.910156 11.8125 -16.125 11.8125 -15.15625 Z M 5.296875 0 L 0.8125 0 L 0.8125 -11.421875 L 5.296875 -11.421875 Z M 5.296875 0 "/></g></g></g><g fill="#ffcf7e" fill-opacity="1"><g transform="translate(870.645576, 77.894536)"><g><path d="M 8.9375 -2.890625 C 8.9375 -0.960938 8.019531 0 6.1875 0 L 0.640625 0 L 0.640625 -4.8125 L 3.828125 -4.8125 C 4.203125 -4.8125 4.390625 -5.039062 4.390625 -5.5 L 4.390625 -12.859375 C 4.390625 -13.367188 4.160156 -13.625 3.703125 -13.625 L 1.96875 -13.625 L 1.96875 -18.421875 L 6.109375 -18.421875 C 7.992188 -18.421875 8.9375 -17.453125 8.9375 -15.515625 Z M 8.9375 -2.890625 "/></g></g></g><g fill="#ffcf7e" fill-opacity="1"><g transform="translate(880.370667, 77.894536)"><g><path d="M 10.921875 0 L 6.421875 0 L 5.625 -5.109375 C 5.300781 -5.109375 5.097656 -4.878906 5.015625 -4.421875 L 4.171875 0 L 0.15625 0 L 1.234375 -5.328125 C 1.710938 -7.734375 2.828125 -8.9375 4.578125 -8.9375 L 5.328125 -8.9375 L 5.328125 -12.859375 C 5.328125 -13.367188 5.035156 -13.625 4.453125 -13.625 L 1.25 -13.625 L 1.25 -18.421875 L 6.4375 -18.421875 C 8.71875 -18.421875 9.859375 -17.226562 9.859375 -14.84375 L 9.859375 -8.65625 C 9.859375 -8 9.875 -7.394531 9.90625 -6.84375 C 9.945312 -6.289062 10 -5.789062 10.0625 -5.34375 Z M 10.921875 0 "/></g></g></g><g fill="#ffcf7e" fill-opacity="1"><g transform="translate(891.620678, 77.894536)"><g><path d="M 11.8125 0 L 7.234375 0 L 7.234375 -12.859375 C 7.234375 -13.367188 6.972656 -13.625 6.453125 -13.625 L 0.796875 -13.625 L 0.796875 -18.421875 L 8.5625 -18.421875 C 9.507812 -18.421875 10.289062 -18.117188 10.90625 -17.515625 C 11.507812 -16.910156 11.8125 -16.125 11.8125 -15.15625 Z M 5.296875 0 L 0.8125 0 L 0.8125 -11.421875 L 5.296875 -11.421875 Z M 5.296875 0 "/></g></g></g><g fill="#ffcf7e" fill-opacity="1"><g transform="translate(904.224434, 77.894536)"><g/></g></g><g fill="#ffcf7e" fill-opacity="1"><g transform="translate(911.273177, 77.894536)"><g><path d="M 8.34375 0 C 8.207031 -0.726562 7.910156 -1.6875 7.453125 -2.875 C 7.003906 -4.0625 6.394531 -5.492188 5.625 -7.171875 C 5.539062 -7.078125 5.476562 -7.003906 5.4375 -6.953125 C 5.394531 -6.898438 5.367188 -6.867188 5.359375 -6.859375 C 5.347656 -6.816406 5.335938 -6.722656 5.328125 -6.578125 C 5.328125 -6.441406 5.328125 -6.25 5.328125 -6 L 5.328125 0 L 0.828125 0 L 0.828125 -5.515625 C 0.828125 -8.429688 1.722656 -10.316406 3.515625 -11.171875 C 1.796875 -14.554688 0.835938 -16.972656 0.640625 -18.421875 L 5.328125 -18.421875 C 5.554688 -17.390625 5.894531 -16.296875 6.34375 -15.140625 C 6.789062 -13.992188 7.359375 -12.769531 8.046875 -11.46875 C 8.304688 -11.65625 8.4375 -12.039062 8.4375 -12.625 L 8.4375 -18.421875 L 12.984375 -18.421875 L 12.984375 -12.1875 C 12.984375 -11.25 12.695312 -10.34375 12.125 -9.46875 C 11.550781 -8.59375 10.84375 -7.925781 10 -7.46875 C 11.945312 -3.613281 12.941406 -1.125 12.984375 0 Z M 8.34375 0 "/></g></g></g><g fill="#ffcf7e" fill-opacity="1"><g transform="translate(924.888332, 77.894536)"><g><path d="M 11.3125 0 L 0.796875 0 L 0.796875 -4.8125 L 4.296875 -4.8125 C 5.328125 -4.8125 5.84375 -5.414062 5.84375 -6.625 L 5.84375 -12.15625 C 5.84375 -12.695312 5.75 -13.078125 5.5625 -13.296875 C 5.375 -13.515625 5.015625 -13.625 4.484375 -13.625 L 0.796875 -13.625 L 0.796875 -18.421875 L 6.84375 -18.421875 C 9.21875 -18.421875 10.40625 -17.015625 10.40625 -14.203125 L 10.40625 -7.90625 C 10.40625 -6.28125 9.800781 -5.25 8.59375 -4.8125 L 11.3125 -4.8125 Z M 11.3125 0 "/></g></g></g><g fill="#ffcf7e" fill-opacity="1"><g transform="translate(936.838538, 77.894536)"><g><path d="M 0.890625 0 L 0.890625 -4.8125 L 6.140625 -4.828125 L 3.203125 -10.765625 C 1.472656 -14.273438 0.488281 -16.828125 0.25 -18.421875 L 5.03125 -18.421875 C 5.664062 -15.847656 6.550781 -13.570312 7.6875 -11.59375 C 7.863281 -11.707031 7.972656 -11.921875 8.015625 -12.234375 C 8.046875 -12.429688 8.0625 -12.664062 8.0625 -12.9375 L 8.0625 -18.421875 L 12.59375 -18.421875 L 12.59375 -12.1875 C 12.59375 -11.238281 12.304688 -10.335938 11.734375 -9.484375 C 11.171875 -8.640625 10.472656 -7.992188 9.640625 -7.546875 C 11.597656 -3.648438 12.582031 -1.132812 12.59375 0 Z M 0.890625 0 "/></g></g></g><g fill="#ffcf7e" fill-opacity="1"><g transform="translate(950.22028, 77.894536)"><g><path d="M 11.3125 0 L 0.796875 0 L 0.796875 -4.8125 L 4.296875 -4.8125 C 5.328125 -4.8125 5.84375 -5.414062 5.84375 -6.625 L 5.84375 -12.15625 C 5.84375 -12.695312 5.75 -13.078125 5.5625 -13.296875 C 5.375 -13.515625 5.015625 -13.625 4.484375 -13.625 L 0.796875 -13.625 L 0.796875 -18.421875 L 6.84375 -18.421875 C 9.21875 -18.421875 10.40625 -17.015625 10.40625 -14.203125 L 10.40625 -7.90625 C 10.40625 -6.28125 9.800781 -5.25 8.59375 -4.8125 L 11.3125 -4.8125 Z M 11.3125 0 "/></g></g></g><g fill="#ffcf7e" fill-opacity="1"><g transform="translate(962.170532, 77.894536)"><g/></g></g><g fill="#ffcf7e" fill-opacity="1"><g transform="translate(969.219275, 77.894536)"><g><path d="M 11.765625 2.609375 L 7.28125 2.609375 L 7.28125 -12.859375 C 7.28125 -13.367188 7.023438 -13.625 6.515625 -13.625 L 5.984375 -13.625 C 5.566406 -13.625 5.359375 -13.359375 5.359375 -12.828125 L 5.359375 -10.109375 L 0.796875 -10.109375 L 0.796875 -15.15625 C 0.796875 -17.332031 1.953125 -18.421875 4.265625 -18.421875 L 8.21875 -18.421875 C 9.195312 -18.421875 10.019531 -18.128906 10.6875 -17.546875 C 11.40625 -16.921875 11.765625 -16.125 11.765625 -15.15625 Z M 11.765625 2.609375 "/></g></g></g><g fill="#ffcf7e" fill-opacity="1"><g transform="translate(981.776294, 77.894536)"><g><path d="M 5.296875 0 L 0.796875 0 L 0.796875 -18.421875 L 5.296875 -18.421875 Z M 5.296875 0 "/></g></g></g><g fill="#ffcf7e" fill-opacity="1"><g transform="translate(987.860284, 77.894536)"><g><path d="M 11 -6.65625 C 11 -2.21875 8.875 0 4.625 0 L 2.671875 0 L 2.671875 -4.8125 L 3.984375 -4.8125 C 4.992188 -4.8125 5.675781 -5.132812 6.03125 -5.78125 C 6.289062 -6.226562 6.421875 -7.019531 6.421875 -8.15625 L 6.421875 -12.859375 C 6.421875 -13.367188 6.164062 -13.625 5.65625 -13.625 L 0.796875 -13.625 L 0.796875 -20.71875 L 5.3125 -20.71875 L 5.3125 -18.421875 L 8.703125 -18.421875 C 10.234375 -18.421875 11 -17.679688 11 -16.203125 Z M 11 -6.65625 "/></g></g></g><g fill="#ffcf7e" fill-opacity="1"><g transform="translate(999.654911, 77.894536)"><g><path d="M 8.34375 0 C 8.207031 -0.726562 7.910156 -1.6875 7.453125 -2.875 C 7.003906 -4.0625 6.394531 -5.492188 5.625 -7.171875 C 5.539062 -7.078125 5.476562 -7.003906 5.4375 -6.953125 C 5.394531 -6.898438 5.367188 -6.867188 5.359375 -6.859375 C 5.347656 -6.816406 5.335938 -6.722656 5.328125 -6.578125 C 5.328125 -6.441406 5.328125 -6.25 5.328125 -6 L 5.328125 0 L 0.828125 0 L 0.828125 -5.515625 C 0.828125 -8.429688 1.722656 -10.316406 3.515625 -11.171875 C 1.796875 -14.554688 0.835938 -16.972656 0.640625 -18.421875 L 5.328125 -18.421875 C 5.554688 -17.390625 5.894531 -16.296875 6.34375 -15.140625 C 6.789062 -13.992188 7.359375 -12.769531 8.046875 -11.46875 C 8.304688 -11.65625 8.4375 -12.039062 8.4375 -12.625 L 8.4375 -18.421875 L 12.984375 -18.421875 L 12.984375 -12.1875 C 12.984375 -11.25 12.695312 -10.34375 12.125 -9.46875 C 11.550781 -8.59375 10.84375 -7.925781 10 -7.46875 C 11.945312 -3.613281 12.941406 -1.125 12.984375 0 Z M 8.34375 0 "/></g></g></g><g fill="#ffcf7e" fill-opacity="1"><g transform="translate(95.771432, 113.006839)"><g><path d="M 7.296875 0 C 7.179688 -0.632812 6.925781 -1.472656 6.53125 -2.515625 C 6.132812 -3.554688 5.597656 -4.8125 4.921875 -6.28125 C 4.847656 -6.195312 4.789062 -6.128906 4.75 -6.078125 C 4.71875 -6.035156 4.695312 -6.007812 4.6875 -6 C 4.675781 -5.96875 4.664062 -5.890625 4.65625 -5.765625 C 4.65625 -5.640625 4.65625 -5.46875 4.65625 -5.25 L 4.65625 0 L 0.71875 0 L 0.71875 -4.828125 C 0.71875 -7.367188 1.503906 -9.019531 3.078125 -9.78125 C 1.566406 -12.738281 0.726562 -14.851562 0.5625 -16.125 L 4.65625 -16.125 C 4.851562 -15.21875 5.148438 -14.257812 5.546875 -13.25 C 5.941406 -12.238281 6.441406 -11.164062 7.046875 -10.03125 C 7.265625 -10.195312 7.375 -10.535156 7.375 -11.046875 L 7.375 -16.125 L 11.359375 -16.125 L 11.359375 -10.65625 C 11.359375 -9.84375 11.109375 -9.050781 10.609375 -8.28125 C 10.109375 -7.519531 9.488281 -6.9375 8.75 -6.53125 C 10.445312 -3.15625 11.316406 -0.976562 11.359375 0 Z M 7.296875 0 "/></g></g></g><g fill="#ffcf7e" fill-opacity="1"><g transform="translate(107.685935, 113.006839)"><g><path d="M 6.703125 -15.203125 C 6.703125 -14.421875 6.363281 -13.664062 5.6875 -12.9375 C 5.132812 -12.332031 4.503906 -11.875 3.796875 -11.5625 L 3.796875 -18.484375 L 6.703125 -18.484375 Z M 3.140625 -15.203125 C 3.140625 -13.765625 2.179688 -12.550781 0.265625 -11.5625 L 0.265625 -18.484375 L 3.140625 -18.484375 Z M 3.140625 -15.203125 "/></g></g></g><g fill="#ffcf7e" fill-opacity="1"><g transform="translate(114.657619, 113.006839)"><g><path d="M 9.5625 0 L 5.625 0 L 4.921875 -4.46875 C 4.640625 -4.46875 4.460938 -4.269531 4.390625 -3.875 L 3.65625 0 L 0.140625 0 L 1.078125 -4.65625 C 1.492188 -6.757812 2.46875 -7.8125 4 -7.8125 L 4.65625 -7.8125 L 4.65625 -11.25 C 4.65625 -11.695312 4.398438 -11.921875 3.890625 -11.921875 L 1.09375 -11.921875 L 1.09375 -16.125 L 5.640625 -16.125 C 7.628906 -16.125 8.625 -15.078125 8.625 -12.984375 L 8.625 -7.578125 C 8.625 -7.003906 8.640625 -6.472656 8.671875 -5.984375 C 8.703125 -5.503906 8.75 -5.066406 8.8125 -4.671875 Z M 9.5625 0 "/></g></g></g><g fill="#ffcf7e" fill-opacity="1"><g transform="translate(124.502404, 113.006839)"><g><path d="M 10.34375 0 L 6.328125 0 L 6.328125 -11.25 C 6.328125 -11.695312 6.101562 -11.921875 5.65625 -11.921875 L 0.6875 -11.921875 L 0.6875 -16.125 L 7.484375 -16.125 C 8.328125 -16.125 9.015625 -15.859375 9.546875 -15.328125 C 10.078125 -14.796875 10.34375 -14.109375 10.34375 -13.265625 Z M 4.625 0 L 0.703125 0 L 0.703125 -10 L 4.625 -10 Z M 4.625 0 "/></g></g></g><g fill="#ffcf7e" fill-opacity="1"><g transform="translate(135.531824, 113.006839)"><g/></g></g><g fill="#ffcf7e" fill-opacity="1"><g transform="translate(141.700136, 113.006839)"><g><path d="M 10.453125 -4.984375 C 10.453125 -3.335938 10.179688 -2.125 9.640625 -1.34375 C 8.984375 -0.414062 7.875 0.046875 6.3125 0.046875 C 6.03125 0.046875 5.734375 0.03125 5.421875 0 L 5.421875 -4.203125 C 6.109375 -4.203125 6.453125 -4.710938 6.453125 -5.734375 L 6.453125 -11.25 C 6.453125 -11.695312 6.222656 -11.921875 5.765625 -11.921875 L 0.6875 -11.921875 L 0.6875 -16.125 L 8.4375 -16.125 C 9.78125 -16.125 10.453125 -15.472656 10.453125 -14.171875 Z M 4.65625 2.328125 L 0.71875 2.328125 L 0.71875 -10.140625 L 4.65625 -10.140625 Z M 4.65625 2.328125 "/></g></g></g><g fill="#ffcf7e" fill-opacity="1"><g transform="translate(152.852111, 113.006839)"><g><path d="M 4.625 0 L 0.6875 0 L 0.6875 -16.125 L 4.625 -16.125 Z M 4.625 0 "/></g></g></g><g fill="#ffcf7e" fill-opacity="1"><g transform="translate(158.176195, 113.006839)"><g><path d="M 10.515625 0 L 6.5625 0 L 6.5625 -11.15625 C 6.5625 -11.664062 6.332031 -11.921875 5.875 -11.921875 L 5.390625 -11.921875 C 4.929688 -11.921875 4.703125 -11.664062 4.703125 -11.15625 L 4.703125 0 L 0.6875 0 L 0.6875 -13.3125 C 0.6875 -14.3125 0.859375 -15.015625 1.203125 -15.421875 C 1.578125 -15.890625 2.253906 -16.125 3.234375 -16.125 L 7.796875 -16.125 C 9.609375 -16.125 10.515625 -15.1875 10.515625 -13.3125 Z M 10.515625 0 "/></g></g></g><g fill="#ffcf7e" fill-opacity="1"><g transform="translate(169.382637, 113.006839)"><g><path d="M 9.625 -5.828125 C 9.625 -1.941406 7.765625 0 4.046875 0 L 2.34375 0 L 2.34375 -4.203125 L 3.484375 -4.203125 C 4.367188 -4.203125 4.96875 -4.484375 5.28125 -5.046875 C 5.507812 -5.453125 5.625 -6.148438 5.625 -7.140625 L 5.625 -11.25 C 5.625 -11.695312 5.394531 -11.921875 4.9375 -11.921875 L 0.6875 -11.921875 L 0.6875 -18.125 L 4.640625 -18.125 L 4.640625 -16.125 L 7.609375 -16.125 C 8.953125 -16.125 9.625 -15.472656 9.625 -14.171875 Z M 9.625 -5.828125 "/></g></g></g><g fill="#ffcf7e" fill-opacity="1"><g transform="translate(179.703997, 113.006839)"><g/></g></g><g fill="#ffcf7e" fill-opacity="1"><g transform="translate(185.872308, 113.006839)"><g><path d="M 9.203125 -11.921875 C 8.316406 -11.921875 7.875 -11.484375 7.875 -10.609375 L 7.875 0 L 3.875 0 L 3.875 -9.484375 C 3.875 -10.734375 4.398438 -11.546875 5.453125 -11.921875 L 0.421875 -11.921875 L 0.421875 -16.125 L 9.203125 -16.125 Z M 9.203125 -11.921875 "/></g></g></g><g fill="#ffcf7e" fill-opacity="1"><g transform="translate(195.773794, 113.006839)"><g><path d="M 10.0625 -3.09375 C 10.0625 -1.03125 9.125 0 7.25 0 L 1.390625 0 L 1.390625 -4.203125 L 6.140625 -4.203125 L 6.140625 -6.109375 L 3.65625 -6.109375 C 1.769531 -6.109375 0.828125 -7.140625 0.828125 -9.203125 L 0.828125 -13.015625 C 0.828125 -15.085938 1.875 -16.125 3.96875 -16.125 L 6.953125 -16.125 C 7.890625 -16.125 8.640625 -15.84375 9.203125 -15.28125 C 9.773438 -14.71875 10.0625 -13.960938 10.0625 -13.015625 Z M 6.140625 -9.765625 L 6.140625 -11.90625 L 4.765625 -11.90625 L 4.765625 -9.765625 Z M 6.140625 -9.765625 "/></g></g></g><g fill="#ffcf7e" fill-opacity="1"><g transform="translate(206.664678, 113.006839)"><g/></g></g><g fill="#ffcf7e" fill-opacity="1"><g transform="translate(212.832989, 113.006839)"><g><path d="M 10.296875 2.28125 L 6.375 2.28125 L 6.375 -11.25 C 6.375 -11.695312 6.148438 -11.921875 5.703125 -11.921875 L 5.25 -11.921875 C 4.875 -11.921875 4.6875 -11.6875 4.6875 -11.21875 L 4.6875 -8.859375 L 0.6875 -8.859375 L 0.6875 -13.265625 C 0.6875 -15.171875 1.703125 -16.125 3.734375 -16.125 L 7.1875 -16.125 C 8.039062 -16.125 8.765625 -15.863281 9.359375 -15.34375 C 9.984375 -14.800781 10.296875 -14.109375 10.296875 -13.265625 Z M 10.296875 2.28125 "/></g></g></g><g fill="#ffcf7e" fill-opacity="1"><g transform="translate(223.821566, 113.006839)"><g><path d="M 4.578125 -8.96875 L 0.671875 -8.96875 L 0.671875 -16.125 L 4.578125 -16.125 Z M 4.578125 -8.96875 "/></g></g></g><g fill="#ffcf7e" fill-opacity="1"><g transform="translate(229.091184, 113.006839)"><g><path d="M 10.671875 -4.25 C 10.671875 -1.414062 9.507812 0 7.1875 0 L 0.421875 0 L 0.421875 -4.203125 L 1.375 -4.203125 L 1.375 -16.125 L 5.3125 -16.125 L 5.3125 -4.203125 L 6.09375 -4.203125 C 6.550781 -4.203125 6.78125 -4.515625 6.78125 -5.140625 L 6.78125 -16.125 L 10.671875 -16.125 Z M 10.671875 -4.25 "/></g></g></g><g fill="#ffcf7e" fill-opacity="1"><g transform="translate(240.461024, 113.006839)"><g><path d="M 10.984375 -4.828125 C 10.984375 -3.253906 10.539062 -1.992188 9.65625 -1.046875 C 8.738281 -0.078125 7.5 0.40625 5.9375 0.40625 C 4.332031 0.40625 3.054688 -0.0625 2.109375 -1 C 1.160156 -1.945312 0.6875 -3.222656 0.6875 -4.828125 L 0.6875 -13.546875 C 0.6875 -14.015625 0.734375 -14.410156 0.828125 -14.734375 C 0.921875 -15.054688 1.066406 -15.320312 1.265625 -15.53125 C 1.460938 -15.738281 1.722656 -15.890625 2.046875 -15.984375 C 2.367188 -16.078125 2.765625 -16.125 3.234375 -16.125 L 8.4375 -16.125 C 10.132812 -16.125 10.984375 -15.265625 10.984375 -13.546875 Z M 7.015625 -11.59375 C 7.015625 -11.8125 6.921875 -11.921875 6.734375 -11.921875 L 4.921875 -11.921875 C 4.734375 -11.921875 4.640625 -11.8125 4.640625 -11.59375 L 4.640625 -5.265625 C 4.640625 -4.273438 5.054688 -3.78125 5.890625 -3.78125 C 6.640625 -3.78125 7.015625 -4.273438 7.015625 -5.265625 Z M 7.015625 -11.59375 "/></g></g></g></svg>