<svg xmlns="http://www.w3.org/2000/svg" xmlns:xlink="http://www.w3.org/1999/xlink" width="1525" zoomAndPan="magnify" viewBox="0 0 1143.75 158.249993" height="211" preserveAspectRatio="xMidYMid meet" version="1.0"><defs><g/><clipPath id="a2737b8181"><path d="M 1080 27 L 1134 27 L 1134 84 L 1080 84 Z M 1080 27 " clip-rule="nonzero"/></clipPath><clipPath id="89a7255a70"><path d="M 1087.140625 19.109375 L 1140.378906 36.425781 L 1123.984375 86.828125 L 1070.746094 69.507812 Z M 1087.140625 19.109375 " clip-rule="nonzero"/></clipPath><clipPath id="8453674a92"><path d="M 1087.140625 19.109375 L 1140.378906 36.425781 L 1123.984375 86.828125 L 1070.746094 69.507812 Z M 1087.140625 19.109375 " clip-rule="nonzero"/></clipPath><clipPath id="fd69350322"><path d="M 12 20 L 83 20 L 83 90 L 12 90 Z M 12 20 " clip-rule="nonzero"/></clipPath><clipPath id="1bf55204eb"><path d="M 2.574219 30.542969 L 71.96875 9.878906 L 92.632812 79.273438 L 23.238281 99.9375 Z M 2.574219 30.542969 " clip-rule="nonzero"/></clipPath><clipPath id="574a721a3b"><path d="M 2.574219 30.542969 L 71.96875 9.878906 L 92.632812 79.273438 L 23.238281 99.9375 Z M 2.574219 30.542969 " clip-rule="nonzero"/></clipPath><clipPath id="dd64a70e4a"><path d="M 31 90 L 55 90 L 55 113 L 31 113 Z M 31 90 " clip-rule="nonzero"/></clipPath><clipPath id="b5529b832d"><path d="M 26.929688 96.429688 L 46.617188 84.265625 L 58.386719 103.316406 L 38.703125 115.480469 Z M 26.929688 96.429688 " clip-rule="nonzero"/></clipPath><clipPath id="33e368b74c"><path d="M 26.929688 96.429688 L 46.617188 84.265625 L 58.386719 103.316406 L 38.703125 115.480469 Z M 26.929688 96.429688 " clip-rule="nonzero"/></clipPath></defs><g fill="#f8f6e9" fill-opacity="0.4"><g transform="translate(348.70976, 107.83158)"><g><path d="M 31.4375 -24.078125 C 31.4375 -22.796875 30.769531 -22.15625 29.4375 -22.15625 L 4.015625 -22.15625 C 2.671875 -22.15625 2 -22.796875 2 -24.078125 L 2 -31.625 C 2 -32.90625 2.671875 -33.546875 4.015625 -33.546875 L 29.4375 -33.546875 C 30.769531 -33.546875 31.4375 -32.90625 31.4375 -31.625 Z M 31.4375 -24.078125 "/></g></g><g transform="translate(382.160597, 107.83158)"><g/></g><g transform="translate(403.294809, 107.83158)"><g><path d="M 39.796875 -55.421875 C 39.796875 -55.171875 39.78125 -54.984375 39.75 -54.859375 L 33.265625 -17.21875 L 39.46875 -1.453125 C 39.53125 -1.265625 39.5625 -1.109375 39.5625 -0.984375 C 39.5625 -0.328125 39.078125 0 38.109375 0 L 25.046875 0 C 24.148438 0 23.515625 -0.453125 23.140625 -1.359375 L 16.515625 -17.96875 L 14.234375 -1.640625 C 14.078125 -0.546875 13.46875 0 12.40625 0 L 2.75 0 C 1.914062 0 1.5 -0.390625 1.5 -1.171875 C 1.5 -1.328125 1.515625 -1.453125 1.546875 -1.546875 L 7.84375 -39.1875 L 1.90625 -55.046875 C 1.78125 -55.328125 1.71875 -55.59375 1.71875 -55.84375 C 1.71875 -56.375 2 -56.640625 2.5625 -56.640625 L 15.671875 -56.640625 C 16.515625 -56.640625 17.125 -56.140625 17.5 -55.140625 L 23.984375 -38.484375 L 26.734375 -55.140625 C 26.890625 -56.140625 27.429688 -56.640625 28.359375 -56.640625 L 38.578125 -56.640625 C 39.390625 -56.640625 39.796875 -56.234375 39.796875 -55.421875 Z M 39.796875 -55.421875 "/></g></g><g transform="translate(444.676807, 107.83158)"><g><path d="M 23.046875 -62.46875 C 23.046875 -62.09375 23.015625 -61.75 22.953125 -61.4375 L 17.3125 -38.484375 C 17.0625 -37.554688 16.40625 -37.09375 15.34375 -37.09375 C 13.914062 -37.09375 13.203125 -37.789062 13.203125 -39.1875 L 13.203125 -61.25 C 13.203125 -62.96875 13.734375 -63.828125 14.796875 -63.828125 L 21.96875 -63.828125 C 22.6875 -63.828125 23.046875 -63.375 23.046875 -62.46875 Z M 11.890625 -62.46875 C 11.890625 -62.15625 11.84375 -61.8125 11.75 -61.4375 L 6.109375 -38.484375 C 5.859375 -37.554688 5.191406 -37.09375 4.109375 -37.09375 C 2.640625 -37.09375 1.90625 -37.789062 1.90625 -39.1875 L 1.90625 -61.25 C 1.90625 -62.96875 2.484375 -63.828125 3.640625 -63.828125 L 10.78125 -63.828125 C 11.519531 -63.828125 11.890625 -63.375 11.890625 -62.46875 Z M 11.890625 -62.46875 "/></g></g><g transform="translate(469.030136, 107.83158)"><g><path d="M 27.53125 -1.71875 C 27.53125 -0.570312 26.921875 0 25.703125 0 L 16.796875 0 C 15.703125 0 15.140625 -0.570312 15.109375 -1.71875 L 14.796875 -6.765625 L 4.203125 1.90625 C 3.859375 2.15625 3.53125 2.28125 3.21875 2.28125 C 2.34375 2.28125 1.90625 1.753906 1.90625 0.703125 L 1.90625 0.46875 L 3.265625 -16.703125 C 3.359375 -17.847656 3.960938 -18.78125 5.078125 -19.5 L 13.390625 -24.71875 L 12.59375 -36.484375 C 12.53125 -37.140625 12.21875 -37.46875 11.65625 -37.46875 L 7.84375 -37.46875 C 6.3125 -37.46875 5.546875 -38.039062 5.546875 -39.1875 L 5.546875 -39.5625 L 6.578125 -54.765625 C 6.671875 -56.015625 7.273438 -56.640625 8.390625 -56.640625 L 22.53125 -56.640625 C 23.65625 -56.640625 24.265625 -55.96875 24.359375 -54.625 L 27.53125 -2 Z M 27.53125 -1.71875 "/></g></g><g transform="translate(498.422086, 107.83158)"><g><path d="M 37.46875 -2.140625 C 37.46875 -0.710938 36.828125 0 35.546875 0 L 26.96875 0 C 25.5625 0 24.8125 -0.789062 24.71875 -2.375 L 22.71875 -36.015625 C 22.65625 -37.046875 22.222656 -37.5625 21.421875 -37.5625 L 6.765625 -37.5625 C 5.304688 -37.5625 4.578125 -38.382812 4.578125 -40.03125 L 4.578125 -40.3125 L 5.359375 -54.359375 C 5.453125 -55.878906 6.28125 -56.640625 7.84375 -56.640625 L 32.28125 -56.640625 C 33.71875 -56.640625 34.484375 -55.816406 34.578125 -54.171875 L 37.46875 -2.375 Z M 15.671875 -24.8125 L 15.015625 -2.1875 C 14.953125 -0.726562 14.175781 0 12.6875 0 L 4.578125 0 C 3.296875 0 2.65625 -0.742188 2.65625 -2.234375 L 2.65625 -2.375 L 3.546875 -25.046875 C 3.578125 -26.578125 4.429688 -27.34375 6.109375 -27.34375 L 13.484375 -27.34375 C 14.941406 -27.34375 15.671875 -26.5625 15.671875 -25 Z M 15.671875 -24.8125 "/></g></g><g transform="translate(538.591083, 107.83158)"><g/></g><g transform="translate(559.725295, 107.83158)"><g><path d="M 37.84375 -54.53125 L 34.65625 -2 C 34.570312 -0.664062 33.90625 0 32.65625 0 L 4.015625 0 C 2.859375 0 2.28125 -0.617188 2.28125 -1.859375 L 2.28125 -2 L 3.546875 -17.21875 C 3.640625 -18.488281 4.335938 -19.125 5.640625 -19.125 L 7.65625 -19.125 L 4.578125 -54.53125 L 4.578125 -54.8125 C 4.578125 -55.96875 5.148438 -56.546875 6.296875 -56.546875 L 15.109375 -56.546875 C 16.390625 -56.546875 17.09375 -55.875 17.21875 -54.53125 L 20.25 -19.03125 L 22.0625 -19.03125 C 22.71875 -19.03125 23.078125 -19.4375 23.140625 -20.25 L 25.421875 -54.53125 C 25.515625 -55.875 26.1875 -56.546875 27.4375 -56.546875 L 36.015625 -56.546875 C 37.234375 -56.546875 37.84375 -55.953125 37.84375 -54.765625 Z M 37.84375 -54.53125 "/></g></g><g transform="translate(600.267524, 107.83158)"><g><path d="M 18.703125 -1.90625 C 18.703125 -0.632812 18.238281 0 17.3125 0 L 7.84375 0 C 6.6875 0 6.109375 -0.632812 6.109375 -1.90625 L 6.109375 -36.671875 C 6.109375 -37.265625 5.890625 -37.5625 5.453125 -37.5625 L 4.9375 -37.5625 C 4.164062 -37.5625 3.734375 -38.195312 3.640625 -39.46875 L 2.65625 -54.53125 L 2.65625 -54.671875 C 2.65625 -55.984375 3.265625 -56.640625 4.484375 -56.640625 L 16.796875 -56.640625 C 18.066406 -56.640625 18.703125 -55.9375 18.703125 -54.53125 Z M 18.703125 -1.90625 "/></g></g><g transform="translate(622.008235, 107.83158)"><g><path d="M 31.34375 -1.90625 C 31.34375 -0.632812 30.832031 0 29.8125 0 L 20.4375 0 C 19.21875 0 18.609375 -0.632812 18.609375 -1.90625 L 18.609375 -36.578125 C 18.609375 -37.234375 18.269531 -37.5625 17.59375 -37.5625 L 4.765625 -37.5625 C 3.453125 -37.5625 2.78125 -38.164062 2.75 -39.375 L 1.8125 -54.53125 L 1.8125 -54.671875 C 1.8125 -55.984375 2.421875 -56.640625 3.640625 -56.640625 L 29.4375 -56.640625 C 30.707031 -56.640625 31.34375 -55.9375 31.34375 -54.53125 Z M 31.34375 -1.90625 "/></g></g><g transform="translate(657.185266, 107.83158)"><g><path d="M 19.59375 -24.453125 C 19.59375 -23.171875 19.082031 -22.53125 18.0625 -22.53125 L 8.671875 -22.53125 C 7.554688 -22.53125 7 -23.171875 7 -24.453125 L 7 -36.578125 C 7 -37.234375 6.671875 -37.5625 6.015625 -37.5625 L 5.265625 -37.5625 C 4.273438 -37.5625 3.734375 -38.195312 3.640625 -39.46875 L 2.65625 -54.53125 L 2.65625 -54.71875 C 2.65625 -56 3.265625 -56.640625 4.484375 -56.640625 L 17.6875 -56.640625 C 18.957031 -56.640625 19.59375 -55.9375 19.59375 -54.53125 Z M 19.59375 -24.453125 "/></g></g><g transform="translate(679.765748, 107.83158)"><g><path d="M 39.796875 -55.421875 C 39.796875 -55.171875 39.78125 -54.984375 39.75 -54.859375 L 33.265625 -17.21875 L 39.46875 -1.453125 C 39.53125 -1.265625 39.5625 -1.109375 39.5625 -0.984375 C 39.5625 -0.328125 39.078125 0 38.109375 0 L 25.046875 0 C 24.148438 0 23.515625 -0.453125 23.140625 -1.359375 L 16.515625 -17.96875 L 14.234375 -1.640625 C 14.078125 -0.546875 13.46875 0 12.40625 0 L 2.75 0 C 1.914062 0 1.5 -0.390625 1.5 -1.171875 C 1.5 -1.328125 1.515625 -1.453125 1.546875 -1.546875 L 7.84375 -39.1875 L 1.90625 -55.046875 C 1.78125 -55.328125 1.71875 -55.59375 1.71875 -55.84375 C 1.71875 -56.375 2 -56.640625 2.5625 -56.640625 L 15.671875 -56.640625 C 16.515625 -56.640625 17.125 -56.140625 17.5 -55.140625 L 23.984375 -38.484375 L 26.734375 -55.140625 C 26.890625 -56.140625 27.429688 -56.640625 28.359375 -56.640625 L 38.578125 -56.640625 C 39.390625 -56.640625 39.796875 -56.234375 39.796875 -55.421875 Z M 39.796875 -55.421875 "/></g></g><g transform="translate(721.147747, 107.83158)"><g><path d="M 34.65625 -1.71875 C 34.65625 -0.570312 34.191406 0 33.265625 0 L 2.84375 0 C 1.851562 0 1.359375 -0.515625 1.359375 -1.546875 L 1.359375 -1.71875 L 2.09375 -17.40625 C 2.125 -18.550781 2.671875 -19.125 3.734375 -19.125 L 17.78125 -19.125 L 16.703125 -36.484375 C 16.640625 -37.140625 16.359375 -37.46875 15.859375 -37.46875 L 5.921875 -37.46875 C 4.835938 -37.46875 4.296875 -38.054688 4.296875 -39.234375 L 4.296875 -39.375 L 4.9375 -54.953125 C 4.96875 -56.078125 5.65625 -56.640625 7 -56.640625 L 26.453125 -56.640625 C 27.660156 -56.640625 28.296875 -56.046875 28.359375 -54.859375 L 30.46875 -19.125 L 32.28125 -19.125 C 33.3125 -19.125 33.859375 -18.488281 33.921875 -17.21875 L 34.65625 -1.8125 Z M 34.65625 -1.71875 "/></g></g><g transform="translate(757.164548, 107.83158)"><g/></g><g transform="translate(778.29876, 107.83158)"><g><path d="M 41.5625 -1.765625 C 41.5625 -0.585938 40.988281 0 39.84375 0 L 31.34375 0 C 30.039062 0 29.34375 -0.664062 29.25 -2 L 26.734375 -36.390625 C 26.671875 -37.109375 26.328125 -37.46875 25.703125 -37.46875 L 21.140625 -37.46875 C 20.484375 -37.46875 20.125 -37.109375 20.0625 -36.390625 L 18.328125 -2 C 18.296875 -0.664062 17.628906 0 16.328125 0 L 4.015625 0 C 2.796875 0 2.1875 -0.648438 2.1875 -1.953125 L 2.1875 -2 L 2.9375 -17.03125 C 2.96875 -18.425781 3.609375 -19.125 4.859375 -19.125 L 6.203125 -19.125 C 6.859375 -19.125 7.21875 -19.4375 7.28125 -20.0625 L 8.21875 -36.484375 L 8.21875 -36.625 C 8.21875 -37.1875 7.9375 -37.46875 7.375 -37.46875 L 5.734375 -37.46875 C 4.398438 -37.46875 3.703125 -38.195312 3.640625 -39.65625 L 2.9375 -54.53125 L 2.9375 -54.8125 C 2.9375 -56.03125 3.515625 -56.640625 4.671875 -56.640625 L 36.390625 -56.640625 C 37.628906 -56.640625 38.296875 -55.9375 38.390625 -54.53125 L 41.5625 -2 Z M 41.5625 -1.765625 "/></g></g><g transform="translate(822.573299, 107.83158)"><g><path d="M 18.703125 -1.90625 C 18.703125 -0.632812 18.238281 0 17.3125 0 L 7.84375 0 C 6.6875 0 6.109375 -0.632812 6.109375 -1.90625 L 6.109375 -36.671875 C 6.109375 -37.265625 5.890625 -37.5625 5.453125 -37.5625 L 4.9375 -37.5625 C 4.164062 -37.5625 3.734375 -38.195312 3.640625 -39.46875 L 2.65625 -54.53125 L 2.65625 -54.671875 C 2.65625 -55.984375 3.265625 -56.640625 4.484375 -56.640625 L 16.796875 -56.640625 C 18.066406 -56.640625 18.703125 -55.9375 18.703125 -54.53125 Z M 18.703125 -1.90625 "/></g></g><g transform="translate(844.314011, 107.83158)"><g><path d="M 19.59375 -24.453125 C 19.59375 -23.171875 19.082031 -22.53125 18.0625 -22.53125 L 8.671875 -22.53125 C 7.554688 -22.53125 7 -23.171875 7 -24.453125 L 7 -36.578125 C 7 -37.234375 6.671875 -37.5625 6.015625 -37.5625 L 5.265625 -37.5625 C 4.273438 -37.5625 3.734375 -38.195312 3.640625 -39.46875 L 2.65625 -54.53125 L 2.65625 -54.71875 C 2.65625 -56 3.265625 -56.640625 4.484375 -56.640625 L 17.6875 -56.640625 C 18.957031 -56.640625 19.59375 -55.9375 19.59375 -54.53125 Z M 19.59375 -24.453125 "/></g></g><g transform="translate(866.894493, 107.83158)"><g><path d="M 18.703125 -1.90625 C 18.703125 -0.632812 18.238281 0 17.3125 0 L 7.84375 0 C 6.6875 0 6.109375 -0.632812 6.109375 -1.90625 L 6.109375 -36.671875 C 6.109375 -37.265625 5.890625 -37.5625 5.453125 -37.5625 L 4.9375 -37.5625 C 4.164062 -37.5625 3.734375 -38.195312 3.640625 -39.46875 L 2.65625 -54.53125 L 2.65625 -54.671875 C 2.65625 -55.984375 3.265625 -56.640625 4.484375 -56.640625 L 16.796875 -56.640625 C 18.066406 -56.640625 18.703125 -55.9375 18.703125 -54.53125 Z M 18.703125 -1.90625 "/></g></g><g transform="translate(888.635204, 107.83158)"><g><path d="M 33.640625 -1.859375 C 33.640625 -0.617188 33.03125 0 31.8125 0 L 3.640625 0 C 2.484375 0 1.90625 -0.570312 1.90625 -1.71875 L 1.90625 -2 L 3.265625 -17.21875 C 3.421875 -18.488281 4.117188 -19.125 5.359375 -19.125 L 19.21875 -19.125 C 19.90625 -19.125 20.25 -19.453125 20.25 -20.109375 L 20.25 -20.25 L 19.21875 -36.578125 C 19.1875 -37.171875 18.890625 -37.46875 18.328125 -37.46875 L 5.265625 -37.46875 C 4.054688 -37.46875 3.453125 -38.023438 3.453125 -39.140625 L 3.453125 -39.28125 L 4.484375 -54.53125 C 4.578125 -55.9375 5.273438 -56.640625 6.578125 -56.640625 L 28.453125 -56.640625 C 29.703125 -56.640625 30.375 -55.9375 30.46875 -54.53125 L 33.640625 -2 Z M 33.640625 -1.859375 "/></g></g><g transform="translate(924.978582, 107.83158)"><g><path d="M 40.40625 -1.859375 C 40.40625 -0.617188 39.796875 0 38.578125 0 L 21.140625 0 C 19.921875 0 19.3125 -0.632812 19.3125 -1.90625 L 19.3125 -2 L 20.15625 -16.796875 C 20.25 -18.347656 20.914062 -19.125 22.15625 -19.125 L 25.796875 -19.125 C 26.390625 -19.125 26.6875 -19.421875 26.6875 -20.015625 C 26.6875 -20.140625 26.671875 -20.21875 26.640625 -20.25 L 25.609375 -36.390625 C 25.578125 -37.171875 25.222656 -37.5625 24.546875 -37.5625 L 18.515625 -37.5625 C 17.867188 -37.5625 17.53125 -37.171875 17.5 -36.390625 L 15.390625 -2 C 15.296875 -0.664062 14.628906 0 13.390625 0 L 4.484375 0 C 3.265625 0 2.65625 -0.632812 2.65625 -1.90625 L 2.65625 -2 L 6.015625 -54.53125 C 6.109375 -55.9375 6.8125 -56.640625 8.125 -56.640625 L 35.078125 -56.640625 C 36.328125 -56.640625 37 -55.9375 37.09375 -54.53125 L 40.40625 -2 Z M 40.40625 -1.859375 "/></g></g><g transform="translate(968.086775, 107.83158)"><g><path d="M 40.21875 -54.625 L 37.09375 -2.09375 C 37 -0.695312 36.296875 0 34.984375 0 L 7.75 0 C 6.5 0 5.828125 -0.695312 5.734375 -2.09375 L 2.5625 -54.625 L 2.5625 -54.859375 C 2.5625 -56.046875 3.171875 -56.640625 4.390625 -56.640625 L 38.390625 -56.640625 C 39.609375 -56.640625 40.21875 -56.015625 40.21875 -54.765625 Z M 26.640625 -36.765625 C 26.640625 -37.359375 26.359375 -37.65625 25.796875 -37.65625 L 16.890625 -37.65625 C 16.328125 -37.65625 16.046875 -37.375 16.046875 -36.8125 L 16.046875 -36.671875 L 17.40625 -19.78125 C 17.4375 -19.40625 17.65625 -19.21875 18.0625 -19.21875 L 24.953125 -19.21875 C 25.390625 -19.21875 25.640625 -19.40625 25.703125 -19.78125 L 26.640625 -36.671875 Z M 26.640625 -36.765625 "/></g></g><g transform="translate(1011.055005, 107.83158)"><g><path d="M 37.46875 -2.140625 C 37.46875 -0.710938 36.828125 0 35.546875 0 L 26.96875 0 C 25.5625 0 24.8125 -0.789062 24.71875 -2.375 L 22.71875 -36.015625 C 22.65625 -37.046875 22.222656 -37.5625 21.421875 -37.5625 L 6.765625 -37.5625 C 5.304688 -37.5625 4.578125 -38.382812 4.578125 -40.03125 L 4.578125 -40.3125 L 5.359375 -54.359375 C 5.453125 -55.878906 6.28125 -56.640625 7.84375 -56.640625 L 32.28125 -56.640625 C 33.71875 -56.640625 34.484375 -55.816406 34.578125 -54.171875 L 37.46875 -2.375 Z M 15.671875 -24.8125 L 15.015625 -2.1875 C 14.953125 -0.726562 14.175781 0 12.6875 0 L 4.578125 0 C 3.296875 0 2.65625 -0.742188 2.65625 -2.234375 L 2.65625 -2.375 L 3.546875 -25.046875 C 3.578125 -26.578125 4.429688 -27.34375 6.109375 -27.34375 L 13.484375 -27.34375 C 14.941406 -27.34375 15.671875 -26.5625 15.671875 -25 Z M 15.671875 -24.8125 "/></g></g></g><g fill="#f8f6e9" fill-opacity="1"><g transform="translate(344.487146, 103.608952)"><g><path d="M 31.4375 -24.078125 C 31.4375 -22.796875 30.769531 -22.15625 29.4375 -22.15625 L 4.015625 -22.15625 C 2.671875 -22.15625 2 -22.796875 2 -24.078125 L 2 -31.625 C 2 -32.90625 2.671875 -33.546875 4.015625 -33.546875 L 29.4375 -33.546875 C 30.769531 -33.546875 31.4375 -32.90625 31.4375 -31.625 Z M 31.4375 -24.078125 "/></g></g><g transform="translate(377.937984, 103.608952)"><g/></g><g transform="translate(399.072195, 103.608952)"><g><path d="M 39.796875 -55.421875 C 39.796875 -55.171875 39.78125 -54.984375 39.75 -54.859375 L 33.265625 -17.21875 L 39.46875 -1.453125 C 39.53125 -1.265625 39.5625 -1.109375 39.5625 -0.984375 C 39.5625 -0.328125 39.078125 0 38.109375 0 L 25.046875 0 C 24.148438 0 23.515625 -0.453125 23.140625 -1.359375 L 16.515625 -17.96875 L 14.234375 -1.640625 C 14.078125 -0.546875 13.46875 0 12.40625 0 L 2.75 0 C 1.914062 0 1.5 -0.390625 1.5 -1.171875 C 1.5 -1.328125 1.515625 -1.453125 1.546875 -1.546875 L 7.84375 -39.1875 L 1.90625 -55.046875 C 1.78125 -55.328125 1.71875 -55.59375 1.71875 -55.84375 C 1.71875 -56.375 2 -56.640625 2.5625 -56.640625 L 15.671875 -56.640625 C 16.515625 -56.640625 17.125 -56.140625 17.5 -55.140625 L 23.984375 -38.484375 L 26.734375 -55.140625 C 26.890625 -56.140625 27.429688 -56.640625 28.359375 -56.640625 L 38.578125 -56.640625 C 39.390625 -56.640625 39.796875 -56.234375 39.796875 -55.421875 Z M 39.796875 -55.421875 "/></g></g><g transform="translate(440.454194, 103.608952)"><g><path d="M 23.046875 -62.46875 C 23.046875 -62.09375 23.015625 -61.75 22.953125 -61.4375 L 17.3125 -38.484375 C 17.0625 -37.554688 16.40625 -37.09375 15.34375 -37.09375 C 13.914062 -37.09375 13.203125 -37.789062 13.203125 -39.1875 L 13.203125 -61.25 C 13.203125 -62.96875 13.734375 -63.828125 14.796875 -63.828125 L 21.96875 -63.828125 C 22.6875 -63.828125 23.046875 -63.375 23.046875 -62.46875 Z M 11.890625 -62.46875 C 11.890625 -62.15625 11.84375 -61.8125 11.75 -61.4375 L 6.109375 -38.484375 C 5.859375 -37.554688 5.191406 -37.09375 4.109375 -37.09375 C 2.640625 -37.09375 1.90625 -37.789062 1.90625 -39.1875 L 1.90625 -61.25 C 1.90625 -62.96875 2.484375 -63.828125 3.640625 -63.828125 L 10.78125 -63.828125 C 11.519531 -63.828125 11.890625 -63.375 11.890625 -62.46875 Z M 11.890625 -62.46875 "/></g></g><g transform="translate(464.807523, 103.608952)"><g><path d="M 27.53125 -1.71875 C 27.53125 -0.570312 26.921875 0 25.703125 0 L 16.796875 0 C 15.703125 0 15.140625 -0.570312 15.109375 -1.71875 L 14.796875 -6.765625 L 4.203125 1.90625 C 3.859375 2.15625 3.53125 2.28125 3.21875 2.28125 C 2.34375 2.28125 1.90625 1.753906 1.90625 0.703125 L 1.90625 0.46875 L 3.265625 -16.703125 C 3.359375 -17.847656 3.960938 -18.78125 5.078125 -19.5 L 13.390625 -24.71875 L 12.59375 -36.484375 C 12.53125 -37.140625 12.21875 -37.46875 11.65625 -37.46875 L 7.84375 -37.46875 C 6.3125 -37.46875 5.546875 -38.039062 5.546875 -39.1875 L 5.546875 -39.5625 L 6.578125 -54.765625 C 6.671875 -56.015625 7.273438 -56.640625 8.390625 -56.640625 L 22.53125 -56.640625 C 23.65625 -56.640625 24.265625 -55.96875 24.359375 -54.625 L 27.53125 -2 Z M 27.53125 -1.71875 "/></g></g><g transform="translate(494.199472, 103.608952)"><g><path d="M 37.46875 -2.140625 C 37.46875 -0.710938 36.828125 0 35.546875 0 L 26.96875 0 C 25.5625 0 24.8125 -0.789062 24.71875 -2.375 L 22.71875 -36.015625 C 22.65625 -37.046875 22.222656 -37.5625 21.421875 -37.5625 L 6.765625 -37.5625 C 5.304688 -37.5625 4.578125 -38.382812 4.578125 -40.03125 L 4.578125 -40.3125 L 5.359375 -54.359375 C 5.453125 -55.878906 6.28125 -56.640625 7.84375 -56.640625 L 32.28125 -56.640625 C 33.71875 -56.640625 34.484375 -55.816406 34.578125 -54.171875 L 37.46875 -2.375 Z M 15.671875 -24.8125 L 15.015625 -2.1875 C 14.953125 -0.726562 14.175781 0 12.6875 0 L 4.578125 0 C 3.296875 0 2.65625 -0.742188 2.65625 -2.234375 L 2.65625 -2.375 L 3.546875 -25.046875 C 3.578125 -26.578125 4.429688 -27.34375 6.109375 -27.34375 L 13.484375 -27.34375 C 14.941406 -27.34375 15.671875 -26.5625 15.671875 -25 Z M 15.671875 -24.8125 "/></g></g><g transform="translate(534.36847, 103.608952)"><g/></g><g transform="translate(555.502681, 103.608952)"><g><path d="M 37.84375 -54.53125 L 34.65625 -2 C 34.570312 -0.664062 33.90625 0 32.65625 0 L 4.015625 0 C 2.859375 0 2.28125 -0.617188 2.28125 -1.859375 L 2.28125 -2 L 3.546875 -17.21875 C 3.640625 -18.488281 4.335938 -19.125 5.640625 -19.125 L 7.65625 -19.125 L 4.578125 -54.53125 L 4.578125 -54.8125 C 4.578125 -55.96875 5.148438 -56.546875 6.296875 -56.546875 L 15.109375 -56.546875 C 16.390625 -56.546875 17.09375 -55.875 17.21875 -54.53125 L 20.25 -19.03125 L 22.0625 -19.03125 C 22.71875 -19.03125 23.078125 -19.4375 23.140625 -20.25 L 25.421875 -54.53125 C 25.515625 -55.875 26.1875 -56.546875 27.4375 -56.546875 L 36.015625 -56.546875 C 37.234375 -56.546875 37.84375 -55.953125 37.84375 -54.765625 Z M 37.84375 -54.53125 "/></g></g><g transform="translate(596.04491, 103.608952)"><g><path d="M 18.703125 -1.90625 C 18.703125 -0.632812 18.238281 0 17.3125 0 L 7.84375 0 C 6.6875 0 6.109375 -0.632812 6.109375 -1.90625 L 6.109375 -36.671875 C 6.109375 -37.265625 5.890625 -37.5625 5.453125 -37.5625 L 4.9375 -37.5625 C 4.164062 -37.5625 3.734375 -38.195312 3.640625 -39.46875 L 2.65625 -54.53125 L 2.65625 -54.671875 C 2.65625 -55.984375 3.265625 -56.640625 4.484375 -56.640625 L 16.796875 -56.640625 C 18.066406 -56.640625 18.703125 -55.9375 18.703125 -54.53125 Z M 18.703125 -1.90625 "/></g></g><g transform="translate(617.785621, 103.608952)"><g><path d="M 31.34375 -1.90625 C 31.34375 -0.632812 30.832031 0 29.8125 0 L 20.4375 0 C 19.21875 0 18.609375 -0.632812 18.609375 -1.90625 L 18.609375 -36.578125 C 18.609375 -37.234375 18.269531 -37.5625 17.59375 -37.5625 L 4.765625 -37.5625 C 3.453125 -37.5625 2.78125 -38.164062 2.75 -39.375 L 1.8125 -54.53125 L 1.8125 -54.671875 C 1.8125 -55.984375 2.421875 -56.640625 3.640625 -56.640625 L 29.4375 -56.640625 C 30.707031 -56.640625 31.34375 -55.9375 31.34375 -54.53125 Z M 31.34375 -1.90625 "/></g></g><g transform="translate(652.962652, 103.608952)"><g><path d="M 19.59375 -24.453125 C 19.59375 -23.171875 19.082031 -22.53125 18.0625 -22.53125 L 8.671875 -22.53125 C 7.554688 -22.53125 7 -23.171875 7 -24.453125 L 7 -36.578125 C 7 -37.234375 6.671875 -37.5625 6.015625 -37.5625 L 5.265625 -37.5625 C 4.273438 -37.5625 3.734375 -38.195312 3.640625 -39.46875 L 2.65625 -54.53125 L 2.65625 -54.71875 C 2.65625 -56 3.265625 -56.640625 4.484375 -56.640625 L 17.6875 -56.640625 C 18.957031 -56.640625 19.59375 -55.9375 19.59375 -54.53125 Z M 19.59375 -24.453125 "/></g></g><g transform="translate(675.543134, 103.608952)"><g><path d="M 39.796875 -55.421875 C 39.796875 -55.171875 39.78125 -54.984375 39.75 -54.859375 L 33.265625 -17.21875 L 39.46875 -1.453125 C 39.53125 -1.265625 39.5625 -1.109375 39.5625 -0.984375 C 39.5625 -0.328125 39.078125 0 38.109375 0 L 25.046875 0 C 24.148438 0 23.515625 -0.453125 23.140625 -1.359375 L 16.515625 -17.96875 L 14.234375 -1.640625 C 14.078125 -0.546875 13.46875 0 12.40625 0 L 2.75 0 C 1.914062 0 1.5 -0.390625 1.5 -1.171875 C 1.5 -1.328125 1.515625 -1.453125 1.546875 -1.546875 L 7.84375 -39.1875 L 1.90625 -55.046875 C 1.78125 -55.328125 1.71875 -55.59375 1.71875 -55.84375 C 1.71875 -56.375 2 -56.640625 2.5625 -56.640625 L 15.671875 -56.640625 C 16.515625 -56.640625 17.125 -56.140625 17.5 -55.140625 L 23.984375 -38.484375 L 26.734375 -55.140625 C 26.890625 -56.140625 27.429688 -56.640625 28.359375 -56.640625 L 38.578125 -56.640625 C 39.390625 -56.640625 39.796875 -56.234375 39.796875 -55.421875 Z M 39.796875 -55.421875 "/></g></g><g transform="translate(716.925133, 103.608952)"><g><path d="M 34.65625 -1.71875 C 34.65625 -0.570312 34.191406 0 33.265625 0 L 2.84375 0 C 1.851562 0 1.359375 -0.515625 1.359375 -1.546875 L 1.359375 -1.71875 L 2.09375 -17.40625 C 2.125 -18.550781 2.671875 -19.125 3.734375 -19.125 L 17.78125 -19.125 L 16.703125 -36.484375 C 16.640625 -37.140625 16.359375 -37.46875 15.859375 -37.46875 L 5.921875 -37.46875 C 4.835938 -37.46875 4.296875 -38.054688 4.296875 -39.234375 L 4.296875 -39.375 L 4.9375 -54.953125 C 4.96875 -56.078125 5.65625 -56.640625 7 -56.640625 L 26.453125 -56.640625 C 27.660156 -56.640625 28.296875 -56.046875 28.359375 -54.859375 L 30.46875 -19.125 L 32.28125 -19.125 C 33.3125 -19.125 33.859375 -18.488281 33.921875 -17.21875 L 34.65625 -1.8125 Z M 34.65625 -1.71875 "/></g></g><g transform="translate(752.941935, 103.608952)"><g/></g><g transform="translate(774.076146, 103.608952)"><g><path d="M 41.5625 -1.765625 C 41.5625 -0.585938 40.988281 0 39.84375 0 L 31.34375 0 C 30.039062 0 29.34375 -0.664062 29.25 -2 L 26.734375 -36.390625 C 26.671875 -37.109375 26.328125 -37.46875 25.703125 -37.46875 L 21.140625 -37.46875 C 20.484375 -37.46875 20.125 -37.109375 20.0625 -36.390625 L 18.328125 -2 C 18.296875 -0.664062 17.628906 0 16.328125 0 L 4.015625 0 C 2.796875 0 2.1875 -0.648438 2.1875 -1.953125 L 2.1875 -2 L 2.9375 -17.03125 C 2.96875 -18.425781 3.609375 -19.125 4.859375 -19.125 L 6.203125 -19.125 C 6.859375 -19.125 7.21875 -19.4375 7.28125 -20.0625 L 8.21875 -36.484375 L 8.21875 -36.625 C 8.21875 -37.1875 7.9375 -37.46875 7.375 -37.46875 L 5.734375 -37.46875 C 4.398438 -37.46875 3.703125 -38.195312 3.640625 -39.65625 L 2.9375 -54.53125 L 2.9375 -54.8125 C 2.9375 -56.03125 3.515625 -56.640625 4.671875 -56.640625 L 36.390625 -56.640625 C 37.628906 -56.640625 38.296875 -55.9375 38.390625 -54.53125 L 41.5625 -2 Z M 41.5625 -1.765625 "/></g></g><g transform="translate(818.350686, 103.608952)"><g><path d="M 18.703125 -1.90625 C 18.703125 -0.632812 18.238281 0 17.3125 0 L 7.84375 0 C 6.6875 0 6.109375 -0.632812 6.109375 -1.90625 L 6.109375 -36.671875 C 6.109375 -37.265625 5.890625 -37.5625 5.453125 -37.5625 L 4.9375 -37.5625 C 4.164062 -37.5625 3.734375 -38.195312 3.640625 -39.46875 L 2.65625 -54.53125 L 2.65625 -54.671875 C 2.65625 -55.984375 3.265625 -56.640625 4.484375 -56.640625 L 16.796875 -56.640625 C 18.066406 -56.640625 18.703125 -55.9375 18.703125 -54.53125 Z M 18.703125 -1.90625 "/></g></g><g transform="translate(840.091397, 103.608952)"><g><path d="M 19.59375 -24.453125 C 19.59375 -23.171875 19.082031 -22.53125 18.0625 -22.53125 L 8.671875 -22.53125 C 7.554688 -22.53125 7 -23.171875 7 -24.453125 L 7 -36.578125 C 7 -37.234375 6.671875 -37.5625 6.015625 -37.5625 L 5.265625 -37.5625 C 4.273438 -37.5625 3.734375 -38.195312 3.640625 -39.46875 L 2.65625 -54.53125 L 2.65625 -54.71875 C 2.65625 -56 3.265625 -56.640625 4.484375 -56.640625 L 17.6875 -56.640625 C 18.957031 -56.640625 19.59375 -55.9375 19.59375 -54.53125 Z M 19.59375 -24.453125 "/></g></g><g transform="translate(862.671879, 103.608952)"><g><path d="M 18.703125 -1.90625 C 18.703125 -0.632812 18.238281 0 17.3125 0 L 7.84375 0 C 6.6875 0 6.109375 -0.632812 6.109375 -1.90625 L 6.109375 -36.671875 C 6.109375 -37.265625 5.890625 -37.5625 5.453125 -37.5625 L 4.9375 -37.5625 C 4.164062 -37.5625 3.734375 -38.195312 3.640625 -39.46875 L 2.65625 -54.53125 L 2.65625 -54.671875 C 2.65625 -55.984375 3.265625 -56.640625 4.484375 -56.640625 L 16.796875 -56.640625 C 18.066406 -56.640625 18.703125 -55.9375 18.703125 -54.53125 Z M 18.703125 -1.90625 "/></g></g><g transform="translate(884.412591, 103.608952)"><g><path d="M 33.640625 -1.859375 C 33.640625 -0.617188 33.03125 0 31.8125 0 L 3.640625 0 C 2.484375 0 1.90625 -0.570312 1.90625 -1.71875 L 1.90625 -2 L 3.265625 -17.21875 C 3.421875 -18.488281 4.117188 -19.125 5.359375 -19.125 L 19.21875 -19.125 C 19.90625 -19.125 20.25 -19.453125 20.25 -20.109375 L 20.25 -20.25 L 19.21875 -36.578125 C 19.1875 -37.171875 18.890625 -37.46875 18.328125 -37.46875 L 5.265625 -37.46875 C 4.054688 -37.46875 3.453125 -38.023438 3.453125 -39.140625 L 3.453125 -39.28125 L 4.484375 -54.53125 C 4.578125 -55.9375 5.273438 -56.640625 6.578125 -56.640625 L 28.453125 -56.640625 C 29.703125 -56.640625 30.375 -55.9375 30.46875 -54.53125 L 33.640625 -2 Z M 33.640625 -1.859375 "/></g></g><g transform="translate(920.755969, 103.608952)"><g><path d="M 40.40625 -1.859375 C 40.40625 -0.617188 39.796875 0 38.578125 0 L 21.140625 0 C 19.921875 0 19.3125 -0.632812 19.3125 -1.90625 L 19.3125 -2 L 20.15625 -16.796875 C 20.25 -18.347656 20.914062 -19.125 22.15625 -19.125 L 25.796875 -19.125 C 26.390625 -19.125 26.6875 -19.421875 26.6875 -20.015625 C 26.6875 -20.140625 26.671875 -20.21875 26.640625 -20.25 L 25.609375 -36.390625 C 25.578125 -37.171875 25.222656 -37.5625 24.546875 -37.5625 L 18.515625 -37.5625 C 17.867188 -37.5625 17.53125 -37.171875 17.5 -36.390625 L 15.390625 -2 C 15.296875 -0.664062 14.628906 0 13.390625 0 L 4.484375 0 C 3.265625 0 2.65625 -0.632812 2.65625 -1.90625 L 2.65625 -2 L 6.015625 -54.53125 C 6.109375 -55.9375 6.8125 -56.640625 8.125 -56.640625 L 35.078125 -56.640625 C 36.328125 -56.640625 37 -55.9375 37.09375 -54.53125 L 40.40625 -2 Z M 40.40625 -1.859375 "/></g></g><g transform="translate(963.864161, 103.608952)"><g><path d="M 40.21875 -54.625 L 37.09375 -2.09375 C 37 -0.695312 36.296875 0 34.984375 0 L 7.75 0 C 6.5 0 5.828125 -0.695312 5.734375 -2.09375 L 2.5625 -54.625 L 2.5625 -54.859375 C 2.5625 -56.046875 3.171875 -56.640625 4.390625 -56.640625 L 38.390625 -56.640625 C 39.609375 -56.640625 40.21875 -56.015625 40.21875 -54.765625 Z M 26.640625 -36.765625 C 26.640625 -37.359375 26.359375 -37.65625 25.796875 -37.65625 L 16.890625 -37.65625 C 16.328125 -37.65625 16.046875 -37.375 16.046875 -36.8125 L 16.046875 -36.671875 L 17.40625 -19.78125 C 17.4375 -19.40625 17.65625 -19.21875 18.0625 -19.21875 L 24.953125 -19.21875 C 25.390625 -19.21875 25.640625 -19.40625 25.703125 -19.78125 L 26.640625 -36.671875 Z M 26.640625 -36.765625 "/></g></g><g transform="translate(1006.832392, 103.608952)"><g><path d="M 37.46875 -2.140625 C 37.46875 -0.710938 36.828125 0 35.546875 0 L 26.96875 0 C 25.5625 0 24.8125 -0.789062 24.71875 -2.375 L 22.71875 -36.015625 C 22.65625 -37.046875 22.222656 -37.5625 21.421875 -37.5625 L 6.765625 -37.5625 C 5.304688 -37.5625 4.578125 -38.382812 4.578125 -40.03125 L 4.578125 -40.3125 L 5.359375 -54.359375 C 5.453125 -55.878906 6.28125 -56.640625 7.84375 -56.640625 L 32.28125 -56.640625 C 33.71875 -56.640625 34.484375 -55.816406 34.578125 -54.171875 L 37.46875 -2.375 Z M 15.671875 -24.8125 L 15.015625 -2.1875 C 14.953125 -0.726562 14.175781 0 12.6875 0 L 4.578125 0 C 3.296875 0 2.65625 -0.742188 2.65625 -2.234375 L 2.65625 -2.375 L 3.546875 -25.046875 C 3.578125 -26.578125 4.429688 -27.34375 6.109375 -27.34375 L 13.484375 -27.34375 C 14.941406 -27.34375 15.671875 -26.5625 15.671875 -25 Z M 15.671875 -24.8125 "/></g></g></g><g fill="#f8f6e9" fill-opacity="1"><g transform="translate(82.112351, 92.038788)"><g><path d="M 23.96875 -1.0625 C 23.96875 -0.351562 23.617188 0 22.921875 0 L 2.609375 0 C 1.898438 0 1.546875 -0.363281 1.546875 -1.09375 L 1.546875 -1.171875 L 3.453125 -31.8125 C 3.503906 -32.625 3.894531 -33.03125 4.625 -33.03125 L 20.953125 -33.03125 C 21.679688 -33.03125 22.070312 -32.625 22.125 -31.8125 L 23.96875 -1.171875 Z M 16.109375 -11.640625 L 15.328125 -21.53125 C 15.285156 -21.75 15.175781 -21.859375 15 -21.859375 L 10.484375 -21.859375 C 10.203125 -21.859375 10.054688 -21.75 10.046875 -21.53125 L 9.46875 -11.640625 L 9.46875 -11.625 C 9.46875 -11.3125 9.640625 -11.15625 9.984375 -11.15625 L 15.59375 -11.15625 C 15.9375 -11.15625 16.109375 -11.289062 16.109375 -11.5625 Z M 16.109375 -11.640625 "/></g></g></g><g fill="#f8f6e9" fill-opacity="1"><g transform="translate(107.636242, 92.038788)"><g><path d="M 11.4375 -14.265625 C 11.4375 -13.515625 11.132812 -13.140625 10.53125 -13.140625 L 5.0625 -13.140625 C 4.40625 -13.140625 4.078125 -13.515625 4.078125 -14.265625 L 4.078125 -21.328125 C 4.078125 -21.710938 3.890625 -21.90625 3.515625 -21.90625 L 3.078125 -21.90625 C 2.492188 -21.90625 2.175781 -22.273438 2.125 -23.015625 L 1.546875 -31.8125 L 1.546875 -31.921875 C 1.546875 -32.660156 1.898438 -33.03125 2.609375 -33.03125 L 10.3125 -33.03125 C 11.0625 -33.03125 11.4375 -32.625 11.4375 -31.8125 Z M 11.4375 -14.265625 "/></g></g></g><g fill="#f8f6e9" fill-opacity="1"><g transform="translate(120.806352, 92.038788)"><g><path d="M 15.625 -1.0625 C 15.625 -0.351562 15.269531 0 14.5625 0 L 2.125 0 C 1.445312 0 1.109375 -0.351562 1.109375 -1.0625 L 1.109375 -1.171875 L 1.953125 -9.984375 C 2.023438 -10.765625 2.414062 -11.15625 3.125 -11.15625 L 7.125 -11.15625 C 7.539062 -11.15625 7.75 -11.273438 7.75 -11.515625 L 7.75 -11.59375 L 6.96875 -21.390625 C 6.925781 -21.703125 6.71875 -21.859375 6.34375 -21.859375 L 4.84375 -21.859375 C 4.132812 -21.859375 3.78125 -22.210938 3.78125 -22.921875 L 3.78125 -22.96875 L 4.40625 -31.8125 C 4.457031 -32.625 4.867188 -33.03125 5.640625 -33.03125 L 12.59375 -33.03125 C 13.320312 -33.03125 13.710938 -32.625 13.765625 -31.8125 L 15.59375 -1.171875 C 15.613281 -1.148438 15.625 -1.113281 15.625 -1.0625 Z M 15.625 -1.0625 "/></g></g></g><g fill="#f8f6e9" fill-opacity="1"><g transform="translate(137.976475, 92.038788)"><g><path d="M 11.4375 -14.265625 C 11.4375 -13.515625 11.132812 -13.140625 10.53125 -13.140625 L 5.0625 -13.140625 C 4.40625 -13.140625 4.078125 -13.515625 4.078125 -14.265625 L 4.078125 -21.328125 C 4.078125 -21.710938 3.890625 -21.90625 3.515625 -21.90625 L 3.078125 -21.90625 C 2.492188 -21.90625 2.175781 -22.273438 2.125 -23.015625 L 1.546875 -31.8125 L 1.546875 -31.921875 C 1.546875 -32.660156 1.898438 -33.03125 2.609375 -33.03125 L 10.3125 -33.03125 C 11.0625 -33.03125 11.4375 -32.625 11.4375 -31.8125 Z M 11.4375 -14.265625 "/></g></g></g><g fill="#f8f6e9" fill-opacity="1"><g transform="translate(151.146585, 92.038788)"><g><path d="M 22.125 -32.28125 C 22.125 -32.207031 22.117188 -32.132812 22.109375 -32.0625 C 22.097656 -31.988281 22.085938 -31.90625 22.078125 -31.8125 L 17.875 -11.703125 L 21.4375 -1.171875 C 21.5 -1.054688 21.53125 -0.9375 21.53125 -0.8125 C 21.53125 -0.269531 21.285156 0 20.796875 0 L 2.234375 0 C 1.554688 0 1.21875 -0.363281 1.21875 -1.09375 L 1.21875 -1.171875 L 1.953125 -9.84375 C 2.023438 -10.71875 2.453125 -11.15625 3.234375 -11.15625 L 7.75 -11.15625 C 8.0625 -11.15625 8.21875 -11.25 8.21875 -11.4375 C 8.21875 -11.488281 8.207031 -11.519531 8.1875 -11.53125 L 1.109375 -31.8125 C 1.078125 -31.957031 1.0625 -32.082031 1.0625 -32.1875 C 1.0625 -32.75 1.359375 -33.03125 1.953125 -33.03125 L 8.765625 -33.03125 C 9.484375 -33.03125 9.984375 -32.625 10.265625 -31.8125 L 12.984375 -23.5625 L 14.484375 -31.8125 C 14.609375 -32.625 15.097656 -33.03125 15.953125 -33.03125 L 21.28125 -33.03125 C 21.84375 -33.03125 22.125 -32.78125 22.125 -32.28125 Z M 22.125 -32.28125 "/></g></g></g><g fill="#f8f6e9" fill-opacity="1"><g transform="translate(174.275911, 92.038788)"><g><path d="M 22.375 -31.78125 C 22.375 -31.769531 22.375 -31.726562 22.375 -31.65625 C 22.375 -31.582031 22.363281 -31.472656 22.34375 -31.328125 L 20.515625 -2.125 C 20.484375 -1.5625 20.257812 -1.066406 19.84375 -0.640625 C 19.425781 -0.210938 18.941406 0 18.390625 0 L 12.703125 0 C 11.960938 0 11.59375 -0.425781 11.59375 -1.28125 L 11.59375 -10.09375 C 11.59375 -10.800781 12 -11.15625 12.8125 -11.15625 C 13.34375 -11.15625 13.625 -11.425781 13.65625 -11.96875 L 14.421875 -21.125 C 14.441406 -21.15625 14.453125 -21.195312 14.453125 -21.25 C 14.453125 -21.6875 14.28125 -21.90625 13.9375 -21.90625 L 3.234375 -21.90625 C 2.566406 -21.90625 2.210938 -22.273438 2.171875 -23.015625 L 1.65625 -31.546875 L 1.65625 -31.875 C 1.65625 -32.644531 1.992188 -33.03125 2.671875 -33.03125 L 21.53125 -32.984375 C 22.09375 -32.984375 22.375 -32.582031 22.375 -31.78125 Z M 9.84375 4.46875 C 9.84375 5.25 9.421875 5.640625 8.578125 5.640625 L 3.953125 5.640625 C 3.023438 5.640625 2.5625 5.25 2.5625 4.46875 L 2.5625 -14.828125 C 2.5625 -15.578125 3.023438 -15.953125 3.953125 -15.953125 L 8.578125 -15.953125 C 9.421875 -15.953125 9.84375 -15.578125 9.84375 -14.828125 Z M 9.84375 4.46875 "/></g></g></g><g fill="#f8f6e9" fill-opacity="1"><g transform="translate(198.221565, 92.038788)"><g><path d="M 10.90625 -1.109375 C 10.90625 -0.367188 10.632812 0 10.09375 0 L 4.578125 0 C 3.898438 0 3.5625 -0.367188 3.5625 -1.109375 L 3.5625 -21.390625 C 3.5625 -21.734375 3.4375 -21.90625 3.1875 -21.90625 L 2.890625 -21.90625 C 2.429688 -21.90625 2.175781 -22.273438 2.125 -23.015625 L 1.546875 -31.8125 L 1.546875 -31.890625 C 1.546875 -32.648438 1.898438 -33.03125 2.609375 -33.03125 L 9.796875 -33.03125 C 10.535156 -33.03125 10.90625 -32.625 10.90625 -31.8125 Z M 10.90625 -1.109375 "/></g></g></g><g fill="#f8f6e9" fill-opacity="1"><g transform="translate(210.901877, 92.038788)"><g/></g></g><g fill="#f8f6e9" fill-opacity="1"><g transform="translate(223.228447, 92.038788)"><g><path d="M 23.96875 -1.0625 C 23.96875 -0.351562 23.617188 0 22.921875 0 L 2.609375 0 C 1.898438 0 1.546875 -0.363281 1.546875 -1.09375 L 1.546875 -1.171875 L 3.453125 -31.8125 C 3.503906 -32.625 3.894531 -33.03125 4.625 -33.03125 L 20.953125 -33.03125 C 21.679688 -33.03125 22.070312 -32.625 22.125 -31.8125 L 23.96875 -1.171875 Z M 16.109375 -11.640625 L 15.328125 -21.53125 C 15.285156 -21.75 15.175781 -21.859375 15 -21.859375 L 10.484375 -21.859375 C 10.203125 -21.859375 10.054688 -21.75 10.046875 -21.53125 L 9.46875 -11.640625 L 9.46875 -11.625 C 9.46875 -11.3125 9.640625 -11.15625 9.984375 -11.15625 L 15.59375 -11.15625 C 15.9375 -11.15625 16.109375 -11.289062 16.109375 -11.5625 Z M 16.109375 -11.640625 "/></g></g></g><g fill="#f8f6e9" fill-opacity="1"><g transform="translate(248.752338, 92.038788)"><g><path d="M 11.4375 -14.265625 C 11.4375 -13.515625 11.132812 -13.140625 10.53125 -13.140625 L 5.0625 -13.140625 C 4.40625 -13.140625 4.078125 -13.515625 4.078125 -14.265625 L 4.078125 -21.328125 C 4.078125 -21.710938 3.890625 -21.90625 3.515625 -21.90625 L 3.078125 -21.90625 C 2.492188 -21.90625 2.175781 -22.273438 2.125 -23.015625 L 1.546875 -31.8125 L 1.546875 -31.921875 C 1.546875 -32.660156 1.898438 -33.03125 2.609375 -33.03125 L 10.3125 -33.03125 C 11.0625 -33.03125 11.4375 -32.625 11.4375 -31.8125 Z M 11.4375 -14.265625 "/></g></g></g><g fill="#f8f6e9" fill-opacity="1"><g transform="translate(261.922449, 92.038788)"><g><path d="M 19.34375 -31.8125 L 17.546875 -1.171875 C 17.492188 -0.390625 17.109375 0 16.390625 0 L 7.703125 0 C 6.972656 0 6.582031 -0.390625 6.53125 -1.171875 L 6.015625 -9.84375 L 6.015625 -9.984375 C 6.015625 -10.765625 6.367188 -11.15625 7.078125 -11.15625 L 10.421875 -11.15625 C 10.816406 -11.15625 11.023438 -11.351562 11.046875 -11.75 L 11.484375 -21.125 L 11.484375 -21.203125 C 11.484375 -21.640625 11.289062 -21.859375 10.90625 -21.859375 L 2.96875 -21.859375 C 2.21875 -21.859375 1.828125 -22.226562 1.796875 -22.96875 L 0.953125 -38.015625 L 0.953125 -38.234375 C 0.953125 -38.941406 1.25 -39.296875 1.84375 -39.296875 L 7.125 -39.296875 C 7.882812 -39.296875 8.273438 -38.90625 8.296875 -38.125 L 8.515625 -33.765625 C 8.535156 -33.273438 8.742188 -33.03125 9.140625 -33.03125 L 18.28125 -32.984375 C 18.988281 -32.984375 19.34375 -32.644531 19.34375 -31.96875 Z M 19.34375 -31.8125 "/></g></g></g><g fill="#f8f6e9" fill-opacity="1"><g transform="translate(282.820475, 92.038788)"><g><path d="M 11.4375 -14.265625 C 11.4375 -13.515625 11.132812 -13.140625 10.53125 -13.140625 L 5.0625 -13.140625 C 4.40625 -13.140625 4.078125 -13.515625 4.078125 -14.265625 L 4.078125 -21.328125 C 4.078125 -21.710938 3.890625 -21.90625 3.515625 -21.90625 L 3.078125 -21.90625 C 2.492188 -21.90625 2.175781 -22.273438 2.125 -23.015625 L 1.546875 -31.8125 L 1.546875 -31.921875 C 1.546875 -32.660156 1.898438 -33.03125 2.609375 -33.03125 L 10.3125 -33.03125 C 11.0625 -33.03125 11.4375 -32.625 11.4375 -31.8125 Z M 11.4375 -14.265625 "/></g></g></g><g fill="#f8f6e9" fill-opacity="1"><g transform="translate(295.990585, 92.038788)"><g><path d="M 11.4375 -14.265625 C 11.4375 -13.515625 11.132812 -13.140625 10.53125 -13.140625 L 5.0625 -13.140625 C 4.40625 -13.140625 4.078125 -13.515625 4.078125 -14.265625 L 4.078125 -21.328125 C 4.078125 -21.710938 3.890625 -21.90625 3.515625 -21.90625 L 3.078125 -21.90625 C 2.492188 -21.90625 2.175781 -22.273438 2.125 -23.015625 L 1.546875 -31.8125 L 1.546875 -31.921875 C 1.546875 -32.660156 1.898438 -33.03125 2.609375 -33.03125 L 10.3125 -33.03125 C 11.0625 -33.03125 11.4375 -32.625 11.4375 -31.8125 Z M 11.4375 -14.265625 "/></g></g></g><g fill="#f8f6e9" fill-opacity="1"><g transform="translate(309.160695, 92.038788)"><g><path d="M 22.96875 -0.890625 C 22.96875 -0.296875 22.703125 0 22.171875 0 L 16.765625 0 C 16.160156 0 15.832031 -0.390625 15.78125 -1.171875 L 14.375 -21.390625 C 14.332031 -21.703125 14.128906 -21.859375 13.765625 -21.859375 L 10.6875 -21.859375 C 10.414062 -21.859375 10.273438 -21.679688 10.265625 -21.328125 L 8.765625 -1.171875 C 8.710938 -0.390625 8.359375 0 7.703125 0 L 2.453125 0 C 1.847656 0 1.546875 -0.363281 1.546875 -1.09375 L 1.546875 -1.171875 L 3.515625 -31.8125 C 3.566406 -32.625 3.957031 -33.03125 4.6875 -33.03125 L 20.0625 -33.03125 C 20.78125 -33.03125 21.171875 -32.625 21.234375 -31.8125 L 22.96875 -1.171875 Z M 22.96875 -0.890625 "/></g></g></g><g clip-path="url(#a2737b8181)"><g clip-path="url(#89a7255a70)"><g clip-path="url(#8453674a92)"><path fill="#f8f6e9" d="M 1113.683594 27.9375 L 1116.46875 47.167969 L 1133.890625 55.773438 L 1116.453125 64.378906 L 1113.664062 83.609375 L 1100.101562 69.691406 L 1080.933594 72.964844 L 1089.980469 55.765625 L 1080.957031 38.558594 L 1100.105469 41.847656 Z M 1113.683594 27.9375 " fill-opacity="1" fill-rule="nonzero"/><path fill="#f8f6e9" d="M 1113.605469 27.738281 L 1116.402344 46.972656 L 1133.824219 55.578125 L 1116.390625 64.179688 L 1113.589844 83.410156 L 1100.027344 69.492188 L 1080.871094 72.765625 L 1089.917969 55.570312 L 1080.878906 38.355469 L 1100.03125 41.648438 Z M 1113.605469 27.738281 " fill-opacity="1" fill-rule="nonzero"/><path fill="#f8f6e9" d="M 1113.605469 27.738281 L 1116.402344 46.972656 L 1133.824219 55.578125 L 1116.390625 64.179688 L 1113.589844 83.410156 L 1100.027344 69.492188 L 1080.871094 72.765625 L 1089.917969 55.570312 L 1080.878906 38.355469 L 1100.03125 41.648438 Z M 1113.605469 27.738281 " fill-opacity="1" fill-rule="nonzero"/><path fill="#f8f6e9" d="M 1113.605469 27.738281 L 1116.402344 46.972656 L 1133.824219 55.578125 L 1116.390625 64.179688 L 1113.589844 83.410156 L 1100.027344 69.492188 L 1080.871094 72.765625 L 1089.917969 55.570312 L 1080.878906 38.355469 L 1100.03125 41.648438 Z M 1113.605469 27.738281 " fill-opacity="1" fill-rule="nonzero"/></g></g></g><g clip-path="url(#fd69350322)"><g clip-path="url(#1bf55204eb)"><g clip-path="url(#574a721a3b)"><path fill="#f8f6e9" d="M 43.523438 38.5 C 43.917969 39.4375 44.386719 40.332031 44.929688 41.1875 C 45.476562 42.042969 46.089844 42.847656 46.769531 43.597656 C 47.453125 44.351562 48.191406 45.039062 48.992188 45.667969 C 49.789062 46.292969 50.636719 46.847656 51.527344 47.332031 C 52.421875 47.8125 53.347656 48.21875 54.308594 48.542969 C 55.269531 48.871094 56.25 49.113281 57.253906 49.269531 C 58.257812 49.429688 59.265625 49.503906 60.28125 49.492188 C 61.292969 49.480469 62.300781 49.382812 63.300781 49.203125 C 68.128906 48.320312 74.265625 46.855469 82.0625 44.53125 C 74.265625 46.855469 68.328125 48.984375 63.800781 50.890625 C 62.867188 51.28125 61.96875 51.753906 61.113281 52.296875 C 60.257812 52.84375 59.453125 53.457031 58.703125 54.136719 C 57.953125 54.820312 57.261719 55.558594 56.636719 56.359375 C 56.007812 57.15625 55.453125 58.003906 54.972656 58.894531 C 54.488281 59.789062 54.085938 60.714844 53.757812 61.675781 C 53.433594 62.636719 53.191406 63.617188 53.03125 64.621094 C 52.871094 65.621094 52.796875 66.632812 52.808594 67.644531 C 52.820312 68.660156 52.917969 69.667969 53.101562 70.664062 C 53.980469 75.496094 55.449219 81.632812 57.769531 89.425781 C 55.449219 81.632812 53.320312 75.691406 51.414062 71.167969 C 51.019531 70.234375 50.550781 69.335938 50.003906 68.480469 C 49.460938 67.625 48.847656 66.820312 48.164062 66.070312 C 47.484375 65.316406 46.742188 64.628906 45.945312 64.003906 C 45.144531 63.375 44.300781 62.820312 43.40625 62.339844 C 42.515625 61.855469 41.589844 61.453125 40.628906 61.125 C 39.664062 60.800781 38.683594 60.558594 37.683594 60.398438 C 36.679688 60.238281 35.671875 60.164062 34.65625 60.175781 C 33.640625 60.1875 32.636719 60.285156 31.636719 60.46875 C 26.804688 61.347656 20.667969 62.816406 12.875 65.136719 C 20.667969 62.816406 26.609375 60.683594 31.132812 58.78125 C 32.070312 58.386719 32.964844 57.917969 33.820312 57.371094 C 34.675781 56.828125 35.480469 56.214844 36.234375 55.53125 C 36.984375 54.851562 37.671875 54.109375 38.300781 53.3125 C 38.925781 52.511719 39.480469 51.667969 39.964844 50.773438 C 40.445312 49.882812 40.851562 48.953125 41.175781 47.992188 C 41.503906 47.03125 41.746094 46.050781 41.90625 45.046875 C 42.0625 44.046875 42.136719 43.039062 42.125 42.023438 C 42.113281 41.007812 42.015625 40 41.835938 39.003906 C 40.953125 34.171875 39.488281 28.035156 37.167969 20.242188 C 39.488281 28.035156 41.617188 33.976562 43.523438 38.5 Z M 43.523438 38.5 " fill-opacity="1" fill-rule="nonzero"/></g></g></g><g clip-path="url(#dd64a70e4a)"><g clip-path="url(#b5529b832d)"><g clip-path="url(#33e368b74c)"><path fill="#f8f6e9" d="M 36.839844 90.398438 L 43.671875 94.671875 L 51.066406 91.464844 L 49.113281 99.289062 L 54.453125 105.328125 L 46.410156 105.886719 L 42.308594 112.832031 L 39.292969 105.359375 L 31.425781 103.601562 L 37.601562 98.421875 Z M 36.839844 90.398438 " fill-opacity="1" fill-rule="nonzero"/><path fill="#f8f6e9" d="M 36.757812 90.367188 L 43.589844 94.640625 L 50.984375 91.433594 L 49.035156 99.257812 L 54.367188 105.296875 L 46.328125 105.859375 L 42.230469 112.796875 L 39.214844 105.324219 L 31.34375 103.570312 L 37.519531 98.394531 Z M 36.757812 90.367188 " fill-opacity="1" fill-rule="nonzero"/><path fill="#f8f6e9" d="M 36.757812 90.367188 L 43.589844 94.640625 L 50.984375 91.433594 L 49.035156 99.257812 L 54.367188 105.296875 L 46.328125 105.859375 L 42.230469 112.796875 L 39.214844 105.324219 L 31.34375 103.570312 L 37.519531 98.394531 Z M 36.757812 90.367188 " fill-opacity="1" fill-rule="nonzero"/><path fill="#f8f6e9" d="M 36.757812 90.367188 L 43.589844 94.640625 L 50.984375 91.433594 L 49.035156 99.257812 L 54.367188 105.296875 L 46.328125 105.859375 L 42.230469 112.796875 L 39.214844 105.324219 L 31.34375 103.570312 L 37.519531 98.394531 Z M 36.757812 90.367188 " fill-opacity="1" fill-rule="nonzero"/></g></g></g></svg>