<svg xmlns="http://www.w3.org/2000/svg" xmlns:xlink="http://www.w3.org/1999/xlink" width="1572" zoomAndPan="magnify" viewBox="0 0 1179 158.249993" height="211" preserveAspectRatio="xMidYMid meet" version="1.0"><defs><g/><clipPath id="efeefdb183"><path d="M 1116 25 L 1170 25 L 1170 81 L 1116 81 Z M 1116 25 " clip-rule="nonzero"/></clipPath><clipPath id="3f1679bba1"><path d="M 1122.5 16.460938 L 1175.742188 33.777344 L 1159.347656 84.175781 L 1106.109375 66.859375 Z M 1122.5 16.460938 " clip-rule="nonzero"/></clipPath><clipPath id="0e04b29d4e"><path d="M 1122.5 16.460938 L 1175.742188 33.777344 L 1159.347656 84.175781 L 1106.109375 66.859375 Z M 1122.5 16.460938 " clip-rule="nonzero"/></clipPath><clipPath id="683e830fd3"><path d="M 13 20 L 83 20 L 83 90 L 13 90 Z M 13 20 " clip-rule="nonzero"/></clipPath><clipPath id="12c41f8126"><path d="M 2.78125 30.542969 L 72.175781 9.878906 L 92.839844 79.273438 L 23.445312 99.9375 Z M 2.78125 30.542969 " clip-rule="nonzero"/></clipPath><clipPath id="2c317bc8b2"><path d="M 2.78125 30.542969 L 72.175781 9.878906 L 92.839844 79.273438 L 23.445312 99.9375 Z M 2.78125 30.542969 " clip-rule="nonzero"/></clipPath><clipPath id="6c1abcf71c"><path d="M 31 90 L 55 90 L 55 113 L 31 113 Z M 31 90 " clip-rule="nonzero"/></clipPath><clipPath id="ae46962f78"><path d="M 27.136719 96.429688 L 46.824219 84.265625 L 58.59375 103.316406 L 38.910156 115.480469 Z M 27.136719 96.429688 " clip-rule="nonzero"/></clipPath><clipPath id="fea976a877"><path d="M 27.136719 96.429688 L 46.824219 84.265625 L 58.59375 103.316406 L 38.910156 115.480469 Z M 27.136719 96.429688 " clip-rule="nonzero"/></clipPath></defs><g fill="#f8f6e9" fill-opacity="0.4"><g transform="translate(639.218156, 107.83158)"><g/></g></g><g fill="#f8f6e9" fill-opacity="1"><g transform="translate(634.995497, 103.608952)"><g/></g></g><g fill="#f8f6e9" fill-opacity="0.4"><g transform="translate(660.352367, 107.83158)"><g><path d="M 31.4375 -24.078125 C 31.4375 -22.796875 30.769531 -22.15625 29.4375 -22.15625 L 4.015625 -22.15625 C 2.671875 -22.15625 2 -22.796875 2 -24.078125 L 2 -31.625 C 2 -32.90625 2.671875 -33.546875 4.015625 -33.546875 L 29.4375 -33.546875 C 30.769531 -33.546875 31.4375 -32.90625 31.4375 -31.625 Z M 31.4375 -24.078125 "/></g></g><g transform="translate(693.803205, 107.83158)"><g/></g><g transform="translate(714.937417, 107.83158)"><g><path d="M 41.5625 -1.765625 C 41.5625 -0.585938 40.988281 0 39.84375 0 L 31.34375 0 C 30.039062 0 29.34375 -0.664062 29.25 -2 L 26.734375 -36.390625 C 26.671875 -37.109375 26.328125 -37.46875 25.703125 -37.46875 L 21.140625 -37.46875 C 20.484375 -37.46875 20.125 -37.109375 20.0625 -36.390625 L 18.328125 -2 C 18.296875 -0.664062 17.628906 0 16.328125 0 L 4.015625 0 C 2.796875 0 2.1875 -0.648438 2.1875 -1.953125 L 2.1875 -2 L 2.9375 -17.03125 C 2.96875 -18.425781 3.609375 -19.125 4.859375 -19.125 L 6.203125 -19.125 C 6.859375 -19.125 7.21875 -19.4375 7.28125 -20.0625 L 8.21875 -36.484375 L 8.21875 -36.625 C 8.21875 -37.1875 7.9375 -37.46875 7.375 -37.46875 L 5.734375 -37.46875 C 4.398438 -37.46875 3.703125 -38.195312 3.640625 -39.65625 L 2.9375 -54.53125 L 2.9375 -54.8125 C 2.9375 -56.03125 3.515625 -56.640625 4.671875 -56.640625 L 36.390625 -56.640625 C 37.628906 -56.640625 38.296875 -55.9375 38.390625 -54.53125 L 41.5625 -2 Z M 41.5625 -1.765625 "/></g></g><g transform="translate(759.211956, 107.83158)"><g><path d="M 40.40625 -1.859375 C 40.40625 -0.617188 39.796875 0 38.578125 0 L 21.140625 0 C 19.921875 0 19.3125 -0.632812 19.3125 -1.90625 L 19.3125 -2 L 20.15625 -16.796875 C 20.25 -18.347656 20.914062 -19.125 22.15625 -19.125 L 25.796875 -19.125 C 26.390625 -19.125 26.6875 -19.421875 26.6875 -20.015625 C 26.6875 -20.140625 26.671875 -20.21875 26.640625 -20.25 L 25.609375 -36.390625 C 25.578125 -37.171875 25.222656 -37.5625 24.546875 -37.5625 L 18.515625 -37.5625 C 17.867188 -37.5625 17.53125 -37.171875 17.5 -36.390625 L 15.390625 -2 C 15.296875 -0.664062 14.628906 0 13.390625 0 L 4.484375 0 C 3.265625 0 2.65625 -0.632812 2.65625 -1.90625 L 2.65625 -2 L 6.015625 -54.53125 C 6.109375 -55.9375 6.8125 -56.640625 8.125 -56.640625 L 35.078125 -56.640625 C 36.328125 -56.640625 37 -55.9375 37.09375 -54.53125 L 40.40625 -2 Z M 40.40625 -1.859375 "/></g></g><g transform="translate(802.320149, 107.83158)"><g><path d="M 33.640625 -1.859375 C 33.640625 -0.617188 33.03125 0 31.8125 0 L 3.640625 0 C 2.484375 0 1.90625 -0.570312 1.90625 -1.71875 L 1.90625 -2 L 3.265625 -17.21875 C 3.421875 -18.488281 4.117188 -19.125 5.359375 -19.125 L 19.21875 -19.125 C 19.90625 -19.125 20.25 -19.453125 20.25 -20.109375 L 20.25 -20.25 L 19.21875 -36.578125 C 19.1875 -37.171875 18.890625 -37.46875 18.328125 -37.46875 L 5.265625 -37.46875 C 4.054688 -37.46875 3.453125 -38.023438 3.453125 -39.140625 L 3.453125 -39.28125 L 4.484375 -54.53125 C 4.578125 -55.9375 5.273438 -56.640625 6.578125 -56.640625 L 28.453125 -56.640625 C 29.703125 -56.640625 30.375 -55.9375 30.46875 -54.53125 L 33.640625 -2 Z M 33.640625 -1.859375 "/></g></g><g transform="translate(838.663527, 107.83158)"><g><path d="M 40.21875 -54.625 L 37.09375 -2.09375 C 37 -0.695312 36.296875 0 34.984375 0 L 7.75 0 C 6.5 0 5.828125 -0.695312 5.734375 -2.09375 L 2.5625 -54.625 L 2.5625 -54.859375 C 2.5625 -56.046875 3.171875 -56.640625 4.390625 -56.640625 L 38.390625 -56.640625 C 39.609375 -56.640625 40.21875 -56.015625 40.21875 -54.765625 Z M 26.640625 -36.765625 C 26.640625 -37.359375 26.359375 -37.65625 25.796875 -37.65625 L 16.890625 -37.65625 C 16.328125 -37.65625 16.046875 -37.375 16.046875 -36.8125 L 16.046875 -36.671875 L 17.40625 -19.78125 C 17.4375 -19.40625 17.65625 -19.21875 18.0625 -19.21875 L 24.953125 -19.21875 C 25.390625 -19.21875 25.640625 -19.40625 25.703125 -19.78125 L 26.640625 -36.671875 Z M 26.640625 -36.765625 "/></g></g><g transform="translate(881.631757, 107.83158)"><g><path d="M 40.40625 -1.859375 C 40.40625 -0.617188 39.796875 0 38.578125 0 L 21.140625 0 C 19.921875 0 19.3125 -0.632812 19.3125 -1.90625 L 19.3125 -2 L 20.15625 -16.796875 C 20.25 -18.347656 20.914062 -19.125 22.15625 -19.125 L 25.796875 -19.125 C 26.390625 -19.125 26.6875 -19.421875 26.6875 -20.015625 C 26.6875 -20.140625 26.671875 -20.21875 26.640625 -20.25 L 25.609375 -36.390625 C 25.578125 -37.171875 25.222656 -37.5625 24.546875 -37.5625 L 18.515625 -37.5625 C 17.867188 -37.5625 17.53125 -37.171875 17.5 -36.390625 L 15.390625 -2 C 15.296875 -0.664062 14.628906 0 13.390625 0 L 4.484375 0 C 3.265625 0 2.65625 -0.632812 2.65625 -1.90625 L 2.65625 -2 L 6.015625 -54.53125 C 6.109375 -55.9375 6.8125 -56.640625 8.125 -56.640625 L 35.078125 -56.640625 C 36.328125 -56.640625 37 -55.9375 37.09375 -54.53125 L 40.40625 -2 Z M 40.40625 -1.859375 "/></g></g><g transform="translate(924.73995, 107.83158)"><g/></g><g transform="translate(945.874161, 107.83158)"><g><path d="M 37.46875 -2.140625 C 37.46875 -0.710938 36.828125 0 35.546875 0 L 26.96875 0 C 25.5625 0 24.8125 -0.789062 24.71875 -2.375 L 22.71875 -36.015625 C 22.65625 -37.046875 22.222656 -37.5625 21.421875 -37.5625 L 6.765625 -37.5625 C 5.304688 -37.5625 4.578125 -38.382812 4.578125 -40.03125 L 4.578125 -40.3125 L 5.359375 -54.359375 C 5.453125 -55.878906 6.28125 -56.640625 7.84375 -56.640625 L 32.28125 -56.640625 C 33.71875 -56.640625 34.484375 -55.816406 34.578125 -54.171875 L 37.46875 -2.375 Z M 15.671875 -24.8125 L 15.015625 -2.1875 C 14.953125 -0.726562 14.175781 0 12.6875 0 L 4.578125 0 C 3.296875 0 2.65625 -0.742188 2.65625 -2.234375 L 2.65625 -2.375 L 3.546875 -25.046875 C 3.578125 -26.578125 4.429688 -27.34375 6.109375 -27.34375 L 13.484375 -27.34375 C 14.941406 -27.34375 15.671875 -26.5625 15.671875 -25 Z M 15.671875 -24.8125 "/></g></g><g transform="translate(986.043159, 107.83158)"><g><path d="M 33.171875 -54.53125 L 30.09375 -2 C 30 -0.664062 29.328125 0 28.078125 0 L 13.203125 0 C 11.960938 0 11.296875 -0.664062 11.203125 -2 L 10.3125 -16.890625 L 10.3125 -17.125 C 10.3125 -18.457031 10.914062 -19.125 12.125 -19.125 L 17.875 -19.125 C 18.550781 -19.125 18.90625 -19.46875 18.9375 -20.15625 L 19.6875 -36.203125 L 19.6875 -36.34375 C 19.6875 -37.09375 19.359375 -37.46875 18.703125 -37.46875 L 5.078125 -37.46875 C 3.804688 -37.46875 3.140625 -38.101562 3.078125 -39.375 L 1.640625 -65.171875 L 1.640625 -65.546875 C 1.640625 -66.765625 2.148438 -67.375 3.171875 -67.375 L 12.21875 -67.375 C 13.53125 -67.375 14.203125 -66.703125 14.234375 -65.359375 L 14.609375 -57.890625 C 14.640625 -57.054688 14.992188 -56.640625 15.671875 -56.640625 L 31.34375 -56.546875 C 32.5625 -56.546875 33.171875 -55.96875 33.171875 -54.8125 Z M 33.171875 -54.53125 "/></g></g><g transform="translate(1021.873345, 107.83158)"><g><path d="M 34.65625 -1.71875 C 34.65625 -0.570312 34.191406 0 33.265625 0 L 2.84375 0 C 1.851562 0 1.359375 -0.515625 1.359375 -1.546875 L 1.359375 -1.71875 L 2.09375 -17.40625 C 2.125 -18.550781 2.671875 -19.125 3.734375 -19.125 L 17.78125 -19.125 L 16.703125 -36.484375 C 16.640625 -37.140625 16.359375 -37.46875 15.859375 -37.46875 L 5.921875 -37.46875 C 4.835938 -37.46875 4.296875 -38.054688 4.296875 -39.234375 L 4.296875 -39.375 L 4.9375 -54.953125 C 4.96875 -56.078125 5.65625 -56.640625 7 -56.640625 L 26.453125 -56.640625 C 27.660156 -56.640625 28.296875 -56.046875 28.359375 -54.859375 L 30.46875 -19.125 L 32.28125 -19.125 C 33.3125 -19.125 33.859375 -18.488281 33.921875 -17.21875 L 34.65625 -1.8125 Z M 34.65625 -1.71875 "/></g></g><g transform="translate(1057.890146, 107.83158)"><g><path d="M 40.03125 -54.53125 L 36.90625 -2 C 36.8125 -0.664062 36.140625 0 34.890625 0 L 7.9375 0 C 6.6875 0 6.015625 -0.664062 5.921875 -2 L 2.65625 -54.53125 L 2.65625 -54.71875 C 2.65625 -56 3.265625 -56.640625 4.484375 -56.640625 L 13.390625 -56.640625 C 14.628906 -56.640625 15.296875 -55.9375 15.390625 -54.53125 L 17.40625 -19.875 C 17.4375 -19.3125 17.773438 -19.03125 18.421875 -19.03125 L 24.265625 -19.03125 C 24.847656 -19.03125 25.171875 -19.3125 25.234375 -19.875 L 26.453125 -36.390625 L 26.453125 -36.625 C 26.453125 -37.1875 26.171875 -37.46875 25.609375 -37.46875 L 22.625 -37.46875 C 21.320312 -37.46875 20.65625 -38.070312 20.625 -39.28125 L 20.15625 -54.53125 L 20.15625 -54.671875 C 20.15625 -55.921875 20.757812 -56.546875 21.96875 -56.546875 L 38.203125 -56.546875 C 39.421875 -56.546875 40.03125 -55.953125 40.03125 -54.765625 Z M 40.03125 -54.53125 "/></g></g></g><g fill="#f8f6e9" fill-opacity="1"><g transform="translate(656.129708, 103.608952)"><g><path d="M 31.4375 -24.078125 C 31.4375 -22.796875 30.769531 -22.15625 29.4375 -22.15625 L 4.015625 -22.15625 C 2.671875 -22.15625 2 -22.796875 2 -24.078125 L 2 -31.625 C 2 -32.90625 2.671875 -33.546875 4.015625 -33.546875 L 29.4375 -33.546875 C 30.769531 -33.546875 31.4375 -32.90625 31.4375 -31.625 Z M 31.4375 -24.078125 "/></g></g><g transform="translate(689.580546, 103.608952)"><g/></g><g transform="translate(710.714757, 103.608952)"><g><path d="M 41.5625 -1.765625 C 41.5625 -0.585938 40.988281 0 39.84375 0 L 31.34375 0 C 30.039062 0 29.34375 -0.664062 29.25 -2 L 26.734375 -36.390625 C 26.671875 -37.109375 26.328125 -37.46875 25.703125 -37.46875 L 21.140625 -37.46875 C 20.484375 -37.46875 20.125 -37.109375 20.0625 -36.390625 L 18.328125 -2 C 18.296875 -0.664062 17.628906 0 16.328125 0 L 4.015625 0 C 2.796875 0 2.1875 -0.648438 2.1875 -1.953125 L 2.1875 -2 L 2.9375 -17.03125 C 2.96875 -18.425781 3.609375 -19.125 4.859375 -19.125 L 6.203125 -19.125 C 6.859375 -19.125 7.21875 -19.4375 7.28125 -20.0625 L 8.21875 -36.484375 L 8.21875 -36.625 C 8.21875 -37.1875 7.9375 -37.46875 7.375 -37.46875 L 5.734375 -37.46875 C 4.398438 -37.46875 3.703125 -38.195312 3.640625 -39.65625 L 2.9375 -54.53125 L 2.9375 -54.8125 C 2.9375 -56.03125 3.515625 -56.640625 4.671875 -56.640625 L 36.390625 -56.640625 C 37.628906 -56.640625 38.296875 -55.9375 38.390625 -54.53125 L 41.5625 -2 Z M 41.5625 -1.765625 "/></g></g><g transform="translate(754.989297, 103.608952)"><g><path d="M 40.40625 -1.859375 C 40.40625 -0.617188 39.796875 0 38.578125 0 L 21.140625 0 C 19.921875 0 19.3125 -0.632812 19.3125 -1.90625 L 19.3125 -2 L 20.15625 -16.796875 C 20.25 -18.347656 20.914062 -19.125 22.15625 -19.125 L 25.796875 -19.125 C 26.390625 -19.125 26.6875 -19.421875 26.6875 -20.015625 C 26.6875 -20.140625 26.671875 -20.21875 26.640625 -20.25 L 25.609375 -36.390625 C 25.578125 -37.171875 25.222656 -37.5625 24.546875 -37.5625 L 18.515625 -37.5625 C 17.867188 -37.5625 17.53125 -37.171875 17.5 -36.390625 L 15.390625 -2 C 15.296875 -0.664062 14.628906 0 13.390625 0 L 4.484375 0 C 3.265625 0 2.65625 -0.632812 2.65625 -1.90625 L 2.65625 -2 L 6.015625 -54.53125 C 6.109375 -55.9375 6.8125 -56.640625 8.125 -56.640625 L 35.078125 -56.640625 C 36.328125 -56.640625 37 -55.9375 37.09375 -54.53125 L 40.40625 -2 Z M 40.40625 -1.859375 "/></g></g><g transform="translate(798.09749, 103.608952)"><g><path d="M 33.640625 -1.859375 C 33.640625 -0.617188 33.03125 0 31.8125 0 L 3.640625 0 C 2.484375 0 1.90625 -0.570312 1.90625 -1.71875 L 1.90625 -2 L 3.265625 -17.21875 C 3.421875 -18.488281 4.117188 -19.125 5.359375 -19.125 L 19.21875 -19.125 C 19.90625 -19.125 20.25 -19.453125 20.25 -20.109375 L 20.25 -20.25 L 19.21875 -36.578125 C 19.1875 -37.171875 18.890625 -37.46875 18.328125 -37.46875 L 5.265625 -37.46875 C 4.054688 -37.46875 3.453125 -38.023438 3.453125 -39.140625 L 3.453125 -39.28125 L 4.484375 -54.53125 C 4.578125 -55.9375 5.273438 -56.640625 6.578125 -56.640625 L 28.453125 -56.640625 C 29.703125 -56.640625 30.375 -55.9375 30.46875 -54.53125 L 33.640625 -2 Z M 33.640625 -1.859375 "/></g></g><g transform="translate(834.440868, 103.608952)"><g><path d="M 40.21875 -54.625 L 37.09375 -2.09375 C 37 -0.695312 36.296875 0 34.984375 0 L 7.75 0 C 6.5 0 5.828125 -0.695312 5.734375 -2.09375 L 2.5625 -54.625 L 2.5625 -54.859375 C 2.5625 -56.046875 3.171875 -56.640625 4.390625 -56.640625 L 38.390625 -56.640625 C 39.609375 -56.640625 40.21875 -56.015625 40.21875 -54.765625 Z M 26.640625 -36.765625 C 26.640625 -37.359375 26.359375 -37.65625 25.796875 -37.65625 L 16.890625 -37.65625 C 16.328125 -37.65625 16.046875 -37.375 16.046875 -36.8125 L 16.046875 -36.671875 L 17.40625 -19.78125 C 17.4375 -19.40625 17.65625 -19.21875 18.0625 -19.21875 L 24.953125 -19.21875 C 25.390625 -19.21875 25.640625 -19.40625 25.703125 -19.78125 L 26.640625 -36.671875 Z M 26.640625 -36.765625 "/></g></g><g transform="translate(877.409098, 103.608952)"><g><path d="M 40.40625 -1.859375 C 40.40625 -0.617188 39.796875 0 38.578125 0 L 21.140625 0 C 19.921875 0 19.3125 -0.632812 19.3125 -1.90625 L 19.3125 -2 L 20.15625 -16.796875 C 20.25 -18.347656 20.914062 -19.125 22.15625 -19.125 L 25.796875 -19.125 C 26.390625 -19.125 26.6875 -19.421875 26.6875 -20.015625 C 26.6875 -20.140625 26.671875 -20.21875 26.640625 -20.25 L 25.609375 -36.390625 C 25.578125 -37.171875 25.222656 -37.5625 24.546875 -37.5625 L 18.515625 -37.5625 C 17.867188 -37.5625 17.53125 -37.171875 17.5 -36.390625 L 15.390625 -2 C 15.296875 -0.664062 14.628906 0 13.390625 0 L 4.484375 0 C 3.265625 0 2.65625 -0.632812 2.65625 -1.90625 L 2.65625 -2 L 6.015625 -54.53125 C 6.109375 -55.9375 6.8125 -56.640625 8.125 -56.640625 L 35.078125 -56.640625 C 36.328125 -56.640625 37 -55.9375 37.09375 -54.53125 L 40.40625 -2 Z M 40.40625 -1.859375 "/></g></g><g transform="translate(920.517291, 103.608952)"><g/></g><g transform="translate(941.651502, 103.608952)"><g><path d="M 37.46875 -2.140625 C 37.46875 -0.710938 36.828125 0 35.546875 0 L 26.96875 0 C 25.5625 0 24.8125 -0.789062 24.71875 -2.375 L 22.71875 -36.015625 C 22.65625 -37.046875 22.222656 -37.5625 21.421875 -37.5625 L 6.765625 -37.5625 C 5.304688 -37.5625 4.578125 -38.382812 4.578125 -40.03125 L 4.578125 -40.3125 L 5.359375 -54.359375 C 5.453125 -55.878906 6.28125 -56.640625 7.84375 -56.640625 L 32.28125 -56.640625 C 33.71875 -56.640625 34.484375 -55.816406 34.578125 -54.171875 L 37.46875 -2.375 Z M 15.671875 -24.8125 L 15.015625 -2.1875 C 14.953125 -0.726562 14.175781 0 12.6875 0 L 4.578125 0 C 3.296875 0 2.65625 -0.742188 2.65625 -2.234375 L 2.65625 -2.375 L 3.546875 -25.046875 C 3.578125 -26.578125 4.429688 -27.34375 6.109375 -27.34375 L 13.484375 -27.34375 C 14.941406 -27.34375 15.671875 -26.5625 15.671875 -25 Z M 15.671875 -24.8125 "/></g></g><g transform="translate(981.8205, 103.608952)"><g><path d="M 33.171875 -54.53125 L 30.09375 -2 C 30 -0.664062 29.328125 0 28.078125 0 L 13.203125 0 C 11.960938 0 11.296875 -0.664062 11.203125 -2 L 10.3125 -16.890625 L 10.3125 -17.125 C 10.3125 -18.457031 10.914062 -19.125 12.125 -19.125 L 17.875 -19.125 C 18.550781 -19.125 18.90625 -19.46875 18.9375 -20.15625 L 19.6875 -36.203125 L 19.6875 -36.34375 C 19.6875 -37.09375 19.359375 -37.46875 18.703125 -37.46875 L 5.078125 -37.46875 C 3.804688 -37.46875 3.140625 -38.101562 3.078125 -39.375 L 1.640625 -65.171875 L 1.640625 -65.546875 C 1.640625 -66.765625 2.148438 -67.375 3.171875 -67.375 L 12.21875 -67.375 C 13.53125 -67.375 14.203125 -66.703125 14.234375 -65.359375 L 14.609375 -57.890625 C 14.640625 -57.054688 14.992188 -56.640625 15.671875 -56.640625 L 31.34375 -56.546875 C 32.5625 -56.546875 33.171875 -55.96875 33.171875 -54.8125 Z M 33.171875 -54.53125 "/></g></g><g transform="translate(1017.650686, 103.608952)"><g><path d="M 34.65625 -1.71875 C 34.65625 -0.570312 34.191406 0 33.265625 0 L 2.84375 0 C 1.851562 0 1.359375 -0.515625 1.359375 -1.546875 L 1.359375 -1.71875 L 2.09375 -17.40625 C 2.125 -18.550781 2.671875 -19.125 3.734375 -19.125 L 17.78125 -19.125 L 16.703125 -36.484375 C 16.640625 -37.140625 16.359375 -37.46875 15.859375 -37.46875 L 5.921875 -37.46875 C 4.835938 -37.46875 4.296875 -38.054688 4.296875 -39.234375 L 4.296875 -39.375 L 4.9375 -54.953125 C 4.96875 -56.078125 5.65625 -56.640625 7 -56.640625 L 26.453125 -56.640625 C 27.660156 -56.640625 28.296875 -56.046875 28.359375 -54.859375 L 30.46875 -19.125 L 32.28125 -19.125 C 33.3125 -19.125 33.859375 -18.488281 33.921875 -17.21875 L 34.65625 -1.8125 Z M 34.65625 -1.71875 "/></g></g><g transform="translate(1053.667487, 103.608952)"><g><path d="M 40.03125 -54.53125 L 36.90625 -2 C 36.8125 -0.664062 36.140625 0 34.890625 0 L 7.9375 0 C 6.6875 0 6.015625 -0.664062 5.921875 -2 L 2.65625 -54.53125 L 2.65625 -54.71875 C 2.65625 -56 3.265625 -56.640625 4.484375 -56.640625 L 13.390625 -56.640625 C 14.628906 -56.640625 15.296875 -55.9375 15.390625 -54.53125 L 17.40625 -19.875 C 17.4375 -19.3125 17.773438 -19.03125 18.421875 -19.03125 L 24.265625 -19.03125 C 24.847656 -19.03125 25.171875 -19.3125 25.234375 -19.875 L 26.453125 -36.390625 L 26.453125 -36.625 C 26.453125 -37.1875 26.171875 -37.46875 25.609375 -37.46875 L 22.625 -37.46875 C 21.320312 -37.46875 20.65625 -38.070312 20.625 -39.28125 L 20.15625 -54.53125 L 20.15625 -54.671875 C 20.15625 -55.921875 20.757812 -56.546875 21.96875 -56.546875 L 38.203125 -56.546875 C 39.421875 -56.546875 40.03125 -55.953125 40.03125 -54.765625 Z M 40.03125 -54.53125 "/></g></g></g><g fill="#f8f6e9" fill-opacity="1"><g transform="translate(92.567127, 91.865128)"><g><path d="M 20.546875 -0.90625 C 20.546875 -0.300781 20.242188 0 19.640625 0 L 2.234375 0 C 1.628906 0 1.328125 -0.3125 1.328125 -0.9375 L 1.328125 -1 L 2.96875 -27.28125 C 3.007812 -27.976562 3.34375 -28.328125 3.96875 -28.328125 L 17.96875 -28.328125 C 18.582031 -28.328125 18.914062 -27.976562 18.96875 -27.28125 L 20.546875 -1 Z M 13.8125 -9.984375 L 13.140625 -18.453125 C 13.109375 -18.640625 13.015625 -18.734375 12.859375 -18.734375 L 8.984375 -18.734375 C 8.742188 -18.734375 8.617188 -18.640625 8.609375 -18.453125 L 8.125 -9.984375 L 8.125 -9.96875 C 8.125 -9.695312 8.269531 -9.5625 8.5625 -9.5625 L 13.375 -9.5625 C 13.664062 -9.5625 13.8125 -9.679688 13.8125 -9.921875 Z M 13.8125 -9.984375 "/></g></g><g transform="translate(114.4478, 91.865128)"><g><path d="M 9.796875 -12.21875 C 9.796875 -11.582031 9.539062 -11.265625 9.03125 -11.265625 L 4.34375 -11.265625 C 3.78125 -11.265625 3.5 -11.582031 3.5 -12.21875 L 3.5 -18.296875 C 3.5 -18.617188 3.335938 -18.78125 3.015625 -18.78125 L 2.640625 -18.78125 C 2.140625 -18.78125 1.863281 -19.097656 1.8125 -19.734375 L 1.328125 -27.28125 L 1.328125 -27.359375 C 1.328125 -28.003906 1.628906 -28.328125 2.234375 -28.328125 L 8.84375 -28.328125 C 9.476562 -28.328125 9.796875 -27.976562 9.796875 -27.28125 Z M 9.796875 -12.21875 "/></g></g><g transform="translate(125.738041, 91.865128)"><g><path d="M 19.90625 -27.71875 C 19.90625 -27.59375 19.894531 -27.5 19.875 -27.4375 L 16.640625 -8.609375 L 19.734375 -0.71875 C 19.765625 -0.625 19.78125 -0.546875 19.78125 -0.484375 C 19.78125 -0.160156 19.539062 0 19.0625 0 L 12.53125 0 C 12.082031 0 11.765625 -0.222656 11.578125 -0.671875 L 8.265625 -8.984375 L 7.109375 -0.8125 C 7.035156 -0.269531 6.734375 0 6.203125 0 L 1.375 0 C 0.957031 0 0.75 -0.191406 0.75 -0.578125 C 0.75 -0.660156 0.753906 -0.722656 0.765625 -0.765625 L 3.921875 -19.59375 L 0.953125 -27.53125 C 0.890625 -27.664062 0.859375 -27.796875 0.859375 -27.921875 C 0.859375 -28.191406 1 -28.328125 1.28125 -28.328125 L 7.84375 -28.328125 C 8.257812 -28.328125 8.5625 -28.078125 8.75 -27.578125 L 11.984375 -19.25 L 13.375 -27.578125 C 13.445312 -28.078125 13.71875 -28.328125 14.1875 -28.328125 L 19.296875 -28.328125 C 19.703125 -28.328125 19.90625 -28.125 19.90625 -27.71875 Z M 19.90625 -27.71875 "/></g></g><g transform="translate(146.42904, 91.865128)"><g><path d="M 17.328125 -0.859375 C 17.328125 -0.285156 17.097656 0 16.640625 0 L 1.421875 0 C 0.921875 0 0.671875 -0.253906 0.671875 -0.765625 L 0.671875 -0.859375 L 1.046875 -8.703125 C 1.066406 -9.273438 1.335938 -9.5625 1.859375 -9.5625 L 8.890625 -9.5625 L 8.359375 -18.25 C 8.328125 -18.570312 8.1875 -18.734375 7.9375 -18.734375 L 2.96875 -18.734375 C 2.414062 -18.734375 2.140625 -19.03125 2.140625 -19.625 L 2.140625 -19.6875 L 2.46875 -27.484375 C 2.488281 -28.046875 2.832031 -28.328125 3.5 -28.328125 L 13.234375 -28.328125 C 13.835938 -28.328125 14.15625 -28.03125 14.1875 -27.4375 L 15.234375 -9.5625 L 16.140625 -9.5625 C 16.660156 -9.5625 16.9375 -9.242188 16.96875 -8.609375 L 17.328125 -0.90625 Z M 17.328125 -0.859375 "/></g></g><g transform="translate(164.437441, 91.865128)"><g><path d="M 18.734375 -1.078125 C 18.734375 -0.359375 18.414062 0 17.78125 0 L 13.484375 0 C 12.785156 0 12.410156 -0.394531 12.359375 -1.1875 L 11.359375 -18.015625 C 11.328125 -18.523438 11.109375 -18.78125 10.703125 -18.78125 L 3.390625 -18.78125 C 2.648438 -18.78125 2.28125 -19.191406 2.28125 -20.015625 L 2.28125 -20.15625 L 2.6875 -27.1875 C 2.726562 -27.945312 3.140625 -28.328125 3.921875 -28.328125 L 16.140625 -28.328125 C 16.859375 -28.328125 17.238281 -27.914062 17.28125 -27.09375 L 18.734375 -1.1875 Z M 7.84375 -12.40625 L 7.515625 -1.09375 C 7.484375 -0.363281 7.09375 0 6.34375 0 L 2.28125 0 C 1.644531 0 1.328125 -0.375 1.328125 -1.125 L 1.328125 -1.1875 L 1.765625 -12.53125 C 1.785156 -13.289062 2.21875 -13.671875 3.0625 -13.671875 L 6.75 -13.671875 C 7.476562 -13.671875 7.84375 -13.28125 7.84375 -12.5 Z M 7.84375 -12.40625 "/></g></g><g transform="translate(184.52194, 91.865128)"><g/></g><g transform="translate(195.089046, 91.865128)"><g><path d="M 20.546875 -0.90625 C 20.546875 -0.300781 20.242188 0 19.640625 0 L 2.234375 0 C 1.628906 0 1.328125 -0.3125 1.328125 -0.9375 L 1.328125 -1 L 2.96875 -27.28125 C 3.007812 -27.976562 3.34375 -28.328125 3.96875 -28.328125 L 17.96875 -28.328125 C 18.582031 -28.328125 18.914062 -27.976562 18.96875 -27.28125 L 20.546875 -1 Z M 13.8125 -9.984375 L 13.140625 -18.453125 C 13.109375 -18.640625 13.015625 -18.734375 12.859375 -18.734375 L 8.984375 -18.734375 C 8.742188 -18.734375 8.617188 -18.640625 8.609375 -18.453125 L 8.125 -9.984375 L 8.125 -9.96875 C 8.125 -9.695312 8.269531 -9.5625 8.5625 -9.5625 L 13.375 -9.5625 C 13.664062 -9.5625 13.8125 -9.679688 13.8125 -9.921875 Z M 13.8125 -9.984375 "/></g></g><g transform="translate(216.969719, 91.865128)"><g><path d="M 9.796875 -12.21875 C 9.796875 -11.582031 9.539062 -11.265625 9.03125 -11.265625 L 4.34375 -11.265625 C 3.78125 -11.265625 3.5 -11.582031 3.5 -12.21875 L 3.5 -18.296875 C 3.5 -18.617188 3.335938 -18.78125 3.015625 -18.78125 L 2.640625 -18.78125 C 2.140625 -18.78125 1.863281 -19.097656 1.8125 -19.734375 L 1.328125 -27.28125 L 1.328125 -27.359375 C 1.328125 -28.003906 1.628906 -28.328125 2.234375 -28.328125 L 8.84375 -28.328125 C 9.476562 -28.328125 9.796875 -27.976562 9.796875 -27.28125 Z M 9.796875 -12.21875 "/></g></g><g transform="translate(228.25996, 91.865128)"><g><path d="M 20.015625 -27.28125 L 18.453125 -1 C 18.410156 -0.332031 18.078125 0 17.453125 0 L 3.96875 0 C 3.34375 0 3.007812 -0.332031 2.96875 -1 L 1.328125 -27.28125 L 1.328125 -27.359375 C 1.328125 -28.003906 1.628906 -28.328125 2.234375 -28.328125 L 6.703125 -28.328125 C 7.316406 -28.328125 7.648438 -27.976562 7.703125 -27.28125 L 8.703125 -9.9375 C 8.710938 -9.65625 8.882812 -9.515625 9.21875 -9.515625 L 12.125 -9.515625 C 12.425781 -9.515625 12.59375 -9.65625 12.625 -9.9375 L 13.234375 -18.203125 L 13.234375 -18.3125 C 13.234375 -18.59375 13.09375 -18.734375 12.8125 -18.734375 L 11.3125 -18.734375 C 10.65625 -18.734375 10.320312 -19.035156 10.3125 -19.640625 L 10.078125 -27.28125 L 10.078125 -27.34375 C 10.078125 -27.96875 10.378906 -28.28125 10.984375 -28.28125 L 19.109375 -28.28125 C 19.710938 -28.28125 20.015625 -27.984375 20.015625 -27.390625 Z M 20.015625 -27.28125 "/></g></g><g transform="translate(249.627441, 91.865128)"><g><path d="M 17.328125 -0.859375 C 17.328125 -0.285156 17.097656 0 16.640625 0 L 1.421875 0 C 0.921875 0 0.671875 -0.253906 0.671875 -0.765625 L 0.671875 -0.859375 L 1.046875 -8.703125 C 1.066406 -9.273438 1.335938 -9.5625 1.859375 -9.5625 L 8.890625 -9.5625 L 8.359375 -18.25 C 8.328125 -18.570312 8.1875 -18.734375 7.9375 -18.734375 L 2.96875 -18.734375 C 2.414062 -18.734375 2.140625 -19.03125 2.140625 -19.625 L 2.140625 -19.6875 L 2.46875 -27.484375 C 2.488281 -28.046875 2.832031 -28.328125 3.5 -28.328125 L 13.234375 -28.328125 C 13.835938 -28.328125 14.15625 -28.03125 14.1875 -27.4375 L 15.234375 -9.5625 L 16.140625 -9.5625 C 16.660156 -9.5625 16.9375 -9.242188 16.96875 -8.609375 L 17.328125 -0.90625 Z M 17.328125 -0.859375 "/></g></g><g transform="translate(267.635841, 91.865128)"><g><path d="M 9.796875 -12.21875 C 9.796875 -11.582031 9.539062 -11.265625 9.03125 -11.265625 L 4.34375 -11.265625 C 3.78125 -11.265625 3.5 -11.582031 3.5 -12.21875 L 3.5 -18.296875 C 3.5 -18.617188 3.335938 -18.78125 3.015625 -18.78125 L 2.640625 -18.78125 C 2.140625 -18.78125 1.863281 -19.097656 1.8125 -19.734375 L 1.328125 -27.28125 L 1.328125 -27.359375 C 1.328125 -28.003906 1.628906 -28.328125 2.234375 -28.328125 L 8.84375 -28.328125 C 9.476562 -28.328125 9.796875 -27.976562 9.796875 -27.28125 Z M 9.796875 -12.21875 "/></g></g><g transform="translate(278.926082, 91.865128)"><g><path d="M 18.734375 -1.078125 C 18.734375 -0.359375 18.414062 0 17.78125 0 L 13.484375 0 C 12.785156 0 12.410156 -0.394531 12.359375 -1.1875 L 11.359375 -18.015625 C 11.328125 -18.523438 11.109375 -18.78125 10.703125 -18.78125 L 3.390625 -18.78125 C 2.648438 -18.78125 2.28125 -19.191406 2.28125 -20.015625 L 2.28125 -20.15625 L 2.6875 -27.1875 C 2.726562 -27.945312 3.140625 -28.328125 3.921875 -28.328125 L 16.140625 -28.328125 C 16.859375 -28.328125 17.238281 -27.914062 17.28125 -27.09375 L 18.734375 -1.1875 Z M 7.84375 -12.40625 L 7.515625 -1.09375 C 7.484375 -0.363281 7.09375 0 6.34375 0 L 2.28125 0 C 1.644531 0 1.328125 -0.375 1.328125 -1.125 L 1.328125 -1.1875 L 1.765625 -12.53125 C 1.785156 -13.289062 2.21875 -13.671875 3.0625 -13.671875 L 6.75 -13.671875 C 7.476562 -13.671875 7.84375 -13.28125 7.84375 -12.5 Z M 7.84375 -12.40625 "/></g></g><g transform="translate(299.010581, 91.865128)"><g><path d="M 18.734375 -1.078125 C 18.734375 -0.359375 18.414062 0 17.78125 0 L 13.484375 0 C 12.785156 0 12.410156 -0.394531 12.359375 -1.1875 L 11.359375 -18.015625 C 11.328125 -18.523438 11.109375 -18.78125 10.703125 -18.78125 L 3.390625 -18.78125 C 2.648438 -18.78125 2.28125 -19.191406 2.28125 -20.015625 L 2.28125 -20.15625 L 2.6875 -27.1875 C 2.726562 -27.945312 3.140625 -28.328125 3.921875 -28.328125 L 16.140625 -28.328125 C 16.859375 -28.328125 17.238281 -27.914062 17.28125 -27.09375 L 18.734375 -1.1875 Z M 7.84375 -12.40625 L 7.515625 -1.09375 C 7.484375 -0.363281 7.09375 0 6.34375 0 L 2.28125 0 C 1.644531 0 1.328125 -0.375 1.328125 -1.125 L 1.328125 -1.1875 L 1.765625 -12.53125 C 1.785156 -13.289062 2.21875 -13.671875 3.0625 -13.671875 L 6.75 -13.671875 C 7.476562 -13.671875 7.84375 -13.28125 7.84375 -12.5 Z M 7.84375 -12.40625 "/></g></g><g transform="translate(319.09508, 91.865128)"><g/></g><g transform="translate(329.662186, 91.865128)"><g><path d="M 20.78125 -0.890625 C 20.78125 -0.296875 20.492188 0 19.921875 0 L 15.671875 0 C 15.023438 0 14.675781 -0.332031 14.625 -1 L 13.375 -18.203125 C 13.34375 -18.554688 13.171875 -18.734375 12.859375 -18.734375 L 10.5625 -18.734375 C 10.238281 -18.734375 10.0625 -18.554688 10.03125 -18.203125 L 9.171875 -1 C 9.148438 -0.332031 8.816406 0 8.171875 0 L 2 0 C 1.394531 0 1.09375 -0.328125 1.09375 -0.984375 L 1.09375 -1 L 1.46875 -8.515625 C 1.488281 -9.210938 1.804688 -9.5625 2.421875 -9.5625 L 3.109375 -9.5625 C 3.429688 -9.5625 3.609375 -9.71875 3.640625 -10.03125 L 4.109375 -18.25 L 4.109375 -18.3125 C 4.109375 -18.59375 3.96875 -18.734375 3.6875 -18.734375 L 2.875 -18.734375 C 2.195312 -18.734375 1.84375 -19.097656 1.8125 -19.828125 L 1.46875 -27.28125 L 1.46875 -27.40625 C 1.46875 -28.019531 1.753906 -28.328125 2.328125 -28.328125 L 18.203125 -28.328125 C 18.816406 -28.328125 19.148438 -27.976562 19.203125 -27.28125 L 20.78125 -1 Z M 20.78125 -0.890625 "/></g></g><g transform="translate(351.799456, 91.865128)"><g><path d="M 19.90625 -27.71875 C 19.90625 -27.59375 19.894531 -27.5 19.875 -27.4375 L 16.640625 -8.609375 L 19.734375 -0.71875 C 19.765625 -0.625 19.78125 -0.546875 19.78125 -0.484375 C 19.78125 -0.160156 19.539062 0 19.0625 0 L 12.53125 0 C 12.082031 0 11.765625 -0.222656 11.578125 -0.671875 L 8.265625 -8.984375 L 7.109375 -0.8125 C 7.035156 -0.269531 6.734375 0 6.203125 0 L 1.375 0 C 0.957031 0 0.75 -0.191406 0.75 -0.578125 C 0.75 -0.660156 0.753906 -0.722656 0.765625 -0.765625 L 3.921875 -19.59375 L 0.953125 -27.53125 C 0.890625 -27.664062 0.859375 -27.796875 0.859375 -27.921875 C 0.859375 -28.191406 1 -28.328125 1.28125 -28.328125 L 7.84375 -28.328125 C 8.257812 -28.328125 8.5625 -28.078125 8.75 -27.578125 L 11.984375 -19.25 L 13.375 -27.578125 C 13.445312 -28.078125 13.71875 -28.328125 14.1875 -28.328125 L 19.296875 -28.328125 C 19.703125 -28.328125 19.90625 -28.125 19.90625 -27.71875 Z M 19.90625 -27.71875 "/></g></g><g transform="translate(372.490455, 91.865128)"><g/></g><g transform="translate(383.057561, 91.865128)"><g><path d="M 18.734375 -1.078125 C 18.734375 -0.359375 18.414062 0 17.78125 0 L 13.484375 0 C 12.785156 0 12.410156 -0.394531 12.359375 -1.1875 L 11.359375 -18.015625 C 11.328125 -18.523438 11.109375 -18.78125 10.703125 -18.78125 L 3.390625 -18.78125 C 2.648438 -18.78125 2.28125 -19.191406 2.28125 -20.015625 L 2.28125 -20.15625 L 2.6875 -27.1875 C 2.726562 -27.945312 3.140625 -28.328125 3.921875 -28.328125 L 16.140625 -28.328125 C 16.859375 -28.328125 17.238281 -27.914062 17.28125 -27.09375 L 18.734375 -1.1875 Z M 7.84375 -12.40625 L 7.515625 -1.09375 C 7.484375 -0.363281 7.09375 0 6.34375 0 L 2.28125 0 C 1.644531 0 1.328125 -0.375 1.328125 -1.125 L 1.328125 -1.1875 L 1.765625 -12.53125 C 1.785156 -13.289062 2.21875 -13.671875 3.0625 -13.671875 L 6.75 -13.671875 C 7.476562 -13.671875 7.84375 -13.28125 7.84375 -12.5 Z M 7.84375 -12.40625 "/></g></g><g transform="translate(403.142059, 91.865128)"><g><path d="M 16.59375 -27.28125 L 15.046875 -1 C 15.003906 -0.332031 14.671875 0 14.046875 0 L 6.609375 0 C 5.984375 0 5.644531 -0.332031 5.59375 -1 L 5.15625 -8.453125 L 5.15625 -8.5625 C 5.15625 -9.226562 5.457031 -9.5625 6.0625 -9.5625 L 8.9375 -9.5625 C 9.28125 -9.5625 9.457031 -9.734375 9.46875 -10.078125 L 9.84375 -18.109375 L 9.84375 -18.171875 C 9.84375 -18.546875 9.679688 -18.734375 9.359375 -18.734375 L 2.546875 -18.734375 C 1.910156 -18.734375 1.578125 -19.050781 1.546875 -19.6875 L 0.8125 -32.59375 L 0.8125 -32.78125 C 0.8125 -33.382812 1.070312 -33.6875 1.59375 -33.6875 L 6.109375 -33.6875 C 6.765625 -33.6875 7.097656 -33.351562 7.109375 -32.6875 L 7.296875 -28.953125 C 7.316406 -28.535156 7.5 -28.328125 7.84375 -28.328125 L 15.671875 -28.28125 C 16.285156 -28.28125 16.59375 -27.988281 16.59375 -27.40625 Z M 16.59375 -27.28125 "/></g></g><g transform="translate(421.057152, 91.865128)"><g><path d="M 17.328125 -0.859375 C 17.328125 -0.285156 17.097656 0 16.640625 0 L 1.421875 0 C 0.921875 0 0.671875 -0.253906 0.671875 -0.765625 L 0.671875 -0.859375 L 1.046875 -8.703125 C 1.066406 -9.273438 1.335938 -9.5625 1.859375 -9.5625 L 8.890625 -9.5625 L 8.359375 -18.25 C 8.328125 -18.570312 8.1875 -18.734375 7.9375 -18.734375 L 2.96875 -18.734375 C 2.414062 -18.734375 2.140625 -19.03125 2.140625 -19.625 L 2.140625 -19.6875 L 2.46875 -27.484375 C 2.488281 -28.046875 2.832031 -28.328125 3.5 -28.328125 L 13.234375 -28.328125 C 13.835938 -28.328125 14.15625 -28.03125 14.1875 -27.4375 L 15.234375 -9.5625 L 16.140625 -9.5625 C 16.660156 -9.5625 16.9375 -9.242188 16.96875 -8.609375 L 17.328125 -0.90625 Z M 17.328125 -0.859375 "/></g></g><g transform="translate(439.065553, 91.865128)"><g><path d="M 20.015625 -27.28125 L 18.453125 -1 C 18.410156 -0.332031 18.078125 0 17.453125 0 L 3.96875 0 C 3.34375 0 3.007812 -0.332031 2.96875 -1 L 1.328125 -27.28125 L 1.328125 -27.359375 C 1.328125 -28.003906 1.628906 -28.328125 2.234375 -28.328125 L 6.703125 -28.328125 C 7.316406 -28.328125 7.648438 -27.976562 7.703125 -27.28125 L 8.703125 -9.9375 C 8.710938 -9.65625 8.882812 -9.515625 9.21875 -9.515625 L 12.125 -9.515625 C 12.425781 -9.515625 12.59375 -9.65625 12.625 -9.9375 L 13.234375 -18.203125 L 13.234375 -18.3125 C 13.234375 -18.59375 13.09375 -18.734375 12.8125 -18.734375 L 11.3125 -18.734375 C 10.65625 -18.734375 10.320312 -19.035156 10.3125 -19.640625 L 10.078125 -27.28125 L 10.078125 -27.34375 C 10.078125 -27.96875 10.378906 -28.28125 10.984375 -28.28125 L 19.109375 -28.28125 C 19.710938 -28.28125 20.015625 -27.984375 20.015625 -27.390625 Z M 20.015625 -27.28125 "/></g></g><g transform="translate(460.433034, 91.865128)"><g><path d="M 18.734375 -1.078125 C 18.734375 -0.359375 18.414062 0 17.78125 0 L 13.484375 0 C 12.785156 0 12.410156 -0.394531 12.359375 -1.1875 L 11.359375 -18.015625 C 11.328125 -18.523438 11.109375 -18.78125 10.703125 -18.78125 L 3.390625 -18.78125 C 2.648438 -18.78125 2.28125 -19.191406 2.28125 -20.015625 L 2.28125 -20.15625 L 2.6875 -27.1875 C 2.726562 -27.945312 3.140625 -28.328125 3.921875 -28.328125 L 16.140625 -28.328125 C 16.859375 -28.328125 17.238281 -27.914062 17.28125 -27.09375 L 18.734375 -1.1875 Z M 7.84375 -12.40625 L 7.515625 -1.09375 C 7.484375 -0.363281 7.09375 0 6.34375 0 L 2.28125 0 C 1.644531 0 1.328125 -0.375 1.328125 -1.125 L 1.328125 -1.1875 L 1.765625 -12.53125 C 1.785156 -13.289062 2.21875 -13.671875 3.0625 -13.671875 L 6.75 -13.671875 C 7.476562 -13.671875 7.84375 -13.28125 7.84375 -12.5 Z M 7.84375 -12.40625 "/></g></g><g transform="translate(480.517533, 91.865128)"><g/></g><g transform="translate(491.084638, 91.865128)"><g><path d="M 15.671875 3.875 C 15.671875 4.507812 15.414062 4.828125 14.90625 4.828125 L 10.21875 4.828125 C 9.613281 4.828125 9.3125 4.507812 9.3125 3.875 L 9.3125 -18.296875 C 9.3125 -18.617188 9.140625 -18.78125 8.796875 -18.78125 L 2.375 -18.78125 C 1.726562 -18.78125 1.394531 -19.082031 1.375 -19.6875 L 0.90625 -27.28125 L 0.90625 -27.34375 C 0.90625 -28 1.207031 -28.328125 1.8125 -28.328125 L 14.71875 -28.328125 C 15.351562 -28.328125 15.671875 -27.976562 15.671875 -27.28125 Z M 15.671875 3.875 "/></g></g><g transform="translate(508.673154, 91.865128)"><g><path d="M 9.359375 -0.953125 C 9.359375 -0.316406 9.125 0 8.65625 0 L 3.921875 0 C 3.347656 0 3.0625 -0.316406 3.0625 -0.953125 L 3.0625 -18.34375 C 3.0625 -18.632812 2.953125 -18.78125 2.734375 -18.78125 L 2.46875 -18.78125 C 2.082031 -18.78125 1.863281 -19.097656 1.8125 -19.734375 L 1.328125 -27.28125 L 1.328125 -27.34375 C 1.328125 -28 1.628906 -28.328125 2.234375 -28.328125 L 8.40625 -28.328125 C 9.039062 -28.328125 9.359375 -27.976562 9.359375 -27.28125 Z M 9.359375 -0.953125 "/></g></g><g transform="translate(519.54351, 91.865128)"><g><path d="M 20.78125 -0.890625 C 20.78125 -0.296875 20.492188 0 19.921875 0 L 15.671875 0 C 15.023438 0 14.675781 -0.332031 14.625 -1 L 13.375 -18.203125 C 13.34375 -18.554688 13.171875 -18.734375 12.859375 -18.734375 L 10.5625 -18.734375 C 10.238281 -18.734375 10.0625 -18.554688 10.03125 -18.203125 L 9.171875 -1 C 9.148438 -0.332031 8.816406 0 8.171875 0 L 2 0 C 1.394531 0 1.09375 -0.328125 1.09375 -0.984375 L 1.09375 -1 L 1.46875 -8.515625 C 1.488281 -9.210938 1.804688 -9.5625 2.421875 -9.5625 L 3.109375 -9.5625 C 3.429688 -9.5625 3.609375 -9.71875 3.640625 -10.03125 L 4.109375 -18.25 L 4.109375 -18.3125 C 4.109375 -18.59375 3.96875 -18.734375 3.6875 -18.734375 L 2.875 -18.734375 C 2.195312 -18.734375 1.84375 -19.097656 1.8125 -19.828125 L 1.46875 -27.28125 L 1.46875 -27.40625 C 1.46875 -28.019531 1.753906 -28.328125 2.328125 -28.328125 L 18.203125 -28.328125 C 18.816406 -28.328125 19.148438 -27.976562 19.203125 -27.28125 L 20.78125 -1 Z M 20.78125 -0.890625 "/></g></g><g transform="translate(541.680779, 91.865128)"><g><path d="M 17.328125 -0.859375 C 17.328125 -0.285156 17.097656 0 16.640625 0 L 1.421875 0 C 0.921875 0 0.671875 -0.253906 0.671875 -0.765625 L 0.671875 -0.859375 L 1.046875 -8.703125 C 1.066406 -9.273438 1.335938 -9.5625 1.859375 -9.5625 L 8.890625 -9.5625 L 8.359375 -18.25 C 8.328125 -18.570312 8.1875 -18.734375 7.9375 -18.734375 L 2.96875 -18.734375 C 2.414062 -18.734375 2.140625 -19.03125 2.140625 -19.625 L 2.140625 -19.6875 L 2.46875 -27.484375 C 2.488281 -28.046875 2.832031 -28.328125 3.5 -28.328125 L 13.234375 -28.328125 C 13.835938 -28.328125 14.15625 -28.03125 14.1875 -27.4375 L 15.234375 -9.5625 L 16.140625 -9.5625 C 16.660156 -9.5625 16.9375 -9.242188 16.96875 -8.609375 L 17.328125 -0.90625 Z M 17.328125 -0.859375 "/></g></g><g transform="translate(559.68918, 91.865128)"><g/></g><g transform="translate(570.256286, 91.865128)"><g><path d="M 9.359375 -0.953125 C 9.359375 -0.316406 9.125 0 8.65625 0 L 3.921875 0 C 3.347656 0 3.0625 -0.316406 3.0625 -0.953125 L 3.0625 -18.34375 C 3.0625 -18.632812 2.953125 -18.78125 2.734375 -18.78125 L 2.46875 -18.78125 C 2.082031 -18.78125 1.863281 -19.097656 1.8125 -19.734375 L 1.328125 -27.28125 L 1.328125 -27.34375 C 1.328125 -28 1.628906 -28.328125 2.234375 -28.328125 L 8.40625 -28.328125 C 9.039062 -28.328125 9.359375 -27.976562 9.359375 -27.28125 Z M 9.359375 -0.953125 "/></g></g><g transform="translate(581.126642, 91.865128)"><g><path d="M 18.96875 -27.671875 C 18.96875 -27.609375 18.960938 -27.546875 18.953125 -27.484375 C 18.941406 -27.421875 18.929688 -27.351562 18.921875 -27.28125 L 15.328125 -10.03125 L 18.390625 -1 C 18.429688 -0.90625 18.453125 -0.804688 18.453125 -0.703125 C 18.453125 -0.234375 18.242188 0 17.828125 0 L 1.90625 0 C 1.332031 0 1.046875 -0.3125 1.046875 -0.9375 L 1.046875 -1 L 1.6875 -8.453125 C 1.738281 -9.191406 2.101562 -9.5625 2.78125 -9.5625 L 6.65625 -9.5625 C 6.914062 -9.5625 7.046875 -9.640625 7.046875 -9.796875 C 7.046875 -9.847656 7.035156 -9.878906 7.015625 -9.890625 L 0.953125 -27.28125 C 0.921875 -27.394531 0.90625 -27.5 0.90625 -27.59375 C 0.90625 -28.082031 1.164062 -28.328125 1.6875 -28.328125 L 7.515625 -28.328125 C 8.140625 -28.328125 8.566406 -27.976562 8.796875 -27.28125 L 11.125 -20.203125 L 12.40625 -27.28125 C 12.519531 -27.976562 12.941406 -28.328125 13.671875 -28.328125 L 18.25 -28.328125 C 18.726562 -28.328125 18.96875 -28.109375 18.96875 -27.671875 Z M 18.96875 -27.671875 "/></g></g><g transform="translate(600.954544, 91.865128)"><g><path d="M 17.328125 -0.859375 C 17.328125 -0.285156 17.097656 0 16.640625 0 L 1.421875 0 C 0.921875 0 0.671875 -0.253906 0.671875 -0.765625 L 0.671875 -0.859375 L 1.046875 -8.703125 C 1.066406 -9.273438 1.335938 -9.5625 1.859375 -9.5625 L 8.890625 -9.5625 L 8.359375 -18.25 C 8.328125 -18.570312 8.1875 -18.734375 7.9375 -18.734375 L 2.96875 -18.734375 C 2.414062 -18.734375 2.140625 -19.03125 2.140625 -19.625 L 2.140625 -19.6875 L 2.46875 -27.484375 C 2.488281 -28.046875 2.832031 -28.328125 3.5 -28.328125 L 13.234375 -28.328125 C 13.835938 -28.328125 14.15625 -28.03125 14.1875 -27.4375 L 15.234375 -9.5625 L 16.140625 -9.5625 C 16.660156 -9.5625 16.9375 -9.242188 16.96875 -8.609375 L 17.328125 -0.90625 Z M 17.328125 -0.859375 "/></g></g><g transform="translate(618.962945, 91.865128)"><g><path d="M 16.140625 -13.578125 C 16.140625 -12.910156 15.773438 -12.578125 15.046875 -12.578125 L 11.078125 -12.578125 C 10.285156 -12.578125 9.890625 -12.910156 9.890625 -13.578125 L 9.890625 -27.390625 C 9.890625 -28.015625 10.285156 -28.328125 11.078125 -28.328125 L 15.046875 -28.328125 C 15.773438 -28.328125 16.140625 -28.015625 16.140625 -27.390625 Z M 24.9375 -27.3125 L 23.3125 -1.046875 C 23.257812 -0.347656 22.90625 0 22.25 0 L 3.875 0 C 3.25 0 2.914062 -0.347656 2.875 -1.046875 L 1.328125 -27.3125 L 1.328125 -27.578125 C 1.328125 -28.078125 1.550781 -28.328125 2 -28.328125 L 6.828125 -28.328125 C 7.328125 -28.328125 7.601562 -27.988281 7.65625 -27.3125 L 8.75 -9.984375 C 8.757812 -9.734375 8.914062 -9.609375 9.21875 -9.609375 L 17.09375 -9.609375 C 17.332031 -9.609375 17.46875 -9.75 17.5 -10.03125 L 18.78125 -27.3125 C 18.820312 -27.988281 19.125 -28.328125 19.6875 -28.328125 L 24.171875 -28.328125 C 24.679688 -28.328125 24.9375 -28.019531 24.9375 -27.40625 Z M 24.9375 -27.3125 "/></g></g></g><g clip-path="url(#efeefdb183)"><g clip-path="url(#3f1679bba1)"><g clip-path="url(#0e04b29d4e)"><path fill="#f8f6e9" d="M 1149.042969 25.289062 L 1151.828125 44.519531 L 1169.25 53.125 L 1151.816406 61.726562 L 1149.027344 80.960938 L 1135.464844 67.039062 L 1116.296875 70.3125 L 1125.34375 53.117188 L 1116.316406 35.90625 L 1135.46875 39.199219 Z M 1149.042969 25.289062 " fill-opacity="1" fill-rule="nonzero"/><path fill="#f8f6e9" d="M 1148.96875 25.089844 L 1151.761719 44.320312 L 1169.1875 52.929688 L 1151.75 61.53125 L 1148.949219 80.761719 L 1135.386719 66.839844 L 1116.230469 70.117188 L 1125.277344 52.921875 L 1116.242188 35.707031 L 1135.394531 38.996094 Z M 1148.96875 25.089844 " fill-opacity="1" fill-rule="nonzero"/><path fill="#f8f6e9" d="M 1148.96875 25.089844 L 1151.761719 44.320312 L 1169.1875 52.929688 L 1151.75 61.53125 L 1148.949219 80.761719 L 1135.386719 66.839844 L 1116.230469 70.117188 L 1125.277344 52.921875 L 1116.242188 35.707031 L 1135.394531 38.996094 Z M 1148.96875 25.089844 " fill-opacity="1" fill-rule="nonzero"/><path fill="#f8f6e9" d="M 1148.96875 25.089844 L 1151.761719 44.320312 L 1169.1875 52.929688 L 1151.75 61.53125 L 1148.949219 80.761719 L 1135.386719 66.839844 L 1116.230469 70.117188 L 1125.277344 52.921875 L 1116.242188 35.707031 L 1135.394531 38.996094 Z M 1148.96875 25.089844 " fill-opacity="1" fill-rule="nonzero"/></g></g></g><g clip-path="url(#683e830fd3)"><g clip-path="url(#12c41f8126)"><g clip-path="url(#2c317bc8b2)"><path fill="#f8f6e9" d="M 43.730469 38.5 C 44.125 39.4375 44.59375 40.332031 45.136719 41.1875 C 45.683594 42.042969 46.296875 42.847656 46.980469 43.597656 C 47.660156 44.351562 48.402344 45.039062 49.199219 45.667969 C 49.996094 46.292969 50.84375 46.847656 51.734375 47.332031 C 52.628906 47.8125 53.554688 48.21875 54.515625 48.542969 C 55.476562 48.871094 56.460938 49.113281 57.460938 49.269531 C 58.464844 49.429688 59.472656 49.503906 60.488281 49.492188 C 61.5 49.480469 62.507812 49.382812 63.507812 49.203125 C 68.335938 48.320312 74.472656 46.855469 82.269531 44.53125 C 74.472656 46.855469 68.535156 48.984375 64.007812 50.890625 C 63.074219 51.28125 62.179688 51.753906 61.320312 52.296875 C 60.464844 52.84375 59.664062 53.457031 58.910156 54.136719 C 58.160156 54.820312 57.46875 55.558594 56.84375 56.359375 C 56.21875 57.15625 55.664062 58.003906 55.179688 58.894531 C 54.695312 59.789062 54.292969 60.714844 53.964844 61.675781 C 53.640625 62.636719 53.398438 63.617188 53.238281 64.621094 C 53.078125 65.621094 53.003906 66.632812 53.015625 67.644531 C 53.027344 68.660156 53.125 69.667969 53.308594 70.664062 C 54.1875 75.496094 55.65625 81.632812 57.976562 89.425781 C 55.65625 81.632812 53.527344 75.691406 51.621094 71.167969 C 51.226562 70.234375 50.757812 69.335938 50.210938 68.480469 C 49.667969 67.625 49.054688 66.820312 48.371094 66.070312 C 47.691406 65.316406 46.949219 64.628906 46.152344 64.003906 C 45.351562 63.375 44.507812 62.820312 43.613281 62.339844 C 42.722656 61.855469 41.796875 61.453125 40.835938 61.125 C 39.875 60.800781 38.890625 60.558594 37.890625 60.398438 C 36.886719 60.238281 35.878906 60.164062 34.863281 60.175781 C 33.847656 60.1875 32.84375 60.285156 31.84375 60.46875 C 27.015625 61.347656 20.878906 62.816406 13.082031 65.136719 C 20.878906 62.816406 26.816406 60.683594 31.339844 58.78125 C 32.277344 58.386719 33.171875 57.917969 34.027344 57.371094 C 34.882812 56.828125 35.6875 56.214844 36.441406 55.53125 C 37.191406 54.851562 37.882812 54.109375 38.507812 53.3125 C 39.132812 52.511719 39.6875 51.667969 40.171875 50.773438 C 40.652344 49.882812 41.058594 48.953125 41.382812 47.992188 C 41.710938 47.03125 41.953125 46.050781 42.113281 45.046875 C 42.269531 44.046875 42.34375 43.039062 42.332031 42.023438 C 42.320312 41.007812 42.226562 40 42.042969 39.003906 C 41.160156 34.171875 39.695312 28.035156 37.375 20.242188 C 39.695312 28.035156 41.824219 33.976562 43.730469 38.5 Z M 43.730469 38.5 " fill-opacity="1" fill-rule="nonzero"/></g></g></g><g clip-path="url(#6c1abcf71c)"><g clip-path="url(#ae46962f78)"><g clip-path="url(#fea976a877)"><path fill="#f8f6e9" d="M 37.046875 90.398438 L 43.878906 94.671875 L 51.273438 91.464844 L 49.320312 99.289062 L 54.660156 105.328125 L 46.617188 105.886719 L 42.515625 112.832031 L 39.5 105.359375 L 31.632812 103.601562 L 37.808594 98.421875 Z M 37.046875 90.398438 " fill-opacity="1" fill-rule="nonzero"/><path fill="#f8f6e9" d="M 36.964844 90.367188 L 43.800781 94.640625 L 51.191406 91.433594 L 49.242188 99.257812 L 54.574219 105.296875 L 46.535156 105.859375 L 42.4375 112.796875 L 39.421875 105.324219 L 31.550781 103.570312 L 37.726562 98.394531 Z M 36.964844 90.367188 " fill-opacity="1" fill-rule="nonzero"/><path fill="#f8f6e9" d="M 36.964844 90.367188 L 43.800781 94.640625 L 51.191406 91.433594 L 49.242188 99.257812 L 54.574219 105.296875 L 46.535156 105.859375 L 42.4375 112.796875 L 39.421875 105.324219 L 31.550781 103.570312 L 37.726562 98.394531 Z M 36.964844 90.367188 " fill-opacity="1" fill-rule="nonzero"/><path fill="#f8f6e9" d="M 36.964844 90.367188 L 43.800781 94.640625 L 51.191406 91.433594 L 49.242188 99.257812 L 54.574219 105.296875 L 46.535156 105.859375 L 42.4375 112.796875 L 39.421875 105.324219 L 31.550781 103.570312 L 37.726562 98.394531 Z M 36.964844 90.367188 " fill-opacity="1" fill-rule="nonzero"/></g></g></g></svg>