<svg xmlns="http://www.w3.org/2000/svg" xmlns:xlink="http://www.w3.org/1999/xlink" width="590" zoomAndPan="magnify" viewBox="0 0 442.5 179.999997" height="240" preserveAspectRatio="xMidYMid meet" version="1.0"><defs><g/><clipPath id="288fb79c08"><path d="M 1 15.773438 L 441.539062 15.773438 L 441.539062 179.847656 L 1 179.847656 Z M 1 15.773438 " clip-rule="nonzero"/></clipPath><clipPath id="f4b3eb5ecb"><path d="M 97.132812 179.847656 L 441.539062 179.847656 L 441.539062 15.773438 L 97.132812 15.773438 L 0.9375 97.8125 Z M 97.132812 179.847656 " clip-rule="nonzero"/></clipPath><clipPath id="dfab4493c2"><path d="M 1.039062 15.785156 L 441.53125 15.785156 L 441.53125 179.847656 L 1.039062 179.847656 Z M 1.039062 15.785156 " clip-rule="nonzero"/></clipPath><clipPath id="08ed2ecbba"><path d="M 97.144531 179.847656 L 441.53125 179.847656 L 441.53125 15.785156 L 97.144531 15.785156 L 0.957031 97.816406 Z M 97.144531 179.847656 " clip-rule="nonzero"/></clipPath><clipPath id="ba626b71e8"><path d="M 0 5.417969 L 436.851562 5.417969 L 436.851562 169.492188 L 0 169.492188 Z M 0 5.417969 " clip-rule="nonzero"/></clipPath><clipPath id="e1b5a7c74e"><path d="M 96.1875 169.492188 L 436.851562 169.492188 L 436.851562 5.417969 L 96.1875 5.417969 L -0.0078125 87.457031 Z M 96.1875 169.492188 " clip-rule="nonzero"/></clipPath><clipPath id="8cd63e07b1"><path d="M 0.09375 5.429688 L 436.839844 5.429688 L 436.839844 169.492188 L 0.09375 169.492188 Z M 0.09375 5.429688 " clip-rule="nonzero"/></clipPath><clipPath id="6eb9955b31"><path d="M 96.199219 169.492188 L 436.839844 169.492188 L 436.839844 5.429688 L 96.199219 5.429688 L 0.0117188 87.460938 Z M 96.199219 169.492188 " clip-rule="nonzero"/></clipPath></defs><g clip-path="url(#288fb79c08)"><g clip-path="url(#f4b3eb5ecb)"><path fill="#cf4545" d="M 441.539062 179.847656 L 1.230469 179.847656 L 1.230469 15.773438 L 441.539062 15.773438 Z M 441.539062 179.847656 " fill-opacity="1" fill-rule="nonzero"/></g></g><g clip-path="url(#dfab4493c2)"><g clip-path="url(#08ed2ecbba)"><path stroke-linecap="butt" transform="matrix(-0.749153, 0, 0, -0.749153, 441.529454, 179.848473)" fill="none" stroke-linejoin="miter" d="M 459.698793 0.00108983 L -0.00239705 0.00108983 L -0.00239705 218.998288 L 459.698793 218.998288 L 588.093722 109.499689 Z M 459.698793 0.00108983 " stroke="#cf4545" stroke-width="10" stroke-opacity="1" stroke-miterlimit="4"/></g></g><g clip-path="url(#ba626b71e8)"><g clip-path="url(#e1b5a7c74e)"><path fill="#ffcf7e" d="M 436.851562 169.492188 L -0.257812 169.492188 L -0.257812 5.417969 L 436.851562 5.417969 Z M 436.851562 169.492188 " fill-opacity="1" fill-rule="nonzero"/></g></g><g clip-path="url(#8cd63e07b1)"><g clip-path="url(#6eb9955b31)"><path stroke-linecap="butt" transform="matrix(-0.749153, 0, 0, -0.749153, 436.839058, 169.493532)" fill="none" stroke-linejoin="miter" d="M 454.699706 0.00179474 L -0.00104842 0.00179474 L -0.00104842 218.998993 L 454.699706 218.998993 L 583.094635 109.500394 Z M 454.699706 0.00179474 " stroke="#cf4545" stroke-width="10" stroke-opacity="1" stroke-miterlimit="4"/></g></g><g fill="#cf4545" fill-opacity="1"><g transform="translate(105.538553, 60.383463)"><g><path d="M 18.40625 -14.09375 C 18.40625 -13.34375 18.015625 -12.96875 17.234375 -12.96875 L 2.34375 -12.96875 C 1.5625 -12.96875 1.171875 -13.34375 1.171875 -14.09375 L 1.171875 -18.515625 C 1.171875 -19.265625 1.5625 -19.640625 2.34375 -19.640625 L 17.234375 -19.640625 C 18.015625 -19.640625 18.40625 -19.265625 18.40625 -18.515625 Z M 18.40625 -14.09375 "/></g></g></g><g fill="#cf4545" fill-opacity="1"><g transform="translate(125.119161, 60.383463)"><g/></g></g><g fill="#cf4545" fill-opacity="1"><g transform="translate(137.490173, 60.383463)"><g><path d="M 21.9375 -1.25 C 21.9375 -0.414062 21.5625 0 20.8125 0 L 15.78125 0 C 14.96875 0 14.53125 -0.460938 14.46875 -1.390625 L 13.296875 -21.078125 C 13.265625 -21.679688 13.007812 -21.984375 12.53125 -21.984375 L 3.953125 -21.984375 C 3.097656 -21.984375 2.671875 -22.46875 2.671875 -23.4375 L 2.671875 -23.59375 L 3.140625 -31.8125 C 3.191406 -32.707031 3.675781 -33.15625 4.59375 -33.15625 L 18.90625 -33.15625 C 19.738281 -33.15625 20.179688 -32.671875 20.234375 -31.703125 L 21.9375 -1.390625 Z M 9.171875 -14.53125 L 8.796875 -1.28125 C 8.753906 -0.425781 8.296875 0 7.421875 0 L 2.671875 0 C 1.929688 0 1.5625 -0.4375 1.5625 -1.3125 L 1.5625 -1.390625 L 2.078125 -14.671875 C 2.097656 -15.554688 2.597656 -16 3.578125 -16 L 7.890625 -16 C 8.742188 -16 9.171875 -15.546875 9.171875 -14.640625 Z M 9.171875 -14.53125 "/></g></g></g><g fill="#cf4545" fill-opacity="1"><g transform="translate(161.003288, 60.383463)"><g><path d="M 14.71875 -31.921875 L 14.203125 -23.046875 C 14.160156 -22.335938 13.804688 -21.984375 13.140625 -21.984375 L 11.578125 -21.984375 L 11.578125 -1.125 C 11.578125 -0.375 11.296875 0 10.734375 0 L 5.1875 0 C 4.53125 0 4.203125 -0.390625 4.203125 -1.171875 L 4.203125 -21.984375 L 2.671875 -21.984375 C 1.941406 -21.984375 1.570312 -22.335938 1.5625 -23.046875 L 1.0625 -31.921875 L 1.0625 -32.015625 C 1.0625 -32.773438 1.398438 -33.15625 2.078125 -33.15625 L 13.65625 -33.15625 C 14.363281 -33.15625 14.71875 -32.789062 14.71875 -32.0625 Z M 14.71875 -31.921875 "/></g></g></g><g fill="#cf4545" fill-opacity="1"><g transform="translate(176.787934, 60.383463)"><g><path d="M 18.359375 -1.125 C 18.359375 -0.375 18.054688 0 17.453125 0 L 11.96875 0 C 11.25 0 10.890625 -0.375 10.890625 -1.125 L 10.890625 -21.40625 C 10.890625 -21.789062 10.691406 -21.984375 10.296875 -21.984375 L 2.78125 -21.984375 C 2.019531 -21.984375 1.628906 -22.335938 1.609375 -23.046875 L 1.0625 -31.921875 L 1.0625 -32.015625 C 1.0625 -32.773438 1.414062 -33.15625 2.125 -33.15625 L 17.234375 -33.15625 C 17.984375 -33.15625 18.359375 -32.742188 18.359375 -31.921875 Z M 18.359375 -1.125 "/></g></g></g><g fill="#cf4545" fill-opacity="1"><g transform="translate(197.378977, 60.383463)"><g><path d="M 19.6875 -1.09375 C 19.6875 -0.363281 19.332031 0 18.625 0 L 2.125 0 C 1.457031 0 1.125 -0.335938 1.125 -1.015625 L 1.125 -1.171875 L 1.90625 -10.078125 C 2 -10.828125 2.410156 -11.203125 3.140625 -11.203125 L 11.25 -11.203125 C 11.65625 -11.203125 11.859375 -11.390625 11.859375 -11.765625 L 11.859375 -11.859375 L 11.25 -21.40625 C 11.226562 -21.757812 11.054688 -21.9375 10.734375 -21.9375 L 3.09375 -21.9375 C 2.375 -21.9375 2.015625 -22.265625 2.015625 -22.921875 L 2.015625 -23 L 2.625 -31.921875 C 2.675781 -32.742188 3.082031 -33.15625 3.84375 -33.15625 L 16.65625 -33.15625 C 17.382812 -33.15625 17.773438 -32.742188 17.828125 -31.921875 L 19.6875 -1.171875 Z M 19.6875 -1.09375 "/></g></g></g><g fill="#cf4545" fill-opacity="1"><g transform="translate(218.652748, 60.383463)"><g><path d="M 21.9375 -1.25 C 21.9375 -0.414062 21.5625 0 20.8125 0 L 15.78125 0 C 14.96875 0 14.53125 -0.460938 14.46875 -1.390625 L 13.296875 -21.078125 C 13.265625 -21.679688 13.007812 -21.984375 12.53125 -21.984375 L 3.953125 -21.984375 C 3.097656 -21.984375 2.671875 -22.46875 2.671875 -23.4375 L 2.671875 -23.59375 L 3.140625 -31.8125 C 3.191406 -32.707031 3.675781 -33.15625 4.59375 -33.15625 L 18.90625 -33.15625 C 19.738281 -33.15625 20.179688 -32.671875 20.234375 -31.703125 L 21.9375 -1.390625 Z M 9.171875 -14.53125 L 8.796875 -1.28125 C 8.753906 -0.425781 8.296875 0 7.421875 0 L 2.671875 0 C 1.929688 0 1.5625 -0.4375 1.5625 -1.3125 L 1.5625 -1.390625 L 2.078125 -14.671875 C 2.097656 -15.554688 2.597656 -16 3.578125 -16 L 7.890625 -16 C 8.742188 -16 9.171875 -15.546875 9.171875 -14.640625 Z M 9.171875 -14.53125 "/></g></g></g><g fill="#cf4545" fill-opacity="1"><g transform="translate(242.165863, 60.383463)"><g><path d="M 19.421875 -31.921875 L 17.609375 -1.171875 C 17.554688 -0.390625 17.164062 0 16.4375 0 L 7.734375 0 C 7.003906 0 6.613281 -0.390625 6.5625 -1.171875 L 6.03125 -9.890625 L 6.03125 -10.03125 C 6.03125 -10.8125 6.382812 -11.203125 7.09375 -11.203125 L 10.46875 -11.203125 C 10.863281 -11.203125 11.070312 -11.398438 11.09375 -11.796875 L 11.53125 -21.1875 L 11.53125 -21.28125 C 11.53125 -21.71875 11.335938 -21.9375 10.953125 -21.9375 L 2.984375 -21.9375 C 2.234375 -21.9375 1.835938 -22.304688 1.796875 -23.046875 L 0.953125 -38.15625 L 0.953125 -38.375 C 0.953125 -39.082031 1.253906 -39.4375 1.859375 -39.4375 L 7.15625 -39.4375 C 7.914062 -39.4375 8.304688 -39.046875 8.328125 -38.265625 L 8.546875 -33.890625 C 8.566406 -33.398438 8.773438 -33.15625 9.171875 -33.15625 L 18.359375 -33.109375 C 19.066406 -33.109375 19.421875 -32.769531 19.421875 -32.09375 Z M 19.421875 -31.921875 "/></g></g></g><g fill="#cf4545" fill-opacity="1"><g transform="translate(263.139234, 60.383463)"><g/></g></g><g fill="#cf4545" fill-opacity="1"><g transform="translate(275.510245, 60.383463)"><g><path d="M 23.296875 -32.453125 C 23.296875 -32.304688 23.285156 -32.195312 23.265625 -32.125 L 19.46875 -10.078125 L 23.109375 -0.84375 C 23.140625 -0.738281 23.15625 -0.648438 23.15625 -0.578125 C 23.15625 -0.191406 22.875 0 22.3125 0 L 14.671875 0 C 14.140625 0 13.765625 -0.265625 13.546875 -0.796875 L 9.671875 -10.515625 L 8.328125 -0.953125 C 8.234375 -0.316406 7.878906 0 7.265625 0 L 1.609375 0 C 1.117188 0 0.875 -0.226562 0.875 -0.6875 C 0.875 -0.769531 0.882812 -0.84375 0.90625 -0.90625 L 4.59375 -22.9375 L 1.125 -32.234375 C 1.050781 -32.390625 1.015625 -32.539062 1.015625 -32.6875 C 1.015625 -33 1.175781 -33.15625 1.5 -33.15625 L 9.171875 -33.15625 C 9.671875 -33.15625 10.03125 -32.863281 10.25 -32.28125 L 14.03125 -22.53125 L 15.65625 -32.28125 C 15.738281 -32.863281 16.054688 -33.15625 16.609375 -33.15625 L 22.59375 -33.15625 C 23.0625 -33.15625 23.296875 -32.921875 23.296875 -32.453125 Z M 23.296875 -32.453125 "/></g></g></g><g fill="#cf4545" fill-opacity="1"><g transform="translate(299.733407, 60.383463)"><g><path d="M 23.65625 -1.09375 C 23.65625 -0.363281 23.300781 0 22.59375 0 L 12.375 0 C 11.664062 0 11.3125 -0.375 11.3125 -1.125 L 11.3125 -1.171875 L 11.796875 -9.828125 C 11.847656 -10.742188 12.238281 -11.203125 12.96875 -11.203125 L 15.109375 -11.203125 C 15.453125 -11.203125 15.625 -11.375 15.625 -11.71875 C 15.625 -11.789062 15.613281 -11.835938 15.59375 -11.859375 L 15 -21.296875 C 14.976562 -21.753906 14.765625 -21.984375 14.359375 -21.984375 L 10.84375 -21.984375 C 10.457031 -21.984375 10.257812 -21.753906 10.25 -21.296875 L 9.015625 -1.171875 C 8.960938 -0.390625 8.570312 0 7.84375 0 L 2.625 0 C 1.914062 0 1.5625 -0.375 1.5625 -1.125 L 1.5625 -1.171875 L 3.515625 -31.921875 C 3.578125 -32.742188 3.988281 -33.15625 4.75 -33.15625 L 20.546875 -33.15625 C 21.265625 -33.15625 21.65625 -32.742188 21.71875 -31.921875 L 23.65625 -1.171875 Z M 23.65625 -1.09375 "/></g></g></g><g fill="#cf4545" fill-opacity="1"><g transform="translate(324.966994, 60.383463)"><g><path d="M 16.109375 -1.015625 C 16.109375 -0.335938 15.753906 0 15.046875 0 L 9.828125 0 C 9.191406 0 8.863281 -0.335938 8.84375 -1.015625 L 8.65625 -3.953125 L 2.453125 1.125 C 2.253906 1.269531 2.066406 1.34375 1.890625 1.34375 C 1.378906 1.34375 1.125 1.03125 1.125 0.40625 L 1.125 0.265625 L 1.90625 -9.78125 C 1.96875 -10.445312 2.328125 -10.992188 2.984375 -11.421875 L 7.84375 -14.46875 L 7.375 -21.359375 C 7.332031 -21.742188 7.148438 -21.9375 6.828125 -21.9375 L 4.59375 -21.9375 C 3.695312 -21.9375 3.25 -22.269531 3.25 -22.9375 L 3.25 -23.15625 L 3.84375 -32.0625 C 3.90625 -32.789062 4.265625 -33.15625 4.921875 -33.15625 L 13.1875 -33.15625 C 13.84375 -33.15625 14.195312 -32.765625 14.25 -31.984375 L 16.109375 -1.171875 Z M 16.109375 -1.015625 "/></g></g></g><g fill="#cf4545" fill-opacity="1"><g transform="translate(342.171712, 60.383463)"><g><path d="M 10.953125 -1.125 C 10.953125 -0.375 10.679688 0 10.140625 0 L 4.59375 0 C 3.914062 0 3.578125 -0.375 3.578125 -1.125 L 3.578125 -21.46875 C 3.578125 -21.8125 3.453125 -21.984375 3.203125 -21.984375 L 2.890625 -21.984375 C 2.441406 -21.984375 2.1875 -22.359375 2.125 -23.109375 L 1.5625 -31.921875 L 1.5625 -32.015625 C 1.5625 -32.773438 1.914062 -33.15625 2.625 -33.15625 L 9.828125 -33.15625 C 10.578125 -33.15625 10.953125 -32.742188 10.953125 -31.921875 Z M 10.953125 -1.125 "/></g></g></g><g fill="#cf4545" fill-opacity="1"><g transform="translate(354.897741, 60.383463)"><g><path d="M 19.53125 -31.765625 L 18.953125 -23.59375 C 18.859375 -22.519531 18.503906 -21.984375 17.890625 -21.984375 L 16.21875 -21.984375 L 16.21875 -1.171875 C 16.21875 -0.390625 15.789062 0 14.9375 0 L 9.96875 0 C 9.1875 0 8.796875 -0.410156 8.796875 -1.234375 L 8.796875 -21.984375 L 2.078125 -21.984375 C 1.378906 -21.984375 1.003906 -22.519531 0.953125 -23.59375 L 0.546875 -31.765625 L 0.546875 -31.953125 C 0.546875 -32.753906 0.9375 -33.15625 1.71875 -33.15625 L 18.515625 -33.15625 C 19.191406 -33.15625 19.53125 -32.765625 19.53125 -31.984375 Z M 19.53125 -31.765625 "/></g></g></g><g fill="#cf4545" fill-opacity="1"><g transform="translate(109.143854, 138.295424)"><g><path d="M 13.5 -36.578125 C 13.5 -36.359375 13.476562 -36.15625 13.4375 -35.96875 L 10.140625 -22.53125 C 9.992188 -21.988281 9.609375 -21.71875 8.984375 -21.71875 C 8.148438 -21.71875 7.734375 -22.125 7.734375 -22.9375 L 7.734375 -35.859375 C 7.734375 -36.859375 8.039062 -37.359375 8.65625 -37.359375 L 12.859375 -37.359375 C 13.285156 -37.359375 13.5 -37.097656 13.5 -36.578125 Z M 6.96875 -36.578125 C 6.96875 -36.390625 6.941406 -36.1875 6.890625 -35.96875 L 3.578125 -22.53125 C 3.429688 -21.988281 3.039062 -21.71875 2.40625 -21.71875 C 1.550781 -21.71875 1.125 -22.125 1.125 -22.9375 L 1.125 -35.859375 C 1.125 -36.859375 1.457031 -37.359375 2.125 -37.359375 L 6.3125 -37.359375 C 6.75 -37.359375 6.96875 -37.097656 6.96875 -36.578125 Z M 6.96875 -36.578125 "/></g></g></g><g fill="#cf4545" fill-opacity="1"><g transform="translate(123.399192, 138.295424)"><g><path d="M 22.453125 -32.421875 C 22.453125 -32.273438 22.425781 -32.109375 22.375 -31.921875 L 16.21875 -9.5 L 16.21875 4.53125 C 16.21875 5.28125 15.9375 5.65625 15.375 5.65625 L 9.78125 5.65625 C 9.125 5.65625 8.796875 5.28125 8.796875 4.53125 L 8.796875 -7.046875 L 0.90625 -31.921875 C 0.863281 -32.066406 0.84375 -32.195312 0.84375 -32.3125 C 0.84375 -32.875 1.132812 -33.15625 1.71875 -33.15625 L 8.546875 -33.15625 C 9.296875 -33.15625 9.804688 -32.742188 10.078125 -31.921875 L 12.8125 -23.65625 L 14.78125 -31.921875 C 14.957031 -32.742188 15.421875 -33.15625 16.171875 -33.15625 L 21.609375 -33.15625 C 22.171875 -33.15625 22.453125 -32.910156 22.453125 -32.421875 Z M 22.453125 -32.421875 "/></g></g></g><g fill="#cf4545" fill-opacity="1"><g transform="translate(146.611907, 138.295424)"><g><path d="M 23.046875 -0.90625 C 23.046875 -0.300781 22.785156 0 22.265625 0 L 16.828125 0 C 16.222656 0 15.894531 -0.390625 15.84375 -1.171875 L 14.421875 -21.46875 C 14.378906 -21.78125 14.179688 -21.9375 13.828125 -21.9375 L 10.734375 -21.9375 C 10.460938 -21.9375 10.316406 -21.757812 10.296875 -21.40625 L 8.796875 -1.171875 C 8.742188 -0.390625 8.390625 0 7.734375 0 L 2.453125 0 C 1.859375 0 1.5625 -0.363281 1.5625 -1.09375 L 1.5625 -1.171875 L 3.515625 -31.921875 C 3.578125 -32.742188 3.972656 -33.15625 4.703125 -33.15625 L 20.125 -33.15625 C 20.851562 -33.15625 21.242188 -32.742188 21.296875 -31.921875 L 23.046875 -1.171875 Z M 23.046875 -0.90625 "/></g></g></g><g fill="#cf4545" fill-opacity="1"><g transform="translate(171.244694, 138.295424)"><g><path d="M 10.953125 -1.125 C 10.953125 -0.375 10.679688 0 10.140625 0 L 4.59375 0 C 3.914062 0 3.578125 -0.375 3.578125 -1.125 L 3.578125 -21.46875 C 3.578125 -21.8125 3.453125 -21.984375 3.203125 -21.984375 L 2.890625 -21.984375 C 2.441406 -21.984375 2.1875 -22.359375 2.125 -23.109375 L 1.5625 -31.921875 L 1.5625 -32.015625 C 1.5625 -32.773438 1.914062 -33.15625 2.625 -33.15625 L 9.828125 -33.15625 C 10.578125 -33.15625 10.953125 -32.742188 10.953125 -31.921875 Z M 10.953125 -1.125 "/></g></g></g><g fill="#cf4545" fill-opacity="1"><g transform="translate(183.970724, 138.295424)"><g/></g></g><g fill="#cf4545" fill-opacity="1"><g transform="translate(196.341735, 138.295424)"><g><path d="M 10.953125 4.53125 C 10.953125 5.28125 10.679688 5.65625 10.140625 5.65625 L 4.59375 5.65625 C 3.914062 5.65625 3.578125 5.28125 3.578125 4.53125 L 3.578125 -21.46875 C 3.578125 -21.8125 3.453125 -21.984375 3.203125 -21.984375 L 2.890625 -21.984375 C 2.441406 -21.984375 2.1875 -22.359375 2.125 -23.109375 L 1.5625 -31.921875 L 1.5625 -32.015625 C 1.5625 -32.773438 1.914062 -33.15625 2.625 -33.15625 L 9.828125 -33.15625 C 10.578125 -33.15625 10.953125 -32.742188 10.953125 -31.921875 Z M 10.953125 4.53125 "/></g></g></g><g fill="#cf4545" fill-opacity="1"><g transform="translate(209.067765, 138.295424)"><g><path d="M 16.109375 -1.015625 C 16.109375 -0.335938 15.753906 0 15.046875 0 L 9.828125 0 C 9.191406 0 8.863281 -0.335938 8.84375 -1.015625 L 8.65625 -3.953125 L 2.453125 1.125 C 2.253906 1.269531 2.066406 1.34375 1.890625 1.34375 C 1.378906 1.34375 1.125 1.03125 1.125 0.40625 L 1.125 0.265625 L 1.90625 -9.78125 C 1.96875 -10.445312 2.328125 -10.992188 2.984375 -11.421875 L 7.84375 -14.46875 L 7.375 -21.359375 C 7.332031 -21.742188 7.148438 -21.9375 6.828125 -21.9375 L 4.59375 -21.9375 C 3.695312 -21.9375 3.25 -22.269531 3.25 -22.9375 L 3.25 -23.15625 L 3.84375 -32.0625 C 3.90625 -32.789062 4.265625 -33.15625 4.921875 -33.15625 L 13.1875 -33.15625 C 13.84375 -33.15625 14.195312 -32.765625 14.25 -31.984375 L 16.109375 -1.171875 Z M 16.109375 -1.015625 "/></g></g></g><g fill="#cf4545" fill-opacity="1"><g transform="translate(226.272483, 138.295424)"><g><path d="M 23.65625 -1.09375 C 23.65625 -0.363281 23.300781 0 22.59375 0 L 12.375 0 C 11.664062 0 11.3125 -0.375 11.3125 -1.125 L 11.3125 -1.171875 L 11.796875 -9.828125 C 11.847656 -10.742188 12.238281 -11.203125 12.96875 -11.203125 L 15.109375 -11.203125 C 15.453125 -11.203125 15.625 -11.375 15.625 -11.71875 C 15.625 -11.789062 15.613281 -11.835938 15.59375 -11.859375 L 15 -21.296875 C 14.976562 -21.753906 14.765625 -21.984375 14.359375 -21.984375 L 10.84375 -21.984375 C 10.457031 -21.984375 10.257812 -21.753906 10.25 -21.296875 L 9.015625 -1.171875 C 8.960938 -0.390625 8.570312 0 7.84375 0 L 2.625 0 C 1.914062 0 1.5625 -0.375 1.5625 -1.125 L 1.5625 -1.171875 L 3.515625 -31.921875 C 3.578125 -32.742188 3.988281 -33.15625 4.75 -33.15625 L 20.546875 -33.15625 C 21.265625 -33.15625 21.65625 -32.742188 21.71875 -31.921875 L 23.65625 -1.171875 Z M 23.65625 -1.09375 "/></g></g></g><g fill="#cf4545" fill-opacity="1"><g transform="translate(251.50607, 138.295424)"><g><path d="M 1.125 -22.5 C 1.125 -22.71875 1.140625 -22.921875 1.171875 -23.109375 L 4.484375 -36.546875 C 4.609375 -37.085938 4.988281 -37.359375 5.625 -37.359375 C 6.46875 -37.359375 6.890625 -36.953125 6.890625 -36.140625 L 6.890625 -23.21875 C 6.890625 -22.21875 6.578125 -21.71875 5.953125 -21.71875 L 1.75 -21.71875 C 1.332031 -21.71875 1.125 -21.976562 1.125 -22.5 Z M 7.640625 -22.5 C 7.640625 -22.6875 7.671875 -22.890625 7.734375 -23.109375 L 11.03125 -36.546875 C 11.15625 -37.085938 11.546875 -37.359375 12.203125 -37.359375 C 13.066406 -37.359375 13.5 -36.953125 13.5 -36.140625 L 13.5 -23.21875 C 13.5 -22.21875 13.160156 -21.71875 12.484375 -21.71875 L 8.296875 -21.71875 C 7.859375 -21.71875 7.640625 -21.976562 7.640625 -22.5 Z M 7.640625 -22.5 "/></g></g></g><g fill="#cf4545" fill-opacity="1"><g transform="translate(265.761408, 138.295424)"><g/></g></g><g fill="#cf4545" fill-opacity="1"><g transform="translate(278.132419, 138.295424)"><g><path d="M 22.15625 -31.921875 L 20.296875 -1.171875 C 20.242188 -0.390625 19.851562 0 19.125 0 L 2.34375 0 C 1.675781 0 1.34375 -0.363281 1.34375 -1.09375 L 1.34375 -1.171875 L 2.078125 -10.078125 C 2.128906 -10.828125 2.539062 -11.203125 3.3125 -11.203125 L 4.484375 -11.203125 L 2.671875 -31.921875 L 2.671875 -32.09375 C 2.671875 -32.769531 3.007812 -33.109375 3.6875 -33.109375 L 8.84375 -33.109375 C 9.59375 -33.109375 10.003906 -32.710938 10.078125 -31.921875 L 11.859375 -11.140625 L 12.921875 -11.140625 C 13.304688 -11.140625 13.515625 -11.378906 13.546875 -11.859375 L 14.890625 -31.921875 C 14.941406 -32.710938 15.332031 -33.109375 16.0625 -33.109375 L 21.078125 -33.109375 C 21.796875 -33.109375 22.15625 -32.757812 22.15625 -32.0625 Z M 22.15625 -31.921875 "/></g></g></g><g fill="#cf4545" fill-opacity="1"><g transform="translate(301.863995, 138.295424)"><g><path d="M 22.203125 -32.390625 C 22.203125 -32.316406 22.195312 -32.242188 22.1875 -32.171875 C 22.175781 -32.097656 22.164062 -32.015625 22.15625 -31.921875 L 17.9375 -11.75 L 21.515625 -1.171875 C 21.578125 -1.066406 21.609375 -0.945312 21.609375 -0.8125 C 21.609375 -0.269531 21.363281 0 20.875 0 L 2.234375 0 C 1.566406 0 1.234375 -0.363281 1.234375 -1.09375 L 1.234375 -1.171875 L 1.96875 -9.890625 C 2.039062 -10.765625 2.46875 -11.203125 3.25 -11.203125 L 7.78125 -11.203125 C 8.09375 -11.203125 8.25 -11.289062 8.25 -11.46875 C 8.25 -11.519531 8.238281 -11.554688 8.21875 -11.578125 L 1.125 -31.921875 C 1.082031 -32.066406 1.0625 -32.195312 1.0625 -32.3125 C 1.0625 -32.875 1.363281 -33.15625 1.96875 -33.15625 L 8.796875 -33.15625 C 9.523438 -33.15625 10.023438 -32.742188 10.296875 -31.921875 L 13.03125 -23.65625 L 14.53125 -31.921875 C 14.65625 -32.742188 15.144531 -33.15625 16 -33.15625 L 21.359375 -33.15625 C 21.921875 -33.15625 22.203125 -32.898438 22.203125 -32.390625 Z M 22.203125 -32.390625 "/></g></g></g><g fill="#cf4545" fill-opacity="1"><g transform="translate(325.07671, 138.295424)"><g><path d="M 20.296875 -1.015625 C 20.296875 -0.335938 20.019531 0 19.46875 0 L 1.671875 0 C 1.085938 0 0.796875 -0.300781 0.796875 -0.90625 L 0.796875 -1.015625 L 1.234375 -10.1875 C 1.242188 -10.863281 1.5625 -11.203125 2.1875 -11.203125 L 10.40625 -11.203125 L 9.78125 -21.359375 C 9.738281 -21.742188 9.570312 -21.9375 9.28125 -21.9375 L 3.46875 -21.9375 C 2.832031 -21.9375 2.515625 -22.28125 2.515625 -22.96875 L 2.515625 -23.046875 L 2.890625 -32.171875 C 2.910156 -32.828125 3.3125 -33.15625 4.09375 -33.15625 L 15.484375 -33.15625 C 16.191406 -33.15625 16.566406 -32.8125 16.609375 -32.125 L 17.828125 -11.203125 L 18.90625 -11.203125 C 19.5 -11.203125 19.816406 -10.828125 19.859375 -10.078125 L 20.296875 -1.0625 Z M 20.296875 -1.015625 "/></g></g></g><g fill="#cf4545" fill-opacity="1"><g transform="translate(346.159317, 138.295424)"><g><path d="M 23.65625 -1.09375 C 23.65625 -0.363281 23.300781 0 22.59375 0 L 12.375 0 C 11.664062 0 11.3125 -0.375 11.3125 -1.125 L 11.3125 -1.171875 L 11.796875 -9.828125 C 11.847656 -10.742188 12.238281 -11.203125 12.96875 -11.203125 L 15.109375 -11.203125 C 15.453125 -11.203125 15.625 -11.375 15.625 -11.71875 C 15.625 -11.789062 15.613281 -11.835938 15.59375 -11.859375 L 15 -21.296875 C 14.976562 -21.753906 14.765625 -21.984375 14.359375 -21.984375 L 10.84375 -21.984375 C 10.457031 -21.984375 10.257812 -21.753906 10.25 -21.296875 L 9.015625 -1.171875 C 8.960938 -0.390625 8.570312 0 7.84375 0 L 2.625 0 C 1.914062 0 1.5625 -0.375 1.5625 -1.125 L 1.5625 -1.171875 L 3.515625 -31.921875 C 3.578125 -32.742188 3.988281 -33.15625 4.75 -33.15625 L 20.546875 -33.15625 C 21.265625 -33.15625 21.65625 -32.742188 21.71875 -31.921875 L 23.65625 -1.171875 Z M 23.65625 -1.09375 "/></g></g></g></svg>