<svg xmlns="http://www.w3.org/2000/svg" xmlns:xlink="http://www.w3.org/1999/xlink" width="267" zoomAndPan="magnify" viewBox="0 0 200.25 195.749994" height="261" preserveAspectRatio="xMidYMid meet" version="1.0"><defs><clipPath id="94a28b890a"><path d="M 14 13 L 178 13 L 178 188 L 14 188 Z M 14 13 " clip-rule="nonzero"/></clipPath><clipPath id="fcb2b544fd"><path d="M 27.09375 5.984375 L 195.804688 34.53125 L 168.75 194.402344 L 0.0390625 165.851562 Z M 27.09375 5.984375 " clip-rule="nonzero"/></clipPath><clipPath id="ed629465f0"><path d="M 195.851562 34.539062 L 27.140625 5.992188 L 0.0859375 165.859375 L 168.796875 194.410156 Z M 195.851562 34.539062 " clip-rule="nonzero"/></clipPath><clipPath id="ddde7ee716"><path d="M 17 8 L 181 8 L 181 182 L 17 182 Z M 17 8 " clip-rule="nonzero"/></clipPath><clipPath id="7399bc6378"><path d="M 30.179688 0.242188 L 198.890625 28.789062 L 171.839844 188.660156 L 3.128906 160.109375 Z M 30.179688 0.242188 " clip-rule="nonzero"/></clipPath><clipPath id="68e9b72b57"><path d="M 198.9375 28.796875 L 30.226562 0.25 L 3.175781 160.117188 L 171.886719 188.667969 Z M 198.9375 28.796875 " clip-rule="nonzero"/></clipPath></defs><g clip-path="url(#94a28b890a)"><g clip-path="url(#fcb2b544fd)"><g clip-path="url(#ed629465f0)"><path fill="#cf4545" d="M 153.25 162.789062 C 158.574219 163.691406 163.988281 161.664062 167.421875 157.578125 L 173.707031 149.816406 C 176.246094 146.796875 177.523438 142.851562 177.089844 138.820312 C 176.753906 134.808594 174.835938 131.136719 171.71875 128.578125 L 163.449219 121.703125 C 148.835938 105.53125 142.863281 86.867188 137.6875 64.6875 L 76.988281 138.015625 C 86.144531 138.449219 95.074219 139.046875 103.851562 140.53125 C 109.96875 141.566406 115.621094 142.929688 120.894531 144.734375 C 118.695312 150.550781 120.09375 157.28125 124.71875 161.714844 L 118.714844 169.019531 C 116.800781 171.332031 115.90625 174.226562 116.210938 177.21875 C 116.515625 180.210938 117.988281 182.898438 120.304688 184.808594 C 121.8125 186.082031 123.6875 187.007812 125.660156 187.339844 C 129.601562 188.007812 133.621094 186.457031 136.160156 183.433594 Z M 17.835938 84.683594 L 65.769531 92.796875 C 67.9375 93.164062 70.015625 91.6875 70.382812 89.519531 C 70.765625 87.25 69.273438 85.273438 67.105469 84.90625 L 19.167969 76.792969 C 17 76.425781 14.941406 77.804688 14.554688 80.070312 C 14.1875 82.242188 15.664062 84.316406 17.835938 84.683594 Z M 78.722656 82.203125 C 80.101562 82.4375 81.5 81.964844 82.507812 80.816406 C 83.910156 79.125 83.617188 76.640625 81.929688 75.238281 L 44.476562 44.148438 C 42.785156 42.746094 40.203125 43.019531 38.800781 44.707031 C 37.398438 46.398438 37.671875 48.980469 39.363281 50.382812 L 76.832031 81.375 C 77.375 81.773438 78.03125 82.085938 78.722656 82.203125 Z M 86.683594 67.519531 C 87.375 67.636719 88 67.542969 88.738281 67.363281 C 90.796875 66.59375 91.804688 64.230469 91.039062 62.171875 L 74.097656 16.59375 C 73.328125 14.535156 71.078125 13.445312 69.023438 14.210938 C 66.867188 14.960938 65.855469 17.328125 66.625 19.386719 L 83.566406 64.964844 C 84.136719 66.378906 85.304688 67.289062 86.683594 67.519531 Z M 128.402344 147.730469 C 130.292969 148.558594 132.164062 149.480469 134.023438 150.507812 L 129.816406 155.578125 C 127.960938 153.335938 127.445312 150.40625 128.402344 147.730469 Z M 61.753906 140.507812 C 66.09375 141.242188 70.535156 139.5625 73.339844 136.179688 L 135.179688 61.523438 C 137.242188 58.929688 138.1875 55.742188 137.933594 52.453125 C 137.578125 49.148438 136.054688 46.148438 133.464844 44.085938 C 131.871094 42.703125 129.800781 41.742188 127.730469 41.394531 C 123.292969 40.640625 118.847656 42.324219 116.042969 45.707031 L 54.304688 120.378906 C 52.144531 122.957031 51.199219 126.144531 51.550781 129.449219 C 51.804688 132.738281 53.425781 135.753906 55.921875 137.796875 C 57.613281 139.199219 59.582031 140.140625 61.753906 140.507812 Z M 61.753906 140.507812 " fill-opacity="1" fill-rule="evenodd"/></g></g></g><g clip-path="url(#ddde7ee716)"><g clip-path="url(#7399bc6378)"><g clip-path="url(#68e9b72b57)"><path fill="#ffcf7e" d="M 156.335938 157.046875 C 161.664062 157.949219 167.078125 155.921875 170.507812 151.835938 L 176.792969 144.074219 C 179.335938 141.054688 180.609375 137.109375 180.175781 133.082031 C 179.839844 129.066406 177.925781 125.394531 174.808594 122.839844 L 166.535156 115.960938 C 151.921875 99.792969 145.949219 81.128906 140.777344 58.945312 L 80.074219 132.273438 C 89.234375 132.707031 98.164062 133.304688 106.941406 134.789062 C 113.054688 135.824219 118.710938 137.1875 123.984375 138.992188 C 121.78125 144.808594 123.179688 151.539062 127.808594 155.972656 L 121.800781 163.277344 C 119.890625 165.589844 118.992188 168.484375 119.300781 171.476562 C 119.605469 174.472656 121.078125 177.15625 123.390625 179.070312 C 124.902344 180.339844 126.773438 181.265625 128.746094 181.597656 C 132.691406 182.265625 136.707031 180.714844 139.25 177.695312 Z M 20.921875 78.941406 L 68.855469 87.054688 C 71.027344 87.421875 73.101562 85.945312 73.46875 83.777344 C 73.851562 81.507812 72.363281 79.53125 70.191406 79.164062 L 22.257812 71.050781 C 20.085938 70.683594 18.027344 72.0625 17.644531 74.328125 C 17.277344 76.5 18.753906 78.574219 20.921875 78.941406 Z M 81.808594 76.460938 C 83.191406 76.695312 84.589844 76.222656 85.59375 75.074219 C 86.996094 73.382812 86.707031 70.898438 85.015625 69.496094 L 47.566406 38.40625 C 45.875 37.003906 43.292969 37.277344 41.890625 38.964844 C 40.488281 40.65625 40.761719 43.238281 42.453125 44.640625 L 79.917969 75.636719 C 80.460938 76.03125 81.117188 76.34375 81.808594 76.460938 Z M 89.773438 61.78125 C 90.460938 61.898438 91.085938 61.800781 91.828125 61.621094 C 93.886719 60.851562 94.894531 58.488281 94.125 56.429688 L 77.1875 10.851562 C 76.417969 8.792969 74.167969 7.703125 72.109375 8.46875 C 69.953125 9.222656 68.945312 11.585938 69.714844 13.644531 L 86.652344 59.222656 C 87.226562 60.640625 88.390625 61.546875 89.773438 61.78125 Z M 131.492188 141.988281 C 133.382812 142.816406 135.253906 143.742188 137.109375 144.765625 L 132.902344 149.835938 C 131.050781 147.59375 130.53125 144.667969 131.492188 141.988281 Z M 64.839844 134.769531 C 69.179688 135.503906 73.625 133.820312 76.429688 130.4375 L 138.269531 55.78125 C 140.328125 53.1875 141.273438 50 141.019531 46.710938 C 140.667969 43.40625 139.144531 40.410156 136.550781 38.347656 C 134.960938 36.960938 132.890625 36 130.820312 35.652344 C 126.378906 34.898438 121.9375 36.582031 119.132812 39.964844 L 57.390625 114.636719 C 55.230469 117.214844 54.285156 120.402344 54.640625 123.707031 C 54.894531 126.996094 56.515625 130.011719 59.007812 132.058594 C 60.699219 133.457031 62.671875 134.402344 64.839844 134.769531 Z M 64.839844 134.769531 " fill-opacity="1" fill-rule="evenodd"/></g></g></g></svg>