<svg xmlns="http://www.w3.org/2000/svg" xmlns:xlink="http://www.w3.org/1999/xlink" width="1525" zoomAndPan="magnify" viewBox="0 0 1143.75 158.249993" height="211" preserveAspectRatio="xMidYMid meet" version="1.0"><defs><g/><clipPath id="193d7cf796"><path d="M 1080 35 L 1134 35 L 1134 92 L 1080 92 Z M 1080 35 " clip-rule="nonzero"/></clipPath><clipPath id="cf8964a491"><path d="M 1087.140625 26.671875 L 1140.378906 43.988281 L 1123.984375 94.390625 L 1070.746094 77.070312 Z M 1087.140625 26.671875 " clip-rule="nonzero"/></clipPath><clipPath id="8038e7e2fa"><path d="M 1087.140625 26.671875 L 1140.378906 43.988281 L 1123.984375 94.390625 L 1070.746094 77.070312 Z M 1087.140625 26.671875 " clip-rule="nonzero"/></clipPath><clipPath id="88f96605a2"><path d="M 1080 35 L 1134 35 L 1134 91 L 1080 91 Z M 1080 35 " clip-rule="nonzero"/></clipPath><clipPath id="24ca60db4c"><path d="M 1087.140625 26.671875 L 1140.378906 43.988281 L 1123.984375 94.390625 L 1070.746094 77.070312 Z M 1087.140625 26.671875 " clip-rule="nonzero"/></clipPath><clipPath id="22ffaa2fb1"><path d="M 1087.140625 26.671875 L 1140.378906 43.988281 L 1123.984375 94.390625 L 1070.746094 77.070312 Z M 1087.140625 26.671875 " clip-rule="nonzero"/></clipPath><clipPath id="ef1fa7f494"><path d="M 12 27 L 83 27 L 83 97 L 12 97 Z M 12 27 " clip-rule="nonzero"/></clipPath><clipPath id="98c66c9605"><path d="M 2.574219 38.105469 L 71.96875 17.441406 L 92.632812 86.835938 L 23.238281 107.5 Z M 2.574219 38.105469 " clip-rule="nonzero"/></clipPath><clipPath id="11e4f5d01c"><path d="M 2.574219 38.105469 L 71.96875 17.441406 L 92.632812 86.835938 L 23.238281 107.5 Z M 2.574219 38.105469 " clip-rule="nonzero"/></clipPath><clipPath id="0b845cd506"><path d="M 7 82 L 31 82 L 31 105 L 7 105 Z M 7 82 " clip-rule="nonzero"/></clipPath><clipPath id="0fb36de74e"><path d="M 2.574219 88.53125 L 22.257812 76.363281 L 34.03125 95.414062 L 14.347656 107.578125 Z M 2.574219 88.53125 " clip-rule="nonzero"/></clipPath><clipPath id="58fe9c036f"><path d="M 2.574219 88.53125 L 22.257812 76.363281 L 34.03125 95.414062 L 14.347656 107.578125 Z M 2.574219 88.53125 " clip-rule="nonzero"/></clipPath><clipPath id="6dc5c75bc1"><path d="M 6 82 L 31 82 L 31 105 L 6 105 Z M 6 82 " clip-rule="nonzero"/></clipPath><clipPath id="46cadb5e47"><path d="M 2.574219 88.53125 L 22.257812 76.363281 L 34.03125 95.414062 L 14.347656 107.578125 Z M 2.574219 88.53125 " clip-rule="nonzero"/></clipPath><clipPath id="bd9043b5be"><path d="M 2.574219 88.53125 L 22.257812 76.363281 L 34.03125 95.414062 L 14.347656 107.578125 Z M 2.574219 88.53125 " clip-rule="nonzero"/></clipPath></defs><g fill="#f8f6e9" fill-opacity="0.4"><g transform="translate(113.431727, 107.83158)"><g><path d="M 41.109375 -1.8125 C 41.109375 -0.601562 40.5 0 39.28125 0 L 4.484375 0 C 3.265625 0 2.65625 -0.617188 2.65625 -1.859375 L 2.65625 -2 L 5.921875 -54.53125 C 6.015625 -55.9375 6.6875 -56.640625 7.9375 -56.640625 L 35.921875 -56.640625 C 37.171875 -56.640625 37.835938 -55.9375 37.921875 -54.53125 L 41.109375 -2 Z M 27.625 -19.96875 L 26.265625 -36.90625 C 26.203125 -37.28125 26.015625 -37.46875 25.703125 -37.46875 L 17.96875 -37.46875 C 17.5 -37.46875 17.25 -37.28125 17.21875 -36.90625 L 16.234375 -19.96875 L 16.234375 -19.921875 C 16.234375 -19.390625 16.53125 -19.125 17.125 -19.125 L 26.734375 -19.125 C 27.328125 -19.125 27.625 -19.359375 27.625 -19.828125 Z M 27.625 -19.96875 "/></g></g><g transform="translate(157.193073, 107.83158)"><g><path d="M 18.703125 -1.90625 C 18.703125 -0.632812 18.238281 0 17.3125 0 L 7.84375 0 C 6.6875 0 6.109375 -0.632812 6.109375 -1.90625 L 6.109375 -36.671875 C 6.109375 -37.265625 5.890625 -37.5625 5.453125 -37.5625 L 4.9375 -37.5625 C 4.164062 -37.5625 3.734375 -38.195312 3.640625 -39.46875 L 2.65625 -54.53125 L 2.65625 -54.671875 C 2.65625 -55.984375 3.265625 -56.640625 4.484375 -56.640625 L 16.796875 -56.640625 C 18.066406 -56.640625 18.703125 -55.9375 18.703125 -54.53125 Z M 18.703125 -1.90625 "/></g></g><g transform="translate(178.933784, 107.83158)"><g><path d="M 31.34375 -1.90625 C 31.34375 -0.632812 30.832031 0 29.8125 0 L 20.4375 0 C 19.21875 0 18.609375 -0.632812 18.609375 -1.90625 L 18.609375 -36.578125 C 18.609375 -37.234375 18.269531 -37.5625 17.59375 -37.5625 L 4.765625 -37.5625 C 3.453125 -37.5625 2.78125 -38.164062 2.75 -39.375 L 1.8125 -54.53125 L 1.8125 -54.671875 C 1.8125 -55.984375 2.421875 -56.640625 3.640625 -56.640625 L 29.4375 -56.640625 C 30.707031 -56.640625 31.34375 -55.9375 31.34375 -54.53125 Z M 31.34375 -1.90625 "/></g></g><g transform="translate(214.110815, 107.83158)"><g><path d="M 19.59375 -24.453125 C 19.59375 -23.171875 19.082031 -22.53125 18.0625 -22.53125 L 8.671875 -22.53125 C 7.554688 -22.53125 7 -23.171875 7 -24.453125 L 7 -36.578125 C 7 -37.234375 6.671875 -37.5625 6.015625 -37.5625 L 5.265625 -37.5625 C 4.273438 -37.5625 3.734375 -38.195312 3.640625 -39.46875 L 2.65625 -54.53125 L 2.65625 -54.71875 C 2.65625 -56 3.265625 -56.640625 4.484375 -56.640625 L 17.6875 -56.640625 C 18.957031 -56.640625 19.59375 -55.9375 19.59375 -54.53125 Z M 19.59375 -24.453125 "/></g></g><g transform="translate(236.691298, 107.83158)"><g><path d="M 39.375 -1.546875 C 39.375 -0.515625 38.921875 0 38.015625 0 L 28.734375 0 C 27.710938 0 27.15625 -0.664062 27.0625 -2 L 24.640625 -36.671875 C 24.578125 -37.203125 24.234375 -37.46875 23.609375 -37.46875 L 18.328125 -37.46875 C 17.867188 -37.46875 17.625 -37.171875 17.59375 -36.578125 L 15.015625 -2 C 14.921875 -0.664062 14.316406 0 13.203125 0 L 4.203125 0 C 3.171875 0 2.65625 -0.617188 2.65625 -1.859375 L 2.65625 -2 L 6.015625 -54.53125 C 6.109375 -55.9375 6.78125 -56.640625 8.03125 -56.640625 L 34.390625 -56.640625 C 35.628906 -56.640625 36.296875 -55.9375 36.390625 -54.53125 L 39.375 -2 Z M 39.375 -1.546875 "/></g></g><g transform="translate(278.773104, 107.83158)"><g><path d="M 37.46875 -2.140625 C 37.46875 -0.710938 36.828125 0 35.546875 0 L 26.96875 0 C 25.5625 0 24.8125 -0.789062 24.71875 -2.375 L 22.71875 -36.015625 C 22.65625 -37.046875 22.222656 -37.5625 21.421875 -37.5625 L 6.765625 -37.5625 C 5.304688 -37.5625 4.578125 -38.382812 4.578125 -40.03125 L 4.578125 -40.3125 L 5.359375 -54.359375 C 5.453125 -55.878906 6.28125 -56.640625 7.84375 -56.640625 L 32.28125 -56.640625 C 33.71875 -56.640625 34.484375 -55.816406 34.578125 -54.171875 L 37.46875 -2.375 Z M 15.671875 -24.8125 L 15.015625 -2.1875 C 14.953125 -0.726562 14.175781 0 12.6875 0 L 4.578125 0 C 3.296875 0 2.65625 -0.742188 2.65625 -2.234375 L 2.65625 -2.375 L 3.546875 -25.046875 C 3.578125 -26.578125 4.429688 -27.34375 6.109375 -27.34375 L 13.484375 -27.34375 C 14.941406 -27.34375 15.671875 -26.5625 15.671875 -25 Z M 15.671875 -24.8125 "/></g></g><g transform="translate(318.942102, 107.83158)"><g/></g><g transform="translate(340.076313, 107.83158)"><g><path d="M 19.59375 -24.453125 C 19.59375 -23.171875 19.082031 -22.53125 18.0625 -22.53125 L 8.671875 -22.53125 C 7.554688 -22.53125 7 -23.171875 7 -24.453125 L 7 -36.578125 C 7 -37.234375 6.671875 -37.5625 6.015625 -37.5625 L 5.265625 -37.5625 C 4.273438 -37.5625 3.734375 -38.195312 3.640625 -39.46875 L 2.65625 -54.53125 L 2.65625 -54.71875 C 2.65625 -56 3.265625 -56.640625 4.484375 -56.640625 L 17.6875 -56.640625 C 18.957031 -56.640625 19.59375 -55.9375 19.59375 -54.53125 Z M 19.59375 -24.453125 "/></g></g><g transform="translate(362.656796, 107.83158)"><g><path d="M 26.78125 -1.8125 C 26.78125 -0.601562 26.171875 0 24.953125 0 L 3.640625 0 C 2.484375 0 1.90625 -0.601562 1.90625 -1.8125 L 1.90625 -2 L 3.359375 -17.125 C 3.484375 -18.457031 4.148438 -19.125 5.359375 -19.125 L 12.21875 -19.125 C 12.9375 -19.125 13.296875 -19.328125 13.296875 -19.734375 L 13.296875 -19.875 L 11.9375 -36.671875 C 11.875 -37.203125 11.519531 -37.46875 10.875 -37.46875 L 8.296875 -37.46875 C 7.085938 -37.46875 6.484375 -38.070312 6.484375 -39.28125 L 6.484375 -39.375 L 7.5625 -54.53125 C 7.65625 -55.9375 8.351562 -56.640625 9.65625 -56.640625 L 21.59375 -56.640625 C 22.84375 -56.640625 23.515625 -55.9375 23.609375 -54.53125 L 26.734375 -2 C 26.765625 -1.96875 26.78125 -1.90625 26.78125 -1.8125 Z M 26.78125 -1.8125 "/></g></g><g transform="translate(392.095399, 107.83158)"><g><path d="M 18.703125 -1.90625 C 18.703125 -0.632812 18.238281 0 17.3125 0 L 7.84375 0 C 6.6875 0 6.109375 -0.632812 6.109375 -1.90625 L 6.109375 -36.671875 C 6.109375 -37.265625 5.890625 -37.5625 5.453125 -37.5625 L 4.9375 -37.5625 C 4.164062 -37.5625 3.734375 -38.195312 3.640625 -39.46875 L 2.65625 -54.53125 L 2.65625 -54.671875 C 2.65625 -55.984375 3.265625 -56.640625 4.484375 -56.640625 L 16.796875 -56.640625 C 18.066406 -56.640625 18.703125 -55.9375 18.703125 -54.53125 Z M 18.703125 -1.90625 "/></g></g><g transform="translate(413.83611, 107.83158)"><g><path d="M 27.53125 -1.71875 C 27.53125 -0.570312 26.921875 0 25.703125 0 L 16.796875 0 C 15.703125 0 15.140625 -0.570312 15.109375 -1.71875 L 14.796875 -6.765625 L 4.203125 1.90625 C 3.859375 2.15625 3.53125 2.28125 3.21875 2.28125 C 2.34375 2.28125 1.90625 1.753906 1.90625 0.703125 L 1.90625 0.46875 L 3.265625 -16.703125 C 3.359375 -17.847656 3.960938 -18.78125 5.078125 -19.5 L 13.390625 -24.71875 L 12.59375 -36.484375 C 12.53125 -37.140625 12.21875 -37.46875 11.65625 -37.46875 L 7.84375 -37.46875 C 6.3125 -37.46875 5.546875 -38.039062 5.546875 -39.1875 L 5.546875 -39.5625 L 6.578125 -54.765625 C 6.671875 -56.015625 7.273438 -56.640625 8.390625 -56.640625 L 22.53125 -56.640625 C 23.65625 -56.640625 24.265625 -55.96875 24.359375 -54.625 L 27.53125 -2 Z M 27.53125 -1.71875 "/></g></g><g transform="translate(443.22806, 107.83158)"><g><path d="M 31.34375 -1.90625 C 31.34375 -0.632812 30.832031 0 29.8125 0 L 20.4375 0 C 19.21875 0 18.609375 -0.632812 18.609375 -1.90625 L 18.609375 -36.578125 C 18.609375 -37.234375 18.269531 -37.5625 17.59375 -37.5625 L 4.765625 -37.5625 C 3.453125 -37.5625 2.78125 -38.164062 2.75 -39.375 L 1.8125 -54.53125 L 1.8125 -54.671875 C 1.8125 -55.984375 2.421875 -56.640625 3.640625 -56.640625 L 29.4375 -56.640625 C 30.707031 -56.640625 31.34375 -55.9375 31.34375 -54.53125 Z M 31.34375 -1.90625 "/></g></g><g transform="translate(478.405091, 107.83158)"><g><path d="M 39.796875 -55.421875 C 39.796875 -55.171875 39.78125 -54.984375 39.75 -54.859375 L 33.265625 -17.21875 L 39.46875 -1.453125 C 39.53125 -1.265625 39.5625 -1.109375 39.5625 -0.984375 C 39.5625 -0.328125 39.078125 0 38.109375 0 L 25.046875 0 C 24.148438 0 23.515625 -0.453125 23.140625 -1.359375 L 16.515625 -17.96875 L 14.234375 -1.640625 C 14.078125 -0.546875 13.46875 0 12.40625 0 L 2.75 0 C 1.914062 0 1.5 -0.390625 1.5 -1.171875 C 1.5 -1.328125 1.515625 -1.453125 1.546875 -1.546875 L 7.84375 -39.1875 L 1.90625 -55.046875 C 1.78125 -55.328125 1.71875 -55.59375 1.71875 -55.84375 C 1.71875 -56.375 2 -56.640625 2.5625 -56.640625 L 15.671875 -56.640625 C 16.515625 -56.640625 17.125 -56.140625 17.5 -55.140625 L 23.984375 -38.484375 L 26.734375 -55.140625 C 26.890625 -56.140625 27.429688 -56.640625 28.359375 -56.640625 L 38.578125 -56.640625 C 39.390625 -56.640625 39.796875 -56.234375 39.796875 -55.421875 Z M 39.796875 -55.421875 "/></g></g><g transform="translate(519.787089, 107.83158)"><g/></g><g transform="translate(540.921301, 107.83158)"><g><path d="M 18.703125 7.75 C 18.703125 9.019531 18.238281 9.65625 17.3125 9.65625 L 7.84375 9.65625 C 6.6875 9.65625 6.109375 9.019531 6.109375 7.75 L 6.109375 -36.671875 C 6.109375 -37.265625 5.890625 -37.5625 5.453125 -37.5625 L 4.9375 -37.5625 C 4.164062 -37.5625 3.734375 -38.195312 3.640625 -39.46875 L 2.65625 -54.53125 L 2.65625 -54.671875 C 2.65625 -55.984375 3.265625 -56.640625 4.484375 -56.640625 L 16.796875 -56.640625 C 18.066406 -56.640625 18.703125 -55.9375 18.703125 -54.53125 Z M 18.703125 7.75 "/></g></g><g transform="translate(562.662012, 107.83158)"><g><path d="M 19.59375 -24.453125 C 19.59375 -23.171875 19.082031 -22.53125 18.0625 -22.53125 L 8.671875 -22.53125 C 7.554688 -22.53125 7 -23.171875 7 -24.453125 L 7 -36.578125 C 7 -37.234375 6.671875 -37.5625 6.015625 -37.5625 L 5.265625 -37.5625 C 4.273438 -37.5625 3.734375 -38.195312 3.640625 -39.46875 L 2.65625 -54.53125 L 2.65625 -54.71875 C 2.65625 -56 3.265625 -56.640625 4.484375 -56.640625 L 17.6875 -56.640625 C 18.957031 -56.640625 19.59375 -55.9375 19.59375 -54.53125 Z M 19.59375 -24.453125 "/></g></g><g transform="translate(585.242494, 107.83158)"><g><path d="M 34.65625 -1.71875 C 34.65625 -0.570312 34.191406 0 33.265625 0 L 2.84375 0 C 1.851562 0 1.359375 -0.515625 1.359375 -1.546875 L 1.359375 -1.71875 L 2.09375 -17.40625 C 2.125 -18.550781 2.671875 -19.125 3.734375 -19.125 L 17.78125 -19.125 L 16.703125 -36.484375 C 16.640625 -37.140625 16.359375 -37.46875 15.859375 -37.46875 L 5.921875 -37.46875 C 4.835938 -37.46875 4.296875 -38.054688 4.296875 -39.234375 L 4.296875 -39.375 L 4.9375 -54.953125 C 4.96875 -56.078125 5.65625 -56.640625 7 -56.640625 L 26.453125 -56.640625 C 27.660156 -56.640625 28.296875 -56.046875 28.359375 -54.859375 L 30.46875 -19.125 L 32.28125 -19.125 C 33.3125 -19.125 33.859375 -18.488281 33.921875 -17.21875 L 34.65625 -1.8125 Z M 34.65625 -1.71875 "/></g></g><g transform="translate(621.259296, 107.83158)"><g/></g><g transform="translate(642.393507, 107.83158)"><g><path d="M 37.46875 -2.140625 C 37.46875 -0.710938 36.828125 0 35.546875 0 L 26.96875 0 C 25.5625 0 24.8125 -0.789062 24.71875 -2.375 L 22.71875 -36.015625 C 22.65625 -37.046875 22.222656 -37.5625 21.421875 -37.5625 L 6.765625 -37.5625 C 5.304688 -37.5625 4.578125 -38.382812 4.578125 -40.03125 L 4.578125 -40.3125 L 5.359375 -54.359375 C 5.453125 -55.878906 6.28125 -56.640625 7.84375 -56.640625 L 32.28125 -56.640625 C 33.71875 -56.640625 34.484375 -55.816406 34.578125 -54.171875 L 37.46875 -2.375 Z M 15.671875 -24.8125 L 15.015625 -2.1875 C 14.953125 -0.726562 14.175781 0 12.6875 0 L 4.578125 0 C 3.296875 0 2.65625 -0.742188 2.65625 -2.234375 L 2.65625 -2.375 L 3.546875 -25.046875 C 3.578125 -26.578125 4.429688 -27.34375 6.109375 -27.34375 L 13.484375 -27.34375 C 14.941406 -27.34375 15.671875 -26.5625 15.671875 -25 Z M 15.671875 -24.8125 "/></g></g><g transform="translate(682.562505, 107.83158)"><g><path d="M 33.171875 -54.53125 L 30.09375 -2 C 30 -0.664062 29.328125 0 28.078125 0 L 13.203125 0 C 11.960938 0 11.296875 -0.664062 11.203125 -2 L 10.3125 -16.890625 L 10.3125 -17.125 C 10.3125 -18.457031 10.914062 -19.125 12.125 -19.125 L 17.875 -19.125 C 18.550781 -19.125 18.90625 -19.46875 18.9375 -20.15625 L 19.6875 -36.203125 L 19.6875 -36.34375 C 19.6875 -37.09375 19.359375 -37.46875 18.703125 -37.46875 L 5.078125 -37.46875 C 3.804688 -37.46875 3.140625 -38.101562 3.078125 -39.375 L 1.640625 -65.171875 L 1.640625 -65.546875 C 1.640625 -66.765625 2.148438 -67.375 3.171875 -67.375 L 12.21875 -67.375 C 13.53125 -67.375 14.203125 -66.703125 14.234375 -65.359375 L 14.609375 -57.890625 C 14.640625 -57.054688 14.992188 -56.640625 15.671875 -56.640625 L 31.34375 -56.546875 C 32.5625 -56.546875 33.171875 -55.96875 33.171875 -54.8125 Z M 33.171875 -54.53125 "/></g></g><g transform="translate(718.39269, 107.83158)"><g><path d="M 18.703125 -1.90625 C 18.703125 -0.632812 18.238281 0 17.3125 0 L 7.84375 0 C 6.6875 0 6.109375 -0.632812 6.109375 -1.90625 L 6.109375 -36.671875 C 6.109375 -37.265625 5.890625 -37.5625 5.453125 -37.5625 L 4.9375 -37.5625 C 4.164062 -37.5625 3.734375 -38.195312 3.640625 -39.46875 L 2.65625 -54.53125 L 2.65625 -54.671875 C 2.65625 -55.984375 3.265625 -56.640625 4.484375 -56.640625 L 16.796875 -56.640625 C 18.066406 -56.640625 18.703125 -55.9375 18.703125 -54.53125 Z M 18.703125 -1.90625 "/></g></g><g transform="translate(740.133402, 107.83158)"><g><path d="M 37.84375 -54.53125 L 34.65625 -2 C 34.570312 -0.664062 33.90625 0 32.65625 0 L 4.015625 0 C 2.859375 0 2.28125 -0.617188 2.28125 -1.859375 L 2.28125 -2 L 3.546875 -17.21875 C 3.640625 -18.488281 4.335938 -19.125 5.640625 -19.125 L 7.65625 -19.125 L 4.578125 -54.53125 L 4.578125 -54.8125 C 4.578125 -55.96875 5.148438 -56.546875 6.296875 -56.546875 L 15.109375 -56.546875 C 16.390625 -56.546875 17.09375 -55.875 17.21875 -54.53125 L 20.25 -19.03125 L 22.0625 -19.03125 C 22.71875 -19.03125 23.078125 -19.4375 23.140625 -20.25 L 25.421875 -54.53125 C 25.515625 -55.875 26.1875 -56.546875 27.4375 -56.546875 L 36.015625 -56.546875 C 37.234375 -56.546875 37.84375 -55.953125 37.84375 -54.765625 Z M 37.84375 -54.53125 "/></g></g><g transform="translate(780.675631, 107.83158)"><g><path d="M 39.375 -1.859375 C 39.375 -0.617188 38.769531 0 37.5625 0 L 4.484375 0 C 3.265625 0 2.65625 -0.632812 2.65625 -1.90625 L 2.65625 -2 L 3.546875 -16.890625 C 3.640625 -18.378906 4.304688 -19.125 5.546875 -19.125 L 23.796875 -19.125 C 24.941406 -19.125 25.515625 -19.578125 25.515625 -20.484375 L 25.515625 -20.625 L 24.640625 -36.484375 C 24.578125 -37.140625 24.046875 -37.46875 23.046875 -37.46875 L 19.125 -37.46875 C 18.195312 -37.46875 17.6875 -37.015625 17.59375 -36.109375 L 16.703125 -26.546875 C 16.609375 -25.390625 15.910156 -24.8125 14.609375 -24.8125 L 5.734375 -24.8125 C 4.585938 -24.8125 4.015625 -25.40625 4.015625 -26.59375 L 4.015625 -26.734375 L 6.578125 -54.53125 C 6.703125 -55.9375 7.398438 -56.640625 8.671875 -56.640625 L 34.203125 -56.640625 C 35.441406 -56.640625 36.109375 -55.9375 36.203125 -54.53125 L 39.375 -2 Z M 39.375 -1.859375 "/></g></g><g transform="translate(822.757437, 107.83158)"><g/></g><g transform="translate(843.891649, 107.83158)"><g><path d="M 35.265625 7.75 C 35.265625 9.019531 34.785156 9.65625 33.828125 9.65625 L 24.265625 9.65625 C 23.109375 9.65625 22.53125 9.019531 22.53125 7.75 L 22.53125 -36.109375 C 22.53125 -37.015625 22.21875 -37.46875 21.59375 -37.46875 L 16.046875 -37.46875 C 15.453125 -37.46875 15.109375 -37.015625 15.015625 -36.109375 L 14.140625 -26.546875 C 14.046875 -25.390625 13.34375 -24.8125 12.03125 -24.8125 L 3.171875 -24.8125 C 2.023438 -24.8125 1.453125 -25.40625 1.453125 -26.59375 L 1.453125 -26.734375 L 4.015625 -54.53125 C 4.140625 -55.9375 4.835938 -56.640625 6.109375 -56.640625 L 33.359375 -56.640625 C 34.628906 -56.640625 35.265625 -55.9375 35.265625 -54.53125 Z M 35.265625 7.75 "/></g></g><g transform="translate(883.034261, 107.83158)"><g><path d="M 18.703125 -1.90625 C 18.703125 -0.632812 18.238281 0 17.3125 0 L 7.84375 0 C 6.6875 0 6.109375 -0.632812 6.109375 -1.90625 L 6.109375 -36.671875 C 6.109375 -37.265625 5.890625 -37.5625 5.453125 -37.5625 L 4.9375 -37.5625 C 4.164062 -37.5625 3.734375 -38.195312 3.640625 -39.46875 L 2.65625 -54.53125 L 2.65625 -54.671875 C 2.65625 -55.984375 3.265625 -56.640625 4.484375 -56.640625 L 16.796875 -56.640625 C 18.066406 -56.640625 18.703125 -55.9375 18.703125 -54.53125 Z M 18.703125 -1.90625 "/></g></g><g transform="translate(904.774972, 107.83158)"><g><path d="M 41.5625 -1.765625 C 41.5625 -0.585938 40.988281 0 39.84375 0 L 31.34375 0 C 30.039062 0 29.34375 -0.664062 29.25 -2 L 26.734375 -36.390625 C 26.671875 -37.109375 26.328125 -37.46875 25.703125 -37.46875 L 21.140625 -37.46875 C 20.484375 -37.46875 20.125 -37.109375 20.0625 -36.390625 L 18.328125 -2 C 18.296875 -0.664062 17.628906 0 16.328125 0 L 4.015625 0 C 2.796875 0 2.1875 -0.648438 2.1875 -1.953125 L 2.1875 -2 L 2.9375 -17.03125 C 2.96875 -18.425781 3.609375 -19.125 4.859375 -19.125 L 6.203125 -19.125 C 6.859375 -19.125 7.21875 -19.4375 7.28125 -20.0625 L 8.21875 -36.484375 L 8.21875 -36.625 C 8.21875 -37.1875 7.9375 -37.46875 7.375 -37.46875 L 5.734375 -37.46875 C 4.398438 -37.46875 3.703125 -38.195312 3.640625 -39.65625 L 2.9375 -54.53125 L 2.9375 -54.8125 C 2.9375 -56.03125 3.515625 -56.640625 4.671875 -56.640625 L 36.390625 -56.640625 C 37.628906 -56.640625 38.296875 -55.9375 38.390625 -54.53125 L 41.5625 -2 Z M 41.5625 -1.765625 "/></g></g><g transform="translate(949.049512, 107.83158)"><g><path d="M 19.59375 -24.453125 C 19.59375 -23.171875 19.082031 -22.53125 18.0625 -22.53125 L 8.671875 -22.53125 C 7.554688 -22.53125 7 -23.171875 7 -24.453125 L 7 -36.578125 C 7 -37.234375 6.671875 -37.5625 6.015625 -37.5625 L 5.265625 -37.5625 C 4.273438 -37.5625 3.734375 -38.195312 3.640625 -39.46875 L 2.65625 -54.53125 L 2.65625 -54.71875 C 2.65625 -56 3.265625 -56.640625 4.484375 -56.640625 L 17.6875 -56.640625 C 18.957031 -56.640625 19.59375 -55.9375 19.59375 -54.53125 Z M 19.59375 -24.453125 "/></g></g><g transform="translate(971.629994, 107.83158)"><g><path d="M 32.28125 -27.15625 C 32.28125 -25.8125 31.550781 -25.140625 30.09375 -25.140625 L 22.15625 -25.140625 C 20.570312 -25.140625 19.78125 -25.8125 19.78125 -27.15625 L 19.78125 -54.765625 C 19.78125 -56.015625 20.570312 -56.640625 22.15625 -56.640625 L 30.09375 -56.640625 C 31.550781 -56.640625 32.28125 -56.015625 32.28125 -54.765625 Z M 49.875 -54.625 L 46.609375 -2.09375 C 46.515625 -0.695312 45.8125 0 44.5 0 L 7.75 0 C 6.5 0 5.828125 -0.695312 5.734375 -2.09375 L 2.65625 -54.625 L 2.65625 -55.140625 C 2.65625 -56.140625 3.109375 -56.640625 4.015625 -56.640625 L 13.671875 -56.640625 C 14.660156 -56.640625 15.203125 -55.96875 15.296875 -54.625 L 17.5 -19.96875 C 17.53125 -19.46875 17.835938 -19.21875 18.421875 -19.21875 L 34.203125 -19.21875 C 34.660156 -19.21875 34.921875 -19.5 34.984375 -20.0625 L 37.5625 -54.625 C 37.65625 -55.96875 38.257812 -56.640625 39.375 -56.640625 L 48.328125 -56.640625 C 49.359375 -56.640625 49.875 -56.03125 49.875 -54.8125 Z M 49.875 -54.625 "/></g></g></g><g fill="#f8f6e9" fill-opacity="1"><g transform="translate(109.209096, 103.608952)"><g><path d="M 41.109375 -1.8125 C 41.109375 -0.601562 40.5 0 39.28125 0 L 4.484375 0 C 3.265625 0 2.65625 -0.617188 2.65625 -1.859375 L 2.65625 -2 L 5.921875 -54.53125 C 6.015625 -55.9375 6.6875 -56.640625 7.9375 -56.640625 L 35.921875 -56.640625 C 37.171875 -56.640625 37.835938 -55.9375 37.921875 -54.53125 L 41.109375 -2 Z M 27.625 -19.96875 L 26.265625 -36.90625 C 26.203125 -37.28125 26.015625 -37.46875 25.703125 -37.46875 L 17.96875 -37.46875 C 17.5 -37.46875 17.25 -37.28125 17.21875 -36.90625 L 16.234375 -19.96875 L 16.234375 -19.921875 C 16.234375 -19.390625 16.53125 -19.125 17.125 -19.125 L 26.734375 -19.125 C 27.328125 -19.125 27.625 -19.359375 27.625 -19.828125 Z M 27.625 -19.96875 "/></g></g><g transform="translate(152.970443, 103.608952)"><g><path d="M 18.703125 -1.90625 C 18.703125 -0.632812 18.238281 0 17.3125 0 L 7.84375 0 C 6.6875 0 6.109375 -0.632812 6.109375 -1.90625 L 6.109375 -36.671875 C 6.109375 -37.265625 5.890625 -37.5625 5.453125 -37.5625 L 4.9375 -37.5625 C 4.164062 -37.5625 3.734375 -38.195312 3.640625 -39.46875 L 2.65625 -54.53125 L 2.65625 -54.671875 C 2.65625 -55.984375 3.265625 -56.640625 4.484375 -56.640625 L 16.796875 -56.640625 C 18.066406 -56.640625 18.703125 -55.9375 18.703125 -54.53125 Z M 18.703125 -1.90625 "/></g></g><g transform="translate(174.711154, 103.608952)"><g><path d="M 31.34375 -1.90625 C 31.34375 -0.632812 30.832031 0 29.8125 0 L 20.4375 0 C 19.21875 0 18.609375 -0.632812 18.609375 -1.90625 L 18.609375 -36.578125 C 18.609375 -37.234375 18.269531 -37.5625 17.59375 -37.5625 L 4.765625 -37.5625 C 3.453125 -37.5625 2.78125 -38.164062 2.75 -39.375 L 1.8125 -54.53125 L 1.8125 -54.671875 C 1.8125 -55.984375 2.421875 -56.640625 3.640625 -56.640625 L 29.4375 -56.640625 C 30.707031 -56.640625 31.34375 -55.9375 31.34375 -54.53125 Z M 31.34375 -1.90625 "/></g></g><g transform="translate(209.888185, 103.608952)"><g><path d="M 19.59375 -24.453125 C 19.59375 -23.171875 19.082031 -22.53125 18.0625 -22.53125 L 8.671875 -22.53125 C 7.554688 -22.53125 7 -23.171875 7 -24.453125 L 7 -36.578125 C 7 -37.234375 6.671875 -37.5625 6.015625 -37.5625 L 5.265625 -37.5625 C 4.273438 -37.5625 3.734375 -38.195312 3.640625 -39.46875 L 2.65625 -54.53125 L 2.65625 -54.71875 C 2.65625 -56 3.265625 -56.640625 4.484375 -56.640625 L 17.6875 -56.640625 C 18.957031 -56.640625 19.59375 -55.9375 19.59375 -54.53125 Z M 19.59375 -24.453125 "/></g></g><g transform="translate(232.468667, 103.608952)"><g><path d="M 39.375 -1.546875 C 39.375 -0.515625 38.921875 0 38.015625 0 L 28.734375 0 C 27.710938 0 27.15625 -0.664062 27.0625 -2 L 24.640625 -36.671875 C 24.578125 -37.203125 24.234375 -37.46875 23.609375 -37.46875 L 18.328125 -37.46875 C 17.867188 -37.46875 17.625 -37.171875 17.59375 -36.578125 L 15.015625 -2 C 14.921875 -0.664062 14.316406 0 13.203125 0 L 4.203125 0 C 3.171875 0 2.65625 -0.617188 2.65625 -1.859375 L 2.65625 -2 L 6.015625 -54.53125 C 6.109375 -55.9375 6.78125 -56.640625 8.03125 -56.640625 L 34.390625 -56.640625 C 35.628906 -56.640625 36.296875 -55.9375 36.390625 -54.53125 L 39.375 -2 Z M 39.375 -1.546875 "/></g></g><g transform="translate(274.550474, 103.608952)"><g><path d="M 37.46875 -2.140625 C 37.46875 -0.710938 36.828125 0 35.546875 0 L 26.96875 0 C 25.5625 0 24.8125 -0.789062 24.71875 -2.375 L 22.71875 -36.015625 C 22.65625 -37.046875 22.222656 -37.5625 21.421875 -37.5625 L 6.765625 -37.5625 C 5.304688 -37.5625 4.578125 -38.382812 4.578125 -40.03125 L 4.578125 -40.3125 L 5.359375 -54.359375 C 5.453125 -55.878906 6.28125 -56.640625 7.84375 -56.640625 L 32.28125 -56.640625 C 33.71875 -56.640625 34.484375 -55.816406 34.578125 -54.171875 L 37.46875 -2.375 Z M 15.671875 -24.8125 L 15.015625 -2.1875 C 14.953125 -0.726562 14.175781 0 12.6875 0 L 4.578125 0 C 3.296875 0 2.65625 -0.742188 2.65625 -2.234375 L 2.65625 -2.375 L 3.546875 -25.046875 C 3.578125 -26.578125 4.429688 -27.34375 6.109375 -27.34375 L 13.484375 -27.34375 C 14.941406 -27.34375 15.671875 -26.5625 15.671875 -25 Z M 15.671875 -24.8125 "/></g></g><g transform="translate(314.719472, 103.608952)"><g/></g><g transform="translate(335.853683, 103.608952)"><g><path d="M 19.59375 -24.453125 C 19.59375 -23.171875 19.082031 -22.53125 18.0625 -22.53125 L 8.671875 -22.53125 C 7.554688 -22.53125 7 -23.171875 7 -24.453125 L 7 -36.578125 C 7 -37.234375 6.671875 -37.5625 6.015625 -37.5625 L 5.265625 -37.5625 C 4.273438 -37.5625 3.734375 -38.195312 3.640625 -39.46875 L 2.65625 -54.53125 L 2.65625 -54.71875 C 2.65625 -56 3.265625 -56.640625 4.484375 -56.640625 L 17.6875 -56.640625 C 18.957031 -56.640625 19.59375 -55.9375 19.59375 -54.53125 Z M 19.59375 -24.453125 "/></g></g><g transform="translate(358.434165, 103.608952)"><g><path d="M 26.78125 -1.8125 C 26.78125 -0.601562 26.171875 0 24.953125 0 L 3.640625 0 C 2.484375 0 1.90625 -0.601562 1.90625 -1.8125 L 1.90625 -2 L 3.359375 -17.125 C 3.484375 -18.457031 4.148438 -19.125 5.359375 -19.125 L 12.21875 -19.125 C 12.9375 -19.125 13.296875 -19.328125 13.296875 -19.734375 L 13.296875 -19.875 L 11.9375 -36.671875 C 11.875 -37.203125 11.519531 -37.46875 10.875 -37.46875 L 8.296875 -37.46875 C 7.085938 -37.46875 6.484375 -38.070312 6.484375 -39.28125 L 6.484375 -39.375 L 7.5625 -54.53125 C 7.65625 -55.9375 8.351562 -56.640625 9.65625 -56.640625 L 21.59375 -56.640625 C 22.84375 -56.640625 23.515625 -55.9375 23.609375 -54.53125 L 26.734375 -2 C 26.765625 -1.96875 26.78125 -1.90625 26.78125 -1.8125 Z M 26.78125 -1.8125 "/></g></g><g transform="translate(387.872768, 103.608952)"><g><path d="M 18.703125 -1.90625 C 18.703125 -0.632812 18.238281 0 17.3125 0 L 7.84375 0 C 6.6875 0 6.109375 -0.632812 6.109375 -1.90625 L 6.109375 -36.671875 C 6.109375 -37.265625 5.890625 -37.5625 5.453125 -37.5625 L 4.9375 -37.5625 C 4.164062 -37.5625 3.734375 -38.195312 3.640625 -39.46875 L 2.65625 -54.53125 L 2.65625 -54.671875 C 2.65625 -55.984375 3.265625 -56.640625 4.484375 -56.640625 L 16.796875 -56.640625 C 18.066406 -56.640625 18.703125 -55.9375 18.703125 -54.53125 Z M 18.703125 -1.90625 "/></g></g><g transform="translate(409.61348, 103.608952)"><g><path d="M 27.53125 -1.71875 C 27.53125 -0.570312 26.921875 0 25.703125 0 L 16.796875 0 C 15.703125 0 15.140625 -0.570312 15.109375 -1.71875 L 14.796875 -6.765625 L 4.203125 1.90625 C 3.859375 2.15625 3.53125 2.28125 3.21875 2.28125 C 2.34375 2.28125 1.90625 1.753906 1.90625 0.703125 L 1.90625 0.46875 L 3.265625 -16.703125 C 3.359375 -17.847656 3.960938 -18.78125 5.078125 -19.5 L 13.390625 -24.71875 L 12.59375 -36.484375 C 12.53125 -37.140625 12.21875 -37.46875 11.65625 -37.46875 L 7.84375 -37.46875 C 6.3125 -37.46875 5.546875 -38.039062 5.546875 -39.1875 L 5.546875 -39.5625 L 6.578125 -54.765625 C 6.671875 -56.015625 7.273438 -56.640625 8.390625 -56.640625 L 22.53125 -56.640625 C 23.65625 -56.640625 24.265625 -55.96875 24.359375 -54.625 L 27.53125 -2 Z M 27.53125 -1.71875 "/></g></g><g transform="translate(439.005429, 103.608952)"><g><path d="M 31.34375 -1.90625 C 31.34375 -0.632812 30.832031 0 29.8125 0 L 20.4375 0 C 19.21875 0 18.609375 -0.632812 18.609375 -1.90625 L 18.609375 -36.578125 C 18.609375 -37.234375 18.269531 -37.5625 17.59375 -37.5625 L 4.765625 -37.5625 C 3.453125 -37.5625 2.78125 -38.164062 2.75 -39.375 L 1.8125 -54.53125 L 1.8125 -54.671875 C 1.8125 -55.984375 2.421875 -56.640625 3.640625 -56.640625 L 29.4375 -56.640625 C 30.707031 -56.640625 31.34375 -55.9375 31.34375 -54.53125 Z M 31.34375 -1.90625 "/></g></g><g transform="translate(474.18246, 103.608952)"><g><path d="M 39.796875 -55.421875 C 39.796875 -55.171875 39.78125 -54.984375 39.75 -54.859375 L 33.265625 -17.21875 L 39.46875 -1.453125 C 39.53125 -1.265625 39.5625 -1.109375 39.5625 -0.984375 C 39.5625 -0.328125 39.078125 0 38.109375 0 L 25.046875 0 C 24.148438 0 23.515625 -0.453125 23.140625 -1.359375 L 16.515625 -17.96875 L 14.234375 -1.640625 C 14.078125 -0.546875 13.46875 0 12.40625 0 L 2.75 0 C 1.914062 0 1.5 -0.390625 1.5 -1.171875 C 1.5 -1.328125 1.515625 -1.453125 1.546875 -1.546875 L 7.84375 -39.1875 L 1.90625 -55.046875 C 1.78125 -55.328125 1.71875 -55.59375 1.71875 -55.84375 C 1.71875 -56.375 2 -56.640625 2.5625 -56.640625 L 15.671875 -56.640625 C 16.515625 -56.640625 17.125 -56.140625 17.5 -55.140625 L 23.984375 -38.484375 L 26.734375 -55.140625 C 26.890625 -56.140625 27.429688 -56.640625 28.359375 -56.640625 L 38.578125 -56.640625 C 39.390625 -56.640625 39.796875 -56.234375 39.796875 -55.421875 Z M 39.796875 -55.421875 "/></g></g><g transform="translate(515.564459, 103.608952)"><g/></g><g transform="translate(536.69867, 103.608952)"><g><path d="M 18.703125 7.75 C 18.703125 9.019531 18.238281 9.65625 17.3125 9.65625 L 7.84375 9.65625 C 6.6875 9.65625 6.109375 9.019531 6.109375 7.75 L 6.109375 -36.671875 C 6.109375 -37.265625 5.890625 -37.5625 5.453125 -37.5625 L 4.9375 -37.5625 C 4.164062 -37.5625 3.734375 -38.195312 3.640625 -39.46875 L 2.65625 -54.53125 L 2.65625 -54.671875 C 2.65625 -55.984375 3.265625 -56.640625 4.484375 -56.640625 L 16.796875 -56.640625 C 18.066406 -56.640625 18.703125 -55.9375 18.703125 -54.53125 Z M 18.703125 7.75 "/></g></g><g transform="translate(558.439382, 103.608952)"><g><path d="M 19.59375 -24.453125 C 19.59375 -23.171875 19.082031 -22.53125 18.0625 -22.53125 L 8.671875 -22.53125 C 7.554688 -22.53125 7 -23.171875 7 -24.453125 L 7 -36.578125 C 7 -37.234375 6.671875 -37.5625 6.015625 -37.5625 L 5.265625 -37.5625 C 4.273438 -37.5625 3.734375 -38.195312 3.640625 -39.46875 L 2.65625 -54.53125 L 2.65625 -54.71875 C 2.65625 -56 3.265625 -56.640625 4.484375 -56.640625 L 17.6875 -56.640625 C 18.957031 -56.640625 19.59375 -55.9375 19.59375 -54.53125 Z M 19.59375 -24.453125 "/></g></g><g transform="translate(581.019864, 103.608952)"><g><path d="M 34.65625 -1.71875 C 34.65625 -0.570312 34.191406 0 33.265625 0 L 2.84375 0 C 1.851562 0 1.359375 -0.515625 1.359375 -1.546875 L 1.359375 -1.71875 L 2.09375 -17.40625 C 2.125 -18.550781 2.671875 -19.125 3.734375 -19.125 L 17.78125 -19.125 L 16.703125 -36.484375 C 16.640625 -37.140625 16.359375 -37.46875 15.859375 -37.46875 L 5.921875 -37.46875 C 4.835938 -37.46875 4.296875 -38.054688 4.296875 -39.234375 L 4.296875 -39.375 L 4.9375 -54.953125 C 4.96875 -56.078125 5.65625 -56.640625 7 -56.640625 L 26.453125 -56.640625 C 27.660156 -56.640625 28.296875 -56.046875 28.359375 -54.859375 L 30.46875 -19.125 L 32.28125 -19.125 C 33.3125 -19.125 33.859375 -18.488281 33.921875 -17.21875 L 34.65625 -1.8125 Z M 34.65625 -1.71875 "/></g></g><g transform="translate(617.036665, 103.608952)"><g/></g><g transform="translate(638.170877, 103.608952)"><g><path d="M 37.46875 -2.140625 C 37.46875 -0.710938 36.828125 0 35.546875 0 L 26.96875 0 C 25.5625 0 24.8125 -0.789062 24.71875 -2.375 L 22.71875 -36.015625 C 22.65625 -37.046875 22.222656 -37.5625 21.421875 -37.5625 L 6.765625 -37.5625 C 5.304688 -37.5625 4.578125 -38.382812 4.578125 -40.03125 L 4.578125 -40.3125 L 5.359375 -54.359375 C 5.453125 -55.878906 6.28125 -56.640625 7.84375 -56.640625 L 32.28125 -56.640625 C 33.71875 -56.640625 34.484375 -55.816406 34.578125 -54.171875 L 37.46875 -2.375 Z M 15.671875 -24.8125 L 15.015625 -2.1875 C 14.953125 -0.726562 14.175781 0 12.6875 0 L 4.578125 0 C 3.296875 0 2.65625 -0.742188 2.65625 -2.234375 L 2.65625 -2.375 L 3.546875 -25.046875 C 3.578125 -26.578125 4.429688 -27.34375 6.109375 -27.34375 L 13.484375 -27.34375 C 14.941406 -27.34375 15.671875 -26.5625 15.671875 -25 Z M 15.671875 -24.8125 "/></g></g><g transform="translate(678.339874, 103.608952)"><g><path d="M 33.171875 -54.53125 L 30.09375 -2 C 30 -0.664062 29.328125 0 28.078125 0 L 13.203125 0 C 11.960938 0 11.296875 -0.664062 11.203125 -2 L 10.3125 -16.890625 L 10.3125 -17.125 C 10.3125 -18.457031 10.914062 -19.125 12.125 -19.125 L 17.875 -19.125 C 18.550781 -19.125 18.90625 -19.46875 18.9375 -20.15625 L 19.6875 -36.203125 L 19.6875 -36.34375 C 19.6875 -37.09375 19.359375 -37.46875 18.703125 -37.46875 L 5.078125 -37.46875 C 3.804688 -37.46875 3.140625 -38.101562 3.078125 -39.375 L 1.640625 -65.171875 L 1.640625 -65.546875 C 1.640625 -66.765625 2.148438 -67.375 3.171875 -67.375 L 12.21875 -67.375 C 13.53125 -67.375 14.203125 -66.703125 14.234375 -65.359375 L 14.609375 -57.890625 C 14.640625 -57.054688 14.992188 -56.640625 15.671875 -56.640625 L 31.34375 -56.546875 C 32.5625 -56.546875 33.171875 -55.96875 33.171875 -54.8125 Z M 33.171875 -54.53125 "/></g></g><g transform="translate(714.17006, 103.608952)"><g><path d="M 18.703125 -1.90625 C 18.703125 -0.632812 18.238281 0 17.3125 0 L 7.84375 0 C 6.6875 0 6.109375 -0.632812 6.109375 -1.90625 L 6.109375 -36.671875 C 6.109375 -37.265625 5.890625 -37.5625 5.453125 -37.5625 L 4.9375 -37.5625 C 4.164062 -37.5625 3.734375 -38.195312 3.640625 -39.46875 L 2.65625 -54.53125 L 2.65625 -54.671875 C 2.65625 -55.984375 3.265625 -56.640625 4.484375 -56.640625 L 16.796875 -56.640625 C 18.066406 -56.640625 18.703125 -55.9375 18.703125 -54.53125 Z M 18.703125 -1.90625 "/></g></g><g transform="translate(735.910771, 103.608952)"><g><path d="M 37.84375 -54.53125 L 34.65625 -2 C 34.570312 -0.664062 33.90625 0 32.65625 0 L 4.015625 0 C 2.859375 0 2.28125 -0.617188 2.28125 -1.859375 L 2.28125 -2 L 3.546875 -17.21875 C 3.640625 -18.488281 4.335938 -19.125 5.640625 -19.125 L 7.65625 -19.125 L 4.578125 -54.53125 L 4.578125 -54.8125 C 4.578125 -55.96875 5.148438 -56.546875 6.296875 -56.546875 L 15.109375 -56.546875 C 16.390625 -56.546875 17.09375 -55.875 17.21875 -54.53125 L 20.25 -19.03125 L 22.0625 -19.03125 C 22.71875 -19.03125 23.078125 -19.4375 23.140625 -20.25 L 25.421875 -54.53125 C 25.515625 -55.875 26.1875 -56.546875 27.4375 -56.546875 L 36.015625 -56.546875 C 37.234375 -56.546875 37.84375 -55.953125 37.84375 -54.765625 Z M 37.84375 -54.53125 "/></g></g><g transform="translate(776.453, 103.608952)"><g><path d="M 39.375 -1.859375 C 39.375 -0.617188 38.769531 0 37.5625 0 L 4.484375 0 C 3.265625 0 2.65625 -0.632812 2.65625 -1.90625 L 2.65625 -2 L 3.546875 -16.890625 C 3.640625 -18.378906 4.304688 -19.125 5.546875 -19.125 L 23.796875 -19.125 C 24.941406 -19.125 25.515625 -19.578125 25.515625 -20.484375 L 25.515625 -20.625 L 24.640625 -36.484375 C 24.578125 -37.140625 24.046875 -37.46875 23.046875 -37.46875 L 19.125 -37.46875 C 18.195312 -37.46875 17.6875 -37.015625 17.59375 -36.109375 L 16.703125 -26.546875 C 16.609375 -25.390625 15.910156 -24.8125 14.609375 -24.8125 L 5.734375 -24.8125 C 4.585938 -24.8125 4.015625 -25.40625 4.015625 -26.59375 L 4.015625 -26.734375 L 6.578125 -54.53125 C 6.703125 -55.9375 7.398438 -56.640625 8.671875 -56.640625 L 34.203125 -56.640625 C 35.441406 -56.640625 36.109375 -55.9375 36.203125 -54.53125 L 39.375 -2 Z M 39.375 -1.859375 "/></g></g><g transform="translate(818.534807, 103.608952)"><g/></g><g transform="translate(839.669018, 103.608952)"><g><path d="M 35.265625 7.75 C 35.265625 9.019531 34.785156 9.65625 33.828125 9.65625 L 24.265625 9.65625 C 23.109375 9.65625 22.53125 9.019531 22.53125 7.75 L 22.53125 -36.109375 C 22.53125 -37.015625 22.21875 -37.46875 21.59375 -37.46875 L 16.046875 -37.46875 C 15.453125 -37.46875 15.109375 -37.015625 15.015625 -36.109375 L 14.140625 -26.546875 C 14.046875 -25.390625 13.34375 -24.8125 12.03125 -24.8125 L 3.171875 -24.8125 C 2.023438 -24.8125 1.453125 -25.40625 1.453125 -26.59375 L 1.453125 -26.734375 L 4.015625 -54.53125 C 4.140625 -55.9375 4.835938 -56.640625 6.109375 -56.640625 L 33.359375 -56.640625 C 34.628906 -56.640625 35.265625 -55.9375 35.265625 -54.53125 Z M 35.265625 7.75 "/></g></g><g transform="translate(878.81163, 103.608952)"><g><path d="M 18.703125 -1.90625 C 18.703125 -0.632812 18.238281 0 17.3125 0 L 7.84375 0 C 6.6875 0 6.109375 -0.632812 6.109375 -1.90625 L 6.109375 -36.671875 C 6.109375 -37.265625 5.890625 -37.5625 5.453125 -37.5625 L 4.9375 -37.5625 C 4.164062 -37.5625 3.734375 -38.195312 3.640625 -39.46875 L 2.65625 -54.53125 L 2.65625 -54.671875 C 2.65625 -55.984375 3.265625 -56.640625 4.484375 -56.640625 L 16.796875 -56.640625 C 18.066406 -56.640625 18.703125 -55.9375 18.703125 -54.53125 Z M 18.703125 -1.90625 "/></g></g><g transform="translate(900.552342, 103.608952)"><g><path d="M 41.5625 -1.765625 C 41.5625 -0.585938 40.988281 0 39.84375 0 L 31.34375 0 C 30.039062 0 29.34375 -0.664062 29.25 -2 L 26.734375 -36.390625 C 26.671875 -37.109375 26.328125 -37.46875 25.703125 -37.46875 L 21.140625 -37.46875 C 20.484375 -37.46875 20.125 -37.109375 20.0625 -36.390625 L 18.328125 -2 C 18.296875 -0.664062 17.628906 0 16.328125 0 L 4.015625 0 C 2.796875 0 2.1875 -0.648438 2.1875 -1.953125 L 2.1875 -2 L 2.9375 -17.03125 C 2.96875 -18.425781 3.609375 -19.125 4.859375 -19.125 L 6.203125 -19.125 C 6.859375 -19.125 7.21875 -19.4375 7.28125 -20.0625 L 8.21875 -36.484375 L 8.21875 -36.625 C 8.21875 -37.1875 7.9375 -37.46875 7.375 -37.46875 L 5.734375 -37.46875 C 4.398438 -37.46875 3.703125 -38.195312 3.640625 -39.65625 L 2.9375 -54.53125 L 2.9375 -54.8125 C 2.9375 -56.03125 3.515625 -56.640625 4.671875 -56.640625 L 36.390625 -56.640625 C 37.628906 -56.640625 38.296875 -55.9375 38.390625 -54.53125 L 41.5625 -2 Z M 41.5625 -1.765625 "/></g></g><g transform="translate(944.826881, 103.608952)"><g><path d="M 19.59375 -24.453125 C 19.59375 -23.171875 19.082031 -22.53125 18.0625 -22.53125 L 8.671875 -22.53125 C 7.554688 -22.53125 7 -23.171875 7 -24.453125 L 7 -36.578125 C 7 -37.234375 6.671875 -37.5625 6.015625 -37.5625 L 5.265625 -37.5625 C 4.273438 -37.5625 3.734375 -38.195312 3.640625 -39.46875 L 2.65625 -54.53125 L 2.65625 -54.71875 C 2.65625 -56 3.265625 -56.640625 4.484375 -56.640625 L 17.6875 -56.640625 C 18.957031 -56.640625 19.59375 -55.9375 19.59375 -54.53125 Z M 19.59375 -24.453125 "/></g></g><g transform="translate(967.407364, 103.608952)"><g><path d="M 32.28125 -27.15625 C 32.28125 -25.8125 31.550781 -25.140625 30.09375 -25.140625 L 22.15625 -25.140625 C 20.570312 -25.140625 19.78125 -25.8125 19.78125 -27.15625 L 19.78125 -54.765625 C 19.78125 -56.015625 20.570312 -56.640625 22.15625 -56.640625 L 30.09375 -56.640625 C 31.550781 -56.640625 32.28125 -56.015625 32.28125 -54.765625 Z M 49.875 -54.625 L 46.609375 -2.09375 C 46.515625 -0.695312 45.8125 0 44.5 0 L 7.75 0 C 6.5 0 5.828125 -0.695312 5.734375 -2.09375 L 2.65625 -54.625 L 2.65625 -55.140625 C 2.65625 -56.140625 3.109375 -56.640625 4.015625 -56.640625 L 13.671875 -56.640625 C 14.660156 -56.640625 15.203125 -55.96875 15.296875 -54.625 L 17.5 -19.96875 C 17.53125 -19.46875 17.835938 -19.21875 18.421875 -19.21875 L 34.203125 -19.21875 C 34.660156 -19.21875 34.921875 -19.5 34.984375 -20.0625 L 37.5625 -54.625 C 37.65625 -55.96875 38.257812 -56.640625 39.375 -56.640625 L 48.328125 -56.640625 C 49.359375 -56.640625 49.875 -56.03125 49.875 -54.8125 Z M 49.875 -54.625 "/></g></g></g><g clip-path="url(#193d7cf796)"><g clip-path="url(#cf8964a491)"><g clip-path="url(#8038e7e2fa)"><path fill="#f8f6e9" d="M 1113.683594 35.5 L 1116.46875 54.730469 L 1133.890625 63.335938 L 1116.453125 71.941406 L 1113.664062 91.171875 L 1100.101562 77.253906 L 1080.933594 80.527344 L 1089.980469 63.328125 L 1080.957031 46.121094 L 1100.105469 49.410156 Z M 1113.683594 35.5 " fill-opacity="1" fill-rule="nonzero"/></g></g></g><g clip-path="url(#88f96605a2)"><g clip-path="url(#24ca60db4c)"><g clip-path="url(#22ffaa2fb1)"><path fill="#f8f6e9" d="M 1113.605469 35.300781 L 1116.402344 54.535156 L 1133.824219 63.140625 L 1116.390625 71.742188 L 1113.589844 90.972656 L 1100.027344 77.050781 L 1080.871094 80.328125 L 1089.917969 63.132812 L 1080.878906 45.917969 L 1100.03125 49.210938 Z M 1113.605469 35.300781 " fill-opacity="1" fill-rule="nonzero"/><path fill="#f8f6e9" d="M 1113.605469 35.300781 L 1116.402344 54.535156 L 1133.824219 63.140625 L 1116.390625 71.742188 L 1113.589844 90.972656 L 1100.027344 77.050781 L 1080.871094 80.328125 L 1089.917969 63.132812 L 1080.878906 45.917969 L 1100.03125 49.210938 Z M 1113.605469 35.300781 " fill-opacity="1" fill-rule="nonzero"/><path fill="#f8f6e9" d="M 1113.605469 35.300781 L 1116.402344 54.535156 L 1133.824219 63.140625 L 1116.390625 71.742188 L 1113.589844 90.972656 L 1100.027344 77.050781 L 1080.871094 80.328125 L 1089.917969 63.132812 L 1080.878906 45.917969 L 1100.03125 49.210938 Z M 1113.605469 35.300781 " fill-opacity="1" fill-rule="nonzero"/></g></g></g><g clip-path="url(#ef1fa7f494)"><g clip-path="url(#98c66c9605)"><g clip-path="url(#11e4f5d01c)"><path fill="#f8f6e9" d="M 43.523438 46.0625 C 43.917969 47 44.386719 47.894531 44.929688 48.75 C 45.476562 49.605469 46.089844 50.410156 46.769531 51.160156 C 47.453125 51.914062 48.191406 52.601562 48.992188 53.230469 C 49.789062 53.855469 50.636719 54.410156 51.527344 54.894531 C 52.421875 55.375 53.347656 55.78125 54.308594 56.105469 C 55.269531 56.433594 56.25 56.675781 57.253906 56.832031 C 58.257812 56.992188 59.265625 57.066406 60.28125 57.054688 C 61.292969 57.042969 62.300781 56.945312 63.300781 56.765625 C 68.128906 55.882812 74.265625 54.417969 82.0625 52.09375 C 74.265625 54.417969 68.328125 56.546875 63.800781 58.453125 C 62.867188 58.84375 61.96875 59.316406 61.113281 59.859375 C 60.257812 60.40625 59.453125 61.019531 58.703125 61.699219 C 57.953125 62.382812 57.261719 63.121094 56.636719 63.921875 C 56.007812 64.71875 55.453125 65.566406 54.972656 66.457031 C 54.488281 67.351562 54.085938 68.277344 53.757812 69.238281 C 53.433594 70.199219 53.191406 71.179688 53.03125 72.183594 C 52.871094 73.183594 52.796875 74.195312 52.808594 75.207031 C 52.820312 76.222656 52.917969 77.230469 53.101562 78.226562 C 53.980469 83.058594 55.449219 89.195312 57.769531 96.988281 C 55.449219 89.195312 53.320312 83.253906 51.414062 78.730469 C 51.019531 77.796875 50.550781 76.898438 50.003906 76.042969 C 49.460938 75.1875 48.847656 74.382812 48.164062 73.632812 C 47.484375 72.878906 46.742188 72.191406 45.945312 71.566406 C 45.144531 70.9375 44.300781 70.382812 43.40625 69.902344 C 42.515625 69.417969 41.589844 69.015625 40.628906 68.6875 C 39.664062 68.363281 38.683594 68.121094 37.683594 67.960938 C 36.679688 67.800781 35.671875 67.726562 34.65625 67.738281 C 33.640625 67.75 32.636719 67.847656 31.636719 68.03125 C 26.804688 68.910156 20.667969 70.378906 12.875 72.699219 C 20.667969 70.378906 26.609375 68.246094 31.132812 66.34375 C 32.070312 65.949219 32.964844 65.480469 33.820312 64.933594 C 34.675781 64.390625 35.480469 63.777344 36.234375 63.09375 C 36.984375 62.410156 37.671875 61.671875 38.300781 60.875 C 38.925781 60.074219 39.480469 59.230469 39.964844 58.335938 C 40.445312 57.445312 40.851562 56.515625 41.175781 55.554688 C 41.503906 54.59375 41.746094 53.613281 41.90625 52.609375 C 42.0625 51.609375 42.136719 50.601562 42.125 49.585938 C 42.113281 48.570312 42.015625 47.5625 41.835938 46.566406 C 40.953125 41.734375 39.488281 35.597656 37.167969 27.804688 C 39.488281 35.597656 41.617188 41.539062 43.523438 46.0625 Z M 43.523438 46.0625 " fill-opacity="1" fill-rule="nonzero"/></g></g></g><g clip-path="url(#0b845cd506)"><g clip-path="url(#0fb36de74e)"><g clip-path="url(#58fe9c036f)"><path fill="#f8f6e9" d="M 12.484375 82.496094 L 19.316406 86.769531 L 26.707031 83.566406 L 24.757812 91.386719 L 30.09375 97.425781 L 22.054688 97.988281 L 17.953125 104.929688 L 14.9375 97.457031 L 7.070312 95.699219 L 13.246094 90.523438 Z M 12.484375 82.496094 " fill-opacity="1" fill-rule="nonzero"/></g></g></g><g clip-path="url(#6dc5c75bc1)"><g clip-path="url(#46cadb5e47)"><g clip-path="url(#bd9043b5be)"><path fill="#f8f6e9" d="M 12.398438 82.46875 L 19.234375 86.738281 L 26.628906 83.53125 L 24.675781 91.355469 L 30.011719 97.394531 L 21.972656 97.957031 L 17.871094 104.898438 L 14.855469 97.425781 L 6.988281 95.671875 L 13.160156 90.492188 Z M 12.398438 82.46875 " fill-opacity="1" fill-rule="nonzero"/><path fill="#f8f6e9" d="M 12.398438 82.46875 L 19.234375 86.738281 L 26.628906 83.53125 L 24.675781 91.355469 L 30.011719 97.394531 L 21.972656 97.957031 L 17.871094 104.898438 L 14.855469 97.425781 L 6.988281 95.671875 L 13.160156 90.492188 Z M 12.398438 82.46875 " fill-opacity="1" fill-rule="nonzero"/><path fill="#f8f6e9" d="M 12.398438 82.46875 L 19.234375 86.738281 L 26.628906 83.53125 L 24.675781 91.355469 L 30.011719 97.394531 L 21.972656 97.957031 L 17.871094 104.898438 L 14.855469 97.425781 L 6.988281 95.671875 L 13.160156 90.492188 Z M 12.398438 82.46875 " fill-opacity="1" fill-rule="nonzero"/></g></g></g></svg>