<svg xmlns="http://www.w3.org/2000/svg" xmlns:xlink="http://www.w3.org/1999/xlink" width="921" zoomAndPan="magnify" viewBox="0 0 690.75 428.99999" height="572" preserveAspectRatio="xMidYMid meet" version="1.0"><defs><g/><clipPath id="37ce507865"><path d="M 19.386719 60.882812 L 690.5 60.882812 L 690.5 428.25 L 19.386719 428.25 Z M 19.386719 60.882812 " clip-rule="nonzero"/></clipPath><clipPath id="bb023076e2"><path d="M 690.371094 60.882812 L 19.386719 60.882812 L 49.75 244.566406 L 19.386719 428.25 L 690.371094 428.25 L 660.003906 244.566406 Z M 690.371094 60.882812 " clip-rule="nonzero"/></clipPath><clipPath id="0df0d3d68e"><path d="M 0 47.378906 L 671 47.378906 L 671 406.261719 L 0 406.261719 Z M 0 47.378906 " clip-rule="nonzero"/></clipPath><clipPath id="f33f0e31b7"><path d="M 670.980469 47.378906 L 0 47.378906 L 30.363281 226.820312 L 0 406.261719 L 670.980469 406.261719 L 640.617188 226.820312 Z M 670.980469 47.378906 " clip-rule="nonzero"/></clipPath><clipPath id="9aff69830a"><path d="M 41.207031 267 L 211.394531 267 L 211.394531 428.5 L 41.207031 428.5 Z M 41.207031 267 " clip-rule="nonzero"/></clipPath><clipPath id="74867d9c74"><path d="M 28.109375 19.714844 L 359.171875 19.714844 L 359.171875 85.476562 L 28.109375 85.476562 Z M 28.109375 19.714844 " clip-rule="nonzero"/></clipPath><clipPath id="7f8349ed39"><path d="M 28.121094 19.714844 L 359.144531 19.714844 L 359.144531 85.46875 L 28.121094 85.46875 Z M 28.121094 19.714844 " clip-rule="nonzero"/></clipPath><clipPath id="f8c4bbcc9a"><path d="M 28.109375 11.273438 L 359.171875 11.273438 L 359.171875 77.035156 L 28.109375 77.035156 Z M 28.109375 11.273438 " clip-rule="nonzero"/></clipPath><clipPath id="0b589f1f84"><path d="M 28.121094 11.273438 L 359.144531 11.273438 L 359.144531 77.027344 L 28.121094 77.027344 Z M 28.121094 11.273438 " clip-rule="nonzero"/></clipPath></defs><g clip-path="url(#37ce507865)"><g clip-path="url(#bb023076e2)"><path fill="#5d734e" d="M 19.386719 60.882812 L 690.976562 60.882812 L 690.976562 428.25 L 19.386719 428.25 Z M 19.386719 60.882812 " fill-opacity="1" fill-rule="nonzero"/></g></g><g clip-path="url(#0df0d3d68e)"><g clip-path="url(#f33f0e31b7)"><path fill="#ffcf7e" d="M 0 47.378906 L 671.5 47.378906 L 671.5 406.261719 L 0 406.261719 Z M 0 47.378906 " fill-opacity="1" fill-rule="nonzero"/></g></g><g clip-path="url(#9aff69830a)"><path fill="#5d734e" d="M 61.726562 399.542969 C 56.347656 399.542969 51.367188 396.652344 48.675781 392.070312 L 43.796875 383.40625 C 41.804688 380.019531 41.207031 375.9375 42.300781 372.050781 C 43.296875 368.167969 45.789062 364.878906 49.273438 362.886719 L 58.539062 357.507812 C 75.570312 344.0625 84.535156 326.730469 93.300781 305.816406 L 140.710938 387.886719 C 131.648438 386.792969 122.78125 385.898438 113.917969 385.898438 C 107.742188 385.898438 101.964844 386.296875 96.488281 387.191406 C 97.683594 393.265625 95.191406 399.640625 89.914062 403.226562 L 94.59375 411.394531 C 96.089844 413.984375 96.488281 416.972656 95.691406 419.863281 C 94.894531 422.75 93 425.140625 90.410156 426.632812 C 88.71875 427.628906 86.726562 428.226562 84.734375 428.226562 C 80.75 428.226562 77.0625 426.035156 75.070312 422.652344 Z M 207.644531 345.359375 L 159.238281 345.359375 C 157.046875 345.359375 155.253906 343.566406 155.253906 341.375 C 155.253906 339.082031 157.046875 337.390625 159.238281 337.390625 L 207.644531 337.390625 C 209.835938 337.390625 211.628906 339.082031 211.628906 341.375 C 211.628906 343.566406 209.835938 345.359375 207.644531 345.359375 Z M 148.28125 332.808594 C 146.886719 332.808594 145.589844 332.109375 144.792969 330.816406 C 143.699219 328.921875 144.394531 326.53125 146.289062 325.4375 L 188.222656 301.132812 C 190.113281 300.039062 192.605469 300.734375 193.699219 302.628906 C 194.796875 304.519531 194.097656 307.011719 192.207031 308.105469 L 150.273438 332.308594 C 149.675781 332.609375 148.976562 332.808594 148.28125 332.808594 Z M 142.902344 317.070312 C 142.203125 317.070312 141.605469 316.871094 140.910156 316.570312 C 139.015625 315.476562 138.417969 312.988281 139.515625 311.09375 L 163.71875 269.160156 C 164.816406 267.269531 167.207031 266.570312 169.097656 267.667969 C 171.089844 268.761719 171.6875 271.253906 170.59375 273.144531 L 146.386719 315.078125 C 145.589844 316.371094 144.296875 317.070312 142.902344 317.070312 Z M 88.617188 388.882812 C 86.625 389.382812 84.632812 389.980469 82.640625 390.675781 L 85.929688 396.355469 C 88.121094 394.460938 89.117188 391.671875 88.617188 388.882812 Z M 155.253906 392.867188 C 150.871094 392.867188 146.785156 390.476562 144.59375 386.695312 L 96.289062 303.125 C 94.695312 300.238281 94.296875 296.949219 95.09375 293.761719 C 95.988281 290.574219 97.980469 287.886719 100.867188 286.292969 C 102.660156 285.195312 104.851562 284.597656 106.945312 284.597656 C 111.425781 284.597656 115.511719 286.988281 117.703125 290.773438 L 165.910156 374.34375 C 167.605469 377.230469 168.003906 380.519531 167.105469 383.707031 C 166.308594 386.894531 164.21875 389.582031 161.429688 391.175781 C 159.535156 392.269531 157.445312 392.867188 155.253906 392.867188 Z M 155.253906 392.867188 " fill-opacity="1" fill-rule="evenodd"/></g><path fill="#242536" d="M 615.1875 118.988281 C 615.1875 119.308594 615.15625 119.625 615.09375 119.9375 C 615.03125 120.253906 614.9375 120.558594 614.816406 120.851562 C 614.691406 121.148438 614.542969 121.429688 614.363281 121.695312 C 614.1875 121.960938 613.984375 122.207031 613.757812 122.433594 C 613.53125 122.660156 613.285156 122.863281 613.019531 123.039062 C 612.753906 123.21875 612.472656 123.367188 612.175781 123.492188 C 611.882812 123.613281 611.578125 123.707031 611.261719 123.769531 C 610.949219 123.828125 610.632812 123.859375 610.3125 123.859375 C 609.992188 123.859375 609.675781 123.828125 609.363281 123.769531 C 609.046875 123.707031 608.742188 123.613281 608.449219 123.492188 C 608.152344 123.367188 607.871094 123.21875 607.605469 123.039062 C 607.339844 122.863281 607.09375 122.660156 606.867188 122.433594 C 606.640625 122.207031 606.4375 121.960938 606.261719 121.695312 C 606.082031 121.429688 605.933594 121.148438 605.808594 120.851562 C 605.6875 120.558594 605.59375 120.253906 605.53125 119.9375 C 605.46875 119.625 605.4375 119.308594 605.4375 118.988281 C 605.4375 118.667969 605.46875 118.351562 605.53125 118.039062 C 605.59375 117.722656 605.6875 117.417969 605.808594 117.125 C 605.933594 116.828125 606.082031 116.546875 606.261719 116.28125 C 606.4375 116.015625 606.640625 115.769531 606.867188 115.542969 C 607.09375 115.316406 607.339844 115.113281 607.605469 114.9375 C 607.871094 114.757812 608.152344 114.609375 608.449219 114.484375 C 608.742188 114.363281 609.046875 114.269531 609.363281 114.207031 C 609.675781 114.144531 609.992188 114.113281 610.3125 114.113281 C 610.632812 114.113281 610.949219 114.144531 611.261719 114.207031 C 611.578125 114.269531 611.882812 114.363281 612.175781 114.484375 C 612.472656 114.609375 612.753906 114.757812 613.019531 114.9375 C 613.285156 115.113281 613.53125 115.316406 613.757812 115.542969 C 613.984375 115.769531 614.1875 116.015625 614.363281 116.28125 C 614.542969 116.546875 614.691406 116.828125 614.816406 117.125 C 614.9375 117.417969 615.03125 117.722656 615.09375 118.039062 C 615.15625 118.351562 615.1875 118.667969 615.1875 118.988281 Z M 615.1875 118.988281 " fill-opacity="1" fill-rule="nonzero"/><g fill="#242536" fill-opacity="1"><g transform="translate(185.673387, 128.359615)"><g><path d="M 13.34375 0 L 8.171875 0 L 8.171875 -14.515625 C 8.171875 -15.085938 7.878906 -15.375 7.296875 -15.375 L 0.890625 -15.375 L 0.890625 -20.796875 L 9.65625 -20.796875 C 10.738281 -20.796875 11.625 -20.453125 12.3125 -19.765625 C 13 -19.085938 13.34375 -18.203125 13.34375 -17.109375 Z M 5.96875 0 L 0.90625 0 L 0.90625 -12.890625 L 5.96875 -12.890625 Z M 5.96875 0 "/></g></g><g transform="translate(199.906516, 128.359615)"><g><path d="M 7.796875 -15.375 L 7.734375 -15.375 C 6.921875 -15.375 6.515625 -14.796875 6.515625 -13.640625 L 6.515625 0 L 1.46875 0 L 1.46875 -12.609375 C 1.46875 -14.117188 1.953125 -15.039062 2.921875 -15.375 L 0.71875 -15.375 L 0.71875 -20.796875 L 7.796875 -20.796875 Z M 7.796875 -15.375 "/></g></g><g transform="translate(208.428822, 128.359615)"><g><path d="M 11.140625 0 L 5.984375 0 L 5.984375 -14.515625 C 5.984375 -15.085938 5.6875 -15.375 5.09375 -15.375 L 0.546875 -15.375 L 0.546875 -20.796875 L 7.46875 -20.796875 C 8.539062 -20.796875 9.425781 -20.453125 10.125 -19.765625 C 10.800781 -19.085938 11.140625 -18.203125 11.140625 -17.109375 Z M 11.140625 0 "/></g></g><g transform="translate(220.465481, 128.359615)"><g><path d="M 11.90625 -5.125 C 11.90625 -1.707031 10.296875 0 7.078125 0 L 0.890625 0 L 0.890625 -5.421875 L 5.203125 -5.421875 C 6.265625 -5.421875 6.796875 -5.921875 6.796875 -6.921875 L 6.796875 -13.875 C 6.796875 -14.875 6.265625 -15.375 5.203125 -15.375 L 0.890625 -15.375 L 0.890625 -20.796875 L 7.078125 -20.796875 C 10.296875 -20.796875 11.90625 -19.085938 11.90625 -15.671875 Z M 11.90625 -5.125 "/></g></g><g transform="translate(233.275297, 128.359615)"><g><path d="M 13.34375 0 L 8.171875 0 L 8.171875 -14.515625 C 8.171875 -15.085938 7.878906 -15.375 7.296875 -15.375 L 0.890625 -15.375 L 0.890625 -20.796875 L 9.65625 -20.796875 C 10.738281 -20.796875 11.625 -20.453125 12.3125 -19.765625 C 13 -19.085938 13.34375 -18.203125 13.34375 -17.109375 Z M 5.96875 0 L 0.90625 0 L 0.90625 -12.890625 L 5.96875 -12.890625 Z M 5.96875 0 "/></g></g><g transform="translate(247.508426, 128.359615)"><g/></g><g transform="translate(255.468436, 128.359615)"><g><path d="M 5.90625 -11.578125 L 0.859375 -11.578125 L 0.859375 -20.796875 L 5.90625 -20.796875 Z M 5.90625 -11.578125 "/></g></g><g transform="translate(262.268708, 128.359615)"><g><path d="M 5.96875 0 L 0.890625 0 L 0.890625 -20.796875 L 5.96875 -20.796875 Z M 5.96875 0 "/></g></g><g transform="translate(269.139268, 128.359615)"><g><path d="M 12.421875 -7.515625 C 12.421875 -2.503906 10.019531 0 5.21875 0 L 3.015625 0 L 3.015625 -5.421875 L 4.5 -5.421875 C 5.632812 -5.421875 6.40625 -5.785156 6.8125 -6.515625 C 7.101562 -7.035156 7.25 -7.929688 7.25 -9.203125 L 7.25 -14.515625 C 7.25 -15.085938 6.957031 -15.375 6.375 -15.375 L 0.890625 -15.375 L 0.890625 -23.390625 L 5.984375 -23.390625 L 5.984375 -20.796875 L 9.828125 -20.796875 C 11.554688 -20.796875 12.421875 -19.960938 12.421875 -18.296875 Z M 12.421875 -7.515625 "/></g></g><g transform="translate(282.458666, 128.359615)"><g><path d="M 14.390625 0 L 9.3125 0 L 9.3125 -14.390625 C 9.3125 -15.046875 9.015625 -15.375 8.421875 -15.375 L 7.734375 -15.375 C 7.117188 -15.375 6.8125 -15.046875 6.8125 -14.390625 L 6.8125 -2.5 C 6.8125 -0.832031 6.113281 0 4.71875 0 L 0.34375 0 L 0.34375 -5.421875 L 1.234375 -5.421875 C 1.523438 -5.421875 1.671875 -5.550781 1.671875 -5.8125 L 1.671875 -16.8125 C 1.671875 -18.226562 1.945312 -19.25 2.5 -19.875 C 3.050781 -20.488281 4.019531 -20.796875 5.40625 -20.796875 L 10.890625 -20.796875 C 13.222656 -20.796875 14.390625 -19.46875 14.390625 -16.8125 Z M 14.390625 0 "/></g></g><g transform="translate(297.763673, 128.359615)"><g/></g><g transform="translate(305.723683, 128.359615)"><g><path d="M 5.46875 0 C 5.46875 1.257812 5.140625 2.328125 4.484375 3.203125 C 3.765625 4.160156 2.785156 4.640625 1.546875 4.640625 L 1.546875 1.71875 C 2.210938 1.71875 2.546875 1.144531 2.546875 0 L 0.71875 0 L 0.71875 -5.25 L 5.46875 -5.25 Z M 5.46875 0 "/></g></g><g transform="translate(311.838657, 128.359615)"><g><path d="M 5.90625 -11.578125 L 0.859375 -11.578125 L 0.859375 -20.796875 L 5.90625 -20.796875 Z M 5.90625 -11.578125 "/></g></g><g transform="translate(318.63893, 128.359615)"><g><path d="M 14.0625 -4 C 14.0625 -1.332031 12.957031 0 10.75 0 L 4.203125 0 C 3.085938 0 2.242188 -0.40625 1.671875 -1.21875 C 1.148438 -1.9375 0.890625 -2.863281 0.890625 -4 L 0.890625 -20.796875 L 5.953125 -20.796875 L 5.953125 -14.25 L 6.953125 -17.796875 C 7.515625 -19.796875 8.539062 -20.796875 10.03125 -20.796875 L 11.0625 -20.796875 C 13.0625 -20.796875 14.0625 -19.710938 14.0625 -17.546875 Z M 9.015625 -14.90625 C 9.015625 -15.125 8.96875 -15.234375 8.875 -15.234375 C 8.800781 -15.234375 8.742188 -15.140625 8.703125 -14.953125 L 7.953125 -12.1875 L 5.953125 -12.1875 L 5.953125 -6.375 C 5.953125 -5.738281 6.210938 -5.421875 6.734375 -5.421875 L 8.21875 -5.421875 C 8.75 -5.421875 9.015625 -5.738281 9.015625 -6.375 Z M 9.015625 -14.90625 "/></g></g><g transform="translate(333.592501, 128.359615)"><g><path d="M 13.296875 -4.046875 C 13.296875 -1.347656 11.988281 0 9.375 0 L 0.9375 0 L 0.9375 -5.421875 L 7.21875 -5.421875 C 7.914062 -5.421875 8.265625 -5.832031 8.265625 -6.65625 L 8.265625 -14.515625 C 8.265625 -15.085938 8 -15.375 7.46875 -15.375 L 6.765625 -15.375 C 6.285156 -15.375 6.046875 -15.078125 6.046875 -14.484375 L 6.046875 -11.421875 L 0.890625 -11.421875 L 0.890625 -17.109375 C 0.890625 -19.566406 2.078125 -20.796875 4.453125 -20.796875 L 9.640625 -20.796875 C 10.742188 -20.796875 11.628906 -20.457031 12.296875 -19.78125 C 12.960938 -19.09375 13.296875 -18.203125 13.296875 -17.109375 Z M 13.296875 -4.046875 "/></g></g><g transform="translate(347.808059, 128.359615)"><g><path d="M 5.796875 -14.90625 L 6.59375 -14.90625 C 7.164062 -14.90625 7.453125 -15.210938 7.453125 -15.828125 L 7.453125 -20.796875 L 12.140625 -20.796875 L 12.140625 -14.96875 C 12.140625 -12.539062 11.09375 -11.328125 9 -11.328125 L 5.796875 -11.328125 L 5.796875 -6.375 C 5.796875 -5.738281 6.0625 -5.421875 6.59375 -5.421875 L 13 -5.421875 C 13.519531 -5.421875 13.78125 -5.738281 13.78125 -6.375 L 13.78125 -20.796875 L 18.6875 -20.796875 L 18.6875 -4.71875 C 18.6875 -3.289062 18.320312 -2.15625 17.59375 -1.3125 C 16.8125 -0.4375 15.710938 0 14.296875 0 L 5.28125 0 C 2.351562 0 0.890625 -1.570312 0.890625 -4.71875 L 0.890625 -20.796875 L 5.796875 -20.796875 Z M 5.796875 -14.90625 "/></g></g><g transform="translate(367.400576, 128.359615)"><g><path d="M 14.703125 -3.75 C 14.703125 -1.25 13.570312 0 11.3125 0 L 7.734375 0 L 7.734375 -5.453125 L 8.796875 -5.453125 C 9.328125 -5.453125 9.59375 -5.765625 9.59375 -6.390625 L 9.59375 -14.3125 C 9.59375 -14.945312 9.4375 -15.265625 9.125 -15.265625 C 8.800781 -15.265625 8.582031 -14.910156 8.46875 -14.203125 L 5.921875 0 L 0.890625 0 L 3.046875 -11.609375 L 2.03125 -11.609375 C 1.25 -11.609375 0.859375 -12 0.859375 -12.78125 L 0.859375 -20.796875 L 5.953125 -20.796875 L 5.953125 -13.453125 L 6.96875 -17.484375 C 7.53125 -19.691406 8.742188 -20.796875 10.609375 -20.796875 L 10.875 -20.796875 C 13.425781 -20.796875 14.703125 -19.238281 14.703125 -16.125 Z M 14.703125 -3.75 "/></g></g><g transform="translate(383.004303, 128.359615)"><g/></g><g transform="translate(390.964313, 128.359615)"><g><path d="M 12.78125 0 L 0.890625 0 L 0.890625 -5.421875 L 4.84375 -5.421875 C 6.007812 -5.421875 6.59375 -6.109375 6.59375 -7.484375 L 6.59375 -13.71875 C 6.59375 -14.332031 6.484375 -14.757812 6.265625 -15 C 6.054688 -15.25 5.65625 -15.375 5.0625 -15.375 L 0.890625 -15.375 L 0.890625 -20.796875 L 7.734375 -20.796875 C 10.410156 -20.796875 11.75 -19.210938 11.75 -16.046875 L 11.75 -8.921875 C 11.75 -7.085938 11.066406 -5.921875 9.703125 -5.421875 L 12.78125 -5.421875 Z M 12.78125 0 "/></g></g><g transform="translate(404.459428, 128.359615)"><g><path d="M 1 0 L 1 -5.421875 L 6.9375 -5.453125 L 3.625 -12.15625 C 1.664062 -16.113281 0.550781 -18.992188 0.28125 -20.796875 L 5.671875 -20.796875 C 6.390625 -17.898438 7.394531 -15.332031 8.6875 -13.09375 C 8.882812 -13.21875 9.003906 -13.457031 9.046875 -13.8125 C 9.078125 -14.03125 9.09375 -14.289062 9.09375 -14.59375 L 9.09375 -20.796875 L 14.21875 -20.796875 L 14.21875 -13.75 C 14.21875 -12.6875 13.894531 -11.671875 13.25 -10.703125 C 12.613281 -9.753906 11.820312 -9.023438 10.875 -8.515625 C 13.09375 -4.117188 14.207031 -1.28125 14.21875 0 Z M 1 0 "/></g></g><g transform="translate(419.571146, 128.359615)"><g><path d="M 14.703125 -3.75 C 14.703125 -1.25 13.570312 0 11.3125 0 L 7.734375 0 L 7.734375 -5.453125 L 8.796875 -5.453125 C 9.328125 -5.453125 9.59375 -5.765625 9.59375 -6.390625 L 9.59375 -14.3125 C 9.59375 -14.945312 9.4375 -15.265625 9.125 -15.265625 C 8.800781 -15.265625 8.582031 -14.910156 8.46875 -14.203125 L 5.921875 0 L 0.890625 0 L 3.046875 -11.609375 L 2.03125 -11.609375 C 1.25 -11.609375 0.859375 -12 0.859375 -12.78125 L 0.859375 -20.796875 L 5.953125 -20.796875 L 5.953125 -13.453125 L 6.96875 -17.484375 C 7.53125 -19.691406 8.742188 -20.796875 10.609375 -20.796875 L 10.875 -20.796875 C 13.425781 -20.796875 14.703125 -19.238281 14.703125 -16.125 Z M 14.703125 -3.75 "/></g></g><g transform="translate(435.174872, 128.359615)"><g/></g><g transform="translate(443.134882, 128.359615)"><g><path d="M 9.6875 -7.453125 L 1.078125 -7.453125 L 1.078125 -12.875 L 9.6875 -12.875 Z M 9.6875 -7.453125 "/></g></g><g transform="translate(453.888802, 128.359615)"><g/></g><g transform="translate(461.848812, 128.359615)"><g><path d="M 13.34375 0 L 8.171875 0 L 8.171875 -14.515625 C 8.171875 -15.085938 7.878906 -15.375 7.296875 -15.375 L 0.890625 -15.375 L 0.890625 -20.796875 L 9.65625 -20.796875 C 10.738281 -20.796875 11.625 -20.453125 12.3125 -19.765625 C 13 -19.085938 13.34375 -18.203125 13.34375 -17.109375 Z M 5.96875 0 L 0.90625 0 L 0.90625 -12.890625 L 5.96875 -12.890625 Z M 5.96875 0 "/></g></g><g transform="translate(476.081941, 128.359615)"><g><path d="M 7.796875 -15.375 L 7.734375 -15.375 C 6.921875 -15.375 6.515625 -14.796875 6.515625 -13.640625 L 6.515625 0 L 1.46875 0 L 1.46875 -12.609375 C 1.46875 -14.117188 1.953125 -15.039062 2.921875 -15.375 L 0.71875 -15.375 L 0.71875 -20.796875 L 7.796875 -20.796875 Z M 7.796875 -15.375 "/></g></g><g transform="translate(484.604247, 128.359615)"><g><path d="M 11.140625 0 L 5.984375 0 L 5.984375 -14.515625 C 5.984375 -15.085938 5.6875 -15.375 5.09375 -15.375 L 0.546875 -15.375 L 0.546875 -20.796875 L 7.46875 -20.796875 C 8.539062 -20.796875 9.425781 -20.453125 10.125 -19.765625 C 10.800781 -19.085938 11.140625 -18.203125 11.140625 -17.109375 Z M 11.140625 0 "/></g></g><g transform="translate(496.640906, 128.359615)"><g><path d="M 11.90625 -5.125 C 11.90625 -1.707031 10.296875 0 7.078125 0 L 0.890625 0 L 0.890625 -5.421875 L 5.203125 -5.421875 C 6.265625 -5.421875 6.796875 -5.921875 6.796875 -6.921875 L 6.796875 -13.875 C 6.796875 -14.875 6.265625 -15.375 5.203125 -15.375 L 0.890625 -15.375 L 0.890625 -20.796875 L 7.078125 -20.796875 C 10.296875 -20.796875 11.90625 -19.085938 11.90625 -15.671875 Z M 11.90625 -5.125 "/></g></g><g transform="translate(509.450722, 128.359615)"><g><path d="M 13.34375 0 L 8.171875 0 L 8.171875 -14.515625 C 8.171875 -15.085938 7.878906 -15.375 7.296875 -15.375 L 0.890625 -15.375 L 0.890625 -20.796875 L 9.65625 -20.796875 C 10.738281 -20.796875 11.625 -20.453125 12.3125 -19.765625 C 13 -19.085938 13.34375 -18.203125 13.34375 -17.109375 Z M 5.96875 0 L 0.90625 0 L 0.90625 -12.890625 L 5.96875 -12.890625 Z M 5.96875 0 "/></g></g><g transform="translate(523.683851, 128.359615)"><g><path d="M 12.78125 0 L 0.890625 0 L 0.890625 -5.421875 L 4.84375 -5.421875 C 6.007812 -5.421875 6.59375 -6.109375 6.59375 -7.484375 L 6.59375 -13.71875 C 6.59375 -14.332031 6.484375 -14.757812 6.265625 -15 C 6.054688 -15.25 5.65625 -15.375 5.0625 -15.375 L 0.890625 -15.375 L 0.890625 -20.796875 L 7.734375 -20.796875 C 10.410156 -20.796875 11.75 -19.210938 11.75 -16.046875 L 11.75 -8.921875 C 11.75 -7.085938 11.066406 -5.921875 9.703125 -5.421875 L 12.78125 -5.421875 Z M 12.78125 0 "/></g></g><g transform="translate(537.178966, 128.359615)"><g/></g><g transform="translate(545.138976, 128.359615)"><g><path d="M 11.140625 2.953125 L 5.984375 2.953125 L 5.984375 -14.515625 C 5.984375 -15.085938 5.6875 -15.375 5.09375 -15.375 L 0.546875 -15.375 L 0.546875 -20.796875 L 7.46875 -20.796875 C 8.539062 -20.796875 9.425781 -20.453125 10.125 -19.765625 C 10.800781 -19.085938 11.140625 -18.203125 11.140625 -17.109375 Z M 11.140625 2.953125 "/></g></g><g transform="translate(557.175635, 128.359615)"><g><path d="M 11.140625 0 L 5.984375 0 L 5.984375 -14.515625 C 5.984375 -15.085938 5.6875 -15.375 5.09375 -15.375 L 0.546875 -15.375 L 0.546875 -20.796875 L 7.46875 -20.796875 C 8.539062 -20.796875 9.425781 -20.453125 10.125 -19.765625 C 10.800781 -19.085938 11.140625 -18.203125 11.140625 -17.109375 Z M 11.140625 0 "/></g></g><g transform="translate(569.212294, 128.359615)"><g><path d="M 5.96875 0 L 0.890625 0 L 0.890625 -20.796875 L 5.96875 -20.796875 Z M 5.96875 0 "/></g></g><g transform="translate(576.082854, 128.359615)"><g><path d="M 1 0 L 1 -5.421875 L 6.9375 -5.453125 L 3.625 -12.15625 C 1.664062 -16.113281 0.550781 -18.992188 0.28125 -20.796875 L 5.671875 -20.796875 C 6.390625 -17.898438 7.394531 -15.332031 8.6875 -13.09375 C 8.882812 -13.21875 9.003906 -13.457031 9.046875 -13.8125 C 9.078125 -14.03125 9.09375 -14.289062 9.09375 -14.59375 L 9.09375 -20.796875 L 14.21875 -20.796875 L 14.21875 -13.75 C 14.21875 -12.6875 13.894531 -11.671875 13.25 -10.703125 C 12.613281 -9.753906 11.820312 -9.023438 10.875 -8.515625 C 13.09375 -4.117188 14.207031 -1.28125 14.21875 0 Z M 1 0 "/></g></g></g><path fill="#242536" d="M 615.1875 169.21875 C 615.1875 169.539062 615.15625 169.855469 615.09375 170.171875 C 615.03125 170.484375 614.9375 170.789062 614.816406 171.085938 C 614.691406 171.378906 614.542969 171.660156 614.363281 171.925781 C 614.1875 172.191406 613.984375 172.441406 613.757812 172.664062 C 613.53125 172.890625 613.285156 173.09375 613.019531 173.273438 C 612.753906 173.449219 612.472656 173.601562 612.175781 173.722656 C 611.882812 173.84375 611.578125 173.9375 611.261719 174 C 610.949219 174.0625 610.632812 174.09375 610.3125 174.09375 C 609.992188 174.09375 609.675781 174.0625 609.363281 174 C 609.046875 173.9375 608.742188 173.84375 608.449219 173.722656 C 608.152344 173.601562 607.871094 173.449219 607.605469 173.273438 C 607.339844 173.09375 607.09375 172.890625 606.867188 172.664062 C 606.640625 172.441406 606.4375 172.191406 606.261719 171.925781 C 606.082031 171.660156 605.933594 171.378906 605.808594 171.085938 C 605.6875 170.789062 605.59375 170.484375 605.53125 170.171875 C 605.46875 169.855469 605.4375 169.539062 605.4375 169.21875 C 605.4375 168.898438 605.46875 168.582031 605.53125 168.269531 C 605.59375 167.957031 605.6875 167.652344 605.808594 167.355469 C 605.933594 167.058594 606.082031 166.777344 606.261719 166.511719 C 606.4375 166.246094 606.640625 166 606.867188 165.773438 C 607.09375 165.546875 607.339844 165.34375 607.605469 165.167969 C 607.871094 164.988281 608.152344 164.839844 608.449219 164.71875 C 608.742188 164.59375 609.046875 164.503906 609.363281 164.441406 C 609.675781 164.378906 609.992188 164.347656 610.3125 164.347656 C 610.632812 164.347656 610.949219 164.378906 611.261719 164.441406 C 611.578125 164.503906 611.882812 164.59375 612.175781 164.71875 C 612.472656 164.839844 612.753906 164.988281 613.019531 165.167969 C 613.285156 165.34375 613.53125 165.546875 613.757812 165.773438 C 613.984375 166 614.1875 166.246094 614.363281 166.511719 C 614.542969 166.777344 614.691406 167.058594 614.816406 167.355469 C 614.9375 167.652344 615.03125 167.957031 615.09375 168.269531 C 615.15625 168.582031 615.1875 168.898438 615.1875 169.21875 Z M 615.1875 169.21875 " fill-opacity="1" fill-rule="nonzero"/><g fill="#242536" fill-opacity="1"><g transform="translate(113.430001, 178.591433)"><g><path d="M 12.328125 0 L 7.25 0 L 6.34375 -5.765625 C 5.976562 -5.765625 5.75 -5.503906 5.65625 -4.984375 L 4.703125 0 L 0.171875 0 L 1.390625 -6.015625 C 1.929688 -8.722656 3.191406 -10.078125 5.171875 -10.078125 L 6.015625 -10.078125 L 6.015625 -14.515625 C 6.015625 -15.085938 5.6875 -15.375 5.03125 -15.375 L 1.40625 -15.375 L 1.40625 -20.796875 L 7.28125 -20.796875 C 9.84375 -20.796875 11.125 -19.453125 11.125 -16.765625 L 11.125 -9.765625 C 11.125 -9.023438 11.144531 -8.34375 11.1875 -7.71875 C 11.226562 -7.101562 11.289062 -6.539062 11.375 -6.03125 Z M 12.328125 0 "/></g></g><g transform="translate(126.134387, 178.591433)"><g><path d="M 11.140625 0 L 5.984375 0 L 5.984375 -14.515625 C 5.984375 -15.085938 5.6875 -15.375 5.09375 -15.375 L 0.546875 -15.375 L 0.546875 -20.796875 L 7.46875 -20.796875 C 8.539062 -20.796875 9.425781 -20.453125 10.125 -19.765625 C 10.800781 -19.085938 11.140625 -18.203125 11.140625 -17.109375 Z M 11.140625 0 "/></g></g><g transform="translate(138.171046, 178.591433)"><g><path d="M 11.875 -15.375 C 10.726562 -15.375 10.15625 -14.8125 10.15625 -13.6875 L 10.15625 0 L 4.984375 0 L 4.984375 -12.25 C 4.984375 -13.851562 5.664062 -14.894531 7.03125 -15.375 L 0.546875 -15.375 L 0.546875 -20.796875 L 11.875 -20.796875 Z M 11.875 -15.375 "/></g></g><g transform="translate(150.945719, 178.591433)"><g><path d="M 13.34375 0 L 8.171875 0 L 8.171875 -14.515625 C 8.171875 -15.085938 7.878906 -15.375 7.296875 -15.375 L 0.890625 -15.375 L 0.890625 -20.796875 L 9.65625 -20.796875 C 10.738281 -20.796875 11.625 -20.453125 12.3125 -19.765625 C 13 -19.085938 13.34375 -18.203125 13.34375 -17.109375 Z M 5.96875 0 L 0.90625 0 L 0.90625 -12.890625 L 5.96875 -12.890625 Z M 5.96875 0 "/></g></g><g transform="translate(165.178848, 178.591433)"><g/></g><g transform="translate(173.138857, 178.591433)"><g><path d="M 11.140625 0 L 5.984375 0 L 5.984375 -14.515625 C 5.984375 -15.085938 5.6875 -15.375 5.09375 -15.375 L 0.546875 -15.375 L 0.546875 -20.796875 L 7.46875 -20.796875 C 8.539062 -20.796875 9.425781 -20.453125 10.125 -19.765625 C 10.800781 -19.085938 11.140625 -18.203125 11.140625 -17.109375 Z M 11.140625 0 "/></g></g><g transform="translate(185.175516, 178.591433)"><g><path d="M 5.96875 0 L 0.890625 0 L 0.890625 -20.796875 L 5.96875 -20.796875 Z M 5.96875 0 "/></g></g><g transform="translate(192.046076, 178.591433)"><g><path d="M 5.796875 -14.90625 L 6.59375 -14.90625 C 7.164062 -14.90625 7.453125 -15.210938 7.453125 -15.828125 L 7.453125 -20.796875 L 12.140625 -20.796875 L 12.140625 -14.96875 C 12.140625 -12.539062 11.09375 -11.328125 9 -11.328125 L 5.796875 -11.328125 L 5.796875 -6.375 C 5.796875 -5.738281 6.0625 -5.421875 6.59375 -5.421875 L 13 -5.421875 C 13.519531 -5.421875 13.78125 -5.738281 13.78125 -6.375 L 13.78125 -20.796875 L 18.6875 -20.796875 L 18.6875 -4.71875 C 18.6875 -3.289062 18.320312 -2.15625 17.59375 -1.3125 C 16.8125 -0.4375 15.710938 0 14.296875 0 L 5.28125 0 C 2.351562 0 0.890625 -1.570312 0.890625 -4.71875 L 0.890625 -20.796875 L 5.796875 -20.796875 Z M 5.796875 -14.90625 "/></g></g><g transform="translate(211.638594, 178.591433)"><g><path d="M 5.90625 -11.578125 L 0.859375 -11.578125 L 0.859375 -20.796875 L 5.90625 -20.796875 Z M 5.90625 -11.578125 "/></g></g><g transform="translate(218.438867, 178.591433)"><g><path d="M 9.421875 0 C 9.265625 -0.820312 8.929688 -1.898438 8.421875 -3.234375 C 7.910156 -4.578125 7.21875 -6.195312 6.34375 -8.09375 C 6.25 -7.988281 6.175781 -7.90625 6.125 -7.84375 C 6.082031 -7.789062 6.054688 -7.757812 6.046875 -7.75 C 6.035156 -7.695312 6.023438 -7.59375 6.015625 -7.4375 C 6.015625 -7.28125 6.015625 -7.0625 6.015625 -6.78125 L 6.015625 0 L 0.9375 0 L 0.9375 -6.21875 C 0.9375 -9.507812 1.945312 -11.640625 3.96875 -12.609375 C 2.019531 -16.429688 0.9375 -19.160156 0.71875 -20.796875 L 6.015625 -20.796875 C 6.265625 -19.628906 6.644531 -18.394531 7.15625 -17.09375 C 7.664062 -15.789062 8.304688 -14.410156 9.078125 -12.953125 C 9.367188 -13.160156 9.515625 -13.59375 9.515625 -14.25 L 9.515625 -20.796875 L 14.65625 -20.796875 L 14.65625 -13.75 C 14.65625 -12.695312 14.332031 -11.675781 13.6875 -10.6875 C 13.039062 -9.695312 12.242188 -8.945312 11.296875 -8.4375 C 13.484375 -4.070312 14.601562 -1.257812 14.65625 0 Z M 9.421875 0 "/></g></g><g transform="translate(233.81416, 178.591433)"><g><path d="M 12.421875 -7.515625 C 12.421875 -2.503906 10.019531 0 5.21875 0 L 3.015625 0 L 3.015625 -5.421875 L 4.5 -5.421875 C 5.632812 -5.421875 6.40625 -5.785156 6.8125 -6.515625 C 7.101562 -7.035156 7.25 -7.929688 7.25 -9.203125 L 7.25 -14.515625 C 7.25 -15.085938 6.957031 -15.375 6.375 -15.375 L 0.890625 -15.375 L 0.890625 -23.390625 L 5.984375 -23.390625 L 5.984375 -20.796875 L 9.828125 -20.796875 C 11.554688 -20.796875 12.421875 -19.960938 12.421875 -18.296875 Z M 12.421875 -7.515625 "/></g></g><g transform="translate(247.133558, 178.591433)"><g/></g><g transform="translate(255.093568, 178.591433)"><g><path d="M 13.921875 0 L 0.890625 0 L 0.890625 -17.171875 C 0.890625 -18.460938 1.109375 -19.367188 1.546875 -19.890625 C 2.035156 -20.492188 2.914062 -20.796875 4.1875 -20.796875 L 10.40625 -20.796875 C 12.75 -20.796875 13.921875 -19.585938 13.921875 -17.171875 Z M 8.84375 -14.390625 C 8.84375 -15.046875 8.539062 -15.375 7.9375 -15.375 L 6.953125 -15.375 C 6.359375 -15.375 6.0625 -15.046875 6.0625 -14.390625 L 6.0625 -5.421875 L 8.84375 -5.421875 Z M 8.84375 -14.390625 "/></g></g><g transform="translate(269.906565, 178.591433)"><g><path d="M 9.421875 0 C 9.265625 -0.820312 8.929688 -1.898438 8.421875 -3.234375 C 7.910156 -4.578125 7.21875 -6.195312 6.34375 -8.09375 C 6.25 -7.988281 6.175781 -7.90625 6.125 -7.84375 C 6.082031 -7.789062 6.054688 -7.757812 6.046875 -7.75 C 6.035156 -7.695312 6.023438 -7.59375 6.015625 -7.4375 C 6.015625 -7.28125 6.015625 -7.0625 6.015625 -6.78125 L 6.015625 0 L 0.9375 0 L 0.9375 -6.21875 C 0.9375 -9.507812 1.945312 -11.640625 3.96875 -12.609375 C 2.019531 -16.429688 0.9375 -19.160156 0.71875 -20.796875 L 6.015625 -20.796875 C 6.265625 -19.628906 6.644531 -18.394531 7.15625 -17.09375 C 7.664062 -15.789062 8.304688 -14.410156 9.078125 -12.953125 C 9.367188 -13.160156 9.515625 -13.59375 9.515625 -14.25 L 9.515625 -20.796875 L 14.65625 -20.796875 L 14.65625 -13.75 C 14.65625 -12.695312 14.332031 -11.675781 13.6875 -10.6875 C 13.039062 -9.695312 12.242188 -8.945312 11.296875 -8.4375 C 13.484375 -4.070312 14.601562 -1.257812 14.65625 0 Z M 9.421875 0 "/></g></g><g transform="translate(285.281859, 178.591433)"><g><path d="M 14.390625 0 L 9.3125 0 L 9.3125 -14.390625 C 9.3125 -15.046875 9.015625 -15.375 8.421875 -15.375 L 7.734375 -15.375 C 7.117188 -15.375 6.8125 -15.046875 6.8125 -14.390625 L 6.8125 -2.5 C 6.8125 -0.832031 6.113281 0 4.71875 0 L 0.34375 0 L 0.34375 -5.421875 L 1.234375 -5.421875 C 1.523438 -5.421875 1.671875 -5.550781 1.671875 -5.8125 L 1.671875 -16.8125 C 1.671875 -18.226562 1.945312 -19.25 2.5 -19.875 C 3.050781 -20.488281 4.019531 -20.796875 5.40625 -20.796875 L 10.890625 -20.796875 C 13.222656 -20.796875 14.390625 -19.46875 14.390625 -16.8125 Z M 14.390625 0 "/></g></g><g transform="translate(300.586866, 178.591433)"><g><path d="M 13.34375 0 L 8.171875 0 L 8.171875 -14.515625 C 8.171875 -15.085938 7.878906 -15.375 7.296875 -15.375 L 0.890625 -15.375 L 0.890625 -20.796875 L 9.65625 -20.796875 C 10.738281 -20.796875 11.625 -20.453125 12.3125 -19.765625 C 13 -19.085938 13.34375 -18.203125 13.34375 -17.109375 Z M 5.96875 0 L 0.90625 0 L 0.90625 -12.890625 L 5.96875 -12.890625 Z M 5.96875 0 "/></g></g><g transform="translate(314.819995, 178.591433)"><g><path d="M 12.78125 0 L 0.890625 0 L 0.890625 -5.421875 L 4.84375 -5.421875 C 6.007812 -5.421875 6.59375 -6.109375 6.59375 -7.484375 L 6.59375 -13.71875 C 6.59375 -14.332031 6.484375 -14.757812 6.265625 -15 C 6.054688 -15.25 5.65625 -15.375 5.0625 -15.375 L 0.890625 -15.375 L 0.890625 -20.796875 L 7.734375 -20.796875 C 10.410156 -20.796875 11.75 -19.210938 11.75 -16.046875 L 11.75 -8.921875 C 11.75 -7.085938 11.066406 -5.921875 9.703125 -5.421875 L 12.78125 -5.421875 Z M 12.78125 0 "/></g></g><g transform="translate(328.31511, 178.591433)"><g/></g><g transform="translate(336.27512, 178.591433)"><g><path d="M 13.34375 0 L 8.171875 0 L 8.171875 -14.515625 C 8.171875 -15.085938 7.878906 -15.375 7.296875 -15.375 L 0.890625 -15.375 L 0.890625 -20.796875 L 9.65625 -20.796875 C 10.738281 -20.796875 11.625 -20.453125 12.3125 -19.765625 C 13 -19.085938 13.34375 -18.203125 13.34375 -17.109375 Z M 5.96875 0 L 0.90625 0 L 0.90625 -12.890625 L 5.96875 -12.890625 Z M 5.96875 0 "/></g></g><g transform="translate(350.508249, 178.591433)"><g><path d="M 13.296875 -4.046875 C 13.296875 -1.347656 11.988281 0 9.375 0 L 0.9375 0 L 0.9375 -5.421875 L 7.21875 -5.421875 C 7.914062 -5.421875 8.265625 -5.832031 8.265625 -6.65625 L 8.265625 -14.515625 C 8.265625 -15.085938 8 -15.375 7.46875 -15.375 L 6.765625 -15.375 C 6.285156 -15.375 6.046875 -15.078125 6.046875 -14.484375 L 6.046875 -11.421875 L 0.890625 -11.421875 L 0.890625 -17.109375 C 0.890625 -19.566406 2.078125 -20.796875 4.453125 -20.796875 L 9.640625 -20.796875 C 10.742188 -20.796875 11.628906 -20.457031 12.296875 -19.78125 C 12.960938 -19.09375 13.296875 -18.203125 13.296875 -17.109375 Z M 13.296875 -4.046875 "/></g></g><g transform="translate(364.723807, 178.591433)"><g><path d="M 5.90625 -11.578125 L 0.859375 -11.578125 L 0.859375 -20.796875 L 5.90625 -20.796875 Z M 5.90625 -11.578125 "/></g></g><g transform="translate(371.524079, 178.591433)"><g><path d="M 1 0 L 1 -5.421875 L 6.9375 -5.453125 L 3.625 -12.15625 C 1.664062 -16.113281 0.550781 -18.992188 0.28125 -20.796875 L 5.671875 -20.796875 C 6.390625 -17.898438 7.394531 -15.332031 8.6875 -13.09375 C 8.882812 -13.21875 9.003906 -13.457031 9.046875 -13.8125 C 9.078125 -14.03125 9.09375 -14.289062 9.09375 -14.59375 L 9.09375 -20.796875 L 14.21875 -20.796875 L 14.21875 -13.75 C 14.21875 -12.6875 13.894531 -11.671875 13.25 -10.703125 C 12.613281 -9.753906 11.820312 -9.023438 10.875 -8.515625 C 13.09375 -4.117188 14.207031 -1.28125 14.21875 0 Z M 1 0 "/></g></g><g transform="translate(386.635797, 178.591433)"><g><path d="M 11.140625 0 L 5.984375 0 L 5.984375 -14.515625 C 5.984375 -15.085938 5.6875 -15.375 5.09375 -15.375 L 0.546875 -15.375 L 0.546875 -20.796875 L 7.46875 -20.796875 C 8.539062 -20.796875 9.425781 -20.453125 10.125 -19.765625 C 10.800781 -19.085938 11.140625 -18.203125 11.140625 -17.109375 Z M 11.140625 0 "/></g></g><g transform="translate(398.672456, 178.591433)"><g/></g><g transform="translate(406.632465, 178.591433)"><g><path d="M 13.34375 0 L 8.171875 0 L 8.171875 -14.515625 C 8.171875 -15.085938 7.878906 -15.375 7.296875 -15.375 L 0.890625 -15.375 L 0.890625 -20.796875 L 9.65625 -20.796875 C 10.738281 -20.796875 11.625 -20.453125 12.3125 -19.765625 C 13 -19.085938 13.34375 -18.203125 13.34375 -17.109375 Z M 5.96875 0 L 0.90625 0 L 0.90625 -12.890625 L 5.96875 -12.890625 Z M 5.96875 0 "/></g></g><g transform="translate(420.865595, 178.591433)"><g><path d="M 5.90625 -11.578125 L 0.859375 -11.578125 L 0.859375 -20.796875 L 5.90625 -20.796875 Z M 5.90625 -11.578125 "/></g></g><g transform="translate(427.665867, 178.591433)"><g><path d="M 13.5625 0 L 8.46875 0 L 8.46875 -14.390625 C 8.46875 -15.046875 8.171875 -15.375 7.578125 -15.375 L 6.953125 -15.375 C 6.359375 -15.375 6.0625 -15.046875 6.0625 -14.390625 L 6.0625 0 L 0.890625 0 L 0.890625 -17.171875 C 0.890625 -18.460938 1.109375 -19.367188 1.546875 -19.890625 C 2.035156 -20.492188 2.914062 -20.796875 4.1875 -20.796875 L 10.046875 -20.796875 C 12.390625 -20.796875 13.5625 -19.585938 13.5625 -17.171875 Z M 13.5625 0 "/></g></g><g transform="translate(442.12743, 178.591433)"><g><path d="M 10.078125 -3.265625 C 10.078125 -1.085938 9.050781 0 7 0 L 0.71875 0 L 0.71875 -5.421875 L 4.328125 -5.421875 C 4.742188 -5.421875 4.953125 -5.679688 4.953125 -6.203125 L 4.953125 -14.515625 C 4.953125 -15.085938 4.695312 -15.375 4.1875 -15.375 L 2.21875 -15.375 L 2.21875 -20.796875 L 6.90625 -20.796875 C 9.019531 -20.796875 10.078125 -19.703125 10.078125 -17.515625 Z M 10.078125 -3.265625 "/></g></g><g transform="translate(453.109783, 178.591433)"><g><path d="M 13.34375 0 L 8.171875 0 L 8.171875 -14.515625 C 8.171875 -15.085938 7.878906 -15.375 7.296875 -15.375 L 0.890625 -15.375 L 0.890625 -20.796875 L 9.65625 -20.796875 C 10.738281 -20.796875 11.625 -20.453125 12.3125 -19.765625 C 13 -19.085938 13.34375 -18.203125 13.34375 -17.109375 Z M 5.96875 0 L 0.90625 0 L 0.90625 -12.890625 L 5.96875 -12.890625 Z M 5.96875 0 "/></g></g><g transform="translate(467.342912, 178.591433)"><g/></g><g transform="translate(475.302921, 178.591433)"><g><path d="M 9.6875 -7.453125 L 1.078125 -7.453125 L 1.078125 -12.875 L 9.6875 -12.875 Z M 9.6875 -7.453125 "/></g></g><g transform="translate(486.056841, 178.591433)"><g/></g><g transform="translate(494.016851, 178.591433)"><g><path d="M 5.96875 2.984375 L 0.890625 2.984375 L 0.890625 -20.796875 L 5.96875 -20.796875 Z M 5.96875 2.984375 "/></g></g><g transform="translate(500.887411, 178.591433)"><g><path d="M 14.703125 -3.75 C 14.703125 -1.25 13.570312 0 11.3125 0 L 7.734375 0 L 7.734375 -5.453125 L 8.796875 -5.453125 C 9.328125 -5.453125 9.59375 -5.765625 9.59375 -6.390625 L 9.59375 -14.3125 C 9.59375 -14.945312 9.4375 -15.265625 9.125 -15.265625 C 8.800781 -15.265625 8.582031 -14.910156 8.46875 -14.203125 L 5.921875 0 L 0.890625 0 L 3.046875 -11.609375 L 2.03125 -11.609375 C 1.25 -11.609375 0.859375 -12 0.859375 -12.78125 L 0.859375 -20.796875 L 5.953125 -20.796875 L 5.953125 -13.453125 L 6.96875 -17.484375 C 7.53125 -19.691406 8.742188 -20.796875 10.609375 -20.796875 L 10.875 -20.796875 C 13.425781 -20.796875 14.703125 -19.238281 14.703125 -16.125 Z M 14.703125 -3.75 "/></g></g><g transform="translate(516.491138, 178.591433)"><g><path d="M 7.796875 -15.375 L 7.734375 -15.375 C 6.921875 -15.375 6.515625 -14.796875 6.515625 -13.640625 L 6.515625 0 L 1.46875 0 L 1.46875 -12.609375 C 1.46875 -14.117188 1.953125 -15.039062 2.921875 -15.375 L 0.71875 -15.375 L 0.71875 -20.796875 L 7.796875 -20.796875 Z M 7.796875 -15.375 "/></g></g><g transform="translate(525.013444, 178.591433)"><g><path d="M 13.34375 0 L 8.171875 0 L 8.171875 -14.515625 C 8.171875 -15.085938 7.878906 -15.375 7.296875 -15.375 L 0.890625 -15.375 L 0.890625 -20.796875 L 9.65625 -20.796875 C 10.738281 -20.796875 11.625 -20.453125 12.3125 -19.765625 C 13 -19.085938 13.34375 -18.203125 13.34375 -17.109375 Z M 5.96875 0 L 0.90625 0 L 0.90625 -12.890625 L 5.96875 -12.890625 Z M 5.96875 0 "/></g></g><g transform="translate(539.246573, 178.591433)"><g/></g><g transform="translate(547.206583, 178.591433)"><g><path d="M 11.875 -15.375 C 10.726562 -15.375 10.15625 -14.8125 10.15625 -13.6875 L 10.15625 0 L 4.984375 0 L 4.984375 -12.25 C 4.984375 -13.851562 5.664062 -14.894531 7.03125 -15.375 L 0.546875 -15.375 L 0.546875 -20.796875 L 11.875 -20.796875 Z M 11.875 -15.375 "/></g></g><g transform="translate(559.981256, 178.591433)"><g><path d="M 14.703125 -3.75 C 14.703125 -1.25 13.570312 0 11.3125 0 L 7.734375 0 L 7.734375 -5.453125 L 8.796875 -5.453125 C 9.328125 -5.453125 9.59375 -5.765625 9.59375 -6.390625 L 9.59375 -14.3125 C 9.59375 -14.945312 9.4375 -15.265625 9.125 -15.265625 C 8.800781 -15.265625 8.582031 -14.910156 8.46875 -14.203125 L 5.921875 0 L 0.890625 0 L 3.046875 -11.609375 L 2.03125 -11.609375 C 1.25 -11.609375 0.859375 -12 0.859375 -12.78125 L 0.859375 -20.796875 L 5.953125 -20.796875 L 5.953125 -13.453125 L 6.96875 -17.484375 C 7.53125 -19.691406 8.742188 -20.796875 10.609375 -20.796875 L 10.875 -20.796875 C 13.425781 -20.796875 14.703125 -19.238281 14.703125 -16.125 Z M 14.703125 -3.75 "/></g></g><g transform="translate(575.584982, 178.591433)"><g><path d="M 14.703125 -3.75 C 14.703125 -1.25 13.570312 0 11.3125 0 L 7.734375 0 L 7.734375 -5.453125 L 8.796875 -5.453125 C 9.328125 -5.453125 9.59375 -5.765625 9.59375 -6.390625 L 9.59375 -14.3125 C 9.59375 -14.945312 9.4375 -15.265625 9.125 -15.265625 C 8.800781 -15.265625 8.582031 -14.910156 8.46875 -14.203125 L 5.921875 0 L 0.890625 0 L 3.046875 -11.609375 L 2.03125 -11.609375 C 1.25 -11.609375 0.859375 -12 0.859375 -12.78125 L 0.859375 -20.796875 L 5.953125 -20.796875 L 5.953125 -13.453125 L 6.96875 -17.484375 C 7.53125 -19.691406 8.742188 -20.796875 10.609375 -20.796875 L 10.875 -20.796875 C 13.425781 -20.796875 14.703125 -19.238281 14.703125 -16.125 Z M 14.703125 -3.75 "/></g></g></g><g fill="#242536" fill-opacity="1"><g transform="translate(524.000138, 228.82325)"><g><path d="M 5.90625 -11.578125 L 0.859375 -11.578125 L 0.859375 -20.796875 L 5.90625 -20.796875 Z M 5.90625 -11.578125 "/></g></g><g transform="translate(530.800411, 228.82325)"><g><path d="M 10.078125 -3.265625 C 10.078125 -1.085938 9.050781 0 7 0 L 0.71875 0 L 0.71875 -5.421875 L 4.328125 -5.421875 C 4.742188 -5.421875 4.953125 -5.679688 4.953125 -6.203125 L 4.953125 -14.515625 C 4.953125 -15.085938 4.695312 -15.375 4.1875 -15.375 L 2.21875 -15.375 L 2.21875 -20.796875 L 6.90625 -20.796875 C 9.019531 -20.796875 10.078125 -19.703125 10.078125 -17.515625 Z M 10.078125 -3.265625 "/></g></g><g transform="translate(541.782764, 228.82325)"><g><path d="M 5.90625 -11.578125 L 0.859375 -11.578125 L 0.859375 -20.796875 L 5.90625 -20.796875 Z M 5.90625 -11.578125 "/></g></g><g transform="translate(548.583037, 228.82325)"><g><path d="M 11.875 -15.375 C 10.726562 -15.375 10.15625 -14.8125 10.15625 -13.6875 L 10.15625 0 L 4.984375 0 L 4.984375 -12.25 C 4.984375 -13.851562 5.664062 -14.894531 7.03125 -15.375 L 0.546875 -15.375 L 0.546875 -20.796875 L 11.875 -20.796875 Z M 11.875 -15.375 "/></g></g><g transform="translate(561.35771, 228.82325)"><g><path d="M 14.703125 -3.75 C 14.703125 -1.25 13.570312 0 11.3125 0 L 7.734375 0 L 7.734375 -5.453125 L 8.796875 -5.453125 C 9.328125 -5.453125 9.59375 -5.765625 9.59375 -6.390625 L 9.59375 -14.3125 C 9.59375 -14.945312 9.4375 -15.265625 9.125 -15.265625 C 8.800781 -15.265625 8.582031 -14.910156 8.46875 -14.203125 L 5.921875 0 L 0.890625 0 L 3.046875 -11.609375 L 2.03125 -11.609375 C 1.25 -11.609375 0.859375 -12 0.859375 -12.78125 L 0.859375 -20.796875 L 5.953125 -20.796875 L 5.953125 -13.453125 L 6.96875 -17.484375 C 7.53125 -19.691406 8.742188 -20.796875 10.609375 -20.796875 L 10.875 -20.796875 C 13.425781 -20.796875 14.703125 -19.238281 14.703125 -16.125 Z M 14.703125 -3.75 "/></g></g><g transform="translate(576.961437, 228.82325)"><g><path d="M 13.34375 0 L 8.171875 0 L 8.171875 -14.515625 C 8.171875 -15.085938 7.878906 -15.375 7.296875 -15.375 L 0.890625 -15.375 L 0.890625 -20.796875 L 9.65625 -20.796875 C 10.738281 -20.796875 11.625 -20.453125 12.3125 -19.765625 C 13 -19.085938 13.34375 -18.203125 13.34375 -17.109375 Z M 5.96875 0 L 0.90625 0 L 0.90625 -12.890625 L 5.96875 -12.890625 Z M 5.96875 0 "/></g></g></g><path fill="#242536" d="M 615.1875 269.683594 C 615.1875 270.003906 615.15625 270.320312 615.09375 270.632812 C 615.03125 270.949219 614.9375 271.253906 614.816406 271.546875 C 614.691406 271.84375 614.542969 272.125 614.363281 272.390625 C 614.1875 272.65625 613.984375 272.902344 613.757812 273.128906 C 613.53125 273.355469 613.285156 273.558594 613.019531 273.734375 C 612.753906 273.914062 612.472656 274.0625 612.175781 274.1875 C 611.882812 274.308594 611.578125 274.402344 611.261719 274.464844 C 610.949219 274.527344 610.632812 274.558594 610.3125 274.558594 C 609.992188 274.558594 609.675781 274.527344 609.363281 274.464844 C 609.046875 274.402344 608.742188 274.308594 608.449219 274.1875 C 608.152344 274.0625 607.871094 273.914062 607.605469 273.734375 C 607.339844 273.558594 607.09375 273.355469 606.867188 273.128906 C 606.640625 272.902344 606.4375 272.65625 606.261719 272.390625 C 606.082031 272.125 605.933594 271.84375 605.808594 271.546875 C 605.6875 271.253906 605.59375 270.949219 605.53125 270.632812 C 605.46875 270.320312 605.4375 270.003906 605.4375 269.683594 C 605.4375 269.363281 605.46875 269.046875 605.53125 268.734375 C 605.59375 268.417969 605.6875 268.113281 605.808594 267.820312 C 605.933594 267.523438 606.082031 267.242188 606.261719 266.976562 C 606.4375 266.710938 606.640625 266.464844 606.867188 266.238281 C 607.09375 266.011719 607.339844 265.808594 607.605469 265.632812 C 607.871094 265.453125 608.152344 265.304688 608.449219 265.179688 C 608.742188 265.058594 609.046875 264.964844 609.363281 264.902344 C 609.675781 264.839844 609.992188 264.808594 610.3125 264.808594 C 610.632812 264.808594 610.949219 264.839844 611.261719 264.902344 C 611.578125 264.964844 611.882812 265.058594 612.175781 265.179688 C 612.472656 265.304688 612.753906 265.453125 613.019531 265.632812 C 613.285156 265.808594 613.53125 266.011719 613.757812 266.238281 C 613.984375 266.464844 614.1875 266.710938 614.363281 266.976562 C 614.542969 267.242188 614.691406 267.523438 614.816406 267.820312 C 614.9375 268.113281 615.03125 268.417969 615.09375 268.734375 C 615.15625 269.046875 615.1875 269.363281 615.1875 269.683594 Z M 615.1875 269.683594 " fill-opacity="1" fill-rule="nonzero"/><g fill="#242536" fill-opacity="1"><g transform="translate(169.788508, 279.055068)"><g><path d="M 5.90625 -11.578125 L 0.859375 -11.578125 L 0.859375 -20.796875 L 5.90625 -20.796875 Z M 5.90625 -11.578125 "/></g></g><g transform="translate(176.58878, 279.055068)"><g><path d="M 10.078125 -3.265625 C 10.078125 -1.085938 9.050781 0 7 0 L 0.71875 0 L 0.71875 -5.421875 L 4.328125 -5.421875 C 4.742188 -5.421875 4.953125 -5.679688 4.953125 -6.203125 L 4.953125 -14.515625 C 4.953125 -15.085938 4.695312 -15.375 4.1875 -15.375 L 2.21875 -15.375 L 2.21875 -20.796875 L 6.90625 -20.796875 C 9.019531 -20.796875 10.078125 -19.703125 10.078125 -17.515625 Z M 10.078125 -3.265625 "/></g></g><g transform="translate(187.571133, 279.055068)"><g><path d="M 5.90625 -11.578125 L 0.859375 -11.578125 L 0.859375 -20.796875 L 5.90625 -20.796875 Z M 5.90625 -11.578125 "/></g></g><g transform="translate(194.371406, 279.055068)"><g><path d="M 11.875 -15.375 C 10.726562 -15.375 10.15625 -14.8125 10.15625 -13.6875 L 10.15625 0 L 4.984375 0 L 4.984375 -12.25 C 4.984375 -13.851562 5.664062 -14.894531 7.03125 -15.375 L 0.546875 -15.375 L 0.546875 -20.796875 L 11.875 -20.796875 Z M 11.875 -15.375 "/></g></g><g transform="translate(207.146079, 279.055068)"><g><path d="M 14.703125 -3.75 C 14.703125 -1.25 13.570312 0 11.3125 0 L 7.734375 0 L 7.734375 -5.453125 L 8.796875 -5.453125 C 9.328125 -5.453125 9.59375 -5.765625 9.59375 -6.390625 L 9.59375 -14.3125 C 9.59375 -14.945312 9.4375 -15.265625 9.125 -15.265625 C 8.800781 -15.265625 8.582031 -14.910156 8.46875 -14.203125 L 5.921875 0 L 0.890625 0 L 3.046875 -11.609375 L 2.03125 -11.609375 C 1.25 -11.609375 0.859375 -12 0.859375 -12.78125 L 0.859375 -20.796875 L 5.953125 -20.796875 L 5.953125 -13.453125 L 6.96875 -17.484375 C 7.53125 -19.691406 8.742188 -20.796875 10.609375 -20.796875 L 10.875 -20.796875 C 13.425781 -20.796875 14.703125 -19.238281 14.703125 -16.125 Z M 14.703125 -3.75 "/></g></g><g transform="translate(222.749806, 279.055068)"><g><path d="M 13.34375 0 L 8.171875 0 L 8.171875 -14.515625 C 8.171875 -15.085938 7.878906 -15.375 7.296875 -15.375 L 0.890625 -15.375 L 0.890625 -20.796875 L 9.65625 -20.796875 C 10.738281 -20.796875 11.625 -20.453125 12.3125 -19.765625 C 13 -19.085938 13.34375 -18.203125 13.34375 -17.109375 Z M 5.96875 0 L 0.90625 0 L 0.90625 -12.890625 L 5.96875 -12.890625 Z M 5.96875 0 "/></g></g><g transform="translate(236.982935, 279.055068)"><g/></g><g transform="translate(244.942945, 279.055068)"><g><path d="M 12.328125 0 L 7.25 0 L 6.34375 -5.765625 C 5.976562 -5.765625 5.75 -5.503906 5.65625 -4.984375 L 4.703125 0 L 0.171875 0 L 1.390625 -6.015625 C 1.929688 -8.722656 3.191406 -10.078125 5.171875 -10.078125 L 6.015625 -10.078125 L 6.015625 -14.515625 C 6.015625 -15.085938 5.6875 -15.375 5.03125 -15.375 L 1.40625 -15.375 L 1.40625 -20.796875 L 7.28125 -20.796875 C 9.84375 -20.796875 11.125 -19.453125 11.125 -16.765625 L 11.125 -9.765625 C 11.125 -9.023438 11.144531 -8.34375 11.1875 -7.71875 C 11.226562 -7.101562 11.289062 -6.539062 11.375 -6.03125 Z M 12.328125 0 "/></g></g><g transform="translate(257.64733, 279.055068)"><g><path d="M 11.140625 0 L 5.984375 0 L 5.984375 -14.515625 C 5.984375 -15.085938 5.6875 -15.375 5.09375 -15.375 L 0.546875 -15.375 L 0.546875 -20.796875 L 7.46875 -20.796875 C 8.539062 -20.796875 9.425781 -20.453125 10.125 -19.765625 C 10.800781 -19.085938 11.140625 -18.203125 11.140625 -17.109375 Z M 11.140625 0 "/></g></g><g transform="translate(269.683989, 279.055068)"><g><path d="M 11.875 -15.375 C 10.726562 -15.375 10.15625 -14.8125 10.15625 -13.6875 L 10.15625 0 L 4.984375 0 L 4.984375 -12.25 C 4.984375 -13.851562 5.664062 -14.894531 7.03125 -15.375 L 0.546875 -15.375 L 0.546875 -20.796875 L 11.875 -20.796875 Z M 11.875 -15.375 "/></g></g><g transform="translate(282.458662, 279.055068)"><g><path d="M 13.34375 0 L 8.171875 0 L 8.171875 -14.515625 C 8.171875 -15.085938 7.878906 -15.375 7.296875 -15.375 L 0.890625 -15.375 L 0.890625 -20.796875 L 9.65625 -20.796875 C 10.738281 -20.796875 11.625 -20.453125 12.3125 -19.765625 C 13 -19.085938 13.34375 -18.203125 13.34375 -17.109375 Z M 5.96875 0 L 0.90625 0 L 0.90625 -12.890625 L 5.96875 -12.890625 Z M 5.96875 0 "/></g></g><g transform="translate(296.691791, 279.055068)"><g/></g><g transform="translate(304.651801, 279.055068)"><g><path d="M 5.90625 -11.578125 L 0.859375 -11.578125 L 0.859375 -20.796875 L 5.90625 -20.796875 Z M 5.90625 -11.578125 "/></g></g><g transform="translate(311.452074, 279.055068)"><g><path d="M 11.875 -15.375 C 10.726562 -15.375 10.15625 -14.8125 10.15625 -13.6875 L 10.15625 0 L 4.984375 0 L 4.984375 -12.25 C 4.984375 -13.851562 5.664062 -14.894531 7.03125 -15.375 L 0.546875 -15.375 L 0.546875 -20.796875 L 11.875 -20.796875 Z M 11.875 -15.375 "/></g></g><g transform="translate(324.226746, 279.055068)"><g><path d="M 5.90625 -11.578125 L 0.859375 -11.578125 L 0.859375 -20.796875 L 5.90625 -20.796875 Z M 5.90625 -11.578125 "/></g></g><g transform="translate(331.027019, 279.055068)"><g/></g><g transform="translate(338.987029, 279.055068)"><g><path d="M 12.421875 -7.515625 C 12.421875 -2.503906 10.019531 0 5.21875 0 L 3.015625 0 L 3.015625 -5.421875 L 4.5 -5.421875 C 5.632812 -5.421875 6.40625 -5.785156 6.8125 -6.515625 C 7.101562 -7.035156 7.25 -7.929688 7.25 -9.203125 L 7.25 -14.515625 C 7.25 -15.085938 6.957031 -15.375 6.375 -15.375 L 0.890625 -15.375 L 0.890625 -23.390625 L 5.984375 -23.390625 L 5.984375 -20.796875 L 9.828125 -20.796875 C 11.554688 -20.796875 12.421875 -19.960938 12.421875 -18.296875 Z M 12.421875 -7.515625 "/></g></g><g transform="translate(352.306426, 279.055068)"><g><path d="M 13.78125 -5.484375 C 13.78125 -1.828125 12.28125 0 9.28125 0 L 0.546875 0 L 0.546875 -5.421875 L 1.78125 -5.421875 L 1.78125 -20.796875 L 6.859375 -20.796875 L 6.859375 -5.421875 L 7.875 -5.421875 C 8.457031 -5.421875 8.75 -5.828125 8.75 -6.640625 L 8.75 -20.796875 L 13.78125 -20.796875 Z M 13.78125 -5.484375 "/></g></g><g transform="translate(366.97885, 279.055068)"><g/></g><g transform="translate(374.938859, 279.055068)"><g><path d="M 13.78125 -5.484375 C 13.78125 -1.828125 12.28125 0 9.28125 0 L 0.546875 0 L 0.546875 -5.421875 L 1.78125 -5.421875 L 1.78125 -20.796875 L 6.859375 -20.796875 L 6.859375 -5.421875 L 7.875 -5.421875 C 8.457031 -5.421875 8.75 -5.828125 8.75 -6.640625 L 8.75 -20.796875 L 13.78125 -20.796875 Z M 13.78125 -5.484375 "/></g></g><g transform="translate(389.611282, 279.055068)"><g><path d="M 12.78125 0 L 0.890625 0 L 0.890625 -5.421875 L 4.84375 -5.421875 C 6.007812 -5.421875 6.59375 -6.109375 6.59375 -7.484375 L 6.59375 -13.71875 C 6.59375 -14.332031 6.484375 -14.757812 6.265625 -15 C 6.054688 -15.25 5.65625 -15.375 5.0625 -15.375 L 0.890625 -15.375 L 0.890625 -20.796875 L 7.734375 -20.796875 C 10.410156 -20.796875 11.75 -19.210938 11.75 -16.046875 L 11.75 -8.921875 C 11.75 -7.085938 11.066406 -5.921875 9.703125 -5.421875 L 12.78125 -5.421875 Z M 12.78125 0 "/></g></g><g transform="translate(403.106398, 279.055068)"><g><path d="M 13.484375 -6.4375 C 13.484375 -4.3125 13.132812 -2.742188 12.4375 -1.734375 C 11.59375 -0.546875 10.160156 0.046875 8.140625 0.046875 C 7.773438 0.046875 7.394531 0.03125 7 0 L 7 -5.421875 C 7.882812 -5.421875 8.328125 -6.078125 8.328125 -7.390625 L 8.328125 -14.515625 C 8.328125 -15.085938 8.03125 -15.375 7.4375 -15.375 L 0.890625 -15.375 L 0.890625 -20.796875 L 10.875 -20.796875 C 12.613281 -20.796875 13.484375 -19.960938 13.484375 -18.296875 Z M 6.015625 3 L 0.9375 3 L 0.9375 -13.09375 L 6.015625 -13.09375 Z M 6.015625 3 "/></g></g><g transform="translate(417.497673, 279.055068)"><g><path d="M 10.078125 -3.265625 C 10.078125 -1.085938 9.050781 0 7 0 L 0.71875 0 L 0.71875 -5.421875 L 4.328125 -5.421875 C 4.742188 -5.421875 4.953125 -5.679688 4.953125 -6.203125 L 4.953125 -14.515625 C 4.953125 -15.085938 4.695312 -15.375 4.1875 -15.375 L 2.21875 -15.375 L 2.21875 -20.796875 L 6.90625 -20.796875 C 9.019531 -20.796875 10.078125 -19.703125 10.078125 -17.515625 Z M 10.078125 -3.265625 "/></g></g><g transform="translate(428.480026, 279.055068)"><g/></g><g transform="translate(436.440035, 279.055068)"><g><path d="M 9.6875 -7.453125 L 1.078125 -7.453125 L 1.078125 -12.875 L 9.6875 -12.875 Z M 9.6875 -7.453125 "/></g></g><g transform="translate(447.193955, 279.055068)"><g/></g><g transform="translate(455.153965, 279.055068)"><g><path d="M 12.78125 0 L 0.890625 0 L 0.890625 -5.421875 L 4.84375 -5.421875 C 6.007812 -5.421875 6.59375 -6.109375 6.59375 -7.484375 L 6.59375 -13.71875 C 6.59375 -14.332031 6.484375 -14.757812 6.265625 -15 C 6.054688 -15.25 5.65625 -15.375 5.0625 -15.375 L 0.890625 -15.375 L 0.890625 -20.796875 L 7.734375 -20.796875 C 10.410156 -20.796875 11.75 -19.210938 11.75 -16.046875 L 11.75 -8.921875 C 11.75 -7.085938 11.066406 -5.921875 9.703125 -5.421875 L 12.78125 -5.421875 Z M 12.78125 0 "/></g></g><g transform="translate(468.64908, 279.055068)"><g><path d="M 13.5625 0 L 8.46875 0 L 8.46875 -14.390625 C 8.46875 -15.046875 8.171875 -15.375 7.578125 -15.375 L 6.953125 -15.375 C 6.359375 -15.375 6.0625 -15.046875 6.0625 -14.390625 L 6.0625 0 L 0.890625 0 L 0.890625 -17.171875 C 0.890625 -18.460938 1.109375 -19.367188 1.546875 -19.890625 C 2.035156 -20.492188 2.914062 -20.796875 4.1875 -20.796875 L 10.046875 -20.796875 C 12.390625 -20.796875 13.5625 -19.585938 13.5625 -17.171875 Z M 13.5625 0 "/></g></g><g transform="translate(483.110642, 279.055068)"><g><path d="M 11.140625 0 L 5.984375 0 L 5.984375 -14.515625 C 5.984375 -15.085938 5.6875 -15.375 5.09375 -15.375 L 0.546875 -15.375 L 0.546875 -20.796875 L 7.46875 -20.796875 C 8.539062 -20.796875 9.425781 -20.453125 10.125 -19.765625 C 10.800781 -19.085938 11.140625 -18.203125 11.140625 -17.109375 Z M 11.140625 0 "/></g></g><g transform="translate(495.147301, 279.055068)"><g><path d="M 14.703125 -3.75 C 14.703125 -1.25 13.570312 0 11.3125 0 L 7.734375 0 L 7.734375 -5.453125 L 8.796875 -5.453125 C 9.328125 -5.453125 9.59375 -5.765625 9.59375 -6.390625 L 9.59375 -14.3125 C 9.59375 -14.945312 9.4375 -15.265625 9.125 -15.265625 C 8.800781 -15.265625 8.582031 -14.910156 8.46875 -14.203125 L 5.921875 0 L 0.890625 0 L 3.046875 -11.609375 L 2.03125 -11.609375 C 1.25 -11.609375 0.859375 -12 0.859375 -12.78125 L 0.859375 -20.796875 L 5.953125 -20.796875 L 5.953125 -13.453125 L 6.96875 -17.484375 C 7.53125 -19.691406 8.742188 -20.796875 10.609375 -20.796875 L 10.875 -20.796875 C 13.425781 -20.796875 14.703125 -19.238281 14.703125 -16.125 Z M 14.703125 -3.75 "/></g></g><g transform="translate(510.751028, 279.055068)"><g><path d="M 13.34375 0 L 8.171875 0 L 8.171875 -14.515625 C 8.171875 -15.085938 7.878906 -15.375 7.296875 -15.375 L 0.890625 -15.375 L 0.890625 -20.796875 L 9.65625 -20.796875 C 10.738281 -20.796875 11.625 -20.453125 12.3125 -19.765625 C 13 -19.085938 13.34375 -18.203125 13.34375 -17.109375 Z M 5.96875 0 L 0.90625 0 L 0.90625 -12.890625 L 5.96875 -12.890625 Z M 5.96875 0 "/></g></g><g transform="translate(524.984157, 279.055068)"><g/></g><g transform="translate(532.944167, 279.055068)"><g><path d="M 13.921875 0 L 0.890625 0 L 0.890625 -17.171875 C 0.890625 -18.460938 1.109375 -19.367188 1.546875 -19.890625 C 2.035156 -20.492188 2.914062 -20.796875 4.1875 -20.796875 L 10.40625 -20.796875 C 12.75 -20.796875 13.921875 -19.585938 13.921875 -17.171875 Z M 8.84375 -14.390625 C 8.84375 -15.046875 8.539062 -15.375 7.9375 -15.375 L 6.953125 -15.375 C 6.359375 -15.375 6.0625 -15.046875 6.0625 -14.390625 L 6.0625 -5.421875 L 8.84375 -5.421875 Z M 8.84375 -14.390625 "/></g></g><g transform="translate(547.757164, 279.055068)"><g><path d="M 5.96875 0 L 0.890625 0 L 0.890625 -20.796875 L 5.96875 -20.796875 Z M 5.96875 0 "/></g></g><g transform="translate(554.627724, 279.055068)"><g><path d="M 13.5625 0 L 8.46875 0 L 8.46875 -14.390625 C 8.46875 -15.046875 8.171875 -15.375 7.578125 -15.375 L 6.953125 -15.375 C 6.359375 -15.375 6.0625 -15.046875 6.0625 -14.390625 L 6.0625 0 L 0.890625 0 L 0.890625 -17.171875 C 0.890625 -18.460938 1.109375 -19.367188 1.546875 -19.890625 C 2.035156 -20.492188 2.914062 -20.796875 4.1875 -20.796875 L 10.046875 -20.796875 C 12.390625 -20.796875 13.5625 -19.585938 13.5625 -17.171875 Z M 13.5625 0 "/></g></g><g transform="translate(569.089287, 279.055068)"><g><path d="M 5.90625 -11.578125 L 0.859375 -11.578125 L 0.859375 -20.796875 L 5.90625 -20.796875 Z M 5.90625 -11.578125 "/></g></g><g transform="translate(575.889559, 279.055068)"><g><path d="M 14.390625 0 L 9.3125 0 L 9.3125 -14.390625 C 9.3125 -15.046875 9.015625 -15.375 8.421875 -15.375 L 7.734375 -15.375 C 7.117188 -15.375 6.8125 -15.046875 6.8125 -14.390625 L 6.8125 -2.5 C 6.8125 -0.832031 6.113281 0 4.71875 0 L 0.34375 0 L 0.34375 -5.421875 L 1.234375 -5.421875 C 1.523438 -5.421875 1.671875 -5.550781 1.671875 -5.8125 L 1.671875 -16.8125 C 1.671875 -18.226562 1.945312 -19.25 2.5 -19.875 C 3.050781 -20.488281 4.019531 -20.796875 5.40625 -20.796875 L 10.890625 -20.796875 C 13.222656 -20.796875 14.390625 -19.46875 14.390625 -16.8125 Z M 14.390625 0 "/></g></g></g><path fill="#242536" d="M 615.1875 319.914062 C 615.1875 320.234375 615.15625 320.550781 615.09375 320.867188 C 615.03125 321.179688 614.9375 321.484375 614.816406 321.78125 C 614.691406 322.074219 614.542969 322.355469 614.363281 322.621094 C 614.1875 322.890625 613.984375 323.136719 613.757812 323.359375 C 613.53125 323.585938 613.285156 323.789062 613.019531 323.96875 C 612.753906 324.144531 612.472656 324.296875 612.175781 324.417969 C 611.882812 324.539062 611.578125 324.632812 611.261719 324.695312 C 610.949219 324.757812 610.632812 324.789062 610.3125 324.789062 C 609.992188 324.789062 609.675781 324.757812 609.363281 324.695312 C 609.046875 324.632812 608.742188 324.539062 608.449219 324.417969 C 608.152344 324.296875 607.871094 324.144531 607.605469 323.96875 C 607.339844 323.789062 607.09375 323.585938 606.867188 323.359375 C 606.640625 323.136719 606.4375 322.890625 606.261719 322.621094 C 606.082031 322.355469 605.933594 322.074219 605.808594 321.78125 C 605.6875 321.484375 605.59375 321.179688 605.53125 320.867188 C 605.46875 320.550781 605.4375 320.234375 605.4375 319.914062 C 605.4375 319.59375 605.46875 319.277344 605.53125 318.964844 C 605.59375 318.652344 605.6875 318.347656 605.808594 318.050781 C 605.933594 317.753906 606.082031 317.472656 606.261719 317.207031 C 606.4375 316.941406 606.640625 316.695312 606.867188 316.46875 C 607.09375 316.242188 607.339844 316.042969 607.605469 315.863281 C 607.871094 315.683594 608.152344 315.535156 608.449219 315.414062 C 608.742188 315.289062 609.046875 315.199219 609.363281 315.136719 C 609.675781 315.074219 609.992188 315.042969 610.3125 315.042969 C 610.632812 315.042969 610.949219 315.074219 611.261719 315.136719 C 611.578125 315.199219 611.882812 315.289062 612.175781 315.414062 C 612.472656 315.535156 612.753906 315.683594 613.019531 315.863281 C 613.285156 316.042969 613.53125 316.242188 613.757812 316.46875 C 613.984375 316.695312 614.1875 316.941406 614.363281 317.207031 C 614.542969 317.472656 614.691406 317.753906 614.816406 318.050781 C 614.9375 318.347656 615.03125 318.652344 615.09375 318.964844 C 615.15625 319.277344 615.1875 319.59375 615.1875 319.914062 Z M 615.1875 319.914062 " fill-opacity="1" fill-rule="nonzero"/><g fill="#242536" fill-opacity="1"><g transform="translate(233.808303, 329.286886)"><g/></g></g><g fill="#242536" fill-opacity="1"><g transform="translate(241.77417, 329.286886)"><g><path d="M 13.34375 0 L 8.171875 0 L 8.171875 -14.515625 C 8.171875 -15.085938 7.878906 -15.375 7.296875 -15.375 L 0.890625 -15.375 L 0.890625 -20.796875 L 9.65625 -20.796875 C 10.738281 -20.796875 11.625 -20.453125 12.3125 -19.765625 C 13 -19.085938 13.34375 -18.203125 13.34375 -17.109375 Z M 5.96875 0 L 0.90625 0 L 0.90625 -12.890625 L 5.96875 -12.890625 Z M 5.96875 0 "/></g></g><g transform="translate(256.007299, 329.286886)"><g><path d="M 11.875 -15.375 C 10.726562 -15.375 10.15625 -14.8125 10.15625 -13.6875 L 10.15625 0 L 4.984375 0 L 4.984375 -12.25 C 4.984375 -13.851562 5.664062 -14.894531 7.03125 -15.375 L 0.546875 -15.375 L 0.546875 -20.796875 L 11.875 -20.796875 Z M 11.875 -15.375 "/></g></g><g transform="translate(268.781972, 329.286886)"><g><path d="M 5.96875 0 L 0.890625 0 L 0.890625 -20.796875 L 5.96875 -20.796875 Z M 5.96875 0 "/></g></g><g transform="translate(275.652532, 329.286886)"><g><path d="M 12.78125 0 L 0.890625 0 L 0.890625 -5.421875 L 4.84375 -5.421875 C 6.007812 -5.421875 6.59375 -6.109375 6.59375 -7.484375 L 6.59375 -13.71875 C 6.59375 -14.332031 6.484375 -14.757812 6.265625 -15 C 6.054688 -15.25 5.65625 -15.375 5.0625 -15.375 L 0.890625 -15.375 L 0.890625 -20.796875 L 7.734375 -20.796875 C 10.410156 -20.796875 11.75 -19.210938 11.75 -16.046875 L 11.75 -8.921875 C 11.75 -7.085938 11.066406 -5.921875 9.703125 -5.421875 L 12.78125 -5.421875 Z M 12.78125 0 "/></g></g><g transform="translate(289.147647, 329.286886)"><g><path d="M 13.78125 -5.484375 C 13.78125 -1.828125 12.28125 0 9.28125 0 L 0.546875 0 L 0.546875 -5.421875 L 1.78125 -5.421875 L 1.78125 -20.796875 L 6.859375 -20.796875 L 6.859375 -5.421875 L 7.875 -5.421875 C 8.457031 -5.421875 8.75 -5.828125 8.75 -6.640625 L 8.75 -20.796875 L 13.78125 -20.796875 Z M 13.78125 -5.484375 "/></g></g><g transform="translate(303.820071, 329.286886)"><g><path d="M 13.34375 0 L 8.171875 0 L 8.171875 -14.515625 C 8.171875 -15.085938 7.878906 -15.375 7.296875 -15.375 L 0.890625 -15.375 L 0.890625 -20.796875 L 9.65625 -20.796875 C 10.738281 -20.796875 11.625 -20.453125 12.3125 -19.765625 C 13 -19.085938 13.34375 -18.203125 13.34375 -17.109375 Z M 5.96875 0 L 0.90625 0 L 0.90625 -12.890625 L 5.96875 -12.890625 Z M 5.96875 0 "/></g></g><g transform="translate(318.0532, 329.286886)"><g/></g><g transform="translate(326.013209, 329.286886)"><g><path d="M 11.140625 0 L 5.984375 0 L 5.984375 -14.515625 C 5.984375 -15.085938 5.6875 -15.375 5.09375 -15.375 L 0.546875 -15.375 L 0.546875 -20.796875 L 7.46875 -20.796875 C 8.539062 -20.796875 9.425781 -20.453125 10.125 -19.765625 C 10.800781 -19.085938 11.140625 -18.203125 11.140625 -17.109375 Z M 11.140625 0 "/></g></g><g transform="translate(338.049868, 329.286886)"><g><path d="M 5.796875 -14.90625 L 6.59375 -14.90625 C 7.164062 -14.90625 7.453125 -15.210938 7.453125 -15.828125 L 7.453125 -20.796875 L 12.140625 -20.796875 L 12.140625 -14.96875 C 12.140625 -12.539062 11.09375 -11.328125 9 -11.328125 L 5.796875 -11.328125 L 5.796875 -6.375 C 5.796875 -5.738281 6.0625 -5.421875 6.59375 -5.421875 L 13 -5.421875 C 13.519531 -5.421875 13.78125 -5.738281 13.78125 -6.375 L 13.78125 -20.796875 L 18.6875 -20.796875 L 18.6875 -4.71875 C 18.6875 -3.289062 18.320312 -2.15625 17.59375 -1.3125 C 16.8125 -0.4375 15.710938 0 14.296875 0 L 5.28125 0 C 2.351562 0 0.890625 -1.570312 0.890625 -4.71875 L 0.890625 -20.796875 L 5.796875 -20.796875 Z M 5.796875 -14.90625 "/></g></g><g transform="translate(357.642386, 329.286886)"><g/></g><g transform="translate(365.602395, 329.286886)"><g><path d="M 14.390625 0 L 9.3125 0 L 9.3125 -14.390625 C 9.3125 -15.046875 9.015625 -15.375 8.421875 -15.375 L 7.734375 -15.375 C 7.117188 -15.375 6.8125 -15.046875 6.8125 -14.390625 L 6.8125 -2.5 C 6.8125 -0.832031 6.113281 0 4.71875 0 L 0.34375 0 L 0.34375 -5.421875 L 1.234375 -5.421875 C 1.523438 -5.421875 1.671875 -5.550781 1.671875 -5.8125 L 1.671875 -16.8125 C 1.671875 -18.226562 1.945312 -19.25 2.5 -19.875 C 3.050781 -20.488281 4.019531 -20.796875 5.40625 -20.796875 L 10.890625 -20.796875 C 13.222656 -20.796875 14.390625 -19.46875 14.390625 -16.8125 Z M 14.390625 0 "/></g></g><g transform="translate(380.907402, 329.286886)"><g><path d="M 5.96875 0 L 0.890625 0 L 0.890625 -20.796875 L 5.96875 -20.796875 Z M 5.96875 0 "/></g></g><g transform="translate(387.777962, 329.286886)"><g><path d="M 11.90625 -5.125 C 11.90625 -1.707031 10.296875 0 7.078125 0 L 0.890625 0 L 0.890625 -5.421875 L 5.203125 -5.421875 C 6.265625 -5.421875 6.796875 -5.921875 6.796875 -6.921875 L 6.796875 -13.875 C 6.796875 -14.875 6.265625 -15.375 5.203125 -15.375 L 0.890625 -15.375 L 0.890625 -20.796875 L 7.078125 -20.796875 C 10.296875 -20.796875 11.90625 -19.085938 11.90625 -15.671875 Z M 11.90625 -5.125 "/></g></g><g transform="translate(400.587778, 329.286886)"><g><path d="M 14.703125 -3.75 C 14.703125 -1.25 13.570312 0 11.3125 0 L 7.734375 0 L 7.734375 -5.453125 L 8.796875 -5.453125 C 9.328125 -5.453125 9.59375 -5.765625 9.59375 -6.390625 L 9.59375 -14.3125 C 9.59375 -14.945312 9.4375 -15.265625 9.125 -15.265625 C 8.800781 -15.265625 8.582031 -14.910156 8.46875 -14.203125 L 5.921875 0 L 0.890625 0 L 3.046875 -11.609375 L 2.03125 -11.609375 C 1.25 -11.609375 0.859375 -12 0.859375 -12.78125 L 0.859375 -20.796875 L 5.953125 -20.796875 L 5.953125 -13.453125 L 6.96875 -17.484375 C 7.53125 -19.691406 8.742188 -20.796875 10.609375 -20.796875 L 10.875 -20.796875 C 13.425781 -20.796875 14.703125 -19.238281 14.703125 -16.125 Z M 14.703125 -3.75 "/></g></g><g transform="translate(416.191505, 329.286886)"><g><path d="M 14.171875 -6.234375 C 14.171875 -4.203125 13.597656 -2.578125 12.453125 -1.359375 C 11.273438 -0.0976562 9.675781 0.53125 7.65625 0.53125 C 5.582031 0.53125 3.9375 -0.078125 2.71875 -1.296875 C 1.5 -2.515625 0.890625 -4.160156 0.890625 -6.234375 L 0.890625 -17.484375 C 0.890625 -18.078125 0.945312 -18.582031 1.0625 -19 C 1.1875 -19.425781 1.375 -19.769531 1.625 -20.03125 C 1.882812 -20.300781 2.222656 -20.492188 2.640625 -20.609375 C 3.054688 -20.734375 3.566406 -20.796875 4.171875 -20.796875 L 10.875 -20.796875 C 13.070312 -20.796875 14.171875 -19.691406 14.171875 -17.484375 Z M 9.046875 -14.953125 C 9.046875 -15.234375 8.929688 -15.375 8.703125 -15.375 L 6.34375 -15.375 C 6.101562 -15.375 5.984375 -15.234375 5.984375 -14.953125 L 5.984375 -6.796875 C 5.984375 -5.523438 6.519531 -4.890625 7.59375 -4.890625 C 8.5625 -4.890625 9.046875 -5.523438 9.046875 -6.796875 Z M 9.046875 -14.953125 "/></g></g><g transform="translate(431.268079, 329.286886)"><g><path d="M 12.78125 0 L 0.890625 0 L 0.890625 -5.421875 L 4.84375 -5.421875 C 6.007812 -5.421875 6.59375 -6.109375 6.59375 -7.484375 L 6.59375 -13.71875 C 6.59375 -14.332031 6.484375 -14.757812 6.265625 -15 C 6.054688 -15.25 5.65625 -15.375 5.0625 -15.375 L 0.890625 -15.375 L 0.890625 -20.796875 L 7.734375 -20.796875 C 10.410156 -20.796875 11.75 -19.210938 11.75 -16.046875 L 11.75 -8.921875 C 11.75 -7.085938 11.066406 -5.921875 9.703125 -5.421875 L 12.78125 -5.421875 Z M 12.78125 0 "/></g></g><g transform="translate(444.763195, 329.286886)"><g/></g><g transform="translate(452.723204, 329.286886)"><g><path d="M 9.6875 -7.453125 L 1.078125 -7.453125 L 1.078125 -12.875 L 9.6875 -12.875 Z M 9.6875 -7.453125 "/></g></g><g transform="translate(463.477124, 329.286886)"><g/></g><g transform="translate(471.437134, 329.286886)"><g><path d="M 5.90625 -11.578125 L 0.859375 -11.578125 L 0.859375 -20.796875 L 5.90625 -20.796875 Z M 5.90625 -11.578125 "/></g></g><g transform="translate(478.237406, 329.286886)"><g><path d="M 13.484375 -6.4375 C 13.484375 -4.3125 13.132812 -2.742188 12.4375 -1.734375 C 11.59375 -0.546875 10.160156 0.046875 8.140625 0.046875 C 7.773438 0.046875 7.394531 0.03125 7 0 L 7 -5.421875 C 7.882812 -5.421875 8.328125 -6.078125 8.328125 -7.390625 L 8.328125 -14.515625 C 8.328125 -15.085938 8.03125 -15.375 7.4375 -15.375 L 0.890625 -15.375 L 0.890625 -20.796875 L 10.875 -20.796875 C 12.613281 -20.796875 13.484375 -19.960938 13.484375 -18.296875 Z M 6.015625 3 L 0.9375 3 L 0.9375 -13.09375 L 6.015625 -13.09375 Z M 6.015625 3 "/></g></g><g transform="translate(492.628681, 329.286886)"><g><path d="M 5.796875 -14.90625 L 6.59375 -14.90625 C 7.164062 -14.90625 7.453125 -15.210938 7.453125 -15.828125 L 7.453125 -20.796875 L 12.140625 -20.796875 L 12.140625 -14.96875 C 12.140625 -12.539062 11.09375 -11.328125 9 -11.328125 L 5.796875 -11.328125 L 5.796875 -6.375 C 5.796875 -5.738281 6.0625 -5.421875 6.59375 -5.421875 L 13 -5.421875 C 13.519531 -5.421875 13.78125 -5.738281 13.78125 -6.375 L 13.78125 -20.796875 L 18.6875 -20.796875 L 18.6875 -4.71875 C 18.6875 -3.289062 18.320312 -2.15625 17.59375 -1.3125 C 16.8125 -0.4375 15.710938 0 14.296875 0 L 5.28125 0 C 2.351562 0 0.890625 -1.570312 0.890625 -4.71875 L 0.890625 -20.796875 L 5.796875 -20.796875 Z M 5.796875 -14.90625 "/></g></g><g transform="translate(512.221199, 329.286886)"><g><path d="M 14.703125 -3.75 C 14.703125 -1.25 13.570312 0 11.3125 0 L 7.734375 0 L 7.734375 -5.453125 L 8.796875 -5.453125 C 9.328125 -5.453125 9.59375 -5.765625 9.59375 -6.390625 L 9.59375 -14.3125 C 9.59375 -14.945312 9.4375 -15.265625 9.125 -15.265625 C 8.800781 -15.265625 8.582031 -14.910156 8.46875 -14.203125 L 5.921875 0 L 0.890625 0 L 3.046875 -11.609375 L 2.03125 -11.609375 C 1.25 -11.609375 0.859375 -12 0.859375 -12.78125 L 0.859375 -20.796875 L 5.953125 -20.796875 L 5.953125 -13.453125 L 6.96875 -17.484375 C 7.53125 -19.691406 8.742188 -20.796875 10.609375 -20.796875 L 10.875 -20.796875 C 13.425781 -20.796875 14.703125 -19.238281 14.703125 -16.125 Z M 14.703125 -3.75 "/></g></g><g transform="translate(527.824926, 329.286886)"><g/></g><g transform="translate(535.784935, 329.286886)"><g><path d="M 13.484375 -6.4375 C 13.484375 -4.3125 13.132812 -2.742188 12.4375 -1.734375 C 11.59375 -0.546875 10.160156 0.046875 8.140625 0.046875 C 7.773438 0.046875 7.394531 0.03125 7 0 L 7 -5.421875 C 7.882812 -5.421875 8.328125 -6.078125 8.328125 -7.390625 L 8.328125 -14.515625 C 8.328125 -15.085938 8.03125 -15.375 7.4375 -15.375 L 0.890625 -15.375 L 0.890625 -20.796875 L 10.875 -20.796875 C 12.613281 -20.796875 13.484375 -19.960938 13.484375 -18.296875 Z M 6.015625 3 L 0.9375 3 L 0.9375 -13.09375 L 6.015625 -13.09375 Z M 6.015625 3 "/></g></g><g transform="translate(550.17621, 329.286886)"><g><path d="M 5.96875 0 L 0.890625 0 L 0.890625 -20.796875 L 5.96875 -20.796875 Z M 5.96875 0 "/></g></g><g transform="translate(557.04677, 329.286886)"><g><path d="M 14.390625 0 L 9.3125 0 L 9.3125 -14.390625 C 9.3125 -15.046875 9.015625 -15.375 8.421875 -15.375 L 7.734375 -15.375 C 7.117188 -15.375 6.8125 -15.046875 6.8125 -14.390625 L 6.8125 -2.5 C 6.8125 -0.832031 6.113281 0 4.71875 0 L 0.34375 0 L 0.34375 -5.421875 L 1.234375 -5.421875 C 1.523438 -5.421875 1.671875 -5.550781 1.671875 -5.8125 L 1.671875 -16.8125 C 1.671875 -18.226562 1.945312 -19.25 2.5 -19.875 C 3.050781 -20.488281 4.019531 -20.796875 5.40625 -20.796875 L 10.890625 -20.796875 C 13.222656 -20.796875 14.390625 -19.46875 14.390625 -16.8125 Z M 14.390625 0 "/></g></g><g transform="translate(572.351777, 329.286886)"><g><path d="M 5.90625 -11.578125 L 0.859375 -11.578125 L 0.859375 -20.796875 L 5.90625 -20.796875 Z M 5.90625 -11.578125 "/></g></g><g transform="translate(579.15205, 329.286886)"><g><path d="M 11.140625 0 L 5.984375 0 L 5.984375 -14.515625 C 5.984375 -15.085938 5.6875 -15.375 5.09375 -15.375 L 0.546875 -15.375 L 0.546875 -20.796875 L 7.46875 -20.796875 C 8.539062 -20.796875 9.425781 -20.453125 10.125 -19.765625 C 10.800781 -19.085938 11.140625 -18.203125 11.140625 -17.109375 Z M 11.140625 0 "/></g></g></g><g fill="#242536" fill-opacity="1"><g transform="translate(351.304836, 379.518704)"><g><path d="M 13.921875 0 L 0.890625 0 L 0.890625 -17.171875 C 0.890625 -18.460938 1.109375 -19.367188 1.546875 -19.890625 C 2.035156 -20.492188 2.914062 -20.796875 4.1875 -20.796875 L 10.40625 -20.796875 C 12.75 -20.796875 13.921875 -19.585938 13.921875 -17.171875 Z M 8.84375 -14.390625 C 8.84375 -15.046875 8.539062 -15.375 7.9375 -15.375 L 6.953125 -15.375 C 6.359375 -15.375 6.0625 -15.046875 6.0625 -14.390625 L 6.0625 -5.421875 L 8.84375 -5.421875 Z M 8.84375 -14.390625 "/></g></g><g transform="translate(366.117833, 379.518704)"><g><path d="M 5.90625 -11.578125 L 0.859375 -11.578125 L 0.859375 -20.796875 L 5.90625 -20.796875 Z M 5.90625 -11.578125 "/></g></g><g transform="translate(372.918106, 379.518704)"><g><path d="M 11.875 -15.375 C 10.726562 -15.375 10.15625 -14.8125 10.15625 -13.6875 L 10.15625 0 L 4.984375 0 L 4.984375 -12.25 C 4.984375 -13.851562 5.664062 -14.894531 7.03125 -15.375 L 0.546875 -15.375 L 0.546875 -20.796875 L 11.875 -20.796875 Z M 11.875 -15.375 "/></g></g><g transform="translate(385.692779, 379.518704)"><g><path d="M 12.78125 0 L 0.890625 0 L 0.890625 -5.421875 L 4.84375 -5.421875 C 6.007812 -5.421875 6.59375 -6.109375 6.59375 -7.484375 L 6.59375 -13.71875 C 6.59375 -14.332031 6.484375 -14.757812 6.265625 -15 C 6.054688 -15.25 5.65625 -15.375 5.0625 -15.375 L 0.890625 -15.375 L 0.890625 -20.796875 L 7.734375 -20.796875 C 10.410156 -20.796875 11.75 -19.210938 11.75 -16.046875 L 11.75 -8.921875 C 11.75 -7.085938 11.066406 -5.921875 9.703125 -5.421875 L 12.78125 -5.421875 Z M 12.78125 0 "/></g></g><g transform="translate(399.187894, 379.518704)"><g><path d="M 5.96875 0 L 0.890625 0 L 0.890625 -20.796875 L 5.96875 -20.796875 Z M 5.96875 0 "/></g></g><g transform="translate(406.058454, 379.518704)"><g><path d="M 13.78125 -5.484375 C 13.78125 -1.828125 12.28125 0 9.28125 0 L 0.546875 0 L 0.546875 -5.421875 L 1.78125 -5.421875 L 1.78125 -20.796875 L 6.859375 -20.796875 L 6.859375 -5.421875 L 7.875 -5.421875 C 8.457031 -5.421875 8.75 -5.828125 8.75 -6.640625 L 8.75 -20.796875 L 13.78125 -20.796875 Z M 13.78125 -5.484375 "/></g></g><g transform="translate(420.730878, 379.518704)"><g/></g><g transform="translate(428.690887, 379.518704)"><g><path d="M 13.484375 -6.4375 C 13.484375 -4.3125 13.132812 -2.742188 12.4375 -1.734375 C 11.59375 -0.546875 10.160156 0.046875 8.140625 0.046875 C 7.773438 0.046875 7.394531 0.03125 7 0 L 7 -5.421875 C 7.882812 -5.421875 8.328125 -6.078125 8.328125 -7.390625 L 8.328125 -14.515625 C 8.328125 -15.085938 8.03125 -15.375 7.4375 -15.375 L 0.890625 -15.375 L 0.890625 -20.796875 L 10.875 -20.796875 C 12.613281 -20.796875 13.484375 -19.960938 13.484375 -18.296875 Z M 6.015625 3 L 0.9375 3 L 0.9375 -13.09375 L 6.015625 -13.09375 Z M 6.015625 3 "/></g></g><g transform="translate(443.082162, 379.518704)"><g><path d="M 5.96875 0 L 0.890625 0 L 0.890625 -20.796875 L 5.96875 -20.796875 Z M 5.96875 0 "/></g></g><g transform="translate(449.952722, 379.518704)"><g><path d="M 14.390625 0 L 9.3125 0 L 9.3125 -14.390625 C 9.3125 -15.046875 9.015625 -15.375 8.421875 -15.375 L 7.734375 -15.375 C 7.117188 -15.375 6.8125 -15.046875 6.8125 -14.390625 L 6.8125 -2.5 C 6.8125 -0.832031 6.113281 0 4.71875 0 L 0.34375 0 L 0.34375 -5.421875 L 1.234375 -5.421875 C 1.523438 -5.421875 1.671875 -5.550781 1.671875 -5.8125 L 1.671875 -16.8125 C 1.671875 -18.226562 1.945312 -19.25 2.5 -19.875 C 3.050781 -20.488281 4.019531 -20.796875 5.40625 -20.796875 L 10.890625 -20.796875 C 13.222656 -20.796875 14.390625 -19.46875 14.390625 -16.8125 Z M 14.390625 0 "/></g></g><g transform="translate(465.257729, 379.518704)"><g><path d="M 5.90625 -11.578125 L 0.859375 -11.578125 L 0.859375 -20.796875 L 5.90625 -20.796875 Z M 5.90625 -11.578125 "/></g></g><g transform="translate(472.058002, 379.518704)"><g><path d="M 11.140625 0 L 5.984375 0 L 5.984375 -14.515625 C 5.984375 -15.085938 5.6875 -15.375 5.09375 -15.375 L 0.546875 -15.375 L 0.546875 -20.796875 L 7.46875 -20.796875 C 8.539062 -20.796875 9.425781 -20.453125 10.125 -19.765625 C 10.800781 -19.085938 11.140625 -18.203125 11.140625 -17.109375 Z M 11.140625 0 "/></g></g><g transform="translate(484.094661, 379.518704)"><g/></g><g transform="translate(492.05467, 379.518704)"><g><path d="M 12.421875 -7.515625 C 12.421875 -2.503906 10.019531 0 5.21875 0 L 3.015625 0 L 3.015625 -5.421875 L 4.5 -5.421875 C 5.632812 -5.421875 6.40625 -5.785156 6.8125 -6.515625 C 7.101562 -7.035156 7.25 -7.929688 7.25 -9.203125 L 7.25 -14.515625 C 7.25 -15.085938 6.957031 -15.375 6.375 -15.375 L 0.890625 -15.375 L 0.890625 -23.390625 L 5.984375 -23.390625 L 5.984375 -20.796875 L 9.828125 -20.796875 C 11.554688 -20.796875 12.421875 -19.960938 12.421875 -18.296875 Z M 12.421875 -7.515625 "/></g></g><g transform="translate(505.374068, 379.518704)"><g><path d="M 13.78125 -5.484375 C 13.78125 -1.828125 12.28125 0 9.28125 0 L 0.546875 0 L 0.546875 -5.421875 L 1.78125 -5.421875 L 1.78125 -20.796875 L 6.859375 -20.796875 L 6.859375 -5.421875 L 7.875 -5.421875 C 8.457031 -5.421875 8.75 -5.828125 8.75 -6.640625 L 8.75 -20.796875 L 13.78125 -20.796875 Z M 13.78125 -5.484375 "/></g></g><g transform="translate(520.046491, 379.518704)"><g/></g><g transform="translate(528.006501, 379.518704)"><g><path d="M 14.390625 0 L 9.3125 0 L 9.3125 -14.390625 C 9.3125 -15.046875 9.015625 -15.375 8.421875 -15.375 L 7.734375 -15.375 C 7.117188 -15.375 6.8125 -15.046875 6.8125 -14.390625 L 6.8125 -2.5 C 6.8125 -0.832031 6.113281 0 4.71875 0 L 0.34375 0 L 0.34375 -5.421875 L 1.234375 -5.421875 C 1.523438 -5.421875 1.671875 -5.550781 1.671875 -5.8125 L 1.671875 -16.8125 C 1.671875 -18.226562 1.945312 -19.25 2.5 -19.875 C 3.050781 -20.488281 4.019531 -20.796875 5.40625 -20.796875 L 10.890625 -20.796875 C 13.222656 -20.796875 14.390625 -19.46875 14.390625 -16.8125 Z M 14.390625 0 "/></g></g><g transform="translate(543.311508, 379.518704)"><g><path d="M 5.96875 0 L 0.890625 0 L 0.890625 -20.796875 L 5.96875 -20.796875 Z M 5.96875 0 "/></g></g><g transform="translate(550.182068, 379.518704)"><g><path d="M 11.140625 0 L 5.984375 0 L 5.984375 -14.515625 C 5.984375 -15.085938 5.6875 -15.375 5.09375 -15.375 L 0.546875 -15.375 L 0.546875 -20.796875 L 7.46875 -20.796875 C 8.539062 -20.796875 9.425781 -20.453125 10.125 -19.765625 C 10.800781 -19.085938 11.140625 -18.203125 11.140625 -17.109375 Z M 11.140625 0 "/></g></g><g transform="translate(562.218727, 379.518704)"><g><path d="M 5.96875 0 L 0.890625 0 L 0.890625 -20.796875 L 5.96875 -20.796875 Z M 5.96875 0 "/></g></g><g transform="translate(569.089287, 379.518704)"><g><path d="M 13.34375 0 L 8.171875 0 L 8.171875 -14.515625 C 8.171875 -15.085938 7.878906 -15.375 7.296875 -15.375 L 0.890625 -15.375 L 0.890625 -20.796875 L 9.65625 -20.796875 C 10.738281 -20.796875 11.625 -20.453125 12.3125 -19.765625 C 13 -19.085938 13.34375 -18.203125 13.34375 -17.109375 Z M 5.96875 0 L 0.90625 0 L 0.90625 -12.890625 L 5.96875 -12.890625 Z M 5.96875 0 "/></g></g><g transform="translate(583.322416, 379.518704)"><g><path d="M 12.421875 -7.515625 C 12.421875 -2.503906 10.019531 0 5.21875 0 L 3.015625 0 L 3.015625 -5.421875 L 4.5 -5.421875 C 5.632812 -5.421875 6.40625 -5.785156 6.8125 -6.515625 C 7.101562 -7.035156 7.25 -7.929688 7.25 -9.203125 L 7.25 -14.515625 C 7.25 -15.085938 6.957031 -15.375 6.375 -15.375 L 0.890625 -15.375 L 0.890625 -23.390625 L 5.984375 -23.390625 L 5.984375 -20.796875 L 9.828125 -20.796875 C 11.554688 -20.796875 12.421875 -19.960938 12.421875 -18.296875 Z M 12.421875 -7.515625 "/></g></g></g><g fill="#242536" fill-opacity="1"><g transform="translate(596.641817, 379.518704)"><g/></g><g transform="translate(604.601826, 379.518704)"><g/></g><g transform="translate(612.561836, 379.518704)"><g/></g><g transform="translate(620.521845, 379.518704)"><g/></g><g transform="translate(628.481855, 379.518704)"><g/></g><g transform="translate(636.441864, 379.518704)"><g/></g><g transform="translate(644.401874, 379.518704)"><g/></g></g><g clip-path="url(#74867d9c74)"><path fill="#5d734e" d="M 28.109375 19.714844 L 359.226562 19.714844 L 359.226562 85.476562 L 28.109375 85.476562 Z M 28.109375 19.714844 " fill-opacity="1" fill-rule="nonzero"/></g><g clip-path="url(#7f8349ed39)"><path stroke-linecap="butt" transform="matrix(0.749729, 0, 0, 0.749729, 28.121367, 19.715288)" fill="none" stroke-linejoin="miter" d="M -0.000364451 -0.000592285 L 441.52395 -0.000592285 L 441.52395 87.703011 L -0.000364451 87.703011 Z M -0.000364451 -0.000592285 " stroke="#5d734e" stroke-width="20" stroke-opacity="1" stroke-miterlimit="4"/></g><g clip-path="url(#f8c4bbcc9a)"><path fill="#ffcf7e" d="M 28.109375 11.273438 L 359.226562 11.273438 L 359.226562 77.035156 L 28.109375 77.035156 Z M 28.109375 11.273438 " fill-opacity="1" fill-rule="nonzero"/></g><g clip-path="url(#0b589f1f84)"><path stroke-linecap="butt" transform="matrix(0.749729, 0, 0, 0.749729, 28.121367, 11.273552)" fill="none" stroke-linejoin="miter" d="M -0.000364451 -0.000153034 L 441.52395 -0.000153034 L 441.52395 87.703451 L -0.000364451 87.703451 Z M -0.000364451 -0.000153034 " stroke="#5d734e" stroke-width="10" stroke-opacity="1" stroke-miterlimit="4"/></g><g fill="#5d734e" fill-opacity="1"><g transform="translate(51.022152, 60.405766)"><g><path d="M 20.65625 4.53125 C 20.65625 5.28125 20.375 5.65625 19.8125 5.65625 L 14.203125 5.65625 C 13.535156 5.65625 13.203125 5.28125 13.203125 4.53125 L 13.203125 -21.15625 C 13.203125 -21.675781 13.019531 -21.9375 12.65625 -21.9375 L 9.40625 -21.9375 C 9.050781 -21.9375 8.847656 -21.675781 8.796875 -21.15625 L 8.28125 -15.546875 C 8.226562 -14.867188 7.816406 -14.53125 7.046875 -14.53125 L 1.859375 -14.53125 C 1.179688 -14.53125 0.84375 -14.878906 0.84375 -15.578125 L 0.84375 -15.65625 L 2.34375 -31.953125 C 2.414062 -32.765625 2.828125 -33.171875 3.578125 -33.171875 L 19.546875 -33.171875 C 20.285156 -33.171875 20.65625 -32.765625 20.65625 -31.953125 Z M 20.65625 4.53125 "/></g></g></g><g fill="#5d734e" fill-opacity="1"><g transform="translate(73.952057, 60.405766)"><g><path d="M 18.359375 -1.125 C 18.359375 -0.375 18.0625 0 17.46875 0 L 11.96875 0 C 11.257812 0 10.90625 -0.375 10.90625 -1.125 L 10.90625 -21.421875 C 10.90625 -21.804688 10.703125 -22 10.296875 -22 L 2.78125 -22 C 2.019531 -22 1.628906 -22.351562 1.609375 -23.0625 L 1.0625 -31.953125 L 1.0625 -32.03125 C 1.0625 -32.789062 1.414062 -33.171875 2.125 -33.171875 L 17.25 -33.171875 C 17.988281 -33.171875 18.359375 -32.765625 18.359375 -31.953125 Z M 18.359375 -1.125 "/></g></g></g><g fill="#5d734e" fill-opacity="1"><g transform="translate(94.558909, 60.405766)"><g><path d="M 10.953125 -1.125 C 10.953125 -0.375 10.679688 0 10.140625 0 L 4.59375 0 C 3.914062 0 3.578125 -0.375 3.578125 -1.125 L 3.578125 -21.484375 C 3.578125 -21.828125 3.453125 -22 3.203125 -22 L 2.890625 -22 C 2.441406 -22 2.1875 -22.375 2.125 -23.125 L 1.5625 -31.953125 L 1.5625 -32.03125 C 1.5625 -32.789062 1.914062 -33.171875 2.625 -33.171875 L 9.84375 -33.171875 C 10.582031 -33.171875 10.953125 -32.765625 10.953125 -31.953125 Z M 10.953125 -1.125 "/></g></g></g><g fill="#5d734e" fill-opacity="1"><g transform="translate(107.294709, 60.405766)"><g><path d="M 22.15625 -31.953125 L 20.3125 -1.171875 C 20.25 -0.390625 19.851562 0 19.125 0 L 2.34375 0 C 1.675781 0 1.34375 -0.363281 1.34375 -1.09375 L 1.34375 -1.171875 L 2.078125 -10.078125 C 2.128906 -10.828125 2.539062 -11.203125 3.3125 -11.203125 L 4.484375 -11.203125 L 2.671875 -31.953125 L 2.671875 -32.109375 C 2.671875 -32.785156 3.007812 -33.125 3.6875 -33.125 L 8.859375 -33.125 C 9.597656 -33.125 10.003906 -32.734375 10.078125 -31.953125 L 11.859375 -11.15625 L 12.921875 -11.15625 C 13.304688 -11.15625 13.519531 -11.390625 13.5625 -11.859375 L 14.890625 -31.953125 C 14.941406 -32.734375 15.332031 -33.125 16.0625 -33.125 L 21.09375 -33.125 C 21.800781 -33.125 22.15625 -32.773438 22.15625 -32.078125 Z M 22.15625 -31.953125 "/></g></g></g><g fill="#5d734e" fill-opacity="1"><g transform="translate(131.044516, 60.405766)"><g><path d="M 20.3125 -1.015625 C 20.3125 -0.335938 20.035156 0 19.484375 0 L 1.671875 0 C 1.085938 0 0.796875 -0.300781 0.796875 -0.90625 L 0.796875 -1.015625 L 1.234375 -10.1875 C 1.242188 -10.863281 1.5625 -11.203125 2.1875 -11.203125 L 10.40625 -11.203125 L 9.78125 -21.375 C 9.75 -21.75 9.585938 -21.9375 9.296875 -21.9375 L 3.46875 -21.9375 C 2.832031 -21.9375 2.515625 -22.285156 2.515625 -22.984375 L 2.515625 -23.0625 L 2.890625 -32.1875 C 2.910156 -32.84375 3.3125 -33.171875 4.09375 -33.171875 L 15.5 -33.171875 C 16.207031 -33.171875 16.578125 -32.828125 16.609375 -32.140625 L 17.84375 -11.203125 L 18.90625 -11.203125 C 19.507812 -11.203125 19.832031 -10.828125 19.875 -10.078125 L 20.3125 -1.0625 Z M 20.3125 -1.015625 "/></g></g></g><g fill="#5d734e" fill-opacity="1"><g transform="translate(152.14331, 60.405766)"><g/></g></g><g fill="#5d734e" fill-opacity="1"><g transform="translate(164.523819, 60.405766)"><g><path d="M 19.546875 -31.78125 L 18.96875 -23.609375 C 18.875 -22.535156 18.519531 -22 17.90625 -22 L 16.234375 -22 L 16.234375 -1.171875 C 16.234375 -0.390625 15.804688 0 14.953125 0 L 9.96875 0 C 9.1875 0 8.796875 -0.410156 8.796875 -1.234375 L 8.796875 -22 L 2.078125 -22 C 1.378906 -22 1.003906 -22.535156 0.953125 -23.609375 L 0.546875 -31.78125 L 0.546875 -31.96875 C 0.546875 -32.769531 0.9375 -33.171875 1.71875 -33.171875 L 18.53125 -33.171875 C 19.207031 -33.171875 19.546875 -32.78125 19.546875 -32 Z M 19.546875 -31.78125 "/></g></g></g><g fill="#5d734e" fill-opacity="1"><g transform="translate(184.638731, 60.405766)"><g><path d="M 23.0625 -0.90625 C 23.0625 -0.300781 22.796875 0 22.265625 0 L 16.828125 0 C 16.234375 0 15.90625 -0.390625 15.84375 -1.171875 L 14.421875 -21.484375 C 14.390625 -21.785156 14.191406 -21.9375 13.828125 -21.9375 L 10.734375 -21.9375 C 10.460938 -21.9375 10.316406 -21.765625 10.296875 -21.421875 L 8.796875 -1.171875 C 8.742188 -0.390625 8.390625 0 7.734375 0 L 2.453125 0 C 1.859375 0 1.5625 -0.363281 1.5625 -1.09375 L 1.5625 -1.171875 L 3.53125 -31.953125 C 3.582031 -32.765625 3.972656 -33.171875 4.703125 -33.171875 L 20.140625 -33.171875 C 20.867188 -33.171875 21.257812 -32.765625 21.3125 -31.953125 L 23.0625 -1.171875 Z M 23.0625 -0.90625 "/></g></g></g><g fill="#5d734e" fill-opacity="1"><g transform="translate(209.290429, 60.405766)"><g><path d="M 10.953125 -1.125 C 10.953125 -0.375 10.679688 0 10.140625 0 L 4.59375 0 C 3.914062 0 3.578125 -0.375 3.578125 -1.125 L 3.578125 -21.484375 C 3.578125 -21.828125 3.453125 -22 3.203125 -22 L 2.890625 -22 C 2.441406 -22 2.1875 -22.375 2.125 -23.125 L 1.5625 -31.953125 L 1.5625 -32.03125 C 1.5625 -32.789062 1.914062 -33.171875 2.625 -33.171875 L 9.84375 -33.171875 C 10.582031 -33.171875 10.953125 -32.765625 10.953125 -31.953125 Z M 10.953125 -1.125 "/></g></g></g><g fill="#5d734e" fill-opacity="1"><g transform="translate(222.026229, 60.405766)"><g><path d="M 11.484375 -14.3125 C 11.484375 -13.570312 11.179688 -13.203125 10.578125 -13.203125 L 5.078125 -13.203125 C 4.421875 -13.203125 4.09375 -13.570312 4.09375 -14.3125 L 4.09375 -21.421875 C 4.09375 -21.804688 3.90625 -22 3.53125 -22 L 3.09375 -22 C 2.507812 -22 2.1875 -22.375 2.125 -23.125 L 1.5625 -31.953125 L 1.5625 -32.0625 C 1.5625 -32.800781 1.914062 -33.171875 2.625 -33.171875 L 10.359375 -33.171875 C 11.109375 -33.171875 11.484375 -32.765625 11.484375 -31.953125 Z M 11.484375 -14.3125 "/></g></g></g><g fill="#5d734e" fill-opacity="1"><g transform="translate(235.25397, 60.405766)"><g><path d="M 23.671875 -1.09375 C 23.671875 -0.363281 23.3125 0 22.59375 0 L 12.375 0 C 11.664062 0 11.3125 -0.375 11.3125 -1.125 L 11.3125 -1.171875 L 11.8125 -9.84375 C 11.863281 -10.75 12.253906 -11.203125 12.984375 -11.203125 L 15.109375 -11.203125 C 15.453125 -11.203125 15.625 -11.375 15.625 -11.71875 C 15.625 -11.789062 15.617188 -11.835938 15.609375 -11.859375 L 15 -21.3125 C 14.976562 -21.769531 14.769531 -22 14.375 -22 L 10.84375 -22 C 10.46875 -22 10.269531 -21.769531 10.25 -21.3125 L 9.015625 -1.171875 C 8.960938 -0.390625 8.570312 0 7.84375 0 L 2.625 0 C 1.914062 0 1.5625 -0.375 1.5625 -1.125 L 1.5625 -1.171875 L 3.53125 -31.953125 C 3.582031 -32.765625 3.988281 -33.171875 4.75 -33.171875 L 20.546875 -33.171875 C 21.273438 -33.171875 21.664062 -32.765625 21.71875 -31.953125 L 23.671875 -1.171875 Z M 23.671875 -1.09375 "/></g></g></g><g fill="#5d734e" fill-opacity="1"><g transform="translate(260.506918, 60.405766)"><g/></g></g><g fill="#5d734e" fill-opacity="1"><g transform="translate(272.887416, 60.405766)"><g><path d="M 20.3125 -1.015625 C 20.3125 -0.335938 20.035156 0 19.484375 0 L 1.671875 0 C 1.085938 0 0.796875 -0.300781 0.796875 -0.90625 L 0.796875 -1.015625 L 1.234375 -10.1875 C 1.242188 -10.863281 1.5625 -11.203125 2.1875 -11.203125 L 10.40625 -11.203125 L 9.78125 -21.375 C 9.75 -21.75 9.585938 -21.9375 9.296875 -21.9375 L 3.46875 -21.9375 C 2.832031 -21.9375 2.515625 -22.285156 2.515625 -22.984375 L 2.515625 -23.0625 L 2.890625 -32.1875 C 2.910156 -32.84375 3.3125 -33.171875 4.09375 -33.171875 L 15.5 -33.171875 C 16.207031 -33.171875 16.578125 -32.828125 16.609375 -32.140625 L 17.84375 -11.203125 L 18.90625 -11.203125 C 19.507812 -11.203125 19.832031 -10.828125 19.875 -10.078125 L 20.3125 -1.0625 Z M 20.3125 -1.015625 "/></g></g></g><g fill="#5d734e" fill-opacity="1"><g transform="translate(293.986209, 60.405766)"><g><path d="M 22.21875 -32.40625 C 22.21875 -32.332031 22.210938 -32.257812 22.203125 -32.1875 C 22.191406 -32.113281 22.175781 -32.035156 22.15625 -31.953125 L 17.953125 -11.75 L 21.53125 -1.171875 C 21.582031 -1.066406 21.609375 -0.945312 21.609375 -0.8125 C 21.609375 -0.269531 21.363281 0 20.875 0 L 2.234375 0 C 1.566406 0 1.234375 -0.363281 1.234375 -1.09375 L 1.234375 -1.171875 L 1.96875 -9.890625 C 2.039062 -10.765625 2.46875 -11.203125 3.25 -11.203125 L 7.78125 -11.203125 C 8.09375 -11.203125 8.25 -11.296875 8.25 -11.484375 C 8.25 -11.535156 8.238281 -11.570312 8.21875 -11.59375 L 1.125 -31.953125 C 1.082031 -32.097656 1.0625 -32.222656 1.0625 -32.328125 C 1.0625 -32.890625 1.363281 -33.171875 1.96875 -33.171875 L 8.796875 -33.171875 C 9.523438 -33.171875 10.023438 -32.765625 10.296875 -31.953125 L 13.03125 -23.671875 L 14.53125 -31.953125 C 14.664062 -32.765625 15.160156 -33.171875 16.015625 -33.171875 L 21.375 -33.171875 C 21.9375 -33.171875 22.21875 -32.914062 22.21875 -32.40625 Z M 22.21875 -32.40625 "/></g></g></g><g fill="#5d734e" fill-opacity="1"><g transform="translate(317.216745, 60.405766)"><g><path d="M 23.671875 -1.09375 C 23.671875 -0.363281 23.3125 0 22.59375 0 L 12.375 0 C 11.664062 0 11.3125 -0.375 11.3125 -1.125 L 11.3125 -1.171875 L 11.8125 -9.84375 C 11.863281 -10.75 12.253906 -11.203125 12.984375 -11.203125 L 15.109375 -11.203125 C 15.453125 -11.203125 15.625 -11.375 15.625 -11.71875 C 15.625 -11.789062 15.617188 -11.835938 15.609375 -11.859375 L 15 -21.3125 C 14.976562 -21.769531 14.769531 -22 14.375 -22 L 10.84375 -22 C 10.46875 -22 10.269531 -21.769531 10.25 -21.3125 L 9.015625 -1.171875 C 8.960938 -0.390625 8.570312 0 7.84375 0 L 2.625 0 C 1.914062 0 1.5625 -0.375 1.5625 -1.125 L 1.5625 -1.171875 L 3.53125 -31.953125 C 3.582031 -32.765625 3.988281 -33.171875 4.75 -33.171875 L 20.546875 -33.171875 C 21.273438 -33.171875 21.664062 -32.765625 21.71875 -31.953125 L 23.671875 -1.171875 Z M 23.671875 -1.09375 "/></g></g></g></svg>