<svg xmlns="http://www.w3.org/2000/svg" xmlns:xlink="http://www.w3.org/1999/xlink" width="296" zoomAndPan="magnify" viewBox="0 0 222 83.999999" height="112" preserveAspectRatio="xMidYMid meet" version="1.0"><defs><g/><clipPath id="e84e9fec2b"><path d="M 0 3.683594 L 221.957031 3.683594 L 221.957031 80.195312 L 0 80.195312 Z M 0 3.683594 " clip-rule="nonzero"/></clipPath><clipPath id="02fbb60257"><path d="M 221.957031 56.453125 L 221.957031 27.425781 C 208.894531 27.425781 198.214844 16.859375 198.214844 3.683594 L 23.738281 3.683594 C 23.738281 16.746094 13.171875 27.425781 -0.0078125 27.425781 L -0.0078125 56.453125 C 13.058594 56.453125 23.738281 67.015625 23.738281 80.195312 L 198.214844 80.195312 C 198.214844 67.128906 208.78125 56.453125 221.957031 56.453125 Z M 221.957031 56.453125 " clip-rule="nonzero"/></clipPath><clipPath id="bebaf3d2b3"><path d="M 140 26 L 182 26 L 182 62.285156 L 140 62.285156 Z M 140 26 " clip-rule="nonzero"/></clipPath><clipPath id="65e42de3a4"><path d="M 131.492188 23.285156 L 148 23.285156 L 148 50 L 131.492188 50 Z M 131.492188 23.285156 " clip-rule="nonzero"/></clipPath><clipPath id="2fd296c3c6"><path d="M 175 25 L 193.742188 25 L 193.742188 52 L 175 52 Z M 175 25 " clip-rule="nonzero"/></clipPath></defs><g clip-path="url(#e84e9fec2b)"><g clip-path="url(#02fbb60257)"><path fill="#cf4545" d="M 221.957031 3.683594 L 221.957031 80.195312 L -0.109375 80.195312 L -0.109375 3.683594 Z M 221.957031 3.683594 " fill-opacity="1" fill-rule="nonzero"/></g></g><g fill="#ffcf7e" fill-opacity="1"><g transform="translate(56.927919, 33.550007)"><g><path d="M 12.796875 0 L 8.28125 0 L 8.28125 -12.796875 C 8.28125 -13.378906 8.015625 -13.671875 7.484375 -13.671875 L 6.875 -13.671875 C 6.332031 -13.671875 6.0625 -13.378906 6.0625 -12.796875 L 6.0625 -2.21875 C 6.0625 -0.738281 5.441406 0 4.203125 0 L 0.3125 0 L 0.3125 -4.828125 L 1.09375 -4.828125 C 1.351562 -4.828125 1.484375 -4.941406 1.484375 -5.171875 L 1.484375 -14.953125 C 1.484375 -16.210938 1.726562 -17.117188 2.21875 -17.671875 C 2.707031 -18.222656 3.570312 -18.5 4.8125 -18.5 L 9.6875 -18.5 C 11.757812 -18.5 12.796875 -17.316406 12.796875 -14.953125 Z M 12.796875 0 "/></g></g></g><g fill="#ffcf7e" fill-opacity="1"><g transform="translate(70.53397, 33.550007)"><g><path d="M 5.3125 0 L 0.796875 0 L 0.796875 -18.5 L 5.3125 -18.5 Z M 5.3125 0 "/></g></g></g><g fill="#ffcf7e" fill-opacity="1"><g transform="translate(76.641853, 33.550007)"><g><path d="M 10.59375 -4.5625 C 10.59375 -1.519531 9.160156 0 6.296875 0 L 0.796875 0 L 0.796875 -4.828125 L 4.625 -4.828125 C 5.570312 -4.828125 6.046875 -5.269531 6.046875 -6.15625 L 6.046875 -12.34375 C 6.046875 -13.226562 5.570312 -13.671875 4.625 -13.671875 L 0.796875 -13.671875 L 0.796875 -18.5 L 6.296875 -18.5 C 9.160156 -18.5 10.59375 -16.976562 10.59375 -13.9375 Z M 10.59375 -4.5625 "/></g></g></g><g fill="#ffcf7e" fill-opacity="1"><g transform="translate(88.029697, 33.550007)"><g><path d="M 13.078125 -3.328125 C 13.078125 -1.109375 12.070312 0 10.0625 0 L 6.875 0 L 6.875 -4.84375 L 7.828125 -4.84375 C 8.296875 -4.84375 8.53125 -5.125 8.53125 -5.6875 L 8.53125 -12.734375 C 8.53125 -13.296875 8.390625 -13.578125 8.109375 -13.578125 C 7.828125 -13.578125 7.632812 -13.257812 7.53125 -12.625 L 5.265625 0 L 0.796875 0 L 2.703125 -10.328125 L 1.8125 -10.328125 C 1.113281 -10.328125 0.765625 -10.671875 0.765625 -11.359375 L 0.765625 -18.5 L 5.296875 -18.5 L 5.296875 -11.96875 L 6.203125 -15.546875 C 6.703125 -17.515625 7.78125 -18.5 9.4375 -18.5 L 9.671875 -18.5 C 11.941406 -18.5 13.078125 -17.113281 13.078125 -14.34375 Z M 13.078125 -3.328125 "/></g></g></g><g fill="#ffcf7e" fill-opacity="1"><g transform="translate(101.901308, 33.550007)"><g><path d="M 12.609375 -5.546875 C 12.609375 -3.734375 12.097656 -2.285156 11.078125 -1.203125 C 10.023438 -0.0859375 8.601562 0.46875 6.8125 0.46875 C 4.96875 0.46875 3.503906 -0.0703125 2.421875 -1.15625 C 1.335938 -2.238281 0.796875 -3.703125 0.796875 -5.546875 L 0.796875 -15.546875 C 0.796875 -16.078125 0.847656 -16.53125 0.953125 -16.90625 C 1.054688 -17.28125 1.222656 -17.582031 1.453125 -17.8125 C 1.679688 -18.050781 1.976562 -18.222656 2.34375 -18.328125 C 2.71875 -18.441406 3.171875 -18.5 3.703125 -18.5 L 9.671875 -18.5 C 11.628906 -18.5 12.609375 -17.515625 12.609375 -15.546875 Z M 8.046875 -13.296875 C 8.046875 -13.546875 7.941406 -13.671875 7.734375 -13.671875 L 5.640625 -13.671875 C 5.429688 -13.671875 5.328125 -13.546875 5.328125 -13.296875 L 5.328125 -6.046875 C 5.328125 -4.910156 5.800781 -4.34375 6.75 -4.34375 C 7.613281 -4.34375 8.046875 -4.910156 8.046875 -6.046875 Z M 8.046875 -13.296875 "/></g></g></g><g fill="#ffcf7e" fill-opacity="1"><g transform="translate(58.123231, 66.550006)"><g><path d="M 5.15625 -13.25 L 5.859375 -13.25 C 6.367188 -13.25 6.625 -13.523438 6.625 -14.078125 L 6.625 -18.5 L 10.796875 -18.5 L 10.796875 -13.3125 C 10.796875 -11.15625 9.863281 -10.078125 8 -10.078125 L 5.15625 -10.078125 L 5.15625 -5.671875 C 5.15625 -5.109375 5.390625 -4.828125 5.859375 -4.828125 L 11.5625 -4.828125 C 12.019531 -4.828125 12.25 -5.109375 12.25 -5.671875 L 12.25 -18.5 L 16.625 -18.5 L 16.625 -4.203125 C 16.625 -2.929688 16.296875 -1.921875 15.640625 -1.171875 C 14.953125 -0.390625 13.976562 0 12.71875 0 L 4.703125 0 C 2.097656 0 0.796875 -1.398438 0.796875 -4.203125 L 0.796875 -18.5 L 5.15625 -18.5 Z M 5.15625 -13.25 "/></g></g></g><g fill="#ffcf7e" fill-opacity="1"><g transform="translate(75.540851, 66.550006)"><g><path d="M 7.6875 -17.4375 C 7.6875 -16.539062 7.300781 -15.675781 6.53125 -14.84375 C 5.894531 -14.15625 5.171875 -13.628906 4.359375 -13.265625 L 4.359375 -21.203125 L 7.6875 -21.203125 Z M 3.609375 -17.4375 C 3.609375 -15.789062 2.507812 -14.398438 0.3125 -13.265625 L 0.3125 -21.203125 L 3.609375 -21.203125 Z M 3.609375 -17.4375 "/></g></g></g><g fill="#ffcf7e" fill-opacity="1"><g transform="translate(83.538898, 66.550006)"><g><path d="M 5.3125 0 L 0.796875 0 L 0.796875 -18.5 L 5.3125 -18.5 Z M 5.3125 0 "/></g></g></g><g fill="#ffcf7e" fill-opacity="1"><g transform="translate(89.646781, 66.550006)"><g><path d="M 11.828125 -3.59375 C 11.828125 -1.195312 10.664062 0 8.34375 0 L 0.828125 0 L 0.828125 -4.828125 L 6.421875 -4.828125 C 7.035156 -4.828125 7.34375 -5.191406 7.34375 -5.921875 L 7.34375 -12.90625 C 7.34375 -13.414062 7.109375 -13.671875 6.640625 -13.671875 L 6.015625 -13.671875 C 5.585938 -13.671875 5.375 -13.40625 5.375 -12.875 L 5.375 -10.15625 L 0.796875 -10.15625 L 0.796875 -15.21875 C 0.796875 -17.40625 1.847656 -18.5 3.953125 -18.5 L 8.578125 -18.5 C 9.554688 -18.5 10.34375 -18.195312 10.9375 -17.59375 C 11.53125 -16.976562 11.828125 -16.1875 11.828125 -15.21875 Z M 11.828125 -3.59375 "/></g></g></g><g fill="#ffcf7e" fill-opacity="1"><g transform="translate(102.284319, 66.550006)"><g><path d="M 11.046875 -6.6875 C 11.046875 -2.226562 8.910156 0 4.640625 0 L 2.6875 0 L 2.6875 -4.828125 L 4 -4.828125 C 5.007812 -4.828125 5.695312 -5.148438 6.0625 -5.796875 C 6.320312 -6.253906 6.453125 -7.050781 6.453125 -8.1875 L 6.453125 -12.90625 C 6.453125 -13.414062 6.191406 -13.671875 5.671875 -13.671875 L 0.796875 -13.671875 L 0.796875 -20.796875 L 5.328125 -20.796875 L 5.328125 -18.5 L 8.734375 -18.5 C 10.273438 -18.5 11.046875 -17.753906 11.046875 -16.265625 Z M 11.046875 -6.6875 "/></g></g></g><g clip-path="url(#bebaf3d2b3)"><path fill="#ffcf7e" d="M 162.582031 62.144531 C 160.992188 62.144531 158.9375 61.261719 157.984375 60.636719 C 156.828125 59.875 151.03125 55.515625 146.207031 51.476562 C 145.402344 50.804688 144.210938 49.554688 143.054688 48.347656 C 142.195312 47.453125 141.417969 46.632812 141.019531 46.292969 C 140.472656 45.832031 140.402344 45.015625 140.863281 44.46875 C 141.324219 43.917969 142.140625 43.847656 142.691406 44.3125 C 143.132812 44.6875 143.988281 45.574219 144.925781 46.554688 C 145.984375 47.660156 147.179688 48.90625 147.871094 49.492188 C 152.796875 53.613281 158.5 57.867188 159.410156 58.46875 C 160.167969 58.96875 161.71875 59.550781 162.582031 59.550781 C 163.792969 59.550781 163.90625 59.242188 163.957031 59.113281 C 164.101562 58.707031 164.441406 58.398438 164.863281 58.296875 C 165.28125 58.195312 165.726562 58.304688 166.046875 58.597656 C 166.5625 59.066406 167.140625 58.976562 167.535156 58.828125 C 168.355469 58.507812 168.984375 57.691406 169.0625 56.84375 C 169.109375 56.351562 169.433594 55.925781 169.894531 55.753906 C 170.355469 55.582031 170.875 55.679688 171.238281 56.015625 C 171.5625 56.316406 172.425781 56.390625 173.253906 55.96875 C 173.582031 55.804688 174.335938 55.335938 174.246094 54.511719 C 174.191406 54.007812 174.4375 53.519531 174.871094 53.261719 C 175.304688 53 175.851562 53.019531 176.269531 53.304688 C 176.652344 53.574219 177.355469 53.433594 177.867188 52.992188 C 178.214844 52.695312 178.730469 52.042969 178.253906 51.046875 C 177.28125 49.027344 172.960938 45.535156 169.15625 42.453125 C 167.046875 40.753906 165.046875 39.132812 163.566406 37.742188 C 163.1875 37.894531 162.902344 38.023438 162.660156 38.128906 C 161.984375 38.433594 161.539062 38.621094 160.714844 38.746094 C 158.71875 41.394531 156.039062 42.320312 153.105469 41.351562 C 151.933594 40.96875 151.148438 40.136719 150.878906 39.019531 C 150.257812 36.390625 152.664062 32.804688 154.4375 31.03125 C 159.09375 26.375 162.351562 24.625 168.292969 27.28125 C 173.390625 29.5625 178.5 31.347656 178.550781 31.367188 C 179.226562 31.601562 179.582031 32.339844 179.347656 33.015625 C 179.113281 33.691406 178.378906 34.050781 177.699219 33.816406 C 177.648438 33.796875 172.433594 31.976562 167.230469 29.648438 C 162.648438 27.601562 160.476562 28.652344 156.265625 32.867188 C 154.496094 34.636719 153.132812 37.285156 153.402344 38.421875 C 153.441406 38.585938 153.515625 38.761719 153.917969 38.894531 C 155.1875 39.320312 157.082031 39.554688 158.914062 36.816406 C 159.128906 36.492188 159.476562 36.285156 159.863281 36.246094 C 160.734375 36.160156 160.953125 36.0625 161.601562 35.769531 C 162.023438 35.582031 162.5625 35.339844 163.4375 35.023438 C 163.90625 34.851562 164.4375 34.96875 164.792969 35.324219 C 166.207031 36.742188 168.433594 38.539062 170.785156 40.441406 C 175 43.851562 179.367188 47.382812 180.585938 49.929688 C 181.445312 51.714844 181.039062 53.691406 179.550781 54.964844 C 178.671875 55.71875 177.609375 56.082031 176.578125 56.027344 C 176.207031 56.964844 175.453125 57.765625 174.417969 58.289062 C 173.355469 58.820312 172.183594 58.976562 171.164062 58.757812 C 170.617188 59.871094 169.648438 60.789062 168.46875 61.246094 C 167.46875 61.636719 166.433594 61.632812 165.523438 61.277344 C 164.839844 61.851562 163.859375 62.144531 162.582031 62.144531 Z M 162.582031 62.144531 " fill-opacity="1" fill-rule="nonzero"/></g><path fill="#ffcf7e" d="M 157.402344 31.054688 L 145.742188 31.054688 C 145.027344 31.054688 144.449219 30.476562 144.449219 29.761719 C 144.449219 29.046875 145.027344 28.464844 145.742188 28.464844 L 157.402344 28.464844 C 158.117188 28.464844 158.695312 29.046875 158.695312 29.761719 C 158.695312 30.476562 158.117188 31.054688 157.402344 31.054688 Z M 157.402344 31.054688 " fill-opacity="1" fill-rule="nonzero"/><path fill="#ffcf7e" d="M 179.523438 51.734375 C 179.105469 51.734375 178.695312 51.53125 178.445312 51.160156 C 178.046875 50.566406 178.203125 49.761719 178.796875 49.363281 L 182.585938 46.820312 C 183.175781 46.414062 183.980469 46.578125 184.382812 47.171875 C 184.78125 47.765625 184.625 48.570312 184.03125 48.96875 L 180.242188 51.515625 C 180.019531 51.664062 179.769531 51.734375 179.523438 51.734375 Z M 179.523438 51.734375 " fill-opacity="1" fill-rule="nonzero"/><path fill="#ffcf7e" d="M 175.535156 55.667969 C 175.253906 55.667969 174.96875 55.574219 174.734375 55.390625 C 173.371094 54.3125 167.496094 48.191406 166.832031 47.496094 C 166.335938 46.980469 166.351562 46.160156 166.871094 45.664062 C 167.386719 45.167969 168.207031 45.183594 168.699219 45.703125 C 171.265625 48.375 175.414062 52.621094 176.339844 53.351562 C 176.902344 53.796875 177 54.613281 176.554688 55.171875 C 176.296875 55.496094 175.917969 55.667969 175.535156 55.667969 Z M 175.535156 55.667969 " fill-opacity="1" fill-rule="nonzero"/><path fill="#ffcf7e" d="M 170.355469 58.257812 C 170.070312 58.257812 169.785156 58.164062 169.546875 57.976562 C 167.625 56.4375 162.96875 51.414062 162.925781 51.363281 C 162.441406 50.835938 162.476562 50.015625 163 49.53125 C 163.53125 49.050781 164.347656 49.082031 164.832031 49.609375 C 165.714844 50.566406 169.613281 54.710938 171.164062 55.953125 C 171.722656 56.398438 171.8125 57.214844 171.367188 57.773438 C 171.109375 58.089844 170.730469 58.257812 170.355469 58.257812 Z M 170.355469 58.257812 " fill-opacity="1" fill-rule="nonzero"/><path fill="#ffcf7e" d="M 165.171875 60.847656 C 164.878906 60.847656 164.582031 60.746094 164.339844 60.542969 C 162.429688 58.929688 158.8125 55.097656 157.75 53.960938 C 157.261719 53.4375 157.289062 52.617188 157.8125 52.128906 C 158.332031 51.636719 159.15625 51.667969 159.644531 52.191406 C 160.382812 52.980469 164.164062 57.003906 166.007812 58.558594 C 166.554688 59.019531 166.625 59.835938 166.164062 60.386719 C 165.910156 60.691406 165.539062 60.847656 165.171875 60.847656 Z M 165.171875 60.847656 " fill-opacity="1" fill-rule="nonzero"/><g clip-path="url(#65e42de3a4)"><path fill="#ffcf7e" d="M 140.5625 49.191406 L 132.789062 49.191406 C 132.074219 49.191406 131.496094 48.609375 131.496094 47.894531 L 131.496094 24.578125 C 131.496094 24.222656 131.640625 23.878906 131.902344 23.636719 C 132.160156 23.390625 132.5 23.269531 132.867188 23.285156 C 135.535156 23.445312 144.414062 24.125 146.632812 26.230469 C 146.921875 26.5 147.066406 26.886719 147.03125 27.28125 C 146.445312 34.015625 141.980469 47.714844 141.792969 48.296875 C 141.617188 48.828125 141.121094 49.191406 140.5625 49.191406 Z M 134.085938 46.597656 L 139.617188 46.597656 C 140.578125 43.558594 143.6875 33.476562 144.371094 27.804688 C 142.742188 27.011719 138.25 26.296875 134.085938 25.96875 Z M 134.085938 46.597656 " fill-opacity="1" fill-rule="nonzero"/></g><g clip-path="url(#2fd296c3c6)"><path fill="#ffcf7e" d="M 192.375 51.78125 L 184.601562 51.78125 C 184.019531 51.78125 183.507812 51.390625 183.355469 50.828125 C 182.390625 47.335938 177.378906 33.023438 175.777344 30.445312 C 175.582031 30.128906 175.53125 29.746094 175.632812 29.390625 C 175.738281 29.039062 175.988281 28.746094 176.324219 28.585938 C 176.5625 28.476562 182.203125 25.875 192.375 25.875 C 193.089844 25.875 193.667969 26.453125 193.667969 27.167969 L 193.667969 50.484375 C 193.667969 51.199219 193.089844 51.78125 192.375 51.78125 Z M 185.570312 49.191406 L 191.078125 49.191406 L 191.078125 28.480469 C 184.914062 28.625 180.667969 29.777344 178.691406 30.449219 C 180.714844 34.761719 184.34375 45.191406 185.570312 49.191406 Z M 185.570312 49.191406 " fill-opacity="1" fill-rule="nonzero"/></g></svg>