<svg xmlns="http://www.w3.org/2000/svg" xmlns:xlink="http://www.w3.org/1999/xlink" width="296" zoomAndPan="magnify" viewBox="0 0 222 83.999999" height="112" preserveAspectRatio="xMidYMid meet" version="1.0"><defs><g/><clipPath id="e94b751ff8"><path d="M 0 3.683594 L 221.957031 3.683594 L 221.957031 80.195312 L 0 80.195312 Z M 0 3.683594 " clip-rule="nonzero"/></clipPath><clipPath id="736df1aa20"><path d="M 221.957031 56.453125 L 221.957031 27.425781 C 208.894531 27.425781 198.214844 16.859375 198.214844 3.683594 L 23.738281 3.683594 C 23.738281 16.746094 13.171875 27.425781 -0.0078125 27.425781 L -0.0078125 56.453125 C 13.058594 56.453125 23.738281 67.015625 23.738281 80.195312 L 198.214844 80.195312 C 198.214844 67.128906 208.78125 56.453125 221.957031 56.453125 Z M 221.957031 56.453125 " clip-rule="nonzero"/></clipPath><clipPath id="dcfed72e0b"><path d="M 132.070312 20.996094 L 209.320312 20.996094 L 209.320312 62.246094 L 132.070312 62.246094 Z M 132.070312 20.996094 " clip-rule="nonzero"/></clipPath></defs><g clip-path="url(#e94b751ff8)"><g clip-path="url(#736df1aa20)"><path fill="#cf4545" d="M 221.957031 3.683594 L 221.957031 80.195312 L -0.109375 80.195312 L -0.109375 3.683594 Z M 221.957031 3.683594 " fill-opacity="1" fill-rule="nonzero"/></g></g><g fill="#ffcf7e" fill-opacity="1"><g transform="translate(55.427919, 33.550007)"><g><path d="M 12.796875 0 L 8.28125 0 L 8.28125 -12.796875 C 8.28125 -13.378906 8.015625 -13.671875 7.484375 -13.671875 L 6.875 -13.671875 C 6.332031 -13.671875 6.0625 -13.378906 6.0625 -12.796875 L 6.0625 -2.21875 C 6.0625 -0.738281 5.441406 0 4.203125 0 L 0.3125 0 L 0.3125 -4.828125 L 1.09375 -4.828125 C 1.351562 -4.828125 1.484375 -4.941406 1.484375 -5.171875 L 1.484375 -14.953125 C 1.484375 -16.210938 1.726562 -17.117188 2.21875 -17.671875 C 2.707031 -18.222656 3.570312 -18.5 4.8125 -18.5 L 9.6875 -18.5 C 11.757812 -18.5 12.796875 -17.316406 12.796875 -14.953125 Z M 12.796875 0 "/></g></g></g><g fill="#ffcf7e" fill-opacity="1"><g transform="translate(69.03397, 33.550007)"><g><path d="M 11.046875 -6.6875 C 11.046875 -2.226562 8.910156 0 4.640625 0 L 2.6875 0 L 2.6875 -4.828125 L 4 -4.828125 C 5.007812 -4.828125 5.695312 -5.148438 6.0625 -5.796875 C 6.320312 -6.253906 6.453125 -7.050781 6.453125 -8.1875 L 6.453125 -12.90625 C 6.453125 -13.414062 6.191406 -13.671875 5.671875 -13.671875 L 0.796875 -13.671875 L 0.796875 -20.796875 L 5.328125 -20.796875 L 5.328125 -18.5 L 8.734375 -18.5 C 10.273438 -18.5 11.046875 -17.753906 11.046875 -16.265625 Z M 11.046875 -6.6875 "/></g></g></g><g fill="#ffcf7e" fill-opacity="1"><g transform="translate(80.874828, 33.550007)"><g><path d="M 11.359375 0 L 0.796875 0 L 0.796875 -4.828125 L 4.3125 -4.828125 C 5.34375 -4.828125 5.859375 -5.4375 5.859375 -6.65625 L 5.859375 -12.203125 C 5.859375 -12.742188 5.765625 -13.125 5.578125 -13.34375 C 5.390625 -13.5625 5.03125 -13.671875 4.5 -13.671875 L 0.796875 -13.671875 L 0.796875 -18.5 L 6.875 -18.5 C 9.257812 -18.5 10.453125 -17.085938 10.453125 -14.265625 L 10.453125 -7.9375 C 10.453125 -6.300781 9.84375 -5.265625 8.625 -4.828125 L 11.359375 -4.828125 Z M 11.359375 0 "/></g></g></g><g fill="#ffcf7e" fill-opacity="1"><g transform="translate(92.871898, 33.550007)"><g><path d="M 10.96875 0 L 6.453125 0 L 5.640625 -5.125 C 5.316406 -5.125 5.113281 -4.894531 5.03125 -4.4375 L 4.1875 0 L 0.15625 0 L 1.234375 -5.34375 C 1.710938 -7.757812 2.832031 -8.96875 4.59375 -8.96875 L 5.34375 -8.96875 L 5.34375 -12.90625 C 5.34375 -13.414062 5.050781 -13.671875 4.46875 -13.671875 L 1.25 -13.671875 L 1.25 -18.5 L 6.46875 -18.5 C 8.75 -18.5 9.890625 -17.300781 9.890625 -14.90625 L 9.890625 -8.6875 C 9.890625 -8.03125 9.90625 -7.425781 9.9375 -6.875 C 9.976562 -6.320312 10.035156 -5.816406 10.109375 -5.359375 Z M 10.96875 0 "/></g></g></g><g fill="#ffcf7e" fill-opacity="1"><g transform="translate(104.166014, 33.550007)"><g><path d="M 11.859375 0 L 7.265625 0 L 7.265625 -12.90625 C 7.265625 -13.414062 7.003906 -13.671875 6.484375 -13.671875 L 0.796875 -13.671875 L 0.796875 -18.5 L 8.59375 -18.5 C 9.550781 -18.5 10.335938 -18.191406 10.953125 -17.578125 C 11.554688 -16.972656 11.859375 -16.1875 11.859375 -15.21875 Z M 5.3125 0 L 0.8125 0 L 0.8125 -11.46875 L 5.3125 -11.46875 Z M 5.3125 0 "/></g></g></g><g fill="#ffcf7e" fill-opacity="1"><g transform="translate(51.900575, 66.550006)"><g><path d="M 12.375 0 L 0.796875 0 L 0.796875 -15.265625 C 0.796875 -16.421875 0.988281 -17.226562 1.375 -17.6875 C 1.8125 -18.226562 2.59375 -18.5 3.71875 -18.5 L 9.25 -18.5 C 11.332031 -18.5 12.375 -17.421875 12.375 -15.265625 Z M 7.859375 -12.796875 C 7.859375 -13.378906 7.59375 -13.671875 7.0625 -13.671875 L 6.1875 -13.671875 C 5.65625 -13.671875 5.390625 -13.378906 5.390625 -12.796875 L 5.390625 -4.828125 L 7.859375 -4.828125 Z M 7.859375 -12.796875 "/></g></g></g><g fill="#ffcf7e" fill-opacity="1"><g transform="translate(65.069233, 66.550006)"><g><path d="M 5.25 -10.296875 L 0.765625 -10.296875 L 0.765625 -18.5 L 5.25 -18.5 Z M 5.25 -10.296875 "/></g></g></g><g fill="#ffcf7e" fill-opacity="1"><g transform="translate(71.114632, 66.550006)"><g><path d="M 10.5625 -13.671875 C 9.539062 -13.671875 9.03125 -13.171875 9.03125 -12.171875 L 9.03125 0 L 4.4375 0 L 4.4375 -10.890625 C 4.4375 -12.316406 5.039062 -13.242188 6.25 -13.671875 L 0.484375 -13.671875 L 0.484375 -18.5 L 10.5625 -18.5 Z M 10.5625 -13.671875 "/></g></g></g><g fill="#ffcf7e" fill-opacity="1"><g transform="translate(82.471233, 66.550006)"><g><path d="M 5.3125 0 L 0.796875 0 L 0.796875 -18.5 L 5.3125 -18.5 Z M 5.3125 0 "/></g></g></g><g fill="#ffcf7e" fill-opacity="1"><g transform="translate(88.579116, 66.550006)"><g><path d="M 13.078125 -3.328125 C 13.078125 -1.109375 12.070312 0 10.0625 0 L 6.875 0 L 6.875 -4.84375 L 7.828125 -4.84375 C 8.296875 -4.84375 8.53125 -5.125 8.53125 -5.6875 L 8.53125 -12.734375 C 8.53125 -13.296875 8.390625 -13.578125 8.109375 -13.578125 C 7.828125 -13.578125 7.632812 -13.257812 7.53125 -12.625 L 5.265625 0 L 0.796875 0 L 2.703125 -10.328125 L 1.8125 -10.328125 C 1.113281 -10.328125 0.765625 -10.671875 0.765625 -11.359375 L 0.765625 -18.5 L 5.296875 -18.5 L 5.296875 -11.96875 L 6.203125 -15.546875 C 6.703125 -17.515625 7.78125 -18.5 9.4375 -18.5 L 9.671875 -18.5 C 11.941406 -18.5 13.078125 -17.113281 13.078125 -14.34375 Z M 13.078125 -3.328125 "/></g></g></g><g fill="#ffcf7e" fill-opacity="1"><g transform="translate(102.450728, 66.550006)"><g><path d="M 5.25 -10.296875 L 0.765625 -10.296875 L 0.765625 -18.5 L 5.25 -18.5 Z M 5.25 -10.296875 "/></g></g></g><g fill="#ffcf7e" fill-opacity="1"><g transform="translate(108.496126, 66.550006)"><g><path d="M 11.046875 -6.6875 C 11.046875 -2.226562 8.910156 0 4.640625 0 L 2.6875 0 L 2.6875 -4.828125 L 4 -4.828125 C 5.007812 -4.828125 5.695312 -5.148438 6.0625 -5.796875 C 6.320312 -6.253906 6.453125 -7.050781 6.453125 -8.1875 L 6.453125 -12.90625 C 6.453125 -13.414062 6.191406 -13.671875 5.671875 -13.671875 L 0.796875 -13.671875 L 0.796875 -20.796875 L 5.328125 -20.796875 L 5.328125 -18.5 L 8.734375 -18.5 C 10.273438 -18.5 11.046875 -17.753906 11.046875 -16.265625 Z M 11.046875 -6.6875 "/></g></g></g><path fill="#ffcf7e" d="M 170.800781 36.589844 C 178.851562 36.589844 187.359375 38.480469 188.832031 42.007812 L 204.148438 35.957031 L 170.800781 23.128906 L 140.273438 34.867188 L 140.273438 34.871094 L 137.414062 35.972656 L 141.171875 37.539062 L 141.722656 37.769531 L 141.722656 37.757812 L 142.179688 37.9375 L 143.449219 38.4375 L 152.734375 42.09375 C 153.4375 40.265625 155.949219 39.0625 158.109375 38.34375 C 161.503906 37.214844 166.011719 36.589844 170.800781 36.589844 Z M 170.800781 36.589844 " fill-opacity="1" fill-rule="nonzero"/><g clip-path="url(#dcfed72e0b)"><path fill="#ffcf7e" d="M 209.617188 35.925781 L 170.800781 20.996094 L 139.78125 32.929688 L 138.675781 33.359375 L 132.082031 35.890625 L 142.179688 40.105469 L 142.179688 41.101562 C 141.957031 41.203125 141.753906 41.351562 141.578125 41.546875 C 141.261719 41.886719 141.046875 42.355469 140.972656 42.890625 C 140.957031 43.011719 140.949219 43.132812 140.949219 43.261719 C 140.949219 43.394531 140.957031 43.519531 140.972656 43.644531 C 141.03125 44.0625 141.179688 44.4375 141.398438 44.746094 C 141.5625 44.988281 141.777344 45.1875 142.011719 45.328125 L 140.460938 59.558594 C 140.226562 61.164062 141.085938 62.597656 142.808594 62.597656 C 144.53125 62.597656 145.394531 61.160156 145.160156 59.558594 L 143.609375 45.328125 C 143.847656 45.191406 144.054688 44.988281 144.222656 44.746094 C 144.441406 44.433594 144.589844 44.046875 144.644531 43.617188 C 144.660156 43.5 144.667969 43.382812 144.667969 43.261719 C 144.667969 43.144531 144.65625 43.035156 144.644531 42.925781 C 144.578125 42.382812 144.359375 41.90625 144.042969 41.554688 C 143.867188 41.359375 143.667969 41.210938 143.441406 41.109375 L 143.441406 40.578125 L 153.511719 44.542969 L 153.511719 55.84375 C 153.589844 55.820312 153.675781 55.804688 153.757812 55.785156 C 153.914062 55.75 154.078125 55.71875 154.25 55.6875 C 155.148438 55.535156 156.28125 55.457031 157.632812 55.457031 C 161.296875 55.457031 166.363281 56.078125 169.164062 56.867188 C 170.226562 57.167969 171.347656 57.167969 172.410156 56.867188 C 175.210938 56.078125 180.277344 55.457031 183.9375 55.457031 C 185.292969 55.457031 186.425781 55.539062 187.328125 55.6875 C 187.5 55.71875 187.664062 55.75 187.820312 55.785156 C 187.902344 55.800781 187.980469 55.820312 188.0625 55.84375 L 188.0625 44.449219 Z M 153.167969 43.332031 L 134.746094 35.929688 L 138.917969 34.328125 L 140.027344 33.898438 L 170.796875 22.0625 L 206.882812 35.941406 L 188.417969 43.242188 L 188.097656 42.476562 C 187.835938 41.847656 186.726562 40.246094 182.105469 38.96875 C 178.914062 38.09375 174.902344 37.605469 170.800781 37.605469 C 166.082031 37.605469 161.652344 38.21875 158.324219 39.324219 C 154.582031 40.570312 153.6875 41.980469 153.480469 42.527344 Z M 153.167969 43.332031 " fill-opacity="1" fill-rule="nonzero"/></g></svg>