<svg xmlns="http://www.w3.org/2000/svg" xmlns:xlink="http://www.w3.org/1999/xlink" width="296" zoomAndPan="magnify" viewBox="0 0 222 83.999999" height="112" preserveAspectRatio="xMidYMid meet" version="1.0"><defs><g/><clipPath id="d47d785ed3"><path d="M 0 3.683594 L 221.957031 3.683594 L 221.957031 80.195312 L 0 80.195312 Z M 0 3.683594 " clip-rule="nonzero"/></clipPath><clipPath id="d06ff800ae"><path d="M 221.957031 56.453125 L 221.957031 27.425781 C 208.894531 27.425781 198.214844 16.859375 198.214844 3.683594 L 23.738281 3.683594 C 23.738281 16.746094 13.171875 27.425781 -0.0078125 27.425781 L -0.0078125 56.453125 C 13.058594 56.453125 23.738281 67.015625 23.738281 80.195312 L 198.214844 80.195312 C 198.214844 67.128906 208.78125 56.453125 221.957031 56.453125 Z M 221.957031 56.453125 " clip-rule="nonzero"/></clipPath><clipPath id="97293bd61a"><path d="M 154.175781 19.324219 L 193.925781 19.324219 L 193.925781 65.824219 L 154.175781 65.824219 Z M 154.175781 19.324219 " clip-rule="nonzero"/></clipPath></defs><g clip-path="url(#d47d785ed3)"><g clip-path="url(#d06ff800ae)"><path fill="#cf4545" d="M 221.957031 3.683594 L 221.957031 80.195312 L -0.109375 80.195312 L -0.109375 3.683594 Z M 221.957031 3.683594 " fill-opacity="1" fill-rule="nonzero"/></g></g><g clip-path="url(#97293bd61a)"><path fill="#ffcf7e" d="M 193.238281 26.132812 C 192.652344 25.46875 191.683594 25.640625 190.90625 25.464844 C 185.257812 24.535156 179.953125 22.226562 174.886719 19.644531 C 174.644531 19.527344 174.394531 19.429688 174.140625 19.339844 L 173.773438 19.339844 C 172.894531 19.605469 172.117188 20.105469 171.285156 20.488281 C 166.84375 22.671875 162.179688 24.554688 157.28125 25.414062 C 156.574219 25.554688 155.84375 25.546875 155.152344 25.75 C 154.605469 25.992188 154.203125 26.566406 154.234375 27.171875 C 154.175781 30.554688 154.300781 33.933594 154.5625 37.300781 C 154.945312 41.589844 155.5625 45.898438 157.003906 49.972656 C 157.703125 51.863281 158.59375 53.71875 159.933594 55.242188 C 163.589844 59.570312 168.132812 63.117188 173.101562 65.820312 C 173.316406 65.925781 173.535156 66.011719 173.761719 66.078125 L 174.082031 66.078125 C 174.96875 65.828125 175.699219 65.238281 176.511719 64.820312 C 180.363281 62.542969 183.886719 59.703125 186.917969 56.414062 C 187.835938 55.375 188.777344 54.335938 189.433594 53.109375 C 190.960938 50.398438 191.765625 47.355469 192.367188 44.324219 C 193.40625 38.800781 193.671875 33.160156 193.640625 27.550781 C 193.660156 27.050781 193.621094 26.5 193.238281 26.132812 Z M 191.09375 43.085938 C 190.476562 46.488281 189.667969 49.953125 187.839844 52.933594 C 186.214844 55.285156 184.121094 57.265625 181.976562 59.136719 C 179.503906 61.246094 176.785156 63.054688 173.933594 64.613281 C 168.929688 61.894531 164.347656 58.324219 160.730469 53.910156 C 158.867188 51.527344 157.984375 48.558594 157.289062 45.660156 C 155.941406 39.578125 155.621094 33.316406 155.707031 27.105469 C 162.164062 26.375 168.195312 23.71875 173.9375 20.808594 C 179.671875 23.722656 185.714844 26.371094 192.171875 27.101562 C 192.25 32.445312 191.996094 37.808594 191.09375 43.085938 Z M 191.09375 43.085938 " fill-opacity="1" fill-rule="nonzero"/></g><path fill="#ffcf7e" d="M 158.609375 29.640625 C 158.714844 35.390625 159.046875 41.203125 160.566406 46.773438 C 161.160156 48.828125 161.925781 50.914062 163.390625 52.519531 C 166.339844 56.042969 169.996094 58.917969 173.9375 61.261719 C 178.128906 58.769531 182 55.660156 185.042969 51.832031 C 186.484375 49.851562 187.167969 47.449219 187.734375 45.097656 C 188.867188 40.03125 189.175781 34.820312 189.257812 29.644531 C 183.894531 28.609375 178.804688 26.519531 173.933594 24.085938 C 169.0625 26.519531 163.972656 28.609375 158.609375 29.640625 Z M 158.609375 29.640625 " fill-opacity="1" fill-rule="nonzero"/><g fill="#ffcf7e" fill-opacity="1"><g transform="translate(25.779483, 33.550007)"><g><path d="M 12.796875 0 L 8.28125 0 L 8.28125 -12.796875 C 8.28125 -13.378906 8.015625 -13.671875 7.484375 -13.671875 L 6.875 -13.671875 C 6.332031 -13.671875 6.0625 -13.378906 6.0625 -12.796875 L 6.0625 -2.21875 C 6.0625 -0.738281 5.441406 0 4.203125 0 L 0.3125 0 L 0.3125 -4.828125 L 1.09375 -4.828125 C 1.351562 -4.828125 1.484375 -4.941406 1.484375 -5.171875 L 1.484375 -14.953125 C 1.484375 -16.210938 1.726562 -17.117188 2.21875 -17.671875 C 2.707031 -18.222656 3.570312 -18.5 4.8125 -18.5 L 9.6875 -18.5 C 11.757812 -18.5 12.796875 -17.316406 12.796875 -14.953125 Z M 12.796875 0 "/></g></g></g><g fill="#ffcf7e" fill-opacity="1"><g transform="translate(39.385534, 33.550007)"><g><path d="M 5.3125 0 L 0.796875 0 L 0.796875 -18.5 L 5.3125 -18.5 Z M 5.3125 0 "/></g></g></g><g fill="#ffcf7e" fill-opacity="1"><g transform="translate(45.493417, 33.550007)"><g><path d="M 10.59375 -4.5625 C 10.59375 -1.519531 9.160156 0 6.296875 0 L 0.796875 0 L 0.796875 -4.828125 L 4.625 -4.828125 C 5.570312 -4.828125 6.046875 -5.269531 6.046875 -6.15625 L 6.046875 -12.34375 C 6.046875 -13.226562 5.570312 -13.671875 4.625 -13.671875 L 0.796875 -13.671875 L 0.796875 -18.5 L 6.296875 -18.5 C 9.160156 -18.5 10.59375 -16.976562 10.59375 -13.9375 Z M 10.59375 -4.5625 "/></g></g></g><g fill="#ffcf7e" fill-opacity="1"><g transform="translate(56.881261, 33.550007)"><g><path d="M 9.90625 0 L 5.328125 0 L 5.328125 -12.90625 C 5.328125 -13.414062 5.0625 -13.671875 4.53125 -13.671875 L 0.484375 -13.671875 L 0.484375 -18.5 L 6.640625 -18.5 C 7.597656 -18.5 8.382812 -18.191406 9 -17.578125 C 9.601562 -16.972656 9.90625 -16.1875 9.90625 -15.21875 Z M 9.90625 0 "/></g></g></g><g fill="#ffcf7e" fill-opacity="1"><g transform="translate(67.581772, 33.550007)"><g><path d="M 12.25 -4.875 C 12.25 -1.625 10.914062 0 8.25 0 L 0.484375 0 L 0.484375 -4.828125 L 1.578125 -4.828125 L 1.578125 -18.5 L 6.09375 -18.5 L 6.09375 -4.828125 L 7 -4.828125 C 7.519531 -4.828125 7.78125 -5.1875 7.78125 -5.90625 L 7.78125 -18.5 L 12.25 -18.5 Z M 12.25 -4.875 "/></g></g></g><g fill="#ffcf7e" fill-opacity="1"><g transform="translate(80.625461, 33.550007)"><g/></g></g><g fill="#ffcf7e" fill-opacity="1"><g transform="translate(87.701858, 33.550007)"><g><path d="M 12.796875 0 L 8.28125 0 L 8.28125 -12.796875 C 8.28125 -13.378906 8.015625 -13.671875 7.484375 -13.671875 L 6.875 -13.671875 C 6.332031 -13.671875 6.0625 -13.378906 6.0625 -12.796875 L 6.0625 -2.21875 C 6.0625 -0.738281 5.441406 0 4.203125 0 L 0.3125 0 L 0.3125 -4.828125 L 1.09375 -4.828125 C 1.351562 -4.828125 1.484375 -4.941406 1.484375 -5.171875 L 1.484375 -14.953125 C 1.484375 -16.210938 1.726562 -17.117188 2.21875 -17.671875 C 2.707031 -18.222656 3.570312 -18.5 4.8125 -18.5 L 9.6875 -18.5 C 11.757812 -18.5 12.796875 -17.316406 12.796875 -14.953125 Z M 12.796875 0 "/></g></g></g><g fill="#ffcf7e" fill-opacity="1"><g transform="translate(101.307909, 33.550007)"><g><path d="M 12.0625 0 L 7.53125 0 L 7.53125 -12.796875 C 7.53125 -13.378906 7.265625 -13.671875 6.734375 -13.671875 L 6.1875 -13.671875 C 5.65625 -13.671875 5.390625 -13.378906 5.390625 -12.796875 L 5.390625 0 L 0.796875 0 L 0.796875 -15.265625 C 0.796875 -16.421875 0.988281 -17.226562 1.375 -17.6875 C 1.8125 -18.226562 2.59375 -18.5 3.71875 -18.5 L 8.9375 -18.5 C 11.019531 -18.5 12.0625 -17.421875 12.0625 -15.265625 Z M 12.0625 0 "/></g></g></g><g fill="#ffcf7e" fill-opacity="1"><g transform="translate(114.164144, 33.550007)"><g><path d="M 5.25 -10.296875 L 0.765625 -10.296875 L 0.765625 -18.5 L 5.25 -18.5 Z M 5.25 -10.296875 "/></g></g></g><g fill="#ffcf7e" fill-opacity="1"><g transform="translate(120.209542, 33.550007)"><g><path d="M 12.796875 0 L 8.28125 0 L 8.28125 -12.796875 C 8.28125 -13.378906 8.015625 -13.671875 7.484375 -13.671875 L 6.875 -13.671875 C 6.332031 -13.671875 6.0625 -13.378906 6.0625 -12.796875 L 6.0625 -2.21875 C 6.0625 -0.738281 5.441406 0 4.203125 0 L 0.3125 0 L 0.3125 -4.828125 L 1.09375 -4.828125 C 1.351562 -4.828125 1.484375 -4.941406 1.484375 -5.171875 L 1.484375 -14.953125 C 1.484375 -16.210938 1.726562 -17.117188 2.21875 -17.671875 C 2.707031 -18.222656 3.570312 -18.5 4.8125 -18.5 L 9.6875 -18.5 C 11.757812 -18.5 12.796875 -17.316406 12.796875 -14.953125 Z M 12.796875 0 "/></g></g></g><g fill="#ffcf7e" fill-opacity="1"><g transform="translate(133.815594, 33.550007)"><g><path d="M 11.828125 -3.59375 C 11.828125 -1.195312 10.664062 0 8.34375 0 L 0.828125 0 L 0.828125 -4.828125 L 6.421875 -4.828125 C 7.035156 -4.828125 7.34375 -5.191406 7.34375 -5.921875 L 7.34375 -12.90625 C 7.34375 -13.414062 7.109375 -13.671875 6.640625 -13.671875 L 6.015625 -13.671875 C 5.585938 -13.671875 5.375 -13.40625 5.375 -12.875 L 5.375 -10.15625 L 0.796875 -10.15625 L 0.796875 -15.21875 C 0.796875 -17.40625 1.847656 -18.5 3.953125 -18.5 L 8.578125 -18.5 C 9.554688 -18.5 10.34375 -18.195312 10.9375 -17.59375 C 11.53125 -16.976562 11.828125 -16.1875 11.828125 -15.21875 Z M 11.828125 -3.59375 "/></g></g></g><g fill="#ffcf7e" fill-opacity="1"><g transform="translate(30.58417, 66.550006)"><g><path d="M 5.3125 2.65625 L 0.796875 2.65625 L 0.796875 -18.5 L 5.3125 -18.5 Z M 5.3125 2.65625 "/></g></g></g><g fill="#ffcf7e" fill-opacity="1"><g transform="translate(36.692053, 66.550006)"><g><path d="M 12.796875 0 L 8.28125 0 L 8.28125 -12.796875 C 8.28125 -13.378906 8.015625 -13.671875 7.484375 -13.671875 L 6.875 -13.671875 C 6.332031 -13.671875 6.0625 -13.378906 6.0625 -12.796875 L 6.0625 -2.21875 C 6.0625 -0.738281 5.441406 0 4.203125 0 L 0.3125 0 L 0.3125 -4.828125 L 1.09375 -4.828125 C 1.351562 -4.828125 1.484375 -4.941406 1.484375 -5.171875 L 1.484375 -14.953125 C 1.484375 -16.210938 1.726562 -17.117188 2.21875 -17.671875 C 2.707031 -18.222656 3.570312 -18.5 4.8125 -18.5 L 9.6875 -18.5 C 11.757812 -18.5 12.796875 -17.316406 12.796875 -14.953125 Z M 12.796875 0 "/></g></g></g><g fill="#ffcf7e" fill-opacity="1"><g transform="translate(50.298105, 66.550006)"><g><path d="M 8.375 0 C 8.238281 -0.726562 7.941406 -1.6875 7.484375 -2.875 C 7.035156 -4.070312 6.421875 -5.515625 5.640625 -7.203125 C 5.554688 -7.109375 5.492188 -7.035156 5.453125 -6.984375 C 5.410156 -6.929688 5.382812 -6.898438 5.375 -6.890625 C 5.363281 -6.847656 5.351562 -6.753906 5.34375 -6.609375 C 5.34375 -6.472656 5.34375 -6.28125 5.34375 -6.03125 L 5.34375 0 L 0.828125 0 L 0.828125 -5.53125 C 0.828125 -8.457031 1.726562 -10.351562 3.53125 -11.21875 C 1.800781 -14.613281 0.835938 -17.039062 0.640625 -18.5 L 5.34375 -18.5 C 5.570312 -17.457031 5.910156 -16.359375 6.359375 -15.203125 C 6.816406 -14.046875 7.390625 -12.816406 8.078125 -11.515625 C 8.335938 -11.703125 8.46875 -12.085938 8.46875 -12.671875 L 8.46875 -18.5 L 13.03125 -18.5 L 13.03125 -12.234375 C 13.03125 -11.296875 12.742188 -10.382812 12.171875 -9.5 C 11.597656 -8.625 10.890625 -7.957031 10.046875 -7.5 C 11.992188 -3.625 12.988281 -1.125 13.03125 0 Z M 8.375 0 "/></g></g></g><g fill="#ffcf7e" fill-opacity="1"><g transform="translate(63.966641, 66.550006)"><g><path d="M 5.25 -10.296875 L 0.765625 -10.296875 L 0.765625 -18.5 L 5.25 -18.5 Z M 5.25 -10.296875 "/></g></g></g><g fill="#ffcf7e" fill-opacity="1"><g transform="translate(70.012039, 66.550006)"><g><path d="M 5.15625 -13.25 L 5.859375 -13.25 C 6.367188 -13.25 6.625 -13.523438 6.625 -14.078125 L 6.625 -18.5 L 10.796875 -18.5 L 10.796875 -13.3125 C 10.796875 -11.15625 9.863281 -10.078125 8 -10.078125 L 5.15625 -10.078125 L 5.15625 -5.671875 C 5.15625 -5.109375 5.390625 -4.828125 5.859375 -4.828125 L 11.5625 -4.828125 C 12.019531 -4.828125 12.25 -5.109375 12.25 -5.671875 L 12.25 -18.5 L 16.625 -18.5 L 16.625 -4.203125 C 16.625 -2.929688 16.296875 -1.921875 15.640625 -1.171875 C 14.953125 -0.390625 13.976562 0 12.71875 0 L 4.703125 0 C 2.097656 0 0.796875 -1.398438 0.796875 -4.203125 L 0.796875 -18.5 L 5.15625 -18.5 Z M 5.15625 -13.25 "/></g></g></g><g fill="#ffcf7e" fill-opacity="1"><g transform="translate(87.42966, 66.550006)"><g><path d="M 8.96875 -2.90625 C 8.96875 -0.96875 8.050781 0 6.21875 0 L 0.640625 0 L 0.640625 -4.828125 L 3.84375 -4.828125 C 4.21875 -4.828125 4.40625 -5.054688 4.40625 -5.515625 L 4.40625 -12.90625 C 4.40625 -13.414062 4.175781 -13.671875 3.71875 -13.671875 L 1.96875 -13.671875 L 1.96875 -18.5 L 6.140625 -18.5 C 8.023438 -18.5 8.96875 -17.523438 8.96875 -15.578125 Z M 8.96875 -2.90625 "/></g></g></g><g fill="#ffcf7e" fill-opacity="1"><g transform="translate(97.1929, 66.550006)"><g><path d="M 5.3125 0 L 0.796875 0 L 0.796875 -18.5 L 5.3125 -18.5 Z M 5.3125 0 "/></g></g></g><g fill="#ffcf7e" fill-opacity="1"><g transform="translate(103.300783, 66.550006)"><g/></g></g><g fill="#ffcf7e" fill-opacity="1"><g transform="translate(110.37718, 66.550006)"><g><path d="M 5.3125 2.65625 L 0.796875 2.65625 L 0.796875 -18.5 L 5.3125 -18.5 Z M 5.3125 2.65625 "/></g></g></g><g fill="#ffcf7e" fill-opacity="1"><g transform="translate(116.485063, 66.550006)"><g><path d="M 10.96875 0 L 6.453125 0 L 5.640625 -5.125 C 5.316406 -5.125 5.113281 -4.894531 5.03125 -4.4375 L 4.1875 0 L 0.15625 0 L 1.234375 -5.34375 C 1.710938 -7.757812 2.832031 -8.96875 4.59375 -8.96875 L 5.34375 -8.96875 L 5.34375 -12.90625 C 5.34375 -13.414062 5.050781 -13.671875 4.46875 -13.671875 L 1.25 -13.671875 L 1.25 -18.5 L 6.46875 -18.5 C 8.75 -18.5 9.890625 -17.300781 9.890625 -14.90625 L 9.890625 -8.6875 C 9.890625 -8.03125 9.90625 -7.425781 9.9375 -6.875 C 9.976562 -6.320312 10.035156 -5.816406 10.109375 -5.359375 Z M 10.96875 0 "/></g></g></g><g fill="#ffcf7e" fill-opacity="1"><g transform="translate(127.779179, 66.550006)"><g><path d="M 13.078125 -3.328125 C 13.078125 -1.109375 12.070312 0 10.0625 0 L 6.875 0 L 6.875 -4.84375 L 7.828125 -4.84375 C 8.296875 -4.84375 8.53125 -5.125 8.53125 -5.6875 L 8.53125 -12.734375 C 8.53125 -13.296875 8.390625 -13.578125 8.109375 -13.578125 C 7.828125 -13.578125 7.632812 -13.257812 7.53125 -12.625 L 5.265625 0 L 0.796875 0 L 2.703125 -10.328125 L 1.8125 -10.328125 C 1.113281 -10.328125 0.765625 -10.671875 0.765625 -11.359375 L 0.765625 -18.5 L 5.296875 -18.5 L 5.296875 -11.96875 L 6.203125 -15.546875 C 6.703125 -17.515625 7.78125 -18.5 9.4375 -18.5 L 9.671875 -18.5 C 11.941406 -18.5 13.078125 -17.113281 13.078125 -14.34375 Z M 13.078125 -3.328125 "/></g></g></g></svg>