<svg xmlns="http://www.w3.org/2000/svg" xmlns:xlink="http://www.w3.org/1999/xlink" width="296" zoomAndPan="magnify" viewBox="0 0 222 83.999999" height="112" preserveAspectRatio="xMidYMid meet" version="1.0"><defs><g/><clipPath id="9a613050c7"><path d="M 0 3.683594 L 221.957031 3.683594 L 221.957031 80.195312 L 0 80.195312 Z M 0 3.683594 " clip-rule="nonzero"/></clipPath><clipPath id="2652299344"><path d="M 221.957031 56.453125 L 221.957031 27.425781 C 208.894531 27.425781 198.214844 16.859375 198.214844 3.683594 L 23.738281 3.683594 C 23.738281 16.746094 13.171875 27.425781 -0.0078125 27.425781 L -0.0078125 56.453125 C 13.058594 56.453125 23.738281 67.015625 23.738281 80.195312 L 198.214844 80.195312 C 198.214844 67.128906 208.78125 56.453125 221.957031 56.453125 Z M 221.957031 56.453125 " clip-rule="nonzero"/></clipPath><clipPath id="1814209b2b"><path d="M 148.035156 18 L 193 18 L 193 60.722656 L 148.035156 60.722656 Z M 148.035156 18 " clip-rule="nonzero"/></clipPath></defs><g clip-path="url(#9a613050c7)"><g clip-path="url(#2652299344)"><path fill="#cf4545" d="M 221.957031 3.683594 L 221.957031 80.195312 L -0.109375 80.195312 L -0.109375 3.683594 Z M 221.957031 3.683594 " fill-opacity="1" fill-rule="nonzero"/></g></g><g clip-path="url(#1814209b2b)"><path fill="#ffcf7e" d="M 190.601562 40.3125 L 188.796875 40.3125 L 188.796875 58.824219 C 188.78125 59.074219 188.71875 59.3125 188.609375 59.542969 C 188.5 59.769531 188.351562 59.964844 188.160156 60.132812 C 187.972656 60.300781 187.761719 60.429688 187.523438 60.511719 C 187.285156 60.597656 187.039062 60.632812 186.785156 60.621094 L 176.121094 60.621094 L 176.121094 48 C 176.121094 47.824219 176.089844 47.65625 176.023438 47.492188 C 175.953125 47.332031 175.859375 47.191406 175.734375 47.066406 C 175.613281 46.941406 175.46875 46.847656 175.308594 46.78125 C 175.148438 46.714844 174.980469 46.679688 174.804688 46.679688 L 167.066406 46.679688 C 166.890625 46.679688 166.722656 46.710938 166.5625 46.78125 C 166.402344 46.847656 166.257812 46.941406 166.132812 47.066406 C 166.011719 47.1875 165.914062 47.332031 165.847656 47.492188 C 165.78125 47.65625 165.75 47.824219 165.75 48 L 165.75 60.617188 L 155.082031 60.617188 C 154.832031 60.632812 154.585938 60.597656 154.351562 60.515625 C 154.113281 60.429688 153.898438 60.304688 153.710938 60.136719 C 153.523438 59.96875 153.375 59.773438 153.265625 59.546875 C 153.15625 59.320312 153.09375 59.082031 153.078125 58.828125 L 153.078125 40.3125 L 151.265625 40.3125 C 149.257812 40.3125 148.167969 38.417969 149.484375 37.207031 L 169.328125 18.863281 C 169.578125 18.648438 169.855469 18.488281 170.164062 18.375 C 170.472656 18.261719 170.789062 18.207031 171.117188 18.207031 C 171.445312 18.207031 171.761719 18.265625 172.070312 18.378906 C 172.378906 18.492188 172.65625 18.65625 172.90625 18.871094 C 179.402344 24.984375 185.898438 31.097656 192.402344 37.210938 C 193.695312 38.4375 192.605469 40.3125 190.601562 40.3125 Z M 190.601562 40.3125 " fill-opacity="1" fill-rule="nonzero"/></g><g fill="#ffcf7e" fill-opacity="1"><g transform="translate(58.709168, 33.550007)"><g><path d="M 11.859375 0 L 7.265625 0 L 7.265625 -12.90625 C 7.265625 -13.414062 7.003906 -13.671875 6.484375 -13.671875 L 0.796875 -13.671875 L 0.796875 -18.5 L 8.59375 -18.5 C 9.550781 -18.5 10.335938 -18.191406 10.953125 -17.578125 C 11.554688 -16.972656 11.859375 -16.1875 11.859375 -15.21875 Z M 5.3125 0 L 0.8125 0 L 0.8125 -11.46875 L 5.3125 -11.46875 Z M 5.3125 0 "/></g></g></g><g fill="#ffcf7e" fill-opacity="1"><g transform="translate(71.362328, 33.550007)"><g><path d="M 5.25 -10.296875 L 0.765625 -10.296875 L 0.765625 -18.5 L 5.25 -18.5 Z M 5.25 -10.296875 "/></g></g></g><g fill="#ffcf7e" fill-opacity="1"><g transform="translate(77.407726, 33.550007)"><g><path d="M 5.25 -10.296875 L 0.765625 -10.296875 L 0.765625 -18.5 L 5.25 -18.5 Z M 5.25 -10.296875 "/></g></g></g><g fill="#ffcf7e" fill-opacity="1"><g transform="translate(83.453125, 33.550007)"><g><path d="M 11.859375 0 L 7.265625 0 L 7.265625 -12.90625 C 7.265625 -13.414062 7.003906 -13.671875 6.484375 -13.671875 L 0.796875 -13.671875 L 0.796875 -18.5 L 8.59375 -18.5 C 9.550781 -18.5 10.335938 -18.191406 10.953125 -17.578125 C 11.554688 -16.972656 11.859375 -16.1875 11.859375 -15.21875 Z M 5.3125 0 L 0.8125 0 L 0.8125 -11.46875 L 5.3125 -11.46875 Z M 5.3125 0 "/></g></g></g><g fill="#ffcf7e" fill-opacity="1"><g transform="translate(96.106284, 33.550007)"><g><path d="M 5.15625 -13.25 L 5.859375 -13.25 C 6.367188 -13.25 6.625 -13.523438 6.625 -14.078125 L 6.625 -18.5 L 10.796875 -18.5 L 10.796875 -13.3125 C 10.796875 -11.15625 9.863281 -10.078125 8 -10.078125 L 5.15625 -10.078125 L 5.15625 -5.671875 C 5.15625 -5.109375 5.390625 -4.828125 5.859375 -4.828125 L 11.5625 -4.828125 C 12.019531 -4.828125 12.25 -5.109375 12.25 -5.671875 L 12.25 -18.5 L 16.625 -18.5 L 16.625 -4.203125 C 16.625 -2.929688 16.296875 -1.921875 15.640625 -1.171875 C 14.953125 -0.390625 13.976562 0 12.71875 0 L 4.703125 0 C 2.097656 0 0.796875 -1.398438 0.796875 -4.203125 L 0.796875 -18.5 L 5.15625 -18.5 Z M 5.15625 -13.25 "/></g></g></g><g fill="#ffcf7e" fill-opacity="1"><g transform="translate(44.611513, 66.550006)"><g><path d="M 12.375 0 L 0.796875 0 L 0.796875 -15.265625 C 0.796875 -16.421875 0.988281 -17.226562 1.375 -17.6875 C 1.8125 -18.226562 2.59375 -18.5 3.71875 -18.5 L 9.25 -18.5 C 11.332031 -18.5 12.375 -17.421875 12.375 -15.265625 Z M 7.859375 -12.796875 C 7.859375 -13.378906 7.59375 -13.671875 7.0625 -13.671875 L 6.1875 -13.671875 C 5.65625 -13.671875 5.390625 -13.378906 5.390625 -12.796875 L 5.390625 -4.828125 L 7.859375 -4.828125 Z M 7.859375 -12.796875 "/></g></g></g><g fill="#ffcf7e" fill-opacity="1"><g transform="translate(57.780171, 66.550006)"><g><path d="M 5.25 -10.296875 L 0.765625 -10.296875 L 0.765625 -18.5 L 5.25 -18.5 Z M 5.25 -10.296875 "/></g></g></g><g fill="#ffcf7e" fill-opacity="1"><g transform="translate(63.82557, 66.550006)"><g><path d="M 12.5 -3.5625 C 12.5 -1.1875 11.519531 0 9.5625 0 L 3.734375 0 C 2.742188 0 1.992188 -0.359375 1.484375 -1.078125 C 1.023438 -1.722656 0.796875 -2.550781 0.796875 -3.5625 L 0.796875 -18.5 L 5.296875 -18.5 L 5.296875 -12.671875 L 6.1875 -15.828125 C 6.6875 -17.609375 7.597656 -18.5 8.921875 -18.5 L 9.84375 -18.5 C 11.613281 -18.5 12.5 -17.535156 12.5 -15.609375 Z M 8.015625 -13.25 C 8.015625 -13.445312 7.972656 -13.546875 7.890625 -13.546875 C 7.828125 -13.546875 7.773438 -13.460938 7.734375 -13.296875 L 7.078125 -10.84375 L 5.296875 -10.84375 L 5.296875 -5.671875 C 5.296875 -5.109375 5.523438 -4.828125 5.984375 -4.828125 L 7.3125 -4.828125 C 7.78125 -4.828125 8.015625 -5.109375 8.015625 -5.671875 Z M 8.015625 -13.25 "/></g></g></g><g fill="#ffcf7e" fill-opacity="1"><g transform="translate(77.119198, 66.550006)"><g><path d="M 11.046875 -6.6875 C 11.046875 -2.226562 8.910156 0 4.640625 0 L 2.6875 0 L 2.6875 -4.828125 L 4 -4.828125 C 5.007812 -4.828125 5.695312 -5.148438 6.0625 -5.796875 C 6.320312 -6.253906 6.453125 -7.050781 6.453125 -8.1875 L 6.453125 -12.90625 C 6.453125 -13.414062 6.191406 -13.671875 5.671875 -13.671875 L 0.796875 -13.671875 L 0.796875 -20.796875 L 5.328125 -20.796875 L 5.328125 -18.5 L 8.734375 -18.5 C 10.273438 -18.5 11.046875 -17.753906 11.046875 -16.265625 Z M 11.046875 -6.6875 "/></g></g></g><g fill="#ffcf7e" fill-opacity="1"><g transform="translate(88.960055, 66.550006)"><g><path d="M 11.984375 -5.71875 C 11.984375 -3.832031 11.675781 -2.441406 11.0625 -1.546875 C 10.3125 -0.484375 9.035156 0.046875 7.234375 0.046875 C 6.910156 0.046875 6.570312 0.03125 6.21875 0 L 6.21875 -4.828125 C 7.007812 -4.828125 7.40625 -5.410156 7.40625 -6.578125 L 7.40625 -12.90625 C 7.40625 -13.414062 7.140625 -13.671875 6.609375 -13.671875 L 0.796875 -13.671875 L 0.796875 -18.5 L 9.671875 -18.5 C 11.210938 -18.5 11.984375 -17.753906 11.984375 -16.265625 Z M 5.34375 2.671875 L 0.828125 2.671875 L 0.828125 -11.640625 L 5.34375 -11.640625 Z M 5.34375 2.671875 "/></g></g></g><g fill="#ffcf7e" fill-opacity="1"><g transform="translate(101.753805, 66.550006)"><g><path d="M 13.078125 -3.328125 C 13.078125 -1.109375 12.070312 0 10.0625 0 L 6.875 0 L 6.875 -4.84375 L 7.828125 -4.84375 C 8.296875 -4.84375 8.53125 -5.125 8.53125 -5.6875 L 8.53125 -12.734375 C 8.53125 -13.296875 8.390625 -13.578125 8.109375 -13.578125 C 7.828125 -13.578125 7.632812 -13.257812 7.53125 -12.625 L 5.265625 0 L 0.796875 0 L 2.703125 -10.328125 L 1.8125 -10.328125 C 1.113281 -10.328125 0.765625 -10.671875 0.765625 -11.359375 L 0.765625 -18.5 L 5.296875 -18.5 L 5.296875 -11.96875 L 6.203125 -15.546875 C 6.703125 -17.515625 7.78125 -18.5 9.4375 -18.5 L 9.671875 -18.5 C 11.941406 -18.5 13.078125 -17.113281 13.078125 -14.34375 Z M 13.078125 -3.328125 "/></g></g></g><g fill="#ffcf7e" fill-opacity="1"><g transform="translate(115.625417, 66.550006)"><g><path d="M 11.359375 0 L 0.796875 0 L 0.796875 -4.828125 L 4.3125 -4.828125 C 5.34375 -4.828125 5.859375 -5.4375 5.859375 -6.65625 L 5.859375 -12.203125 C 5.859375 -12.742188 5.765625 -13.125 5.578125 -13.34375 C 5.390625 -13.5625 5.03125 -13.671875 4.5 -13.671875 L 0.796875 -13.671875 L 0.796875 -18.5 L 6.875 -18.5 C 9.257812 -18.5 10.453125 -17.085938 10.453125 -14.265625 L 10.453125 -7.9375 C 10.453125 -6.300781 9.84375 -5.265625 8.625 -4.828125 L 11.359375 -4.828125 Z M 11.359375 0 "/></g></g></g></svg>