<svg xmlns="http://www.w3.org/2000/svg" xmlns:xlink="http://www.w3.org/1999/xlink" width="1260" zoomAndPan="magnify" viewBox="0 0 944.88 507.000007" height="676" preserveAspectRatio="xMidYMid meet" version="1.0"><defs><g/><clipPath id="24a2f429e6"><path d="M 0.976562 44.511719 L 943.871094 44.511719 L 943.871094 505.382812 L 0.976562 505.382812 Z M 0.976562 44.511719 " clip-rule="nonzero"/></clipPath><clipPath id="a61e28fc19"><path d="M 10.136719 36.089844 L 934 36.089844 L 934 496.964844 L 10.136719 496.964844 Z M 10.136719 36.089844 " clip-rule="nonzero"/></clipPath><clipPath id="f74ecd0f83"><path d="M 797.34375 374 L 831 374 L 831 411 L 797.34375 411 Z M 797.34375 374 " clip-rule="nonzero"/></clipPath><clipPath id="954ec09fe1"><path d="M 886 374 L 920.851562 374 L 920.851562 411 L 886 411 Z M 886 374 " clip-rule="nonzero"/></clipPath><clipPath id="601ae5e2a9"><path d="M 837 279.730469 L 881 279.730469 L 881 308 L 837 308 Z M 837 279.730469 " clip-rule="nonzero"/></clipPath><clipPath id="847418885b"><path d="M 811 473 L 908 473 L 908 498.300781 L 811 498.300781 Z M 811 473 " clip-rule="nonzero"/></clipPath><clipPath id="a23f0edb26"><path d="M 525.660156 16.777344 L 939.183594 16.777344 L 939.183594 88.339844 L 525.660156 88.339844 Z M 525.660156 16.777344 " clip-rule="nonzero"/></clipPath><clipPath id="7e5519f229"><path d="M 525.679688 16.777344 L 939.152344 16.777344 L 939.152344 88.332031 L 525.679688 88.332031 Z M 525.679688 16.777344 " clip-rule="nonzero"/></clipPath><clipPath id="1e5e12cf88"><path d="M 525.660156 7.589844 L 939.183594 7.589844 L 939.183594 79.152344 L 525.660156 79.152344 Z M 525.660156 7.589844 " clip-rule="nonzero"/></clipPath><clipPath id="47e7c744ce"><path d="M 525.679688 7.589844 L 939.152344 7.589844 L 939.152344 79.144531 L 525.679688 79.144531 Z M 525.679688 7.589844 " clip-rule="nonzero"/></clipPath></defs><g clip-path="url(#24a2f429e6)"><path fill="#cf4545" d="M 0.976562 44.511719 L 944.328125 44.511719 L 944.328125 505.382812 L 0.976562 505.382812 Z M 0.976562 44.511719 " fill-opacity="1" fill-rule="nonzero"/></g><g clip-path="url(#a61e28fc19)"><path fill="#ffcf7e" d="M 10.136719 36.089844 L 933.683594 36.089844 L 933.683594 496.964844 L 10.136719 496.964844 Z M 10.136719 36.089844 " fill-opacity="1" fill-rule="nonzero"/></g><g clip-path="url(#f74ecd0f83)"><path fill="#cf4545" d="M 821.359375 374.757812 L 797.359375 410.585938 L 830.949219 410.585938 C 825.777344 399.34375 822.679688 387.113281 821.359375 374.757812 Z M 821.359375 374.757812 " fill-opacity="1" fill-rule="evenodd"/></g><path fill="#cf4545" d="M 886.820312 397.5625 L 831.179688 397.5625 C 832.527344 401.742188 834.113281 405.835938 835.945312 409.820312 L 836.265625 410.523438 L 839.125 410.523438 C 839.304688 410.480469 839.488281 410.460938 839.675781 410.460938 C 839.867188 410.460938 840.050781 410.480469 840.226562 410.523438 L 877.929688 410.523438 C 878.105469 410.480469 878.289062 410.460938 878.480469 410.460938 C 878.667969 410.460938 878.851562 410.480469 879.03125 410.523438 L 881.699219 410.523438 L 882.019531 409.824219 C 883.867188 405.84375 885.464844 401.742188 886.820312 397.5625 Z M 886.820312 397.5625 " fill-opacity="1" fill-rule="evenodd"/><path fill="#cf4545" d="M 825.472656 360.46875 C 825.453125 371.304688 826.859375 382.207031 829.730469 392.691406 L 888.277344 392.691406 C 891.15625 382.210938 892.554688 371.304688 892.554688 360.46875 C 892.554688 344.277344 889.347656 327.589844 882.71875 312.550781 L 835.332031 312.550781 C 828.707031 327.59375 825.503906 344.28125 825.472656 360.46875 Z M 878.152344 339.4375 C 878.152344 349.980469 869.554688 358.574219 859.015625 358.574219 C 848.441406 358.574219 839.878906 350.011719 839.878906 339.4375 C 839.878906 328.863281 848.441406 320.296875 859.015625 320.296875 C 869.589844 320.296875 878.152344 328.863281 878.152344 339.4375 Z M 878.152344 339.4375 " fill-opacity="1" fill-rule="evenodd"/><g clip-path="url(#954ec09fe1)"><path fill="#cf4545" d="M 896.5625 374.523438 C 895.773438 381.402344 894.417969 388.214844 892.515625 394.875 C 892.527344 394.957031 892.53125 395.042969 892.53125 395.128906 C 892.53125 395.703125 892.332031 396.230469 891.996094 396.648438 C 890.585938 401.34375 888.902344 405.957031 886.960938 410.460938 L 920.671875 410.460938 Z M 896.5625 374.523438 " fill-opacity="1" fill-rule="evenodd"/></g><path fill="#cf4545" d="M 875.960938 415.332031 L 842.195312 415.332031 C 842.953125 426.578125 848.9375 436.90625 858.414062 443.160156 L 859.078125 443.601562 L 859.742188 443.160156 C 869.195312 436.921875 875.195312 426.554688 875.960938 415.332031 Z M 875.960938 415.332031 " fill-opacity="1" fill-rule="evenodd"/><path fill="#cf4545" d="M 873.160156 337.140625 C 873.3125 338.070312 873.371094 339.003906 873.335938 339.945312 C 873.304688 340.882812 873.179688 341.8125 872.964844 342.726562 C 872.746094 343.644531 872.445312 344.527344 872.054688 345.382812 C 871.660156 346.242188 871.191406 347.050781 870.640625 347.8125 C 870.089844 348.574219 869.472656 349.277344 868.785156 349.917969 C 868.09375 350.5625 867.351562 351.128906 866.550781 351.621094 C 865.75 352.117188 864.910156 352.527344 864.027344 352.859375 C 863.144531 353.1875 862.242188 353.425781 861.3125 353.578125 C 860.382812 353.726562 859.449219 353.785156 858.507812 353.753906 C 857.570312 353.71875 856.640625 353.59375 855.726562 353.378906 C 854.808594 353.164062 853.925781 352.859375 853.070312 352.46875 C 852.214844 352.078125 851.402344 351.605469 850.640625 351.058594 C 849.878906 350.507812 849.175781 349.886719 848.535156 349.199219 C 847.894531 348.511719 847.324219 347.765625 846.832031 346.964844 C 846.335938 346.164062 845.925781 345.324219 845.59375 344.445312 C 845.265625 343.5625 845.027344 342.65625 844.875 341.726562 C 844.726562 340.800781 844.667969 339.867188 844.699219 338.925781 C 844.734375 337.984375 844.859375 337.058594 845.074219 336.140625 C 845.289062 335.226562 845.59375 334.339844 845.984375 333.484375 C 846.375 332.628906 846.847656 331.820312 847.394531 331.054688 C 847.945312 330.292969 848.566406 329.589844 849.253906 328.949219 C 849.941406 328.308594 850.6875 327.742188 851.488281 327.246094 C 852.289062 326.75 853.128906 326.339844 854.011719 326.011719 C 854.890625 325.683594 855.796875 325.441406 856.726562 325.292969 C 857.652344 325.140625 858.589844 325.082031 859.527344 325.117188 C 860.46875 325.148438 861.394531 325.273438 862.3125 325.488281 C 863.226562 325.707031 864.113281 326.011719 864.96875 326.402344 C 865.824219 326.792969 866.632812 327.261719 867.398438 327.8125 C 868.160156 328.363281 868.863281 328.980469 869.503906 329.667969 C 870.144531 330.359375 870.710938 331.101562 871.207031 331.902344 C 871.703125 332.703125 872.113281 333.542969 872.441406 334.425781 C 872.769531 335.308594 873.011719 336.210938 873.160156 337.140625 Z M 873.160156 337.140625 " fill-opacity="1" fill-rule="nonzero"/><g clip-path="url(#601ae5e2a9)"><path fill="#cf4545" d="M 858.214844 280.457031 C 849.613281 288.125 842.78125 297.441406 837.628906 307.679688 L 880.417969 307.679688 C 875.257812 297.441406 868.417969 288.125 859.816406 280.457031 L 859.015625 279.742188 Z M 858.214844 280.457031 " fill-opacity="1" fill-rule="evenodd"/></g><g clip-path="url(#847418885b)"><path fill="#cf4545" d="M 875.152344 473.285156 C 869.214844 473.285156 863.890625 477.007812 861.957031 482.636719 C 861.660156 483.5 860.886719 484.132812 859.972656 484.214844 C 859.039062 484.300781 858.152344 483.890625 857.652344 483.085938 C 854.738281 478.386719 849.679688 475.941406 844.1875 476.558594 C 838.710938 477.175781 834.300781 480.6875 832.511719 485.902344 C 832.101562 487.085938 830.769531 487.847656 829.550781 487.46875 C 828.238281 487.054688 826.859375 486.839844 825.480469 486.847656 C 819.21875 486.878906 813.730469 490.933594 811.960938 496.941406 L 811.507812 498.488281 L 907.785156 498.488281 L 907.324219 496.9375 C 906.558594 494.363281 905.03125 492.039062 903.003906 490.28125 C 899.910156 487.601562 895.773438 486.414062 891.730469 487.050781 C 890.40625 487.257812 889.171875 486.359375 888.960938 485.039062 C 887.882812 478.238281 882.027344 473.285156 875.152344 473.285156 Z M 875.152344 473.285156 " fill-opacity="1" fill-rule="evenodd"/></g><path fill="#cf4545" d="M 871.460938 450.570312 L 871.460938 460.742188 C 871.460938 462.085938 872.550781 463.175781 873.894531 463.175781 C 875.238281 463.175781 876.332031 462.085938 876.332031 460.742188 L 876.332031 450.570312 C 876.332031 449.226562 875.238281 448.132812 873.894531 448.132812 C 872.550781 448.132812 871.460938 449.226562 871.460938 450.570312 Z M 871.460938 450.570312 " fill-opacity="1" fill-rule="evenodd"/><path fill="#cf4545" d="M 885.507812 438.273438 C 885.941406 447.210938 889.757812 455.203125 895.585938 461.894531 C 896.042969 462.417969 896.695312 462.675781 897.378906 462.675781 C 897.984375 462.675781 898.578125 462.425781 899.035156 462.03125 C 900.027344 461.160156 900.03125 459.617188 899.175781 458.652344 C 894.160156 452.996094 890.785156 446.195312 890.292969 438.585938 C 890.148438 436.347656 890.257812 434.0625 890.660156 431.851562 C 890.828125 430.921875 891.074219 429.796875 891.417969 428.910156 C 891.890625 427.703125 891.28125 426.28125 890.054688 425.832031 C 888.808594 425.375 887.363281 425.902344 886.894531 427.1875 C 885.703125 430.441406 885.339844 434.867188 885.507812 438.273438 Z M 885.507812 438.273438 " fill-opacity="1" fill-rule="evenodd"/><path fill="#cf4545" d="M 845.527344 450.570312 L 845.527344 460.742188 C 845.527344 462.085938 846.621094 463.175781 847.964844 463.175781 C 849.308594 463.175781 850.402344 462.085938 850.402344 460.742188 L 850.402344 450.570312 C 850.402344 449.226562 849.308594 448.132812 847.964844 448.132812 C 846.621094 448.132812 845.527344 449.226562 845.527344 450.570312 Z M 845.527344 450.570312 " fill-opacity="1" fill-rule="evenodd"/><path fill="#cf4545" d="M 827.898438 438.65625 C 827.472656 446.316406 824.070312 453.089844 818.898438 458.671875 C 818 459.644531 818.082031 461.15625 819.070312 462.039062 C 819.519531 462.441406 820.042969 462.675781 820.652344 462.675781 C 821.339844 462.675781 821.996094 462.382812 822.460938 461.875 C 828.449219 455.304688 832.292969 447.382812 832.667969 438.433594 C 832.78125 435.785156 832.582031 433.09375 832.050781 430.496094 C 831.835938 429.4375 831.542969 428.222656 831.144531 427.210938 C 830.65625 425.957031 829.300781 425.359375 828.042969 425.828125 C 826.789062 426.296875 826.257812 427.71875 826.6875 428.949219 C 827.734375 431.941406 828.074219 435.515625 827.898438 438.65625 Z M 827.898438 438.65625 " fill-opacity="1" fill-rule="evenodd"/><g clip-path="url(#a23f0edb26)"><path fill="#cf4545" d="M 525.660156 16.777344 L 939.105469 16.777344 L 939.105469 88.339844 L 525.660156 88.339844 Z M 525.660156 16.777344 " fill-opacity="1" fill-rule="nonzero"/></g><g clip-path="url(#7e5519f229)"><path stroke-linecap="butt" transform="matrix(0.815876, 0, 0, 0.815876, 525.679722, 16.776336)" fill="none" stroke-linejoin="miter" d="M -0.0000416897 0.00123494 L 506.783377 0.00123494 L 506.783377 87.704082 L -0.0000416897 87.704082 Z M -0.0000416897 0.00123494 " stroke="#cf4545" stroke-width="18.348948" stroke-opacity="1" stroke-miterlimit="4"/></g><g clip-path="url(#1e5e12cf88)"><path fill="#ffcf7e" d="M 525.660156 7.589844 L 939.105469 7.589844 L 939.105469 79.152344 L 525.660156 79.152344 Z M 525.660156 7.589844 " fill-opacity="1" fill-rule="nonzero"/></g><g clip-path="url(#47e7c744ce)"><path stroke-linecap="butt" transform="matrix(0.815876, 0, 0, 0.815876, 525.679722, 7.589795)" fill="none" stroke-linejoin="miter" d="M -0.0000416897 0.0000598761 L 506.783377 0.0000598761 L 506.783377 87.702907 L -0.0000416897 87.702907 Z M -0.0000416897 0.0000598761 " stroke="#cf4545" stroke-width="9.174474" stroke-opacity="1" stroke-miterlimit="4"/></g><g fill="#cf4545" fill-opacity="1"><g transform="translate(638.444611, 60.231222)"><g><path d="M 21.921875 -1.25 C 21.921875 -0.414062 21.546875 0 20.796875 0 L 15.78125 0 C 14.957031 0 14.519531 -0.460938 14.46875 -1.390625 L 13.296875 -21.0625 C 13.253906 -21.664062 13 -21.96875 12.53125 -21.96875 L 3.953125 -21.96875 C 3.097656 -21.96875 2.671875 -22.453125 2.671875 -23.421875 L 2.671875 -23.578125 L 3.140625 -31.796875 C 3.191406 -32.679688 3.671875 -33.125 4.578125 -33.125 L 18.890625 -33.125 C 19.722656 -33.125 20.164062 -32.644531 20.21875 -31.6875 L 21.921875 -1.390625 Z M 9.171875 -14.515625 L 8.78125 -1.28125 C 8.75 -0.425781 8.296875 0 7.421875 0 L 2.671875 0 C 1.929688 0 1.5625 -0.4375 1.5625 -1.3125 L 1.5625 -1.390625 L 2.078125 -14.65625 C 2.085938 -15.539062 2.585938 -15.984375 3.578125 -15.984375 L 7.890625 -15.984375 C 8.742188 -15.984375 9.171875 -15.53125 9.171875 -14.625 Z M 9.171875 -14.515625 "/></g></g></g><g fill="#cf4545" fill-opacity="1"><g transform="translate(661.937957, 60.231222)"><g><path d="M 23.03125 -1.09375 C 23.03125 -0.363281 22.675781 0 21.96875 0 L 2.625 0 C 1.914062 0 1.5625 -0.375 1.5625 -1.125 L 1.5625 -1.171875 L 2.078125 -9.875 C 2.128906 -10.75 2.519531 -11.1875 3.25 -11.1875 L 13.921875 -11.1875 C 14.585938 -11.1875 14.921875 -11.453125 14.921875 -11.984375 L 14.921875 -12.0625 L 14.40625 -21.34375 C 14.375 -21.726562 14.066406 -21.921875 13.484375 -21.921875 L 11.1875 -21.921875 C 10.644531 -21.921875 10.34375 -21.65625 10.28125 -21.125 L 9.765625 -15.53125 C 9.710938 -14.851562 9.304688 -14.515625 8.546875 -14.515625 L 3.359375 -14.515625 C 2.679688 -14.515625 2.34375 -14.863281 2.34375 -15.5625 L 2.34375 -15.640625 L 3.84375 -31.90625 C 3.914062 -32.71875 4.328125 -33.125 5.078125 -33.125 L 20 -33.125 C 20.726562 -33.125 21.117188 -32.71875 21.171875 -31.90625 L 23.03125 -1.171875 Z M 23.03125 -1.09375 "/></g></g></g><g fill="#cf4545" fill-opacity="1"><g transform="translate(686.550034, 60.231222)"><g><path d="M 22.4375 -31.875 C 22.4375 -31.851562 22.4375 -31.804688 22.4375 -31.734375 C 22.4375 -31.660156 22.425781 -31.550781 22.40625 -31.40625 L 20.578125 -2.125 C 20.535156 -1.5625 20.304688 -1.066406 19.890625 -0.640625 C 19.472656 -0.210938 18.992188 0 18.453125 0 L 12.75 0 C 12 0 11.625 -0.425781 11.625 -1.28125 L 11.625 -10.125 C 11.625 -10.832031 12.035156 -11.1875 12.859375 -11.1875 C 13.378906 -11.1875 13.660156 -11.457031 13.703125 -12 L 14.46875 -21.171875 C 14.476562 -21.210938 14.484375 -21.257812 14.484375 -21.3125 C 14.484375 -21.75 14.3125 -21.96875 13.96875 -21.96875 L 3.25 -21.96875 C 2.570312 -21.96875 2.21875 -22.34375 2.1875 -23.09375 L 1.671875 -31.625 L 1.671875 -31.953125 C 1.671875 -32.734375 2.003906 -33.125 2.671875 -33.125 L 21.59375 -33.078125 C 22.15625 -33.078125 22.4375 -32.675781 22.4375 -31.875 Z M 9.875 4.46875 C 9.875 5.257812 9.445312 5.65625 8.59375 5.65625 L 3.953125 5.65625 C 3.023438 5.65625 2.5625 5.257812 2.5625 4.46875 L 2.5625 -14.875 C 2.5625 -15.613281 3.023438 -15.984375 3.953125 -15.984375 L 8.59375 -15.984375 C 9.445312 -15.984375 9.875 -15.613281 9.875 -14.875 Z M 9.875 4.46875 "/></g></g></g><g fill="#cf4545" fill-opacity="1"><g transform="translate(710.561815, 60.231222)"><g><path d="M 24.3125 -1.03125 C 24.3125 -0.34375 23.976562 0 23.3125 0 L 18.34375 0 C 17.570312 0 17.160156 -0.390625 17.109375 -1.171875 L 15.640625 -21.28125 C 15.597656 -21.707031 15.394531 -21.921875 15.03125 -21.921875 L 12.359375 -21.921875 C 11.984375 -21.921875 11.773438 -21.707031 11.734375 -21.28125 L 10.71875 -1.171875 C 10.707031 -0.390625 10.316406 0 9.546875 0 L 2.34375 0 C 1.632812 0 1.28125 -0.378906 1.28125 -1.140625 L 1.28125 -1.171875 L 1.71875 -9.96875 C 1.738281 -10.78125 2.113281 -11.1875 2.84375 -11.1875 L 3.625 -11.1875 C 4.007812 -11.1875 4.21875 -11.367188 4.25 -11.734375 L 4.796875 -21.34375 L 4.796875 -21.421875 C 4.796875 -21.753906 4.632812 -21.921875 4.3125 -21.921875 L 3.359375 -21.921875 C 2.578125 -21.921875 2.164062 -22.347656 2.125 -23.203125 L 1.71875 -31.90625 L 1.71875 -32.0625 C 1.71875 -32.769531 2.054688 -33.125 2.734375 -33.125 L 21.28125 -33.125 C 22.007812 -33.125 22.398438 -32.71875 22.453125 -31.90625 L 24.3125 -1.171875 Z M 24.3125 -1.03125 "/></g></g></g><g fill="#cf4545" fill-opacity="1"><g transform="translate(736.456339, 60.231222)"><g><path d="M 21.921875 -1.25 C 21.921875 -0.414062 21.546875 0 20.796875 0 L 15.78125 0 C 14.957031 0 14.519531 -0.460938 14.46875 -1.390625 L 13.296875 -21.0625 C 13.253906 -21.664062 13 -21.96875 12.53125 -21.96875 L 3.953125 -21.96875 C 3.097656 -21.96875 2.671875 -22.453125 2.671875 -23.421875 L 2.671875 -23.578125 L 3.140625 -31.796875 C 3.191406 -32.679688 3.671875 -33.125 4.578125 -33.125 L 18.890625 -33.125 C 19.722656 -33.125 20.164062 -32.644531 20.21875 -31.6875 L 21.921875 -1.390625 Z M 9.171875 -14.515625 L 8.78125 -1.28125 C 8.75 -0.425781 8.296875 0 7.421875 0 L 2.671875 0 C 1.929688 0 1.5625 -0.4375 1.5625 -1.3125 L 1.5625 -1.390625 L 2.078125 -14.65625 C 2.085938 -15.539062 2.585938 -15.984375 3.578125 -15.984375 L 7.890625 -15.984375 C 8.742188 -15.984375 9.171875 -15.53125 9.171875 -14.625 Z M 9.171875 -14.515625 "/></g></g></g><g fill="#cf4545" fill-opacity="1"><g transform="translate(759.949685, 60.231222)"><g/></g></g><g fill="#cf4545" fill-opacity="1"><g transform="translate(772.310295, 60.231222)"><g><path d="M 24.3125 -1.03125 C 24.3125 -0.34375 23.976562 0 23.3125 0 L 18.34375 0 C 17.570312 0 17.160156 -0.390625 17.109375 -1.171875 L 15.640625 -21.28125 C 15.597656 -21.707031 15.394531 -21.921875 15.03125 -21.921875 L 12.359375 -21.921875 C 11.984375 -21.921875 11.773438 -21.707031 11.734375 -21.28125 L 10.71875 -1.171875 C 10.707031 -0.390625 10.316406 0 9.546875 0 L 2.34375 0 C 1.632812 0 1.28125 -0.378906 1.28125 -1.140625 L 1.28125 -1.171875 L 1.71875 -9.96875 C 1.738281 -10.78125 2.113281 -11.1875 2.84375 -11.1875 L 3.625 -11.1875 C 4.007812 -11.1875 4.21875 -11.367188 4.25 -11.734375 L 4.796875 -21.34375 L 4.796875 -21.421875 C 4.796875 -21.753906 4.632812 -21.921875 4.3125 -21.921875 L 3.359375 -21.921875 C 2.578125 -21.921875 2.164062 -22.347656 2.125 -23.203125 L 1.71875 -31.90625 L 1.71875 -32.0625 C 1.71875 -32.769531 2.054688 -33.125 2.734375 -33.125 L 21.28125 -33.125 C 22.007812 -33.125 22.398438 -32.71875 22.453125 -31.90625 L 24.3125 -1.171875 Z M 24.3125 -1.03125 "/></g></g></g><g fill="#cf4545" fill-opacity="1"><g transform="translate(798.204818, 60.231222)"><g><path d="M 22.125 -31.90625 L 20.28125 -1.171875 C 20.21875 -0.390625 19.828125 0 19.109375 0 L 2.34375 0 C 1.675781 0 1.34375 -0.363281 1.34375 -1.09375 L 1.34375 -1.171875 L 2.078125 -10.0625 C 2.128906 -10.8125 2.535156 -11.1875 3.296875 -11.1875 L 4.46875 -11.1875 L 2.671875 -31.90625 L 2.671875 -32.0625 C 2.671875 -32.738281 3.007812 -33.078125 3.6875 -33.078125 L 8.84375 -33.078125 C 9.59375 -33.078125 10 -32.6875 10.0625 -31.90625 L 11.84375 -11.140625 L 12.90625 -11.140625 C 13.289062 -11.140625 13.5 -11.375 13.53125 -11.84375 L 14.875 -31.90625 C 14.925781 -32.6875 15.316406 -33.078125 16.046875 -33.078125 L 21.0625 -33.078125 C 21.769531 -33.078125 22.125 -32.726562 22.125 -32.03125 Z M 22.125 -31.90625 "/></g></g></g><g fill="#cf4545" fill-opacity="1"><g transform="translate(821.916453, 60.231222)"><g><path d="M 18.890625 -15.890625 C 18.890625 -15.097656 18.460938 -14.703125 17.609375 -14.703125 L 12.96875 -14.703125 C 12.039062 -14.703125 11.578125 -15.097656 11.578125 -15.890625 L 11.578125 -32.03125 C 11.578125 -32.757812 12.039062 -33.125 12.96875 -33.125 L 17.609375 -33.125 C 18.460938 -33.125 18.890625 -32.757812 18.890625 -32.03125 Z M 29.171875 -31.953125 L 27.265625 -1.234375 C 27.210938 -0.410156 26.800781 0 26.03125 0 L 4.53125 0 C 3.800781 0 3.410156 -0.410156 3.359375 -1.234375 L 1.5625 -31.953125 L 1.5625 -32.25 C 1.5625 -32.832031 1.820312 -33.125 2.34375 -33.125 L 8 -33.125 C 8.582031 -33.125 8.898438 -32.734375 8.953125 -31.953125 L 10.234375 -11.6875 C 10.253906 -11.394531 10.4375 -11.25 10.78125 -11.25 L 20 -11.25 C 20.269531 -11.25 20.425781 -11.410156 20.46875 -11.734375 L 21.96875 -31.953125 C 22.019531 -32.734375 22.375 -33.125 23.03125 -33.125 L 28.265625 -33.125 C 28.867188 -33.125 29.171875 -32.769531 29.171875 -32.0625 Z M 29.171875 -31.953125 "/></g></g></g><g fill="#242536" fill-opacity="1"><g transform="translate(685.655461, 371.119542)"><g><path d="M 19.78125 5.234375 L 10.640625 5.234375 L 10.640625 -25.765625 C 10.640625 -26.785156 10.109375 -27.296875 9.046875 -27.296875 L 0.96875 -27.296875 L 0.96875 -36.921875 L 13.25 -36.921875 C 15.164062 -36.921875 16.738281 -36.3125 17.96875 -35.09375 C 19.175781 -33.882812 19.78125 -32.3125 19.78125 -30.375 Z M 19.78125 5.234375 "/></g></g></g><g fill="#242536" fill-opacity="1"><g transform="translate(707.018274, 371.119542)"><g><path d="M 10.484375 -20.546875 L 1.53125 -20.546875 L 1.53125 -36.921875 L 10.484375 -36.921875 Z M 10.484375 -20.546875 "/></g></g></g><g fill="#242536" fill-opacity="1"><g transform="translate(719.087486, 371.119542)"><g><path d="M 16.71875 0 C 16.445312 -1.457031 15.859375 -3.375 14.953125 -5.75 C 14.046875 -8.132812 12.816406 -11.007812 11.265625 -14.375 C 11.097656 -14.1875 10.972656 -14.039062 10.890625 -13.9375 C 10.804688 -13.832031 10.753906 -13.769531 10.734375 -13.75 C 10.710938 -13.664062 10.695312 -13.484375 10.6875 -13.203125 C 10.675781 -12.921875 10.671875 -12.53125 10.671875 -12.03125 L 10.671875 0 L 1.65625 0 L 1.65625 -11.046875 C 1.65625 -16.890625 3.453125 -20.671875 7.046875 -22.390625 C 3.597656 -29.171875 1.675781 -34.015625 1.28125 -36.921875 L 10.671875 -36.921875 C 11.128906 -34.847656 11.804688 -32.65625 12.703125 -30.34375 C 13.609375 -28.039062 14.75 -25.585938 16.125 -22.984375 C 16.644531 -23.359375 16.90625 -24.128906 16.90625 -25.296875 L 16.90625 -36.921875 L 26.015625 -36.921875 L 26.015625 -24.421875 C 26.015625 -22.546875 25.441406 -20.726562 24.296875 -18.96875 C 23.148438 -17.21875 21.734375 -15.882812 20.046875 -14.96875 C 23.941406 -7.238281 25.929688 -2.25 26.015625 0 Z M 16.71875 0 "/></g></g></g><g fill="#242536" fill-opacity="1"><g transform="translate(643.41066, 460.193851)"><g><path d="M 26.296875 -31.0625 C 26.296875 -28.738281 25.546875 -26.566406 24.046875 -24.546875 L 21.421875 -20.984375 C 19.328125 -18.140625 18.28125 -15.882812 18.28125 -14.21875 L 18.28125 -12.3125 L 9.765625 -12.3125 L 9.765625 -17.09375 C 9.765625 -19.3125 11.144531 -22.160156 13.90625 -25.640625 L 16.3125 -28.65625 C 16.875 -29.363281 17.15625 -30.03125 17.15625 -30.65625 C 17.15625 -31.507812 16.726562 -31.9375 15.875 -31.9375 C 15.125 -31.9375 14.425781 -31.550781 13.78125 -30.78125 L 11.546875 -28.21875 L 4.640625 -34.125 L 7.859375 -37.796875 C 10.171875 -40.441406 12.882812 -41.765625 16 -41.765625 C 18.351562 -41.765625 20.535156 -40.878906 22.546875 -39.109375 C 25.046875 -36.929688 26.296875 -34.25 26.296875 -31.0625 Z M 18.28125 0 L 9.765625 0 L 9.765625 -9.140625 L 18.28125 -9.140625 Z M 18.28125 0 "/></g></g></g><g fill="#242536" fill-opacity="1"><g transform="translate(672.382998, 460.193851)"><g><path d="M 22.046875 -13.34375 C 22.046875 -4.445312 17.785156 0 9.265625 0 L 5.359375 0 L 5.359375 -9.640625 L 7.984375 -9.640625 C 10.003906 -9.640625 11.375 -10.285156 12.09375 -11.578125 C 12.613281 -12.484375 12.875 -14.070312 12.875 -16.34375 L 12.875 -25.765625 C 12.875 -26.785156 12.359375 -27.296875 11.328125 -27.296875 L 1.59375 -27.296875 L 1.59375 -41.515625 L 10.640625 -41.515625 L 10.640625 -36.921875 L 17.4375 -36.921875 C 20.507812 -36.921875 22.046875 -35.4375 22.046875 -32.46875 Z M 22.046875 -13.34375 "/></g></g></g><g fill="#242536" fill-opacity="1"><g transform="translate(696.022426, 460.193851)"><g><path d="M 10.484375 -20.546875 L 1.53125 -20.546875 L 1.53125 -36.921875 L 10.484375 -36.921875 Z M 10.484375 -20.546875 "/></g></g></g><g fill="#242536" fill-opacity="1"><g transform="translate(708.091638, 460.193851)"><g><path d="M 24.078125 0 L 15.03125 0 L 15.03125 -25.546875 C 15.03125 -26.710938 14.5 -27.296875 13.4375 -27.296875 L 12.34375 -27.296875 C 11.289062 -27.296875 10.765625 -26.710938 10.765625 -25.546875 L 10.765625 0 L 1.59375 0 L 1.59375 -30.46875 C 1.59375 -32.78125 1.976562 -34.394531 2.75 -35.3125 C 3.613281 -36.382812 5.171875 -36.921875 7.421875 -36.921875 L 17.84375 -36.921875 C 22 -36.921875 24.078125 -34.769531 24.078125 -30.46875 Z M 24.078125 0 "/></g></g></g><g fill="#242536" fill-opacity="1"><g transform="translate(733.758199, 460.193851)"><g><path d="M 25.546875 0 L 16.53125 0 L 16.53125 -25.546875 C 16.53125 -26.710938 16 -27.296875 14.9375 -27.296875 L 13.71875 -27.296875 C 12.632812 -27.296875 12.09375 -26.710938 12.09375 -25.546875 L 12.09375 -4.421875 C 12.09375 -1.472656 10.859375 0 8.390625 0 L 0.625 0 L 0.625 -9.640625 L 2.1875 -9.640625 C 2.707031 -9.640625 2.96875 -9.867188 2.96875 -10.328125 L 2.96875 -29.84375 C 2.96875 -32.363281 3.453125 -34.175781 4.421875 -35.28125 C 5.398438 -36.375 7.128906 -36.921875 9.609375 -36.921875 L 19.34375 -36.921875 C 23.476562 -36.921875 25.546875 -34.5625 25.546875 -29.84375 Z M 25.546875 0 "/></g></g></g><g fill="#242536" fill-opacity="1"><g transform="translate(760.921715, 460.193851)"><g><path d="M 26.109375 -6.640625 C 26.109375 -2.210938 24.097656 0 20.078125 0 L 13.71875 0 L 13.71875 -9.671875 L 15.625 -9.671875 C 16.5625 -9.671875 17.03125 -10.234375 17.03125 -11.359375 L 17.03125 -25.421875 C 17.03125 -26.546875 16.75 -27.109375 16.1875 -27.109375 C 15.625 -27.109375 15.238281 -26.472656 15.03125 -25.203125 L 10.515625 0 L 1.59375 0 L 5.390625 -20.609375 L 3.625 -20.609375 C 2.226562 -20.609375 1.53125 -21.296875 1.53125 -22.671875 L 1.53125 -36.921875 L 10.578125 -36.921875 L 10.578125 -23.890625 L 12.375 -31.03125 C 13.375 -34.957031 15.53125 -36.921875 18.84375 -36.921875 L 19.3125 -36.921875 C 23.84375 -36.921875 26.109375 -34.15625 26.109375 -28.625 Z M 26.109375 -6.640625 "/></g></g></g><path stroke-linecap="butt" transform="matrix(0.748522, 0.00156772, -0.00156772, 0.748522, 72.68022, 314.22052)" fill="none" stroke-linejoin="miter" d="M -0.00173824 2.001589 L 954.916609 2.000315 " stroke="#cf4545" stroke-width="4" stroke-opacity="1" stroke-miterlimit="4"/><path stroke-linecap="butt" transform="matrix(0.748522, 0.00156772, -0.00156772, 0.748522, 73.087202, 204.106075)" fill="none" stroke-linejoin="miter" d="M 0.00249574 1.997915 L 954.915635 2.001872 " stroke="#cf4545" stroke-width="4" stroke-opacity="1" stroke-miterlimit="4"/><path stroke-linecap="butt" transform="matrix(0, -0.748524, 0.748524, 0, 622.618151, 476.549187)" fill="none" stroke-linejoin="miter" d="M -0.00212923 1.997439 L 498.239091 1.997439 " stroke="#cf4545" stroke-width="4" stroke-opacity="1" stroke-miterlimit="4"/><g fill="#242536" fill-opacity="1"><g transform="translate(688.512133, 170.821702)"><g><path d="M 10.609375 5.296875 L 1.59375 5.296875 L 1.59375 -36.921875 L 10.609375 -36.921875 Z M 10.609375 5.296875 "/></g></g></g><g fill="#242536" fill-opacity="1"><g transform="translate(700.706091, 170.821702)"><g><path d="M 26.109375 -6.640625 C 26.109375 -2.210938 24.097656 0 20.078125 0 L 13.71875 0 L 13.71875 -9.671875 L 15.625 -9.671875 C 16.5625 -9.671875 17.03125 -10.234375 17.03125 -11.359375 L 17.03125 -25.421875 C 17.03125 -26.546875 16.75 -27.109375 16.1875 -27.109375 C 15.625 -27.109375 15.238281 -26.472656 15.03125 -25.203125 L 10.515625 0 L 1.59375 0 L 5.390625 -20.609375 L 3.625 -20.609375 C 2.226562 -20.609375 1.53125 -21.296875 1.53125 -22.671875 L 1.53125 -36.921875 L 10.578125 -36.921875 L 10.578125 -23.890625 L 12.375 -31.03125 C 13.375 -34.957031 15.53125 -36.921875 18.84375 -36.921875 L 19.3125 -36.921875 C 23.84375 -36.921875 26.109375 -34.15625 26.109375 -28.625 Z M 26.109375 -6.640625 "/></g></g></g><g fill="#242536" fill-opacity="1"><g transform="translate(728.399774, 170.821702)"><g><path d="M 13.84375 -27.296875 L 13.71875 -27.296875 C 12.289062 -27.296875 11.578125 -26.265625 11.578125 -24.203125 L 11.578125 0 L 2.625 0 L 2.625 -22.390625 C 2.625 -25.078125 3.472656 -26.710938 5.171875 -27.296875 L 1.28125 -27.296875 L 1.28125 -36.921875 L 13.84375 -36.921875 Z M 13.84375 -27.296875 "/></g></g></g><g fill="#242536" fill-opacity="1"><g transform="translate(670.149322, 278.55549)"><g><path d="M 24.703125 0 L 1.59375 0 L 1.59375 -30.46875 C 1.59375 -32.78125 1.976562 -34.394531 2.75 -35.3125 C 3.613281 -36.382812 5.171875 -36.921875 7.421875 -36.921875 L 18.46875 -36.921875 C 22.625 -36.921875 24.703125 -34.769531 24.703125 -30.46875 Z M 15.6875 -25.546875 C 15.6875 -26.710938 15.15625 -27.296875 14.09375 -27.296875 L 12.34375 -27.296875 C 11.289062 -27.296875 10.765625 -26.710938 10.765625 -25.546875 L 10.765625 -9.640625 L 15.6875 -9.640625 Z M 15.6875 -25.546875 "/></g></g></g><g fill="#242536" fill-opacity="1"><g transform="translate(696.439614, 278.55549)"><g><path d="M 10.609375 0 L 1.59375 0 L 1.59375 -36.921875 L 10.609375 -36.921875 Z M 10.609375 0 "/></g></g></g><g fill="#242536" fill-opacity="1"><g transform="translate(708.633573, 278.55549)"><g><path d="M 23.921875 -11.421875 C 23.921875 -7.648438 23.304688 -4.875 22.078125 -3.09375 C 20.585938 -0.96875 18.039062 0.09375 14.4375 0.09375 C 13.789062 0.09375 13.113281 0.0625 12.40625 0 L 12.40625 -9.640625 C 13.988281 -9.640625 14.78125 -10.800781 14.78125 -13.125 L 14.78125 -25.765625 C 14.78125 -26.785156 14.25 -27.296875 13.1875 -27.296875 L 1.59375 -27.296875 L 1.59375 -36.921875 L 19.3125 -36.921875 C 22.382812 -36.921875 23.921875 -35.4375 23.921875 -32.46875 Z M 10.671875 5.328125 L 1.65625 5.328125 L 1.65625 -23.234375 L 10.671875 -23.234375 Z M 10.671875 5.328125 "/></g></g></g><g fill="#242536" fill-opacity="1"><g transform="translate(734.175387, 278.55549)"><g><path d="M 26.109375 -6.640625 C 26.109375 -2.210938 24.097656 0 20.078125 0 L 13.71875 0 L 13.71875 -9.671875 L 15.625 -9.671875 C 16.5625 -9.671875 17.03125 -10.234375 17.03125 -11.359375 L 17.03125 -25.421875 C 17.03125 -26.546875 16.75 -27.109375 16.1875 -27.109375 C 15.625 -27.109375 15.238281 -26.472656 15.03125 -25.203125 L 10.515625 0 L 1.59375 0 L 5.390625 -20.609375 L 3.625 -20.609375 C 2.226562 -20.609375 1.53125 -21.296875 1.53125 -22.671875 L 1.53125 -36.921875 L 10.578125 -36.921875 L 10.578125 -23.890625 L 12.375 -31.03125 C 13.375 -34.957031 15.53125 -36.921875 18.84375 -36.921875 L 19.3125 -36.921875 C 23.84375 -36.921875 26.109375 -34.15625 26.109375 -28.625 Z M 26.109375 -6.640625 "/></g></g></g><g fill="#242536" fill-opacity="1"><g transform="translate(453.50013, 145.22465)"><g><path d="M 19.15625 0 L 12.390625 0 L 12.390625 -19.15625 C 12.390625 -20.03125 11.992188 -20.46875 11.203125 -20.46875 L 10.296875 -20.46875 C 9.484375 -20.46875 9.078125 -20.03125 9.078125 -19.15625 L 9.078125 -3.328125 C 9.078125 -1.109375 8.148438 0 6.296875 0 L 0.46875 0 L 0.46875 -7.234375 L 1.640625 -7.234375 C 2.023438 -7.234375 2.21875 -7.40625 2.21875 -7.75 L 2.21875 -22.390625 C 2.21875 -24.273438 2.585938 -25.628906 3.328125 -26.453125 C 4.054688 -27.285156 5.347656 -27.703125 7.203125 -27.703125 L 14.5 -27.703125 C 17.601562 -27.703125 19.15625 -25.929688 19.15625 -22.390625 Z M 19.15625 0 "/></g></g><g transform="translate(473.874006, 145.22465)"><g><path d="M 7.953125 0 L 1.1875 0 L 1.1875 -27.703125 L 7.953125 -27.703125 Z M 7.953125 0 "/></g></g><g transform="translate(483.020029, 145.22465)"><g><path d="M 18.34375 -7.296875 C 18.34375 -2.429688 16.34375 0 12.34375 0 L 0.71875 0 L 0.71875 -7.234375 L 2.359375 -7.234375 L 2.359375 -27.703125 L 9.125 -27.703125 L 9.125 -7.234375 L 10.484375 -7.234375 C 11.265625 -7.234375 11.65625 -7.769531 11.65625 -8.84375 L 11.65625 -27.703125 L 18.34375 -27.703125 Z M 18.34375 -7.296875 "/></g></g><g transform="translate(502.551817, 145.22465)"><g><path d="M 7.71875 -19.84375 L 8.765625 -19.84375 C 9.535156 -19.84375 9.921875 -20.253906 9.921875 -21.078125 L 9.921875 -27.703125 L 16.15625 -27.703125 L 16.15625 -19.9375 C 16.15625 -16.707031 14.765625 -15.09375 11.984375 -15.09375 L 7.71875 -15.09375 L 7.71875 -8.484375 C 7.71875 -7.648438 8.066406 -7.234375 8.765625 -7.234375 L 17.3125 -7.234375 C 18 -7.234375 18.34375 -7.648438 18.34375 -8.484375 L 18.34375 -27.703125 L 24.890625 -27.703125 L 24.890625 -6.296875 C 24.890625 -4.390625 24.398438 -2.875 23.421875 -1.75 C 22.390625 -0.582031 20.929688 0 19.046875 0 L 7.046875 0 C 3.140625 0 1.1875 -2.097656 1.1875 -6.296875 L 1.1875 -27.703125 L 7.71875 -27.703125 Z M 7.71875 -19.84375 "/></g></g><g transform="translate(528.633186, 145.22465)"><g/></g></g><g fill="#242536" fill-opacity="1"><g transform="translate(539.229473, 145.22465)"><g><path d="M 17.140625 0 L 2.0625 0 L 2.0625 -3.0625 C 2.0625 -5.65625 2.894531 -7.847656 4.5625 -9.640625 L 8 -13.3125 C 8.445312 -13.8125 8.8125 -14.210938 9.09375 -14.515625 C 9.375 -14.816406 9.554688 -15.03125 9.640625 -15.15625 C 10.140625 -15.882812 10.390625 -16.679688 10.390625 -17.546875 L 10.390625 -20.4375 L 8.328125 -20.4375 L 8.328125 -17.734375 L 1.59375 -17.734375 L 1.59375 -22.359375 C 1.59375 -23.890625 2.203125 -25.171875 3.421875 -26.203125 C 4.554688 -27.203125 5.90625 -27.703125 7.46875 -27.703125 L 11.84375 -27.703125 C 15.375 -27.703125 17.140625 -25.921875 17.140625 -22.359375 L 17.140625 -17.234375 C 17.140625 -15.003906 16.148438 -12.757812 14.171875 -10.5 L 11.296875 -7.234375 L 17.140625 -7.234375 Z M 17.140625 0 "/></g></g><g transform="translate(557.919172, 145.22465)"><g><path d="M 18.921875 -5.265625 L 17.546875 -5.265625 L 17.546875 0 L 10.78125 0 L 10.78125 -5.265625 L -0.234375 -5.265625 L 5.03125 -27.703125 L 12.0625 -27.703125 L 8.578125 -12.515625 L 10.78125 -12.515625 L 10.78125 -17.28125 L 17.546875 -17.28125 L 17.546875 -12.515625 L 18.921875 -12.515625 Z M 18.921875 -5.265625 "/></g></g></g><g fill="#242536" fill-opacity="1"><g transform="translate(72.700483, 184.512623)"><g><path d="M 5.296875 2.65625 L 0.796875 2.65625 L 0.796875 -18.46875 L 5.296875 -18.46875 Z M 5.296875 2.65625 "/></g></g></g><g fill="#242536" fill-opacity="1"><g transform="translate(78.796343, 184.512623)"><g><path d="M 13.046875 -3.328125 C 13.046875 -1.109375 12.046875 0 10.046875 0 L 6.859375 0 L 6.859375 -4.828125 L 7.8125 -4.828125 C 8.28125 -4.828125 8.515625 -5.109375 8.515625 -5.671875 L 8.515625 -12.703125 C 8.515625 -13.265625 8.375 -13.546875 8.09375 -13.546875 C 7.8125 -13.546875 7.617188 -13.226562 7.515625 -12.59375 L 5.25 0 L 0.796875 0 L 2.703125 -10.3125 L 1.8125 -10.3125 C 1.113281 -10.3125 0.765625 -10.65625 0.765625 -11.34375 L 0.765625 -18.46875 L 5.28125 -18.46875 L 5.28125 -11.953125 L 6.1875 -15.515625 C 6.6875 -17.484375 7.765625 -18.46875 9.421875 -18.46875 L 9.65625 -18.46875 C 11.914062 -18.46875 13.046875 -17.082031 13.046875 -14.3125 Z M 13.046875 -3.328125 "/></g></g></g><g fill="#242536" fill-opacity="1"><g transform="translate(92.640649, 184.512623)"><g><path d="M 6.921875 -13.640625 L 6.859375 -13.640625 C 6.140625 -13.640625 5.78125 -13.125 5.78125 -12.09375 L 5.78125 0 L 1.3125 0 L 1.3125 -11.203125 C 1.3125 -12.535156 1.738281 -13.347656 2.59375 -13.640625 L 0.640625 -13.640625 L 0.640625 -18.46875 L 6.921875 -18.46875 Z M 6.921875 -13.640625 "/></g></g></g><g fill="#242536" fill-opacity="1"><g transform="translate(100.20201, 184.512623)"><g><path d="M 11.84375 0 L 7.25 0 L 7.25 -12.875 C 7.25 -13.382812 6.988281 -13.640625 6.46875 -13.640625 L 0.796875 -13.640625 L 0.796875 -18.46875 L 8.578125 -18.46875 C 9.535156 -18.46875 10.320312 -18.160156 10.9375 -17.546875 C 11.539062 -16.941406 11.84375 -16.15625 11.84375 -15.1875 Z M 5.296875 0 L 0.8125 0 L 0.8125 -11.453125 L 5.296875 -11.453125 Z M 5.296875 0 "/></g></g></g><g fill="#242536" fill-opacity="1"><g transform="translate(112.830261, 184.512623)"><g/></g></g><g fill="#242536" fill-opacity="1"><g transform="translate(119.892728, 184.512623)"><g><path d="M 12.765625 0 L 8.265625 0 L 8.265625 -12.765625 C 8.265625 -13.347656 8 -13.640625 7.46875 -13.640625 L 6.859375 -13.640625 C 6.316406 -13.640625 6.046875 -13.347656 6.046875 -12.765625 L 6.046875 -2.21875 C 6.046875 -0.738281 5.425781 0 4.1875 0 L 0.3125 0 L 0.3125 -4.8125 L 1.09375 -4.8125 C 1.351562 -4.8125 1.484375 -4.925781 1.484375 -5.15625 L 1.484375 -14.921875 C 1.484375 -16.179688 1.726562 -17.085938 2.21875 -17.640625 C 2.707031 -18.191406 3.566406 -18.46875 4.796875 -18.46875 L 9.671875 -18.46875 C 11.734375 -18.46875 12.765625 -17.285156 12.765625 -14.921875 Z M 12.765625 0 "/></g></g></g><g fill="#242536" fill-opacity="1"><g transform="translate(133.471997, 184.512623)"><g><path d="M 8.359375 0 C 8.222656 -0.726562 7.925781 -1.6875 7.46875 -2.875 C 7.019531 -4.0625 6.40625 -5.5 5.625 -7.1875 C 5.539062 -7.09375 5.476562 -7.019531 5.4375 -6.96875 C 5.394531 -6.914062 5.367188 -6.882812 5.359375 -6.875 C 5.347656 -6.832031 5.335938 -6.738281 5.328125 -6.59375 C 5.328125 -6.457031 5.328125 -6.265625 5.328125 -6.015625 L 5.328125 0 L 0.828125 0 L 0.828125 -5.515625 C 0.828125 -8.441406 1.726562 -10.335938 3.53125 -11.203125 C 1.800781 -14.585938 0.835938 -17.007812 0.640625 -18.46875 L 5.328125 -18.46875 C 5.554688 -17.425781 5.894531 -16.328125 6.34375 -15.171875 C 6.800781 -14.015625 7.375 -12.789062 8.0625 -11.5 C 8.320312 -11.6875 8.453125 -12.066406 8.453125 -12.640625 L 8.453125 -18.46875 L 13 -18.46875 L 13 -12.203125 C 13 -11.273438 12.710938 -10.367188 12.140625 -9.484375 C 11.578125 -8.609375 10.875 -7.941406 10.03125 -7.484375 C 11.96875 -3.617188 12.957031 -1.125 13 0 Z M 8.359375 0 "/></g></g></g><g fill="#242536" fill-opacity="1"><g transform="translate(147.113627, 184.512623)"><g/></g></g><g fill="#242536" fill-opacity="1"><g transform="translate(154.176093, 184.512623)"><g><path d="M 12.765625 0 L 8.265625 0 L 8.265625 -12.765625 C 8.265625 -13.347656 8 -13.640625 7.46875 -13.640625 L 6.859375 -13.640625 C 6.316406 -13.640625 6.046875 -13.347656 6.046875 -12.765625 L 6.046875 -2.21875 C 6.046875 -0.738281 5.425781 0 4.1875 0 L 0.3125 0 L 0.3125 -4.8125 L 1.09375 -4.8125 C 1.351562 -4.8125 1.484375 -4.925781 1.484375 -5.15625 L 1.484375 -14.921875 C 1.484375 -16.179688 1.726562 -17.085938 2.21875 -17.640625 C 2.707031 -18.191406 3.566406 -18.46875 4.796875 -18.46875 L 9.671875 -18.46875 C 11.734375 -18.46875 12.765625 -17.285156 12.765625 -14.921875 Z M 12.765625 0 "/></g></g></g><g fill="#242536" fill-opacity="1"><g transform="translate(167.755362, 184.512623)"><g><path d="M 5.296875 0 L 0.796875 0 L 0.796875 -18.46875 L 5.296875 -18.46875 Z M 5.296875 0 "/></g></g></g><g fill="#242536" fill-opacity="1"><g transform="translate(173.851222, 184.512623)"><g><path d="M 10.578125 -4.546875 C 10.578125 -1.515625 9.144531 0 6.28125 0 L 0.796875 0 L 0.796875 -4.8125 L 4.609375 -4.8125 C 5.554688 -4.8125 6.03125 -5.253906 6.03125 -6.140625 L 6.03125 -12.3125 C 6.03125 -13.195312 5.554688 -13.640625 4.609375 -13.640625 L 0.796875 -13.640625 L 0.796875 -18.46875 L 6.28125 -18.46875 C 9.144531 -18.46875 10.578125 -16.945312 10.578125 -13.90625 Z M 10.578125 -4.546875 "/></g></g></g><g fill="#242536" fill-opacity="1"><g transform="translate(185.216648, 184.512623)"><g><path d="M 5.234375 -10.28125 L 0.765625 -10.28125 L 0.765625 -18.46875 L 5.234375 -18.46875 Z M 5.234375 -10.28125 "/></g></g></g><g fill="#242536" fill-opacity="1"><g transform="translate(191.250146, 184.512623)"><g><path d="M 9.890625 0 L 5.3125 0 L 5.3125 -12.875 C 5.3125 -13.382812 5.046875 -13.640625 4.515625 -13.640625 L 0.484375 -13.640625 L 0.484375 -18.46875 L 6.625 -18.46875 C 7.582031 -18.46875 8.367188 -18.160156 8.984375 -17.546875 C 9.585938 -16.941406 9.890625 -16.15625 9.890625 -15.1875 Z M 9.890625 0 "/></g></g></g><g fill="#242536" fill-opacity="1"><g transform="translate(201.929594, 184.512623)"><g><path d="M 8.359375 0 C 8.222656 -0.726562 7.925781 -1.6875 7.46875 -2.875 C 7.019531 -4.0625 6.40625 -5.5 5.625 -7.1875 C 5.539062 -7.09375 5.476562 -7.019531 5.4375 -6.96875 C 5.394531 -6.914062 5.367188 -6.882812 5.359375 -6.875 C 5.347656 -6.832031 5.335938 -6.738281 5.328125 -6.59375 C 5.328125 -6.457031 5.328125 -6.265625 5.328125 -6.015625 L 5.328125 0 L 0.828125 0 L 0.828125 -5.515625 C 0.828125 -8.441406 1.726562 -10.335938 3.53125 -11.203125 C 1.800781 -14.585938 0.835938 -17.007812 0.640625 -18.46875 L 5.328125 -18.46875 C 5.554688 -17.425781 5.894531 -16.328125 6.34375 -15.171875 C 6.800781 -14.015625 7.375 -12.789062 8.0625 -11.5 C 8.320312 -11.6875 8.453125 -12.066406 8.453125 -12.640625 L 8.453125 -18.46875 L 13 -18.46875 L 13 -12.203125 C 13 -11.273438 12.710938 -10.367188 12.140625 -9.484375 C 11.578125 -8.609375 10.875 -7.941406 10.03125 -7.484375 C 11.96875 -3.617188 12.957031 -1.125 13 0 Z M 8.359375 0 "/></g></g></g><g fill="#242536" fill-opacity="1"><g transform="translate(215.571224, 184.512623)"><g><path d="M 13.046875 -3.328125 C 13.046875 -1.109375 12.046875 0 10.046875 0 L 6.859375 0 L 6.859375 -4.828125 L 7.8125 -4.828125 C 8.28125 -4.828125 8.515625 -5.109375 8.515625 -5.671875 L 8.515625 -12.703125 C 8.515625 -13.265625 8.375 -13.546875 8.09375 -13.546875 C 7.8125 -13.546875 7.617188 -13.226562 7.515625 -12.59375 L 5.25 0 L 0.796875 0 L 2.703125 -10.3125 L 1.8125 -10.3125 C 1.113281 -10.3125 0.765625 -10.65625 0.765625 -11.34375 L 0.765625 -18.46875 L 5.28125 -18.46875 L 5.28125 -11.953125 L 6.1875 -15.515625 C 6.6875 -17.484375 7.765625 -18.46875 9.421875 -18.46875 L 9.65625 -18.46875 C 11.914062 -18.46875 13.046875 -17.082031 13.046875 -14.3125 Z M 13.046875 -3.328125 "/></g></g></g><g fill="#242536" fill-opacity="1"><g transform="translate(229.41553, 184.512623)"><g/></g></g><g fill="#242536" fill-opacity="1"><g transform="translate(236.477996, 184.512623)"><g><path d="M 8.359375 0 C 8.222656 -0.726562 7.925781 -1.6875 7.46875 -2.875 C 7.019531 -4.0625 6.40625 -5.5 5.625 -7.1875 C 5.539062 -7.09375 5.476562 -7.019531 5.4375 -6.96875 C 5.394531 -6.914062 5.367188 -6.882812 5.359375 -6.875 C 5.347656 -6.832031 5.335938 -6.738281 5.328125 -6.59375 C 5.328125 -6.457031 5.328125 -6.265625 5.328125 -6.015625 L 5.328125 0 L 0.828125 0 L 0.828125 -5.515625 C 0.828125 -8.441406 1.726562 -10.335938 3.53125 -11.203125 C 1.800781 -14.585938 0.835938 -17.007812 0.640625 -18.46875 L 5.328125 -18.46875 C 5.554688 -17.425781 5.894531 -16.328125 6.34375 -15.171875 C 6.800781 -14.015625 7.375 -12.789062 8.0625 -11.5 C 8.320312 -11.6875 8.453125 -12.066406 8.453125 -12.640625 L 8.453125 -18.46875 L 13 -18.46875 L 13 -12.203125 C 13 -11.273438 12.710938 -10.367188 12.140625 -9.484375 C 11.578125 -8.609375 10.875 -7.941406 10.03125 -7.484375 C 11.96875 -3.617188 12.957031 -1.125 13 0 Z M 8.359375 0 "/></g></g></g><g fill="#242536" fill-opacity="1"><g transform="translate(250.119627, 184.512623)"><g><path d="M 11.03125 -6.671875 C 11.03125 -2.222656 8.894531 0 4.625 0 L 2.6875 0 L 2.6875 -4.8125 L 4 -4.8125 C 5 -4.8125 5.679688 -5.132812 6.046875 -5.78125 C 6.304688 -6.238281 6.4375 -7.035156 6.4375 -8.171875 L 6.4375 -12.875 C 6.4375 -13.382812 6.175781 -13.640625 5.65625 -13.640625 L 0.796875 -13.640625 L 0.796875 -20.75 L 5.3125 -20.75 L 5.3125 -18.46875 L 8.71875 -18.46875 C 10.257812 -18.46875 11.03125 -17.722656 11.03125 -16.234375 Z M 11.03125 -6.671875 "/></g></g></g><g fill="#242536" fill-opacity="1"><g transform="translate(261.937176, 184.512623)"><g/></g></g><g fill="#242536" fill-opacity="1"><g transform="translate(268.999654, 184.512623)"><g><path d="M 8.59375 -6.609375 L 0.953125 -6.609375 L 0.953125 -11.4375 L 8.59375 -11.4375 Z M 8.59375 -6.609375 "/></g></g></g><g fill="#242536" fill-opacity="1"><g transform="translate(278.541, 184.512623)"><g/></g></g><g fill="#242536" fill-opacity="1"><g transform="translate(285.603456, 184.512623)"><g><path d="M 12.765625 0 L 8.265625 0 L 8.265625 -12.765625 C 8.265625 -13.347656 8 -13.640625 7.46875 -13.640625 L 6.859375 -13.640625 C 6.316406 -13.640625 6.046875 -13.347656 6.046875 -12.765625 L 6.046875 -2.21875 C 6.046875 -0.738281 5.425781 0 4.1875 0 L 0.3125 0 L 0.3125 -4.8125 L 1.09375 -4.8125 C 1.351562 -4.8125 1.484375 -4.925781 1.484375 -5.15625 L 1.484375 -14.921875 C 1.484375 -16.179688 1.726562 -17.085938 2.21875 -17.640625 C 2.707031 -18.191406 3.566406 -18.46875 4.796875 -18.46875 L 9.671875 -18.46875 C 11.734375 -18.46875 12.765625 -17.285156 12.765625 -14.921875 Z M 12.765625 0 "/></g></g></g><g fill="#242536" fill-opacity="1"><g transform="translate(299.182735, 184.512623)"><g><path d="M 5.296875 0 L 0.796875 0 L 0.796875 -18.46875 L 5.296875 -18.46875 Z M 5.296875 0 "/></g></g></g><g fill="#242536" fill-opacity="1"><g transform="translate(305.278606, 184.512623)"><g><path d="M 12.21875 -4.859375 C 12.21875 -1.617188 10.890625 0 8.234375 0 L 0.484375 0 L 0.484375 -4.8125 L 1.578125 -4.8125 L 1.578125 -18.46875 L 6.078125 -18.46875 L 6.078125 -4.8125 L 6.984375 -4.8125 C 7.503906 -4.8125 7.765625 -5.171875 7.765625 -5.890625 L 7.765625 -18.46875 L 12.21875 -18.46875 Z M 12.21875 -4.859375 "/></g></g></g><g fill="#242536" fill-opacity="1"><g transform="translate(318.296631, 184.512623)"><g><path d="M 5.140625 -13.21875 L 5.84375 -13.21875 C 6.351562 -13.21875 6.609375 -13.492188 6.609375 -14.046875 L 6.609375 -18.46875 L 10.78125 -18.46875 L 10.78125 -13.28125 C 10.78125 -11.132812 9.847656 -10.0625 7.984375 -10.0625 L 5.140625 -10.0625 L 5.140625 -5.65625 C 5.140625 -5.09375 5.375 -4.8125 5.84375 -4.8125 L 11.546875 -4.8125 C 11.992188 -4.8125 12.21875 -5.09375 12.21875 -5.65625 L 12.21875 -18.46875 L 16.59375 -18.46875 L 16.59375 -4.1875 C 16.59375 -2.925781 16.265625 -1.921875 15.609375 -1.171875 C 14.921875 -0.390625 13.945312 0 12.6875 0 L 4.6875 0 C 2.09375 0 0.796875 -1.394531 0.796875 -4.1875 L 0.796875 -18.46875 L 5.140625 -18.46875 Z M 5.140625 -13.21875 "/></g></g></g><g fill="#242536" fill-opacity="1"><g transform="translate(335.679977, 184.512623)"><g><path d="M 11.84375 0 L 7.25 0 L 7.25 -12.875 C 7.25 -13.382812 6.988281 -13.640625 6.46875 -13.640625 L 0.796875 -13.640625 L 0.796875 -18.46875 L 8.578125 -18.46875 C 9.535156 -18.46875 10.320312 -18.160156 10.9375 -17.546875 C 11.539062 -16.941406 11.84375 -16.15625 11.84375 -15.1875 Z M 5.296875 0 L 0.8125 0 L 0.8125 -11.453125 L 5.296875 -11.453125 Z M 5.296875 0 "/></g></g></g><g fill="#242536" fill-opacity="1"><g transform="translate(348.308229, 184.512623)"><g/></g></g><g fill="#242536" fill-opacity="1"><g transform="translate(355.373408, 184.512623)"><g><path d="M 11.4375 0 L 1.375 0 L 1.375 -2.046875 C 1.375 -3.765625 1.929688 -5.222656 3.046875 -6.421875 L 5.328125 -8.875 C 5.628906 -9.207031 5.875 -9.472656 6.0625 -9.671875 C 6.25 -9.878906 6.367188 -10.023438 6.421875 -10.109375 C 6.753906 -10.597656 6.921875 -11.128906 6.921875 -11.703125 L 6.921875 -13.625 L 5.546875 -13.625 L 5.546875 -11.828125 L 1.0625 -11.828125 L 1.0625 -14.90625 C 1.0625 -15.925781 1.46875 -16.78125 2.28125 -17.46875 C 3.039062 -18.132812 3.9375 -18.46875 4.96875 -18.46875 L 7.890625 -18.46875 C 10.253906 -18.46875 11.4375 -17.28125 11.4375 -14.90625 L 11.4375 -11.5 C 11.4375 -10.007812 10.773438 -8.507812 9.453125 -7 L 7.53125 -4.8125 L 11.4375 -4.8125 Z M 11.4375 0 "/></g></g></g><g fill="#242536" fill-opacity="1"><g transform="translate(367.830165, 184.512623)"><g><path d="M 12.609375 -3.515625 L 11.703125 -3.515625 L 11.703125 0 L 7.1875 0 L 7.1875 -3.515625 L -0.15625 -3.515625 L 3.359375 -18.46875 L 8.046875 -18.46875 L 5.71875 -8.34375 L 7.1875 -8.34375 L 7.1875 -11.53125 L 11.703125 -11.53125 L 11.703125 -8.34375 L 12.609375 -8.34375 Z M 12.609375 -3.515625 "/></g></g></g><g fill="#242536" fill-opacity="1"><g transform="translate(380.296901, 184.512623)"><g/></g></g><g fill="#242536" fill-opacity="1"><g transform="translate(387.359368, 184.512623)"><g><path d="M 9.890625 2.625 L 5.3125 2.625 L 5.3125 -12.875 C 5.3125 -13.382812 5.046875 -13.640625 4.515625 -13.640625 L 0.484375 -13.640625 L 0.484375 -18.46875 L 6.625 -18.46875 C 7.582031 -18.46875 8.367188 -18.160156 8.984375 -17.546875 C 9.585938 -16.941406 9.890625 -16.15625 9.890625 -15.1875 Z M 9.890625 2.625 "/></g></g></g><g fill="#242536" fill-opacity="1"><g transform="translate(398.038815, 184.512623)"><g><path d="M 5.296875 0 L 0.796875 0 L 0.796875 -18.46875 L 5.296875 -18.46875 Z M 5.296875 0 "/></g></g></g><g fill="#242536" fill-opacity="1"><g transform="translate(404.134675, 184.512623)"><g><path d="M 12.765625 0 L 8.265625 0 L 8.265625 -12.765625 C 8.265625 -13.347656 8 -13.640625 7.46875 -13.640625 L 6.859375 -13.640625 C 6.316406 -13.640625 6.046875 -13.347656 6.046875 -12.765625 L 6.046875 -2.21875 C 6.046875 -0.738281 5.425781 0 4.1875 0 L 0.3125 0 L 0.3125 -4.8125 L 1.09375 -4.8125 C 1.351562 -4.8125 1.484375 -4.925781 1.484375 -5.15625 L 1.484375 -14.921875 C 1.484375 -16.179688 1.726562 -17.085938 2.21875 -17.640625 C 2.707031 -18.191406 3.566406 -18.46875 4.796875 -18.46875 L 9.671875 -18.46875 C 11.734375 -18.46875 12.765625 -17.285156 12.765625 -14.921875 Z M 12.765625 0 "/></g></g></g><g fill="#242536" fill-opacity="1"><g transform="translate(417.713943, 184.512623)"><g><path d="M 11.34375 0 L 0.796875 0 L 0.796875 -4.8125 L 4.296875 -4.8125 C 5.328125 -4.8125 5.84375 -5.421875 5.84375 -6.640625 L 5.84375 -12.171875 C 5.84375 -12.710938 5.75 -13.09375 5.5625 -13.3125 C 5.375 -13.53125 5.015625 -13.640625 4.484375 -13.640625 L 0.796875 -13.640625 L 0.796875 -18.46875 L 6.859375 -18.46875 C 9.242188 -18.46875 10.4375 -17.054688 10.4375 -14.234375 L 10.4375 -7.921875 C 10.4375 -6.285156 9.828125 -5.25 8.609375 -4.8125 L 11.34375 -4.8125 Z M 11.34375 0 "/></g></g></g><g fill="#242536" fill-opacity="1"><g transform="translate(429.687397, 184.512623)"><g/></g></g><g fill="#242536" fill-opacity="1"><g transform="translate(436.749864, 184.512623)"><g><path d="M 12.765625 0 L 8.265625 0 L 8.265625 -12.765625 C 8.265625 -13.347656 8 -13.640625 7.46875 -13.640625 L 6.859375 -13.640625 C 6.316406 -13.640625 6.046875 -13.347656 6.046875 -12.765625 L 6.046875 -2.21875 C 6.046875 -0.738281 5.425781 0 4.1875 0 L 0.3125 0 L 0.3125 -4.8125 L 1.09375 -4.8125 C 1.351562 -4.8125 1.484375 -4.925781 1.484375 -5.15625 L 1.484375 -14.921875 C 1.484375 -16.179688 1.726562 -17.085938 2.21875 -17.640625 C 2.707031 -18.191406 3.566406 -18.46875 4.796875 -18.46875 L 9.671875 -18.46875 C 11.734375 -18.46875 12.765625 -17.285156 12.765625 -14.921875 Z M 12.765625 0 "/></g></g></g><g fill="#242536" fill-opacity="1"><g transform="translate(450.329132, 184.512623)"><g><path d="M 5.296875 0 L 0.796875 0 L 0.796875 -18.46875 L 5.296875 -18.46875 Z M 5.296875 0 "/></g></g></g><g fill="#242536" fill-opacity="1"><g transform="translate(456.424992, 184.512623)"><g><path d="M 11.8125 -3.59375 C 11.8125 -1.195312 10.648438 0 8.328125 0 L 0.828125 0 L 0.828125 -4.8125 L 6.40625 -4.8125 C 7.019531 -4.8125 7.328125 -5.175781 7.328125 -5.90625 L 7.328125 -12.875 C 7.328125 -13.382812 7.09375 -13.640625 6.625 -13.640625 L 6 -13.640625 C 5.570312 -13.640625 5.359375 -13.375 5.359375 -12.84375 L 5.359375 -10.140625 L 0.796875 -10.140625 L 0.796875 -15.1875 C 0.796875 -17.375 1.847656 -18.46875 3.953125 -18.46875 L 8.5625 -18.46875 C 9.539062 -18.46875 10.328125 -18.164062 10.921875 -17.5625 C 11.515625 -16.945312 11.8125 -16.15625 11.8125 -15.1875 Z M 11.8125 -3.59375 "/></g></g></g><g fill="#242536" fill-opacity="1"><g transform="translate(469.037654, 184.512623)"><g><path d="M 12.578125 -5.53125 C 12.578125 -3.726562 12.070312 -2.285156 11.0625 -1.203125 C 10.007812 -0.0859375 8.585938 0.46875 6.796875 0.46875 C 4.953125 0.46875 3.492188 -0.0703125 2.421875 -1.15625 C 1.335938 -2.238281 0.796875 -3.695312 0.796875 -5.53125 L 0.796875 -15.515625 C 0.796875 -16.046875 0.847656 -16.5 0.953125 -16.875 C 1.054688 -17.25 1.222656 -17.550781 1.453125 -17.78125 C 1.679688 -18.019531 1.976562 -18.191406 2.34375 -18.296875 C 2.71875 -18.410156 3.171875 -18.46875 3.703125 -18.46875 L 9.65625 -18.46875 C 11.601562 -18.46875 12.578125 -17.484375 12.578125 -15.515625 Z M 8.03125 -13.265625 C 8.03125 -13.515625 7.925781 -13.640625 7.71875 -13.640625 L 5.625 -13.640625 C 5.414062 -13.640625 5.3125 -13.515625 5.3125 -13.265625 L 5.3125 -6.03125 C 5.3125 -4.894531 5.785156 -4.328125 6.734375 -4.328125 C 7.597656 -4.328125 8.03125 -4.894531 8.03125 -6.03125 Z M 8.03125 -13.265625 "/></g></g></g><g fill="#242536" fill-opacity="1"><g transform="translate(482.414247, 184.512623)"><g><path d="M 5.296875 0 L 0.796875 0 L 0.796875 -18.46875 L 5.296875 -18.46875 Z M 5.296875 0 "/></g></g></g><g fill="#242536" fill-opacity="1"><g transform="translate(488.510106, 184.512623)"><g><path d="M 8.953125 -2.90625 C 8.953125 -0.96875 8.035156 0 6.203125 0 L 0.640625 0 L 0.640625 -4.8125 L 3.84375 -4.8125 C 4.207031 -4.8125 4.390625 -5.039062 4.390625 -5.5 L 4.390625 -12.875 C 4.390625 -13.382812 4.164062 -13.640625 3.71875 -13.640625 L 1.96875 -13.640625 L 1.96875 -18.46875 L 6.125 -18.46875 C 8.007812 -18.46875 8.953125 -17.492188 8.953125 -15.546875 Z M 8.953125 -2.90625 "/></g></g></g><g fill="#242536" fill-opacity="1"><g transform="translate(498.254128, 184.512623)"><g/></g></g><g fill="#242536" fill-opacity="1"><g transform="translate(505.316595, 184.512623)"><g><path d="M 12.765625 0 L 8.265625 0 L 8.265625 -12.765625 C 8.265625 -13.347656 8 -13.640625 7.46875 -13.640625 L 6.859375 -13.640625 C 6.316406 -13.640625 6.046875 -13.347656 6.046875 -12.765625 L 6.046875 -2.21875 C 6.046875 -0.738281 5.425781 0 4.1875 0 L 0.3125 0 L 0.3125 -4.8125 L 1.09375 -4.8125 C 1.351562 -4.8125 1.484375 -4.925781 1.484375 -5.15625 L 1.484375 -14.921875 C 1.484375 -16.179688 1.726562 -17.085938 2.21875 -17.640625 C 2.707031 -18.191406 3.566406 -18.46875 4.796875 -18.46875 L 9.671875 -18.46875 C 11.734375 -18.46875 12.765625 -17.285156 12.765625 -14.921875 Z M 12.765625 0 "/></g></g></g><g fill="#242536" fill-opacity="1"><g transform="translate(518.895863, 184.512623)"><g><path d="M 5.296875 0 L 0.796875 0 L 0.796875 -18.46875 L 5.296875 -18.46875 Z M 5.296875 0 "/></g></g></g><g fill="#242536" fill-opacity="1"><g transform="translate(524.991723, 184.512623)"><g><path d="M 11.8125 -3.59375 C 11.8125 -1.195312 10.648438 0 8.328125 0 L 0.828125 0 L 0.828125 -4.8125 L 6.40625 -4.8125 C 7.019531 -4.8125 7.328125 -5.175781 7.328125 -5.90625 L 7.328125 -12.875 C 7.328125 -13.382812 7.09375 -13.640625 6.625 -13.640625 L 6 -13.640625 C 5.570312 -13.640625 5.359375 -13.375 5.359375 -12.84375 L 5.359375 -10.140625 L 0.796875 -10.140625 L 0.796875 -15.1875 C 0.796875 -17.375 1.847656 -18.46875 3.953125 -18.46875 L 8.5625 -18.46875 C 9.539062 -18.46875 10.328125 -18.164062 10.921875 -17.5625 C 11.515625 -16.945312 11.8125 -16.15625 11.8125 -15.1875 Z M 11.8125 -3.59375 "/></g></g></g><g fill="#242536" fill-opacity="1"><g transform="translate(537.604385, 184.512623)"><g><path d="M 11.96875 -5.703125 C 11.96875 -3.828125 11.660156 -2.441406 11.046875 -1.546875 C 10.296875 -0.484375 9.019531 0.046875 7.21875 0.046875 C 6.894531 0.046875 6.554688 0.03125 6.203125 0 L 6.203125 -4.8125 C 6.992188 -4.8125 7.390625 -5.394531 7.390625 -6.5625 L 7.390625 -12.875 C 7.390625 -13.382812 7.125 -13.640625 6.59375 -13.640625 L 0.796875 -13.640625 L 0.796875 -18.46875 L 9.65625 -18.46875 C 11.195312 -18.46875 11.96875 -17.722656 11.96875 -16.234375 Z M 5.328125 2.671875 L 0.828125 2.671875 L 0.828125 -11.625 L 5.328125 -11.625 Z M 5.328125 2.671875 "/></g></g></g><g fill="#242536" fill-opacity="1"><g transform="translate(550.37295, 184.512623)"><g><path d="M 12.765625 0 L 8.265625 0 L 8.265625 -12.765625 C 8.265625 -13.347656 8 -13.640625 7.46875 -13.640625 L 6.859375 -13.640625 C 6.316406 -13.640625 6.046875 -13.347656 6.046875 -12.765625 L 6.046875 -2.21875 C 6.046875 -0.738281 5.425781 0 4.1875 0 L 0.3125 0 L 0.3125 -4.8125 L 1.09375 -4.8125 C 1.351562 -4.8125 1.484375 -4.925781 1.484375 -5.15625 L 1.484375 -14.921875 C 1.484375 -16.179688 1.726562 -17.085938 2.21875 -17.640625 C 2.707031 -18.191406 3.566406 -18.46875 4.796875 -18.46875 L 9.671875 -18.46875 C 11.734375 -18.46875 12.765625 -17.285156 12.765625 -14.921875 Z M 12.765625 0 "/></g></g></g><g fill="#242536" fill-opacity="1"><g transform="translate(563.952219, 184.512623)"><g><path d="M 11.84375 0 L 7.25 0 L 7.25 -12.875 C 7.25 -13.382812 6.988281 -13.640625 6.46875 -13.640625 L 0.796875 -13.640625 L 0.796875 -18.46875 L 8.578125 -18.46875 C 9.535156 -18.46875 10.320312 -18.160156 10.9375 -17.546875 C 11.539062 -16.941406 11.84375 -16.15625 11.84375 -15.1875 Z M 5.296875 0 L 0.8125 0 L 0.8125 -11.453125 L 5.296875 -11.453125 Z M 5.296875 0 "/></g></g></g><g fill="#242536" fill-opacity="1"><g transform="translate(361.994329, 254.465677)"><g><path d="M 11.515625 -26.109375 C 11.515625 -24.765625 10.9375 -23.46875 9.78125 -22.21875 C 8.820312 -21.1875 7.738281 -20.398438 6.53125 -19.859375 L 6.53125 -31.75 L 11.515625 -31.75 Z M 5.40625 -26.109375 C 5.40625 -23.640625 3.757812 -21.554688 0.46875 -19.859375 L 0.46875 -31.75 L 5.40625 -31.75 Z M 5.40625 -26.109375 "/></g></g><g transform="translate(373.970707, 254.465677)"><g><path d="M 17.6875 3.9375 L 10.953125 3.9375 L 10.953125 -19.328125 C 10.953125 -20.085938 10.566406 -20.46875 9.796875 -20.46875 L 9 -20.46875 C 8.363281 -20.46875 8.046875 -20.070312 8.046875 -19.28125 L 8.046875 -15.203125 L 1.1875 -15.203125 L 1.1875 -22.78125 C 1.1875 -26.0625 2.925781 -27.703125 6.40625 -27.703125 L 12.34375 -27.703125 C 13.8125 -27.703125 15.050781 -27.253906 16.0625 -26.359375 C 17.144531 -25.421875 17.6875 -24.226562 17.6875 -22.78125 Z M 17.6875 3.9375 "/></g></g><g transform="translate(392.847536, 254.465677)"><g><path d="M 17.9375 -8.5625 C 17.9375 -5.738281 17.476562 -3.65625 16.5625 -2.3125 C 15.4375 -0.726562 13.523438 0.0625 10.828125 0.0625 C 10.347656 0.0625 9.84375 0.0390625 9.3125 0 L 9.3125 -7.234375 C 10.5 -7.234375 11.09375 -8.101562 11.09375 -9.84375 L 11.09375 -19.328125 C 11.09375 -20.085938 10.691406 -20.46875 9.890625 -20.46875 L 1.1875 -20.46875 L 1.1875 -27.703125 L 14.484375 -27.703125 C 16.785156 -27.703125 17.9375 -26.582031 17.9375 -24.34375 Z M 8 4 L 1.234375 4 L 1.234375 -17.421875 L 8 -17.421875 Z M 8 4 "/></g></g><g transform="translate(412.005062, 254.465677)"><g><path d="M 19.15625 0 L 12.390625 0 L 12.390625 -19.15625 C 12.390625 -20.03125 11.992188 -20.46875 11.203125 -20.46875 L 10.296875 -20.46875 C 9.484375 -20.46875 9.078125 -20.03125 9.078125 -19.15625 L 9.078125 -3.328125 C 9.078125 -1.109375 8.148438 0 6.296875 0 L 0.46875 0 L 0.46875 -7.234375 L 1.640625 -7.234375 C 2.023438 -7.234375 2.21875 -7.40625 2.21875 -7.75 L 2.21875 -22.390625 C 2.21875 -24.273438 2.585938 -25.628906 3.328125 -26.453125 C 4.054688 -27.285156 5.347656 -27.703125 7.203125 -27.703125 L 14.5 -27.703125 C 17.601562 -27.703125 19.15625 -25.929688 19.15625 -22.390625 Z M 19.15625 0 "/></g></g><g transform="translate(432.378939, 254.465677)"><g><path d="M 7.953125 0 L 1.1875 0 L 1.1875 -27.703125 L 7.953125 -27.703125 Z M 7.953125 0 "/></g></g><g transform="translate(441.524962, 254.465677)"><g><path d="M 19.578125 -4.984375 C 19.578125 -1.660156 18.070312 0 15.0625 0 L 10.296875 0 L 10.296875 -7.25 L 11.71875 -7.25 C 12.414062 -7.25 12.765625 -7.671875 12.765625 -8.515625 L 12.765625 -19.0625 C 12.765625 -19.90625 12.554688 -20.328125 12.140625 -20.328125 C 11.722656 -20.328125 11.4375 -19.851562 11.28125 -18.90625 L 7.890625 0 L 1.1875 0 L 4.046875 -15.46875 L 2.71875 -15.46875 C 1.664062 -15.46875 1.140625 -15.976562 1.140625 -17 L 1.140625 -27.703125 L 7.9375 -27.703125 L 7.9375 -17.921875 L 9.28125 -23.28125 C 10.03125 -26.226562 11.644531 -27.703125 14.125 -27.703125 L 14.484375 -27.703125 C 17.878906 -27.703125 19.578125 -25.625 19.578125 -21.46875 Z M 19.578125 -4.984375 "/></g></g><g transform="translate(462.296492, 254.465677)"><g><path d="M 17.75 0 L 10.875 0 L 10.875 -19.328125 C 10.875 -20.085938 10.484375 -20.46875 9.703125 -20.46875 L 1.1875 -20.46875 L 1.1875 -27.703125 L 12.859375 -27.703125 C 14.296875 -27.703125 15.472656 -27.238281 16.390625 -26.3125 C 17.296875 -25.40625 17.75 -24.226562 17.75 -22.78125 Z M 7.953125 0 L 1.21875 0 L 1.21875 -17.171875 L 7.953125 -17.171875 Z M 7.953125 0 "/></g></g><g transform="translate(481.243495, 254.465677)"><g/></g><g transform="translate(491.839782, 254.465677)"><g><path d="M 18.0625 0 L 11.28125 0 L 11.28125 -19.15625 C 11.28125 -20.03125 10.878906 -20.46875 10.078125 -20.46875 L 9.265625 -20.46875 C 8.460938 -20.46875 8.0625 -20.03125 8.0625 -19.15625 L 8.0625 0 L 1.1875 0 L 1.1875 -22.859375 C 1.1875 -24.585938 1.476562 -25.796875 2.0625 -26.484375 C 2.71875 -27.296875 3.882812 -27.703125 5.5625 -27.703125 L 13.375 -27.703125 C 16.5 -27.703125 18.0625 -26.085938 18.0625 -22.859375 Z M 18.0625 0 "/></g></g><g transform="translate(511.090874, 254.465677)"><g><path d="M 18.71875 -5.328125 C 18.71875 -1.773438 17.25 0 14.3125 0 L 5.59375 0 C 4.113281 0 2.988281 -0.535156 2.21875 -1.609375 C 1.53125 -2.578125 1.1875 -3.816406 1.1875 -5.328125 L 1.1875 -27.703125 L 7.9375 -27.703125 L 7.9375 -18.96875 L 9.265625 -23.703125 C 10.015625 -26.367188 11.378906 -27.703125 13.359375 -27.703125 L 14.734375 -27.703125 C 17.390625 -27.703125 18.71875 -26.257812 18.71875 -23.375 Z M 12 -19.84375 C 12 -20.132812 11.9375 -20.28125 11.8125 -20.28125 C 11.71875 -20.28125 11.640625 -20.15625 11.578125 -19.90625 L 10.59375 -16.234375 L 7.9375 -16.234375 L 7.9375 -8.484375 C 7.9375 -7.648438 8.273438 -7.234375 8.953125 -7.234375 L 10.953125 -7.234375 C 11.648438 -7.234375 12 -7.648438 12 -8.484375 Z M 12 -19.84375 "/></g></g><g transform="translate(530.996923, 254.465677)"><g><path d="M 7.71875 -19.84375 L 8.765625 -19.84375 C 9.535156 -19.84375 9.921875 -20.253906 9.921875 -21.078125 L 9.921875 -27.703125 L 16.15625 -27.703125 L 16.15625 -19.9375 C 16.15625 -16.707031 14.765625 -15.09375 11.984375 -15.09375 L 7.71875 -15.09375 L 7.71875 -8.484375 C 7.71875 -7.648438 8.066406 -7.234375 8.765625 -7.234375 L 17.3125 -7.234375 C 18 -7.234375 18.34375 -7.648438 18.34375 -8.484375 L 18.34375 -27.703125 L 24.890625 -27.703125 L 24.890625 -6.296875 C 24.890625 -4.390625 24.398438 -2.875 23.421875 -1.75 C 22.390625 -0.582031 20.929688 0 19.046875 0 L 7.046875 0 C 3.140625 0 1.1875 -2.097656 1.1875 -6.296875 L 1.1875 -27.703125 L 7.71875 -27.703125 Z M 7.71875 -19.84375 "/></g></g><g transform="translate(557.078292, 254.465677)"><g><path d="M 17.75 0 L 10.875 0 L 10.875 -19.328125 C 10.875 -20.085938 10.484375 -20.46875 9.703125 -20.46875 L 1.1875 -20.46875 L 1.1875 -27.703125 L 12.859375 -27.703125 C 14.296875 -27.703125 15.472656 -27.238281 16.390625 -26.3125 C 17.296875 -25.40625 17.75 -24.226562 17.75 -22.78125 Z M 7.953125 0 L 1.21875 0 L 1.21875 -17.171875 L 7.953125 -17.171875 Z M 7.953125 0 "/></g></g><g transform="translate(576.025296, 254.465677)"><g><path d="M 0.46875 -25.5 C 0.46875 -26.84375 1.046875 -28.132812 2.203125 -29.375 C 3.148438 -30.40625 4.234375 -31.195312 5.453125 -31.75 L 5.453125 -19.859375 L 0.46875 -19.859375 Z M 6.578125 -25.5 C 6.578125 -27.957031 8.222656 -30.039062 11.515625 -31.75 L 11.515625 -19.859375 L 6.578125 -19.859375 Z M 6.578125 -25.5 "/></g></g></g><g fill="#242536" fill-opacity="1"><g transform="translate(262.370515, 294.023628)"><g><path d="M 12.34375 0 L 0.796875 0 L 0.796875 -15.234375 C 0.796875 -16.390625 0.988281 -17.195312 1.375 -17.65625 C 1.8125 -18.195312 2.59375 -18.46875 3.71875 -18.46875 L 9.234375 -18.46875 C 11.304688 -18.46875 12.34375 -17.390625 12.34375 -15.234375 Z M 7.84375 -12.765625 C 7.84375 -13.347656 7.578125 -13.640625 7.046875 -13.640625 L 6.171875 -13.640625 C 5.640625 -13.640625 5.375 -13.347656 5.375 -12.765625 L 5.375 -4.8125 L 7.84375 -4.8125 Z M 7.84375 -12.765625 "/></g></g></g><g fill="#242536" fill-opacity="1"><g transform="translate(275.513251, 294.023628)"><g><path d="M 5.234375 -10.28125 L 0.765625 -10.28125 L 0.765625 -18.46875 L 5.234375 -18.46875 Z M 5.234375 -10.28125 "/></g></g></g><g fill="#242536" fill-opacity="1"><g transform="translate(281.546749, 294.023628)"><g><path d="M 5.234375 -10.28125 L 0.765625 -10.28125 L 0.765625 -18.46875 L 5.234375 -18.46875 Z M 5.234375 -10.28125 "/></g></g></g><g fill="#242536" fill-opacity="1"><g transform="translate(287.580247, 294.023628)"><g><path d="M 12.21875 -4.859375 C 12.21875 -1.617188 10.890625 0 8.234375 0 L 0.484375 0 L 0.484375 -4.8125 L 1.578125 -4.8125 L 1.578125 -18.46875 L 6.078125 -18.46875 L 6.078125 -4.8125 L 6.984375 -4.8125 C 7.503906 -4.8125 7.765625 -5.171875 7.765625 -5.890625 L 7.765625 -18.46875 L 12.21875 -18.46875 Z M 12.21875 -4.859375 "/></g></g></g><g fill="#242536" fill-opacity="1"><g transform="translate(300.59826, 294.023628)"><g><path d="M 5.296875 0 L 0.796875 0 L 0.796875 -18.46875 L 5.296875 -18.46875 Z M 5.296875 0 "/></g></g></g><g fill="#242536" fill-opacity="1"><g transform="translate(306.69412, 294.023628)"><g><path d="M 0.890625 0 L 0.890625 -4.8125 L 6.15625 -4.828125 L 3.21875 -10.796875 C 1.476562 -14.304688 0.488281 -16.863281 0.25 -18.46875 L 5.03125 -18.46875 C 5.664062 -15.882812 6.554688 -13.601562 7.703125 -11.625 C 7.878906 -11.738281 7.988281 -11.945312 8.03125 -12.25 C 8.0625 -12.445312 8.078125 -12.679688 8.078125 -12.953125 L 8.078125 -18.46875 L 12.609375 -18.46875 L 12.609375 -12.203125 C 12.609375 -11.265625 12.328125 -10.363281 11.765625 -9.5 C 11.203125 -8.65625 10.5 -8.007812 9.65625 -7.5625 C 11.613281 -3.65625 12.597656 -1.132812 12.609375 0 Z M 0.890625 0 "/></g></g></g><g fill="#242536" fill-opacity="1"><g transform="translate(320.101893, 294.023628)"><g><path d="M 11.96875 -5.703125 C 11.96875 -3.828125 11.660156 -2.441406 11.046875 -1.546875 C 10.296875 -0.484375 9.019531 0.046875 7.21875 0.046875 C 6.894531 0.046875 6.554688 0.03125 6.203125 0 L 6.203125 -4.8125 C 6.992188 -4.8125 7.390625 -5.394531 7.390625 -6.5625 L 7.390625 -12.875 C 7.390625 -13.382812 7.125 -13.640625 6.59375 -13.640625 L 0.796875 -13.640625 L 0.796875 -18.46875 L 9.65625 -18.46875 C 11.195312 -18.46875 11.96875 -17.722656 11.96875 -16.234375 Z M 5.328125 2.671875 L 0.828125 2.671875 L 0.828125 -11.625 L 5.328125 -11.625 Z M 5.328125 2.671875 "/></g></g></g><g fill="#242536" fill-opacity="1"><g transform="translate(332.870458, 294.023628)"><g><path d="M 13.046875 -3.328125 C 13.046875 -1.109375 12.046875 0 10.046875 0 L 6.859375 0 L 6.859375 -4.828125 L 7.8125 -4.828125 C 8.28125 -4.828125 8.515625 -5.109375 8.515625 -5.671875 L 8.515625 -12.703125 C 8.515625 -13.265625 8.375 -13.546875 8.09375 -13.546875 C 7.8125 -13.546875 7.617188 -13.226562 7.515625 -12.59375 L 5.25 0 L 0.796875 0 L 2.703125 -10.3125 L 1.8125 -10.3125 C 1.113281 -10.3125 0.765625 -10.65625 0.765625 -11.34375 L 0.765625 -18.46875 L 5.28125 -18.46875 L 5.28125 -11.953125 L 6.1875 -15.515625 C 6.6875 -17.484375 7.765625 -18.46875 9.421875 -18.46875 L 9.65625 -18.46875 C 11.914062 -18.46875 13.046875 -17.082031 13.046875 -14.3125 Z M 13.046875 -3.328125 "/></g></g></g><g fill="#242536" fill-opacity="1"><g transform="translate(346.714764, 294.023628)"><g><path d="M 11.84375 0 L 7.25 0 L 7.25 -12.875 C 7.25 -13.382812 6.988281 -13.640625 6.46875 -13.640625 L 0.796875 -13.640625 L 0.796875 -18.46875 L 8.578125 -18.46875 C 9.535156 -18.46875 10.320312 -18.160156 10.9375 -17.546875 C 11.539062 -16.941406 11.84375 -16.15625 11.84375 -15.1875 Z M 5.296875 0 L 0.8125 0 L 0.8125 -11.453125 L 5.296875 -11.453125 Z M 5.296875 0 "/></g></g></g><g fill="#242536" fill-opacity="1"><g transform="translate(359.343016, 294.023628)"><g/></g></g><g fill="#242536" fill-opacity="1"><g transform="translate(366.405483, 294.023628)"><g><path d="M 12.34375 0 L 0.796875 0 L 0.796875 -15.234375 C 0.796875 -16.390625 0.988281 -17.195312 1.375 -17.65625 C 1.8125 -18.195312 2.59375 -18.46875 3.71875 -18.46875 L 9.234375 -18.46875 C 11.304688 -18.46875 12.34375 -17.390625 12.34375 -15.234375 Z M 7.84375 -12.765625 C 7.84375 -13.347656 7.578125 -13.640625 7.046875 -13.640625 L 6.171875 -13.640625 C 5.640625 -13.640625 5.375 -13.347656 5.375 -12.765625 L 5.375 -4.8125 L 7.84375 -4.8125 Z M 7.84375 -12.765625 "/></g></g></g><g fill="#242536" fill-opacity="1"><g transform="translate(379.548219, 294.023628)"><g><path d="M 5.234375 -10.28125 L 0.765625 -10.28125 L 0.765625 -18.46875 L 5.234375 -18.46875 Z M 5.234375 -10.28125 "/></g></g></g><g fill="#242536" fill-opacity="1"><g transform="translate(385.581717, 294.023628)"><g><path d="M 13.046875 -3.328125 C 13.046875 -1.109375 12.046875 0 10.046875 0 L 6.859375 0 L 6.859375 -4.828125 L 7.8125 -4.828125 C 8.28125 -4.828125 8.515625 -5.109375 8.515625 -5.671875 L 8.515625 -12.703125 C 8.515625 -13.265625 8.375 -13.546875 8.09375 -13.546875 C 7.8125 -13.546875 7.617188 -13.226562 7.515625 -12.59375 L 5.25 0 L 0.796875 0 L 2.703125 -10.3125 L 1.8125 -10.3125 C 1.113281 -10.3125 0.765625 -10.65625 0.765625 -11.34375 L 0.765625 -18.46875 L 5.28125 -18.46875 L 5.28125 -11.953125 L 6.1875 -15.515625 C 6.6875 -17.484375 7.765625 -18.46875 9.421875 -18.46875 L 9.65625 -18.46875 C 11.914062 -18.46875 13.046875 -17.082031 13.046875 -14.3125 Z M 13.046875 -3.328125 "/></g></g></g><g fill="#242536" fill-opacity="1"><g transform="translate(399.426022, 294.023628)"><g><path d="M 9.890625 0 L 5.3125 0 L 5.3125 -12.875 C 5.3125 -13.382812 5.046875 -13.640625 4.515625 -13.640625 L 0.484375 -13.640625 L 0.484375 -18.46875 L 6.625 -18.46875 C 7.582031 -18.46875 8.367188 -18.160156 8.984375 -17.546875 C 9.585938 -16.941406 9.890625 -16.15625 9.890625 -15.1875 Z M 9.890625 0 "/></g></g></g><g fill="#242536" fill-opacity="1"><g transform="translate(410.10547, 294.023628)"><g><path d="M 5.296875 0 L 0.796875 0 L 0.796875 -18.46875 L 5.296875 -18.46875 Z M 5.296875 0 "/></g></g></g><g fill="#242536" fill-opacity="1"><g transform="translate(416.20133, 294.023628)"><g><path d="M 10.953125 0 L 6.4375 0 L 5.625 -5.109375 C 5.300781 -5.109375 5.097656 -4.878906 5.015625 -4.421875 L 4.171875 0 L 0.15625 0 L 1.234375 -5.328125 C 1.710938 -7.742188 2.828125 -8.953125 4.578125 -8.953125 L 5.328125 -8.953125 L 5.328125 -12.875 C 5.328125 -13.382812 5.035156 -13.640625 4.453125 -13.640625 L 1.25 -13.640625 L 1.25 -18.46875 L 6.453125 -18.46875 C 8.734375 -18.46875 9.875 -17.269531 9.875 -14.875 L 9.875 -8.671875 C 9.875 -8.015625 9.890625 -7.410156 9.921875 -6.859375 C 9.960938 -6.304688 10.019531 -5.800781 10.09375 -5.34375 Z M 10.953125 0 "/></g></g></g><g fill="#242536" fill-opacity="1"><g transform="translate(427.473214, 294.023628)"><g><path d="M 11.03125 -6.671875 C 11.03125 -2.222656 8.894531 0 4.625 0 L 2.6875 0 L 2.6875 -4.8125 L 4 -4.8125 C 5 -4.8125 5.679688 -5.132812 6.046875 -5.78125 C 6.304688 -6.238281 6.4375 -7.035156 6.4375 -8.171875 L 6.4375 -12.875 C 6.4375 -13.382812 6.175781 -13.640625 5.65625 -13.640625 L 0.796875 -13.640625 L 0.796875 -20.75 L 5.3125 -20.75 L 5.3125 -18.46875 L 8.71875 -18.46875 C 10.257812 -18.46875 11.03125 -17.722656 11.03125 -16.234375 Z M 11.03125 -6.671875 "/></g></g></g><g fill="#242536" fill-opacity="1"><g transform="translate(439.290763, 294.023628)"><g/></g></g><g fill="#242536" fill-opacity="1"><g transform="translate(446.35323, 294.023628)"><g><path d="M 11.34375 0 L 0.796875 0 L 0.796875 -4.8125 L 4.296875 -4.8125 C 5.328125 -4.8125 5.84375 -5.421875 5.84375 -6.640625 L 5.84375 -12.171875 C 5.84375 -12.710938 5.75 -13.09375 5.5625 -13.3125 C 5.375 -13.53125 5.015625 -13.640625 4.484375 -13.640625 L 0.796875 -13.640625 L 0.796875 -18.46875 L 6.859375 -18.46875 C 9.242188 -18.46875 10.4375 -17.054688 10.4375 -14.234375 L 10.4375 -7.921875 C 10.4375 -6.285156 9.828125 -5.25 8.609375 -4.8125 L 11.34375 -4.8125 Z M 11.34375 0 "/></g></g></g><g fill="#242536" fill-opacity="1"><g transform="translate(458.326672, 294.023628)"><g><path d="M 12.03125 0 L 7.515625 0 L 7.515625 -12.765625 C 7.515625 -13.347656 7.25 -13.640625 6.71875 -13.640625 L 6.171875 -13.640625 C 5.640625 -13.640625 5.375 -13.347656 5.375 -12.765625 L 5.375 0 L 0.796875 0 L 0.796875 -15.234375 C 0.796875 -16.390625 0.988281 -17.195312 1.375 -17.65625 C 1.8125 -18.195312 2.59375 -18.46875 3.71875 -18.46875 L 8.921875 -18.46875 C 10.992188 -18.46875 12.03125 -17.390625 12.03125 -15.234375 Z M 12.03125 0 "/></g></g></g><g fill="#242536" fill-opacity="1"><g transform="translate(471.157612, 294.023628)"><g><path d="M 9.890625 0 L 5.3125 0 L 5.3125 -12.875 C 5.3125 -13.382812 5.046875 -13.640625 4.515625 -13.640625 L 0.484375 -13.640625 L 0.484375 -18.46875 L 6.625 -18.46875 C 7.582031 -18.46875 8.367188 -18.160156 8.984375 -17.546875 C 9.585938 -16.941406 9.890625 -16.15625 9.890625 -15.1875 Z M 9.890625 0 "/></g></g></g><g fill="#242536" fill-opacity="1"><g transform="translate(481.837048, 294.023628)"><g/></g></g><g fill="#242536" fill-opacity="1"><g transform="translate(488.899503, 294.023628)"><g><path d="M 12.765625 0 L 8.265625 0 L 8.265625 -12.765625 C 8.265625 -13.347656 8 -13.640625 7.46875 -13.640625 L 6.859375 -13.640625 C 6.316406 -13.640625 6.046875 -13.347656 6.046875 -12.765625 L 6.046875 -2.21875 C 6.046875 -0.738281 5.425781 0 4.1875 0 L 0.3125 0 L 0.3125 -4.8125 L 1.09375 -4.8125 C 1.351562 -4.8125 1.484375 -4.925781 1.484375 -5.15625 L 1.484375 -14.921875 C 1.484375 -16.179688 1.726562 -17.085938 2.21875 -17.640625 C 2.707031 -18.191406 3.566406 -18.46875 4.796875 -18.46875 L 9.671875 -18.46875 C 11.734375 -18.46875 12.765625 -17.285156 12.765625 -14.921875 Z M 12.765625 0 "/></g></g></g><g fill="#242536" fill-opacity="1"><g transform="translate(502.478783, 294.023628)"><g><path d="M 12.21875 -4.859375 C 12.21875 -1.617188 10.890625 0 8.234375 0 L 0.484375 0 L 0.484375 -4.8125 L 1.578125 -4.8125 L 1.578125 -18.46875 L 6.078125 -18.46875 L 6.078125 -4.8125 L 6.984375 -4.8125 C 7.503906 -4.8125 7.765625 -5.171875 7.765625 -5.890625 L 7.765625 -18.46875 L 12.21875 -18.46875 Z M 12.21875 -4.859375 "/></g></g></g><g fill="#242536" fill-opacity="1"><g transform="translate(515.496808, 294.023628)"><g><path d="M 10.546875 -13.640625 C 9.523438 -13.640625 9.015625 -13.140625 9.015625 -12.140625 L 9.015625 0 L 4.421875 0 L 4.421875 -10.875 C 4.421875 -12.289062 5.023438 -13.210938 6.234375 -13.640625 L 0.484375 -13.640625 L 0.484375 -18.46875 L 10.546875 -18.46875 Z M 10.546875 -13.640625 "/></g></g></g><g fill="#242536" fill-opacity="1"><g transform="translate(526.831065, 294.023628)"><g/></g></g><g fill="#242536" fill-opacity="1"><g transform="translate(533.89352, 294.023628)"><g><path d="M 11.03125 -6.671875 C 11.03125 -2.222656 8.894531 0 4.625 0 L 2.6875 0 L 2.6875 -4.8125 L 4 -4.8125 C 5 -4.8125 5.679688 -5.132812 6.046875 -5.78125 C 6.304688 -6.238281 6.4375 -7.035156 6.4375 -8.171875 L 6.4375 -12.875 C 6.4375 -13.382812 6.175781 -13.640625 5.65625 -13.640625 L 0.796875 -13.640625 L 0.796875 -20.75 L 5.3125 -20.75 L 5.3125 -18.46875 L 8.71875 -18.46875 C 10.257812 -18.46875 11.03125 -17.722656 11.03125 -16.234375 Z M 11.03125 -6.671875 "/></g></g></g><g fill="#242536" fill-opacity="1"><g transform="translate(545.71107, 294.023628)"><g><path d="M 5.296875 0 L 0.796875 0 L 0.796875 -18.46875 L 5.296875 -18.46875 Z M 5.296875 0 "/></g></g></g><g fill="#242536" fill-opacity="1"><g transform="translate(551.806918, 294.023628)"><g><path d="M 11.96875 -5.703125 C 11.96875 -3.828125 11.660156 -2.441406 11.046875 -1.546875 C 10.296875 -0.484375 9.019531 0.046875 7.21875 0.046875 C 6.894531 0.046875 6.554688 0.03125 6.203125 0 L 6.203125 -4.8125 C 6.992188 -4.8125 7.390625 -5.394531 7.390625 -6.5625 L 7.390625 -12.875 C 7.390625 -13.382812 7.125 -13.640625 6.59375 -13.640625 L 0.796875 -13.640625 L 0.796875 -18.46875 L 9.65625 -18.46875 C 11.195312 -18.46875 11.96875 -17.722656 11.96875 -16.234375 Z M 5.328125 2.671875 L 0.828125 2.671875 L 0.828125 -11.625 L 5.328125 -11.625 Z M 5.328125 2.671875 "/></g></g></g><g fill="#242536" fill-opacity="1"><g transform="translate(564.575496, 294.023628)"><g><path d="M 5.234375 -10.28125 L 0.765625 -10.28125 L 0.765625 -18.46875 L 5.234375 -18.46875 Z M 5.234375 -10.28125 "/></g></g></g><g fill="#242536" fill-opacity="1"><g transform="translate(570.609005, 294.023628)"><g><path d="M 5.140625 -13.21875 L 5.84375 -13.21875 C 6.351562 -13.21875 6.609375 -13.492188 6.609375 -14.046875 L 6.609375 -18.46875 L 10.78125 -18.46875 L 10.78125 -13.28125 C 10.78125 -11.132812 9.847656 -10.0625 7.984375 -10.0625 L 5.140625 -10.0625 L 5.140625 -5.65625 C 5.140625 -5.09375 5.375 -4.8125 5.84375 -4.8125 L 11.546875 -4.8125 C 11.992188 -4.8125 12.21875 -5.09375 12.21875 -5.65625 L 12.21875 -18.46875 L 16.59375 -18.46875 L 16.59375 -4.1875 C 16.59375 -2.925781 16.265625 -1.921875 15.609375 -1.171875 C 14.921875 -0.390625 13.945312 0 12.6875 0 L 4.6875 0 C 2.09375 0 0.796875 -1.394531 0.796875 -4.1875 L 0.796875 -18.46875 L 5.140625 -18.46875 Z M 5.140625 -13.21875 "/></g></g></g><g fill="#242536" fill-opacity="1"><g transform="translate(356.696185, 411.165555)"><g><path d="M 17.75 0 L 10.875 0 L 10.875 -19.328125 C 10.875 -20.085938 10.484375 -20.46875 9.703125 -20.46875 L 1.1875 -20.46875 L 1.1875 -27.703125 L 12.859375 -27.703125 C 14.296875 -27.703125 15.472656 -27.238281 16.390625 -26.3125 C 17.296875 -25.40625 17.75 -24.226562 17.75 -22.78125 Z M 7.953125 0 L 1.21875 0 L 1.21875 -17.171875 L 7.953125 -17.171875 Z M 7.953125 0 "/></g></g><g transform="translate(375.643189, 411.165555)"><g><path d="M 17.9375 -8.5625 C 17.9375 -5.738281 17.476562 -3.65625 16.5625 -2.3125 C 15.4375 -0.726562 13.523438 0.0625 10.828125 0.0625 C 10.347656 0.0625 9.84375 0.0390625 9.3125 0 L 9.3125 -7.234375 C 10.5 -7.234375 11.09375 -8.101562 11.09375 -9.84375 L 11.09375 -19.328125 C 11.09375 -20.085938 10.691406 -20.46875 9.890625 -20.46875 L 1.1875 -20.46875 L 1.1875 -27.703125 L 14.484375 -27.703125 C 16.785156 -27.703125 17.9375 -26.582031 17.9375 -24.34375 Z M 8 4 L 1.234375 4 L 1.234375 -17.421875 L 8 -17.421875 Z M 8 4 "/></g></g><g transform="translate(394.800715, 411.165555)"><g><path d="M 18.34375 -7.296875 C 18.34375 -2.429688 16.34375 0 12.34375 0 L 0.71875 0 L 0.71875 -7.234375 L 2.359375 -7.234375 L 2.359375 -27.703125 L 9.125 -27.703125 L 9.125 -7.234375 L 10.484375 -7.234375 C 11.265625 -7.234375 11.65625 -7.769531 11.65625 -8.84375 L 11.65625 -27.703125 L 18.34375 -27.703125 Z M 18.34375 -7.296875 "/></g></g><g transform="translate(414.332502, 411.165555)"><g><path d="M 10.390625 -20.46875 L 10.296875 -20.46875 C 9.210938 -20.46875 8.671875 -19.695312 8.671875 -18.15625 L 8.671875 0 L 1.96875 0 L 1.96875 -16.796875 C 1.96875 -18.804688 2.609375 -20.03125 3.890625 -20.46875 L 0.953125 -20.46875 L 0.953125 -27.703125 L 10.390625 -27.703125 Z M 10.390625 -20.46875 "/></g></g><g transform="translate(425.677313, 411.165555)"><g><path d="M 12.53125 0 C 12.332031 -1.09375 11.894531 -2.53125 11.21875 -4.3125 C 10.539062 -6.101562 9.613281 -8.257812 8.4375 -10.78125 C 8.3125 -10.644531 8.21875 -10.535156 8.15625 -10.453125 C 8.09375 -10.378906 8.054688 -10.332031 8.046875 -10.3125 C 8.023438 -10.25 8.007812 -10.113281 8 -9.90625 C 8 -9.695312 8 -9.40625 8 -9.03125 L 8 0 L 1.234375 0 L 1.234375 -8.28125 C 1.234375 -12.664062 2.582031 -15.503906 5.28125 -16.796875 C 2.695312 -21.878906 1.253906 -25.515625 0.953125 -27.703125 L 8 -27.703125 C 8.34375 -26.140625 8.851562 -24.488281 9.53125 -22.75 C 10.207031 -21.019531 11.0625 -19.179688 12.09375 -17.234375 C 12.476562 -17.515625 12.671875 -18.09375 12.671875 -18.96875 L 12.671875 -27.703125 L 19.515625 -27.703125 L 19.515625 -18.3125 C 19.515625 -16.90625 19.082031 -15.539062 18.21875 -14.21875 C 17.363281 -12.90625 16.304688 -11.910156 15.046875 -11.234375 C 17.960938 -5.429688 19.453125 -1.6875 19.515625 0 Z M 12.53125 0 "/></g></g><g transform="translate(446.144755, 411.165555)"><g/></g><g transform="translate(456.741043, 411.165555)"><g><path d="M 7.953125 0 L 1.1875 0 L 1.1875 -27.703125 L 7.953125 -27.703125 Z M 7.953125 0 "/></g></g><g transform="translate(465.887066, 411.165555)"><g><path d="M 12.53125 0 C 12.332031 -1.09375 11.894531 -2.53125 11.21875 -4.3125 C 10.539062 -6.101562 9.613281 -8.257812 8.4375 -10.78125 C 8.3125 -10.644531 8.21875 -10.535156 8.15625 -10.453125 C 8.09375 -10.378906 8.054688 -10.332031 8.046875 -10.3125 C 8.023438 -10.25 8.007812 -10.113281 8 -9.90625 C 8 -9.695312 8 -9.40625 8 -9.03125 L 8 0 L 1.234375 0 L 1.234375 -8.28125 C 1.234375 -12.664062 2.582031 -15.503906 5.28125 -16.796875 C 2.695312 -21.878906 1.253906 -25.515625 0.953125 -27.703125 L 8 -27.703125 C 8.34375 -26.140625 8.851562 -24.488281 9.53125 -22.75 C 10.207031 -21.019531 11.0625 -19.179688 12.09375 -17.234375 C 12.476562 -17.515625 12.671875 -18.09375 12.671875 -18.96875 L 12.671875 -27.703125 L 19.515625 -27.703125 L 19.515625 -18.3125 C 19.515625 -16.90625 19.082031 -15.539062 18.21875 -14.21875 C 17.363281 -12.90625 16.304688 -11.910156 15.046875 -11.234375 C 17.960938 -5.429688 19.453125 -1.6875 19.515625 0 Z M 12.53125 0 "/></g></g><g transform="translate(486.354508, 411.165555)"><g/></g><g transform="translate(496.950795, 411.165555)"><g><path d="M 17.75 0 L 10.875 0 L 10.875 -19.328125 C 10.875 -20.085938 10.484375 -20.46875 9.703125 -20.46875 L 1.1875 -20.46875 L 1.1875 -27.703125 L 12.859375 -27.703125 C 14.296875 -27.703125 15.472656 -27.238281 16.390625 -26.3125 C 17.296875 -25.40625 17.75 -24.226562 17.75 -22.78125 Z M 7.953125 0 L 1.21875 0 L 1.21875 -17.171875 L 7.953125 -17.171875 Z M 7.953125 0 "/></g></g><g transform="translate(515.897799, 411.165555)"><g><path d="M 17.703125 -5.375 C 17.703125 -1.789062 15.960938 0 12.484375 0 L 1.234375 0 L 1.234375 -7.234375 L 9.609375 -7.234375 C 10.535156 -7.234375 11 -7.773438 11 -8.859375 L 11 -19.328125 C 11 -20.085938 10.644531 -20.46875 9.9375 -20.46875 L 9 -20.46875 C 8.363281 -20.46875 8.046875 -20.070312 8.046875 -19.28125 L 8.046875 -15.203125 L 1.1875 -15.203125 L 1.1875 -22.78125 C 1.1875 -26.0625 2.765625 -27.703125 5.921875 -27.703125 L 12.84375 -27.703125 C 14.3125 -27.703125 15.488281 -27.25 16.375 -26.34375 C 17.257812 -25.414062 17.703125 -24.226562 17.703125 -22.78125 Z M 17.703125 -5.375 "/></g></g><g transform="translate(534.821411, 411.165555)"><g><path d="M 17.9375 -8.5625 C 17.9375 -5.738281 17.476562 -3.65625 16.5625 -2.3125 C 15.4375 -0.726562 13.523438 0.0625 10.828125 0.0625 C 10.347656 0.0625 9.84375 0.0390625 9.3125 0 L 9.3125 -7.234375 C 10.5 -7.234375 11.09375 -8.101562 11.09375 -9.84375 L 11.09375 -19.328125 C 11.09375 -20.085938 10.691406 -20.46875 9.890625 -20.46875 L 1.1875 -20.46875 L 1.1875 -27.703125 L 14.484375 -27.703125 C 16.785156 -27.703125 17.9375 -26.582031 17.9375 -24.34375 Z M 8 4 L 1.234375 4 L 1.234375 -17.421875 L 8 -17.421875 Z M 8 4 "/></g></g><g transform="translate(553.978937, 411.165555)"><g><path d="M 19.15625 0 L 12.390625 0 L 12.390625 -19.15625 C 12.390625 -20.03125 11.992188 -20.46875 11.203125 -20.46875 L 10.296875 -20.46875 C 9.484375 -20.46875 9.078125 -20.03125 9.078125 -19.15625 L 9.078125 -3.328125 C 9.078125 -1.109375 8.148438 0 6.296875 0 L 0.46875 0 L 0.46875 -7.234375 L 1.640625 -7.234375 C 2.023438 -7.234375 2.21875 -7.40625 2.21875 -7.75 L 2.21875 -22.390625 C 2.21875 -24.273438 2.585938 -25.628906 3.328125 -26.453125 C 4.054688 -27.285156 5.347656 -27.703125 7.203125 -27.703125 L 14.5 -27.703125 C 17.601562 -27.703125 19.15625 -25.929688 19.15625 -22.390625 Z M 19.15625 0 "/></g></g><g transform="translate(574.352813, 411.165555)"><g><path d="M 17.75 0 L 10.875 0 L 10.875 -19.328125 C 10.875 -20.085938 10.484375 -20.46875 9.703125 -20.46875 L 1.1875 -20.46875 L 1.1875 -27.703125 L 12.859375 -27.703125 C 14.296875 -27.703125 15.472656 -27.238281 16.390625 -26.3125 C 17.296875 -25.40625 17.75 -24.226562 17.75 -22.78125 Z M 7.953125 0 L 1.21875 0 L 1.21875 -17.171875 L 7.953125 -17.171875 Z M 7.953125 0 "/></g></g></g><g fill="#cf4545" fill-opacity="1"><g transform="translate(35.708432, 85.991482)"><g><path d="M 11.46875 -14.296875 C 11.46875 -13.554688 11.164062 -13.1875 10.5625 -13.1875 L 5.078125 -13.1875 C 4.421875 -13.1875 4.09375 -13.554688 4.09375 -14.296875 L 4.09375 -21.390625 C 4.09375 -21.773438 3.898438 -21.96875 3.515625 -21.96875 L 3.078125 -21.96875 C 2.492188 -21.96875 2.175781 -22.34375 2.125 -23.09375 L 1.5625 -31.90625 L 1.5625 -32.015625 C 1.5625 -32.753906 1.914062 -33.125 2.625 -33.125 L 10.34375 -33.125 C 11.09375 -33.125 11.46875 -32.71875 11.46875 -31.90625 Z M 11.46875 -14.296875 "/></g></g></g><g fill="#cf4545" fill-opacity="1"><g transform="translate(48.914912, 85.991482)"><g><path d="M 24.3125 -1.03125 C 24.3125 -0.34375 23.976562 0 23.3125 0 L 18.34375 0 C 17.570312 0 17.160156 -0.390625 17.109375 -1.171875 L 15.640625 -21.28125 C 15.597656 -21.707031 15.394531 -21.921875 15.03125 -21.921875 L 12.359375 -21.921875 C 11.984375 -21.921875 11.773438 -21.707031 11.734375 -21.28125 L 10.71875 -1.171875 C 10.707031 -0.390625 10.316406 0 9.546875 0 L 2.34375 0 C 1.632812 0 1.28125 -0.378906 1.28125 -1.140625 L 1.28125 -1.171875 L 1.71875 -9.96875 C 1.738281 -10.78125 2.113281 -11.1875 2.84375 -11.1875 L 3.625 -11.1875 C 4.007812 -11.1875 4.21875 -11.367188 4.25 -11.734375 L 4.796875 -21.34375 L 4.796875 -21.421875 C 4.796875 -21.753906 4.632812 -21.921875 4.3125 -21.921875 L 3.359375 -21.921875 C 2.578125 -21.921875 2.164062 -22.347656 2.125 -23.203125 L 1.71875 -31.90625 L 1.71875 -32.0625 C 1.71875 -32.769531 2.054688 -33.125 2.734375 -33.125 L 21.28125 -33.125 C 22.007812 -33.125 22.398438 -32.71875 22.453125 -31.90625 L 24.3125 -1.171875 Z M 24.3125 -1.03125 "/></g></g></g><g fill="#cf4545" fill-opacity="1"><g transform="translate(74.809436, 85.991482)"><g><path d="M 19.515625 -31.734375 L 18.9375 -23.578125 C 18.84375 -22.503906 18.488281 -21.96875 17.875 -21.96875 L 16.203125 -21.96875 L 16.203125 -1.171875 C 16.203125 -0.390625 15.773438 0 14.921875 0 L 9.96875 0 C 9.175781 0 8.78125 -0.410156 8.78125 -1.234375 L 8.78125 -21.96875 L 2.078125 -21.96875 C 1.378906 -21.96875 1.003906 -22.503906 0.953125 -23.578125 L 0.546875 -31.734375 L 0.546875 -31.9375 C 0.546875 -32.726562 0.9375 -33.125 1.71875 -33.125 L 18.5 -33.125 C 19.175781 -33.125 19.515625 -32.734375 19.515625 -31.953125 Z M 19.515625 -31.734375 "/></g></g></g><g fill="#cf4545" fill-opacity="1"><g transform="translate(94.892017, 85.991482)"><g><path d="M 20.28125 -1.015625 C 20.28125 -0.335938 20.003906 0 19.453125 0 L 1.671875 0 C 1.085938 0 0.796875 -0.300781 0.796875 -0.90625 L 0.796875 -1.015625 L 1.234375 -10.171875 C 1.242188 -10.847656 1.5625 -11.1875 2.1875 -11.1875 L 10.390625 -11.1875 L 9.765625 -21.34375 C 9.734375 -21.726562 9.570312 -21.921875 9.28125 -21.921875 L 3.46875 -21.921875 C 2.832031 -21.921875 2.515625 -22.265625 2.515625 -22.953125 L 2.515625 -23.03125 L 2.890625 -32.140625 C 2.910156 -32.796875 3.3125 -33.125 4.09375 -33.125 L 15.46875 -33.125 C 16.175781 -33.125 16.550781 -32.78125 16.59375 -32.09375 L 17.828125 -11.1875 L 18.890625 -11.1875 C 19.484375 -11.1875 19.800781 -10.8125 19.84375 -10.0625 L 20.28125 -1.0625 Z M 20.28125 -1.015625 "/></g></g></g><g fill="#cf4545" fill-opacity="1"><g transform="translate(115.956899, 85.991482)"><g><path d="M 10.9375 -1.125 C 10.9375 -0.375 10.664062 0 10.125 0 L 4.578125 0 C 3.910156 0 3.578125 -0.375 3.578125 -1.125 L 3.578125 -21.453125 C 3.578125 -21.796875 3.445312 -21.96875 3.1875 -21.96875 L 2.890625 -21.96875 C 2.429688 -21.96875 2.175781 -22.34375 2.125 -23.09375 L 1.5625 -31.90625 L 1.5625 -31.984375 C 1.5625 -32.742188 1.914062 -33.125 2.625 -33.125 L 9.828125 -33.125 C 10.566406 -33.125 10.9375 -32.71875 10.9375 -31.90625 Z M 10.9375 -1.125 "/></g></g></g><g fill="#cf4545" fill-opacity="1"><g transform="translate(128.672229, 85.991482)"><g><path d="M 22.125 -31.90625 L 20.28125 -1.171875 C 20.21875 -0.390625 19.828125 0 19.109375 0 L 2.34375 0 C 1.675781 0 1.34375 -0.363281 1.34375 -1.09375 L 1.34375 -1.171875 L 2.078125 -10.0625 C 2.128906 -10.8125 2.535156 -11.1875 3.296875 -11.1875 L 4.46875 -11.1875 L 2.671875 -31.90625 L 2.671875 -32.0625 C 2.671875 -32.738281 3.007812 -33.078125 3.6875 -33.078125 L 8.84375 -33.078125 C 9.59375 -33.078125 10 -32.6875 10.0625 -31.90625 L 11.84375 -11.140625 L 12.90625 -11.140625 C 13.289062 -11.140625 13.5 -11.375 13.53125 -11.84375 L 14.875 -31.90625 C 14.925781 -32.6875 15.316406 -33.078125 16.046875 -33.078125 L 21.0625 -33.078125 C 21.769531 -33.078125 22.125 -32.726562 22.125 -32.03125 Z M 22.125 -31.90625 "/></g></g></g><g fill="#cf4545" fill-opacity="1"><g transform="translate(152.383864, 85.991482)"><g/></g></g><g fill="#cf4545" fill-opacity="1"><g transform="translate(164.744474, 85.991482)"><g><path d="M 20.28125 -1.015625 C 20.28125 -0.335938 20.003906 0 19.453125 0 L 1.671875 0 C 1.085938 0 0.796875 -0.300781 0.796875 -0.90625 L 0.796875 -1.015625 L 1.234375 -10.171875 C 1.242188 -10.847656 1.5625 -11.1875 2.1875 -11.1875 L 10.390625 -11.1875 L 9.765625 -21.34375 C 9.734375 -21.726562 9.570312 -21.921875 9.28125 -21.921875 L 3.46875 -21.921875 C 2.832031 -21.921875 2.515625 -22.265625 2.515625 -22.953125 L 2.515625 -23.03125 L 2.890625 -32.140625 C 2.910156 -32.796875 3.3125 -33.125 4.09375 -33.125 L 15.46875 -33.125 C 16.175781 -33.125 16.550781 -32.78125 16.59375 -32.09375 L 17.828125 -11.1875 L 18.890625 -11.1875 C 19.484375 -11.1875 19.800781 -10.8125 19.84375 -10.0625 L 20.28125 -1.0625 Z M 20.28125 -1.015625 "/></g></g></g><g fill="#cf4545" fill-opacity="1"><g transform="translate(185.809356, 85.991482)"><g><path d="M 22.1875 -32.359375 C 22.1875 -32.285156 22.179688 -32.210938 22.171875 -32.140625 C 22.160156 -32.066406 22.144531 -31.988281 22.125 -31.90625 L 17.9375 -11.734375 L 21.5 -1.171875 C 21.5625 -1.066406 21.59375 -0.945312 21.59375 -0.8125 C 21.59375 -0.269531 21.34375 0 20.84375 0 L 2.234375 0 C 1.566406 0 1.234375 -0.363281 1.234375 -1.09375 L 1.234375 -1.171875 L 1.96875 -9.875 C 2.039062 -10.75 2.46875 -11.1875 3.25 -11.1875 L 7.78125 -11.1875 C 8.082031 -11.1875 8.234375 -11.28125 8.234375 -11.46875 C 8.234375 -11.519531 8.226562 -11.554688 8.21875 -11.578125 L 1.125 -31.90625 C 1.082031 -32.050781 1.0625 -32.175781 1.0625 -32.28125 C 1.0625 -32.84375 1.363281 -33.125 1.96875 -33.125 L 8.78125 -33.125 C 9.507812 -33.125 10.007812 -32.71875 10.28125 -31.90625 L 13.015625 -23.640625 L 14.515625 -31.90625 C 14.640625 -32.71875 15.128906 -33.125 15.984375 -33.125 L 21.34375 -33.125 C 21.90625 -33.125 22.1875 -32.867188 22.1875 -32.359375 Z M 22.1875 -32.359375 "/></g></g></g><g fill="#cf4545" fill-opacity="1"><g transform="translate(209.002554, 85.991482)"><g><path d="M 23.640625 -1.09375 C 23.640625 -0.363281 23.28125 0 22.5625 0 L 12.359375 0 C 11.648438 0 11.296875 -0.375 11.296875 -1.125 L 11.296875 -1.171875 L 11.796875 -9.828125 C 11.847656 -10.734375 12.238281 -11.1875 12.96875 -11.1875 L 15.09375 -11.1875 C 15.4375 -11.1875 15.609375 -11.359375 15.609375 -11.703125 C 15.609375 -11.773438 15.597656 -11.820312 15.578125 -11.84375 L 14.984375 -21.28125 C 14.960938 -21.738281 14.753906 -21.96875 14.359375 -21.96875 L 10.828125 -21.96875 C 10.453125 -21.96875 10.253906 -21.738281 10.234375 -21.28125 L 9 -1.171875 C 8.945312 -0.390625 8.554688 0 7.828125 0 L 2.625 0 C 1.914062 0 1.5625 -0.375 1.5625 -1.125 L 1.5625 -1.171875 L 3.515625 -31.90625 C 3.578125 -32.71875 3.988281 -33.125 4.75 -33.125 L 20.515625 -33.125 C 21.242188 -33.125 21.640625 -32.71875 21.703125 -31.90625 L 23.640625 -1.171875 Z M 23.640625 -1.09375 "/></g></g></g></svg>