<svg xmlns="http://www.w3.org/2000/svg" xmlns:xlink="http://www.w3.org/1999/xlink" width="407" zoomAndPan="magnify" viewBox="0 0 305.25 473.249983" height="631" preserveAspectRatio="xMidYMid meet" version="1.0"><defs><g/><clipPath id="73b3be58ea"><path d="M 0 11.378906 L 304.265625 11.378906 L 304.265625 472.027344 L 0 472.027344 Z M 0 11.378906 " clip-rule="nonzero"/></clipPath><clipPath id="fe5f0c191e"><path d="M 2.957031 2.960938 L 301.164062 2.960938 L 301.164062 463.613281 L 2.957031 463.613281 Z M 2.957031 2.960938 " clip-rule="nonzero"/></clipPath><clipPath id="1b998a4bc4"><path d="M 257.574219 90.039062 L 284 90.039062 L 284 127.449219 L 257.574219 127.449219 Z M 257.574219 90.039062 " clip-rule="nonzero"/></clipPath><clipPath id="902bfd8767"><path d="M 285 91 L 292.738281 91 L 292.738281 108 L 285 108 Z M 285 91 " clip-rule="nonzero"/></clipPath><clipPath id="e5c4d313fe"><path d="M 257.574219 192.359375 L 284 192.359375 L 284 229.769531 L 257.574219 229.769531 Z M 257.574219 192.359375 " clip-rule="nonzero"/></clipPath><clipPath id="de5e44eb8e"><path d="M 285 193 L 292.738281 193 L 292.738281 211 L 285 211 Z M 285 193 " clip-rule="nonzero"/></clipPath></defs><g clip-path="url(#73b3be58ea)"><path fill="#cf4545" d="M 0 11.378906 L 304.265625 11.378906 L 304.265625 472.53125 L 0 472.53125 Z M 0 11.378906 " fill-opacity="1" fill-rule="nonzero"/></g><g clip-path="url(#fe5f0c191e)"><path fill="#ffcf7e" d="M 2.957031 2.960938 L 301.164062 2.960938 L 301.164062 463.089844 L 2.957031 463.089844 Z M 2.957031 2.960938 " fill-opacity="1" fill-rule="nonzero"/></g><g clip-path="url(#1b998a4bc4)"><path fill="#242536" d="M 258.671875 106.292969 C 258.59375 106.894531 257.480469 107.789062 257.445312 108.398438 C 257.378906 109.5 258.875 111.664062 259.898438 112.078125 C 261.527344 112.738281 269.804688 112.429688 269.804688 112.429688 C 270.613281 113.84375 268.363281 117.335938 267.746094 118.84375 C 266.835938 121.050781 266.988281 123.984375 268.140625 125.488281 C 269.542969 127.332031 272.117188 127.453125 272.171875 126.628906 C 272.554688 120.65625 273.699219 119 275.230469 117.820312 C 276.148438 117.109375 276.953125 116.492188 277.375 115.410156 C 279.984375 108.765625 281.917969 107.226562 283.023438 107.226562 L 283.757812 107.226562 L 283.757812 92.128906 L 276.027344 90.691406 C 276.027344 90.691406 266.425781 89.78125 263.40625 90.691406 C 262.453125 90.976562 260.8125 92.402344 260.425781 93.320312 C 260.203125 93.847656 260.511719 95.089844 260.25 95.597656 C 259.863281 96.351562 258.230469 97.292969 258.230469 98.316406 C 258.234375 99.046875 259.082031 100.308594 259.019531 101.035156 C 258.960938 101.761719 257.441406 102.757812 257.445312 103.488281 C 257.445312 104.253906 258.773438 105.535156 258.671875 106.292969 Z M 258.671875 106.292969 " fill-opacity="1" fill-rule="nonzero"/></g><g clip-path="url(#902bfd8767)"><path fill="#242536" d="M 285.230469 92.496094 C 285.230469 91.683594 285.890625 91.023438 286.707031 91.023438 L 291.125 91.023438 C 291.9375 91.023438 292.597656 91.683594 292.597656 92.496094 L 292.597656 106.492188 C 292.597656 107.304688 291.9375 107.964844 291.125 107.964844 L 286.707031 107.964844 C 285.890625 107.964844 285.230469 107.304688 285.230469 106.492188 Z M 285.230469 92.496094 " fill-opacity="1" fill-rule="nonzero"/></g><g fill="#cf4545" fill-opacity="1"><g transform="translate(79.937689, 60.407957)"><g><path d="M 12.03125 -26.703125 C 12.03125 -26.585938 12.019531 -26.515625 12 -26.484375 L 11.1875 -19.5 C 11.09375 -18.6875 10.617188 -18.28125 9.765625 -18.28125 L 4.578125 -18.28125 C 3.691406 -18.28125 3.191406 -18.6875 3.078125 -19.5 L 2.234375 -26.453125 C 2.234375 -26.742188 2.351562 -27.035156 2.59375 -27.328125 C 2.832031 -27.617188 3.085938 -27.765625 3.359375 -27.765625 L 10.828125 -27.765625 C 11.628906 -27.765625 12.03125 -27.410156 12.03125 -26.703125 Z M 12.03125 -1.25 C 12.03125 -0.957031 11.910156 -0.664062 11.671875 -0.375 C 11.429688 -0.09375 11.164062 0.046875 10.875 0.046875 L 3.40625 0.046875 C 2.601562 0.046875 2.203125 -0.304688 2.203125 -1.015625 C 2.222656 -1.066406 2.234375 -1.140625 2.234375 -1.234375 L 3.078125 -8.203125 C 3.148438 -9.023438 3.613281 -9.4375 4.46875 -9.4375 L 9.65625 -9.4375 C 10.582031 -9.4375 11.09375 -9.023438 11.1875 -8.203125 L 12 -1.390625 C 12.019531 -1.367188 12.03125 -1.320312 12.03125 -1.25 Z M 12.03125 -1.25 "/></g></g></g><g fill="#cf4545" fill-opacity="1"><g transform="translate(94.174156, 60.407957)"><g><path d="M 24.03125 -1.0625 C 24.03125 -0.351562 23.675781 0 22.96875 0 L 2.625 0 C 1.90625 0 1.546875 -0.363281 1.546875 -1.09375 L 1.546875 -1.171875 L 3.46875 -31.890625 C 3.519531 -32.703125 3.910156 -33.109375 4.640625 -33.109375 L 21 -33.109375 C 21.726562 -33.109375 22.117188 -32.703125 22.171875 -31.890625 L 24.03125 -1.171875 Z M 16.140625 -11.671875 L 15.359375 -21.578125 C 15.316406 -21.796875 15.207031 -21.90625 15.03125 -21.90625 L 10.5 -21.90625 C 10.226562 -21.90625 10.082031 -21.796875 10.0625 -21.578125 L 9.484375 -11.671875 L 9.484375 -11.640625 C 9.484375 -11.335938 9.660156 -11.1875 10.015625 -11.1875 L 15.625 -11.1875 C 15.96875 -11.1875 16.140625 -11.320312 16.140625 -11.59375 Z M 16.140625 -11.671875 "/></g></g></g><g fill="#cf4545" fill-opacity="1"><g transform="translate(119.756159, 60.407957)"><g><path d="M 11.453125 -14.296875 C 11.453125 -13.546875 11.15625 -13.171875 10.5625 -13.171875 L 5.078125 -13.171875 C 4.421875 -13.171875 4.09375 -13.546875 4.09375 -14.296875 L 4.09375 -21.390625 C 4.09375 -21.765625 3.898438 -21.953125 3.515625 -21.953125 L 3.078125 -21.953125 C 2.492188 -21.953125 2.175781 -22.328125 2.125 -23.078125 L 1.546875 -31.890625 L 1.546875 -32 C 1.546875 -32.738281 1.90625 -33.109375 2.625 -33.109375 L 10.34375 -33.109375 C 11.082031 -33.109375 11.453125 -32.703125 11.453125 -31.890625 Z M 11.453125 -14.296875 "/></g></g></g><g fill="#cf4545" fill-opacity="1"><g transform="translate(132.956255, 60.407957)"><g><path d="M 11.453125 -14.296875 C 11.453125 -13.546875 11.15625 -13.171875 10.5625 -13.171875 L 5.078125 -13.171875 C 4.421875 -13.171875 4.09375 -13.546875 4.09375 -14.296875 L 4.09375 -21.390625 C 4.09375 -21.765625 3.898438 -21.953125 3.515625 -21.953125 L 3.078125 -21.953125 C 2.492188 -21.953125 2.175781 -22.328125 2.125 -23.078125 L 1.546875 -31.890625 L 1.546875 -32 C 1.546875 -32.738281 1.90625 -33.109375 2.625 -33.109375 L 10.34375 -33.109375 C 11.082031 -33.109375 11.453125 -32.703125 11.453125 -31.890625 Z M 11.453125 -14.296875 "/></g></g></g><g fill="#cf4545" fill-opacity="1"><g transform="translate(146.156351, 60.407957)"><g><path d="M 18.875 -15.875 C 18.875 -15.09375 18.445312 -14.703125 17.59375 -14.703125 L 12.953125 -14.703125 C 12.023438 -14.703125 11.5625 -15.09375 11.5625 -15.875 L 11.5625 -32.015625 C 11.5625 -32.742188 12.023438 -33.109375 12.953125 -33.109375 L 17.59375 -33.109375 C 18.445312 -33.109375 18.875 -32.742188 18.875 -32.015625 Z M 29.15625 -31.9375 L 27.25 -1.234375 C 27.195312 -0.410156 26.785156 0 26.015625 0 L 4.53125 0 C 3.800781 0 3.410156 -0.410156 3.359375 -1.234375 L 1.546875 -31.9375 L 1.546875 -32.234375 C 1.546875 -32.816406 1.8125 -33.109375 2.34375 -33.109375 L 7.984375 -33.109375 C 8.566406 -33.109375 8.890625 -32.71875 8.953125 -31.9375 L 10.234375 -11.671875 C 10.242188 -11.378906 10.425781 -11.234375 10.78125 -11.234375 L 20 -11.234375 C 20.269531 -11.234375 20.421875 -11.398438 20.453125 -11.734375 L 21.953125 -31.9375 C 22.003906 -32.71875 22.359375 -33.109375 23.015625 -33.109375 L 28.25 -33.109375 C 28.851562 -33.109375 29.15625 -32.753906 29.15625 -32.046875 Z M 29.15625 -31.9375 "/></g></g></g><g fill="#cf4545" fill-opacity="1"><g transform="translate(176.838391, 60.407957)"><g><path d="M 22.421875 -31.859375 C 22.421875 -31.835938 22.421875 -31.789062 22.421875 -31.71875 C 22.421875 -31.644531 22.410156 -31.535156 22.390625 -31.390625 L 20.5625 -2.125 C 20.53125 -1.5625 20.300781 -1.066406 19.875 -0.640625 C 19.457031 -0.210938 18.976562 0 18.4375 0 L 12.734375 0 C 11.992188 0 11.625 -0.425781 11.625 -1.28125 L 11.625 -10.125 C 11.625 -10.832031 12.03125 -11.1875 12.84375 -11.1875 C 13.375 -11.1875 13.65625 -11.457031 13.6875 -12 L 14.453125 -21.171875 C 14.472656 -21.203125 14.484375 -21.242188 14.484375 -21.296875 C 14.484375 -21.734375 14.3125 -21.953125 13.96875 -21.953125 L 3.25 -21.953125 C 2.570312 -21.953125 2.21875 -22.328125 2.1875 -23.078125 L 1.65625 -31.609375 L 1.65625 -31.9375 C 1.65625 -32.71875 1.992188 -33.109375 2.671875 -33.109375 L 21.578125 -33.0625 C 22.140625 -33.0625 22.421875 -32.660156 22.421875 -31.859375 Z M 9.875 4.46875 C 9.875 5.25 9.445312 5.640625 8.59375 5.640625 L 3.953125 5.640625 C 3.023438 5.640625 2.5625 5.25 2.5625 4.46875 L 2.5625 -14.859375 C 2.5625 -15.609375 3.023438 -15.984375 3.953125 -15.984375 L 8.59375 -15.984375 C 9.445312 -15.984375 9.875 -15.609375 9.875 -14.859375 Z M 9.875 4.46875 "/></g></g></g><g fill="#cf4545" fill-opacity="1"><g transform="translate(200.838564, 60.407957)"><g><path d="M 21.90625 -1.25 C 21.90625 -0.414062 21.53125 0 20.78125 0 L 15.765625 0 C 14.941406 0 14.503906 -0.460938 14.453125 -1.390625 L 13.28125 -21.0625 C 13.25 -21.65625 12.992188 -21.953125 12.515625 -21.953125 L 3.953125 -21.953125 C 3.097656 -21.953125 2.671875 -22.4375 2.671875 -23.40625 L 2.671875 -23.5625 L 3.140625 -31.78125 C 3.191406 -32.664062 3.671875 -33.109375 4.578125 -33.109375 L 18.875 -33.109375 C 19.707031 -33.109375 20.148438 -32.628906 20.203125 -31.671875 L 21.90625 -1.390625 Z M 9.171875 -14.515625 L 8.78125 -1.28125 C 8.75 -0.425781 8.296875 0 7.421875 0 L 2.671875 0 C 1.921875 0 1.546875 -0.4375 1.546875 -1.3125 L 1.546875 -1.390625 L 2.078125 -14.640625 C 2.085938 -15.535156 2.585938 -15.984375 3.578125 -15.984375 L 7.875 -15.984375 C 8.738281 -15.984375 9.171875 -15.53125 9.171875 -14.625 Z M 9.171875 -14.515625 "/></g></g></g><g fill="#242536" fill-opacity="1"><g transform="translate(21.322957, 117.401538)"><g><path d="M 12.75 0 L 0.890625 0 L 0.890625 -5.421875 L 4.84375 -5.421875 C 6 -5.421875 6.578125 -6.101562 6.578125 -7.46875 L 6.578125 -13.6875 C 6.578125 -14.300781 6.46875 -14.726562 6.25 -14.96875 C 6.039062 -15.21875 5.640625 -15.34375 5.046875 -15.34375 L 0.890625 -15.34375 L 0.890625 -20.765625 L 7.71875 -20.765625 C 10.394531 -20.765625 11.734375 -19.175781 11.734375 -16 L 11.734375 -8.90625 C 11.734375 -7.070312 11.046875 -5.910156 9.671875 -5.421875 L 12.75 -5.421875 Z M 12.75 0 "/></g></g><g transform="translate(34.789868, 117.401538)"><g><path d="M 5.890625 -11.546875 L 0.859375 -11.546875 L 0.859375 -20.765625 L 5.890625 -20.765625 Z M 5.890625 -11.546875 "/></g></g><g transform="translate(41.575928, 117.401538)"><g><path d="M 5.96875 0 L 0.890625 0 L 0.890625 -20.765625 L 5.96875 -20.765625 Z M 5.96875 0 "/></g></g><g transform="translate(48.432129, 117.401538)"><g><path d="M 9.390625 0 C 9.242188 -0.820312 8.914062 -1.898438 8.40625 -3.234375 C 7.894531 -4.566406 7.203125 -6.179688 6.328125 -8.078125 C 6.234375 -7.972656 6.160156 -7.890625 6.109375 -7.828125 C 6.066406 -7.773438 6.039062 -7.742188 6.03125 -7.734375 C 6.019531 -7.679688 6.007812 -7.578125 6 -7.421875 C 6 -7.265625 6 -7.046875 6 -6.765625 L 6 0 L 0.921875 0 L 0.921875 -6.203125 C 0.921875 -9.492188 1.9375 -11.625 3.96875 -12.59375 C 2.019531 -16.394531 0.9375 -19.117188 0.71875 -20.765625 L 6 -20.765625 C 6.25 -19.585938 6.628906 -18.347656 7.140625 -17.046875 C 7.648438 -15.753906 8.289062 -14.378906 9.0625 -12.921875 C 9.351562 -13.128906 9.5 -13.5625 9.5 -14.21875 L 9.5 -20.765625 L 14.625 -20.765625 L 14.625 -13.734375 C 14.625 -12.679688 14.300781 -11.65625 13.65625 -10.65625 C 13.007812 -9.675781 12.210938 -8.929688 11.265625 -8.421875 C 13.453125 -4.066406 14.570312 -1.257812 14.625 0 Z M 9.390625 0 "/></g></g><g transform="translate(63.77529, 117.401538)"><g><path d="M 13.3125 0 L 8.15625 0 L 8.15625 -14.484375 C 8.15625 -15.054688 7.863281 -15.34375 7.28125 -15.34375 L 0.890625 -15.34375 L 0.890625 -20.765625 L 9.640625 -20.765625 C 10.710938 -20.765625 11.597656 -20.414062 12.296875 -19.71875 C 12.972656 -19.039062 13.3125 -18.160156 13.3125 -17.078125 Z M 5.96875 0 L 0.90625 0 L 0.90625 -12.875 L 5.96875 -12.875 Z M 5.96875 0 "/></g></g><g transform="translate(77.978672, 117.401538)"><g/></g><g transform="translate(85.922046, 117.401538)"><g><path d="M 14.359375 0 L 9.296875 0 L 9.296875 -14.359375 C 9.296875 -15.015625 8.992188 -15.34375 8.390625 -15.34375 L 7.71875 -15.34375 C 7.101562 -15.34375 6.796875 -15.015625 6.796875 -14.359375 L 6.796875 -2.484375 C 6.796875 -0.828125 6.101562 0 4.71875 0 L 0.34375 0 L 0.34375 -5.421875 L 1.234375 -5.421875 C 1.523438 -5.421875 1.671875 -5.546875 1.671875 -5.796875 L 1.671875 -16.78125 C 1.671875 -18.195312 1.941406 -19.210938 2.484375 -19.828125 C 3.035156 -20.453125 4.007812 -20.765625 5.40625 -20.765625 L 10.875 -20.765625 C 13.195312 -20.765625 14.359375 -19.4375 14.359375 -16.78125 Z M 14.359375 0 "/></g></g><g transform="translate(101.195066, 117.401538)"><g><path d="M 5.96875 0 L 0.890625 0 L 0.890625 -20.765625 L 5.96875 -20.765625 Z M 5.96875 0 "/></g></g><g transform="translate(108.051267, 117.401538)"><g><path d="M 12.3125 0 L 7.234375 0 L 6.328125 -5.75 C 5.960938 -5.75 5.734375 -5.492188 5.640625 -4.984375 L 4.703125 0 L 0.171875 0 L 1.390625 -6 C 1.921875 -8.707031 3.175781 -10.0625 5.15625 -10.0625 L 6 -10.0625 L 6 -14.484375 C 6 -15.054688 5.671875 -15.34375 5.015625 -15.34375 L 1.40625 -15.34375 L 1.40625 -20.765625 L 7.265625 -20.765625 C 9.816406 -20.765625 11.09375 -19.414062 11.09375 -16.71875 L 11.09375 -9.75 C 11.09375 -9.007812 11.113281 -8.328125 11.15625 -7.703125 C 11.195312 -7.085938 11.257812 -6.523438 11.34375 -6.015625 Z M 12.3125 0 "/></g></g><g transform="translate(120.729102, 117.401538)"><g><path d="M 13.3125 0 L 8.15625 0 L 8.15625 -14.484375 C 8.15625 -15.054688 7.863281 -15.34375 7.28125 -15.34375 L 0.890625 -15.34375 L 0.890625 -20.765625 L 9.640625 -20.765625 C 10.710938 -20.765625 11.597656 -20.414062 12.296875 -19.71875 C 12.972656 -19.039062 13.3125 -18.160156 13.3125 -17.078125 Z M 5.96875 0 L 0.90625 0 L 0.90625 -12.875 L 5.96875 -12.875 Z M 5.96875 0 "/></g></g><g transform="translate(134.932484, 117.401538)"><g><path d="M 10.0625 -3.265625 C 10.0625 -1.085938 9.035156 0 6.984375 0 L 0.71875 0 L 0.71875 -5.421875 L 4.3125 -5.421875 C 4.726562 -5.421875 4.9375 -5.675781 4.9375 -6.1875 L 4.9375 -14.484375 C 4.9375 -15.054688 4.679688 -15.34375 4.171875 -15.34375 L 2.203125 -15.34375 L 2.203125 -20.765625 L 6.890625 -20.765625 C 9.003906 -20.765625 10.0625 -19.671875 10.0625 -17.484375 Z M 10.0625 -3.265625 "/></g></g><g transform="translate(145.891885, 117.401538)"><g><path d="M 14.359375 0 L 9.296875 0 L 9.296875 -14.359375 C 9.296875 -15.015625 8.992188 -15.34375 8.390625 -15.34375 L 7.71875 -15.34375 C 7.101562 -15.34375 6.796875 -15.015625 6.796875 -14.359375 L 6.796875 -2.484375 C 6.796875 -0.828125 6.101562 0 4.71875 0 L 0.34375 0 L 0.34375 -5.421875 L 1.234375 -5.421875 C 1.523438 -5.421875 1.671875 -5.546875 1.671875 -5.796875 L 1.671875 -16.78125 C 1.671875 -18.195312 1.941406 -19.210938 2.484375 -19.828125 C 3.035156 -20.453125 4.007812 -20.765625 5.40625 -20.765625 L 10.875 -20.765625 C 13.195312 -20.765625 14.359375 -19.4375 14.359375 -16.78125 Z M 14.359375 0 "/></g></g><g transform="translate(161.164905, 117.401538)"><g><path d="M 13.3125 0 L 8.15625 0 L 8.15625 -14.484375 C 8.15625 -15.054688 7.863281 -15.34375 7.28125 -15.34375 L 0.890625 -15.34375 L 0.890625 -20.765625 L 9.640625 -20.765625 C 10.710938 -20.765625 11.597656 -20.414062 12.296875 -19.71875 C 12.972656 -19.039062 13.3125 -18.160156 13.3125 -17.078125 Z M 5.96875 0 L 0.90625 0 L 0.90625 -12.875 L 5.96875 -12.875 Z M 5.96875 0 "/></g></g><g transform="translate(175.368288, 117.401538)"><g><path d="M 12.75 0 L 0.890625 0 L 0.890625 -5.421875 L 4.84375 -5.421875 C 6 -5.421875 6.578125 -6.101562 6.578125 -7.46875 L 6.578125 -13.6875 C 6.578125 -14.300781 6.46875 -14.726562 6.25 -14.96875 C 6.039062 -15.21875 5.640625 -15.34375 5.046875 -15.34375 L 0.890625 -15.34375 L 0.890625 -20.765625 L 7.71875 -20.765625 C 10.394531 -20.765625 11.734375 -19.175781 11.734375 -16 L 11.734375 -8.90625 C 11.734375 -7.070312 11.046875 -5.910156 9.671875 -5.421875 L 12.75 -5.421875 Z M 12.75 0 "/></g></g><g transform="translate(188.835199, 117.401538)"><g/></g><g transform="translate(196.778573, 117.401538)"><g><path d="M 14.359375 0 L 9.296875 0 L 9.296875 -14.359375 C 9.296875 -15.015625 8.992188 -15.34375 8.390625 -15.34375 L 7.71875 -15.34375 C 7.101562 -15.34375 6.796875 -15.015625 6.796875 -14.359375 L 6.796875 -2.484375 C 6.796875 -0.828125 6.101562 0 4.71875 0 L 0.34375 0 L 0.34375 -5.421875 L 1.234375 -5.421875 C 1.523438 -5.421875 1.671875 -5.546875 1.671875 -5.796875 L 1.671875 -16.78125 C 1.671875 -18.195312 1.941406 -19.210938 2.484375 -19.828125 C 3.035156 -20.453125 4.007812 -20.765625 5.40625 -20.765625 L 10.875 -20.765625 C 13.195312 -20.765625 14.359375 -19.4375 14.359375 -16.78125 Z M 14.359375 0 "/></g></g><g transform="translate(212.051593, 117.401538)"><g><path d="M 5.96875 0 L 0.890625 0 L 0.890625 -20.765625 L 5.96875 -20.765625 Z M 5.96875 0 "/></g></g><g transform="translate(218.907794, 117.401538)"><g><path d="M 12.390625 -7.5 C 12.390625 -2.5 9.992188 0 5.203125 0 L 3.015625 0 L 3.015625 -5.421875 L 4.484375 -5.421875 C 5.617188 -5.421875 6.390625 -5.78125 6.796875 -6.5 C 7.085938 -7.019531 7.234375 -7.914062 7.234375 -9.1875 L 7.234375 -14.484375 C 7.234375 -15.054688 6.941406 -15.34375 6.359375 -15.34375 L 0.890625 -15.34375 L 0.890625 -23.328125 L 5.984375 -23.328125 L 5.984375 -20.765625 L 9.796875 -20.765625 C 11.523438 -20.765625 12.390625 -19.925781 12.390625 -18.25 Z M 12.390625 -7.5 "/></g></g><g transform="translate(232.199355, 117.401538)"><g><path d="M 14.359375 0 L 9.296875 0 L 9.296875 -14.359375 C 9.296875 -15.015625 8.992188 -15.34375 8.390625 -15.34375 L 7.71875 -15.34375 C 7.101562 -15.34375 6.796875 -15.015625 6.796875 -14.359375 L 6.796875 -2.484375 C 6.796875 -0.828125 6.101562 0 4.71875 0 L 0.34375 0 L 0.34375 -5.421875 L 1.234375 -5.421875 C 1.523438 -5.421875 1.671875 -5.546875 1.671875 -5.796875 L 1.671875 -16.78125 C 1.671875 -18.195312 1.941406 -19.210938 2.484375 -19.828125 C 3.035156 -20.453125 4.007812 -20.765625 5.40625 -20.765625 L 10.875 -20.765625 C 13.195312 -20.765625 14.359375 -19.4375 14.359375 -16.78125 Z M 14.359375 0 "/></g></g></g><g fill="#242536" fill-opacity="1"><g transform="translate(19.464242, 217.65521)"><g><path d="M 14.359375 0 L 9.296875 0 L 9.296875 -14.359375 C 9.296875 -15.015625 8.992188 -15.34375 8.390625 -15.34375 L 7.71875 -15.34375 C 7.101562 -15.34375 6.796875 -15.015625 6.796875 -14.359375 L 6.796875 -2.484375 C 6.796875 -0.828125 6.101562 0 4.71875 0 L 0.34375 0 L 0.34375 -5.421875 L 1.234375 -5.421875 C 1.523438 -5.421875 1.671875 -5.546875 1.671875 -5.796875 L 1.671875 -16.78125 C 1.671875 -18.195312 1.941406 -19.210938 2.484375 -19.828125 C 3.035156 -20.453125 4.007812 -20.765625 5.40625 -20.765625 L 10.875 -20.765625 C 13.195312 -20.765625 14.359375 -19.4375 14.359375 -16.78125 Z M 14.359375 0 "/></g></g><g transform="translate(34.737263, 217.65521)"><g><path d="M 5.96875 0 L 0.890625 0 L 0.890625 -20.765625 L 5.96875 -20.765625 Z M 5.96875 0 "/></g></g><g transform="translate(41.593464, 217.65521)"><g><path d="M 11.890625 -5.125 C 11.890625 -1.707031 10.28125 0 7.0625 0 L 0.890625 0 L 0.890625 -5.421875 L 5.1875 -5.421875 C 6.25 -5.421875 6.78125 -5.914062 6.78125 -6.90625 L 6.78125 -13.84375 C 6.78125 -14.84375 6.25 -15.34375 5.1875 -15.34375 L 0.890625 -15.34375 L 0.890625 -20.765625 L 7.0625 -20.765625 C 10.28125 -20.765625 11.890625 -19.054688 11.890625 -15.640625 Z M 11.890625 -5.125 "/></g></g><g transform="translate(54.376508, 217.65521)"><g><path d="M 14.671875 -3.734375 C 14.671875 -1.242188 13.546875 0 11.296875 0 L 7.71875 0 L 7.71875 -5.4375 L 8.78125 -5.4375 C 9.3125 -5.4375 9.578125 -5.75 9.578125 -6.375 L 9.578125 -14.28125 C 9.578125 -14.914062 9.414062 -15.234375 9.09375 -15.234375 C 8.78125 -15.234375 8.566406 -14.878906 8.453125 -14.171875 L 5.90625 0 L 0.890625 0 L 3.03125 -11.59375 L 2.03125 -11.59375 C 1.25 -11.59375 0.859375 -11.976562 0.859375 -12.75 L 0.859375 -20.765625 L 5.9375 -20.765625 L 5.9375 -13.4375 L 6.953125 -17.4375 C 7.515625 -19.65625 8.726562 -20.765625 10.59375 -20.765625 L 10.859375 -20.765625 C 13.398438 -20.765625 14.671875 -19.207031 14.671875 -16.09375 Z M 14.671875 -3.734375 "/></g></g><g transform="translate(69.947624, 217.65521)"><g><path d="M 14.15625 -6.21875 C 14.15625 -4.1875 13.582031 -2.5625 12.4375 -1.34375 C 11.25 -0.09375 9.648438 0.53125 7.640625 0.53125 C 5.578125 0.53125 3.9375 -0.078125 2.71875 -1.296875 C 1.5 -2.515625 0.890625 -4.15625 0.890625 -6.21875 L 0.890625 -17.4375 C 0.890625 -18.039062 0.945312 -18.550781 1.0625 -18.96875 C 1.1875 -19.382812 1.375 -19.722656 1.625 -19.984375 C 1.882812 -20.253906 2.222656 -20.453125 2.640625 -20.578125 C 3.054688 -20.703125 3.5625 -20.765625 4.15625 -20.765625 L 10.859375 -20.765625 C 13.054688 -20.765625 14.15625 -19.65625 14.15625 -17.4375 Z M 9.03125 -14.921875 C 9.03125 -15.203125 8.910156 -15.34375 8.671875 -15.34375 L 6.328125 -15.34375 C 6.097656 -15.34375 5.984375 -15.203125 5.984375 -14.921875 L 5.984375 -6.78125 C 5.984375 -5.507812 6.515625 -4.875 7.578125 -4.875 C 8.546875 -4.875 9.03125 -5.507812 9.03125 -6.78125 Z M 9.03125 -14.921875 "/></g></g><g transform="translate(84.992689, 217.65521)"><g/></g><g transform="translate(92.936063, 217.65521)"><g><path d="M 9.390625 0 C 9.242188 -0.820312 8.914062 -1.898438 8.40625 -3.234375 C 7.894531 -4.566406 7.203125 -6.179688 6.328125 -8.078125 C 6.234375 -7.972656 6.160156 -7.890625 6.109375 -7.828125 C 6.066406 -7.773438 6.039062 -7.742188 6.03125 -7.734375 C 6.019531 -7.679688 6.007812 -7.578125 6 -7.421875 C 6 -7.265625 6 -7.046875 6 -6.765625 L 6 0 L 0.921875 0 L 0.921875 -6.203125 C 0.921875 -9.492188 1.9375 -11.625 3.96875 -12.59375 C 2.019531 -16.394531 0.9375 -19.117188 0.71875 -20.765625 L 6 -20.765625 C 6.25 -19.585938 6.628906 -18.347656 7.140625 -17.046875 C 7.648438 -15.753906 8.289062 -14.378906 9.0625 -12.921875 C 9.351562 -13.128906 9.5 -13.5625 9.5 -14.21875 L 9.5 -20.765625 L 14.625 -20.765625 L 14.625 -13.734375 C 14.625 -12.679688 14.300781 -11.65625 13.65625 -10.65625 C 13.007812 -9.675781 12.210938 -8.929688 11.265625 -8.421875 C 13.453125 -4.066406 14.570312 -1.257812 14.625 0 Z M 9.390625 0 "/></g></g><g transform="translate(108.279223, 217.65521)"><g><path d="M 12.390625 -7.5 C 12.390625 -2.5 9.992188 0 5.203125 0 L 3.015625 0 L 3.015625 -5.421875 L 4.484375 -5.421875 C 5.617188 -5.421875 6.390625 -5.78125 6.796875 -6.5 C 7.085938 -7.019531 7.234375 -7.914062 7.234375 -9.1875 L 7.234375 -14.484375 C 7.234375 -15.054688 6.941406 -15.34375 6.359375 -15.34375 L 0.890625 -15.34375 L 0.890625 -23.328125 L 5.984375 -23.328125 L 5.984375 -20.765625 L 9.796875 -20.765625 C 11.523438 -20.765625 12.390625 -19.925781 12.390625 -18.25 Z M 12.390625 -7.5 "/></g></g><g transform="translate(121.570784, 217.65521)"><g><path d="M 12.390625 -7.5 C 12.390625 -2.5 9.992188 0 5.203125 0 L 3.015625 0 L 3.015625 -5.421875 L 4.484375 -5.421875 C 5.617188 -5.421875 6.390625 -5.78125 6.796875 -6.5 C 7.085938 -7.019531 7.234375 -7.914062 7.234375 -9.1875 L 7.234375 -14.484375 C 7.234375 -15.054688 6.941406 -15.34375 6.359375 -15.34375 L 0.890625 -15.34375 L 0.890625 -23.328125 L 5.984375 -23.328125 L 5.984375 -20.765625 L 9.796875 -20.765625 C 11.523438 -20.765625 12.390625 -19.925781 12.390625 -18.25 Z M 12.390625 -7.5 "/></g></g><g transform="translate(134.862345, 217.65521)"><g/></g><g transform="translate(142.805718, 217.65521)"><g><path d="M 5.96875 2.984375 L 0.890625 2.984375 L 0.890625 -20.765625 L 5.96875 -20.765625 Z M 5.96875 2.984375 "/></g></g><g transform="translate(149.661919, 217.65521)"><g><path d="M 14.671875 -3.734375 C 14.671875 -1.242188 13.546875 0 11.296875 0 L 7.71875 0 L 7.71875 -5.4375 L 8.78125 -5.4375 C 9.3125 -5.4375 9.578125 -5.75 9.578125 -6.375 L 9.578125 -14.28125 C 9.578125 -14.914062 9.414062 -15.234375 9.09375 -15.234375 C 8.78125 -15.234375 8.566406 -14.878906 8.453125 -14.171875 L 5.90625 0 L 0.890625 0 L 3.03125 -11.59375 L 2.03125 -11.59375 C 1.25 -11.59375 0.859375 -11.976562 0.859375 -12.75 L 0.859375 -20.765625 L 5.9375 -20.765625 L 5.9375 -13.4375 L 6.953125 -17.4375 C 7.515625 -19.65625 8.726562 -20.765625 10.59375 -20.765625 L 10.859375 -20.765625 C 13.398438 -20.765625 14.671875 -19.207031 14.671875 -16.09375 Z M 14.671875 -3.734375 "/></g></g><g transform="translate(165.233035, 217.65521)"><g><path d="M 7.78125 -15.34375 L 7.71875 -15.34375 C 6.90625 -15.34375 6.5 -14.765625 6.5 -13.609375 L 6.5 0 L 1.46875 0 L 1.46875 -12.59375 C 1.46875 -14.09375 1.945312 -15.007812 2.90625 -15.34375 L 0.71875 -15.34375 L 0.71875 -20.765625 L 7.78125 -20.765625 Z M 7.78125 -15.34375 "/></g></g><g transform="translate(173.73753, 217.65521)"><g/></g><g transform="translate(181.680904, 217.65521)"><g><path d="M 14.359375 0 L 9.296875 0 L 9.296875 -14.359375 C 9.296875 -15.015625 8.992188 -15.34375 8.390625 -15.34375 L 7.71875 -15.34375 C 7.101562 -15.34375 6.796875 -15.015625 6.796875 -14.359375 L 6.796875 -2.484375 C 6.796875 -0.828125 6.101562 0 4.71875 0 L 0.34375 0 L 0.34375 -5.421875 L 1.234375 -5.421875 C 1.523438 -5.421875 1.671875 -5.546875 1.671875 -5.796875 L 1.671875 -16.78125 C 1.671875 -18.195312 1.941406 -19.210938 2.484375 -19.828125 C 3.035156 -20.453125 4.007812 -20.765625 5.40625 -20.765625 L 10.875 -20.765625 C 13.195312 -20.765625 14.359375 -19.4375 14.359375 -16.78125 Z M 14.359375 0 "/></g></g><g transform="translate(196.953924, 217.65521)"><g><path d="M 5.96875 0 L 0.890625 0 L 0.890625 -20.765625 L 5.96875 -20.765625 Z M 5.96875 0 "/></g></g><g transform="translate(203.810125, 217.65521)"><g><path d="M 10.0625 -3.265625 C 10.0625 -1.085938 9.035156 0 6.984375 0 L 0.71875 0 L 0.71875 -5.421875 L 4.3125 -5.421875 C 4.726562 -5.421875 4.9375 -5.675781 4.9375 -6.1875 L 4.9375 -14.484375 C 4.9375 -15.054688 4.679688 -15.34375 4.171875 -15.34375 L 2.203125 -15.34375 L 2.203125 -20.765625 L 6.890625 -20.765625 C 9.003906 -20.765625 10.0625 -19.671875 10.0625 -17.484375 Z M 10.0625 -3.265625 "/></g></g><g transform="translate(214.769525, 217.65521)"><g><path d="M 5.96875 0 L 0.890625 0 L 0.890625 -20.765625 L 5.96875 -20.765625 Z M 5.96875 0 "/></g></g><g transform="translate(221.625726, 217.65521)"><g><path d="M 12.390625 -7.5 C 12.390625 -2.5 9.992188 0 5.203125 0 L 3.015625 0 L 3.015625 -5.421875 L 4.484375 -5.421875 C 5.617188 -5.421875 6.390625 -5.78125 6.796875 -6.5 C 7.085938 -7.019531 7.234375 -7.914062 7.234375 -9.1875 L 7.234375 -14.484375 C 7.234375 -15.054688 6.941406 -15.34375 6.359375 -15.34375 L 0.890625 -15.34375 L 0.890625 -23.328125 L 5.984375 -23.328125 L 5.984375 -20.765625 L 9.796875 -20.765625 C 11.523438 -20.765625 12.390625 -19.925781 12.390625 -18.25 Z M 12.390625 -7.5 "/></g></g><g transform="translate(234.917287, 217.65521)"><g><path d="M 13.53125 0 L 8.453125 0 L 8.453125 -14.359375 C 8.453125 -15.015625 8.15625 -15.34375 7.5625 -15.34375 L 6.9375 -15.34375 C 6.34375 -15.34375 6.046875 -15.015625 6.046875 -14.359375 L 6.046875 0 L 0.890625 0 L 0.890625 -17.125 C 0.890625 -18.425781 1.109375 -19.332031 1.546875 -19.84375 C 2.035156 -20.457031 2.910156 -20.765625 4.171875 -20.765625 L 10.03125 -20.765625 C 12.363281 -20.765625 13.53125 -19.550781 13.53125 -17.125 Z M 13.53125 0 "/></g></g></g><g clip-path="url(#e5c4d313fe)"><path fill="#242536" d="M 258.671875 208.613281 C 258.59375 209.21875 257.480469 210.109375 257.445312 210.71875 C 257.378906 211.824219 258.875 213.984375 259.898438 214.398438 C 261.527344 215.058594 269.804688 214.75 269.804688 214.75 C 270.613281 216.164062 268.363281 219.65625 267.746094 221.164062 C 266.835938 223.375 266.988281 226.304688 268.140625 227.8125 C 269.542969 229.652344 272.117188 229.773438 272.171875 228.949219 C 272.554688 222.980469 273.699219 221.320312 275.230469 220.140625 C 276.148438 219.433594 276.953125 218.8125 277.375 217.730469 C 279.984375 211.085938 281.917969 209.550781 283.023438 209.550781 L 283.757812 209.550781 L 283.757812 194.449219 L 276.027344 193.011719 C 276.027344 193.011719 266.425781 192.101562 263.40625 193.011719 C 262.453125 193.296875 260.8125 194.722656 260.425781 195.640625 C 260.203125 196.167969 260.511719 197.414062 260.25 197.921875 C 259.863281 198.671875 258.230469 199.613281 258.230469 200.636719 C 258.234375 201.367188 259.082031 202.628906 259.019531 203.355469 C 258.960938 204.082031 257.441406 205.082031 257.445312 205.808594 C 257.445312 206.574219 258.773438 207.855469 258.671875 208.613281 Z M 258.671875 208.613281 " fill-opacity="1" fill-rule="nonzero"/></g><g clip-path="url(#de5e44eb8e)"><path fill="#242536" d="M 285.230469 194.816406 C 285.230469 194.003906 285.890625 193.34375 286.707031 193.34375 L 291.125 193.34375 C 291.9375 193.34375 292.597656 194.003906 292.597656 194.816406 L 292.597656 208.8125 C 292.597656 209.625 291.9375 210.285156 291.125 210.285156 L 286.707031 210.285156 C 285.890625 210.285156 285.230469 209.625 285.230469 208.8125 Z M 285.230469 194.816406 " fill-opacity="1" fill-rule="nonzero"/></g></svg>