<svg xmlns="http://www.w3.org/2000/svg" xmlns:xlink="http://www.w3.org/1999/xlink" width="1053" zoomAndPan="magnify" viewBox="0 0 789.75 639.000003" height="852" preserveAspectRatio="xMidYMid meet" version="1.0"><defs><g/></defs><g fill="#f8f6e9" fill-opacity="0.4"><g transform="translate(23.898197, 108.173371)"><g><path d="M 39.921875 -55.59375 C 39.921875 -55.34375 39.90625 -55.15625 39.875 -55.03125 L 33.375 -17.265625 L 39.59375 -1.453125 C 39.65625 -1.265625 39.6875 -1.109375 39.6875 -0.984375 C 39.6875 -0.328125 39.203125 0 38.234375 0 L 25.125 0 C 24.226562 0 23.59375 -0.453125 23.21875 -1.359375 L 16.5625 -18.015625 L 14.28125 -1.640625 C 14.125 -0.546875 13.515625 0 12.453125 0 L 2.765625 0 C 1.921875 0 1.5 -0.390625 1.5 -1.171875 C 1.5 -1.328125 1.515625 -1.453125 1.546875 -1.546875 L 7.859375 -39.3125 L 1.921875 -55.21875 C 1.796875 -55.5 1.734375 -55.765625 1.734375 -56.015625 C 1.734375 -56.546875 2.015625 -56.8125 2.578125 -56.8125 L 15.71875 -56.8125 C 16.5625 -56.8125 17.171875 -56.3125 17.546875 -55.3125 L 24.046875 -38.609375 L 26.8125 -55.3125 C 26.96875 -56.3125 27.515625 -56.8125 28.453125 -56.8125 L 38.703125 -56.8125 C 39.515625 -56.8125 39.921875 -56.40625 39.921875 -55.59375 Z M 39.921875 -55.59375 "/></g></g><g transform="translate(65.411355, 108.173371)"><g><path d="M 23.125 -62.65625 C 23.125 -62.289062 23.09375 -61.953125 23.03125 -61.640625 L 17.359375 -38.609375 C 17.109375 -37.671875 16.453125 -37.203125 15.390625 -37.203125 C 13.960938 -37.203125 13.25 -37.90625 13.25 -39.3125 L 13.25 -61.453125 C 13.25 -63.160156 13.773438 -64.015625 14.828125 -64.015625 L 22.046875 -64.015625 C 22.765625 -64.015625 23.125 -63.5625 23.125 -62.65625 Z M 11.9375 -62.65625 C 11.9375 -62.351562 11.890625 -62.015625 11.796875 -61.640625 L 6.125 -38.609375 C 5.875 -37.671875 5.207031 -37.203125 4.125 -37.203125 C 2.65625 -37.203125 1.921875 -37.90625 1.921875 -39.3125 L 1.921875 -61.453125 C 1.921875 -63.160156 2.5 -64.015625 3.65625 -64.015625 L 10.8125 -64.015625 C 11.5625 -64.015625 11.9375 -63.5625 11.9375 -62.65625 Z M 11.9375 -62.65625 "/></g></g><g transform="translate(89.841871, 108.173371)"><g><path d="M 27.609375 -1.734375 C 27.609375 -0.578125 27 0 25.78125 0 L 16.84375 0 C 15.75 0 15.1875 -0.578125 15.15625 -1.734375 L 14.828125 -6.78125 L 4.21875 1.921875 C 3.875 2.171875 3.546875 2.296875 3.234375 2.296875 C 2.359375 2.296875 1.921875 1.765625 1.921875 0.703125 L 1.921875 0.46875 L 3.28125 -16.75 C 3.375 -17.90625 3.976562 -18.84375 5.09375 -19.5625 L 13.4375 -24.796875 L 12.640625 -36.59375 C 12.578125 -37.25 12.265625 -37.578125 11.703125 -37.578125 L 7.859375 -37.578125 C 6.328125 -37.578125 5.5625 -38.15625 5.5625 -39.3125 L 5.5625 -39.6875 L 6.59375 -54.9375 C 6.6875 -56.1875 7.296875 -56.8125 8.421875 -56.8125 L 22.609375 -56.8125 C 23.722656 -56.8125 24.328125 -56.140625 24.421875 -54.796875 L 27.609375 -2.015625 Z M 27.609375 -1.734375 "/></g></g><g transform="translate(119.326978, 108.173371)"><g><path d="M 37.578125 -2.15625 C 37.578125 -0.71875 36.9375 0 35.65625 0 L 27.046875 0 C 25.640625 0 24.890625 -0.796875 24.796875 -2.390625 L 22.796875 -36.125 C 22.734375 -37.15625 22.296875 -37.671875 21.484375 -37.671875 L 6.78125 -37.671875 C 5.320312 -37.671875 4.59375 -38.5 4.59375 -40.15625 L 4.59375 -40.4375 L 5.375 -54.515625 C 5.46875 -56.046875 6.296875 -56.8125 7.859375 -56.8125 L 32.390625 -56.8125 C 33.816406 -56.8125 34.578125 -55.984375 34.671875 -54.328125 L 37.578125 -2.390625 Z M 15.71875 -24.890625 L 15.0625 -2.203125 C 15 -0.734375 14.222656 0 12.734375 0 L 4.59375 0 C 3.3125 0 2.671875 -0.75 2.671875 -2.25 L 2.671875 -2.390625 L 3.5625 -25.125 C 3.59375 -26.65625 4.445312 -27.421875 6.125 -27.421875 L 13.53125 -27.421875 C 14.988281 -27.421875 15.71875 -26.640625 15.71875 -25.078125 Z M 15.71875 -24.890625 "/></g></g><g transform="translate(159.62329, 108.173371)"><g/></g><g transform="translate(180.824486, 108.173371)"><g><path d="M 37.953125 -54.703125 L 34.765625 -2.015625 C 34.671875 -0.671875 34.003906 0 32.765625 0 L 4.03125 0 C 2.875 0 2.296875 -0.625 2.296875 -1.875 L 2.296875 -2.015625 L 3.5625 -17.265625 C 3.65625 -18.546875 4.351562 -19.1875 5.65625 -19.1875 L 7.671875 -19.1875 L 4.59375 -54.703125 L 4.59375 -54.984375 C 4.59375 -56.140625 5.164062 -56.71875 6.3125 -56.71875 L 15.15625 -56.71875 C 16.4375 -56.71875 17.140625 -56.046875 17.265625 -54.703125 L 20.3125 -19.09375 L 22.140625 -19.09375 C 22.796875 -19.09375 23.15625 -19.5 23.21875 -20.3125 L 25.5 -54.703125 C 25.59375 -56.046875 26.265625 -56.71875 27.515625 -56.71875 L 36.125 -56.71875 C 37.34375 -56.71875 37.953125 -56.125 37.953125 -54.9375 Z M 37.953125 -54.703125 "/></g></g><g transform="translate(221.495213, 108.173371)"><g><path d="M 18.765625 -1.921875 C 18.765625 -0.640625 18.296875 0 17.359375 0 L 7.859375 0 C 6.703125 0 6.125 -0.640625 6.125 -1.921875 L 6.125 -36.78125 C 6.125 -37.375 5.90625 -37.671875 5.46875 -37.671875 L 4.953125 -37.671875 C 4.179688 -37.671875 3.75 -38.3125 3.65625 -39.59375 L 2.671875 -54.703125 L 2.671875 -54.84375 C 2.671875 -56.15625 3.28125 -56.8125 4.5 -56.8125 L 16.84375 -56.8125 C 18.125 -56.8125 18.765625 -56.109375 18.765625 -54.703125 Z M 18.765625 -1.921875 "/></g></g><g transform="translate(243.304831, 108.173371)"><g><path d="M 31.453125 -1.921875 C 31.453125 -0.640625 30.9375 0 29.90625 0 L 20.5 0 C 19.28125 0 18.671875 -0.640625 18.671875 -1.921875 L 18.671875 -36.6875 C 18.671875 -37.34375 18.328125 -37.671875 17.640625 -37.671875 L 4.78125 -37.671875 C 3.46875 -37.671875 2.796875 -38.28125 2.765625 -39.5 L 1.828125 -54.703125 L 1.828125 -54.84375 C 1.828125 -56.15625 2.4375 -56.8125 3.65625 -56.8125 L 29.53125 -56.8125 C 30.8125 -56.8125 31.453125 -56.109375 31.453125 -54.703125 Z M 31.453125 -1.921875 "/></g></g><g transform="translate(278.593354, 108.173371)"><g><path d="M 19.65625 -24.515625 C 19.65625 -23.242188 19.140625 -22.609375 18.109375 -22.609375 L 8.703125 -22.609375 C 7.578125 -22.609375 7.015625 -23.242188 7.015625 -24.515625 L 7.015625 -36.6875 C 7.015625 -37.34375 6.6875 -37.671875 6.03125 -37.671875 L 5.28125 -37.671875 C 4.289062 -37.671875 3.75 -38.3125 3.65625 -39.59375 L 2.671875 -54.703125 L 2.671875 -54.890625 C 2.671875 -56.171875 3.28125 -56.8125 4.5 -56.8125 L 17.734375 -56.8125 C 19.015625 -56.8125 19.65625 -56.109375 19.65625 -54.703125 Z M 19.65625 -24.515625 "/></g></g><g transform="translate(301.245405, 108.173371)"><g><path d="M 39.921875 -55.59375 C 39.921875 -55.34375 39.90625 -55.15625 39.875 -55.03125 L 33.375 -17.265625 L 39.59375 -1.453125 C 39.65625 -1.265625 39.6875 -1.109375 39.6875 -0.984375 C 39.6875 -0.328125 39.203125 0 38.234375 0 L 25.125 0 C 24.226562 0 23.59375 -0.453125 23.21875 -1.359375 L 16.5625 -18.015625 L 14.28125 -1.640625 C 14.125 -0.546875 13.515625 0 12.453125 0 L 2.765625 0 C 1.921875 0 1.5 -0.390625 1.5 -1.171875 C 1.5 -1.328125 1.515625 -1.453125 1.546875 -1.546875 L 7.859375 -39.3125 L 1.921875 -55.21875 C 1.796875 -55.5 1.734375 -55.765625 1.734375 -56.015625 C 1.734375 -56.546875 2.015625 -56.8125 2.578125 -56.8125 L 15.71875 -56.8125 C 16.5625 -56.8125 17.171875 -56.3125 17.546875 -55.3125 L 24.046875 -38.609375 L 26.8125 -55.3125 C 26.96875 -56.3125 27.515625 -56.8125 28.453125 -56.8125 L 38.703125 -56.8125 C 39.515625 -56.8125 39.921875 -56.40625 39.921875 -55.59375 Z M 39.921875 -55.59375 "/></g></g><g transform="translate(342.758563, 108.173371)"><g><path d="M 34.765625 -1.734375 C 34.765625 -0.578125 34.300781 0 33.375 0 L 2.859375 0 C 1.859375 0 1.359375 -0.515625 1.359375 -1.546875 L 1.359375 -1.734375 L 2.109375 -17.453125 C 2.140625 -18.609375 2.6875 -19.1875 3.75 -19.1875 L 17.828125 -19.1875 L 16.75 -36.59375 C 16.6875 -37.25 16.40625 -37.578125 15.90625 -37.578125 L 5.9375 -37.578125 C 4.851562 -37.578125 4.3125 -38.171875 4.3125 -39.359375 L 4.3125 -39.5 L 4.953125 -55.125 C 4.984375 -56.25 5.671875 -56.8125 7.015625 -56.8125 L 26.53125 -56.8125 C 27.75 -56.8125 28.390625 -56.21875 28.453125 -55.03125 L 30.5625 -19.1875 L 32.390625 -19.1875 C 33.410156 -19.1875 33.953125 -18.546875 34.015625 -17.265625 L 34.765625 -1.828125 Z M 34.765625 -1.734375 "/></g></g><g transform="translate(378.889519, 108.173371)"><g/></g><g transform="translate(400.090715, 108.173371)"><g><path d="M 41.234375 -1.828125 C 41.234375 -0.609375 40.625 0 39.40625 0 L 4.5 0 C 3.28125 0 2.671875 -0.625 2.671875 -1.875 L 2.671875 -2.015625 L 5.9375 -54.703125 C 6.03125 -56.109375 6.703125 -56.8125 7.953125 -56.8125 L 36.03125 -56.8125 C 37.28125 -56.8125 37.953125 -56.109375 38.046875 -54.703125 L 41.234375 -2.015625 Z M 27.703125 -20.03125 L 26.34375 -37.015625 C 26.28125 -37.390625 26.09375 -37.578125 25.78125 -37.578125 L 18.015625 -37.578125 C 17.546875 -37.578125 17.296875 -37.390625 17.265625 -37.015625 L 16.28125 -20.03125 L 16.28125 -19.984375 C 16.28125 -19.453125 16.578125 -19.1875 17.171875 -19.1875 L 26.8125 -19.1875 C 27.40625 -19.1875 27.703125 -19.421875 27.703125 -19.890625 Z M 27.703125 -20.03125 "/></g></g><g transform="translate(443.990762, 108.173371)"><g><path d="M 18.765625 -1.921875 C 18.765625 -0.640625 18.296875 0 17.359375 0 L 7.859375 0 C 6.703125 0 6.125 -0.640625 6.125 -1.921875 L 6.125 -36.78125 C 6.125 -37.375 5.90625 -37.671875 5.46875 -37.671875 L 4.953125 -37.671875 C 4.179688 -37.671875 3.75 -38.3125 3.65625 -39.59375 L 2.671875 -54.703125 L 2.671875 -54.84375 C 2.671875 -56.15625 3.28125 -56.8125 4.5 -56.8125 L 16.84375 -56.8125 C 18.125 -56.8125 18.765625 -56.109375 18.765625 -54.703125 Z M 18.765625 -1.921875 "/></g></g><g transform="translate(465.80038, 108.173371)"><g><path d="M 31.453125 -1.921875 C 31.453125 -0.640625 30.9375 0 29.90625 0 L 20.5 0 C 19.28125 0 18.671875 -0.640625 18.671875 -1.921875 L 18.671875 -36.6875 C 18.671875 -37.34375 18.328125 -37.671875 17.640625 -37.671875 L 4.78125 -37.671875 C 3.46875 -37.671875 2.796875 -38.28125 2.765625 -39.5 L 1.828125 -54.703125 L 1.828125 -54.84375 C 1.828125 -56.15625 2.4375 -56.8125 3.65625 -56.8125 L 29.53125 -56.8125 C 30.8125 -56.8125 31.453125 -56.109375 31.453125 -54.703125 Z M 31.453125 -1.921875 "/></g></g><g transform="translate(501.088904, 108.173371)"><g><path d="M 19.65625 -24.515625 C 19.65625 -23.242188 19.140625 -22.609375 18.109375 -22.609375 L 8.703125 -22.609375 C 7.578125 -22.609375 7.015625 -23.242188 7.015625 -24.515625 L 7.015625 -36.6875 C 7.015625 -37.34375 6.6875 -37.671875 6.03125 -37.671875 L 5.28125 -37.671875 C 4.289062 -37.671875 3.75 -38.3125 3.65625 -39.59375 L 2.671875 -54.703125 L 2.671875 -54.890625 C 2.671875 -56.171875 3.28125 -56.8125 4.5 -56.8125 L 17.734375 -56.8125 C 19.015625 -56.8125 19.65625 -56.109375 19.65625 -54.703125 Z M 19.65625 -24.515625 "/></g></g><g transform="translate(523.740954, 108.173371)"><g><path d="M 39.5 -1.546875 C 39.5 -0.515625 39.046875 0 38.140625 0 L 28.828125 0 C 27.796875 0 27.234375 -0.671875 27.140625 -2.015625 L 24.703125 -36.78125 C 24.640625 -37.3125 24.300781 -37.578125 23.6875 -37.578125 L 18.390625 -37.578125 C 17.921875 -37.578125 17.671875 -37.28125 17.640625 -36.6875 L 15.0625 -2.015625 C 14.96875 -0.671875 14.363281 0 13.25 0 L 4.21875 0 C 3.1875 0 2.671875 -0.625 2.671875 -1.875 L 2.671875 -2.015625 L 6.03125 -54.703125 C 6.125 -56.109375 6.796875 -56.8125 8.046875 -56.8125 L 34.484375 -56.8125 C 35.734375 -56.8125 36.40625 -56.109375 36.5 -54.703125 L 39.5 -2.015625 Z M 39.5 -1.546875 "/></g></g><g transform="translate(565.956138, 108.173371)"><g><path d="M 37.578125 -2.15625 C 37.578125 -0.71875 36.9375 0 35.65625 0 L 27.046875 0 C 25.640625 0 24.890625 -0.796875 24.796875 -2.390625 L 22.796875 -36.125 C 22.734375 -37.15625 22.296875 -37.671875 21.484375 -37.671875 L 6.78125 -37.671875 C 5.320312 -37.671875 4.59375 -38.5 4.59375 -40.15625 L 4.59375 -40.4375 L 5.375 -54.515625 C 5.46875 -56.046875 6.296875 -56.8125 7.859375 -56.8125 L 32.390625 -56.8125 C 33.816406 -56.8125 34.578125 -55.984375 34.671875 -54.328125 L 37.578125 -2.390625 Z M 15.71875 -24.890625 L 15.0625 -2.203125 C 15 -0.734375 14.222656 0 12.734375 0 L 4.59375 0 C 3.3125 0 2.671875 -0.75 2.671875 -2.25 L 2.671875 -2.390625 L 3.5625 -25.125 C 3.59375 -26.65625 4.445312 -27.421875 6.125 -27.421875 L 13.53125 -27.421875 C 14.988281 -27.421875 15.71875 -26.640625 15.71875 -25.078125 Z M 15.71875 -24.890625 "/></g></g><g transform="translate(606.252451, 108.173371)"><g/></g><g transform="translate(627.453646, 108.173371)"><g><path d="M 19.65625 -24.515625 C 19.65625 -23.242188 19.140625 -22.609375 18.109375 -22.609375 L 8.703125 -22.609375 C 7.578125 -22.609375 7.015625 -23.242188 7.015625 -24.515625 L 7.015625 -36.6875 C 7.015625 -37.34375 6.6875 -37.671875 6.03125 -37.671875 L 5.28125 -37.671875 C 4.289062 -37.671875 3.75 -38.3125 3.65625 -39.59375 L 2.671875 -54.703125 L 2.671875 -54.890625 C 2.671875 -56.171875 3.28125 -56.8125 4.5 -56.8125 L 17.734375 -56.8125 C 19.015625 -56.8125 19.65625 -56.109375 19.65625 -54.703125 Z M 19.65625 -24.515625 "/></g></g><g transform="translate(650.105697, 108.173371)"><g><path d="M 34.765625 -1.734375 C 34.765625 -0.578125 34.300781 0 33.375 0 L 2.859375 0 C 1.859375 0 1.359375 -0.515625 1.359375 -1.546875 L 1.359375 -1.734375 L 2.109375 -17.453125 C 2.140625 -18.609375 2.6875 -19.1875 3.75 -19.1875 L 17.828125 -19.1875 L 16.75 -36.59375 C 16.6875 -37.25 16.40625 -37.578125 15.90625 -37.578125 L 5.9375 -37.578125 C 4.851562 -37.578125 4.3125 -38.171875 4.3125 -39.359375 L 4.3125 -39.5 L 4.953125 -55.125 C 4.984375 -56.25 5.671875 -56.8125 7.015625 -56.8125 L 26.53125 -56.8125 C 27.75 -56.8125 28.390625 -56.21875 28.453125 -55.03125 L 30.5625 -19.1875 L 32.390625 -19.1875 C 33.410156 -19.1875 33.953125 -18.546875 34.015625 -17.265625 L 34.765625 -1.828125 Z M 34.765625 -1.734375 "/></g></g><g transform="translate(686.236653, 108.173371)"><g><path d="M 38.046875 -55.5 C 38.046875 -55.375 38.035156 -55.25 38.015625 -55.125 C 38.003906 -55 37.984375 -54.859375 37.953125 -54.703125 L 30.75 -20.125 L 36.875 -2.015625 C 36.96875 -1.828125 37.015625 -1.625 37.015625 -1.40625 C 37.015625 -0.46875 36.59375 0 35.75 0 L 3.84375 0 C 2.6875 0 2.109375 -0.625 2.109375 -1.875 L 2.109375 -2.015625 L 3.375 -16.9375 C 3.5 -18.4375 4.226562 -19.1875 5.5625 -19.1875 L 13.34375 -19.1875 C 13.875 -19.1875 14.140625 -19.34375 14.140625 -19.65625 C 14.140625 -19.75 14.125 -19.8125 14.09375 -19.84375 L 1.921875 -54.703125 C 1.859375 -54.953125 1.828125 -55.171875 1.828125 -55.359375 C 1.828125 -56.328125 2.34375 -56.8125 3.375 -56.8125 L 15.0625 -56.8125 C 16.3125 -56.8125 17.171875 -56.109375 17.640625 -54.703125 L 22.328125 -40.53125 L 24.890625 -54.703125 C 25.109375 -56.109375 25.953125 -56.8125 27.421875 -56.8125 L 36.59375 -56.8125 C 37.5625 -56.8125 38.046875 -56.375 38.046875 -55.5 Z M 38.046875 -55.5 "/></g></g><g transform="translate(726.018146, 108.173371)"><g><path d="M 40.53125 -1.875 C 40.53125 -0.625 39.921875 0 38.703125 0 L 21.203125 0 C 19.984375 0 19.375 -0.640625 19.375 -1.921875 L 19.375 -2.015625 L 20.21875 -16.84375 C 20.3125 -18.40625 20.984375 -19.1875 22.234375 -19.1875 L 25.875 -19.1875 C 26.46875 -19.1875 26.765625 -19.484375 26.765625 -20.078125 C 26.765625 -20.203125 26.75 -20.28125 26.71875 -20.3125 L 25.6875 -36.5 C 25.65625 -37.28125 25.296875 -37.671875 24.609375 -37.671875 L 18.578125 -37.671875 C 17.921875 -37.671875 17.578125 -37.28125 17.546875 -36.5 L 15.4375 -2.015625 C 15.34375 -0.671875 14.675781 0 13.4375 0 L 4.5 0 C 3.28125 0 2.671875 -0.640625 2.671875 -1.921875 L 2.671875 -2.015625 L 6.03125 -54.703125 C 6.125 -56.109375 6.828125 -56.8125 8.140625 -56.8125 L 35.1875 -56.8125 C 36.4375 -56.8125 37.109375 -56.109375 37.203125 -54.703125 L 40.53125 -2.015625 Z M 40.53125 -1.875 "/></g></g></g><g fill="#f8f6e9" fill-opacity="1"><g transform="translate(19.662185, 103.93736)"><g><path d="M 39.921875 -55.59375 C 39.921875 -55.34375 39.90625 -55.15625 39.875 -55.03125 L 33.375 -17.265625 L 39.59375 -1.453125 C 39.65625 -1.265625 39.6875 -1.109375 39.6875 -0.984375 C 39.6875 -0.328125 39.203125 0 38.234375 0 L 25.125 0 C 24.226562 0 23.59375 -0.453125 23.21875 -1.359375 L 16.5625 -18.015625 L 14.28125 -1.640625 C 14.125 -0.546875 13.515625 0 12.453125 0 L 2.765625 0 C 1.921875 0 1.5 -0.390625 1.5 -1.171875 C 1.5 -1.328125 1.515625 -1.453125 1.546875 -1.546875 L 7.859375 -39.3125 L 1.921875 -55.21875 C 1.796875 -55.5 1.734375 -55.765625 1.734375 -56.015625 C 1.734375 -56.546875 2.015625 -56.8125 2.578125 -56.8125 L 15.71875 -56.8125 C 16.5625 -56.8125 17.171875 -56.3125 17.546875 -55.3125 L 24.046875 -38.609375 L 26.8125 -55.3125 C 26.96875 -56.3125 27.515625 -56.8125 28.453125 -56.8125 L 38.703125 -56.8125 C 39.515625 -56.8125 39.921875 -56.40625 39.921875 -55.59375 Z M 39.921875 -55.59375 "/></g></g><g transform="translate(61.175343, 103.93736)"><g><path d="M 23.125 -62.65625 C 23.125 -62.289062 23.09375 -61.953125 23.03125 -61.640625 L 17.359375 -38.609375 C 17.109375 -37.671875 16.453125 -37.203125 15.390625 -37.203125 C 13.960938 -37.203125 13.25 -37.90625 13.25 -39.3125 L 13.25 -61.453125 C 13.25 -63.160156 13.773438 -64.015625 14.828125 -64.015625 L 22.046875 -64.015625 C 22.765625 -64.015625 23.125 -63.5625 23.125 -62.65625 Z M 11.9375 -62.65625 C 11.9375 -62.351562 11.890625 -62.015625 11.796875 -61.640625 L 6.125 -38.609375 C 5.875 -37.671875 5.207031 -37.203125 4.125 -37.203125 C 2.65625 -37.203125 1.921875 -37.90625 1.921875 -39.3125 L 1.921875 -61.453125 C 1.921875 -63.160156 2.5 -64.015625 3.65625 -64.015625 L 10.8125 -64.015625 C 11.5625 -64.015625 11.9375 -63.5625 11.9375 -62.65625 Z M 11.9375 -62.65625 "/></g></g><g transform="translate(85.605859, 103.93736)"><g><path d="M 27.609375 -1.734375 C 27.609375 -0.578125 27 0 25.78125 0 L 16.84375 0 C 15.75 0 15.1875 -0.578125 15.15625 -1.734375 L 14.828125 -6.78125 L 4.21875 1.921875 C 3.875 2.171875 3.546875 2.296875 3.234375 2.296875 C 2.359375 2.296875 1.921875 1.765625 1.921875 0.703125 L 1.921875 0.46875 L 3.28125 -16.75 C 3.375 -17.90625 3.976562 -18.84375 5.09375 -19.5625 L 13.4375 -24.796875 L 12.640625 -36.59375 C 12.578125 -37.25 12.265625 -37.578125 11.703125 -37.578125 L 7.859375 -37.578125 C 6.328125 -37.578125 5.5625 -38.15625 5.5625 -39.3125 L 5.5625 -39.6875 L 6.59375 -54.9375 C 6.6875 -56.1875 7.296875 -56.8125 8.421875 -56.8125 L 22.609375 -56.8125 C 23.722656 -56.8125 24.328125 -56.140625 24.421875 -54.796875 L 27.609375 -2.015625 Z M 27.609375 -1.734375 "/></g></g><g transform="translate(115.090966, 103.93736)"><g><path d="M 37.578125 -2.15625 C 37.578125 -0.71875 36.9375 0 35.65625 0 L 27.046875 0 C 25.640625 0 24.890625 -0.796875 24.796875 -2.390625 L 22.796875 -36.125 C 22.734375 -37.15625 22.296875 -37.671875 21.484375 -37.671875 L 6.78125 -37.671875 C 5.320312 -37.671875 4.59375 -38.5 4.59375 -40.15625 L 4.59375 -40.4375 L 5.375 -54.515625 C 5.46875 -56.046875 6.296875 -56.8125 7.859375 -56.8125 L 32.390625 -56.8125 C 33.816406 -56.8125 34.578125 -55.984375 34.671875 -54.328125 L 37.578125 -2.390625 Z M 15.71875 -24.890625 L 15.0625 -2.203125 C 15 -0.734375 14.222656 0 12.734375 0 L 4.59375 0 C 3.3125 0 2.671875 -0.75 2.671875 -2.25 L 2.671875 -2.390625 L 3.5625 -25.125 C 3.59375 -26.65625 4.445312 -27.421875 6.125 -27.421875 L 13.53125 -27.421875 C 14.988281 -27.421875 15.71875 -26.640625 15.71875 -25.078125 Z M 15.71875 -24.890625 "/></g></g><g transform="translate(155.387278, 103.93736)"><g/></g><g transform="translate(176.588474, 103.93736)"><g><path d="M 37.953125 -54.703125 L 34.765625 -2.015625 C 34.671875 -0.671875 34.003906 0 32.765625 0 L 4.03125 0 C 2.875 0 2.296875 -0.625 2.296875 -1.875 L 2.296875 -2.015625 L 3.5625 -17.265625 C 3.65625 -18.546875 4.351562 -19.1875 5.65625 -19.1875 L 7.671875 -19.1875 L 4.59375 -54.703125 L 4.59375 -54.984375 C 4.59375 -56.140625 5.164062 -56.71875 6.3125 -56.71875 L 15.15625 -56.71875 C 16.4375 -56.71875 17.140625 -56.046875 17.265625 -54.703125 L 20.3125 -19.09375 L 22.140625 -19.09375 C 22.796875 -19.09375 23.15625 -19.5 23.21875 -20.3125 L 25.5 -54.703125 C 25.59375 -56.046875 26.265625 -56.71875 27.515625 -56.71875 L 36.125 -56.71875 C 37.34375 -56.71875 37.953125 -56.125 37.953125 -54.9375 Z M 37.953125 -54.703125 "/></g></g><g transform="translate(217.2592, 103.93736)"><g><path d="M 18.765625 -1.921875 C 18.765625 -0.640625 18.296875 0 17.359375 0 L 7.859375 0 C 6.703125 0 6.125 -0.640625 6.125 -1.921875 L 6.125 -36.78125 C 6.125 -37.375 5.90625 -37.671875 5.46875 -37.671875 L 4.953125 -37.671875 C 4.179688 -37.671875 3.75 -38.3125 3.65625 -39.59375 L 2.671875 -54.703125 L 2.671875 -54.84375 C 2.671875 -56.15625 3.28125 -56.8125 4.5 -56.8125 L 16.84375 -56.8125 C 18.125 -56.8125 18.765625 -56.109375 18.765625 -54.703125 Z M 18.765625 -1.921875 "/></g></g><g transform="translate(239.068818, 103.93736)"><g><path d="M 31.453125 -1.921875 C 31.453125 -0.640625 30.9375 0 29.90625 0 L 20.5 0 C 19.28125 0 18.671875 -0.640625 18.671875 -1.921875 L 18.671875 -36.6875 C 18.671875 -37.34375 18.328125 -37.671875 17.640625 -37.671875 L 4.78125 -37.671875 C 3.46875 -37.671875 2.796875 -38.28125 2.765625 -39.5 L 1.828125 -54.703125 L 1.828125 -54.84375 C 1.828125 -56.15625 2.4375 -56.8125 3.65625 -56.8125 L 29.53125 -56.8125 C 30.8125 -56.8125 31.453125 -56.109375 31.453125 -54.703125 Z M 31.453125 -1.921875 "/></g></g><g transform="translate(274.357342, 103.93736)"><g><path d="M 19.65625 -24.515625 C 19.65625 -23.242188 19.140625 -22.609375 18.109375 -22.609375 L 8.703125 -22.609375 C 7.578125 -22.609375 7.015625 -23.242188 7.015625 -24.515625 L 7.015625 -36.6875 C 7.015625 -37.34375 6.6875 -37.671875 6.03125 -37.671875 L 5.28125 -37.671875 C 4.289062 -37.671875 3.75 -38.3125 3.65625 -39.59375 L 2.671875 -54.703125 L 2.671875 -54.890625 C 2.671875 -56.171875 3.28125 -56.8125 4.5 -56.8125 L 17.734375 -56.8125 C 19.015625 -56.8125 19.65625 -56.109375 19.65625 -54.703125 Z M 19.65625 -24.515625 "/></g></g><g transform="translate(297.009393, 103.93736)"><g><path d="M 39.921875 -55.59375 C 39.921875 -55.34375 39.90625 -55.15625 39.875 -55.03125 L 33.375 -17.265625 L 39.59375 -1.453125 C 39.65625 -1.265625 39.6875 -1.109375 39.6875 -0.984375 C 39.6875 -0.328125 39.203125 0 38.234375 0 L 25.125 0 C 24.226562 0 23.59375 -0.453125 23.21875 -1.359375 L 16.5625 -18.015625 L 14.28125 -1.640625 C 14.125 -0.546875 13.515625 0 12.453125 0 L 2.765625 0 C 1.921875 0 1.5 -0.390625 1.5 -1.171875 C 1.5 -1.328125 1.515625 -1.453125 1.546875 -1.546875 L 7.859375 -39.3125 L 1.921875 -55.21875 C 1.796875 -55.5 1.734375 -55.765625 1.734375 -56.015625 C 1.734375 -56.546875 2.015625 -56.8125 2.578125 -56.8125 L 15.71875 -56.8125 C 16.5625 -56.8125 17.171875 -56.3125 17.546875 -55.3125 L 24.046875 -38.609375 L 26.8125 -55.3125 C 26.96875 -56.3125 27.515625 -56.8125 28.453125 -56.8125 L 38.703125 -56.8125 C 39.515625 -56.8125 39.921875 -56.40625 39.921875 -55.59375 Z M 39.921875 -55.59375 "/></g></g><g transform="translate(338.52255, 103.93736)"><g><path d="M 34.765625 -1.734375 C 34.765625 -0.578125 34.300781 0 33.375 0 L 2.859375 0 C 1.859375 0 1.359375 -0.515625 1.359375 -1.546875 L 1.359375 -1.734375 L 2.109375 -17.453125 C 2.140625 -18.609375 2.6875 -19.1875 3.75 -19.1875 L 17.828125 -19.1875 L 16.75 -36.59375 C 16.6875 -37.25 16.40625 -37.578125 15.90625 -37.578125 L 5.9375 -37.578125 C 4.851562 -37.578125 4.3125 -38.171875 4.3125 -39.359375 L 4.3125 -39.5 L 4.953125 -55.125 C 4.984375 -56.25 5.671875 -56.8125 7.015625 -56.8125 L 26.53125 -56.8125 C 27.75 -56.8125 28.390625 -56.21875 28.453125 -55.03125 L 30.5625 -19.1875 L 32.390625 -19.1875 C 33.410156 -19.1875 33.953125 -18.546875 34.015625 -17.265625 L 34.765625 -1.828125 Z M 34.765625 -1.734375 "/></g></g><g transform="translate(374.653507, 103.93736)"><g/></g><g transform="translate(395.854702, 103.93736)"><g><path d="M 41.234375 -1.828125 C 41.234375 -0.609375 40.625 0 39.40625 0 L 4.5 0 C 3.28125 0 2.671875 -0.625 2.671875 -1.875 L 2.671875 -2.015625 L 5.9375 -54.703125 C 6.03125 -56.109375 6.703125 -56.8125 7.953125 -56.8125 L 36.03125 -56.8125 C 37.28125 -56.8125 37.953125 -56.109375 38.046875 -54.703125 L 41.234375 -2.015625 Z M 27.703125 -20.03125 L 26.34375 -37.015625 C 26.28125 -37.390625 26.09375 -37.578125 25.78125 -37.578125 L 18.015625 -37.578125 C 17.546875 -37.578125 17.296875 -37.390625 17.265625 -37.015625 L 16.28125 -20.03125 L 16.28125 -19.984375 C 16.28125 -19.453125 16.578125 -19.1875 17.171875 -19.1875 L 26.8125 -19.1875 C 27.40625 -19.1875 27.703125 -19.421875 27.703125 -19.890625 Z M 27.703125 -20.03125 "/></g></g><g transform="translate(439.754749, 103.93736)"><g><path d="M 18.765625 -1.921875 C 18.765625 -0.640625 18.296875 0 17.359375 0 L 7.859375 0 C 6.703125 0 6.125 -0.640625 6.125 -1.921875 L 6.125 -36.78125 C 6.125 -37.375 5.90625 -37.671875 5.46875 -37.671875 L 4.953125 -37.671875 C 4.179688 -37.671875 3.75 -38.3125 3.65625 -39.59375 L 2.671875 -54.703125 L 2.671875 -54.84375 C 2.671875 -56.15625 3.28125 -56.8125 4.5 -56.8125 L 16.84375 -56.8125 C 18.125 -56.8125 18.765625 -56.109375 18.765625 -54.703125 Z M 18.765625 -1.921875 "/></g></g><g transform="translate(461.564368, 103.93736)"><g><path d="M 31.453125 -1.921875 C 31.453125 -0.640625 30.9375 0 29.90625 0 L 20.5 0 C 19.28125 0 18.671875 -0.640625 18.671875 -1.921875 L 18.671875 -36.6875 C 18.671875 -37.34375 18.328125 -37.671875 17.640625 -37.671875 L 4.78125 -37.671875 C 3.46875 -37.671875 2.796875 -38.28125 2.765625 -39.5 L 1.828125 -54.703125 L 1.828125 -54.84375 C 1.828125 -56.15625 2.4375 -56.8125 3.65625 -56.8125 L 29.53125 -56.8125 C 30.8125 -56.8125 31.453125 -56.109375 31.453125 -54.703125 Z M 31.453125 -1.921875 "/></g></g><g transform="translate(496.852891, 103.93736)"><g><path d="M 19.65625 -24.515625 C 19.65625 -23.242188 19.140625 -22.609375 18.109375 -22.609375 L 8.703125 -22.609375 C 7.578125 -22.609375 7.015625 -23.242188 7.015625 -24.515625 L 7.015625 -36.6875 C 7.015625 -37.34375 6.6875 -37.671875 6.03125 -37.671875 L 5.28125 -37.671875 C 4.289062 -37.671875 3.75 -38.3125 3.65625 -39.59375 L 2.671875 -54.703125 L 2.671875 -54.890625 C 2.671875 -56.171875 3.28125 -56.8125 4.5 -56.8125 L 17.734375 -56.8125 C 19.015625 -56.8125 19.65625 -56.109375 19.65625 -54.703125 Z M 19.65625 -24.515625 "/></g></g><g transform="translate(519.504942, 103.93736)"><g><path d="M 39.5 -1.546875 C 39.5 -0.515625 39.046875 0 38.140625 0 L 28.828125 0 C 27.796875 0 27.234375 -0.671875 27.140625 -2.015625 L 24.703125 -36.78125 C 24.640625 -37.3125 24.300781 -37.578125 23.6875 -37.578125 L 18.390625 -37.578125 C 17.921875 -37.578125 17.671875 -37.28125 17.640625 -36.6875 L 15.0625 -2.015625 C 14.96875 -0.671875 14.363281 0 13.25 0 L 4.21875 0 C 3.1875 0 2.671875 -0.625 2.671875 -1.875 L 2.671875 -2.015625 L 6.03125 -54.703125 C 6.125 -56.109375 6.796875 -56.8125 8.046875 -56.8125 L 34.484375 -56.8125 C 35.734375 -56.8125 36.40625 -56.109375 36.5 -54.703125 L 39.5 -2.015625 Z M 39.5 -1.546875 "/></g></g><g transform="translate(561.720126, 103.93736)"><g><path d="M 37.578125 -2.15625 C 37.578125 -0.71875 36.9375 0 35.65625 0 L 27.046875 0 C 25.640625 0 24.890625 -0.796875 24.796875 -2.390625 L 22.796875 -36.125 C 22.734375 -37.15625 22.296875 -37.671875 21.484375 -37.671875 L 6.78125 -37.671875 C 5.320312 -37.671875 4.59375 -38.5 4.59375 -40.15625 L 4.59375 -40.4375 L 5.375 -54.515625 C 5.46875 -56.046875 6.296875 -56.8125 7.859375 -56.8125 L 32.390625 -56.8125 C 33.816406 -56.8125 34.578125 -55.984375 34.671875 -54.328125 L 37.578125 -2.390625 Z M 15.71875 -24.890625 L 15.0625 -2.203125 C 15 -0.734375 14.222656 0 12.734375 0 L 4.59375 0 C 3.3125 0 2.671875 -0.75 2.671875 -2.25 L 2.671875 -2.390625 L 3.5625 -25.125 C 3.59375 -26.65625 4.445312 -27.421875 6.125 -27.421875 L 13.53125 -27.421875 C 14.988281 -27.421875 15.71875 -26.640625 15.71875 -25.078125 Z M 15.71875 -24.890625 "/></g></g><g transform="translate(602.016438, 103.93736)"><g/></g><g transform="translate(623.217634, 103.93736)"><g><path d="M 19.65625 -24.515625 C 19.65625 -23.242188 19.140625 -22.609375 18.109375 -22.609375 L 8.703125 -22.609375 C 7.578125 -22.609375 7.015625 -23.242188 7.015625 -24.515625 L 7.015625 -36.6875 C 7.015625 -37.34375 6.6875 -37.671875 6.03125 -37.671875 L 5.28125 -37.671875 C 4.289062 -37.671875 3.75 -38.3125 3.65625 -39.59375 L 2.671875 -54.703125 L 2.671875 -54.890625 C 2.671875 -56.171875 3.28125 -56.8125 4.5 -56.8125 L 17.734375 -56.8125 C 19.015625 -56.8125 19.65625 -56.109375 19.65625 -54.703125 Z M 19.65625 -24.515625 "/></g></g><g transform="translate(645.869685, 103.93736)"><g><path d="M 34.765625 -1.734375 C 34.765625 -0.578125 34.300781 0 33.375 0 L 2.859375 0 C 1.859375 0 1.359375 -0.515625 1.359375 -1.546875 L 1.359375 -1.734375 L 2.109375 -17.453125 C 2.140625 -18.609375 2.6875 -19.1875 3.75 -19.1875 L 17.828125 -19.1875 L 16.75 -36.59375 C 16.6875 -37.25 16.40625 -37.578125 15.90625 -37.578125 L 5.9375 -37.578125 C 4.851562 -37.578125 4.3125 -38.171875 4.3125 -39.359375 L 4.3125 -39.5 L 4.953125 -55.125 C 4.984375 -56.25 5.671875 -56.8125 7.015625 -56.8125 L 26.53125 -56.8125 C 27.75 -56.8125 28.390625 -56.21875 28.453125 -55.03125 L 30.5625 -19.1875 L 32.390625 -19.1875 C 33.410156 -19.1875 33.953125 -18.546875 34.015625 -17.265625 L 34.765625 -1.828125 Z M 34.765625 -1.734375 "/></g></g><g transform="translate(682.000641, 103.93736)"><g><path d="M 38.046875 -55.5 C 38.046875 -55.375 38.035156 -55.25 38.015625 -55.125 C 38.003906 -55 37.984375 -54.859375 37.953125 -54.703125 L 30.75 -20.125 L 36.875 -2.015625 C 36.96875 -1.828125 37.015625 -1.625 37.015625 -1.40625 C 37.015625 -0.46875 36.59375 0 35.75 0 L 3.84375 0 C 2.6875 0 2.109375 -0.625 2.109375 -1.875 L 2.109375 -2.015625 L 3.375 -16.9375 C 3.5 -18.4375 4.226562 -19.1875 5.5625 -19.1875 L 13.34375 -19.1875 C 13.875 -19.1875 14.140625 -19.34375 14.140625 -19.65625 C 14.140625 -19.75 14.125 -19.8125 14.09375 -19.84375 L 1.921875 -54.703125 C 1.859375 -54.953125 1.828125 -55.171875 1.828125 -55.359375 C 1.828125 -56.328125 2.34375 -56.8125 3.375 -56.8125 L 15.0625 -56.8125 C 16.3125 -56.8125 17.171875 -56.109375 17.640625 -54.703125 L 22.328125 -40.53125 L 24.890625 -54.703125 C 25.109375 -56.109375 25.953125 -56.8125 27.421875 -56.8125 L 36.59375 -56.8125 C 37.5625 -56.8125 38.046875 -56.375 38.046875 -55.5 Z M 38.046875 -55.5 "/></g></g><g transform="translate(721.782133, 103.93736)"><g><path d="M 40.53125 -1.875 C 40.53125 -0.625 39.921875 0 38.703125 0 L 21.203125 0 C 19.984375 0 19.375 -0.640625 19.375 -1.921875 L 19.375 -2.015625 L 20.21875 -16.84375 C 20.3125 -18.40625 20.984375 -19.1875 22.234375 -19.1875 L 25.875 -19.1875 C 26.46875 -19.1875 26.765625 -19.484375 26.765625 -20.078125 C 26.765625 -20.203125 26.75 -20.28125 26.71875 -20.3125 L 25.6875 -36.5 C 25.65625 -37.28125 25.296875 -37.671875 24.609375 -37.671875 L 18.578125 -37.671875 C 17.921875 -37.671875 17.578125 -37.28125 17.546875 -36.5 L 15.4375 -2.015625 C 15.34375 -0.671875 14.675781 0 13.4375 0 L 4.5 0 C 3.28125 0 2.671875 -0.640625 2.671875 -1.921875 L 2.671875 -2.015625 L 6.03125 -54.703125 C 6.125 -56.109375 6.828125 -56.8125 8.140625 -56.8125 L 35.1875 -56.8125 C 36.4375 -56.8125 37.109375 -56.109375 37.203125 -54.703125 L 40.53125 -2.015625 Z M 40.53125 -1.875 "/></g></g></g><g fill="#ffcf7e" fill-opacity="1"><g transform="translate(103.276088, 608.919304)"><g><path d="M 20.640625 4.53125 C 20.640625 5.28125 20.359375 5.65625 19.796875 5.65625 L 14.1875 5.65625 C 13.519531 5.65625 13.1875 5.28125 13.1875 4.53125 L 13.1875 -21.125 C 13.1875 -21.65625 13.003906 -21.921875 12.640625 -21.921875 L 9.390625 -21.921875 C 9.046875 -21.921875 8.847656 -21.65625 8.796875 -21.125 L 8.265625 -15.53125 C 8.210938 -14.851562 7.804688 -14.515625 7.046875 -14.515625 L 1.859375 -14.515625 C 1.179688 -14.515625 0.84375 -14.863281 0.84375 -15.5625 L 0.84375 -15.640625 L 2.34375 -31.90625 C 2.414062 -32.726562 2.828125 -33.140625 3.578125 -33.140625 L 19.515625 -33.140625 C 20.265625 -33.140625 20.640625 -32.726562 20.640625 -31.90625 Z M 20.640625 4.53125 "/></g></g></g><g fill="#ffcf7e" fill-opacity="1"><g transform="translate(126.178452, 608.919304)"><g><path d="M 23.53125 -31.96875 L 21.703125 -1.234375 C 21.648438 -0.410156 21.238281 0 20.46875 0 L 4.53125 0 C 3.800781 0 3.410156 -0.410156 3.359375 -1.234375 L 1.5 -31.96875 L 1.5 -32.109375 C 1.5 -32.796875 1.851562 -33.140625 2.5625 -33.140625 L 22.46875 -33.140625 C 23.175781 -33.140625 23.53125 -32.773438 23.53125 -32.046875 Z M 15.59375 -21.515625 C 15.59375 -21.859375 15.425781 -22.03125 15.09375 -22.03125 L 9.875 -22.03125 C 9.550781 -22.03125 9.390625 -21.863281 9.390625 -21.53125 L 9.390625 -21.453125 L 10.1875 -11.578125 C 10.195312 -11.359375 10.320312 -11.25 10.5625 -11.25 L 14.609375 -11.25 C 14.859375 -11.25 15.003906 -11.359375 15.046875 -11.578125 L 15.59375 -21.453125 Z M 15.59375 -21.515625 "/></g></g></g><g fill="#ffcf7e" fill-opacity="1"><g transform="translate(151.319187, 608.919304)"><g><path d="M 10.953125 -1.125 C 10.953125 -0.375 10.675781 0 10.125 0 L 4.59375 0 C 3.914062 0 3.578125 -0.375 3.578125 -1.125 L 3.578125 -21.453125 C 3.578125 -21.796875 3.445312 -21.96875 3.1875 -21.96875 L 2.890625 -21.96875 C 2.441406 -21.96875 2.1875 -22.34375 2.125 -23.09375 L 1.5625 -31.90625 L 1.5625 -32 C 1.5625 -32.757812 1.914062 -33.140625 2.625 -33.140625 L 9.828125 -33.140625 C 10.578125 -33.140625 10.953125 -32.726562 10.953125 -31.90625 Z M 10.953125 -1.125 "/></g></g></g><g fill="#ffcf7e" fill-opacity="1"><g transform="translate(164.03969, 608.919304)"><g><path d="M 15.671875 -1.0625 C 15.671875 -0.351562 15.316406 0 14.609375 0 L 2.125 0 C 1.457031 0 1.125 -0.351562 1.125 -1.0625 L 1.125 -1.171875 L 1.96875 -10.015625 C 2.039062 -10.796875 2.429688 -11.1875 3.140625 -11.1875 L 7.15625 -11.1875 C 7.570312 -11.1875 7.78125 -11.304688 7.78125 -11.546875 L 7.78125 -11.625 L 6.984375 -21.453125 C 6.953125 -21.765625 6.742188 -21.921875 6.359375 -21.921875 L 4.859375 -21.921875 C 4.148438 -21.921875 3.796875 -22.273438 3.796875 -22.984375 L 3.796875 -23.046875 L 4.421875 -31.90625 C 4.472656 -32.726562 4.882812 -33.140625 5.65625 -33.140625 L 12.640625 -33.140625 C 13.367188 -33.140625 13.757812 -32.726562 13.8125 -31.90625 L 15.640625 -1.171875 C 15.660156 -1.148438 15.671875 -1.113281 15.671875 -1.0625 Z M 15.671875 -1.0625 "/></g></g></g><g fill="#ffcf7e" fill-opacity="1"><g transform="translate(181.264233, 608.919304)"><g/></g></g><g fill="#ffcf7e" fill-opacity="1"><g transform="translate(193.629872, 608.919304)"><g><path d="M 22.140625 -31.90625 L 20.28125 -1.171875 C 20.226562 -0.390625 19.835938 0 19.109375 0 L 2.34375 0 C 1.675781 0 1.34375 -0.363281 1.34375 -1.09375 L 1.34375 -1.171875 L 2.078125 -10.078125 C 2.128906 -10.816406 2.535156 -11.1875 3.296875 -11.1875 L 4.484375 -11.1875 L 2.671875 -31.90625 L 2.671875 -32.078125 C 2.671875 -32.742188 3.007812 -33.078125 3.6875 -33.078125 L 8.84375 -33.078125 C 9.59375 -33.078125 10.003906 -32.6875 10.078125 -31.90625 L 11.84375 -11.140625 L 12.90625 -11.140625 C 13.289062 -11.140625 13.503906 -11.375 13.546875 -11.84375 L 14.875 -31.90625 C 14.925781 -32.6875 15.316406 -33.078125 16.046875 -33.078125 L 21.078125 -33.078125 C 21.785156 -33.078125 22.140625 -32.734375 22.140625 -32.046875 Z M 22.140625 -31.90625 "/></g></g></g><g fill="#ffcf7e" fill-opacity="1"><g transform="translate(217.351152, 608.919304)"><g><path d="M 19.515625 -31.75 L 18.9375 -23.578125 C 18.851562 -22.503906 18.5 -21.96875 17.875 -21.96875 L 16.21875 -21.96875 L 16.21875 -1.171875 C 16.21875 -0.390625 15.789062 0 14.9375 0 L 9.96875 0 C 9.1875 0 8.796875 -0.410156 8.796875 -1.234375 L 8.796875 -21.96875 L 2.078125 -21.96875 C 1.378906 -21.96875 1.003906 -22.503906 0.953125 -23.578125 L 0.546875 -31.75 L 0.546875 -31.9375 C 0.546875 -32.738281 0.9375 -33.140625 1.71875 -33.140625 L 18.515625 -33.140625 C 19.179688 -33.140625 19.515625 -32.75 19.515625 -31.96875 Z M 19.515625 -31.75 "/></g></g></g><g fill="#ffcf7e" fill-opacity="1"><g transform="translate(237.441903, 608.919304)"><g><path d="M 11.46875 -14.296875 C 11.46875 -13.554688 11.164062 -13.1875 10.5625 -13.1875 L 5.078125 -13.1875 C 4.421875 -13.1875 4.09375 -13.554688 4.09375 -14.296875 L 4.09375 -21.40625 C 4.09375 -21.78125 3.898438 -21.96875 3.515625 -21.96875 L 3.078125 -21.96875 C 2.503906 -21.96875 2.1875 -22.34375 2.125 -23.09375 L 1.5625 -31.90625 L 1.5625 -32.015625 C 1.5625 -32.765625 1.914062 -33.140625 2.625 -33.140625 L 10.34375 -33.140625 C 11.09375 -33.140625 11.46875 -32.726562 11.46875 -31.90625 Z M 11.46875 -14.296875 "/></g></g></g><g fill="#ffcf7e" fill-opacity="1"><g transform="translate(250.653756, 608.919304)"><g><path d="M 23.640625 -1.09375 C 23.640625 -0.363281 23.285156 0 22.578125 0 L 12.359375 0 C 11.648438 0 11.296875 -0.375 11.296875 -1.125 L 11.296875 -1.171875 L 11.796875 -9.828125 C 11.847656 -10.734375 12.238281 -11.1875 12.96875 -11.1875 L 15.09375 -11.1875 C 15.4375 -11.1875 15.609375 -11.359375 15.609375 -11.703125 C 15.609375 -11.773438 15.601562 -11.820312 15.59375 -11.84375 L 14.984375 -21.296875 C 14.960938 -21.742188 14.753906 -21.96875 14.359375 -21.96875 L 10.84375 -21.96875 C 10.457031 -21.96875 10.253906 -21.742188 10.234375 -21.296875 L 9.015625 -1.171875 C 8.953125 -0.390625 8.554688 0 7.828125 0 L 2.625 0 C 1.914062 0 1.5625 -0.375 1.5625 -1.125 L 1.5625 -1.171875 L 3.515625 -31.90625 C 3.578125 -32.726562 3.988281 -33.140625 4.75 -33.140625 L 20.53125 -33.140625 C 21.257812 -33.140625 21.648438 -32.726562 21.703125 -31.90625 L 23.640625 -1.171875 Z M 23.640625 -1.09375 "/></g></g></g><g fill="#ffcf7e" fill-opacity="1"><g transform="translate(275.876383, 608.919304)"><g><path d="M 19.40625 -31.90625 L 17.609375 -1.171875 C 17.554688 -0.390625 17.164062 0 16.4375 0 L 7.71875 0 C 7 0 6.609375 -0.390625 6.546875 -1.171875 L 6.03125 -9.875 L 6.03125 -10.015625 C 6.03125 -10.796875 6.382812 -11.1875 7.09375 -11.1875 L 10.453125 -11.1875 C 10.859375 -11.1875 11.066406 -11.390625 11.078125 -11.796875 L 11.515625 -21.1875 L 11.515625 -21.265625 C 11.515625 -21.703125 11.328125 -21.921875 10.953125 -21.921875 L 2.96875 -21.921875 C 2.226562 -21.921875 1.835938 -22.296875 1.796875 -23.046875 L 0.953125 -38.140625 L 0.953125 -38.359375 C 0.953125 -39.066406 1.253906 -39.421875 1.859375 -39.421875 L 7.15625 -39.421875 C 7.914062 -39.421875 8.304688 -39.03125 8.328125 -38.25 L 8.546875 -33.875 C 8.566406 -33.382812 8.773438 -33.140625 9.171875 -33.140625 L 18.34375 -33.078125 C 19.050781 -33.078125 19.40625 -32.742188 19.40625 -32.078125 Z M 19.40625 -31.90625 "/></g></g></g><g fill="#ffcf7e" fill-opacity="1"><g transform="translate(296.840656, 608.919304)"><g/></g></g><g fill="#ffcf7e" fill-opacity="1"><g transform="translate(309.206283, 608.919304)"><g><path d="M 24.046875 -1.0625 C 24.046875 -0.351562 23.691406 0 22.984375 0 L 2.625 0 C 1.914062 0 1.5625 -0.363281 1.5625 -1.09375 L 1.5625 -1.171875 L 3.46875 -31.90625 C 3.519531 -32.726562 3.910156 -33.140625 4.640625 -33.140625 L 21.015625 -33.140625 C 21.742188 -33.140625 22.132812 -32.726562 22.1875 -31.90625 L 24.046875 -1.171875 Z M 16.15625 -11.6875 L 15.375 -21.59375 C 15.332031 -21.8125 15.222656 -21.921875 15.046875 -21.921875 L 10.515625 -21.921875 C 10.234375 -21.921875 10.085938 -21.8125 10.078125 -21.59375 L 9.5 -11.6875 L 9.5 -11.65625 C 9.5 -11.34375 9.671875 -11.1875 10.015625 -11.1875 L 15.640625 -11.1875 C 15.984375 -11.1875 16.15625 -11.328125 16.15625 -11.609375 Z M 16.15625 -11.6875 "/></g></g></g><g fill="#ffcf7e" fill-opacity="1"><g transform="translate(334.811072, 608.919304)"><g><path d="M 11.46875 -14.296875 C 11.46875 -13.554688 11.164062 -13.1875 10.5625 -13.1875 L 5.078125 -13.1875 C 4.421875 -13.1875 4.09375 -13.554688 4.09375 -14.296875 L 4.09375 -21.40625 C 4.09375 -21.78125 3.898438 -21.96875 3.515625 -21.96875 L 3.078125 -21.96875 C 2.503906 -21.96875 2.1875 -22.34375 2.125 -23.09375 L 1.5625 -31.90625 L 1.5625 -32.015625 C 1.5625 -32.765625 1.914062 -33.140625 2.625 -33.140625 L 10.34375 -33.140625 C 11.09375 -33.140625 11.46875 -32.726562 11.46875 -31.90625 Z M 11.46875 -14.296875 "/></g></g></g><g fill="#ffcf7e" fill-opacity="1"><g transform="translate(348.022924, 608.919304)"><g><path d="M 16.109375 -1.015625 C 16.109375 -0.335938 15.753906 0 15.046875 0 L 9.828125 0 C 9.191406 0 8.863281 -0.335938 8.84375 -1.015625 L 8.65625 -3.953125 L 2.453125 1.125 C 2.253906 1.269531 2.066406 1.34375 1.890625 1.34375 C 1.378906 1.34375 1.125 1.03125 1.125 0.40625 L 1.125 0.265625 L 1.90625 -9.765625 C 1.96875 -10.441406 2.320312 -10.988281 2.96875 -11.40625 L 7.828125 -14.46875 L 7.375 -21.34375 C 7.332031 -21.726562 7.148438 -21.921875 6.828125 -21.921875 L 4.59375 -21.921875 C 3.695312 -21.921875 3.25 -22.257812 3.25 -22.9375 L 3.25 -23.15625 L 3.84375 -32.046875 C 3.90625 -32.773438 4.257812 -33.140625 4.90625 -33.140625 L 13.1875 -33.140625 C 13.84375 -33.140625 14.195312 -32.75 14.25 -31.96875 L 16.109375 -1.171875 Z M 16.109375 -1.015625 "/></g></g></g><g fill="#ffcf7e" fill-opacity="1"><g transform="translate(365.22017, 608.919304)"><g><path d="M 10.953125 -1.125 C 10.953125 -0.375 10.675781 0 10.125 0 L 4.59375 0 C 3.914062 0 3.578125 -0.375 3.578125 -1.125 L 3.578125 -21.453125 C 3.578125 -21.796875 3.445312 -21.96875 3.1875 -21.96875 L 2.890625 -21.96875 C 2.441406 -21.96875 2.1875 -22.34375 2.125 -23.09375 L 1.5625 -31.90625 L 1.5625 -32 C 1.5625 -32.757812 1.914062 -33.140625 2.625 -33.140625 L 9.828125 -33.140625 C 10.578125 -33.140625 10.953125 -32.726562 10.953125 -31.90625 Z M 10.953125 -1.125 "/></g></g></g><g fill="#ffcf7e" fill-opacity="1"><g transform="translate(377.940673, 608.919304)"><g><path d="M 23.53125 -31.96875 L 21.703125 -1.234375 C 21.648438 -0.410156 21.238281 0 20.46875 0 L 4.53125 0 C 3.800781 0 3.410156 -0.410156 3.359375 -1.234375 L 1.5 -31.96875 L 1.5 -32.109375 C 1.5 -32.796875 1.851562 -33.140625 2.5625 -33.140625 L 22.46875 -33.140625 C 23.175781 -33.140625 23.53125 -32.773438 23.53125 -32.046875 Z M 15.59375 -21.515625 C 15.59375 -21.859375 15.425781 -22.03125 15.09375 -22.03125 L 9.875 -22.03125 C 9.550781 -22.03125 9.390625 -21.863281 9.390625 -21.53125 L 9.390625 -21.453125 L 10.1875 -11.578125 C 10.195312 -11.359375 10.320312 -11.25 10.5625 -11.25 L 14.609375 -11.25 C 14.859375 -11.25 15.003906 -11.359375 15.046875 -11.578125 L 15.59375 -21.453125 Z M 15.59375 -21.515625 "/></g></g></g><g fill="#ffcf7e" fill-opacity="1"><g transform="translate(403.08142, 608.919304)"><g><path d="M 21.921875 -1.25 C 21.921875 -0.414062 21.546875 0 20.796875 0 L 15.78125 0 C 14.957031 0 14.519531 -0.460938 14.46875 -1.390625 L 13.296875 -21.078125 C 13.253906 -21.671875 13 -21.96875 12.53125 -21.96875 L 3.953125 -21.96875 C 3.097656 -21.96875 2.671875 -22.453125 2.671875 -23.421875 L 2.671875 -23.578125 L 3.140625 -31.796875 C 3.191406 -32.691406 3.675781 -33.140625 4.59375 -33.140625 L 18.890625 -33.140625 C 19.722656 -33.140625 20.171875 -32.65625 20.234375 -31.6875 L 21.921875 -1.390625 Z M 9.171875 -14.515625 L 8.796875 -1.28125 C 8.753906 -0.425781 8.296875 0 7.421875 0 L 2.671875 0 C 1.929688 0 1.5625 -0.4375 1.5625 -1.3125 L 1.5625 -1.390625 L 2.078125 -14.65625 C 2.097656 -15.550781 2.597656 -16 3.578125 -16 L 7.890625 -16 C 8.742188 -16 9.171875 -15.539062 9.171875 -14.625 Z M 9.171875 -14.515625 "/></g></g></g><g fill="#ffcf7e" fill-opacity="1"><g transform="translate(426.584311, 608.919304)"><g><path d="M 23.640625 -1.09375 C 23.640625 -0.363281 23.285156 0 22.578125 0 L 12.359375 0 C 11.648438 0 11.296875 -0.375 11.296875 -1.125 L 11.296875 -1.171875 L 11.796875 -9.828125 C 11.847656 -10.734375 12.238281 -11.1875 12.96875 -11.1875 L 15.09375 -11.1875 C 15.4375 -11.1875 15.609375 -11.359375 15.609375 -11.703125 C 15.609375 -11.773438 15.601562 -11.820312 15.59375 -11.84375 L 14.984375 -21.296875 C 14.960938 -21.742188 14.753906 -21.96875 14.359375 -21.96875 L 10.84375 -21.96875 C 10.457031 -21.96875 10.253906 -21.742188 10.234375 -21.296875 L 9.015625 -1.171875 C 8.953125 -0.390625 8.554688 0 7.828125 0 L 2.625 0 C 1.914062 0 1.5625 -0.375 1.5625 -1.125 L 1.5625 -1.171875 L 3.515625 -31.90625 C 3.578125 -32.726562 3.988281 -33.140625 4.75 -33.140625 L 20.53125 -33.140625 C 21.257812 -33.140625 21.648438 -32.726562 21.703125 -31.90625 L 23.640625 -1.171875 Z M 23.640625 -1.09375 "/></g></g></g><g fill="#ffcf7e" fill-opacity="1"><g transform="translate(451.806938, 608.919304)"><g/></g></g><g fill="#ffcf7e" fill-opacity="1"><g transform="translate(464.172565, 608.919304)"><g><path d="M 19.515625 -31.75 L 18.9375 -23.578125 C 18.851562 -22.503906 18.5 -21.96875 17.875 -21.96875 L 16.21875 -21.96875 L 16.21875 -1.171875 C 16.21875 -0.390625 15.789062 0 14.9375 0 L 9.96875 0 C 9.1875 0 8.796875 -0.410156 8.796875 -1.234375 L 8.796875 -21.96875 L 2.078125 -21.96875 C 1.378906 -21.96875 1.003906 -22.503906 0.953125 -23.578125 L 0.546875 -31.75 L 0.546875 -31.9375 C 0.546875 -32.738281 0.9375 -33.140625 1.71875 -33.140625 L 18.515625 -33.140625 C 19.179688 -33.140625 19.515625 -32.75 19.515625 -31.96875 Z M 19.515625 -31.75 "/></g></g></g><g fill="#ffcf7e" fill-opacity="1"><g transform="translate(484.263316, 608.919304)"><g><path d="M 23.046875 -0.90625 C 23.046875 -0.300781 22.78125 0 22.25 0 L 16.8125 0 C 16.21875 0 15.890625 -0.390625 15.828125 -1.171875 L 14.40625 -21.453125 C 14.375 -21.765625 14.175781 -21.921875 13.8125 -21.921875 L 10.734375 -21.921875 C 10.453125 -21.921875 10.304688 -21.75 10.296875 -21.40625 L 8.796875 -1.171875 C 8.734375 -0.390625 8.375 0 7.71875 0 L 2.453125 0 C 1.859375 0 1.5625 -0.363281 1.5625 -1.09375 L 1.5625 -1.171875 L 3.515625 -31.90625 C 3.578125 -32.726562 3.96875 -33.140625 4.6875 -33.140625 L 20.125 -33.140625 C 20.84375 -33.140625 21.234375 -32.726562 21.296875 -31.90625 L 23.046875 -1.171875 Z M 23.046875 -0.90625 "/></g></g></g><g fill="#ffcf7e" fill-opacity="1"><g transform="translate(508.885427, 608.919304)"><g><path d="M 23.28125 -32.4375 C 23.28125 -32.289062 23.273438 -32.179688 23.265625 -32.109375 L 19.46875 -10.078125 L 23.09375 -0.84375 C 23.132812 -0.738281 23.15625 -0.648438 23.15625 -0.578125 C 23.15625 -0.191406 22.867188 0 22.296875 0 L 14.65625 0 C 14.132812 0 13.765625 -0.265625 13.546875 -0.796875 L 9.65625 -10.515625 L 8.328125 -0.953125 C 8.234375 -0.316406 7.878906 0 7.265625 0 L 1.609375 0 C 1.117188 0 0.875 -0.226562 0.875 -0.6875 C 0.875 -0.769531 0.882812 -0.84375 0.90625 -0.90625 L 4.59375 -22.9375 L 1.125 -32.21875 C 1.050781 -32.375 1.015625 -32.523438 1.015625 -32.671875 C 1.015625 -32.984375 1.175781 -33.140625 1.5 -33.140625 L 9.171875 -33.140625 C 9.660156 -33.140625 10.015625 -32.847656 10.234375 -32.265625 L 14.03125 -22.515625 L 15.640625 -32.265625 C 15.734375 -32.847656 16.050781 -33.140625 16.59375 -33.140625 L 22.578125 -33.140625 C 23.046875 -33.140625 23.28125 -32.90625 23.28125 -32.4375 Z M 23.28125 -32.4375 "/></g></g></g><g fill="#ffcf7e" fill-opacity="1"><g transform="translate(533.098069, 608.919304)"><g/></g></g><g fill="#ffcf7e" fill-opacity="1"><g transform="translate(545.463696, 608.919304)"><g><path d="M 19.40625 -31.90625 L 17.609375 -1.171875 C 17.554688 -0.390625 17.164062 0 16.4375 0 L 7.71875 0 C 7 0 6.609375 -0.390625 6.546875 -1.171875 L 6.03125 -9.875 L 6.03125 -10.015625 C 6.03125 -10.796875 6.382812 -11.1875 7.09375 -11.1875 L 10.453125 -11.1875 C 10.859375 -11.1875 11.066406 -11.390625 11.078125 -11.796875 L 11.515625 -21.1875 L 11.515625 -21.265625 C 11.515625 -21.703125 11.328125 -21.921875 10.953125 -21.921875 L 2.96875 -21.921875 C 2.226562 -21.921875 1.835938 -22.296875 1.796875 -23.046875 L 0.953125 -38.140625 L 0.953125 -38.359375 C 0.953125 -39.066406 1.253906 -39.421875 1.859375 -39.421875 L 7.15625 -39.421875 C 7.914062 -39.421875 8.304688 -39.03125 8.328125 -38.25 L 8.546875 -33.875 C 8.566406 -33.382812 8.773438 -33.140625 9.171875 -33.140625 L 18.34375 -33.078125 C 19.050781 -33.078125 19.40625 -32.742188 19.40625 -32.078125 Z M 19.40625 -31.90625 "/></g></g></g><g fill="#ffcf7e" fill-opacity="1"><g transform="translate(566.427958, 608.919304)"><g><path d="M 19.6875 -1.09375 C 19.6875 -0.363281 19.332031 0 18.625 0 L 2.125 0 C 1.457031 0 1.125 -0.335938 1.125 -1.015625 L 1.125 -1.171875 L 1.90625 -10.078125 C 2 -10.816406 2.410156 -11.1875 3.140625 -11.1875 L 11.25 -11.1875 C 11.644531 -11.1875 11.84375 -11.378906 11.84375 -11.765625 L 11.84375 -11.84375 L 11.25 -21.40625 C 11.226562 -21.75 11.054688 -21.921875 10.734375 -21.921875 L 3.078125 -21.921875 C 2.367188 -21.921875 2.015625 -22.25 2.015625 -22.90625 L 2.015625 -22.984375 L 2.625 -31.90625 C 2.675781 -32.726562 3.082031 -33.140625 3.84375 -33.140625 L 16.65625 -33.140625 C 17.382812 -33.140625 17.773438 -32.726562 17.828125 -31.90625 L 19.6875 -1.171875 Z M 19.6875 -1.09375 "/></g></g></g><g fill="#ffcf7e" fill-opacity="1"><g transform="translate(587.6925, 608.919304)"><g/></g></g><g fill="#ffcf7e" fill-opacity="1"><g transform="translate(600.058128, 608.919304)"><g><path d="M 19.40625 -31.90625 L 17.609375 -1.171875 C 17.554688 -0.390625 17.164062 0 16.4375 0 L 7.71875 0 C 7 0 6.609375 -0.390625 6.546875 -1.171875 L 6.03125 -9.875 L 6.03125 -10.015625 C 6.03125 -10.796875 6.382812 -11.1875 7.09375 -11.1875 L 10.453125 -11.1875 C 10.859375 -11.1875 11.066406 -11.390625 11.078125 -11.796875 L 11.515625 -21.1875 L 11.515625 -21.265625 C 11.515625 -21.703125 11.328125 -21.921875 10.953125 -21.921875 L 2.96875 -21.921875 C 2.226562 -21.921875 1.835938 -22.296875 1.796875 -23.046875 L 0.953125 -38.140625 L 0.953125 -38.359375 C 0.953125 -39.066406 1.253906 -39.421875 1.859375 -39.421875 L 7.15625 -39.421875 C 7.914062 -39.421875 8.304688 -39.03125 8.328125 -38.25 L 8.546875 -33.875 C 8.566406 -33.382812 8.773438 -33.140625 9.171875 -33.140625 L 18.34375 -33.078125 C 19.050781 -33.078125 19.40625 -32.742188 19.40625 -32.078125 Z M 19.40625 -31.90625 "/></g></g></g><g fill="#ffcf7e" fill-opacity="1"><g transform="translate(621.022389, 608.919304)"><g><path d="M 22.140625 -31.90625 L 20.28125 -1.171875 C 20.226562 -0.390625 19.835938 0 19.109375 0 L 2.34375 0 C 1.675781 0 1.34375 -0.363281 1.34375 -1.09375 L 1.34375 -1.171875 L 2.078125 -10.078125 C 2.128906 -10.816406 2.535156 -11.1875 3.296875 -11.1875 L 4.484375 -11.1875 L 2.671875 -31.90625 L 2.671875 -32.078125 C 2.671875 -32.742188 3.007812 -33.078125 3.6875 -33.078125 L 8.84375 -33.078125 C 9.59375 -33.078125 10.003906 -32.6875 10.078125 -31.90625 L 11.84375 -11.140625 L 12.90625 -11.140625 C 13.289062 -11.140625 13.503906 -11.375 13.546875 -11.84375 L 14.875 -31.90625 C 14.925781 -32.6875 15.316406 -33.078125 16.046875 -33.078125 L 21.078125 -33.078125 C 21.785156 -33.078125 22.140625 -32.734375 22.140625 -32.046875 Z M 22.140625 -31.90625 "/></g></g></g><g fill="#ffcf7e" fill-opacity="1"><g transform="translate(644.743658, 608.919304)"><g/></g></g><g fill="#ffcf7e" fill-opacity="1"><g transform="translate(657.109285, 608.919304)"><g><path d="M 10.953125 -1.125 C 10.953125 -0.375 10.675781 0 10.125 0 L 4.59375 0 C 3.914062 0 3.578125 -0.375 3.578125 -1.125 L 3.578125 -21.453125 C 3.578125 -21.796875 3.445312 -21.96875 3.1875 -21.96875 L 2.890625 -21.96875 C 2.441406 -21.96875 2.1875 -22.34375 2.125 -23.09375 L 1.5625 -31.90625 L 1.5625 -32 C 1.5625 -32.757812 1.914062 -33.140625 2.625 -33.140625 L 9.828125 -33.140625 C 10.578125 -33.140625 10.953125 -32.726562 10.953125 -31.90625 Z M 10.953125 -1.125 "/></g></g></g><g fill="#ffcf7e" fill-opacity="1"><g transform="translate(669.829811, 608.919304)"><g><path d="M 22.1875 -32.375 C 22.1875 -32.300781 22.179688 -32.226562 22.171875 -32.15625 C 22.171875 -32.082031 22.160156 -32 22.140625 -31.90625 L 17.9375 -11.734375 L 21.515625 -1.171875 C 21.566406 -1.066406 21.59375 -0.945312 21.59375 -0.8125 C 21.59375 -0.269531 21.347656 0 20.859375 0 L 2.234375 0 C 1.566406 0 1.234375 -0.363281 1.234375 -1.09375 L 1.234375 -1.171875 L 1.96875 -9.875 C 2.039062 -10.75 2.46875 -11.1875 3.25 -11.1875 L 7.78125 -11.1875 C 8.09375 -11.1875 8.25 -11.28125 8.25 -11.46875 C 8.25 -11.519531 8.238281 -11.554688 8.21875 -11.578125 L 1.125 -31.90625 C 1.082031 -32.050781 1.0625 -32.179688 1.0625 -32.296875 C 1.0625 -32.859375 1.363281 -33.140625 1.96875 -33.140625 L 8.796875 -33.140625 C 9.515625 -33.140625 10.015625 -32.726562 10.296875 -31.90625 L 13.015625 -23.640625 L 14.515625 -31.90625 C 14.648438 -32.726562 15.144531 -33.140625 16 -33.140625 L 21.34375 -33.140625 C 21.90625 -33.140625 22.1875 -32.882812 22.1875 -32.375 Z M 22.1875 -32.375 "/></g></g></g><g fill="#ffcf7e" fill-opacity="1"><g transform="translate(693.032421, 608.919304)"><g><path d="M 23.046875 -0.90625 C 23.046875 -0.300781 22.78125 0 22.25 0 L 16.8125 0 C 16.21875 0 15.890625 -0.390625 15.828125 -1.171875 L 14.40625 -21.453125 C 14.375 -21.765625 14.175781 -21.921875 13.8125 -21.921875 L 10.734375 -21.921875 C 10.453125 -21.921875 10.304688 -21.75 10.296875 -21.40625 L 8.796875 -1.171875 C 8.734375 -0.390625 8.375 0 7.71875 0 L 2.453125 0 C 1.859375 0 1.5625 -0.363281 1.5625 -1.09375 L 1.5625 -1.171875 L 3.515625 -31.90625 C 3.578125 -32.726562 3.96875 -33.140625 4.6875 -33.140625 L 20.125 -33.140625 C 20.84375 -33.140625 21.234375 -32.726562 21.296875 -31.90625 L 23.046875 -1.171875 Z M 23.046875 -0.90625 "/></g></g></g><g fill="#ffcf7e" fill-opacity="1"><g transform="translate(717.654532, 608.919304)"><g><path d="M 19.40625 -31.90625 L 17.609375 -1.171875 C 17.554688 -0.390625 17.164062 0 16.4375 0 L 7.71875 0 C 7 0 6.609375 -0.390625 6.546875 -1.171875 L 6.03125 -9.875 L 6.03125 -10.015625 C 6.03125 -10.796875 6.382812 -11.1875 7.09375 -11.1875 L 10.453125 -11.1875 C 10.859375 -11.1875 11.066406 -11.390625 11.078125 -11.796875 L 11.515625 -21.1875 L 11.515625 -21.265625 C 11.515625 -21.703125 11.328125 -21.921875 10.953125 -21.921875 L 2.96875 -21.921875 C 2.226562 -21.921875 1.835938 -22.296875 1.796875 -23.046875 L 0.953125 -38.140625 L 0.953125 -38.359375 C 0.953125 -39.066406 1.253906 -39.421875 1.859375 -39.421875 L 7.15625 -39.421875 C 7.914062 -39.421875 8.304688 -39.03125 8.328125 -38.25 L 8.546875 -33.875 C 8.566406 -33.382812 8.773438 -33.140625 9.171875 -33.140625 L 18.34375 -33.078125 C 19.050781 -33.078125 19.40625 -32.742188 19.40625 -32.078125 Z M 19.40625 -31.90625 "/></g></g></g></svg>