<svg xmlns="http://www.w3.org/2000/svg" xmlns:xlink="http://www.w3.org/1999/xlink" width="1107" zoomAndPan="magnify" viewBox="0 0 830.25 447.749987" height="597" preserveAspectRatio="xMidYMid meet" version="1.0"><defs><g/><clipPath id="955ca2bf50"><path d="M 29 0.078125 L 545 0.078125 L 545 131.207031 L 29 131.207031 Z M 29 0.078125 " clip-rule="nonzero"/></clipPath><clipPath id="7b578218ba"><path d="M 0 0.078125 L 829.5 0.078125 L 829.5 447.421875 L 0 447.421875 Z M 0 0.078125 " clip-rule="nonzero"/></clipPath><clipPath id="076c0a6703"><path d="M 154 0.078125 L 829.5 0.078125 L 829.5 328 L 154 328 Z M 154 0.078125 " clip-rule="nonzero"/></clipPath><clipPath id="d5b69f2e87"><path d="M 186 317.339844 L 828 317.339844 L 828 372.789062 L 186 372.789062 Z M 186 317.339844 " clip-rule="nonzero"/></clipPath></defs><g clip-path="url(#955ca2bf50)"><path fill="#ffcf7e" d="M 104.4375 75.207031 L 544.28125 65.78125 L 104.4375 56.351562 L 95.003906 0.0546875 L 85.574219 56.351562 L 29.285156 65.78125 L 85.574219 75.207031 L 95.003906 131.507812 Z M 104.4375 75.207031 " fill-opacity="1" fill-rule="nonzero"/></g><g clip-path="url(#7b578218ba)"><path stroke-linecap="butt" transform="matrix(0.749323, 0, 0, 0.749323, 60.785093, 87.084275)" fill="none" stroke-linejoin="miter" d="M 149.249376 317.001875 L 33.467792 317.001875 L 33.467792 164.343256 C 33.467792 152.780737 35.396616 144.705741 39.249052 140.12348 C 43.622791 134.707133 51.437136 132.001566 62.686873 132.001566 L 118.002424 132.001566 C 138.833725 132.001566 149.249376 142.782129 149.249376 164.343256 Z M 104.094037 189.032207 C 104.094037 183.198817 101.435387 180.279515 96.123301 180.279515 L 87.375823 180.279515 C 82.063736 180.279515 79.405087 183.198817 79.405087 189.032207 L 79.405087 268.718712 L 104.094037 268.718712 Z M 244.585423 317.001875 L 199.430084 317.001875 L 199.430084 132.001566 L 244.585423 132.001566 Z M 385.853553 317.001875 L 340.072649 317.001875 L 340.072649 187.937469 C 340.072649 182.833904 337.419212 180.279515 332.107126 180.279515 L 291.638309 180.279515 L 291.638309 132.001566 L 353.19908 132.001566 C 362.780644 132.001566 370.647119 135.072046 376.793292 141.218218 C 382.835203 147.260129 385.853553 155.126604 385.853553 164.81243 Z M 480.564035 214.028726 L 435.721479 214.028726 L 435.721479 132.001566 L 480.564035 132.001566 Z M 643.398505 317.001875 L 598.086774 317.001875 L 598.086774 189.032207 C 598.086774 183.198817 595.428125 180.279515 590.116039 180.279515 L 584.647561 180.279515 C 579.335475 180.279515 576.676825 183.198817 576.676825 189.032207 L 576.676825 317.001875 L 530.739531 317.001875 L 530.739531 164.343256 C 530.739531 152.780737 532.668355 144.705741 536.52079 140.12348 C 540.899742 134.707133 548.708874 132.001566 559.958611 132.001566 L 612.146339 132.001566 C 632.982854 132.001566 643.398505 142.782129 643.398505 164.343256 Z M 804.199889 317.001875 L 758.262594 317.001875 L 758.262594 187.937469 C 758.262594 182.833904 755.656075 180.279515 750.448249 180.279515 L 693.574 180.279515 L 693.574 132.001566 L 771.545416 132.001566 C 781.126981 132.001566 788.993456 135.072046 795.139628 141.218218 C 801.18154 147.260129 804.199889 155.126604 804.199889 164.81243 Z M 738.729339 317.001875 L 693.730391 317.001875 L 693.730391 202.315029 L 738.729339 202.315029 Z M 899.535936 317.001875 L 854.375384 317.001875 L 854.375384 132.001566 L 899.535936 132.001566 Z M 899.535936 317.001875 " stroke="#ffcf7e" stroke-width="54.400002" stroke-opacity="1" stroke-miterlimit="4"/></g><g fill="#242536" fill-opacity="1"><g transform="translate(79.892831, 324.619689)"><g><path d="M 92.734375 0 L 5.96875 0 L 5.96875 -114.390625 C 5.96875 -123.054688 7.410156 -129.101562 10.296875 -132.53125 C 13.578125 -136.59375 19.429688 -138.625 27.859375 -138.625 L 69.3125 -138.625 C 84.925781 -138.625 92.734375 -130.546875 92.734375 -114.390625 Z M 58.890625 -95.890625 C 58.890625 -100.265625 56.898438 -102.453125 52.921875 -102.453125 L 46.359375 -102.453125 C 42.378906 -102.453125 40.390625 -100.265625 40.390625 -95.890625 L 40.390625 -36.171875 L 58.890625 -36.171875 Z M 58.890625 -95.890625 "/></g></g></g><g fill="#242536" fill-opacity="1"><g transform="translate(204.249555, 324.619689)"><g><path d="M 39.8125 0 L 5.96875 0 L 5.96875 -138.625 L 39.8125 -138.625 Z M 39.8125 0 "/></g></g></g><g fill="#242536" fill-opacity="1"><g transform="translate(275.685338, 324.619689)"><g><path d="M 74.234375 0 L 39.921875 0 L 39.921875 -96.703125 C 39.921875 -100.535156 37.929688 -102.453125 33.953125 -102.453125 L 3.625 -102.453125 L 3.625 -138.625 L 49.765625 -138.625 C 56.941406 -138.625 62.832031 -136.320312 67.4375 -131.71875 C 71.96875 -127.1875 74.234375 -121.289062 74.234375 -114.03125 Z M 74.234375 0 "/></g></g></g><g fill="#242536" fill-opacity="1"><g transform="translate(381.543161, 324.619689)"><g><path d="M 39.34375 -77.15625 L 5.734375 -77.15625 L 5.734375 -138.625 L 39.34375 -138.625 Z M 39.34375 -77.15625 "/></g></g></g><g fill="#242536" fill-opacity="1"><g transform="translate(452.510605, 324.619689)"><g><path d="M 90.390625 0 L 56.4375 0 L 56.4375 -95.890625 C 56.4375 -100.265625 54.445312 -102.453125 50.46875 -102.453125 L 46.359375 -102.453125 C 42.378906 -102.453125 40.390625 -100.265625 40.390625 -95.890625 L 40.390625 0 L 5.96875 0 L 5.96875 -114.390625 C 5.96875 -123.054688 7.410156 -129.101562 10.296875 -132.53125 C 13.578125 -136.59375 19.429688 -138.625 27.859375 -138.625 L 66.96875 -138.625 C 82.582031 -138.625 90.390625 -130.546875 90.390625 -114.390625 Z M 90.390625 0 "/></g></g></g><g fill="#242536" fill-opacity="1"><g transform="translate(574.525683, 324.619689)"><g><path d="M 88.859375 0 L 54.4375 0 L 54.4375 -96.703125 C 54.4375 -100.535156 52.488281 -102.453125 48.59375 -102.453125 L 5.96875 -102.453125 L 5.96875 -138.625 L 64.390625 -138.625 C 71.578125 -138.625 77.472656 -136.320312 82.078125 -131.71875 C 86.597656 -127.1875 88.859375 -121.289062 88.859375 -114.03125 Z M 39.8125 0 L 6.09375 0 L 6.09375 -85.9375 L 39.8125 -85.9375 Z M 39.8125 0 "/></g></g></g><g fill="#242536" fill-opacity="1"><g transform="translate(695.018699, 324.619689)"><g><path d="M 39.8125 0 L 5.96875 0 L 5.96875 -138.625 L 39.8125 -138.625 Z M 39.8125 0 "/></g></g></g><g clip-path="url(#076c0a6703)"><path stroke-linecap="butt" transform="matrix(0.749323, 0, 0, 0.749323, 288.283407, 18.31572)" fill="none" stroke-linejoin="miter" d="M 92.627602 204.560545 C 92.627602 207.12536 91.657977 208.407768 89.718726 208.407768 L 70.498254 208.407768 C 68.188878 208.407768 67.031583 207.12536 67.031583 204.560545 L 67.031583 116.439343 C 67.031583 114.625206 66.406018 113.718137 65.154889 113.718137 L 53.998987 113.718137 C 52.810414 113.718137 52.127506 114.625206 51.939837 116.439343 L 50.156978 135.654603 C 49.969308 137.969192 48.561788 139.126486 45.939629 139.126486 L 28.126677 139.126486 C 25.812088 139.126486 24.654793 137.937914 24.654793 135.560768 L 24.654793 135.279264 L 29.810488 79.405918 C 30.060714 76.59609 31.468235 75.18857 34.03305 75.18857 L 88.780379 75.18857 C 91.345194 75.18857 92.627602 76.59609 92.627602 79.405918 Z M 163.405025 185.157616 C 163.405025 187.717218 162.372843 188.999625 160.313693 188.999625 L 141.468559 188.999625 C 139.028857 188.999625 137.814219 187.717218 137.814219 185.157616 L 137.814219 115.500996 C 137.814219 114.18731 137.126098 113.530468 135.749856 113.530468 L 109.966168 113.530468 C 107.344009 113.530468 105.999045 112.310617 105.936489 109.876128 L 104.065008 79.405918 L 104.065008 79.124414 C 104.065008 76.502255 105.279646 75.18857 107.719348 75.18857 L 159.563016 75.18857 C 162.122618 75.18857 163.405025 76.59609 163.405025 79.405918 Z M 208.685477 185.157616 C 208.685477 187.717218 207.752343 188.999625 205.875649 188.999625 L 186.842846 188.999625 C 184.53347 188.999625 183.376175 187.717218 183.376175 185.157616 L 183.376175 115.313327 C 183.376175 114.124754 182.93828 113.530468 182.06249 113.530468 L 181.030308 113.530468 C 179.466396 113.530468 178.595819 112.24806 178.40815 109.688458 L 176.437621 79.405918 L 176.437621 79.124414 C 176.437621 76.502255 177.657472 75.18857 180.091961 75.18857 L 204.843468 75.18857 C 207.408283 75.18857 208.685477 76.59609 208.685477 79.405918 Z M 290.811685 79.405918 L 284.436139 184.969947 C 284.248469 187.654661 282.908719 188.999625 280.40646 188.999625 L 222.844089 188.999625 C 220.5295 188.999625 219.377419 187.748496 219.377419 185.251451 L 219.377419 184.969947 L 221.905743 154.405902 C 222.093412 151.8463 223.500932 150.563893 226.123091 150.563893 L 230.157982 150.563893 L 223.970106 79.405918 L 223.970106 78.84291 C 223.970106 76.533534 225.1274 75.376239 227.436776 75.376239 L 245.155894 75.376239 C 247.720709 75.376239 249.123016 76.721203 249.373242 79.405918 L 255.467284 150.751562 L 259.126837 150.751562 C 260.43531 150.751562 261.154709 149.938328 261.279822 148.31186 L 265.872509 79.405918 C 266.060178 76.721203 267.405142 75.376239 269.907401 75.376239 L 287.157345 75.376239 C 289.591834 75.376239 290.811685 76.564812 290.811685 78.936744 Z M 371.530372 184.688443 C 371.530372 187.560827 370.247965 188.999625 367.688363 188.999625 L 350.438419 188.999625 C 347.623378 188.999625 346.127236 187.404436 345.939567 184.219269 L 341.904675 116.627012 C 341.779562 114.562649 340.903771 113.530468 339.282516 113.530468 L 309.844488 113.530468 C 306.904335 113.530468 305.439471 111.872721 305.439471 108.562442 L 305.439471 107.999434 L 307.029448 79.781257 C 307.217117 76.721203 308.874863 75.18857 311.997473 75.18857 L 361.125148 75.18857 C 363.997532 75.18857 365.530165 76.846316 365.717835 80.156595 L 371.530372 184.219269 Z M 327.751275 139.126486 L 326.43759 184.594608 C 326.312477 187.529548 324.748565 188.999625 321.751068 188.999625 L 305.439471 188.999625 C 302.874656 188.999625 301.592248 187.49827 301.592248 184.500773 L 301.592248 184.219269 L 303.375108 138.657313 C 303.437664 135.592046 305.157967 134.064626 308.530803 134.064626 L 323.346258 134.064626 C 326.281199 134.064626 327.751275 135.623325 327.751275 138.751148 Z M 458.812275 139.877164 C 458.812275 142.436766 457.780094 143.719173 455.720944 143.719173 L 436.875809 143.719173 C 434.623777 143.719173 433.497761 142.436766 433.497761 139.877164 L 433.497761 115.500996 C 433.497761 114.18731 432.846131 113.530468 431.532445 113.530468 L 430.03109 113.530468 C 428.029283 113.530468 426.939758 112.24806 426.752089 109.688458 L 424.78156 79.405918 L 424.78156 79.030579 C 424.78156 76.470977 426.001411 75.18857 428.4359 75.18857 L 454.970266 75.18857 C 457.529868 75.18857 458.812275 76.59609 458.812275 79.405918 Z M 518.626679 185.345285 C 518.626679 187.779774 517.406828 188.999625 514.967126 188.999625 L 472.126376 188.999625 C 469.811786 188.999625 468.654492 187.779774 468.654492 185.345285 L 468.654492 184.969947 L 471.563367 154.593572 C 471.813593 151.903644 473.158557 150.563893 475.593046 150.563893 L 489.37632 150.563893 C 490.809905 150.563893 491.529305 150.157276 491.529305 149.344042 L 491.529305 149.062538 L 488.813312 115.313327 C 488.688199 114.249867 487.968799 113.718137 486.655114 113.718137 L 481.499419 113.718137 C 479.06493 113.718137 477.845079 112.498286 477.845079 110.063797 L 477.845079 109.876128 L 479.998064 79.405918 C 480.185733 76.59609 481.593253 75.18857 484.220625 75.18857 L 508.216241 75.18857 C 510.718499 75.18857 512.063463 76.59609 512.251133 79.405918 L 518.532844 184.969947 C 518.5954 185.032503 518.626679 185.157616 518.626679 185.345285 Z M 563.344122 139.877164 C 563.344122 142.436766 562.311941 143.719173 560.247578 143.719173 L 541.407657 143.719173 C 539.155624 143.719173 538.029608 142.436766 538.029608 139.877164 L 538.029608 115.500996 C 538.029608 114.18731 537.372765 113.530468 536.064292 113.530468 L 534.562937 113.530468 C 532.56113 113.530468 531.466392 112.24806 531.278723 109.688458 L 529.313407 79.405918 L 529.313407 79.030579 C 529.313407 76.470977 530.533258 75.18857 532.967747 75.18857 L 559.502113 75.18857 C 562.061715 75.18857 563.344122 76.59609 563.344122 79.405918 Z M 636.373578 79.968926 L 634.408263 107.999434 C 634.09548 111.685052 632.875629 113.530468 630.74871 113.530468 L 625.030007 113.530468 L 625.030007 184.969947 C 625.030007 187.654661 623.55993 188.999625 620.624989 188.999625 L 603.562714 188.999625 C 600.872786 188.999625 599.533035 187.592105 599.533035 184.782277 L 599.533035 113.530468 L 576.470553 113.530468 C 574.093408 113.530468 572.811 111.685052 572.623331 107.999434 L 571.221024 79.968926 L 571.221024 79.312083 C 571.221024 76.564812 572.560774 75.18857 575.250702 75.18857 L 632.906908 75.18857 C 635.216284 75.18857 636.373578 76.533534 636.373578 79.218248 Z M 636.373578 79.968926 " stroke="#ffcf7e" stroke-width="36" stroke-opacity="1" stroke-miterlimit="4"/></g><g fill="#242536" fill-opacity="1"><g transform="translate(304.581184, 159.937781)"><g><path d="M 53.109375 11.65625 C 53.109375 13.582031 52.382812 14.546875 50.9375 14.546875 L 36.53125 14.546875 C 34.800781 14.546875 33.9375 13.582031 33.9375 11.65625 L 33.9375 -54.375 C 33.9375 -55.726562 33.46875 -56.40625 32.53125 -56.40625 L 24.171875 -56.40625 C 23.273438 -56.40625 22.757812 -55.726562 22.625 -54.375 L 21.28125 -39.96875 C 21.144531 -38.238281 20.09375 -37.375 18.125 -37.375 L 4.78125 -37.375 C 3.039062 -37.375 2.171875 -38.265625 2.171875 -40.046875 L 2.171875 -40.25 L 6.046875 -82.125 C 6.234375 -84.226562 7.285156 -85.28125 9.203125 -85.28125 L 50.234375 -85.28125 C 52.148438 -85.28125 53.109375 -84.226562 53.109375 -82.125 Z M 53.109375 11.65625 "/></g></g><g transform="translate(363.520127, 159.937781)"><g><path d="M 47.203125 -2.875 C 47.203125 -0.957031 46.429688 0 44.890625 0 L 30.765625 0 C 28.941406 0 28.03125 -0.957031 28.03125 -2.875 L 28.03125 -55.078125 C 28.03125 -56.054688 27.515625 -56.546875 26.484375 -56.546875 L 7.171875 -56.546875 C 5.203125 -56.546875 4.191406 -57.460938 4.140625 -59.296875 L 2.734375 -82.125 L 2.734375 -82.328125 C 2.734375 -84.296875 3.648438 -85.28125 5.484375 -85.28125 L 44.328125 -85.28125 C 46.242188 -85.28125 47.203125 -84.226562 47.203125 -82.125 Z M 47.203125 -2.875 "/></g></g><g transform="translate(416.487901, 159.937781)"><g><path d="M 28.171875 -2.875 C 28.171875 -0.957031 27.46875 0 26.0625 0 L 11.796875 0 C 10.066406 0 9.203125 -0.957031 9.203125 -2.875 L 9.203125 -55.21875 C 9.203125 -56.101562 8.875 -56.546875 8.21875 -56.546875 L 7.453125 -56.546875 C 6.273438 -56.546875 5.617188 -57.507812 5.484375 -59.4375 L 4 -82.125 L 4 -82.328125 C 4 -84.296875 4.914062 -85.28125 6.75 -85.28125 L 25.296875 -85.28125 C 27.210938 -85.28125 28.171875 -84.226562 28.171875 -82.125 Z M 28.171875 -2.875 "/></g></g><g transform="translate(449.223953, 159.937781)"><g><path d="M 56.96875 -82.125 L 52.203125 -3.015625 C 52.054688 -1.003906 51.046875 0 49.171875 0 L 6.046875 0 C 4.304688 0 3.4375 -0.9375 3.4375 -2.8125 L 3.4375 -3.015625 L 5.34375 -25.921875 C 5.476562 -27.835938 6.53125 -28.796875 8.5 -28.796875 L 11.515625 -28.796875 L 6.890625 -82.125 L 6.890625 -82.546875 C 6.890625 -84.273438 7.753906 -85.140625 9.484375 -85.140625 L 22.765625 -85.140625 C 24.679688 -85.140625 25.734375 -84.132812 25.921875 -82.125 L 30.484375 -28.65625 L 33.234375 -28.65625 C 34.210938 -28.65625 34.75 -29.265625 34.84375 -30.484375 L 38.28125 -82.125 C 38.425781 -84.132812 39.4375 -85.140625 41.3125 -85.140625 L 54.234375 -85.140625 C 56.054688 -85.140625 56.96875 -84.25 56.96875 -82.46875 Z M 56.96875 -82.125 "/></g></g><g transform="translate(510.270367, 159.937781)"><g><path d="M 56.40625 -3.234375 C 56.40625 -1.078125 55.445312 0 53.53125 0 L 40.609375 0 C 38.492188 0 37.367188 -1.191406 37.234375 -3.578125 L 34.21875 -54.234375 C 34.125 -55.773438 33.46875 -56.546875 32.25 -56.546875 L 10.1875 -56.546875 C 7.988281 -56.546875 6.890625 -57.789062 6.890625 -60.28125 L 6.890625 -60.703125 L 8.078125 -81.84375 C 8.222656 -84.132812 9.460938 -85.28125 11.796875 -85.28125 L 48.609375 -85.28125 C 50.765625 -85.28125 51.914062 -84.039062 52.0625 -81.5625 L 56.40625 -3.578125 Z M 23.609375 -37.375 L 22.625 -3.296875 C 22.53125 -1.097656 21.359375 0 19.109375 0 L 6.890625 0 C 4.960938 0 4 -1.125 4 -3.375 L 4 -3.578125 L 5.34375 -37.71875 C 5.382812 -40.019531 6.671875 -41.171875 9.203125 -41.171875 L 20.296875 -41.171875 C 22.503906 -41.171875 23.609375 -40 23.609375 -37.65625 Z M 23.609375 -37.375 "/></g></g><g transform="translate(570.75479, 159.937781)"><g/></g><g transform="translate(602.577605, 159.937781)"><g><path d="M 29.5 -36.8125 C 29.5 -34.894531 28.726562 -33.9375 27.1875 -33.9375 L 13.0625 -33.9375 C 11.375 -33.9375 10.53125 -34.894531 10.53125 -36.8125 L 10.53125 -55.078125 C 10.53125 -56.054688 10.039062 -56.546875 9.0625 -56.546875 L 7.9375 -56.546875 C 6.4375 -56.546875 5.617188 -57.507812 5.484375 -59.4375 L 4 -82.125 L 4 -82.40625 C 4 -84.320312 4.914062 -85.28125 6.75 -85.28125 L 26.625 -85.28125 C 28.539062 -85.28125 29.5 -84.226562 29.5 -82.125 Z M 29.5 -36.8125 "/></g></g><g transform="translate(636.57814, 159.937781)"><g><path d="M 40.328125 -2.734375 C 40.328125 -0.910156 39.410156 0 37.578125 0 L 5.484375 0 C 3.742188 0 2.875 -0.910156 2.875 -2.734375 L 2.875 -3.015625 L 5.0625 -25.78125 C 5.25 -27.789062 6.253906 -28.796875 8.078125 -28.796875 L 18.40625 -28.796875 C 19.476562 -28.796875 20.015625 -29.101562 20.015625 -29.71875 L 20.015625 -29.921875 L 17.984375 -55.21875 C 17.890625 -56.007812 17.351562 -56.40625 16.375 -56.40625 L 12.5 -56.40625 C 10.675781 -56.40625 9.765625 -57.320312 9.765625 -59.15625 L 9.765625 -59.296875 L 11.375 -82.125 C 11.519531 -84.226562 12.578125 -85.28125 14.546875 -85.28125 L 32.53125 -85.28125 C 34.40625 -85.28125 35.410156 -84.226562 35.546875 -82.125 L 40.25 -3.015625 C 40.300781 -2.972656 40.328125 -2.878906 40.328125 -2.734375 Z M 40.328125 -2.734375 "/></g></g><g transform="translate(680.905283, 159.937781)"><g><path d="M 29.5 -36.8125 C 29.5 -34.894531 28.726562 -33.9375 27.1875 -33.9375 L 13.0625 -33.9375 C 11.375 -33.9375 10.53125 -34.894531 10.53125 -36.8125 L 10.53125 -55.078125 C 10.53125 -56.054688 10.039062 -56.546875 9.0625 -56.546875 L 7.9375 -56.546875 C 6.4375 -56.546875 5.617188 -57.507812 5.484375 -59.4375 L 4 -82.125 L 4 -82.40625 C 4 -84.320312 4.914062 -85.28125 6.75 -85.28125 L 26.625 -85.28125 C 28.539062 -85.28125 29.5 -84.226562 29.5 -82.125 Z M 29.5 -36.8125 "/></g></g><g transform="translate(714.905818, 159.937781)"><g><path d="M 50.234375 -81.703125 L 48.75 -60.703125 C 48.519531 -57.929688 47.609375 -56.546875 46.015625 -56.546875 L 41.734375 -56.546875 L 41.734375 -3.015625 C 41.734375 -1.003906 40.628906 0 38.421875 0 L 25.640625 0 C 23.628906 0 22.625 -1.050781 22.625 -3.15625 L 22.625 -56.546875 L 5.34375 -56.546875 C 3.5625 -56.546875 2.597656 -57.929688 2.453125 -60.703125 L 1.40625 -81.703125 L 1.40625 -82.1875 C 1.40625 -84.25 2.410156 -85.28125 4.421875 -85.28125 L 47.625 -85.28125 C 49.363281 -85.28125 50.234375 -84.273438 50.234375 -82.265625 Z M 50.234375 -81.703125 "/></g></g></g><g clip-path="url(#d5b69f2e87)"><path fill="#ffcf7e" d="M 827.558594 345.042969 L 807.449219 351.578125 L 807.449219 372.71875 L 795.023438 355.613281 L 774.910156 362.148438 L 785.914062 347.007812 L 186.746094 347.007812 L 186.746094 343.078125 L 785.914062 343.078125 L 774.910156 327.941406 L 795.023438 334.472656 L 807.449219 317.371094 L 807.449219 338.511719 Z M 827.558594 345.042969 " fill-opacity="1" fill-rule="nonzero"/></g></svg>