<svg xmlns="http://www.w3.org/2000/svg" xmlns:xlink="http://www.w3.org/1999/xlink" width="1864" zoomAndPan="magnify" viewBox="0 0 1398 251.250001" height="335" preserveAspectRatio="xMidYMid meet" version="1.0"><defs><g/><clipPath id="bfa6ac544b"><path d="M 5 93 L 650 93 L 650 244 L 5 244 Z M 5 93 " clip-rule="nonzero"/></clipPath><clipPath id="b9cdb1b615"><path d="M 10.019531 89.996094 L 653.550781 200.476562 L 645.613281 246.726562 L 2.078125 136.246094 Z M 10.019531 89.996094 " clip-rule="nonzero"/></clipPath><clipPath id="882ceff345"><path d="M 33.144531 93.964844 L 630.335938 196.488281 C 643.105469 198.679688 651.683594 210.8125 649.492188 223.585938 C 647.296875 236.355469 635.167969 244.933594 622.394531 242.738281 L 25.207031 140.214844 C 12.433594 138.023438 3.855469 125.890625 6.050781 113.121094 C 8.242188 100.347656 20.375 91.773438 33.144531 93.964844 Z M 33.144531 93.964844 " clip-rule="nonzero"/></clipPath><clipPath id="2adfda25cf"><path d="M 5 93 L 650 93 L 650 244 L 5 244 Z M 5 93 " clip-rule="nonzero"/></clipPath><clipPath id="48539847f8"><path d="M 10.019531 89.996094 L 653.410156 200.449219 L 645.4375 246.878906 L 2.050781 136.425781 Z M 10.019531 89.996094 " clip-rule="nonzero"/></clipPath><clipPath id="e34825281d"><path d="M 10.050781 90 L 655.445312 200.800781 L 647.121094 249.296875 L 1.722656 138.496094 Z M 10.050781 90 " clip-rule="nonzero"/></clipPath><clipPath id="0c06a64e49"><path d="M 33.171875 93.96875 L 630.304688 196.484375 C 643.074219 198.675781 651.648438 210.804688 649.457031 223.574219 C 647.265625 236.347656 635.132812 244.921875 622.363281 242.730469 L 25.234375 140.214844 C 12.460938 138.023438 3.886719 125.894531 6.078125 113.121094 C 8.273438 100.351562 20.402344 91.777344 33.171875 93.96875 Z M 33.171875 93.96875 " clip-rule="nonzero"/></clipPath><clipPath id="f703b4a165"><path d="M 18 51 L 663 51 L 663 202 L 18 202 Z M 18 51 " clip-rule="nonzero"/></clipPath><clipPath id="9628d8c13e"><path d="M 22.757812 48.253906 L 666.292969 158.734375 L 658.351562 204.984375 L 14.820312 94.503906 Z M 22.757812 48.253906 " clip-rule="nonzero"/></clipPath><clipPath id="dbfae6ace1"><path d="M 45.886719 52.222656 L 643.074219 154.746094 C 655.847656 156.941406 664.421875 169.070312 662.230469 181.84375 C 660.039062 194.613281 647.90625 203.191406 635.136719 200.996094 L 37.945312 98.472656 C 25.171875 96.28125 16.597656 84.148438 18.789062 71.378906 C 20.980469 58.605469 33.113281 50.03125 45.886719 52.222656 Z M 45.886719 52.222656 " clip-rule="nonzero"/></clipPath><clipPath id="9484a7ba82"><path d="M 18 51 L 663 51 L 663 202 L 18 202 Z M 18 51 " clip-rule="nonzero"/></clipPath><clipPath id="039af1ab1f"><path d="M 22.757812 48.253906 L 666.148438 158.707031 L 658.175781 205.136719 L 14.789062 94.683594 Z M 22.757812 48.253906 " clip-rule="nonzero"/></clipPath><clipPath id="970daa501e"><path d="M 22.789062 48.257812 L 668.1875 159.058594 L 659.859375 207.554688 L 14.460938 96.753906 Z M 22.789062 48.257812 " clip-rule="nonzero"/></clipPath><clipPath id="c0507b5233"><path d="M 45.910156 52.226562 L 643.042969 154.742188 C 655.8125 156.933594 664.386719 169.0625 662.195312 181.835938 C 660.003906 194.605469 647.875 203.179688 635.101562 200.988281 L 37.972656 98.472656 C 25.203125 96.28125 16.625 84.152344 18.820312 71.378906 C 21.011719 58.609375 33.140625 50.035156 45.910156 52.226562 Z M 45.910156 52.226562 " clip-rule="nonzero"/></clipPath><clipPath id="f363fffc72"><path d="M 36 9 L 681 9 L 681 159 L 36 159 Z M 36 9 " clip-rule="nonzero"/></clipPath><clipPath id="dc36b2da93"><path d="M 40.605469 5.539062 L 684.136719 116.015625 L 676.195312 162.269531 L 32.664062 51.789062 Z M 40.605469 5.539062 " clip-rule="nonzero"/></clipPath><clipPath id="77901827c3"><path d="M 63.730469 9.507812 L 660.921875 112.03125 C 673.691406 114.222656 682.269531 126.355469 680.074219 139.128906 C 677.882812 151.898438 665.753906 160.476562 652.980469 158.28125 L 55.789062 55.757812 C 43.019531 53.566406 34.441406 41.433594 36.636719 28.664062 C 38.828125 15.890625 50.957031 7.316406 63.730469 9.507812 Z M 63.730469 9.507812 " clip-rule="nonzero"/></clipPath><clipPath id="bc05e36bfb"><path d="M 36 9 L 681 9 L 681 159 L 36 159 Z M 36 9 " clip-rule="nonzero"/></clipPath><clipPath id="605e687935"><path d="M 40.605469 5.539062 L 683.992188 115.992188 L 676.023438 162.421875 L 32.632812 51.96875 Z M 40.605469 5.539062 " clip-rule="nonzero"/></clipPath><clipPath id="c1d9501210"><path d="M 40.632812 5.542969 L 686.03125 116.34375 L 677.707031 164.839844 L 32.308594 54.039062 Z M 40.632812 5.542969 " clip-rule="nonzero"/></clipPath><clipPath id="d952c73e64"><path d="M 63.757812 9.511719 L 660.886719 112.027344 C 673.660156 114.21875 682.234375 126.347656 680.042969 139.117188 C 677.847656 151.890625 665.71875 160.464844 652.949219 158.273438 L 55.816406 55.757812 C 43.046875 53.566406 34.472656 41.4375 36.664062 28.664062 C 38.855469 15.894531 50.988281 7.320312 63.757812 9.511719 Z M 63.757812 9.511719 " clip-rule="nonzero"/></clipPath><clipPath id="a19eea280b"><path d="M 10 87 L 620 87 L 620 232 L 10 232 Z M 10 87 " clip-rule="nonzero"/></clipPath><clipPath id="53e78b6e33"><path d="M 14.550781 83.894531 L 623.578125 188.449219 L 615.636719 234.699219 L 6.613281 130.144531 Z M 14.550781 83.894531 " clip-rule="nonzero"/></clipPath><clipPath id="3128397281"><path d="M 37.675781 87.863281 L 600.339844 184.460938 C 613.109375 186.652344 621.6875 198.785156 619.496094 211.554688 C 617.300781 224.328125 605.171875 232.902344 592.398438 230.710938 L 29.738281 134.113281 C 16.964844 131.921875 8.390625 119.792969 10.582031 107.019531 C 12.773438 94.246094 24.90625 85.671875 37.675781 87.863281 Z M 37.675781 87.863281 " clip-rule="nonzero"/></clipPath><clipPath id="323b14172d"><path d="M 10 87 L 620 87 L 620 232 L 10 232 Z M 10 87 " clip-rule="nonzero"/></clipPath><clipPath id="7edb0211ee"><path d="M 14.550781 83.894531 L 623.300781 188.402344 L 615.332031 234.832031 L 6.582031 130.324219 Z M 14.550781 83.894531 " clip-rule="nonzero"/></clipPath><clipPath id="943ed055ec"><path d="M 14.582031 83.898438 L 626.402344 188.9375 L 618.078125 237.433594 L 6.253906 132.398438 Z M 14.582031 83.898438 " clip-rule="nonzero"/></clipPath><clipPath id="c4a75039cc"><path d="M 37.703125 87.867188 L 600.308594 184.457031 C 613.082031 186.648438 621.65625 198.777344 619.464844 211.546875 C 617.269531 224.320312 605.140625 232.894531 592.371094 230.703125 L 29.765625 134.113281 C 16.996094 131.921875 8.417969 119.792969 10.613281 107.023438 C 12.804688 94.25 24.933594 85.675781 37.703125 87.867188 Z M 37.703125 87.867188 " clip-rule="nonzero"/></clipPath><clipPath id="910642fc57"><path d="M 23 46 L 634 46 L 634 190 L 23 190 Z M 23 46 " clip-rule="nonzero"/></clipPath><clipPath id="9972f629b5"><path d="M 28.03125 42.410156 L 637.058594 146.964844 L 629.117188 193.21875 L 20.089844 88.660156 Z M 28.03125 42.410156 " clip-rule="nonzero"/></clipPath><clipPath id="a56ba41315"><path d="M 51.15625 46.378906 L 613.820312 142.976562 C 626.589844 145.171875 635.167969 157.300781 632.972656 170.074219 C 630.78125 182.84375 618.652344 191.421875 605.878906 189.226562 L 43.21875 92.632812 C 30.445312 90.4375 21.871094 78.308594 24.0625 65.535156 C 26.253906 52.765625 38.386719 44.1875 51.15625 46.378906 Z M 51.15625 46.378906 " clip-rule="nonzero"/></clipPath><clipPath id="4423cde21b"><path d="M 23 46 L 634 46 L 634 190 L 23 190 Z M 23 46 " clip-rule="nonzero"/></clipPath><clipPath id="2534ab275c"><path d="M 28.03125 42.410156 L 636.78125 146.917969 L 628.8125 193.351562 L 20.0625 88.839844 Z M 28.03125 42.410156 " clip-rule="nonzero"/></clipPath><clipPath id="4580638be9"><path d="M 28.0625 42.414062 L 639.882812 147.453125 L 631.558594 195.949219 L 19.734375 90.914062 Z M 28.0625 42.414062 " clip-rule="nonzero"/></clipPath><clipPath id="0dc5ecc606"><path d="M 51.183594 46.386719 L 613.789062 142.972656 C 626.5625 145.164062 635.136719 157.292969 632.945312 170.066406 C 630.75 182.835938 618.621094 191.410156 605.851562 189.21875 L 43.246094 92.632812 C 30.476562 90.4375 21.898438 78.308594 24.09375 65.539062 C 26.285156 52.769531 38.414062 44.191406 51.183594 46.386719 Z M 51.183594 46.386719 " clip-rule="nonzero"/></clipPath><clipPath id="f58cfe89b0"><path d="M 42 3 L 653 3 L 653 148 L 42 148 Z M 42 3 " clip-rule="nonzero"/></clipPath><clipPath id="2870418c05"><path d="M 46.753906 0 L 655.777344 104.554688 L 647.839844 150.808594 L 38.8125 46.25 Z M 46.753906 0 " clip-rule="nonzero"/></clipPath><clipPath id="f3ed228521"><path d="M 69.878906 3.96875 L 632.542969 100.566406 C 645.3125 102.757812 653.890625 114.890625 651.695312 127.664062 C 649.503906 140.433594 637.371094 149.011719 624.601562 146.816406 L 61.9375 50.21875 C 49.167969 48.027344 40.589844 35.898438 42.785156 23.125 C 44.976562 10.355469 57.105469 1.777344 69.878906 3.96875 Z M 69.878906 3.96875 " clip-rule="nonzero"/></clipPath><clipPath id="7a61d69f1c"><path d="M 42 3 L 653 3 L 653 148 L 42 148 Z M 42 3 " clip-rule="nonzero"/></clipPath><clipPath id="4ca27ad638"><path d="M 46.753906 0 L 655.503906 104.507812 L 647.53125 150.9375 L 38.78125 46.429688 Z M 46.753906 0 " clip-rule="nonzero"/></clipPath><clipPath id="84a4d79a95"><path d="M 46.785156 0.00390625 L 658.605469 105.042969 L 650.277344 153.539062 L 38.457031 48.503906 Z M 46.785156 0.00390625 " clip-rule="nonzero"/></clipPath><clipPath id="e16faba1b4"><path d="M 69.90625 3.976562 L 632.511719 100.5625 C 645.28125 102.753906 653.859375 114.882812 651.664062 127.65625 C 649.472656 140.425781 637.34375 149 624.574219 146.808594 L 61.96875 50.222656 C 49.195312 48.027344 40.621094 35.898438 42.8125 23.128906 C 45.007812 10.359375 57.136719 1.78125 69.90625 3.976562 Z M 69.90625 3.976562 " clip-rule="nonzero"/></clipPath><clipPath id="77b8692458"><path d="M 747 95 L 1392 95 L 1392 242 L 747 242 Z M 747 95 " clip-rule="nonzero"/></clipPath><clipPath id="448d92413d"><path d="M 743.765625 198.824219 L 1387.839844 91.550781 L 1395.550781 137.839844 L 751.476562 245.113281 Z M 743.765625 198.824219 " clip-rule="nonzero"/></clipPath><clipPath id="acdd0253f2"><path d="M 766.910156 194.96875 L 1364.601562 95.421875 C 1377.386719 93.292969 1389.472656 101.929688 1391.601562 114.710938 C 1393.730469 127.492188 1385.09375 139.582031 1372.3125 141.710938 L 774.621094 241.257812 C 761.835938 243.386719 749.75 234.753906 747.621094 221.96875 C 745.492188 209.1875 754.128906 197.097656 766.910156 194.96875 Z M 766.910156 194.96875 " clip-rule="nonzero"/></clipPath><clipPath id="b94780bf39"><path d="M 747 95 L 1392 95 L 1392 242 L 747 242 Z M 747 95 " clip-rule="nonzero"/></clipPath><clipPath id="75f35537ae"><path d="M 743.765625 198.824219 L 1387.695312 91.574219 L 1395.433594 138.042969 L 751.503906 245.292969 Z M 743.765625 198.824219 " clip-rule="nonzero"/></clipPath><clipPath id="b623433811"><path d="M 743.792969 198.820312 L 1389.734375 91.234375 L 1397.820312 139.773438 L 751.878906 247.359375 Z M 743.792969 198.820312 " clip-rule="nonzero"/></clipPath><clipPath id="82a4da142e"><path d="M 766.9375 194.964844 L 1364.570312 95.425781 C 1377.351562 93.296875 1389.4375 101.933594 1391.566406 114.714844 C 1393.695312 127.496094 1385.058594 139.582031 1372.277344 141.710938 L 774.644531 241.25 C 761.863281 243.378906 749.777344 234.742188 747.648438 221.960938 C 745.519531 209.179688 754.15625 197.09375 766.9375 194.964844 Z M 766.9375 194.964844 " clip-rule="nonzero"/></clipPath><clipPath id="c3785f4c00"><path d="M 732 56 L 1378 56 L 1378 203 L 732 203 Z M 732 56 " clip-rule="nonzero"/></clipPath><clipPath id="5930b24267"><path d="M 728.972656 160.167969 L 1373.046875 52.894531 L 1380.757812 99.183594 L 736.683594 206.457031 Z M 728.972656 160.167969 " clip-rule="nonzero"/></clipPath><clipPath id="2d9a7e9478"><path d="M 752.117188 156.3125 L 1349.808594 56.765625 C 1362.59375 54.636719 1374.679688 63.273438 1376.808594 76.054688 C 1378.9375 88.835938 1370.300781 100.925781 1357.519531 103.054688 L 759.828125 202.605469 C 747.042969 204.734375 734.957031 196.097656 732.828125 183.3125 C 730.699219 170.53125 739.335938 158.441406 752.117188 156.3125 Z M 752.117188 156.3125 " clip-rule="nonzero"/></clipPath><clipPath id="1b47bf5dc6"><path d="M 732 56 L 1378 56 L 1378 203 L 732 203 Z M 732 56 " clip-rule="nonzero"/></clipPath><clipPath id="f5ced96a63"><path d="M 728.972656 160.167969 L 1372.902344 52.917969 L 1380.640625 99.386719 L 736.710938 206.636719 Z M 728.972656 160.167969 " clip-rule="nonzero"/></clipPath><clipPath id="5495972fc2"><path d="M 729 160.164062 L 1374.941406 52.578125 L 1383.027344 101.117188 L 737.085938 208.703125 Z M 729 160.164062 " clip-rule="nonzero"/></clipPath><clipPath id="f48dc270b0"><path d="M 752.144531 156.308594 L 1349.777344 56.769531 C 1362.558594 54.640625 1374.644531 63.277344 1376.773438 76.058594 C 1378.902344 88.839844 1370.265625 100.925781 1357.484375 103.054688 L 759.851562 202.59375 C 747.070312 204.722656 734.984375 196.089844 732.855469 183.308594 C 730.726562 170.527344 739.363281 158.4375 752.144531 156.308594 Z M 752.144531 156.308594 " clip-rule="nonzero"/></clipPath><clipPath id="aa76216abc"><path d="M 715 18 L 1360 18 L 1360 165 L 715 165 Z M 715 18 " clip-rule="nonzero"/></clipPath><clipPath id="fcdc40303b"><path d="M 711.476562 121.902344 L 1355.550781 14.628906 L 1363.261719 60.917969 L 719.1875 168.191406 Z M 711.476562 121.902344 " clip-rule="nonzero"/></clipPath><clipPath id="5b854fbcf8"><path d="M 734.621094 118.046875 L 1332.316406 18.5 C 1345.097656 16.371094 1357.1875 25.007812 1359.316406 37.789062 C 1361.445312 50.570312 1352.808594 62.660156 1340.027344 64.789062 L 742.332031 164.339844 C 729.550781 166.46875 717.460938 157.832031 715.332031 145.046875 C 713.203125 132.265625 721.839844 120.179688 734.621094 118.046875 Z M 734.621094 118.046875 " clip-rule="nonzero"/></clipPath><clipPath id="4b0f4176be"><path d="M 715 18 L 1360 18 L 1360 165 L 715 165 Z M 715 18 " clip-rule="nonzero"/></clipPath><clipPath id="a373073b09"><path d="M 711.476562 121.902344 L 1355.410156 14.652344 L 1363.148438 61.121094 L 719.21875 168.371094 Z M 711.476562 121.902344 " clip-rule="nonzero"/></clipPath><clipPath id="915a3083ac"><path d="M 711.507812 121.898438 L 1357.449219 14.3125 L 1365.53125 62.851562 L 719.589844 170.4375 Z M 711.507812 121.898438 " clip-rule="nonzero"/></clipPath><clipPath id="4cd9a90f95"><path d="M 734.648438 118.042969 L 1332.28125 18.503906 C 1345.0625 16.375 1357.152344 25.011719 1359.28125 37.792969 C 1361.410156 50.574219 1352.773438 62.660156 1339.992188 64.789062 L 742.359375 164.328125 C 729.578125 166.457031 717.488281 157.824219 715.363281 145.042969 C 713.234375 132.261719 721.867188 120.171875 734.648438 118.042969 Z M 734.648438 118.042969 " clip-rule="nonzero"/></clipPath><clipPath id="de83312b76"><path d="M 777 87 L 1388 87 L 1388 229 L 777 229 Z M 777 87 " clip-rule="nonzero"/></clipPath><clipPath id="478a0bba68"><path d="M 773.980469 185.480469 L 1383.519531 83.957031 L 1391.226562 130.246094 L 781.6875 231.769531 Z M 773.980469 185.480469 " clip-rule="nonzero"/></clipPath><clipPath id="e05bffeb8b"><path d="M 797.125 181.625 L 1360.261719 87.832031 C 1373.042969 85.703125 1385.132812 94.335938 1387.261719 107.121094 C 1389.390625 119.902344 1380.753906 131.992188 1367.96875 134.121094 L 804.835938 227.914062 C 792.050781 230.042969 779.964844 221.40625 777.835938 208.625 C 775.707031 195.839844 784.339844 183.753906 797.125 181.625 Z M 797.125 181.625 " clip-rule="nonzero"/></clipPath><clipPath id="bdb5899344"><path d="M 777 87 L 1388 87 L 1388 229 L 777 229 Z M 777 87 " clip-rule="nonzero"/></clipPath><clipPath id="ee6eaf62df"><path d="M 773.980469 185.480469 L 1383.242188 84.003906 L 1390.984375 130.472656 L 781.71875 231.949219 Z M 773.980469 185.480469 " clip-rule="nonzero"/></clipPath><clipPath id="8d68c15d07"><path d="M 774.007812 185.472656 L 1386.347656 83.484375 L 1394.429688 132.023438 L 782.09375 234.011719 Z M 774.007812 185.472656 " clip-rule="nonzero"/></clipPath><clipPath id="615db2bed4"><path d="M 797.152344 181.621094 L 1360.230469 87.835938 C 1373.011719 85.707031 1385.101562 94.34375 1387.230469 107.125 C 1389.359375 119.902344 1380.722656 131.992188 1367.941406 134.121094 L 804.859375 227.902344 C 792.078125 230.03125 779.992188 221.398438 777.863281 208.617188 C 775.734375 195.835938 784.371094 183.75 797.152344 181.621094 Z M 797.152344 181.621094 " clip-rule="nonzero"/></clipPath><clipPath id="b0b02f0eb0"><path d="M 763 48 L 1374 48 L 1374 190 L 763 190 Z M 763 48 " clip-rule="nonzero"/></clipPath><clipPath id="b1abc21311"><path d="M 759.972656 146.824219 L 1369.507812 45.300781 L 1377.21875 91.589844 L 767.679688 193.113281 Z M 759.972656 146.824219 " clip-rule="nonzero"/></clipPath><clipPath id="2e1e5afd10"><path d="M 783.117188 142.96875 L 1346.25 49.175781 C 1359.035156 47.046875 1371.121094 55.683594 1373.25 68.464844 C 1375.378906 81.246094 1366.746094 93.335938 1353.960938 95.464844 L 790.824219 189.257812 C 778.042969 191.386719 765.953125 182.75 763.824219 169.96875 C 761.695312 157.183594 770.332031 145.097656 783.117188 142.96875 Z M 783.117188 142.96875 " clip-rule="nonzero"/></clipPath><clipPath id="1ed87555b7"><path d="M 763 48 L 1374 48 L 1374 190 L 763 190 Z M 763 48 " clip-rule="nonzero"/></clipPath><clipPath id="6ff0605aaf"><path d="M 759.972656 146.824219 L 1369.234375 45.347656 L 1376.972656 91.816406 L 767.710938 193.292969 Z M 759.972656 146.824219 " clip-rule="nonzero"/></clipPath><clipPath id="ae4cbdc244"><path d="M 760 146.816406 L 1372.335938 44.828125 L 1380.421875 93.367188 L 768.085938 195.355469 Z M 760 146.816406 " clip-rule="nonzero"/></clipPath><clipPath id="d6777577a6"><path d="M 783.144531 142.964844 L 1346.222656 49.179688 C 1359.003906 47.050781 1371.089844 55.6875 1373.21875 68.46875 C 1375.347656 81.25 1366.714844 93.335938 1353.933594 95.464844 L 790.851562 189.25 C 778.070312 191.378906 765.984375 182.742188 763.855469 169.960938 C 761.726562 157.179688 770.363281 145.09375 783.144531 142.964844 Z M 783.144531 142.964844 " clip-rule="nonzero"/></clipPath><clipPath id="b45ee832f9"><path d="M 746 10 L 1358 10 L 1358 152 L 746 152 Z M 746 10 " clip-rule="nonzero"/></clipPath><clipPath id="af07864ae1"><path d="M 743.402344 108.558594 L 1352.941406 7.035156 L 1360.652344 53.324219 L 751.113281 154.847656 Z M 743.402344 108.558594 " clip-rule="nonzero"/></clipPath><clipPath id="638321350b"><path d="M 766.550781 104.703125 L 1329.683594 10.910156 C 1342.46875 8.78125 1354.554688 17.417969 1356.683594 30.199219 C 1358.8125 42.980469 1350.175781 55.070312 1337.394531 57.199219 L 774.257812 150.992188 C 761.476562 153.121094 749.386719 144.484375 747.257812 131.703125 C 745.128906 118.917969 753.765625 106.832031 766.550781 104.703125 Z M 766.550781 104.703125 " clip-rule="nonzero"/></clipPath><clipPath id="d537fce25f"><path d="M 746 10 L 1357 10 L 1357 152 L 746 152 Z M 746 10 " clip-rule="nonzero"/></clipPath><clipPath id="a805d3ddd0"><path d="M 743.402344 108.558594 L 1352.667969 7.082031 L 1360.40625 53.550781 L 751.144531 155.027344 Z M 743.402344 108.558594 " clip-rule="nonzero"/></clipPath><clipPath id="a942c8bd46"><path d="M 743.433594 108.550781 L 1355.769531 6.5625 L 1363.855469 55.101562 L 751.519531 157.089844 Z M 743.433594 108.550781 " clip-rule="nonzero"/></clipPath><clipPath id="88eee11c5a"><path d="M 766.578125 104.699219 L 1329.65625 10.914062 C 1342.4375 8.785156 1354.523438 17.421875 1356.652344 30.203125 C 1358.78125 42.984375 1350.148438 55.070312 1337.367188 57.199219 L 774.285156 150.984375 C 761.503906 153.113281 749.417969 144.476562 747.289062 131.695312 C 745.160156 118.914062 753.796875 106.828125 766.578125 104.699219 Z M 766.578125 104.699219 " clip-rule="nonzero"/></clipPath><clipPath id="4e6c4ae9db"><path d="M 576.625 86.984375 L 819 86.984375 L 819 240.765625 L 576.625 240.765625 Z M 576.625 86.984375 " clip-rule="nonzero"/></clipPath><clipPath id="6dfcc92dd6"><path d="M 697.765625 86.984375 C 630.863281 86.984375 576.625 121.410156 576.625 163.875 C 576.625 206.339844 630.863281 240.765625 697.765625 240.765625 C 764.667969 240.765625 818.902344 206.339844 818.902344 163.875 C 818.902344 121.410156 764.667969 86.984375 697.765625 86.984375 Z M 697.765625 86.984375 " clip-rule="nonzero"/></clipPath><clipPath id="6d7f6d5054"><path d="M 1327.433594 35.71875 L 1336.386719 35.71875 L 1336.386719 49.496094 L 1327.433594 49.496094 Z M 1327.433594 35.71875 " clip-rule="nonzero"/></clipPath><clipPath id="f4b32f3c0d"><path d="M 1330.226562 36.550781 C 1336.359375 48.441406 1335.761719 49.261719 1335.238281 49.414062 C 1334.789062 49.5625 1333.816406 49.113281 1333.59375 48.664062 C 1333.367188 48.214844 1333.816406 46.871094 1334.265625 46.644531 C 1334.714844 46.421875 1336.132812 46.945312 1336.285156 47.394531 C 1336.507812 47.84375 1335.835938 49.113281 1335.386719 49.414062 C 1335.011719 49.5625 1334.488281 49.488281 1334.039062 49.1875 C 1333.070312 48.589844 1331.945312 46.496094 1330.898438 44.851562 C 1329.703125 42.832031 1327.535156 39.242188 1327.460938 37.671875 C 1327.460938 36.851562 1327.683594 35.953125 1328.132812 35.804688 C 1328.582031 35.578125 1330.226562 36.550781 1330.226562 36.550781 " clip-rule="nonzero"/></clipPath><clipPath id="4906ae223f"><path d="M 1320.171875 38.160156 L 1325.550781 38.160156 L 1325.550781 46.980469 L 1320.171875 46.980469 Z M 1320.171875 38.160156 " clip-rule="nonzero"/></clipPath><clipPath id="82ed56823b"><path d="M 1322.972656 38.945312 C 1325.441406 46.199219 1324.992188 46.871094 1324.46875 46.945312 C 1324.019531 47.09375 1322.75 46.421875 1322.601562 45.972656 C 1322.449219 45.523438 1322.898438 44.550781 1323.273438 44.253906 C 1323.574219 44.027344 1324.246094 44.027344 1324.621094 44.179688 C 1324.992188 44.402344 1325.441406 44.925781 1325.515625 45.300781 C 1325.515625 45.75 1325.066406 46.722656 1324.621094 46.871094 C 1324.246094 47.09375 1323.421875 46.945312 1322.898438 46.496094 C 1321.851562 45.597656 1320.28125 41.5625 1320.207031 40.066406 C 1320.207031 39.242188 1320.433594 38.421875 1320.878906 38.195312 C 1321.328125 37.972656 1322.972656 38.945312 1322.972656 38.945312 " clip-rule="nonzero"/></clipPath><clipPath id="8f2ecdef58"><path d="M 1311.707031 42.855469 L 1315.878906 42.855469 L 1315.878906 49.488281 L 1311.707031 49.488281 Z M 1311.707031 42.855469 " clip-rule="nonzero"/></clipPath><clipPath id="94202e8c6b"><path d="M 1314.597656 43.878906 C 1315.570312 49.039062 1314.75 49.488281 1314.300781 49.488281 C 1313.777344 49.414062 1313.027344 48.738281 1312.878906 48.292969 C 1312.804688 47.917969 1312.953125 47.246094 1313.253906 46.945312 C 1313.625 46.644531 1314.597656 46.496094 1315.046875 46.644531 C 1315.421875 46.796875 1315.796875 47.394531 1315.871094 47.84375 C 1315.871094 48.292969 1315.347656 49.1875 1314.898438 49.339844 C 1314.449219 49.5625 1313.625 49.339844 1313.179688 48.890625 C 1312.429688 48.214844 1311.609375 45.898438 1311.757812 44.851562 C 1311.832031 44.027344 1312.355469 42.980469 1312.878906 42.90625 C 1313.328125 42.757812 1314.597656 43.878906 1314.597656 43.878906 " clip-rule="nonzero"/></clipPath><clipPath id="2129777f90"><path d="M 1281.367188 80.339844 L 1288 80.339844 L 1288 90.511719 L 1281.367188 90.511719 Z M 1281.367188 80.339844 " clip-rule="nonzero"/></clipPath><clipPath id="f44552f73a"><path d="M 1284.164062 81.042969 C 1287.980469 89.71875 1287.457031 90.316406 1287.007812 90.464844 C 1286.558594 90.613281 1285.585938 90.316406 1285.285156 89.941406 C 1285.0625 89.492188 1285.363281 88.074219 1285.734375 87.773438 C 1286.183594 87.550781 1287.605469 87.921875 1287.828125 88.371094 C 1288.128906 88.746094 1287.980469 89.867188 1287.605469 90.167969 C 1287.15625 90.464844 1286.109375 90.539062 1285.4375 90.015625 C 1284.015625 89.121094 1281.25 83.511719 1281.398438 81.941406 C 1281.472656 81.117188 1282.144531 80.445312 1282.667969 80.371094 C 1283.117188 80.222656 1284.164062 81.042969 1284.164062 81.042969 " clip-rule="nonzero"/></clipPath><clipPath id="310307c0c2"><path d="M 1270.652344 81.6875 L 1278.351562 81.6875 L 1278.351562 94.085938 L 1270.652344 94.085938 Z M 1270.652344 81.6875 " clip-rule="nonzero"/></clipPath><clipPath id="08a989664b"><path d="M 1273.398438 82.390625 C 1278.332031 93.230469 1277.882812 93.90625 1277.433594 94.054688 C 1276.984375 94.203125 1275.714844 93.679688 1275.492188 93.230469 C 1275.265625 92.785156 1275.640625 91.8125 1276.015625 91.511719 C 1276.3125 91.214844 1276.984375 91.136719 1277.359375 91.289062 C 1277.808594 91.511719 1278.332031 92.335938 1278.332031 92.785156 C 1278.332031 93.230469 1278.03125 93.832031 1277.585938 93.980469 C 1277.136719 94.203125 1276.238281 93.980469 1275.566406 93.382812 C 1273.996094 92.035156 1270.929688 85.679688 1270.703125 83.734375 C 1270.628906 82.839844 1270.78125 82.015625 1271.226562 81.792969 C 1271.675781 81.492188 1273.398438 82.390625 1273.398438 82.390625 " clip-rule="nonzero"/></clipPath><clipPath id="8ee351e028"><path d="M 1263.269531 84 L 1267.449219 84 L 1267.449219 91.769531 L 1263.269531 91.769531 Z M 1263.269531 84 " clip-rule="nonzero"/></clipPath><clipPath id="404f3630fa"><path d="M 1266.21875 85.082031 C 1267.117188 91.4375 1266.292969 91.8125 1265.769531 91.738281 C 1265.320312 91.738281 1264.574219 90.988281 1264.5 90.464844 C 1264.421875 90.015625 1264.945312 89.121094 1265.394531 88.894531 C 1265.769531 88.746094 1266.441406 88.746094 1266.816406 89.042969 C 1267.191406 89.34375 1267.488281 90.242188 1267.414062 90.691406 C 1267.339844 91.136719 1266.816406 91.585938 1266.441406 91.738281 C 1265.992188 91.8125 1265.171875 91.585938 1264.722656 91.0625 C 1263.976562 90.242188 1263.226562 87.101562 1263.300781 85.828125 C 1263.453125 85.082031 1263.824219 84.183594 1264.273438 84.035156 C 1264.722656 83.886719 1266.21875 85.082031 1266.21875 85.082031 " clip-rule="nonzero"/></clipPath><clipPath id="897f652672"><path d="M 1176.242188 139.574219 L 1184.132812 139.574219 L 1184.132812 157.082031 L 1176.242188 157.082031 Z M 1176.242188 139.574219 " clip-rule="nonzero"/></clipPath><clipPath id="2674d76872"><path d="M 1179.105469 140.492188 C 1183.214844 150.585938 1184.339844 153.800781 1184.039062 155.296875 C 1183.890625 156.121094 1183.292969 156.941406 1182.769531 157.015625 C 1182.320312 157.167969 1181.347656 156.566406 1181.199219 156.121094 C 1181.046875 155.671875 1181.644531 154.324219 1182.09375 154.175781 C 1182.542969 154.027344 1183.816406 154.699219 1184.039062 155.148438 C 1184.1875 155.597656 1183.738281 156.644531 1183.367188 156.867188 C 1182.917969 157.089844 1181.796875 156.867188 1181.273438 156.269531 C 1180.300781 155.222656 1180.523438 151.78125 1179.777344 149.390625 C 1178.878906 146.773438 1176.113281 142.957031 1176.261719 141.238281 C 1176.335938 140.492188 1176.859375 139.742188 1177.382812 139.59375 C 1177.832031 139.519531 1179.105469 140.492188 1179.105469 140.492188 " clip-rule="nonzero"/></clipPath><clipPath id="fbf555ffba"><path d="M 1169.066406 144.539062 L 1175.457031 144.539062 L 1175.457031 154.6875 L 1169.066406 154.6875 Z M 1169.066406 144.539062 " clip-rule="nonzero"/></clipPath><clipPath id="79fd85fd42"><path d="M 1171.851562 145.351562 C 1175.589844 153.578125 1175.214844 154.25 1174.765625 154.472656 C 1174.46875 154.699219 1173.71875 154.699219 1173.421875 154.472656 C 1172.972656 154.175781 1172.597656 153.277344 1172.671875 152.828125 C 1172.746094 152.378906 1173.195312 151.855469 1173.570312 151.78125 C 1174.019531 151.632812 1175.066406 151.855469 1175.289062 152.230469 C 1175.589844 152.679688 1175.363281 154.101562 1174.914062 154.398438 C 1174.542969 154.699219 1173.71875 154.699219 1173.121094 154.25 C 1171.773438 153.425781 1169.234375 148.191406 1169.082031 146.472656 C 1169.007812 145.652344 1169.308594 144.753906 1169.757812 144.605469 C 1170.203125 144.378906 1171.851562 145.351562 1171.851562 145.351562 " clip-rule="nonzero"/></clipPath><clipPath id="45cab40815"><path d="M 1161.8125 145.738281 L 1167.140625 145.738281 L 1167.140625 153.464844 L 1161.8125 153.464844 Z M 1161.8125 145.738281 " clip-rule="nonzero"/></clipPath><clipPath id="63e5e7fecd"><path d="M 1164.445312 146.25 C 1167.0625 152.53125 1166.539062 153.203125 1166.09375 153.351562 C 1165.644531 153.503906 1164.597656 153.203125 1164.371094 152.753906 C 1164.148438 152.304688 1164.523438 150.960938 1164.894531 150.660156 C 1165.195312 150.363281 1165.941406 150.4375 1166.316406 150.585938 C 1166.691406 150.808594 1167.140625 151.332031 1167.140625 151.707031 C 1167.140625 152.230469 1166.691406 153.054688 1166.242188 153.277344 C 1165.867188 153.503906 1165.34375 153.503906 1164.820312 153.203125 C 1163.847656 152.53125 1161.90625 149.015625 1161.828125 147.59375 C 1161.753906 146.847656 1162.128906 146.023438 1162.578125 145.800781 C 1163.027344 145.574219 1164.445312 146.25 1164.445312 146.25 " clip-rule="nonzero"/></clipPath><clipPath id="77c8f49078"><path d="M 1153.363281 149.328125 L 1158.691406 149.328125 L 1158.691406 157.144531 L 1153.363281 157.144531 Z M 1153.363281 149.328125 " clip-rule="nonzero"/></clipPath><clipPath id="02469dad2a"><path d="M 1155.996094 149.914062 C 1158.613281 156.195312 1158.089844 156.867188 1157.640625 157.015625 C 1157.195312 157.167969 1156.148438 156.792969 1155.921875 156.34375 C 1155.699219 155.894531 1156.070312 154.625 1156.445312 154.25 C 1156.746094 154.027344 1157.492188 154.027344 1157.867188 154.25 C 1158.242188 154.398438 1158.613281 154.921875 1158.6875 155.371094 C 1158.6875 155.820312 1158.164062 156.71875 1157.792969 156.941406 C 1157.417969 157.167969 1156.820312 157.167969 1156.371094 156.867188 C 1155.398438 156.195312 1153.453125 152.605469 1153.378906 151.257812 C 1153.304688 150.4375 1153.679688 149.613281 1154.128906 149.390625 C 1154.5 149.164062 1155.996094 149.914062 1155.996094 149.914062 " clip-rule="nonzero"/></clipPath><clipPath id="23eb144022"><path d="M 90.605469 29.625 L 97.179688 29.625 L 97.179688 42.1875 L 90.605469 42.1875 Z M 90.605469 29.625 " clip-rule="nonzero"/></clipPath><clipPath id="e0cbb0e995"><path d="M 93.496094 30.570312 C 97.082031 41.488281 96.558594 42.085938 96.113281 42.160156 C 95.589844 42.234375 94.390625 41.488281 94.242188 41.039062 C 94.09375 40.589844 94.316406 39.917969 94.617188 39.691406 C 94.988281 39.316406 96.035156 39.242188 96.410156 39.394531 C 96.785156 39.617188 97.160156 40.140625 97.160156 40.589844 C 97.234375 41.039062 96.710938 41.933594 96.261719 42.085938 C 95.8125 42.308594 95.066406 42.085938 94.464844 41.5625 C 93.121094 40.289062 90.652344 33.484375 90.652344 31.542969 C 90.652344 30.644531 91.027344 29.894531 91.476562 29.671875 C 91.925781 29.523438 93.496094 30.570312 93.496094 30.570312 " clip-rule="nonzero"/></clipPath><clipPath id="6560573cd7"><path d="M 102.734375 36.890625 L 106.832031 36.890625 L 106.832031 43.4375 L 102.734375 43.4375 Z M 102.734375 36.890625 " clip-rule="nonzero"/></clipPath><clipPath id="2e75c77fd0"><path d="M 105.609375 37.824219 C 106.582031 42.980469 105.757812 43.429688 105.308594 43.429688 C 104.785156 43.355469 104.039062 42.683594 103.886719 42.234375 C 103.8125 41.859375 103.964844 41.1875 104.261719 40.886719 C 104.636719 40.589844 105.683594 40.363281 106.058594 40.589844 C 106.503906 40.8125 106.878906 41.785156 106.804688 42.234375 C 106.804688 42.683594 106.355469 43.207031 105.90625 43.28125 C 105.457031 43.429688 104.636719 43.28125 104.1875 42.832031 C 103.441406 42.160156 102.691406 39.839844 102.765625 38.792969 C 102.765625 38.046875 103.066406 37.148438 103.515625 36.925781 C 104.039062 36.777344 105.609375 37.824219 105.609375 37.824219 " clip-rule="nonzero"/></clipPath><clipPath id="e073963052"><path d="M 110.09375 37.03125 L 115.359375 37.03125 L 115.359375 43.429688 L 110.09375 43.429688 Z M 110.09375 37.03125 " clip-rule="nonzero"/></clipPath><clipPath id="771fcfec23"><path d="M 112.636719 37.449219 C 115.253906 42.609375 114.65625 43.28125 114.132812 43.355469 C 113.683594 43.503906 112.710938 43.058594 112.488281 42.609375 C 112.261719 42.160156 112.488281 41.1875 112.785156 40.8125 C 113.085938 40.515625 113.757812 40.363281 114.207031 40.441406 C 114.65625 40.589844 115.253906 41.410156 115.328125 41.859375 C 115.402344 42.234375 115.105469 42.90625 114.730469 43.132812 C 114.355469 43.355469 113.535156 43.429688 112.9375 43.132812 C 111.964844 42.609375 110.46875 40.289062 110.167969 39.09375 C 110.019531 38.421875 110.09375 37.449219 110.46875 37.148438 C 110.84375 36.851562 112.636719 37.449219 112.636719 37.449219 " clip-rule="nonzero"/></clipPath><clipPath id="2141a7bf3d"><path d="M 131.746094 80.355469 L 139.539062 80.355469 L 139.539062 91.804688 L 131.746094 91.804688 Z M 131.746094 80.355469 " clip-rule="nonzero"/></clipPath><clipPath id="b04f0c9a6f"><path d="M 134.472656 81.042969 C 139.480469 90.765625 139.109375 91.363281 138.660156 91.660156 C 138.285156 91.8125 137.613281 91.8125 137.238281 91.585938 C 136.863281 91.289062 136.492188 90.390625 136.566406 89.941406 C 136.640625 89.492188 137.089844 88.96875 137.539062 88.894531 C 137.988281 88.746094 138.957031 89.042969 139.257812 89.417969 C 139.480469 89.71875 139.558594 90.464844 139.40625 90.839844 C 139.257812 91.214844 138.808594 91.660156 138.359375 91.738281 C 137.910156 91.8125 137.3125 91.511719 136.714844 90.988281 C 135.292969 89.71875 131.855469 84.109375 131.78125 82.238281 C 131.707031 81.417969 132.152344 80.667969 132.601562 80.445312 C 133.050781 80.222656 134.472656 81.042969 134.472656 81.042969 " clip-rule="nonzero"/></clipPath><clipPath id="b0449ab98c"><path d="M 143.902344 85.316406 L 150.441406 85.316406 L 150.441406 95.414062 L 143.902344 95.414062 Z M 143.902344 85.316406 " clip-rule="nonzero"/></clipPath><clipPath id="2bd94223ae"><path d="M 146.585938 85.980469 C 150.25 94.652344 149.351562 95.402344 148.828125 95.402344 C 148.378906 95.402344 147.632812 94.726562 147.484375 94.277344 C 147.332031 93.90625 147.484375 93.230469 147.78125 92.933594 C 148.15625 92.558594 149.128906 92.335938 149.578125 92.558594 C 150.027344 92.785156 150.398438 93.753906 150.398438 94.203125 C 150.324219 94.578125 149.875 95.175781 149.503906 95.25 C 149.054688 95.402344 148.304688 95.324219 147.707031 94.878906 C 146.4375 93.832031 144.117188 89.042969 143.96875 87.324219 C 143.820312 86.503906 144.042969 85.679688 144.417969 85.378906 C 144.867188 85.15625 146.585938 85.980469 146.585938 85.980469 " clip-rule="nonzero"/></clipPath><clipPath id="57c5461255"><path d="M 154.816406 90.097656 L 161.09375 90.097656 L 161.09375 97.761719 L 154.816406 97.761719 Z M 154.816406 90.097656 " clip-rule="nonzero"/></clipPath><clipPath id="925c4b8c70"><path d="M 157.429688 90.691406 C 161.316406 96.523438 161.019531 97.269531 160.644531 97.570312 C 160.269531 97.792969 159.222656 97.792969 158.847656 97.496094 C 158.476562 97.269531 158.25 96.597656 158.324219 96.222656 C 158.324219 95.773438 158.625 95.175781 159.074219 95.027344 C 159.449219 94.800781 160.496094 94.878906 160.867188 95.25 C 161.167969 95.625 161.167969 97.046875 160.792969 97.417969 C 160.496094 97.792969 159.597656 97.867188 159 97.570312 C 157.726562 97.046875 155.183594 93.753906 154.886719 92.335938 C 154.738281 91.511719 155.035156 90.390625 155.484375 90.167969 C 155.933594 89.941406 157.429688 90.691406 157.429688 90.691406 " clip-rule="nonzero"/></clipPath><clipPath id="6d232c25a5"><path d="M 280.152344 155.285156 L 284.601562 155.285156 L 284.601562 167.957031 L 280.152344 167.957031 Z M 280.152344 155.285156 " clip-rule="nonzero"/></clipPath><clipPath id="0fe94a8648"><path d="M 283.351562 156.492188 C 284.25 167.484375 283.578125 167.933594 283.128906 167.933594 C 282.605469 167.933594 281.78125 167.335938 281.632812 166.886719 C 281.558594 166.363281 282.304688 165.09375 282.753906 165.019531 C 283.277344 164.867188 284.472656 165.691406 284.550781 166.214844 C 284.699219 166.664062 284.175781 167.636719 283.726562 167.785156 C 283.277344 168.007812 282.230469 167.710938 281.707031 167.035156 C 280.585938 165.542969 279.761719 158.511719 280.363281 156.71875 C 280.660156 155.894531 281.257812 155.296875 281.78125 155.296875 C 282.230469 155.222656 283.351562 156.492188 283.351562 156.492188 " clip-rule="nonzero"/></clipPath><clipPath id="4939846fe4"><path d="M 290.03125 163.769531 L 294.28125 163.769531 L 294.28125 172.789062 L 290.03125 172.789062 Z M 290.03125 163.769531 " clip-rule="nonzero"/></clipPath><clipPath id="254a26155e"><path d="M 293 164.941406 C 293.972656 172.195312 293 172.792969 292.476562 172.71875 C 292.027344 172.71875 291.355469 171.898438 291.277344 171.449219 C 291.203125 171 291.503906 170.328125 291.800781 170.101562 C 292.25 169.878906 293.222656 169.804688 293.597656 170.027344 C 293.972656 170.253906 294.269531 170.925781 294.269531 171.300781 C 294.195312 171.824219 293.597656 172.644531 293.148438 172.71875 C 292.699219 172.871094 291.953125 172.570312 291.503906 172.046875 C 290.605469 171 289.859375 166.960938 290.082031 165.542969 C 290.230469 164.71875 290.605469 163.972656 291.054688 163.820312 C 291.578125 163.671875 293 164.941406 293 164.941406 " clip-rule="nonzero"/></clipPath><clipPath id="f6945250fe"><path d="M 298.453125 162.519531 L 305.117188 162.519531 L 305.117188 172.839844 L 298.453125 172.839844 Z M 298.453125 162.519531 " clip-rule="nonzero"/></clipPath><clipPath id="3d500f407d"><path d="M 301.375 163.449219 C 303.917969 170.027344 305.113281 170.476562 305.113281 171.074219 C 305.1875 171.671875 304.289062 172.71875 303.765625 172.792969 C 303.316406 172.871094 302.421875 172.269531 302.269531 171.824219 C 302.046875 171.449219 302.195312 170.777344 302.421875 170.402344 C 302.644531 170.101562 303.242188 169.730469 303.691406 169.804688 C 304.140625 169.878906 305.1875 170.925781 305.113281 171.375 C 305.113281 171.898438 304.066406 172.792969 303.46875 172.792969 C 302.644531 172.71875 301.375 171.375 300.625 170.175781 C 299.578125 168.605469 298.234375 165.167969 298.53125 163.894531 C 298.683594 163.148438 299.503906 162.550781 300.027344 162.550781 C 300.476562 162.476562 301.375 163.449219 301.375 163.449219 " clip-rule="nonzero"/></clipPath><clipPath id="536b1caef6"><path d="M 308.148438 157.660156 L 314.8125 157.660156 L 314.8125 170.347656 L 308.148438 170.347656 Z M 308.148438 157.660156 " clip-rule="nonzero"/></clipPath><clipPath id="c622a04e24"><path d="M 310.945312 158.4375 C 313.863281 163.746094 314.832031 167.1875 314.757812 168.605469 C 314.757812 169.207031 314.683594 169.652344 314.386719 169.953125 C 314.011719 170.253906 313.039062 170.402344 312.589844 170.175781 C 312.214844 170.027344 311.84375 169.429688 311.84375 168.980469 C 311.84375 168.53125 312.367188 167.636719 312.816406 167.484375 C 313.1875 167.261719 313.863281 167.410156 314.160156 167.636719 C 314.535156 167.933594 314.832031 168.90625 314.757812 169.355469 C 314.609375 169.804688 314.085938 170.253906 313.710938 170.328125 C 313.1875 170.402344 312.515625 170.175781 311.992188 169.578125 C 311.167969 168.605469 311.167969 165.242188 310.496094 163.449219 C 309.898438 161.878906 308.105469 160.308594 308.179688 159.261719 C 308.253906 158.585938 308.925781 157.839844 309.449219 157.691406 C 309.898438 157.613281 310.945312 158.4375 310.945312 158.4375 " clip-rule="nonzero"/></clipPath><clipPath id="a1be0935cc"><path d="M 603.101562 233.671875 L 673.058594 233.671875 L 673.058594 246.960938 L 603.101562 246.960938 Z M 603.101562 233.671875 " clip-rule="nonzero"/></clipPath><clipPath id="309c8df6df"><path d="M 637.347656 238.074219 C 630.019531 237.699219 629.496094 236.878906 629.496094 236.355469 C 629.570312 235.90625 630.242188 235.308594 630.988281 235.082031 C 632.859375 234.484375 639.589844 235.382812 641.457031 236.429688 C 642.355469 236.878906 642.878906 237.699219 642.953125 238.375 C 643.105469 238.972656 642.878906 239.871094 642.28125 240.394531 C 641.308594 241.214844 637.71875 241.886719 636.597656 241.515625 C 636 241.289062 635.476562 240.765625 635.476562 240.242188 C 635.402344 239.792969 635.851562 238.972656 636.523438 238.597656 C 637.945312 237.851562 642.804688 237.925781 644.675781 238.671875 C 645.871094 239.195312 647.367188 240.46875 647.292969 241.140625 C 647.214844 241.8125 645.722656 242.488281 644.597656 242.785156 C 642.953125 243.234375 639.363281 243.457031 638.167969 242.859375 C 637.496094 242.488281 637.046875 241.738281 637.046875 241.214844 C 637.046875 240.765625 637.496094 240.242188 638.167969 239.945312 C 639.664062 239.347656 646.019531 239.570312 646.917969 240.542969 C 647.292969 240.992188 647.140625 241.886719 646.917969 242.261719 C 646.691406 242.636719 646.320312 242.785156 645.644531 242.933594 C 644 243.234375 637.644531 242.5625 635.925781 241.738281 C 635.101562 241.363281 634.503906 240.839844 634.503906 240.316406 C 634.503906 239.792969 634.953125 239.121094 635.777344 238.746094 C 637.644531 237.851562 645.796875 238 647.816406 238.972656 C 648.710938 239.347656 649.234375 240.09375 649.308594 240.691406 C 649.386719 241.214844 649.160156 241.8125 648.5625 242.1875 C 646.917969 243.234375 639.886719 243.011719 636.597656 242.859375 C 634.207031 242.710938 631.664062 242.5625 630.542969 241.886719 C 629.867188 241.441406 629.34375 240.765625 629.34375 240.242188 C 629.34375 239.792969 629.71875 239.347656 630.464844 238.972656 C 632.636719 237.851562 643.402344 237.101562 646.691406 237.625 C 648.1875 237.777344 649.234375 238.148438 649.910156 238.824219 C 650.355469 239.269531 650.730469 240.019531 650.730469 240.542969 C 650.730469 241.066406 650.507812 241.664062 649.910156 242.039062 C 647.441406 243.535156 629.941406 244.207031 627.175781 242.859375 C 626.429688 242.488281 626.054688 241.738281 626.054688 241.214844 C 626.128906 240.765625 626.503906 240.316406 627.175781 239.945312 C 629.71875 238.746094 643.703125 237.925781 647.441406 238.746094 C 649.085938 239.121094 650.28125 239.792969 650.65625 240.46875 C 650.957031 240.917969 650.878906 241.515625 650.65625 241.886719 C 650.507812 242.261719 650.207031 242.488281 649.535156 242.710938 C 647.066406 243.457031 632.859375 243.535156 630.316406 242.933594 C 629.570312 242.710938 629.269531 242.5625 629.046875 242.261719 C 628.820312 241.886719 628.746094 241.289062 628.894531 240.839844 C 629.046875 240.46875 629.792969 239.871094 630.316406 239.945312 C 630.765625 239.945312 630.914062 240.691406 631.738281 240.992188 C 634.503906 241.964844 648.863281 240.019531 651.628906 241.140625 C 652.527344 241.441406 653.050781 241.964844 653.125 242.410156 C 653.199219 242.933594 652.75 243.683594 652.003906 244.058594 C 649.535156 245.328125 636.148438 244.65625 632.636719 244.132812 C 631.289062 243.90625 630.542969 243.757812 629.867188 243.234375 C 629.34375 242.859375 628.746094 242.1875 628.746094 241.738281 C 628.746094 241.214844 629.046875 240.617188 629.644531 240.242188 C 631.140625 239.421875 635.625 239.71875 639.589844 239.945312 C 645.496094 240.316406 658.730469 241.886719 661.574219 243.457031 C 662.394531 243.90625 662.917969 244.429688 662.917969 244.953125 C 662.917969 245.476562 662.472656 246.152344 661.648438 246.449219 C 658.808594 247.421875 645.121094 242.335938 639.289062 241.441406 C 635.625 240.839844 631.664062 241.214844 630.167969 240.46875 C 629.644531 240.242188 629.269531 239.871094 629.195312 239.496094 C 629.121094 238.972656 629.496094 238.074219 630.019531 237.699219 C 630.765625 237.175781 631.960938 237.476562 633.757812 237.550781 C 638.394531 237.625 651.925781 238.671875 658.730469 239.570312 C 663.441406 240.242188 669.050781 240.542969 670.769531 241.8125 C 671.445312 242.261719 671.742188 243.011719 671.667969 243.535156 C 671.59375 243.980469 671.070312 244.355469 670.472656 244.65625 C 669.277344 245.179688 667.257812 245.253906 664.488281 245.179688 C 658.433594 245.179688 637.195312 244.355469 635.402344 242.261719 C 634.953125 241.738281 635.175781 240.917969 635.402344 240.542969 C 635.625 240.167969 636.222656 239.871094 636.671875 239.945312 C 637.121094 240.019531 637.195312 240.765625 637.945312 241.066406 C 639.964844 242.039062 646.320312 242.335938 651.253906 242.710938 C 657.3125 243.234375 669.050781 242.335938 671.519531 243.609375 C 672.265625 243.90625 672.640625 244.429688 672.640625 244.878906 C 672.640625 245.328125 672.191406 246.074219 671.519531 246.449219 C 670.023438 247.273438 666.136719 246.898438 662.917969 246.523438 C 658.65625 246.074219 653.273438 244.058594 648.261719 243.085938 C 643.253906 242.113281 634.953125 241.886719 632.859375 240.765625 C 632.113281 240.394531 631.738281 240.019531 631.664062 239.570312 C 631.589844 239.046875 632.035156 238.222656 632.710938 237.851562 C 634.054688 237.253906 637.046875 237.851562 639.964844 238.222656 C 644.824219 238.898438 653.199219 241.738281 658.957031 242.636719 C 663.667969 243.308594 670.097656 242.710938 671.96875 243.535156 C 672.566406 243.757812 672.789062 244.132812 672.941406 244.503906 C 673.089844 244.878906 673.015625 245.550781 672.714844 245.851562 C 672.191406 246.375 671.070312 246.449219 669.277344 246.523438 C 662.546875 246.675781 625.753906 242.1875 621.492188 240.617188 C 620.746094 240.394531 620.519531 240.242188 620.296875 239.871094 C 620.074219 239.496094 620.074219 238.898438 620.222656 238.523438 C 620.445312 238.148438 620.746094 237.851562 621.34375 237.699219 C 623.289062 237.027344 628.972656 237.175781 634.128906 237.476562 C 642.132812 238.074219 660.824219 240.917969 664.566406 242.1875 C 665.460938 242.488281 665.910156 242.5625 666.136719 243.011719 C 666.359375 243.457031 666.359375 244.28125 665.984375 244.730469 C 665.386719 245.328125 663.519531 245.253906 661.574219 245.253906 C 657.835938 245.328125 652.078125 244.503906 645.496094 243.609375 C 634.953125 242.1875 608.558594 239.347656 604.445312 236.878906 C 603.546875 236.28125 603.097656 235.53125 603.246094 235.082031 C 603.324219 234.558594 604.59375 233.8125 605.042969 233.886719 C 605.566406 234.035156 606.238281 235.308594 606.089844 235.832031 C 605.941406 236.28125 604.667969 236.878906 604.144531 236.730469 C 603.695312 236.652344 603.097656 235.683594 603.171875 235.234375 C 603.246094 234.710938 603.847656 234.1875 604.894531 233.886719 C 609.453125 232.691406 634.652344 239.269531 645.796875 240.617188 C 653.496094 241.589844 662.996094 240.839844 665.3125 242.335938 C 666.058594 242.785156 666.433594 243.609375 666.285156 244.058594 C 666.210938 244.582031 665.613281 245.027344 664.714844 245.253906 C 660.976562 246.152344 642.132812 241.066406 634.128906 240.46875 C 628.972656 240.09375 623.511719 241.515625 621.492188 240.617188 C 620.671875 240.316406 620.074219 239.644531 620.074219 239.195312 C 620.074219 238.671875 620.671875 238 621.71875 237.625 C 626.726562 235.980469 667.707031 240.839844 671.96875 243.535156 C 672.789062 244.058594 673.089844 244.730469 673.015625 245.179688 C 672.941406 245.703125 672.492188 246.152344 671.816406 246.449219 C 669.800781 247.199219 663.144531 246.226562 658.285156 245.550781 C 652.601562 244.65625 644.449219 241.886719 639.738281 241.214844 C 636.898438 240.839844 634.128906 241.515625 632.859375 240.765625 C 632.113281 240.394531 631.589844 239.644531 631.664062 239.195312 C 631.664062 238.671875 632.261719 238.074219 633.082031 237.851562 C 635.476562 237.101562 643.925781 239.195312 649.085938 240.242188 C 653.871094 241.140625 658.808594 243.011719 662.917969 243.535156 C 666.210938 243.980469 670.621094 242.785156 671.894531 243.683594 C 672.492188 244.132812 672.714844 245.105469 672.566406 245.550781 C 672.417969 246 671.894531 246.300781 671.144531 246.523438 C 668.378906 247.273438 657.011719 246.375 650.804688 245.703125 C 645.570312 245.105469 638.316406 244.058594 636.222656 242.859375 C 635.550781 242.488281 635.175781 242.039062 635.101562 241.589844 C 635.101562 241.066406 635.550781 240.316406 636.300781 239.945312 C 638.019531 239.121094 643.027344 239.945312 646.992188 240.242188 C 652.152344 240.542969 660.152344 242.1875 664.414062 242.1875 C 666.957031 242.261719 669.199219 241.214844 670.398438 241.738281 C 671.070312 241.964844 671.742188 242.710938 671.742188 243.160156 C 671.742188 243.683594 670.996094 244.429688 670.097656 244.65625 C 668.003906 245.253906 663.21875 243.160156 658.507812 242.5625 C 651.253906 241.664062 633.90625 242.113281 630.542969 240.542969 C 629.644531 240.167969 629.195312 239.644531 629.121094 239.121094 C 629.121094 238.671875 629.417969 238 630.019531 237.699219 C 631.511719 236.953125 636 237.851562 639.886719 238.449219 C 645.796875 239.421875 659.40625 241.664062 661.949219 243.535156 C 662.695312 244.132812 662.996094 244.804688 662.84375 245.328125 C 662.769531 245.777344 662.171875 246.226562 661.273438 246.449219 C 658.808594 246.972656 651.03125 244.207031 645.796875 243.609375 C 640.410156 243.011719 631.289062 244.207031 629.496094 242.859375 C 628.820312 242.488281 628.671875 241.8125 628.746094 241.363281 C 628.894531 240.917969 629.417969 240.242188 630.019531 240.167969 C 630.691406 240.019531 631.363281 240.917969 632.636719 241.140625 C 636.074219 241.738281 648.9375 240.09375 651.628906 241.140625 C 652.527344 241.441406 653.050781 241.964844 653.125 242.410156 C 653.199219 242.933594 652.75 243.683594 652.003906 244.058594 C 649.609375 245.253906 637.792969 244.730469 633.757812 243.90625 C 631.589844 243.457031 629.34375 242.710938 628.894531 241.964844 C 628.671875 241.515625 628.820312 240.917969 629.046875 240.542969 C 629.269531 240.242188 629.570312 240.09375 630.316406 239.945312 C 632.859375 239.269531 647.515625 238.597656 649.910156 239.792969 C 650.582031 240.167969 650.878906 240.691406 650.878906 241.214844 C 650.804688 241.664062 650.058594 242.5625 649.535156 242.710938 C 648.9375 242.785156 648.5625 241.964844 647.441406 241.738281 C 644.152344 241.140625 629.71875 244.058594 627.175781 242.859375 C 626.429688 242.488281 625.980469 241.738281 626.054688 241.214844 C 626.128906 240.765625 626.652344 240.242188 627.550781 239.945312 C 630.542969 238.746094 646.992188 238.074219 649.609375 239.269531 C 650.355469 239.570312 650.65625 240.09375 650.730469 240.542969 C 650.730469 240.992188 650.355469 241.886719 649.910156 242.039062 C 649.234375 242.261719 648.261719 240.839844 646.769531 240.542969 C 643.476562 240.019531 632.710938 242.859375 630.542969 241.886719 C 629.71875 241.515625 629.269531 240.765625 629.34375 240.242188 C 629.417969 239.792969 630.09375 239.121094 630.839844 238.898438 C 632.035156 238.523438 634.28125 239.71875 636.523438 239.871094 C 639.738281 240.09375 646.394531 238.671875 648.1875 239.421875 C 648.863281 239.71875 649.234375 240.242188 649.308594 240.691406 C 649.386719 241.140625 648.9375 242.113281 648.5625 242.1875 C 648.113281 242.335938 647.664062 241.589844 646.84375 241.441406 C 644.75 240.992188 637.269531 242.488281 635.550781 241.664062 C 634.878906 241.363281 634.503906 240.765625 634.503906 240.316406 C 634.503906 239.792969 635.027344 239.046875 635.777344 238.746094 C 636.972656 238.222656 640.335938 238.898438 642.355469 239.269531 C 644 239.570312 646.320312 239.871094 646.917969 240.542969 C 647.214844 240.917969 647.214844 241.515625 647.066406 241.964844 C 646.917969 242.335938 646.617188 242.636719 646.019531 242.859375 C 644.675781 243.382812 639.589844 243.457031 638.167969 242.859375 C 637.570312 242.5625 637.121094 242.039062 637.046875 241.589844 C 636.972656 241.140625 637.269531 240.394531 637.871094 240.09375 C 638.992188 239.347656 644.75 239.347656 645.199219 240.09375 C 645.421875 240.46875 645.046875 241.289062 644.523438 241.664062 C 643.328125 242.410156 638.019531 242.113281 636.597656 241.515625 C 636 241.214844 635.550781 240.691406 635.476562 240.242188 C 635.402344 239.871094 635.550781 239.195312 635.925781 238.972656 C 636.523438 238.597656 639.515625 239.195312 639.515625 239.195312 C 639.515625 239.121094 632.1875 238.824219 630.691406 238 C 630.019531 237.699219 629.570312 237.175781 629.496094 236.730469 C 629.496094 236.28125 630.019531 235.457031 630.691406 235.082031 C 631.960938 234.484375 636.375 234.484375 637.71875 235.082031 C 638.394531 235.457031 638.839844 236.28125 638.839844 236.730469 C 638.765625 237.253906 637.347656 238.074219 637.347656 238.074219 " clip-rule="nonzero"/></clipPath><clipPath id="0bcd27b2a5"><path d="M 747.328125 231.183594 L 781.507812 231.183594 L 781.507812 246.613281 L 747.328125 246.613281 Z M 747.328125 231.183594 " clip-rule="nonzero"/></clipPath><clipPath id="a751574927"><path d="M 773.964844 235.683594 C 766.785156 235.980469 759.753906 239.195312 757.8125 238.597656 C 757.0625 238.375 756.539062 237.625 756.539062 237.175781 C 756.464844 236.652344 756.914062 236.054688 757.4375 235.757812 C 758.335938 235.234375 760.128906 235.90625 761.925781 235.53125 C 764.988281 234.859375 771.195312 231.417969 773.515625 231.269531 C 774.5625 231.195312 775.382812 231.417969 775.757812 231.792969 C 776.058594 232.167969 776.28125 232.988281 775.980469 233.511719 C 775.308594 234.636719 771.945312 235.605469 769.175781 236.652344 C 765.140625 238.222656 756.242188 241.738281 753.996094 241.289062 C 753.324219 241.140625 752.800781 240.617188 752.726562 240.167969 C 752.652344 239.71875 753.027344 238.824219 753.625 238.449219 C 754.671875 237.699219 756.988281 238.375 759.308594 238 C 763.195312 237.402344 772.09375 233.8125 774.488281 234.035156 C 775.308594 234.113281 775.757812 234.335938 776.058594 234.785156 C 776.28125 235.160156 776.28125 235.90625 775.90625 236.429688 C 774.859375 237.777344 769.699219 238.671875 766.1875 239.570312 C 762.074219 240.691406 754.894531 243.234375 752.949219 242.488281 C 752.128906 242.261719 751.679688 241.441406 751.679688 240.917969 C 751.679688 240.46875 752.054688 239.945312 752.726562 239.570312 C 754.597656 238.597656 761.25 238.898438 765.589844 238.222656 C 770.222656 237.476562 777.550781 235.160156 779.722656 235.308594 C 780.394531 235.382812 780.769531 235.457031 781.066406 235.832031 C 781.367188 236.128906 781.664062 236.953125 781.292969 237.476562 C 779.722656 239.792969 759.007812 243.609375 753.921875 244.355469 C 751.902344 244.65625 749.886719 244.878906 749.734375 244.582031 C 749.734375 244.355469 750.78125 243.535156 751.230469 243.535156 C 751.679688 243.609375 752.425781 244.429688 752.425781 244.878906 C 752.503906 245.402344 751.53125 246.449219 751.082031 246.523438 C 750.632812 246.597656 750.035156 246.300781 749.808594 245.925781 C 749.511719 245.628906 749.4375 244.953125 749.585938 244.582031 C 749.660156 244.132812 750.183594 243.683594 750.558594 243.609375 C 750.933594 243.457031 751.605469 243.609375 751.902344 243.90625 C 752.277344 244.207031 752.503906 245.253906 752.351562 245.628906 C 752.128906 246.074219 751.378906 246.449219 750.707031 246.523438 C 750.035156 246.597656 748.761719 246.449219 748.164062 245.925781 C 747.640625 245.476562 747.117188 244.355469 747.417969 243.683594 C 747.867188 242.636719 750.484375 242.261719 753.175781 241.441406 C 758.785156 239.71875 776.355469 234.933594 779.722656 235.308594 C 780.542969 235.457031 780.992188 235.683594 781.214844 236.128906 C 781.441406 236.503906 781.515625 237.253906 781.066406 237.777344 C 779.722656 239.347656 770.972656 240.394531 766.113281 241.140625 C 761.550781 241.886719 754.894531 243.234375 752.949219 242.488281 C 752.203125 242.261719 751.753906 241.738281 751.753906 241.289062 C 751.679688 240.839844 751.980469 240.167969 752.726562 239.570312 C 755.269531 237.699219 771.496094 233.738281 774.488281 234.035156 C 775.308594 234.113281 775.757812 234.335938 776.058594 234.785156 C 776.28125 235.160156 776.355469 235.90625 775.90625 236.429688 C 774.335938 238.375 760.429688 241.589844 756.539062 241.589844 C 754.96875 241.664062 753.625 241.363281 753.101562 240.839844 C 752.726562 240.46875 752.652344 239.871094 752.726562 239.496094 C 752.800781 239.046875 753.027344 238.824219 753.625 238.449219 C 755.941406 236.804688 771.644531 231.34375 774.410156 231.34375 C 775.160156 231.34375 775.457031 231.496094 775.757812 231.792969 C 776.058594 232.167969 776.28125 232.914062 775.980469 233.511719 C 775.011719 235.160156 766.113281 237.925781 762.523438 238.449219 C 760.277344 238.746094 757.660156 238.824219 756.914062 238.148438 C 756.464844 237.777344 756.464844 236.953125 756.691406 236.429688 C 756.988281 235.832031 757.886719 235.308594 759.082031 234.785156 C 761.324219 233.886719 767.007812 232.914062 769.777344 232.691406 C 771.496094 232.464844 772.992188 232.242188 773.964844 232.691406 C 774.636719 232.988281 775.457031 233.8125 775.457031 234.335938 C 775.382812 234.785156 773.964844 235.683594 773.964844 235.683594 " clip-rule="nonzero"/></clipPath><clipPath id="6171d4b1d5"><path d="M 743.453125 233.621094 L 787.570312 233.621094 L 787.570312 244.332031 L 743.453125 244.332031 Z M 743.453125 233.621094 " clip-rule="nonzero"/></clipPath><clipPath id="d2564d55ea"><path d="M 786.003906 236.878906 C 776.28125 237.476562 764.691406 241.664062 758.035156 242.859375 C 753.101562 243.683594 747.191406 244.65625 745.023438 244.132812 C 744.277344 243.90625 743.679688 243.609375 743.527344 243.160156 C 743.378906 242.636719 743.976562 241.363281 744.5 241.214844 C 744.949219 241.066406 746.222656 241.738281 746.371094 242.261719 C 746.519531 242.710938 745.699219 243.90625 745.25 244.058594 C 744.726562 244.207031 743.753906 243.683594 743.605469 243.308594 C 743.378906 242.785156 743.679688 241.8125 744.351562 241.214844 C 745.996094 239.945312 752.425781 240.765625 757.363281 239.945312 C 764.167969 238.746094 775.980469 234.410156 781.140625 233.886719 C 783.609375 233.589844 785.777344 233.4375 786.75 234.035156 C 787.273438 234.335938 787.574219 235.082031 787.496094 235.53125 C 787.421875 236.054688 786.003906 236.878906 786.003906 236.878906 " clip-rule="nonzero"/></clipPath><clipPath id="eb2c5a2d0c"><path d="M 736.113281 236.160156 L 780.988281 236.160156 L 780.988281 244.21875 L 736.113281 244.21875 Z M 736.113281 236.160156 " clip-rule="nonzero"/></clipPath><clipPath id="2de755b133"><path d="M 777.703125 237.925781 C 780.46875 237.027344 780.84375 237.625 780.917969 238 C 780.992188 238.449219 780.992188 239.046875 780.542969 239.347656 C 779.273438 240.242188 774.261719 239.046875 769.777344 239.347656 C 761.925781 239.945312 741.660156 244.878906 737.847656 244.132812 C 736.949219 243.90625 736.5 243.609375 736.277344 243.160156 C 736.125 242.785156 736.199219 242.113281 736.425781 241.8125 C 736.722656 241.441406 737.695312 241.066406 738.144531 241.214844 C 738.519531 241.289062 738.96875 241.8125 739.117188 242.1875 C 739.191406 242.636719 739.042969 243.234375 738.816406 243.609375 C 738.519531 243.90625 737.921875 244.207031 737.546875 244.132812 C 737.023438 243.980469 736.277344 243.308594 736.199219 242.859375 C 736.125 242.488281 736.125 241.964844 736.648438 241.515625 C 739.117188 239.421875 761.847656 236.804688 769.777344 236.355469 C 774.1875 236.128906 778.597656 235.90625 780.09375 236.953125 C 780.769531 237.402344 780.992188 238.148438 780.917969 238.746094 C 780.769531 239.347656 779.496094 240.394531 778.898438 240.46875 C 778.375 240.542969 777.628906 240.019531 777.402344 239.570312 C 777.253906 239.195312 777.703125 237.925781 777.703125 237.925781 " clip-rule="nonzero"/></clipPath><clipPath id="8991833ad4"><path d="M 725.269531 233.8125 L 780.289062 233.8125 L 780.289062 244.523438 L 725.269531 244.523438 Z M 725.269531 233.8125 " clip-rule="nonzero"/></clipPath><clipPath id="bb93f17671"><path d="M 779.199219 236.804688 C 758.707031 241.589844 753.472656 242.5625 747.640625 243.160156 C 741.136719 243.832031 729.769531 245.179688 726.855469 244.132812 C 725.882812 243.757812 725.359375 243.085938 725.285156 242.5625 C 725.285156 242.113281 725.957031 241.214844 726.40625 241.140625 C 726.929688 241.066406 728.125 241.8125 728.273438 242.335938 C 728.347656 242.785156 727.527344 244.058594 727.003906 244.058594 C 726.554688 244.132812 725.359375 243.234375 725.285156 242.785156 C 725.285156 242.261719 725.808594 241.589844 726.703125 241.140625 C 729.546875 239.792969 740.761719 240.839844 747.191406 240.167969 C 752.949219 239.570312 758.109375 238.597656 763.417969 237.550781 C 768.578125 236.503906 776.355469 233.289062 778.75 233.886719 C 779.570312 234.035156 780.167969 234.636719 780.246094 235.160156 C 780.320312 235.605469 779.199219 236.804688 779.199219 236.804688 " clip-rule="nonzero"/></clipPath><clipPath id="57a9e80323"><path d="M 730.132812 233.8125 L 776.65625 233.8125 L 776.65625 244.585938 L 730.132812 244.585938 Z M 730.132812 233.8125 " clip-rule="nonzero"/></clipPath><clipPath id="e29953a6bc"><path d="M 775.683594 236.730469 C 758.558594 243.085938 757.136719 243.085938 753.996094 243.382812 C 748.539062 243.832031 734.628906 245.328125 731.640625 244.132812 C 730.742188 243.757812 730.144531 243.085938 730.144531 242.5625 C 730.144531 242.039062 731.265625 241.066406 731.789062 241.140625 C 732.238281 241.140625 733.210938 242.335938 733.136719 242.859375 C 733.058594 243.308594 731.863281 244.132812 731.339844 244.058594 C 730.890625 244.058594 730.144531 243.234375 730.144531 242.710938 C 730.070312 242.261719 730.367188 241.664062 731.117188 241.214844 C 734.105469 239.496094 752.277344 241.289062 760.277344 239.570312 C 766.113281 238.300781 772.542969 233.589844 774.933594 233.886719 C 775.832031 233.960938 776.429688 234.484375 776.582031 235.007812 C 776.730469 235.457031 775.683594 236.730469 775.683594 236.730469 " clip-rule="nonzero"/></clipPath><clipPath id="a21e044b73"><path d="M 725.277344 233.878906 L 775.460938 233.878906 L 775.460938 246.824219 L 725.277344 246.824219 Z M 725.277344 233.878906 " clip-rule="nonzero"/></clipPath><clipPath id="3d5031c4f7"><path d="M 774.636719 236.730469 C 763.644531 241.8125 758.183594 243.683594 752.351562 244.730469 C 745.023438 246.074219 730.070312 247.421875 726.855469 246.523438 C 725.957031 246.300781 725.582031 245.925781 725.359375 245.476562 C 725.207031 245.105469 725.359375 244.429688 725.582031 244.132812 C 725.882812 243.757812 726.480469 243.457031 726.929688 243.535156 C 727.378906 243.609375 728.125 244.28125 728.273438 244.730469 C 728.347656 245.179688 727.902344 246.152344 727.453125 246.375 C 727.078125 246.597656 726.40625 246.597656 726.105469 246.375 C 725.65625 246.074219 725.285156 245.179688 725.359375 244.65625 C 725.433594 244.28125 725.65625 243.90625 726.253906 243.609375 C 728.949219 242.335938 744.277344 243.160156 751.53125 241.886719 C 757.214844 240.839844 762.296875 239.046875 766.335938 237.476562 C 769.253906 236.355469 772.019531 233.886719 773.589844 233.886719 C 774.410156 233.886719 775.160156 234.410156 775.382812 234.859375 C 775.535156 235.308594 774.636719 236.730469 774.636719 236.730469 " clip-rule="nonzero"/></clipPath><clipPath id="5253ea8d2c"><path d="M 727.738281 235.007812 L 777.875 235.007812 L 777.875 245.59375 L 727.738281 245.59375 Z M 727.738281 235.007812 " clip-rule="nonzero"/></clipPath><clipPath id="f4b7b4bb26"><path d="M 776.65625 238 C 743.527344 245.179688 732.238281 246.152344 729.246094 245.328125 C 728.425781 245.105469 727.902344 244.730469 727.75 244.28125 C 727.675781 243.757812 728.347656 242.488281 728.796875 242.410156 C 729.320312 242.261719 730.59375 243.011719 730.667969 243.535156 C 730.742188 243.980469 729.917969 245.179688 729.394531 245.328125 C 728.949219 245.402344 727.976562 244.878906 727.824219 244.429688 C 727.675781 243.980469 727.902344 242.933594 728.648438 242.410156 C 731.117188 240.691406 743.003906 242.261719 750.484375 241.214844 C 758.707031 239.945312 772.542969 234.335938 776.058594 235.082031 C 777.105469 235.308594 777.777344 235.980469 777.851562 236.429688 C 777.925781 236.953125 776.65625 238 776.65625 238 " clip-rule="nonzero"/></clipPath><clipPath id="946f3bb215"><path d="M 730.101562 232.726562 L 785.046875 232.726562 L 785.046875 247.238281 L 730.101562 247.238281 Z M 730.101562 232.726562 " clip-rule="nonzero"/></clipPath><clipPath id="4b3ab584c0"><path d="M 784.507812 235.382812 C 777.628906 240.019531 775.308594 240.917969 773.140625 241.886719 C 770.898438 242.785156 768.652344 243.757812 766.1875 244.503906 C 763.496094 245.328125 760.652344 245.925781 757.511719 246.375 C 753.996094 246.898438 750.109375 247.121094 746.070312 247.199219 C 741.511719 247.199219 733.808594 247.421875 731.566406 246.523438 C 730.742188 246.226562 730.292969 245.851562 730.144531 245.402344 C 730.070312 244.953125 730.21875 244.28125 730.519531 243.980469 C 730.890625 243.683594 731.863281 243.535156 732.3125 243.683594 C 732.6875 243.832031 733.058594 244.429688 733.136719 244.878906 C 733.136719 245.253906 732.910156 245.851562 732.613281 246.152344 C 732.3125 246.449219 731.640625 246.597656 731.265625 246.449219 C 730.816406 246.375 730.292969 245.925781 730.21875 245.550781 C 730.070312 245.105469 730.21875 244.207031 730.742188 243.832031 C 732.460938 242.636719 741.210938 244.28125 745.847656 244.207031 C 749.886719 244.132812 753.550781 243.90625 756.914062 243.457031 C 759.90625 243.011719 762.597656 242.488281 765.140625 241.738281 C 767.53125 240.992188 769.699219 240.019531 771.871094 239.121094 C 773.964844 238.300781 775.980469 237.476562 777.851562 236.429688 C 779.722656 235.382812 781.738281 232.914062 783.085938 232.765625 C 783.832031 232.691406 784.65625 232.988281 784.957031 233.4375 C 785.179688 233.886719 784.507812 235.382812 784.507812 235.382812 " clip-rule="nonzero"/></clipPath><clipPath id="f80d394542"><path d="M 703.433594 232.601562 L 780.265625 232.601562 L 780.265625 247.355469 L 703.433594 247.355469 Z M 703.433594 232.601562 " clip-rule="nonzero"/></clipPath><clipPath id="db6384ef72"><path d="M 779.273438 235.605469 C 757.4375 243.308594 753.25 244.429688 748.914062 245.253906 C 744.652344 246 740.386719 246.300781 736.199219 246.675781 C 732.089844 247.046875 728.425781 247.421875 723.863281 247.273438 C 718.179688 247.121094 707.488281 246.449219 704.871094 245.328125 C 704.121094 244.953125 703.671875 244.503906 703.523438 244.058594 C 703.449219 243.683594 703.671875 243.011719 703.972656 242.785156 C 704.269531 242.488281 704.945312 242.261719 705.316406 242.335938 C 705.765625 242.488281 706.441406 243.234375 706.515625 243.757812 C 706.589844 244.132812 706.289062 244.804688 705.917969 245.027344 C 705.542969 245.253906 704.496094 245.328125 704.121094 245.027344 C 703.746094 244.730469 703.523438 243.757812 703.597656 243.308594 C 703.746094 242.859375 704.046875 242.5625 704.71875 242.335938 C 707.039062 241.589844 718.03125 244.132812 723.714844 244.28125 C 728.199219 244.429688 731.789062 244.058594 735.828125 243.683594 C 739.941406 243.382812 744.050781 243.085938 748.164062 242.335938 C 752.425781 241.515625 756.464844 240.46875 761.027344 239.046875 C 766.484375 237.402344 775.980469 232.242188 778.675781 232.691406 C 779.496094 232.765625 780.167969 233.363281 780.246094 233.886719 C 780.320312 234.335938 779.273438 235.605469 779.273438 235.605469 " clip-rule="nonzero"/></clipPath></defs><g clip-path="url(#bfa6ac544b)"><g clip-path="url(#b9cdb1b615)"><g clip-path="url(#882ceff345)"><path fill="#242536" d="M 10.019531 89.996094 L 653.371094 200.445312 L 645.429688 246.695312 L 2.078125 136.246094 Z M 10.019531 89.996094 " fill-opacity="1" fill-rule="nonzero"/></g></g></g><g clip-path="url(#2adfda25cf)"><g clip-path="url(#48539847f8)"><g clip-path="url(#e34825281d)"><g clip-path="url(#0c06a64e49)"><path stroke-linecap="butt" transform="matrix(0.736986, 0.126524, -0.126524, 0.736986, 10.049262, 89.999448)" fill="none" stroke-linejoin="miter" d="M 31.374485 -0.000447016 L 841.611022 0.00105511 C 858.937526 -0.0000514991 872.983103 14.046078 872.98421 31.372582 C 872.9862 48.704234 858.934922 62.750695 841.608418 62.751802 L 31.377029 62.749416 C 14.045377 62.751406 -0.000200232 48.705277 -0.00219073 31.373624 C 0.00185122 14.046236 14.047981 0.000659589 31.374485 -0.000447016 Z M 31.374485 -0.000447016 " stroke="#242536" stroke-width="16" stroke-opacity="1" stroke-miterlimit="4"/></g></g></g></g><g clip-path="url(#f703b4a165)"><g clip-path="url(#9628d8c13e)"><g clip-path="url(#dbfae6ace1)"><path fill="#242536" d="M 22.757812 48.253906 L 666.109375 158.703125 L 658.171875 204.953125 L 14.820312 94.503906 Z M 22.757812 48.253906 " fill-opacity="1" fill-rule="nonzero"/></g></g></g><g clip-path="url(#9484a7ba82)"><g clip-path="url(#039af1ab1f)"><g clip-path="url(#970daa501e)"><g clip-path="url(#c0507b5233)"><path stroke-linecap="butt" transform="matrix(0.736986, 0.126524, -0.126524, 0.736986, 22.788771, 48.257785)" fill="none" stroke-linejoin="miter" d="M 31.372747 -0.000859565 L 841.609285 0.000642558 C 858.935789 -0.000464048 872.981366 14.045665 872.983356 31.377318 C 872.984463 48.703822 858.938333 62.749399 841.606681 62.751389 L 31.375292 62.749003 C 14.048788 62.75011 -0.00193758 48.704864 0.00122048 31.372328 C 0.000113877 14.045824 14.046243 0.00024704 31.372747 -0.000859565 Z M 31.372747 -0.000859565 " stroke="#242536" stroke-width="16" stroke-opacity="1" stroke-miterlimit="4"/></g></g></g></g><g clip-path="url(#f363fffc72)"><g clip-path="url(#dc36b2da93)"><g clip-path="url(#77901827c3)"><path fill="#242536" d="M 40.605469 5.539062 L 683.957031 115.988281 L 676.015625 162.238281 L 32.664062 51.789062 Z M 40.605469 5.539062 " fill-opacity="1" fill-rule="nonzero"/></g></g></g><g clip-path="url(#bc05e36bfb)"><g clip-path="url(#605e687935)"><g clip-path="url(#c1d9501210)"><g clip-path="url(#d952c73e64)"><path stroke-linecap="butt" transform="matrix(0.736986, 0.126524, -0.126524, 0.736986, 40.634351, 5.542222)" fill="none" stroke-linejoin="miter" d="M 31.375647 -0.00038254 L 841.607036 0.00200348 C 858.938689 0.0000129771 872.984265 14.046142 872.985372 31.372646 C 872.982214 48.705183 858.936085 62.75076 841.609581 62.751866 L 31.373043 62.750364 C 14.046539 62.751471 0.000962215 48.705341 -0.00102828 31.373689 C -0.00213489 14.047185 14.049143 0.000724065 31.375647 -0.00038254 Z M 31.375647 -0.00038254 " stroke="#242536" stroke-width="16" stroke-opacity="1" stroke-miterlimit="4"/></g></g></g></g><g clip-path="url(#a19eea280b)"><g clip-path="url(#53e78b6e33)"><g clip-path="url(#3128397281)"><path fill="#ffcf7e" d="M 14.550781 83.894531 L 623.394531 188.417969 L 615.457031 234.667969 L 6.613281 130.144531 Z M 14.550781 83.894531 " fill-opacity="1" fill-rule="nonzero"/></g></g></g><g clip-path="url(#323b14172d)"><g clip-path="url(#7edb0211ee)"><g clip-path="url(#943ed055ec)"><g clip-path="url(#c4a75039cc)"><path stroke-linecap="butt" transform="matrix(0.736986, 0.126524, -0.126524, 0.736986, 14.581502, 83.899436)" fill="none" stroke-linejoin="miter" d="M 31.372829 -0.00226612 L 794.760386 0.0016076 C 812.092039 -0.000382901 826.137616 14.045747 826.138722 31.372251 C 826.135564 48.704787 812.089435 62.750364 794.762931 62.75147 L 31.375374 62.747597 C 14.04887 62.748703 -0.00185578 48.703458 0.00218617 31.37607 C 0.000195676 14.044417 14.046325 -0.00115952 31.372829 -0.00226612 Z M 31.372829 -0.00226612 " stroke="#242536" stroke-width="16" stroke-opacity="1" stroke-miterlimit="4"/></g></g></g></g><g clip-path="url(#910642fc57)"><g clip-path="url(#9972f629b5)"><g clip-path="url(#a56ba41315)"><path fill="#ffcf7e" d="M 28.03125 42.410156 L 636.875 146.9375 L 628.9375 193.1875 L 20.089844 88.660156 Z M 28.03125 42.410156 " fill-opacity="1" fill-rule="nonzero"/></g></g></g><g clip-path="url(#4423cde21b)"><g clip-path="url(#2534ab275c)"><g clip-path="url(#4580638be9)"><g clip-path="url(#0dc5ecc606)"><path stroke-linecap="butt" transform="matrix(0.736986, 0.126524, -0.126524, 0.736986, 28.061816, 42.41572)" fill="none" stroke-linejoin="miter" d="M 31.373767 0.00197896 L 794.760441 0.000704126 C 812.092093 -0.00128637 826.13767 14.044843 826.139661 31.376496 C 826.135619 48.703883 812.089489 62.74946 794.762985 62.750567 L 31.376312 62.751842 C 14.048924 62.7478 -0.00180132 48.702554 0.00224063 31.375166 C 0.00113402 14.048662 14.04638 -0.00206299 31.373767 0.00197896 Z M 31.373767 0.00197896 " stroke="#242536" stroke-width="16" stroke-opacity="1" stroke-miterlimit="4"/></g></g></g></g><g clip-path="url(#f58cfe89b0)"><g clip-path="url(#2870418c05)"><g clip-path="url(#f3ed228521)"><path fill="#ffcf7e" d="M 46.753906 0 L 655.597656 104.523438 L 647.65625 150.777344 L 38.8125 46.25 Z M 46.753906 0 " fill-opacity="1" fill-rule="nonzero"/></g></g></g><g clip-path="url(#7a61d69f1c)"><g clip-path="url(#4ca27ad638)"><g clip-path="url(#84a4d79a95)"><g clip-path="url(#e16faba1b4)"><path stroke-linecap="butt" transform="matrix(0.736986, 0.126524, -0.126524, 0.736986, 46.783471, 0.00519653)" fill="none" stroke-linejoin="miter" d="M 31.375171 0.00223617 L 794.761844 0.000961328 C 812.088348 -0.000145277 826.139074 14.0451 826.135915 31.377637 C 826.137022 48.704141 812.090893 62.749718 794.764389 62.750824 L 31.377715 62.752099 C 14.045179 62.748941 -0.000397884 48.702812 -0.00150449 31.376308 C 0.00253746 14.04892 14.047783 -0.00180579 31.375171 0.00223617 Z M 31.375171 0.00223617 " stroke="#242536" stroke-width="16" stroke-opacity="1" stroke-miterlimit="4"/></g></g></g></g><g clip-path="url(#77b8692458)"><g clip-path="url(#448d92413d)"><g clip-path="url(#acdd0253f2)"><path fill="#242536" d="M 743.765625 198.824219 L 1387.660156 91.582031 L 1395.367188 137.871094 L 751.476562 245.113281 Z M 743.765625 198.824219 " fill-opacity="1" fill-rule="nonzero"/></g></g></g><g clip-path="url(#b94780bf39)"><g clip-path="url(#75f35537ae)"><g clip-path="url(#b623433811)"><g clip-path="url(#82a4da142e)"><path stroke-linecap="butt" transform="matrix(0.737607, -0.122853, 0.122853, 0.737607, 743.794064, 198.820244)" fill="none" stroke-linejoin="miter" d="M 31.376539 -0.000956765 L 841.60856 -0.000726373 C 858.93658 -0.000877252 872.982062 14.047587 872.982212 31.375607 C 872.982363 48.703627 858.9339 62.749109 841.605879 62.74926 L 31.373859 62.749029 C 14.045838 62.74918 0.000356867 48.700716 0.000205989 31.372696 C 0.0000551108 14.044676 14.048519 -0.000805887 31.376539 -0.000956765 Z M 31.376539 -0.000956765 " stroke="#242536" stroke-width="16" stroke-opacity="1" stroke-miterlimit="4"/></g></g></g></g><g clip-path="url(#c3785f4c00)"><g clip-path="url(#5930b24267)"><g clip-path="url(#2d9a7e9478)"><path fill="#242536" d="M 728.972656 160.167969 L 1372.867188 52.925781 L 1380.574219 99.214844 L 736.683594 206.457031 Z M 728.972656 160.167969 " fill-opacity="1" fill-rule="nonzero"/></g></g></g><g clip-path="url(#1b47bf5dc6)"><g clip-path="url(#f5ced96a63)"><g clip-path="url(#5495972fc2)"><g clip-path="url(#f48dc270b0)"><path stroke-linecap="butt" transform="matrix(0.737607, -0.122853, 0.122853, 0.737607, 729.00111, 160.164387)" fill="none" stroke-linejoin="miter" d="M 31.376605 -0.00147893 L 841.608626 -0.00124854 C 858.936646 -0.00139942 872.982128 14.047064 872.982279 31.375085 C 872.982429 48.703105 858.933966 62.748587 841.605945 62.748737 L 31.373925 62.748507 C 14.045905 62.748658 -0.000435257 48.705347 -0.000586136 31.377327 C -0.000737014 14.049306 14.048585 -0.00132806 31.376605 -0.00147893 Z M 31.376605 -0.00147893 " stroke="#242536" stroke-width="16" stroke-opacity="1" stroke-miterlimit="4"/></g></g></g></g><g clip-path="url(#aa76216abc)"><g clip-path="url(#fcdc40303b)"><g clip-path="url(#5b854fbcf8)"><path fill="#242536" d="M 711.476562 121.902344 L 1355.371094 14.660156 L 1363.082031 60.949219 L 719.1875 168.191406 Z M 711.476562 121.902344 " fill-opacity="1" fill-rule="nonzero"/></g></g></g><g clip-path="url(#4b0f4176be)"><g clip-path="url(#a373073b09)"><g clip-path="url(#915a3083ac)"><g clip-path="url(#4cd9a90f95)"><path stroke-linecap="butt" transform="matrix(0.737607, -0.122853, 0.122853, 0.737607, 711.50686, 121.898762)" fill="none" stroke-linejoin="miter" d="M 31.374173 -0.00188435 L 841.606193 -0.00165395 C 858.934214 -0.00180483 872.984848 14.047517 872.984999 31.375538 C 872.98515 48.703558 858.936686 62.749039 841.608666 62.74919 L 31.376645 62.74896 C 14.048625 62.749111 -0.00286778 48.704942 0.00213424 31.37778 C 0.00198336 14.049759 14.046153 -0.00173347 31.374173 -0.00188435 Z M 31.374173 -0.00188435 " stroke="#242536" stroke-width="16" stroke-opacity="1" stroke-miterlimit="4"/></g></g></g></g><g clip-path="url(#de83312b76)"><g clip-path="url(#478a0bba68)"><g clip-path="url(#e05bffeb8b)"><path fill="#ffcf7e" d="M 773.980469 185.480469 L 1383.335938 83.988281 L 1391.046875 130.277344 L 781.6875 231.769531 Z M 773.980469 185.480469 " fill-opacity="1" fill-rule="nonzero"/></g></g></g><g clip-path="url(#bdb5899344)"><g clip-path="url(#ee6eaf62df)"><g clip-path="url(#8d68c15d07)"><g clip-path="url(#615db2bed4)"><path stroke-linecap="butt" transform="matrix(0.737607, -0.122853, 0.122853, 0.737607, 774.009387, 185.473933)" fill="none" stroke-linejoin="miter" d="M 31.375343 0.00231602 L 794.760648 0.000727485 C 812.088668 0.000576607 826.139303 14.049899 826.139454 31.377919 C 826.140463 48.700786 812.091141 62.751421 794.76312 62.751572 L 31.373521 62.747149 C 14.045501 62.7473 -0.000839138 48.703989 -0.000990016 31.375969 C -0.00114089 14.047948 14.047323 0.0024669 31.375343 0.00231602 Z M 31.375343 0.00231602 " stroke="#242536" stroke-width="16" stroke-opacity="1" stroke-miterlimit="4"/></g></g></g></g><g clip-path="url(#b0b02f0eb0)"><g clip-path="url(#b1abc21311)"><g clip-path="url(#2e1e5afd10)"><path fill="#ffcf7e" d="M 759.972656 146.824219 L 1369.328125 45.332031 L 1377.039062 91.621094 L 767.679688 193.113281 Z M 759.972656 146.824219 " fill-opacity="1" fill-rule="nonzero"/></g></g></g><g clip-path="url(#1ed87555b7)"><g clip-path="url(#6ff0605aaf)"><g clip-path="url(#ae4cbdc244)"><g clip-path="url(#d6777577a6)"><path stroke-linecap="butt" transform="matrix(0.737607, -0.122853, 0.122853, 0.737607, 760.000837, 146.81809)" fill="none" stroke-linejoin="miter" d="M 31.376407 0.00194053 L 794.761711 0.000351991 C 812.089732 0.000201112 826.135213 14.048665 826.135364 31.376685 C 826.135515 48.704706 812.092204 62.751045 794.764184 62.751196 L 31.373726 62.751927 C 14.045706 62.752077 0.000224479 48.703614 0.0000736004 31.375593 C -0.0000772778 14.047573 14.048387 0.0020914 31.376407 0.00194053 Z M 31.376407 0.00194053 " stroke="#242536" stroke-width="16" stroke-opacity="1" stroke-miterlimit="4"/></g></g></g></g><g clip-path="url(#b45ee832f9)"><g clip-path="url(#af07864ae1)"><g clip-path="url(#638321350b)"><path fill="#ffcf7e" d="M 743.402344 108.558594 L 1352.761719 7.066406 L 1360.472656 53.355469 L 751.113281 154.847656 Z M 743.402344 108.558594 " fill-opacity="1" fill-rule="nonzero"/></g></g></g><g clip-path="url(#d537fce25f)"><g clip-path="url(#a805d3ddd0)"><g clip-path="url(#a942c8bd46)"><g clip-path="url(#88eee11c5a)"><path stroke-linecap="butt" transform="matrix(0.737607, -0.122853, 0.122853, 0.737607, 743.434202, 108.552458)" fill="none" stroke-linejoin="miter" d="M 31.376707 0.00199994 L 794.762011 0.000411407 C 812.090032 0.000260529 826.135513 14.048724 826.135664 31.376745 C 826.135815 48.704765 812.092504 62.751105 794.764484 62.751256 L 31.374026 62.751986 C 14.046006 62.752137 0.000524345 48.703673 0.000373467 31.375653 C 0.000222588 14.047632 14.048686 0.00215082 31.376707 0.00199994 Z M 31.376707 0.00199994 " stroke="#242536" stroke-width="16" stroke-opacity="1" stroke-miterlimit="4"/></g></g></g></g><g clip-path="url(#4e6c4ae9db)"><g clip-path="url(#6dfcc92dd6)"><path fill="#ffcf7e" d="M 576.625 86.984375 L 818.710938 86.984375 L 818.710938 240.765625 L 576.625 240.765625 Z M 576.625 86.984375 " fill-opacity="1" fill-rule="nonzero"/></g></g><g fill="#242536" fill-opacity="1"><g transform="translate(614.079604, 188.7848)"><g><path d="M 35.109375 -11.734375 C 35.109375 -3.910156 31.570312 0 24.5 0 L 12.546875 0 C 10.453125 0 9.40625 -1.148438 9.40625 -3.453125 L 9.40625 -13.171875 C 9.40625 -15.554688 10.507812 -16.75 12.71875 -16.75 L 22.171875 -16.703125 C 23.660156 -16.703125 24.882812 -17.179688 25.84375 -18.140625 C 26.707031 -19.003906 27.140625 -20.078125 27.140625 -21.359375 C 27.140625 -21.984375 27.019531 -22.585938 26.78125 -23.171875 C 26.539062 -23.753906 26.210938 -24.257812 25.796875 -24.6875 C 25.378906 -25.125 24.851562 -25.476562 24.21875 -25.75 C 23.59375 -26.019531 22.910156 -26.15625 22.171875 -26.15625 L 9.265625 -26.15625 C 4.316406 -26.15625 1.84375 -28.988281 1.84375 -34.65625 L 1.84375 -51.375 C 1.84375 -53.25 2.691406 -54.1875 4.390625 -54.1875 L 12.40625 -54.1875 C 13.8125 -54.1875 14.515625 -53.15625 14.515625 -51.09375 L 14.515625 -46.890625 C 14.515625 -44.648438 15.363281 -43.53125 17.0625 -43.53125 L 26.328125 -43.53125 C 32.179688 -43.53125 35.109375 -40.378906 35.109375 -34.078125 Z M 35.109375 -11.734375 "/></g></g></g><g fill="#242536" fill-opacity="1"><g transform="translate(651.967184, 188.7848)"><g><path d="M 40 -2.546875 C 40 -0.847656 39.28125 0 37.84375 0 L 29.46875 0 C 27.976562 0 27.234375 -0.894531 27.234375 -2.6875 L 27.234375 -20.515625 C 27.234375 -22.359375 26.632812 -23.820312 25.4375 -24.90625 C 24.445312 -25.882812 23.132812 -26.40625 21.5 -26.46875 C 19.882812 -26.5 18.507812 -26.019531 17.375 -25.03125 C 16.125 -23.894531 15.5 -22.390625 15.5 -20.515625 L 15.5 -2.6875 C 15.5 -0.894531 14.75 0 13.25 0 L 4.921875 0 C 3.460938 0 2.734375 -0.847656 2.734375 -2.546875 L 2.734375 -37.484375 C 2.734375 -41.515625 4.492188 -43.53125 8.015625 -43.53125 L 34.703125 -43.53125 C 38.234375 -43.53125 40 -41.515625 40 -37.484375 Z M 40 -2.546875 "/></g></g></g><g fill="#242536" fill-opacity="1"><g transform="translate(694.691477, 188.7848)"><g><path d="M 42.234375 -3 C 42.234375 -1 41.289062 0 39.40625 0 L 31.796875 0 C 30.304688 0 29.5625 -1.046875 29.5625 -3.140625 L 29.5625 -20.59375 C 29.5625 -22 29.082031 -23.269531 28.125 -24.40625 C 27.164062 -25.570312 25.941406 -26.15625 24.453125 -26.15625 C 23.734375 -26.15625 23.0625 -26.007812 22.4375 -25.71875 C 21.8125 -25.4375 21.265625 -25.039062 20.796875 -24.53125 C 20.335938 -24.03125 19.976562 -23.421875 19.71875 -22.703125 C 19.46875 -21.984375 19.34375 -21.207031 19.34375 -20.375 L 19.34375 -9.859375 C 19.34375 -3.285156 16.222656 0 9.984375 0 L 4.65625 0 C 2.78125 0 1.84375 -1.253906 1.84375 -3.765625 L 1.84375 -13.65625 C 1.84375 -15.75 2.75 -16.796875 4.5625 -16.796875 L 8.28125 -16.796875 C 9.65625 -16.796875 10.773438 -17.316406 11.640625 -18.359375 C 12.328125 -19.285156 12.671875 -20.316406 12.671875 -21.453125 C 12.671875 -22.648438 12.3125 -23.695312 11.59375 -24.59375 C 10.789062 -25.632812 9.671875 -26.15625 8.234375 -26.15625 L 6.9375 -26.15625 C 5.539062 -26.15625 4.644531 -26.46875 4.25 -27.09375 C 3.957031 -27.507812 3.8125 -28.460938 3.8125 -29.953125 L 3.8125 -39.640625 C 3.8125 -42.234375 5.125 -43.53125 7.75 -43.53125 L 30.59375 -43.53125 C 38.351562 -43.53125 42.234375 -39.53125 42.234375 -31.53125 Z M 42.234375 -3 "/></g></g></g><g fill="#242536" fill-opacity="1"><g transform="translate(739.654988, 188.7848)"><g><path d="M 39.046875 -2.546875 C 39.046875 -0.847656 38.332031 0 36.90625 0 L 28.53125 0 C 27.03125 0 26.28125 -0.894531 26.28125 -2.6875 L 26.28125 -15.453125 C 26.28125 -17.421875 26.101562 -19.082031 25.75 -20.4375 C 25.394531 -21.800781 24.828125 -22.90625 24.046875 -23.75 C 23.273438 -24.601562 22.273438 -25.222656 21.046875 -25.609375 C 19.828125 -26.003906 18.347656 -26.203125 16.609375 -26.203125 L 6.3125 -26.203125 C 3.925781 -26.203125 2.734375 -27.425781 2.734375 -29.875 L 2.734375 -40.21875 C 2.734375 -41.195312 3.148438 -42.015625 3.984375 -42.671875 C 4.734375 -43.242188 5.628906 -43.53125 6.671875 -43.53125 L 28.53125 -43.53125 C 35.539062 -43.53125 39.046875 -39.992188 39.046875 -32.921875 Z M 15.578125 -2.546875 C 15.578125 -0.847656 14.847656 0 13.390625 0 L 5.0625 0 C 3.507812 0 2.734375 -0.894531 2.734375 -2.6875 L 2.734375 -17.734375 C 2.734375 -19.523438 3.507812 -20.421875 5.0625 -20.421875 L 13.390625 -20.421875 C 14.847656 -20.421875 15.578125 -19.421875 15.578125 -17.421875 Z M 15.578125 -2.546875 "/></g></g></g><g clip-path="url(#6d7f6d5054)"><g clip-path="url(#f4b32f3c0d)"><path fill="#242536" d="M 1324.46875 32.8125 L 1339.351562 32.8125 L 1339.351562 52.460938 L 1324.46875 52.460938 Z M 1324.46875 32.8125 " fill-opacity="1" fill-rule="nonzero"/></g></g><g clip-path="url(#4906ae223f)"><g clip-path="url(#82ed56823b)"><path fill="#242536" d="M 1317.214844 35.207031 L 1328.507812 35.207031 L 1328.507812 50.023438 L 1317.214844 50.023438 Z M 1317.214844 35.207031 " fill-opacity="1" fill-rule="nonzero"/></g></g><g clip-path="url(#8f2ecdef58)"><g clip-path="url(#94202e8c6b)"><path fill="#242536" d="M 1308.765625 39.917969 L 1318.9375 39.917969 L 1318.9375 52.546875 L 1308.765625 52.546875 Z M 1308.765625 39.917969 " fill-opacity="1" fill-rule="nonzero"/></g></g><g clip-path="url(#2129777f90)"><g clip-path="url(#f44552f73a)"><path fill="#242536" d="M 1278.40625 77.378906 L 1291.042969 77.378906 L 1291.042969 93.519531 L 1278.40625 93.519531 Z M 1278.40625 77.378906 " fill-opacity="1" fill-rule="nonzero"/></g></g><g clip-path="url(#310307c0c2)"><g clip-path="url(#08a989664b)"><path fill="#242536" d="M 1267.714844 78.800781 L 1281.398438 78.800781 L 1281.398438 97.132812 L 1267.714844 97.132812 Z M 1267.714844 78.800781 " fill-opacity="1" fill-rule="nonzero"/></g></g><g clip-path="url(#8ee351e028)"><g clip-path="url(#404f3630fa)"><path fill="#242536" d="M 1260.3125 81.042969 L 1270.40625 81.042969 L 1270.40625 94.804688 L 1260.3125 94.804688 Z M 1260.3125 81.042969 " fill-opacity="1" fill-rule="nonzero"/></g></g><g clip-path="url(#897f652672)"><g clip-path="url(#2674d76872)"><path fill="#242536" d="M 1173.269531 136.601562 L 1187.105469 136.601562 L 1187.105469 160.109375 L 1173.269531 160.109375 Z M 1173.269531 136.601562 " fill-opacity="1" fill-rule="nonzero"/></g></g><g clip-path="url(#fbf555ffba)"><g clip-path="url(#79fd85fd42)"><path fill="#242536" d="M 1166.09375 141.613281 L 1178.578125 141.613281 L 1178.578125 157.5625 L 1166.09375 157.5625 Z M 1166.09375 141.613281 " fill-opacity="1" fill-rule="nonzero"/></g></g><g clip-path="url(#45cab40815)"><g clip-path="url(#63e5e7fecd)"><path fill="#242536" d="M 1158.839844 142.808594 L 1170.203125 142.808594 L 1170.203125 156.4375 L 1158.839844 156.4375 Z M 1158.839844 142.808594 " fill-opacity="1" fill-rule="nonzero"/></g></g><g clip-path="url(#77c8f49078)"><g clip-path="url(#02469dad2a)"><path fill="#242536" d="M 1150.390625 146.398438 L 1161.753906 146.398438 L 1161.753906 160.027344 L 1150.390625 160.027344 Z M 1150.390625 146.398438 " fill-opacity="1" fill-rule="nonzero"/></g></g><g clip-path="url(#23eb144022)"><g clip-path="url(#e0cbb0e995)"><path fill="#242536" d="M 87.660156 26.679688 L 100.222656 26.679688 L 100.222656 45.132812 L 87.660156 45.132812 Z M 87.660156 26.679688 " fill-opacity="1" fill-rule="nonzero"/></g></g><g clip-path="url(#6560573cd7)"><g clip-path="url(#2e75c77fd0)"><path fill="#242536" d="M 99.777344 33.933594 L 109.871094 33.933594 L 109.871094 46.433594 L 99.777344 46.433594 Z M 99.777344 33.933594 " fill-opacity="1" fill-rule="nonzero"/></g></g><g clip-path="url(#e073963052)"><g clip-path="url(#771fcfec23)"><path fill="#242536" d="M 107.179688 34.160156 L 118.320312 34.160156 L 118.320312 46.429688 L 107.179688 46.429688 Z M 107.179688 34.160156 " fill-opacity="1" fill-rule="nonzero"/></g></g><g clip-path="url(#2141a7bf3d)"><g clip-path="url(#b04f0c9a6f)"><path fill="#242536" d="M 128.789062 77.453125 L 142.546875 77.453125 L 142.546875 94.707031 L 128.789062 94.707031 Z M 128.789062 77.453125 " fill-opacity="1" fill-rule="nonzero"/></g></g><g clip-path="url(#b0449ab98c)"><g clip-path="url(#2bd94223ae)"><path fill="#242536" d="M 140.976562 82.390625 L 153.464844 82.390625 L 153.464844 98.390625 L 140.976562 98.390625 Z M 140.976562 82.390625 " fill-opacity="1" fill-rule="nonzero"/></g></g><g clip-path="url(#57c5461255)"><g clip-path="url(#925c4b8c70)"><path fill="#242536" d="M 151.894531 87.175781 L 164.160156 87.175781 L 164.160156 100.636719 L 151.894531 100.636719 Z M 151.894531 87.175781 " fill-opacity="1" fill-rule="nonzero"/></g></g><g clip-path="url(#6d232c25a5)"><g clip-path="url(#0fe94a8648)"><path fill="#242536" d="M 277.371094 152.304688 L 287.539062 152.304688 L 287.539062 171.015625 L 277.371094 171.015625 Z M 277.371094 152.304688 " fill-opacity="1" fill-rule="nonzero"/></g></g><g clip-path="url(#4939846fe4)"><g clip-path="url(#254a26155e)"><path fill="#242536" d="M 287.089844 160.832031 L 297.261719 160.832031 L 297.261719 175.765625 L 287.089844 175.765625 Z M 287.089844 160.832031 " fill-opacity="1" fill-rule="nonzero"/></g></g><g clip-path="url(#f6945250fe)"><g clip-path="url(#3d500f407d)"><path fill="#242536" d="M 295.542969 159.558594 L 308.179688 159.558594 L 308.179688 175.800781 L 295.542969 175.800781 Z M 295.542969 159.558594 " fill-opacity="1" fill-rule="nonzero"/></g></g><g clip-path="url(#536b1caef6)"><g clip-path="url(#c622a04e24)"><path fill="#242536" d="M 305.1875 154.699219 L 317.824219 154.699219 L 317.824219 173.308594 L 305.1875 173.308594 Z M 305.1875 154.699219 " fill-opacity="1" fill-rule="nonzero"/></g></g><g clip-path="url(#a1be0935cc)"><g clip-path="url(#309c8df6df)"><path fill="#242536" d="M 600.183594 230.894531 L 675.980469 230.894531 L 675.980469 249.589844 L 600.183594 249.589844 Z M 600.183594 230.894531 " fill-opacity="1" fill-rule="nonzero"/></g></g><g clip-path="url(#0bcd27b2a5)"><g clip-path="url(#a751574927)"><path fill="#242536" d="M 744.425781 228.277344 L 784.246094 228.277344 L 784.246094 249.515625 L 744.425781 249.515625 Z M 744.425781 228.277344 " fill-opacity="1" fill-rule="nonzero"/></g></g><g clip-path="url(#6171d4b1d5)"><g clip-path="url(#d2564d55ea)"><path fill="#242536" d="M 740.539062 230.894531 L 790.546875 230.894531 L 790.546875 247.121094 L 740.539062 247.121094 Z M 740.539062 230.894531 " fill-opacity="1" fill-rule="nonzero"/></g></g><g clip-path="url(#eb2c5a2d0c)"><g clip-path="url(#2de755b133)"><path fill="#242536" d="M 733.210938 233.363281 L 784 233.363281 L 784 247.121094 L 733.210938 247.121094 Z M 733.210938 233.363281 " fill-opacity="1" fill-rule="nonzero"/></g></g><g clip-path="url(#8991833ad4)"><g clip-path="url(#bb93f17671)"><path fill="#242536" d="M 722.292969 230.894531 L 783.332031 230.894531 L 783.332031 247.121094 L 722.292969 247.121094 Z M 722.292969 230.894531 " fill-opacity="1" fill-rule="nonzero"/></g></g><g clip-path="url(#57a9e80323)"><g clip-path="url(#e29953a6bc)"><path fill="#242536" d="M 727.152344 230.894531 L 779.636719 230.894531 L 779.636719 247.121094 L 727.152344 247.121094 Z M 727.152344 230.894531 " fill-opacity="1" fill-rule="nonzero"/></g></g><g clip-path="url(#a21e044b73)"><g clip-path="url(#3d5031c4f7)"><path fill="#242536" d="M 722.367188 230.894531 L 778.371094 230.894531 L 778.371094 249.515625 L 722.367188 249.515625 Z M 722.367188 230.894531 " fill-opacity="1" fill-rule="nonzero"/></g></g><g clip-path="url(#5253ea8d2c)"><g clip-path="url(#f4b7b4bb26)"><path fill="#242536" d="M 724.761719 232.09375 L 780.855469 232.09375 L 780.855469 248.320312 L 724.761719 248.320312 Z M 724.761719 232.09375 " fill-opacity="1" fill-rule="nonzero"/></g></g><g clip-path="url(#946f3bb215)"><g clip-path="url(#4b3ab584c0)"><path fill="#242536" d="M 727.152344 229.773438 L 787.917969 229.773438 L 787.917969 250.1875 L 727.152344 250.1875 Z M 727.152344 229.773438 " fill-opacity="1" fill-rule="nonzero"/></g></g><g clip-path="url(#f80d394542)"><g clip-path="url(#db6384ef72)"><path fill="#242536" d="M 700.53125 229.699219 L 783.246094 229.699219 L 783.246094 250.339844 L 700.53125 250.339844 Z M 700.53125 229.699219 " fill-opacity="1" fill-rule="nonzero"/></g></g></svg>