<svg xmlns="http://www.w3.org/2000/svg" xmlns:xlink="http://www.w3.org/1999/xlink" width="496" zoomAndPan="magnify" viewBox="0 0 372 268.499992" height="358" preserveAspectRatio="xMidYMid meet" version="1.0"><defs><g/><clipPath id="486fb900ba"><path d="M 11.710938 45.074219 L 370.832031 45.074219 L 370.832031 268 L 11.710938 268 Z M 11.710938 45.074219 " clip-rule="nonzero"/></clipPath><clipPath id="7cfeffef6c"><path d="M 0.554688 27.546875 L 359.675781 27.546875 L 359.675781 250.632812 L 0.554688 250.632812 Z M 0.554688 27.546875 " clip-rule="nonzero"/></clipPath></defs><g fill="#ffffff" fill-opacity="1"><g transform="translate(121.467338, 77.470255)"><g><path d="M 40.6875 -33.6875 L 39.28125 -27.328125 L 32.15625 -27.515625 L 30.796875 -20.15625 L 37.921875 -19.953125 L 36.953125 -13.890625 L 29.65625 -14.078125 L 28.359375 -6.140625 L 21.578125 -6.328125 L 22.890625 -14.265625 L 16.4375 -14.4375 L 15 -6.5 L 8.078125 -6.6875 L 9.734375 -14.625 L 2.546875 -14.8125 L 3.515625 -20.890625 L 10.84375 -20.6875 L 12.203125 -28.0625 L 4.9375 -28.265625 L 6.203125 -34.625 L 13.578125 -34.421875 L 14.953125 -42 L 21.84375 -41.8125 L 20.421875 -34.234375 L 26.359375 -34.078125 L 27.671875 -41.65625 L 34.484375 -41.46875 L 33.203125 -33.890625 Z M 25.3125 -27.703125 L 18.9375 -27.875 L 17.65625 -20.5 L 23.984375 -20.328125 Z M 25.3125 -27.703125 "/></g></g></g><g fill="#ffffff" fill-opacity="1"><g transform="translate(163.359242, 78.606789)"><g><path d="M 26.21875 -5.09375 C 26.1875 -4.101562 25.644531 -3.617188 24.59375 -3.640625 L 23.46875 -3.671875 L 23.40625 -0.875 C 23.375 0.132812 22.925781 0.625 22.0625 0.59375 L 16.109375 0.4375 C 15.242188 0.414062 14.828125 -0.0976562 14.859375 -1.109375 L 14.921875 -3.90625 L 2.5 -4.25 C 2.050781 -4.257812 1.664062 -4.484375 1.34375 -4.921875 C 1.019531 -5.367188 0.863281 -5.816406 0.875 -6.265625 L 0.875 -6.296875 L 1.546875 -16.921875 C 1.609375 -18.273438 1.925781 -19.492188 2.5 -20.578125 L 12.625 -40.703125 C 13.144531 -41.742188 13.875 -42.25 14.8125 -42.21875 L 22.828125 -42 C 23.523438 -41.988281 23.976562 -41.882812 24.1875 -41.6875 C 24.394531 -41.488281 24.488281 -41.050781 24.46875 -40.375 L 23.859375 -17.953125 L 24.765625 -17.9375 C 25.722656 -17.90625 26.21875 -17.363281 26.25 -16.3125 Z M 15.3125 -18.1875 L 15.5625 -26.953125 L 11.0625 -18.3125 Z M 15.3125 -18.1875 "/></g></g></g><g clip-path="url(#486fb900ba)"><path fill="#cf4545" d="M 249.410156 45.082031 L 231.890625 110.945312 L 11.550781 102.75 L 219.207031 179.488281 L 188.703125 267.90625 L 272.648438 205.527344 L 359.328125 254.234375 L 314.28125 169.234375 L 371.074219 121.886719 L 292.898438 115.050781 Z M 249.410156 45.082031 " fill-opacity="1" fill-rule="nonzero"/></g><g clip-path="url(#7cfeffef6c)"><path fill="#ffcf7e" d="M 238.253906 27.554688 L 220.734375 93.417969 L 0.394531 85.21875 L 208.054688 161.957031 L 177.550781 250.378906 L 261.492188 187.996094 L 348.171875 236.707031 L 303.128906 151.703125 L 359.921875 104.355469 L 281.746094 97.519531 Z M 238.253906 27.554688 " fill-opacity="1" fill-rule="nonzero"/></g><g fill="#cf4545" fill-opacity="1"><g transform="translate(190.690849, 135.653752)"><g><path d="M 14.765625 0 L 0.953125 0 L 0.953125 -18.21875 C 0.953125 -19.59375 1.179688 -20.554688 1.640625 -21.109375 C 2.160156 -21.753906 3.09375 -22.078125 4.4375 -22.078125 L 11.03125 -22.078125 C 13.519531 -22.078125 14.765625 -20.789062 14.765625 -18.21875 Z M 9.375 -15.265625 C 9.375 -15.960938 9.054688 -16.3125 8.421875 -16.3125 L 7.390625 -16.3125 C 6.753906 -16.3125 6.4375 -15.960938 6.4375 -15.265625 L 6.4375 -5.765625 L 9.375 -5.765625 Z M 9.375 -15.265625 "/></g></g></g><g fill="#cf4545" fill-opacity="1"><g transform="translate(206.408544, 135.653752)"><g><path d="M 6.34375 0 L 0.953125 0 L 0.953125 -22.078125 L 6.34375 -22.078125 Z M 6.34375 0 "/></g></g></g><g fill="#cf4545" fill-opacity="1"><g transform="translate(213.698723, 135.653752)"><g><path d="M 11.828125 0 L 6.359375 0 L 6.359375 -15.40625 C 6.359375 -16.007812 6.039062 -16.3125 5.40625 -16.3125 L 0.578125 -16.3125 L 0.578125 -22.078125 L 7.921875 -22.078125 C 9.066406 -22.078125 10.003906 -21.710938 10.734375 -20.984375 C 11.460938 -20.253906 11.828125 -19.3125 11.828125 -18.15625 Z M 11.828125 0 "/></g></g></g><g fill="#cf4545" fill-opacity="1"><g transform="translate(226.470517, 135.653752)"><g><path d="M 6.265625 -12.28125 L 0.90625 -12.28125 L 0.90625 -22.078125 L 6.265625 -22.078125 Z M 6.265625 -12.28125 "/></g></g></g><g fill="#cf4545" fill-opacity="1"><g transform="translate(233.686117, 135.653752)"><g><path d="M 14.390625 0 L 8.984375 0 L 8.984375 -15.265625 C 8.984375 -15.960938 8.664062 -16.3125 8.03125 -16.3125 L 7.390625 -16.3125 C 6.753906 -16.3125 6.4375 -15.960938 6.4375 -15.265625 L 6.4375 0 L 0.953125 0 L 0.953125 -18.21875 C 0.953125 -19.59375 1.179688 -20.554688 1.640625 -21.109375 C 2.160156 -21.753906 3.09375 -22.078125 4.4375 -22.078125 L 10.671875 -22.078125 C 13.148438 -22.078125 14.390625 -20.789062 14.390625 -18.21875 Z M 14.390625 0 "/></g></g></g><g fill="#cf4545" fill-opacity="1"><g transform="translate(249.030913, 135.653752)"><g/></g></g><g fill="#cf4545" fill-opacity="1"><g transform="translate(257.477079, 135.653752)"><g><path d="M 14.625 -5.8125 C 14.625 -1.9375 13.03125 0 9.84375 0 L 0.578125 0 L 0.578125 -5.765625 L 1.890625 -5.765625 L 1.890625 -22.078125 L 7.265625 -22.078125 L 7.265625 -5.765625 L 8.359375 -5.765625 C 8.972656 -5.765625 9.28125 -6.191406 9.28125 -7.046875 L 9.28125 -22.078125 L 14.625 -22.078125 Z M 14.625 -5.8125 "/></g></g></g><g fill="#cf4545" fill-opacity="1"><g transform="translate(273.045614, 135.653752)"><g><path d="M 6.34375 0 L 0.953125 0 L 0.953125 -22.078125 L 6.34375 -22.078125 Z M 6.34375 0 "/></g></g></g><g fill="#cf4545" fill-opacity="1"><g transform="translate(280.335794, 135.653752)"><g><path d="M 11.828125 0 L 6.359375 0 L 6.359375 -15.40625 C 6.359375 -16.007812 6.039062 -16.3125 5.40625 -16.3125 L 0.578125 -16.3125 L 0.578125 -22.078125 L 7.921875 -22.078125 C 9.066406 -22.078125 10.003906 -21.710938 10.734375 -20.984375 C 11.460938 -20.253906 11.828125 -19.3125 11.828125 -18.15625 Z M 11.828125 0 "/></g></g></g><g fill="#cf4545" fill-opacity="1"><g transform="translate(293.107587, 135.653752)"><g><path d="M 6.265625 -12.28125 L 0.90625 -12.28125 L 0.90625 -22.078125 L 6.265625 -22.078125 Z M 6.265625 -12.28125 "/></g></g></g><g fill="#cf4545" fill-opacity="1"><g transform="translate(300.323187, 135.653752)"><g><path d="M 10 0 C 9.832031 -0.875 9.476562 -2.019531 8.9375 -3.4375 C 8.394531 -4.863281 7.660156 -6.582031 6.734375 -8.59375 C 6.628906 -8.476562 6.550781 -8.390625 6.5 -8.328125 C 6.457031 -8.265625 6.429688 -8.226562 6.421875 -8.21875 C 6.398438 -8.164062 6.382812 -8.054688 6.375 -7.890625 C 6.375 -7.722656 6.375 -7.492188 6.375 -7.203125 L 6.375 0 L 0.984375 0 L 0.984375 -6.59375 C 0.984375 -10.09375 2.0625 -12.359375 4.21875 -13.390625 C 2.15625 -17.441406 1.003906 -20.335938 0.765625 -22.078125 L 6.375 -22.078125 C 6.644531 -20.835938 7.050781 -19.523438 7.59375 -18.140625 C 8.132812 -16.765625 8.816406 -15.300781 9.640625 -13.75 C 9.953125 -13.96875 10.109375 -14.425781 10.109375 -15.125 L 10.109375 -22.078125 L 15.546875 -22.078125 L 15.546875 -14.59375 C 15.546875 -13.476562 15.207031 -12.394531 14.53125 -11.34375 C 13.84375 -10.289062 12.992188 -9.492188 11.984375 -8.953125 C 14.304688 -4.328125 15.492188 -1.34375 15.546875 0 Z M 10 0 "/></g></g></g><g fill="#cf4545" fill-opacity="1"><g transform="translate(223.321057, 175.247001)"><g><path d="M 6.265625 -12.28125 L 0.90625 -12.28125 L 0.90625 -22.078125 L 6.265625 -22.078125 Z M 6.265625 -12.28125 "/></g></g></g><g fill="#cf4545" fill-opacity="1"><g transform="translate(230.536657, 175.247001)"><g><path d="M 14.390625 0 L 8.984375 0 L 8.984375 -15.265625 C 8.984375 -15.960938 8.664062 -16.3125 8.03125 -16.3125 L 7.390625 -16.3125 C 6.753906 -16.3125 6.4375 -15.960938 6.4375 -15.265625 L 6.4375 0 L 0.953125 0 L 0.953125 -18.21875 C 0.953125 -19.59375 1.179688 -20.554688 1.640625 -21.109375 C 2.160156 -21.753906 3.09375 -22.078125 4.4375 -22.078125 L 10.671875 -22.078125 C 13.148438 -22.078125 14.390625 -20.789062 14.390625 -18.21875 Z M 14.390625 0 "/></g></g></g><g fill="#cf4545" fill-opacity="1"><g transform="translate(245.881453, 175.247001)"><g><path d="M 11.828125 0 L 6.359375 0 L 6.359375 -15.40625 C 6.359375 -16.007812 6.039062 -16.3125 5.40625 -16.3125 L 0.578125 -16.3125 L 0.578125 -22.078125 L 7.921875 -22.078125 C 9.066406 -22.078125 10.003906 -21.710938 10.734375 -20.984375 C 11.460938 -20.253906 11.828125 -19.3125 11.828125 -18.15625 Z M 11.828125 0 "/></g></g></g><g fill="#cf4545" fill-opacity="1"><g transform="translate(258.653247, 175.247001)"><g><path d="M 8.28125 -16.3125 L 8.203125 -16.3125 C 7.347656 -16.3125 6.921875 -15.695312 6.921875 -14.46875 L 6.921875 0 L 1.5625 0 L 1.5625 -13.390625 C 1.5625 -14.992188 2.070312 -15.96875 3.09375 -16.3125 L 0.765625 -16.3125 L 0.765625 -22.078125 L 8.28125 -22.078125 Z M 8.28125 -16.3125 "/></g></g></g><g fill="#cf4545" fill-opacity="1"><g transform="translate(267.696051, 175.247001)"><g><path d="M 10 0 C 9.832031 -0.875 9.476562 -2.019531 8.9375 -3.4375 C 8.394531 -4.863281 7.660156 -6.582031 6.734375 -8.59375 C 6.628906 -8.476562 6.550781 -8.390625 6.5 -8.328125 C 6.457031 -8.265625 6.429688 -8.226562 6.421875 -8.21875 C 6.398438 -8.164062 6.382812 -8.054688 6.375 -7.890625 C 6.375 -7.722656 6.375 -7.492188 6.375 -7.203125 L 6.375 0 L 0.984375 0 L 0.984375 -6.59375 C 0.984375 -10.09375 2.0625 -12.359375 4.21875 -13.390625 C 2.15625 -17.441406 1.003906 -20.335938 0.765625 -22.078125 L 6.375 -22.078125 C 6.644531 -20.835938 7.050781 -19.523438 7.59375 -18.140625 C 8.132812 -16.765625 8.816406 -15.300781 9.640625 -13.75 C 9.953125 -13.96875 10.109375 -14.425781 10.109375 -15.125 L 10.109375 -22.078125 L 15.546875 -22.078125 L 15.546875 -14.59375 C 15.546875 -13.476562 15.207031 -12.394531 14.53125 -11.34375 C 13.84375 -10.289062 12.992188 -9.492188 11.984375 -8.953125 C 14.304688 -4.328125 15.492188 -1.34375 15.546875 0 Z M 10 0 "/></g></g></g></svg>