<svg xmlns="http://www.w3.org/2000/svg" xmlns:xlink="http://www.w3.org/1999/xlink" width="336" zoomAndPan="magnify" viewBox="0 0 252 235.499993" height="314" preserveAspectRatio="xMidYMid meet" version="1.0"><defs><g/><clipPath id="c81a73d03b"><path d="M 18 13 L 251.207031 13 L 251.207031 235 L 18 235 Z M 18 13 " clip-rule="nonzero"/></clipPath><clipPath id="70ab889530"><path d="M 17.703125 12.273438 L 251 12.273438 L 251 235 L 17.703125 235 Z M 17.703125 12.273438 " clip-rule="nonzero"/></clipPath><clipPath id="fc5a20db58"><path d="M 0.265625 4 L 233.769531 4 L 233.769531 226.90625 L 0.265625 226.90625 Z M 0.265625 4 " clip-rule="nonzero"/></clipPath><clipPath id="5fdc06c0f6"><path d="M 0.265625 3.882812 L 233.769531 3.882812 L 233.769531 226 L 0.265625 226 Z M 0.265625 3.882812 " clip-rule="nonzero"/></clipPath></defs><g clip-path="url(#c81a73d03b)"><path fill="#cf4545" d="M 134.910156 13.042969 L 170.929688 86.0625 L 251.511719 97.773438 L 193.1875 154.652344 L 207 234.90625 L 134.910156 197.019531 L 62.773438 234.90625 L 76.539062 154.652344 L 18.261719 97.773438 L 98.84375 86.0625 Z M 134.910156 13.042969 " fill-opacity="1" fill-rule="nonzero"/></g><g clip-path="url(#70ab889530)"><path fill="#cf4545" d="M 134.351562 12.34375 L 170.417969 85.363281 L 250.996094 97.074219 L 192.675781 153.953125 L 206.4375 234.207031 L 134.351562 196.320312 L 62.261719 234.207031 L 76.027344 153.953125 L 17.703125 97.074219 L 98.28125 85.363281 Z M 134.351562 12.34375 " fill-opacity="1" fill-rule="nonzero"/><path fill="#cf4545" d="M 134.351562 12.34375 L 170.417969 85.363281 L 250.996094 97.074219 L 192.675781 153.953125 L 206.4375 234.207031 L 134.351562 196.320312 L 62.261719 234.207031 L 76.027344 153.953125 L 17.703125 97.074219 L 98.28125 85.363281 Z M 134.351562 12.34375 " fill-opacity="1" fill-rule="nonzero"/><path fill="#cf4545" d="M 134.351562 12.34375 L 170.417969 85.363281 L 250.996094 97.074219 L 192.675781 153.953125 L 206.4375 234.207031 L 134.351562 196.320312 L 62.261719 234.207031 L 76.027344 153.953125 L 17.703125 97.074219 L 98.28125 85.363281 Z M 134.351562 12.34375 " fill-opacity="1" fill-rule="nonzero"/></g><g clip-path="url(#fc5a20db58)"><path fill="#ffcf7e" d="M 117.472656 4.648438 L 153.496094 77.671875 L 234.074219 89.382812 L 175.75 146.257812 L 189.5625 226.511719 L 117.472656 188.625 L 45.339844 226.511719 L 59.105469 146.257812 L 0.828125 89.382812 L 81.40625 77.671875 Z M 117.472656 4.648438 " fill-opacity="1" fill-rule="nonzero"/></g><g clip-path="url(#5fdc06c0f6)"><path fill="#ffcf7e" d="M 116.914062 3.949219 L 152.980469 76.96875 L 233.5625 88.679688 L 175.238281 145.558594 L 189.003906 225.8125 L 116.914062 187.925781 L 44.828125 225.8125 L 58.589844 145.558594 L 0.265625 88.679688 L 80.847656 76.96875 Z M 116.914062 3.949219 " fill-opacity="1" fill-rule="nonzero"/><path fill="#ffcf7e" d="M 116.914062 3.949219 L 152.980469 76.96875 L 233.5625 88.679688 L 175.238281 145.558594 L 189.003906 225.8125 L 116.914062 187.925781 L 44.828125 225.8125 L 58.589844 145.558594 L 0.265625 88.679688 L 80.847656 76.96875 Z M 116.914062 3.949219 " fill-opacity="1" fill-rule="nonzero"/><path fill="#ffcf7e" d="M 116.914062 3.949219 L 152.980469 76.96875 L 233.5625 88.679688 L 175.238281 145.558594 L 189.003906 225.8125 L 116.914062 187.925781 L 44.828125 225.8125 L 58.589844 145.558594 L 0.265625 88.679688 L 80.847656 76.96875 Z M 116.914062 3.949219 " fill-opacity="1" fill-rule="nonzero"/></g><g fill="#cf4545" fill-opacity="1"><g transform="translate(69.329652, 117.914802)"><g><path d="M 14.765625 0 L 9.5625 0 L 9.5625 -14.765625 C 9.5625 -15.441406 9.253906 -15.78125 8.640625 -15.78125 L 7.9375 -15.78125 C 7.3125 -15.78125 7 -15.441406 7 -14.765625 L 7 -2.5625 C 7 -0.851562 6.28125 0 4.84375 0 L 0.359375 0 L 0.359375 -5.578125 L 1.265625 -5.578125 C 1.566406 -5.578125 1.71875 -5.707031 1.71875 -5.96875 L 1.71875 -17.25 C 1.71875 -18.707031 2 -19.753906 2.5625 -20.390625 C 3.125 -21.023438 4.117188 -21.34375 5.546875 -21.34375 L 11.171875 -21.34375 C 13.566406 -21.34375 14.765625 -19.976562 14.765625 -17.25 Z M 14.765625 0 "/></g></g><g transform="translate(85.030819, 117.914802)"><g><path d="M 6.125 0 L 0.921875 0 L 0.921875 -21.34375 L 6.125 -21.34375 Z M 6.125 0 "/></g></g><g transform="translate(92.079219, 117.914802)"><g><path d="M 10.34375 -3.359375 C 10.34375 -1.117188 9.285156 0 7.171875 0 L 0.734375 0 L 0.734375 -5.578125 L 4.4375 -5.578125 C 4.863281 -5.578125 5.078125 -5.835938 5.078125 -6.359375 L 5.078125 -14.890625 C 5.078125 -15.484375 4.816406 -15.78125 4.296875 -15.78125 L 2.265625 -15.78125 L 2.265625 -21.34375 L 7.078125 -21.34375 C 9.253906 -21.34375 10.34375 -20.21875 10.34375 -17.96875 Z M 10.34375 -3.359375 "/></g></g><g transform="translate(103.345842, 117.914802)"><g><path d="M 10.34375 -3.359375 C 10.34375 -1.117188 9.285156 0 7.171875 0 L 0.734375 0 L 0.734375 -5.578125 L 4.4375 -5.578125 C 4.863281 -5.578125 5.078125 -5.835938 5.078125 -6.359375 L 5.078125 -14.890625 C 5.078125 -15.484375 4.816406 -15.78125 4.296875 -15.78125 L 2.265625 -15.78125 L 2.265625 -21.34375 L 7.078125 -21.34375 C 9.253906 -21.34375 10.34375 -20.21875 10.34375 -17.96875 Z M 10.34375 -3.359375 "/></g></g><g transform="translate(114.612466, 117.914802)"><g><path d="M 6.125 0 L 0.921875 0 L 0.921875 -21.34375 L 6.125 -21.34375 Z M 6.125 0 "/></g></g><g transform="translate(121.660866, 117.914802)"><g><path d="M 12.65625 0 L 7.453125 0 L 6.515625 -5.90625 C 6.140625 -5.90625 5.90625 -5.644531 5.8125 -5.125 L 4.828125 0 L 0.1875 0 L 1.421875 -6.171875 C 1.972656 -8.953125 3.265625 -10.34375 5.296875 -10.34375 L 6.171875 -10.34375 L 6.171875 -14.890625 C 6.171875 -15.484375 5.832031 -15.78125 5.15625 -15.78125 L 1.4375 -15.78125 L 1.4375 -21.34375 L 7.46875 -21.34375 C 10.09375 -21.34375 11.40625 -19.960938 11.40625 -17.203125 L 11.40625 -10.03125 C 11.40625 -9.269531 11.425781 -8.570312 11.46875 -7.9375 C 11.507812 -7.300781 11.578125 -6.71875 11.671875 -6.1875 Z M 12.65625 0 "/></g></g><g transform="translate(134.694096, 117.914802)"><g><path d="M 14.765625 0 L 9.5625 0 L 9.5625 -14.765625 C 9.5625 -15.441406 9.253906 -15.78125 8.640625 -15.78125 L 7.9375 -15.78125 C 7.3125 -15.78125 7 -15.441406 7 -14.765625 L 7 -2.5625 C 7 -0.851562 6.28125 0 4.84375 0 L 0.359375 0 L 0.359375 -5.578125 L 1.265625 -5.578125 C 1.566406 -5.578125 1.71875 -5.707031 1.71875 -5.96875 L 1.71875 -17.25 C 1.71875 -18.707031 2 -19.753906 2.5625 -20.390625 C 3.125 -21.023438 4.117188 -21.34375 5.546875 -21.34375 L 11.171875 -21.34375 C 13.566406 -21.34375 14.765625 -19.976562 14.765625 -17.25 Z M 14.765625 0 "/></g></g><g transform="translate(150.395262, 117.914802)"><g><path d="M 13.6875 0 L 8.390625 0 L 8.390625 -14.890625 C 8.390625 -15.484375 8.085938 -15.78125 7.484375 -15.78125 L 0.921875 -15.78125 L 0.921875 -21.34375 L 9.921875 -21.34375 C 11.023438 -21.34375 11.929688 -20.988281 12.640625 -20.28125 C 13.335938 -19.582031 13.6875 -18.675781 13.6875 -17.5625 Z M 6.125 0 L 0.9375 0 L 0.9375 -13.234375 L 6.125 -13.234375 Z M 6.125 0 "/></g></g></g><g fill="#cf4545" fill-opacity="1"><g transform="translate(79.977363, 156.371544)"><g><path d="M 14.765625 0 L 9.5625 0 L 9.5625 -14.765625 C 9.5625 -15.441406 9.253906 -15.78125 8.640625 -15.78125 L 7.9375 -15.78125 C 7.3125 -15.78125 7 -15.441406 7 -14.765625 L 7 -2.5625 C 7 -0.851562 6.28125 0 4.84375 0 L 0.359375 0 L 0.359375 -5.578125 L 1.265625 -5.578125 C 1.566406 -5.578125 1.71875 -5.707031 1.71875 -5.96875 L 1.71875 -17.25 C 1.71875 -18.707031 2 -19.753906 2.5625 -20.390625 C 3.125 -21.023438 4.117188 -21.34375 5.546875 -21.34375 L 11.171875 -21.34375 C 13.566406 -21.34375 14.765625 -19.976562 14.765625 -17.25 Z M 14.765625 0 "/></g></g><g transform="translate(95.678529, 156.371544)"><g><path d="M 6.0625 -11.875 L 0.890625 -11.875 L 0.890625 -21.34375 L 6.0625 -21.34375 Z M 6.0625 -11.875 "/></g></g><g transform="translate(102.654823, 156.371544)"><g><path d="M 13.921875 0 L 8.6875 0 L 8.6875 -14.765625 C 8.6875 -15.441406 8.378906 -15.78125 7.765625 -15.78125 L 7.140625 -15.78125 C 6.523438 -15.78125 6.21875 -15.441406 6.21875 -14.765625 L 6.21875 0 L 0.921875 0 L 0.921875 -17.609375 C 0.921875 -18.941406 1.144531 -19.875 1.59375 -20.40625 C 2.09375 -21.03125 2.992188 -21.34375 4.296875 -21.34375 L 10.3125 -21.34375 C 12.71875 -21.34375 13.921875 -20.097656 13.921875 -17.609375 Z M 13.921875 0 "/></g></g><g transform="translate(117.490713, 156.371544)"><g><path d="M 11.4375 0 L 6.140625 0 L 6.140625 -14.890625 C 6.140625 -15.484375 5.835938 -15.78125 5.234375 -15.78125 L 0.5625 -15.78125 L 0.5625 -21.34375 L 7.65625 -21.34375 C 8.769531 -21.34375 9.679688 -20.988281 10.390625 -20.28125 C 11.085938 -19.582031 11.4375 -18.675781 11.4375 -17.5625 Z M 11.4375 0 "/></g></g><g transform="translate(129.838932, 156.371544)"><g><path d="M 8 -15.78125 L 7.9375 -15.78125 C 7.101562 -15.78125 6.6875 -15.179688 6.6875 -13.984375 L 6.6875 0 L 1.515625 0 L 1.515625 -12.9375 C 1.515625 -14.488281 2.007812 -15.4375 3 -15.78125 L 0.734375 -15.78125 L 0.734375 -21.34375 L 8 -21.34375 Z M 8 -15.78125 "/></g></g><g transform="translate(138.581832, 156.371544)"><g><path d="M 9.65625 0 C 9.5 -0.84375 9.160156 -1.953125 8.640625 -3.328125 C 8.117188 -4.703125 7.410156 -6.363281 6.515625 -8.3125 C 6.410156 -8.207031 6.332031 -8.125 6.28125 -8.0625 C 6.238281 -8 6.210938 -7.960938 6.203125 -7.953125 C 6.191406 -7.898438 6.179688 -7.789062 6.171875 -7.625 C 6.171875 -7.46875 6.171875 -7.242188 6.171875 -6.953125 L 6.171875 0 L 0.953125 0 L 0.953125 -6.375 C 0.953125 -9.757812 1.992188 -11.945312 4.078125 -12.9375 C 2.078125 -16.863281 0.960938 -19.664062 0.734375 -21.34375 L 6.171875 -21.34375 C 6.429688 -20.144531 6.820312 -18.878906 7.34375 -17.546875 C 7.863281 -16.210938 8.523438 -14.789062 9.328125 -13.28125 C 9.617188 -13.5 9.765625 -13.945312 9.765625 -14.625 L 9.765625 -21.34375 L 15.03125 -21.34375 L 15.03125 -14.109375 C 15.03125 -13.035156 14.703125 -11.988281 14.046875 -10.96875 C 13.378906 -9.957031 12.5625 -9.1875 11.59375 -8.65625 C 13.84375 -4.1875 14.988281 -1.300781 15.03125 0 Z M 9.65625 0 "/></g></g></g><g fill="#ffffff" fill-opacity="1"><g transform="translate(165.824128, 71.376288)"><g><path d="M 39.375 -27.859375 L 37.65625 -22.171875 L 31.171875 -22.84375 L 29.453125 -16.234375 L 35.921875 -15.5625 L 34.609375 -10.09375 L 27.96875 -10.78125 L 26.234375 -3.640625 L 20.078125 -4.28125 L 21.828125 -11.40625 L 15.953125 -12.015625 L 14.078125 -4.890625 L 7.8125 -5.546875 L 9.875 -12.640625 L 3.328125 -13.3125 L 4.640625 -18.78125 L 11.3125 -18.09375 L 13.046875 -24.703125 L 6.453125 -25.390625 L 8.03125 -31.078125 L 14.71875 -30.390625 L 16.5 -37.203125 L 22.78125 -36.5625 L 20.9375 -29.75 L 26.359375 -29.203125 L 28.0625 -36.015625 L 34.25 -35.375 L 32.578125 -28.5625 Z M 24.96875 -23.484375 L 19.15625 -24.078125 L 17.5 -17.46875 L 23.265625 -16.875 Z M 24.96875 -23.484375 "/></g></g></g><g fill="#ffffff" fill-opacity="1"><g transform="translate(203.884834, 75.297134)"><g><path d="M 23.359375 1.140625 C 23.273438 1.972656 22.863281 2.351562 22.125 2.28125 L 2.359375 0.25 C 1.617188 0.164062 1.289062 -0.289062 1.375 -1.125 L 1.390625 -1.25 L 2.84375 -10.984375 C 3.039062 -12.359375 3.609375 -13.382812 4.546875 -14.0625 L 14.203125 -21.15625 C 14.566406 -21.382812 14.800781 -22.003906 14.90625 -23.015625 C 14.945312 -23.203125 14.925781 -23.507812 14.84375 -23.9375 C 14.695312 -24.21875 14.410156 -24.378906 13.984375 -24.421875 L 6.765625 -25.171875 C 5.796875 -25.265625 5.367188 -25.875 5.484375 -27 L 5.484375 -27.078125 L 6.96875 -36.921875 C 7.082031 -37.890625 7.546875 -38.332031 8.359375 -38.25 L 24.03125 -36.640625 C 24.820312 -36.554688 25.191406 -36.03125 25.140625 -35.0625 L 24.296875 -20.65625 L 24.28125 -20.453125 C 24.15625 -19.265625 23.679688 -18.375 22.859375 -17.78125 L 14.421875 -11.671875 L 22.828125 -10.796875 C 23.628906 -10.710938 23.984375 -9.921875 23.890625 -8.421875 L 23.375 1.015625 Z M 23.359375 1.140625 "/></g></g></g></svg>