<svg xmlns="http://www.w3.org/2000/svg" xmlns:xlink="http://www.w3.org/1999/xlink" width="369" zoomAndPan="magnify" viewBox="0 0 276.75 254.250006" height="339" preserveAspectRatio="xMidYMid meet" version="1.0"><defs><g/><clipPath id="a8710dd6f3"><path d="M 0.28125 7.546875 L 258.269531 7.546875 L 258.269531 252.824219 L 0.28125 252.824219 Z M 0.28125 7.546875 " clip-rule="nonzero"/></clipPath><clipPath id="4ce2504718"><path d="M 18.011719 0 L 276 0 L 276 245.277344 L 18.011719 245.277344 Z M 18.011719 0 " clip-rule="nonzero"/></clipPath></defs><g clip-path="url(#a8710dd6f3)"><path fill="#cf4545" d="M 129.273438 7.546875 L 169.117188 88.285156 L 258.214844 101.230469 L 193.746094 164.074219 L 208.964844 252.8125 L 129.273438 210.914062 L 49.582031 252.8125 L 64.800781 164.074219 L 0.328125 101.230469 L 89.425781 88.285156 Z M 129.273438 7.546875 " fill-opacity="1" fill-rule="nonzero"/></g><path fill="#cf4545" d="M 129.273438 31.632812 L 161.292969 96.511719 L 232.890625 106.917969 L 181.082031 157.417969 L 193.3125 228.726562 L 129.273438 195.058594 L 65.234375 228.726562 L 77.464844 157.417969 L 25.65625 106.917969 L 97.253906 96.511719 Z M 129.273438 31.632812 " fill-opacity="1" fill-rule="nonzero"/><path fill="#cf4545" d="M 129.273438 57.921875 L 152.75 105.492188 L 205.25 113.121094 L 167.261719 150.152344 L 176.230469 202.4375 L 129.273438 177.75 L 82.316406 202.4375 L 91.285156 150.152344 L 53.296875 113.121094 L 105.792969 105.492188 Z M 129.273438 57.921875 " fill-opacity="1" fill-rule="nonzero"/><g clip-path="url(#4ce2504718)"><path fill="#ffcf7e" d="M 147 0 L 186.847656 80.734375 L 275.945312 93.683594 L 211.472656 156.527344 L 226.691406 245.265625 L 147 203.367188 L 67.308594 245.265625 L 82.53125 156.527344 L 18.058594 93.683594 L 107.15625 80.734375 Z M 147 0 " fill-opacity="1" fill-rule="nonzero"/></g><path fill="#ffcf7e" d="M 147 24.085938 L 179.019531 88.964844 L 250.621094 99.367188 L 198.808594 149.871094 L 211.039062 221.179688 L 147 187.511719 L 82.960938 221.179688 L 95.191406 149.871094 L 43.382812 99.367188 L 114.980469 88.964844 Z M 147 24.085938 " fill-opacity="1" fill-rule="nonzero"/><path fill="#ffd37b" d="M 147 50.375 L 170.480469 97.945312 L 222.976562 105.574219 L 184.988281 142.605469 L 193.957031 194.890625 L 147 170.203125 L 100.046875 194.890625 L 109.011719 142.605469 L 71.023438 105.574219 L 123.523438 97.945312 Z M 147 50.375 " fill-opacity="1" fill-rule="nonzero"/><g fill="#cf4545" fill-opacity="1"><g transform="translate(86.696482, 125.362404)"><g><path d="M 13.09375 0 L 0.84375 0 L 0.84375 -16.15625 C 0.84375 -17.375 1.046875 -18.226562 1.453125 -18.71875 C 1.921875 -19.289062 2.75 -19.578125 3.9375 -19.578125 L 9.78125 -19.578125 C 11.988281 -19.578125 13.09375 -18.4375 13.09375 -16.15625 Z M 8.3125 -13.546875 C 8.3125 -14.160156 8.03125 -14.46875 7.46875 -14.46875 L 6.546875 -14.46875 C 5.984375 -14.46875 5.703125 -14.160156 5.703125 -13.546875 L 5.703125 -5.109375 L 8.3125 -5.109375 Z M 8.3125 -13.546875 "/></g></g></g><g fill="#cf4545" fill-opacity="1"><g transform="translate(100.632338, 125.362404)"><g><path d="M 5.625 0 L 0.84375 0 L 0.84375 -19.578125 L 5.625 -19.578125 Z M 5.625 0 "/></g></g></g><g fill="#cf4545" fill-opacity="1"><g transform="translate(107.096063, 125.362404)"><g><path d="M 10.484375 0 L 5.640625 0 L 5.640625 -13.65625 C 5.640625 -14.195312 5.359375 -14.46875 4.796875 -14.46875 L 0.515625 -14.46875 L 0.515625 -19.578125 L 7.03125 -19.578125 C 8.039062 -19.578125 8.867188 -19.25 9.515625 -18.59375 C 10.160156 -17.957031 10.484375 -17.128906 10.484375 -16.109375 Z M 10.484375 0 "/></g></g></g><g fill="#cf4545" fill-opacity="1"><g transform="translate(118.41998, 125.362404)"><g><path d="M 5.5625 -10.890625 L 0.8125 -10.890625 L 0.8125 -19.578125 L 5.5625 -19.578125 Z M 5.5625 -10.890625 "/></g></g></g><g fill="#cf4545" fill-opacity="1"><g transform="translate(124.81758, 125.362404)"><g><path d="M 12.765625 0 L 7.96875 0 L 7.96875 -13.546875 C 7.96875 -14.160156 7.6875 -14.46875 7.125 -14.46875 L 6.546875 -14.46875 C 5.984375 -14.46875 5.703125 -14.160156 5.703125 -13.546875 L 5.703125 0 L 0.84375 0 L 0.84375 -16.15625 C 0.84375 -17.375 1.046875 -18.226562 1.453125 -18.71875 C 1.921875 -19.289062 2.75 -19.578125 3.9375 -19.578125 L 9.453125 -19.578125 C 11.660156 -19.578125 12.765625 -18.4375 12.765625 -16.15625 Z M 12.765625 0 "/></g></g></g><g fill="#cf4545" fill-opacity="1"><g transform="translate(138.422811, 125.362404)"><g><path d="M 12.546875 0 L 7.6875 0 L 7.6875 -13.65625 C 7.6875 -14.195312 7.410156 -14.46875 6.859375 -14.46875 L 0.84375 -14.46875 L 0.84375 -19.578125 L 9.09375 -19.578125 C 10.101562 -19.578125 10.9375 -19.25 11.59375 -18.59375 C 12.226562 -17.957031 12.546875 -17.128906 12.546875 -16.109375 Z M 5.625 0 L 0.859375 0 L 0.859375 -12.140625 L 5.625 -12.140625 Z M 5.625 0 "/></g></g></g><g fill="#cf4545" fill-opacity="1"><g transform="translate(151.813136, 125.362404)"><g/></g></g><g fill="#cf4545" fill-opacity="1"><g transform="translate(159.301799, 125.362404)"><g><path d="M 5.5625 -10.890625 L 0.8125 -10.890625 L 0.8125 -19.578125 L 5.5625 -19.578125 Z M 5.5625 -10.890625 "/></g></g></g><g fill="#cf4545" fill-opacity="1"><g transform="translate(165.699399, 125.362404)"><g><path d="M 12.015625 0 L 0.84375 0 L 0.84375 -5.109375 L 4.5625 -5.109375 C 5.65625 -5.109375 6.203125 -5.753906 6.203125 -7.046875 L 6.203125 -12.90625 C 6.203125 -13.476562 6.101562 -13.878906 5.90625 -14.109375 C 5.707031 -14.347656 5.328125 -14.46875 4.765625 -14.46875 L 0.84375 -14.46875 L 0.84375 -19.578125 L 7.28125 -19.578125 C 9.800781 -19.578125 11.0625 -18.082031 11.0625 -15.09375 L 11.0625 -8.40625 C 11.0625 -6.664062 10.414062 -5.566406 9.125 -5.109375 L 12.015625 -5.109375 Z M 12.015625 0 "/></g></g></g><g fill="#cf4545" fill-opacity="1"><g transform="translate(178.395411, 125.362404)"><g><path d="M 0.9375 0 L 0.9375 -5.109375 L 6.53125 -5.125 L 3.40625 -11.4375 C 1.5625 -15.164062 0.515625 -17.878906 0.265625 -19.578125 L 5.34375 -19.578125 C 6.007812 -16.835938 6.953125 -14.414062 8.171875 -12.3125 C 8.359375 -12.4375 8.472656 -12.664062 8.515625 -13 C 8.546875 -13.207031 8.5625 -13.453125 8.5625 -13.734375 L 8.5625 -19.578125 L 13.375 -19.578125 L 13.375 -12.9375 C 13.375 -11.9375 13.070312 -10.976562 12.46875 -10.0625 C 11.875 -9.175781 11.128906 -8.492188 10.234375 -8.015625 C 12.316406 -3.867188 13.363281 -1.195312 13.375 0 Z M 0.9375 0 "/></g></g></g><g fill="#cf4545" fill-opacity="1"><g transform="translate(192.612299, 125.362404)"><g><path d="M 13.84375 -3.515625 C 13.84375 -1.171875 12.773438 0 10.640625 0 L 7.28125 0 L 7.28125 -5.125 L 8.28125 -5.125 C 8.78125 -5.125 9.03125 -5.421875 9.03125 -6.015625 L 9.03125 -13.46875 C 9.03125 -14.0625 8.878906 -14.359375 8.578125 -14.359375 C 8.285156 -14.359375 8.082031 -14.023438 7.96875 -13.359375 L 5.578125 0 L 0.84375 0 L 2.859375 -10.921875 L 1.921875 -10.921875 C 1.179688 -10.921875 0.8125 -11.285156 0.8125 -12.015625 L 0.8125 -19.578125 L 5.609375 -19.578125 L 5.609375 -12.671875 L 6.5625 -16.453125 C 7.09375 -18.535156 8.234375 -19.578125 9.984375 -19.578125 L 10.234375 -19.578125 C 12.640625 -19.578125 13.84375 -18.109375 13.84375 -15.171875 Z M 13.84375 -3.515625 "/></g></g></g><g fill="#cf4545" fill-opacity="1"><g transform="translate(86.535262, 160.284963)"><g><path d="M 8.859375 0 C 8.710938 -0.769531 8.398438 -1.785156 7.921875 -3.046875 C 7.441406 -4.304688 6.789062 -5.832031 5.96875 -7.625 C 5.882812 -7.519531 5.816406 -7.441406 5.765625 -7.390625 C 5.722656 -7.335938 5.695312 -7.304688 5.6875 -7.296875 C 5.675781 -7.242188 5.664062 -7.144531 5.65625 -7 C 5.65625 -6.851562 5.65625 -6.644531 5.65625 -6.375 L 5.65625 0 L 0.875 0 L 0.875 -5.859375 C 0.875 -8.953125 1.828125 -10.957031 3.734375 -11.875 C 1.898438 -15.46875 0.878906 -18.035156 0.671875 -19.578125 L 5.65625 -19.578125 C 5.894531 -18.472656 6.253906 -17.304688 6.734375 -16.078125 C 7.210938 -14.859375 7.816406 -13.5625 8.546875 -12.1875 C 8.816406 -12.382812 8.953125 -12.789062 8.953125 -13.40625 L 8.953125 -19.578125 L 13.78125 -19.578125 L 13.78125 -12.9375 C 13.78125 -11.945312 13.476562 -10.984375 12.875 -10.046875 C 12.269531 -9.117188 11.519531 -8.414062 10.625 -7.9375 C 12.6875 -3.832031 13.738281 -1.1875 13.78125 0 Z M 8.859375 0 "/></g></g></g><g fill="#cf4545" fill-opacity="1"><g transform="translate(101.00012, 160.284963)"><g><path d="M 8.140625 -18.453125 C 8.140625 -17.503906 7.726562 -16.585938 6.90625 -15.703125 C 6.238281 -14.972656 5.472656 -14.414062 4.609375 -14.03125 L 4.609375 -22.4375 L 8.140625 -22.4375 Z M 3.8125 -18.453125 C 3.8125 -16.710938 2.648438 -15.238281 0.328125 -14.03125 L 0.328125 -22.4375 L 3.8125 -22.4375 Z M 3.8125 -18.453125 "/></g></g></g><g fill="#cf4545" fill-opacity="1"><g transform="translate(109.464127, 160.284963)"><g><path d="M 11.609375 0 L 6.828125 0 L 5.96875 -5.421875 C 5.625 -5.421875 5.410156 -5.179688 5.328125 -4.703125 L 4.4375 0 L 0.171875 0 L 1.3125 -5.65625 C 1.8125 -8.207031 2.992188 -9.484375 4.859375 -9.484375 L 5.65625 -9.484375 L 5.65625 -13.65625 C 5.65625 -14.195312 5.347656 -14.46875 4.734375 -14.46875 L 1.328125 -14.46875 L 1.328125 -19.578125 L 6.84375 -19.578125 C 9.257812 -19.578125 10.46875 -18.304688 10.46875 -15.765625 L 10.46875 -9.1875 C 10.46875 -8.5 10.484375 -7.859375 10.515625 -7.265625 C 10.554688 -6.679688 10.617188 -6.148438 10.703125 -5.671875 Z M 11.609375 0 "/></g></g></g><g fill="#cf4545" fill-opacity="1"><g transform="translate(121.416232, 160.284963)"><g><path d="M 12.546875 0 L 7.6875 0 L 7.6875 -13.65625 C 7.6875 -14.195312 7.410156 -14.46875 6.859375 -14.46875 L 0.84375 -14.46875 L 0.84375 -19.578125 L 9.09375 -19.578125 C 10.101562 -19.578125 10.9375 -19.25 11.59375 -18.59375 C 12.226562 -17.957031 12.546875 -17.128906 12.546875 -16.109375 Z M 5.625 0 L 0.859375 0 L 0.859375 -12.140625 L 5.625 -12.140625 Z M 5.625 0 "/></g></g></g><g fill="#cf4545" fill-opacity="1"><g transform="translate(134.806557, 160.284963)"><g/></g></g><g fill="#cf4545" fill-opacity="1"><g transform="translate(142.295221, 160.284963)"><g><path d="M 12.96875 -5.15625 C 12.96875 -1.71875 11.554688 0 8.734375 0 L 0.515625 0 L 0.515625 -5.109375 L 1.671875 -5.109375 L 1.671875 -19.578125 L 6.453125 -19.578125 L 6.453125 -5.109375 L 7.40625 -5.109375 C 7.957031 -5.109375 8.234375 -5.488281 8.234375 -6.25 L 8.234375 -19.578125 L 12.96875 -19.578125 Z M 12.96875 -5.15625 "/></g></g></g><g fill="#cf4545" fill-opacity="1"><g transform="translate(156.098827, 160.284963)"><g><path d="M 5.625 0 L 0.84375 0 L 0.84375 -19.578125 L 5.625 -19.578125 Z M 5.625 0 "/></g></g></g><g fill="#cf4545" fill-opacity="1"><g transform="translate(162.562552, 160.284963)"><g><path d="M 10.484375 0 L 5.640625 0 L 5.640625 -13.65625 C 5.640625 -14.195312 5.359375 -14.46875 4.796875 -14.46875 L 0.515625 -14.46875 L 0.515625 -19.578125 L 7.03125 -19.578125 C 8.039062 -19.578125 8.867188 -19.25 9.515625 -18.59375 C 10.160156 -17.957031 10.484375 -17.128906 10.484375 -16.109375 Z M 10.484375 0 "/></g></g></g><g fill="#cf4545" fill-opacity="1"><g transform="translate(173.886469, 160.284963)"><g><path d="M 5.5625 -10.890625 L 0.8125 -10.890625 L 0.8125 -19.578125 L 5.5625 -19.578125 Z M 5.5625 -10.890625 "/></g></g></g><g fill="#cf4545" fill-opacity="1"><g transform="translate(180.284069, 160.284963)"><g><path d="M 8.859375 0 C 8.710938 -0.769531 8.398438 -1.785156 7.921875 -3.046875 C 7.441406 -4.304688 6.789062 -5.832031 5.96875 -7.625 C 5.882812 -7.519531 5.816406 -7.441406 5.765625 -7.390625 C 5.722656 -7.335938 5.695312 -7.304688 5.6875 -7.296875 C 5.675781 -7.242188 5.664062 -7.144531 5.65625 -7 C 5.65625 -6.851562 5.65625 -6.644531 5.65625 -6.375 L 5.65625 0 L 0.875 0 L 0.875 -5.859375 C 0.875 -8.953125 1.828125 -10.957031 3.734375 -11.875 C 1.898438 -15.46875 0.878906 -18.035156 0.671875 -19.578125 L 5.65625 -19.578125 C 5.894531 -18.472656 6.253906 -17.304688 6.734375 -16.078125 C 7.210938 -14.859375 7.816406 -13.5625 8.546875 -12.1875 C 8.816406 -12.382812 8.953125 -12.789062 8.953125 -13.40625 L 8.953125 -19.578125 L 13.78125 -19.578125 L 13.78125 -12.9375 C 13.78125 -11.945312 13.476562 -10.984375 12.875 -10.046875 C 12.269531 -9.117188 11.519531 -8.414062 10.625 -7.9375 C 12.6875 -3.832031 13.738281 -1.1875 13.78125 0 Z M 8.859375 0 "/></g></g></g><g fill="#cf4545" fill-opacity="1"><g transform="translate(194.748926, 160.284963)"><g><path d="M 12.015625 0 L 0.84375 0 L 0.84375 -5.109375 L 4.5625 -5.109375 C 5.65625 -5.109375 6.203125 -5.753906 6.203125 -7.046875 L 6.203125 -12.90625 C 6.203125 -13.476562 6.101562 -13.878906 5.90625 -14.109375 C 5.707031 -14.347656 5.328125 -14.46875 4.765625 -14.46875 L 0.84375 -14.46875 L 0.84375 -19.578125 L 7.28125 -19.578125 C 9.800781 -19.578125 11.0625 -18.082031 11.0625 -15.09375 L 11.0625 -8.40625 C 11.0625 -6.664062 10.414062 -5.566406 9.125 -5.109375 L 12.015625 -5.109375 Z M 12.015625 0 "/></g></g></g><g fill="#ffffff" fill-opacity="1"><g transform="translate(187.161454, 74.129414)"><g><path d="M 40.9375 -28.328125 L 39.109375 -22.46875 L 32.4375 -23.234375 L 30.546875 -16.421875 L 37.234375 -15.65625 L 35.8125 -10.03125 L 28.984375 -10.796875 L 27.109375 -3.46875 L 20.78125 -4.1875 L 22.625 -11.53125 L 16.59375 -12.21875 L 14.59375 -4.890625 L 8.125 -5.625 L 10.3125 -12.921875 L 3.578125 -13.6875 L 5 -19.328125 L 11.859375 -18.546875 L 13.75 -25.359375 L 6.9375 -26.125 L 8.625 -32 L 15.53125 -31.21875 L 17.4375 -38.21875 L 23.90625 -37.484375 L 21.921875 -30.484375 L 27.515625 -29.84375 L 29.359375 -36.859375 L 35.71875 -36.140625 L 33.921875 -29.125 Z M 26.015625 -23.953125 L 20.046875 -24.640625 L 18.234375 -17.8125 L 24.1875 -17.140625 Z M 26.015625 -23.953125 "/></g></g></g><g fill="#ffffff" fill-opacity="1"><g transform="translate(226.391912, 78.595837)"><g><path d="M 24.09375 1.453125 C 24 2.304688 23.570312 2.6875 22.8125 2.59375 L 2.4375 0.28125 C 1.664062 0.1875 1.328125 -0.285156 1.421875 -1.140625 L 1.4375 -1.265625 L 2.984375 -11.375 C 3.148438 -12.644531 3.648438 -13.234375 4.484375 -13.140625 L 15.65625 -11.859375 C 16.382812 -11.773438 16.835938 -12.488281 17.015625 -14 C 17.117188 -14.988281 16.9375 -15.507812 16.46875 -15.5625 L 10.75 -16.21875 C 9.945312 -16.3125 9.601562 -16.847656 9.71875 -17.828125 L 10.03125 -20.53125 C 10.125 -21.34375 10.472656 -21.710938 11.078125 -21.640625 L 11.25 -21.625 L 16.109375 -21.0625 C 16.859375 -20.976562 17.289062 -21.472656 17.40625 -22.546875 L 17.421875 -22.609375 C 17.554688 -24.003906 17.367188 -24.734375 16.859375 -24.796875 L 6.90625 -25.921875 C 6.144531 -26.015625 5.828125 -26.597656 5.953125 -27.671875 L 5.953125 -27.734375 L 7.671875 -38.03125 C 7.804688 -39.007812 8.304688 -39.445312 9.171875 -39.34375 L 25.265625 -37.515625 C 26.085938 -37.421875 26.460938 -36.882812 26.390625 -35.90625 L 24.109375 1.328125 Z M 24.09375 1.453125 "/></g></g></g></svg>