<svg xmlns="http://www.w3.org/2000/svg" xmlns:xlink="http://www.w3.org/1999/xlink" width="1066" zoomAndPan="magnify" viewBox="0 0 799.5 277.499997" height="370" preserveAspectRatio="xMidYMid meet" version="1.0"><defs><g/><clipPath id="1b05c6e00d"><path d="M 32 51 L 276 51 L 276 236 L 32 236 Z M 32 51 " clip-rule="nonzero"/></clipPath><clipPath id="0eae49ab95"><path d="M 225.246094 268.417969 L 0.59375 201.78125 L 54.457031 20.195312 L 279.109375 86.828125 Z M 225.246094 268.417969 " clip-rule="nonzero"/></clipPath><clipPath id="655ea4ecd3"><path d="M 225.246094 268.417969 L 0.59375 201.78125 L 54.457031 20.195312 L 279.109375 86.828125 Z M 225.246094 268.417969 " clip-rule="nonzero"/></clipPath></defs><g fill="#ffffff" fill-opacity="0.4"><g transform="translate(677.46005, 198.461727)"><g><path d="M 67.40625 5.0625 C 67.15625 7.132812 66.023438 8.046875 64.015625 7.796875 L 35.0625 4.28125 C 33.050781 4.03125 32.175781 2.847656 32.4375 0.734375 L 32.453125 0.578125 L 36.828125 -23.796875 C 37.304688 -26.347656 38.582031 -27.5 40.65625 -27.25 L 46.6875 -26.515625 C 47.664062 -26.398438 48.210938 -26.832031 48.328125 -27.8125 C 48.347656 -28.019531 48.335938 -28.148438 48.296875 -28.203125 L 49.859375 -55.1875 C 49.960938 -56.488281 49.445312 -57.207031 48.3125 -57.34375 L 38.3125 -58.5625 C 37.238281 -58.695312 36.597656 -58.117188 36.390625 -56.828125 L 25.953125 -0.21875 C 25.523438 1.976562 24.273438 2.953125 22.203125 2.703125 L 7.421875 0.90625 C 5.410156 0.65625 4.535156 -0.523438 4.796875 -2.640625 L 4.8125 -2.796875 L 21.015625 -89.265625 C 21.453125 -91.566406 22.753906 -92.585938 24.921875 -92.328125 L 69.65625 -86.875 C 71.726562 -86.625 72.703125 -85.328125 72.578125 -82.984375 L 67.4375 4.84375 Z M 67.40625 5.0625 "/></g></g></g><g fill="#ffffff" fill-opacity="0.4"><g transform="translate(608.643376, 192.385118)"><g><path d="M 65.828125 2.734375 C 65.640625 4.804688 64.539062 5.753906 62.53125 5.578125 L 7.453125 0.671875 C 5.429688 0.484375 4.515625 -0.671875 4.703125 -2.796875 L 4.71875 -2.953125 L 8.40625 -27.59375 C 8.78125 -30.0625 10.007812 -31.203125 12.09375 -31.015625 L 42.453125 -28.3125 C 44.367188 -28.144531 45.394531 -28.8125 45.53125 -30.3125 L 45.546875 -30.546875 L 46.421875 -57.09375 C 46.421875 -58.1875 45.585938 -58.804688 43.921875 -58.953125 L 37.40625 -59.53125 C 35.851562 -59.675781 34.9375 -59.003906 34.65625 -57.515625 L 31.75 -41.71875 C 31.425781 -39.820312 30.175781 -38.96875 28 -39.15625 L 13.25 -40.46875 C 11.320312 -40.644531 10.445312 -41.71875 10.625 -43.6875 L 10.640625 -43.921875 L 19.046875 -89.828125 C 19.460938 -92.140625 20.726562 -93.203125 22.84375 -93.015625 L 65.34375 -89.21875 C 67.414062 -89.039062 68.425781 -87.773438 68.375 -85.421875 L 65.84375 2.5 Z M 65.828125 2.734375 "/></g></g></g><g fill="#ffffff" fill-opacity="0.4"><g transform="translate(536.916808, 188.318005)"><g><path d="M 69.546875 0.921875 C 69.429688 2.898438 68.410156 3.835938 66.484375 3.734375 L 52.328125 2.9375 C 50.140625 2.8125 49.03125 1.625 49 -0.625 L 48.03125 -58.234375 C 48 -59.429688 47.460938 -60.0625 46.421875 -60.125 L 38.78125 -60.546875 C 37.695312 -60.609375 37.066406 -60.046875 36.890625 -58.859375 L 30.78125 -1.640625 C 30.601562 0.597656 29.425781 1.65625 27.25 1.53125 L 6.6875 0.375 C 4.675781 0.257812 3.734375 -0.890625 3.859375 -3.078125 L 3.859375 -3.15625 L 6.5 -28.140625 C 6.675781 -30.472656 7.804688 -31.582031 9.890625 -31.46875 L 12.15625 -31.34375 C 13.25 -31.28125 13.875 -31.765625 14.03125 -32.796875 L 17.125 -60.125 L 17.125 -60.359375 C 17.1875 -61.296875 16.753906 -61.789062 15.828125 -61.84375 L 13.09375 -62 C 10.851562 -62.125 9.75 -63.398438 9.78125 -65.828125 L 10.015625 -90.734375 L 10.03125 -91.203125 C 10.144531 -93.222656 11.160156 -94.179688 13.078125 -94.078125 L 66.03125 -91.109375 C 68.101562 -90.992188 69.15625 -89.765625 69.1875 -87.421875 L 69.5625 0.53125 Z M 69.546875 0.921875 "/></g></g></g><g fill="#ffffff" fill-opacity="0.4"><g transform="translate(502.231662, 187.507207)"><g/></g></g><g fill="#ffffff" fill-opacity="0.4"><g transform="translate(454.311917, 186.872507)"><g><path d="M 44.796875 -2.515625 C 44.773438 -0.484375 43.75 0.519531 41.71875 0.5 L 6.078125 0.078125 C 4.160156 0.046875 3.210938 -0.984375 3.234375 -3.015625 L 3.25 -3.328125 L 5.953125 -28.5625 C 6.179688 -30.78125 7.3125 -31.878906 9.34375 -31.859375 L 20.8125 -31.71875 C 22 -31.707031 22.597656 -32.039062 22.609375 -32.71875 L 22.609375 -32.953125 L 20.703125 -61.0625 C 20.609375 -61.945312 20.015625 -62.394531 18.921875 -62.40625 L 14.625 -62.453125 C 12.601562 -62.484375 11.601562 -63.507812 11.625 -65.53125 L 11.625 -65.6875 L 13.71875 -91 C 13.894531 -93.34375 15.078125 -94.503906 17.265625 -94.484375 L 37.234375 -94.234375 C 39.304688 -94.210938 40.410156 -93.03125 40.546875 -90.6875 L 44.734375 -2.828125 C 44.785156 -2.773438 44.804688 -2.671875 44.796875 -2.515625 Z M 44.796875 -2.515625 "/></g></g></g><g fill="#ffffff" fill-opacity="0.4"><g transform="translate(418.72071, 187.211217)"><g><path d="M 31.234375 -3.4375 C 31.253906 -1.300781 30.488281 -0.226562 28.9375 -0.21875 L 13.09375 -0.09375 C 11.175781 -0.0820312 10.207031 -1.144531 10.1875 -3.28125 L 9.75 -61.375 C 9.75 -62.363281 9.382812 -62.851562 8.65625 -62.84375 L 7.796875 -62.84375 C 6.492188 -62.832031 5.753906 -63.890625 5.578125 -66.015625 L 3.75 -91.1875 L 3.75 -91.421875 C 3.726562 -93.609375 4.734375 -94.710938 6.765625 -94.734375 L 27.359375 -94.890625 C 29.484375 -94.898438 30.554688 -93.734375 30.578125 -91.390625 Z M 31.234375 -3.4375 "/></g></g></g><g fill="#ffffff" fill-opacity="0.4"><g transform="translate(332.057336, 189.958915)"><g><path d="M 52.3125 -47.296875 C 52.394531 -45.054688 51.210938 -43.890625 48.765625 -43.796875 L 35.515625 -43.328125 C 32.867188 -43.234375 31.503906 -44.304688 31.421875 -46.546875 L 29.765625 -92.671875 C 29.691406 -94.753906 30.976562 -95.84375 33.625 -95.9375 L 46.875 -96.40625 C 49.320312 -96.5 50.582031 -95.503906 50.65625 -93.421875 Z M 80.046875 -94.234375 L 77.734375 -6.296875 C 77.660156 -3.953125 76.53125 -2.738281 74.34375 -2.65625 L 12.921875 -0.46875 C 10.859375 -0.382812 9.707031 -1.515625 9.46875 -3.859375 L 1.171875 -91.40625 L 1.140625 -92.265625 C 1.078125 -93.929688 1.800781 -94.789062 3.3125 -94.84375 L 19.4375 -95.421875 C 21.101562 -95.484375 22.054688 -94.398438 22.296875 -92.171875 L 28.046875 -34.40625 C 28.117188 -33.570312 28.644531 -33.171875 29.625 -33.203125 L 55.96875 -34.15625 C 56.75 -34.1875 57.175781 -34.671875 57.25 -35.609375 L 59.46875 -93.5 C 59.539062 -95.738281 60.507812 -96.894531 62.375 -96.96875 L 77.34375 -97.5 C 79.0625 -97.5625 79.957031 -96.578125 80.03125 -94.546875 Z M 80.046875 -94.234375 "/></g></g></g><g fill="#ffffff" fill-opacity="0.4"><g transform="translate(264.848891, 194.978177)"><g><path d="M 59.734375 -97.15625 C 59.753906 -96.738281 59.75 -96.425781 59.71875 -96.21875 L 53.390625 -32.671875 L 65.625 -7.125 C 65.75 -6.820312 65.820312 -6.566406 65.84375 -6.359375 C 65.914062 -5.265625 65.148438 -4.660156 63.546875 -4.546875 L 41.765625 -2.984375 C 40.265625 -2.878906 39.148438 -3.5625 38.421875 -5.03125 L 25.390625 -31.90625 L 23.53125 -4.4375 C 23.394531 -2.59375 22.453125 -1.609375 20.703125 -1.484375 L 4.578125 -0.328125 C 3.191406 -0.222656 2.453125 -0.820312 2.359375 -2.125 C 2.335938 -2.382812 2.347656 -2.597656 2.390625 -2.765625 L 8.390625 -66.265625 L -3.390625 -92.015625 C -3.617188 -92.460938 -3.75 -92.894531 -3.78125 -93.3125 C -3.84375 -94.1875 -3.414062 -94.660156 -2.5 -94.734375 L 19.375 -96.296875 C 20.769531 -96.390625 21.84375 -95.632812 22.59375 -94.03125 L 35.375 -67.015625 L 38 -95.125 C 38.132812 -96.800781 38.972656 -97.695312 40.515625 -97.8125 L 57.546875 -99.03125 C 58.898438 -99.125 59.628906 -98.5 59.734375 -97.15625 Z M 59.734375 -97.15625 "/></g></g></g><g fill="#ffffff" fill-opacity="0.4"><g transform="translate(228.415559, 198.686887)"><g><path d="M 28.6875 -43.796875 C 28.882812 -41.679688 28.128906 -40.546875 26.421875 -40.390625 L 10.828125 -38.890625 C 8.972656 -38.710938 7.945312 -39.679688 7.75 -41.796875 L 5.8125 -61.984375 C 5.707031 -63.078125 5.109375 -63.570312 4.015625 -63.46875 L 2.765625 -63.34375 C 1.109375 -63.1875 0.0976562 -64.15625 -0.265625 -66.25 L -4.296875 -91.15625 L -4.328125 -91.46875 C -4.535156 -93.59375 -3.628906 -94.753906 -1.609375 -94.953125 L 20.34375 -97.0625 C 22.46875 -97.257812 23.644531 -96.191406 23.875 -93.859375 Z M 28.6875 -43.796875 "/></g></g></g><g fill="#ffffff" fill-opacity="0.4"><g transform="translate(157.139466, 207.173948)"><g><path d="M 67.828125 -11.328125 C 68.078125 -9.304688 67.191406 -8.171875 65.171875 -7.921875 L 7.421875 -0.90625 C 5.410156 -0.65625 4.28125 -1.566406 4.03125 -3.640625 L 4 -3.859375 L -1.1875 -91.6875 C -1.3125 -94.03125 -0.34375 -95.328125 1.71875 -95.578125 L 48.171875 -101.234375 C 50.222656 -101.484375 51.46875 -100.453125 51.90625 -98.140625 L 67.796875 -11.625 Z M 41.796875 -38.703125 L 36.125 -66.53125 C 35.945312 -67.144531 35.601562 -67.421875 35.09375 -67.359375 L 22.234375 -65.796875 C 21.460938 -65.703125 21.09375 -65.335938 21.125 -64.703125 L 22.90625 -36.40625 L 22.921875 -36.328125 C 23.023438 -35.453125 23.570312 -35.070312 24.5625 -35.1875 L 40.5 -37.125 C 41.476562 -37.25 41.921875 -37.695312 41.828125 -38.46875 Z M 41.796875 -38.703125 "/></g></g></g><g fill="#f8f6e9" fill-opacity="1"><g transform="translate(677.46005, 184.886209)"><g><path d="M 67.40625 5.0625 C 67.15625 7.132812 66.023438 8.046875 64.015625 7.796875 L 35.0625 4.28125 C 33.050781 4.03125 32.175781 2.847656 32.4375 0.734375 L 32.453125 0.578125 L 36.828125 -23.796875 C 37.304688 -26.347656 38.582031 -27.5 40.65625 -27.25 L 46.6875 -26.515625 C 47.664062 -26.398438 48.210938 -26.832031 48.328125 -27.8125 C 48.347656 -28.019531 48.335938 -28.148438 48.296875 -28.203125 L 49.859375 -55.1875 C 49.960938 -56.488281 49.445312 -57.207031 48.3125 -57.34375 L 38.3125 -58.5625 C 37.238281 -58.695312 36.597656 -58.117188 36.390625 -56.828125 L 25.953125 -0.21875 C 25.523438 1.976562 24.273438 2.953125 22.203125 2.703125 L 7.421875 0.90625 C 5.410156 0.65625 4.535156 -0.523438 4.796875 -2.640625 L 4.8125 -2.796875 L 21.015625 -89.265625 C 21.453125 -91.566406 22.753906 -92.585938 24.921875 -92.328125 L 69.65625 -86.875 C 71.726562 -86.625 72.703125 -85.328125 72.578125 -82.984375 L 67.4375 4.84375 Z M 67.40625 5.0625 "/></g></g></g><g fill="#f8f6e9" fill-opacity="1"><g transform="translate(608.643376, 178.809604)"><g><path d="M 65.828125 2.734375 C 65.640625 4.804688 64.539062 5.753906 62.53125 5.578125 L 7.453125 0.671875 C 5.429688 0.484375 4.515625 -0.671875 4.703125 -2.796875 L 4.71875 -2.953125 L 8.40625 -27.59375 C 8.78125 -30.0625 10.007812 -31.203125 12.09375 -31.015625 L 42.453125 -28.3125 C 44.367188 -28.144531 45.394531 -28.8125 45.53125 -30.3125 L 45.546875 -30.546875 L 46.421875 -57.09375 C 46.421875 -58.1875 45.585938 -58.804688 43.921875 -58.953125 L 37.40625 -59.53125 C 35.851562 -59.675781 34.9375 -59.003906 34.65625 -57.515625 L 31.75 -41.71875 C 31.425781 -39.820312 30.175781 -38.96875 28 -39.15625 L 13.25 -40.46875 C 11.320312 -40.644531 10.445312 -41.71875 10.625 -43.6875 L 10.640625 -43.921875 L 19.046875 -89.828125 C 19.460938 -92.140625 20.726562 -93.203125 22.84375 -93.015625 L 65.34375 -89.21875 C 67.414062 -89.039062 68.425781 -87.773438 68.375 -85.421875 L 65.84375 2.5 Z M 65.828125 2.734375 "/></g></g></g><g fill="#f8f6e9" fill-opacity="1"><g transform="translate(536.916808, 174.742486)"><g><path d="M 69.546875 0.921875 C 69.429688 2.898438 68.410156 3.835938 66.484375 3.734375 L 52.328125 2.9375 C 50.140625 2.8125 49.03125 1.625 49 -0.625 L 48.03125 -58.234375 C 48 -59.429688 47.460938 -60.0625 46.421875 -60.125 L 38.78125 -60.546875 C 37.695312 -60.609375 37.066406 -60.046875 36.890625 -58.859375 L 30.78125 -1.640625 C 30.601562 0.597656 29.425781 1.65625 27.25 1.53125 L 6.6875 0.375 C 4.675781 0.257812 3.734375 -0.890625 3.859375 -3.078125 L 3.859375 -3.15625 L 6.5 -28.140625 C 6.675781 -30.472656 7.804688 -31.582031 9.890625 -31.46875 L 12.15625 -31.34375 C 13.25 -31.28125 13.875 -31.765625 14.03125 -32.796875 L 17.125 -60.125 L 17.125 -60.359375 C 17.1875 -61.296875 16.753906 -61.789062 15.828125 -61.84375 L 13.09375 -62 C 10.851562 -62.125 9.75 -63.398438 9.78125 -65.828125 L 10.015625 -90.734375 L 10.03125 -91.203125 C 10.144531 -93.222656 11.160156 -94.179688 13.078125 -94.078125 L 66.03125 -91.109375 C 68.101562 -90.992188 69.15625 -89.765625 69.1875 -87.421875 L 69.5625 0.53125 Z M 69.546875 0.921875 "/></g></g></g><g fill="#f8f6e9" fill-opacity="1"><g transform="translate(502.231662, 173.931688)"><g/></g></g><g fill="#f8f6e9" fill-opacity="1"><g transform="translate(454.311917, 173.296989)"><g><path d="M 44.796875 -2.515625 C 44.773438 -0.484375 43.75 0.519531 41.71875 0.5 L 6.078125 0.078125 C 4.160156 0.046875 3.210938 -0.984375 3.234375 -3.015625 L 3.25 -3.328125 L 5.953125 -28.5625 C 6.179688 -30.78125 7.3125 -31.878906 9.34375 -31.859375 L 20.8125 -31.71875 C 22 -31.707031 22.597656 -32.039062 22.609375 -32.71875 L 22.609375 -32.953125 L 20.703125 -61.0625 C 20.609375 -61.945312 20.015625 -62.394531 18.921875 -62.40625 L 14.625 -62.453125 C 12.601562 -62.484375 11.601562 -63.507812 11.625 -65.53125 L 11.625 -65.6875 L 13.71875 -91 C 13.894531 -93.34375 15.078125 -94.503906 17.265625 -94.484375 L 37.234375 -94.234375 C 39.304688 -94.210938 40.410156 -93.03125 40.546875 -90.6875 L 44.734375 -2.828125 C 44.785156 -2.773438 44.804688 -2.671875 44.796875 -2.515625 Z M 44.796875 -2.515625 "/></g></g></g><g fill="#f8f6e9" fill-opacity="1"><g transform="translate(418.72071, 173.635699)"><g><path d="M 31.234375 -3.4375 C 31.253906 -1.300781 30.488281 -0.226562 28.9375 -0.21875 L 13.09375 -0.09375 C 11.175781 -0.0820312 10.207031 -1.144531 10.1875 -3.28125 L 9.75 -61.375 C 9.75 -62.363281 9.382812 -62.851562 8.65625 -62.84375 L 7.796875 -62.84375 C 6.492188 -62.832031 5.753906 -63.890625 5.578125 -66.015625 L 3.75 -91.1875 L 3.75 -91.421875 C 3.726562 -93.609375 4.734375 -94.710938 6.765625 -94.734375 L 27.359375 -94.890625 C 29.484375 -94.898438 30.554688 -93.734375 30.578125 -91.390625 Z M 31.234375 -3.4375 "/></g></g></g><g fill="#f8f6e9" fill-opacity="1"><g transform="translate(332.057336, 176.383401)"><g><path d="M 52.3125 -47.296875 C 52.394531 -45.054688 51.210938 -43.890625 48.765625 -43.796875 L 35.515625 -43.328125 C 32.867188 -43.234375 31.503906 -44.304688 31.421875 -46.546875 L 29.765625 -92.671875 C 29.691406 -94.753906 30.976562 -95.84375 33.625 -95.9375 L 46.875 -96.40625 C 49.320312 -96.5 50.582031 -95.503906 50.65625 -93.421875 Z M 80.046875 -94.234375 L 77.734375 -6.296875 C 77.660156 -3.953125 76.53125 -2.738281 74.34375 -2.65625 L 12.921875 -0.46875 C 10.859375 -0.382812 9.707031 -1.515625 9.46875 -3.859375 L 1.171875 -91.40625 L 1.140625 -92.265625 C 1.078125 -93.929688 1.800781 -94.789062 3.3125 -94.84375 L 19.4375 -95.421875 C 21.101562 -95.484375 22.054688 -94.398438 22.296875 -92.171875 L 28.046875 -34.40625 C 28.117188 -33.570312 28.644531 -33.171875 29.625 -33.203125 L 55.96875 -34.15625 C 56.75 -34.1875 57.175781 -34.671875 57.25 -35.609375 L 59.46875 -93.5 C 59.539062 -95.738281 60.507812 -96.894531 62.375 -96.96875 L 77.34375 -97.5 C 79.0625 -97.5625 79.957031 -96.578125 80.03125 -94.546875 Z M 80.046875 -94.234375 "/></g></g></g><g fill="#f8f6e9" fill-opacity="1"><g transform="translate(264.848891, 181.402661)"><g><path d="M 59.734375 -97.15625 C 59.753906 -96.738281 59.75 -96.425781 59.71875 -96.21875 L 53.390625 -32.671875 L 65.625 -7.125 C 65.75 -6.820312 65.820312 -6.566406 65.84375 -6.359375 C 65.914062 -5.265625 65.148438 -4.660156 63.546875 -4.546875 L 41.765625 -2.984375 C 40.265625 -2.878906 39.148438 -3.5625 38.421875 -5.03125 L 25.390625 -31.90625 L 23.53125 -4.4375 C 23.394531 -2.59375 22.453125 -1.609375 20.703125 -1.484375 L 4.578125 -0.328125 C 3.191406 -0.222656 2.453125 -0.820312 2.359375 -2.125 C 2.335938 -2.382812 2.347656 -2.597656 2.390625 -2.765625 L 8.390625 -66.265625 L -3.390625 -92.015625 C -3.617188 -92.460938 -3.75 -92.894531 -3.78125 -93.3125 C -3.84375 -94.1875 -3.414062 -94.660156 -2.5 -94.734375 L 19.375 -96.296875 C 20.769531 -96.390625 21.84375 -95.632812 22.59375 -94.03125 L 35.375 -67.015625 L 38 -95.125 C 38.132812 -96.800781 38.972656 -97.695312 40.515625 -97.8125 L 57.546875 -99.03125 C 58.898438 -99.125 59.628906 -98.5 59.734375 -97.15625 Z M 59.734375 -97.15625 "/></g></g></g><g fill="#f8f6e9" fill-opacity="1"><g transform="translate(228.415559, 185.111374)"><g><path d="M 28.6875 -43.796875 C 28.882812 -41.679688 28.128906 -40.546875 26.421875 -40.390625 L 10.828125 -38.890625 C 8.972656 -38.710938 7.945312 -39.679688 7.75 -41.796875 L 5.8125 -61.984375 C 5.707031 -63.078125 5.109375 -63.570312 4.015625 -63.46875 L 2.765625 -63.34375 C 1.109375 -63.1875 0.0976562 -64.15625 -0.265625 -66.25 L -4.296875 -91.15625 L -4.328125 -91.46875 C -4.535156 -93.59375 -3.628906 -94.753906 -1.609375 -94.953125 L 20.34375 -97.0625 C 22.46875 -97.257812 23.644531 -96.191406 23.875 -93.859375 Z M 28.6875 -43.796875 "/></g></g></g><g fill="#f8f6e9" fill-opacity="1"><g transform="translate(157.139466, 193.59843)"><g><path d="M 67.828125 -11.328125 C 68.078125 -9.304688 67.191406 -8.171875 65.171875 -7.921875 L 7.421875 -0.90625 C 5.410156 -0.65625 4.28125 -1.566406 4.03125 -3.640625 L 4 -3.859375 L -1.1875 -91.6875 C -1.3125 -94.03125 -0.34375 -95.328125 1.71875 -95.578125 L 48.171875 -101.234375 C 50.222656 -101.484375 51.46875 -100.453125 51.90625 -98.140625 L 67.796875 -11.625 Z M 41.796875 -38.703125 L 36.125 -66.53125 C 35.945312 -67.144531 35.601562 -67.421875 35.09375 -67.359375 L 22.234375 -65.796875 C 21.460938 -65.703125 21.09375 -65.335938 21.125 -64.703125 L 22.90625 -36.40625 L 22.921875 -36.328125 C 23.023438 -35.453125 23.570312 -35.070312 24.5625 -35.1875 L 40.5 -37.125 C 41.476562 -37.25 41.921875 -37.695312 41.828125 -38.46875 Z M 41.796875 -38.703125 "/></g></g></g><g clip-path="url(#1b05c6e00d)"><g clip-path="url(#0eae49ab95)"><g clip-path="url(#655ea4ecd3)"><path fill="#f8f6e9" d="M 205.035156 65.269531 C 231.628906 73.15625 255.667969 83.699219 275.730469 95.648438 C 261.46875 88.949219 245.863281 82.992188 229.265625 78.066406 C 146.058594 53.386719 69.496094 64.097656 58.257812 101.992188 C 50.613281 127.765625 75.175781 159.480469 117.867188 184.910156 C 60.625 158.070312 25.03125 119.523438 34.035156 89.179688 C 45.269531 51.296875 121.832031 40.589844 205.035156 65.269531 Z M 159.199219 209.554688 L 159.035156 210.109375 C 125.816406 200.257812 121.808594 204.929688 112.835938 235.183594 L 112.28125 235.019531 C 121.253906 204.765625 120.425781 198.65625 87.210938 188.804688 L 87.375 188.25 C 120.59375 198.101562 124.609375 193.445312 133.582031 163.195312 L 134.140625 163.359375 C 125.167969 193.613281 125.980469 199.699219 159.199219 209.554688 " fill-opacity="1" fill-rule="evenodd"/></g></g></g></svg>