<svg xmlns="http://www.w3.org/2000/svg" xmlns:xlink="http://www.w3.org/1999/xlink" width="496" zoomAndPan="magnify" viewBox="0 0 372 261.749984" height="349" preserveAspectRatio="xMidYMid meet" version="1.0"><defs><g/><clipPath id="65ab030dfd"><path d="M 11.34375 38.007812 L 371 38.007812 L 371 261.292969 L 11.34375 261.292969 Z M 11.34375 38.007812 " clip-rule="nonzero"/></clipPath><clipPath id="0cc62d5686"><path d="M 0.175781 20.460938 L 359.832031 20.460938 L 359.832031 243.75 L 0.175781 243.75 Z M 0.175781 20.460938 " clip-rule="nonzero"/></clipPath></defs><g clip-path="url(#65ab030dfd)"><path fill="#cf4545" d="M 133.085938 38.015625 L 150.621094 103.9375 L 371.160156 95.734375 L 163.3125 172.539062 L 193.847656 261.039062 L 109.824219 198.601562 L 23.066406 247.355469 L 68.152344 162.277344 L 11.308594 114.886719 L 89.554688 108.046875 Z M 133.085938 38.015625 " fill-opacity="1" fill-rule="nonzero"/></g><g clip-path="url(#0cc62d5686)"><path fill="#ffcf7e" d="M 121.921875 20.46875 L 139.457031 86.394531 L 359.996094 78.1875 L 152.148438 154.996094 L 182.679688 243.496094 L 98.660156 181.058594 L 11.902344 229.8125 L 56.988281 144.734375 L 0.144531 97.34375 L 78.390625 90.5 Z M 121.921875 20.46875 " fill-opacity="1" fill-rule="nonzero"/></g><g fill="#cf4545" fill-opacity="1"><g transform="translate(78.207789, 140.7469)"><g><path d="M 7.328125 -14.375 L 1.0625 -14.375 L 1.0625 -25.8125 L 7.328125 -25.8125 Z M 7.328125 -14.375 "/></g></g><g transform="translate(86.646754, 140.7469)"><g><path d="M 15.421875 -9.328125 C 15.421875 -3.109375 12.4375 0 6.46875 0 L 3.75 0 L 3.75 -6.734375 L 5.578125 -6.734375 C 6.992188 -6.734375 7.953125 -7.1875 8.453125 -8.09375 C 8.816406 -8.726562 9 -9.835938 9 -11.421875 L 9 -18.015625 C 9 -18.722656 8.640625 -19.078125 7.921875 -19.078125 L 1.109375 -19.078125 L 1.109375 -29.015625 L 7.4375 -29.015625 L 7.4375 -25.8125 L 12.1875 -25.8125 C 14.34375 -25.8125 15.421875 -24.773438 15.421875 -22.703125 Z M 15.421875 -9.328125 "/></g></g><g transform="translate(103.175787, 140.7469)"><g><path d="M 15.421875 -9.328125 C 15.421875 -3.109375 12.4375 0 6.46875 0 L 3.75 0 L 3.75 -6.734375 L 5.578125 -6.734375 C 6.992188 -6.734375 7.953125 -7.1875 8.453125 -8.09375 C 8.816406 -8.726562 9 -9.835938 9 -11.421875 L 9 -18.015625 C 9 -18.722656 8.640625 -19.078125 7.921875 -19.078125 L 1.109375 -19.078125 L 1.109375 -29.015625 L 7.4375 -29.015625 L 7.4375 -25.8125 L 12.1875 -25.8125 C 14.34375 -25.8125 15.421875 -24.773438 15.421875 -22.703125 Z M 15.421875 -9.328125 "/></g></g><g transform="translate(119.704821, 140.7469)"><g><path d="M 14.78125 -6.359375 C 14.78125 -2.117188 12.78125 0 8.78125 0 L 1.109375 0 L 1.109375 -6.734375 L 6.453125 -6.734375 C 7.773438 -6.734375 8.4375 -7.351562 8.4375 -8.59375 L 8.4375 -17.21875 C 8.4375 -18.457031 7.773438 -19.078125 6.453125 -19.078125 L 1.109375 -19.078125 L 1.109375 -25.8125 L 8.78125 -25.8125 C 12.78125 -25.8125 14.78125 -23.691406 14.78125 -19.453125 Z M 14.78125 -6.359375 "/></g></g></g><g fill="#ffffff" fill-opacity="1"><g transform="translate(148.978348, 78.275171)"><g><path d="M 35.265625 -35.453125 L 34.53125 -29.34375 L 27.796875 -28.875 L 27.203125 -21.8125 L 33.9375 -22.28125 L 33.5625 -16.46875 L 26.65625 -15.984375 L 26.171875 -8.375 L 19.765625 -7.9375 L 20.265625 -15.546875 L 14.171875 -15.109375 L 13.53125 -7.5 L 7 -7.046875 L 7.84375 -14.671875 L 1.046875 -14.203125 L 1.421875 -20.015625 L 8.328125 -20.5 L 8.9375 -27.5625 L 2.078125 -27.09375 L 2.6875 -33.1875 L 9.65625 -33.671875 L 10.25 -40.953125 L 16.78125 -41.40625 L 16.109375 -34.125 L 21.75 -34.515625 L 22.28125 -41.796875 L 28.703125 -42.234375 L 28.203125 -34.96875 Z M 21.34375 -28.421875 L 15.3125 -28 L 14.78125 -20.953125 L 20.765625 -21.375 Z M 21.34375 -28.421875 "/></g></g></g><g fill="#ffffff" fill-opacity="1"><g transform="translate(188.555027, 75.523198)"><g><path d="M 24.203125 -2.953125 C 24.265625 -2.109375 23.90625 -1.660156 23.125 -1.609375 L 2.1875 -0.15625 C 1.414062 -0.101562 1 -0.53125 0.9375 -1.4375 L 0.9375 -1.5 L 0.671875 -11.90625 C 0.617188 -13.0625 1.015625 -13.664062 1.859375 -13.71875 L 8.21875 -14.171875 L 7.390625 -26.09375 L 2.96875 -21.828125 C 2.5625 -21.421875 2.164062 -21.203125 1.78125 -21.171875 C 1.238281 -21.140625 0.941406 -21.5 0.890625 -22.25 C 0.878906 -22.382812 0.882812 -22.472656 0.90625 -22.515625 L 0.96875 -33.84375 C 0.957031 -34.425781 0.984375 -34.835938 1.046875 -35.078125 C 1.148438 -35.484375 1.375 -35.832031 1.71875 -36.125 L 5.65625 -39.390625 L 6.484375 -40.390625 C 6.785156 -40.742188 7.125 -40.9375 7.5 -40.96875 L 13.828125 -41.40625 C 14.648438 -41.457031 15.09375 -41.035156 15.15625 -40.140625 L 15.15625 -40.109375 L 16.921875 -14.765625 L 21.546875 -15.09375 C 22.378906 -15.15625 22.867188 -14.539062 23.015625 -13.25 L 24.203125 -3.109375 Z M 24.203125 -2.953125 "/></g></g></g></svg>