<svg xmlns="http://www.w3.org/2000/svg" xmlns:xlink="http://www.w3.org/1999/xlink" width="1542" zoomAndPan="magnify" viewBox="0 0 1156.5 137.999998" height="184" preserveAspectRatio="xMidYMid meet" version="1.0"><defs><g/><clipPath id="739700cd19"><path d="M 1096 30 L 1150 30 L 1150 87 L 1096 87 Z M 1096 30 " clip-rule="nonzero"/></clipPath><clipPath id="6c9d597bcb"><path d="M 1102.511719 22.105469 L 1155.976562 39.5 L 1139.515625 90.117188 L 1086.046875 72.722656 Z M 1102.511719 22.105469 " clip-rule="nonzero"/></clipPath><clipPath id="b444c2cb7b"><path d="M 1102.511719 22.105469 L 1155.976562 39.5 L 1139.515625 90.117188 L 1086.046875 72.722656 Z M 1102.511719 22.105469 " clip-rule="nonzero"/></clipPath><clipPath id="67b2b56ee9"><path d="M 10 10 L 80 10 L 80 80 L 10 80 Z M 10 10 " clip-rule="nonzero"/></clipPath><clipPath id="b5b1222a29"><path d="M 0 20.722656 L 69.695312 -0.0351562 L 90.449219 69.660156 L 20.753906 90.414062 Z M 0 20.722656 " clip-rule="nonzero"/></clipPath><clipPath id="b05da28c6a"><path d="M 0 20.722656 L 69.695312 -0.0351562 L 90.449219 69.660156 L 20.753906 90.414062 Z M 0 20.722656 " clip-rule="nonzero"/></clipPath><clipPath id="948826d99e"><path d="M 18 72 L 42 72 L 42 95 L 18 95 Z M 18 72 " clip-rule="nonzero"/></clipPath><clipPath id="4bb6a3774b"><path d="M 13.667969 78.164062 L 33.4375 65.945312 L 45.261719 85.078125 L 25.492188 97.296875 Z M 13.667969 78.164062 " clip-rule="nonzero"/></clipPath><clipPath id="34389a746e"><path d="M 13.667969 78.164062 L 33.4375 65.945312 L 45.261719 85.078125 L 25.492188 97.296875 Z M 13.667969 78.164062 " clip-rule="nonzero"/></clipPath></defs><g fill="#f8f6e9" fill-opacity="0.4"><g transform="translate(75.678642, 96.94161)"><g><path d="M 34.390625 -1.515625 C 34.390625 -0.503906 33.882812 0 32.875 0 L 3.75 0 C 2.726562 0 2.21875 -0.519531 2.21875 -1.5625 L 2.21875 -1.671875 L 4.953125 -45.640625 C 5.035156 -46.804688 5.597656 -47.390625 6.640625 -47.390625 L 30.0625 -47.390625 C 31.101562 -47.390625 31.660156 -46.804688 31.734375 -45.640625 L 34.390625 -1.671875 Z M 23.109375 -16.703125 L 21.984375 -30.875 C 21.929688 -31.1875 21.773438 -31.34375 21.515625 -31.34375 L 15.03125 -31.34375 C 14.632812 -31.34375 14.425781 -31.1875 14.40625 -30.875 L 13.578125 -16.703125 L 13.578125 -16.671875 C 13.578125 -16.222656 13.828125 -16 14.328125 -16 L 22.375 -16 C 22.863281 -16 23.109375 -16.195312 23.109375 -16.59375 Z M 23.109375 -16.703125 "/></g></g></g><g fill="#f8f6e9" fill-opacity="0.4"><g transform="translate(112.299855, 96.94161)"><g><path d="M 16.390625 -20.453125 C 16.390625 -19.390625 15.960938 -18.859375 15.109375 -18.859375 L 7.265625 -18.859375 C 6.328125 -18.859375 5.859375 -19.390625 5.859375 -20.453125 L 5.859375 -30.609375 C 5.859375 -31.148438 5.582031 -31.421875 5.03125 -31.421875 L 4.40625 -31.421875 C 3.570312 -31.421875 3.117188 -31.957031 3.046875 -33.03125 L 2.21875 -45.640625 L 2.21875 -45.796875 C 2.21875 -46.859375 2.726562 -47.390625 3.75 -47.390625 L 14.796875 -47.390625 C 15.859375 -47.390625 16.390625 -46.804688 16.390625 -45.640625 Z M 16.390625 -20.453125 "/></g></g></g><g fill="#f8f6e9" fill-opacity="0.4"><g transform="translate(131.196089, 96.94161)"><g><path d="M 22.40625 -1.515625 C 22.40625 -0.503906 21.898438 0 20.890625 0 L 3.046875 0 C 2.078125 0 1.59375 -0.503906 1.59375 -1.515625 L 1.59375 -1.671875 L 2.8125 -14.328125 C 2.914062 -15.441406 3.472656 -16 4.484375 -16 L 10.234375 -16 C 10.828125 -16 11.125 -16.171875 11.125 -16.515625 L 11.125 -16.625 L 10 -30.6875 C 9.945312 -31.125 9.644531 -31.34375 9.09375 -31.34375 L 6.953125 -31.34375 C 5.929688 -31.34375 5.421875 -31.851562 5.421875 -32.875 L 5.421875 -32.953125 L 6.328125 -45.640625 C 6.398438 -46.804688 6.984375 -47.390625 8.078125 -47.390625 L 18.078125 -47.390625 C 19.117188 -47.390625 19.675781 -46.804688 19.75 -45.640625 L 22.375 -1.671875 C 22.394531 -1.648438 22.40625 -1.597656 22.40625 -1.515625 Z M 22.40625 -1.515625 "/></g></g></g><g fill="#f8f6e9" fill-opacity="0.4"><g transform="translate(155.831467, 96.94161)"><g><path d="M 15.65625 -1.59375 C 15.65625 -0.53125 15.265625 0 14.484375 0 L 6.5625 0 C 5.59375 0 5.109375 -0.53125 5.109375 -1.59375 L 5.109375 -30.6875 C 5.109375 -31.175781 4.925781 -31.421875 4.5625 -31.421875 L 4.140625 -31.421875 C 3.484375 -31.421875 3.117188 -31.957031 3.046875 -33.03125 L 2.21875 -45.640625 L 2.21875 -45.75 C 2.21875 -46.84375 2.726562 -47.390625 3.75 -47.390625 L 14.046875 -47.390625 C 15.117188 -47.390625 15.65625 -46.804688 15.65625 -45.640625 Z M 15.65625 -1.59375 "/></g></g></g><g fill="#f8f6e9" fill-opacity="0.4"><g transform="translate(174.024948, 96.94161)"><g><path d="M 27.015625 -22.71875 C 27.015625 -21.601562 26.40625 -21.046875 25.1875 -21.046875 L 18.546875 -21.046875 C 17.210938 -21.046875 16.546875 -21.601562 16.546875 -22.71875 L 16.546875 -45.828125 C 16.546875 -46.867188 17.210938 -47.390625 18.546875 -47.390625 L 25.1875 -47.390625 C 26.40625 -47.390625 27.015625 -46.867188 27.015625 -45.828125 Z M 41.734375 -45.71875 L 39 -1.75 C 38.925781 -0.582031 38.34375 0 37.25 0 L 6.484375 0 C 5.441406 0 4.878906 -0.582031 4.796875 -1.75 L 2.21875 -45.71875 L 2.21875 -46.140625 C 2.21875 -46.972656 2.597656 -47.390625 3.359375 -47.390625 L 11.4375 -47.390625 C 12.269531 -47.390625 12.726562 -46.832031 12.8125 -45.71875 L 14.640625 -16.703125 C 14.660156 -16.285156 14.921875 -16.078125 15.421875 -16.078125 L 28.609375 -16.078125 C 29.003906 -16.078125 29.226562 -16.3125 29.28125 -16.78125 L 31.421875 -45.71875 C 31.503906 -46.832031 32.015625 -47.390625 32.953125 -47.390625 L 40.4375 -47.390625 C 41.300781 -47.390625 41.734375 -46.882812 41.734375 -45.875 Z M 41.734375 -45.71875 "/></g></g></g><g fill="#f8f6e9" fill-opacity="0.4"><g transform="translate(217.946978, 96.94161)"><g><path d="M 31.34375 -1.796875 C 31.34375 -0.597656 30.8125 0 29.75 0 L 22.5625 0 C 21.394531 0 20.769531 -0.660156 20.6875 -1.984375 L 19.015625 -30.140625 C 18.960938 -30.992188 18.597656 -31.421875 17.921875 -31.421875 L 5.65625 -31.421875 C 4.4375 -31.421875 3.828125 -32.113281 3.828125 -33.5 L 3.828125 -33.734375 L 4.484375 -45.484375 C 4.566406 -46.753906 5.257812 -47.390625 6.5625 -47.390625 L 27.015625 -47.390625 C 28.210938 -47.390625 28.847656 -46.703125 28.921875 -45.328125 L 31.34375 -1.984375 Z M 13.125 -20.765625 L 12.578125 -1.828125 C 12.523438 -0.609375 11.875 0 10.625 0 L 3.828125 0 C 2.753906 0 2.21875 -0.625 2.21875 -1.875 L 2.21875 -1.984375 L 2.96875 -20.96875 C 2.988281 -22.238281 3.703125 -22.875 5.109375 -22.875 L 11.28125 -22.875 C 12.507812 -22.875 13.125 -22.222656 13.125 -20.921875 Z M 13.125 -20.765625 "/></g></g></g><g fill="#f8f6e9" fill-opacity="0.4"><g transform="translate(251.561972, 96.94161)"><g/></g></g><g fill="#f8f6e9" fill-opacity="0.4"><g transform="translate(269.247909, 96.94161)"><g><path d="M 34.390625 -1.515625 C 34.390625 -0.503906 33.882812 0 32.875 0 L 3.75 0 C 2.726562 0 2.21875 -0.519531 2.21875 -1.5625 L 2.21875 -1.671875 L 4.953125 -45.640625 C 5.035156 -46.804688 5.597656 -47.390625 6.640625 -47.390625 L 30.0625 -47.390625 C 31.101562 -47.390625 31.660156 -46.804688 31.734375 -45.640625 L 34.390625 -1.671875 Z M 23.109375 -16.703125 L 21.984375 -30.875 C 21.929688 -31.1875 21.773438 -31.34375 21.515625 -31.34375 L 15.03125 -31.34375 C 14.632812 -31.34375 14.425781 -31.1875 14.40625 -30.875 L 13.578125 -16.703125 L 13.578125 -16.671875 C 13.578125 -16.222656 13.828125 -16 14.328125 -16 L 22.375 -16 C 22.863281 -16 23.109375 -16.195312 23.109375 -16.59375 Z M 23.109375 -16.703125 "/></g></g></g><g fill="#f8f6e9" fill-opacity="0.4"><g transform="translate(305.869122, 96.94161)"><g><path d="M 15.65625 -1.59375 C 15.65625 -0.53125 15.265625 0 14.484375 0 L 6.5625 0 C 5.59375 0 5.109375 -0.53125 5.109375 -1.59375 L 5.109375 -30.6875 C 5.109375 -31.175781 4.925781 -31.421875 4.5625 -31.421875 L 4.140625 -31.421875 C 3.484375 -31.421875 3.117188 -31.957031 3.046875 -33.03125 L 2.21875 -45.640625 L 2.21875 -45.75 C 2.21875 -46.84375 2.726562 -47.390625 3.75 -47.390625 L 14.046875 -47.390625 C 15.117188 -47.390625 15.65625 -46.804688 15.65625 -45.640625 Z M 15.65625 -1.59375 "/></g></g></g><g fill="#f8f6e9" fill-opacity="0.4"><g transform="translate(324.062603, 96.94161)"><g><path d="M 26.234375 -1.59375 C 26.234375 -0.53125 25.804688 0 24.953125 0 L 17.09375 0 C 16.082031 0 15.578125 -0.53125 15.578125 -1.59375 L 15.578125 -30.609375 C 15.578125 -31.148438 15.289062 -31.421875 14.71875 -31.421875 L 3.984375 -31.421875 C 2.890625 -31.421875 2.328125 -31.929688 2.296875 -32.953125 L 1.515625 -45.640625 L 1.515625 -45.75 C 1.515625 -46.84375 2.023438 -47.390625 3.046875 -47.390625 L 24.640625 -47.390625 C 25.703125 -47.390625 26.234375 -46.804688 26.234375 -45.640625 Z M 26.234375 -1.59375 "/></g></g></g><g fill="#f8f6e9" fill-opacity="0.4"><g transform="translate(353.500123, 96.94161)"><g><path d="M 16.390625 -20.453125 C 16.390625 -19.390625 15.960938 -18.859375 15.109375 -18.859375 L 7.265625 -18.859375 C 6.328125 -18.859375 5.859375 -19.390625 5.859375 -20.453125 L 5.859375 -30.609375 C 5.859375 -31.148438 5.582031 -31.421875 5.03125 -31.421875 L 4.40625 -31.421875 C 3.570312 -31.421875 3.117188 -31.957031 3.046875 -33.03125 L 2.21875 -45.640625 L 2.21875 -45.796875 C 2.21875 -46.859375 2.726562 -47.390625 3.75 -47.390625 L 14.796875 -47.390625 C 15.859375 -47.390625 16.390625 -46.804688 16.390625 -45.640625 Z M 16.390625 -20.453125 "/></g></g></g><g fill="#f8f6e9" fill-opacity="0.4"><g transform="translate(372.396357, 96.94161)"><g><path d="M 32.953125 -1.28125 C 32.953125 -0.425781 32.570312 0 31.8125 0 L 24.046875 0 C 23.191406 0 22.722656 -0.554688 22.640625 -1.671875 L 20.609375 -30.6875 C 20.554688 -31.125 20.269531 -31.34375 19.75 -31.34375 L 15.34375 -31.34375 C 14.945312 -31.34375 14.738281 -31.097656 14.71875 -30.609375 L 12.578125 -1.671875 C 12.492188 -0.554688 11.984375 0 11.046875 0 L 3.515625 0 C 2.648438 0 2.21875 -0.519531 2.21875 -1.5625 L 2.21875 -1.671875 L 5.03125 -45.640625 C 5.113281 -46.804688 5.675781 -47.390625 6.71875 -47.390625 L 28.765625 -47.390625 C 29.804688 -47.390625 30.367188 -46.804688 30.453125 -45.640625 L 32.953125 -1.671875 Z M 32.953125 -1.28125 "/></g></g></g><g fill="#f8f6e9" fill-opacity="0.4"><g transform="translate(407.612064, 96.94161)"><g><path d="M 31.34375 -1.796875 C 31.34375 -0.597656 30.8125 0 29.75 0 L 22.5625 0 C 21.394531 0 20.769531 -0.660156 20.6875 -1.984375 L 19.015625 -30.140625 C 18.960938 -30.992188 18.597656 -31.421875 17.921875 -31.421875 L 5.65625 -31.421875 C 4.4375 -31.421875 3.828125 -32.113281 3.828125 -33.5 L 3.828125 -33.734375 L 4.484375 -45.484375 C 4.566406 -46.753906 5.257812 -47.390625 6.5625 -47.390625 L 27.015625 -47.390625 C 28.210938 -47.390625 28.847656 -46.703125 28.921875 -45.328125 L 31.34375 -1.984375 Z M 13.125 -20.765625 L 12.578125 -1.828125 C 12.523438 -0.609375 11.875 0 10.625 0 L 3.828125 0 C 2.753906 0 2.21875 -0.625 2.21875 -1.875 L 2.21875 -1.984375 L 2.96875 -20.96875 C 2.988281 -22.238281 3.703125 -22.875 5.109375 -22.875 L 11.28125 -22.875 C 12.507812 -22.875 13.125 -22.222656 13.125 -20.921875 Z M 13.125 -20.765625 "/></g></g></g><g fill="#f8f6e9" fill-opacity="0.4"><g transform="translate(441.227069, 96.94161)"><g/></g></g><g fill="#f8f6e9" fill-opacity="0.4"><g transform="translate(458.912996, 96.94161)"><g><path d="M 16.390625 -20.453125 C 16.390625 -19.390625 15.960938 -18.859375 15.109375 -18.859375 L 7.265625 -18.859375 C 6.328125 -18.859375 5.859375 -19.390625 5.859375 -20.453125 L 5.859375 -30.609375 C 5.859375 -31.148438 5.582031 -31.421875 5.03125 -31.421875 L 4.40625 -31.421875 C 3.570312 -31.421875 3.117188 -31.957031 3.046875 -33.03125 L 2.21875 -45.640625 L 2.21875 -45.796875 C 2.21875 -46.859375 2.726562 -47.390625 3.75 -47.390625 L 14.796875 -47.390625 C 15.859375 -47.390625 16.390625 -46.804688 16.390625 -45.640625 Z M 16.390625 -20.453125 "/></g></g></g><g fill="#f8f6e9" fill-opacity="0.4"><g transform="translate(477.809229, 96.94161)"><g><path d="M 29 -1.4375 C 29 -0.476562 28.609375 0 27.828125 0 L 2.375 0 C 1.539062 0 1.125 -0.425781 1.125 -1.28125 L 1.125 -1.4375 L 1.75 -14.5625 C 1.78125 -15.519531 2.238281 -16 3.125 -16 L 14.875 -16 L 13.96875 -30.53125 C 13.914062 -31.070312 13.6875 -31.34375 13.28125 -31.34375 L 4.953125 -31.34375 C 4.046875 -31.34375 3.59375 -31.835938 3.59375 -32.828125 L 3.59375 -32.953125 L 4.140625 -45.984375 C 4.160156 -46.921875 4.734375 -47.390625 5.859375 -47.390625 L 22.140625 -47.390625 C 23.148438 -47.390625 23.679688 -46.894531 23.734375 -45.90625 L 25.5 -16 L 27.015625 -16 C 27.867188 -16 28.320312 -15.46875 28.375 -14.40625 L 29 -1.515625 Z M 29 -1.4375 "/></g></g></g><g fill="#f8f6e9" fill-opacity="0.4"><g transform="translate(507.949502, 96.94161)"><g><path d="M 31.734375 -46.296875 C 31.734375 -46.191406 31.726562 -46.085938 31.71875 -45.984375 C 31.707031 -45.878906 31.6875 -45.765625 31.65625 -45.640625 L 25.65625 -16.78125 L 30.765625 -1.671875 C 30.835938 -1.515625 30.875 -1.347656 30.875 -1.171875 C 30.875 -0.390625 30.523438 0 29.828125 0 L 3.203125 0 C 2.234375 0 1.75 -0.519531 1.75 -1.5625 L 1.75 -1.671875 L 2.8125 -14.125 C 2.914062 -15.375 3.523438 -16 4.640625 -16 L 11.125 -16 C 11.570312 -16 11.796875 -16.128906 11.796875 -16.390625 C 11.796875 -16.472656 11.78125 -16.523438 11.75 -16.546875 L 1.59375 -45.640625 C 1.539062 -45.847656 1.515625 -46.03125 1.515625 -46.1875 C 1.515625 -46.988281 1.945312 -47.390625 2.8125 -47.390625 L 12.578125 -47.390625 C 13.609375 -47.390625 14.320312 -46.804688 14.71875 -45.640625 L 18.625 -33.8125 L 20.765625 -45.640625 C 20.953125 -46.804688 21.65625 -47.390625 22.875 -47.390625 L 30.53125 -47.390625 C 31.332031 -47.390625 31.734375 -47.023438 31.734375 -46.296875 Z M 31.734375 -46.296875 "/></g></g></g><g fill="#f8f6e9" fill-opacity="0.4"><g transform="translate(541.135013, 96.94161)"><g><path d="M 33.8125 -1.5625 C 33.8125 -0.519531 33.300781 0 32.28125 0 L 17.6875 0 C 16.664062 0 16.15625 -0.53125 16.15625 -1.59375 L 16.15625 -1.671875 L 16.859375 -14.046875 C 16.941406 -15.347656 17.503906 -16 18.546875 -16 L 21.59375 -16 C 22.082031 -16 22.328125 -16.25 22.328125 -16.75 C 22.328125 -16.851562 22.316406 -16.914062 22.296875 -16.9375 L 21.4375 -30.453125 C 21.40625 -31.097656 21.101562 -31.421875 20.53125 -31.421875 L 15.5 -31.421875 C 14.945312 -31.421875 14.660156 -31.097656 14.640625 -30.453125 L 12.890625 -1.671875 C 12.804688 -0.554688 12.242188 0 11.203125 0 L 3.75 0 C 2.726562 0 2.21875 -0.53125 2.21875 -1.59375 L 2.21875 -1.671875 L 5.03125 -45.640625 C 5.113281 -46.804688 5.703125 -47.390625 6.796875 -47.390625 L 29.359375 -47.390625 C 30.398438 -47.390625 30.957031 -46.804688 31.03125 -45.640625 L 33.8125 -1.671875 Z M 33.8125 -1.5625 "/></g></g></g><g fill="#f8f6e9" fill-opacity="0.4"><g transform="translate(577.20964, 96.94161)"><g><path d="M 29 -1.4375 C 29 -0.476562 28.609375 0 27.828125 0 L 2.375 0 C 1.539062 0 1.125 -0.425781 1.125 -1.28125 L 1.125 -1.4375 L 1.75 -14.5625 C 1.78125 -15.519531 2.238281 -16 3.125 -16 L 14.875 -16 L 13.96875 -30.53125 C 13.914062 -31.070312 13.6875 -31.34375 13.28125 -31.34375 L 4.953125 -31.34375 C 4.046875 -31.34375 3.59375 -31.835938 3.59375 -32.828125 L 3.59375 -32.953125 L 4.140625 -45.984375 C 4.160156 -46.921875 4.734375 -47.390625 5.859375 -47.390625 L 22.140625 -47.390625 C 23.148438 -47.390625 23.679688 -46.894531 23.734375 -45.90625 L 25.5 -16 L 27.015625 -16 C 27.867188 -16 28.320312 -15.46875 28.375 -14.40625 L 29 -1.515625 Z M 29 -1.4375 "/></g></g></g><g fill="#f8f6e9" fill-opacity="0.4"><g transform="translate(607.349913, 96.94161)"><g/></g></g><g fill="#f8f6e9" fill-opacity="0.4"><g transform="translate(625.035839, 96.94161)"><g><path d="M 27.015625 -22.71875 C 27.015625 -21.601562 26.40625 -21.046875 25.1875 -21.046875 L 18.546875 -21.046875 C 17.210938 -21.046875 16.546875 -21.601562 16.546875 -22.71875 L 16.546875 -45.828125 C 16.546875 -46.867188 17.210938 -47.390625 18.546875 -47.390625 L 25.1875 -47.390625 C 26.40625 -47.390625 27.015625 -46.867188 27.015625 -45.828125 Z M 41.734375 -45.71875 L 39 -1.75 C 38.925781 -0.582031 38.34375 0 37.25 0 L 6.484375 0 C 5.441406 0 4.878906 -0.582031 4.796875 -1.75 L 2.21875 -45.71875 L 2.21875 -46.140625 C 2.21875 -46.972656 2.597656 -47.390625 3.359375 -47.390625 L 11.4375 -47.390625 C 12.269531 -47.390625 12.726562 -46.832031 12.8125 -45.71875 L 14.640625 -16.703125 C 14.660156 -16.285156 14.921875 -16.078125 15.421875 -16.078125 L 28.609375 -16.078125 C 29.003906 -16.078125 29.226562 -16.3125 29.28125 -16.78125 L 31.421875 -45.71875 C 31.503906 -46.832031 32.015625 -47.390625 32.953125 -47.390625 L 40.4375 -47.390625 C 41.300781 -47.390625 41.734375 -46.882812 41.734375 -45.875 Z M 41.734375 -45.71875 "/></g></g></g><g fill="#f8f6e9" fill-opacity="0.4"><g transform="translate(668.957858, 96.94161)"><g><path d="M 19.28125 -52.28125 C 19.28125 -51.96875 19.253906 -51.679688 19.203125 -51.421875 L 14.484375 -32.203125 C 14.273438 -31.421875 13.726562 -31.03125 12.84375 -31.03125 C 11.644531 -31.03125 11.046875 -31.617188 11.046875 -32.796875 L 11.046875 -51.265625 C 11.046875 -52.691406 11.488281 -53.40625 12.375 -53.40625 L 18.390625 -53.40625 C 18.984375 -53.40625 19.28125 -53.03125 19.28125 -52.28125 Z M 9.953125 -52.28125 C 9.953125 -52.019531 9.914062 -51.734375 9.84375 -51.421875 L 5.109375 -32.203125 C 4.898438 -31.421875 4.34375 -31.03125 3.4375 -31.03125 C 2.207031 -31.03125 1.59375 -31.617188 1.59375 -32.796875 L 1.59375 -51.265625 C 1.59375 -52.691406 2.078125 -53.40625 3.046875 -53.40625 L 9.015625 -53.40625 C 9.640625 -53.40625 9.953125 -53.03125 9.953125 -52.28125 Z M 9.953125 -52.28125 "/></g></g></g><g fill="#f8f6e9" fill-opacity="0.4"><g transform="translate(689.337657, 96.94161)"><g><path d="M 15.65625 -1.59375 C 15.65625 -0.53125 15.265625 0 14.484375 0 L 6.5625 0 C 5.59375 0 5.109375 -0.53125 5.109375 -1.59375 L 5.109375 -30.6875 C 5.109375 -31.175781 4.925781 -31.421875 4.5625 -31.421875 L 4.140625 -31.421875 C 3.484375 -31.421875 3.117188 -31.957031 3.046875 -33.03125 L 2.21875 -45.640625 L 2.21875 -45.75 C 2.21875 -46.84375 2.726562 -47.390625 3.75 -47.390625 L 14.046875 -47.390625 C 15.117188 -47.390625 15.65625 -46.804688 15.65625 -45.640625 Z M 15.65625 -1.59375 "/></g></g></g><g fill="#f8f6e9" fill-opacity="0.4"><g transform="translate(707.531115, 96.94161)"><g><path d="M 32.953125 -1.5625 C 32.953125 -0.519531 32.441406 0 31.421875 0 L 3.75 0 C 2.726562 0 2.21875 -0.53125 2.21875 -1.59375 L 2.21875 -1.671875 L 2.96875 -14.125 C 3.039062 -15.375 3.597656 -16 4.640625 -16 L 19.90625 -16 C 20.875 -16 21.359375 -16.378906 21.359375 -17.140625 L 21.359375 -17.25 L 20.609375 -30.53125 C 20.554688 -31.070312 20.113281 -31.34375 19.28125 -31.34375 L 16 -31.34375 C 15.21875 -31.34375 14.789062 -30.96875 14.71875 -30.21875 L 13.96875 -22.21875 C 13.894531 -21.25 13.3125 -20.765625 12.21875 -20.765625 L 4.796875 -20.765625 C 3.835938 -20.765625 3.359375 -21.257812 3.359375 -22.25 L 3.359375 -22.375 L 5.5 -45.640625 C 5.601562 -46.804688 6.191406 -47.390625 7.265625 -47.390625 L 28.609375 -47.390625 C 29.648438 -47.390625 30.210938 -46.804688 30.296875 -45.640625 L 32.953125 -1.671875 Z M 32.953125 -1.5625 "/></g></g></g><g fill="#f8f6e9" fill-opacity="0.4"><g transform="translate(742.746845, 96.94161)"><g/></g></g><g fill="#f8f6e9" fill-opacity="0.4"><g transform="translate(760.432771, 96.94161)"><g><path d="M 26.3125 -20.140625 C 26.3125 -19.078125 25.753906 -18.546875 24.640625 -18.546875 L 3.359375 -18.546875 C 2.234375 -18.546875 1.671875 -19.078125 1.671875 -20.140625 L 1.671875 -26.46875 C 1.671875 -27.53125 2.234375 -28.0625 3.359375 -28.0625 L 24.640625 -28.0625 C 25.753906 -28.0625 26.3125 -27.53125 26.3125 -26.46875 Z M 26.3125 -20.140625 "/></g></g></g><g fill="#f8f6e9" fill-opacity="0.4"><g transform="translate(788.425734, 96.94161)"><g/></g></g><g fill="#f8f6e9" fill-opacity="0.4"><g transform="translate(806.11166, 96.94161)"><g><path d="M 34.390625 -1.515625 C 34.390625 -0.503906 33.882812 0 32.875 0 L 3.75 0 C 2.726562 0 2.21875 -0.519531 2.21875 -1.5625 L 2.21875 -1.671875 L 4.953125 -45.640625 C 5.035156 -46.804688 5.597656 -47.390625 6.640625 -47.390625 L 30.0625 -47.390625 C 31.101562 -47.390625 31.660156 -46.804688 31.734375 -45.640625 L 34.390625 -1.671875 Z M 23.109375 -16.703125 L 21.984375 -30.875 C 21.929688 -31.1875 21.773438 -31.34375 21.515625 -31.34375 L 15.03125 -31.34375 C 14.632812 -31.34375 14.425781 -31.1875 14.40625 -30.875 L 13.578125 -16.703125 L 13.578125 -16.671875 C 13.578125 -16.222656 13.828125 -16 14.328125 -16 L 22.375 -16 C 22.863281 -16 23.109375 -16.195312 23.109375 -16.59375 Z M 23.109375 -16.703125 "/></g></g></g><g fill="#f8f6e9" fill-opacity="0.4"><g transform="translate(842.732849, 96.94161)"><g><path d="M 28.140625 -1.5625 C 28.140625 -0.519531 27.632812 0 26.625 0 L 3.046875 0 C 2.078125 0 1.59375 -0.476562 1.59375 -1.4375 L 1.59375 -1.671875 L 2.734375 -14.40625 C 2.859375 -15.46875 3.441406 -16 4.484375 -16 L 16.078125 -16 C 16.648438 -16 16.9375 -16.273438 16.9375 -16.828125 L 16.9375 -16.9375 L 16.078125 -30.609375 C 16.054688 -31.097656 15.8125 -31.34375 15.34375 -31.34375 L 4.40625 -31.34375 C 3.394531 -31.34375 2.890625 -31.8125 2.890625 -32.75 L 2.890625 -32.875 L 3.75 -45.640625 C 3.820312 -46.804688 4.40625 -47.390625 5.5 -47.390625 L 23.8125 -47.390625 C 24.851562 -47.390625 25.414062 -46.804688 25.5 -45.640625 L 28.140625 -1.671875 Z M 28.140625 -1.5625 "/></g></g></g><g fill="#f8f6e9" fill-opacity="0.4"><g transform="translate(873.146426, 96.94161)"><g><path d="M 33.65625 -45.71875 L 31.03125 -1.75 C 30.957031 -0.582031 30.375 0 29.28125 0 L 6.484375 0 C 5.441406 0 4.878906 -0.582031 4.796875 -1.75 L 2.140625 -45.71875 L 2.140625 -45.90625 C 2.140625 -46.894531 2.648438 -47.390625 3.671875 -47.390625 L 32.125 -47.390625 C 33.144531 -47.390625 33.65625 -46.867188 33.65625 -45.828125 Z M 22.296875 -30.765625 C 22.296875 -31.253906 22.0625 -31.5 21.59375 -31.5 L 14.125 -31.5 C 13.65625 -31.5 13.421875 -31.265625 13.421875 -30.796875 L 13.421875 -30.6875 L 14.5625 -16.546875 C 14.582031 -16.234375 14.765625 -16.078125 15.109375 -16.078125 L 20.890625 -16.078125 C 21.253906 -16.078125 21.460938 -16.234375 21.515625 -16.546875 L 22.296875 -30.6875 Z M 22.296875 -30.765625 "/></g></g></g><g fill="#f8f6e9" fill-opacity="0.4"><g transform="translate(909.103962, 96.94161)"><g><path d="M 33.8125 -1.5625 C 33.8125 -0.519531 33.300781 0 32.28125 0 L 17.6875 0 C 16.664062 0 16.15625 -0.53125 16.15625 -1.59375 L 16.15625 -1.671875 L 16.859375 -14.046875 C 16.941406 -15.347656 17.503906 -16 18.546875 -16 L 21.59375 -16 C 22.082031 -16 22.328125 -16.25 22.328125 -16.75 C 22.328125 -16.851562 22.316406 -16.914062 22.296875 -16.9375 L 21.4375 -30.453125 C 21.40625 -31.097656 21.101562 -31.421875 20.53125 -31.421875 L 15.5 -31.421875 C 14.945312 -31.421875 14.660156 -31.097656 14.640625 -30.453125 L 12.890625 -1.671875 C 12.804688 -0.554688 12.242188 0 11.203125 0 L 3.75 0 C 2.726562 0 2.21875 -0.53125 2.21875 -1.59375 L 2.21875 -1.671875 L 5.03125 -45.640625 C 5.113281 -46.804688 5.703125 -47.390625 6.796875 -47.390625 L 29.359375 -47.390625 C 30.398438 -47.390625 30.957031 -46.804688 31.03125 -45.640625 L 33.8125 -1.671875 Z M 33.8125 -1.5625 "/></g></g></g><g fill="#f8f6e9" fill-opacity="0.4"><g transform="translate(945.178544, 96.94161)"><g/></g></g><g fill="#f8f6e9" fill-opacity="0.4"><g transform="translate(962.86447, 96.94161)"><g><path d="M 29.515625 6.484375 C 29.515625 7.546875 29.109375 8.078125 28.296875 8.078125 L 20.296875 8.078125 C 19.335938 8.078125 18.859375 7.546875 18.859375 6.484375 L 18.859375 -30.21875 C 18.859375 -30.96875 18.597656 -31.34375 18.078125 -31.34375 L 13.421875 -31.34375 C 12.929688 -31.34375 12.648438 -30.96875 12.578125 -30.21875 L 11.828125 -22.21875 C 11.753906 -21.25 11.171875 -20.765625 10.078125 -20.765625 L 2.65625 -20.765625 C 1.6875 -20.765625 1.203125 -21.257812 1.203125 -22.25 L 1.203125 -22.375 L 3.359375 -45.640625 C 3.460938 -46.804688 4.046875 -47.390625 5.109375 -47.390625 L 27.90625 -47.390625 C 28.976562 -47.390625 29.515625 -46.804688 29.515625 -45.640625 Z M 29.515625 6.484375 "/></g></g></g><g fill="#f8f6e9" fill-opacity="0.4"><g transform="translate(995.62051, 96.94161)"><g><path d="M 32.09375 -45.59375 C 32.09375 -45.570312 32.09375 -45.507812 32.09375 -45.40625 C 32.09375 -45.300781 32.078125 -45.144531 32.046875 -44.9375 L 29.4375 -3.046875 C 29.382812 -2.234375 29.054688 -1.519531 28.453125 -0.90625 C 27.859375 -0.300781 27.171875 0 26.390625 0 L 18.234375 0 C 17.160156 0 16.625 -0.609375 16.625 -1.828125 L 16.625 -14.484375 C 16.625 -15.492188 17.210938 -16 18.390625 -16 C 19.140625 -16 19.539062 -16.390625 19.59375 -17.171875 L 20.6875 -30.296875 C 20.71875 -30.347656 20.734375 -30.410156 20.734375 -30.484375 C 20.734375 -31.109375 20.484375 -31.421875 19.984375 -31.421875 L 4.640625 -31.421875 C 3.679688 -31.421875 3.175781 -31.957031 3.125 -33.03125 L 2.375 -45.25 L 2.375 -45.71875 C 2.375 -46.832031 2.859375 -47.390625 3.828125 -47.390625 L 30.875 -47.3125 C 31.6875 -47.3125 32.09375 -46.738281 32.09375 -45.59375 Z M 14.125 6.40625 C 14.125 7.519531 13.515625 8.078125 12.296875 8.078125 L 5.65625 8.078125 C 4.332031 8.078125 3.671875 7.519531 3.671875 6.40625 L 3.671875 -21.28125 C 3.671875 -22.34375 4.332031 -22.875 5.65625 -22.875 L 12.296875 -22.875 C 13.515625 -22.875 14.125 -22.34375 14.125 -21.28125 Z M 14.125 6.40625 "/></g></g></g><g fill="#f8f6e9" fill-opacity="0.4"><g transform="translate(1029.977297, 96.94161)"><g><path d="M 27.015625 -22.71875 C 27.015625 -21.601562 26.40625 -21.046875 25.1875 -21.046875 L 18.546875 -21.046875 C 17.210938 -21.046875 16.546875 -21.601562 16.546875 -22.71875 L 16.546875 -45.828125 C 16.546875 -46.867188 17.210938 -47.390625 18.546875 -47.390625 L 25.1875 -47.390625 C 26.40625 -47.390625 27.015625 -46.867188 27.015625 -45.828125 Z M 41.734375 -45.71875 L 39 -1.75 C 38.925781 -0.582031 38.34375 0 37.25 0 L 6.484375 0 C 5.441406 0 4.878906 -0.582031 4.796875 -1.75 L 2.21875 -45.71875 L 2.21875 -46.140625 C 2.21875 -46.972656 2.597656 -47.390625 3.359375 -47.390625 L 11.4375 -47.390625 C 12.269531 -47.390625 12.726562 -46.832031 12.8125 -45.71875 L 14.640625 -16.703125 C 14.660156 -16.285156 14.921875 -16.078125 15.421875 -16.078125 L 28.609375 -16.078125 C 29.003906 -16.078125 29.226562 -16.3125 29.28125 -16.78125 L 31.421875 -45.71875 C 31.503906 -46.832031 32.015625 -47.390625 32.953125 -47.390625 L 40.4375 -47.390625 C 41.300781 -47.390625 41.734375 -46.882812 41.734375 -45.875 Z M 41.734375 -45.71875 "/></g></g></g><g fill="#f8f6e9" fill-opacity="1"><g transform="translate(72.144625, 93.407593)"><g><path d="M 34.390625 -1.515625 C 34.390625 -0.503906 33.882812 0 32.875 0 L 3.75 0 C 2.726562 0 2.21875 -0.519531 2.21875 -1.5625 L 2.21875 -1.671875 L 4.953125 -45.640625 C 5.035156 -46.804688 5.597656 -47.390625 6.640625 -47.390625 L 30.0625 -47.390625 C 31.101562 -47.390625 31.660156 -46.804688 31.734375 -45.640625 L 34.390625 -1.671875 Z M 23.109375 -16.703125 L 21.984375 -30.875 C 21.929688 -31.1875 21.773438 -31.34375 21.515625 -31.34375 L 15.03125 -31.34375 C 14.632812 -31.34375 14.425781 -31.1875 14.40625 -30.875 L 13.578125 -16.703125 L 13.578125 -16.671875 C 13.578125 -16.222656 13.828125 -16 14.328125 -16 L 22.375 -16 C 22.863281 -16 23.109375 -16.195312 23.109375 -16.59375 Z M 23.109375 -16.703125 "/></g></g></g><g fill="#f8f6e9" fill-opacity="1"><g transform="translate(108.765838, 93.407593)"><g><path d="M 16.390625 -20.453125 C 16.390625 -19.390625 15.960938 -18.859375 15.109375 -18.859375 L 7.265625 -18.859375 C 6.328125 -18.859375 5.859375 -19.390625 5.859375 -20.453125 L 5.859375 -30.609375 C 5.859375 -31.148438 5.582031 -31.421875 5.03125 -31.421875 L 4.40625 -31.421875 C 3.570312 -31.421875 3.117188 -31.957031 3.046875 -33.03125 L 2.21875 -45.640625 L 2.21875 -45.796875 C 2.21875 -46.859375 2.726562 -47.390625 3.75 -47.390625 L 14.796875 -47.390625 C 15.859375 -47.390625 16.390625 -46.804688 16.390625 -45.640625 Z M 16.390625 -20.453125 "/></g></g></g><g fill="#f8f6e9" fill-opacity="1"><g transform="translate(127.662071, 93.407593)"><g><path d="M 22.40625 -1.515625 C 22.40625 -0.503906 21.898438 0 20.890625 0 L 3.046875 0 C 2.078125 0 1.59375 -0.503906 1.59375 -1.515625 L 1.59375 -1.671875 L 2.8125 -14.328125 C 2.914062 -15.441406 3.472656 -16 4.484375 -16 L 10.234375 -16 C 10.828125 -16 11.125 -16.171875 11.125 -16.515625 L 11.125 -16.625 L 10 -30.6875 C 9.945312 -31.125 9.644531 -31.34375 9.09375 -31.34375 L 6.953125 -31.34375 C 5.929688 -31.34375 5.421875 -31.851562 5.421875 -32.875 L 5.421875 -32.953125 L 6.328125 -45.640625 C 6.398438 -46.804688 6.984375 -47.390625 8.078125 -47.390625 L 18.078125 -47.390625 C 19.117188 -47.390625 19.675781 -46.804688 19.75 -45.640625 L 22.375 -1.671875 C 22.394531 -1.648438 22.40625 -1.597656 22.40625 -1.515625 Z M 22.40625 -1.515625 "/></g></g></g><g fill="#f8f6e9" fill-opacity="1"><g transform="translate(152.29745, 93.407593)"><g><path d="M 15.65625 -1.59375 C 15.65625 -0.53125 15.265625 0 14.484375 0 L 6.5625 0 C 5.59375 0 5.109375 -0.53125 5.109375 -1.59375 L 5.109375 -30.6875 C 5.109375 -31.175781 4.925781 -31.421875 4.5625 -31.421875 L 4.140625 -31.421875 C 3.484375 -31.421875 3.117188 -31.957031 3.046875 -33.03125 L 2.21875 -45.640625 L 2.21875 -45.75 C 2.21875 -46.84375 2.726562 -47.390625 3.75 -47.390625 L 14.046875 -47.390625 C 15.117188 -47.390625 15.65625 -46.804688 15.65625 -45.640625 Z M 15.65625 -1.59375 "/></g></g></g><g fill="#f8f6e9" fill-opacity="1"><g transform="translate(170.490931, 93.407593)"><g><path d="M 27.015625 -22.71875 C 27.015625 -21.601562 26.40625 -21.046875 25.1875 -21.046875 L 18.546875 -21.046875 C 17.210938 -21.046875 16.546875 -21.601562 16.546875 -22.71875 L 16.546875 -45.828125 C 16.546875 -46.867188 17.210938 -47.390625 18.546875 -47.390625 L 25.1875 -47.390625 C 26.40625 -47.390625 27.015625 -46.867188 27.015625 -45.828125 Z M 41.734375 -45.71875 L 39 -1.75 C 38.925781 -0.582031 38.34375 0 37.25 0 L 6.484375 0 C 5.441406 0 4.878906 -0.582031 4.796875 -1.75 L 2.21875 -45.71875 L 2.21875 -46.140625 C 2.21875 -46.972656 2.597656 -47.390625 3.359375 -47.390625 L 11.4375 -47.390625 C 12.269531 -47.390625 12.726562 -46.832031 12.8125 -45.71875 L 14.640625 -16.703125 C 14.660156 -16.285156 14.921875 -16.078125 15.421875 -16.078125 L 28.609375 -16.078125 C 29.003906 -16.078125 29.226562 -16.3125 29.28125 -16.78125 L 31.421875 -45.71875 C 31.503906 -46.832031 32.015625 -47.390625 32.953125 -47.390625 L 40.4375 -47.390625 C 41.300781 -47.390625 41.734375 -46.882812 41.734375 -45.875 Z M 41.734375 -45.71875 "/></g></g></g><g fill="#f8f6e9" fill-opacity="1"><g transform="translate(214.41296, 93.407593)"><g><path d="M 31.34375 -1.796875 C 31.34375 -0.597656 30.8125 0 29.75 0 L 22.5625 0 C 21.394531 0 20.769531 -0.660156 20.6875 -1.984375 L 19.015625 -30.140625 C 18.960938 -30.992188 18.597656 -31.421875 17.921875 -31.421875 L 5.65625 -31.421875 C 4.4375 -31.421875 3.828125 -32.113281 3.828125 -33.5 L 3.828125 -33.734375 L 4.484375 -45.484375 C 4.566406 -46.753906 5.257812 -47.390625 6.5625 -47.390625 L 27.015625 -47.390625 C 28.210938 -47.390625 28.847656 -46.703125 28.921875 -45.328125 L 31.34375 -1.984375 Z M 13.125 -20.765625 L 12.578125 -1.828125 C 12.523438 -0.609375 11.875 0 10.625 0 L 3.828125 0 C 2.753906 0 2.21875 -0.625 2.21875 -1.875 L 2.21875 -1.984375 L 2.96875 -20.96875 C 2.988281 -22.238281 3.703125 -22.875 5.109375 -22.875 L 11.28125 -22.875 C 12.507812 -22.875 13.125 -22.222656 13.125 -20.921875 Z M 13.125 -20.765625 "/></g></g></g><g fill="#f8f6e9" fill-opacity="1"><g transform="translate(248.027954, 93.407593)"><g/></g></g><g fill="#f8f6e9" fill-opacity="1"><g transform="translate(265.713892, 93.407593)"><g><path d="M 34.390625 -1.515625 C 34.390625 -0.503906 33.882812 0 32.875 0 L 3.75 0 C 2.726562 0 2.21875 -0.519531 2.21875 -1.5625 L 2.21875 -1.671875 L 4.953125 -45.640625 C 5.035156 -46.804688 5.597656 -47.390625 6.640625 -47.390625 L 30.0625 -47.390625 C 31.101562 -47.390625 31.660156 -46.804688 31.734375 -45.640625 L 34.390625 -1.671875 Z M 23.109375 -16.703125 L 21.984375 -30.875 C 21.929688 -31.1875 21.773438 -31.34375 21.515625 -31.34375 L 15.03125 -31.34375 C 14.632812 -31.34375 14.425781 -31.1875 14.40625 -30.875 L 13.578125 -16.703125 L 13.578125 -16.671875 C 13.578125 -16.222656 13.828125 -16 14.328125 -16 L 22.375 -16 C 22.863281 -16 23.109375 -16.195312 23.109375 -16.59375 Z M 23.109375 -16.703125 "/></g></g></g><g fill="#f8f6e9" fill-opacity="1"><g transform="translate(302.335104, 93.407593)"><g><path d="M 15.65625 -1.59375 C 15.65625 -0.53125 15.265625 0 14.484375 0 L 6.5625 0 C 5.59375 0 5.109375 -0.53125 5.109375 -1.59375 L 5.109375 -30.6875 C 5.109375 -31.175781 4.925781 -31.421875 4.5625 -31.421875 L 4.140625 -31.421875 C 3.484375 -31.421875 3.117188 -31.957031 3.046875 -33.03125 L 2.21875 -45.640625 L 2.21875 -45.75 C 2.21875 -46.84375 2.726562 -47.390625 3.75 -47.390625 L 14.046875 -47.390625 C 15.117188 -47.390625 15.65625 -46.804688 15.65625 -45.640625 Z M 15.65625 -1.59375 "/></g></g></g><g fill="#f8f6e9" fill-opacity="1"><g transform="translate(320.528585, 93.407593)"><g><path d="M 26.234375 -1.59375 C 26.234375 -0.53125 25.804688 0 24.953125 0 L 17.09375 0 C 16.082031 0 15.578125 -0.53125 15.578125 -1.59375 L 15.578125 -30.609375 C 15.578125 -31.148438 15.289062 -31.421875 14.71875 -31.421875 L 3.984375 -31.421875 C 2.890625 -31.421875 2.328125 -31.929688 2.296875 -32.953125 L 1.515625 -45.640625 L 1.515625 -45.75 C 1.515625 -46.84375 2.023438 -47.390625 3.046875 -47.390625 L 24.640625 -47.390625 C 25.703125 -47.390625 26.234375 -46.804688 26.234375 -45.640625 Z M 26.234375 -1.59375 "/></g></g></g><g fill="#f8f6e9" fill-opacity="1"><g transform="translate(349.966105, 93.407593)"><g><path d="M 16.390625 -20.453125 C 16.390625 -19.390625 15.960938 -18.859375 15.109375 -18.859375 L 7.265625 -18.859375 C 6.328125 -18.859375 5.859375 -19.390625 5.859375 -20.453125 L 5.859375 -30.609375 C 5.859375 -31.148438 5.582031 -31.421875 5.03125 -31.421875 L 4.40625 -31.421875 C 3.570312 -31.421875 3.117188 -31.957031 3.046875 -33.03125 L 2.21875 -45.640625 L 2.21875 -45.796875 C 2.21875 -46.859375 2.726562 -47.390625 3.75 -47.390625 L 14.796875 -47.390625 C 15.859375 -47.390625 16.390625 -46.804688 16.390625 -45.640625 Z M 16.390625 -20.453125 "/></g></g></g><g fill="#f8f6e9" fill-opacity="1"><g transform="translate(368.862339, 93.407593)"><g><path d="M 32.953125 -1.28125 C 32.953125 -0.425781 32.570312 0 31.8125 0 L 24.046875 0 C 23.191406 0 22.722656 -0.554688 22.640625 -1.671875 L 20.609375 -30.6875 C 20.554688 -31.125 20.269531 -31.34375 19.75 -31.34375 L 15.34375 -31.34375 C 14.945312 -31.34375 14.738281 -31.097656 14.71875 -30.609375 L 12.578125 -1.671875 C 12.492188 -0.554688 11.984375 0 11.046875 0 L 3.515625 0 C 2.648438 0 2.21875 -0.519531 2.21875 -1.5625 L 2.21875 -1.671875 L 5.03125 -45.640625 C 5.113281 -46.804688 5.675781 -47.390625 6.71875 -47.390625 L 28.765625 -47.390625 C 29.804688 -47.390625 30.367188 -46.804688 30.453125 -45.640625 L 32.953125 -1.671875 Z M 32.953125 -1.28125 "/></g></g></g><g fill="#f8f6e9" fill-opacity="1"><g transform="translate(404.078047, 93.407593)"><g><path d="M 31.34375 -1.796875 C 31.34375 -0.597656 30.8125 0 29.75 0 L 22.5625 0 C 21.394531 0 20.769531 -0.660156 20.6875 -1.984375 L 19.015625 -30.140625 C 18.960938 -30.992188 18.597656 -31.421875 17.921875 -31.421875 L 5.65625 -31.421875 C 4.4375 -31.421875 3.828125 -32.113281 3.828125 -33.5 L 3.828125 -33.734375 L 4.484375 -45.484375 C 4.566406 -46.753906 5.257812 -47.390625 6.5625 -47.390625 L 27.015625 -47.390625 C 28.210938 -47.390625 28.847656 -46.703125 28.921875 -45.328125 L 31.34375 -1.984375 Z M 13.125 -20.765625 L 12.578125 -1.828125 C 12.523438 -0.609375 11.875 0 10.625 0 L 3.828125 0 C 2.753906 0 2.21875 -0.625 2.21875 -1.875 L 2.21875 -1.984375 L 2.96875 -20.96875 C 2.988281 -22.238281 3.703125 -22.875 5.109375 -22.875 L 11.28125 -22.875 C 12.507812 -22.875 13.125 -22.222656 13.125 -20.921875 Z M 13.125 -20.765625 "/></g></g></g><g fill="#f8f6e9" fill-opacity="1"><g transform="translate(437.693052, 93.407593)"><g/></g></g><g fill="#f8f6e9" fill-opacity="1"><g transform="translate(455.378978, 93.407593)"><g><path d="M 16.390625 -20.453125 C 16.390625 -19.390625 15.960938 -18.859375 15.109375 -18.859375 L 7.265625 -18.859375 C 6.328125 -18.859375 5.859375 -19.390625 5.859375 -20.453125 L 5.859375 -30.609375 C 5.859375 -31.148438 5.582031 -31.421875 5.03125 -31.421875 L 4.40625 -31.421875 C 3.570312 -31.421875 3.117188 -31.957031 3.046875 -33.03125 L 2.21875 -45.640625 L 2.21875 -45.796875 C 2.21875 -46.859375 2.726562 -47.390625 3.75 -47.390625 L 14.796875 -47.390625 C 15.859375 -47.390625 16.390625 -46.804688 16.390625 -45.640625 Z M 16.390625 -20.453125 "/></g></g></g><g fill="#f8f6e9" fill-opacity="1"><g transform="translate(474.275212, 93.407593)"><g><path d="M 29 -1.4375 C 29 -0.476562 28.609375 0 27.828125 0 L 2.375 0 C 1.539062 0 1.125 -0.425781 1.125 -1.28125 L 1.125 -1.4375 L 1.75 -14.5625 C 1.78125 -15.519531 2.238281 -16 3.125 -16 L 14.875 -16 L 13.96875 -30.53125 C 13.914062 -31.070312 13.6875 -31.34375 13.28125 -31.34375 L 4.953125 -31.34375 C 4.046875 -31.34375 3.59375 -31.835938 3.59375 -32.828125 L 3.59375 -32.953125 L 4.140625 -45.984375 C 4.160156 -46.921875 4.734375 -47.390625 5.859375 -47.390625 L 22.140625 -47.390625 C 23.148438 -47.390625 23.679688 -46.894531 23.734375 -45.90625 L 25.5 -16 L 27.015625 -16 C 27.867188 -16 28.320312 -15.46875 28.375 -14.40625 L 29 -1.515625 Z M 29 -1.4375 "/></g></g></g><g fill="#f8f6e9" fill-opacity="1"><g transform="translate(504.415485, 93.407593)"><g><path d="M 31.734375 -46.296875 C 31.734375 -46.191406 31.726562 -46.085938 31.71875 -45.984375 C 31.707031 -45.878906 31.6875 -45.765625 31.65625 -45.640625 L 25.65625 -16.78125 L 30.765625 -1.671875 C 30.835938 -1.515625 30.875 -1.347656 30.875 -1.171875 C 30.875 -0.390625 30.523438 0 29.828125 0 L 3.203125 0 C 2.234375 0 1.75 -0.519531 1.75 -1.5625 L 1.75 -1.671875 L 2.8125 -14.125 C 2.914062 -15.375 3.523438 -16 4.640625 -16 L 11.125 -16 C 11.570312 -16 11.796875 -16.128906 11.796875 -16.390625 C 11.796875 -16.472656 11.78125 -16.523438 11.75 -16.546875 L 1.59375 -45.640625 C 1.539062 -45.847656 1.515625 -46.03125 1.515625 -46.1875 C 1.515625 -46.988281 1.945312 -47.390625 2.8125 -47.390625 L 12.578125 -47.390625 C 13.609375 -47.390625 14.320312 -46.804688 14.71875 -45.640625 L 18.625 -33.8125 L 20.765625 -45.640625 C 20.953125 -46.804688 21.65625 -47.390625 22.875 -47.390625 L 30.53125 -47.390625 C 31.332031 -47.390625 31.734375 -47.023438 31.734375 -46.296875 Z M 31.734375 -46.296875 "/></g></g></g><g fill="#f8f6e9" fill-opacity="1"><g transform="translate(537.600995, 93.407593)"><g><path d="M 33.8125 -1.5625 C 33.8125 -0.519531 33.300781 0 32.28125 0 L 17.6875 0 C 16.664062 0 16.15625 -0.53125 16.15625 -1.59375 L 16.15625 -1.671875 L 16.859375 -14.046875 C 16.941406 -15.347656 17.503906 -16 18.546875 -16 L 21.59375 -16 C 22.082031 -16 22.328125 -16.25 22.328125 -16.75 C 22.328125 -16.851562 22.316406 -16.914062 22.296875 -16.9375 L 21.4375 -30.453125 C 21.40625 -31.097656 21.101562 -31.421875 20.53125 -31.421875 L 15.5 -31.421875 C 14.945312 -31.421875 14.660156 -31.097656 14.640625 -30.453125 L 12.890625 -1.671875 C 12.804688 -0.554688 12.242188 0 11.203125 0 L 3.75 0 C 2.726562 0 2.21875 -0.53125 2.21875 -1.59375 L 2.21875 -1.671875 L 5.03125 -45.640625 C 5.113281 -46.804688 5.703125 -47.390625 6.796875 -47.390625 L 29.359375 -47.390625 C 30.398438 -47.390625 30.957031 -46.804688 31.03125 -45.640625 L 33.8125 -1.671875 Z M 33.8125 -1.5625 "/></g></g></g><g fill="#f8f6e9" fill-opacity="1"><g transform="translate(573.675622, 93.407593)"><g><path d="M 29 -1.4375 C 29 -0.476562 28.609375 0 27.828125 0 L 2.375 0 C 1.539062 0 1.125 -0.425781 1.125 -1.28125 L 1.125 -1.4375 L 1.75 -14.5625 C 1.78125 -15.519531 2.238281 -16 3.125 -16 L 14.875 -16 L 13.96875 -30.53125 C 13.914062 -31.070312 13.6875 -31.34375 13.28125 -31.34375 L 4.953125 -31.34375 C 4.046875 -31.34375 3.59375 -31.835938 3.59375 -32.828125 L 3.59375 -32.953125 L 4.140625 -45.984375 C 4.160156 -46.921875 4.734375 -47.390625 5.859375 -47.390625 L 22.140625 -47.390625 C 23.148438 -47.390625 23.679688 -46.894531 23.734375 -45.90625 L 25.5 -16 L 27.015625 -16 C 27.867188 -16 28.320312 -15.46875 28.375 -14.40625 L 29 -1.515625 Z M 29 -1.4375 "/></g></g></g><g fill="#f8f6e9" fill-opacity="1"><g transform="translate(603.815895, 93.407593)"><g/></g></g><g fill="#f8f6e9" fill-opacity="1"><g transform="translate(621.501822, 93.407593)"><g><path d="M 27.015625 -22.71875 C 27.015625 -21.601562 26.40625 -21.046875 25.1875 -21.046875 L 18.546875 -21.046875 C 17.210938 -21.046875 16.546875 -21.601562 16.546875 -22.71875 L 16.546875 -45.828125 C 16.546875 -46.867188 17.210938 -47.390625 18.546875 -47.390625 L 25.1875 -47.390625 C 26.40625 -47.390625 27.015625 -46.867188 27.015625 -45.828125 Z M 41.734375 -45.71875 L 39 -1.75 C 38.925781 -0.582031 38.34375 0 37.25 0 L 6.484375 0 C 5.441406 0 4.878906 -0.582031 4.796875 -1.75 L 2.21875 -45.71875 L 2.21875 -46.140625 C 2.21875 -46.972656 2.597656 -47.390625 3.359375 -47.390625 L 11.4375 -47.390625 C 12.269531 -47.390625 12.726562 -46.832031 12.8125 -45.71875 L 14.640625 -16.703125 C 14.660156 -16.285156 14.921875 -16.078125 15.421875 -16.078125 L 28.609375 -16.078125 C 29.003906 -16.078125 29.226562 -16.3125 29.28125 -16.78125 L 31.421875 -45.71875 C 31.503906 -46.832031 32.015625 -47.390625 32.953125 -47.390625 L 40.4375 -47.390625 C 41.300781 -47.390625 41.734375 -46.882812 41.734375 -45.875 Z M 41.734375 -45.71875 "/></g></g></g><g fill="#f8f6e9" fill-opacity="1"><g transform="translate(665.42384, 93.407593)"><g><path d="M 19.28125 -52.28125 C 19.28125 -51.96875 19.253906 -51.679688 19.203125 -51.421875 L 14.484375 -32.203125 C 14.273438 -31.421875 13.726562 -31.03125 12.84375 -31.03125 C 11.644531 -31.03125 11.046875 -31.617188 11.046875 -32.796875 L 11.046875 -51.265625 C 11.046875 -52.691406 11.488281 -53.40625 12.375 -53.40625 L 18.390625 -53.40625 C 18.984375 -53.40625 19.28125 -53.03125 19.28125 -52.28125 Z M 9.953125 -52.28125 C 9.953125 -52.019531 9.914062 -51.734375 9.84375 -51.421875 L 5.109375 -32.203125 C 4.898438 -31.421875 4.34375 -31.03125 3.4375 -31.03125 C 2.207031 -31.03125 1.59375 -31.617188 1.59375 -32.796875 L 1.59375 -51.265625 C 1.59375 -52.691406 2.078125 -53.40625 3.046875 -53.40625 L 9.015625 -53.40625 C 9.640625 -53.40625 9.953125 -53.03125 9.953125 -52.28125 Z M 9.953125 -52.28125 "/></g></g></g><g fill="#f8f6e9" fill-opacity="1"><g transform="translate(685.803639, 93.407593)"><g><path d="M 15.65625 -1.59375 C 15.65625 -0.53125 15.265625 0 14.484375 0 L 6.5625 0 C 5.59375 0 5.109375 -0.53125 5.109375 -1.59375 L 5.109375 -30.6875 C 5.109375 -31.175781 4.925781 -31.421875 4.5625 -31.421875 L 4.140625 -31.421875 C 3.484375 -31.421875 3.117188 -31.957031 3.046875 -33.03125 L 2.21875 -45.640625 L 2.21875 -45.75 C 2.21875 -46.84375 2.726562 -47.390625 3.75 -47.390625 L 14.046875 -47.390625 C 15.117188 -47.390625 15.65625 -46.804688 15.65625 -45.640625 Z M 15.65625 -1.59375 "/></g></g></g><g fill="#f8f6e9" fill-opacity="1"><g transform="translate(703.997097, 93.407593)"><g><path d="M 32.953125 -1.5625 C 32.953125 -0.519531 32.441406 0 31.421875 0 L 3.75 0 C 2.726562 0 2.21875 -0.53125 2.21875 -1.59375 L 2.21875 -1.671875 L 2.96875 -14.125 C 3.039062 -15.375 3.597656 -16 4.640625 -16 L 19.90625 -16 C 20.875 -16 21.359375 -16.378906 21.359375 -17.140625 L 21.359375 -17.25 L 20.609375 -30.53125 C 20.554688 -31.070312 20.113281 -31.34375 19.28125 -31.34375 L 16 -31.34375 C 15.21875 -31.34375 14.789062 -30.96875 14.71875 -30.21875 L 13.96875 -22.21875 C 13.894531 -21.25 13.3125 -20.765625 12.21875 -20.765625 L 4.796875 -20.765625 C 3.835938 -20.765625 3.359375 -21.257812 3.359375 -22.25 L 3.359375 -22.375 L 5.5 -45.640625 C 5.601562 -46.804688 6.191406 -47.390625 7.265625 -47.390625 L 28.609375 -47.390625 C 29.648438 -47.390625 30.210938 -46.804688 30.296875 -45.640625 L 32.953125 -1.671875 Z M 32.953125 -1.5625 "/></g></g></g><g fill="#f8f6e9" fill-opacity="1"><g transform="translate(739.212827, 93.407593)"><g/></g></g><g fill="#f8f6e9" fill-opacity="1"><g transform="translate(756.898754, 93.407593)"><g><path d="M 26.3125 -20.140625 C 26.3125 -19.078125 25.753906 -18.546875 24.640625 -18.546875 L 3.359375 -18.546875 C 2.234375 -18.546875 1.671875 -19.078125 1.671875 -20.140625 L 1.671875 -26.46875 C 1.671875 -27.53125 2.234375 -28.0625 3.359375 -28.0625 L 24.640625 -28.0625 C 25.753906 -28.0625 26.3125 -27.53125 26.3125 -26.46875 Z M 26.3125 -20.140625 "/></g></g></g><g fill="#f8f6e9" fill-opacity="1"><g transform="translate(784.891716, 93.407593)"><g/></g></g><g fill="#f8f6e9" fill-opacity="1"><g transform="translate(802.577642, 93.407593)"><g><path d="M 34.390625 -1.515625 C 34.390625 -0.503906 33.882812 0 32.875 0 L 3.75 0 C 2.726562 0 2.21875 -0.519531 2.21875 -1.5625 L 2.21875 -1.671875 L 4.953125 -45.640625 C 5.035156 -46.804688 5.597656 -47.390625 6.640625 -47.390625 L 30.0625 -47.390625 C 31.101562 -47.390625 31.660156 -46.804688 31.734375 -45.640625 L 34.390625 -1.671875 Z M 23.109375 -16.703125 L 21.984375 -30.875 C 21.929688 -31.1875 21.773438 -31.34375 21.515625 -31.34375 L 15.03125 -31.34375 C 14.632812 -31.34375 14.425781 -31.1875 14.40625 -30.875 L 13.578125 -16.703125 L 13.578125 -16.671875 C 13.578125 -16.222656 13.828125 -16 14.328125 -16 L 22.375 -16 C 22.863281 -16 23.109375 -16.195312 23.109375 -16.59375 Z M 23.109375 -16.703125 "/></g></g></g><g fill="#f8f6e9" fill-opacity="1"><g transform="translate(839.198832, 93.407593)"><g><path d="M 28.140625 -1.5625 C 28.140625 -0.519531 27.632812 0 26.625 0 L 3.046875 0 C 2.078125 0 1.59375 -0.476562 1.59375 -1.4375 L 1.59375 -1.671875 L 2.734375 -14.40625 C 2.859375 -15.46875 3.441406 -16 4.484375 -16 L 16.078125 -16 C 16.648438 -16 16.9375 -16.273438 16.9375 -16.828125 L 16.9375 -16.9375 L 16.078125 -30.609375 C 16.054688 -31.097656 15.8125 -31.34375 15.34375 -31.34375 L 4.40625 -31.34375 C 3.394531 -31.34375 2.890625 -31.8125 2.890625 -32.75 L 2.890625 -32.875 L 3.75 -45.640625 C 3.820312 -46.804688 4.40625 -47.390625 5.5 -47.390625 L 23.8125 -47.390625 C 24.851562 -47.390625 25.414062 -46.804688 25.5 -45.640625 L 28.140625 -1.671875 Z M 28.140625 -1.5625 "/></g></g></g><g fill="#f8f6e9" fill-opacity="1"><g transform="translate(869.612409, 93.407593)"><g><path d="M 33.65625 -45.71875 L 31.03125 -1.75 C 30.957031 -0.582031 30.375 0 29.28125 0 L 6.484375 0 C 5.441406 0 4.878906 -0.582031 4.796875 -1.75 L 2.140625 -45.71875 L 2.140625 -45.90625 C 2.140625 -46.894531 2.648438 -47.390625 3.671875 -47.390625 L 32.125 -47.390625 C 33.144531 -47.390625 33.65625 -46.867188 33.65625 -45.828125 Z M 22.296875 -30.765625 C 22.296875 -31.253906 22.0625 -31.5 21.59375 -31.5 L 14.125 -31.5 C 13.65625 -31.5 13.421875 -31.265625 13.421875 -30.796875 L 13.421875 -30.6875 L 14.5625 -16.546875 C 14.582031 -16.234375 14.765625 -16.078125 15.109375 -16.078125 L 20.890625 -16.078125 C 21.253906 -16.078125 21.460938 -16.234375 21.515625 -16.546875 L 22.296875 -30.6875 Z M 22.296875 -30.765625 "/></g></g></g><g fill="#f8f6e9" fill-opacity="1"><g transform="translate(905.569945, 93.407593)"><g><path d="M 33.8125 -1.5625 C 33.8125 -0.519531 33.300781 0 32.28125 0 L 17.6875 0 C 16.664062 0 16.15625 -0.53125 16.15625 -1.59375 L 16.15625 -1.671875 L 16.859375 -14.046875 C 16.941406 -15.347656 17.503906 -16 18.546875 -16 L 21.59375 -16 C 22.082031 -16 22.328125 -16.25 22.328125 -16.75 C 22.328125 -16.851562 22.316406 -16.914062 22.296875 -16.9375 L 21.4375 -30.453125 C 21.40625 -31.097656 21.101562 -31.421875 20.53125 -31.421875 L 15.5 -31.421875 C 14.945312 -31.421875 14.660156 -31.097656 14.640625 -30.453125 L 12.890625 -1.671875 C 12.804688 -0.554688 12.242188 0 11.203125 0 L 3.75 0 C 2.726562 0 2.21875 -0.53125 2.21875 -1.59375 L 2.21875 -1.671875 L 5.03125 -45.640625 C 5.113281 -46.804688 5.703125 -47.390625 6.796875 -47.390625 L 29.359375 -47.390625 C 30.398438 -47.390625 30.957031 -46.804688 31.03125 -45.640625 L 33.8125 -1.671875 Z M 33.8125 -1.5625 "/></g></g></g><g fill="#f8f6e9" fill-opacity="1"><g transform="translate(941.644526, 93.407593)"><g/></g></g><g fill="#f8f6e9" fill-opacity="1"><g transform="translate(959.330452, 93.407593)"><g><path d="M 29.515625 6.484375 C 29.515625 7.546875 29.109375 8.078125 28.296875 8.078125 L 20.296875 8.078125 C 19.335938 8.078125 18.859375 7.546875 18.859375 6.484375 L 18.859375 -30.21875 C 18.859375 -30.96875 18.597656 -31.34375 18.078125 -31.34375 L 13.421875 -31.34375 C 12.929688 -31.34375 12.648438 -30.96875 12.578125 -30.21875 L 11.828125 -22.21875 C 11.753906 -21.25 11.171875 -20.765625 10.078125 -20.765625 L 2.65625 -20.765625 C 1.6875 -20.765625 1.203125 -21.257812 1.203125 -22.25 L 1.203125 -22.375 L 3.359375 -45.640625 C 3.460938 -46.804688 4.046875 -47.390625 5.109375 -47.390625 L 27.90625 -47.390625 C 28.976562 -47.390625 29.515625 -46.804688 29.515625 -45.640625 Z M 29.515625 6.484375 "/></g></g></g><g fill="#f8f6e9" fill-opacity="1"><g transform="translate(992.086492, 93.407593)"><g><path d="M 32.09375 -45.59375 C 32.09375 -45.570312 32.09375 -45.507812 32.09375 -45.40625 C 32.09375 -45.300781 32.078125 -45.144531 32.046875 -44.9375 L 29.4375 -3.046875 C 29.382812 -2.234375 29.054688 -1.519531 28.453125 -0.90625 C 27.859375 -0.300781 27.171875 0 26.390625 0 L 18.234375 0 C 17.160156 0 16.625 -0.609375 16.625 -1.828125 L 16.625 -14.484375 C 16.625 -15.492188 17.210938 -16 18.390625 -16 C 19.140625 -16 19.539062 -16.390625 19.59375 -17.171875 L 20.6875 -30.296875 C 20.71875 -30.347656 20.734375 -30.410156 20.734375 -30.484375 C 20.734375 -31.109375 20.484375 -31.421875 19.984375 -31.421875 L 4.640625 -31.421875 C 3.679688 -31.421875 3.175781 -31.957031 3.125 -33.03125 L 2.375 -45.25 L 2.375 -45.71875 C 2.375 -46.832031 2.859375 -47.390625 3.828125 -47.390625 L 30.875 -47.3125 C 31.6875 -47.3125 32.09375 -46.738281 32.09375 -45.59375 Z M 14.125 6.40625 C 14.125 7.519531 13.515625 8.078125 12.296875 8.078125 L 5.65625 8.078125 C 4.332031 8.078125 3.671875 7.519531 3.671875 6.40625 L 3.671875 -21.28125 C 3.671875 -22.34375 4.332031 -22.875 5.65625 -22.875 L 12.296875 -22.875 C 13.515625 -22.875 14.125 -22.34375 14.125 -21.28125 Z M 14.125 6.40625 "/></g></g></g><g fill="#f8f6e9" fill-opacity="1"><g transform="translate(1026.44328, 93.407593)"><g><path d="M 27.015625 -22.71875 C 27.015625 -21.601562 26.40625 -21.046875 25.1875 -21.046875 L 18.546875 -21.046875 C 17.210938 -21.046875 16.546875 -21.601562 16.546875 -22.71875 L 16.546875 -45.828125 C 16.546875 -46.867188 17.210938 -47.390625 18.546875 -47.390625 L 25.1875 -47.390625 C 26.40625 -47.390625 27.015625 -46.867188 27.015625 -45.828125 Z M 41.734375 -45.71875 L 39 -1.75 C 38.925781 -0.582031 38.34375 0 37.25 0 L 6.484375 0 C 5.441406 0 4.878906 -0.582031 4.796875 -1.75 L 2.21875 -45.71875 L 2.21875 -46.140625 C 2.21875 -46.972656 2.597656 -47.390625 3.359375 -47.390625 L 11.4375 -47.390625 C 12.269531 -47.390625 12.726562 -46.832031 12.8125 -45.71875 L 14.640625 -16.703125 C 14.660156 -16.285156 14.921875 -16.078125 15.421875 -16.078125 L 28.609375 -16.078125 C 29.003906 -16.078125 29.226562 -16.3125 29.28125 -16.78125 L 31.421875 -45.71875 C 31.503906 -46.832031 32.015625 -47.390625 32.953125 -47.390625 L 40.4375 -47.390625 C 41.300781 -47.390625 41.734375 -46.882812 41.734375 -45.875 Z M 41.734375 -45.71875 "/></g></g></g><g clip-path="url(#739700cd19)"><g clip-path="url(#6c9d597bcb)"><g clip-path="url(#b444c2cb7b)"><path fill="#f8f6e9" d="M 1129.167969 30.972656 L 1131.964844 50.285156 L 1149.460938 58.929688 L 1131.949219 67.570312 L 1129.148438 86.886719 L 1115.527344 72.90625 L 1096.277344 76.191406 L 1105.363281 58.921875 L 1096.296875 41.636719 L 1115.53125 44.941406 Z M 1129.167969 30.972656 " fill-opacity="1" fill-rule="nonzero"/><path fill="#f8f6e9" d="M 1129.089844 30.773438 L 1131.898438 50.089844 L 1149.394531 58.730469 L 1131.886719 67.371094 L 1129.074219 86.683594 L 1115.453125 72.703125 L 1096.210938 75.996094 L 1105.300781 58.722656 L 1096.222656 41.4375 L 1115.457031 44.742188 Z M 1129.089844 30.773438 " fill-opacity="1" fill-rule="nonzero"/><path fill="#f8f6e9" d="M 1129.089844 30.773438 L 1131.898438 50.089844 L 1149.394531 58.730469 L 1131.886719 67.371094 L 1129.074219 86.683594 L 1115.453125 72.703125 L 1096.210938 75.996094 L 1105.300781 58.722656 L 1096.222656 41.4375 L 1115.457031 44.742188 Z M 1129.089844 30.773438 " fill-opacity="1" fill-rule="nonzero"/><path fill="#f8f6e9" d="M 1129.089844 30.773438 L 1131.898438 50.089844 L 1149.394531 58.730469 L 1131.886719 67.371094 L 1129.074219 86.683594 L 1115.453125 72.703125 L 1096.210938 75.996094 L 1105.300781 58.722656 L 1096.222656 41.4375 L 1115.457031 44.742188 Z M 1129.089844 30.773438 " fill-opacity="1" fill-rule="nonzero"/></g></g></g><g clip-path="url(#67b2b56ee9)"><g clip-path="url(#b5b1222a29)"><g clip-path="url(#b05da28c6a)"><path fill="#f8f6e9" d="M 41.125 28.710938 C 41.519531 29.652344 41.992188 30.550781 42.539062 31.410156 C 43.085938 32.269531 43.703125 33.078125 44.386719 33.832031 C 45.074219 34.589844 45.816406 35.28125 46.617188 35.910156 C 47.421875 36.539062 48.269531 37.09375 49.164062 37.582031 C 50.0625 38.066406 50.992188 38.472656 51.957031 38.796875 C 52.921875 39.125 53.910156 39.371094 54.917969 39.53125 C 55.921875 39.691406 56.933594 39.765625 57.953125 39.753906 C 58.972656 39.738281 59.984375 39.644531 60.988281 39.460938 C 65.839844 38.574219 72 37.101562 79.828125 34.769531 C 72 37.101562 66.035156 39.242188 61.492188 41.15625 C 60.550781 41.550781 59.652344 42.019531 58.792969 42.570312 C 57.933594 43.117188 57.125 43.734375 56.371094 44.417969 C 55.617188 45.101562 54.925781 45.84375 54.296875 46.648438 C 53.667969 47.449219 53.109375 48.296875 52.625 49.195312 C 52.140625 50.089844 51.734375 51.023438 51.40625 51.988281 C 51.078125 52.953125 50.835938 53.9375 50.675781 54.945312 C 50.515625 55.953125 50.441406 56.964844 50.453125 57.984375 C 50.464844 59.003906 50.5625 60.011719 50.746094 61.015625 C 51.628906 65.867188 53.101562 72.03125 55.433594 79.859375 C 53.101562 72.03125 50.964844 66.066406 49.050781 61.519531 C 48.65625 60.582031 48.183594 59.683594 47.636719 58.824219 C 47.089844 57.960938 46.472656 57.15625 45.789062 56.402344 C 45.101562 55.644531 44.359375 54.953125 43.558594 54.324219 C 42.753906 53.695312 41.90625 53.136719 41.011719 52.652344 C 40.113281 52.167969 39.183594 51.761719 38.21875 51.433594 C 37.253906 51.109375 36.265625 50.863281 35.261719 50.703125 C 34.253906 50.542969 33.242188 50.46875 32.222656 50.480469 C 31.203125 50.492188 30.191406 50.589844 29.1875 50.773438 C 24.335938 51.660156 18.175781 53.132812 10.347656 55.460938 C 18.175781 53.132812 24.140625 50.992188 28.683594 49.078125 C 29.625 48.683594 30.523438 48.210938 31.382812 47.664062 C 32.242188 47.117188 33.050781 46.5 33.804688 45.816406 C 34.558594 45.132812 35.25 44.386719 35.878906 43.585938 C 36.507812 42.785156 37.066406 41.933594 37.550781 41.039062 C 38.035156 40.144531 38.441406 39.210938 38.769531 38.246094 C 39.097656 37.28125 39.339844 36.296875 39.5 35.289062 C 39.660156 34.28125 39.734375 33.269531 39.722656 32.25 C 39.710938 31.230469 39.613281 30.21875 39.429688 29.21875 C 38.546875 24.367188 37.074219 18.203125 34.742188 10.375 C 37.074219 18.203125 39.210938 24.167969 41.125 28.710938 Z M 41.125 28.710938 " fill-opacity="1" fill-rule="nonzero"/></g></g></g><g clip-path="url(#948826d99e)"><g clip-path="url(#4bb6a3774b)"><g clip-path="url(#34389a746e)"><path fill="#f8f6e9" d="M 23.621094 72.105469 L 30.480469 76.398438 L 37.90625 73.175781 L 35.945312 81.035156 L 41.308594 87.097656 L 33.234375 87.660156 L 29.113281 94.632812 L 26.082031 87.128906 L 18.183594 85.363281 L 24.386719 80.164062 Z M 23.621094 72.105469 " fill-opacity="1" fill-rule="nonzero"/><path fill="#f8f6e9" d="M 23.535156 72.074219 L 30.402344 76.363281 L 37.828125 73.144531 L 35.867188 81 L 41.222656 87.066406 L 33.148438 87.632812 L 29.035156 94.601562 L 26.003906 87.097656 L 18.101562 85.335938 L 24.300781 80.132812 Z M 23.535156 72.074219 " fill-opacity="1" fill-rule="nonzero"/><path fill="#f8f6e9" d="M 23.535156 72.074219 L 30.402344 76.363281 L 37.828125 73.144531 L 35.867188 81 L 41.222656 87.066406 L 33.148438 87.632812 L 29.035156 94.601562 L 26.003906 87.097656 L 18.101562 85.335938 L 24.300781 80.132812 Z M 23.535156 72.074219 " fill-opacity="1" fill-rule="nonzero"/><path fill="#f8f6e9" d="M 23.535156 72.074219 L 30.402344 76.363281 L 37.828125 73.144531 L 35.867188 81 L 41.222656 87.066406 L 33.148438 87.632812 L 29.035156 94.601562 L 26.003906 87.097656 L 18.101562 85.335938 L 24.300781 80.132812 Z M 23.535156 72.074219 " fill-opacity="1" fill-rule="nonzero"/></g></g></g></svg>