<svg xmlns="http://www.w3.org/2000/svg" xmlns:xlink="http://www.w3.org/1999/xlink" width="191" zoomAndPan="magnify" viewBox="0 0 143.25 149.999998" height="200" preserveAspectRatio="xMidYMid meet" version="1.0"><defs><g/><clipPath id="bcb7bd158e"><path d="M 0 7.035156 L 141.859375 7.035156 L 141.859375 148.894531 L 0 148.894531 Z M 0 7.035156 " clip-rule="nonzero"/></clipPath><clipPath id="9a02d811ba"><path d="M 70.929688 7.035156 L 84.699219 26.578125 L 106.394531 16.539062 L 108.546875 40.347656 L 132.359375 42.5 L 122.316406 64.195312 L 141.859375 77.964844 L 122.316406 91.734375 L 132.359375 113.429688 L 108.546875 115.582031 L 106.394531 139.394531 L 84.699219 129.351562 L 70.929688 148.894531 L 57.160156 129.351562 L 35.464844 139.394531 L 33.3125 115.582031 L 9.503906 113.429688 L 19.546875 91.734375 L 0 77.964844 L 19.546875 64.195312 L 9.503906 42.5 L 33.3125 40.347656 L 35.464844 16.539062 L 57.160156 26.578125 Z M 70.929688 7.035156 " clip-rule="nonzero"/></clipPath><clipPath id="7c695b78f9"><path d="M 0 7.035156 L 141.757812 7.035156 L 141.757812 148.792969 L 0 148.792969 Z M 0 7.035156 " clip-rule="nonzero"/></clipPath><clipPath id="73e121faa6"><path d="M 70.925781 7.035156 L 84.691406 26.578125 L 106.386719 16.535156 L 108.539062 40.347656 L 132.347656 42.496094 L 122.308594 64.191406 L 141.851562 77.960938 L 122.308594 91.726562 L 132.347656 113.421875 L 108.539062 115.574219 L 106.386719 139.382812 L 84.691406 129.339844 L 70.925781 148.886719 L 57.15625 129.339844 L 35.460938 139.382812 L 33.3125 115.574219 L 9.503906 113.421875 L 19.542969 91.726562 L 0 77.960938 L 19.542969 64.191406 L 9.503906 42.496094 L 33.3125 40.347656 L 35.460938 16.535156 L 57.15625 26.578125 Z M 70.925781 7.035156 " clip-rule="nonzero"/></clipPath><clipPath id="f7041e33e3"><path d="M 0 0.390625 L 141.859375 0.390625 L 141.859375 142.25 L 0 142.25 Z M 0 0.390625 " clip-rule="nonzero"/></clipPath><clipPath id="fa138d353e"><path d="M 70.929688 0.390625 L 84.699219 19.9375 L 106.394531 9.894531 L 108.546875 33.703125 L 132.359375 35.855469 L 122.316406 57.550781 L 141.859375 71.320312 L 122.316406 85.089844 L 132.359375 106.785156 L 108.546875 108.9375 L 106.394531 132.75 L 84.699219 122.707031 L 70.929688 142.25 L 57.160156 122.707031 L 35.464844 132.75 L 33.3125 108.9375 L 9.503906 106.785156 L 19.546875 85.089844 L 0 71.320312 L 19.546875 57.550781 L 9.503906 35.855469 L 33.3125 33.703125 L 35.464844 9.894531 L 57.160156 19.9375 Z M 70.929688 0.390625 " clip-rule="nonzero"/></clipPath><clipPath id="78e011b2b9"><path d="M 0 0.390625 L 141.757812 0.390625 L 141.757812 142.148438 L 0 142.148438 Z M 0 0.390625 " clip-rule="nonzero"/></clipPath><clipPath id="e4a3a256c3"><path d="M 70.925781 0.390625 L 84.691406 19.933594 L 106.386719 9.894531 L 108.539062 33.703125 L 132.347656 35.851562 L 122.308594 57.546875 L 141.851562 71.316406 L 122.308594 85.082031 L 132.347656 106.777344 L 108.539062 108.929688 L 106.386719 132.738281 L 84.691406 122.699219 L 70.925781 142.242188 L 57.15625 122.699219 L 35.460938 132.738281 L 33.3125 108.929688 L 9.503906 106.777344 L 19.542969 85.082031 L 0 71.316406 L 19.542969 57.546875 L 9.503906 35.851562 L 33.3125 33.703125 L 35.460938 9.894531 L 57.15625 19.933594 Z M 70.925781 0.390625 " clip-rule="nonzero"/></clipPath></defs><g clip-path="url(#bcb7bd158e)"><g clip-path="url(#9a02d811ba)"><path fill="#242536" d="M 0 7.035156 L 141.859375 7.035156 L 141.859375 148.894531 L 0 148.894531 Z M 0 7.035156 " fill-opacity="1" fill-rule="nonzero"/></g></g><g clip-path="url(#7c695b78f9)"><g clip-path="url(#73e121faa6)"><path stroke-linecap="butt" transform="matrix(0.746094, 0, 0, 0.746094, -0.000000000000127232, 7.034658)" fill="none" stroke-linejoin="miter" d="M 95.062825 0.000668302 L 113.513086 26.194385 L 142.59162 12.733652 L 145.476437 44.649882 L 177.387431 47.529463 L 163.931934 76.607996 L 190.12565 95.063493 L 163.931934 113.513755 L 177.387431 142.592288 L 145.476437 145.477105 L 142.59162 177.388099 L 113.513086 163.927366 L 95.062825 190.126319 L 76.607328 163.927366 L 47.528795 177.388099 L 44.649214 145.477105 L 12.73822 142.592288 L 26.193717 113.513755 L 0.00000000000017053 95.063493 L 26.193717 76.607996 L 12.73822 47.529463 L 44.649214 44.649882 L 47.528795 12.733652 L 76.607328 26.194385 Z M 95.062825 0.000668302 " stroke="#242536" stroke-width="18" stroke-opacity="1" stroke-miterlimit="4"/></g></g><g clip-path="url(#f7041e33e3)"><g clip-path="url(#fa138d353e)"><path fill="#f5a099" d="M 0 0.390625 L 141.859375 0.390625 L 141.859375 142.25 L 0 142.25 Z M 0 0.390625 " fill-opacity="1" fill-rule="nonzero"/></g></g><g clip-path="url(#78e011b2b9)"><g clip-path="url(#e4a3a256c3)"><path stroke-linecap="butt" transform="matrix(0.746094, 0, 0, 0.746094, -0.000000000000127232, 0.390626)" fill="none" stroke-linejoin="miter" d="M 95.062825 -0.000000991274 L 113.513086 26.193716 L 142.59162 12.738219 L 145.476437 44.649213 L 177.387431 47.528794 L 163.931934 76.607327 L 190.12565 95.062824 L 163.931934 113.513085 L 177.387431 142.591619 L 145.476437 145.476436 L 142.59162 177.38743 L 113.513086 163.931933 L 95.062825 190.125649 L 76.607328 163.931933 L 47.528795 177.38743 L 44.649214 145.476436 L 12.73822 142.591619 L 26.193717 113.513085 L 0.00000000000017053 95.062824 L 26.193717 76.607327 L 12.73822 47.528794 L 44.649214 44.649213 L 47.528795 12.738219 L 76.607328 26.193716 Z M 95.062825 -0.000000991274 " stroke="#cf4545" stroke-width="18" stroke-opacity="1" stroke-miterlimit="4"/></g></g><g fill="#cf4545" fill-opacity="1"><g transform="translate(43.278379, 66.690008)"><g><path d="M 11.796875 0 L 7.234375 0 L 7.234375 -12.84375 C 7.234375 -13.34375 6.972656 -13.59375 6.453125 -13.59375 L 0.796875 -13.59375 L 0.796875 -18.40625 L 8.546875 -18.40625 C 9.503906 -18.40625 10.285156 -18.097656 10.890625 -17.484375 C 11.492188 -16.878906 11.796875 -16.097656 11.796875 -15.140625 Z M 5.28125 0 L 0.8125 0 L 0.8125 -11.40625 L 5.28125 -11.40625 Z M 5.28125 0 "/></g></g></g><g fill="#cf4545" fill-opacity="1"><g transform="translate(55.865637, 66.690008)"><g><path d="M 10.984375 -6.65625 C 10.984375 -2.21875 8.859375 0 4.609375 0 L 2.671875 0 L 2.671875 -4.796875 L 3.984375 -4.796875 C 4.984375 -4.796875 5.664062 -5.117188 6.03125 -5.765625 C 6.289062 -6.222656 6.421875 -7.015625 6.421875 -8.140625 L 6.421875 -12.84375 C 6.421875 -13.34375 6.160156 -13.59375 5.640625 -13.59375 L 0.796875 -13.59375 L 0.796875 -20.6875 L 5.296875 -20.6875 L 5.296875 -18.40625 L 8.6875 -18.40625 C 10.21875 -18.40625 10.984375 -17.660156 10.984375 -16.171875 Z M 10.984375 -6.65625 "/></g></g></g><g fill="#cf4545" fill-opacity="1"><g transform="translate(67.644824, 66.690008)"><g><path d="M 8.328125 0 C 8.191406 -0.726562 7.898438 -1.679688 7.453125 -2.859375 C 7.003906 -4.046875 6.390625 -5.484375 5.609375 -7.171875 C 5.523438 -7.078125 5.460938 -7.003906 5.421875 -6.953125 C 5.378906 -6.898438 5.351562 -6.867188 5.34375 -6.859375 C 5.332031 -6.816406 5.320312 -6.722656 5.3125 -6.578125 C 5.3125 -6.441406 5.3125 -6.25 5.3125 -6 L 5.3125 0 L 0.828125 0 L 0.828125 -5.5 C 0.828125 -8.414062 1.722656 -10.300781 3.515625 -11.15625 C 1.796875 -14.53125 0.835938 -16.945312 0.640625 -18.40625 L 5.3125 -18.40625 C 5.539062 -17.363281 5.878906 -16.265625 6.328125 -15.109375 C 6.785156 -13.960938 7.351562 -12.742188 8.03125 -11.453125 C 8.289062 -11.640625 8.421875 -12.023438 8.421875 -12.609375 L 8.421875 -18.40625 L 12.96875 -18.40625 L 12.96875 -12.171875 C 12.96875 -11.234375 12.679688 -10.328125 12.109375 -9.453125 C 11.535156 -8.578125 10.832031 -7.910156 10 -7.453125 C 11.9375 -3.597656 12.925781 -1.113281 12.96875 0 Z M 8.328125 0 "/></g></g></g><g fill="#cf4545" fill-opacity="1"><g transform="translate(81.24217, 66.690008)"><g><path d="M 5.125 -13.171875 L 5.828125 -13.171875 C 6.335938 -13.171875 6.59375 -13.445312 6.59375 -14 L 6.59375 -18.40625 L 10.734375 -18.40625 L 10.734375 -13.234375 C 10.734375 -11.097656 9.804688 -10.03125 7.953125 -10.03125 L 5.125 -10.03125 L 5.125 -5.640625 C 5.125 -5.078125 5.359375 -4.796875 5.828125 -4.796875 L 11.5 -4.796875 C 11.957031 -4.796875 12.1875 -5.078125 12.1875 -5.640625 L 12.1875 -18.40625 L 16.53125 -18.40625 L 16.53125 -4.1875 C 16.53125 -2.914062 16.207031 -1.910156 15.5625 -1.171875 C 14.875 -0.390625 13.90625 0 12.65625 0 L 4.671875 0 C 2.085938 0 0.796875 -1.394531 0.796875 -4.1875 L 0.796875 -18.40625 L 5.125 -18.40625 Z M 5.125 -13.171875 "/></g></g></g><g fill="#cf4545" fill-opacity="1"><g transform="translate(57.419187, 99.518132)"><g><path d="M 14.25 -12.859375 L 13.5625 -10.65625 L 10.765625 -10.65625 L 10.296875 -9.078125 L 13.171875 -9.078125 L 12.515625 -6.875 L 9.625 -6.875 L 8.90625 -4.296875 L 6.5625 -4.296875 L 7.234375 -6.875 L 5.53125 -6.875 L 4.75 -4.296875 L 2.390625 -4.296875 L 3.171875 -6.875 L 0.375 -6.875 L 0.9375 -9.078125 L 3.78125 -9.078125 L 4.28125 -10.65625 L 1.40625 -10.65625 L 2.0625 -12.859375 L 4.921875 -12.859375 L 5.671875 -15.4375 L 8.078125 -15.4375 L 7.296875 -12.859375 L 9.046875 -12.859375 L 9.828125 -15.4375 L 12.1875 -15.4375 L 11.40625 -12.859375 Z M 8.375 -10.65625 L 6.609375 -10.65625 L 6.15625 -9.078125 L 7.90625 -9.078125 Z M 8.375 -10.65625 "/></g></g></g><g fill="#cf4545" fill-opacity="1"><g transform="translate(72.011082, 99.518132)"><g><path d="M 12.578125 -3.5 L 11.65625 -3.5 L 11.65625 0 L 7.171875 0 L 7.171875 -3.5 L -0.15625 -3.5 L 3.34375 -18.40625 L 8.015625 -18.40625 L 5.703125 -8.3125 L 7.171875 -8.3125 L 7.171875 -11.484375 L 11.65625 -11.484375 L 11.65625 -8.3125 L 12.578125 -8.3125 Z M 12.578125 -3.5 "/></g></g></g></svg>