<svg xmlns="http://www.w3.org/2000/svg" xmlns:xlink="http://www.w3.org/1999/xlink" width="196" zoomAndPan="magnify" viewBox="0 0 147 201.75" height="269" preserveAspectRatio="xMidYMid meet" version="1.0"><defs><g/><clipPath id="59c72d6d70"><path d="M 0.0898438 23.714844 L 138.929688 23.714844 L 138.929688 201.5 L 0.0898438 201.5 Z M 0.0898438 23.714844 " clip-rule="nonzero"/></clipPath><clipPath id="798d7b0e39"><path d="M 138.929688 23.714844 L 138.929688 176.4375 L 69.507812 201.425781 L 0.0898438 176.4375 L 0.0898438 23.714844 Z M 138.929688 23.714844 " clip-rule="nonzero"/></clipPath><clipPath id="53daa68481"><path d="M 0.09375 23.714844 L 138.667969 23.714844 L 138.667969 201.246094 L 0.09375 201.246094 Z M 0.09375 23.714844 " clip-rule="nonzero"/></clipPath><clipPath id="2fc0298e0a"><path d="M 138.925781 23.714844 L 138.925781 176.429688 L 69.507812 201.421875 L 0.09375 176.429688 L 0.09375 23.714844 Z M 138.925781 23.714844 " clip-rule="nonzero"/></clipPath><clipPath id="bc9d3c9bc0"><path d="M 7.582031 12.167969 L 146.417969 12.167969 L 146.417969 190 L 7.582031 190 Z M 7.582031 12.167969 " clip-rule="nonzero"/></clipPath><clipPath id="64e3758d0d"><path d="M 146.417969 12.167969 L 146.417969 164.890625 L 77 189.878906 L 7.582031 164.890625 L 7.582031 12.167969 Z M 146.417969 12.167969 " clip-rule="nonzero"/></clipPath><clipPath id="4ad50c7622"><path d="M 7.582031 12.167969 L 146.160156 12.167969 L 146.160156 189.699219 L 7.582031 189.699219 Z M 7.582031 12.167969 " clip-rule="nonzero"/></clipPath><clipPath id="c7bff49c90"><path d="M 146.414062 12.167969 L 146.414062 164.882812 L 77 189.875 L 7.582031 164.882812 L 7.582031 12.167969 Z M 146.414062 12.167969 " clip-rule="nonzero"/></clipPath><clipPath id="a6e3ccc5fc"><path d="M 57.03125 0 L 96.96875 0 L 96.96875 39.9375 L 57.03125 39.9375 Z M 57.03125 0 " clip-rule="nonzero"/></clipPath><clipPath id="ae64a997cf"><path d="M 77 0 C 65.972656 0 57.03125 8.941406 57.03125 19.96875 C 57.03125 30.996094 65.972656 39.9375 77 39.9375 C 88.027344 39.9375 96.96875 30.996094 96.96875 19.96875 C 96.96875 8.941406 88.027344 0 77 0 Z M 77 0 " clip-rule="nonzero"/></clipPath><clipPath id="76009d9f37"><path d="M 57.03125 0 L 96.730469 0 L 96.730469 39.699219 L 57.03125 39.699219 Z M 57.03125 0 " clip-rule="nonzero"/></clipPath><clipPath id="18749c5124"><path d="M 77 0 C 65.972656 0 57.03125 8.941406 57.03125 19.96875 C 57.03125 30.996094 65.972656 39.933594 77 39.933594 C 88.027344 39.933594 96.964844 30.996094 96.964844 19.96875 C 96.964844 8.941406 88.027344 0 77 0 Z M 77 0 " clip-rule="nonzero"/></clipPath><clipPath id="62cf657896"><path d="M 6 43 L 146.90625 43 L 146.90625 47 L 6 47 Z M 6 43 " clip-rule="nonzero"/></clipPath></defs><g clip-path="url(#59c72d6d70)"><g clip-path="url(#798d7b0e39)"><path fill="#242536" d="M 0.0898438 23.714844 L 138.929688 23.714844 L 138.929688 201.601562 L 0.0898438 201.601562 Z M 0.0898438 23.714844 " fill-opacity="1" fill-rule="nonzero"/></g></g><g clip-path="url(#53daa68481)"><g clip-path="url(#2fc0298e0a)"><path stroke-linecap="butt" transform="matrix(0.749072, 0, 0, 0.749072, 0.0926111, 23.714623)" fill="none" stroke-linejoin="miter" d="M 185.34027 0.000294592 L 185.34027 203.872398 L 92.668288 237.236606 L 0.00152045 203.872398 L 0.00152045 0.000294592 Z M 185.34027 0.000294592 " stroke="#242536" stroke-width="16" stroke-opacity="1" stroke-miterlimit="4"/></g></g><g clip-path="url(#bc9d3c9bc0)"><g clip-path="url(#64e3758d0d)"><path fill="#f8f6e9" d="M 7.582031 12.167969 L 146.417969 12.167969 L 146.417969 190.054688 L 7.582031 190.054688 Z M 7.582031 12.167969 " fill-opacity="1" fill-rule="nonzero"/></g></g><g clip-path="url(#4ad50c7622)"><g clip-path="url(#c7bff49c90)"><path stroke-linecap="butt" transform="matrix(0.749072, 0, 0, 0.749072, 7.583328, 12.168195)" fill="none" stroke-linejoin="miter" d="M 185.337018 -0.000302006 L 185.337018 203.871802 L 92.670251 237.23601 L -0.0017318 203.871802 L -0.0017318 -0.000302006 Z M 185.337018 -0.000302006 " stroke="#242536" stroke-width="16" stroke-opacity="1" stroke-miterlimit="4"/></g></g><g clip-path="url(#a6e3ccc5fc)"><g clip-path="url(#ae64a997cf)"><path fill="#242536" d="M 57.03125 0 L 96.96875 0 L 96.96875 39.9375 L 57.03125 39.9375 Z M 57.03125 0 " fill-opacity="1" fill-rule="nonzero"/></g></g><g clip-path="url(#76009d9f37)"><g clip-path="url(#18749c5124)"><path stroke-linecap="butt" transform="matrix(0.749072, 0, 0, 0.749072, 57.03115, 0.00000998762)" fill="none" stroke-linejoin="miter" d="M 26.658127 -0.0000133333 C 11.936782 -0.0000133333 0.000133658 11.936635 0.000133658 26.65798 C 0.000133658 41.379325 11.936782 53.310759 26.658127 53.310759 C 41.379472 53.310759 53.310906 41.379325 53.310906 26.65798 C 53.310906 11.936635 41.379472 -0.0000133333 26.658127 -0.0000133333 Z M 26.658127 -0.0000133333 " stroke="#f5a099" stroke-width="20" stroke-opacity="1" stroke-miterlimit="4"/></g></g><g fill="#f5a099" fill-opacity="1"><g transform="translate(31.180795, 128.36528)"><g><path d="M 53.046875 -46.390625 L 51.40625 -37.875 L 41.90625 -37.875 L 40.359375 -28 L 49.859375 -28 L 48.78125 -19.84375 L 39.046875 -19.84375 L 37.59375 -9.21875 L 28.5625 -9.21875 L 30 -19.84375 L 21.390625 -19.84375 L 19.75 -9.21875 L 10.53125 -9.21875 L 12.453125 -19.84375 L 2.859375 -19.84375 L 3.9375 -28 L 13.71875 -28 L 15.265625 -37.875 L 5.578125 -37.875 L 7.015625 -46.390625 L 16.859375 -46.390625 L 18.390625 -56.546875 L 27.625 -56.546875 L 25.984375 -46.390625 L 33.9375 -46.390625 L 35.390625 -56.546875 L 44.46875 -56.546875 L 43.0625 -46.390625 Z M 32.765625 -37.875 L 24.25 -37.875 L 22.796875 -28 L 31.265625 -28 Z M 32.765625 -37.875 "/></g></g><g transform="translate(87.080274, 128.36528)"><g><path d="M 34.78125 -7.71875 C 34.78125 -6.414062 34.078125 -5.765625 32.671875 -5.765625 L 31.171875 -5.765625 L 31.171875 -2.015625 C 31.171875 -0.671875 30.597656 0 29.453125 0 L 21.484375 0 C 20.328125 0 19.75 -0.671875 19.75 -2.015625 L 19.75 -5.765625 L 3.1875 -5.765625 C 2.59375 -5.765625 2.066406 -6.050781 1.609375 -6.625 C 1.160156 -7.195312 0.9375 -7.78125 0.9375 -8.375 L 0.9375 -8.421875 L 1.453125 -22.609375 C 1.484375 -24.421875 1.859375 -26.0625 2.578125 -27.53125 L 15.359375 -54.71875 C 16.015625 -56.125 16.960938 -56.828125 18.203125 -56.828125 L 28.9375 -56.828125 C 29.863281 -56.828125 30.46875 -56.703125 30.75 -56.453125 C 31.03125 -56.203125 31.171875 -55.625 31.171875 -54.71875 L 31.171875 -24.8125 L 32.390625 -24.8125 C 33.671875 -24.8125 34.34375 -24.109375 34.40625 -22.703125 Z M 19.75 -24.8125 L 19.75 -36.515625 L 14.09375 -24.8125 Z M 19.75 -24.8125 "/></g></g></g><g clip-path="url(#62cf657896)"><path stroke-linecap="butt" transform="matrix(0.749072, 0, 0, 0.749072, 7.581683, 43.944893)" fill="none" stroke-linejoin="miter" d="M 0.000465319 1.502419 L 185.344442 1.502419 " stroke="#242536" stroke-width="3" stroke-opacity="1" stroke-miterlimit="4"/></g></svg>