<svg xmlns="http://www.w3.org/2000/svg" xmlns:xlink="http://www.w3.org/1999/xlink" width="932" zoomAndPan="magnify" viewBox="0 0 699 141.750002" height="189" preserveAspectRatio="xMidYMid meet" version="1.0"><defs><g/><clipPath id="aef2afbc04"><path d="M 0.617188 9.953125 L 698.375 9.953125 L 698.375 141.390625 L 0.617188 141.390625 Z M 0.617188 9.953125 " clip-rule="nonzero"/></clipPath><clipPath id="bb70a6bced"><path d="M 0.617188 25.113281 L 349.464844 9.953125 L 698.316406 25.113281 L 698.316406 126.230469 L 349.464844 141.390625 L 0.617188 126.230469 Z M 0.617188 25.113281 " clip-rule="nonzero"/></clipPath><clipPath id="1227d0a430"><path d="M 0.617188 0 L 698.382812 0 L 698.382812 122.628906 L 0.617188 122.628906 Z M 0.617188 0 " clip-rule="nonzero"/></clipPath><clipPath id="d6cfd0a068"><path d="M 0.617188 15.160156 L 349.464844 0 L 698.316406 15.160156 L 698.316406 107.46875 L 349.464844 122.628906 L 0.617188 107.46875 Z M 0.617188 15.160156 " clip-rule="nonzero"/></clipPath></defs><g clip-path="url(#aef2afbc04)"><g clip-path="url(#bb70a6bced)"><path fill="#242536" d="M 0.617188 9.953125 L 698.375 9.953125 L 698.375 141.390625 L 0.617188 141.390625 Z M 0.617188 9.953125 " fill-opacity="1" fill-rule="nonzero"/></g></g><g clip-path="url(#1227d0a430)"><g clip-path="url(#d6cfd0a068)"><path fill="#ffcf7e" d="M 0.617188 0 L 698.542969 0 L 698.542969 122.628906 L 0.617188 122.628906 Z M 0.617188 0 " fill-opacity="1" fill-rule="nonzero"/></g></g><g fill="#242536" fill-opacity="1"><g transform="translate(137.920358, 74.313755)"><g><path d="M 9.28125 4.640625 L 1.390625 4.640625 L 1.390625 -32.3125 L 9.28125 -32.3125 Z M 9.28125 4.640625 "/></g></g></g><g fill="#242536" fill-opacity="1"><g transform="translate(148.591453, 74.313755)"><g><path d="M 9.28125 0 L 1.390625 0 L 1.390625 -32.3125 L 9.28125 -32.3125 Z M 9.28125 0 "/></g></g></g><g fill="#242536" fill-opacity="1"><g transform="translate(159.262547, 74.313755)"><g><path d="M 18.5 -7.96875 C 18.5 -2.65625 16 0 11 0 L 1.390625 0 L 1.390625 -8.4375 L 8.078125 -8.4375 C 9.734375 -8.4375 10.5625 -9.207031 10.5625 -10.75 L 10.5625 -21.5625 C 10.5625 -23.101562 9.734375 -23.875 8.078125 -23.875 L 1.390625 -23.875 L 1.390625 -32.3125 L 11 -32.3125 C 16 -32.3125 18.5 -29.65625 18.5 -24.34375 Z M 18.5 -7.96875 "/></g></g></g><g fill="#242536" fill-opacity="1"><g transform="translate(179.15827, 74.313755)"><g><path d="M 15.671875 -5.078125 C 15.671875 -1.691406 14.066406 0 10.859375 0 L 1.125 0 L 1.125 -8.4375 L 6.71875 -8.4375 C 7.375 -8.4375 7.703125 -8.835938 7.703125 -9.640625 L 7.703125 -22.546875 C 7.703125 -23.429688 7.300781 -23.875 6.5 -23.875 L 3.4375 -23.875 L 3.4375 -32.3125 L 10.71875 -32.3125 C 14.019531 -32.3125 15.671875 -30.609375 15.671875 -27.203125 Z M 15.671875 -5.078125 "/></g></g></g><g fill="#242536" fill-opacity="1"><g transform="translate(196.215645, 74.313755)"><g/></g></g><g fill="#242536" fill-opacity="1"><g transform="translate(208.578831, 74.313755)"><g><path d="M 14.625 0 C 14.382812 -1.269531 13.867188 -2.945312 13.078125 -5.03125 C 12.296875 -7.113281 11.222656 -9.628906 9.859375 -12.578125 C 9.710938 -12.410156 9.601562 -12.28125 9.53125 -12.1875 C 9.457031 -12.101562 9.410156 -12.050781 9.390625 -12.03125 C 9.367188 -11.957031 9.351562 -11.796875 9.34375 -11.546875 C 9.332031 -11.304688 9.328125 -10.96875 9.328125 -10.53125 L 9.328125 0 L 1.453125 0 L 1.453125 -9.65625 C 1.453125 -14.769531 3.023438 -18.082031 6.171875 -19.59375 C 3.148438 -25.519531 1.46875 -29.757812 1.125 -32.3125 L 9.328125 -32.3125 C 9.734375 -30.488281 10.332031 -28.566406 11.125 -26.546875 C 11.914062 -24.535156 12.910156 -22.390625 14.109375 -20.109375 C 14.566406 -20.441406 14.796875 -21.113281 14.796875 -22.125 L 14.796875 -32.3125 L 22.765625 -32.3125 L 22.765625 -21.375 C 22.765625 -19.726562 22.265625 -18.132812 21.265625 -16.59375 C 20.265625 -15.0625 19.023438 -13.894531 17.546875 -13.09375 C 20.953125 -6.332031 22.691406 -1.96875 22.765625 0 Z M 14.625 0 "/></g></g></g><g fill="#242536" fill-opacity="1"><g transform="translate(232.459156, 74.313755)"><g><path d="M 19.296875 -11.6875 C 19.296875 -3.894531 15.566406 0 8.109375 0 L 4.6875 0 L 4.6875 -8.4375 L 6.984375 -8.4375 C 8.753906 -8.4375 9.957031 -9 10.59375 -10.125 C 11.039062 -10.925781 11.265625 -12.316406 11.265625 -14.296875 L 11.265625 -22.546875 C 11.265625 -23.429688 10.8125 -23.875 9.90625 -23.875 L 1.390625 -23.875 L 1.390625 -36.328125 L 9.3125 -36.328125 L 9.3125 -32.3125 L 15.25 -32.3125 C 17.945312 -32.3125 19.296875 -31.007812 19.296875 -28.40625 Z M 19.296875 -11.6875 "/></g></g></g><g fill="#242536" fill-opacity="1"><g transform="translate(253.146341, 74.313755)"><g/></g></g><g fill="#242536" fill-opacity="1"><g transform="translate(265.509527, 74.313755)"><g><path d="M 20.796875 -32.3125 L 8.265625 0 L 1.5 0 L 13.96875 -32.3125 Z M 20.796875 -32.3125 "/></g></g></g><g fill="#242536" fill-opacity="1"><g transform="translate(287.588594, 74.313755)"><g/></g></g><g fill="#242536" fill-opacity="1"><g transform="translate(299.95178, 74.313755)"><g><path d="M 9.28125 4.640625 L 1.390625 4.640625 L 1.390625 -32.3125 L 9.28125 -32.3125 Z M 9.28125 4.640625 "/></g></g></g><g fill="#242536" fill-opacity="1"><g transform="translate(310.622874, 74.313755)"><g><path d="M 9.28125 0 L 1.390625 0 L 1.390625 -32.3125 L 9.28125 -32.3125 Z M 9.28125 0 "/></g></g></g><g fill="#242536" fill-opacity="1"><g transform="translate(321.293968, 74.313755)"><g><path d="M 18.5 -7.96875 C 18.5 -2.65625 16 0 11 0 L 1.390625 0 L 1.390625 -8.4375 L 8.078125 -8.4375 C 9.734375 -8.4375 10.5625 -9.207031 10.5625 -10.75 L 10.5625 -21.5625 C 10.5625 -23.101562 9.734375 -23.875 8.078125 -23.875 L 1.390625 -23.875 L 1.390625 -32.3125 L 11 -32.3125 C 16 -32.3125 18.5 -29.65625 18.5 -24.34375 Z M 18.5 -7.96875 "/></g></g></g><g fill="#242536" fill-opacity="1"><g transform="translate(341.189691, 74.313755)"><g><path d="M 15.671875 -5.078125 C 15.671875 -1.691406 14.066406 0 10.859375 0 L 1.125 0 L 1.125 -8.4375 L 6.71875 -8.4375 C 7.375 -8.4375 7.703125 -8.835938 7.703125 -9.640625 L 7.703125 -22.546875 C 7.703125 -23.429688 7.300781 -23.875 6.5 -23.875 L 3.4375 -23.875 L 3.4375 -32.3125 L 10.71875 -32.3125 C 14.019531 -32.3125 15.671875 -30.609375 15.671875 -27.203125 Z M 15.671875 -5.078125 "/></g></g></g><g fill="#242536" fill-opacity="1"><g transform="translate(358.247055, 74.313755)"><g/></g></g><g fill="#242536" fill-opacity="1"><g transform="translate(370.610229, 74.313755)"><g><path d="M 10.75 -32.28125 C 10.75 -32.207031 10.75 -32.125 10.75 -32.03125 C 10.75 -31.945312 10.738281 -31.847656 10.71875 -31.734375 L 8.953125 -10.28125 L 3.1875 -10.28125 L 1.390625 -31.734375 C 1.367188 -31.847656 1.359375 -31.941406 1.359375 -32.015625 C 1.359375 -32.097656 1.359375 -32.171875 1.359375 -32.234375 C 1.359375 -33.597656 1.820312 -34.707031 2.75 -35.5625 C 3.695312 -36.414062 4.84375 -36.84375 6.1875 -36.84375 C 6.863281 -36.84375 7.484375 -36.734375 8.046875 -36.515625 C 8.609375 -36.296875 9.085938 -35.984375 9.484375 -35.578125 C 9.890625 -35.179688 10.203125 -34.703125 10.421875 -34.140625 C 10.640625 -33.578125 10.75 -32.957031 10.75 -32.28125 Z M 9.765625 0 L 2.40625 0 L 2.40625 -8 L 9.765625 -8 Z M 9.765625 0 "/></g></g></g><g fill="#242536" fill-opacity="1"><g transform="translate(382.509455, 74.313755)"><g><path d="M 19.296875 -11.6875 C 19.296875 -3.894531 15.566406 0 8.109375 0 L 4.6875 0 L 4.6875 -8.4375 L 6.984375 -8.4375 C 8.753906 -8.4375 9.957031 -9 10.59375 -10.125 C 11.039062 -10.925781 11.265625 -12.316406 11.265625 -14.296875 L 11.265625 -22.546875 C 11.265625 -23.429688 10.8125 -23.875 9.90625 -23.875 L 1.390625 -23.875 L 1.390625 -36.328125 L 9.3125 -36.328125 L 9.3125 -32.3125 L 15.25 -32.3125 C 17.945312 -32.3125 19.296875 -31.007812 19.296875 -28.40625 Z M 19.296875 -11.6875 "/></g></g></g><g fill="#242536" fill-opacity="1"><g transform="translate(403.19664, 74.313755)"><g><path d="M 19.15625 0 L 11.265625 0 L 9.859375 -8.953125 C 9.285156 -8.953125 8.925781 -8.550781 8.78125 -7.75 L 7.3125 0 L 0.265625 0 L 2.15625 -9.328125 C 2.988281 -13.554688 4.941406 -15.671875 8.015625 -15.671875 L 9.328125 -15.671875 L 9.328125 -22.546875 C 9.328125 -23.429688 8.820312 -23.875 7.8125 -23.875 L 2.1875 -23.875 L 2.1875 -32.3125 L 11.296875 -32.3125 C 15.285156 -32.3125 17.28125 -30.21875 17.28125 -26.03125 L 17.28125 -15.171875 C 17.28125 -14.023438 17.3125 -12.96875 17.375 -12 C 17.4375 -11.039062 17.53125 -10.160156 17.65625 -9.359375 Z M 19.15625 0 "/></g></g></g><g fill="#242536" fill-opacity="1"><g transform="translate(422.9286, 74.313755)"><g><path d="M 17.296875 0 L 9.3125 0 L 9.3125 -22.546875 C 9.3125 -23.429688 8.847656 -23.875 7.921875 -23.875 L 0.84375 -23.875 L 0.84375 -32.3125 L 11.59375 -32.3125 C 13.269531 -32.3125 14.644531 -31.773438 15.71875 -30.703125 C 16.769531 -29.648438 17.296875 -28.273438 17.296875 -26.578125 Z M 17.296875 0 "/></g></g></g><g fill="#242536" fill-opacity="1"><g transform="translate(441.623472, 74.313755)"><g><path d="M 22.34375 0 L 14.46875 0 L 14.46875 -22.34375 C 14.46875 -23.363281 14.003906 -23.875 13.078125 -23.875 L 12 -23.875 C 11.0625 -23.875 10.59375 -23.363281 10.59375 -22.34375 L 10.59375 -3.875 C 10.59375 -1.289062 9.507812 0 7.34375 0 L 0.546875 0 L 0.546875 -8.4375 L 1.90625 -8.4375 C 2.363281 -8.4375 2.59375 -8.632812 2.59375 -9.03125 L 2.59375 -26.109375 C 2.59375 -28.316406 3.019531 -29.898438 3.875 -30.859375 C 4.726562 -31.828125 6.238281 -32.3125 8.40625 -32.3125 L 16.921875 -32.3125 C 20.535156 -32.3125 22.34375 -30.242188 22.34375 -26.109375 Z M 22.34375 0 "/></g></g></g><g fill="#242536" fill-opacity="1"><g transform="translate(465.394642, 74.313755)"><g><path d="M 15.671875 -5.078125 C 15.671875 -1.691406 14.066406 0 10.859375 0 L 1.125 0 L 1.125 -8.4375 L 6.71875 -8.4375 C 7.375 -8.4375 7.703125 -8.835938 7.703125 -9.640625 L 7.703125 -22.546875 C 7.703125 -23.429688 7.300781 -23.875 6.5 -23.875 L 3.4375 -23.875 L 3.4375 -32.3125 L 10.71875 -32.3125 C 14.019531 -32.3125 15.671875 -30.609375 15.671875 -27.203125 Z M 15.671875 -5.078125 "/></g></g></g><g fill="#242536" fill-opacity="1"><g transform="translate(482.452006, 74.313755)"><g/></g></g><g fill="#242536" fill-opacity="1"><g transform="translate(494.81518, 74.313755)"><g><path d="M 9.28125 0 L 1.390625 0 L 1.390625 -32.3125 L 9.28125 -32.3125 Z M 9.28125 0 "/></g></g></g><g fill="#242536" fill-opacity="1"><g transform="translate(505.486286, 74.313755)"><g><path d="M 14.625 0 C 14.382812 -1.269531 13.867188 -2.945312 13.078125 -5.03125 C 12.296875 -7.113281 11.222656 -9.628906 9.859375 -12.578125 C 9.710938 -12.410156 9.601562 -12.28125 9.53125 -12.1875 C 9.457031 -12.101562 9.410156 -12.050781 9.390625 -12.03125 C 9.367188 -11.957031 9.351562 -11.796875 9.34375 -11.546875 C 9.332031 -11.304688 9.328125 -10.96875 9.328125 -10.53125 L 9.328125 0 L 1.453125 0 L 1.453125 -9.65625 C 1.453125 -14.769531 3.023438 -18.082031 6.171875 -19.59375 C 3.148438 -25.519531 1.46875 -29.757812 1.125 -32.3125 L 9.328125 -32.3125 C 9.734375 -30.488281 10.332031 -28.566406 11.125 -26.546875 C 11.914062 -24.535156 12.910156 -22.390625 14.109375 -20.109375 C 14.566406 -20.441406 14.796875 -21.113281 14.796875 -22.125 L 14.796875 -32.3125 L 22.765625 -32.3125 L 22.765625 -21.375 C 22.765625 -19.726562 22.265625 -18.132812 21.265625 -16.59375 C 20.265625 -15.0625 19.023438 -13.894531 17.546875 -13.09375 C 20.953125 -6.332031 22.691406 -1.96875 22.765625 0 Z M 14.625 0 "/></g></g></g><g fill="#242536" fill-opacity="1"><g transform="translate(529.366623, 74.313755)"><g><path d="M 9.28125 0 L 1.390625 0 L 1.390625 -32.3125 L 9.28125 -32.3125 Z M 9.28125 0 "/></g></g></g><g fill="#242536" fill-opacity="1"><g transform="translate(540.037728, 74.313755)"><g><path d="M 19.84375 0 L 1.390625 0 L 1.390625 -8.4375 L 7.53125 -8.4375 C 9.332031 -8.4375 10.234375 -9.5 10.234375 -11.625 L 10.234375 -21.3125 C 10.234375 -22.257812 10.066406 -22.921875 9.734375 -23.296875 C 9.410156 -23.679688 8.785156 -23.875 7.859375 -23.875 L 1.390625 -23.875 L 1.390625 -32.3125 L 12 -32.3125 C 16.164062 -32.3125 18.25 -29.847656 18.25 -24.921875 L 18.25 -13.859375 C 18.25 -11.003906 17.1875 -9.195312 15.0625 -8.4375 L 19.84375 -8.4375 Z M 19.84375 0 "/></g></g></g></svg>