<svg xmlns="http://www.w3.org/2000/svg" xmlns:xlink="http://www.w3.org/1999/xlink" width="191" zoomAndPan="magnify" viewBox="0 0 143.25 149.999998" height="200" preserveAspectRatio="xMidYMid meet" version="1.0"><defs><clipPath id="e33a5d7ec4"><path d="M 0 7.035156 L 141.859375 7.035156 L 141.859375 148.894531 L 0 148.894531 Z M 0 7.035156 " clip-rule="nonzero"/></clipPath><clipPath id="b15d8d1539"><path d="M 70.929688 7.035156 L 84.699219 26.578125 L 106.394531 16.539062 L 108.546875 40.347656 L 132.359375 42.5 L 122.316406 64.195312 L 141.859375 77.964844 L 122.316406 91.734375 L 132.359375 113.429688 L 108.546875 115.582031 L 106.394531 139.394531 L 84.699219 129.351562 L 70.929688 148.894531 L 57.160156 129.351562 L 35.464844 139.394531 L 33.3125 115.582031 L 9.503906 113.429688 L 19.546875 91.734375 L 0 77.964844 L 19.546875 64.195312 L 9.503906 42.5 L 33.3125 40.347656 L 35.464844 16.539062 L 57.160156 26.578125 Z M 70.929688 7.035156 " clip-rule="nonzero"/></clipPath><clipPath id="2a116bce87"><path d="M 0 7.035156 L 141.757812 7.035156 L 141.757812 148.792969 L 0 148.792969 Z M 0 7.035156 " clip-rule="nonzero"/></clipPath><clipPath id="4d5664feb9"><path d="M 70.925781 7.035156 L 84.691406 26.578125 L 106.386719 16.535156 L 108.539062 40.347656 L 132.347656 42.496094 L 122.308594 64.191406 L 141.851562 77.960938 L 122.308594 91.726562 L 132.347656 113.421875 L 108.539062 115.574219 L 106.386719 139.382812 L 84.691406 129.339844 L 70.925781 148.886719 L 57.15625 129.339844 L 35.460938 139.382812 L 33.3125 115.574219 L 9.503906 113.421875 L 19.542969 91.726562 L 0 77.960938 L 19.542969 64.191406 L 9.503906 42.496094 L 33.3125 40.347656 L 35.460938 16.535156 L 57.15625 26.578125 Z M 70.925781 7.035156 " clip-rule="nonzero"/></clipPath><clipPath id="12a78a795e"><path d="M 0 0.390625 L 141.859375 0.390625 L 141.859375 142.25 L 0 142.25 Z M 0 0.390625 " clip-rule="nonzero"/></clipPath><clipPath id="522981940c"><path d="M 70.929688 0.390625 L 84.699219 19.9375 L 106.394531 9.894531 L 108.546875 33.703125 L 132.359375 35.855469 L 122.316406 57.550781 L 141.859375 71.320312 L 122.316406 85.089844 L 132.359375 106.785156 L 108.546875 108.9375 L 106.394531 132.75 L 84.699219 122.707031 L 70.929688 142.25 L 57.160156 122.707031 L 35.464844 132.75 L 33.3125 108.9375 L 9.503906 106.785156 L 19.546875 85.089844 L 0 71.320312 L 19.546875 57.550781 L 9.503906 35.855469 L 33.3125 33.703125 L 35.464844 9.894531 L 57.160156 19.9375 Z M 70.929688 0.390625 " clip-rule="nonzero"/></clipPath><clipPath id="203ad796a2"><path d="M 0 0.390625 L 141.757812 0.390625 L 141.757812 142.148438 L 0 142.148438 Z M 0 0.390625 " clip-rule="nonzero"/></clipPath><clipPath id="42a378babf"><path d="M 70.925781 0.390625 L 84.691406 19.933594 L 106.386719 9.894531 L 108.539062 33.703125 L 132.347656 35.851562 L 122.308594 57.546875 L 141.851562 71.316406 L 122.308594 85.082031 L 132.347656 106.777344 L 108.539062 108.929688 L 106.386719 132.738281 L 84.691406 122.699219 L 70.925781 142.242188 L 57.15625 122.699219 L 35.460938 132.738281 L 33.3125 108.929688 L 9.503906 106.777344 L 19.542969 85.082031 L 0 71.316406 L 19.542969 57.546875 L 9.503906 35.851562 L 33.3125 33.703125 L 35.460938 9.894531 L 57.15625 19.933594 Z M 70.925781 0.390625 " clip-rule="nonzero"/></clipPath></defs><g clip-path="url(#e33a5d7ec4)"><g clip-path="url(#b15d8d1539)"><path fill="#242536" d="M 0 7.035156 L 141.859375 7.035156 L 141.859375 148.894531 L 0 148.894531 Z M 0 7.035156 " fill-opacity="1" fill-rule="nonzero"/></g></g><g clip-path="url(#2a116bce87)"><g clip-path="url(#4d5664feb9)"><path stroke-linecap="butt" transform="matrix(0.746094, 0, 0, 0.746094, -0.000000000000127232, 7.034658)" fill="none" stroke-linejoin="miter" d="M 95.062825 0.000668302 L 113.513086 26.194385 L 142.59162 12.733652 L 145.476437 44.649882 L 177.387431 47.529463 L 163.931934 76.607996 L 190.12565 95.063493 L 163.931934 113.513755 L 177.387431 142.592288 L 145.476437 145.477105 L 142.59162 177.388099 L 113.513086 163.927366 L 95.062825 190.126319 L 76.607328 163.927366 L 47.528795 177.388099 L 44.649214 145.477105 L 12.73822 142.592288 L 26.193717 113.513755 L 0.00000000000017053 95.063493 L 26.193717 76.607996 L 12.73822 47.529463 L 44.649214 44.649882 L 47.528795 12.733652 L 76.607328 26.194385 Z M 95.062825 0.000668302 " stroke="#242536" stroke-width="18" stroke-opacity="1" stroke-miterlimit="4"/></g></g><g clip-path="url(#12a78a795e)"><g clip-path="url(#522981940c)"><path fill="#f5a099" d="M 0 0.390625 L 141.859375 0.390625 L 141.859375 142.25 L 0 142.25 Z M 0 0.390625 " fill-opacity="1" fill-rule="nonzero"/></g></g><g clip-path="url(#203ad796a2)"><g clip-path="url(#42a378babf)"><path stroke-linecap="butt" transform="matrix(0.746094, 0, 0, 0.746094, -0.000000000000127232, 0.390626)" fill="none" stroke-linejoin="miter" d="M 95.062825 -0.000000991274 L 113.513086 26.193716 L 142.59162 12.738219 L 145.476437 44.649213 L 177.387431 47.528794 L 163.931934 76.607327 L 190.12565 95.062824 L 163.931934 113.513085 L 177.387431 142.591619 L 145.476437 145.476436 L 142.59162 177.38743 L 113.513086 163.931933 L 95.062825 190.125649 L 76.607328 163.931933 L 47.528795 177.38743 L 44.649214 145.476436 L 12.73822 142.591619 L 26.193717 113.513085 L 0.00000000000017053 95.062824 L 26.193717 76.607327 L 12.73822 47.528794 L 44.649214 44.649213 L 47.528795 12.738219 L 76.607328 26.193716 Z M 95.062825 -0.000000991274 " stroke="#cf4545" stroke-width="18" stroke-opacity="1" stroke-miterlimit="4"/></g></g></svg>