<svg xmlns="http://www.w3.org/2000/svg" xmlns:xlink="http://www.w3.org/1999/xlink" width="196" zoomAndPan="magnify" viewBox="0 0 147 201.75" height="269" preserveAspectRatio="xMidYMid meet" version="1.0"><defs><g/><clipPath id="3587930dd1"><path d="M 0.0898438 23.714844 L 138.929688 23.714844 L 138.929688 201.5 L 0.0898438 201.5 Z M 0.0898438 23.714844 " clip-rule="nonzero"/></clipPath><clipPath id="10cb18440a"><path d="M 138.929688 23.714844 L 138.929688 176.4375 L 69.507812 201.425781 L 0.0898438 176.4375 L 0.0898438 23.714844 Z M 138.929688 23.714844 " clip-rule="nonzero"/></clipPath><clipPath id="e9b938402f"><path d="M 0.09375 23.714844 L 138.667969 23.714844 L 138.667969 201.246094 L 0.09375 201.246094 Z M 0.09375 23.714844 " clip-rule="nonzero"/></clipPath><clipPath id="017e560269"><path d="M 138.925781 23.714844 L 138.925781 176.429688 L 69.507812 201.421875 L 0.09375 176.429688 L 0.09375 23.714844 Z M 138.925781 23.714844 " clip-rule="nonzero"/></clipPath><clipPath id="46ae56bb8c"><path d="M 7.582031 12.167969 L 146.417969 12.167969 L 146.417969 190 L 7.582031 190 Z M 7.582031 12.167969 " clip-rule="nonzero"/></clipPath><clipPath id="d70b35084a"><path d="M 146.417969 12.167969 L 146.417969 164.890625 L 77 189.878906 L 7.582031 164.890625 L 7.582031 12.167969 Z M 146.417969 12.167969 " clip-rule="nonzero"/></clipPath><clipPath id="31e77cfa0b"><path d="M 7.582031 12.167969 L 146.160156 12.167969 L 146.160156 189.699219 L 7.582031 189.699219 Z M 7.582031 12.167969 " clip-rule="nonzero"/></clipPath><clipPath id="6bd1e891da"><path d="M 146.414062 12.167969 L 146.414062 164.882812 L 77 189.875 L 7.582031 164.882812 L 7.582031 12.167969 Z M 146.414062 12.167969 " clip-rule="nonzero"/></clipPath><clipPath id="873a5196e2"><path d="M 57.03125 0 L 96.96875 0 L 96.96875 39.9375 L 57.03125 39.9375 Z M 57.03125 0 " clip-rule="nonzero"/></clipPath><clipPath id="2ca2230e1a"><path d="M 77 0 C 65.972656 0 57.03125 8.941406 57.03125 19.96875 C 57.03125 30.996094 65.972656 39.9375 77 39.9375 C 88.027344 39.9375 96.96875 30.996094 96.96875 19.96875 C 96.96875 8.941406 88.027344 0 77 0 Z M 77 0 " clip-rule="nonzero"/></clipPath><clipPath id="36fbe833f0"><path d="M 57.03125 0 L 96.730469 0 L 96.730469 39.699219 L 57.03125 39.699219 Z M 57.03125 0 " clip-rule="nonzero"/></clipPath><clipPath id="9c5ade7676"><path d="M 77 0 C 65.972656 0 57.03125 8.941406 57.03125 19.96875 C 57.03125 30.996094 65.972656 39.933594 77 39.933594 C 88.027344 39.933594 96.964844 30.996094 96.964844 19.96875 C 96.964844 8.941406 88.027344 0 77 0 Z M 77 0 " clip-rule="nonzero"/></clipPath><clipPath id="f393077245"><path d="M 6 43 L 146.90625 43 L 146.90625 47 L 6 47 Z M 6 43 " clip-rule="nonzero"/></clipPath></defs><g clip-path="url(#3587930dd1)"><g clip-path="url(#10cb18440a)"><path fill="#242536" d="M 0.0898438 23.714844 L 138.929688 23.714844 L 138.929688 201.601562 L 0.0898438 201.601562 Z M 0.0898438 23.714844 " fill-opacity="1" fill-rule="nonzero"/></g></g><g clip-path="url(#e9b938402f)"><g clip-path="url(#017e560269)"><path stroke-linecap="butt" transform="matrix(0.749072, 0, 0, 0.749072, 0.0926111, 23.714623)" fill="none" stroke-linejoin="miter" d="M 185.34027 0.000294592 L 185.34027 203.872398 L 92.668288 237.236606 L 0.00152045 203.872398 L 0.00152045 0.000294592 Z M 185.34027 0.000294592 " stroke="#242536" stroke-width="16" stroke-opacity="1" stroke-miterlimit="4"/></g></g><g clip-path="url(#46ae56bb8c)"><g clip-path="url(#d70b35084a)"><path fill="#f8f6e9" d="M 7.582031 12.167969 L 146.417969 12.167969 L 146.417969 190.054688 L 7.582031 190.054688 Z M 7.582031 12.167969 " fill-opacity="1" fill-rule="nonzero"/></g></g><g clip-path="url(#31e77cfa0b)"><g clip-path="url(#6bd1e891da)"><path stroke-linecap="butt" transform="matrix(0.749072, 0, 0, 0.749072, 7.583328, 12.168195)" fill="none" stroke-linejoin="miter" d="M 185.337018 -0.000302006 L 185.337018 203.871802 L 92.670251 237.23601 L -0.0017318 203.871802 L -0.0017318 -0.000302006 Z M 185.337018 -0.000302006 " stroke="#242536" stroke-width="16" stroke-opacity="1" stroke-miterlimit="4"/></g></g><g clip-path="url(#873a5196e2)"><g clip-path="url(#2ca2230e1a)"><path fill="#242536" d="M 57.03125 0 L 96.96875 0 L 96.96875 39.9375 L 57.03125 39.9375 Z M 57.03125 0 " fill-opacity="1" fill-rule="nonzero"/></g></g><g clip-path="url(#36fbe833f0)"><g clip-path="url(#9c5ade7676)"><path stroke-linecap="butt" transform="matrix(0.749072, 0, 0, 0.749072, 57.03115, 0.00000998762)" fill="none" stroke-linejoin="miter" d="M 26.658127 -0.0000133333 C 11.936782 -0.0000133333 0.000133658 11.936635 0.000133658 26.65798 C 0.000133658 41.379325 11.936782 53.310759 26.658127 53.310759 C 41.379472 53.310759 53.310906 41.379325 53.310906 26.65798 C 53.310906 11.936635 41.379472 -0.0000133333 26.658127 -0.0000133333 Z M 26.658127 -0.0000133333 " stroke="#f5a099" stroke-width="20" stroke-opacity="1" stroke-miterlimit="4"/></g></g><g fill="#f5a099" fill-opacity="1"><g transform="translate(31.180795, 128.36528)"><g><path d="M 53.046875 -46.390625 L 51.40625 -37.875 L 41.90625 -37.875 L 40.359375 -28 L 49.859375 -28 L 48.78125 -19.84375 L 39.046875 -19.84375 L 37.59375 -9.21875 L 28.5625 -9.21875 L 30 -19.84375 L 21.390625 -19.84375 L 19.75 -9.21875 L 10.53125 -9.21875 L 12.453125 -19.84375 L 2.859375 -19.84375 L 3.9375 -28 L 13.71875 -28 L 15.265625 -37.875 L 5.578125 -37.875 L 7.015625 -46.390625 L 16.859375 -46.390625 L 18.390625 -56.546875 L 27.625 -56.546875 L 25.984375 -46.390625 L 33.9375 -46.390625 L 35.390625 -56.546875 L 44.46875 -56.546875 L 43.0625 -46.390625 Z M 32.765625 -37.875 L 24.25 -37.875 L 22.796875 -28 L 31.265625 -28 Z M 32.765625 -37.875 "/></g></g><g transform="translate(87.080274, 128.36528)"><g><path d="M 34.125 -1.828125 C 34.125 -0.609375 33.578125 0 32.484375 0 L 3.46875 0 C 2.375 0 1.828125 -0.609375 1.828125 -1.828125 L 1.828125 -2.015625 L 2.390625 -16.484375 C 2.421875 -18.285156 3.03125 -19.1875 4.21875 -19.1875 L 20.125 -19.1875 C 21.15625 -19.1875 21.671875 -20.265625 21.671875 -22.421875 C 21.671875 -23.828125 21.34375 -24.53125 20.6875 -24.53125 L 12.546875 -24.53125 C 11.390625 -24.53125 10.8125 -25.234375 10.8125 -26.640625 L 10.8125 -30.46875 C 10.8125 -31.625 11.25 -32.203125 12.125 -32.203125 L 19.28125 -32.203125 C 20.34375 -32.203125 20.875 -32.96875 20.875 -34.5 L 20.875 -34.59375 C 20.84375 -36.59375 20.46875 -37.59375 19.75 -37.59375 L 5.578125 -37.59375 C 4.484375 -37.59375 3.9375 -38.359375 3.9375 -39.890625 L 3.9375 -39.984375 L 4.6875 -54.71875 C 4.71875 -56.125 5.351562 -56.828125 6.59375 -56.828125 L 29.546875 -56.828125 C 30.691406 -56.828125 31.296875 -56.125 31.359375 -54.71875 L 34.125 -2.015625 Z M 34.125 -1.828125 "/></g></g></g><g clip-path="url(#f393077245)"><path stroke-linecap="butt" transform="matrix(0.749072, 0, 0, 0.749072, 7.581683, 43.944893)" fill="none" stroke-linejoin="miter" d="M 0.000465319 1.502419 L 185.344442 1.502419 " stroke="#242536" stroke-width="3" stroke-opacity="1" stroke-miterlimit="4"/></g></svg>