<svg xmlns="http://www.w3.org/2000/svg" xmlns:xlink="http://www.w3.org/1999/xlink" width="196" zoomAndPan="magnify" viewBox="0 0 147 201.75" height="269" preserveAspectRatio="xMidYMid meet" version="1.0"><defs><g/><clipPath id="137626eba8"><path d="M 0.0898438 23.714844 L 138.929688 23.714844 L 138.929688 201.5 L 0.0898438 201.5 Z M 0.0898438 23.714844 " clip-rule="nonzero"/></clipPath><clipPath id="1594271065"><path d="M 138.929688 23.714844 L 138.929688 176.4375 L 69.507812 201.425781 L 0.0898438 176.4375 L 0.0898438 23.714844 Z M 138.929688 23.714844 " clip-rule="nonzero"/></clipPath><clipPath id="0f4f1d7431"><path d="M 0.09375 23.714844 L 138.667969 23.714844 L 138.667969 201.246094 L 0.09375 201.246094 Z M 0.09375 23.714844 " clip-rule="nonzero"/></clipPath><clipPath id="6e11de1e6a"><path d="M 138.925781 23.714844 L 138.925781 176.429688 L 69.507812 201.421875 L 0.09375 176.429688 L 0.09375 23.714844 Z M 138.925781 23.714844 " clip-rule="nonzero"/></clipPath><clipPath id="f9448fcf2e"><path d="M 7.582031 12.167969 L 146.417969 12.167969 L 146.417969 190 L 7.582031 190 Z M 7.582031 12.167969 " clip-rule="nonzero"/></clipPath><clipPath id="a87ef990fb"><path d="M 146.417969 12.167969 L 146.417969 164.890625 L 77 189.878906 L 7.582031 164.890625 L 7.582031 12.167969 Z M 146.417969 12.167969 " clip-rule="nonzero"/></clipPath><clipPath id="97c6959a9b"><path d="M 7.582031 12.167969 L 146.160156 12.167969 L 146.160156 189.699219 L 7.582031 189.699219 Z M 7.582031 12.167969 " clip-rule="nonzero"/></clipPath><clipPath id="bf70f379ab"><path d="M 146.414062 12.167969 L 146.414062 164.882812 L 77 189.875 L 7.582031 164.882812 L 7.582031 12.167969 Z M 146.414062 12.167969 " clip-rule="nonzero"/></clipPath><clipPath id="edfd1d44e5"><path d="M 57.03125 0 L 96.96875 0 L 96.96875 39.9375 L 57.03125 39.9375 Z M 57.03125 0 " clip-rule="nonzero"/></clipPath><clipPath id="13b8193b84"><path d="M 77 0 C 65.972656 0 57.03125 8.941406 57.03125 19.96875 C 57.03125 30.996094 65.972656 39.9375 77 39.9375 C 88.027344 39.9375 96.96875 30.996094 96.96875 19.96875 C 96.96875 8.941406 88.027344 0 77 0 Z M 77 0 " clip-rule="nonzero"/></clipPath><clipPath id="379da040c8"><path d="M 57.03125 0 L 96.730469 0 L 96.730469 39.699219 L 57.03125 39.699219 Z M 57.03125 0 " clip-rule="nonzero"/></clipPath><clipPath id="eb0ff2a9d3"><path d="M 77 0 C 65.972656 0 57.03125 8.941406 57.03125 19.96875 C 57.03125 30.996094 65.972656 39.933594 77 39.933594 C 88.027344 39.933594 96.964844 30.996094 96.964844 19.96875 C 96.964844 8.941406 88.027344 0 77 0 Z M 77 0 " clip-rule="nonzero"/></clipPath><clipPath id="e3d07de3d5"><path d="M 6 43 L 146.90625 43 L 146.90625 47 L 6 47 Z M 6 43 " clip-rule="nonzero"/></clipPath></defs><g clip-path="url(#137626eba8)"><g clip-path="url(#1594271065)"><path fill="#242536" d="M 0.0898438 23.714844 L 138.929688 23.714844 L 138.929688 201.601562 L 0.0898438 201.601562 Z M 0.0898438 23.714844 " fill-opacity="1" fill-rule="nonzero"/></g></g><g clip-path="url(#0f4f1d7431)"><g clip-path="url(#6e11de1e6a)"><path stroke-linecap="butt" transform="matrix(0.749072, 0, 0, 0.749072, 0.0926111, 23.714623)" fill="none" stroke-linejoin="miter" d="M 185.34027 0.000294592 L 185.34027 203.872398 L 92.668288 237.236606 L 0.00152045 203.872398 L 0.00152045 0.000294592 Z M 185.34027 0.000294592 " stroke="#242536" stroke-width="16" stroke-opacity="1" stroke-miterlimit="4"/></g></g><g clip-path="url(#f9448fcf2e)"><g clip-path="url(#a87ef990fb)"><path fill="#f8f6e9" d="M 7.582031 12.167969 L 146.417969 12.167969 L 146.417969 190.054688 L 7.582031 190.054688 Z M 7.582031 12.167969 " fill-opacity="1" fill-rule="nonzero"/></g></g><g clip-path="url(#97c6959a9b)"><g clip-path="url(#bf70f379ab)"><path stroke-linecap="butt" transform="matrix(0.749072, 0, 0, 0.749072, 7.583328, 12.168195)" fill="none" stroke-linejoin="miter" d="M 185.337018 -0.000302006 L 185.337018 203.871802 L 92.670251 237.23601 L -0.0017318 203.871802 L -0.0017318 -0.000302006 Z M 185.337018 -0.000302006 " stroke="#242536" stroke-width="16" stroke-opacity="1" stroke-miterlimit="4"/></g></g><g clip-path="url(#edfd1d44e5)"><g clip-path="url(#13b8193b84)"><path fill="#242536" d="M 57.03125 0 L 96.96875 0 L 96.96875 39.9375 L 57.03125 39.9375 Z M 57.03125 0 " fill-opacity="1" fill-rule="nonzero"/></g></g><g clip-path="url(#379da040c8)"><g clip-path="url(#eb0ff2a9d3)"><path stroke-linecap="butt" transform="matrix(0.749072, 0, 0, 0.749072, 57.03115, 0.00000998762)" fill="none" stroke-linejoin="miter" d="M 26.658127 -0.0000133333 C 11.936782 -0.0000133333 0.000133658 11.936635 0.000133658 26.65798 C 0.000133658 41.379325 11.936782 53.310759 26.658127 53.310759 C 41.379472 53.310759 53.310906 41.379325 53.310906 26.65798 C 53.310906 11.936635 41.379472 -0.0000133333 26.658127 -0.0000133333 Z M 26.658127 -0.0000133333 " stroke="#f5a099" stroke-width="20" stroke-opacity="1" stroke-miterlimit="4"/></g></g><g fill="#f5a099" fill-opacity="1"><g transform="translate(31.180795, 128.36528)"><g><path d="M 53.046875 -46.390625 L 51.40625 -37.875 L 41.90625 -37.875 L 40.359375 -28 L 49.859375 -28 L 48.78125 -19.84375 L 39.046875 -19.84375 L 37.59375 -9.21875 L 28.5625 -9.21875 L 30 -19.84375 L 21.390625 -19.84375 L 19.75 -9.21875 L 10.53125 -9.21875 L 12.453125 -19.84375 L 2.859375 -19.84375 L 3.9375 -28 L 13.71875 -28 L 15.265625 -37.875 L 5.578125 -37.875 L 7.015625 -46.390625 L 16.859375 -46.390625 L 18.390625 -56.546875 L 27.625 -56.546875 L 25.984375 -46.390625 L 33.9375 -46.390625 L 35.390625 -56.546875 L 44.46875 -56.546875 L 43.0625 -46.390625 Z M 32.765625 -37.875 L 24.25 -37.875 L 22.796875 -28 L 31.265625 -28 Z M 32.765625 -37.875 "/></g></g><g transform="translate(87.080274, 128.36528)"><g><path d="M 34.125 -1.828125 C 34.125 -0.609375 33.578125 0 32.484375 0 L 3.46875 0 C 2.375 0 1.828125 -0.609375 1.828125 -1.828125 L 1.828125 -2.015625 L 2.484375 -16.390625 C 2.578125 -18.410156 3.25 -19.984375 4.5 -21.109375 L 17.46875 -32.859375 C 17.957031 -33.265625 18.203125 -34.203125 18.203125 -35.671875 C 18.234375 -35.953125 18.160156 -36.40625 17.984375 -37.03125 C 17.734375 -37.40625 17.296875 -37.59375 16.671875 -37.59375 L 6.03125 -37.59375 C 4.632812 -37.59375 3.9375 -38.421875 3.9375 -40.078125 L 3.9375 -40.171875 L 4.59375 -54.71875 C 4.625 -56.125 5.226562 -56.828125 6.40625 -56.828125 L 29.453125 -56.828125 C 30.597656 -56.828125 31.203125 -56.125 31.265625 -54.71875 L 32.203125 -33.65625 L 32.203125 -33.375 C 32.203125 -31.625 31.65625 -30.253906 30.5625 -29.265625 L 19.1875 -19.09375 L 31.546875 -19.09375 C 32.734375 -19.09375 33.375 -18.003906 33.46875 -15.828125 L 34.125 -2.015625 Z M 34.125 -1.828125 "/></g></g></g><g clip-path="url(#e3d07de3d5)"><path stroke-linecap="butt" transform="matrix(0.749072, 0, 0, 0.749072, 7.581683, 43.944893)" fill="none" stroke-linejoin="miter" d="M 0.000465319 1.502419 L 185.344442 1.502419 " stroke="#242536" stroke-width="3" stroke-opacity="1" stroke-miterlimit="4"/></g></svg>