<svg xmlns="http://www.w3.org/2000/svg" xmlns:xlink="http://www.w3.org/1999/xlink" width="513" zoomAndPan="magnify" viewBox="0 0 384.75 305.999988" height="408" preserveAspectRatio="xMidYMid meet" version="1.0"><defs><g/><clipPath id="7c1fc12e8b"><path d="M 198 32 L 361 32 L 361 91 L 198 91 Z M 198 32 " clip-rule="nonzero"/></clipPath><clipPath id="a9187201c5"><path d="M 195.882812 0.101562 L 383.925781 54.027344 L 354.996094 154.894531 L 166.953125 100.964844 Z M 195.882812 0.101562 " clip-rule="nonzero"/></clipPath><clipPath id="a5fadc4149"><path d="M 195.882812 0.101562 L 383.925781 54.027344 L 354.996094 154.894531 L 166.953125 100.964844 Z M 195.882812 0.101562 " clip-rule="nonzero"/></clipPath><clipPath id="01cd245074"><path d="M 185 27 L 374 27 L 374 124 L 185 124 Z M 185 27 " clip-rule="nonzero"/></clipPath><clipPath id="72d9ecf500"><path d="M 195.882812 0.101562 L 383.925781 54.027344 L 354.996094 154.894531 L 166.953125 100.964844 Z M 195.882812 0.101562 " clip-rule="nonzero"/></clipPath><clipPath id="ef4fb9b2c2"><path d="M 195.882812 0.101562 L 383.925781 54.027344 L 354.996094 154.894531 L 166.953125 100.964844 Z M 195.882812 0.101562 " clip-rule="nonzero"/></clipPath><clipPath id="85b7a0b924"><path d="M 0 89.871094 L 329 89.871094 L 329 305.679688 L 0 305.679688 Z M 0 89.871094 " clip-rule="nonzero"/></clipPath><clipPath id="a1aa4a5246"><path d="M 186.710938 89.871094 C 190.320312 89.871094 193.949219 89.871094 197.546875 89.871094 C 226.246094 93.476562 244.183594 105.476562 252.355469 125.109375 C 300.203125 122.488281 334.992188 159.613281 313.789062 196.046875 C 320.839844 203.703125 326.722656 212.265625 328.847656 223.761719 C 328.847656 227.054688 328.847656 230.335938 328.847656 233.628906 C 322.515625 262.882812 295.277344 282.652344 250.558594 277.328125 C 239.050781 292.351562 218.578125 307.394531 186.71875 305.519531 C 170.25 304.535156 158.792969 298.820312 148.765625 291.882812 C 138.199219 297.652344 126.757812 302.175781 110.226562 302.226562 C 71.980469 302.3125 46.394531 280.089844 45.773438 249.609375 C 21.1875 242.476562 4.535156 229.167969 0 206.390625 C 0 203.097656 0 199.800781 0 196.523438 C 5.003906 173.953125 20.753906 159.773438 46.972656 153.765625 C 45.394531 115.691406 97.84375 91.902344 140.929688 108.675781 C 151.1875 100.378906 165.703125 91.335938 186.710938 89.871094 Z M 186.710938 89.871094 " clip-rule="nonzero"/></clipPath><clipPath id="4d1998dbe8"><path d="M 13.296875 77.589844 L 342.90625 77.589844 L 342.90625 293.394531 L 13.296875 293.394531 Z M 13.296875 77.589844 " clip-rule="nonzero"/></clipPath><clipPath id="3ec90cfaf3"><path d="M 200.007812 77.589844 C 203.617188 77.589844 207.246094 77.589844 210.84375 77.589844 C 239.546875 81.195312 257.480469 93.195312 265.652344 112.824219 C 313.5 110.207031 348.289062 147.332031 327.089844 183.765625 C 334.136719 191.421875 340.019531 199.984375 342.144531 211.480469 C 342.144531 214.769531 342.144531 218.054688 342.144531 221.347656 C 335.8125 250.601562 308.574219 270.371094 263.855469 265.046875 C 252.347656 280.070312 231.875 295.109375 200.015625 293.238281 C 183.550781 292.25 172.09375 286.539062 162.0625 279.601562 C 151.496094 285.367188 140.054688 289.894531 123.523438 289.945312 C 85.277344 290.03125 59.691406 267.808594 59.070312 237.328125 C 34.484375 230.195312 17.832031 216.886719 13.296875 194.109375 C 13.296875 190.816406 13.296875 187.519531 13.296875 184.238281 C 18.300781 161.671875 34.050781 147.492188 60.269531 141.484375 C 58.695312 103.410156 111.140625 79.621094 154.226562 96.394531 C 164.488281 88.097656 179 79.050781 200.007812 77.589844 Z M 200.007812 77.589844 " clip-rule="nonzero"/></clipPath></defs><g clip-path="url(#7c1fc12e8b)"><g clip-path="url(#a9187201c5)"><g clip-path="url(#a5fadc4149)"><path fill="#5559a6" d="M 279.039062 64.910156 C 298.582031 70.515625 317.917969 81.027344 319.035156 90.613281 L 360.429688 86.582031 L 288.410156 32.238281 L 206.140625 39.480469 L 206.136719 39.492188 L 198.429688 40.167969 L 206.460938 46.589844 L 207.640625 47.535156 L 207.652344 47.503906 L 208.632812 48.257812 L 211.367188 50.359375 L 231.363281 65.691406 C 234.339844 61.746094 241.273438 60.570312 247.023438 60.332031 C 256.046875 59.953125 267.421875 61.578125 279.039062 64.910156 Z M 279.039062 64.910156 " fill-opacity="1" fill-rule="nonzero"/></g></g></g><g clip-path="url(#01cd245074)"><g clip-path="url(#72d9ecf500)"><g clip-path="url(#ef4fb9b2c2)"><path fill="#5559a6" d="M 373.722656 90.320312 L 289.894531 27.0625 L 206.304688 34.433594 L 203.316406 34.707031 L 185.550781 36.257812 L 207.121094 53.523438 L 206.429688 55.9375 C 205.820312 56.027344 205.21875 56.25 204.660156 56.59375 C 203.660156 57.207031 202.804688 58.195312 202.261719 59.441406 C 202.136719 59.726562 202.03125 60.015625 201.941406 60.328125 C 201.851562 60.644531 201.785156 60.953125 201.738281 61.269531 C 201.585938 62.324219 201.679688 63.339844 201.992188 64.242188 C 202.230469 64.949219 202.609375 65.574219 203.082031 66.082031 L 189.410156 99.542969 C 187.722656 103.277344 188.816406 107.355469 192.996094 108.554688 C 197.175781 109.753906 200.269531 106.863281 200.816406 102.816406 L 206.957031 67.191406 C 207.632812 67.023438 208.277344 66.683594 208.851562 66.210938 C 209.597656 65.601562 210.234375 64.761719 210.664062 63.765625 C 210.785156 63.492188 210.878906 63.210938 210.960938 62.914062 C 211.042969 62.632812 211.101562 62.351562 211.148438 62.078125 C 211.363281 60.714844 211.167969 59.40625 210.640625 58.332031 C 210.347656 57.742188 209.964844 57.238281 209.488281 56.835938 L 209.855469 55.546875 L 231.542969 72.179688 L 229.210938 80.308594 L 223.675781 99.609375 C 223.886719 99.613281 224.097656 99.628906 224.316406 99.636719 C 224.714844 99.664062 225.132812 99.695312 225.570312 99.746094 C 227.859375 99.996094 230.664062 100.601562 233.949219 101.542969 C 242.839844 104.09375 254.707031 109.121094 260.957031 112.988281 C 263.324219 114.460938 266.042969 115.238281 268.832031 115.246094 C 276.179688 115.28125 288.910156 117.304688 297.800781 119.855469 C 301.085938 120.796875 303.78125 121.777344 305.867188 122.773438 C 306.265625 122.964844 306.636719 123.15625 306.988281 123.347656 C 307.179688 123.445312 307.359375 123.550781 307.535156 123.65625 L 313.070312 104.355469 L 315.46875 96.003906 Z M 231.554688 68.996094 L 191.984375 38.210938 L 203.226562 37.230469 L 206.21875 36.957031 L 289.140625 29.644531 L 367.074219 88.457031 L 317.171875 93.320312 L 316.933594 91.242188 C 316.730469 89.527344 315.15625 84.867188 304.820312 78.554688 C 297.691406 74.203125 288.285156 70.234375 278.332031 67.378906 C 266.886719 64.09375 255.703125 62.492188 246.855469 62.863281 C 236.90625 63.285156 233.753906 66.082031 232.863281 67.265625 Z M 231.554688 68.996094 " fill-opacity="1" fill-rule="nonzero"/></g></g></g><g clip-path="url(#85b7a0b924)"><g clip-path="url(#a1aa4a5246)"><path fill="#cf4545" d="M 0 89.871094 L 328.765625 89.871094 L 328.765625 305.679688 L 0 305.679688 Z M 0 89.871094 " fill-opacity="1" fill-rule="nonzero"/></g></g><g clip-path="url(#4d1998dbe8)"><g clip-path="url(#3ec90cfaf3)"><path fill="#ffcf7e" d="M 13.296875 77.589844 L 342.0625 77.589844 L 342.0625 293.394531 L 13.296875 293.394531 Z M 13.296875 77.589844 " fill-opacity="1" fill-rule="nonzero"/></g></g><g fill="#cf4545" fill-opacity="1"><g transform="translate(95.597278, 167.021347)"><g><path d="M 14.875 0 C 14.632812 -1.289062 14.109375 -2.992188 13.296875 -5.109375 C 12.492188 -7.234375 11.398438 -9.796875 10.015625 -12.796875 C 9.867188 -12.628906 9.757812 -12.5 9.6875 -12.40625 C 9.613281 -12.3125 9.566406 -12.253906 9.546875 -12.234375 C 9.523438 -12.160156 9.507812 -12 9.5 -11.75 C 9.5 -11.5 9.5 -11.15625 9.5 -10.71875 L 9.5 0 L 1.46875 0 L 1.46875 -9.828125 C 1.46875 -15.023438 3.066406 -18.390625 6.265625 -19.921875 C 3.203125 -25.960938 1.492188 -30.273438 1.140625 -32.859375 L 9.5 -32.859375 C 9.90625 -31.015625 10.507812 -29.0625 11.3125 -27 C 12.113281 -24.945312 13.125 -22.765625 14.34375 -20.453125 C 14.8125 -20.785156 15.046875 -21.472656 15.046875 -22.515625 L 15.046875 -32.859375 L 23.140625 -32.859375 L 23.140625 -21.734375 C 23.140625 -20.066406 22.632812 -18.445312 21.625 -16.875 C 20.601562 -15.320312 19.34375 -14.140625 17.84375 -13.328125 C 21.300781 -6.441406 23.066406 -2 23.140625 0 Z M 14.875 0 "/></g></g><g transform="translate(119.880931, 167.021347)"><g><path d="M 13.65625 -30.96875 C 13.65625 -29.382812 12.972656 -27.851562 11.609375 -26.375 C 10.472656 -25.144531 9.1875 -24.207031 7.75 -23.5625 L 7.75 -37.671875 L 13.65625 -37.671875 Z M 6.40625 -30.96875 C 6.40625 -28.050781 4.457031 -25.582031 0.5625 -23.5625 L 0.5625 -37.671875 L 6.40625 -37.671875 Z M 6.40625 -30.96875 "/></g></g><g transform="translate(134.090338, 167.021347)"><g><path d="M 19.484375 0 L 11.46875 0 L 10.015625 -9.109375 C 9.441406 -9.109375 9.082031 -8.695312 8.9375 -7.875 L 7.4375 0 L 0.28125 0 L 2.1875 -9.5 C 3.039062 -13.789062 5.03125 -15.9375 8.15625 -15.9375 L 9.5 -15.9375 L 9.5 -22.921875 C 9.5 -23.828125 8.976562 -24.28125 7.9375 -24.28125 L 2.21875 -24.28125 L 2.21875 -32.859375 L 11.484375 -32.859375 C 15.535156 -32.859375 17.5625 -30.734375 17.5625 -26.484375 L 17.5625 -15.4375 C 17.5625 -14.269531 17.59375 -13.191406 17.65625 -12.203125 C 17.726562 -11.222656 17.828125 -10.328125 17.953125 -9.515625 Z M 19.484375 0 "/></g></g><g transform="translate(154.155574, 167.021347)"><g><path d="M 21.0625 0 L 12.90625 0 L 12.90625 -22.921875 C 12.90625 -23.828125 12.441406 -24.28125 11.515625 -24.28125 L 1.421875 -24.28125 L 1.421875 -32.859375 L 15.265625 -32.859375 C 16.960938 -32.859375 18.359375 -32.3125 19.453125 -31.21875 C 20.523438 -30.144531 21.0625 -28.75 21.0625 -27.03125 Z M 9.4375 0 L 1.4375 0 L 1.4375 -20.375 L 9.4375 -20.375 Z M 9.4375 0 "/></g></g><g transform="translate(176.635299, 167.021347)"><g/></g><g transform="translate(189.207294, 167.021347)"><g><path d="M 22.734375 0 L 14.703125 0 L 14.703125 -22.734375 C 14.703125 -23.765625 14.234375 -24.28125 13.296875 -24.28125 L 12.21875 -24.28125 C 11.25 -24.28125 10.765625 -23.765625 10.765625 -22.734375 L 10.765625 -3.9375 C 10.765625 -1.3125 9.664062 0 7.46875 0 L 0.5625 0 L 0.5625 -8.578125 L 1.9375 -8.578125 C 2.40625 -8.578125 2.640625 -8.78125 2.640625 -9.1875 L 2.640625 -26.5625 C 2.640625 -28.800781 3.070312 -30.410156 3.9375 -31.390625 C 4.8125 -32.367188 6.347656 -32.859375 8.546875 -32.859375 L 17.203125 -32.859375 C 20.890625 -32.859375 22.734375 -30.757812 22.734375 -26.5625 Z M 22.734375 0 "/></g></g><g transform="translate(213.379937, 167.021347)"><g><path d="M 9.4375 0 L 1.421875 0 L 1.421875 -32.859375 L 9.4375 -32.859375 Z M 9.4375 0 "/></g></g><g transform="translate(224.231261, 167.021347)"><g><path d="M 17.59375 0 L 9.46875 0 L 9.46875 -22.921875 C 9.46875 -23.828125 8.992188 -24.28125 8.046875 -24.28125 L 0.859375 -24.28125 L 0.859375 -32.859375 L 11.796875 -32.859375 C 13.492188 -32.859375 14.890625 -32.3125 15.984375 -31.21875 C 17.054688 -30.144531 17.59375 -28.75 17.59375 -27.03125 Z M 17.59375 0 "/></g></g><g transform="translate(243.241893, 167.021347)"><g><path d="M 9.328125 -18.296875 L 1.359375 -18.296875 L 1.359375 -32.859375 L 9.328125 -32.859375 Z M 9.328125 -18.296875 "/></g></g><g transform="translate(253.982206, 167.021347)"><g><path d="M 9.15625 -23.53125 L 10.40625 -23.53125 C 11.3125 -23.53125 11.765625 -24.023438 11.765625 -25.015625 L 11.765625 -32.859375 L 19.171875 -32.859375 L 19.171875 -23.640625 C 19.171875 -19.816406 17.519531 -17.90625 14.21875 -17.90625 L 9.15625 -17.90625 L 9.15625 -10.078125 C 9.15625 -9.078125 9.570312 -8.578125 10.40625 -8.578125 L 20.546875 -8.578125 C 21.359375 -8.578125 21.765625 -9.078125 21.765625 -10.078125 L 21.765625 -32.859375 L 29.53125 -32.859375 L 29.53125 -7.46875 C 29.53125 -5.207031 28.945312 -3.410156 27.78125 -2.078125 C 26.5625 -0.691406 24.832031 0 22.59375 0 L 8.359375 0 C 3.734375 0 1.421875 -2.488281 1.421875 -7.46875 L 1.421875 -32.859375 L 9.15625 -32.859375 Z M 9.15625 -23.53125 "/></g></g></g><g fill="#303144" fill-opacity="1"><g transform="translate(102.256828, 208.197122)"><g><path d="M 14.390625 0 L 9.3125 0 L 9.3125 -14.390625 C 9.3125 -15.046875 9.015625 -15.375 8.421875 -15.375 L 7.734375 -15.375 C 7.117188 -15.375 6.8125 -15.046875 6.8125 -14.390625 L 6.8125 -2.5 C 6.8125 -0.832031 6.113281 0 4.71875 0 L 0.34375 0 L 0.34375 -5.421875 L 1.234375 -5.421875 C 1.523438 -5.421875 1.671875 -5.550781 1.671875 -5.8125 L 1.671875 -16.8125 C 1.671875 -18.226562 1.945312 -19.25 2.5 -19.875 C 3.050781 -20.488281 4.019531 -20.796875 5.40625 -20.796875 L 10.890625 -20.796875 C 13.222656 -20.796875 14.390625 -19.46875 14.390625 -16.8125 Z M 14.390625 0 "/></g></g><g transform="translate(117.557432, 208.197122)"><g><path d="M 5.96875 0 L 0.890625 0 L 0.890625 -20.796875 L 5.96875 -20.796875 Z M 5.96875 0 "/></g></g><g transform="translate(124.426016, 208.197122)"><g><path d="M 10.078125 -3.265625 C 10.078125 -1.085938 9.050781 0 7 0 L 0.71875 0 L 0.71875 -5.421875 L 4.328125 -5.421875 C 4.742188 -5.421875 4.953125 -5.679688 4.953125 -6.203125 L 4.953125 -14.515625 C 4.953125 -15.085938 4.695312 -15.375 4.1875 -15.375 L 2.21875 -15.375 L 2.21875 -20.796875 L 6.90625 -20.796875 C 9.019531 -20.796875 10.078125 -19.703125 10.078125 -17.515625 Z M 10.078125 -3.265625 "/></g></g><g transform="translate(135.405209, 208.197122)"><g><path d="M 10.078125 -3.265625 C 10.078125 -1.085938 9.050781 0 7 0 L 0.71875 0 L 0.71875 -5.421875 L 4.328125 -5.421875 C 4.742188 -5.421875 4.953125 -5.679688 4.953125 -6.203125 L 4.953125 -14.515625 C 4.953125 -15.085938 4.695312 -15.375 4.1875 -15.375 L 2.21875 -15.375 L 2.21875 -20.796875 L 6.90625 -20.796875 C 9.019531 -20.796875 10.078125 -19.703125 10.078125 -17.515625 Z M 10.078125 -3.265625 "/></g></g><g transform="translate(146.384403, 208.197122)"><g><path d="M 5.96875 0 L 0.890625 0 L 0.890625 -20.796875 L 5.96875 -20.796875 Z M 5.96875 0 "/></g></g><g transform="translate(153.252987, 208.197122)"><g><path d="M 12.328125 0 L 7.25 0 L 6.34375 -5.765625 C 5.976562 -5.765625 5.75 -5.503906 5.65625 -4.984375 L 4.703125 0 L 0.171875 0 L 1.390625 -6.015625 C 1.929688 -8.722656 3.191406 -10.078125 5.171875 -10.078125 L 6.015625 -10.078125 L 6.015625 -14.515625 C 6.015625 -15.085938 5.6875 -15.375 5.03125 -15.375 L 1.40625 -15.375 L 1.40625 -20.796875 L 7.28125 -20.796875 C 9.84375 -20.796875 11.125 -19.453125 11.125 -16.765625 L 11.125 -9.765625 C 11.125 -9.023438 11.144531 -8.34375 11.1875 -7.71875 C 11.226562 -7.101562 11.289062 -6.539062 11.375 -6.03125 Z M 12.328125 0 "/></g></g><g transform="translate(165.953718, 208.197122)"><g><path d="M 14.390625 0 L 9.3125 0 L 9.3125 -14.390625 C 9.3125 -15.046875 9.015625 -15.375 8.421875 -15.375 L 7.734375 -15.375 C 7.117188 -15.375 6.8125 -15.046875 6.8125 -14.390625 L 6.8125 -2.5 C 6.8125 -0.832031 6.113281 0 4.71875 0 L 0.34375 0 L 0.34375 -5.421875 L 1.234375 -5.421875 C 1.523438 -5.421875 1.671875 -5.550781 1.671875 -5.8125 L 1.671875 -16.8125 C 1.671875 -18.226562 1.945312 -19.25 2.5 -19.875 C 3.050781 -20.488281 4.019531 -20.796875 5.40625 -20.796875 L 10.890625 -20.796875 C 13.222656 -20.796875 14.390625 -19.46875 14.390625 -16.8125 Z M 14.390625 0 "/></g></g><g transform="translate(181.254322, 208.197122)"><g><path d="M 13.34375 0 L 8.171875 0 L 8.171875 -14.515625 C 8.171875 -15.085938 7.878906 -15.375 7.296875 -15.375 L 0.890625 -15.375 L 0.890625 -20.796875 L 9.65625 -20.796875 C 10.738281 -20.796875 11.625 -20.453125 12.3125 -19.765625 C 13 -19.085938 13.34375 -18.203125 13.34375 -17.109375 Z M 5.96875 0 L 0.90625 0 L 0.90625 -12.890625 L 5.96875 -12.890625 Z M 5.96875 0 "/></g></g><g transform="translate(195.483357, 208.197122)"><g><path d="M 13.34375 0 L 8.171875 0 L 8.171875 -14.515625 C 8.171875 -15.085938 7.878906 -15.375 7.296875 -15.375 L 0.890625 -15.375 L 0.890625 -20.796875 L 9.65625 -20.796875 C 10.738281 -20.796875 11.625 -20.453125 12.3125 -19.765625 C 13 -19.085938 13.34375 -18.203125 13.34375 -17.109375 Z M 5.96875 0 L 0.90625 0 L 0.90625 -12.890625 L 5.96875 -12.890625 Z M 5.96875 0 "/></g></g><g transform="translate(209.712392, 208.197122)"><g/></g><g transform="translate(217.670112, 208.197122)"><g><path d="M 14.390625 0 L 9.3125 0 L 9.3125 -14.390625 C 9.3125 -15.046875 9.015625 -15.375 8.421875 -15.375 L 7.734375 -15.375 C 7.117188 -15.375 6.8125 -15.046875 6.8125 -14.390625 L 6.8125 -2.5 C 6.8125 -0.832031 6.113281 0 4.71875 0 L 0.34375 0 L 0.34375 -5.421875 L 1.234375 -5.421875 C 1.523438 -5.421875 1.671875 -5.550781 1.671875 -5.8125 L 1.671875 -16.8125 C 1.671875 -18.226562 1.945312 -19.25 2.5 -19.875 C 3.050781 -20.488281 4.019531 -20.796875 5.40625 -20.796875 L 10.890625 -20.796875 C 13.222656 -20.796875 14.390625 -19.46875 14.390625 -16.8125 Z M 14.390625 0 "/></g></g><g transform="translate(232.970716, 208.197122)"><g><path d="M 5.96875 0 L 0.890625 0 L 0.890625 -20.796875 L 5.96875 -20.796875 Z M 5.96875 0 "/></g></g><g transform="translate(239.8393, 208.197122)"><g><path d="M 11.140625 0 L 5.984375 0 L 5.984375 -14.515625 C 5.984375 -15.085938 5.6875 -15.375 5.09375 -15.375 L 0.546875 -15.375 L 0.546875 -20.796875 L 7.46875 -20.796875 C 8.539062 -20.796875 9.425781 -20.453125 10.125 -19.765625 C 10.800781 -19.085938 11.140625 -18.203125 11.140625 -17.109375 Z M 11.140625 0 "/></g></g><g transform="translate(251.872496, 208.197122)"><g><path d="M 5.90625 -11.578125 L 0.859375 -11.578125 L 0.859375 -20.796875 L 5.90625 -20.796875 Z M 5.90625 -11.578125 "/></g></g><g transform="translate(258.670813, 208.197122)"><g><path d="M 5.796875 -14.90625 L 6.59375 -14.90625 C 7.164062 -14.90625 7.453125 -15.210938 7.453125 -15.828125 L 7.453125 -20.796875 L 12.140625 -20.796875 L 12.140625 -14.96875 C 12.140625 -12.539062 11.09375 -11.328125 9 -11.328125 L 5.796875 -11.328125 L 5.796875 -6.375 C 5.796875 -5.738281 6.0625 -5.421875 6.59375 -5.421875 L 13 -5.421875 C 13.519531 -5.421875 13.78125 -5.738281 13.78125 -6.375 L 13.78125 -20.796875 L 18.6875 -20.796875 L 18.6875 -4.71875 C 18.6875 -3.289062 18.320312 -2.15625 17.59375 -1.3125 C 16.8125 -0.4375 15.710938 0 14.296875 0 L 5.28125 0 C 2.351562 0 0.890625 -1.570312 0.890625 -4.71875 L 0.890625 -20.796875 L 5.796875 -20.796875 Z M 5.796875 -14.90625 "/></g></g></g><g fill="#303144" fill-opacity="1"><g transform="translate(146.911404, 245.67277)"><g><path d="M 14.390625 0 L 9.3125 0 L 9.3125 -14.390625 C 9.3125 -15.046875 9.015625 -15.375 8.421875 -15.375 L 7.734375 -15.375 C 7.117188 -15.375 6.8125 -15.046875 6.8125 -14.390625 L 6.8125 -2.5 C 6.8125 -0.832031 6.113281 0 4.71875 0 L 0.34375 0 L 0.34375 -5.421875 L 1.234375 -5.421875 C 1.523438 -5.421875 1.671875 -5.550781 1.671875 -5.8125 L 1.671875 -16.8125 C 1.671875 -18.226562 1.945312 -19.25 2.5 -19.875 C 3.050781 -20.488281 4.019531 -20.796875 5.40625 -20.796875 L 10.890625 -20.796875 C 13.222656 -20.796875 14.390625 -19.46875 14.390625 -16.8125 Z M 14.390625 0 "/></g></g><g transform="translate(162.212009, 245.67277)"><g><path d="M 5.90625 -11.578125 L 0.859375 -11.578125 L 0.859375 -20.796875 L 5.90625 -20.796875 Z M 5.90625 -11.578125 "/></g></g><g transform="translate(169.010325, 245.67277)"><g><path d="M 13.5625 0 L 8.46875 0 L 8.46875 -14.390625 C 8.46875 -15.046875 8.171875 -15.375 7.578125 -15.375 L 6.953125 -15.375 C 6.359375 -15.375 6.0625 -15.046875 6.0625 -14.390625 L 6.0625 0 L 0.890625 0 L 0.890625 -17.171875 C 0.890625 -18.460938 1.109375 -19.367188 1.546875 -19.890625 C 2.035156 -20.492188 2.914062 -20.796875 4.1875 -20.796875 L 10.046875 -20.796875 C 12.390625 -20.796875 13.5625 -19.585938 13.5625 -17.171875 Z M 13.5625 0 "/></g></g><g transform="translate(183.467728, 245.67277)"><g><path d="M 11.140625 0 L 5.984375 0 L 5.984375 -14.515625 C 5.984375 -15.085938 5.6875 -15.375 5.09375 -15.375 L 0.546875 -15.375 L 0.546875 -20.796875 L 7.46875 -20.796875 C 8.539062 -20.796875 9.425781 -20.453125 10.125 -19.765625 C 10.800781 -19.085938 11.140625 -18.203125 11.140625 -17.109375 Z M 11.140625 0 "/></g></g><g transform="translate(195.500924, 245.67277)"><g><path d="M 7.796875 -15.375 L 7.734375 -15.375 C 6.921875 -15.375 6.515625 -14.796875 6.515625 -13.640625 L 6.515625 0 L 1.46875 0 L 1.46875 -12.609375 C 1.46875 -14.117188 1.953125 -15.039062 2.921875 -15.375 L 0.71875 -15.375 L 0.71875 -20.796875 L 7.796875 -20.796875 Z M 7.796875 -15.375 "/></g></g><g transform="translate(204.020779, 245.67277)"><g><path d="M 9.421875 0 C 9.265625 -0.820312 8.929688 -1.898438 8.421875 -3.234375 C 7.910156 -4.578125 7.21875 -6.195312 6.34375 -8.09375 C 6.25 -7.988281 6.175781 -7.90625 6.125 -7.84375 C 6.082031 -7.789062 6.054688 -7.757812 6.046875 -7.75 C 6.035156 -7.695312 6.023438 -7.59375 6.015625 -7.4375 C 6.015625 -7.28125 6.015625 -7.0625 6.015625 -6.78125 L 6.015625 0 L 0.9375 0 L 0.9375 -6.21875 C 0.9375 -9.507812 1.945312 -11.640625 3.96875 -12.609375 C 2.019531 -16.429688 0.9375 -19.160156 0.71875 -20.796875 L 6.015625 -20.796875 C 6.265625 -19.628906 6.644531 -18.394531 7.15625 -17.09375 C 7.664062 -15.789062 8.304688 -14.410156 9.078125 -12.953125 C 9.367188 -13.160156 9.515625 -13.59375 9.515625 -14.25 L 9.515625 -20.796875 L 14.65625 -20.796875 L 14.65625 -13.75 C 14.65625 -12.695312 14.332031 -11.675781 13.6875 -10.6875 C 13.039062 -9.695312 12.242188 -8.945312 11.296875 -8.4375 C 13.484375 -4.070312 14.601562 -1.257812 14.65625 0 Z M 9.421875 0 "/></g></g><g transform="translate(219.39165, 245.67277)"><g><path d="M 13.34375 0 L 8.171875 0 L 8.171875 -14.515625 C 8.171875 -15.085938 7.878906 -15.375 7.296875 -15.375 L 0.890625 -15.375 L 0.890625 -20.796875 L 9.65625 -20.796875 C 10.738281 -20.796875 11.625 -20.453125 12.3125 -19.765625 C 13 -19.085938 13.34375 -18.203125 13.34375 -17.109375 Z M 5.96875 0 L 0.90625 0 L 0.90625 -12.890625 L 5.96875 -12.890625 Z M 5.96875 0 "/></g></g></g></svg>