<svg xmlns="http://www.w3.org/2000/svg" xmlns:xlink="http://www.w3.org/1999/xlink" width="555" zoomAndPan="magnify" viewBox="0 0 416.25 278.250005" height="371" preserveAspectRatio="xMidYMid meet" version="1.0"><defs><g/><clipPath id="a04815060a"><path d="M 27 36 L 165 36 L 165 112 L 27 112 Z M 27 36 " clip-rule="nonzero"/></clipPath><clipPath id="800382bc88"><path d="M 0.1875 86.804688 L 159.058594 0.0585938 L 205.65625 85.402344 L 46.785156 172.152344 Z M 0.1875 86.804688 " clip-rule="nonzero"/></clipPath><clipPath id="d78eef6772"><path d="M 0.1875 86.804688 L 159.058594 0.0585938 L 205.65625 85.402344 L 46.785156 172.152344 Z M 0.1875 86.804688 " clip-rule="nonzero"/></clipPath><clipPath id="e7d6b89808"><path d="M 16 30 L 176 30 L 176 161 L 16 161 Z M 16 30 " clip-rule="nonzero"/></clipPath><clipPath id="b7a89e8fb8"><path d="M 0.1875 86.804688 L 159.058594 0.0585938 L 205.65625 85.402344 L 46.785156 172.152344 Z M 0.1875 86.804688 " clip-rule="nonzero"/></clipPath><clipPath id="8a630a76a9"><path d="M 0.1875 86.804688 L 159.058594 0.0585938 L 205.65625 85.402344 L 46.785156 172.152344 Z M 0.1875 86.804688 " clip-rule="nonzero"/></clipPath><clipPath id="8b37277f81"><path d="M 70.585938 50.648438 L 415.316406 50.648438 L 415.316406 276.8125 L 70.585938 276.8125 Z M 70.585938 50.648438 " clip-rule="nonzero"/></clipPath><clipPath id="e4fb559a0c"><path d="M 266.257812 50.648438 C 270.039062 50.648438 273.839844 50.648438 277.613281 50.648438 C 307.691406 54.425781 326.488281 67 335.050781 87.574219 C 385.195312 84.832031 421.652344 123.738281 399.433594 161.917969 C 406.824219 169.941406 412.988281 178.917969 415.214844 190.964844 C 415.214844 194.414062 415.214844 197.855469 415.214844 201.304688 C 408.578125 231.964844 380.03125 252.679688 333.167969 247.101562 C 321.109375 262.84375 299.652344 278.609375 266.265625 276.644531 C 249.007812 275.613281 237 269.625 226.488281 262.355469 C 215.417969 268.398438 203.425781 273.144531 186.101562 273.195312 C 146.019531 273.285156 119.207031 249.996094 118.554688 218.050781 C 92.789062 210.578125 75.335938 196.628906 70.585938 172.761719 C 70.585938 169.308594 70.585938 165.851562 70.585938 162.417969 C 75.828125 138.765625 92.332031 123.90625 119.8125 117.609375 C 118.160156 77.707031 173.125 52.777344 218.277344 70.355469 C 229.03125 61.664062 244.238281 52.183594 266.257812 50.648438 Z M 266.257812 50.648438 " clip-rule="nonzero"/></clipPath><clipPath id="ff9b03844e"><path d="M 70.585938 39.085938 L 415.316406 39.085938 L 415.316406 265.246094 L 70.585938 265.246094 Z M 70.585938 39.085938 " clip-rule="nonzero"/></clipPath><clipPath id="84688c07a0"><path d="M 266.257812 39.085938 C 270.039062 39.085938 273.839844 39.085938 277.613281 39.085938 C 307.691406 42.863281 326.488281 55.4375 335.050781 76.011719 C 385.195312 73.265625 421.652344 112.171875 399.433594 150.355469 C 406.824219 158.378906 412.988281 167.351562 415.214844 179.398438 C 415.214844 182.847656 415.214844 186.292969 415.214844 189.742188 C 408.578125 220.398438 380.03125 241.117188 333.167969 235.539062 C 321.109375 251.28125 299.652344 267.042969 266.265625 265.082031 C 249.007812 264.046875 237 258.0625 226.488281 250.789062 C 215.417969 256.835938 203.425781 261.578125 186.101562 261.628906 C 146.019531 261.71875 119.207031 238.429688 118.554688 206.488281 C 92.789062 199.015625 75.335938 185.066406 70.585938 161.195312 C 70.585938 157.746094 70.585938 154.289062 70.585938 150.851562 C 75.828125 127.199219 92.332031 112.34375 119.8125 106.042969 C 118.160156 66.144531 173.125 41.210938 218.277344 58.789062 C 229.03125 50.097656 244.238281 40.617188 266.257812 39.085938 Z M 266.257812 39.085938 " clip-rule="nonzero"/></clipPath></defs><g clip-path="url(#a04815060a)"><g clip-path="url(#800382bc88)"><g clip-path="url(#d78eef6772)"><path fill="#69775f" d="M 97.023438 75.421875 C 113.527344 66.410156 133.082031 60.761719 140.046875 66.347656 L 164.667969 36.796875 L 81.957031 47.832031 L 32.523438 106.058594 L 32.527344 106.066406 L 27.898438 111.523438 L 37.355469 110.527344 L 38.742188 110.382812 L 38.730469 110.355469 L 39.863281 110.214844 L 43.03125 109.820312 L 66.152344 106.917969 C 65.546875 102.386719 69.351562 97.109375 72.976562 93.214844 C 78.671875 87.101562 87.210938 80.78125 97.023438 75.421875 Z M 97.023438 75.421875 " fill-opacity="1" fill-rule="nonzero"/></g></g></g><g clip-path="url(#e7d6b89808)"><g clip-path="url(#b7a89e8fb8)"><g clip-path="url(#8a630a76a9)"><path fill="#69775f" d="M 175.84375 30.617188 L 79.570312 43.460938 L 29.347656 102.628906 L 27.558594 104.753906 L 16.878906 117.316406 L 42.292969 114.664062 L 43.40625 116.703125 C 43.066406 117.15625 42.8125 117.695312 42.667969 118.285156 C 42.410156 119.339844 42.488281 120.542969 42.941406 121.71875 C 43.042969 121.984375 43.160156 122.242188 43.304688 122.507812 C 43.453125 122.773438 43.609375 123.023438 43.785156 123.261719 C 44.371094 124.050781 45.09375 124.660156 45.882812 125.050781 C 46.5 125.359375 47.15625 125.523438 47.792969 125.554688 L 60.542969 156.457031 C 61.859375 160.011719 65.230469 161.988281 68.761719 160.058594 C 72.289062 158.132812 72.445312 154.21875 70.175781 151.199219 L 51.066406 123.765625 C 51.402344 123.214844 51.605469 122.570312 51.675781 121.886719 C 51.773438 121 51.644531 120.035156 51.28125 119.101562 C 51.183594 118.84375 51.058594 118.597656 50.925781 118.347656 C 50.792969 118.109375 50.648438 117.886719 50.503906 117.679688 C 49.757812 116.640625 48.777344 115.90625 47.734375 115.542969 C 47.160156 115.34375 46.578125 115.257812 46.003906 115.304688 L 45.410156 114.21875 L 70.488281 111.070312 L 74.238281 117.933594 L 83.136719 134.234375 C 83.277344 134.101562 83.429688 133.972656 83.578125 133.835938 C 83.855469 133.59375 84.152344 133.34375 84.472656 133.09375 C 86.140625 131.769531 88.378906 130.347656 91.15625 128.832031 C 98.660156 124.730469 109.738281 120.328125 116.367188 118.8125 C 118.878906 118.242188 121.175781 116.988281 123.015625 115.183594 C 127.871094 110.429688 137.566406 103.488281 145.074219 99.390625 C 147.847656 97.875 150.261719 96.769531 152.28125 96.066406 C 152.664062 95.933594 153.035156 95.820312 153.390625 95.714844 C 153.578125 95.65625 153.765625 95.609375 153.953125 95.566406 L 145.054688 79.265625 L 141.203125 72.214844 Z M 68.429688 108.96875 L 22.382812 114.421875 L 29.144531 106.46875 L 30.929688 104.347656 L 80.753906 45.648438 L 170.257812 33.710938 L 140.578125 69.339844 L 139.070312 68.128906 C 137.824219 67.128906 133.761719 65.085938 122.855469 67.648438 C 115.335938 69.417969 106.566406 72.914062 98.160156 77.507812 C 88.492188 82.785156 80.09375 88.996094 74.511719 94.988281 C 68.238281 101.730469 67.980469 105.621094 68.164062 106.976562 Z M 68.429688 108.96875 " fill-opacity="1" fill-rule="nonzero"/></g></g></g><g clip-path="url(#8b37277f81)"><g clip-path="url(#e4fb559a0c)"><path fill="#cf4545" d="M 70.585938 50.648438 L 415.128906 50.648438 L 415.128906 276.8125 L 70.585938 276.8125 Z M 70.585938 50.648438 " fill-opacity="1" fill-rule="nonzero"/></g></g><g clip-path="url(#ff9b03844e)"><g clip-path="url(#84688c07a0)"><path fill="#ffcf7e" d="M 70.585938 39.085938 L 415.128906 39.085938 L 415.128906 265.246094 L 70.585938 265.246094 Z M 70.585938 39.085938 " fill-opacity="1" fill-rule="nonzero"/></g></g><g fill="#cf4545" fill-opacity="1"><g transform="translate(155.080854, 127.346269)"><g><path d="M 9.15625 -17.96875 L 1.34375 -17.96875 L 1.34375 -32.28125 L 9.15625 -32.28125 Z M 9.15625 -17.96875 "/></g></g></g><g fill="#cf4545" fill-opacity="1"><g transform="translate(165.632966, 127.346269)"><g><path d="M 19.828125 0 L 1.390625 0 L 1.390625 -8.421875 L 7.53125 -8.421875 C 9.320312 -8.421875 10.21875 -9.484375 10.21875 -11.609375 L 10.21875 -21.296875 C 10.21875 -22.242188 10.054688 -22.90625 9.734375 -23.28125 C 9.410156 -23.664062 8.785156 -23.859375 7.859375 -23.859375 L 1.390625 -23.859375 L 1.390625 -32.28125 L 12 -32.28125 C 16.15625 -32.28125 18.234375 -29.816406 18.234375 -24.890625 L 18.234375 -13.859375 C 18.234375 -11.003906 17.171875 -9.191406 15.046875 -8.421875 L 19.828125 -8.421875 Z M 19.828125 0 "/></g></g></g><g fill="#cf4545" fill-opacity="1"><g transform="translate(186.573593, 127.346269)"><g><path d="M 21.046875 0 L 13.140625 0 L 13.140625 -22.328125 C 13.140625 -23.347656 12.675781 -23.859375 11.75 -23.859375 L 10.796875 -23.859375 C 9.867188 -23.859375 9.40625 -23.347656 9.40625 -22.328125 L 9.40625 0 L 1.390625 0 L 1.390625 -26.640625 C 1.390625 -28.660156 1.726562 -30.066406 2.40625 -30.859375 C 3.164062 -31.804688 4.523438 -32.28125 6.484375 -32.28125 L 15.59375 -32.28125 C 19.226562 -32.28125 21.046875 -30.398438 21.046875 -26.640625 Z M 21.046875 0 "/></g></g></g><g fill="#cf4545" fill-opacity="1"><g transform="translate(209.013873, 127.346269)"><g><path d="M 17.28125 0 L 9.296875 0 L 9.296875 -22.515625 C 9.296875 -23.410156 8.832031 -23.859375 7.90625 -23.859375 L 0.84375 -23.859375 L 0.84375 -32.28125 L 11.59375 -32.28125 C 13.257812 -32.28125 14.628906 -31.742188 15.703125 -30.671875 C 16.753906 -29.617188 17.28125 -28.25 17.28125 -26.5625 Z M 17.28125 0 "/></g></g></g><g fill="#cf4545" fill-opacity="1"><g transform="translate(227.691384, 127.346269)"><g><path d="M 22.828125 -5.8125 C 22.828125 -1.9375 21.070312 0 17.5625 0 L 12 0 L 12 -8.453125 L 13.65625 -8.453125 C 14.476562 -8.453125 14.890625 -8.941406 14.890625 -9.921875 L 14.890625 -22.21875 C 14.890625 -23.207031 14.644531 -23.703125 14.15625 -23.703125 C 13.664062 -23.703125 13.328125 -23.144531 13.140625 -22.03125 L 9.1875 0 L 1.390625 0 L 4.71875 -18.03125 L 3.15625 -18.03125 C 1.945312 -18.03125 1.34375 -18.628906 1.34375 -19.828125 L 1.34375 -32.28125 L 9.25 -32.28125 L 9.25 -20.890625 L 10.828125 -27.125 C 11.703125 -30.5625 13.582031 -32.28125 16.46875 -32.28125 L 16.875 -32.28125 C 20.84375 -32.28125 22.828125 -29.863281 22.828125 -25.03125 Z M 22.828125 -5.8125 "/></g></g></g><g fill="#cf4545" fill-opacity="1"><g transform="translate(251.903983, 127.346269)"><g/></g></g><g fill="#cf4545" fill-opacity="1"><g transform="translate(264.25568, 127.346269)"><g><path d="M 18.4375 -23.859375 C 16.65625 -23.859375 15.765625 -22.984375 15.765625 -21.234375 L 15.765625 0 L 7.75 0 L 7.75 -19 C 7.75 -21.488281 8.800781 -23.109375 10.90625 -23.859375 L 0.84375 -23.859375 L 0.84375 -32.28125 L 18.4375 -32.28125 Z M 18.4375 -23.859375 "/></g></g></g><g fill="#cf4545" fill-opacity="1"><g transform="translate(284.078382, 127.346269)"><g><path d="M 9.265625 0 L 1.390625 0 L 1.390625 -32.28125 L 9.265625 -32.28125 Z M 9.265625 0 "/></g></g></g><g fill="#cf4545" fill-opacity="1"><g transform="translate(294.73956, 127.346269)"><g><path d="M 20.921875 -9.984375 C 20.921875 -6.691406 20.382812 -4.265625 19.3125 -2.703125 C 18 -0.847656 15.769531 0.078125 12.625 0.078125 C 12.0625 0.078125 11.472656 0.0507812 10.859375 0 L 10.859375 -8.421875 C 12.234375 -8.421875 12.921875 -9.441406 12.921875 -11.484375 L 12.921875 -22.515625 C 12.921875 -23.410156 12.457031 -23.859375 11.53125 -23.859375 L 1.390625 -23.859375 L 1.390625 -32.28125 L 16.875 -32.28125 C 19.570312 -32.28125 20.921875 -30.984375 20.921875 -28.390625 Z M 9.328125 4.65625 L 1.4375 4.65625 L 1.4375 -20.3125 L 9.328125 -20.3125 Z M 9.328125 4.65625 "/></g></g></g><g fill="#cf4545" fill-opacity="1"><g transform="translate(317.070775, 127.346269)"><g><path d="M 9.15625 -17.96875 L 1.34375 -17.96875 L 1.34375 -32.28125 L 9.15625 -32.28125 Z M 9.15625 -17.96875 "/></g></g></g><g fill="#cf4545" fill-opacity="1"><g transform="translate(327.622887, 127.346269)"><g><path d="M 20.640625 -6.265625 C 20.640625 -2.085938 18.613281 0 14.5625 0 L 1.4375 0 L 1.4375 -8.421875 L 11.203125 -8.421875 C 12.273438 -8.421875 12.8125 -9.054688 12.8125 -10.328125 L 12.8125 -22.515625 C 12.8125 -23.410156 12.40625 -23.859375 11.59375 -23.859375 L 10.5 -23.859375 C 9.75 -23.859375 9.375 -23.394531 9.375 -22.46875 L 9.375 -17.71875 L 1.390625 -17.71875 L 1.390625 -26.5625 C 1.390625 -30.375 3.226562 -32.28125 6.90625 -32.28125 L 14.96875 -32.28125 C 16.675781 -32.28125 18.050781 -31.753906 19.09375 -30.703125 C 20.125 -29.628906 20.640625 -28.25 20.640625 -26.5625 Z M 20.640625 -6.265625 "/></g></g></g><g fill="#303144" fill-opacity="1"><g transform="translate(185.456011, 165.176102)"><g><path d="M 5.890625 -11.546875 L 0.859375 -11.546875 L 0.859375 -20.765625 L 5.890625 -20.765625 Z M 5.890625 -11.546875 "/></g></g><g transform="translate(192.240458, 165.176102)"><g><path d="M 12.75 0 L 0.890625 0 L 0.890625 -5.421875 L 4.84375 -5.421875 C 6 -5.421875 6.578125 -6.101562 6.578125 -7.46875 L 6.578125 -13.6875 C 6.578125 -14.300781 6.46875 -14.726562 6.25 -14.96875 C 6.039062 -15.21875 5.640625 -15.34375 5.046875 -15.34375 L 0.890625 -15.34375 L 0.890625 -20.765625 L 7.71875 -20.765625 C 10.394531 -20.765625 11.734375 -19.175781 11.734375 -16 L 11.734375 -8.90625 C 11.734375 -7.070312 11.046875 -5.910156 9.671875 -5.421875 L 12.75 -5.421875 Z M 12.75 0 "/></g></g><g transform="translate(205.704167, 165.176102)"><g><path d="M 13.53125 0 L 8.453125 0 L 8.453125 -14.359375 C 8.453125 -15.015625 8.15625 -15.34375 7.5625 -15.34375 L 6.9375 -15.34375 C 6.34375 -15.34375 6.046875 -15.015625 6.046875 -14.359375 L 6.046875 0 L 0.890625 0 L 0.890625 -17.125 C 0.890625 -18.425781 1.109375 -19.332031 1.546875 -19.84375 C 2.035156 -20.457031 2.910156 -20.765625 4.171875 -20.765625 L 10.03125 -20.765625 C 12.363281 -20.765625 13.53125 -19.550781 13.53125 -17.125 Z M 13.53125 0 "/></g></g><g transform="translate(220.132075, 165.176102)"><g><path d="M 11.109375 0 L 5.984375 0 L 5.984375 -14.484375 C 5.984375 -15.054688 5.679688 -15.34375 5.078125 -15.34375 L 0.546875 -15.34375 L 0.546875 -20.765625 L 7.453125 -20.765625 C 8.523438 -20.765625 9.40625 -20.414062 10.09375 -19.71875 C 10.769531 -19.039062 11.109375 -18.160156 11.109375 -17.078125 Z M 11.109375 0 "/></g></g><g transform="translate(232.140722, 165.176102)"><g><path d="M 14.671875 -3.734375 C 14.671875 -1.242188 13.546875 0 11.296875 0 L 7.71875 0 L 7.71875 -5.4375 L 8.78125 -5.4375 C 9.3125 -5.4375 9.578125 -5.75 9.578125 -6.375 L 9.578125 -14.28125 C 9.578125 -14.914062 9.414062 -15.234375 9.09375 -15.234375 C 8.78125 -15.234375 8.566406 -14.878906 8.453125 -14.171875 L 5.90625 0 L 0.890625 0 L 3.03125 -11.59375 L 2.03125 -11.59375 C 1.25 -11.59375 0.859375 -11.976562 0.859375 -12.75 L 0.859375 -20.765625 L 5.9375 -20.765625 L 5.9375 -13.4375 L 6.953125 -17.4375 C 7.515625 -19.65625 8.726562 -20.765625 10.59375 -20.765625 L 10.859375 -20.765625 C 13.398438 -20.765625 14.671875 -19.207031 14.671875 -16.09375 Z M 14.671875 -3.734375 "/></g></g><g transform="translate(247.708136, 165.176102)"><g/></g><g transform="translate(255.649621, 165.176102)"><g><path d="M 11.859375 -15.34375 C 10.710938 -15.34375 10.140625 -14.78125 10.140625 -13.65625 L 10.140625 0 L 4.984375 0 L 4.984375 -12.21875 C 4.984375 -13.820312 5.660156 -14.863281 7.015625 -15.34375 L 0.546875 -15.34375 L 0.546875 -20.765625 L 11.859375 -20.765625 Z M 11.859375 -15.34375 "/></g></g><g transform="translate(268.394564, 165.176102)"><g><path d="M 5.96875 0 L 0.890625 0 L 0.890625 -20.765625 L 5.96875 -20.765625 Z M 5.96875 0 "/></g></g><g transform="translate(275.249135, 165.176102)"><g><path d="M 13.453125 -6.421875 C 13.453125 -4.304688 13.101562 -2.742188 12.40625 -1.734375 C 11.570312 -0.546875 10.144531 0.046875 8.125 0.046875 C 7.757812 0.046875 7.378906 0.03125 6.984375 0 L 6.984375 -5.421875 C 7.867188 -5.421875 8.3125 -6.070312 8.3125 -7.375 L 8.3125 -14.484375 C 8.3125 -15.054688 8.015625 -15.34375 7.421875 -15.34375 L 0.890625 -15.34375 L 0.890625 -20.765625 L 10.859375 -20.765625 C 12.585938 -20.765625 13.453125 -19.925781 13.453125 -18.25 Z M 6 3 L 0.921875 3 L 0.921875 -13.0625 L 6 -13.0625 Z M 6 3 "/></g></g><g transform="translate(289.606919, 165.176102)"><g><path d="M 5.890625 -11.546875 L 0.859375 -11.546875 L 0.859375 -20.765625 L 5.890625 -20.765625 Z M 5.890625 -11.546875 "/></g></g><g transform="translate(296.391366, 165.176102)"><g><path d="M 13.265625 -4.03125 C 13.265625 -1.34375 11.960938 0 9.359375 0 L 0.921875 0 L 0.921875 -5.421875 L 7.203125 -5.421875 C 7.890625 -5.421875 8.234375 -5.828125 8.234375 -6.640625 L 8.234375 -14.484375 C 8.234375 -15.054688 7.972656 -15.34375 7.453125 -15.34375 L 6.75 -15.34375 C 6.269531 -15.34375 6.03125 -15.046875 6.03125 -14.453125 L 6.03125 -11.390625 L 0.890625 -11.390625 L 0.890625 -17.078125 C 0.890625 -19.535156 2.070312 -20.765625 4.4375 -20.765625 L 9.625 -20.765625 C 10.71875 -20.765625 11.597656 -20.421875 12.265625 -19.734375 C 12.929688 -19.046875 13.265625 -18.160156 13.265625 -17.078125 Z M 13.265625 -4.03125 "/></g></g></g><g fill="#303144" fill-opacity="1"><g transform="translate(168.042012, 202.575295)"><g><path d="M 13.75 -5.46875 C 13.75 -1.820312 12.25 0 9.25 0 L 0.546875 0 L 0.546875 -5.421875 L 1.765625 -5.421875 L 1.765625 -20.765625 L 6.84375 -20.765625 L 6.84375 -5.421875 L 7.859375 -5.421875 C 8.441406 -5.421875 8.734375 -5.820312 8.734375 -6.625 L 8.734375 -20.765625 L 13.75 -20.765625 Z M 13.75 -5.46875 "/></g></g><g transform="translate(182.680289, 202.575295)"><g><path d="M 8.625 -19.5625 C 8.625 -18.5625 8.191406 -17.59375 7.328125 -16.65625 C 6.617188 -15.882812 5.804688 -15.296875 4.890625 -14.890625 L 4.890625 -23.796875 L 8.625 -23.796875 Z M 4.046875 -19.5625 C 4.046875 -17.71875 2.8125 -16.160156 0.34375 -14.890625 L 0.34375 -23.796875 L 4.046875 -23.796875 Z M 4.046875 -19.5625 "/></g></g><g transform="translate(191.656096, 202.575295)"><g><path d="M 13.265625 -4.03125 C 13.265625 -1.34375 11.960938 0 9.359375 0 L 0.921875 0 L 0.921875 -5.421875 L 7.203125 -5.421875 C 7.890625 -5.421875 8.234375 -5.828125 8.234375 -6.640625 L 8.234375 -14.484375 C 8.234375 -15.054688 7.972656 -15.34375 7.453125 -15.34375 L 6.75 -15.34375 C 6.269531 -15.34375 6.03125 -15.046875 6.03125 -14.453125 L 6.03125 -11.390625 L 0.890625 -11.390625 L 0.890625 -17.078125 C 0.890625 -19.535156 2.070312 -20.765625 4.4375 -20.765625 L 9.625 -20.765625 C 10.71875 -20.765625 11.597656 -20.421875 12.265625 -19.734375 C 12.929688 -19.046875 13.265625 -18.160156 13.265625 -17.078125 Z M 13.265625 -4.03125 "/></g></g><g transform="translate(205.838571, 202.575295)"><g><path d="M 13.3125 0 L 8.15625 0 L 8.15625 -14.484375 C 8.15625 -15.054688 7.863281 -15.34375 7.28125 -15.34375 L 0.890625 -15.34375 L 0.890625 -20.765625 L 9.640625 -20.765625 C 10.710938 -20.765625 11.597656 -20.414062 12.296875 -19.71875 C 12.972656 -19.039062 13.3125 -18.160156 13.3125 -17.078125 Z M 5.96875 0 L 0.90625 0 L 0.90625 -12.875 L 5.96875 -12.875 Z M 5.96875 0 "/></g></g><g transform="translate(220.038576, 202.575295)"><g><path d="M 12.75 0 L 0.890625 0 L 0.890625 -5.421875 L 4.84375 -5.421875 C 6 -5.421875 6.578125 -6.101562 6.578125 -7.46875 L 6.578125 -13.6875 C 6.578125 -14.300781 6.46875 -14.726562 6.25 -14.96875 C 6.039062 -15.21875 5.640625 -15.34375 5.046875 -15.34375 L 0.890625 -15.34375 L 0.890625 -20.765625 L 7.71875 -20.765625 C 10.394531 -20.765625 11.734375 -19.175781 11.734375 -16 L 11.734375 -8.90625 C 11.734375 -7.070312 11.046875 -5.910156 9.671875 -5.421875 L 12.75 -5.421875 Z M 12.75 0 "/></g></g><g transform="translate(233.502286, 202.575295)"><g/></g><g transform="translate(241.443771, 202.575295)"><g><path d="M 5.96875 0 L 0.890625 0 L 0.890625 -20.765625 L 5.96875 -20.765625 Z M 5.96875 0 "/></g></g><g transform="translate(248.298342, 202.575295)"><g><path d="M 14.359375 0 L 9.296875 0 L 9.296875 -14.359375 C 9.296875 -15.015625 8.992188 -15.34375 8.390625 -15.34375 L 7.71875 -15.34375 C 7.101562 -15.34375 6.796875 -15.015625 6.796875 -14.359375 L 6.796875 -2.484375 C 6.796875 -0.828125 6.101562 0 4.71875 0 L 0.34375 0 L 0.34375 -5.421875 L 1.234375 -5.421875 C 1.523438 -5.421875 1.671875 -5.546875 1.671875 -5.796875 L 1.671875 -16.78125 C 1.671875 -18.195312 1.941406 -19.210938 2.484375 -19.828125 C 3.035156 -20.453125 4.007812 -20.765625 5.40625 -20.765625 L 10.875 -20.765625 C 13.195312 -20.765625 14.359375 -19.4375 14.359375 -16.78125 Z M 14.359375 0 "/></g></g><g transform="translate(263.567731, 202.575295)"><g><path d="M 11.109375 0 L 5.984375 0 L 5.984375 -14.484375 C 5.984375 -15.054688 5.679688 -15.34375 5.078125 -15.34375 L 0.546875 -15.34375 L 0.546875 -20.765625 L 7.453125 -20.765625 C 8.523438 -20.765625 9.40625 -20.414062 10.09375 -19.71875 C 10.769531 -19.039062 11.109375 -18.160156 11.109375 -17.078125 Z M 11.109375 0 "/></g></g><g transform="translate(275.576378, 202.575295)"><g><path d="M 11.859375 -15.34375 C 10.710938 -15.34375 10.140625 -14.78125 10.140625 -13.65625 L 10.140625 0 L 4.984375 0 L 4.984375 -12.21875 C 4.984375 -13.820312 5.660156 -14.863281 7.015625 -15.34375 L 0.546875 -15.34375 L 0.546875 -20.765625 L 11.859375 -20.765625 Z M 11.859375 -15.34375 "/></g></g><g transform="translate(288.321322, 202.575295)"><g><path d="M 12.3125 0 L 7.234375 0 L 6.328125 -5.75 C 5.960938 -5.75 5.734375 -5.492188 5.640625 -4.984375 L 4.703125 0 L 0.171875 0 L 1.390625 -6 C 1.921875 -8.707031 3.175781 -10.0625 5.15625 -10.0625 L 6 -10.0625 L 6 -14.484375 C 6 -15.054688 5.671875 -15.34375 5.015625 -15.34375 L 1.40625 -15.34375 L 1.40625 -20.765625 L 7.265625 -20.765625 C 9.816406 -20.765625 11.09375 -19.414062 11.09375 -16.71875 L 11.09375 -9.75 C 11.09375 -9.007812 11.113281 -8.328125 11.15625 -7.703125 C 11.195312 -7.085938 11.257812 -6.523438 11.34375 -6.015625 Z M 12.3125 0 "/></g></g><g transform="translate(300.996142, 202.575295)"><g><path d="M 13.3125 0 L 8.15625 0 L 8.15625 -14.484375 C 8.15625 -15.054688 7.863281 -15.34375 7.28125 -15.34375 L 0.890625 -15.34375 L 0.890625 -20.765625 L 9.640625 -20.765625 C 10.710938 -20.765625 11.597656 -20.414062 12.296875 -19.71875 C 12.972656 -19.039062 13.3125 -18.160156 13.3125 -17.078125 Z M 5.96875 0 L 0.90625 0 L 0.90625 -12.875 L 5.96875 -12.875 Z M 5.96875 0 "/></g></g><g transform="translate(315.196148, 202.575295)"><g><path d="M 11.890625 -5.125 C 11.890625 -1.707031 10.28125 0 7.0625 0 L 0.890625 0 L 0.890625 -5.421875 L 5.1875 -5.421875 C 6.25 -5.421875 6.78125 -5.914062 6.78125 -6.90625 L 6.78125 -13.84375 C 6.78125 -14.84375 6.25 -15.34375 5.1875 -15.34375 L 0.890625 -15.34375 L 0.890625 -20.765625 L 7.0625 -20.765625 C 10.28125 -20.765625 11.890625 -19.054688 11.890625 -15.640625 Z M 11.890625 -5.125 "/></g></g></g><g fill="#303144" fill-opacity="1"><g transform="translate(209.940795, 239.974487)"><g><path d="M 12.84375 0 L 1.546875 0 L 1.546875 -2.296875 C 1.546875 -4.234375 2.171875 -5.875 3.421875 -7.21875 L 6 -9.96875 C 6.332031 -10.34375 6.601562 -10.644531 6.8125 -10.875 C 7.03125 -11.101562 7.164062 -11.265625 7.21875 -11.359375 C 7.59375 -11.910156 7.78125 -12.507812 7.78125 -13.15625 L 7.78125 -15.328125 L 6.234375 -15.328125 L 6.234375 -13.296875 L 1.1875 -13.296875 L 1.1875 -16.765625 C 1.1875 -17.910156 1.644531 -18.867188 2.5625 -19.640625 C 3.414062 -20.390625 4.425781 -20.765625 5.59375 -20.765625 L 8.875 -20.765625 C 11.519531 -20.765625 12.84375 -19.429688 12.84375 -16.765625 L 12.84375 -12.921875 C 12.84375 -11.253906 12.101562 -9.570312 10.625 -7.875 L 8.46875 -5.421875 L 12.84375 -5.421875 Z M 12.84375 0 "/></g></g><g transform="translate(223.947961, 239.974487)"><g><path d="M 5.453125 0 L 0.71875 0 L 0.71875 -5.140625 L 5.453125 -5.140625 Z M 5.453125 0 "/></g></g><g transform="translate(230.048705, 239.974487)"><g><path d="M 13.109375 -3.984375 C 13.109375 -2.722656 12.75 -1.742188 12.03125 -1.046875 C 11.320312 -0.347656 10.335938 0 9.078125 0 L 4.96875 0 C 3.863281 0 2.914062 -0.390625 2.125 -1.171875 C 1.320312 -1.960938 0.921875 -2.898438 0.921875 -3.984375 L 0.921875 -16.765625 C 0.921875 -18.035156 1.273438 -19.019531 1.984375 -19.71875 C 2.691406 -20.414062 3.6875 -20.765625 4.96875 -20.765625 L 9.078125 -20.765625 C 10.335938 -20.765625 11.320312 -20.410156 12.03125 -19.703125 C 12.75 -19.003906 13.109375 -18.023438 13.109375 -16.765625 Z M 8.015625 -5.421875 L 8.015625 -15.328125 L 6 -15.328125 L 6 -5.421875 Z M 8.015625 -5.421875 "/></g></g><g transform="translate(244.055871, 239.974487)"><g><path d="M 12.984375 -3.984375 C 12.984375 -1.328125 11.898438 0 9.734375 0 L 1.375 0 L 1.375 -5.421875 L 7.984375 -5.421875 L 7.984375 -7.8125 L 3.015625 -7.8125 L 5.3125 -15.328125 L 1.375 -15.328125 L 1.375 -20.765625 L 12.640625 -20.765625 L 10.015625 -12.890625 C 11.992188 -12.890625 12.984375 -11.65625 12.984375 -9.1875 Z M 12.984375 -3.984375 "/></g></g><g transform="translate(258.063037, 239.974487)"><g><path d="M 13.109375 -3.984375 C 13.109375 -2.722656 12.75 -1.742188 12.03125 -1.046875 C 11.320312 -0.347656 10.335938 0 9.078125 0 L 4.96875 0 C 3.863281 0 2.914062 -0.390625 2.125 -1.171875 C 1.320312 -1.960938 0.921875 -2.898438 0.921875 -3.984375 L 0.921875 -16.765625 C 0.921875 -18.035156 1.273438 -19.019531 1.984375 -19.71875 C 2.691406 -20.414062 3.6875 -20.765625 4.96875 -20.765625 L 9.078125 -20.765625 C 10.335938 -20.765625 11.320312 -20.410156 12.03125 -19.703125 C 12.75 -19.003906 13.109375 -18.023438 13.109375 -16.765625 Z M 8.015625 -5.421875 L 8.015625 -15.328125 L 6 -15.328125 L 6 -5.421875 Z M 8.015625 -5.421875 "/></g></g><g transform="translate(272.070204, 239.974487)"><g><path d="M 10.921875 0 L 5.828125 0 L 5.828125 -15.328125 L 2.359375 -15.328125 L 2.359375 -20.765625 L 6.953125 -20.765625 C 9.597656 -20.765625 10.921875 -19.429688 10.921875 -16.765625 Z M 10.921875 0 "/></g></g></g></svg>