<svg xmlns="http://www.w3.org/2000/svg" xmlns:xlink="http://www.w3.org/1999/xlink" width="494" zoomAndPan="magnify" viewBox="0 0 370.5 317.999988" height="424" preserveAspectRatio="xMidYMid meet" version="1.0"><defs><g/><clipPath id="c1dcad24c6"><path d="M 65 15 L 233 15 L 233 68 L 65 68 Z M 65 15 " clip-rule="nonzero"/></clipPath><clipPath id="b91ba0eb84"><path d="M 48.171875 19.207031 L 243.203125 0.191406 L 253.394531 104.710938 L 58.363281 123.726562 Z M 48.171875 19.207031 " clip-rule="nonzero"/></clipPath><clipPath id="b987502af2"><path d="M 48.171875 19.207031 L 243.203125 0.191406 L 253.394531 104.710938 L 58.363281 123.726562 Z M 48.171875 19.207031 " clip-rule="nonzero"/></clipPath><clipPath id="059f9af6d5"><path d="M 51 9 L 247 9 L 247 122 L 51 122 Z M 51 9 " clip-rule="nonzero"/></clipPath><clipPath id="8f37766fa4"><path d="M 48.171875 19.207031 L 243.203125 0.191406 L 253.394531 104.710938 L 58.363281 123.726562 Z M 48.171875 19.207031 " clip-rule="nonzero"/></clipPath><clipPath id="002aae72c5"><path d="M 48.171875 19.207031 L 243.203125 0.191406 L 253.394531 104.710938 L 58.363281 123.726562 Z M 48.171875 19.207031 " clip-rule="nonzero"/></clipPath><clipPath id="48e645dfc7"><path d="M 18.542969 87.359375 L 370 87.359375 L 370 317.550781 L 18.542969 317.550781 Z M 18.542969 87.359375 " clip-rule="nonzero"/></clipPath><clipPath id="d9d0751dfb"><path d="M 217.703125 87.359375 C 221.550781 87.359375 225.417969 87.359375 229.257812 87.359375 C 259.875 91.203125 279.003906 104 287.71875 124.941406 C 338.757812 122.148438 375.867188 161.746094 353.25 200.609375 C 360.773438 208.777344 367.046875 217.910156 369.3125 230.171875 C 369.3125 233.683594 369.3125 237.1875 369.3125 240.699219 C 362.558594 271.902344 333.503906 292.988281 285.804688 287.3125 C 273.53125 303.332031 251.691406 319.378906 217.710938 317.378906 C 200.144531 316.328125 187.925781 310.234375 177.226562 302.835938 C 165.957031 308.988281 153.75 313.816406 136.117188 313.867188 C 95.320312 313.960938 68.03125 290.253906 67.371094 257.742188 C 41.144531 250.136719 23.378906 235.9375 18.542969 211.644531 C 18.542969 208.132812 18.542969 204.613281 18.542969 201.117188 C 23.882812 177.042969 40.679688 161.921875 68.648438 155.511719 C 66.964844 114.898438 122.910156 89.523438 168.867188 107.414062 C 179.8125 98.566406 195.292969 88.917969 217.703125 87.359375 Z M 217.703125 87.359375 " clip-rule="nonzero"/></clipPath><clipPath id="e0bf937c49"><path d="M 0 76.976562 L 351 76.976562 L 351 307.167969 L 0 307.167969 Z M 0 76.976562 " clip-rule="nonzero"/></clipPath><clipPath id="1bdf16ec14"><path d="M 199.15625 76.976562 C 203.003906 76.976562 206.875 76.976562 210.714844 76.976562 C 241.328125 80.820312 260.460938 93.617188 269.175781 114.558594 C 320.214844 111.765625 357.320312 151.363281 334.707031 190.226562 C 342.226562 198.394531 348.5 207.527344 350.765625 219.789062 C 350.765625 223.300781 350.765625 226.804688 350.765625 230.316406 C 344.015625 261.519531 314.960938 282.605469 267.257812 276.929688 C 254.988281 292.953125 233.148438 308.996094 199.164062 306.996094 C 181.601562 305.945312 169.378906 299.855469 158.679688 292.453125 C 147.410156 298.605469 135.207031 303.433594 117.574219 303.488281 C 76.777344 303.578125 49.488281 279.875 48.824219 247.359375 C 22.597656 239.753906 4.835938 225.554688 0 201.261719 C 0 197.75 0 194.230469 0 190.734375 C 5.339844 166.660156 22.136719 151.539062 50.101562 145.128906 C 48.421875 104.515625 104.367188 79.140625 150.324219 97.03125 C 161.265625 88.183594 176.75 78.535156 199.15625 76.976562 Z M 199.15625 76.976562 " clip-rule="nonzero"/></clipPath></defs><g clip-path="url(#c1dcad24c6)"><g clip-path="url(#b91ba0eb84)"><g clip-path="url(#b987502af2)"><path fill="#e48951" d="M 149.261719 48.886719 C 169.484375 46.917969 191.316406 49.578125 195.875 58.082031 L 232.863281 39.125 L 145.964844 15.078125 L 72.171875 52.039062 L 72.171875 52.050781 L 65.257812 55.511719 L 75.082031 58.527344 L 76.523438 58.96875 L 76.523438 58.9375 L 77.710938 59.277344 L 81.023438 60.226562 L 105.238281 67.128906 C 106.554688 62.371094 112.570312 58.730469 117.824219 56.394531 C 126.074219 52.730469 137.242188 50.0625 149.261719 48.886719 Z M 149.261719 48.886719 " fill-opacity="1" fill-rule="nonzero"/></g></g></g><g clip-path="url(#059f9af6d5)"><g clip-path="url(#8f37766fa4)"><g clip-path="url(#002aae72c5)"><path fill="#e48951" d="M 246.589844 37.710938 L 145.445312 9.722656 L 70.46875 47.285156 L 67.789062 48.640625 L 51.851562 56.605469 L 78.242188 64.726562 L 78.484375 67.226562 C 77.953125 67.53125 77.476562 67.960938 77.082031 68.488281 C 76.378906 69.425781 75.945312 70.65625 75.898438 72.015625 C 75.886719 72.324219 75.894531 72.632812 75.925781 72.957031 C 75.960938 73.28125 76.011719 73.59375 76.082031 73.90625 C 76.332031 74.941406 76.792969 75.851562 77.414062 76.574219 C 77.894531 77.140625 78.476562 77.582031 79.101562 77.882812 L 78.691406 114.003906 C 78.496094 118.09375 81.007812 121.484375 85.335938 121.0625 C 89.660156 120.640625 91.472656 116.816406 90.492188 112.855469 L 83.109375 77.492188 C 83.675781 77.085938 84.152344 76.53125 84.511719 75.882812 C 84.980469 75.042969 85.265625 74.027344 85.296875 72.945312 C 85.308594 72.644531 85.292969 72.351562 85.261719 72.046875 C 85.234375 71.753906 85.183594 71.472656 85.125 71.199219 C 84.824219 69.851562 84.164062 68.707031 83.277344 67.902344 C 82.789062 67.464844 82.25 67.136719 81.660156 66.9375 L 81.527344 65.605469 L 107.792969 73.09375 L 108.613281 81.503906 L 110.558594 101.472656 C 110.753906 101.402344 110.960938 101.339844 111.164062 101.265625 C 111.546875 101.144531 111.945312 101.019531 112.371094 100.90625 C 114.589844 100.296875 117.417969 99.832031 120.820312 99.5 C 130.015625 98.601562 142.894531 98.914062 150.121094 100.214844 C 152.863281 100.710938 155.675781 100.433594 158.269531 99.417969 C 165.113281 96.75 177.6875 93.953125 186.882812 93.054688 C 190.285156 92.726562 193.152344 92.648438 195.457031 92.804688 C 195.894531 92.835938 196.3125 92.878906 196.707031 92.925781 C 196.921875 92.945312 197.125 92.980469 197.332031 93.011719 L 195.382812 73.042969 L 194.542969 64.402344 Z M 106.636719 70.132812 L 58.550781 56.058594 L 68.636719 51.015625 L 71.3125 49.664062 L 145.695312 12.402344 L 239.726562 38.425781 L 195.136719 61.28125 L 194.152344 59.4375 C 193.335938 57.914062 190.160156 54.164062 178.238281 52.09375 C 170.011719 50.671875 159.8125 50.4375 149.511719 51.441406 C 137.667969 52.59375 126.6875 55.214844 118.601562 58.808594 C 109.507812 62.855469 107.605469 66.613281 107.214844 68.039062 Z M 106.636719 70.132812 " fill-opacity="1" fill-rule="nonzero"/></g></g></g><g clip-path="url(#48e645dfc7)"><g clip-path="url(#d9d0751dfb)"><path fill="#cf4545" d="M 18.542969 87.359375 L 369.226562 87.359375 L 369.226562 317.550781 L 18.542969 317.550781 Z M 18.542969 87.359375 " fill-opacity="1" fill-rule="nonzero"/></g></g><g clip-path="url(#e0bf937c49)"><g clip-path="url(#1bdf16ec14)"><path fill="#ffcf7e" d="M 0 76.976562 L 350.679688 76.976562 L 350.679688 307.167969 L 0 307.167969 Z M 0 76.976562 " fill-opacity="1" fill-rule="nonzero"/></g></g><g fill="#303144" fill-opacity="1"><g transform="translate(81.178944, 200.336378)"><g><path d="M 11.578125 0 L 7.5 0 L 7.5 -11.578125 C 7.5 -12.109375 7.253906 -12.375 6.765625 -12.375 L 6.21875 -12.375 C 5.726562 -12.375 5.484375 -12.109375 5.484375 -11.578125 L 5.484375 -2 C 5.484375 -0.664062 4.921875 0 3.796875 0 L 0.28125 0 L 0.28125 -4.375 L 0.984375 -4.375 C 1.222656 -4.375 1.34375 -4.472656 1.34375 -4.671875 L 1.34375 -13.53125 C 1.34375 -14.664062 1.5625 -15.484375 2 -15.984375 C 2.445312 -16.484375 3.234375 -16.734375 4.359375 -16.734375 L 8.765625 -16.734375 C 10.640625 -16.734375 11.578125 -15.664062 11.578125 -13.53125 Z M 11.578125 0 "/></g></g></g><g fill="#303144" fill-opacity="1"><g transform="translate(93.492499, 200.336378)"><g><path d="M 4.75 -9.3125 L 0.6875 -9.3125 L 0.6875 -16.734375 L 4.75 -16.734375 Z M 4.75 -9.3125 "/></g></g></g><g fill="#303144" fill-opacity="1"><g transform="translate(98.963619, 200.336378)"><g><path d="M 4.671875 -11.984375 L 5.296875 -11.984375 C 5.765625 -11.984375 6 -12.234375 6 -12.734375 L 6 -16.734375 L 9.765625 -16.734375 L 9.765625 -12.046875 C 9.765625 -10.097656 8.921875 -9.125 7.234375 -9.125 L 4.671875 -9.125 L 4.671875 -5.125 C 4.671875 -4.625 4.878906 -4.375 5.296875 -4.375 L 10.46875 -4.375 C 10.875 -4.375 11.078125 -4.625 11.078125 -5.125 L 11.078125 -16.734375 L 15.046875 -16.734375 L 15.046875 -3.796875 C 15.046875 -2.648438 14.75 -1.738281 14.15625 -1.0625 C 13.53125 -0.351562 12.644531 0 11.5 0 L 4.25 0 C 1.894531 0 0.71875 -1.265625 0.71875 -3.796875 L 0.71875 -16.734375 L 4.671875 -16.734375 Z M 4.671875 -11.984375 "/></g></g></g><g fill="#303144" fill-opacity="1"><g transform="translate(114.726665, 200.336378)"><g><path d="M 7.578125 0 C 7.453125 -0.65625 7.179688 -1.523438 6.765625 -2.609375 C 6.359375 -3.691406 5.804688 -4.992188 5.109375 -6.515625 C 5.023438 -6.429688 4.960938 -6.363281 4.921875 -6.3125 C 4.890625 -6.269531 4.867188 -6.242188 4.859375 -6.234375 C 4.847656 -6.191406 4.835938 -6.109375 4.828125 -5.984375 C 4.828125 -5.859375 4.828125 -5.679688 4.828125 -5.453125 L 4.828125 0 L 0.75 0 L 0.75 -5 C 0.75 -7.65625 1.5625 -9.375 3.1875 -10.15625 C 1.625 -13.226562 0.753906 -15.421875 0.578125 -16.734375 L 4.828125 -16.734375 C 5.035156 -15.796875 5.34375 -14.800781 5.75 -13.75 C 6.164062 -12.707031 6.6875 -11.597656 7.3125 -10.421875 C 7.539062 -10.585938 7.65625 -10.9375 7.65625 -11.46875 L 7.65625 -16.734375 L 11.796875 -16.734375 L 11.796875 -11.0625 C 11.796875 -10.21875 11.535156 -9.394531 11.015625 -8.59375 C 10.492188 -7.800781 9.851562 -7.195312 9.09375 -6.78125 C 10.851562 -3.28125 11.753906 -1.019531 11.796875 0 Z M 7.578125 0 "/></g></g></g><g fill="#303144" fill-opacity="1"><g transform="translate(127.096769, 200.336378)"><g><path d="M 8.96875 0 L 4.828125 0 L 4.828125 -11.671875 C 4.828125 -12.140625 4.582031 -12.375 4.09375 -12.375 L 0.4375 -12.375 L 0.4375 -16.734375 L 6.015625 -16.734375 C 6.878906 -16.734375 7.585938 -16.457031 8.140625 -15.90625 C 8.691406 -15.351562 8.96875 -14.640625 8.96875 -13.765625 Z M 8.96875 0 "/></g></g></g><g fill="#303144" fill-opacity="1"><g transform="translate(136.780793, 200.336378)"><g/></g></g><g fill="#303144" fill-opacity="1"><g transform="translate(143.184972, 200.336378)"><g><path d="M 11.578125 0 L 7.5 0 L 7.5 -11.578125 C 7.5 -12.109375 7.253906 -12.375 6.765625 -12.375 L 6.21875 -12.375 C 5.726562 -12.375 5.484375 -12.109375 5.484375 -11.578125 L 5.484375 -2 C 5.484375 -0.664062 4.921875 0 3.796875 0 L 0.28125 0 L 0.28125 -4.375 L 0.984375 -4.375 C 1.222656 -4.375 1.34375 -4.472656 1.34375 -4.671875 L 1.34375 -13.53125 C 1.34375 -14.664062 1.5625 -15.484375 2 -15.984375 C 2.445312 -16.484375 3.234375 -16.734375 4.359375 -16.734375 L 8.765625 -16.734375 C 10.640625 -16.734375 11.578125 -15.664062 11.578125 -13.53125 Z M 11.578125 0 "/></g></g></g><g fill="#303144" fill-opacity="1"><g transform="translate(155.498527, 200.336378)"><g><path d="M 4.75 -9.3125 L 0.6875 -9.3125 L 0.6875 -16.734375 L 4.75 -16.734375 Z M 4.75 -9.3125 "/></g></g></g><g fill="#303144" fill-opacity="1"><g transform="translate(160.969647, 200.336378)"><g><path d="M 11.078125 -4.40625 C 11.078125 -1.46875 9.875 0 7.46875 0 L 0.4375 0 L 0.4375 -4.375 L 1.421875 -4.375 L 1.421875 -16.734375 L 5.515625 -16.734375 L 5.515625 -4.375 L 6.328125 -4.375 C 6.804688 -4.375 7.046875 -4.695312 7.046875 -5.34375 L 7.046875 -16.734375 L 11.078125 -16.734375 Z M 11.078125 -4.40625 "/></g></g></g><g fill="#303144" fill-opacity="1"><g transform="translate(172.774261, 200.336378)"><g><path d="M 4.8125 0 L 0.71875 0 L 0.71875 -16.734375 L 4.8125 -16.734375 Z M 4.8125 0 "/></g></g></g><g fill="#303144" fill-opacity="1"><g transform="translate(178.30193, 200.336378)"><g><path d="M 0.8125 0 L 0.8125 -4.375 L 5.578125 -4.375 L 2.90625 -9.78125 C 1.332031 -12.96875 0.4375 -15.285156 0.21875 -16.734375 L 4.5625 -16.734375 C 5.132812 -14.398438 5.941406 -12.332031 6.984375 -10.53125 C 7.140625 -10.632812 7.238281 -10.828125 7.28125 -11.109375 C 7.3125 -11.285156 7.328125 -11.5 7.328125 -11.75 L 7.328125 -16.734375 L 11.4375 -16.734375 L 11.4375 -11.0625 C 11.4375 -10.207031 11.175781 -9.390625 10.65625 -8.609375 C 10.144531 -7.847656 9.507812 -7.265625 8.75 -6.859375 C 10.53125 -3.316406 11.425781 -1.03125 11.4375 0 Z M 0.8125 0 "/></g></g></g><g fill="#303144" fill-opacity="1"><g transform="translate(190.459975, 200.336378)"><g><path d="M 10.84375 -5.171875 C 10.84375 -3.460938 10.566406 -2.207031 10.015625 -1.40625 C 9.328125 -0.4375 8.171875 0.046875 6.546875 0.046875 C 6.253906 0.046875 5.945312 0.03125 5.625 0 L 5.625 -4.375 C 6.34375 -4.375 6.703125 -4.898438 6.703125 -5.953125 L 6.703125 -11.671875 C 6.703125 -12.140625 6.460938 -12.375 5.984375 -12.375 L 0.71875 -12.375 L 0.71875 -16.734375 L 8.75 -16.734375 C 10.144531 -16.734375 10.84375 -16.0625 10.84375 -14.71875 Z M 4.828125 2.421875 L 0.75 2.421875 L 0.75 -10.53125 L 4.828125 -10.53125 Z M 4.828125 2.421875 "/></g></g></g><g fill="#303144" fill-opacity="1"><g transform="translate(202.038392, 200.336378)"><g><path d="M 11.828125 -3.015625 C 11.828125 -1.003906 10.921875 0 9.109375 0 L 6.21875 0 L 6.21875 -4.375 L 7.078125 -4.375 C 7.503906 -4.375 7.71875 -4.628906 7.71875 -5.140625 L 7.71875 -11.515625 C 7.71875 -12.023438 7.59375 -12.28125 7.34375 -12.28125 C 7.082031 -12.28125 6.90625 -11.992188 6.8125 -11.421875 L 4.765625 0 L 0.71875 0 L 2.453125 -9.34375 L 1.640625 -9.34375 C 1.003906 -9.34375 0.6875 -9.65625 0.6875 -10.28125 L 0.6875 -16.734375 L 4.796875 -16.734375 L 4.796875 -10.828125 L 5.609375 -14.0625 C 6.066406 -15.84375 7.039062 -16.734375 8.53125 -16.734375 L 8.75 -16.734375 C 10.800781 -16.734375 11.828125 -15.484375 11.828125 -12.984375 Z M 11.828125 -3.015625 "/></g></g></g><g fill="#303144" fill-opacity="1"><g transform="translate(214.59228, 200.336378)"><g/></g></g><g fill="#303144" fill-opacity="1"><g transform="translate(220.996459, 200.336378)"><g><path d="M 11.578125 0 L 7.5 0 L 7.5 -11.578125 C 7.5 -12.109375 7.253906 -12.375 6.765625 -12.375 L 6.21875 -12.375 C 5.726562 -12.375 5.484375 -12.109375 5.484375 -11.578125 L 5.484375 -2 C 5.484375 -0.664062 4.921875 0 3.796875 0 L 0.28125 0 L 0.28125 -4.375 L 0.984375 -4.375 C 1.222656 -4.375 1.34375 -4.472656 1.34375 -4.671875 L 1.34375 -13.53125 C 1.34375 -14.664062 1.5625 -15.484375 2 -15.984375 C 2.445312 -16.484375 3.234375 -16.734375 4.359375 -16.734375 L 8.765625 -16.734375 C 10.640625 -16.734375 11.578125 -15.664062 11.578125 -13.53125 Z M 11.578125 0 "/></g></g></g><g fill="#303144" fill-opacity="1"><g transform="translate(233.310014, 200.336378)"><g><path d="M 4.8125 0 L 0.71875 0 L 0.71875 -16.734375 L 4.8125 -16.734375 Z M 4.8125 0 "/></g></g></g><g fill="#303144" fill-opacity="1"><g transform="translate(238.837683, 200.336378)"><g><path d="M 9.578125 -4.125 C 9.578125 -1.375 8.285156 0 5.703125 0 L 0.71875 0 L 0.71875 -4.375 L 4.1875 -4.375 C 5.039062 -4.375 5.46875 -4.769531 5.46875 -5.5625 L 5.46875 -11.171875 C 5.46875 -11.972656 5.039062 -12.375 4.1875 -12.375 L 0.71875 -12.375 L 0.71875 -16.734375 L 5.703125 -16.734375 C 8.285156 -16.734375 9.578125 -15.359375 9.578125 -12.609375 Z M 9.578125 -4.125 "/></g></g></g><g fill="#303144" fill-opacity="1"><g transform="translate(249.143747, 200.336378)"><g><path d="M 11.828125 -3.015625 C 11.828125 -1.003906 10.921875 0 9.109375 0 L 6.21875 0 L 6.21875 -4.375 L 7.078125 -4.375 C 7.503906 -4.375 7.71875 -4.628906 7.71875 -5.140625 L 7.71875 -11.515625 C 7.71875 -12.023438 7.59375 -12.28125 7.34375 -12.28125 C 7.082031 -12.28125 6.90625 -11.992188 6.8125 -11.421875 L 4.765625 0 L 0.71875 0 L 2.453125 -9.34375 L 1.640625 -9.34375 C 1.003906 -9.34375 0.6875 -9.65625 0.6875 -10.28125 L 0.6875 -16.734375 L 4.796875 -16.734375 L 4.796875 -10.828125 L 5.609375 -14.0625 C 6.066406 -15.84375 7.039062 -16.734375 8.53125 -16.734375 L 8.75 -16.734375 C 10.800781 -16.734375 11.828125 -15.484375 11.828125 -12.984375 Z M 11.828125 -3.015625 "/></g></g></g><g fill="#303144" fill-opacity="1"><g transform="translate(261.697635, 200.336378)"><g><path d="M 11.40625 -5.015625 C 11.40625 -3.378906 10.941406 -2.070312 10.015625 -1.09375 C 9.066406 -0.0820312 7.78125 0.421875 6.15625 0.421875 C 4.488281 0.421875 3.164062 -0.0664062 2.1875 -1.046875 C 1.207031 -2.023438 0.71875 -3.347656 0.71875 -5.015625 L 0.71875 -14.0625 C 0.71875 -14.539062 0.765625 -14.953125 0.859375 -15.296875 C 0.953125 -15.640625 1.101562 -15.914062 1.3125 -16.125 C 1.519531 -16.332031 1.789062 -16.484375 2.125 -16.578125 C 2.457031 -16.679688 2.863281 -16.734375 3.34375 -16.734375 L 8.75 -16.734375 C 10.519531 -16.734375 11.40625 -15.84375 11.40625 -14.0625 Z M 7.28125 -12.03125 C 7.28125 -12.257812 7.1875 -12.375 7 -12.375 L 5.109375 -12.375 C 4.921875 -12.375 4.828125 -12.257812 4.828125 -12.03125 L 4.828125 -5.46875 C 4.828125 -4.445312 5.253906 -3.9375 6.109375 -3.9375 C 6.890625 -3.9375 7.28125 -4.445312 7.28125 -5.46875 Z M 7.28125 -12.03125 "/></g></g></g><g fill="#303144" fill-opacity="1"><g transform="translate(101.647413, 230.295943)"><g><path d="M 11.578125 0 L 7.5 0 L 7.5 -11.578125 C 7.5 -12.109375 7.253906 -12.375 6.765625 -12.375 L 6.21875 -12.375 C 5.726562 -12.375 5.484375 -12.109375 5.484375 -11.578125 L 5.484375 -2 C 5.484375 -0.664062 4.921875 0 3.796875 0 L 0.28125 0 L 0.28125 -4.375 L 0.984375 -4.375 C 1.222656 -4.375 1.34375 -4.472656 1.34375 -4.671875 L 1.34375 -13.53125 C 1.34375 -14.664062 1.5625 -15.484375 2 -15.984375 C 2.445312 -16.484375 3.234375 -16.734375 4.359375 -16.734375 L 8.765625 -16.734375 C 10.640625 -16.734375 11.578125 -15.664062 11.578125 -13.53125 Z M 11.578125 0 "/></g></g></g><g fill="#303144" fill-opacity="1"><g transform="translate(113.960967, 230.295943)"><g><path d="M 4.8125 0 L 0.71875 0 L 0.71875 -16.734375 L 4.8125 -16.734375 Z M 4.8125 0 "/></g></g></g><g fill="#303144" fill-opacity="1"><g transform="translate(119.488637, 230.295943)"><g><path d="M 8.109375 -2.625 C 8.109375 -0.875 7.28125 0 5.625 0 L 0.578125 0 L 0.578125 -4.375 L 3.484375 -4.375 C 3.816406 -4.375 3.984375 -4.578125 3.984375 -4.984375 L 3.984375 -11.671875 C 3.984375 -12.140625 3.773438 -12.375 3.359375 -12.375 L 1.78125 -12.375 L 1.78125 -16.734375 L 5.5625 -16.734375 C 7.257812 -16.734375 8.109375 -15.851562 8.109375 -14.09375 Z M 8.109375 -2.625 "/></g></g></g><g fill="#303144" fill-opacity="1"><g transform="translate(128.324425, 230.295943)"><g><path d="M 8.109375 -2.625 C 8.109375 -0.875 7.28125 0 5.625 0 L 0.578125 0 L 0.578125 -4.375 L 3.484375 -4.375 C 3.816406 -4.375 3.984375 -4.578125 3.984375 -4.984375 L 3.984375 -11.671875 C 3.984375 -12.140625 3.773438 -12.375 3.359375 -12.375 L 1.78125 -12.375 L 1.78125 -16.734375 L 5.5625 -16.734375 C 7.257812 -16.734375 8.109375 -15.851562 8.109375 -14.09375 Z M 8.109375 -2.625 "/></g></g></g><g fill="#303144" fill-opacity="1"><g transform="translate(137.160213, 230.295943)"><g><path d="M 4.8125 0 L 0.71875 0 L 0.71875 -16.734375 L 4.8125 -16.734375 Z M 4.8125 0 "/></g></g></g><g fill="#303144" fill-opacity="1"><g transform="translate(142.687883, 230.295943)"><g><path d="M 9.921875 0 L 5.84375 0 L 5.109375 -4.640625 C 4.816406 -4.640625 4.628906 -4.429688 4.546875 -4.015625 L 3.78125 0 L 0.140625 0 L 1.109375 -4.828125 C 1.546875 -7.015625 2.5625 -8.109375 4.15625 -8.109375 L 4.828125 -8.109375 L 4.828125 -11.671875 C 4.828125 -12.140625 4.566406 -12.375 4.046875 -12.375 L 1.125 -12.375 L 1.125 -16.734375 L 5.859375 -16.734375 C 7.921875 -16.734375 8.953125 -15.648438 8.953125 -13.484375 L 8.953125 -7.859375 C 8.953125 -7.265625 8.96875 -6.71875 9 -6.21875 C 9.03125 -5.71875 9.078125 -5.257812 9.140625 -4.84375 Z M 9.921875 0 "/></g></g></g><g fill="#303144" fill-opacity="1"><g transform="translate(152.909123, 230.295943)"><g><path d="M 11.578125 0 L 7.5 0 L 7.5 -11.578125 C 7.5 -12.109375 7.253906 -12.375 6.765625 -12.375 L 6.21875 -12.375 C 5.726562 -12.375 5.484375 -12.109375 5.484375 -11.578125 L 5.484375 -2 C 5.484375 -0.664062 4.921875 0 3.796875 0 L 0.28125 0 L 0.28125 -4.375 L 0.984375 -4.375 C 1.222656 -4.375 1.34375 -4.472656 1.34375 -4.671875 L 1.34375 -13.53125 C 1.34375 -14.664062 1.5625 -15.484375 2 -15.984375 C 2.445312 -16.484375 3.234375 -16.734375 4.359375 -16.734375 L 8.765625 -16.734375 C 10.640625 -16.734375 11.578125 -15.664062 11.578125 -13.53125 Z M 11.578125 0 "/></g></g></g><g fill="#303144" fill-opacity="1"><g transform="translate(165.222677, 230.295943)"><g><path d="M 10.734375 0 L 6.578125 0 L 6.578125 -11.671875 C 6.578125 -12.140625 6.335938 -12.375 5.859375 -12.375 L 0.71875 -12.375 L 0.71875 -16.734375 L 7.78125 -16.734375 C 8.644531 -16.734375 9.351562 -16.457031 9.90625 -15.90625 C 10.457031 -15.351562 10.734375 -14.640625 10.734375 -13.765625 Z M 4.8125 0 L 0.734375 0 L 0.734375 -10.375 L 4.8125 -10.375 Z M 4.8125 0 "/></g></g></g><g fill="#303144" fill-opacity="1"><g transform="translate(176.673859, 230.295943)"><g><path d="M 10.734375 0 L 6.578125 0 L 6.578125 -11.671875 C 6.578125 -12.140625 6.335938 -12.375 5.859375 -12.375 L 0.71875 -12.375 L 0.71875 -16.734375 L 7.78125 -16.734375 C 8.644531 -16.734375 9.351562 -16.457031 9.90625 -15.90625 C 10.457031 -15.351562 10.734375 -14.640625 10.734375 -13.765625 Z M 4.8125 0 L 0.734375 0 L 0.734375 -10.375 L 4.8125 -10.375 Z M 4.8125 0 "/></g></g></g><g fill="#303144" fill-opacity="1"><g transform="translate(188.125041, 230.295943)"><g/></g></g><g fill="#303144" fill-opacity="1"><g transform="translate(194.52922, 230.295943)"><g><path d="M 4.75 -9.3125 L 0.6875 -9.3125 L 0.6875 -16.734375 L 4.75 -16.734375 Z M 4.75 -9.3125 "/></g></g></g><g fill="#303144" fill-opacity="1"><g transform="translate(200.000341, 230.295943)"><g><path d="M 7.578125 0 C 7.453125 -0.65625 7.179688 -1.523438 6.765625 -2.609375 C 6.359375 -3.691406 5.804688 -4.992188 5.109375 -6.515625 C 5.023438 -6.429688 4.960938 -6.363281 4.921875 -6.3125 C 4.890625 -6.269531 4.867188 -6.242188 4.859375 -6.234375 C 4.847656 -6.191406 4.835938 -6.109375 4.828125 -5.984375 C 4.828125 -5.859375 4.828125 -5.679688 4.828125 -5.453125 L 4.828125 0 L 0.75 0 L 0.75 -5 C 0.75 -7.65625 1.5625 -9.375 3.1875 -10.15625 C 1.625 -13.226562 0.753906 -15.421875 0.578125 -16.734375 L 4.828125 -16.734375 C 5.035156 -15.796875 5.34375 -14.800781 5.75 -13.75 C 6.164062 -12.707031 6.6875 -11.597656 7.3125 -10.421875 C 7.539062 -10.585938 7.65625 -10.9375 7.65625 -11.46875 L 7.65625 -16.734375 L 11.796875 -16.734375 L 11.796875 -11.0625 C 11.796875 -10.21875 11.535156 -9.394531 11.015625 -8.59375 C 10.492188 -7.800781 9.851562 -7.195312 9.09375 -6.78125 C 10.851562 -3.28125 11.753906 -1.019531 11.796875 0 Z M 7.578125 0 "/></g></g></g><g fill="#303144" fill-opacity="1"><g transform="translate(212.370444, 230.295943)"><g><path d="M 4.671875 -11.984375 L 5.296875 -11.984375 C 5.765625 -11.984375 6 -12.234375 6 -12.734375 L 6 -16.734375 L 9.765625 -16.734375 L 9.765625 -12.046875 C 9.765625 -10.097656 8.921875 -9.125 7.234375 -9.125 L 4.671875 -9.125 L 4.671875 -5.125 C 4.671875 -4.625 4.878906 -4.375 5.296875 -4.375 L 10.46875 -4.375 C 10.875 -4.375 11.078125 -4.625 11.078125 -5.125 L 11.078125 -16.734375 L 15.046875 -16.734375 L 15.046875 -3.796875 C 15.046875 -2.648438 14.75 -1.738281 14.15625 -1.0625 C 13.53125 -0.351562 12.644531 0 11.5 0 L 4.25 0 C 1.894531 0 0.71875 -1.265625 0.71875 -3.796875 L 0.71875 -16.734375 L 4.671875 -16.734375 Z M 4.671875 -11.984375 "/></g></g></g><g fill="#303144" fill-opacity="1"><g transform="translate(228.133491, 230.295943)"><g><path d="M 4.8125 0 L 0.71875 0 L 0.71875 -16.734375 L 4.8125 -16.734375 Z M 4.8125 0 "/></g></g></g><g fill="#303144" fill-opacity="1"><g transform="translate(233.66116, 230.295943)"><g><path d="M 8.109375 -2.625 C 8.109375 -0.875 7.28125 0 5.625 0 L 0.578125 0 L 0.578125 -4.375 L 3.484375 -4.375 C 3.816406 -4.375 3.984375 -4.578125 3.984375 -4.984375 L 3.984375 -11.671875 C 3.984375 -12.140625 3.773438 -12.375 3.359375 -12.375 L 1.78125 -12.375 L 1.78125 -16.734375 L 5.5625 -16.734375 C 7.257812 -16.734375 8.109375 -15.851562 8.109375 -14.09375 Z M 8.109375 -2.625 "/></g></g></g><g fill="#303144" fill-opacity="1"><g transform="translate(242.496948, 230.295943)"><g><path d="M 10.28125 0 L 0.71875 0 L 0.71875 -4.375 L 3.90625 -4.375 C 4.832031 -4.375 5.296875 -4.921875 5.296875 -6.015625 L 5.296875 -11.046875 C 5.296875 -11.535156 5.210938 -11.878906 5.046875 -12.078125 C 4.878906 -12.273438 4.554688 -12.375 4.078125 -12.375 L 0.71875 -12.375 L 0.71875 -16.734375 L 6.21875 -16.734375 C 8.375 -16.734375 9.453125 -15.457031 9.453125 -12.90625 L 9.453125 -7.1875 C 9.453125 -5.707031 8.898438 -4.769531 7.796875 -4.375 L 10.28125 -4.375 Z M 10.28125 0 "/></g></g></g><g fill="#303144" fill-opacity="1"><g transform="translate(74.473151, 260.255509)"><g><path d="M 10.734375 0 L 6.578125 0 L 6.578125 -11.671875 C 6.578125 -12.140625 6.335938 -12.375 5.859375 -12.375 L 0.71875 -12.375 L 0.71875 -16.734375 L 7.78125 -16.734375 C 8.644531 -16.734375 9.351562 -16.457031 9.90625 -15.90625 C 10.457031 -15.351562 10.734375 -14.640625 10.734375 -13.765625 Z M 4.8125 0 L 0.734375 0 L 0.734375 -10.375 L 4.8125 -10.375 Z M 4.8125 0 "/></g></g></g><g fill="#303144" fill-opacity="1"><g transform="translate(85.924332, 260.255509)"><g><path d="M 10 -6.046875 C 10 -2.015625 8.066406 0 4.203125 0 L 2.4375 0 L 2.4375 -4.375 L 3.625 -4.375 C 4.53125 -4.375 5.148438 -4.664062 5.484375 -5.25 C 5.722656 -5.65625 5.84375 -6.375 5.84375 -7.40625 L 5.84375 -11.671875 C 5.84375 -12.140625 5.601562 -12.375 5.125 -12.375 L 0.71875 -12.375 L 0.71875 -18.8125 L 4.828125 -18.8125 L 4.828125 -16.734375 L 7.90625 -16.734375 C 9.300781 -16.734375 10 -16.0625 10 -14.71875 Z M 10 -6.046875 "/></g></g></g><g fill="#303144" fill-opacity="1"><g transform="translate(96.640376, 260.255509)"><g><path d="M 0.8125 0 L 0.8125 -4.375 L 5.578125 -4.375 L 2.90625 -9.78125 C 1.332031 -12.96875 0.4375 -15.285156 0.21875 -16.734375 L 4.5625 -16.734375 C 5.132812 -14.398438 5.941406 -12.332031 6.984375 -10.53125 C 7.140625 -10.632812 7.238281 -10.828125 7.28125 -11.109375 C 7.3125 -11.285156 7.328125 -11.5 7.328125 -11.75 L 7.328125 -16.734375 L 11.4375 -16.734375 L 11.4375 -11.0625 C 11.4375 -10.207031 11.175781 -9.390625 10.65625 -8.609375 C 10.144531 -7.847656 9.507812 -7.265625 8.75 -6.859375 C 10.53125 -3.316406 11.425781 -1.03125 11.4375 0 Z M 0.8125 0 "/></g></g></g><g fill="#303144" fill-opacity="1"><g transform="translate(108.798421, 260.255509)"><g><path d="M 10.734375 0 L 6.578125 0 L 6.578125 -11.671875 C 6.578125 -12.140625 6.335938 -12.375 5.859375 -12.375 L 0.71875 -12.375 L 0.71875 -16.734375 L 7.78125 -16.734375 C 8.644531 -16.734375 9.351562 -16.457031 9.90625 -15.90625 C 10.457031 -15.351562 10.734375 -14.640625 10.734375 -13.765625 Z M 4.8125 0 L 0.734375 0 L 0.734375 -10.375 L 4.8125 -10.375 Z M 4.8125 0 "/></g></g></g><g fill="#303144" fill-opacity="1"><g transform="translate(120.249603, 260.255509)"><g><path d="M 10.734375 0 L 6.578125 0 L 6.578125 -11.671875 C 6.578125 -12.140625 6.335938 -12.375 5.859375 -12.375 L 0.71875 -12.375 L 0.71875 -16.734375 L 7.78125 -16.734375 C 8.644531 -16.734375 9.351562 -16.457031 9.90625 -15.90625 C 10.457031 -15.351562 10.734375 -14.640625 10.734375 -13.765625 Z M 4.8125 0 L 0.734375 0 L 0.734375 -10.375 L 4.8125 -10.375 Z M 4.8125 0 "/></g></g></g><g fill="#303144" fill-opacity="1"><g transform="translate(131.700785, 260.255509)"><g><path d="M 4.8125 0 L 0.71875 0 L 0.71875 -16.734375 L 4.8125 -16.734375 Z M 4.8125 0 "/></g></g></g><g fill="#303144" fill-opacity="1"><g transform="translate(137.228454, 260.255509)"><g/></g></g><g fill="#303144" fill-opacity="1"><g transform="translate(143.632634, 260.255509)"><g><path d="M 10.421875 -13.765625 C 10.421875 -12.660156 10.1875 -11.707031 9.71875 -10.90625 C 9.363281 -10.320312 8.671875 -9.539062 7.640625 -8.5625 L 4.78125 -5.875 L 4.78125 2.375 L 0.71875 2.375 L 0.71875 -16.734375 L 4.796875 -16.734375 L 4.796875 -10.984375 L 5.46875 -11.640625 C 6.0625 -12.203125 6.359375 -13 6.359375 -14.03125 L 6.359375 -16.734375 L 10.421875 -16.734375 Z M 10.421875 -13.765625 "/></g></g></g><g fill="#303144" fill-opacity="1"><g transform="translate(154.631423, 260.255509)"><g><path d="M 4.8125 0 L 0.71875 0 L 0.71875 -16.734375 L 4.8125 -16.734375 Z M 4.8125 0 "/></g></g></g><g fill="#303144" fill-opacity="1"><g transform="translate(160.159092, 260.255509)"><g><path d="M 10 -6.046875 C 10 -2.015625 8.066406 0 4.203125 0 L 2.4375 0 L 2.4375 -4.375 L 3.625 -4.375 C 4.53125 -4.375 5.148438 -4.664062 5.484375 -5.25 C 5.722656 -5.65625 5.84375 -6.375 5.84375 -7.40625 L 5.84375 -11.671875 C 5.84375 -12.140625 5.601562 -12.375 5.125 -12.375 L 0.71875 -12.375 L 0.71875 -18.8125 L 4.828125 -18.8125 L 4.828125 -16.734375 L 7.90625 -16.734375 C 9.300781 -16.734375 10 -16.0625 10 -14.71875 Z M 10 -6.046875 "/></g></g></g><g fill="#303144" fill-opacity="1"><g transform="translate(170.875136, 260.255509)"><g><path d="M 4.75 -9.3125 L 0.6875 -9.3125 L 0.6875 -16.734375 L 4.75 -16.734375 Z M 4.75 -9.3125 "/></g></g></g><g fill="#303144" fill-opacity="1"><g transform="translate(176.346256, 260.255509)"><g><path d="M 10.90625 0 L 6.8125 0 L 6.8125 -11.578125 C 6.8125 -12.109375 6.570312 -12.375 6.09375 -12.375 L 5.59375 -12.375 C 5.113281 -12.375 4.875 -12.109375 4.875 -11.578125 L 4.875 0 L 0.71875 0 L 0.71875 -13.8125 C 0.71875 -14.851562 0.894531 -15.582031 1.25 -16 C 1.644531 -16.488281 2.347656 -16.734375 3.359375 -16.734375 L 8.09375 -16.734375 C 9.96875 -16.734375 10.90625 -15.757812 10.90625 -13.8125 Z M 10.90625 0 "/></g></g></g><g fill="#303144" fill-opacity="1"><g transform="translate(187.981223, 260.255509)"><g><path d="M 10.734375 0 L 6.578125 0 L 6.578125 -11.671875 C 6.578125 -12.140625 6.335938 -12.375 5.859375 -12.375 L 0.71875 -12.375 L 0.71875 -16.734375 L 7.78125 -16.734375 C 8.644531 -16.734375 9.351562 -16.457031 9.90625 -15.90625 C 10.457031 -15.351562 10.734375 -14.640625 10.734375 -13.765625 Z M 4.8125 0 L 0.734375 0 L 0.734375 -10.375 L 4.8125 -10.375 Z M 4.8125 0 "/></g></g></g><g fill="#303144" fill-opacity="1"><g transform="translate(199.432404, 260.255509)"><g/></g></g><g fill="#303144" fill-opacity="1"><g transform="translate(205.836584, 260.255509)"><g><path d="M 4.390625 0 C 4.390625 1.019531 4.128906 1.878906 3.609375 2.578125 C 3.035156 3.347656 2.25 3.734375 1.25 3.734375 L 1.25 1.390625 C 1.78125 1.390625 2.046875 0.925781 2.046875 0 L 0.578125 0 L 0.578125 -4.234375 L 4.390625 -4.234375 Z M 4.390625 0 "/></g></g></g><g fill="#303144" fill-opacity="1"><g transform="translate(210.756351, 260.255509)"><g><path d="M 11.578125 0 L 7.5 0 L 7.5 -11.578125 C 7.5 -12.109375 7.253906 -12.375 6.765625 -12.375 L 6.21875 -12.375 C 5.726562 -12.375 5.484375 -12.109375 5.484375 -11.578125 L 5.484375 -2 C 5.484375 -0.664062 4.921875 0 3.796875 0 L 0.28125 0 L 0.28125 -4.375 L 0.984375 -4.375 C 1.222656 -4.375 1.34375 -4.472656 1.34375 -4.671875 L 1.34375 -13.53125 C 1.34375 -14.664062 1.5625 -15.484375 2 -15.984375 C 2.445312 -16.484375 3.234375 -16.734375 4.359375 -16.734375 L 8.765625 -16.734375 C 10.640625 -16.734375 11.578125 -15.664062 11.578125 -13.53125 Z M 11.578125 0 "/></g></g></g><g fill="#303144" fill-opacity="1"><g transform="translate(223.069905, 260.255509)"><g><path d="M 4.75 -9.3125 L 0.6875 -9.3125 L 0.6875 -16.734375 L 4.75 -16.734375 Z M 4.75 -9.3125 "/></g></g></g><g fill="#303144" fill-opacity="1"><g transform="translate(228.541026, 260.255509)"><g><path d="M 10.90625 0 L 6.8125 0 L 6.8125 -11.578125 C 6.8125 -12.109375 6.570312 -12.375 6.09375 -12.375 L 5.59375 -12.375 C 5.113281 -12.375 4.875 -12.109375 4.875 -11.578125 L 4.875 0 L 0.71875 0 L 0.71875 -13.8125 C 0.71875 -14.851562 0.894531 -15.582031 1.25 -16 C 1.644531 -16.488281 2.347656 -16.734375 3.359375 -16.734375 L 8.09375 -16.734375 C 9.96875 -16.734375 10.90625 -15.757812 10.90625 -13.8125 Z M 10.90625 0 "/></g></g></g><g fill="#303144" fill-opacity="1"><g transform="translate(240.175992, 260.255509)"><g><path d="M 8.96875 0 L 4.828125 0 L 4.828125 -11.671875 C 4.828125 -12.140625 4.582031 -12.375 4.09375 -12.375 L 0.4375 -12.375 L 0.4375 -16.734375 L 6.015625 -16.734375 C 6.878906 -16.734375 7.585938 -16.457031 8.140625 -15.90625 C 8.691406 -15.351562 8.96875 -14.640625 8.96875 -13.765625 Z M 8.96875 0 "/></g></g></g><g fill="#303144" fill-opacity="1"><g transform="translate(249.860016, 260.255509)"><g><path d="M 6.28125 -12.375 L 6.21875 -12.375 C 5.570312 -12.375 5.25 -11.90625 5.25 -10.96875 L 5.25 0 L 1.1875 0 L 1.1875 -10.15625 C 1.1875 -11.363281 1.570312 -12.101562 2.34375 -12.375 L 0.578125 -12.375 L 0.578125 -16.734375 L 6.28125 -16.734375 Z M 6.28125 -12.375 "/></g></g></g><g fill="#303144" fill-opacity="1"><g transform="translate(256.716588, 260.255509)"><g><path d="M 7.578125 0 C 7.453125 -0.65625 7.179688 -1.523438 6.765625 -2.609375 C 6.359375 -3.691406 5.804688 -4.992188 5.109375 -6.515625 C 5.023438 -6.429688 4.960938 -6.363281 4.921875 -6.3125 C 4.890625 -6.269531 4.867188 -6.242188 4.859375 -6.234375 C 4.847656 -6.191406 4.835938 -6.109375 4.828125 -5.984375 C 4.828125 -5.859375 4.828125 -5.679688 4.828125 -5.453125 L 4.828125 0 L 0.75 0 L 0.75 -5 C 0.75 -7.65625 1.5625 -9.375 3.1875 -10.15625 C 1.625 -13.226562 0.753906 -15.421875 0.578125 -16.734375 L 4.828125 -16.734375 C 5.035156 -15.796875 5.34375 -14.800781 5.75 -13.75 C 6.164062 -12.707031 6.6875 -11.597656 7.3125 -10.421875 C 7.539062 -10.585938 7.65625 -10.9375 7.65625 -11.46875 L 7.65625 -16.734375 L 11.796875 -16.734375 L 11.796875 -11.0625 C 11.796875 -10.21875 11.535156 -9.394531 11.015625 -8.59375 C 10.492188 -7.800781 9.851562 -7.195312 9.09375 -6.78125 C 10.851562 -3.28125 11.753906 -1.019531 11.796875 0 Z M 7.578125 0 "/></g></g></g><g fill="#303144" fill-opacity="1"><g transform="translate(269.086691, 260.255509)"><g><path d="M 10.734375 0 L 6.578125 0 L 6.578125 -11.671875 C 6.578125 -12.140625 6.335938 -12.375 5.859375 -12.375 L 0.71875 -12.375 L 0.71875 -16.734375 L 7.78125 -16.734375 C 8.644531 -16.734375 9.351562 -16.457031 9.90625 -15.90625 C 10.457031 -15.351562 10.734375 -14.640625 10.734375 -13.765625 Z M 4.8125 0 L 0.734375 0 L 0.734375 -10.375 L 4.8125 -10.375 Z M 4.8125 0 "/></g></g></g><g fill="#cf4545" fill-opacity="1"><g transform="translate(66.447313, 166.84727)"><g><path d="M 8.65625 -16.984375 L 1.265625 -16.984375 L 1.265625 -30.515625 L 8.65625 -30.515625 Z M 8.65625 -16.984375 "/></g></g></g><g fill="#cf4545" fill-opacity="1"><g transform="translate(76.423157, 166.84727)"><g><path d="M 8.5 -21.859375 L 9.671875 -21.859375 C 10.515625 -21.859375 10.9375 -22.316406 10.9375 -23.234375 L 10.9375 -30.515625 L 17.8125 -30.515625 L 17.8125 -21.96875 C 17.8125 -18.40625 16.273438 -16.625 13.203125 -16.625 L 8.5 -16.625 L 8.5 -9.359375 C 8.5 -8.429688 8.890625 -7.96875 9.671875 -7.96875 L 19.078125 -7.96875 C 19.835938 -7.96875 20.21875 -8.429688 20.21875 -9.359375 L 20.21875 -30.515625 L 27.421875 -30.515625 L 27.421875 -6.9375 C 27.421875 -4.84375 26.882812 -3.175781 25.8125 -1.9375 C 24.675781 -0.644531 23.066406 0 20.984375 0 L 7.765625 0 C 3.460938 0 1.3125 -2.3125 1.3125 -6.9375 L 1.3125 -30.515625 L 8.5 -30.515625 Z M 8.5 -21.859375 "/></g></g></g><g fill="#cf4545" fill-opacity="1"><g transform="translate(105.164918, 166.84727)"><g><path d="M 13.8125 0 C 13.59375 -1.195312 13.109375 -2.78125 12.359375 -4.75 C 11.609375 -6.71875 10.59375 -9.097656 9.3125 -11.890625 C 9.164062 -11.734375 9.054688 -11.609375 8.984375 -11.515625 C 8.921875 -11.429688 8.882812 -11.382812 8.875 -11.375 C 8.851562 -11.300781 8.835938 -11.144531 8.828125 -10.90625 C 8.816406 -10.675781 8.8125 -10.359375 8.8125 -9.953125 L 8.8125 0 L 1.359375 0 L 1.359375 -9.125 C 1.359375 -13.957031 2.847656 -17.085938 5.828125 -18.515625 C 2.972656 -24.109375 1.382812 -28.109375 1.0625 -30.515625 L 8.8125 -30.515625 C 9.195312 -28.796875 9.757812 -26.984375 10.5 -25.078125 C 11.25 -23.171875 12.191406 -21.144531 13.328125 -19 C 13.753906 -19.3125 13.96875 -19.945312 13.96875 -20.90625 L 13.96875 -30.515625 L 21.5 -30.515625 L 21.5 -20.1875 C 21.5 -18.632812 21.023438 -17.128906 20.078125 -15.671875 C 19.140625 -14.234375 17.972656 -13.132812 16.578125 -12.375 C 19.785156 -5.976562 21.425781 -1.851562 21.5 0 Z M 13.8125 0 "/></g></g></g><g fill="#cf4545" fill-opacity="1"><g transform="translate(127.720113, 166.84727)"><g><path d="M 16.34375 0 L 8.796875 0 L 8.796875 -21.296875 C 8.796875 -22.140625 8.351562 -22.5625 7.46875 -22.5625 L 0.796875 -22.5625 L 0.796875 -30.515625 L 10.953125 -30.515625 C 12.535156 -30.515625 13.832031 -30.007812 14.84375 -29 C 15.84375 -28 16.34375 -26.703125 16.34375 -25.109375 Z M 16.34375 0 "/></g></g></g><g fill="#cf4545" fill-opacity="1"><g transform="translate(145.37761, 166.84727)"><g/></g></g><g fill="#cf4545" fill-opacity="1"><g transform="translate(157.054759, 166.84727)"><g><path d="M 18.21875 -11.03125 C 18.21875 -3.675781 14.695312 0 7.65625 0 L 4.4375 0 L 4.4375 -7.96875 L 6.59375 -7.96875 C 8.257812 -7.96875 9.394531 -8.5 10 -9.5625 C 10.425781 -10.320312 10.640625 -11.640625 10.640625 -13.515625 L 10.640625 -21.296875 C 10.640625 -22.140625 10.210938 -22.5625 9.359375 -22.5625 L 1.3125 -22.5625 L 1.3125 -34.3125 L 8.796875 -34.3125 L 8.796875 -30.515625 L 14.40625 -30.515625 C 16.945312 -30.515625 18.21875 -29.289062 18.21875 -26.84375 Z M 18.21875 -11.03125 "/></g></g></g><g fill="#cf4545" fill-opacity="1"><g transform="translate(176.593998, 166.84727)"><g><path d="M 8.65625 -16.984375 L 1.265625 -16.984375 L 1.265625 -30.515625 L 8.65625 -30.515625 Z M 8.65625 -16.984375 "/></g></g></g><g fill="#cf4545" fill-opacity="1"><g transform="translate(186.569842, 166.84727)"><g><path d="M 19.90625 0 L 12.421875 0 L 12.421875 -21.109375 C 12.421875 -22.078125 11.984375 -22.5625 11.109375 -22.5625 L 10.203125 -22.5625 C 9.328125 -22.5625 8.890625 -22.078125 8.890625 -21.109375 L 8.890625 0 L 1.3125 0 L 1.3125 -25.1875 C 1.3125 -27.09375 1.628906 -28.425781 2.265625 -29.1875 C 2.984375 -30.070312 4.273438 -30.515625 6.140625 -30.515625 L 14.75 -30.515625 C 18.1875 -30.515625 19.90625 -28.738281 19.90625 -25.1875 Z M 19.90625 0 "/></g></g></g><g fill="#cf4545" fill-opacity="1"><g transform="translate(207.784614, 166.84727)"><g/></g></g><g fill="#cf4545" fill-opacity="1"><g transform="translate(219.461763, 166.84727)"><g><path d="M 8.765625 4.375 L 1.3125 4.375 L 1.3125 -30.515625 L 8.765625 -30.515625 Z M 8.765625 4.375 "/></g></g></g><g fill="#cf4545" fill-opacity="1"><g transform="translate(229.540716, 166.84727)"><g><path d="M 8.65625 -16.984375 L 1.265625 -16.984375 L 1.265625 -30.515625 L 8.65625 -30.515625 Z M 8.65625 -16.984375 "/></g></g></g><g fill="#cf4545" fill-opacity="1"><g transform="translate(239.51656, 166.84727)"><g><path d="M 1.46875 0 L 1.46875 -7.96875 L 10.1875 -7.984375 L 5.3125 -17.84375 C 2.4375 -23.644531 0.800781 -27.867188 0.40625 -30.515625 L 8.328125 -30.515625 C 9.378906 -26.253906 10.847656 -22.484375 12.734375 -19.203125 C 13.023438 -19.390625 13.207031 -19.742188 13.28125 -20.265625 C 13.332031 -20.585938 13.359375 -20.972656 13.359375 -21.421875 L 13.359375 -30.515625 L 20.859375 -30.515625 L 20.859375 -20.1875 C 20.859375 -18.625 20.382812 -17.128906 19.4375 -15.703125 C 18.507812 -14.304688 17.347656 -13.238281 15.953125 -12.5 C 19.203125 -6.039062 20.835938 -1.875 20.859375 0 Z M 1.46875 0 "/></g></g></g><g fill="#cf4545" fill-opacity="1"><g transform="translate(261.685089, 166.84727)"><g><path d="M 19.765625 -9.4375 C 19.765625 -6.320312 19.257812 -4.023438 18.25 -2.546875 C 17.007812 -0.796875 14.90625 0.078125 11.9375 0.078125 C 11.40625 0.078125 10.847656 0.0507812 10.265625 0 L 10.265625 -7.96875 C 11.566406 -7.96875 12.21875 -8.929688 12.21875 -10.859375 L 12.21875 -21.296875 C 12.21875 -22.140625 11.78125 -22.5625 10.90625 -22.5625 L 1.3125 -22.5625 L 1.3125 -30.515625 L 15.953125 -30.515625 C 18.492188 -30.515625 19.765625 -29.289062 19.765625 -26.84375 Z M 8.8125 4.40625 L 1.359375 4.40625 L 1.359375 -19.203125 L 8.8125 -19.203125 Z M 8.8125 4.40625 "/></g></g></g></svg>