<?xml version="1.0" encoding="UTF-8" standalone="no"?><svg xmlns="http://www.w3.org/2000/svg" xmlns:xlink="http://www.w3.org/1999/xlink" contentScriptType="text/ecmascript" fill="#000000" width="1855" zoomAndPan="magnify" contentStyleType="text/css" viewBox="72.7 502.5 1854.6 995.1" height="995" preserveAspectRatio="xMidYMid meet" version="1"><g fill="#e48951" id="change1_1"><path d="M998.8,875.5c192.6,0,396.1,45.2,431.3,129.6l366.4-144.8L998.8,553.5L268.6,834.3l0,0.1l-68.4,26.3l89.9,37.5 l0,0l13.2,5.5v-0.3l10.9,4.3l30.4,12l222.1,87.4c16.8-43.7,76.9-72.5,128.6-89.7C776.5,890.4,884.3,875.5,998.8,875.5z"/><path d="M1927.3,859.6L998.8,502.5L256.9,787.9l-26.5,10.3L72.7,858.7l241.5,100.9v23.8c-5.3,2.4-10.2,6-14.4,10.6 c-7.5,8.2-12.7,19.4-14.4,32.2c-0.4,2.9-0.6,5.8-0.6,8.9c0,3.1,0.2,6.1,0.6,9.1c1.4,10,4.9,19,10.1,26.4c4,5.8,9.1,10.5,14.7,13.9 l-37.1,340.4c-5.6,38.4,15,72.7,56.2,72.7c41.2,0,61.8-34.4,56.2-72.7l-37.1-340.4c5.7-3.3,10.7-8.1,14.7-13.9 c5.2-7.5,8.8-16.8,10.1-27c0.4-2.8,0.5-5.6,0.5-8.5c0-2.8-0.2-5.5-0.5-8.1c-1.6-13-6.8-24.4-14.4-32.8c-4.2-4.6-9-8.2-14.4-10.6 v-12.7l240.9,94.8v80.1v190.2c1.9-0.5,3.9-0.9,5.9-1.4c3.7-0.8,7.6-1.6,11.7-2.3c21.5-3.7,48.6-5.5,81-5.5 c87.6,0,208.8,14.8,275.8,33.7c25.4,7.2,52.2,7.2,77.6,0c67-18.9,188.2-33.7,275.8-33.7c32.4,0,59.5,1.9,81.1,5.5 c4.1,0.7,8,1.5,11.7,2.3c2,0.4,3.9,0.9,5.8,1.4v-190.2v-82.3L1927.3,859.6z M577.1,1036.7l-440.7-177l99.8-38.3l26.5-10.3 l736-283.1l863.2,332l-441.7,174.6l-7.6-18.3c-6.3-15.1-32.8-53.4-143.4-83.9c-76.3-21-172.3-32.6-270.4-32.6 c-112.8,0-218.8,14.6-298.4,41.1c-89.5,29.8-110.9,63.5-115.9,76.6L577.1,1036.7z"/></g></svg>