<svg xmlns="http://www.w3.org/2000/svg" xmlns:xlink="http://www.w3.org/1999/xlink" width="1402" zoomAndPan="magnify" viewBox="0 0 1051.5 587.249981" height="783" preserveAspectRatio="xMidYMid meet" version="1.0"><defs><clipPath id="2e16f6e1ef"><path d="M 0.421875 23.671875 L 1050 23.671875 L 1050 586.234375 L 0.421875 586.234375 Z M 0.421875 23.671875 " clip-rule="nonzero"/></clipPath><clipPath id="453686c629"><path d="M 596.320312 23.671875 C 607.832031 23.671875 619.414062 23.671875 630.902344 23.671875 C 722.5 33.066406 779.746094 64.34375 805.820312 115.523438 C 958.53125 108.695312 1060.542969 205.46875 1001.898438 300.445312 C 1024.398438 320.402344 1043.171875 342.726562 1049.949219 372.691406 C 1049.949219 381.273438 1049.949219 389.835938 1049.949219 398.417969 C 1029.746094 474.679688 942.8125 526.210938 800.085938 512.335938 C 763.363281 551.492188 698.019531 589.191406 596.339844 585.820312 C 543.785156 583.25 507.222656 568.359375 475.210938 550.273438 C 441.492188 565.308594 404.976562 577.109375 352.214844 577.238281 C 230.148438 577.460938 148.492188 519.53125 146.511719 440.074219 C 68.039062 421.484375 14.890625 386.785156 0.421875 327.414062 C 0.421875 318.832031 0.421875 310.230469 0.421875 301.683594 C 16.394531 242.847656 66.652344 205.894531 150.335938 190.226562 C 145.304688 90.976562 312.695312 28.960938 450.207031 72.683594 C 482.945312 51.0625 529.269531 27.480469 596.320312 23.671875 Z M 596.320312 23.671875 " clip-rule="nonzero"/></clipPath><clipPath id="28985c26e6"><path d="M 0.421875 0 L 1050 0 L 1050 562.5625 L 0.421875 562.5625 Z M 0.421875 0 " clip-rule="nonzero"/></clipPath><clipPath id="0c56c81115"><path d="M 596.320312 0 C 607.832031 0 619.414062 0 630.902344 0 C 722.5 9.394531 779.746094 40.671875 805.820312 91.851562 C 958.53125 85.027344 1060.542969 181.796875 1001.898438 276.773438 C 1024.398438 296.734375 1043.171875 319.058594 1049.949219 349.019531 C 1049.949219 357.601562 1049.949219 366.167969 1049.949219 374.75 C 1029.746094 451.007812 942.8125 502.539062 800.085938 488.667969 C 763.363281 527.820312 698.019531 565.519531 596.339844 562.148438 C 543.785156 559.578125 507.222656 544.691406 475.210938 526.601562 C 441.492188 541.636719 404.976562 553.4375 352.214844 553.570312 C 230.148438 553.789062 148.492188 495.863281 146.511719 416.402344 C 68.039062 397.8125 14.890625 363.113281 0.421875 303.742188 C 0.421875 295.160156 0.421875 286.558594 0.421875 278.015625 C 16.394531 219.179688 66.652344 182.222656 150.335938 166.554688 C 145.304688 67.308594 312.695312 5.289062 450.207031 49.015625 C 482.945312 27.394531 529.269531 3.808594 596.320312 0 Z M 596.320312 0 " clip-rule="nonzero"/></clipPath></defs><g clip-path="url(#2e16f6e1ef)"><g clip-path="url(#453686c629)"><path fill="#cf4545" d="M 0.421875 23.671875 L 1050.832031 23.671875 L 1050.832031 586.234375 L 0.421875 586.234375 Z M 0.421875 23.671875 " fill-opacity="1" fill-rule="nonzero"/></g></g><g clip-path="url(#28985c26e6)"><g clip-path="url(#0c56c81115)"><path fill="#ffcf7e" d="M 0.421875 0 L 1050.832031 0 L 1050.832031 562.5625 L 0.421875 562.5625 Z M 0.421875 0 " fill-opacity="1" fill-rule="nonzero"/></g></g></svg>