<svg xmlns="http://www.w3.org/2000/svg" xmlns:xlink="http://www.w3.org/1999/xlink" width="721" zoomAndPan="magnify" viewBox="0 0 540.75 144.749998" height="193" preserveAspectRatio="xMidYMid meet" version="1.0"><defs><g/><clipPath id="8cf8513286"><path d="M 480 31 L 534 31 L 534 88 L 480 88 Z M 480 31 " clip-rule="nonzero"/></clipPath><clipPath id="5c7d50f4a4"><path d="M 486.929688 22.710938 L 540.328125 40.082031 L 523.886719 90.632812 L 470.488281 73.265625 Z M 486.929688 22.710938 " clip-rule="nonzero"/></clipPath><clipPath id="44e956c7c2"><path d="M 486.929688 22.710938 L 540.328125 40.082031 L 523.886719 90.632812 L 470.488281 73.265625 Z M 486.929688 22.710938 " clip-rule="nonzero"/></clipPath><clipPath id="ef3ef17b3b"><path d="M 19 20 L 90 20 L 90 90 L 19 90 Z M 19 20 " clip-rule="nonzero"/></clipPath><clipPath id="cc6b693904"><path d="M 9.355469 30.523438 L 78.957031 9.796875 L 99.6875 79.402344 L 30.082031 100.128906 Z M 9.355469 30.523438 " clip-rule="nonzero"/></clipPath><clipPath id="8d86e960ac"><path d="M 9.355469 30.523438 L 78.957031 9.796875 L 99.6875 79.402344 L 30.082031 100.128906 Z M 9.355469 30.523438 " clip-rule="nonzero"/></clipPath><clipPath id="f9adae1c1b"><path d="M 4 36 L 28 36 L 28 59 L 4 59 Z M 4 36 " clip-rule="nonzero"/></clipPath><clipPath id="058122243d"><path d="M 0.34375 42.386719 L 20.085938 30.183594 L 31.894531 49.292969 L 12.148438 61.492188 Z M 0.34375 42.386719 " clip-rule="nonzero"/></clipPath><clipPath id="0e6a71d539"><path d="M 0.34375 42.386719 L 20.085938 30.183594 L 31.894531 49.292969 L 12.148438 61.492188 Z M 0.34375 42.386719 " clip-rule="nonzero"/></clipPath></defs><g fill="#f8f6e9" fill-opacity="0.4"><g transform="translate(80.255181, 99.51717)"><g/></g></g><g fill="#f8f6e9" fill-opacity="1"><g transform="translate(76.372807, 95.6348)"><g/></g></g><g fill="#f8f6e9" fill-opacity="0.4"><g transform="translate(99.686464, 99.51717)"><g><path d="M 37.78125 -1.671875 C 37.78125 -0.554688 37.222656 0 36.109375 0 L 4.125 0 C 3 0 2.4375 -0.570312 2.4375 -1.71875 L 2.4375 -1.84375 L 5.453125 -50.140625 C 5.535156 -51.429688 6.148438 -52.078125 7.296875 -52.078125 L 33.03125 -52.078125 C 34.175781 -52.078125 34.789062 -51.429688 34.875 -50.140625 L 37.78125 -1.84375 Z M 25.390625 -18.359375 L 24.15625 -33.921875 C 24.09375 -34.265625 23.921875 -34.4375 23.640625 -34.4375 L 16.515625 -34.4375 C 16.085938 -34.4375 15.859375 -34.265625 15.828125 -33.921875 L 14.921875 -18.359375 L 14.921875 -18.3125 C 14.921875 -17.820312 15.191406 -17.578125 15.734375 -17.578125 L 24.578125 -17.578125 C 25.117188 -17.578125 25.390625 -17.796875 25.390625 -18.234375 Z M 25.390625 -18.359375 "/></g></g></g><g fill="#f8f6e9" fill-opacity="0.4"><g transform="translate(139.919872, 99.51717)"><g><path d="M 18.015625 -22.46875 C 18.015625 -21.300781 17.539062 -20.71875 16.59375 -20.71875 L 7.984375 -20.71875 C 6.953125 -20.71875 6.4375 -21.300781 6.4375 -22.46875 L 6.4375 -33.625 C 6.4375 -34.226562 6.132812 -34.53125 5.53125 -34.53125 L 4.84375 -34.53125 C 3.925781 -34.53125 3.425781 -35.113281 3.34375 -36.28125 L 2.4375 -50.140625 L 2.4375 -50.3125 C 2.4375 -51.488281 3 -52.078125 4.125 -52.078125 L 16.25 -52.078125 C 17.425781 -52.078125 18.015625 -51.429688 18.015625 -50.140625 Z M 18.015625 -22.46875 "/></g></g></g><g fill="#f8f6e9" fill-opacity="0.4"><g transform="translate(160.679968, 99.51717)"><g><path d="M 36.203125 -1.421875 C 36.203125 -0.472656 35.785156 0 34.953125 0 L 26.421875 0 C 25.472656 0 24.957031 -0.613281 24.875 -1.84375 L 22.640625 -33.71875 C 22.585938 -34.195312 22.273438 -34.4375 21.703125 -34.4375 L 16.859375 -34.4375 C 16.429688 -34.4375 16.203125 -34.164062 16.171875 -33.625 L 13.8125 -1.84375 C 13.726562 -0.613281 13.171875 0 12.140625 0 L 3.859375 0 C 2.910156 0 2.4375 -0.570312 2.4375 -1.71875 L 2.4375 -1.84375 L 5.53125 -50.140625 C 5.613281 -51.429688 6.226562 -52.078125 7.375 -52.078125 L 31.609375 -52.078125 C 32.753906 -52.078125 33.367188 -51.429688 33.453125 -50.140625 L 36.203125 -1.84375 Z M 36.203125 -1.421875 "/></g></g></g><g fill="#f8f6e9" fill-opacity="0.4"><g transform="translate(199.369236, 99.51717)"><g><path d="M 28.828125 -1.765625 C 28.828125 -0.585938 28.351562 0 27.40625 0 L 18.78125 0 C 17.664062 0 17.109375 -0.585938 17.109375 -1.765625 L 17.109375 -33.625 C 17.109375 -34.226562 16.796875 -34.53125 16.171875 -34.53125 L 4.375 -34.53125 C 3.175781 -34.53125 2.5625 -35.085938 2.53125 -36.203125 L 1.671875 -50.140625 L 1.671875 -50.265625 C 1.671875 -51.472656 2.226562 -52.078125 3.34375 -52.078125 L 27.0625 -52.078125 C 28.238281 -52.078125 28.828125 -51.429688 28.828125 -50.140625 Z M 28.828125 -1.765625 "/></g></g></g><g fill="#f8f6e9" fill-opacity="0.4"><g transform="translate(231.710377, 99.51717)"><g><path d="M 23.125 -50.140625 L 22.296875 -36.203125 C 22.242188 -35.085938 21.6875 -34.53125 20.625 -34.53125 L 18.1875 -34.53125 L 18.1875 -1.765625 C 18.1875 -0.585938 17.742188 0 16.859375 0 L 8.15625 0 C 7.125 0 6.609375 -0.613281 6.609375 -1.84375 L 6.609375 -34.53125 L 4.203125 -34.53125 C 3.054688 -34.53125 2.46875 -35.085938 2.4375 -36.203125 L 1.671875 -50.140625 L 1.671875 -50.265625 C 1.671875 -51.472656 2.203125 -52.078125 3.265625 -52.078125 L 21.453125 -52.078125 C 22.566406 -52.078125 23.125 -51.503906 23.125 -50.359375 Z M 23.125 -50.140625 "/></g></g></g><g fill="#f8f6e9" fill-opacity="0.4"><g transform="translate(256.502392, 99.51717)"><g><path d="M 36.59375 -50.953125 C 36.59375 -50.722656 36.578125 -50.550781 36.546875 -50.4375 L 30.578125 -15.828125 L 36.28125 -1.328125 C 36.34375 -1.160156 36.375 -1.019531 36.375 -0.90625 C 36.375 -0.300781 35.929688 0 35.046875 0 L 23.03125 0 C 22.207031 0 21.625 -0.414062 21.28125 -1.25 L 15.1875 -16.515625 L 13.078125 -1.5 C 12.941406 -0.5 12.382812 0 11.40625 0 L 2.53125 0 C 1.757812 0 1.375 -0.359375 1.375 -1.078125 C 1.375 -1.210938 1.390625 -1.328125 1.421875 -1.421875 L 7.203125 -36.03125 L 1.765625 -50.609375 C 1.648438 -50.867188 1.59375 -51.113281 1.59375 -51.34375 C 1.59375 -51.832031 1.847656 -52.078125 2.359375 -52.078125 L 14.40625 -52.078125 C 15.175781 -52.078125 15.734375 -51.617188 16.078125 -50.703125 L 22.046875 -35.390625 L 24.578125 -50.703125 C 24.722656 -51.617188 25.222656 -52.078125 26.078125 -52.078125 L 35.46875 -52.078125 C 36.21875 -52.078125 36.59375 -51.703125 36.59375 -50.953125 Z M 36.59375 -50.953125 "/></g></g></g><g fill="#f8f6e9" fill-opacity="0.4"><g transform="translate(294.548275, 99.51717)"><g/></g></g><g fill="#f8f6e9" fill-opacity="0.4"><g transform="translate(313.978712, 99.51717)"><g><path d="M 38.21875 -1.625 C 38.21875 -0.539062 37.6875 0 36.625 0 L 28.828125 0 C 27.617188 0 26.972656 -0.613281 26.890625 -1.84375 L 24.578125 -33.453125 C 24.515625 -34.109375 24.203125 -34.4375 23.640625 -34.4375 L 19.4375 -34.4375 C 18.832031 -34.4375 18.5 -34.109375 18.4375 -33.453125 L 16.859375 -1.84375 C 16.828125 -0.613281 16.210938 0 15.015625 0 L 3.6875 0 C 2.570312 0 2.015625 -0.597656 2.015625 -1.796875 L 2.015625 -1.84375 L 2.703125 -15.65625 C 2.734375 -16.9375 3.316406 -17.578125 4.453125 -17.578125 L 5.703125 -17.578125 C 6.304688 -17.578125 6.632812 -17.863281 6.6875 -18.4375 L 7.546875 -33.546875 L 7.546875 -33.671875 C 7.546875 -34.179688 7.289062 -34.4375 6.78125 -34.4375 L 5.28125 -34.4375 C 4.050781 -34.4375 3.40625 -35.109375 3.34375 -36.453125 L 2.703125 -50.140625 L 2.703125 -50.40625 C 2.703125 -51.519531 3.234375 -52.078125 4.296875 -52.078125 L 33.453125 -52.078125 C 34.597656 -52.078125 35.210938 -51.429688 35.296875 -50.140625 L 38.21875 -1.84375 Z M 38.21875 -1.625 "/></g></g></g><g fill="#f8f6e9" fill-opacity="0.4"><g transform="translate(354.683935, 99.51717)"><g><path d="M 17.203125 -1.765625 C 17.203125 -0.585938 16.769531 0 15.90625 0 L 7.203125 0 C 6.148438 0 5.625 -0.585938 5.625 -1.765625 L 5.625 -33.71875 C 5.625 -34.257812 5.421875 -34.53125 5.015625 -34.53125 L 4.546875 -34.53125 C 3.828125 -34.53125 3.425781 -35.113281 3.34375 -36.28125 L 2.4375 -50.140625 L 2.4375 -50.265625 C 2.4375 -51.472656 3 -52.078125 4.125 -52.078125 L 15.4375 -52.078125 C 16.613281 -52.078125 17.203125 -51.429688 17.203125 -50.140625 Z M 17.203125 -1.765625 "/></g></g></g><g fill="#f8f6e9" fill-opacity="0.4"><g transform="translate(374.671949, 99.51717)"><g><path d="M 18.015625 -22.46875 C 18.015625 -21.300781 17.539062 -20.71875 16.59375 -20.71875 L 7.984375 -20.71875 C 6.953125 -20.71875 6.4375 -21.300781 6.4375 -22.46875 L 6.4375 -33.625 C 6.4375 -34.226562 6.132812 -34.53125 5.53125 -34.53125 L 4.84375 -34.53125 C 3.925781 -34.53125 3.425781 -35.113281 3.34375 -36.28125 L 2.4375 -50.140625 L 2.4375 -50.3125 C 2.4375 -51.488281 3 -52.078125 4.125 -52.078125 L 16.25 -52.078125 C 17.425781 -52.078125 18.015625 -51.429688 18.015625 -50.140625 Z M 18.015625 -22.46875 "/></g></g></g><g fill="#f8f6e9" fill-opacity="0.4"><g transform="translate(395.432045, 99.51717)"><g><path d="M 24.625 -1.671875 C 24.625 -0.554688 24.066406 0 22.953125 0 L 3.34375 0 C 2.289062 0 1.765625 -0.554688 1.765625 -1.671875 L 1.765625 -1.84375 L 3.09375 -15.734375 C 3.207031 -16.960938 3.820312 -17.578125 4.9375 -17.578125 L 11.234375 -17.578125 C 11.890625 -17.578125 12.21875 -17.765625 12.21875 -18.140625 L 12.21875 -18.265625 L 10.984375 -33.71875 C 10.921875 -34.195312 10.59375 -34.4375 10 -34.4375 L 7.640625 -34.4375 C 6.523438 -34.4375 5.96875 -34.992188 5.96875 -36.109375 L 5.96875 -36.203125 L 6.953125 -50.140625 C 7.035156 -51.429688 7.675781 -52.078125 8.875 -52.078125 L 19.859375 -52.078125 C 21.003906 -52.078125 21.617188 -51.429688 21.703125 -50.140625 L 24.578125 -1.84375 C 24.609375 -1.8125 24.625 -1.753906 24.625 -1.671875 Z M 24.625 -1.671875 "/></g></g></g><g fill="#f8f6e9" fill-opacity="0.4"><g transform="translate(422.497382, 99.51717)"><g><path d="M 36.203125 -1.71875 C 36.203125 -0.570312 35.644531 0 34.53125 0 L 4.125 0 C 3 0 2.4375 -0.585938 2.4375 -1.765625 L 2.4375 -1.84375 L 3.265625 -15.53125 C 3.347656 -16.894531 3.960938 -17.578125 5.109375 -17.578125 L 21.875 -17.578125 C 22.9375 -17.578125 23.46875 -17.992188 23.46875 -18.828125 L 23.46875 -18.953125 L 22.640625 -33.546875 C 22.585938 -34.140625 22.101562 -34.4375 21.1875 -34.4375 L 17.578125 -34.4375 C 16.722656 -34.4375 16.253906 -34.023438 16.171875 -33.203125 L 15.359375 -24.40625 C 15.273438 -23.34375 14.628906 -22.8125 13.421875 -22.8125 L 5.28125 -22.8125 C 4.21875 -22.8125 3.6875 -23.359375 3.6875 -24.453125 L 3.6875 -24.578125 L 6.046875 -50.140625 C 6.160156 -51.429688 6.804688 -52.078125 7.984375 -52.078125 L 31.4375 -52.078125 C 32.582031 -52.078125 33.195312 -51.429688 33.28125 -50.140625 L 36.203125 -1.84375 Z M 36.203125 -1.71875 "/></g></g></g><g fill="#f8f6e9" fill-opacity="1"><g transform="translate(95.804089, 95.6348)"><g><path d="M 37.78125 -1.671875 C 37.78125 -0.554688 37.222656 0 36.109375 0 L 4.125 0 C 3 0 2.4375 -0.570312 2.4375 -1.71875 L 2.4375 -1.84375 L 5.453125 -50.140625 C 5.535156 -51.429688 6.148438 -52.078125 7.296875 -52.078125 L 33.03125 -52.078125 C 34.175781 -52.078125 34.789062 -51.429688 34.875 -50.140625 L 37.78125 -1.84375 Z M 25.390625 -18.359375 L 24.15625 -33.921875 C 24.09375 -34.265625 23.921875 -34.4375 23.640625 -34.4375 L 16.515625 -34.4375 C 16.085938 -34.4375 15.859375 -34.265625 15.828125 -33.921875 L 14.921875 -18.359375 L 14.921875 -18.3125 C 14.921875 -17.820312 15.191406 -17.578125 15.734375 -17.578125 L 24.578125 -17.578125 C 25.117188 -17.578125 25.390625 -17.796875 25.390625 -18.234375 Z M 25.390625 -18.359375 "/></g></g></g><g fill="#f8f6e9" fill-opacity="1"><g transform="translate(136.037498, 95.6348)"><g><path d="M 18.015625 -22.46875 C 18.015625 -21.300781 17.539062 -20.71875 16.59375 -20.71875 L 7.984375 -20.71875 C 6.953125 -20.71875 6.4375 -21.300781 6.4375 -22.46875 L 6.4375 -33.625 C 6.4375 -34.226562 6.132812 -34.53125 5.53125 -34.53125 L 4.84375 -34.53125 C 3.925781 -34.53125 3.425781 -35.113281 3.34375 -36.28125 L 2.4375 -50.140625 L 2.4375 -50.3125 C 2.4375 -51.488281 3 -52.078125 4.125 -52.078125 L 16.25 -52.078125 C 17.425781 -52.078125 18.015625 -51.429688 18.015625 -50.140625 Z M 18.015625 -22.46875 "/></g></g></g><g fill="#f8f6e9" fill-opacity="1"><g transform="translate(156.797593, 95.6348)"><g><path d="M 36.203125 -1.421875 C 36.203125 -0.472656 35.785156 0 34.953125 0 L 26.421875 0 C 25.472656 0 24.957031 -0.613281 24.875 -1.84375 L 22.640625 -33.71875 C 22.585938 -34.195312 22.273438 -34.4375 21.703125 -34.4375 L 16.859375 -34.4375 C 16.429688 -34.4375 16.203125 -34.164062 16.171875 -33.625 L 13.8125 -1.84375 C 13.726562 -0.613281 13.171875 0 12.140625 0 L 3.859375 0 C 2.910156 0 2.4375 -0.570312 2.4375 -1.71875 L 2.4375 -1.84375 L 5.53125 -50.140625 C 5.613281 -51.429688 6.226562 -52.078125 7.375 -52.078125 L 31.609375 -52.078125 C 32.753906 -52.078125 33.367188 -51.429688 33.453125 -50.140625 L 36.203125 -1.84375 Z M 36.203125 -1.421875 "/></g></g></g><g fill="#f8f6e9" fill-opacity="1"><g transform="translate(195.486862, 95.6348)"><g><path d="M 28.828125 -1.765625 C 28.828125 -0.585938 28.351562 0 27.40625 0 L 18.78125 0 C 17.664062 0 17.109375 -0.585938 17.109375 -1.765625 L 17.109375 -33.625 C 17.109375 -34.226562 16.796875 -34.53125 16.171875 -34.53125 L 4.375 -34.53125 C 3.175781 -34.53125 2.5625 -35.085938 2.53125 -36.203125 L 1.671875 -50.140625 L 1.671875 -50.265625 C 1.671875 -51.472656 2.226562 -52.078125 3.34375 -52.078125 L 27.0625 -52.078125 C 28.238281 -52.078125 28.828125 -51.429688 28.828125 -50.140625 Z M 28.828125 -1.765625 "/></g></g></g><g fill="#f8f6e9" fill-opacity="1"><g transform="translate(227.828002, 95.6348)"><g><path d="M 23.125 -50.140625 L 22.296875 -36.203125 C 22.242188 -35.085938 21.6875 -34.53125 20.625 -34.53125 L 18.1875 -34.53125 L 18.1875 -1.765625 C 18.1875 -0.585938 17.742188 0 16.859375 0 L 8.15625 0 C 7.125 0 6.609375 -0.613281 6.609375 -1.84375 L 6.609375 -34.53125 L 4.203125 -34.53125 C 3.054688 -34.53125 2.46875 -35.085938 2.4375 -36.203125 L 1.671875 -50.140625 L 1.671875 -50.265625 C 1.671875 -51.472656 2.203125 -52.078125 3.265625 -52.078125 L 21.453125 -52.078125 C 22.566406 -52.078125 23.125 -51.503906 23.125 -50.359375 Z M 23.125 -50.140625 "/></g></g></g><g fill="#f8f6e9" fill-opacity="1"><g transform="translate(252.620017, 95.6348)"><g><path d="M 36.59375 -50.953125 C 36.59375 -50.722656 36.578125 -50.550781 36.546875 -50.4375 L 30.578125 -15.828125 L 36.28125 -1.328125 C 36.34375 -1.160156 36.375 -1.019531 36.375 -0.90625 C 36.375 -0.300781 35.929688 0 35.046875 0 L 23.03125 0 C 22.207031 0 21.625 -0.414062 21.28125 -1.25 L 15.1875 -16.515625 L 13.078125 -1.5 C 12.941406 -0.5 12.382812 0 11.40625 0 L 2.53125 0 C 1.757812 0 1.375 -0.359375 1.375 -1.078125 C 1.375 -1.210938 1.390625 -1.328125 1.421875 -1.421875 L 7.203125 -36.03125 L 1.765625 -50.609375 C 1.648438 -50.867188 1.59375 -51.113281 1.59375 -51.34375 C 1.59375 -51.832031 1.847656 -52.078125 2.359375 -52.078125 L 14.40625 -52.078125 C 15.175781 -52.078125 15.734375 -51.617188 16.078125 -50.703125 L 22.046875 -35.390625 L 24.578125 -50.703125 C 24.722656 -51.617188 25.222656 -52.078125 26.078125 -52.078125 L 35.46875 -52.078125 C 36.21875 -52.078125 36.59375 -51.703125 36.59375 -50.953125 Z M 36.59375 -50.953125 "/></g></g></g><g fill="#f8f6e9" fill-opacity="1"><g transform="translate(290.6659, 95.6348)"><g/></g></g><g fill="#f8f6e9" fill-opacity="1"><g transform="translate(310.096337, 95.6348)"><g><path d="M 38.21875 -1.625 C 38.21875 -0.539062 37.6875 0 36.625 0 L 28.828125 0 C 27.617188 0 26.972656 -0.613281 26.890625 -1.84375 L 24.578125 -33.453125 C 24.515625 -34.109375 24.203125 -34.4375 23.640625 -34.4375 L 19.4375 -34.4375 C 18.832031 -34.4375 18.5 -34.109375 18.4375 -33.453125 L 16.859375 -1.84375 C 16.828125 -0.613281 16.210938 0 15.015625 0 L 3.6875 0 C 2.570312 0 2.015625 -0.597656 2.015625 -1.796875 L 2.015625 -1.84375 L 2.703125 -15.65625 C 2.734375 -16.9375 3.316406 -17.578125 4.453125 -17.578125 L 5.703125 -17.578125 C 6.304688 -17.578125 6.632812 -17.863281 6.6875 -18.4375 L 7.546875 -33.546875 L 7.546875 -33.671875 C 7.546875 -34.179688 7.289062 -34.4375 6.78125 -34.4375 L 5.28125 -34.4375 C 4.050781 -34.4375 3.40625 -35.109375 3.34375 -36.453125 L 2.703125 -50.140625 L 2.703125 -50.40625 C 2.703125 -51.519531 3.234375 -52.078125 4.296875 -52.078125 L 33.453125 -52.078125 C 34.597656 -52.078125 35.210938 -51.429688 35.296875 -50.140625 L 38.21875 -1.84375 Z M 38.21875 -1.625 "/></g></g></g><g fill="#f8f6e9" fill-opacity="1"><g transform="translate(350.801561, 95.6348)"><g><path d="M 17.203125 -1.765625 C 17.203125 -0.585938 16.769531 0 15.90625 0 L 7.203125 0 C 6.148438 0 5.625 -0.585938 5.625 -1.765625 L 5.625 -33.71875 C 5.625 -34.257812 5.421875 -34.53125 5.015625 -34.53125 L 4.546875 -34.53125 C 3.828125 -34.53125 3.425781 -35.113281 3.34375 -36.28125 L 2.4375 -50.140625 L 2.4375 -50.265625 C 2.4375 -51.472656 3 -52.078125 4.125 -52.078125 L 15.4375 -52.078125 C 16.613281 -52.078125 17.203125 -51.429688 17.203125 -50.140625 Z M 17.203125 -1.765625 "/></g></g></g><g fill="#f8f6e9" fill-opacity="1"><g transform="translate(370.789575, 95.6348)"><g><path d="M 18.015625 -22.46875 C 18.015625 -21.300781 17.539062 -20.71875 16.59375 -20.71875 L 7.984375 -20.71875 C 6.953125 -20.71875 6.4375 -21.300781 6.4375 -22.46875 L 6.4375 -33.625 C 6.4375 -34.226562 6.132812 -34.53125 5.53125 -34.53125 L 4.84375 -34.53125 C 3.925781 -34.53125 3.425781 -35.113281 3.34375 -36.28125 L 2.4375 -50.140625 L 2.4375 -50.3125 C 2.4375 -51.488281 3 -52.078125 4.125 -52.078125 L 16.25 -52.078125 C 17.425781 -52.078125 18.015625 -51.429688 18.015625 -50.140625 Z M 18.015625 -22.46875 "/></g></g></g><g fill="#f8f6e9" fill-opacity="1"><g transform="translate(391.549671, 95.6348)"><g><path d="M 24.625 -1.671875 C 24.625 -0.554688 24.066406 0 22.953125 0 L 3.34375 0 C 2.289062 0 1.765625 -0.554688 1.765625 -1.671875 L 1.765625 -1.84375 L 3.09375 -15.734375 C 3.207031 -16.960938 3.820312 -17.578125 4.9375 -17.578125 L 11.234375 -17.578125 C 11.890625 -17.578125 12.21875 -17.765625 12.21875 -18.140625 L 12.21875 -18.265625 L 10.984375 -33.71875 C 10.921875 -34.195312 10.59375 -34.4375 10 -34.4375 L 7.640625 -34.4375 C 6.523438 -34.4375 5.96875 -34.992188 5.96875 -36.109375 L 5.96875 -36.203125 L 6.953125 -50.140625 C 7.035156 -51.429688 7.675781 -52.078125 8.875 -52.078125 L 19.859375 -52.078125 C 21.003906 -52.078125 21.617188 -51.429688 21.703125 -50.140625 L 24.578125 -1.84375 C 24.609375 -1.8125 24.625 -1.753906 24.625 -1.671875 Z M 24.625 -1.671875 "/></g></g></g><g fill="#f8f6e9" fill-opacity="1"><g transform="translate(418.615008, 95.6348)"><g><path d="M 36.203125 -1.71875 C 36.203125 -0.570312 35.644531 0 34.53125 0 L 4.125 0 C 3 0 2.4375 -0.585938 2.4375 -1.765625 L 2.4375 -1.84375 L 3.265625 -15.53125 C 3.347656 -16.894531 3.960938 -17.578125 5.109375 -17.578125 L 21.875 -17.578125 C 22.9375 -17.578125 23.46875 -17.992188 23.46875 -18.828125 L 23.46875 -18.953125 L 22.640625 -33.546875 C 22.585938 -34.140625 22.101562 -34.4375 21.1875 -34.4375 L 17.578125 -34.4375 C 16.722656 -34.4375 16.253906 -34.023438 16.171875 -33.203125 L 15.359375 -24.40625 C 15.273438 -23.34375 14.628906 -22.8125 13.421875 -22.8125 L 5.28125 -22.8125 C 4.21875 -22.8125 3.6875 -23.359375 3.6875 -24.453125 L 3.6875 -24.578125 L 6.046875 -50.140625 C 6.160156 -51.429688 6.804688 -52.078125 7.984375 -52.078125 L 31.4375 -52.078125 C 32.582031 -52.078125 33.195312 -51.429688 33.28125 -50.140625 L 36.203125 -1.84375 Z M 36.203125 -1.71875 "/></g></g></g><g clip-path="url(#8cf8513286)"><g clip-path="url(#5c7d50f4a4)"><g clip-path="url(#44e956c7c2)"><path fill="#f8f6e9" d="M 513.554688 31.566406 L 516.347656 50.855469 L 533.820312 59.488281 L 516.332031 68.117188 L 513.535156 87.40625 L 499.929688 73.445312 L 480.707031 76.730469 L 489.78125 59.480469 L 480.726562 42.21875 L 499.9375 45.519531 Z M 513.554688 31.566406 " fill-opacity="1" fill-rule="nonzero"/><path fill="#f8f6e9" d="M 513.476562 31.367188 L 516.28125 50.660156 L 533.757812 59.289062 L 516.269531 67.917969 L 513.460938 87.207031 L 499.855469 73.246094 L 480.640625 76.53125 L 489.714844 59.28125 L 480.652344 42.015625 L 499.859375 45.316406 Z M 513.476562 31.367188 " fill-opacity="1" fill-rule="nonzero"/><path fill="#f8f6e9" d="M 513.476562 31.367188 L 516.28125 50.660156 L 533.757812 59.289062 L 516.269531 67.917969 L 513.460938 87.207031 L 499.855469 73.246094 L 480.640625 76.53125 L 489.714844 59.28125 L 480.652344 42.015625 L 499.859375 45.316406 Z M 513.476562 31.367188 " fill-opacity="1" fill-rule="nonzero"/><path fill="#f8f6e9" d="M 513.476562 31.367188 L 516.28125 50.660156 L 533.757812 59.289062 L 516.269531 67.917969 L 513.460938 87.207031 L 499.855469 73.246094 L 480.640625 76.53125 L 489.714844 59.28125 L 480.652344 42.015625 L 499.859375 45.316406 Z M 513.476562 31.367188 " fill-opacity="1" fill-rule="nonzero"/></g></g></g><g clip-path="url(#ef3ef17b3b)"><g clip-path="url(#cc6b693904)"><g clip-path="url(#8d86e960ac)"><path fill="#f8f6e9" d="M 50.425781 38.507812 C 50.820312 39.445312 51.292969 40.34375 51.839844 41.203125 C 52.386719 42.058594 53.003906 42.867188 53.6875 43.621094 C 54.371094 44.375 55.113281 45.066406 55.914062 45.695312 C 56.714844 46.320312 57.5625 46.878906 58.457031 47.363281 C 59.351562 47.847656 60.28125 48.253906 61.246094 48.578125 C 62.210938 48.90625 63.195312 49.148438 64.199219 49.308594 C 65.203125 49.46875 66.214844 49.542969 67.234375 49.53125 C 68.253906 49.519531 69.261719 49.421875 70.261719 49.238281 C 75.109375 48.355469 81.261719 46.882812 89.082031 44.554688 C 81.261719 46.882812 75.304688 49.019531 70.765625 50.933594 C 69.828125 51.328125 68.929688 51.796875 68.070312 52.34375 C 67.214844 52.890625 66.40625 53.507812 65.652344 54.191406 C 64.898438 54.875 64.207031 55.617188 63.578125 56.417969 C 62.953125 57.21875 62.394531 58.066406 61.910156 58.960938 C 61.425781 59.855469 61.019531 60.785156 60.695312 61.75 C 60.367188 62.714844 60.125 63.699219 59.964844 64.703125 C 59.804688 65.710938 59.730469 66.722656 59.742188 67.738281 C 59.753906 68.757812 59.851562 69.765625 60.035156 70.769531 C 60.917969 75.613281 62.386719 81.765625 64.71875 89.585938 C 62.386719 81.769531 60.253906 75.808594 58.339844 71.273438 C 57.945312 70.332031 57.476562 69.433594 56.929688 68.578125 C 56.382812 67.71875 55.765625 66.910156 55.082031 66.15625 C 54.398438 65.402344 53.65625 64.710938 52.855469 64.085938 C 52.054688 63.457031 51.207031 62.898438 50.3125 62.414062 C 49.417969 61.929688 48.488281 61.527344 47.523438 61.199219 C 46.558594 60.871094 45.574219 60.628906 44.570312 60.46875 C 43.5625 60.308594 42.550781 60.234375 41.535156 60.246094 C 40.515625 60.257812 39.507812 60.355469 38.503906 60.539062 C 33.660156 61.421875 27.503906 62.894531 19.6875 65.222656 C 27.503906 62.894531 33.460938 60.757812 38 58.847656 C 38.941406 58.453125 39.839844 57.980469 40.695312 57.433594 C 41.554688 56.886719 42.359375 56.269531 43.117188 55.585938 C 43.871094 54.902344 44.558594 54.160156 45.1875 53.359375 C 45.816406 52.558594 46.375 51.710938 46.859375 50.816406 C 47.34375 49.921875 47.746094 48.992188 48.074219 48.027344 C 48.402344 47.0625 48.644531 46.078125 48.804688 45.074219 C 48.964844 44.066406 49.039062 43.058594 49.027344 42.039062 C 49.015625 41.019531 48.917969 40.011719 48.734375 39.011719 C 47.851562 34.164062 46.378906 28.011719 44.050781 20.191406 C 46.378906 28.011719 48.515625 33.96875 50.425781 38.507812 Z M 50.425781 38.507812 " fill-opacity="1" fill-rule="nonzero"/></g></g></g><g clip-path="url(#f9adae1c1b)"><g clip-path="url(#058122243d)"><g clip-path="url(#0e6a71d539)"><path fill="#f8f6e9" d="M 10.28125 36.335938 L 17.132812 40.621094 L 24.550781 37.40625 L 22.59375 45.253906 L 27.945312 51.308594 L 19.882812 51.871094 L 15.765625 58.835938 L 12.742188 51.339844 L 4.851562 49.578125 L 11.046875 44.382812 Z M 10.28125 36.335938 " fill-opacity="1" fill-rule="nonzero"/><path fill="#f8f6e9" d="M 10.195312 36.304688 L 17.054688 40.589844 L 24.46875 37.375 L 22.511719 45.21875 L 27.863281 51.277344 L 19.796875 51.839844 L 15.6875 58.800781 L 12.660156 51.308594 L 4.769531 49.546875 L 10.960938 44.355469 Z M 10.195312 36.304688 " fill-opacity="1" fill-rule="nonzero"/><path fill="#f8f6e9" d="M 10.195312 36.304688 L 17.054688 40.589844 L 24.46875 37.375 L 22.511719 45.21875 L 27.863281 51.277344 L 19.796875 51.839844 L 15.6875 58.800781 L 12.660156 51.308594 L 4.769531 49.546875 L 10.960938 44.355469 Z M 10.195312 36.304688 " fill-opacity="1" fill-rule="nonzero"/><path fill="#f8f6e9" d="M 10.195312 36.304688 L 17.054688 40.589844 L 24.46875 37.375 L 22.511719 45.21875 L 27.863281 51.277344 L 19.796875 51.839844 L 15.6875 58.800781 L 12.660156 51.308594 L 4.769531 49.546875 L 10.960938 44.355469 Z M 10.195312 36.304688 " fill-opacity="1" fill-rule="nonzero"/></g></g></g></svg>