<svg xmlns="http://www.w3.org/2000/svg" xmlns:xlink="http://www.w3.org/1999/xlink" width="924" zoomAndPan="magnify" viewBox="0 0 693 332.250003" height="443" preserveAspectRatio="xMidYMid meet" version="1.0"><defs><g/><clipPath id="50d0f1f4a5"><path d="M 0.78125 12.976562 L 670.628906 12.976562 L 670.628906 229.769531 L 0.78125 229.769531 Z M 0.78125 12.976562 " clip-rule="nonzero"/></clipPath><clipPath id="4033fb9843"><path d="M 670.492188 12.976562 L 0.78125 12.976562 L 31.085938 121.371094 L 0.78125 229.769531 L 670.492188 229.769531 L 640.1875 121.371094 Z M 670.492188 12.976562 " clip-rule="nonzero"/></clipPath><clipPath id="f89398e4a7"><path d="M 22.339844 0 L 692.1875 0 L 692.1875 216.789062 L 22.339844 216.789062 Z M 22.339844 0 " clip-rule="nonzero"/></clipPath><clipPath id="78f9a02b8e"><path d="M 692.050781 0 L 22.339844 0 L 52.644531 108.394531 L 22.339844 216.789062 L 692.050781 216.789062 L 661.746094 108.394531 Z M 692.050781 0 " clip-rule="nonzero"/></clipPath><clipPath id="04076e85ab"><path d="M 216.898438 170.429688 L 531.691406 170.429688 L 531.691406 330.960938 L 216.898438 330.960938 Z M 216.898438 170.429688 " clip-rule="nonzero"/></clipPath><clipPath id="b2a3fc95fe"><path d="M 483.570312 170.429688 L 264.632812 170.429688 L 216.898438 218.164062 L 216.898438 283.230469 L 264.632812 330.960938 L 483.570312 330.960938 L 531.300781 283.230469 L 531.300781 218.164062 Z M 483.570312 170.429688 " clip-rule="nonzero"/></clipPath><clipPath id="76b0c92fb3"><path d="M 216.898438 156.496094 L 531.691406 156.496094 L 531.691406 317.027344 L 216.898438 317.027344 Z M 216.898438 156.496094 " clip-rule="nonzero"/></clipPath><clipPath id="c7d7326a4f"><path d="M 483.570312 156.496094 L 264.632812 156.496094 L 216.898438 204.230469 L 216.898438 269.296875 L 264.632812 317.027344 L 483.570312 317.027344 L 531.300781 269.296875 L 531.300781 204.230469 Z M 483.570312 156.496094 " clip-rule="nonzero"/></clipPath><clipPath id="628c72f5ea"><path d="M 216.902344 156.496094 L 531.191406 156.496094 L 531.191406 317.382812 L 216.902344 317.382812 Z M 216.902344 156.496094 " clip-rule="nonzero"/></clipPath><clipPath id="235361db96"><path d="M 483.558594 156.496094 L 264.632812 156.496094 L 216.902344 204.226562 L 216.902344 269.289062 L 264.632812 317.019531 L 483.558594 317.019531 L 531.289062 269.289062 L 531.289062 204.226562 Z M 483.558594 156.496094 " clip-rule="nonzero"/></clipPath></defs><g clip-path="url(#50d0f1f4a5)"><g clip-path="url(#4033fb9843)"><path fill="#cf4545" d="M 0.78125 12.976562 L 670.628906 12.976562 L 670.628906 229.769531 L 0.78125 229.769531 Z M 0.78125 12.976562 " fill-opacity="1" fill-rule="nonzero"/></g></g><g clip-path="url(#f89398e4a7)"><g clip-path="url(#78f9a02b8e)"><path fill="#ffcf7e" d="M 22.339844 0 L 692.1875 0 L 692.1875 216.789062 L 22.339844 216.789062 Z M 22.339844 0 " fill-opacity="1" fill-rule="nonzero"/></g></g><g fill="#cf4545" fill-opacity="1"><g transform="translate(166.444176, 138.702063)"><g><path d="M 17.03125 -33.390625 L 2.484375 -33.390625 L 2.484375 -59.984375 L 17.03125 -59.984375 Z M 17.03125 -33.390625 "/></g></g></g><g fill="#cf4545" fill-opacity="1"><g transform="translate(186.050785, 138.702063)"><g><path d="M 41.5 0 L 26.859375 0 L 26.859375 -41.5 C 26.859375 -43.382812 25.992188 -44.328125 24.265625 -44.328125 L 22.296875 -44.328125 C 20.535156 -44.328125 19.65625 -43.382812 19.65625 -41.5 L 19.65625 -7.1875 C 19.65625 -2.394531 17.644531 0 13.625 0 L 1.015625 0 L 1.015625 -15.65625 L 3.546875 -15.65625 C 4.390625 -15.65625 4.8125 -16.023438 4.8125 -16.765625 L 4.8125 -48.484375 C 4.8125 -52.578125 5.601562 -55.515625 7.1875 -57.296875 C 8.78125 -59.085938 11.585938 -59.984375 15.609375 -59.984375 L 31.40625 -59.984375 C 38.132812 -59.984375 41.5 -56.148438 41.5 -48.484375 Z M 41.5 0 "/></g></g></g><g fill="#cf4545" fill-opacity="1"><g transform="translate(230.178319, 138.702063)"><g><path d="M 42.40625 -10.796875 C 42.40625 -3.597656 39.144531 0 32.625 0 L 22.296875 0 L 22.296875 -15.703125 L 25.390625 -15.703125 C 26.910156 -15.703125 27.671875 -16.613281 27.671875 -18.4375 L 27.671875 -41.296875 C 27.671875 -43.117188 27.210938 -44.03125 26.296875 -44.03125 C 25.378906 -44.03125 24.753906 -43 24.421875 -40.9375 L 17.078125 0 L 2.578125 0 L 8.765625 -33.484375 L 5.875 -33.484375 C 3.613281 -33.484375 2.484375 -34.597656 2.484375 -36.828125 L 2.484375 -59.984375 L 17.171875 -59.984375 L 17.171875 -38.8125 L 20.109375 -50.40625 C 21.734375 -56.789062 25.234375 -59.984375 30.609375 -59.984375 L 31.359375 -59.984375 C 38.722656 -59.984375 42.40625 -55.492188 42.40625 -46.515625 Z M 42.40625 -10.796875 "/></g></g></g><g fill="#cf4545" fill-opacity="1"><g transform="translate(275.167125, 138.702063)"><g><path d="M 39.109375 0 L 24.421875 0 L 24.421875 -41.5 C 24.421875 -43.382812 23.5625 -44.328125 21.84375 -44.328125 L 20.0625 -44.328125 C 18.34375 -44.328125 17.484375 -43.382812 17.484375 -41.5 L 17.484375 0 L 2.578125 0 L 2.578125 -49.5 C 2.578125 -53.25 3.203125 -55.867188 4.453125 -57.359375 C 5.878906 -59.109375 8.414062 -59.984375 12.0625 -59.984375 L 28.984375 -59.984375 C 35.734375 -59.984375 39.109375 -56.488281 39.109375 -49.5 Z M 39.109375 0 "/></g></g></g><g fill="#cf4545" fill-opacity="1"><g transform="translate(316.862831, 138.702063)"><g><path d="M 35.828125 -21.6875 C 35.828125 -7.226562 28.898438 0 15.046875 0 L 8.71875 0 L 8.71875 -15.65625 L 12.96875 -15.65625 C 16.25 -15.65625 18.476562 -16.703125 19.65625 -18.796875 C 20.5 -20.285156 20.921875 -22.867188 20.921875 -26.546875 L 20.921875 -41.84375 C 20.921875 -43.5 20.078125 -44.328125 18.390625 -44.328125 L 2.578125 -44.328125 L 2.578125 -67.4375 L 17.28125 -67.4375 L 17.28125 -59.984375 L 28.328125 -59.984375 C 33.328125 -59.984375 35.828125 -57.570312 35.828125 -52.75 Z M 35.828125 -21.6875 "/></g></g></g><g fill="#cf4545" fill-opacity="1"><g transform="translate(355.265438, 138.702063)"><g><path d="M 42.40625 -10.796875 C 42.40625 -3.597656 39.144531 0 32.625 0 L 22.296875 0 L 22.296875 -15.703125 L 25.390625 -15.703125 C 26.910156 -15.703125 27.671875 -16.613281 27.671875 -18.4375 L 27.671875 -41.296875 C 27.671875 -43.117188 27.210938 -44.03125 26.296875 -44.03125 C 25.378906 -44.03125 24.753906 -43 24.421875 -40.9375 L 17.078125 0 L 2.578125 0 L 8.765625 -33.484375 L 5.875 -33.484375 C 3.613281 -33.484375 2.484375 -34.597656 2.484375 -36.828125 L 2.484375 -59.984375 L 17.171875 -59.984375 L 17.171875 -38.8125 L 20.109375 -50.40625 C 21.734375 -56.789062 25.234375 -59.984375 30.609375 -59.984375 L 31.359375 -59.984375 C 38.722656 -59.984375 42.40625 -55.492188 42.40625 -46.515625 Z M 42.40625 -10.796875 "/></g></g></g><g fill="#cf4545" fill-opacity="1"><g transform="translate(400.254256, 138.702063)"><g/></g></g><g fill="#cf4545" fill-opacity="1"><g transform="translate(423.204615, 138.702063)"><g><path d="M 40.125 0 L 2.578125 0 L 2.578125 -49.5 C 2.578125 -53.25 3.203125 -55.867188 4.453125 -57.359375 C 5.878906 -59.109375 8.414062 -59.984375 12.0625 -59.984375 L 30 -59.984375 C 36.75 -59.984375 40.125 -56.488281 40.125 -49.5 Z M 25.484375 -41.5 C 25.484375 -43.382812 24.625 -44.328125 22.90625 -44.328125 L 20.0625 -44.328125 C 18.34375 -44.328125 17.484375 -43.382812 17.484375 -41.5 L 17.484375 -15.65625 L 25.484375 -15.65625 Z M 25.484375 -41.5 "/></g></g></g><g fill="#cf4545" fill-opacity="1"><g transform="translate(465.913595, 138.702063)"><g><path d="M 17.234375 0 L 2.578125 0 L 2.578125 -59.984375 L 17.234375 -59.984375 Z M 17.234375 0 "/></g></g></g><g fill="#cf4545" fill-opacity="1"><g transform="translate(485.722867, 138.702063)"><g><path d="M 32.125 0 L 17.28125 0 L 17.28125 -41.84375 C 17.28125 -43.5 16.414062 -44.328125 14.6875 -44.328125 L 1.578125 -44.328125 L 1.578125 -59.984375 L 21.53125 -59.984375 C 24.632812 -59.984375 27.1875 -58.988281 29.1875 -57 C 31.144531 -55.039062 32.125 -52.488281 32.125 -49.34375 Z M 32.125 0 "/></g></g></g><g fill="#cf4545" fill-opacity="1"><g transform="translate(520.427059, 138.702063)"><g><path d="M 17.03125 -33.390625 L 2.484375 -33.390625 L 2.484375 -59.984375 L 17.03125 -59.984375 Z M 17.03125 -33.390625 "/></g></g></g><g fill="#cf4545" fill-opacity="1"><g transform="translate(540.033679, 138.702063)"><g><path d="M 39.109375 0 L 24.421875 0 L 24.421875 -41.5 C 24.421875 -43.382812 23.5625 -44.328125 21.84375 -44.328125 L 20.0625 -44.328125 C 18.34375 -44.328125 17.484375 -43.382812 17.484375 -41.5 L 17.484375 0 L 2.578125 0 L 2.578125 -49.5 C 2.578125 -53.25 3.203125 -55.867188 4.453125 -57.359375 C 5.878906 -59.109375 8.414062 -59.984375 12.0625 -59.984375 L 28.984375 -59.984375 C 35.734375 -59.984375 39.109375 -56.488281 39.109375 -49.5 Z M 39.109375 0 "/></g></g></g><g clip-path="url(#04076e85ab)"><g clip-path="url(#b2a3fc95fe)"><path fill="#cf4545" d="M 216.898438 170.429688 L 531.066406 170.429688 L 531.066406 330.960938 L 216.898438 330.960938 Z M 216.898438 170.429688 " fill-opacity="1" fill-rule="nonzero"/></g></g><g clip-path="url(#76b0c92fb3)"><g clip-path="url(#c7d7326a4f)"><path fill="#ffd37b" d="M 216.898438 156.496094 L 531.066406 156.496094 L 531.066406 317.027344 L 216.898438 317.027344 Z M 216.898438 156.496094 " fill-opacity="1" fill-rule="nonzero"/></g></g><g clip-path="url(#628c72f5ea)"><g clip-path="url(#235361db96)"><path stroke-linecap="butt" transform="matrix(0.748311, 0, 0, 0.748311, 216.904044, 156.496335)" fill="none" stroke-linejoin="miter" d="M 356.341983 -0.000322933 L 63.782013 -0.000322933 L -0.00227226 63.783962 L -0.00227226 150.729789 L 63.782013 214.514074 L 356.341983 214.514074 L 420.126268 150.729789 L 420.126268 63.783962 Z M 356.341983 -0.000322933 " stroke="#cf4545" stroke-width="14" stroke-opacity="1" stroke-miterlimit="4"/></g></g><g fill="#cf4545" fill-opacity="1"><g transform="translate(342.975368, 226.104775)"><g><path d="M 22.046875 -13.34375 C 22.046875 -4.445312 17.785156 0 9.265625 0 L 5.359375 0 L 5.359375 -9.640625 L 7.984375 -9.640625 C 9.992188 -9.640625 11.363281 -10.28125 12.09375 -11.5625 C 12.613281 -12.476562 12.875 -14.070312 12.875 -16.34375 L 12.875 -25.75 C 12.875 -26.769531 12.351562 -27.28125 11.3125 -27.28125 L 1.59375 -27.28125 L 1.59375 -41.5 L 10.640625 -41.5 L 10.640625 -36.921875 L 17.4375 -36.921875 C 20.507812 -36.921875 22.046875 -35.429688 22.046875 -32.453125 Z M 22.046875 -13.34375 "/></g></g></g><g fill="#cf4545" fill-opacity="1"><g transform="translate(366.608075, 226.104775)"><g><path d="M 10.484375 -20.546875 L 1.53125 -20.546875 L 1.53125 -36.921875 L 10.484375 -36.921875 Z M 10.484375 -20.546875 "/></g></g></g><g fill="#cf4545" fill-opacity="1"><g transform="translate(378.673855, 226.104775)"><g><path d="M 24.9375 -7.109375 C 24.9375 -2.367188 22.984375 0 19.078125 0 L 7.453125 0 C 5.472656 0 3.976562 -0.71875 2.96875 -2.15625 C 2.050781 -3.4375 1.59375 -5.085938 1.59375 -7.109375 L 1.59375 -36.921875 L 10.578125 -36.921875 L 10.578125 -25.28125 L 12.34375 -31.59375 C 13.34375 -35.144531 15.160156 -36.921875 17.796875 -36.921875 L 19.640625 -36.921875 C 23.171875 -36.921875 24.9375 -35 24.9375 -31.15625 Z M 16 -26.4375 C 16 -26.832031 15.914062 -27.03125 15.75 -27.03125 C 15.625 -27.03125 15.519531 -26.863281 15.4375 -26.53125 L 14.125 -21.640625 L 10.578125 -21.640625 L 10.578125 -11.3125 C 10.578125 -10.195312 11.03125 -9.640625 11.9375 -9.640625 L 14.59375 -9.640625 C 15.53125 -9.640625 16 -10.195312 16 -11.3125 Z M 16 -26.4375 "/></g></g></g><g fill="#cf4545" fill-opacity="1"><g transform="translate(298.813343, 292.704435)"><g><path d="M 11.75 5.359375 L 1.28125 5.359375 L 1.28125 -43.5 L 11.75 -43.5 L 11.75 -35.703125 L 9.328125 -35.703125 L 9.328125 -2.5625 L 11.75 -2.5625 Z M 11.75 5.359375 "/></g></g></g><g fill="#cf4545" fill-opacity="1"><g transform="translate(311.970338, 292.704435)"><g><path d="M 16.71875 0 C 16.445312 -1.457031 15.859375 -3.375 14.953125 -5.75 C 14.046875 -8.132812 12.8125 -11.007812 11.25 -14.375 C 11.082031 -14.1875 10.957031 -14.039062 10.875 -13.9375 C 10.789062 -13.832031 10.738281 -13.769531 10.71875 -13.75 C 10.695312 -13.664062 10.679688 -13.484375 10.671875 -13.203125 C 10.660156 -12.921875 10.65625 -12.53125 10.65625 -12.03125 L 10.65625 0 L 1.65625 0 L 1.65625 -11.03125 C 1.65625 -16.875 3.453125 -20.660156 7.046875 -22.390625 C 3.597656 -29.160156 1.675781 -34.003906 1.28125 -36.921875 L 10.65625 -36.921875 C 11.113281 -34.835938 11.796875 -32.640625 12.703125 -30.328125 C 13.609375 -28.023438 14.75 -25.578125 16.125 -22.984375 C 16.644531 -23.359375 16.90625 -24.125 16.90625 -25.28125 L 16.90625 -36.921875 L 26 -36.921875 L 26 -24.421875 C 26 -22.546875 25.429688 -20.722656 24.296875 -18.953125 C 23.148438 -17.210938 21.734375 -15.882812 20.046875 -14.96875 C 23.929688 -7.238281 25.914062 -2.25 26 0 Z M 16.71875 0 "/></g></g></g><g fill="#cf4545" fill-opacity="1"><g transform="translate(339.250842, 292.704435)"><g><path d="M 15.34375 -34.796875 C 15.34375 -33.003906 14.570312 -31.28125 13.03125 -29.625 C 11.757812 -28.25 10.316406 -27.195312 8.703125 -26.46875 L 8.703125 -42.3125 L 15.34375 -42.3125 Z M 7.203125 -34.796875 C 7.203125 -31.515625 5.007812 -28.738281 0.625 -26.46875 L 0.625 -42.3125 L 7.203125 -42.3125 Z M 7.203125 -34.796875 "/></g></g></g><g fill="#cf4545" fill-opacity="1"><g transform="translate(355.213831, 292.704435)"><g><path d="M 21.890625 0 L 12.875 0 L 11.25 -10.234375 C 10.613281 -10.234375 10.210938 -9.773438 10.046875 -8.859375 L 8.359375 0 L 0.3125 0 L 2.46875 -10.65625 C 3.414062 -15.476562 5.648438 -17.890625 9.171875 -17.890625 L 10.65625 -17.890625 L 10.65625 -25.75 C 10.65625 -26.769531 10.078125 -27.28125 8.921875 -27.28125 L 2.5 -27.28125 L 2.5 -36.921875 L 12.90625 -36.921875 C 17.457031 -36.921875 19.734375 -34.53125 19.734375 -29.75 L 19.734375 -17.34375 C 19.734375 -16.03125 19.769531 -14.820312 19.84375 -13.71875 C 19.914062 -12.613281 20.023438 -11.601562 20.171875 -10.6875 Z M 21.890625 0 "/></g></g></g><g fill="#cf4545" fill-opacity="1"><g transform="translate(377.755324, 292.704435)"><g><path d="M 23.671875 0 L 14.5 0 L 14.5 -25.75 C 14.5 -26.769531 13.976562 -27.28125 12.9375 -27.28125 L 1.59375 -27.28125 L 1.59375 -36.921875 L 17.15625 -36.921875 C 19.0625 -36.921875 20.628906 -36.304688 21.859375 -35.078125 C 23.066406 -33.867188 23.671875 -32.300781 23.671875 -30.375 Z M 10.609375 0 L 1.625 0 L 1.625 -22.890625 L 10.609375 -22.890625 Z M 10.609375 0 "/></g></g></g><g fill="#cf4545" fill-opacity="1"><g transform="translate(403.009271, 292.704435)"><g/></g></g><g fill="#cf4545" fill-opacity="1"><g transform="translate(417.132781, 292.704435)"><g><path d="M 17.1875 -20.828125 L 1.90625 -20.828125 L 1.90625 -27.90625 L 17.1875 -27.90625 Z M 17.1875 -7.609375 L 1.90625 -7.609375 L 1.90625 -14.6875 L 17.1875 -14.6875 Z M 17.1875 -7.609375 "/></g></g></g><g fill="#cf4545" fill-opacity="1"><g transform="translate(436.213542, 292.704435)"><g><path d="M 12 5.359375 L 1.46875 5.359375 L 1.46875 -2.5625 L 3.953125 -2.5625 L 3.953125 -35.703125 L 1.46875 -35.703125 L 1.46875 -43.5 L 12 -43.5 Z M 12 5.359375 "/></g></g></g></svg>