<svg xmlns="http://www.w3.org/2000/svg" xmlns:xlink="http://www.w3.org/1999/xlink" width="921" zoomAndPan="magnify" viewBox="0 0 690.75 332.250003" height="443" preserveAspectRatio="xMidYMid meet" version="1.0"><defs><g/><clipPath id="fc8d6de11a"><path d="M 19.886719 12.976562 L 689.734375 12.976562 L 689.734375 229.769531 L 19.886719 229.769531 Z M 19.886719 12.976562 " clip-rule="nonzero"/></clipPath><clipPath id="25bc468ce2"><path d="M 689.597656 12.976562 L 19.886719 12.976562 L 50.191406 121.371094 L 19.886719 229.769531 L 689.597656 229.769531 L 659.292969 121.371094 Z M 689.597656 12.976562 " clip-rule="nonzero"/></clipPath><clipPath id="e0bbe231b3"><path d="M 0.652344 0 L 670.503906 0 L 670.503906 216.789062 L 0.652344 216.789062 Z M 0.652344 0 " clip-rule="nonzero"/></clipPath><clipPath id="8e923e5c21"><path d="M 670.367188 0 L 0.652344 0 L 30.960938 108.394531 L 0.652344 216.789062 L 670.367188 216.789062 L 640.058594 108.394531 Z M 670.367188 0 " clip-rule="nonzero"/></clipPath><clipPath id="eafa149183"><path d="M 250.972656 170.429688 L 565.765625 170.429688 L 565.765625 330.960938 L 250.972656 330.960938 Z M 250.972656 170.429688 " clip-rule="nonzero"/></clipPath><clipPath id="706943aad4"><path d="M 517.640625 170.429688 L 298.703125 170.429688 L 250.972656 218.164062 L 250.972656 283.230469 L 298.703125 330.960938 L 517.640625 330.960938 L 565.371094 283.230469 L 565.371094 218.164062 Z M 517.640625 170.429688 " clip-rule="nonzero"/></clipPath><clipPath id="b75047d5c8"><path d="M 250.972656 156.496094 L 565.765625 156.496094 L 565.765625 317.027344 L 250.972656 317.027344 Z M 250.972656 156.496094 " clip-rule="nonzero"/></clipPath><clipPath id="7dbbe961f9"><path d="M 517.640625 156.496094 L 298.703125 156.496094 L 250.972656 204.230469 L 250.972656 269.296875 L 298.703125 317.027344 L 517.640625 317.027344 L 565.371094 269.296875 L 565.371094 204.230469 Z M 517.640625 156.496094 " clip-rule="nonzero"/></clipPath><clipPath id="22d4e05544"><path d="M 250.976562 156.496094 L 565.261719 156.496094 L 565.261719 317.382812 L 250.976562 317.382812 Z M 250.976562 156.496094 " clip-rule="nonzero"/></clipPath><clipPath id="5ee73b644d"><path d="M 517.632812 156.496094 L 298.707031 156.496094 L 250.976562 204.226562 L 250.976562 269.289062 L 298.707031 317.019531 L 517.632812 317.019531 L 565.363281 269.289062 L 565.363281 204.226562 Z M 517.632812 156.496094 " clip-rule="nonzero"/></clipPath></defs><g clip-path="url(#fc8d6de11a)"><g clip-path="url(#25bc468ce2)"><path fill="#cf4545" d="M 19.886719 12.976562 L 689.734375 12.976562 L 689.734375 229.769531 L 19.886719 229.769531 Z M 19.886719 12.976562 " fill-opacity="1" fill-rule="nonzero"/></g></g><g clip-path="url(#e0bbe231b3)"><g clip-path="url(#8e923e5c21)"><path fill="#ffcf7e" d="M 0.652344 0 L 670.503906 0 L 670.503906 216.789062 L 0.652344 216.789062 Z M 0.652344 0 " fill-opacity="1" fill-rule="nonzero"/></g></g><g fill="#cf4545" fill-opacity="1"><g transform="translate(220.006878, 138.702063)"><g><path d="M 17.03125 -33.390625 L 2.484375 -33.390625 L 2.484375 -59.984375 L 17.03125 -59.984375 Z M 17.03125 -33.390625 "/></g></g></g><g fill="#cf4545" fill-opacity="1"><g transform="translate(239.613487, 138.702063)"><g><path d="M 39.109375 0 L 24.421875 0 L 24.421875 -41.5 C 24.421875 -43.382812 23.5625 -44.328125 21.84375 -44.328125 L 20.0625 -44.328125 C 18.34375 -44.328125 17.484375 -43.382812 17.484375 -41.5 L 17.484375 0 L 2.578125 0 L 2.578125 -49.5 C 2.578125 -53.25 3.203125 -55.867188 4.453125 -57.359375 C 5.878906 -59.109375 8.414062 -59.984375 12.0625 -59.984375 L 28.984375 -59.984375 C 35.734375 -59.984375 39.109375 -56.488281 39.109375 -49.5 Z M 39.109375 0 "/></g></g></g><g fill="#cf4545" fill-opacity="1"><g transform="translate(281.309193, 138.702063)"><g><path d="M 32.125 0 L 17.28125 0 L 17.28125 -41.84375 C 17.28125 -43.5 16.414062 -44.328125 14.6875 -44.328125 L 1.578125 -44.328125 L 1.578125 -59.984375 L 21.53125 -59.984375 C 24.632812 -59.984375 27.1875 -58.988281 29.1875 -57 C 31.144531 -55.039062 32.125 -52.488281 32.125 -49.34375 Z M 32.125 0 "/></g></g></g><g fill="#cf4545" fill-opacity="1"><g transform="translate(316.013396, 138.702063)"><g><path d="M 22.5 -44.328125 L 22.296875 -44.328125 C 19.960938 -44.328125 18.796875 -42.65625 18.796875 -39.3125 L 18.796875 0 L 4.25 0 L 4.25 -36.375 C 4.25 -40.738281 5.632812 -43.390625 8.40625 -44.328125 L 2.078125 -44.328125 L 2.078125 -59.984375 L 22.5 -59.984375 Z M 22.5 -44.328125 "/></g></g></g><g fill="#cf4545" fill-opacity="1"><g transform="translate(340.584985, 138.702063)"><g><path d="M 27.15625 0 C 26.71875 -2.363281 25.765625 -5.476562 24.296875 -9.34375 C 22.828125 -13.21875 20.828125 -17.890625 18.296875 -23.359375 C 18.023438 -23.054688 17.820312 -22.816406 17.6875 -22.640625 C 17.550781 -22.472656 17.460938 -22.375 17.421875 -22.34375 C 17.390625 -22.207031 17.363281 -21.910156 17.34375 -21.453125 C 17.332031 -20.992188 17.328125 -20.363281 17.328125 -19.5625 L 17.328125 0 L 2.6875 0 L 2.6875 -17.9375 C 2.6875 -27.425781 5.609375 -33.570312 11.453125 -36.375 C 5.847656 -47.382812 2.722656 -55.253906 2.078125 -59.984375 L 17.328125 -59.984375 C 18.066406 -56.609375 19.171875 -53.046875 20.640625 -49.296875 C 22.109375 -45.546875 23.957031 -41.5625 26.1875 -37.34375 C 27.039062 -37.945312 27.46875 -39.195312 27.46875 -41.09375 L 27.46875 -59.984375 L 42.25 -59.984375 L 42.25 -39.671875 C 42.25 -36.628906 41.320312 -33.675781 39.46875 -30.8125 C 37.613281 -27.96875 35.316406 -25.800781 32.578125 -24.3125 C 38.890625 -11.75 42.113281 -3.644531 42.25 0 Z M 27.15625 0 "/></g></g></g><g fill="#cf4545" fill-opacity="1"><g transform="translate(384.915171, 138.702063)"><g/></g></g><g fill="#cf4545" fill-opacity="1"><g transform="translate(407.865542, 138.702063)"><g><path d="M 40.125 0 L 2.578125 0 L 2.578125 -49.5 C 2.578125 -53.25 3.203125 -55.867188 4.453125 -57.359375 C 5.878906 -59.109375 8.414062 -59.984375 12.0625 -59.984375 L 30 -59.984375 C 36.75 -59.984375 40.125 -56.488281 40.125 -49.5 Z M 25.484375 -41.5 C 25.484375 -43.382812 24.625 -44.328125 22.90625 -44.328125 L 20.0625 -44.328125 C 18.34375 -44.328125 17.484375 -43.382812 17.484375 -41.5 L 17.484375 -15.65625 L 25.484375 -15.65625 Z M 25.484375 -41.5 "/></g></g></g><g fill="#cf4545" fill-opacity="1"><g transform="translate(450.574522, 138.702063)"><g><path d="M 17.234375 0 L 2.578125 0 L 2.578125 -59.984375 L 17.234375 -59.984375 Z M 17.234375 0 "/></g></g></g><g fill="#cf4545" fill-opacity="1"><g transform="translate(470.383794, 138.702063)"><g><path d="M 32.125 0 L 17.28125 0 L 17.28125 -41.84375 C 17.28125 -43.5 16.414062 -44.328125 14.6875 -44.328125 L 1.578125 -44.328125 L 1.578125 -59.984375 L 21.53125 -59.984375 C 24.632812 -59.984375 27.1875 -58.988281 29.1875 -57 C 31.144531 -55.039062 32.125 -52.488281 32.125 -49.34375 Z M 32.125 0 "/></g></g></g><g fill="#cf4545" fill-opacity="1"><g transform="translate(505.087986, 138.702063)"><g><path d="M 17.03125 -33.390625 L 2.484375 -33.390625 L 2.484375 -59.984375 L 17.03125 -59.984375 Z M 17.03125 -33.390625 "/></g></g></g><g fill="#cf4545" fill-opacity="1"><g transform="translate(524.694605, 138.702063)"><g><path d="M 39.109375 0 L 24.421875 0 L 24.421875 -41.5 C 24.421875 -43.382812 23.5625 -44.328125 21.84375 -44.328125 L 20.0625 -44.328125 C 18.34375 -44.328125 17.484375 -43.382812 17.484375 -41.5 L 17.484375 0 L 2.578125 0 L 2.578125 -49.5 C 2.578125 -53.25 3.203125 -55.867188 4.453125 -57.359375 C 5.878906 -59.109375 8.414062 -59.984375 12.0625 -59.984375 L 28.984375 -59.984375 C 35.734375 -59.984375 39.109375 -56.488281 39.109375 -49.5 Z M 39.109375 0 "/></g></g></g><g clip-path="url(#eafa149183)"><g clip-path="url(#706943aad4)"><path fill="#cf4545" d="M 250.972656 170.429688 L 565.136719 170.429688 L 565.136719 330.960938 L 250.972656 330.960938 Z M 250.972656 170.429688 " fill-opacity="1" fill-rule="nonzero"/></g></g><g clip-path="url(#b75047d5c8)"><g clip-path="url(#7dbbe961f9)"><path fill="#ffd37b" d="M 250.972656 156.496094 L 565.136719 156.496094 L 565.136719 317.027344 L 250.972656 317.027344 Z M 250.972656 156.496094 " fill-opacity="1" fill-rule="nonzero"/></g></g><g clip-path="url(#22d4e05544)"><g clip-path="url(#5ee73b644d)"><path stroke-linecap="butt" transform="matrix(0.748311, 0, 0, 0.748311, 250.975589, 156.496335)" fill="none" stroke-linejoin="miter" d="M 356.345556 -0.000322933 L 63.785587 -0.000322933 L 0.00130146 63.783962 L 0.00130146 150.729789 L 63.785587 214.514074 L 356.345556 214.514074 L 420.129842 150.729789 L 420.129842 63.783962 Z M 356.345556 -0.000322933 " stroke="#cf4545" stroke-width="14" stroke-opacity="1" stroke-miterlimit="4"/></g></g><g fill="#cf4545" fill-opacity="1"><g transform="translate(344.530474, 226.104775)"><g><path d="M 22.046875 -13.34375 C 22.046875 -4.445312 17.785156 0 9.265625 0 L 5.359375 0 L 5.359375 -9.640625 L 7.984375 -9.640625 C 9.992188 -9.640625 11.363281 -10.28125 12.09375 -11.5625 C 12.613281 -12.476562 12.875 -14.070312 12.875 -16.34375 L 12.875 -25.75 C 12.875 -26.769531 12.351562 -27.28125 11.3125 -27.28125 L 1.59375 -27.28125 L 1.59375 -41.5 L 10.640625 -41.5 L 10.640625 -36.921875 L 17.4375 -36.921875 C 20.507812 -36.921875 22.046875 -35.429688 22.046875 -32.453125 Z M 22.046875 -13.34375 "/></g></g></g><g fill="#cf4545" fill-opacity="1"><g transform="translate(368.163181, 226.104775)"><g><path d="M 10.484375 -20.546875 L 1.53125 -20.546875 L 1.53125 -36.921875 L 10.484375 -36.921875 Z M 10.484375 -20.546875 "/></g></g></g><g fill="#cf4545" fill-opacity="1"><g transform="translate(380.228961, 226.104775)"><g><path d="M 24.9375 -7.109375 C 24.9375 -2.367188 22.984375 0 19.078125 0 L 7.453125 0 C 5.472656 0 3.976562 -0.71875 2.96875 -2.15625 C 2.050781 -3.4375 1.59375 -5.085938 1.59375 -7.109375 L 1.59375 -36.921875 L 10.578125 -36.921875 L 10.578125 -25.28125 L 12.34375 -31.59375 C 13.34375 -35.144531 15.160156 -36.921875 17.796875 -36.921875 L 19.640625 -36.921875 C 23.171875 -36.921875 24.9375 -35 24.9375 -31.15625 Z M 16 -26.4375 C 16 -26.832031 15.914062 -27.03125 15.75 -27.03125 C 15.625 -27.03125 15.519531 -26.863281 15.4375 -26.53125 L 14.125 -21.640625 L 10.578125 -21.640625 L 10.578125 -11.3125 C 10.578125 -10.195312 11.03125 -9.640625 11.9375 -9.640625 L 14.59375 -9.640625 C 15.53125 -9.640625 16 -10.195312 16 -11.3125 Z M 16 -26.4375 "/></g></g></g><g fill="#cf4545" fill-opacity="1"><g transform="translate(406.761201, 226.104775)"><g/></g></g><g fill="#cf4545" fill-opacity="1"><g transform="translate(420.884711, 226.104775)"><g><path d="M 16.71875 0 C 16.445312 -1.457031 15.859375 -3.375 14.953125 -5.75 C 14.046875 -8.132812 12.8125 -11.007812 11.25 -14.375 C 11.082031 -14.1875 10.957031 -14.039062 10.875 -13.9375 C 10.789062 -13.832031 10.738281 -13.769531 10.71875 -13.75 C 10.695312 -13.664062 10.679688 -13.484375 10.671875 -13.203125 C 10.660156 -12.921875 10.65625 -12.53125 10.65625 -12.03125 L 10.65625 0 L 1.65625 0 L 1.65625 -11.03125 C 1.65625 -16.875 3.453125 -20.660156 7.046875 -22.390625 C 3.597656 -29.160156 1.675781 -34.003906 1.28125 -36.921875 L 10.65625 -36.921875 C 11.113281 -34.835938 11.796875 -32.640625 12.703125 -30.328125 C 13.609375 -28.023438 14.75 -25.578125 16.125 -22.984375 C 16.644531 -23.359375 16.90625 -24.125 16.90625 -25.28125 L 16.90625 -36.921875 L 26 -36.921875 L 26 -24.421875 C 26 -22.546875 25.429688 -20.722656 24.296875 -18.953125 C 23.148438 -17.210938 21.734375 -15.882812 20.046875 -14.96875 C 23.929688 -7.238281 25.914062 -2.25 26 0 Z M 16.71875 0 "/></g></g></g><g fill="#cf4545" fill-opacity="1"><g transform="translate(448.165216, 226.104775)"><g><path d="M 22.046875 -13.34375 C 22.046875 -4.445312 17.785156 0 9.265625 0 L 5.359375 0 L 5.359375 -9.640625 L 7.984375 -9.640625 C 9.992188 -9.640625 11.363281 -10.28125 12.09375 -11.5625 C 12.613281 -12.476562 12.875 -14.070312 12.875 -16.34375 L 12.875 -25.75 C 12.875 -26.769531 12.351562 -27.28125 11.3125 -27.28125 L 1.59375 -27.28125 L 1.59375 -41.5 L 10.640625 -41.5 L 10.640625 -36.921875 L 17.4375 -36.921875 C 20.507812 -36.921875 22.046875 -35.429688 22.046875 -32.453125 Z M 22.046875 -13.34375 "/></g></g></g><g fill="#cf4545" fill-opacity="1"><g transform="translate(300.368441, 292.704435)"><g><path d="M 11.75 5.359375 L 1.28125 5.359375 L 1.28125 -43.5 L 11.75 -43.5 L 11.75 -35.703125 L 9.328125 -35.703125 L 9.328125 -2.5625 L 11.75 -2.5625 Z M 11.75 5.359375 "/></g></g></g><g fill="#cf4545" fill-opacity="1"><g transform="translate(313.525436, 292.704435)"><g><path d="M 16.71875 0 C 16.445312 -1.457031 15.859375 -3.375 14.953125 -5.75 C 14.046875 -8.132812 12.8125 -11.007812 11.25 -14.375 C 11.082031 -14.1875 10.957031 -14.039062 10.875 -13.9375 C 10.789062 -13.832031 10.738281 -13.769531 10.71875 -13.75 C 10.695312 -13.664062 10.679688 -13.484375 10.671875 -13.203125 C 10.660156 -12.921875 10.65625 -12.53125 10.65625 -12.03125 L 10.65625 0 L 1.65625 0 L 1.65625 -11.03125 C 1.65625 -16.875 3.453125 -20.660156 7.046875 -22.390625 C 3.597656 -29.160156 1.675781 -34.003906 1.28125 -36.921875 L 10.65625 -36.921875 C 11.113281 -34.835938 11.796875 -32.640625 12.703125 -30.328125 C 13.609375 -28.023438 14.75 -25.578125 16.125 -22.984375 C 16.644531 -23.359375 16.90625 -24.125 16.90625 -25.28125 L 16.90625 -36.921875 L 26 -36.921875 L 26 -24.421875 C 26 -22.546875 25.429688 -20.722656 24.296875 -18.953125 C 23.148438 -17.210938 21.734375 -15.882812 20.046875 -14.96875 C 23.929688 -7.238281 25.914062 -2.25 26 0 Z M 16.71875 0 "/></g></g></g><g fill="#cf4545" fill-opacity="1"><g transform="translate(340.805941, 292.704435)"><g><path d="M 15.34375 -34.796875 C 15.34375 -33.003906 14.570312 -31.28125 13.03125 -29.625 C 11.757812 -28.25 10.316406 -27.195312 8.703125 -26.46875 L 8.703125 -42.3125 L 15.34375 -42.3125 Z M 7.203125 -34.796875 C 7.203125 -31.515625 5.007812 -28.738281 0.625 -26.46875 L 0.625 -42.3125 L 7.203125 -42.3125 Z M 7.203125 -34.796875 "/></g></g></g><g fill="#cf4545" fill-opacity="1"><g transform="translate(356.76893, 292.704435)"><g><path d="M 21.890625 0 L 12.875 0 L 11.25 -10.234375 C 10.613281 -10.234375 10.210938 -9.773438 10.046875 -8.859375 L 8.359375 0 L 0.3125 0 L 2.46875 -10.65625 C 3.414062 -15.476562 5.648438 -17.890625 9.171875 -17.890625 L 10.65625 -17.890625 L 10.65625 -25.75 C 10.65625 -26.769531 10.078125 -27.28125 8.921875 -27.28125 L 2.5 -27.28125 L 2.5 -36.921875 L 12.90625 -36.921875 C 17.457031 -36.921875 19.734375 -34.53125 19.734375 -29.75 L 19.734375 -17.34375 C 19.734375 -16.03125 19.769531 -14.820312 19.84375 -13.71875 C 19.914062 -12.613281 20.023438 -11.601562 20.171875 -10.6875 Z M 21.890625 0 "/></g></g></g><g fill="#cf4545" fill-opacity="1"><g transform="translate(379.310422, 292.704435)"><g><path d="M 23.671875 0 L 14.5 0 L 14.5 -25.75 C 14.5 -26.769531 13.976562 -27.28125 12.9375 -27.28125 L 1.59375 -27.28125 L 1.59375 -36.921875 L 17.15625 -36.921875 C 19.0625 -36.921875 20.628906 -36.304688 21.859375 -35.078125 C 23.066406 -33.867188 23.671875 -32.300781 23.671875 -30.375 Z M 10.609375 0 L 1.625 0 L 1.625 -22.890625 L 10.609375 -22.890625 Z M 10.609375 0 "/></g></g></g><g fill="#cf4545" fill-opacity="1"><g transform="translate(404.56437, 292.704435)"><g/></g></g><g fill="#cf4545" fill-opacity="1"><g transform="translate(418.68788, 292.704435)"><g><path d="M 16.71875 0 C 16.445312 -1.457031 15.859375 -3.375 14.953125 -5.75 C 14.046875 -8.132812 12.8125 -11.007812 11.25 -14.375 C 11.082031 -14.1875 10.957031 -14.039062 10.875 -13.9375 C 10.789062 -13.832031 10.738281 -13.769531 10.71875 -13.75 C 10.695312 -13.664062 10.679688 -13.484375 10.671875 -13.203125 C 10.660156 -12.921875 10.65625 -12.53125 10.65625 -12.03125 L 10.65625 0 L 1.65625 0 L 1.65625 -11.03125 C 1.65625 -16.875 3.453125 -20.660156 7.046875 -22.390625 C 3.597656 -29.160156 1.675781 -34.003906 1.28125 -36.921875 L 10.65625 -36.921875 C 11.113281 -34.835938 11.796875 -32.640625 12.703125 -30.328125 C 13.609375 -28.023438 14.75 -25.578125 16.125 -22.984375 C 16.644531 -23.359375 16.90625 -24.125 16.90625 -25.28125 L 16.90625 -36.921875 L 26 -36.921875 L 26 -24.421875 C 26 -22.546875 25.429688 -20.722656 24.296875 -18.953125 C 23.148438 -17.210938 21.734375 -15.882812 20.046875 -14.96875 C 23.929688 -7.238281 25.914062 -2.25 26 0 Z M 16.71875 0 "/></g></g></g><g fill="#cf4545" fill-opacity="1"><g transform="translate(445.968385, 292.704435)"><g><path d="M 22.046875 -13.34375 C 22.046875 -4.445312 17.785156 0 9.265625 0 L 5.359375 0 L 5.359375 -9.640625 L 7.984375 -9.640625 C 9.992188 -9.640625 11.363281 -10.28125 12.09375 -11.5625 C 12.613281 -12.476562 12.875 -14.070312 12.875 -16.34375 L 12.875 -25.75 C 12.875 -26.769531 12.351562 -27.28125 11.3125 -27.28125 L 1.59375 -27.28125 L 1.59375 -41.5 L 10.640625 -41.5 L 10.640625 -36.921875 L 17.4375 -36.921875 C 20.507812 -36.921875 22.046875 -35.429688 22.046875 -32.453125 Z M 22.046875 -13.34375 "/></g></g></g><g fill="#cf4545" fill-opacity="1"><g transform="translate(469.601092, 292.704435)"><g/></g></g><g fill="#cf4545" fill-opacity="1"><g transform="translate(483.724602, 292.704435)"><g><path d="M 17.1875 -20.828125 L 1.90625 -20.828125 L 1.90625 -27.90625 L 17.1875 -27.90625 Z M 17.1875 -7.609375 L 1.90625 -7.609375 L 1.90625 -14.6875 L 17.1875 -14.6875 Z M 17.1875 -7.609375 "/></g></g></g><g fill="#cf4545" fill-opacity="1"><g transform="translate(502.805373, 292.704435)"><g><path d="M 12 5.359375 L 1.46875 5.359375 L 1.46875 -2.5625 L 3.953125 -2.5625 L 3.953125 -35.703125 L 1.46875 -35.703125 L 1.46875 -43.5 L 12 -43.5 Z M 12 5.359375 "/></g></g></g></svg>