<svg xmlns="http://www.w3.org/2000/svg" xmlns:xlink="http://www.w3.org/1999/xlink" width="1634" zoomAndPan="magnify" viewBox="0 0 1225.5 243.75" height="325" preserveAspectRatio="xMidYMid meet" version="1.0"><defs><g/></defs><g fill="#f8f6e9" fill-opacity="0.4"><g transform="translate(482.070613, 119.411753)"><g/></g></g><g fill="#f8f6e9" fill-opacity="1"><g transform="translate(477.390925, 114.732082)"><g/></g></g><g fill="#f8f6e9" fill-opacity="0.4"><g transform="translate(505.495805, 119.411753)"><g><path d="M 45.546875 -2.015625 C 45.546875 -0.671875 44.875 0 43.53125 0 L 4.96875 0 C 3.625 0 2.953125 -0.6875 2.953125 -2.0625 L 2.953125 -2.21875 L 6.5625 -60.4375 C 6.664062 -61.988281 7.410156 -62.765625 8.796875 -62.765625 L 39.8125 -62.765625 C 41.1875 -62.765625 41.925781 -61.988281 42.03125 -60.4375 L 45.546875 -2.21875 Z M 30.609375 -22.125 L 29.109375 -40.890625 C 29.035156 -41.304688 28.828125 -41.515625 28.484375 -41.515625 L 19.90625 -41.515625 C 19.382812 -41.515625 19.109375 -41.304688 19.078125 -40.890625 L 18 -22.125 L 18 -22.078125 C 18 -21.492188 18.320312 -21.203125 18.96875 -21.203125 L 29.625 -21.203125 C 30.28125 -21.203125 30.609375 -21.457031 30.609375 -21.96875 Z M 30.609375 -22.125 "/></g></g></g><g fill="#f8f6e9" fill-opacity="0.4"><g transform="translate(553.9931, 119.411753)"><g><path d="M 20.734375 -2.125 C 20.734375 -0.707031 20.21875 0 19.1875 0 L 8.6875 0 C 7.40625 0 6.765625 -0.707031 6.765625 -2.125 L 6.765625 -40.640625 C 6.765625 -41.296875 6.523438 -41.625 6.046875 -41.625 L 5.484375 -41.625 C 4.617188 -41.625 4.132812 -42.328125 4.03125 -43.734375 L 2.953125 -60.4375 L 2.953125 -60.59375 C 2.953125 -62.039062 3.625 -62.765625 4.96875 -62.765625 L 18.609375 -62.765625 C 20.023438 -62.765625 20.734375 -61.988281 20.734375 -60.4375 Z M 20.734375 -2.125 "/></g></g></g><g fill="#f8f6e9" fill-opacity="0.4"><g transform="translate(578.08664, 119.411753)"><g><path d="M 34.75 -2.125 C 34.75 -0.707031 34.179688 0 33.046875 0 L 22.640625 0 C 21.296875 0 20.625 -0.707031 20.625 -2.125 L 20.625 -40.53125 C 20.625 -41.257812 20.25 -41.625 19.5 -41.625 L 5.28125 -41.625 C 3.832031 -41.625 3.085938 -42.296875 3.046875 -43.640625 L 2.015625 -60.4375 L 2.015625 -60.59375 C 2.015625 -62.039062 2.6875 -62.765625 4.03125 -62.765625 L 32.625 -62.765625 C 34.039062 -62.765625 34.75 -61.988281 34.75 -60.4375 Z M 34.75 -2.125 "/></g></g></g><g fill="#f8f6e9" fill-opacity="0.4"><g transform="translate(617.070607, 119.411753)"><g><path d="M 21.71875 -27.09375 C 21.71875 -25.675781 21.148438 -24.96875 20.015625 -24.96875 L 9.609375 -24.96875 C 8.367188 -24.96875 7.75 -25.675781 7.75 -27.09375 L 7.75 -40.53125 C 7.75 -41.257812 7.390625 -41.625 6.671875 -41.625 L 5.84375 -41.625 C 4.738281 -41.625 4.132812 -42.328125 4.03125 -43.734375 L 2.953125 -60.4375 L 2.953125 -60.65625 C 2.953125 -62.0625 3.625 -62.765625 4.96875 -62.765625 L 19.59375 -62.765625 C 21.007812 -62.765625 21.71875 -61.988281 21.71875 -60.4375 Z M 21.71875 -27.09375 "/></g></g></g><g fill="#f8f6e9" fill-opacity="0.4"><g transform="translate(642.094799, 119.411753)"><g><path d="M 43.640625 -1.703125 C 43.640625 -0.566406 43.140625 0 42.140625 0 L 31.84375 0 C 30.707031 0 30.085938 -0.738281 29.984375 -2.21875 L 27.296875 -40.640625 C 27.234375 -41.222656 26.851562 -41.515625 26.15625 -41.515625 L 20.3125 -41.515625 C 19.800781 -41.515625 19.53125 -41.1875 19.5 -40.53125 L 16.65625 -2.21875 C 16.550781 -0.738281 15.875 0 14.625 0 L 4.65625 0 C 3.519531 0 2.953125 -0.6875 2.953125 -2.0625 L 2.953125 -2.21875 L 6.671875 -60.4375 C 6.773438 -61.988281 7.515625 -62.765625 8.890625 -62.765625 L 38.109375 -62.765625 C 39.484375 -62.765625 40.222656 -61.988281 40.328125 -60.4375 L 43.640625 -2.21875 Z M 43.640625 -1.703125 "/></g></g></g><g fill="#f8f6e9" fill-opacity="1"><g transform="translate(500.816117, 114.732082)"><g><path d="M 45.546875 -2.015625 C 45.546875 -0.671875 44.875 0 43.53125 0 L 4.96875 0 C 3.625 0 2.953125 -0.6875 2.953125 -2.0625 L 2.953125 -2.21875 L 6.5625 -60.4375 C 6.664062 -61.988281 7.410156 -62.765625 8.796875 -62.765625 L 39.8125 -62.765625 C 41.1875 -62.765625 41.925781 -61.988281 42.03125 -60.4375 L 45.546875 -2.21875 Z M 30.609375 -22.125 L 29.109375 -40.890625 C 29.035156 -41.304688 28.828125 -41.515625 28.484375 -41.515625 L 19.90625 -41.515625 C 19.382812 -41.515625 19.109375 -41.304688 19.078125 -40.890625 L 18 -22.125 L 18 -22.078125 C 18 -21.492188 18.320312 -21.203125 18.96875 -21.203125 L 29.625 -21.203125 C 30.28125 -21.203125 30.609375 -21.457031 30.609375 -21.96875 Z M 30.609375 -22.125 "/></g></g></g><g fill="#f8f6e9" fill-opacity="1"><g transform="translate(549.313412, 114.732082)"><g><path d="M 20.734375 -2.125 C 20.734375 -0.707031 20.21875 0 19.1875 0 L 8.6875 0 C 7.40625 0 6.765625 -0.707031 6.765625 -2.125 L 6.765625 -40.640625 C 6.765625 -41.296875 6.523438 -41.625 6.046875 -41.625 L 5.484375 -41.625 C 4.617188 -41.625 4.132812 -42.328125 4.03125 -43.734375 L 2.953125 -60.4375 L 2.953125 -60.59375 C 2.953125 -62.039062 3.625 -62.765625 4.96875 -62.765625 L 18.609375 -62.765625 C 20.023438 -62.765625 20.734375 -61.988281 20.734375 -60.4375 Z M 20.734375 -2.125 "/></g></g></g><g fill="#f8f6e9" fill-opacity="1"><g transform="translate(573.406952, 114.732082)"><g><path d="M 34.75 -2.125 C 34.75 -0.707031 34.179688 0 33.046875 0 L 22.640625 0 C 21.296875 0 20.625 -0.707031 20.625 -2.125 L 20.625 -40.53125 C 20.625 -41.257812 20.25 -41.625 19.5 -41.625 L 5.28125 -41.625 C 3.832031 -41.625 3.085938 -42.296875 3.046875 -43.640625 L 2.015625 -60.4375 L 2.015625 -60.59375 C 2.015625 -62.039062 2.6875 -62.765625 4.03125 -62.765625 L 32.625 -62.765625 C 34.039062 -62.765625 34.75 -61.988281 34.75 -60.4375 Z M 34.75 -2.125 "/></g></g></g><g fill="#f8f6e9" fill-opacity="1"><g transform="translate(612.390919, 114.732082)"><g><path d="M 21.71875 -27.09375 C 21.71875 -25.675781 21.148438 -24.96875 20.015625 -24.96875 L 9.609375 -24.96875 C 8.367188 -24.96875 7.75 -25.675781 7.75 -27.09375 L 7.75 -40.53125 C 7.75 -41.257812 7.390625 -41.625 6.671875 -41.625 L 5.84375 -41.625 C 4.738281 -41.625 4.132812 -42.328125 4.03125 -43.734375 L 2.953125 -60.4375 L 2.953125 -60.65625 C 2.953125 -62.0625 3.625 -62.765625 4.96875 -62.765625 L 19.59375 -62.765625 C 21.007812 -62.765625 21.71875 -61.988281 21.71875 -60.4375 Z M 21.71875 -27.09375 "/></g></g></g><g fill="#f8f6e9" fill-opacity="1"><g transform="translate(637.415111, 114.732082)"><g><path d="M 43.640625 -1.703125 C 43.640625 -0.566406 43.140625 0 42.140625 0 L 31.84375 0 C 30.707031 0 30.085938 -0.738281 29.984375 -2.21875 L 27.296875 -40.640625 C 27.234375 -41.222656 26.851562 -41.515625 26.15625 -41.515625 L 20.3125 -41.515625 C 19.800781 -41.515625 19.53125 -41.1875 19.5 -40.53125 L 16.65625 -2.21875 C 16.550781 -0.738281 15.875 0 14.625 0 L 4.65625 0 C 3.519531 0 2.953125 -0.6875 2.953125 -2.0625 L 2.953125 -2.21875 L 6.671875 -60.4375 C 6.773438 -61.988281 7.515625 -62.765625 8.890625 -62.765625 L 38.109375 -62.765625 C 39.484375 -62.765625 40.222656 -61.988281 40.328125 -60.4375 L 43.640625 -2.21875 Z M 43.640625 -1.703125 "/></g></g></g><g fill="#f8f6e9" fill-opacity="1"><g transform="translate(11.648551, 183.718341)"><g><path d="M 24.34375 -1.03125 C 24.34375 -0.34375 24.003906 0 23.328125 0 L 18.359375 0 C 17.585938 0 17.175781 -0.390625 17.125 -1.171875 L 15.65625 -21.296875 C 15.613281 -21.722656 15.410156 -21.9375 15.046875 -21.9375 L 12.375 -21.9375 C 11.988281 -21.9375 11.78125 -21.722656 11.75 -21.296875 L 10.734375 -1.171875 C 10.710938 -0.390625 10.320312 0 9.5625 0 L 2.34375 0 C 1.632812 0 1.28125 -0.378906 1.28125 -1.140625 L 1.28125 -1.171875 L 1.71875 -9.96875 C 1.738281 -10.789062 2.113281 -11.203125 2.84375 -11.203125 L 3.625 -11.203125 C 4.007812 -11.203125 4.222656 -11.382812 4.265625 -11.75 L 4.8125 -21.359375 L 4.8125 -21.4375 C 4.8125 -21.769531 4.644531 -21.9375 4.3125 -21.9375 L 3.359375 -21.9375 C 2.578125 -21.9375 2.164062 -22.363281 2.125 -23.21875 L 1.71875 -31.921875 L 1.71875 -32.09375 C 1.71875 -32.800781 2.054688 -33.15625 2.734375 -33.15625 L 21.296875 -33.15625 C 22.023438 -33.15625 22.421875 -32.742188 22.484375 -31.921875 L 24.34375 -1.171875 Z M 24.34375 -1.03125 "/></g></g></g><g fill="#f8f6e9" fill-opacity="1"><g transform="translate(37.567564, 183.718341)"><g><path d="M 11.46875 -14.3125 C 11.46875 -13.5625 11.164062 -13.1875 10.5625 -13.1875 L 5.078125 -13.1875 C 4.421875 -13.1875 4.09375 -13.5625 4.09375 -14.3125 L 4.09375 -21.40625 C 4.09375 -21.789062 3.898438 -21.984375 3.515625 -21.984375 L 3.09375 -21.984375 C 2.507812 -21.984375 2.1875 -22.359375 2.125 -23.109375 L 1.5625 -31.921875 L 1.5625 -32.03125 C 1.5625 -32.78125 1.914062 -33.15625 2.625 -33.15625 L 10.359375 -33.15625 C 11.097656 -33.15625 11.46875 -32.742188 11.46875 -31.921875 Z M 11.46875 -14.3125 "/></g></g></g><g fill="#f8f6e9" fill-opacity="1"><g transform="translate(50.786535, 183.718341)"><g><path d="M 19.53125 -31.765625 L 18.953125 -23.59375 C 18.859375 -22.519531 18.503906 -21.984375 17.890625 -21.984375 L 16.21875 -21.984375 L 16.21875 -1.171875 C 16.21875 -0.390625 15.789062 0 14.9375 0 L 9.96875 0 C 9.1875 0 8.796875 -0.410156 8.796875 -1.234375 L 8.796875 -21.984375 L 2.078125 -21.984375 C 1.378906 -21.984375 1.003906 -22.519531 0.953125 -23.59375 L 0.546875 -31.765625 L 0.546875 -31.953125 C 0.546875 -32.753906 0.9375 -33.15625 1.71875 -33.15625 L 18.515625 -33.15625 C 19.191406 -33.15625 19.53125 -32.765625 19.53125 -31.984375 Z M 19.53125 -31.765625 "/></g></g></g><g fill="#f8f6e9" fill-opacity="1"><g transform="translate(70.88811, 183.718341)"><g><path d="M 11.46875 -14.3125 C 11.46875 -13.5625 11.164062 -13.1875 10.5625 -13.1875 L 5.078125 -13.1875 C 4.421875 -13.1875 4.09375 -13.5625 4.09375 -14.3125 L 4.09375 -21.40625 C 4.09375 -21.789062 3.898438 -21.984375 3.515625 -21.984375 L 3.09375 -21.984375 C 2.507812 -21.984375 2.1875 -22.359375 2.125 -23.109375 L 1.5625 -31.921875 L 1.5625 -32.03125 C 1.5625 -32.78125 1.914062 -33.15625 2.625 -33.15625 L 10.359375 -33.15625 C 11.097656 -33.15625 11.46875 -32.742188 11.46875 -31.921875 Z M 11.46875 -14.3125 "/></g></g></g><g fill="#f8f6e9" fill-opacity="1"><g transform="translate(84.10708, 183.718341)"><g><path d="M 11.46875 -14.3125 C 11.46875 -13.5625 11.164062 -13.1875 10.5625 -13.1875 L 5.078125 -13.1875 C 4.421875 -13.1875 4.09375 -13.5625 4.09375 -14.3125 L 4.09375 -21.40625 C 4.09375 -21.789062 3.898438 -21.984375 3.515625 -21.984375 L 3.09375 -21.984375 C 2.507812 -21.984375 2.1875 -22.359375 2.125 -23.109375 L 1.5625 -31.921875 L 1.5625 -32.03125 C 1.5625 -32.78125 1.914062 -33.15625 2.625 -33.15625 L 10.359375 -33.15625 C 11.097656 -33.15625 11.46875 -32.742188 11.46875 -31.921875 Z M 11.46875 -14.3125 "/></g></g></g><g fill="#f8f6e9" fill-opacity="1"><g transform="translate(97.326051, 183.718341)"><g><path d="M 23.65625 -1.09375 C 23.65625 -0.363281 23.300781 0 22.59375 0 L 12.375 0 C 11.664062 0 11.3125 -0.375 11.3125 -1.125 L 11.3125 -1.171875 L 11.796875 -9.828125 C 11.847656 -10.742188 12.238281 -11.203125 12.96875 -11.203125 L 15.109375 -11.203125 C 15.453125 -11.203125 15.625 -11.375 15.625 -11.71875 C 15.625 -11.789062 15.613281 -11.835938 15.59375 -11.859375 L 15 -21.296875 C 14.976562 -21.753906 14.765625 -21.984375 14.359375 -21.984375 L 10.84375 -21.984375 C 10.457031 -21.984375 10.257812 -21.753906 10.25 -21.296875 L 9.015625 -1.171875 C 8.960938 -0.390625 8.570312 0 7.84375 0 L 2.625 0 C 1.914062 0 1.5625 -0.375 1.5625 -1.125 L 1.5625 -1.171875 L 3.515625 -31.921875 C 3.578125 -32.742188 3.988281 -33.15625 4.75 -33.15625 L 20.546875 -33.15625 C 21.265625 -33.15625 21.65625 -32.742188 21.71875 -31.921875 L 23.65625 -1.171875 Z M 23.65625 -1.09375 "/></g></g></g><g fill="#f8f6e9" fill-opacity="1"><g transform="translate(122.562266, 183.718341)"><g/></g></g><g fill="#f8f6e9" fill-opacity="1"><g transform="translate(134.934567, 183.718341)"><g><path d="M 21.9375 -1.25 C 21.9375 -0.414062 21.5625 0 20.8125 0 L 15.78125 0 C 14.96875 0 14.53125 -0.460938 14.46875 -1.390625 L 13.296875 -21.078125 C 13.265625 -21.679688 13.007812 -21.984375 12.53125 -21.984375 L 3.953125 -21.984375 C 3.097656 -21.984375 2.671875 -22.46875 2.671875 -23.4375 L 2.671875 -23.59375 L 3.140625 -31.8125 C 3.191406 -32.707031 3.675781 -33.15625 4.59375 -33.15625 L 18.90625 -33.15625 C 19.738281 -33.15625 20.179688 -32.671875 20.234375 -31.703125 L 21.9375 -1.390625 Z M 9.171875 -14.53125 L 8.796875 -1.28125 C 8.753906 -0.425781 8.296875 0 7.421875 0 L 2.671875 0 C 1.929688 0 1.5625 -0.4375 1.5625 -1.3125 L 1.5625 -1.390625 L 2.078125 -14.671875 C 2.097656 -15.554688 2.597656 -16 3.578125 -16 L 7.890625 -16 C 8.742188 -16 9.171875 -15.546875 9.171875 -14.640625 Z M 9.171875 -14.53125 "/></g></g></g><g fill="#f8f6e9" fill-opacity="1"><g transform="translate(158.450132, 183.718341)"><g><path d="M 19.421875 -31.921875 L 17.609375 -1.171875 C 17.554688 -0.390625 17.164062 0 16.4375 0 L 7.734375 0 C 7.003906 0 6.613281 -0.390625 6.5625 -1.171875 L 6.03125 -9.890625 L 6.03125 -10.03125 C 6.03125 -10.8125 6.382812 -11.203125 7.09375 -11.203125 L 10.46875 -11.203125 C 10.863281 -11.203125 11.070312 -11.398438 11.09375 -11.796875 L 11.53125 -21.1875 L 11.53125 -21.28125 C 11.53125 -21.71875 11.335938 -21.9375 10.953125 -21.9375 L 2.984375 -21.9375 C 2.234375 -21.9375 1.835938 -22.304688 1.796875 -23.046875 L 0.953125 -38.15625 L 0.953125 -38.375 C 0.953125 -39.082031 1.253906 -39.4375 1.859375 -39.4375 L 7.15625 -39.4375 C 7.914062 -39.4375 8.304688 -39.046875 8.328125 -38.265625 L 8.546875 -33.890625 C 8.566406 -33.398438 8.773438 -33.15625 9.171875 -33.15625 L 18.359375 -33.109375 C 19.066406 -33.109375 19.421875 -32.769531 19.421875 -32.09375 Z M 19.421875 -31.921875 "/></g></g></g><g fill="#f8f6e9" fill-opacity="1"><g transform="translate(179.425688, 183.718341)"><g><path d="M 10.953125 -1.125 C 10.953125 -0.375 10.679688 0 10.140625 0 L 4.59375 0 C 3.914062 0 3.578125 -0.375 3.578125 -1.125 L 3.578125 -21.46875 C 3.578125 -21.8125 3.453125 -21.984375 3.203125 -21.984375 L 2.890625 -21.984375 C 2.441406 -21.984375 2.1875 -22.359375 2.125 -23.109375 L 1.5625 -31.921875 L 1.5625 -32.015625 C 1.5625 -32.773438 1.914062 -33.15625 2.625 -33.15625 L 9.828125 -33.15625 C 10.578125 -33.15625 10.953125 -32.742188 10.953125 -31.921875 Z M 10.953125 -1.125 "/></g></g></g><g fill="#f8f6e9" fill-opacity="1"><g transform="translate(192.153043, 183.718341)"><g><path d="M 22.15625 -31.921875 L 20.296875 -1.171875 C 20.242188 -0.390625 19.851562 0 19.125 0 L 2.34375 0 C 1.675781 0 1.34375 -0.363281 1.34375 -1.09375 L 1.34375 -1.171875 L 2.078125 -10.078125 C 2.128906 -10.828125 2.539062 -11.203125 3.3125 -11.203125 L 4.484375 -11.203125 L 2.671875 -31.921875 L 2.671875 -32.09375 C 2.671875 -32.769531 3.007812 -33.109375 3.6875 -33.109375 L 8.84375 -33.109375 C 9.59375 -33.109375 10.003906 -32.710938 10.078125 -31.921875 L 11.859375 -11.140625 L 12.921875 -11.140625 C 13.304688 -11.140625 13.515625 -11.378906 13.546875 -11.859375 L 14.890625 -31.921875 C 14.941406 -32.710938 15.332031 -33.109375 16.0625 -33.109375 L 21.078125 -33.109375 C 21.796875 -33.109375 22.15625 -32.757812 22.15625 -32.0625 Z M 22.15625 -31.921875 "/></g></g></g><g fill="#f8f6e9" fill-opacity="1"><g transform="translate(215.887104, 183.718341)"><g><path d="M 23.046875 -1.09375 C 23.046875 -0.363281 22.691406 0 21.984375 0 L 2.625 0 C 1.914062 0 1.5625 -0.375 1.5625 -1.125 L 1.5625 -1.171875 L 2.078125 -9.890625 C 2.128906 -10.765625 2.519531 -11.203125 3.25 -11.203125 L 13.9375 -11.203125 C 14.601562 -11.203125 14.9375 -11.460938 14.9375 -11.984375 L 14.9375 -12.078125 L 14.421875 -21.359375 C 14.378906 -21.742188 14.070312 -21.9375 13.5 -21.9375 L 11.203125 -21.9375 C 10.648438 -21.9375 10.347656 -21.671875 10.296875 -21.140625 L 9.78125 -15.546875 C 9.726562 -14.867188 9.316406 -14.53125 8.546875 -14.53125 L 3.359375 -14.53125 C 2.679688 -14.53125 2.34375 -14.875 2.34375 -15.5625 L 2.34375 -15.65625 L 3.84375 -31.921875 C 3.914062 -32.742188 4.328125 -33.15625 5.078125 -33.15625 L 20.015625 -33.15625 C 20.742188 -33.15625 21.132812 -32.742188 21.1875 -31.921875 L 23.046875 -1.171875 Z M 23.046875 -1.09375 "/></g></g></g><g fill="#f8f6e9" fill-opacity="1"><g transform="translate(240.522457, 183.718341)"><g/></g></g><g fill="#f8f6e9" fill-opacity="1"><g transform="translate(252.894747, 183.718341)"><g><path d="M 20.296875 -1.015625 C 20.296875 -0.335938 20.019531 0 19.46875 0 L 1.671875 0 C 1.085938 0 0.796875 -0.300781 0.796875 -0.90625 L 0.796875 -1.015625 L 1.234375 -10.1875 C 1.242188 -10.863281 1.5625 -11.203125 2.1875 -11.203125 L 10.40625 -11.203125 L 9.78125 -21.359375 C 9.738281 -21.742188 9.570312 -21.9375 9.28125 -21.9375 L 3.46875 -21.9375 C 2.832031 -21.9375 2.515625 -22.28125 2.515625 -22.96875 L 2.515625 -23.046875 L 2.890625 -32.171875 C 2.910156 -32.828125 3.3125 -33.15625 4.09375 -33.15625 L 15.484375 -33.15625 C 16.191406 -33.15625 16.566406 -32.8125 16.609375 -32.125 L 17.828125 -11.203125 L 18.90625 -11.203125 C 19.5 -11.203125 19.816406 -10.828125 19.859375 -10.078125 L 20.296875 -1.0625 Z M 20.296875 -1.015625 "/></g></g></g><g fill="#f8f6e9" fill-opacity="1"><g transform="translate(273.979551, 183.718341)"><g><path d="M 11.46875 -14.3125 C 11.46875 -13.5625 11.164062 -13.1875 10.5625 -13.1875 L 5.078125 -13.1875 C 4.421875 -13.1875 4.09375 -13.5625 4.09375 -14.3125 L 4.09375 -21.40625 C 4.09375 -21.789062 3.898438 -21.984375 3.515625 -21.984375 L 3.09375 -21.984375 C 2.507812 -21.984375 2.1875 -22.359375 2.125 -23.109375 L 1.5625 -31.921875 L 1.5625 -32.03125 C 1.5625 -32.78125 1.914062 -33.15625 2.625 -33.15625 L 10.359375 -33.15625 C 11.097656 -33.15625 11.46875 -32.742188 11.46875 -31.921875 Z M 11.46875 -14.3125 "/></g></g></g><g fill="#f8f6e9" fill-opacity="1"><g transform="translate(287.198521, 183.718341)"><g><path d="M 11.46875 -14.3125 C 11.46875 -13.5625 11.164062 -13.1875 10.5625 -13.1875 L 5.078125 -13.1875 C 4.421875 -13.1875 4.09375 -13.5625 4.09375 -14.3125 L 4.09375 -21.40625 C 4.09375 -21.789062 3.898438 -21.984375 3.515625 -21.984375 L 3.09375 -21.984375 C 2.507812 -21.984375 2.1875 -22.359375 2.125 -23.109375 L 1.5625 -31.921875 L 1.5625 -32.03125 C 1.5625 -32.78125 1.914062 -33.15625 2.625 -33.15625 L 10.359375 -33.15625 C 11.097656 -33.15625 11.46875 -32.742188 11.46875 -31.921875 Z M 11.46875 -14.3125 "/></g></g></g><g fill="#f8f6e9" fill-opacity="1"><g transform="translate(300.417492, 183.718341)"><g><path d="M 23.046875 -0.90625 C 23.046875 -0.300781 22.785156 0 22.265625 0 L 16.828125 0 C 16.222656 0 15.894531 -0.390625 15.84375 -1.171875 L 14.421875 -21.46875 C 14.378906 -21.78125 14.179688 -21.9375 13.828125 -21.9375 L 10.734375 -21.9375 C 10.460938 -21.9375 10.316406 -21.757812 10.296875 -21.40625 L 8.796875 -1.171875 C 8.742188 -0.390625 8.390625 0 7.734375 0 L 2.453125 0 C 1.859375 0 1.5625 -0.363281 1.5625 -1.09375 L 1.5625 -1.171875 L 3.515625 -31.921875 C 3.578125 -32.742188 3.972656 -33.15625 4.703125 -33.15625 L 20.125 -33.15625 C 20.851562 -33.15625 21.242188 -32.742188 21.296875 -31.921875 L 23.046875 -1.171875 Z M 23.046875 -0.90625 "/></g></g></g><g fill="#f8f6e9" fill-opacity="1"><g transform="translate(325.052845, 183.718341)"><g><path d="M 23.65625 -1.09375 C 23.65625 -0.363281 23.300781 0 22.59375 0 L 12.375 0 C 11.664062 0 11.3125 -0.375 11.3125 -1.125 L 11.3125 -1.171875 L 11.796875 -9.828125 C 11.847656 -10.742188 12.238281 -11.203125 12.96875 -11.203125 L 15.109375 -11.203125 C 15.453125 -11.203125 15.625 -11.375 15.625 -11.71875 C 15.625 -11.789062 15.613281 -11.835938 15.59375 -11.859375 L 15 -21.296875 C 14.976562 -21.753906 14.765625 -21.984375 14.359375 -21.984375 L 10.84375 -21.984375 C 10.457031 -21.984375 10.257812 -21.753906 10.25 -21.296875 L 9.015625 -1.171875 C 8.960938 -0.390625 8.570312 0 7.84375 0 L 2.625 0 C 1.914062 0 1.5625 -0.375 1.5625 -1.125 L 1.5625 -1.171875 L 3.515625 -31.921875 C 3.578125 -32.742188 3.988281 -33.15625 4.75 -33.15625 L 20.546875 -33.15625 C 21.265625 -33.15625 21.65625 -32.742188 21.71875 -31.921875 L 23.65625 -1.171875 Z M 23.65625 -1.09375 "/></g></g></g><g fill="#f8f6e9" fill-opacity="1"><g transform="translate(350.289061, 183.718341)"><g><path d="M 21.9375 -1.25 C 21.9375 -0.414062 21.5625 0 20.8125 0 L 15.78125 0 C 14.96875 0 14.53125 -0.460938 14.46875 -1.390625 L 13.296875 -21.078125 C 13.265625 -21.679688 13.007812 -21.984375 12.53125 -21.984375 L 3.953125 -21.984375 C 3.097656 -21.984375 2.671875 -22.46875 2.671875 -23.4375 L 2.671875 -23.59375 L 3.140625 -31.8125 C 3.191406 -32.707031 3.675781 -33.15625 4.59375 -33.15625 L 18.90625 -33.15625 C 19.738281 -33.15625 20.179688 -32.671875 20.234375 -31.703125 L 21.9375 -1.390625 Z M 9.171875 -14.53125 L 8.796875 -1.28125 C 8.753906 -0.425781 8.296875 0 7.421875 0 L 2.671875 0 C 1.929688 0 1.5625 -0.4375 1.5625 -1.3125 L 1.5625 -1.390625 L 2.078125 -14.671875 C 2.097656 -15.554688 2.597656 -16 3.578125 -16 L 7.890625 -16 C 8.742188 -16 9.171875 -15.546875 9.171875 -14.640625 Z M 9.171875 -14.53125 "/></g></g></g><g fill="#f8f6e9" fill-opacity="1"><g transform="translate(373.804637, 183.718341)"><g/></g></g><g fill="#f8f6e9" fill-opacity="1"><g transform="translate(386.176926, 183.718341)"><g><path d="M 10.296875 -1.859375 C 10.296875 -1.273438 9.921875 -0.640625 9.171875 0.046875 L 2.515625 6.140625 C 2.148438 6.453125 1.800781 6.609375 1.46875 6.609375 C 0.851562 6.609375 0.546875 6.289062 0.546875 5.65625 C 0.546875 5.5625 0.570312 5.40625 0.625 5.1875 L 3.03125 -4.3125 C 3.15625 -4.914062 3.617188 -5.507812 4.421875 -6.09375 L 7.890625 -8.65625 C 8.179688 -8.851562 8.4375 -8.953125 8.65625 -8.953125 C 9.28125 -8.953125 9.632812 -8.523438 9.71875 -7.671875 Z M 10.296875 -1.859375 "/></g></g></g><g fill="#f8f6e9" fill-opacity="1"><g transform="translate(398.139525, 183.718341)"><g><path d="M 18.90625 -15.890625 C 18.90625 -15.109375 18.472656 -14.71875 17.609375 -14.71875 L 12.96875 -14.71875 C 12.039062 -14.71875 11.578125 -15.109375 11.578125 -15.890625 L 11.578125 -32.0625 C 11.578125 -32.789062 12.039062 -33.15625 12.96875 -33.15625 L 17.609375 -33.15625 C 18.472656 -33.15625 18.90625 -32.789062 18.90625 -32.0625 Z M 29.203125 -31.984375 L 27.28125 -1.234375 C 27.226562 -0.410156 26.820312 0 26.0625 0 L 4.53125 0 C 3.800781 0 3.410156 -0.410156 3.359375 -1.234375 L 1.5625 -31.984375 L 1.5625 -32.28125 C 1.5625 -32.863281 1.820312 -33.15625 2.34375 -33.15625 L 8 -33.15625 C 8.582031 -33.15625 8.898438 -32.765625 8.953125 -31.984375 L 10.25 -11.6875 C 10.257812 -11.394531 10.4375 -11.25 10.78125 -11.25 L 20.015625 -11.25 C 20.296875 -11.25 20.453125 -11.414062 20.484375 -11.75 L 21.984375 -31.984375 C 22.035156 -32.765625 22.390625 -33.15625 23.046875 -33.15625 L 28.296875 -33.15625 C 28.898438 -33.15625 29.203125 -32.800781 29.203125 -32.09375 Z M 29.203125 -31.984375 "/></g></g></g><g fill="#f8f6e9" fill-opacity="1"><g transform="translate(428.865426, 183.718341)"><g><path d="M 10.953125 -1.125 C 10.953125 -0.375 10.679688 0 10.140625 0 L 4.59375 0 C 3.914062 0 3.578125 -0.375 3.578125 -1.125 L 3.578125 -21.46875 C 3.578125 -21.8125 3.453125 -21.984375 3.203125 -21.984375 L 2.890625 -21.984375 C 2.441406 -21.984375 2.1875 -22.359375 2.125 -23.109375 L 1.5625 -31.921875 L 1.5625 -32.015625 C 1.5625 -32.773438 1.914062 -33.15625 2.625 -33.15625 L 9.828125 -33.15625 C 10.578125 -33.15625 10.953125 -32.742188 10.953125 -31.921875 Z M 10.953125 -1.125 "/></g></g></g><g fill="#f8f6e9" fill-opacity="1"><g transform="translate(441.592759, 183.718341)"><g><path d="M 19.6875 -1.09375 C 19.6875 -0.363281 19.332031 0 18.625 0 L 2.125 0 C 1.457031 0 1.125 -0.335938 1.125 -1.015625 L 1.125 -1.171875 L 1.90625 -10.078125 C 2 -10.828125 2.410156 -11.203125 3.140625 -11.203125 L 11.25 -11.203125 C 11.65625 -11.203125 11.859375 -11.390625 11.859375 -11.765625 L 11.859375 -11.859375 L 11.25 -21.40625 C 11.226562 -21.757812 11.054688 -21.9375 10.734375 -21.9375 L 3.09375 -21.9375 C 2.375 -21.9375 2.015625 -22.265625 2.015625 -22.921875 L 2.015625 -23 L 2.625 -31.921875 C 2.675781 -32.742188 3.082031 -33.15625 3.84375 -33.15625 L 16.65625 -33.15625 C 17.382812 -33.15625 17.773438 -32.742188 17.828125 -31.921875 L 19.6875 -1.171875 Z M 19.6875 -1.09375 "/></g></g></g><g fill="#f8f6e9" fill-opacity="1"><g transform="translate(462.868758, 183.718341)"><g><path d="M 18.359375 -1.125 C 18.359375 -0.375 18.054688 0 17.453125 0 L 11.96875 0 C 11.25 0 10.890625 -0.375 10.890625 -1.125 L 10.890625 -21.40625 C 10.890625 -21.789062 10.691406 -21.984375 10.296875 -21.984375 L 2.78125 -21.984375 C 2.019531 -21.984375 1.628906 -22.335938 1.609375 -23.046875 L 1.0625 -31.921875 L 1.0625 -32.015625 C 1.0625 -32.773438 1.414062 -33.15625 2.125 -33.15625 L 17.234375 -33.15625 C 17.984375 -33.15625 18.359375 -32.742188 18.359375 -31.921875 Z M 18.359375 -1.125 "/></g></g></g><g fill="#f8f6e9" fill-opacity="1"><g transform="translate(483.461924, 183.718341)"><g/></g></g><g fill="#f8f6e9" fill-opacity="1"><g transform="translate(495.834214, 183.718341)"><g><path d="M 24.34375 -1.03125 C 24.34375 -0.34375 24.003906 0 23.328125 0 L 18.359375 0 C 17.585938 0 17.175781 -0.390625 17.125 -1.171875 L 15.65625 -21.296875 C 15.613281 -21.722656 15.410156 -21.9375 15.046875 -21.9375 L 12.375 -21.9375 C 11.988281 -21.9375 11.78125 -21.722656 11.75 -21.296875 L 10.734375 -1.171875 C 10.710938 -0.390625 10.320312 0 9.5625 0 L 2.34375 0 C 1.632812 0 1.28125 -0.378906 1.28125 -1.140625 L 1.28125 -1.171875 L 1.71875 -9.96875 C 1.738281 -10.789062 2.113281 -11.203125 2.84375 -11.203125 L 3.625 -11.203125 C 4.007812 -11.203125 4.222656 -11.382812 4.265625 -11.75 L 4.8125 -21.359375 L 4.8125 -21.4375 C 4.8125 -21.769531 4.644531 -21.9375 4.3125 -21.9375 L 3.359375 -21.9375 C 2.578125 -21.9375 2.164062 -22.363281 2.125 -23.21875 L 1.71875 -31.921875 L 1.71875 -32.09375 C 1.71875 -32.800781 2.054688 -33.15625 2.734375 -33.15625 L 21.296875 -33.15625 C 22.023438 -33.15625 22.421875 -32.742188 22.484375 -31.921875 L 24.34375 -1.171875 Z M 24.34375 -1.03125 "/></g></g></g><g fill="#f8f6e9" fill-opacity="1"><g transform="translate(521.753216, 183.718341)"><g><path d="M 10.953125 -1.125 C 10.953125 -0.375 10.679688 0 10.140625 0 L 4.59375 0 C 3.914062 0 3.578125 -0.375 3.578125 -1.125 L 3.578125 -21.46875 C 3.578125 -21.8125 3.453125 -21.984375 3.203125 -21.984375 L 2.890625 -21.984375 C 2.441406 -21.984375 2.1875 -22.359375 2.125 -23.109375 L 1.5625 -31.921875 L 1.5625 -32.015625 C 1.5625 -32.773438 1.914062 -33.15625 2.625 -33.15625 L 9.828125 -33.15625 C 10.578125 -33.15625 10.953125 -32.742188 10.953125 -31.921875 Z M 10.953125 -1.125 "/></g></g></g><g fill="#f8f6e9" fill-opacity="1"><g transform="translate(534.480549, 183.718341)"><g><path d="M 23.65625 -1.09375 C 23.65625 -0.363281 23.300781 0 22.59375 0 L 12.375 0 C 11.664062 0 11.3125 -0.375 11.3125 -1.125 L 11.3125 -1.171875 L 11.796875 -9.828125 C 11.847656 -10.742188 12.238281 -11.203125 12.96875 -11.203125 L 15.109375 -11.203125 C 15.453125 -11.203125 15.625 -11.375 15.625 -11.71875 C 15.625 -11.789062 15.613281 -11.835938 15.59375 -11.859375 L 15 -21.296875 C 14.976562 -21.753906 14.765625 -21.984375 14.359375 -21.984375 L 10.84375 -21.984375 C 10.457031 -21.984375 10.257812 -21.753906 10.25 -21.296875 L 9.015625 -1.171875 C 8.960938 -0.390625 8.570312 0 7.84375 0 L 2.625 0 C 1.914062 0 1.5625 -0.375 1.5625 -1.125 L 1.5625 -1.171875 L 3.515625 -31.921875 C 3.578125 -32.742188 3.988281 -33.15625 4.75 -33.15625 L 20.546875 -33.15625 C 21.265625 -33.15625 21.65625 -32.742188 21.71875 -31.921875 L 23.65625 -1.171875 Z M 23.65625 -1.09375 "/></g></g></g><g fill="#f8f6e9" fill-opacity="1"><g transform="translate(559.716764, 183.718341)"><g><path d="M 19.421875 -31.921875 L 17.609375 -1.171875 C 17.554688 -0.390625 17.164062 0 16.4375 0 L 7.734375 0 C 7.003906 0 6.613281 -0.390625 6.5625 -1.171875 L 6.03125 -9.890625 L 6.03125 -10.03125 C 6.03125 -10.8125 6.382812 -11.203125 7.09375 -11.203125 L 10.46875 -11.203125 C 10.863281 -11.203125 11.070312 -11.398438 11.09375 -11.796875 L 11.53125 -21.1875 L 11.53125 -21.28125 C 11.53125 -21.71875 11.335938 -21.9375 10.953125 -21.9375 L 2.984375 -21.9375 C 2.234375 -21.9375 1.835938 -22.304688 1.796875 -23.046875 L 0.953125 -38.15625 L 0.953125 -38.375 C 0.953125 -39.082031 1.253906 -39.4375 1.859375 -39.4375 L 7.15625 -39.4375 C 7.914062 -39.4375 8.304688 -39.046875 8.328125 -38.265625 L 8.546875 -33.890625 C 8.566406 -33.398438 8.773438 -33.15625 9.171875 -33.15625 L 18.359375 -33.109375 C 19.066406 -33.109375 19.421875 -32.769531 19.421875 -32.09375 Z M 19.421875 -31.921875 "/></g></g></g><g fill="#f8f6e9" fill-opacity="1"><g transform="translate(580.692321, 183.718341)"><g><path d="M 18.90625 -15.890625 C 18.90625 -15.109375 18.472656 -14.71875 17.609375 -14.71875 L 12.96875 -14.71875 C 12.039062 -14.71875 11.578125 -15.109375 11.578125 -15.890625 L 11.578125 -32.0625 C 11.578125 -32.789062 12.039062 -33.15625 12.96875 -33.15625 L 17.609375 -33.15625 C 18.472656 -33.15625 18.90625 -32.789062 18.90625 -32.0625 Z M 29.203125 -31.984375 L 27.28125 -1.234375 C 27.226562 -0.410156 26.820312 0 26.0625 0 L 4.53125 0 C 3.800781 0 3.410156 -0.410156 3.359375 -1.234375 L 1.5625 -31.984375 L 1.5625 -32.28125 C 1.5625 -32.863281 1.820312 -33.15625 2.34375 -33.15625 L 8 -33.15625 C 8.582031 -33.15625 8.898438 -32.765625 8.953125 -31.984375 L 10.25 -11.6875 C 10.257812 -11.394531 10.4375 -11.25 10.78125 -11.25 L 20.015625 -11.25 C 20.296875 -11.25 20.453125 -11.414062 20.484375 -11.75 L 21.984375 -31.984375 C 22.035156 -32.765625 22.390625 -33.15625 23.046875 -33.15625 L 28.296875 -33.15625 C 28.898438 -33.15625 29.203125 -32.800781 29.203125 -32.09375 Z M 29.203125 -31.984375 "/></g></g></g><g fill="#f8f6e9" fill-opacity="1"><g transform="translate(611.418222, 183.718341)"><g><path d="M 19.421875 -31.921875 L 17.609375 -1.171875 C 17.554688 -0.390625 17.164062 0 16.4375 0 L 7.734375 0 C 7.003906 0 6.613281 -0.390625 6.5625 -1.171875 L 6.03125 -9.890625 L 6.03125 -10.03125 C 6.03125 -10.8125 6.382812 -11.203125 7.09375 -11.203125 L 10.46875 -11.203125 C 10.863281 -11.203125 11.070312 -11.398438 11.09375 -11.796875 L 11.53125 -21.1875 L 11.53125 -21.28125 C 11.53125 -21.71875 11.335938 -21.9375 10.953125 -21.9375 L 2.984375 -21.9375 C 2.234375 -21.9375 1.835938 -22.304688 1.796875 -23.046875 L 0.953125 -38.15625 L 0.953125 -38.375 C 0.953125 -39.082031 1.253906 -39.4375 1.859375 -39.4375 L 7.15625 -39.4375 C 7.914062 -39.4375 8.304688 -39.046875 8.328125 -38.265625 L 8.546875 -33.890625 C 8.566406 -33.398438 8.773438 -33.15625 9.171875 -33.15625 L 18.359375 -33.109375 C 19.066406 -33.109375 19.421875 -32.769531 19.421875 -32.09375 Z M 19.421875 -31.921875 "/></g></g></g><g fill="#f8f6e9" fill-opacity="1"><g transform="translate(632.393778, 183.718341)"><g/></g></g><g fill="#f8f6e9" fill-opacity="1"><g transform="translate(644.766067, 183.718341)"><g><path d="M 10.953125 -1.125 C 10.953125 -0.375 10.679688 0 10.140625 0 L 4.59375 0 C 3.914062 0 3.578125 -0.375 3.578125 -1.125 L 3.578125 -21.46875 C 3.578125 -21.8125 3.453125 -21.984375 3.203125 -21.984375 L 2.890625 -21.984375 C 2.441406 -21.984375 2.1875 -22.359375 2.125 -23.109375 L 1.5625 -31.921875 L 1.5625 -32.015625 C 1.5625 -32.773438 1.914062 -33.15625 2.625 -33.15625 L 9.828125 -33.15625 C 10.578125 -33.15625 10.953125 -32.742188 10.953125 -31.921875 Z M 10.953125 -1.125 "/></g></g></g><g fill="#f8f6e9" fill-opacity="1"><g transform="translate(657.493446, 183.718341)"><g><path d="M 23.296875 -32.453125 C 23.296875 -32.304688 23.285156 -32.195312 23.265625 -32.125 L 19.46875 -10.078125 L 23.109375 -0.84375 C 23.140625 -0.738281 23.15625 -0.648438 23.15625 -0.578125 C 23.15625 -0.191406 22.875 0 22.3125 0 L 14.671875 0 C 14.140625 0 13.765625 -0.265625 13.546875 -0.796875 L 9.671875 -10.515625 L 8.328125 -0.953125 C 8.234375 -0.316406 7.878906 0 7.265625 0 L 1.609375 0 C 1.117188 0 0.875 -0.226562 0.875 -0.6875 C 0.875 -0.769531 0.882812 -0.84375 0.90625 -0.90625 L 4.59375 -22.9375 L 1.125 -32.234375 C 1.050781 -32.390625 1.015625 -32.539062 1.015625 -32.6875 C 1.015625 -33 1.175781 -33.15625 1.5 -33.15625 L 9.171875 -33.15625 C 9.671875 -33.15625 10.03125 -32.863281 10.25 -32.28125 L 14.03125 -22.53125 L 15.65625 -32.28125 C 15.738281 -32.863281 16.054688 -33.15625 16.609375 -33.15625 L 22.59375 -33.15625 C 23.0625 -33.15625 23.296875 -32.921875 23.296875 -32.453125 Z M 23.296875 -32.453125 "/></g></g></g><g fill="#f8f6e9" fill-opacity="1"><g transform="translate(681.719132, 183.718341)"><g/></g></g><g fill="#f8f6e9" fill-opacity="1"><g transform="translate(694.091421, 183.718341)"><g><path d="M 24.0625 -1.0625 C 24.0625 -0.351562 23.707031 0 23 0 L 2.625 0 C 1.914062 0 1.5625 -0.363281 1.5625 -1.09375 L 1.5625 -1.171875 L 3.46875 -31.921875 C 3.519531 -32.742188 3.910156 -33.15625 4.640625 -33.15625 L 21.03125 -33.15625 C 21.757812 -33.15625 22.148438 -32.742188 22.203125 -31.921875 L 24.0625 -1.171875 Z M 16.171875 -11.6875 L 15.375 -21.609375 C 15.34375 -21.828125 15.234375 -21.9375 15.046875 -21.9375 L 10.515625 -21.9375 C 10.242188 -21.9375 10.097656 -21.828125 10.078125 -21.609375 L 9.5 -11.6875 L 9.5 -11.65625 C 9.5 -11.351562 9.675781 -11.203125 10.03125 -11.203125 L 15.65625 -11.203125 C 16 -11.203125 16.171875 -11.335938 16.171875 -11.609375 Z M 16.171875 -11.6875 "/></g></g></g><g fill="#f8f6e9" fill-opacity="1"><g transform="translate(719.710026, 183.718341)"><g><path d="M 19.53125 -31.765625 L 18.953125 -23.59375 C 18.859375 -22.519531 18.503906 -21.984375 17.890625 -21.984375 L 16.21875 -21.984375 L 16.21875 -1.171875 C 16.21875 -0.390625 15.789062 0 14.9375 0 L 9.96875 0 C 9.1875 0 8.796875 -0.410156 8.796875 -1.234375 L 8.796875 -21.984375 L 2.078125 -21.984375 C 1.378906 -21.984375 1.003906 -22.519531 0.953125 -23.59375 L 0.546875 -31.765625 L 0.546875 -31.953125 C 0.546875 -32.753906 0.9375 -33.15625 1.71875 -33.15625 L 18.515625 -33.15625 C 19.191406 -33.15625 19.53125 -32.765625 19.53125 -31.984375 Z M 19.53125 -31.765625 "/></g></g></g><g fill="#f8f6e9" fill-opacity="1"><g transform="translate(739.811601, 183.718341)"><g><path d="M 23.296875 -32.453125 C 23.296875 -32.304688 23.285156 -32.195312 23.265625 -32.125 L 19.46875 -10.078125 L 23.109375 -0.84375 C 23.140625 -0.738281 23.15625 -0.648438 23.15625 -0.578125 C 23.15625 -0.191406 22.875 0 22.3125 0 L 14.671875 0 C 14.140625 0 13.765625 -0.265625 13.546875 -0.796875 L 9.671875 -10.515625 L 8.328125 -0.953125 C 8.234375 -0.316406 7.878906 0 7.265625 0 L 1.609375 0 C 1.117188 0 0.875 -0.226562 0.875 -0.6875 C 0.875 -0.769531 0.882812 -0.84375 0.90625 -0.90625 L 4.59375 -22.9375 L 1.125 -32.234375 C 1.050781 -32.390625 1.015625 -32.539062 1.015625 -32.6875 C 1.015625 -33 1.175781 -33.15625 1.5 -33.15625 L 9.171875 -33.15625 C 9.671875 -33.15625 10.03125 -32.863281 10.25 -32.28125 L 14.03125 -22.53125 L 15.65625 -32.28125 C 15.738281 -32.863281 16.054688 -33.15625 16.609375 -33.15625 L 22.59375 -33.15625 C 23.0625 -33.15625 23.296875 -32.921875 23.296875 -32.453125 Z M 23.296875 -32.453125 "/></g></g></g><g fill="#f8f6e9" fill-opacity="1"><g transform="translate(764.037287, 183.718341)"><g/></g></g><g fill="#f8f6e9" fill-opacity="1"><g transform="translate(776.409576, 183.718341)"><g><path d="M 11.46875 -14.3125 C 11.46875 -13.5625 11.164062 -13.1875 10.5625 -13.1875 L 5.078125 -13.1875 C 4.421875 -13.1875 4.09375 -13.5625 4.09375 -14.3125 L 4.09375 -21.40625 C 4.09375 -21.789062 3.898438 -21.984375 3.515625 -21.984375 L 3.09375 -21.984375 C 2.507812 -21.984375 2.1875 -22.359375 2.125 -23.109375 L 1.5625 -31.921875 L 1.5625 -32.03125 C 1.5625 -32.78125 1.914062 -33.15625 2.625 -33.15625 L 10.359375 -33.15625 C 11.097656 -33.15625 11.46875 -32.742188 11.46875 -31.921875 Z M 11.46875 -14.3125 "/></g></g></g><g fill="#f8f6e9" fill-opacity="1"><g transform="translate(789.628546, 183.718341)"><g><path d="M 11.46875 -14.3125 C 11.46875 -13.5625 11.164062 -13.1875 10.5625 -13.1875 L 5.078125 -13.1875 C 4.421875 -13.1875 4.09375 -13.5625 4.09375 -14.3125 L 4.09375 -21.40625 C 4.09375 -21.789062 3.898438 -21.984375 3.515625 -21.984375 L 3.09375 -21.984375 C 2.507812 -21.984375 2.1875 -22.359375 2.125 -23.109375 L 1.5625 -31.921875 L 1.5625 -32.03125 C 1.5625 -32.78125 1.914062 -33.15625 2.625 -33.15625 L 10.359375 -33.15625 C 11.097656 -33.15625 11.46875 -32.742188 11.46875 -31.921875 Z M 11.46875 -14.3125 "/></g></g></g><g fill="#f8f6e9" fill-opacity="1"><g transform="translate(802.847471, 183.718341)"><g><path d="M 23.046875 -0.90625 C 23.046875 -0.300781 22.785156 0 22.265625 0 L 16.828125 0 C 16.222656 0 15.894531 -0.390625 15.84375 -1.171875 L 14.421875 -21.46875 C 14.378906 -21.78125 14.179688 -21.9375 13.828125 -21.9375 L 10.734375 -21.9375 C 10.460938 -21.9375 10.316406 -21.757812 10.296875 -21.40625 L 8.796875 -1.171875 C 8.742188 -0.390625 8.390625 0 7.734375 0 L 2.453125 0 C 1.859375 0 1.5625 -0.363281 1.5625 -1.09375 L 1.5625 -1.171875 L 3.515625 -31.921875 C 3.578125 -32.742188 3.972656 -33.15625 4.703125 -33.15625 L 20.125 -33.15625 C 20.851562 -33.15625 21.242188 -32.742188 21.296875 -31.921875 L 23.046875 -1.171875 Z M 23.046875 -0.90625 "/></g></g></g><g fill="#f8f6e9" fill-opacity="1"><g transform="translate(827.482847, 183.718341)"><g><path d="M 19.421875 -31.921875 L 17.609375 -1.171875 C 17.554688 -0.390625 17.164062 0 16.4375 0 L 7.734375 0 C 7.003906 0 6.613281 -0.390625 6.5625 -1.171875 L 6.03125 -9.890625 L 6.03125 -10.03125 C 6.03125 -10.8125 6.382812 -11.203125 7.09375 -11.203125 L 10.46875 -11.203125 C 10.863281 -11.203125 11.070312 -11.398438 11.09375 -11.796875 L 11.53125 -21.1875 L 11.53125 -21.28125 C 11.53125 -21.71875 11.335938 -21.9375 10.953125 -21.9375 L 2.984375 -21.9375 C 2.234375 -21.9375 1.835938 -22.304688 1.796875 -23.046875 L 0.953125 -38.15625 L 0.953125 -38.375 C 0.953125 -39.082031 1.253906 -39.4375 1.859375 -39.4375 L 7.15625 -39.4375 C 7.914062 -39.4375 8.304688 -39.046875 8.328125 -38.265625 L 8.546875 -33.890625 C 8.566406 -33.398438 8.773438 -33.15625 9.171875 -33.15625 L 18.359375 -33.109375 C 19.066406 -33.109375 19.421875 -32.769531 19.421875 -32.09375 Z M 19.421875 -31.921875 "/></g></g></g><g fill="#f8f6e9" fill-opacity="1"><g transform="translate(848.458404, 183.718341)"><g/></g></g><g fill="#f8f6e9" fill-opacity="1"><g transform="translate(860.830693, 183.718341)"><g><path d="M 21.9375 -1.25 C 21.9375 -0.414062 21.5625 0 20.8125 0 L 15.78125 0 C 14.96875 0 14.53125 -0.460938 14.46875 -1.390625 L 13.296875 -21.078125 C 13.265625 -21.679688 13.007812 -21.984375 12.53125 -21.984375 L 3.953125 -21.984375 C 3.097656 -21.984375 2.671875 -22.46875 2.671875 -23.4375 L 2.671875 -23.59375 L 3.140625 -31.8125 C 3.191406 -32.707031 3.675781 -33.15625 4.59375 -33.15625 L 18.90625 -33.15625 C 19.738281 -33.15625 20.179688 -32.671875 20.234375 -31.703125 L 21.9375 -1.390625 Z M 9.171875 -14.53125 L 8.796875 -1.28125 C 8.753906 -0.425781 8.296875 0 7.421875 0 L 2.671875 0 C 1.929688 0 1.5625 -0.4375 1.5625 -1.3125 L 1.5625 -1.390625 L 2.078125 -14.671875 C 2.097656 -15.554688 2.597656 -16 3.578125 -16 L 7.890625 -16 C 8.742188 -16 9.171875 -15.546875 9.171875 -14.640625 Z M 9.171875 -14.53125 "/></g></g></g><g fill="#f8f6e9" fill-opacity="1"><g transform="translate(884.346246, 183.718341)"><g><path d="M 18.359375 -1.125 C 18.359375 -0.375 18.054688 0 17.453125 0 L 11.96875 0 C 11.25 0 10.890625 -0.375 10.890625 -1.125 L 10.890625 -21.40625 C 10.890625 -21.789062 10.691406 -21.984375 10.296875 -21.984375 L 2.78125 -21.984375 C 2.019531 -21.984375 1.628906 -22.335938 1.609375 -23.046875 L 1.0625 -31.921875 L 1.0625 -32.015625 C 1.0625 -32.773438 1.414062 -33.15625 2.125 -33.15625 L 17.234375 -33.15625 C 17.984375 -33.15625 18.359375 -32.742188 18.359375 -31.921875 Z M 18.359375 -1.125 "/></g></g></g><g fill="#f8f6e9" fill-opacity="1"><g transform="translate(904.939412, 183.718341)"><g><path d="M 10.953125 -1.125 C 10.953125 -0.375 10.679688 0 10.140625 0 L 4.59375 0 C 3.914062 0 3.578125 -0.375 3.578125 -1.125 L 3.578125 -21.46875 C 3.578125 -21.8125 3.453125 -21.984375 3.203125 -21.984375 L 2.890625 -21.984375 C 2.441406 -21.984375 2.1875 -22.359375 2.125 -23.109375 L 1.5625 -31.921875 L 1.5625 -32.015625 C 1.5625 -32.773438 1.914062 -33.15625 2.625 -33.15625 L 9.828125 -33.15625 C 10.578125 -33.15625 10.953125 -32.742188 10.953125 -31.921875 Z M 10.953125 -1.125 "/></g></g></g><g fill="#f8f6e9" fill-opacity="1"><g transform="translate(917.666745, 183.718341)"><g><path d="M 23.65625 -1.09375 C 23.65625 -0.363281 23.300781 0 22.59375 0 L 12.375 0 C 11.664062 0 11.3125 -0.375 11.3125 -1.125 L 11.3125 -1.171875 L 11.796875 -9.828125 C 11.847656 -10.742188 12.238281 -11.203125 12.96875 -11.203125 L 15.109375 -11.203125 C 15.453125 -11.203125 15.625 -11.375 15.625 -11.71875 C 15.625 -11.789062 15.613281 -11.835938 15.59375 -11.859375 L 15 -21.296875 C 14.976562 -21.753906 14.765625 -21.984375 14.359375 -21.984375 L 10.84375 -21.984375 C 10.457031 -21.984375 10.257812 -21.753906 10.25 -21.296875 L 9.015625 -1.171875 C 8.960938 -0.390625 8.570312 0 7.84375 0 L 2.625 0 C 1.914062 0 1.5625 -0.375 1.5625 -1.125 L 1.5625 -1.171875 L 3.515625 -31.921875 C 3.578125 -32.742188 3.988281 -33.15625 4.75 -33.15625 L 20.546875 -33.15625 C 21.265625 -33.15625 21.65625 -32.742188 21.71875 -31.921875 L 23.65625 -1.171875 Z M 23.65625 -1.09375 "/></g></g></g><g fill="#f8f6e9" fill-opacity="1"><g transform="translate(942.902915, 183.718341)"><g><path d="M 23.046875 -0.90625 C 23.046875 -0.300781 22.785156 0 22.265625 0 L 16.828125 0 C 16.222656 0 15.894531 -0.390625 15.84375 -1.171875 L 14.421875 -21.46875 C 14.378906 -21.78125 14.179688 -21.9375 13.828125 -21.9375 L 10.734375 -21.9375 C 10.460938 -21.9375 10.316406 -21.757812 10.296875 -21.40625 L 8.796875 -1.171875 C 8.742188 -0.390625 8.390625 0 7.734375 0 L 2.453125 0 C 1.859375 0 1.5625 -0.363281 1.5625 -1.09375 L 1.5625 -1.171875 L 3.515625 -31.921875 C 3.578125 -32.742188 3.972656 -33.15625 4.703125 -33.15625 L 20.125 -33.15625 C 20.851562 -33.15625 21.242188 -32.742188 21.296875 -31.921875 L 23.046875 -1.171875 Z M 23.046875 -0.90625 "/></g></g></g><g fill="#f8f6e9" fill-opacity="1"><g transform="translate(967.538291, 183.718341)"><g/></g></g><g fill="#f8f6e9" fill-opacity="1"><g transform="translate(979.91058, 183.718341)"><g><path d="M 21.9375 -1.25 C 21.9375 -0.414062 21.5625 0 20.8125 0 L 15.78125 0 C 14.96875 0 14.53125 -0.460938 14.46875 -1.390625 L 13.296875 -21.078125 C 13.265625 -21.679688 13.007812 -21.984375 12.53125 -21.984375 L 3.953125 -21.984375 C 3.097656 -21.984375 2.671875 -22.46875 2.671875 -23.4375 L 2.671875 -23.59375 L 3.140625 -31.8125 C 3.191406 -32.707031 3.675781 -33.15625 4.59375 -33.15625 L 18.90625 -33.15625 C 19.738281 -33.15625 20.179688 -32.671875 20.234375 -31.703125 L 21.9375 -1.390625 Z M 9.171875 -14.53125 L 8.796875 -1.28125 C 8.753906 -0.425781 8.296875 0 7.421875 0 L 2.671875 0 C 1.929688 0 1.5625 -0.4375 1.5625 -1.3125 L 1.5625 -1.390625 L 2.078125 -14.671875 C 2.097656 -15.554688 2.597656 -16 3.578125 -16 L 7.890625 -16 C 8.742188 -16 9.171875 -15.546875 9.171875 -14.640625 Z M 9.171875 -14.53125 "/></g></g></g><g fill="#f8f6e9" fill-opacity="1"><g transform="translate(1003.426133, 183.718341)"><g><path d="M 15.671875 -1.0625 C 15.671875 -0.351562 15.316406 0 14.609375 0 L 2.125 0 C 1.457031 0 1.125 -0.351562 1.125 -1.0625 L 1.125 -1.171875 L 1.96875 -10.03125 C 2.039062 -10.8125 2.429688 -11.203125 3.140625 -11.203125 L 7.15625 -11.203125 C 7.570312 -11.203125 7.78125 -11.316406 7.78125 -11.546875 L 7.78125 -11.640625 L 7 -21.46875 C 6.957031 -21.78125 6.742188 -21.9375 6.359375 -21.9375 L 4.859375 -21.9375 C 4.148438 -21.9375 3.796875 -22.289062 3.796875 -23 L 3.796875 -23.046875 L 4.421875 -31.921875 C 4.472656 -32.742188 4.882812 -33.15625 5.65625 -33.15625 L 12.640625 -33.15625 C 13.367188 -33.15625 13.765625 -32.742188 13.828125 -31.921875 L 15.65625 -1.171875 C 15.664062 -1.148438 15.671875 -1.113281 15.671875 -1.0625 Z M 15.671875 -1.0625 "/></g></g></g><g fill="#f8f6e9" fill-opacity="1"><g transform="translate(1020.659922, 183.718341)"><g><path d="M 19.6875 -1.09375 C 19.6875 -0.363281 19.332031 0 18.625 0 L 2.125 0 C 1.457031 0 1.125 -0.335938 1.125 -1.015625 L 1.125 -1.171875 L 1.90625 -10.078125 C 2 -10.828125 2.410156 -11.203125 3.140625 -11.203125 L 11.25 -11.203125 C 11.65625 -11.203125 11.859375 -11.390625 11.859375 -11.765625 L 11.859375 -11.859375 L 11.25 -21.40625 C 11.226562 -21.757812 11.054688 -21.9375 10.734375 -21.9375 L 3.09375 -21.9375 C 2.375 -21.9375 2.015625 -22.265625 2.015625 -22.921875 L 2.015625 -23 L 2.625 -31.921875 C 2.675781 -32.742188 3.082031 -33.15625 3.84375 -33.15625 L 16.65625 -33.15625 C 17.382812 -33.15625 17.773438 -32.742188 17.828125 -31.921875 L 19.6875 -1.171875 Z M 19.6875 -1.09375 "/></g></g></g><g fill="#f8f6e9" fill-opacity="1"><g transform="translate(1041.93592, 183.718341)"><g><path d="M 23.546875 -31.984375 L 21.71875 -1.234375 C 21.65625 -0.410156 21.242188 0 20.484375 0 L 4.53125 0 C 3.800781 0 3.410156 -0.410156 3.359375 -1.234375 L 1.5 -31.984375 L 1.5 -32.125 C 1.5 -32.8125 1.851562 -33.15625 2.5625 -33.15625 L 22.484375 -33.15625 C 23.191406 -33.15625 23.546875 -32.789062 23.546875 -32.0625 Z M 15.59375 -21.515625 C 15.59375 -21.867188 15.429688 -22.046875 15.109375 -22.046875 L 9.890625 -22.046875 C 9.554688 -22.046875 9.390625 -21.878906 9.390625 -21.546875 L 9.390625 -21.46875 L 10.1875 -11.578125 C 10.207031 -11.359375 10.332031 -11.25 10.5625 -11.25 L 14.609375 -11.25 C 14.867188 -11.25 15.015625 -11.359375 15.046875 -11.578125 L 15.59375 -21.46875 Z M 15.59375 -21.515625 "/></g></g></g><g fill="#f8f6e9" fill-opacity="1"><g transform="translate(1067.090235, 183.718341)"><g/></g></g><g fill="#f8f6e9" fill-opacity="1"><g transform="translate(1079.462524, 183.718341)"><g><path d="M 19.421875 -31.921875 L 17.609375 -1.171875 C 17.554688 -0.390625 17.164062 0 16.4375 0 L 7.734375 0 C 7.003906 0 6.613281 -0.390625 6.5625 -1.171875 L 6.03125 -9.890625 L 6.03125 -10.03125 C 6.03125 -10.8125 6.382812 -11.203125 7.09375 -11.203125 L 10.46875 -11.203125 C 10.863281 -11.203125 11.070312 -11.398438 11.09375 -11.796875 L 11.53125 -21.1875 L 11.53125 -21.28125 C 11.53125 -21.71875 11.335938 -21.9375 10.953125 -21.9375 L 2.984375 -21.9375 C 2.234375 -21.9375 1.835938 -22.304688 1.796875 -23.046875 L 0.953125 -38.15625 L 0.953125 -38.375 C 0.953125 -39.082031 1.253906 -39.4375 1.859375 -39.4375 L 7.15625 -39.4375 C 7.914062 -39.4375 8.304688 -39.046875 8.328125 -38.265625 L 8.546875 -33.890625 C 8.566406 -33.398438 8.773438 -33.15625 9.171875 -33.15625 L 18.359375 -33.109375 C 19.066406 -33.109375 19.421875 -32.769531 19.421875 -32.09375 Z M 19.421875 -31.921875 "/></g></g></g><g fill="#f8f6e9" fill-opacity="1"><g transform="translate(1100.43808, 183.718341)"><g><path d="M 18.90625 -15.890625 C 18.90625 -15.109375 18.472656 -14.71875 17.609375 -14.71875 L 12.96875 -14.71875 C 12.039062 -14.71875 11.578125 -15.109375 11.578125 -15.890625 L 11.578125 -32.0625 C 11.578125 -32.789062 12.039062 -33.15625 12.96875 -33.15625 L 17.609375 -33.15625 C 18.472656 -33.15625 18.90625 -32.789062 18.90625 -32.0625 Z M 29.203125 -31.984375 L 27.28125 -1.234375 C 27.226562 -0.410156 26.820312 0 26.0625 0 L 4.53125 0 C 3.800781 0 3.410156 -0.410156 3.359375 -1.234375 L 1.5625 -31.984375 L 1.5625 -32.28125 C 1.5625 -32.863281 1.820312 -33.15625 2.34375 -33.15625 L 8 -33.15625 C 8.582031 -33.15625 8.898438 -32.765625 8.953125 -31.984375 L 10.25 -11.6875 C 10.257812 -11.394531 10.4375 -11.25 10.78125 -11.25 L 20.015625 -11.25 C 20.296875 -11.25 20.453125 -11.414062 20.484375 -11.75 L 21.984375 -31.984375 C 22.035156 -32.765625 22.390625 -33.15625 23.046875 -33.15625 L 28.296875 -33.15625 C 28.898438 -33.15625 29.203125 -32.800781 29.203125 -32.09375 Z M 29.203125 -31.984375 "/></g></g></g><g fill="#f8f6e9" fill-opacity="1"><g transform="translate(1131.163981, 183.718341)"><g/></g></g><g fill="#f8f6e9" fill-opacity="1"><g transform="translate(1143.53627, 183.718341)"><g><path d="M 20.296875 -1.015625 C 20.296875 -0.335938 20.019531 0 19.46875 0 L 1.671875 0 C 1.085938 0 0.796875 -0.300781 0.796875 -0.90625 L 0.796875 -1.015625 L 1.234375 -10.1875 C 1.242188 -10.863281 1.5625 -11.203125 2.1875 -11.203125 L 10.40625 -11.203125 L 9.78125 -21.359375 C 9.738281 -21.742188 9.570312 -21.9375 9.28125 -21.9375 L 3.46875 -21.9375 C 2.832031 -21.9375 2.515625 -22.28125 2.515625 -22.96875 L 2.515625 -23.046875 L 2.890625 -32.171875 C 2.910156 -32.828125 3.3125 -33.15625 4.09375 -33.15625 L 15.484375 -33.15625 C 16.191406 -33.15625 16.566406 -32.8125 16.609375 -32.125 L 17.828125 -11.203125 L 18.90625 -11.203125 C 19.5 -11.203125 19.816406 -10.828125 19.859375 -10.078125 L 20.296875 -1.0625 Z M 20.296875 -1.015625 "/></g></g></g><g fill="#f8f6e9" fill-opacity="1"><g transform="translate(1164.62112, 183.718341)"><g><path d="M 22.203125 -32.390625 C 22.203125 -32.316406 22.195312 -32.242188 22.1875 -32.171875 C 22.175781 -32.097656 22.164062 -32.015625 22.15625 -31.921875 L 17.9375 -11.75 L 21.515625 -1.171875 C 21.578125 -1.066406 21.609375 -0.945312 21.609375 -0.8125 C 21.609375 -0.269531 21.363281 0 20.875 0 L 2.234375 0 C 1.566406 0 1.234375 -0.363281 1.234375 -1.09375 L 1.234375 -1.171875 L 1.96875 -9.890625 C 2.039062 -10.765625 2.46875 -11.203125 3.25 -11.203125 L 7.78125 -11.203125 C 8.09375 -11.203125 8.25 -11.289062 8.25 -11.46875 C 8.25 -11.519531 8.238281 -11.554688 8.21875 -11.578125 L 1.125 -31.921875 C 1.082031 -32.066406 1.0625 -32.195312 1.0625 -32.3125 C 1.0625 -32.875 1.363281 -33.15625 1.96875 -33.15625 L 8.796875 -33.15625 C 9.523438 -33.15625 10.023438 -32.742188 10.296875 -31.921875 L 13.03125 -23.65625 L 14.53125 -31.921875 C 14.65625 -32.742188 15.144531 -33.15625 16 -33.15625 L 21.359375 -33.15625 C 21.921875 -33.15625 22.203125 -32.898438 22.203125 -32.390625 Z M 22.203125 -32.390625 "/></g></g></g><g fill="#f8f6e9" fill-opacity="1"><g transform="translate(1187.83623, 183.718341)"><g><path d="M 23.65625 -1.09375 C 23.65625 -0.363281 23.300781 0 22.59375 0 L 12.375 0 C 11.664062 0 11.3125 -0.375 11.3125 -1.125 L 11.3125 -1.171875 L 11.796875 -9.828125 C 11.847656 -10.742188 12.238281 -11.203125 12.96875 -11.203125 L 15.109375 -11.203125 C 15.453125 -11.203125 15.625 -11.375 15.625 -11.71875 C 15.625 -11.789062 15.613281 -11.835938 15.59375 -11.859375 L 15 -21.296875 C 14.976562 -21.753906 14.765625 -21.984375 14.359375 -21.984375 L 10.84375 -21.984375 C 10.457031 -21.984375 10.257812 -21.753906 10.25 -21.296875 L 9.015625 -1.171875 C 8.960938 -0.390625 8.570312 0 7.84375 0 L 2.625 0 C 1.914062 0 1.5625 -0.375 1.5625 -1.125 L 1.5625 -1.171875 L 3.515625 -31.921875 C 3.578125 -32.742188 3.988281 -33.15625 4.75 -33.15625 L 20.546875 -33.15625 C 21.265625 -33.15625 21.65625 -32.742188 21.71875 -31.921875 L 23.65625 -1.171875 Z M 23.65625 -1.09375 "/></g></g></g><g fill="#f8f6e9" fill-opacity="1"><g transform="translate(365.395098, 223.577472)"><g><path d="M 12.875 -0.671875 C 12.875 -0.222656 12.671875 0 12.265625 0 L 1.15625 0 C 0.75 0 0.546875 -0.238281 0.546875 -0.71875 L 0.546875 -0.75 L 0.796875 -6.25 C 0.804688 -6.863281 1.03125 -7.171875 1.46875 -7.171875 L 4.84375 -7.171875 L 4.84375 -13.484375 L 2.375 -11.390625 C 2.132812 -11.191406 1.914062 -11.09375 1.71875 -11.09375 C 1.425781 -11.09375 1.28125 -11.296875 1.28125 -11.703125 C 1.28125 -11.765625 1.285156 -11.8125 1.296875 -11.84375 L 1.75 -17.8125 C 1.769531 -18.113281 1.800781 -18.328125 1.84375 -18.453125 C 1.914062 -18.671875 2.046875 -18.847656 2.234375 -18.984375 L 4.421875 -20.5625 L 4.90625 -21.0625 C 5.070312 -21.238281 5.257812 -21.328125 5.46875 -21.328125 L 8.8125 -21.328125 C 9.25 -21.328125 9.46875 -21.09375 9.46875 -20.625 L 9.46875 -7.171875 L 11.90625 -7.171875 C 12.351562 -7.171875 12.59375 -6.828125 12.625 -6.140625 L 12.875 -0.75 Z M 12.875 -0.671875 "/></g></g><g transform="translate(378.793465, 223.577472)"><g><path d="M 12.796875 -0.671875 C 12.796875 -0.222656 12.601562 0 12.21875 0 L 1.296875 0 C 0.835938 0 0.609375 -0.226562 0.609375 -0.6875 L 0.609375 -0.75 L 0.890625 -6.21875 C 0.890625 -6.320312 0.921875 -6.429688 0.984375 -6.546875 C 1.046875 -6.671875 1.117188 -6.78125 1.203125 -6.875 C 1.285156 -6.976562 1.382812 -7.054688 1.5 -7.109375 C 1.613281 -7.171875 1.722656 -7.203125 1.828125 -7.203125 L 7.890625 -7.203125 C 8.171875 -7.203125 8.3125 -7.378906 8.3125 -7.734375 C 8.3125 -7.785156 8.304688 -7.84375 8.296875 -7.90625 C 8.296875 -7.976562 8.285156 -8.050781 8.265625 -8.125 C 8.191406 -8.707031 8.023438 -9 7.765625 -9 L 2.09375 -9 C 1.4375 -9 1.109375 -9.269531 1.109375 -9.8125 L 1.109375 -9.890625 L 1.75 -20.53125 C 1.789062 -21.0625 2.03125 -21.328125 2.46875 -21.328125 L 11.078125 -21.328125 C 11.453125 -21.328125 11.660156 -21.0625 11.703125 -20.53125 L 12.796875 -0.75 Z M 7.765625 -12.265625 L 7.65625 -14.109375 L 5.609375 -14.109375 L 5.5 -12.265625 Z M 7.765625 -12.265625 "/></g></g><g transform="translate(392.191832, 223.577472)"><g><path d="M 12.796875 -0.671875 C 12.796875 -0.222656 12.601562 0 12.21875 0 L 1.296875 0 C 0.835938 0 0.609375 -0.226562 0.609375 -0.6875 L 0.609375 -0.75 L 0.890625 -6.21875 C 0.890625 -6.320312 0.921875 -6.429688 0.984375 -6.546875 C 1.046875 -6.671875 1.117188 -6.78125 1.203125 -6.875 C 1.285156 -6.976562 1.382812 -7.054688 1.5 -7.109375 C 1.613281 -7.171875 1.722656 -7.203125 1.828125 -7.203125 L 7.890625 -7.203125 C 8.171875 -7.203125 8.3125 -7.378906 8.3125 -7.734375 C 8.3125 -7.785156 8.304688 -7.84375 8.296875 -7.90625 C 8.296875 -7.976562 8.285156 -8.050781 8.265625 -8.125 C 8.191406 -8.707031 8.023438 -9 7.765625 -9 L 2.09375 -9 C 1.4375 -9 1.109375 -9.269531 1.109375 -9.8125 L 1.109375 -9.890625 L 1.75 -20.53125 C 1.789062 -21.0625 2.03125 -21.328125 2.46875 -21.328125 L 11.078125 -21.328125 C 11.453125 -21.328125 11.660156 -21.0625 11.703125 -20.53125 L 12.796875 -0.75 Z M 7.765625 -12.265625 L 7.65625 -14.109375 L 5.609375 -14.109375 L 5.5 -12.265625 Z M 7.765625 -12.265625 "/></g></g><g transform="translate(405.590198, 223.577472)"><g><path d="M 12.796875 -0.671875 C 12.796875 -0.222656 12.601562 0 12.21875 0 L 1.296875 0 C 0.835938 0 0.609375 -0.226562 0.609375 -0.6875 L 0.609375 -0.75 L 1.75 -20.53125 C 1.789062 -21.0625 2.03125 -21.328125 2.46875 -21.328125 L 11.078125 -21.328125 C 11.453125 -21.328125 11.660156 -21.0625 11.703125 -20.53125 L 12.796875 -0.75 Z M 7.890625 -12.265625 L 7.734375 -14.109375 L 5.609375 -14.109375 L 5.5 -12.265625 Z M 8.203125 -7.203125 L 8.09375 -9 L 5.28125 -9 L 5.21875 -7.203125 Z M 8.203125 -7.203125 "/></g></g></g><g fill="#f8f6e9" fill-opacity="1"><g transform="translate(418.988566, 223.577472)"><g/></g><g transform="translate(426.943297, 223.577472)"><g><path d="M 12.5625 -20.421875 L 12.1875 -15.171875 C 12.125 -14.484375 11.894531 -14.140625 11.5 -14.140625 L 10.4375 -14.140625 L 10.4375 -0.75 C 10.4375 -0.25 10.160156 0 9.609375 0 L 6.40625 0 C 5.90625 0 5.65625 -0.265625 5.65625 -0.796875 L 5.65625 -14.140625 L 1.328125 -14.140625 C 0.890625 -14.140625 0.648438 -14.484375 0.609375 -15.171875 L 0.34375 -20.421875 L 0.34375 -20.546875 C 0.34375 -21.066406 0.597656 -21.328125 1.109375 -21.328125 L 11.90625 -21.328125 C 12.34375 -21.328125 12.5625 -21.070312 12.5625 -20.5625 Z M 12.5625 -20.421875 "/></g></g><g transform="translate(439.867541, 223.577472)"><g><path d="M 8.671875 -23.515625 C 8.671875 -23.378906 8.660156 -23.25 8.640625 -23.125 L 6.515625 -14.484375 C 6.421875 -14.140625 6.175781 -13.96875 5.78125 -13.96875 C 5.238281 -13.96875 4.96875 -14.226562 4.96875 -14.75 L 4.96875 -23.0625 C 4.96875 -23.707031 5.164062 -24.03125 5.5625 -24.03125 L 8.265625 -24.03125 C 8.535156 -24.03125 8.671875 -23.859375 8.671875 -23.515625 Z M 4.484375 -23.515625 C 4.484375 -23.398438 4.460938 -23.269531 4.421875 -23.125 L 2.296875 -14.484375 C 2.203125 -14.140625 1.953125 -13.96875 1.546875 -13.96875 C 0.992188 -13.96875 0.71875 -14.226562 0.71875 -14.75 L 0.71875 -23.0625 C 0.71875 -23.707031 0.9375 -24.03125 1.375 -24.03125 L 4.0625 -24.03125 C 4.34375 -24.03125 4.484375 -23.859375 4.484375 -23.515625 Z M 4.484375 -23.515625 "/></g></g><g transform="translate(449.033921, 223.577472)"><g><path d="M 14.109375 -0.8125 C 14.109375 -0.269531 13.867188 0 13.390625 0 L 10.15625 0 C 9.625 0 9.34375 -0.296875 9.3125 -0.890625 L 8.546875 -13.5625 C 8.523438 -13.945312 8.363281 -14.140625 8.0625 -14.140625 L 2.546875 -14.140625 C 1.992188 -14.140625 1.71875 -14.445312 1.71875 -15.0625 L 1.71875 -15.171875 L 2.015625 -20.453125 C 2.054688 -21.035156 2.367188 -21.328125 2.953125 -21.328125 L 12.15625 -21.328125 C 12.695312 -21.328125 12.984375 -21.015625 13.015625 -20.390625 L 14.109375 -0.890625 Z M 5.90625 -9.34375 L 5.65625 -0.828125 C 5.632812 -0.273438 5.34375 0 4.78125 0 L 1.71875 0 C 1.238281 0 1 -0.28125 1 -0.84375 L 1 -0.890625 L 1.328125 -9.4375 C 1.347656 -10.007812 1.671875 -10.296875 2.296875 -10.296875 L 5.078125 -10.296875 C 5.628906 -10.296875 5.90625 -10 5.90625 -9.40625 Z M 5.90625 -9.34375 "/></g></g><g transform="translate(464.153179, 223.577472)"><g><path d="M 7.046875 -0.71875 C 7.046875 -0.238281 6.867188 0 6.515625 0 L 2.953125 0 C 2.515625 0 2.296875 -0.238281 2.296875 -0.71875 L 2.296875 -13.796875 C 2.296875 -14.023438 2.21875 -14.140625 2.0625 -14.140625 L 1.859375 -14.140625 C 1.566406 -14.140625 1.40625 -14.378906 1.375 -14.859375 L 1 -20.53125 L 1 -20.578125 C 1 -21.078125 1.226562 -21.328125 1.6875 -21.328125 L 6.328125 -21.328125 C 6.804688 -21.328125 7.046875 -21.0625 7.046875 -20.53125 Z M 7.046875 -0.71875 "/></g></g><g transform="translate(472.336192, 223.577472)"><g><path d="M 15.65625 -0.671875 C 15.65625 -0.222656 15.4375 0 15 0 L 11.796875 0 C 11.304688 0 11.046875 -0.25 11.015625 -0.75 L 10.0625 -13.703125 C 10.039062 -13.972656 9.910156 -14.109375 9.671875 -14.109375 L 7.953125 -14.109375 C 7.710938 -14.109375 7.578125 -13.972656 7.546875 -13.703125 L 6.90625 -0.75 C 6.894531 -0.25 6.640625 0 6.140625 0 L 1.515625 0 C 1.054688 0 0.828125 -0.242188 0.828125 -0.734375 L 0.828125 -0.75 L 1.109375 -6.40625 C 1.117188 -6.9375 1.359375 -7.203125 1.828125 -7.203125 L 2.328125 -7.203125 C 2.578125 -7.203125 2.710938 -7.316406 2.734375 -7.546875 L 3.09375 -13.734375 L 3.09375 -13.78125 C 3.09375 -14 2.988281 -14.109375 2.78125 -14.109375 L 2.15625 -14.109375 C 1.65625 -14.109375 1.394531 -14.378906 1.375 -14.921875 L 1.109375 -20.53125 L 1.109375 -20.640625 C 1.109375 -21.097656 1.320312 -21.328125 1.75 -21.328125 L 13.703125 -21.328125 C 14.171875 -21.328125 14.421875 -21.0625 14.453125 -20.53125 L 15.65625 -0.75 Z M 15.65625 -0.671875 "/></g></g><g transform="translate(489.00074, 223.577472)"><g/></g><g transform="translate(496.955472, 223.577472)"><g><path d="M 11.84375 -9.0625 C 11.84375 -8.582031 11.585938 -8.34375 11.078125 -8.34375 L 1.515625 -8.34375 C 1.003906 -8.34375 0.75 -8.582031 0.75 -9.0625 L 0.75 -11.90625 C 0.75 -12.382812 1.003906 -12.625 1.515625 -12.625 L 11.078125 -12.625 C 11.585938 -12.625 11.84375 -12.382812 11.84375 -11.90625 Z M 11.84375 -9.0625 "/></g></g><g transform="translate(509.546073, 223.577472)"><g/></g><g transform="translate(517.500805, 223.577472)"><g><path d="M 15.46875 -0.6875 C 15.46875 -0.226562 15.238281 0 14.78125 0 L 1.6875 0 C 1.226562 0 1 -0.234375 1 -0.703125 L 1 -0.75 L 2.234375 -20.53125 C 2.265625 -21.0625 2.515625 -21.328125 2.984375 -21.328125 L 13.515625 -21.328125 C 13.984375 -21.328125 14.238281 -21.0625 14.28125 -20.53125 L 15.46875 -0.75 Z M 10.390625 -7.515625 L 9.890625 -13.890625 C 9.867188 -14.035156 9.796875 -14.109375 9.671875 -14.109375 L 6.765625 -14.109375 C 6.585938 -14.109375 6.492188 -14.035156 6.484375 -13.890625 L 6.109375 -7.515625 L 6.109375 -7.5 C 6.109375 -7.300781 6.222656 -7.203125 6.453125 -7.203125 L 10.0625 -7.203125 C 10.28125 -7.203125 10.390625 -7.289062 10.390625 -7.46875 Z M 10.390625 -7.515625 "/></g></g><g transform="translate(533.972192, 223.577472)"><g><path d="M 8.671875 -23.515625 C 8.671875 -23.378906 8.660156 -23.25 8.640625 -23.125 L 6.515625 -14.484375 C 6.421875 -14.140625 6.175781 -13.96875 5.78125 -13.96875 C 5.238281 -13.96875 4.96875 -14.226562 4.96875 -14.75 L 4.96875 -23.0625 C 4.96875 -23.707031 5.164062 -24.03125 5.5625 -24.03125 L 8.265625 -24.03125 C 8.535156 -24.03125 8.671875 -23.859375 8.671875 -23.515625 Z M 4.484375 -23.515625 C 4.484375 -23.398438 4.460938 -23.269531 4.421875 -23.125 L 2.296875 -14.484375 C 2.203125 -14.140625 1.953125 -13.96875 1.546875 -13.96875 C 0.992188 -13.96875 0.71875 -14.226562 0.71875 -14.75 L 0.71875 -23.0625 C 0.71875 -23.707031 0.9375 -24.03125 1.375 -24.03125 L 4.0625 -24.03125 C 4.34375 -24.03125 4.484375 -23.859375 4.484375 -23.515625 Z M 4.484375 -23.515625 "/></g></g><g transform="translate(543.138571, 223.577472)"><g><path d="M 10.359375 -0.65625 C 10.359375 -0.21875 10.128906 0 9.671875 0 L 6.328125 0 C 5.910156 0 5.695312 -0.21875 5.6875 -0.65625 L 5.5625 -2.546875 L 1.578125 0.71875 C 1.453125 0.8125 1.332031 0.859375 1.21875 0.859375 C 0.882812 0.859375 0.71875 0.660156 0.71875 0.265625 L 0.71875 0.171875 L 1.234375 -6.28125 C 1.265625 -6.71875 1.492188 -7.070312 1.921875 -7.34375 L 5.046875 -9.3125 L 4.734375 -13.734375 C 4.710938 -13.984375 4.597656 -14.109375 4.390625 -14.109375 L 2.953125 -14.109375 C 2.378906 -14.109375 2.09375 -14.320312 2.09375 -14.75 L 2.09375 -14.890625 L 2.46875 -20.625 C 2.507812 -21.09375 2.738281 -21.328125 3.15625 -21.328125 L 8.484375 -21.328125 C 8.898438 -21.328125 9.128906 -21.070312 9.171875 -20.5625 L 10.359375 -0.75 Z M 10.359375 -0.65625 "/></g></g><g transform="translate(554.201443, 223.577472)"><g><path d="M 14.984375 -20.859375 C 14.984375 -20.765625 14.976562 -20.695312 14.96875 -20.65625 L 12.515625 -6.484375 L 14.859375 -0.546875 C 14.878906 -0.472656 14.890625 -0.414062 14.890625 -0.375 C 14.890625 -0.125 14.707031 0 14.34375 0 L 9.4375 0 C 9.09375 0 8.851562 -0.171875 8.71875 -0.515625 L 6.21875 -6.765625 L 5.359375 -0.609375 C 5.296875 -0.203125 5.066406 0 4.671875 0 L 1.03125 0 C 0.71875 0 0.5625 -0.144531 0.5625 -0.4375 C 0.5625 -0.5 0.566406 -0.546875 0.578125 -0.578125 L 2.953125 -14.75 L 0.71875 -20.71875 C 0.675781 -20.820312 0.65625 -20.921875 0.65625 -21.015625 C 0.65625 -21.222656 0.757812 -21.328125 0.96875 -21.328125 L 5.90625 -21.328125 C 6.21875 -21.328125 6.445312 -21.140625 6.59375 -20.765625 L 9.03125 -14.484375 L 10.0625 -20.765625 C 10.125 -21.140625 10.328125 -21.328125 10.671875 -21.328125 L 14.53125 -21.328125 C 14.832031 -21.328125 14.984375 -21.171875 14.984375 -20.859375 Z M 14.984375 -20.859375 "/></g></g><g transform="translate(569.777264, 223.577472)"><g/></g><g transform="translate(577.731996, 223.577472)"><g><path d="M 6.625 -1.1875 C 6.625 -0.8125 6.382812 -0.40625 5.90625 0.03125 L 1.609375 3.953125 C 1.378906 4.148438 1.160156 4.25 0.953125 4.25 C 0.546875 4.25 0.34375 4.046875 0.34375 3.640625 C 0.34375 3.578125 0.363281 3.476562 0.40625 3.34375 L 1.953125 -2.78125 C 2.035156 -3.164062 2.332031 -3.546875 2.84375 -3.921875 L 5.078125 -5.5625 C 5.265625 -5.695312 5.425781 -5.765625 5.5625 -5.765625 C 5.96875 -5.765625 6.195312 -5.488281 6.25 -4.9375 Z M 6.625 -1.1875 "/></g></g><g transform="translate(585.423326, 223.577472)"><g><path d="M 12.484375 -20.53125 L 11.328125 -0.75 C 11.296875 -0.25 11.046875 0 10.578125 0 L 4.96875 0 C 4.5 0 4.25 -0.25 4.21875 -0.75 L 3.875 -6.359375 L 3.875 -6.453125 C 3.875 -6.953125 4.101562 -7.203125 4.5625 -7.203125 L 6.734375 -7.203125 C 6.984375 -7.203125 7.113281 -7.332031 7.125 -7.59375 L 7.40625 -13.625 L 7.40625 -13.6875 C 7.40625 -13.96875 7.285156 -14.109375 7.046875 -14.109375 L 1.921875 -14.109375 C 1.429688 -14.109375 1.175781 -14.347656 1.15625 -14.828125 L 0.609375 -24.53125 L 0.609375 -24.671875 C 0.609375 -25.128906 0.800781 -25.359375 1.1875 -25.359375 L 4.59375 -25.359375 C 5.09375 -25.359375 5.347656 -25.109375 5.359375 -24.609375 L 5.5 -21.796875 C 5.507812 -21.484375 5.644531 -21.328125 5.90625 -21.328125 L 11.796875 -21.28125 C 12.253906 -21.28125 12.484375 -21.066406 12.484375 -20.640625 Z M 12.484375 -20.53125 "/></g></g><g transform="translate(598.909493, 223.577472)"><g><path d="M 8.671875 -23.515625 C 8.671875 -23.378906 8.660156 -23.25 8.640625 -23.125 L 6.515625 -14.484375 C 6.421875 -14.140625 6.175781 -13.96875 5.78125 -13.96875 C 5.238281 -13.96875 4.96875 -14.226562 4.96875 -14.75 L 4.96875 -23.0625 C 4.96875 -23.707031 5.164062 -24.03125 5.5625 -24.03125 L 8.265625 -24.03125 C 8.535156 -24.03125 8.671875 -23.859375 8.671875 -23.515625 Z M 4.484375 -23.515625 C 4.484375 -23.398438 4.460938 -23.269531 4.421875 -23.125 L 2.296875 -14.484375 C 2.203125 -14.140625 1.953125 -13.96875 1.546875 -13.96875 C 0.992188 -13.96875 0.71875 -14.226562 0.71875 -14.75 L 0.71875 -23.0625 C 0.71875 -23.707031 0.9375 -24.03125 1.375 -24.03125 L 4.0625 -24.03125 C 4.34375 -24.03125 4.484375 -23.859375 4.484375 -23.515625 Z M 4.484375 -23.515625 "/></g></g><g transform="translate(608.075873, 223.577472)"><g><path d="M 14.109375 -0.8125 C 14.109375 -0.269531 13.867188 0 13.390625 0 L 10.15625 0 C 9.625 0 9.34375 -0.296875 9.3125 -0.890625 L 8.546875 -13.5625 C 8.523438 -13.945312 8.363281 -14.140625 8.0625 -14.140625 L 2.546875 -14.140625 C 1.992188 -14.140625 1.71875 -14.445312 1.71875 -15.0625 L 1.71875 -15.171875 L 2.015625 -20.453125 C 2.054688 -21.035156 2.367188 -21.328125 2.953125 -21.328125 L 12.15625 -21.328125 C 12.695312 -21.328125 12.984375 -21.015625 13.015625 -20.390625 L 14.109375 -0.890625 Z M 5.90625 -9.34375 L 5.65625 -0.828125 C 5.632812 -0.273438 5.34375 0 4.78125 0 L 1.71875 0 C 1.238281 0 1 -0.28125 1 -0.84375 L 1 -0.890625 L 1.328125 -9.4375 C 1.347656 -10.007812 1.671875 -10.296875 2.296875 -10.296875 L 5.078125 -10.296875 C 5.628906 -10.296875 5.90625 -10 5.90625 -9.40625 Z M 5.90625 -9.34375 "/></g></g><g transform="translate(623.195131, 223.577472)"><g><path d="M 14.28125 -20.828125 C 14.28125 -20.785156 14.273438 -20.738281 14.265625 -20.6875 C 14.265625 -20.644531 14.257812 -20.59375 14.25 -20.53125 L 11.53125 -7.546875 L 13.84375 -0.75 C 13.875 -0.6875 13.890625 -0.613281 13.890625 -0.53125 C 13.890625 -0.175781 13.734375 0 13.421875 0 L 1.4375 0 C 1.007812 0 0.796875 -0.234375 0.796875 -0.703125 L 0.796875 -0.75 L 1.265625 -6.359375 C 1.304688 -6.921875 1.582031 -7.203125 2.09375 -7.203125 L 5 -7.203125 C 5.195312 -7.203125 5.296875 -7.257812 5.296875 -7.375 C 5.296875 -7.40625 5.289062 -7.429688 5.28125 -7.453125 L 0.71875 -20.53125 C 0.695312 -20.625 0.6875 -20.707031 0.6875 -20.78125 C 0.6875 -21.144531 0.878906 -21.328125 1.265625 -21.328125 L 5.65625 -21.328125 C 6.125 -21.328125 6.445312 -21.0625 6.625 -20.53125 L 8.375 -15.203125 L 9.34375 -20.53125 C 9.425781 -21.0625 9.742188 -21.328125 10.296875 -21.328125 L 13.734375 -21.328125 C 14.097656 -21.328125 14.28125 -21.160156 14.28125 -20.828125 Z M 14.28125 -20.828125 "/></g></g><g transform="translate(638.121227, 223.577472)"><g/></g><g transform="translate(646.075959, 223.577472)"><g><path d="M 7.375 -9.203125 C 7.375 -8.722656 7.179688 -8.484375 6.796875 -8.484375 L 3.265625 -8.484375 C 2.847656 -8.484375 2.640625 -8.722656 2.640625 -9.203125 L 2.640625 -13.765625 C 2.640625 -14.015625 2.515625 -14.140625 2.265625 -14.140625 L 1.984375 -14.140625 C 1.609375 -14.140625 1.40625 -14.378906 1.375 -14.859375 L 1 -20.53125 L 1 -20.59375 C 1 -21.082031 1.226562 -21.328125 1.6875 -21.328125 L 6.65625 -21.328125 C 7.132812 -21.328125 7.375 -21.0625 7.375 -20.53125 Z M 7.375 -9.203125 "/></g></g><g transform="translate(654.575054, 223.577472)"><g><path d="M 14.828125 -0.578125 C 14.828125 -0.191406 14.65625 0 14.3125 0 L 10.8125 0 C 10.425781 0 10.21875 -0.25 10.1875 -0.75 L 9.265625 -13.796875 C 9.242188 -14.003906 9.117188 -14.109375 8.890625 -14.109375 L 6.90625 -14.109375 C 6.726562 -14.109375 6.632812 -13.992188 6.625 -13.765625 L 5.65625 -0.75 C 5.625 -0.25 5.394531 0 4.96875 0 L 1.578125 0 C 1.191406 0 1 -0.234375 1 -0.703125 L 1 -0.75 L 2.265625 -20.53125 C 2.296875 -21.0625 2.546875 -21.328125 3.015625 -21.328125 L 12.9375 -21.328125 C 13.40625 -21.328125 13.660156 -21.0625 13.703125 -20.53125 L 14.828125 -0.75 Z M 14.828125 -0.578125 "/></g></g><g transform="translate(670.414277, 223.577472)"><g><path d="M 10.078125 -0.6875 C 10.078125 -0.226562 9.847656 0 9.390625 0 L 1.375 0 C 0.9375 0 0.71875 -0.226562 0.71875 -0.6875 L 0.71875 -0.75 L 1.265625 -6.453125 C 1.304688 -6.953125 1.554688 -7.203125 2.015625 -7.203125 L 4.59375 -7.203125 C 4.863281 -7.203125 5 -7.273438 5 -7.421875 L 5 -7.484375 L 4.5 -13.796875 C 4.476562 -14.003906 4.34375 -14.109375 4.09375 -14.109375 L 3.125 -14.109375 C 2.664062 -14.109375 2.4375 -14.332031 2.4375 -14.78125 L 2.4375 -14.828125 L 2.84375 -20.53125 C 2.875 -21.0625 3.140625 -21.328125 3.640625 -21.328125 L 8.125 -21.328125 C 8.59375 -21.328125 8.847656 -21.0625 8.890625 -20.53125 L 10.0625 -0.75 C 10.070312 -0.738281 10.078125 -0.71875 10.078125 -0.6875 Z M 10.078125 -0.6875 "/></g></g><g transform="translate(681.494709, 223.577472)"><g><path d="M 7.046875 -0.71875 C 7.046875 -0.238281 6.867188 0 6.515625 0 L 2.953125 0 C 2.515625 0 2.296875 -0.238281 2.296875 -0.71875 L 2.296875 -13.796875 C 2.296875 -14.023438 2.21875 -14.140625 2.0625 -14.140625 L 1.859375 -14.140625 C 1.566406 -14.140625 1.40625 -14.378906 1.375 -14.859375 L 1 -20.53125 L 1 -20.578125 C 1 -21.078125 1.226562 -21.328125 1.6875 -21.328125 L 6.328125 -21.328125 C 6.804688 -21.328125 7.046875 -21.0625 7.046875 -20.53125 Z M 7.046875 -0.71875 "/></g></g><g transform="translate(689.677722, 223.577472)"><g><path d="M 15.203125 -0.703125 C 15.203125 -0.234375 14.976562 0 14.53125 0 L 7.953125 0 C 7.492188 0 7.265625 -0.238281 7.265625 -0.71875 L 7.265625 -0.75 L 7.59375 -6.328125 C 7.625 -6.910156 7.875 -7.203125 8.34375 -7.203125 L 9.71875 -7.203125 C 9.9375 -7.203125 10.046875 -7.3125 10.046875 -7.53125 C 10.046875 -7.582031 10.039062 -7.613281 10.03125 -7.625 L 9.640625 -13.703125 C 9.628906 -13.992188 9.492188 -14.140625 9.234375 -14.140625 L 6.96875 -14.140625 C 6.726562 -14.140625 6.601562 -13.992188 6.59375 -13.703125 L 5.796875 -0.75 C 5.765625 -0.25 5.515625 0 5.046875 0 L 1.6875 0 C 1.226562 0 1 -0.238281 1 -0.71875 L 1 -0.75 L 2.265625 -20.53125 C 2.296875 -21.0625 2.5625 -21.328125 3.0625 -21.328125 L 13.203125 -21.328125 C 13.671875 -21.328125 13.925781 -21.0625 13.96875 -20.53125 L 15.203125 -0.75 Z M 15.203125 -0.703125 "/></g></g><g transform="translate(705.903267, 223.577472)"><g><path d="M 12.484375 -20.53125 L 11.328125 -0.75 C 11.296875 -0.25 11.046875 0 10.578125 0 L 4.96875 0 C 4.5 0 4.25 -0.25 4.21875 -0.75 L 3.875 -6.359375 L 3.875 -6.453125 C 3.875 -6.953125 4.101562 -7.203125 4.5625 -7.203125 L 6.734375 -7.203125 C 6.984375 -7.203125 7.113281 -7.332031 7.125 -7.59375 L 7.40625 -13.625 L 7.40625 -13.6875 C 7.40625 -13.96875 7.285156 -14.109375 7.046875 -14.109375 L 1.921875 -14.109375 C 1.429688 -14.109375 1.175781 -14.347656 1.15625 -14.828125 L 0.609375 -24.53125 L 0.609375 -24.671875 C 0.609375 -25.128906 0.800781 -25.359375 1.1875 -25.359375 L 4.59375 -25.359375 C 5.09375 -25.359375 5.347656 -25.109375 5.359375 -24.609375 L 5.5 -21.796875 C 5.507812 -21.484375 5.644531 -21.328125 5.90625 -21.328125 L 11.796875 -21.28125 C 12.253906 -21.28125 12.484375 -21.066406 12.484375 -20.640625 Z M 12.484375 -20.53125 "/></g></g><g transform="translate(719.389435, 223.577472)"><g/></g><g transform="translate(727.344167, 223.577472)"><g><path d="M 7.046875 2.921875 C 7.046875 3.398438 6.867188 3.640625 6.515625 3.640625 L 2.953125 3.640625 C 2.515625 3.640625 2.296875 3.398438 2.296875 2.921875 L 2.296875 -13.796875 C 2.296875 -14.023438 2.21875 -14.140625 2.0625 -14.140625 L 1.859375 -14.140625 C 1.566406 -14.140625 1.40625 -14.378906 1.375 -14.859375 L 1 -20.53125 L 1 -20.578125 C 1 -21.078125 1.226562 -21.328125 1.6875 -21.328125 L 6.328125 -21.328125 C 6.804688 -21.328125 7.046875 -21.0625 7.046875 -20.53125 Z M 7.046875 2.921875 "/></g></g><g transform="translate(735.52718, 223.577472)"><g><path d="M 7.046875 -0.71875 C 7.046875 -0.238281 6.867188 0 6.515625 0 L 2.953125 0 C 2.515625 0 2.296875 -0.238281 2.296875 -0.71875 L 2.296875 -13.796875 C 2.296875 -14.023438 2.21875 -14.140625 2.0625 -14.140625 L 1.859375 -14.140625 C 1.566406 -14.140625 1.40625 -14.378906 1.375 -14.859375 L 1 -20.53125 L 1 -20.578125 C 1 -21.078125 1.226562 -21.328125 1.6875 -21.328125 L 6.328125 -21.328125 C 6.804688 -21.328125 7.046875 -21.0625 7.046875 -20.53125 Z M 7.046875 -0.71875 "/></g></g><g transform="translate(743.710193, 223.577472)"><g><path d="M 12.484375 -20.53125 L 11.328125 -0.75 C 11.296875 -0.25 11.046875 0 10.578125 0 L 4.96875 0 C 4.5 0 4.25 -0.25 4.21875 -0.75 L 3.875 -6.359375 L 3.875 -6.453125 C 3.875 -6.953125 4.101562 -7.203125 4.5625 -7.203125 L 6.734375 -7.203125 C 6.984375 -7.203125 7.113281 -7.332031 7.125 -7.59375 L 7.40625 -13.625 L 7.40625 -13.6875 C 7.40625 -13.96875 7.285156 -14.109375 7.046875 -14.109375 L 1.921875 -14.109375 C 1.429688 -14.109375 1.175781 -14.347656 1.15625 -14.828125 L 0.609375 -24.53125 L 0.609375 -24.671875 C 0.609375 -25.128906 0.800781 -25.359375 1.1875 -25.359375 L 4.59375 -25.359375 C 5.09375 -25.359375 5.347656 -25.109375 5.359375 -24.609375 L 5.5 -21.796875 C 5.507812 -21.484375 5.644531 -21.328125 5.90625 -21.328125 L 11.796875 -21.28125 C 12.253906 -21.28125 12.484375 -21.066406 12.484375 -20.640625 Z M 12.484375 -20.53125 "/></g></g><g transform="translate(757.19636, 223.577472)"><g><path d="M 7.375 -9.203125 C 7.375 -8.722656 7.179688 -8.484375 6.796875 -8.484375 L 3.265625 -8.484375 C 2.847656 -8.484375 2.640625 -8.722656 2.640625 -9.203125 L 2.640625 -13.765625 C 2.640625 -14.015625 2.515625 -14.140625 2.265625 -14.140625 L 1.984375 -14.140625 C 1.609375 -14.140625 1.40625 -14.378906 1.375 -14.859375 L 1 -20.53125 L 1 -20.59375 C 1 -21.082031 1.226562 -21.328125 1.6875 -21.328125 L 6.65625 -21.328125 C 7.132812 -21.328125 7.375 -21.0625 7.375 -20.53125 Z M 7.375 -9.203125 "/></g></g><g transform="translate(765.695455, 223.577472)"><g><path d="M 15.203125 -0.703125 C 15.203125 -0.234375 14.976562 0 14.53125 0 L 7.953125 0 C 7.492188 0 7.265625 -0.238281 7.265625 -0.71875 L 7.265625 -0.75 L 7.59375 -6.328125 C 7.625 -6.910156 7.875 -7.203125 8.34375 -7.203125 L 9.71875 -7.203125 C 9.9375 -7.203125 10.046875 -7.3125 10.046875 -7.53125 C 10.046875 -7.582031 10.039062 -7.613281 10.03125 -7.625 L 9.640625 -13.703125 C 9.628906 -13.992188 9.492188 -14.140625 9.234375 -14.140625 L 6.96875 -14.140625 C 6.726562 -14.140625 6.601562 -13.992188 6.59375 -13.703125 L 5.796875 -0.75 C 5.765625 -0.25 5.515625 0 5.046875 0 L 1.6875 0 C 1.226562 0 1 -0.238281 1 -0.71875 L 1 -0.75 L 2.265625 -20.53125 C 2.296875 -21.0625 2.5625 -21.328125 3.0625 -21.328125 L 13.203125 -21.328125 C 13.671875 -21.328125 13.925781 -21.0625 13.96875 -20.53125 L 15.203125 -0.75 Z M 15.203125 -0.703125 "/></g></g><g transform="translate(781.921001, 223.577472)"><g><path d="M 14.109375 -0.8125 C 14.109375 -0.269531 13.867188 0 13.390625 0 L 10.15625 0 C 9.625 0 9.34375 -0.296875 9.3125 -0.890625 L 8.546875 -13.5625 C 8.523438 -13.945312 8.363281 -14.140625 8.0625 -14.140625 L 2.546875 -14.140625 C 1.992188 -14.140625 1.71875 -14.445312 1.71875 -15.0625 L 1.71875 -15.171875 L 2.015625 -20.453125 C 2.054688 -21.035156 2.367188 -21.328125 2.953125 -21.328125 L 12.15625 -21.328125 C 12.695312 -21.328125 12.984375 -21.015625 13.015625 -20.390625 L 14.109375 -0.890625 Z M 5.90625 -9.34375 L 5.65625 -0.828125 C 5.632812 -0.273438 5.34375 0 4.78125 0 L 1.71875 0 C 1.238281 0 1 -0.28125 1 -0.84375 L 1 -0.890625 L 1.328125 -9.4375 C 1.347656 -10.007812 1.671875 -10.296875 2.296875 -10.296875 L 5.078125 -10.296875 C 5.628906 -10.296875 5.90625 -10 5.90625 -9.40625 Z M 5.90625 -9.34375 "/></g></g><g transform="translate(797.040259, 223.577472)"><g/></g><g transform="translate(804.994991, 223.577472)"><g><path d="M 11.796875 2.921875 C 11.796875 3.398438 11.601562 3.640625 11.21875 3.640625 L 7.6875 3.640625 C 7.226562 3.640625 7 3.398438 7 2.921875 L 7 -13.765625 C 7 -14.015625 6.875 -14.140625 6.625 -14.140625 L 1.796875 -14.140625 C 1.296875 -14.140625 1.039062 -14.367188 1.03125 -14.828125 L 0.6875 -20.53125 L 0.6875 -20.578125 C 0.6875 -21.078125 0.914062 -21.328125 1.375 -21.328125 L 11.078125 -21.328125 C 11.554688 -21.328125 11.796875 -21.0625 11.796875 -20.53125 Z M 11.796875 2.921875 "/></g></g><g transform="translate(818.235316, 223.577472)"><g><path d="M 7.046875 -0.71875 C 7.046875 -0.238281 6.867188 0 6.515625 0 L 2.953125 0 C 2.515625 0 2.296875 -0.238281 2.296875 -0.71875 L 2.296875 -13.796875 C 2.296875 -14.023438 2.21875 -14.140625 2.0625 -14.140625 L 1.859375 -14.140625 C 1.566406 -14.140625 1.40625 -14.378906 1.375 -14.859375 L 1 -20.53125 L 1 -20.578125 C 1 -21.078125 1.226562 -21.328125 1.6875 -21.328125 L 6.328125 -21.328125 C 6.804688 -21.328125 7.046875 -21.0625 7.046875 -20.53125 Z M 7.046875 -0.71875 "/></g></g><g transform="translate(826.418329, 223.577472)"><g><path d="M 15.65625 -0.671875 C 15.65625 -0.222656 15.4375 0 15 0 L 11.796875 0 C 11.304688 0 11.046875 -0.25 11.015625 -0.75 L 10.0625 -13.703125 C 10.039062 -13.972656 9.910156 -14.109375 9.671875 -14.109375 L 7.953125 -14.109375 C 7.710938 -14.109375 7.578125 -13.972656 7.546875 -13.703125 L 6.90625 -0.75 C 6.894531 -0.25 6.640625 0 6.140625 0 L 1.515625 0 C 1.054688 0 0.828125 -0.242188 0.828125 -0.734375 L 0.828125 -0.75 L 1.109375 -6.40625 C 1.117188 -6.9375 1.359375 -7.203125 1.828125 -7.203125 L 2.328125 -7.203125 C 2.578125 -7.203125 2.710938 -7.316406 2.734375 -7.546875 L 3.09375 -13.734375 L 3.09375 -13.78125 C 3.09375 -14 2.988281 -14.109375 2.78125 -14.109375 L 2.15625 -14.109375 C 1.65625 -14.109375 1.394531 -14.378906 1.375 -14.921875 L 1.109375 -20.53125 L 1.109375 -20.640625 C 1.109375 -21.097656 1.320312 -21.328125 1.75 -21.328125 L 13.703125 -21.328125 C 14.171875 -21.328125 14.421875 -21.0625 14.453125 -20.53125 L 15.65625 -0.75 Z M 15.65625 -0.671875 "/></g></g><g transform="translate(843.082877, 223.577472)"><g><path d="M 15.203125 -0.703125 C 15.203125 -0.234375 14.976562 0 14.53125 0 L 7.953125 0 C 7.492188 0 7.265625 -0.238281 7.265625 -0.71875 L 7.265625 -0.75 L 7.59375 -6.328125 C 7.625 -6.910156 7.875 -7.203125 8.34375 -7.203125 L 9.71875 -7.203125 C 9.9375 -7.203125 10.046875 -7.3125 10.046875 -7.53125 C 10.046875 -7.582031 10.039062 -7.613281 10.03125 -7.625 L 9.640625 -13.703125 C 9.628906 -13.992188 9.492188 -14.140625 9.234375 -14.140625 L 6.96875 -14.140625 C 6.726562 -14.140625 6.601562 -13.992188 6.59375 -13.703125 L 5.796875 -0.75 C 5.765625 -0.25 5.515625 0 5.046875 0 L 1.6875 0 C 1.226562 0 1 -0.238281 1 -0.71875 L 1 -0.75 L 2.265625 -20.53125 C 2.296875 -21.0625 2.5625 -21.328125 3.0625 -21.328125 L 13.203125 -21.328125 C 13.671875 -21.328125 13.925781 -21.0625 13.96875 -20.53125 L 15.203125 -0.75 Z M 15.203125 -0.703125 "/></g></g></g></svg>